<svg xmlns="http://www.w3.org/2000/svg" viewBox="0 0 65.99 63.23"><defs><style>.cls-1{fill:none;stroke:#000;stroke-linecap:round;stroke-linejoin:round;stroke-width:2px;}</style></defs><title>Asset 182</title><g id="Layer_2" data-name="Layer 2"><g id="Layer_2-2" data-name="Layer 2"><path class="cls-1" d="M65,26.72v19a7.33,7.33,0,0,1-7.33,7.33h-6V48a4.17,4.17,0,0,0-4.18-4.18H18.55A4.18,4.18,0,0,0,14.37,48v5h-6A7.33,7.33,0,0,1,1,45.72v-19a7.33,7.33,0,0,1,7.33-7.33H57.66A7.33,7.33,0,0,1,65,26.72Z"/><path class="cls-1" d="M51.61,48v10a4.17,4.17,0,0,1-4.18,4.17H18.55a4.18,4.18,0,0,1-4.18-4.17V48a4.18,4.18,0,0,1,4.18-4.18H47.43A4.17,4.17,0,0,1,51.61,48Z"/><path class="cls-1" d="M18.9,1H47.08a4.53,4.53,0,0,1,4.53,4.53V19.38a0,0,0,0,1,0,0H14.38a0,0,0,0,1,0,0V5.53A4.53,4.53,0,0,1,18.9,1Z"/><line class="cls-1" x1="9.05" y1="26.31" x2="13.06" y2="26.31"/><line class="cls-1" x1="19.78" y1="26.31" x2="23.78" y2="26.31"/></g></g></svg>