<svg xmlns="http://www.w3.org/2000/svg" viewBox="0 0 65.6 59.69"><defs><style>.cls-1,.cls-2{fill:none;stroke:#000;stroke-linejoin:round;stroke-width:2px;}.cls-2{stroke-linecap:round;}</style></defs><title>Asset 186</title><g id="Layer_2" data-name="Layer 2"><g id="Layer_2-2" data-name="Layer 2"><path class="cls-1" d="M4.86,20h7.07a0,0,0,0,1,0,0V39.7a0,0,0,0,1,0,0H4.86A3.86,3.86,0,0,1,1,35.85v-12A3.86,3.86,0,0,1,4.86,20Z"/><path class="cls-1" d="M11.92,20V39.7L40.16,58.1a3.57,3.57,0,0,0,5.52-3V4.58a3.58,3.58,0,0,0-5.52-3Z"/><line class="cls-2" x1="49.8" y1="22.44" x2="64.6" y2="37.24"/><line class="cls-2" x1="64.6" y1="22.44" x2="49.8" y2="37.24"/></g></g></svg>