<svg xmlns="http://www.w3.org/2000/svg" viewBox="0 0 55.11 66"><defs><style>.cls-1,.cls-2{fill:none;stroke:#000;stroke-linejoin:round;stroke-width:2px;}.cls-2{stroke-linecap:round;}</style></defs><title>Asset 171</title><g id="Layer_2" data-name="Layer 2"><g id="Layer_2-2" data-name="Layer 2"><path class="cls-1" d="M44.45,17.89v12a16.89,16.89,0,0,1-33.51,3,16.74,16.74,0,0,1-.27-3v-12a16.89,16.89,0,0,1,33.51-3A16.74,16.74,0,0,1,44.45,17.89Z"/><path class="cls-2" d="M52,23.89a2.1,2.1,0,0,1,2.1,2.1v3.79A26.56,26.56,0,0,1,1,29.78V26a2.1,2.1,0,0,1,2.1-2.1h7.57v5.56c0,9.45,7.74,17.49,17.19,17.33A16.9,16.9,0,0,0,44.45,29.89v-6Z"/><path class="cls-2" d="M36.4,54.82V62.9A2.1,2.1,0,0,1,34.3,65H20.82a2.1,2.1,0,0,1-2.1-2.1V54.82a26.63,26.63,0,0,0,17.68,0Z"/><path class="cls-2" d="M20.92,16v2.49a1.16,1.16,0,0,1-1.16,1.16H10.67V17.89a16.74,16.74,0,0,1,.27-3h8.82A1.16,1.16,0,0,1,20.92,16Z"/><path class="cls-2" d="M20.92,29.27v2.49a1.16,1.16,0,0,1-1.16,1.16H10.94a16.74,16.74,0,0,1-.27-3V28.11h9.09A1.16,1.16,0,0,1,20.92,29.27Z"/><path class="cls-2" d="M44.45,17.89v1.78H35.37a1.16,1.16,0,0,1-1.16-1.16V16a1.16,1.16,0,0,1,1.16-1.16h8.81A16.74,16.74,0,0,1,44.45,17.89Z"/><path class="cls-2" d="M44.45,28.11v1.78a16.74,16.74,0,0,1-.27,3H35.37a1.16,1.16,0,0,1-1.16-1.16V29.27a1.16,1.16,0,0,1,1.16-1.16Z"/></g></g></svg>