<svg xmlns="http://www.w3.org/2000/svg" viewBox="0 0 66 66"><defs><style>.cls-1{fill:none;stroke:#000;stroke-linecap:round;stroke-linejoin:round;stroke-width:2px;}</style></defs><title>Asset 132</title><g id="Layer_2" data-name="Layer 2"><g id="Layer_2-2" data-name="Layer 2"><path class="cls-1" d="M29.16,13.25A23.59,23.59,0,0,1,52.75,36.84"/><path class="cls-1" d="M29.16,1A35.84,35.84,0,0,1,65,36.84"/><path class="cls-1" d="M36.75,47.74,18.26,29.25a4.36,4.36,0,0,1,0-6.16L21,20.38a2.68,2.68,0,0,0,0-3.78L11.61,7.23a2.68,2.68,0,0,0-3.78,0L5.57,9.49a15.61,15.61,0,0,0,0,22.07L34.44,60.43a15.61,15.61,0,0,0,22.07,0l2.26-2.26a2.68,2.68,0,0,0,0-3.78L49.4,45a2.68,2.68,0,0,0-3.78,0l-2.71,2.72A4.36,4.36,0,0,1,36.75,47.74Z"/></g></g></svg>