<svg xmlns="http://www.w3.org/2000/svg" viewBox="0 0 65.59 54.79"><defs><style>.cls-1,.cls-2{fill:none;stroke:#000;stroke-linejoin:round;stroke-width:2px;}.cls-2{stroke-linecap:round;}</style></defs><title>Asset 143</title><g id="Layer_2" data-name="Layer 2"><g id="Layer_2-2" data-name="Layer 2"><path class="cls-1" d="M56.7,13.43V4.12A3.13,3.13,0,0,0,53.57,1H7.21a6.22,6.22,0,0,0,0,12.43H59.37a3.12,3.12,0,0,1,3.12,3.12V28"/><path class="cls-1" d="M62.49,39.18V50.67a3.12,3.12,0,0,1-3.12,3.12H7.21A6.21,6.21,0,0,1,1,47.58V7.21"/><line class="cls-2" x1="56.69" y1="7.21" x2="11.59" y2="7.21"/><path class="cls-2" d="M64.59,30.4v6.41a2.37,2.37,0,0,1-2.1,2.37,1.53,1.53,0,0,1-.3,0H49.77a2.41,2.41,0,0,1-2.41-2.4V30.4A2.42,2.42,0,0,1,49.77,28H62.19a1.53,1.53,0,0,1,.3,0A2.38,2.38,0,0,1,64.59,30.4Z"/></g></g></svg>