<svg xmlns="http://www.w3.org/2000/svg" viewBox="0 0 66 66"><defs><style>.cls-1{fill:none;stroke:#000;stroke-linecap:round;stroke-linejoin:round;stroke-width:2px;}</style></defs><title>Asset 185</title><g id="Layer_2" data-name="Layer 2"><g id="Layer_2-2" data-name="Layer 2"><path class="cls-1" d="M40.07,46.13l-20.2-20.2a4.77,4.77,0,0,1,0-6.74l3-3a2.92,2.92,0,0,0,0-4.13L12.6,1.86a2.92,2.92,0,0,0-4.14,0L6,4.32A17.05,17.05,0,0,0,6,28.45L37.55,60a17.05,17.05,0,0,0,24.13,0l2.46-2.46a2.92,2.92,0,0,0,0-4.14L53.9,43.16a2.92,2.92,0,0,0-4.13,0l-3,3A4.77,4.77,0,0,1,40.07,46.13Z"/><line class="cls-1" x1="39.26" y1="26.74" x2="60.32" y2="5.68"/><line class="cls-1" x1="39.26" y1="5.68" x2="60.32" y2="26.74"/></g></g></svg>