<svg xmlns="http://www.w3.org/2000/svg" viewBox="0 0 66 63.92"><defs><style>.cls-1{fill:none;stroke:#000;stroke-linejoin:round;stroke-width:2px;}</style></defs><title>Asset 161</title><g id="Layer_2" data-name="Layer 2"><g id="Layer_2-2" data-name="Layer 2"><path class="cls-1" d="M4.75,26.28H61.25a0,0,0,0,1,0,0v34.2a2.44,2.44,0,0,1-2.44,2.44H7.18a2.44,2.44,0,0,1-2.44-2.44V26.28A0,0,0,0,1,4.75,26.28Z"/><path class="cls-1" d="M33,11.41H59.82A5.19,5.19,0,0,1,65,16.61v7.26a2.42,2.42,0,0,1-2.42,2.42H3.42A2.42,2.42,0,0,1,1,23.87V16.61a5.19,5.19,0,0,1,5.18-5.2H33"/><line class="cls-1" x1="32.99" y1="11.41" x2="33.01" y2="11.41"/><line class="cls-1" x1="33" y1="26.28" x2="33" y2="62.92"/><path class="cls-1" d="M33,11.41H23.15A12.18,12.18,0,0,1,21.39,10a5.29,5.29,0,0,1,7.49-7.48C30.46,4.13,32.89,8.53,33,11.41Z"/><path class="cls-1" d="M44.61,10a12.18,12.18,0,0,1-1.76,1.37H33c.1-2.88,2.53-7.28,4.11-8.85A5.29,5.29,0,0,1,44.61,10Z"/></g></g></svg>