<svg xmlns="http://www.w3.org/2000/svg" viewBox="0 0 66 65.01"><defs><style>.cls-1{fill:none;stroke:#000;stroke-linecap:round;stroke-linejoin:round;stroke-width:2px;}</style></defs><title>Asset 137</title><g id="Layer_2" data-name="Layer 2"><g id="Layer_2-2" data-name="Layer 2"><circle class="cls-1" cx="13.56" cy="51.47" r="5.7"/><path class="cls-1" d="M49.85,16,39.39,33.17,33,43.64,24.27,58a12.54,12.54,0,1,1-4.18-17.23,10.26,10.26,0,0,1,1.32,1l5.2-8.54L33,22.69,46.2,1A10.9,10.9,0,0,1,49.85,16Z"/><circle class="cls-1" cx="52.44" cy="51.47" r="5.7"/><path class="cls-1" d="M33,22.69l-6.4,10.48L16.15,16A10.9,10.9,0,0,1,19.8,1Z"/><path class="cls-1" d="M61,60.66A12.56,12.56,0,0,1,41.73,58L33,43.64l6.38-10.47,5.2,8.54a10.26,10.26,0,0,1,1.32-1A12.55,12.55,0,0,1,61,60.66Z"/></g></g></svg>