<svg xmlns="http://www.w3.org/2000/svg" viewBox="0 0 65.99 24.86"><defs><style>.cls-1{fill:none;stroke:#000;stroke-linejoin:round;stroke-width:2px;}</style></defs><title>Asset 140</title><g id="Layer_2" data-name="Layer 2"><g id="Layer_2-2" data-name="Layer 2"><path class="cls-1" d="M22.31,9.25v6.34a2.24,2.24,0,0,0,2.24,2.25H29v1.79a4.22,4.22,0,0,1-4.22,4.23H5.21A4.22,4.22,0,0,1,1,19.63V5.21A4.21,4.21,0,0,1,5.21,1H24.78A4.21,4.21,0,0,1,29,5.21V7H24.55A2.23,2.23,0,0,0,22.31,9.25Z"/><path class="cls-1" d="M65,5.21V19.63a4.23,4.23,0,0,1-4.21,4.23H41.2A4.24,4.24,0,0,1,37,19.63V17.84h4.45a2.24,2.24,0,0,0,2.24-2.25V9.25A2.23,2.23,0,0,0,41.43,7H37V5.21A4.23,4.23,0,0,1,41.2,1H60.78A4.22,4.22,0,0,1,65,5.21Z"/><path class="cls-1" d="M43.67,9.25v6.34a2.24,2.24,0,0,1-2.24,2.25H24.55a2.24,2.24,0,0,1-2.24-2.25V9.25A2.23,2.23,0,0,1,24.55,7H41.43A2.23,2.23,0,0,1,43.67,9.25Z"/></g></g></svg>