<svg xmlns="http://www.w3.org/2000/svg" viewBox="0 0 66 57.24"><defs><style>.cls-1{fill:none;stroke:#000;stroke-linejoin:round;stroke-width:2px;}</style></defs><title>Asset 189</title><g id="Layer_2" data-name="Layer 2"><g id="Layer_2-2" data-name="Layer 2"><path class="cls-1" d="M65,13.37V49.89a6.35,6.35,0,0,1-6.35,6.35H7.35A6.35,6.35,0,0,1,1,49.89V13.06H18.77l7.15-6H58.65A6.35,6.35,0,0,1,65,13.37Z"/><path class="cls-1" d="M25.92,7l-6.3,5.32a3.06,3.06,0,0,1-2,.72H1V7.35A6.35,6.35,0,0,1,7.35,1H17.66a3,3,0,0,1,2,.71Z"/><line class="cls-1" x1="1" y1="46.14" x2="65" y2="46.14"/></g></g></svg>