<svg xmlns="http://www.w3.org/2000/svg" viewBox="0 0 66 63.42"><defs><style>.cls-1{fill:none;stroke:#000;stroke-linecap:round;stroke-linejoin:round;stroke-width:2px;}</style></defs><title>Asset 179</title><g id="Layer_2" data-name="Layer 2"><g id="Layer_2-2" data-name="Layer 2"><path class="cls-1" d="M52,23.23v6a25.51,25.51,0,0,1-51,0v-6a5.46,5.46,0,0,1,5.47-5.46H46.56A5.45,5.45,0,0,1,52,23.23Z"/><path class="cls-1" d="M65,36.25a11.18,11.18,0,0,1-18.32,8.6A25.4,25.4,0,0,0,52,29.23v-4a12.05,12.05,0,0,1,1.81-.14A11.17,11.17,0,0,1,65,36.25Z"/><path class="cls-1" d="M7.17,54.74H45.86a1.47,1.47,0,0,1,1.47,1.47V59a3.43,3.43,0,0,1-3.43,3.43H9.12A3.43,3.43,0,0,1,5.69,59V56.22A1.47,1.47,0,0,1,7.17,54.74Z"/><line class="cls-1" x1="33.94" y1="11.45" x2="33.94" y2="1"/><line class="cls-1" x1="26.51" y1="11.45" x2="26.51" y2="1"/><line class="cls-1" x1="19.08" y1="11.45" x2="19.08" y2="1"/></g></g></svg>