<svg xmlns="http://www.w3.org/2000/svg" viewBox="0 0 66.3 62.51"><defs><style>.cls-1,.cls-2{fill:none;stroke:#000;stroke-linejoin:round;stroke-width:2px;}.cls-2{stroke-linecap:round;}</style></defs><title>Asset 193</title><g id="Layer_2" data-name="Layer 2"><g id="Layer_2-2" data-name="Layer 2"><path class="cls-1" d="M30.63,2,6.4,23.56V57.32a4.2,4.2,0,0,0,4.19,4.19h7.93a4.19,4.19,0,0,0,4.19-4.19V40.24a4.19,4.19,0,0,1,4.19-4.19H39.39a4.18,4.18,0,0,1,4.19,4.19V57.32a4.2,4.2,0,0,0,4.19,4.19H55.7a4.19,4.19,0,0,0,4.19-4.19V23.56L35.66,2A3.8,3.8,0,0,0,30.63,2Z"/><path class="cls-2" d="M65.3,27.79,35.63,1.93a3.79,3.79,0,0,0-5,0L1,27.79"/><circle class="cls-1" cx="33.15" cy="21.56" r="6.23"/></g></g></svg>