<svg xmlns="http://www.w3.org/2000/svg" viewBox="0 0 54.4 65.28"><defs><style>.cls-1{fill:none;stroke:#000;stroke-linejoin:round;stroke-width:2px;}</style></defs><title>Asset 150</title><g id="Layer_2" data-name="Layer 2"><g id="Layer_2-2" data-name="Layer 2"><path class="cls-1" d="M25.17,1.47,5.4,11.28A7.94,7.94,0,0,0,1,18.38V40.66a7.88,7.88,0,0,0,1.58,4.75C6.06,50,14.93,60.57,25.74,64.05a4.85,4.85,0,0,0,2.92,0c10.8-3.48,19.68-14,23.16-18.64a7.88,7.88,0,0,0,1.58-4.75V18.38A7.93,7.93,0,0,0,49,11.28L29.22,1.47A4.58,4.58,0,0,0,25.17,1.47Z"/><path class="cls-1" d="M25.22,9.18l-13.44,6.5A7.91,7.91,0,0,0,7.3,22.81V38.29a7.93,7.93,0,0,0,1.79,5c3,3.61,9.28,10.42,16.62,12.95a4.48,4.48,0,0,0,3,0C36,53.73,42.35,46.92,45.31,43.31a7.93,7.93,0,0,0,1.79-5V22.81a7.91,7.91,0,0,0-4.48-7.13L29.18,9.18A4.58,4.58,0,0,0,25.22,9.18Z"/></g></g></svg>