<?xml version="1.0" encoding="UTF-8" standalone="no"?>
<!DOCTYPE svg PUBLIC "-//W3C//DTD SVG 1.1//EN"
 "http://www.w3.org/Graphics/SVG/1.1/DTD/svg11.dtd">
<!-- Generated by graphviz version 13.1.2 (20250808.2320)
 -->
<!-- Title: src/editeurpanovisu/ApiKeysConfig.java Pages: 1 -->
<svg width="478pt" height="96pt"
 viewBox="0.00 0.00 478.00 96.00" xmlns="http://www.w3.org/2000/svg" xmlns:xlink="http://www.w3.org/1999/xlink">

<svg id="main" version="1.1" xmlns="http://www.w3.org/2000/svg" xmlns:xlink="http://www.w3.org/1999/xlink" xml:space="preserve">

<style type="text/css"><![CDATA[
.node, .edge {opacity: 0.7;}
.node.selected, .edge.selected {opacity: 1;}
.edge:hover path { stroke: red; }
.edge:hover polygon { stroke: red; fill: red; }
]]></style>
<script type="application/ecmascript" xlink:href="svg.min.js"/>
<svg id="graph" class="graph">
<g id="graph0" class="graph" transform="scale(1 1) rotate(0) translate(4 92)">
<title>src/editeurpanovisu/ApiKeysConfig.java</title>
<!-- Node1 -->
<g id="Node000001" class="node">
<title>Node1</title>
<g id="a_Node000001"><a xlink:title=" ">
<polygon fill="#999999" stroke="#666666" points="296.88,-88 191.62,-88 191.62,-56 296.88,-56 296.88,-88"/>
<text xml:space="preserve" text-anchor="start" x="199.62" y="-74.5" font-family="Helvetica,sans-Serif" font-size="10.00">src/editeurpanovisu</text>
<text xml:space="preserve" text-anchor="middle" x="244.25" y="-62.5" font-family="Helvetica,sans-Serif" font-size="10.00">/ApiKeysConfig.java</text>
</a>
</g>
</g>
<!-- Node2 -->
<g id="Node000002" class="node">
<title>Node2</title>
<g id="a_Node000002"><a xlink:title=" ">
<polygon fill="#e0e0e0" stroke="#999999" points="116.5,-20 0,-20 0,0 116.5,0 116.5,-20"/>
<text xml:space="preserve" text-anchor="middle" x="58.25" y="-6.5" font-family="Helvetica,sans-Serif" font-size="10.00">java.io.FileInputStream</text>
</a>
</g>
</g>
<!-- Node1&#45;&gt;Node2 -->
<g id="edge1_Node000001_Node000002" class="edge">
<title>Node1&#45;&gt;Node2</title>
<g id="a_edge1_Node000001_Node000002"><a xlink:title=" ">
<path fill="none" stroke="#63b8ff" d="M196.35,-55.55C166.04,-45.77 127.29,-33.27 98.56,-24"/>
<polygon fill="#63b8ff" stroke="#63b8ff" points="99.72,-20.7 89.13,-20.96 97.57,-27.36 99.72,-20.7"/>
</a>
</g>
</g>
<!-- Node3 -->
<g id="Node000003" class="node">
<title>Node3</title>
<g id="a_Node000003"><a xlink:title=" ">
<polygon fill="#e0e0e0" stroke="#999999" points="236,-20 134.5,-20 134.5,0 236,0 236,-20"/>
<text xml:space="preserve" text-anchor="middle" x="185.25" y="-6.5" font-family="Helvetica,sans-Serif" font-size="10.00">java.io.IOException</text>
</a>
</g>
</g>
<!-- Node1&#45;&gt;Node3 -->
<g id="edge2_Node000001_Node000003" class="edge">
<title>Node1&#45;&gt;Node3</title>
<g id="a_edge2_Node000001_Node000003"><a xlink:title=" ">
<path fill="none" stroke="#63b8ff" d="M229.06,-55.55C220.95,-47.3 210.94,-37.12 202.53,-28.57"/>
<polygon fill="#63b8ff" stroke="#63b8ff" points="205.07,-26.16 195.56,-21.49 200.08,-31.07 205.07,-26.16"/>
</a>
</g>
</g>
<!-- Node4 -->
<g id="Node000004" class="node">
<title>Node4</title>
<g id="a_Node000004"><a xlink:title=" ">
<polygon fill="#e0e0e0" stroke="#999999" points="354.62,-20 253.88,-20 253.88,0 354.62,0 354.62,-20"/>
<text xml:space="preserve" text-anchor="middle" x="304.25" y="-6.5" font-family="Helvetica,sans-Serif" font-size="10.00">java.io.InputStream</text>
</a>
</g>
</g>
<!-- Node1&#45;&gt;Node4 -->
<g id="edge3_Node000001_Node000004" class="edge">
<title>Node1&#45;&gt;Node4</title>
<g id="a_edge3_Node000001_Node000004"><a xlink:title=" ">
<path fill="none" stroke="#63b8ff" d="M259.7,-55.55C268.03,-47.22 278.34,-36.91 286.95,-28.3"/>
<polygon fill="#63b8ff" stroke="#63b8ff" points="289.18,-31.02 293.77,-21.48 284.23,-26.07 289.18,-31.02"/>
</a>
</g>
</g>
<!-- Node5 -->
<g id="Node000005" class="node">
<title>Node5</title>
<g id="a_Node000005"><a xlink:title=" ">
<polygon fill="#e0e0e0" stroke="#999999" points="469.75,-20 372.75,-20 372.75,0 469.75,0 469.75,-20"/>
<text xml:space="preserve" text-anchor="middle" x="421.25" y="-6.5" font-family="Helvetica,sans-Serif" font-size="10.00">java.util.Properties</text>
</a>
</g>
</g>
<!-- Node1&#45;&gt;Node5 -->
<g id="edge4_Node000001_Node000005" class="edge">
<title>Node1&#45;&gt;Node5</title>
<g id="a_edge4_Node000001_Node000005"><a xlink:title=" ">
<path fill="none" stroke="#63b8ff" d="M289.83,-55.55C318.55,-45.81 355.22,-33.38 382.53,-24.13"/>
<polygon fill="#63b8ff" stroke="#63b8ff" points="383.46,-27.51 391.8,-20.98 381.21,-20.88 383.46,-27.51"/>
</a>
</g>
</g>
</g>
</svg>
</svg>

<style type='text/css'>
<![CDATA[
[data-mouse-over-selected='false'] { opacity: 0.7; }
[data-mouse-over-selected='true']  { opacity: 1.0; }
]]>
</style>
<script type="application/ecmascript"><![CDATA[
document.addEventListener('DOMContentLoaded', (event) => {
  highlightEdges();
  highlightAdjacentNodes();
});
]]></script>
</svg>
