<?xml version="1.0" encoding="UTF-8" standalone="no"?>
<!DOCTYPE svg PUBLIC "-//W3C//DTD SVG 1.1//EN"
 "http://www.w3.org/Graphics/SVG/1.1/DTD/svg11.dtd">
<!-- Generated by graphviz version 13.1.2 (20250808.2320)
 -->
<!-- Title: editeurpanovisu.EditeurPanovisu.setiNombreDiapo Pages: 1 -->
<!--zoomable 471 -->

<svg id="main" version="1.1" xmlns="http://www.w3.org/2000/svg" xmlns:xlink="http://www.w3.org/1999/xlink" xml:space="preserve" onload="init(evt)">

<style type="text/css"><![CDATA[
.node, .edge {opacity: 0.7;}
.node.selected, .edge.selected {opacity: 1;}
.edge:hover path { stroke: red; }
.edge:hover polygon { stroke: red; fill: red; }
]]></style>

<defs>
  <circle id="rim" cx="0" cy="0" r="7"/>
  <circle id="rim2" cx="0" cy="0" r="3.5"/>
  <g id="zoomPlus">
    <use xlink:href="#rim" fill="#404040"><set attributeName="fill" to="#808080" begin="zoomplus.mouseover" end="zoomplus.mouseout"/></use>
    <path d="M-4,0h8M0,-4v8" fill="none" stroke="white" stroke-width="1.5" pointer-events="none"/>
  </g>
  <g id="zoomMin">
    <use xlink:href="#rim" fill="#404040"><set attributeName="fill" to="#808080" begin="zoomminus.mouseover" end="zoomminus.mouseout"/></use>
    <path d="M-4,0h8" fill="none" stroke="white" stroke-width="1.5" pointer-events="none"/>
  </g>
  <g id="arrowUp" transform="translate(30 24)">
    <use xlink:href="#rim"/>
    <path pointer-events="none" fill="none" stroke="white" stroke-width="1.5" d="M0,-3.0v7 M-2.5,-0.5L0,-3.0L2.5,-0.5"/>
  </g>
  <g id="arrowRight" transform="rotate(90) translate(36 -43)">
    <use xlink:href="#rim"/>
    <path pointer-events="none" fill="none" stroke="white" stroke-width="1.5" d="M0,-3.0v7 M-2.5,-0.5L0,-3.0L2.5,-0.5"/>
  </g>
  <g id="arrowDown" transform="rotate(180) translate(-30 -48)">
    <use xlink:href="#rim"/>
    <path pointer-events="none" fill="none" stroke="white" stroke-width="1.5" d="M0,-3.0v7 M-2.5,-0.5L0,-3.0L2.5,-0.5"/>
  </g>
  <g id="arrowLeft" transform="rotate(270) translate(-36 17)">
    <use xlink:href="#rim"/>
    <path pointer-events="none" fill="none" stroke="white" stroke-width="1.5" d="M0,-3.0v7 M-2.5,-0.5L0,-3.0L2.5,-0.5"/>
  </g>
  <g id="resetDef">
    <use xlink:href="#rim2" fill="#404040"><set attributeName="fill" to="#808080" begin="reset.mouseover" end="reset.mouseout"/></use>
  </g>
</defs>
<script type="application/ecmascript">
var viewWidth = 2195;
var viewHeight = 471;
var sectionId = 'dynsection-236';
</script>
<script type="application/ecmascript" xlink:href="svg.min.js"/>
<svg id="graph" class="graph">
<g id="viewport">
<title>editeurpanovisu.EditeurPanovisu.setiNombreDiapo</title>
<!-- Node1 -->
<g id="Node000001" class="node">
<title>Node1</title>
<g id="a_Node000001"><a xlink:title=" ">
<polygon fill="#999999" stroke="#666666" points="2186.5,-419.38 2009.25,-419.38 2009.25,-387.38 2186.5,-387.38 2186.5,-419.38"/>
<text xml:space="preserve" text-anchor="start" x="2017.25" y="-405.88" font-family="Helvetica,sans-Serif" font-size="10.00">editeurpanovisu.EditeurPanovisu.seti</text>
<text xml:space="preserve" text-anchor="middle" x="2097.88" y="-393.88" font-family="Helvetica,sans-Serif" font-size="10.00">NombreDiapo</text>
</a>
</g>
</g>
<!-- Node2 -->
<g id="Node000002" class="node">
<title>Node2</title>
<g id="a_Node000002"><a xlink:href="classediteurpanovisu_1_1EditeurPanovisu.html#ae208a607a250f668b0a39d102deb542b" target="_top" xlink:title=" ">
<polygon fill="white" stroke="#666666" points="1761.12,-463.38 1577.88,-463.38 1577.88,-431.38 1761.12,-431.38 1761.12,-463.38"/>
<text xml:space="preserve" text-anchor="start" x="1585.88" y="-449.88" font-family="Helvetica,sans-Serif" font-size="10.00">editeurpanovisu.EditeurPanovisu.creer</text>
<text xml:space="preserve" text-anchor="middle" x="1669.5" y="-437.88" font-family="Helvetica,sans-Serif" font-size="10.00">EditerDiaporama</text>
</a>
</g>
</g>
<!-- Node1&#45;&gt;Node2 -->
<g id="edge1_Node000001_Node000002" class="edge">
<title>Node1&#45;&gt;Node2</title>
<g id="a_edge1_Node000001_Node000002"><a xlink:title=" ">
<path fill="none" stroke="#63b8ff" d="M1997.55,-414.75C1989.33,-415.66 1981.15,-416.54 1973.25,-417.38 1902.21,-424.92 1821.73,-432.87 1761.61,-438.69"/>
<polygon fill="#63b8ff" stroke="#63b8ff" points="1997.7,-418.26 2007.26,-413.68 1996.93,-411.3 1997.7,-418.26"/>
</a>
</g>
</g>
<!-- Node5 -->
<g id="Node000005" class="node">
<title>Node5</title>
<g id="a_Node000005"><a xlink:href="classediteurpanovisu_1_1EditeurPanovisu.html#ab4beb1597b660a4a253befc6e76f1c54" target="_top" xlink:title=" ">
<polygon fill="white" stroke="#666666" points="1092.88,-387.38 907.38,-387.38 907.38,-355.38 1092.88,-355.38 1092.88,-387.38"/>
<text xml:space="preserve" text-anchor="start" x="915.38" y="-373.88" font-family="Helvetica,sans-Serif" font-size="10.00">editeurpanovisu.EditeurPanovisu.projet</text>
<text xml:space="preserve" text-anchor="middle" x="1000.12" y="-361.88" font-family="Helvetica,sans-Serif" font-size="10.00">Charge</text>
</a>
</g>
</g>
<!-- Node1&#45;&gt;Node5 -->
<g id="edge4_Node000001_Node000005" class="edge">
<title>Node1&#45;&gt;Node5</title>
<g id="a_edge4_Node000001_Node000005"><a xlink:title=" ">
<path fill="none" stroke="#63b8ff" d="M1997.71,-403.38C1911.3,-403.38 1782.61,-403.38 1670.5,-403.38 1670.5,-403.38 1670.5,-403.38 1445.88,-403.38 1323.56,-403.38 1182.81,-391.19 1092.98,-381.86"/>
<polygon fill="#63b8ff" stroke="#63b8ff" points="1997.58,-406.88 2007.58,-403.38 1997.58,-399.88 1997.58,-406.88"/>
</a>
</g>
</g>
<!-- Node6 -->
<g id="Node000006" class="node">
<title>Node6</title>
<g id="a_Node000006"><a xlink:href="classediteurpanovisu_1_1EditeurPanovisu.html#a87b29dc258cfc67370b1f27809e91b8e" target="_top" xlink:title=" ">
<polygon fill="white" stroke="#666666" points="1973.25,-375.38 1798.25,-375.38 1798.25,-343.38 1973.25,-343.38 1973.25,-375.38"/>
<text xml:space="preserve" text-anchor="start" x="1806.25" y="-361.88" font-family="Helvetica,sans-Serif" font-size="10.00">editeurpanovisu.EditeurPanovisu.tsk</text>
<text xml:space="preserve" text-anchor="middle" x="1885.75" y="-349.88" font-family="Helvetica,sans-Serif" font-size="10.00">AnalyseFichierPVU</text>
</a>
</g>
</g>
<!-- Node1&#45;&gt;Node6 -->
<g id="edge6_Node000001_Node000006" class="edge">
<title>Node1&#45;&gt;Node6</title>
<g id="a_edge6_Node000001_Node000006"><a xlink:title=" ">
<path fill="none" stroke="#63b8ff" d="M2007.3,-384.62C1993.42,-381.72 1979.17,-378.73 1965.55,-375.88"/>
<polygon fill="#63b8ff" stroke="#63b8ff" points="2006.35,-388 2016.85,-386.62 2007.78,-381.15 2006.35,-388"/>
</a>
</g>
</g>
<!-- Node3 -->
<g id="Node000003" class="node">
<title>Node3</title>
<g id="a_Node000003"><a xlink:href="classediteurpanovisu_1_1EditeurPanovisu.html#ac912b80c1f2ac97def60ff005c5c480b" target="_top" xlink:title=" ">
<polygon fill="white" stroke="#666666" points="420.5,-271.38 216.25,-271.38 216.25,-251.38 420.5,-251.38 420.5,-271.38"/>
<text xml:space="preserve" text-anchor="middle" x="318.38" y="-257.88" font-family="Helvetica,sans-Serif" font-size="10.00">editeurpanovisu.EditeurPanovisu.creeMenu</text>
</a>
</g>
</g>
<!-- Node2&#45;&gt;Node3 -->
<g id="edge2_Node000002_Node000003" class="edge">
<title>Node2&#45;&gt;Node3</title>
<g id="a_edge2_Node000002_Node000003"><a xlink:title=" ">
<path fill="none" stroke="#63b8ff" d="M1566.39,-446.3C1476.55,-445.44 1342.22,-444.38 1225.25,-444.38 1225.25,-444.38 1225.25,-444.38 775,-444.38 629.87,-444.38 587.09,-435.69 456.5,-372.38 401.93,-345.93 349.74,-293.99 328.9,-271.82"/>
<polygon fill="#63b8ff" stroke="#63b8ff" points="1566.12,-449.79 1576.15,-446.39 1566.19,-442.8 1566.12,-449.79"/>
</a>
</g>
</g>
<!-- Node4 -->
<g id="Node000004" class="node">
<title>Node4</title>
<g id="a_Node000004"><a xlink:href="classediteurpanovisu_1_1EditeurPanovisu.html#a86c393eee88f54c694db994ddd85b90d" target="_top" xlink:title=" ">
<polygon fill="white" stroke="#666666" points="180.25,-277.38 0,-277.38 0,-245.38 180.25,-245.38 180.25,-277.38"/>
<text xml:space="preserve" text-anchor="start" x="8" y="-263.88" font-family="Helvetica,sans-Serif" font-size="10.00">editeurpanovisu.EditeurPanovisu.cree</text>
<text xml:space="preserve" text-anchor="middle" x="90.12" y="-251.88" font-family="Helvetica,sans-Serif" font-size="10.00">Environnement</text>
</a>
</g>
</g>
<!-- Node3&#45;&gt;Node4 -->
<g id="edge3_Node000003_Node000004" class="edge">
<title>Node3&#45;&gt;Node4</title>
<g id="a_edge3_Node000003_Node000004"><a xlink:title=" ">
<path fill="none" stroke="#63b8ff" d="M204.51,-261.38C196.49,-261.38 188.46,-261.38 180.6,-261.38"/>
<polygon fill="#63b8ff" stroke="#63b8ff" points="204.32,-264.88 214.32,-261.38 204.32,-257.88 204.32,-264.88"/>
</a>
</g>
</g>
<!-- Node5&#45;&gt;Node3 -->
<g id="edge5_Node000005_Node000003" class="edge">
<title>Node5&#45;&gt;Node3</title>
<g id="a_edge5_Node000005_Node000003"><a xlink:title=" ">
<path fill="none" stroke="#63b8ff" d="M895.92,-379.82C784.89,-385.67 604.36,-385.78 456.5,-341.38 406.61,-326.4 355.64,-289.93 332.38,-271.87"/>
<polygon fill="#63b8ff" stroke="#63b8ff" points="895.81,-383.33 905.6,-379.28 895.42,-376.34 895.81,-383.33"/>
</a>
</g>
</g>
<!-- Node6&#45;&gt;Node5 -->
<g id="edge7_Node000006_Node000005" class="edge">
<title>Node6&#45;&gt;Node5</title>
<g id="a_edge7_Node000006_Node000005"><a xlink:title=" ">
<path fill="none" stroke="#63b8ff" d="M1786.7,-360.71C1614.73,-363.05 1261.08,-367.85 1093.33,-370.13"/>
<polygon fill="#63b8ff" stroke="#63b8ff" points="1786.55,-364.21 1796.5,-360.58 1786.45,-357.22 1786.55,-364.21"/>
</a>
</g>
</g>
<!-- Node7 -->
<g id="Node000007" class="node">
<title>Node7</title>
<g id="a_Node000007"><a xlink:href="classediteurpanovisu_1_1EditeurPanovisu.html#a6d19b4d885ee6fcec827b91956295732" target="_top" xlink:title=" ">
<polygon fill="white" stroke="#666666" points="1762.25,-290.38 1576.75,-290.38 1576.75,-258.38 1762.25,-258.38 1762.25,-290.38"/>
<text xml:space="preserve" text-anchor="start" x="1584.75" y="-276.88" font-family="Helvetica,sans-Serif" font-size="10.00">editeurpanovisu.EditeurPanovisu.projet</text>
<text xml:space="preserve" text-anchor="middle" x="1669.5" y="-264.88" font-family="Helvetica,sans-Serif" font-size="10.00">ChargeNom</text>
</a>
</g>
</g>
<!-- Node6&#45;&gt;Node7 -->
<g id="edge8_Node000006_Node000007" class="edge">
<title>Node6&#45;&gt;Node7</title>
<g id="a_edge8_Node000006_Node000007"><a xlink:title=" ">
<path fill="none" stroke="#63b8ff" d="M1832.58,-338.68C1795.5,-323.97 1746.36,-304.48 1711.95,-290.82"/>
<polygon fill="#63b8ff" stroke="#63b8ff" points="1831.19,-341.9 1841.78,-342.33 1833.78,-335.39 1831.19,-341.9"/>
</a>
</g>
</g>
<!-- Node7&#45;&gt;Node3 -->
<g id="edge28_Node000007_Node000003" class="edge">
<title>Node7&#45;&gt;Node3</title>
<g id="a_edge28_Node000007_Node000003"><a xlink:title=" ">
<path fill="none" stroke="#63b8ff" d="M1580.34,-292.88C1567.11,-295.3 1553.6,-297.56 1540.75,-299.38 1401.37,-319.15 1366.02,-327.38 1225.25,-327.38 1225.25,-327.38 1225.25,-327.38 775,-327.38 621.94,-327.38 442.92,-290.45 362.42,-271.84"/>
<polygon fill="#63b8ff" stroke="#63b8ff" points="1580.69,-296.38 1589.88,-291.1 1579.41,-289.5 1580.69,-296.38"/>
</a>
</g>
</g>
<!-- Node8 -->
<g id="Node000008" class="node">
<title>Node8</title>
<g id="a_Node000008"><a xlink:href="classediteurpanovisu_1_1EditeurPanovisu.html#af0d1c32bb78acbff561c822a0d15f760" target="_top" xlink:title=" ">
<polygon fill="white" stroke="#666666" points="1540.75,-290.38 1353,-290.38 1353,-258.38 1540.75,-258.38 1540.75,-290.38"/>
<text xml:space="preserve" text-anchor="start" x="1361" y="-276.88" font-family="Helvetica,sans-Serif" font-size="10.00">editeurpanovisu.EditeurPanovisu.ajoute</text>
<text xml:space="preserve" text-anchor="middle" x="1446.88" y="-264.88" font-family="Helvetica,sans-Serif" font-size="10.00">FichierHisto</text>
</a>
</g>
</g>
<!-- Node7&#45;&gt;Node8 -->
<g id="edge9_Node000007_Node000008" class="edge">
<title>Node7&#45;&gt;Node8</title>
<g id="a_edge9_Node000007_Node000008"><a xlink:title=" ">
<path fill="none" stroke="#63b8ff" d="M1565.22,-267.64C1557.17,-267.61 1549.08,-267.63 1541.11,-267.7"/>
<polygon fill="#63b8ff" stroke="#63b8ff" points="1565,-271.14 1575.02,-267.7 1565.04,-264.14 1565,-271.14"/>
</a>
</g>
</g>
<!-- Node8&#45;&gt;Node5 -->
<g id="edge10_Node000008_Node000005" class="edge">
<title>Node8&#45;&gt;Node5</title>
<g id="a_edge10_Node000008_Node000005"><a xlink:title=" ">
<path fill="none" stroke="#63b8ff" d="M1359.36,-293.25C1277.18,-311.17 1154.88,-337.85 1076.57,-354.93"/>
<polygon fill="#63b8ff" stroke="#63b8ff" points="1359.93,-296.71 1368.95,-291.16 1358.43,-289.87 1359.93,-296.71"/>
</a>
</g>
</g>
<!-- Node8&#45;&gt;Node7 -->
<g id="edge11_Node000008_Node000007" class="edge">
<title>Node8&#45;&gt;Node7</title>
<g id="a_edge11_Node000008_Node000007"><a xlink:title=" ">
<path fill="none" stroke="#63b8ff" d="M1552.44,-281.12C1560.49,-281.15 1568.58,-281.12 1576.53,-281.05"/>
<polygon fill="#63b8ff" stroke="#63b8ff" points="1552.65,-277.62 1542.63,-281.07 1552.61,-284.62 1552.65,-277.62"/>
</a>
</g>
</g>
<!-- Node9 -->
<g id="Node000009" class="node">
<title>Node9</title>
<g id="a_Node000009"><a xlink:href="classediteurpanovisu_1_1EditeurPanovisu.html#a9f3ea25b35d4884524508dab3dc4fd6a" target="_top" xlink:title=" ">
<polygon fill="white" stroke="#666666" points="1317,-217.38 1131.5,-217.38 1131.5,-185.38 1317,-185.38 1317,-217.38"/>
<text xml:space="preserve" text-anchor="start" x="1139.5" y="-203.88" font-family="Helvetica,sans-Serif" font-size="10.00">editeurpanovisu.EditeurPanovisu.projet</text>
<text xml:space="preserve" text-anchor="middle" x="1224.25" y="-191.88" font-family="Helvetica,sans-Serif" font-size="10.00">Sauve</text>
</a>
</g>
</g>
<!-- Node8&#45;&gt;Node9 -->
<g id="edge12_Node000008_Node000009" class="edge">
<title>Node8&#45;&gt;Node9</title>
<g id="a_edge12_Node000008_Node000009"><a xlink:title=" ">
<path fill="none" stroke="#63b8ff" d="M1385.59,-254.43C1350.82,-242.93 1307.64,-228.64 1274.86,-217.79"/>
<polygon fill="#63b8ff" stroke="#63b8ff" points="1384.06,-257.61 1394.65,-257.43 1386.26,-250.97 1384.06,-257.61"/>
</a>
</g>
</g>
<!-- Node15 -->
<g id="Node000015" class="node">
<title>Node15</title>
<g id="a_Node000015"><a xlink:href="classediteurpanovisu_1_1EditeurPanovisu.html#a7b2e25dc717eb52b62e23d54ec4c124a" target="_top" xlink:title=" ">
<polygon fill="white" stroke="#666666" points="868.75,-299.38 683.25,-299.38 683.25,-267.38 868.75,-267.38 868.75,-299.38"/>
<text xml:space="preserve" text-anchor="start" x="691.25" y="-285.88" font-family="Helvetica,sans-Serif" font-size="10.00">editeurpanovisu.EditeurPanovisu.projet</text>
<text xml:space="preserve" text-anchor="middle" x="776" y="-273.88" font-family="Helvetica,sans-Serif" font-size="10.00">SauveSous</text>
</a>
</g>
</g>
<!-- Node8&#45;&gt;Node15 -->
<g id="edge26_Node000008_Node000015" class="edge">
<title>Node8&#45;&gt;Node15</title>
<g id="a_edge26_Node000008_Node000015"><a xlink:title=" ">
<path fill="none" stroke="#63b8ff" d="M1341.02,-275.79C1211.34,-277.54 992.62,-280.48 869.11,-282.14"/>
<polygon fill="#63b8ff" stroke="#63b8ff" points="1341.05,-279.29 1351.01,-275.66 1340.96,-272.29 1341.05,-279.29"/>
</a>
</g>
</g>
<!-- Node9&#45;&gt;Node3 -->
<g id="edge13_Node000009_Node000003" class="edge">
<title>Node9&#45;&gt;Node3</title>
<g id="a_edge13_Node000009_Node000003"><a xlink:title=" ">
<path fill="none" stroke="#63b8ff" d="M1119.91,-211.37C1111.65,-212.08 1103.44,-212.76 1095.5,-213.38 853.74,-232.21 569.14,-248.25 420.84,-256.14"/>
<polygon fill="#63b8ff" stroke="#63b8ff" points="1120.01,-214.88 1129.66,-210.52 1119.4,-207.9 1120.01,-214.88"/>
</a>
</g>
</g>
<!-- Node9&#45;&gt;Node5 -->
<g id="edge16_Node000009_Node000005" class="edge">
<title>Node9&#45;&gt;Node5</title>
<g id="a_edge16_Node000009_Node000005"><a xlink:title=" ">
<path fill="none" stroke="#63b8ff" d="M1192.83,-224.66C1147.14,-259.63 1061.95,-324.83 1022.36,-355.13"/>
<polygon fill="#63b8ff" stroke="#63b8ff" points="1194.94,-227.46 1200.75,-218.6 1190.68,-221.9 1194.94,-227.46"/>
</a>
</g>
</g>
<!-- Node9&#45;&gt;Node7 -->
<g id="edge17_Node000009_Node000007" class="edge">
<title>Node9&#45;&gt;Node7</title>
<g id="a_edge17_Node000009_Node000007"><a xlink:title=" ">
<path fill="none" stroke="#63b8ff" d="M1328.53,-215.97C1390.23,-224.96 1470.09,-237.1 1540.75,-249.38 1555.78,-251.99 1571.76,-254.97 1587.16,-257.93"/>
<polygon fill="#63b8ff" stroke="#63b8ff" points="1329.12,-212.52 1318.72,-214.54 1328.11,-219.45 1329.12,-212.52"/>
</a>
</g>
</g>
<!-- Node10 -->
<g id="Node000010" class="node">
<title>Node10</title>
<g id="a_Node000010"><a xlink:href="classediteurpanovisu_1_1EditeurPanovisu.html#a94e36b9e9d09ab1a4c852b8a8cefa927" target="_top" xlink:title=" ">
<polygon fill="white" stroke="#666666" points="647.25,-211.38 456.5,-211.38 456.5,-179.38 647.25,-179.38 647.25,-211.38"/>
<text xml:space="preserve" text-anchor="start" x="464.5" y="-197.88" font-family="Helvetica,sans-Serif" font-size="10.00">editeurpanovisu.EditeurPanovisu.genere</text>
<text xml:space="preserve" text-anchor="middle" x="551.88" y="-185.88" font-family="Helvetica,sans-Serif" font-size="10.00">Visite</text>
</a>
</g>
</g>
<!-- Node9&#45;&gt;Node10 -->
<g id="edge14_Node000009_Node000010" class="edge">
<title>Node9&#45;&gt;Node10</title>
<g id="a_edge14_Node000009_Node000010"><a xlink:title=" ">
<path fill="none" stroke="#63b8ff" d="M1119.66,-200.45C990.68,-199.3 772.18,-197.34 647.51,-196.23"/>
<polygon fill="#63b8ff" stroke="#63b8ff" points="1119.55,-203.95 1129.58,-200.54 1119.61,-196.95 1119.55,-203.95"/>
</a>
</g>
</g>
<!-- Node11 -->
<g id="Node000011" class="node">
<title>Node11</title>
<g id="a_Node000011"><a xlink:href="classediteurpanovisu_1_1EditeurPanovisu.html#a9b46b222714af12c06ec33d410400773" target="_top" xlink:title=" ">
<polygon fill="white" stroke="#666666" points="647.25,-68.38 456.5,-68.38 456.5,-36.38 647.25,-36.38 647.25,-68.38"/>
<text xml:space="preserve" text-anchor="start" x="464.5" y="-54.88" font-family="Helvetica,sans-Serif" font-size="10.00">editeurpanovisu.EditeurPanovisu.projets</text>
<text xml:space="preserve" text-anchor="middle" x="551.88" y="-42.88" font-family="Helvetica,sans-Serif" font-size="10.00">Fermer</text>
</a>
</g>
</g>
<!-- Node9&#45;&gt;Node11 -->
<g id="edge18_Node000009_Node000011" class="edge">
<title>Node9&#45;&gt;Node11</title>
<g id="a_edge18_Node000009_Node000011"><a xlink:title=" ">
<path fill="none" stroke="#63b8ff" d="M1211.04,-174.83C1192.26,-137.61 1152.4,-71.44 1095.5,-44.38 933.41,32.7 712.08,-9.37 609.43,-35.94"/>
<polygon fill="#63b8ff" stroke="#63b8ff" points="1207.78,-176.14 1215.32,-183.58 1214.07,-173.06 1207.78,-176.14"/>
</a>
</g>
</g>
<!-- Node12 -->
<g id="Node000012" class="node">
<title>Node12</title>
<g id="a_Node000012"><a xlink:href="classediteurpanovisu_1_1EditeurPanovisu.html#ac9d449399ccd38843fa12e716f0c9611" target="_top" xlink:title=" ">
<polygon fill="white" stroke="#666666" points="1095.5,-135.38 904.75,-135.38 904.75,-103.38 1095.5,-103.38 1095.5,-135.38"/>
<text xml:space="preserve" text-anchor="start" x="912.75" y="-121.88" font-family="Helvetica,sans-Serif" font-size="10.00">editeurpanovisu.EditeurPanovisu.projets</text>
<text xml:space="preserve" text-anchor="middle" x="1000.12" y="-109.88" font-family="Helvetica,sans-Serif" font-size="10.00">Nouveau</text>
</a>
</g>
</g>
<!-- Node9&#45;&gt;Node12 -->
<g id="edge20_Node000009_Node000012" class="edge">
<title>Node9&#45;&gt;Node12</title>
<g id="a_edge20_Node000009_Node000012"><a xlink:title=" ">
<path fill="none" stroke="#63b8ff" d="M1174.5,-180.49C1150.83,-170.61 1121.86,-158.92 1095.5,-149.38 1082.57,-144.7 1068.5,-140.02 1055.27,-135.79"/>
<polygon fill="#63b8ff" stroke="#63b8ff" points="1173.01,-183.66 1183.59,-184.3 1175.72,-177.2 1173.01,-183.66"/>
</a>
</g>
</g>
<!-- Node13 -->
<g id="Node000013" class="node">
<title>Node13</title>
<g id="a_Node000013"><a xlink:href="classediteurpanovisu_1_1EditeurPanovisu.html#a2b3125ffe2e6291efacf19df6cb30a8d" target="_top" xlink:title=" ">
<polygon fill="white" stroke="#666666" points="866.5,-173.38 685.5,-173.38 685.5,-153.38 866.5,-153.38 866.5,-173.38"/>
<text xml:space="preserve" text-anchor="middle" x="776" y="-159.88" font-family="Helvetica,sans-Serif" font-size="10.00">editeurpanovisu.EditeurPanovisu.start</text>
</a>
</g>
</g>
<!-- Node9&#45;&gt;Node13 -->
<g id="edge25_Node000009_Node000013" class="edge">
<title>Node9&#45;&gt;Node13</title>
<g id="a_edge25_Node000009_Node000013"><a xlink:title=" ">
<path fill="none" stroke="#63b8ff" d="M1119.92,-189.75C1111.66,-188.92 1103.44,-188.11 1095.5,-187.38 1018.47,-180.26 930.82,-173.77 866.99,-169.34"/>
<polygon fill="#63b8ff" stroke="#63b8ff" points="1119.37,-193.22 1129.67,-190.76 1120.09,-186.25 1119.37,-193.22"/>
</a>
</g>
</g>
<!-- Node14 -->
<g id="Node000014" class="node">
<title>Node14</title>
<g id="a_Node000014"><a xlink:href="classediteurpanovisu_1_1EditeurPanovisu.html#aef8c9b28c3e88d6e27e3f62b9a901134" target="_top" xlink:title=" ">
<polygon fill="white" stroke="#666666" points="1094,-85.38 906.25,-85.38 906.25,-53.38 1094,-53.38 1094,-85.38"/>
<text xml:space="preserve" text-anchor="start" x="914.25" y="-71.88" font-family="Helvetica,sans-Serif" font-size="10.00">editeurpanovisu.EditeurPanovisu.sauve</text>
<text xml:space="preserve" text-anchor="middle" x="1000.12" y="-59.88" font-family="Helvetica,sans-Serif" font-size="10.00">Fichiers</text>
</a>
</g>
</g>
<!-- Node9&#45;&gt;Node14 -->
<g id="edge24_Node000009_Node000014" class="edge">
<title>Node9&#45;&gt;Node14</title>
<g id="a_edge24_Node000009_Node000014"><a xlink:title=" ">
<path fill="none" stroke="#63b8ff" d="M1200.62,-176.97C1176.73,-152.61 1136.86,-115.81 1095.5,-94.38 1089.18,-91.11 1082.39,-88.23 1075.46,-85.72"/>
<polygon fill="#63b8ff" stroke="#63b8ff" points="1197.87,-179.16 1207.33,-183.93 1202.91,-174.31 1197.87,-179.16"/>
</a>
</g>
</g>
<!-- Node10&#45;&gt;Node3 -->
<g id="edge15_Node000010_Node000003" class="edge">
<title>Node10&#45;&gt;Node3</title>
<g id="a_edge15_Node000010_Node000003"><a xlink:title=" ">
<path fill="none" stroke="#63b8ff" d="M482.2,-214.96C440.79,-226.76 389.69,-241.33 355.9,-250.97"/>
<polygon fill="#63b8ff" stroke="#63b8ff" points="482.94,-218.39 491.6,-212.28 481.02,-211.66 482.94,-218.39"/>
</a>
</g>
</g>
<!-- Node11&#45;&gt;Node3 -->
<g id="edge19_Node000011_Node000003" class="edge">
<title>Node11&#45;&gt;Node3</title>
<g id="a_edge19_Node000011_Node000003"><a xlink:title=" ">
<path fill="none" stroke="#63b8ff" d="M508.19,-74.06C491.32,-83.53 472.25,-95.44 456.5,-108.38 400,-154.8 346.06,-224.99 326.81,-251.11"/>
<polygon fill="#63b8ff" stroke="#63b8ff" points="509.41,-77.38 516.49,-69.5 506.04,-71.24 509.41,-77.38"/>
</a>
</g>
</g>
<!-- Node12&#45;&gt;Node3 -->
<g id="edge21_Node000012_Node000003" class="edge">
<title>Node12&#45;&gt;Node3</title>
<g id="a_edge21_Node000012_Node000003"><a xlink:title=" ">
<path fill="none" stroke="#63b8ff" d="M892.99,-113.73C781.01,-111.3 601.08,-117.6 456.5,-170.38 404.7,-189.29 353.07,-231.41 330.79,-251"/>
<polygon fill="#63b8ff" stroke="#63b8ff" points="892.68,-117.22 902.77,-113.97 892.86,-110.22 892.68,-117.22"/>
</a>
</g>
</g>
<!-- Node12&#45;&gt;Node13 -->
<g id="edge22_Node000012_Node000013" class="edge">
<title>Node12&#45;&gt;Node13</title>
<g id="a_edge22_Node000012_Node000013"><a xlink:title=" ">
<path fill="none" stroke="#63b8ff" d="M904.83,-138.06C879.23,-143.13 852.41,-148.44 829.99,-152.88"/>
<polygon fill="#63b8ff" stroke="#63b8ff" points="905.48,-141.5 914.61,-136.12 904.12,-134.63 905.48,-141.5"/>
</a>
</g>
</g>
<!-- Node13&#45;&gt;Node10 -->
<g id="edge23_Node000013_Node000010" class="edge">
<title>Node13&#45;&gt;Node10</title>
<g id="a_edge23_Node000013_Node000010"><a xlink:title=" ">
<path fill="none" stroke="#63b8ff" d="M691.05,-175.48C676.86,-177.52 662.05,-179.65 647.61,-181.73"/>
<polygon fill="#63b8ff" stroke="#63b8ff" points="691.37,-178.96 700.77,-174.07 690.37,-172.04 691.37,-178.96"/>
</a>
</g>
</g>
<!-- Node15&#45;&gt;Node3 -->
<g id="edge27_Node000015_Node000003" class="edge">
<title>Node15&#45;&gt;Node3</title>
<g id="a_edge27_Node000015_Node000003"><a xlink:title=" ">
<path fill="none" stroke="#63b8ff" d="M671.46,-278.38C596.44,-274.76 495.51,-269.89 420.95,-266.29"/>
<polygon fill="#63b8ff" stroke="#63b8ff" points="671.13,-281.87 681.29,-278.86 671.47,-274.88 671.13,-281.87"/>
</a>
</g>
</g>
</g>
</svg>

<g id="navigator" transform="translate(0 0)" fill="#404254">
  <rect fill="#f2f5e9" fill-opacity="0.5" stroke="#606060" stroke-width=".5" x="0" y="0" width="60" height="60"/>
  <use id="zoomplus" xlink:href="#zoomPlus" x="17" y="9" onmousedown="handleZoom(evt,'in')"/>
  <use id="zoomminus" xlink:href="#zoomMin" x="42" y="9" onmousedown="handleZoom(evt,'out')"/>
  <use id="reset" xlink:href="#resetDef" x="30" y="36" onmousedown="handleReset()"/>
   <use id="arrowup" xlink:href="#arrowUp" x="0" y="0" onmousedown="handlePan(0,-1)"/>
  <use id="arrowright" xlink:href="#arrowRight" x="0" y="0" onmousedown="handlePan(1,0)"/>
  <use id="arrowdown" xlink:href="#arrowDown" x="0" y="0" onmousedown="handlePan(0,1)"/>
  <use id="arrowleft" xlink:href="#arrowLeft" x="0" y="0" onmousedown="handlePan(-1,0)"/>
</g>
<svg viewBox="0 0 15 15" width="100%" height="30px" preserveAspectRatio="xMaxYMin meet">
 <g id="arrow_out" transform="scale(0.3 0.3)">
  <a xlink:href="classediteurpanovisu_1_1EditeurPanovisu_a97328a8bddd12feb830e0be8ebf8300a_icgraph_org.svg" target="_base">
   <rect id="button" ry="5" rx="5" y="6" x="6" height="38" width="38"
        fill="#f2f5e9" fill-opacity="0.5" stroke="#606060" stroke-width="1.0"/>
   <path id="arrow"
     d="M 11.500037,31.436501 C 11.940474,20.09759 22.043105,11.32322 32.158766,21.979434 L 37.068811,17.246167 C 37.068811,17.246167 37.088388,32 37.088388,32 L 22.160133,31.978069 C 22.160133,31.978069 26.997745,27.140456 26.997745,27.140456 C 18.528582,18.264221 13.291696,25.230495 11.500037,31.436501 z"
     style="fill:#404040;"/>
  </a>
 </g>
</svg>

<style type='text/css'>
<![CDATA[
[data-mouse-over-selected='false'] { opacity: 0.7; }
[data-mouse-over-selected='true']  { opacity: 1.0; }
]]>
</style>
<script type="application/ecmascript"><![CDATA[
document.addEventListener('DOMContentLoaded', (event) => {
  highlightEdges();
  highlightAdjacentNodes();
});
]]></script>
</svg>
