<?xml version="1.0" encoding="UTF-8" standalone="no"?>
<!DOCTYPE svg PUBLIC "-//W3C//DTD SVG 1.1//EN"
 "http://www.w3.org/Graphics/SVG/1.1/DTD/svg11.dtd">
<!-- Generated by graphviz version 13.1.2 (20250808.2320)
 -->
<!-- Title: editeurpanovisu.GestionnairePlanController.ajouterPlan Pages: 1 -->
<svg width="1784pt" height="738pt"
 viewBox="0.00 0.00 1784.00 738.00" xmlns="http://www.w3.org/2000/svg" xmlns:xlink="http://www.w3.org/1999/xlink">
<g id="graph0" class="graph" transform="scale(1 1) rotate(0) translate(4 733.7)">
<title>editeurpanovisu.GestionnairePlanController.ajouterPlan</title>
<!-- Node1 -->
<g id="Node000001" class="node">
<title>Node1</title>
<g id="a_Node000001"><a xlink:title=" ">
<polygon fill="#999999" stroke="#666666" points="142,-388 0,-388 0,-356 142,-356 142,-388"/>
<text xml:space="preserve" text-anchor="start" x="8" y="-374.5" font-family="Helvetica,sans-Serif" font-size="10.00">editeurpanovisu.Gestionnaire</text>
<text xml:space="preserve" text-anchor="middle" x="71" y="-362.5" font-family="Helvetica,sans-Serif" font-size="10.00">PlanController.ajouterPlan</text>
</a>
</g>
</g>
<!-- Node2 -->
<g id="Node000002" class="node">
<title>Node2</title>
<g id="a_Node000002"><a xlink:href="classediteurpanovisu_1_1GestionnairePlanController.html#a0c00558611ee42fef942f5a53081d888" target="_top" xlink:title=" ">
<polygon fill="white" stroke="#666666" points="333.12,-413 191.12,-413 191.12,-381 333.12,-381 333.12,-413"/>
<text xml:space="preserve" text-anchor="start" x="199.12" y="-399.5" font-family="Helvetica,sans-Serif" font-size="10.00">editeurpanovisu.Gestionnaire</text>
<text xml:space="preserve" text-anchor="middle" x="262.12" y="-387.5" font-family="Helvetica,sans-Serif" font-size="10.00">PlanController.afficherPlan</text>
</a>
</g>
</g>
<!-- Node1&#45;&gt;Node2 -->
<g id="edge1_Node000001_Node000002" class="edge">
<title>Node1&#45;&gt;Node2</title>
<g id="a_edge1_Node000001_Node000002"><a xlink:title=" ">
<path fill="none" stroke="#63b8ff" d="M142.42,-381.31C154.48,-382.9 167.11,-384.57 179.43,-386.2"/>
<polygon fill="#63b8ff" stroke="#63b8ff" points="178.77,-389.64 189.14,-387.48 179.69,-382.7 178.77,-389.64"/>
</a>
</g>
</g>
<!-- Node21 -->
<g id="Node000021" class="node">
<title>Node21</title>
<g id="a_Node000021"><a xlink:href="classediteurpanovisu_1_1GestionnairePlanController.html#a65840fa5893e4727e7c1f03ee4adde9e" target="_top" xlink:title=" ">
<polygon fill="white" stroke="#666666" points="346.25,-363 178,-363 178,-331 346.25,-331 346.25,-363"/>
<text xml:space="preserve" text-anchor="start" x="186" y="-349.5" font-family="Helvetica,sans-Serif" font-size="10.00">editeurpanovisu.Gestionnaire</text>
<text xml:space="preserve" text-anchor="middle" x="262.12" y="-337.5" font-family="Helvetica,sans-Serif" font-size="10.00">PlanController.getLblDragDropPlan</text>
</a>
</g>
</g>
<!-- Node1&#45;&gt;Node21 -->
<g id="edge42_Node000001_Node000021" class="edge">
<title>Node1&#45;&gt;Node21</title>
<g id="a_edge42_Node000001_Node000021"><a xlink:title=" ">
<path fill="none" stroke="#63b8ff" d="M142.42,-362.69C150.2,-361.66 158.22,-360.6 166.24,-359.54"/>
<polygon fill="#63b8ff" stroke="#63b8ff" points="166.59,-363.03 176.05,-358.25 165.68,-356.09 166.59,-363.03"/>
</a>
</g>
</g>
<!-- Node3 -->
<g id="Node000003" class="node">
<title>Node3</title>
<g id="a_Node000003"><a xlink:href="classediteurpanovisu_1_1GestionnairePlanController.html#a3e391ad45897cea8e74ed724d7b0a08f" target="_top" xlink:title=" ">
<polygon fill="white" stroke="#666666" points="1579.25,-688 1429.75,-688 1429.75,-656 1579.25,-656 1579.25,-688"/>
<text xml:space="preserve" text-anchor="start" x="1437.75" y="-674.5" font-family="Helvetica,sans-Serif" font-size="10.00">editeurpanovisu.Gestionnaire</text>
<text xml:space="preserve" text-anchor="middle" x="1504.5" y="-662.5" font-family="Helvetica,sans-Serif" font-size="10.00">PlanController.afficheBoussole</text>
</a>
</g>
</g>
<!-- Node2&#45;&gt;Node3 -->
<g id="edge2_Node000002_Node000003" class="edge">
<title>Node2&#45;&gt;Node3</title>
<g id="a_edge2_Node000002_Node000003"><a xlink:title=" ">
<path fill="none" stroke="#63b8ff" d="M269.88,-413.49C284.91,-448.19 324.39,-529.23 382.25,-574 492.28,-659.14 538.38,-678 677.5,-678 677.5,-678 677.5,-678 1091,-678 1204.04,-678 1334.48,-675.72 1417.91,-673.97"/>
<polygon fill="#63b8ff" stroke="#63b8ff" points="1417.92,-677.47 1427.85,-673.76 1417.78,-670.47 1417.92,-677.47"/>
</a>
</g>
</g>
<!-- Node4 -->
<g id="Node000004" class="node">
<title>Node4</title>
<g id="a_Node000004"><a xlink:href="classediteurpanovisu_1_1GestionnairePlanController.html#a2edd566ca304172fcd4ab5559dd1738c" target="_top" xlink:title=" ">
<polygon fill="white" stroke="#666666" points="1776,-587 1632.5,-587 1632.5,-555 1776,-555 1776,-587"/>
<text xml:space="preserve" text-anchor="start" x="1640.5" y="-573.5" font-family="Helvetica,sans-Serif" font-size="10.00">editeurpanovisu.Gestionnaire</text>
<text xml:space="preserve" text-anchor="middle" x="1704.25" y="-561.5" font-family="Helvetica,sans-Serif" font-size="10.00">PlanController.getiPlanActuel</text>
</a>
</g>
</g>
<!-- Node2&#45;&gt;Node4 -->
<g id="edge37_Node000002_Node000004" class="edge">
<title>Node2&#45;&gt;Node4</title>
<g id="a_edge37_Node000002_Node000004"><a xlink:title=" ">
<path fill="none" stroke="#63b8ff" d="M266.49,-413.46C276.22,-456.73 308.49,-574.47 382.25,-635 487.43,-721.32 541.43,-716 677.5,-716 677.5,-716 677.5,-716 1299,-716 1431.49,-716 1478.13,-756.51 1596.5,-697 1639.81,-675.23 1672.47,-627.26 1689.66,-597.19"/>
<polygon fill="#63b8ff" stroke="#63b8ff" points="1692.58,-599.14 1694.36,-588.7 1686.46,-595.76 1692.58,-599.14"/>
</a>
</g>
</g>
<!-- Node5 -->
<g id="Node000005" class="node">
<title>Node5</title>
<g id="a_Node000005"><a xlink:href="classediteurpanovisu_1_1GestionnairePlanController.html#a3b110caac2b1cd6e082b90c98de22d91" target="_top" xlink:title=" ">
<polygon fill="white" stroke="#666666" points="1376.5,-650 1219.5,-650 1219.5,-618 1376.5,-618 1376.5,-650"/>
<text xml:space="preserve" text-anchor="start" x="1227.5" y="-636.5" font-family="Helvetica,sans-Serif" font-size="10.00">editeurpanovisu.Gestionnaire</text>
<text xml:space="preserve" text-anchor="middle" x="1298" y="-624.5" font-family="Helvetica,sans-Serif" font-size="10.00">PlanController.afficheConfigPlan</text>
</a>
</g>
</g>
<!-- Node2&#45;&gt;Node5 -->
<g id="edge4_Node000002_Node000005" class="edge">
<title>Node2&#45;&gt;Node5</title>
<g id="a_edge4_Node000002_Node000005"><a xlink:title=" ">
<path fill="none" stroke="#63b8ff" d="M278.29,-413.45C329.13,-466.72 500.28,-631 677.5,-631 677.5,-631 677.5,-631 881.12,-631 993.82,-631 1123.68,-632.12 1207.89,-632.99"/>
<polygon fill="#63b8ff" stroke="#63b8ff" points="1207.65,-636.48 1217.69,-633.09 1207.73,-629.48 1207.65,-636.48"/>
</a>
</g>
</g>
<!-- Node7 -->
<g id="Node000007" class="node">
<title>Node7</title>
<g id="a_Node000007"><a xlink:href="classediteurpanovisu_1_1GestionnairePlanController.html#ac6a814832aad8390d7157032c3f7f107" target="_top" xlink:title=" ">
<polygon fill="white" stroke="#666666" points="1183.5,-448 996.5,-448 996.5,-416 1183.5,-416 1183.5,-448"/>
<text xml:space="preserve" text-anchor="start" x="1004.5" y="-434.5" font-family="Helvetica,sans-Serif" font-size="10.00">editeurpanovisu.Gestionnaire</text>
<text xml:space="preserve" text-anchor="middle" x="1090" y="-422.5" font-family="Helvetica,sans-Serif" font-size="10.00">PlanController.ajouteAffichageHotspots</text>
</a>
</g>
</g>
<!-- Node2&#45;&gt;Node7 -->
<g id="edge8_Node000002_Node000007" class="edge">
<title>Node2&#45;&gt;Node7</title>
<g id="a_edge8_Node000002_Node000007"><a xlink:title=" ">
<path fill="none" stroke="#63b8ff" d="M317.22,-413.43C337.44,-418.94 360.73,-424.56 382.25,-428 636.29,-468.58 704.16,-475.78 960.5,-454 971.33,-453.08 982.61,-451.73 993.8,-450.15"/>
<polygon fill="#63b8ff" stroke="#63b8ff" points="994.06,-453.65 1003.44,-448.72 993.03,-446.72 994.06,-453.65"/>
</a>
</g>
</g>
<!-- Node9 -->
<g id="Node000009" class="node">
<title>Node9</title>
<g id="a_Node000009"><a xlink:href="classediteurpanovisu_1_1GestionnairePlanController.html#ae85c33829adf0dab112e4120e0dd2df2" target="_top" xlink:title=" ">
<polygon fill="white" stroke="#666666" points="1596.5,-218 1412.5,-218 1412.5,-186 1596.5,-186 1596.5,-218"/>
<text xml:space="preserve" text-anchor="start" x="1420.5" y="-204.5" font-family="Helvetica,sans-Serif" font-size="10.00">editeurpanovisu.Gestionnaire</text>
<text xml:space="preserve" text-anchor="middle" x="1504.5" y="-192.5" font-family="Helvetica,sans-Serif" font-size="10.00">PlanController.retireAffichageHotSpots</text>
</a>
</g>
</g>
<!-- Node2&#45;&gt;Node9 -->
<g id="edge38_Node000002_Node000009" class="edge">
<title>Node2&#45;&gt;Node9</title>
<g id="a_edge38_Node000002_Node000009"><a xlink:title=" ">
<path fill="none" stroke="#63b8ff" d="M325.2,-380.61C332.42,-378.04 339.58,-375.17 346.25,-372 506.79,-295.76 499.78,-148 677.5,-148 677.5,-148 677.5,-148 1091,-148 1218.5,-148 1250.43,-156.97 1376.5,-176 1390.11,-178.05 1404.46,-180.61 1418.43,-183.31"/>
<polygon fill="#63b8ff" stroke="#63b8ff" points="1417.55,-186.71 1428.04,-185.21 1418.91,-179.84 1417.55,-186.71"/>
</a>
</g>
</g>
<!-- Node12 -->
<g id="Node000012" class="node">
<title>Node12</title>
<g id="a_Node000012"><a xlink:href="classediteurpanovisu_1_1GestionnairePlanController.html#a6ca25de825e710388268b0a3ced9d868" target="_top" xlink:title=" ">
<polygon fill="white" stroke="#666666" points="557.25,-419 382.25,-419 382.25,-375 557.25,-375 557.25,-419"/>
<text xml:space="preserve" text-anchor="start" x="390.25" y="-405.5" font-family="Helvetica,sans-Serif" font-size="10.00">editeurpanovisu.Gestionnaire</text>
<text xml:space="preserve" text-anchor="start" x="390.25" y="-393.5" font-family="Helvetica,sans-Serif" font-size="10.00">PlanController.ajouteAffichagePoints</text>
<text xml:space="preserve" text-anchor="middle" x="469.75" y="-381.5" font-family="Helvetica,sans-Serif" font-size="10.00">Hotspots</text>
</a>
</g>
</g>
<!-- Node2&#45;&gt;Node12 -->
<g id="edge18_Node000002_Node000012" class="edge">
<title>Node2&#45;&gt;Node12</title>
<g id="a_edge18_Node000002_Node000012"><a xlink:title=" ">
<path fill="none" stroke="#63b8ff" d="M333.6,-397C345.53,-397 358.1,-397 370.59,-397"/>
<polygon fill="#63b8ff" stroke="#63b8ff" points="370.49,-400.5 380.49,-397 370.49,-393.5 370.49,-400.5"/>
</a>
</g>
</g>
<!-- Node18 -->
<g id="Node000018" class="node">
<title>Node18</title>
<g id="a_Node000018"><a xlink:href="classediteurpanovisu_1_1GestionnairePlanController.html#a3ab3f1b67b50004fa4ecd51241317dcd" target="_top" xlink:title=" ">
<polygon fill="white" stroke="#666666" points="540.75,-82 398.75,-82 398.75,-50 540.75,-50 540.75,-82"/>
<text xml:space="preserve" text-anchor="start" x="406.75" y="-68.5" font-family="Helvetica,sans-Serif" font-size="10.00">editeurpanovisu.Gestionnaire</text>
<text xml:space="preserve" text-anchor="middle" x="469.75" y="-56.5" font-family="Helvetica,sans-Serif" font-size="10.00">PlanController.getApPlan</text>
</a>
</g>
</g>
<!-- Node2&#45;&gt;Node18 -->
<g id="edge36_Node000002_Node000018" class="edge">
<title>Node2&#45;&gt;Node18</title>
<g id="a_edge36_Node000002_Node000018"><a xlink:title=" ">
<path fill="none" stroke="#63b8ff" d="M333.62,-382.75C338.34,-379.79 342.64,-376.25 346.25,-372 426.34,-277.72 304.14,-191.93 382.25,-96 384.37,-93.4 386.72,-91.02 389.26,-88.85"/>
<polygon fill="#63b8ff" stroke="#63b8ff" points="391.19,-91.78 397.3,-83.12 387.13,-86.08 391.19,-91.78"/>
</a>
</g>
</g>
<!-- Node19 -->
<g id="Node000019" class="node">
<title>Node19</title>
<g id="a_Node000019"><a xlink:href="classediteurpanovisu_1_1GestionnairePlanController.html#aff1e9a3b2cfc2290d47ef88959714f88" target="_top" xlink:title=" ">
<polygon fill="white" stroke="#666666" points="763.75,-44 593.25,-44 593.25,0 763.75,0 763.75,-44"/>
<text xml:space="preserve" text-anchor="start" x="601.25" y="-30.5" font-family="Helvetica,sans-Serif" font-size="10.00">editeurpanovisu.Gestionnaire</text>
<text xml:space="preserve" text-anchor="start" x="601.25" y="-18.5" font-family="Helvetica,sans-Serif" font-size="10.00">PlanController.retireAffichagePoints</text>
<text xml:space="preserve" text-anchor="middle" x="678.5" y="-6.5" font-family="Helvetica,sans-Serif" font-size="10.00">HotSpots</text>
</a>
</g>
</g>
<!-- Node2&#45;&gt;Node19 -->
<g id="edge39_Node000002_Node000019" class="edge">
<title>Node2&#45;&gt;Node19</title>
<g id="a_edge39_Node000002_Node000019"><a xlink:title=" ">
<path fill="none" stroke="#63b8ff" d="M333.52,-382.66C338.26,-379.73 342.6,-376.21 346.25,-372 416.34,-291.18 310.11,-213 382.25,-134 436.25,-74.85 486.64,-128.8 557.25,-91 576.39,-80.76 575.01,-69.77 593.25,-58 597.97,-54.95 603,-52.06 608.15,-49.34"/>
<polygon fill="#63b8ff" stroke="#63b8ff" points="609.45,-52.6 616.82,-45 606.32,-46.35 609.45,-52.6"/>
</a>
</g>
</g>
<!-- Node20 -->
<g id="Node000020" class="node">
<title>Node20</title>
<g id="a_Node000020"><a xlink:href="classediteurpanovisu_1_1GestionnairePlanController.html#a2f5a045c16dc044403025b9e0a3d7391" target="_top" xlink:title=" ">
<polygon fill="white" stroke="#666666" points="541.5,-32 398,-32 398,0 541.5,0 541.5,-32"/>
<text xml:space="preserve" text-anchor="start" x="406" y="-18.5" font-family="Helvetica,sans-Serif" font-size="10.00">editeurpanovisu.Gestionnaire</text>
<text xml:space="preserve" text-anchor="middle" x="469.75" y="-6.5" font-family="Helvetica,sans-Serif" font-size="10.00">PlanController.setiPlanActuel</text>
</a>
</g>
</g>
<!-- Node2&#45;&gt;Node20 -->
<g id="edge41_Node000002_Node000020" class="edge">
<title>Node2&#45;&gt;Node20</title>
<g id="a_edge41_Node000002_Node000020"><a xlink:title=" ">
<path fill="none" stroke="#63b8ff" d="M333.34,-383.07C338.18,-380.05 342.59,-376.4 346.25,-372 440.84,-258.2 287.05,-154.29 382.25,-41 384.14,-38.75 386.22,-36.69 388.46,-34.82"/>
<polygon fill="#63b8ff" stroke="#63b8ff" points="390.23,-37.84 396.49,-29.29 386.26,-32.08 390.23,-37.84"/>
</a>
</g>
</g>
<!-- Node3&#45;&gt;Node4 -->
<g id="edge3_Node000003_Node000004" class="edge">
<title>Node3&#45;&gt;Node4</title>
<g id="a_edge3_Node000003_Node000004"><a xlink:title=" ">
<path fill="none" stroke="#63b8ff" d="M1563.23,-655.57C1574.48,-651.64 1586.03,-647.09 1596.5,-642 1623.8,-628.72 1652.31,-609.44 1673,-594.32"/>
<polygon fill="#63b8ff" stroke="#63b8ff" points="1675.04,-597.16 1680.98,-588.39 1670.87,-591.54 1675.04,-597.16"/>
</a>
</g>
</g>
<!-- Node5&#45;&gt;Node3 -->
<g id="edge5_Node000005_Node000003" class="edge">
<title>Node5&#45;&gt;Node3</title>
<g id="a_edge5_Node000005_Node000003"><a xlink:title=" ">
<path fill="none" stroke="#63b8ff" d="M1376.9,-648.47C1390.52,-651.01 1404.76,-653.65 1418.57,-656.22"/>
<polygon fill="#63b8ff" stroke="#63b8ff" points="1417.57,-659.59 1428.04,-657.98 1418.85,-652.71 1417.57,-659.59"/>
</a>
</g>
</g>
<!-- Node5&#45;&gt;Node4 -->
<g id="edge6_Node000005_Node000004" class="edge">
<title>Node5&#45;&gt;Node4</title>
<g id="a_edge6_Node000005_Node000004"><a xlink:title=" ">
<path fill="none" stroke="#63b8ff" d="M1377,-630.39C1437.38,-626.58 1522.86,-618.94 1596.5,-604 1612.95,-600.66 1630.48,-595.81 1646.47,-590.85"/>
<polygon fill="#63b8ff" stroke="#63b8ff" points="1647.36,-594.24 1655.83,-587.87 1645.24,-587.57 1647.36,-594.24"/>
</a>
</g>
</g>
<!-- Node6 -->
<g id="Node000006" class="node">
<title>Node6</title>
<g id="a_Node000006"><a xlink:href="leaflet_8js.html#a73aff07b65d7c0b09ccf6b4c4f1b7a9d" target="_top" xlink:title=" ">
<polygon fill="white" stroke="#666666" points="1718.65,-272 1689.85,-272 1689.85,-252 1718.65,-252 1718.65,-272"/>
<text xml:space="preserve" text-anchor="middle" x="1704.25" y="-258.5" font-family="Helvetica,sans-Serif" font-size="10.00">i</text>
</a>
</g>
</g>
<!-- Node5&#45;&gt;Node6 -->
<g id="edge7_Node000005_Node000006" class="edge">
<title>Node5&#45;&gt;Node6</title>
<g id="a_edge7_Node000005_Node000006"><a xlink:title=" ">
<path fill="none" stroke="#63b8ff" d="M1320.03,-617.73C1369.88,-578.83 1498.38,-476.55 1596.5,-381 1630.9,-347.49 1667.57,-304.92 1687.72,-280.84"/>
<polygon fill="#63b8ff" stroke="#63b8ff" points="1690.16,-283.38 1693.86,-273.46 1684.78,-278.91 1690.16,-283.38"/>
</a>
</g>
</g>
<!-- Node7&#45;&gt;Node4 -->
<g id="edge15_Node000007_Node000004" class="edge">
<title>Node7&#45;&gt;Node4</title>
<g id="a_edge15_Node000007_Node000004"><a xlink:title=" ">
<path fill="none" stroke="#63b8ff" d="M1183.97,-432.1C1287.75,-435.01 1459.15,-448.25 1596.5,-500 1625.94,-511.09 1655.42,-531.58 1675.91,-547.71"/>
<polygon fill="#63b8ff" stroke="#63b8ff" points="1673.5,-550.26 1683.48,-553.81 1677.89,-544.81 1673.5,-550.26"/>
</a>
</g>
</g>
<!-- Node8 -->
<g id="Node000008" class="node">
<title>Node8</title>
<g id="a_Node000008"><a xlink:href="classediteurpanovisu_1_1GestionnairePlanController.html#ad4f72bd693b5b3bd93bee89bda000990" target="_top" xlink:title=" ">
<polygon fill="white" stroke="#666666" points="1369,-410 1227,-410 1227,-378 1369,-378 1369,-410"/>
<text xml:space="preserve" text-anchor="start" x="1235" y="-396.5" font-family="Helvetica,sans-Serif" font-size="10.00">editeurpanovisu.Gestionnaire</text>
<text xml:space="preserve" text-anchor="middle" x="1298" y="-384.5" font-family="Helvetica,sans-Serif" font-size="10.00">PlanController.affichageHS</text>
</a>
</g>
</g>
<!-- Node7&#45;&gt;Node8 -->
<g id="edge9_Node000007_Node000008" class="edge">
<title>Node7&#45;&gt;Node8</title>
<g id="a_edge9_Node000007_Node000008"><a xlink:title=" ">
<path fill="none" stroke="#63b8ff" d="M1147.29,-415.53C1168.38,-411 1192.78,-406.32 1215.69,-402.38"/>
<polygon fill="#63b8ff" stroke="#63b8ff" points="1216.02,-405.88 1225.3,-400.77 1214.86,-398.98 1216.02,-405.88"/>
</a>
</g>
</g>
<!-- Node11 -->
<g id="Node000011" class="node">
<title>Node11</title>
<g id="a_Node000011"><a xlink:href="classediteurpanovisu_1_1GestionnairePlanController.html#ace9c9d5683a0db9254026f3cb20cedd3" target="_top" xlink:title=" ">
<polygon fill="white" stroke="#666666" points="1369,-322 1227,-322 1227,-290 1369,-290 1369,-322"/>
<text xml:space="preserve" text-anchor="start" x="1235" y="-308.5" font-family="Helvetica,sans-Serif" font-size="10.00">editeurpanovisu.Gestionnaire</text>
<text xml:space="preserve" text-anchor="middle" x="1298" y="-296.5" font-family="Helvetica,sans-Serif" font-size="10.00">PlanController.listePano</text>
</a>
</g>
</g>
<!-- Node7&#45;&gt;Node11 -->
<g id="edge16_Node000007_Node000011" class="edge">
<title>Node7&#45;&gt;Node11</title>
<g id="a_edge16_Node000007_Node000011"><a xlink:title=" ">
<path fill="none" stroke="#63b8ff" d="M1166.18,-415.54C1172.22,-413.07 1178.07,-410.24 1183.5,-407 1203.48,-395.08 1202.44,-384.82 1219.5,-369 1234.45,-355.14 1252.02,-340.72 1266.65,-329.18"/>
<polygon fill="#63b8ff" stroke="#63b8ff" points="1268.41,-332.24 1274.13,-323.33 1264.1,-326.73 1268.41,-332.24"/>
</a>
</g>
</g>
<!-- Node8&#45;&gt;Node7 -->
<g id="edge10_Node000008_Node000007" class="edge">
<title>Node8&#45;&gt;Node7</title>
<g id="a_edge10_Node000008_Node000007"><a xlink:title=" ">
<path fill="none" stroke="#63b8ff" d="M1240.73,-410.47C1226.42,-413.54 1210.58,-416.68 1194.72,-419.62"/>
<polygon fill="#63b8ff" stroke="#63b8ff" points="1194.46,-416.11 1185.24,-421.34 1195.71,-422.99 1194.46,-416.11"/>
</a>
</g>
</g>
<!-- Node8&#45;&gt;Node9 -->
<g id="edge11_Node000008_Node000009" class="edge">
<title>Node8&#45;&gt;Node9</title>
<g id="a_edge11_Node000008_Node000009"><a xlink:title=" ">
<path fill="none" stroke="#63b8ff" d="M1320.58,-377.5C1336.43,-365.14 1358.28,-347.56 1376.5,-331 1414.52,-296.43 1455.79,-253.39 1480.64,-226.81"/>
<polygon fill="#63b8ff" stroke="#63b8ff" points="1483.13,-229.27 1487.38,-219.57 1478,-224.5 1483.13,-229.27"/>
</a>
</g>
</g>
<!-- Node10 -->
<g id="Node000010" class="node">
<title>Node10</title>
<g id="a_Node000010"><a xlink:href="classediteurpanovisu_1_1GestionnairePlanController.html#ae1523e38be18cc67cdfc275adff5dd18" target="_top" xlink:title=" ">
<polygon fill="white" stroke="#666666" points="1575.5,-372 1433.5,-372 1433.5,-340 1575.5,-340 1575.5,-372"/>
<text xml:space="preserve" text-anchor="start" x="1441.5" y="-358.5" font-family="Helvetica,sans-Serif" font-size="10.00">editeurpanovisu.Gestionnaire</text>
<text xml:space="preserve" text-anchor="middle" x="1504.5" y="-346.5" font-family="Helvetica,sans-Serif" font-size="10.00">PlanController.valideHsplan</text>
</a>
</g>
</g>
<!-- Node8&#45;&gt;Node10 -->
<g id="edge12_Node000008_Node000010" class="edge">
<title>Node8&#45;&gt;Node10</title>
<g id="a_edge12_Node000008_Node000010"><a xlink:title=" ">
<path fill="none" stroke="#63b8ff" d="M1369.38,-380.92C1386.34,-377.77 1404.61,-374.38 1422.03,-371.14"/>
<polygon fill="#63b8ff" stroke="#63b8ff" points="1422.66,-374.58 1431.85,-369.31 1421.38,-367.7 1422.66,-374.58"/>
</a>
</g>
</g>
<!-- Node10&#45;&gt;Node4 -->
<g id="edge13_Node000010_Node000004" class="edge">
<title>Node10&#45;&gt;Node4</title>
<g id="a_edge13_Node000010_Node000004"><a xlink:title=" ">
<path fill="none" stroke="#63b8ff" d="M1531.46,-372.31C1550.62,-385.06 1576.69,-403.92 1596.5,-424 1634.11,-462.13 1668.79,-514.35 1687.89,-545.19"/>
<polygon fill="#63b8ff" stroke="#63b8ff" points="1684.75,-546.78 1692.95,-553.49 1690.73,-543.13 1684.75,-546.78"/>
</a>
</g>
</g>
<!-- Node10&#45;&gt;Node6 -->
<g id="edge14_Node000010_Node000006" class="edge">
<title>Node10&#45;&gt;Node6</title>
<g id="a_edge14_Node000010_Node000006"><a xlink:title=" ">
<path fill="none" stroke="#63b8ff" d="M1545.64,-339.52C1561.58,-332.79 1580.02,-324.77 1596.5,-317 1625.41,-303.38 1657.97,-286.35 1679.44,-274.88"/>
<polygon fill="#63b8ff" stroke="#63b8ff" points="1681.1,-277.96 1688.25,-270.15 1677.79,-271.8 1681.1,-277.96"/>
</a>
</g>
</g>
<!-- Node11&#45;&gt;Node6 -->
<g id="edge17_Node000011_Node000006" class="edge">
<title>Node11&#45;&gt;Node6</title>
<g id="a_edge17_Node000011_Node000006"><a xlink:title=" ">
<path fill="none" stroke="#63b8ff" d="M1369.39,-299.5C1429.71,-293.79 1518.89,-285 1596.5,-276 1624.57,-272.74 1656.71,-268.45 1678.33,-265.48"/>
<polygon fill="#63b8ff" stroke="#63b8ff" points="1678.52,-268.99 1687.95,-264.15 1677.56,-262.06 1678.52,-268.99"/>
</a>
</g>
</g>
<!-- Node12&#45;&gt;Node4 -->
<g id="edge34_Node000012_Node000004" class="edge">
<title>Node12&#45;&gt;Node4</title>
<g id="a_edge34_Node000012_Node000004"><a xlink:title=" ">
<path fill="none" stroke="#63b8ff" d="M496.45,-419.14C558.04,-469.83 720.72,-590 879.12,-590 879.12,-590 879.12,-590 1299,-590 1410.45,-590 1538.98,-582.71 1620.65,-577.16"/>
<polygon fill="#63b8ff" stroke="#63b8ff" points="1620.85,-580.65 1630.59,-576.47 1620.37,-573.67 1620.85,-580.65"/>
</a>
</g>
</g>
<!-- Node12&#45;&gt;Node6 -->
<g id="edge35_Node000012_Node000006" class="edge">
<title>Node12&#45;&gt;Node6</title>
<g id="a_edge35_Node000012_Node000006"><a xlink:title=" ">
<path fill="none" stroke="#63b8ff" d="M483.83,-374.66C528.68,-301.23 684.31,-72 879.12,-72 879.12,-72 879.12,-72 1299,-72 1432.35,-72 1482.32,-42.11 1596.5,-111 1647.65,-141.86 1680.84,-207.63 1695.15,-241.26"/>
<polygon fill="#63b8ff" stroke="#63b8ff" points="1691.83,-242.37 1698.86,-250.3 1698.31,-239.72 1691.83,-242.37"/>
</a>
</g>
</g>
<!-- Node13 -->
<g id="Node000013" class="node">
<title>Node13</title>
<g id="a_Node000013"><a xlink:href="classediteurpanovisu_1_1GestionnairePlanController.html#a2e6f0187e7151e006c001659da532c6e" target="_top" xlink:title=" ">
<polygon fill="white" stroke="#666666" points="749.5,-413 607.5,-413 607.5,-381 749.5,-381 749.5,-413"/>
<text xml:space="preserve" text-anchor="start" x="615.5" y="-399.5" font-family="Helvetica,sans-Serif" font-size="10.00">editeurpanovisu.Gestionnaire</text>
<text xml:space="preserve" text-anchor="middle" x="678.5" y="-387.5" font-family="Helvetica,sans-Serif" font-size="10.00">PlanController.afficheHS</text>
</a>
</g>
</g>
<!-- Node12&#45;&gt;Node13 -->
<g id="edge19_Node000012_Node000013" class="edge">
<title>Node12&#45;&gt;Node13</title>
<g id="a_edge19_Node000012_Node000013"><a xlink:title=" ">
<path fill="none" stroke="#63b8ff" d="M557.53,-397C570.22,-397 583.26,-397 595.84,-397"/>
<polygon fill="#63b8ff" stroke="#63b8ff" points="595.73,-400.5 605.73,-397 595.73,-393.5 595.73,-400.5"/>
</a>
</g>
</g>
<!-- Node13&#45;&gt;Node4 -->
<g id="edge29_Node000013_Node000004" class="edge">
<title>Node13&#45;&gt;Node4</title>
<g id="a_edge29_Node000013_Node000004"><a xlink:title=" ">
<path fill="none" stroke="#63b8ff" d="M697.52,-413.33C719.78,-432.49 759.65,-463.6 799.75,-479 948.75,-536.23 1427.21,-560.48 1620.79,-568.12"/>
<polygon fill="#63b8ff" stroke="#63b8ff" points="1620.38,-571.61 1630.51,-568.5 1620.65,-564.61 1620.38,-571.61"/>
</a>
</g>
</g>
<!-- Node13&#45;&gt;Node6 -->
<g id="edge30_Node000013_Node000006" class="edge">
<title>Node13&#45;&gt;Node6</title>
<g id="a_edge30_Node000013_Node000006"><a xlink:title=" ">
<path fill="none" stroke="#63b8ff" d="M686.08,-380.73C701.04,-345.66 740.95,-262.38 799.75,-216 907.25,-131.21 952.08,-110 1089,-110 1089,-110 1089,-110 1299,-110 1434.53,-110 1474.28,-118.42 1596.5,-177 1631.51,-193.78 1665.45,-223.92 1685.34,-243.43"/>
<polygon fill="#63b8ff" stroke="#63b8ff" points="1682.83,-245.87 1692.37,-250.49 1687.79,-240.93 1682.83,-245.87"/>
</a>
</g>
</g>
<!-- Node13&#45;&gt;Node7 -->
<g id="edge28_Node000013_Node000007" class="edge">
<title>Node13&#45;&gt;Node7</title>
<g id="a_edge28_Node000013_Node000007"><a xlink:title=" ">
<path fill="none" stroke="#63b8ff" d="M749.74,-400.65C806.64,-403.87 888.83,-409.12 960.5,-416 968.42,-416.76 976.61,-417.62 984.84,-418.53"/>
<polygon fill="#63b8ff" stroke="#63b8ff" points="984.24,-421.98 994.57,-419.63 985.03,-415.03 984.24,-421.98"/>
</a>
</g>
</g>
<!-- Node13&#45;&gt;Node9 -->
<g id="edge31_Node000013_Node000009" class="edge">
<title>Node13&#45;&gt;Node9</title>
<g id="a_edge31_Node000013_Node000009"><a xlink:title=" ">
<path fill="none" stroke="#63b8ff" d="M698.14,-380.69C744.55,-341.34 870.59,-241.9 996.5,-208 1132.71,-171.32 1297.04,-178.21 1400.93,-188.5"/>
<polygon fill="#63b8ff" stroke="#63b8ff" points="1400.54,-191.97 1410.85,-189.51 1401.26,-185.01 1400.54,-191.97"/>
</a>
</g>
</g>
<!-- Node13&#45;&gt;Node10 -->
<g id="edge32_Node000013_Node000010" class="edge">
<title>Node13&#45;&gt;Node10</title>
<g id="a_edge32_Node000013_Node000010"><a xlink:title=" ">
<path fill="none" stroke="#63b8ff" d="M705.52,-413.36C729.1,-427.18 765.32,-445.98 799.75,-454 965.86,-492.71 1013.74,-473.55 1183.5,-457 1270.51,-448.52 1300.99,-463.07 1376.5,-419 1397.73,-406.61 1391.47,-389.73 1412.5,-377 1415.69,-375.07 1419.04,-373.31 1422.5,-371.72"/>
<polygon fill="#63b8ff" stroke="#63b8ff" points="1423.78,-374.98 1431.74,-367.98 1421.15,-368.49 1423.78,-374.98"/>
</a>
</g>
</g>
<!-- Node14 -->
<g id="Node000014" class="node">
<title>Node14</title>
<g id="a_Node000014"><a xlink:href="classediteurpanovisu_1_1GestionnairePlanController.html#a375ef7ea66bf40c2ad7d973e1a40c065" target="_top" xlink:title=" ">
<polygon fill="white" stroke="#666666" points="960.5,-366 799.75,-366 799.75,-322 960.5,-322 960.5,-366"/>
<text xml:space="preserve" text-anchor="start" x="807.75" y="-352.5" font-family="Helvetica,sans-Serif" font-size="10.00">editeurpanovisu.Gestionnaire</text>
<text xml:space="preserve" text-anchor="start" x="807.75" y="-340.5" font-family="Helvetica,sans-Serif" font-size="10.00">PlanController.afficherListePanos</text>
<text xml:space="preserve" text-anchor="middle" x="880.12" y="-328.5" font-family="Helvetica,sans-Serif" font-size="10.00">Vignettes</text>
</a>
</g>
</g>
<!-- Node13&#45;&gt;Node14 -->
<g id="edge20_Node000013_Node000014" class="edge">
<title>Node13&#45;&gt;Node14</title>
<g id="a_edge20_Node000013_Node000014"><a xlink:title=" ">
<path fill="none" stroke="#63b8ff" d="M741.57,-380.52C756.45,-376.57 772.64,-372.27 788.52,-368.06"/>
<polygon fill="#63b8ff" stroke="#63b8ff" points="789.21,-371.49 797.98,-365.54 787.41,-364.73 789.21,-371.49"/>
</a>
</g>
</g>
<!-- Node17 -->
<g id="Node000017" class="node">
<title>Node17</title>
<g id="a_Node000017"><a xlink:href="leaflet_8js.html#a873cae0273c5a7d9673544bbe0a6fe8b" target="_top" xlink:title=" ">
<polygon fill="white" stroke="#666666" points="894.52,-445 865.73,-445 865.73,-425 894.52,-425 894.52,-445"/>
<text xml:space="preserve" text-anchor="middle" x="880.12" y="-431.5" font-family="Helvetica,sans-Serif" font-size="10.00">Y</text>
</a>
</g>
</g>
<!-- Node13&#45;&gt;Node17 -->
<g id="edge33_Node000013_Node000017" class="edge">
<title>Node13&#45;&gt;Node17</title>
<g id="a_edge33_Node000013_Node000017"><a xlink:title=" ">
<path fill="none" stroke="#63b8ff" d="M749.88,-410.4C786.32,-417.33 828.5,-425.36 854.5,-430.31"/>
<polygon fill="#63b8ff" stroke="#63b8ff" points="853.58,-433.7 864.06,-432.13 854.89,-426.82 853.58,-433.7"/>
</a>
</g>
</g>
<!-- Node14&#45;&gt;Node4 -->
<g id="edge22_Node000014_Node000004" class="edge">
<title>Node14&#45;&gt;Node4</title>
<g id="a_edge22_Node000014_Node000004"><a xlink:title=" ">
<path fill="none" stroke="#63b8ff" d="M907.19,-366.31C923.02,-380.18 943.41,-398.63 960.5,-416 977.51,-433.29 975.13,-445.54 996.5,-457 1233.64,-584.16 1333.73,-480.07 1596.5,-538 1612.51,-541.53 1629.58,-546.32 1645.27,-551.16"/>
<polygon fill="#63b8ff" stroke="#63b8ff" points="1643.84,-554.39 1654.43,-554.05 1645.95,-547.71 1643.84,-554.39"/>
</a>
</g>
</g>
<!-- Node14&#45;&gt;Node6 -->
<g id="edge23_Node000014_Node000006" class="edge">
<title>Node14&#45;&gt;Node6</title>
<g id="a_edge23_Node000014_Node000006"><a xlink:title=" ">
<path fill="none" stroke="#63b8ff" d="M960.97,-325.75C1029.23,-310.97 1130.28,-291 1219.5,-281 1394.42,-261.39 1606.89,-261.15 1678.41,-261.71"/>
<polygon fill="#63b8ff" stroke="#63b8ff" points="1678.18,-265.21 1688.22,-261.8 1678.25,-258.21 1678.18,-265.21"/>
</a>
</g>
</g>
<!-- Node14&#45;&gt;Node7 -->
<g id="edge21_Node000014_Node000007" class="edge">
<title>Node14&#45;&gt;Node7</title>
<g id="a_edge21_Node000014_Node000007"><a xlink:title=" ">
<path fill="none" stroke="#63b8ff" d="M929.09,-366.3C939.58,-371.53 950.52,-377.25 960.5,-383 977.17,-392.59 978.99,-399.05 996.5,-407 1000.2,-408.68 1004.04,-410.27 1007.95,-411.76"/>
<polygon fill="#63b8ff" stroke="#63b8ff" points="1006.43,-414.94 1017.03,-415.01 1008.79,-408.34 1006.43,-414.94"/>
</a>
</g>
</g>
<!-- Node14&#45;&gt;Node9 -->
<g id="edge25_Node000014_Node000009" class="edge">
<title>Node14&#45;&gt;Node9</title>
<g id="a_edge25_Node000014_Node000009"><a xlink:title=" ">
<path fill="none" stroke="#63b8ff" d="M898.79,-321.71C919.37,-297.56 955.8,-260.2 996.5,-243 1066.97,-213.22 1274.31,-204.97 1400.96,-202.75"/>
<polygon fill="#63b8ff" stroke="#63b8ff" points="1400.74,-206.25 1410.68,-202.59 1400.63,-199.25 1400.74,-206.25"/>
</a>
</g>
</g>
<!-- Node14&#45;&gt;Node10 -->
<g id="edge27_Node000014_Node000010" class="edge">
<title>Node14&#45;&gt;Node10</title>
<g id="a_edge27_Node000014_Node000010"><a xlink:title=" ">
<path fill="none" stroke="#63b8ff" d="M960.9,-345.54C1079.74,-347.83 1302.1,-352.12 1421.96,-354.43"/>
<polygon fill="#63b8ff" stroke="#63b8ff" points="1421.65,-357.92 1431.72,-354.62 1421.79,-350.92 1421.65,-357.92"/>
</a>
</g>
</g>
<!-- Node15 -->
<g id="Node000015" class="node">
<title>Node15</title>
<g id="a_Node000015"><a xlink:href="leaflet_8js.html#abf5830200d869e463ea38504a19985f6" target="_top" xlink:title=" ">
<polygon fill="white" stroke="#666666" points="1104.75,-272 1075.25,-272 1075.25,-252 1104.75,-252 1104.75,-272"/>
<text xml:space="preserve" text-anchor="middle" x="1090" y="-258.5" font-family="Helvetica,sans-Serif" font-size="10.00">me</text>
</a>
</g>
</g>
<!-- Node14&#45;&gt;Node15 -->
<g id="edge24_Node000014_Node000015" class="edge">
<title>Node14&#45;&gt;Node15</title>
<g id="a_edge24_Node000014_Node000015"><a xlink:title=" ">
<path fill="none" stroke="#63b8ff" d="M920.5,-321.59C942.37,-309.81 970.38,-295.83 996.5,-286 1018.66,-277.66 1044.87,-271.16 1063.72,-267.04"/>
<polygon fill="#63b8ff" stroke="#63b8ff" points="1064.38,-270.48 1073.44,-264.99 1062.94,-263.63 1064.38,-270.48"/>
</a>
</g>
</g>
<!-- Node16 -->
<g id="Node000016" class="node">
<title>Node16</title>
<g id="a_Node000016"><a xlink:href="classediteurpanovisu_1_1GestionnairePlanController.html#a2f1b683e1be605730a62f963e130bdc2" target="_top" xlink:title=" ">
<polygon fill="white" stroke="#666666" points="1181.62,-398 998.38,-398 998.38,-366 1181.62,-366 1181.62,-398"/>
<text xml:space="preserve" text-anchor="start" x="1006.38" y="-384.5" font-family="Helvetica,sans-Serif" font-size="10.00">editeurpanovisu.Gestionnaire</text>
<text xml:space="preserve" text-anchor="middle" x="1090" y="-372.5" font-family="Helvetica,sans-Serif" font-size="10.00">PlanController.setStrPlanListeVignette</text>
</a>
</g>
</g>
<!-- Node14&#45;&gt;Node16 -->
<g id="edge26_Node000014_Node000016" class="edge">
<title>Node14&#45;&gt;Node16</title>
<g id="a_edge26_Node000014_Node000016"><a xlink:title=" ">
<path fill="none" stroke="#63b8ff" d="M960.9,-358.58C969.77,-360.21 978.89,-361.87 987.99,-363.53"/>
<polygon fill="#63b8ff" stroke="#63b8ff" points="987.09,-366.93 997.55,-365.28 988.34,-360.04 987.09,-366.93"/>
</a>
</g>
</g>
<!-- Node19&#45;&gt;Node6 -->
<g id="edge40_Node000019_Node000006" class="edge">
<title>Node19&#45;&gt;Node6</title>
<g id="a_edge40_Node000019_Node000006"><a xlink:title=" ">
<path fill="none" stroke="#63b8ff" d="M764.2,-23.96C847,-25.71 976.66,-28 1089,-28 1089,-28 1089,-28 1299,-28 1431.89,-28 1486.42,16.44 1596.5,-58 1661.3,-101.82 1689.41,-197.84 1699.06,-240.66"/>
<polygon fill="#63b8ff" stroke="#63b8ff" points="1695.58,-241.14 1701.08,-250.2 1702.43,-239.69 1695.58,-241.14"/>
</a>
</g>
</g>
</g>
</svg>
