<?xml version="1.0" encoding="UTF-8" standalone="no"?>
<!DOCTYPE svg PUBLIC "-//W3C//DTD SVG 1.1//EN"
 "http://www.w3.org/Graphics/SVG/1.1/DTD/svg11.dtd">
<!-- Generated by graphviz version 13.1.2 (20250808.2320)
 -->
<!-- Title: editeurpanovisu.GestionnaireInterfaceController.getStrCouleurTitre Pages: 1 -->
<svg width="2405pt" height="469pt"
 viewBox="0.00 0.00 2405.00 469.00" xmlns="http://www.w3.org/2000/svg" xmlns:xlink="http://www.w3.org/1999/xlink">
<g id="graph0" class="graph" transform="scale(1 1) rotate(0) translate(4 464.84)">
<title>editeurpanovisu.GestionnaireInterfaceController.getStrCouleurTitre</title>
<!-- Node1 -->
<g id="Node000001" class="node">
<title>Node1</title>
<g id="a_Node000001"><a xlink:title=" ">
<polygon fill="#999999" stroke="#666666" points="2396.75,-98.84 2218,-98.84 2218,-66.84 2396.75,-66.84 2396.75,-98.84"/>
<text xml:space="preserve" text-anchor="start" x="2226" y="-85.34" font-family="Helvetica,sans-Serif" font-size="10.00">editeurpanovisu.Gestionnaire</text>
<text xml:space="preserve" text-anchor="middle" x="2307.38" y="-73.34" font-family="Helvetica,sans-Serif" font-size="10.00">InterfaceController.getStrCouleurTitre</text>
</a>
</g>
</g>
<!-- Node2 -->
<g id="Node000002" class="node">
<title>Node2</title>
<g id="a_Node000002"><a xlink:href="classediteurpanovisu_1_1GestionnaireInterfaceController.html#a55c8afda208674955a13d48d02be41b8" target="_top" xlink:title=" ">
<polygon fill="white" stroke="#666666" points="2182,-300.84 2014.5,-300.84 2014.5,-268.84 2182,-268.84 2182,-300.84"/>
<text xml:space="preserve" text-anchor="start" x="2022.5" y="-287.34" font-family="Helvetica,sans-Serif" font-size="10.00">editeurpanovisu.Gestionnaire</text>
<text xml:space="preserve" text-anchor="middle" x="2098.25" y="-275.34" font-family="Helvetica,sans-Serif" font-size="10.00">InterfaceController.afficheTemplate</text>
</a>
</g>
</g>
<!-- Node1&#45;&gt;Node2 -->
<g id="edge1_Node000001_Node000002" class="edge">
<title>Node1&#45;&gt;Node2</title>
<g id="a_edge1_Node000001_Node000002"><a xlink:title=" ">
<path fill="none" stroke="#63b8ff" d="M2283.16,-107.05C2258.43,-132.68 2217.97,-174.13 2182,-208.84 2160.24,-229.83 2134.49,-253.26 2117.57,-268.48"/>
<polygon fill="#63b8ff" stroke="#63b8ff" points="2285.45,-109.72 2289.86,-100.09 2280.41,-104.86 2285.45,-109.72"/>
</a>
</g>
</g>
<!-- Node10 -->
<g id="Node000010" class="node">
<title>Node10</title>
<g id="a_Node000010"><a xlink:href="classediteurpanovisu_1_1EditeurPanovisu.html#a94e36b9e9d09ab1a4c852b8a8cefa927" target="_top" xlink:title=" ">
<polygon fill="white" stroke="#666666" points="647.25,-193.84 456.5,-193.84 456.5,-161.84 647.25,-161.84 647.25,-193.84"/>
<text xml:space="preserve" text-anchor="start" x="464.5" y="-180.34" font-family="Helvetica,sans-Serif" font-size="10.00">editeurpanovisu.EditeurPanovisu.genere</text>
<text xml:space="preserve" text-anchor="middle" x="551.88" y="-168.34" font-family="Helvetica,sans-Serif" font-size="10.00">Visite</text>
</a>
</g>
</g>
<!-- Node1&#45;&gt;Node10 -->
<g id="edge30_Node000001_Node000010" class="edge">
<title>Node1&#45;&gt;Node10</title>
<g id="a_edge30_Node000001_Node000010"><a xlink:title=" ">
<path fill="none" stroke="#63b8ff" d="M2206.54,-82.84C2122.61,-82.84 1999.47,-82.84 1892,-82.84 1892,-82.84 1892,-82.84 1228.5,-82.84 984.5,-82.84 923.51,-104.32 683.25,-146.84 661.03,-150.77 636.93,-156.17 615.56,-161.37"/>
<polygon fill="#63b8ff" stroke="#63b8ff" points="2206.35,-86.34 2216.35,-82.84 2206.35,-79.34 2206.35,-86.34"/>
</a>
</g>
</g>
<!-- Node16 -->
<g id="Node000016" class="node">
<title>Node16</title>
<g id="a_Node000016"><a xlink:href="classediteurpanovisu_1_1GestionnaireInterfaceController.html#a8c634f775c31c1a4db22d5ef0659f7e4" target="_top" xlink:title=" ">
<polygon fill="white" stroke="#666666" points="2171.88,-54.84 2024.62,-54.84 2024.62,-22.84 2171.88,-22.84 2171.88,-54.84"/>
<text xml:space="preserve" text-anchor="start" x="2032.62" y="-41.34" font-family="Helvetica,sans-Serif" font-size="10.00">editeurpanovisu.Gestionnaire</text>
<text xml:space="preserve" text-anchor="middle" x="2098.25" y="-29.34" font-family="Helvetica,sans-Serif" font-size="10.00">InterfaceController.afficheTitre</text>
</a>
</g>
</g>
<!-- Node1&#45;&gt;Node16 -->
<g id="edge27_Node000001_Node000016" class="edge">
<title>Node1&#45;&gt;Node16</title>
<g id="a_edge27_Node000001_Node000016"><a xlink:title=" ">
<path fill="none" stroke="#63b8ff" d="M2217.93,-64.05C2202.65,-60.8 2186.93,-57.46 2172.12,-54.32"/>
<polygon fill="#63b8ff" stroke="#63b8ff" points="2216.97,-67.42 2227.47,-66.08 2218.42,-60.57 2216.97,-67.42"/>
</a>
</g>
</g>
<!-- Node17 -->
<g id="Node000017" class="node">
<title>Node17</title>
<g id="a_Node000017"><a xlink:href="classediteurpanovisu_1_1GestionnaireInterfaceController.html#ac7fa988dc99d8684686127a2269cd66e" target="_top" xlink:title=" ">
<polygon fill="white" stroke="#666666" points="1969.12,-32.84 1812.88,-32.84 1812.88,-0.84 1969.12,-0.84 1969.12,-32.84"/>
<text xml:space="preserve" text-anchor="start" x="1820.88" y="-19.34" font-family="Helvetica,sans-Serif" font-size="10.00">editeurpanovisu.Gestionnaire</text>
<text xml:space="preserve" text-anchor="middle" x="1891" y="-7.34" font-family="Helvetica,sans-Serif" font-size="10.00">InterfaceController.creeInterface</text>
</a>
</g>
</g>
<!-- Node1&#45;&gt;Node17 -->
<g id="edge29_Node000001_Node000017" class="edge">
<title>Node1&#45;&gt;Node17</title>
<g id="a_edge29_Node000001_Node000017"><a xlink:title=" ">
<path fill="none" stroke="#63b8ff" d="M2275.62,-59.94C2251.54,-43.5 2216.46,-22.75 2182,-13.84 2111.69,4.36 2028.54,1.1 1969.34,-5.22"/>
<polygon fill="#63b8ff" stroke="#63b8ff" points="2273.48,-62.71 2283.68,-65.57 2277.49,-56.97 2273.48,-62.71"/>
</a>
</g>
</g>
<!-- Node18 -->
<g id="Node000018" class="node">
<title>Node18</title>
<g id="a_Node000018"><a xlink:href="classediteurpanovisu_1_1GestionnaireInterfaceController.html#ab66509c63a85a8285a081b24049e8774" target="_top" xlink:title=" ">
<polygon fill="white" stroke="#666666" points="2181.25,-199.84 2015.25,-199.84 2015.25,-167.84 2181.25,-167.84 2181.25,-199.84"/>
<text xml:space="preserve" text-anchor="start" x="2023.25" y="-186.34" font-family="Helvetica,sans-Serif" font-size="10.00">editeurpanovisu.Gestionnaire</text>
<text xml:space="preserve" text-anchor="middle" x="2098.25" y="-174.34" font-family="Helvetica,sans-Serif" font-size="10.00">InterfaceController.strGetTemplate</text>
</a>
</g>
</g>
<!-- Node1&#45;&gt;Node18 -->
<g id="edge31_Node000001_Node000018" class="edge">
<title>Node1&#45;&gt;Node18</title>
<g id="a_edge31_Node000001_Node000018"><a xlink:title=" ">
<path fill="none" stroke="#63b8ff" d="M2262.7,-104.14C2224.01,-123 2168.33,-150.15 2132.97,-167.39"/>
<polygon fill="#63b8ff" stroke="#63b8ff" points="2263.82,-107.48 2271.28,-99.95 2260.75,-101.19 2263.82,-107.48"/>
</a>
</g>
</g>
<!-- Node3 -->
<g id="Node000003" class="node">
<title>Node3</title>
<g id="a_Node000003"><a xlink:href="classediteurpanovisu_1_1EditeurPanovisu.html#a87b29dc258cfc67370b1f27809e91b8e" target="_top" xlink:title=" ">
<polygon fill="white" stroke="#666666" points="1978.5,-350.84 1803.5,-350.84 1803.5,-318.84 1978.5,-318.84 1978.5,-350.84"/>
<text xml:space="preserve" text-anchor="start" x="1811.5" y="-337.34" font-family="Helvetica,sans-Serif" font-size="10.00">editeurpanovisu.EditeurPanovisu.tsk</text>
<text xml:space="preserve" text-anchor="middle" x="1891" y="-325.34" font-family="Helvetica,sans-Serif" font-size="10.00">AnalyseFichierPVU</text>
</a>
</g>
</g>
<!-- Node2&#45;&gt;Node3 -->
<g id="edge2_Node000002_Node000003" class="edge">
<title>Node2&#45;&gt;Node3</title>
<g id="a_edge2_Node000002_Node000003"><a xlink:title=" ">
<path fill="none" stroke="#63b8ff" d="M2018.75,-303.96C1999.23,-308.72 1978.47,-313.77 1959.53,-318.39"/>
<polygon fill="#63b8ff" stroke="#63b8ff" points="2019.4,-307.4 2028.29,-301.64 2017.74,-300.6 2019.4,-307.4"/>
</a>
</g>
</g>
<!-- Node4 -->
<g id="Node000004" class="node">
<title>Node4</title>
<g id="a_Node000004"><a xlink:href="classediteurpanovisu_1_1EditeurPanovisu.html#ab4beb1597b660a4a253befc6e76f1c54" target="_top" xlink:title=" ">
<polygon fill="white" stroke="#666666" points="1098.12,-432.84 912.62,-432.84 912.62,-400.84 1098.12,-400.84 1098.12,-432.84"/>
<text xml:space="preserve" text-anchor="start" x="920.62" y="-419.34" font-family="Helvetica,sans-Serif" font-size="10.00">editeurpanovisu.EditeurPanovisu.projet</text>
<text xml:space="preserve" text-anchor="middle" x="1005.38" y="-407.34" font-family="Helvetica,sans-Serif" font-size="10.00">Charge</text>
</a>
</g>
</g>
<!-- Node3&#45;&gt;Node4 -->
<g id="edge3_Node000003_Node000004" class="edge">
<title>Node3&#45;&gt;Node4</title>
<g id="a_edge3_Node000003_Node000004"><a xlink:title=" ">
<path fill="none" stroke="#63b8ff" d="M1805.9,-353.46C1793.08,-355.87 1779.97,-358.1 1767.5,-359.84 1527.48,-393.18 1241.97,-407.97 1098.45,-413.7"/>
<polygon fill="#63b8ff" stroke="#63b8ff" points="1806.43,-356.92 1815.58,-351.59 1805.09,-350.05 1806.43,-356.92"/>
</a>
</g>
</g>
<!-- Node7 -->
<g id="Node000007" class="node">
<title>Node7</title>
<g id="a_Node000007"><a xlink:href="classediteurpanovisu_1_1EditeurPanovisu.html#a6d19b4d885ee6fcec827b91956295732" target="_top" xlink:title=" ">
<polygon fill="white" stroke="#666666" points="1767.5,-350.84 1582,-350.84 1582,-318.84 1767.5,-318.84 1767.5,-350.84"/>
<text xml:space="preserve" text-anchor="start" x="1590" y="-337.34" font-family="Helvetica,sans-Serif" font-size="10.00">editeurpanovisu.EditeurPanovisu.projet</text>
<text xml:space="preserve" text-anchor="middle" x="1674.75" y="-325.34" font-family="Helvetica,sans-Serif" font-size="10.00">ChargeNom</text>
</a>
</g>
</g>
<!-- Node3&#45;&gt;Node7 -->
<g id="edge6_Node000003_Node000007" class="edge">
<title>Node3&#45;&gt;Node7</title>
<g id="a_edge6_Node000003_Node000007"><a xlink:title=" ">
<path fill="none" stroke="#63b8ff" d="M1791.66,-334.84C1783.76,-334.84 1775.8,-334.84 1767.95,-334.84"/>
<polygon fill="#63b8ff" stroke="#63b8ff" points="1791.65,-338.34 1801.65,-334.84 1791.65,-331.34 1791.65,-338.34"/>
</a>
</g>
</g>
<!-- Node5 -->
<g id="Node000005" class="node">
<title>Node5</title>
<g id="a_Node000005"><a xlink:href="classediteurpanovisu_1_1EditeurPanovisu.html#ac912b80c1f2ac97def60ff005c5c480b" target="_top" xlink:title=" ">
<polygon fill="white" stroke="#666666" points="420.5,-341.84 216.25,-341.84 216.25,-321.84 420.5,-321.84 420.5,-341.84"/>
<text xml:space="preserve" text-anchor="middle" x="318.38" y="-328.34" font-family="Helvetica,sans-Serif" font-size="10.00">editeurpanovisu.EditeurPanovisu.creeMenu</text>
</a>
</g>
</g>
<!-- Node4&#45;&gt;Node5 -->
<g id="edge4_Node000004_Node000005" class="edge">
<title>Node4&#45;&gt;Node5</title>
<g id="a_edge4_Node000004_Node000005"><a xlink:title=" ">
<path fill="none" stroke="#63b8ff" d="M901.15,-414.82C790.26,-411.02 609.34,-400.12 456.5,-368.84 420.99,-361.57 381.05,-350.45 353.47,-342.3"/>
<polygon fill="#63b8ff" stroke="#63b8ff" points="900.71,-418.3 910.82,-415.13 900.94,-411.31 900.71,-418.3"/>
</a>
</g>
</g>
<!-- Node6 -->
<g id="Node000006" class="node">
<title>Node6</title>
<g id="a_Node000006"><a xlink:href="classediteurpanovisu_1_1EditeurPanovisu.html#a86c393eee88f54c694db994ddd85b90d" target="_top" xlink:title=" ">
<polygon fill="white" stroke="#666666" points="180.25,-347.84 0,-347.84 0,-315.84 180.25,-315.84 180.25,-347.84"/>
<text xml:space="preserve" text-anchor="start" x="8" y="-334.34" font-family="Helvetica,sans-Serif" font-size="10.00">editeurpanovisu.EditeurPanovisu.cree</text>
<text xml:space="preserve" text-anchor="middle" x="90.12" y="-322.34" font-family="Helvetica,sans-Serif" font-size="10.00">Environnement</text>
</a>
</g>
</g>
<!-- Node5&#45;&gt;Node6 -->
<g id="edge5_Node000005_Node000006" class="edge">
<title>Node5&#45;&gt;Node6</title>
<g id="a_edge5_Node000005_Node000006"><a xlink:title=" ">
<path fill="none" stroke="#63b8ff" d="M204.51,-331.84C196.49,-331.84 188.46,-331.84 180.6,-331.84"/>
<polygon fill="#63b8ff" stroke="#63b8ff" points="204.32,-335.34 214.32,-331.84 204.32,-328.34 204.32,-335.34"/>
</a>
</g>
</g>
<!-- Node7&#45;&gt;Node5 -->
<g id="edge26_Node000007_Node000005" class="edge">
<title>Node7&#45;&gt;Node5</title>
<g id="a_edge26_Node000007_Node000005"><a xlink:title=" ">
<path fill="none" stroke="#63b8ff" d="M1611.58,-354.63C1494.46,-390.1 1232.54,-460.84 1006.38,-460.84 1006.38,-460.84 1006.38,-460.84 777.62,-460.84 632.1,-460.84 594.66,-442.57 456.5,-396.84 411.98,-382.1 363.08,-356.43 337.41,-342.16"/>
<polygon fill="#63b8ff" stroke="#63b8ff" points="1612.46,-358.02 1621.01,-351.75 1610.42,-351.32 1612.46,-358.02"/>
</a>
</g>
</g>
<!-- Node8 -->
<g id="Node000008" class="node">
<title>Node8</title>
<g id="a_Node000008"><a xlink:href="classediteurpanovisu_1_1EditeurPanovisu.html#af0d1c32bb78acbff561c822a0d15f760" target="_top" xlink:title=" ">
<polygon fill="white" stroke="#666666" points="1546,-350.84 1358.25,-350.84 1358.25,-318.84 1546,-318.84 1546,-350.84"/>
<text xml:space="preserve" text-anchor="start" x="1366.25" y="-337.34" font-family="Helvetica,sans-Serif" font-size="10.00">editeurpanovisu.EditeurPanovisu.ajoute</text>
<text xml:space="preserve" text-anchor="middle" x="1452.12" y="-325.34" font-family="Helvetica,sans-Serif" font-size="10.00">FichierHisto</text>
</a>
</g>
</g>
<!-- Node7&#45;&gt;Node8 -->
<g id="edge7_Node000007_Node000008" class="edge">
<title>Node7&#45;&gt;Node8</title>
<g id="a_edge7_Node000007_Node000008"><a xlink:title=" ">
<path fill="none" stroke="#63b8ff" d="M1570.47,-328.1C1562.42,-328.07 1554.33,-328.09 1546.36,-328.16"/>
<polygon fill="#63b8ff" stroke="#63b8ff" points="1570.25,-331.6 1580.27,-328.16 1570.29,-324.6 1570.25,-331.6"/>
</a>
</g>
</g>
<!-- Node8&#45;&gt;Node4 -->
<g id="edge8_Node000008_Node000004" class="edge">
<title>Node8&#45;&gt;Node4</title>
<g id="a_edge8_Node000008_Node000004"><a xlink:title=" ">
<path fill="none" stroke="#63b8ff" d="M1350.56,-353.38C1273.93,-367.51 1169.4,-386.78 1095.7,-400.37"/>
<polygon fill="#63b8ff" stroke="#63b8ff" points="1350.97,-356.86 1360.17,-351.61 1349.7,-349.98 1350.97,-356.86"/>
</a>
</g>
</g>
<!-- Node8&#45;&gt;Node7 -->
<g id="edge9_Node000008_Node000007" class="edge">
<title>Node8&#45;&gt;Node7</title>
<g id="a_edge9_Node000008_Node000007"><a xlink:title=" ">
<path fill="none" stroke="#63b8ff" d="M1557.69,-341.58C1565.74,-341.6 1573.83,-341.58 1581.78,-341.5"/>
<polygon fill="#63b8ff" stroke="#63b8ff" points="1557.9,-338.08 1547.88,-341.52 1557.86,-345.08 1557.9,-338.08"/>
</a>
</g>
</g>
<!-- Node9 -->
<g id="Node000009" class="node">
<title>Node9</title>
<g id="a_Node000009"><a xlink:href="classediteurpanovisu_1_1EditeurPanovisu.html#a9f3ea25b35d4884524508dab3dc4fd6a" target="_top" xlink:title=" ">
<polygon fill="white" stroke="#666666" points="1322.25,-306.84 1136.75,-306.84 1136.75,-274.84 1322.25,-274.84 1322.25,-306.84"/>
<text xml:space="preserve" text-anchor="start" x="1144.75" y="-293.34" font-family="Helvetica,sans-Serif" font-size="10.00">editeurpanovisu.EditeurPanovisu.projet</text>
<text xml:space="preserve" text-anchor="middle" x="1229.5" y="-281.34" font-family="Helvetica,sans-Serif" font-size="10.00">Sauve</text>
</a>
</g>
</g>
<!-- Node8&#45;&gt;Node9 -->
<g id="edge10_Node000008_Node000009" class="edge">
<title>Node8&#45;&gt;Node9</title>
<g id="a_edge10_Node000008_Node000009"><a xlink:title=" ">
<path fill="none" stroke="#63b8ff" d="M1357.51,-316.17C1342.79,-313.23 1327.68,-310.22 1313.23,-307.34"/>
<polygon fill="#63b8ff" stroke="#63b8ff" points="1356.68,-319.57 1367.17,-318.09 1358.05,-312.71 1356.68,-319.57"/>
</a>
</g>
</g>
<!-- Node15 -->
<g id="Node000015" class="node">
<title>Node15</title>
<g id="a_Node000015"><a xlink:href="classediteurpanovisu_1_1EditeurPanovisu.html#a7b2e25dc717eb52b62e23d54ec4c124a" target="_top" xlink:title=" ">
<polygon fill="white" stroke="#666666" points="1322.25,-242.84 1136.75,-242.84 1136.75,-210.84 1322.25,-210.84 1322.25,-242.84"/>
<text xml:space="preserve" text-anchor="start" x="1144.75" y="-229.34" font-family="Helvetica,sans-Serif" font-size="10.00">editeurpanovisu.EditeurPanovisu.projet</text>
<text xml:space="preserve" text-anchor="middle" x="1229.5" y="-217.34" font-family="Helvetica,sans-Serif" font-size="10.00">SauveSous</text>
</a>
</g>
</g>
<!-- Node8&#45;&gt;Node15 -->
<g id="edge24_Node000008_Node000015" class="edge">
<title>Node8&#45;&gt;Node15</title>
<g id="a_edge24_Node000008_Node000015"><a xlink:title=" ">
<path fill="none" stroke="#63b8ff" d="M1412.38,-312.92C1387.03,-298.87 1353.03,-280.58 1322.25,-265.84 1305.7,-257.91 1287.13,-249.86 1271.04,-243.15"/>
<polygon fill="#63b8ff" stroke="#63b8ff" points="1410.57,-315.92 1421.01,-317.73 1413.98,-309.8 1410.57,-315.92"/>
</a>
</g>
</g>
<!-- Node9&#45;&gt;Node4 -->
<g id="edge14_Node000009_Node000004" class="edge">
<title>Node9&#45;&gt;Node4</title>
<g id="a_edge14_Node000009_Node000004"><a xlink:title=" ">
<path fill="none" stroke="#63b8ff" d="M1186.1,-312.59C1169.91,-321.81 1151.75,-333.33 1136.75,-345.84 1118.13,-361.37 1121.05,-373.57 1100.75,-386.84 1092.55,-392.2 1083.32,-396.66 1073.93,-400.36"/>
<polygon fill="#63b8ff" stroke="#63b8ff" points="1187.52,-315.8 1194.56,-307.89 1184.12,-309.69 1187.52,-315.8"/>
</a>
</g>
</g>
<!-- Node9&#45;&gt;Node5 -->
<g id="edge11_Node000009_Node000005" class="edge">
<title>Node9&#45;&gt;Node5</title>
<g id="a_edge11_Node000009_Node000005"><a xlink:title=" ">
<path fill="none" stroke="#63b8ff" d="M1144.81,-309.36C1130.19,-311.98 1115.08,-314.3 1100.75,-315.84 857.91,-341.89 570.27,-339.21 420.88,-335.33"/>
<polygon fill="#63b8ff" stroke="#63b8ff" points="1145.19,-312.85 1154.38,-307.58 1143.91,-305.96 1145.19,-312.85"/>
</a>
</g>
</g>
<!-- Node9&#45;&gt;Node7 -->
<g id="edge15_Node000009_Node000007" class="edge">
<title>Node9&#45;&gt;Node7</title>
<g id="a_edge15_Node000009_Node000007"><a xlink:title=" ">
<path fill="none" stroke="#63b8ff" d="M1333.92,-293.6C1395.67,-296.1 1475.54,-300.86 1546,-309.84 1563.04,-312.01 1581.22,-315.09 1598.36,-318.36"/>
<polygon fill="#63b8ff" stroke="#63b8ff" points="1334.25,-290.11 1324.12,-293.21 1333.98,-297.1 1334.25,-290.11"/>
</a>
</g>
</g>
<!-- Node9&#45;&gt;Node10 -->
<g id="edge12_Node000009_Node000010" class="edge">
<title>Node9&#45;&gt;Node10</title>
<g id="a_edge12_Node000009_Node000010"><a xlink:title=" ">
<path fill="none" stroke="#63b8ff" d="M1162.57,-269.64C1153.22,-264.77 1144.25,-258.89 1136.75,-251.84 1110.68,-227.33 1131.1,-198.78 1100.75,-179.84 1027.72,-134.26 784.08,-152.13 647.59,-166.52"/>
<polygon fill="#63b8ff" stroke="#63b8ff" points="1160.92,-272.73 1171.45,-273.89 1163.94,-266.42 1160.92,-272.73"/>
</a>
</g>
</g>
<!-- Node11 -->
<g id="Node000011" class="node">
<title>Node11</title>
<g id="a_Node000011"><a xlink:href="classediteurpanovisu_1_1EditeurPanovisu.html#a9b46b222714af12c06ec33d410400773" target="_top" xlink:title=" ">
<polygon fill="white" stroke="#666666" points="874,-391.84 683.25,-391.84 683.25,-359.84 874,-359.84 874,-391.84"/>
<text xml:space="preserve" text-anchor="start" x="691.25" y="-378.34" font-family="Helvetica,sans-Serif" font-size="10.00">editeurpanovisu.EditeurPanovisu.projets</text>
<text xml:space="preserve" text-anchor="middle" x="778.62" y="-366.34" font-family="Helvetica,sans-Serif" font-size="10.00">Fermer</text>
</a>
</g>
</g>
<!-- Node9&#45;&gt;Node11 -->
<g id="edge16_Node000009_Node000011" class="edge">
<title>Node9&#45;&gt;Node11</title>
<g id="a_edge16_Node000009_Node000011"><a xlink:title=" ">
<path fill="none" stroke="#63b8ff" d="M1189.83,-312.61C1165.14,-325.43 1131.99,-340.69 1100.75,-348.84 1026.31,-368.24 939.19,-374.59 874.5,-376.31"/>
<polygon fill="#63b8ff" stroke="#63b8ff" points="1191.33,-315.77 1198.53,-308 1188.06,-309.59 1191.33,-315.77"/>
</a>
</g>
</g>
<!-- Node12 -->
<g id="Node000012" class="node">
<title>Node12</title>
<g id="a_Node000012"><a xlink:href="classediteurpanovisu_1_1EditeurPanovisu.html#ac9d449399ccd38843fa12e716f0c9611" target="_top" xlink:title=" ">
<polygon fill="white" stroke="#666666" points="1100.75,-306.84 910,-306.84 910,-274.84 1100.75,-274.84 1100.75,-306.84"/>
<text xml:space="preserve" text-anchor="start" x="918" y="-293.34" font-family="Helvetica,sans-Serif" font-size="10.00">editeurpanovisu.EditeurPanovisu.projets</text>
<text xml:space="preserve" text-anchor="middle" x="1005.38" y="-281.34" font-family="Helvetica,sans-Serif" font-size="10.00">Nouveau</text>
</a>
</g>
</g>
<!-- Node9&#45;&gt;Node12 -->
<g id="edge18_Node000009_Node000012" class="edge">
<title>Node9&#45;&gt;Node12</title>
<g id="a_edge18_Node000009_Node000012"><a xlink:title=" ">
<path fill="none" stroke="#63b8ff" d="M1125.24,-290.84C1117.2,-290.84 1109.11,-290.84 1101.13,-290.84"/>
<polygon fill="#63b8ff" stroke="#63b8ff" points="1125.04,-294.34 1135.04,-290.84 1125.04,-287.34 1125.04,-294.34"/>
</a>
</g>
</g>
<!-- Node13 -->
<g id="Node000013" class="node">
<title>Node13</title>
<g id="a_Node000013"><a xlink:href="classediteurpanovisu_1_1EditeurPanovisu.html#a2b3125ffe2e6291efacf19df6cb30a8d" target="_top" xlink:title=" ">
<polygon fill="white" stroke="#666666" points="869.12,-206.84 688.12,-206.84 688.12,-186.84 869.12,-186.84 869.12,-206.84"/>
<text xml:space="preserve" text-anchor="middle" x="778.62" y="-193.34" font-family="Helvetica,sans-Serif" font-size="10.00">editeurpanovisu.EditeurPanovisu.start</text>
</a>
</g>
</g>
<!-- Node9&#45;&gt;Node13 -->
<g id="edge23_Node000009_Node000013" class="edge">
<title>Node9&#45;&gt;Node13</title>
<g id="a_edge23_Node000009_Node000013"><a xlink:title=" ">
<path fill="none" stroke="#63b8ff" d="M1170.06,-269.99C1158.6,-264.81 1146.97,-258.73 1136.75,-251.84 1117.99,-239.18 1121.39,-225.11 1100.75,-215.84 1023.83,-181.28 925.92,-180.88 858.55,-186.36"/>
<polygon fill="#63b8ff" stroke="#63b8ff" points="1168.55,-273.14 1179.12,-273.89 1171.32,-266.72 1168.55,-273.14"/>
</a>
</g>
</g>
<!-- Node14 -->
<g id="Node000014" class="node">
<title>Node14</title>
<g id="a_Node000014"><a xlink:href="classediteurpanovisu_1_1EditeurPanovisu.html#aef8c9b28c3e88d6e27e3f62b9a901134" target="_top" xlink:title=" ">
<polygon fill="white" stroke="#666666" points="1099.25,-256.84 911.5,-256.84 911.5,-224.84 1099.25,-224.84 1099.25,-256.84"/>
<text xml:space="preserve" text-anchor="start" x="919.5" y="-243.34" font-family="Helvetica,sans-Serif" font-size="10.00">editeurpanovisu.EditeurPanovisu.sauve</text>
<text xml:space="preserve" text-anchor="middle" x="1005.38" y="-231.34" font-family="Helvetica,sans-Serif" font-size="10.00">Fichiers</text>
</a>
</g>
</g>
<!-- Node9&#45;&gt;Node14 -->
<g id="edge22_Node000009_Node000014" class="edge">
<title>Node9&#45;&gt;Node14</title>
<g id="a_edge22_Node000009_Node000014"><a xlink:title=" ">
<path fill="none" stroke="#63b8ff" d="M1144.43,-271.91C1123.05,-267.1 1100.24,-261.97 1079.46,-257.29"/>
<polygon fill="#63b8ff" stroke="#63b8ff" points="1143.46,-275.28 1153.98,-274.06 1145,-268.45 1143.46,-275.28"/>
</a>
</g>
</g>
<!-- Node10&#45;&gt;Node5 -->
<g id="edge13_Node000010_Node000005" class="edge">
<title>Node10&#45;&gt;Node5</title>
<g id="a_edge13_Node000010_Node000005"><a xlink:title=" ">
<path fill="none" stroke="#63b8ff" d="M516.82,-200.49C465.94,-234.33 372.09,-296.77 335.03,-321.43"/>
<polygon fill="#63b8ff" stroke="#63b8ff" points="518.45,-203.61 524.84,-195.16 514.58,-197.78 518.45,-203.61"/>
</a>
</g>
</g>
<!-- Node11&#45;&gt;Node5 -->
<g id="edge17_Node000011_Node000005" class="edge">
<title>Node11&#45;&gt;Node5</title>
<g id="a_edge17_Node000011_Node000005"><a xlink:title=" ">
<path fill="none" stroke="#63b8ff" d="M671.3,-366.13C608.74,-360.37 528.11,-352.84 456.5,-345.84 444.95,-344.71 432.85,-343.5 420.83,-342.29"/>
<polygon fill="#63b8ff" stroke="#63b8ff" points="670.97,-369.62 681.25,-367.05 671.61,-362.65 670.97,-369.62"/>
</a>
</g>
</g>
<!-- Node12&#45;&gt;Node5 -->
<g id="edge19_Node000012_Node000005" class="edge">
<title>Node12&#45;&gt;Node5</title>
<g id="a_edge19_Node000012_Node000005"><a xlink:title=" ">
<path fill="none" stroke="#63b8ff" d="M898.29,-294.41C787.84,-298.52 609.89,-306.23 456.5,-317.84 443.26,-318.84 429.31,-320.06 415.59,-321.37"/>
<polygon fill="#63b8ff" stroke="#63b8ff" points="898.38,-297.91 908.24,-294.05 898.12,-290.92 898.38,-297.91"/>
</a>
</g>
</g>
<!-- Node12&#45;&gt;Node13 -->
<g id="edge20_Node000012_Node000013" class="edge">
<title>Node12&#45;&gt;Node13</title>
<g id="a_edge20_Node000012_Node000013"><a xlink:title=" ">
<path fill="none" stroke="#63b8ff" d="M924.25,-270.98C919.39,-269.36 914.61,-267.64 910,-265.84 867.31,-249.14 820.58,-222.06 796.33,-207.28"/>
<polygon fill="#63b8ff" stroke="#63b8ff" points="922.95,-274.24 933.54,-273.94 925.07,-267.57 922.95,-274.24"/>
</a>
</g>
</g>
<!-- Node13&#45;&gt;Node10 -->
<g id="edge21_Node000013_Node000010" class="edge">
<title>Node13&#45;&gt;Node10</title>
<g id="a_edge21_Node000013_Node000010"><a xlink:title=" ">
<path fill="none" stroke="#63b8ff" d="M676.6,-188.3C666.98,-187.48 657.24,-186.66 647.68,-185.85"/>
<polygon fill="#63b8ff" stroke="#63b8ff" points="676.06,-191.76 686.32,-189.12 676.65,-184.79 676.06,-191.76"/>
</a>
</g>
</g>
<!-- Node15&#45;&gt;Node5 -->
<g id="edge25_Node000015_Node000005" class="edge">
<title>Node15&#45;&gt;Node5</title>
<g id="a_edge25_Node000015_Node000005"><a xlink:title=" ">
<path fill="none" stroke="#63b8ff" d="M1201.56,-203.59C1177.11,-184.14 1139.11,-157.86 1100.75,-146.84 825.54,-67.78 711.57,-22.7 456.5,-152.84 382.23,-190.73 336.62,-289.48 323.4,-321.59"/>
<polygon fill="#63b8ff" stroke="#63b8ff" points="1199.1,-206.1 1209.06,-209.71 1203.52,-200.68 1199.1,-206.1"/>
</a>
</g>
</g>
<!-- Node16&#45;&gt;Node17 -->
<g id="edge28_Node000016_Node000017" class="edge">
<title>Node16&#45;&gt;Node17</title>
<g id="a_edge28_Node000016_Node000017"><a xlink:title=" ">
<path fill="none" stroke="#63b8ff" d="M2012.93,-29.8C1998.58,-28.26 1983.74,-26.67 1969.57,-25.15"/>
<polygon fill="#63b8ff" stroke="#63b8ff" points="2012.49,-33.27 2022.8,-30.86 2013.23,-26.31 2012.49,-33.27"/>
</a>
</g>
</g>
<!-- Node19 -->
<g id="Node000019" class="node">
<title>Node19</title>
<g id="a_Node000019"><a xlink:href="classediteurpanovisu_1_1EditeurPanovisu.html#aaee69ab54364f89b58458c744a4195c0" target="_top" xlink:title=" ">
<polygon fill="white" stroke="#666666" points="1546,-242.84 1358.25,-242.84 1358.25,-210.84 1546,-210.84 1546,-242.84"/>
<text xml:space="preserve" text-anchor="start" x="1366.25" y="-229.34" font-family="Helvetica,sans-Serif" font-size="10.00">editeurpanovisu.EditeurPanovisu.sauve</text>
<text xml:space="preserve" text-anchor="middle" x="1452.12" y="-217.34" font-family="Helvetica,sans-Serif" font-size="10.00">FichierProjet</text>
</a>
</g>
</g>
<!-- Node18&#45;&gt;Node19 -->
<g id="edge32_Node000018_Node000019" class="edge">
<title>Node18&#45;&gt;Node19</title>
<g id="a_edge32_Node000018_Node000019"><a xlink:title=" ">
<path fill="none" stroke="#63b8ff" d="M2003.84,-190.07C1881.56,-198.24 1668.49,-212.46 1546.33,-220.61"/>
<polygon fill="#63b8ff" stroke="#63b8ff" points="2003.76,-193.59 2013.51,-189.43 2003.3,-186.6 2003.76,-193.59"/>
</a>
</g>
</g>
<!-- Node19&#45;&gt;Node9 -->
<g id="edge33_Node000019_Node000009" class="edge">
<title>Node19&#45;&gt;Node9</title>
<g id="a_edge33_Node000019_Node000009"><a xlink:title=" ">
<path fill="none" stroke="#63b8ff" d="M1383.63,-246.42C1352.74,-255.38 1316.56,-265.87 1287.12,-274.41"/>
<polygon fill="#63b8ff" stroke="#63b8ff" points="1384.23,-249.89 1392.85,-243.74 1382.28,-243.16 1384.23,-249.89"/>
</a>
</g>
</g>
<!-- Node19&#45;&gt;Node15 -->
<g id="edge34_Node000019_Node000015" class="edge">
<title>Node19&#45;&gt;Node15</title>
<g id="a_edge34_Node000019_Node000015"><a xlink:title=" ">
<path fill="none" stroke="#63b8ff" d="M1346.63,-226.84C1338.64,-226.84 1330.61,-226.84 1322.71,-226.84"/>
<polygon fill="#63b8ff" stroke="#63b8ff" points="1346.37,-230.34 1356.37,-226.84 1346.37,-223.34 1346.37,-230.34"/>
</a>
</g>
</g>
</g>
</svg>
