<?xml version="1.0" encoding="UTF-8" standalone="no"?>
<!DOCTYPE svg PUBLIC "-//W3C//DTD SVG 1.1//EN"
 "http://www.w3.org/Graphics/SVG/1.1/DTD/svg11.dtd">
<!-- Generated by graphviz version 13.1.2 (20250808.2320)
 -->
<!-- Title: editeurpanovisu.Panoramique.setStrTitrePanoramique Pages: 1 -->
<!--zoomable 434 -->

<svg id="main" version="1.1" xmlns="http://www.w3.org/2000/svg" xmlns:xlink="http://www.w3.org/1999/xlink" xml:space="preserve" onload="init(evt)">

<style type="text/css"><![CDATA[
.node, .edge {opacity: 0.7;}
.node.selected, .edge.selected {opacity: 1;}
.edge:hover path { stroke: red; }
.edge:hover polygon { stroke: red; fill: red; }
]]></style>

<defs>
  <circle id="rim" cx="0" cy="0" r="7"/>
  <circle id="rim2" cx="0" cy="0" r="3.5"/>
  <g id="zoomPlus">
    <use xlink:href="#rim" fill="#404040"><set attributeName="fill" to="#808080" begin="zoomplus.mouseover" end="zoomplus.mouseout"/></use>
    <path d="M-4,0h8M0,-4v8" fill="none" stroke="white" stroke-width="1.5" pointer-events="none"/>
  </g>
  <g id="zoomMin">
    <use xlink:href="#rim" fill="#404040"><set attributeName="fill" to="#808080" begin="zoomminus.mouseover" end="zoomminus.mouseout"/></use>
    <path d="M-4,0h8" fill="none" stroke="white" stroke-width="1.5" pointer-events="none"/>
  </g>
  <g id="arrowUp" transform="translate(30 24)">
    <use xlink:href="#rim"/>
    <path pointer-events="none" fill="none" stroke="white" stroke-width="1.5" d="M0,-3.0v7 M-2.5,-0.5L0,-3.0L2.5,-0.5"/>
  </g>
  <g id="arrowRight" transform="rotate(90) translate(36 -43)">
    <use xlink:href="#rim"/>
    <path pointer-events="none" fill="none" stroke="white" stroke-width="1.5" d="M0,-3.0v7 M-2.5,-0.5L0,-3.0L2.5,-0.5"/>
  </g>
  <g id="arrowDown" transform="rotate(180) translate(-30 -48)">
    <use xlink:href="#rim"/>
    <path pointer-events="none" fill="none" stroke="white" stroke-width="1.5" d="M0,-3.0v7 M-2.5,-0.5L0,-3.0L2.5,-0.5"/>
  </g>
  <g id="arrowLeft" transform="rotate(270) translate(-36 17)">
    <use xlink:href="#rim"/>
    <path pointer-events="none" fill="none" stroke="white" stroke-width="1.5" d="M0,-3.0v7 M-2.5,-0.5L0,-3.0L2.5,-0.5"/>
  </g>
  <g id="resetDef">
    <use xlink:href="#rim2" fill="#404040"><set attributeName="fill" to="#808080" begin="reset.mouseover" end="reset.mouseout"/></use>
  </g>
</defs>
<script type="application/ecmascript">
var viewWidth = 2445;
var viewHeight = 434;
var sectionId = 'dynsection-78';
</script>
<script type="application/ecmascript" xlink:href="svg.min.js"/>
<svg id="graph" class="graph">
<g id="viewport">
<title>editeurpanovisu.Panoramique.setStrTitrePanoramique</title>
<!-- Node1 -->
<g id="Node000001" class="node">
<title>Node1</title>
<g id="a_Node000001"><a xlink:title=" ">
<polygon fill="#999999" stroke="#666666" points="2437.25,-221 2276.5,-221 2276.5,-189 2437.25,-189 2437.25,-221"/>
<text xml:space="preserve" text-anchor="start" x="2284.5" y="-207.5" font-family="Helvetica,sans-Serif" font-size="10.00">editeurpanovisu.Panoramique.set</text>
<text xml:space="preserve" text-anchor="middle" x="2356.88" y="-195.5" font-family="Helvetica,sans-Serif" font-size="10.00">StrTitrePanoramique</text>
</a>
</g>
</g>
<!-- Node2 -->
<g id="Node000002" class="node">
<title>Node2</title>
<g id="a_Node000002"><a xlink:href="classediteurpanovisu_1_1EditeurPanovisu.html#a50e220de3f9a12fde56a2f23e2f59cd2" target="_top" xlink:title=" ">
<polygon fill="white" stroke="#666666" points="2240.5,-221 2052.75,-221 2052.75,-189 2240.5,-189 2240.5,-221"/>
<text xml:space="preserve" text-anchor="start" x="2060.75" y="-207.5" font-family="Helvetica,sans-Serif" font-size="10.00">editeurpanovisu.EditeurPanovisu.ajoute</text>
<text xml:space="preserve" text-anchor="middle" x="2146.62" y="-195.5" font-family="Helvetica,sans-Serif" font-size="10.00">PanoramiqueProjet</text>
</a>
</g>
</g>
<!-- Node1&#45;&gt;Node2 -->
<g id="edge1_Node000001_Node000002" class="edge">
<title>Node1&#45;&gt;Node2</title>
<g id="a_edge1_Node000001_Node000002"><a xlink:title=" ">
<path fill="none" stroke="#63b8ff" d="M2265,-205C2256.97,-205 2248.84,-205 2240.79,-205"/>
<polygon fill="#63b8ff" stroke="#63b8ff" points="2264.74,-208.5 2274.74,-205 2264.74,-201.5 2264.74,-208.5"/>
</a>
</g>
</g>
<!-- Node3 -->
<g id="Node000003" class="node">
<title>Node3</title>
<g id="a_Node000003"><a xlink:href="classediteurpanovisu_1_1EditeurPanovisu.html#a87b29dc258cfc67370b1f27809e91b8e" target="_top" xlink:title=" ">
<polygon fill="white" stroke="#666666" points="2013.38,-312 1838.38,-312 1838.38,-280 2013.38,-280 2013.38,-312"/>
<text xml:space="preserve" text-anchor="start" x="1846.38" y="-298.5" font-family="Helvetica,sans-Serif" font-size="10.00">editeurpanovisu.EditeurPanovisu.tsk</text>
<text xml:space="preserve" text-anchor="middle" x="1925.88" y="-286.5" font-family="Helvetica,sans-Serif" font-size="10.00">AnalyseFichierPVU</text>
</a>
</g>
</g>
<!-- Node1&#45;&gt;Node3 -->
<g id="edge34_Node000001_Node000003" class="edge">
<title>Node1&#45;&gt;Node3</title>
<g id="a_edge34_Node000001_Node000003"><a xlink:title=" ">
<path fill="none" stroke="#63b8ff" d="M2307.22,-225.66C2286.9,-233.62 2262.86,-242.19 2240.5,-248 2165.06,-267.61 2077.2,-280.21 2013.7,-287.55"/>
<polygon fill="#63b8ff" stroke="#63b8ff" points="2308.39,-228.96 2316.38,-222 2305.8,-222.46 2308.39,-228.96"/>
</a>
</g>
</g>
<!-- Node18 -->
<g id="Node000018" class="node">
<title>Node18</title>
<g id="a_Node000018"><a xlink:href="classediteurpanovisu_1_1EditeurPanovisu.html#af39a958ba35dc6307b65a022d15ac7dd" target="_top" xlink:title=" ">
<polygon fill="white" stroke="#666666" points="2016.75,-45 1835,-45 1835,-13 2016.75,-13 2016.75,-45"/>
<text xml:space="preserve" text-anchor="start" x="1843" y="-31.5" font-family="Helvetica,sans-Serif" font-size="10.00">editeurpanovisu.EditeurPanovisu.click</text>
<text xml:space="preserve" text-anchor="middle" x="1925.88" y="-19.5" font-family="Helvetica,sans-Serif" font-size="10.00">BtnValidePano</text>
</a>
</g>
</g>
<!-- Node1&#45;&gt;Node18 -->
<g id="edge32_Node000001_Node000018" class="edge">
<title>Node1&#45;&gt;Node18</title>
<g id="a_edge32_Node000001_Node000018"><a xlink:title=" ">
<path fill="none" stroke="#63b8ff" d="M2305.33,-184.26C2219.12,-148.89 2045.34,-77.6 1966.9,-45.42"/>
<polygon fill="#63b8ff" stroke="#63b8ff" points="2303.92,-187.47 2314.5,-188.03 2306.58,-180.99 2303.92,-187.47"/>
</a>
</g>
</g>
<!-- Node2&#45;&gt;Node2 -->
<g id="edge2_Node000002_Node000002" class="edge">
<title>Node2&#45;&gt;Node2</title>
<g id="a_edge2_Node000002_Node000002"><a xlink:title=" ">
<path fill="none" stroke="#63b8ff" d="M2181.91,-232.54C2176.15,-236.41 2164.39,-239 2146.62,-239 2114.59,-239 2102.08,-230.58 2109.09,-221.44"/>
<polygon fill="#63b8ff" stroke="#63b8ff" points="2185.3,-233.42 2183.86,-222.93 2178.44,-232.03 2185.3,-233.42"/>
</a>
</g>
</g>
<!-- Node2&#45;&gt;Node3 -->
<g id="edge3_Node000002_Node000003" class="edge">
<title>Node2&#45;&gt;Node3</title>
<g id="a_edge3_Node000002_Node000003"><a xlink:title=" ">
<path fill="none" stroke="#63b8ff" d="M2095.6,-225.81C2056.33,-242.15 2002.41,-264.58 1966.19,-279.64"/>
<polygon fill="#63b8ff" stroke="#63b8ff" points="2096.72,-229.13 2104.61,-222.06 2094.04,-222.67 2096.72,-229.13"/>
</a>
</g>
</g>
<!-- Node16 -->
<g id="Node000016" class="node">
<title>Node16</title>
<g id="a_Node000016"><a xlink:href="classediteurpanovisu_1_1EditeurPanovisu.html#a53cccf6a6b2693c872947460b66ae8ee" target="_top" xlink:title=" ">
<polygon fill="white" stroke="#666666" points="1348.5,-98 1173.5,-98 1173.5,-66 1348.5,-66 1348.5,-98"/>
<text xml:space="preserve" text-anchor="start" x="1181.5" y="-84.5" font-family="Helvetica,sans-Serif" font-size="10.00">editeurpanovisu.EditeurPanovisu.tsk</text>
<text xml:space="preserve" text-anchor="middle" x="1261" y="-72.5" font-family="Helvetica,sans-Serif" font-size="10.00">ChargeListeFichiers</text>
</a>
</g>
</g>
<!-- Node2&#45;&gt;Node16 -->
<g id="edge28_Node000002_Node000016" class="edge">
<title>Node2&#45;&gt;Node16</title>
<g id="a_edge28_Node000002_Node000016"><a xlink:title=" ">
<path fill="none" stroke="#63b8ff" d="M2040.97,-190.43C1864.84,-165.92 1512.43,-116.86 1348.97,-94.11"/>
<polygon fill="#63b8ff" stroke="#63b8ff" points="2040.43,-193.89 2050.82,-191.8 2041.39,-186.96 2040.43,-193.89"/>
</a>
</g>
</g>
<!-- Node4 -->
<g id="Node000004" class="node">
<title>Node4</title>
<g id="a_Node000004"><a xlink:href="classediteurpanovisu_1_1EditeurPanovisu.html#ab4beb1597b660a4a253befc6e76f1c54" target="_top" xlink:title=" ">
<polygon fill="white" stroke="#666666" points="1129.62,-350 944.12,-350 944.12,-318 1129.62,-318 1129.62,-350"/>
<text xml:space="preserve" text-anchor="start" x="952.12" y="-336.5" font-family="Helvetica,sans-Serif" font-size="10.00">editeurpanovisu.EditeurPanovisu.projet</text>
<text xml:space="preserve" text-anchor="middle" x="1036.88" y="-324.5" font-family="Helvetica,sans-Serif" font-size="10.00">Charge</text>
</a>
</g>
</g>
<!-- Node3&#45;&gt;Node4 -->
<g id="edge4_Node000003_Node000004" class="edge">
<title>Node3&#45;&gt;Node4</title>
<g id="a_edge4_Node000003_Node000004"><a xlink:title=" ">
<path fill="none" stroke="#63b8ff" d="M1866.12,-315.8C1845.19,-321.93 1821.28,-327.88 1799,-331 1559.68,-364.47 1273.87,-351.65 1130.12,-341.6"/>
<polygon fill="#63b8ff" stroke="#63b8ff" points="1867.07,-319.17 1875.64,-312.94 1865.06,-312.47 1867.07,-319.17"/>
</a>
</g>
</g>
<!-- Node7 -->
<g id="Node000007" class="node">
<title>Node7</title>
<g id="a_Node000007"><a xlink:href="classediteurpanovisu_1_1EditeurPanovisu.html#a6d19b4d885ee6fcec827b91956295732" target="_top" xlink:title=" ">
<polygon fill="white" stroke="#666666" points="1799,-322 1613.5,-322 1613.5,-290 1799,-290 1799,-322"/>
<text xml:space="preserve" text-anchor="start" x="1621.5" y="-308.5" font-family="Helvetica,sans-Serif" font-size="10.00">editeurpanovisu.EditeurPanovisu.projet</text>
<text xml:space="preserve" text-anchor="middle" x="1706.25" y="-296.5" font-family="Helvetica,sans-Serif" font-size="10.00">ChargeNom</text>
</a>
</g>
</g>
<!-- Node3&#45;&gt;Node7 -->
<g id="edge7_Node000003_Node000007" class="edge">
<title>Node3&#45;&gt;Node7</title>
<g id="a_edge7_Node000003_Node000007"><a xlink:title=" ">
<path fill="none" stroke="#63b8ff" d="M1826.55,-300.52C1817.52,-300.93 1808.39,-301.35 1799.41,-301.77"/>
<polygon fill="#63b8ff" stroke="#63b8ff" points="1826.58,-304.02 1836.41,-300.06 1826.26,-297.03 1826.58,-304.02"/>
</a>
</g>
</g>
<!-- Node5 -->
<g id="Node000005" class="node">
<title>Node5</title>
<g id="a_Node000005"><a xlink:href="classediteurpanovisu_1_1EditeurPanovisu.html#ac912b80c1f2ac97def60ff005c5c480b" target="_top" xlink:title=" ">
<polygon fill="white" stroke="#666666" points="420.5,-256 216.25,-256 216.25,-236 420.5,-236 420.5,-256"/>
<text xml:space="preserve" text-anchor="middle" x="318.38" y="-242.5" font-family="Helvetica,sans-Serif" font-size="10.00">editeurpanovisu.EditeurPanovisu.creeMenu</text>
</a>
</g>
</g>
<!-- Node4&#45;&gt;Node5 -->
<g id="edge5_Node000004_Node000005" class="edge">
<title>Node4&#45;&gt;Node5</title>
<g id="a_edge5_Node000004_Node000005"><a xlink:title=" ">
<path fill="none" stroke="#63b8ff" d="M932.39,-343.83C815.02,-351.97 618.84,-356.36 456.5,-315 408.98,-302.89 358.93,-272.54 334.54,-256.43"/>
<polygon fill="#63b8ff" stroke="#63b8ff" points="932.62,-347.33 942.34,-343.12 932.12,-340.34 932.62,-347.33"/>
</a>
</g>
</g>
<!-- Node6 -->
<g id="Node000006" class="node">
<title>Node6</title>
<g id="a_Node000006"><a xlink:href="classediteurpanovisu_1_1EditeurPanovisu.html#a86c393eee88f54c694db994ddd85b90d" target="_top" xlink:title=" ">
<polygon fill="white" stroke="#666666" points="180.25,-139 0,-139 0,-107 180.25,-107 180.25,-139"/>
<text xml:space="preserve" text-anchor="start" x="8" y="-125.5" font-family="Helvetica,sans-Serif" font-size="10.00">editeurpanovisu.EditeurPanovisu.cree</text>
<text xml:space="preserve" text-anchor="middle" x="90.12" y="-113.5" font-family="Helvetica,sans-Serif" font-size="10.00">Environnement</text>
</a>
</g>
</g>
<!-- Node5&#45;&gt;Node6 -->
<g id="edge6_Node000005_Node000006" class="edge">
<title>Node5&#45;&gt;Node6</title>
<g id="a_edge6_Node000005_Node000006"><a xlink:title=" ">
<path fill="none" stroke="#63b8ff" d="M288.23,-230.16C245.18,-206.75 164.96,-163.14 121.31,-139.41"/>
<polygon fill="#63b8ff" stroke="#63b8ff" points="286.3,-233.09 296.76,-234.79 289.64,-226.94 286.3,-233.09"/>
</a>
</g>
</g>
<!-- Node7&#45;&gt;Node5 -->
<g id="edge27_Node000007_Node000005" class="edge">
<title>Node7&#45;&gt;Node5</title>
<g id="a_edge27_Node000007_Node000005"><a xlink:title=" ">
<path fill="none" stroke="#63b8ff" d="M1620.94,-325.16C1618.43,-325.78 1615.95,-326.39 1613.5,-327 1456.49,-366.17 1423.83,-422 1262,-422 1262,-422 1262,-422 793.38,-422 642.44,-422 592.51,-444.45 456.5,-379 395.24,-349.52 344.16,-281.97 326.24,-256.22"/>
<polygon fill="#63b8ff" stroke="#63b8ff" points="1621.7,-328.58 1630.6,-322.83 1620.06,-321.78 1621.7,-328.58"/>
</a>
</g>
</g>
<!-- Node8 -->
<g id="Node000008" class="node">
<title>Node8</title>
<g id="a_Node000008"><a xlink:href="classediteurpanovisu_1_1EditeurPanovisu.html#af0d1c32bb78acbff561c822a0d15f760" target="_top" xlink:title=" ">
<polygon fill="white" stroke="#666666" points="1577.5,-322 1389.75,-322 1389.75,-290 1577.5,-290 1577.5,-322"/>
<text xml:space="preserve" text-anchor="start" x="1397.75" y="-308.5" font-family="Helvetica,sans-Serif" font-size="10.00">editeurpanovisu.EditeurPanovisu.ajoute</text>
<text xml:space="preserve" text-anchor="middle" x="1483.62" y="-296.5" font-family="Helvetica,sans-Serif" font-size="10.00">FichierHisto</text>
</a>
</g>
</g>
<!-- Node7&#45;&gt;Node8 -->
<g id="edge8_Node000007_Node000008" class="edge">
<title>Node7&#45;&gt;Node8</title>
<g id="a_edge8_Node000007_Node000008"><a xlink:title=" ">
<path fill="none" stroke="#63b8ff" d="M1601.97,-299.26C1593.92,-299.23 1585.83,-299.25 1577.86,-299.32"/>
<polygon fill="#63b8ff" stroke="#63b8ff" points="1601.75,-302.76 1611.77,-299.32 1601.79,-295.76 1601.75,-302.76"/>
</a>
</g>
</g>
<!-- Node8&#45;&gt;Node4 -->
<g id="edge9_Node000008_Node000004" class="edge">
<title>Node8&#45;&gt;Node4</title>
<g id="a_edge9_Node000008_Node000004"><a xlink:title=" ">
<path fill="none" stroke="#63b8ff" d="M1378,-312.59C1302.7,-317.33 1202.08,-323.66 1129.84,-328.21"/>
<polygon fill="#63b8ff" stroke="#63b8ff" points="1378.12,-316.09 1387.88,-311.96 1377.68,-309.1 1378.12,-316.09"/>
</a>
</g>
</g>
<!-- Node8&#45;&gt;Node7 -->
<g id="edge10_Node000008_Node000007" class="edge">
<title>Node8&#45;&gt;Node7</title>
<g id="a_edge10_Node000008_Node000007"><a xlink:title=" ">
<path fill="none" stroke="#63b8ff" d="M1589.19,-312.74C1597.24,-312.76 1605.33,-312.74 1613.28,-312.67"/>
<polygon fill="#63b8ff" stroke="#63b8ff" points="1589.4,-309.24 1579.38,-312.69 1589.36,-316.24 1589.4,-309.24"/>
</a>
</g>
</g>
<!-- Node9 -->
<g id="Node000009" class="node">
<title>Node9</title>
<g id="a_Node000009"><a xlink:href="classediteurpanovisu_1_1EditeurPanovisu.html#a9f3ea25b35d4884524508dab3dc4fd6a" target="_top" xlink:title=" ">
<polygon fill="white" stroke="#666666" points="1353.75,-268 1168.25,-268 1168.25,-236 1353.75,-236 1353.75,-268"/>
<text xml:space="preserve" text-anchor="start" x="1176.25" y="-254.5" font-family="Helvetica,sans-Serif" font-size="10.00">editeurpanovisu.EditeurPanovisu.projet</text>
<text xml:space="preserve" text-anchor="middle" x="1261" y="-242.5" font-family="Helvetica,sans-Serif" font-size="10.00">Sauve</text>
</a>
</g>
</g>
<!-- Node8&#45;&gt;Node9 -->
<g id="edge11_Node000008_Node000009" class="edge">
<title>Node8&#45;&gt;Node9</title>
<g id="a_edge11_Node000008_Node000009"><a xlink:title=" ">
<path fill="none" stroke="#63b8ff" d="M1404.18,-286.8C1379.72,-280.81 1352.98,-274.27 1329.36,-268.49"/>
<polygon fill="#63b8ff" stroke="#63b8ff" points="1403.22,-290.17 1413.76,-289.14 1404.88,-283.37 1403.22,-290.17"/>
</a>
</g>
</g>
<!-- Node15 -->
<g id="Node000015" class="node">
<title>Node15</title>
<g id="a_Node000015"><a xlink:href="classediteurpanovisu_1_1EditeurPanovisu.html#a7b2e25dc717eb52b62e23d54ec4c124a" target="_top" xlink:title=" ">
<polygon fill="white" stroke="#666666" points="887.12,-394 701.62,-394 701.62,-362 887.12,-362 887.12,-394"/>
<text xml:space="preserve" text-anchor="start" x="709.62" y="-380.5" font-family="Helvetica,sans-Serif" font-size="10.00">editeurpanovisu.EditeurPanovisu.projet</text>
<text xml:space="preserve" text-anchor="middle" x="794.38" y="-368.5" font-family="Helvetica,sans-Serif" font-size="10.00">SauveSous</text>
</a>
</g>
</g>
<!-- Node8&#45;&gt;Node15 -->
<g id="edge25_Node000008_Node000015" class="edge">
<title>Node8&#45;&gt;Node15</title>
<g id="a_edge25_Node000008_Node000015"><a xlink:title=" ">
<path fill="none" stroke="#63b8ff" d="M1402.07,-324.82C1386.11,-328.17 1369.44,-331.42 1353.75,-334 1190.88,-360.81 998.49,-371.41 887.35,-375.51"/>
<polygon fill="#63b8ff" stroke="#63b8ff" points="1402.45,-328.32 1411.5,-322.8 1400.99,-321.47 1402.45,-328.32"/>
</a>
</g>
</g>
<!-- Node9&#45;&gt;Node4 -->
<g id="edge15_Node000009_Node000004" class="edge">
<title>Node9&#45;&gt;Node4</title>
<g id="a_edge15_Node000009_Node000004"><a xlink:title=" ">
<path fill="none" stroke="#63b8ff" d="M1211.25,-272.89C1187.58,-282.77 1158.61,-294.46 1132.25,-304 1119.32,-308.68 1105.25,-313.36 1092.02,-317.59"/>
<polygon fill="#63b8ff" stroke="#63b8ff" points="1212.47,-276.18 1220.34,-269.08 1209.76,-269.73 1212.47,-276.18"/>
</a>
</g>
</g>
<!-- Node9&#45;&gt;Node5 -->
<g id="edge12_Node000009_Node000005" class="edge">
<title>Node9&#45;&gt;Node5</title>
<g id="a_edge12_Node000009_Node000005"><a xlink:title=" ">
<path fill="none" stroke="#63b8ff" d="M1156.69,-251.34C975.14,-250.18 601.1,-247.8 420.86,-246.65"/>
<polygon fill="#63b8ff" stroke="#63b8ff" points="1156.56,-254.84 1166.58,-251.4 1156.61,-247.84 1156.56,-254.84"/>
</a>
</g>
</g>
<!-- Node9&#45;&gt;Node7 -->
<g id="edge16_Node000009_Node000007" class="edge">
<title>Node9&#45;&gt;Node7</title>
<g id="a_edge16_Node000009_Node000007"><a xlink:title=" ">
<path fill="none" stroke="#63b8ff" d="M1365.41,-258.84C1427.15,-263.59 1507.02,-270.89 1577.5,-281 1593.83,-283.34 1611.24,-286.38 1627.77,-289.53"/>
<polygon fill="#63b8ff" stroke="#63b8ff" points="1365.84,-255.37 1355.61,-258.1 1365.31,-262.35 1365.84,-255.37"/>
</a>
</g>
</g>
<!-- Node10 -->
<g id="Node000010" class="node">
<title>Node10</title>
<g id="a_Node000010"><a xlink:href="classediteurpanovisu_1_1EditeurPanovisu.html#a94e36b9e9d09ab1a4c852b8a8cefa927" target="_top" xlink:title=" ">
<polygon fill="white" stroke="#666666" points="647.25,-218 456.5,-218 456.5,-186 647.25,-186 647.25,-218"/>
<text xml:space="preserve" text-anchor="start" x="464.5" y="-204.5" font-family="Helvetica,sans-Serif" font-size="10.00">editeurpanovisu.EditeurPanovisu.genere</text>
<text xml:space="preserve" text-anchor="middle" x="551.88" y="-192.5" font-family="Helvetica,sans-Serif" font-size="10.00">Visite</text>
</a>
</g>
</g>
<!-- Node9&#45;&gt;Node10 -->
<g id="edge13_Node000009_Node000010" class="edge">
<title>Node9&#45;&gt;Node10</title>
<g id="a_edge13_Node000009_Node000010"><a xlink:title=" ">
<path fill="none" stroke="#63b8ff" d="M1156.68,-240.26C1148.42,-239.45 1140.2,-238.68 1132.25,-238 961.68,-223.36 762.36,-212.3 647.56,-206.51"/>
<polygon fill="#63b8ff" stroke="#63b8ff" points="1156.14,-243.72 1166.44,-241.24 1156.84,-236.76 1156.14,-243.72"/>
</a>
</g>
</g>
<!-- Node11 -->
<g id="Node000011" class="node">
<title>Node11</title>
<g id="a_Node000011"><a xlink:href="classediteurpanovisu_1_1EditeurPanovisu.html#a9b46b222714af12c06ec33d410400773" target="_top" xlink:title=" ">
<polygon fill="white" stroke="#666666" points="647.25,-306 456.5,-306 456.5,-274 647.25,-274 647.25,-306"/>
<text xml:space="preserve" text-anchor="start" x="464.5" y="-292.5" font-family="Helvetica,sans-Serif" font-size="10.00">editeurpanovisu.EditeurPanovisu.projets</text>
<text xml:space="preserve" text-anchor="middle" x="551.88" y="-280.5" font-family="Helvetica,sans-Serif" font-size="10.00">Fermer</text>
</a>
</g>
</g>
<!-- Node9&#45;&gt;Node11 -->
<g id="edge17_Node000009_Node000011" class="edge">
<title>Node9&#45;&gt;Node11</title>
<g id="a_edge17_Node000009_Node000011"><a xlink:title=" ">
<path fill="none" stroke="#63b8ff" d="M1156.69,-263.93C1148.43,-264.69 1140.2,-265.4 1132.25,-266 961.72,-278.86 762.39,-285.22 647.57,-288.05"/>
<polygon fill="#63b8ff" stroke="#63b8ff" points="1156.84,-267.43 1166.45,-262.98 1156.17,-260.46 1156.84,-267.43"/>
</a>
</g>
</g>
<!-- Node12 -->
<g id="Node000012" class="node">
<title>Node12</title>
<g id="a_Node000012"><a xlink:href="classediteurpanovisu_1_1EditeurPanovisu.html#ac9d449399ccd38843fa12e716f0c9611" target="_top" xlink:title=" ">
<polygon fill="white" stroke="#666666" points="1132.25,-98 941.5,-98 941.5,-66 1132.25,-66 1132.25,-98"/>
<text xml:space="preserve" text-anchor="start" x="949.5" y="-84.5" font-family="Helvetica,sans-Serif" font-size="10.00">editeurpanovisu.EditeurPanovisu.projets</text>
<text xml:space="preserve" text-anchor="middle" x="1036.88" y="-72.5" font-family="Helvetica,sans-Serif" font-size="10.00">Nouveau</text>
</a>
</g>
</g>
<!-- Node9&#45;&gt;Node12 -->
<g id="edge19_Node000009_Node000012" class="edge">
<title>Node9&#45;&gt;Node12</title>
<g id="a_edge19_Node000009_Node000012"><a xlink:title=" ">
<path fill="none" stroke="#63b8ff" d="M1244.36,-226.35C1223.08,-193.65 1181.9,-137.7 1132.25,-107 1126.92,-103.7 1121.15,-100.84 1115.19,-98.34"/>
<polygon fill="#63b8ff" stroke="#63b8ff" points="1241.17,-227.87 1249.5,-234.42 1247.08,-224.1 1241.17,-227.87"/>
</a>
</g>
</g>
<!-- Node13 -->
<g id="Node000013" class="node">
<title>Node13</title>
<g id="a_Node000013"><a xlink:href="classediteurpanovisu_1_1EditeurPanovisu.html#a2b3125ffe2e6291efacf19df6cb30a8d" target="_top" xlink:title=" ">
<polygon fill="white" stroke="#666666" points="884.88,-186 703.88,-186 703.88,-166 884.88,-166 884.88,-186"/>
<text xml:space="preserve" text-anchor="middle" x="794.38" y="-172.5" font-family="Helvetica,sans-Serif" font-size="10.00">editeurpanovisu.EditeurPanovisu.start</text>
</a>
</g>
</g>
<!-- Node9&#45;&gt;Node13 -->
<g id="edge24_Node000009_Node000013" class="edge">
<title>Node9&#45;&gt;Node13</title>
<g id="a_edge24_Node000009_Node000013"><a xlink:title=" ">
<path fill="none" stroke="#63b8ff" d="M1217.54,-230.77C1193.2,-219.61 1161.71,-206.86 1132.25,-200 1050.02,-180.85 953.71,-175.65 885.18,-174.76"/>
<polygon fill="#63b8ff" stroke="#63b8ff" points="1215.94,-233.88 1226.48,-234.95 1218.9,-227.54 1215.94,-233.88"/>
</a>
</g>
</g>
<!-- Node14 -->
<g id="Node000014" class="node">
<title>Node14</title>
<g id="a_Node000014"><a xlink:href="classediteurpanovisu_1_1EditeurPanovisu.html#aef8c9b28c3e88d6e27e3f62b9a901134" target="_top" xlink:title=" ">
<polygon fill="white" stroke="#666666" points="1130.75,-148 943,-148 943,-116 1130.75,-116 1130.75,-148"/>
<text xml:space="preserve" text-anchor="start" x="951" y="-134.5" font-family="Helvetica,sans-Serif" font-size="10.00">editeurpanovisu.EditeurPanovisu.sauve</text>
<text xml:space="preserve" text-anchor="middle" x="1036.88" y="-122.5" font-family="Helvetica,sans-Serif" font-size="10.00">Fichiers</text>
</a>
</g>
</g>
<!-- Node9&#45;&gt;Node14 -->
<g id="edge23_Node000009_Node000014" class="edge">
<title>Node9&#45;&gt;Node14</title>
<g id="a_edge23_Node000009_Node000014"><a xlink:title=" ">
<path fill="none" stroke="#63b8ff" d="M1231.99,-228.44C1207.11,-208.49 1169.1,-180.29 1132.25,-162 1121.86,-156.84 1110.38,-152.32 1099.12,-148.45"/>
<polygon fill="#63b8ff" stroke="#63b8ff" points="1229.7,-231.1 1239.67,-234.69 1234.12,-225.67 1229.7,-231.1"/>
</a>
</g>
</g>
<!-- Node10&#45;&gt;Node5 -->
<g id="edge14_Node000010_Node000005" class="edge">
<title>Node10&#45;&gt;Node5</title>
<g id="a_edge14_Node000010_Node000005"><a xlink:title=" ">
<path fill="none" stroke="#63b8ff" d="M453.32,-220.54C426.42,-225.65 398.18,-231.02 374.6,-235.5"/>
<polygon fill="#63b8ff" stroke="#63b8ff" points="453.69,-224.03 462.86,-218.73 452.38,-217.16 453.69,-224.03"/>
</a>
</g>
</g>
<!-- Node11&#45;&gt;Node5 -->
<g id="edge18_Node000011_Node000005" class="edge">
<title>Node11&#45;&gt;Node5</title>
<g id="a_edge18_Node000011_Node000005"><a xlink:title=" ">
<path fill="none" stroke="#63b8ff" d="M453.32,-271.46C426.42,-266.35 398.18,-260.98 374.6,-256.5"/>
<polygon fill="#63b8ff" stroke="#63b8ff" points="452.38,-274.84 462.86,-273.27 453.69,-267.97 452.38,-274.84"/>
</a>
</g>
</g>
<!-- Node12&#45;&gt;Node5 -->
<g id="edge20_Node000012_Node000005" class="edge">
<title>Node12&#45;&gt;Node5</title>
<g id="a_edge20_Node000012_Node000005"><a xlink:title=" ">
<path fill="none" stroke="#63b8ff" d="M930.07,-89.66C812.15,-100.41 616.96,-124.83 456.5,-177 410.63,-191.92 361.07,-220.23 335.98,-235.54"/>
<polygon fill="#63b8ff" stroke="#63b8ff" points="930.08,-93.17 939.73,-88.8 929.46,-86.2 930.08,-93.17"/>
</a>
</g>
</g>
<!-- Node12&#45;&gt;Node13 -->
<g id="edge21_Node000012_Node000013" class="edge">
<title>Node12&#45;&gt;Node13</title>
<g id="a_edge21_Node000012_Node000013"><a xlink:title=" ">
<path fill="none" stroke="#63b8ff" d="M955.04,-101.97C950.42,-103.56 945.88,-105.24 941.5,-107 924.52,-113.84 921.88,-118.83 905.5,-127 876.85,-141.3 843.11,-156.01 820.6,-165.53"/>
<polygon fill="#63b8ff" stroke="#63b8ff" points="956.05,-105.33 964.47,-98.9 953.88,-98.67 956.05,-105.33"/>
</a>
</g>
</g>
<!-- Node13&#45;&gt;Node10 -->
<g id="edge22_Node000013_Node000010" class="edge">
<title>Node13&#45;&gt;Node10</title>
<g id="a_edge22_Node000013_Node000010"><a xlink:title=" ">
<path fill="none" stroke="#63b8ff" d="M692.23,-186.93C677.4,-188.54 662.18,-190.18 647.49,-191.77"/>
<polygon fill="#63b8ff" stroke="#63b8ff" points="692.41,-190.44 701.97,-185.88 691.66,-183.48 692.41,-190.44"/>
</a>
</g>
</g>
<!-- Node15&#45;&gt;Node5 -->
<g id="edge26_Node000015_Node000005" class="edge">
<title>Node15&#45;&gt;Node5</title>
<g id="a_edge26_Node000015_Node000005"><a xlink:title=" ">
<path fill="none" stroke="#63b8ff" d="M690.15,-383.15C621.75,-383.15 531.21,-376.48 456.5,-348 401.88,-327.18 350.12,-278 329.17,-256.44"/>
<polygon fill="#63b8ff" stroke="#63b8ff" points="689.86,-386.66 699.85,-383.1 689.83,-379.66 689.86,-386.66"/>
</a>
</g>
</g>
<!-- Node16&#45;&gt;Node12 -->
<g id="edge31_Node000016_Node000012" class="edge">
<title>Node16&#45;&gt;Node12</title>
<g id="a_edge31_Node000016_Node000012"><a xlink:title=" ">
<path fill="none" stroke="#63b8ff" d="M1161.88,-82C1152.2,-82 1142.38,-82 1132.73,-82"/>
<polygon fill="#63b8ff" stroke="#63b8ff" points="1161.65,-85.5 1171.65,-82 1161.65,-78.5 1161.65,-85.5"/>
</a>
</g>
</g>
<!-- Node17 -->
<g id="Node000017" class="node">
<title>Node17</title>
<g id="a_Node000017"><a xlink:href="classediteurpanovisu_1_1EditeurPanovisu.html#a924d3ccff3e4f402d2309cd2eade3237" target="_top" xlink:title=" ">
<polygon fill="white" stroke="#666666" points="905.5,-73 683.25,-73 683.25,-41 905.5,-41 905.5,-73"/>
<text xml:space="preserve" text-anchor="start" x="691.25" y="-59.5" font-family="Helvetica,sans-Serif" font-size="10.00">editeurpanovisu.EditeurPanovisu.panoramiques</text>
<text xml:space="preserve" text-anchor="middle" x="794.38" y="-47.5" font-family="Helvetica,sans-Serif" font-size="10.00">Ajouter</text>
</a>
</g>
</g>
<!-- Node16&#45;&gt;Node17 -->
<g id="edge29_Node000016_Node000017" class="edge">
<title>Node16&#45;&gt;Node17</title>
<g id="a_edge29_Node000016_Node000017"><a xlink:title=" ">
<path fill="none" stroke="#63b8ff" d="M1177.43,-63.43C1162.47,-60.75 1146.95,-58.42 1132.25,-57 1056.86,-49.69 971.54,-49.78 905.63,-51.65"/>
<polygon fill="#63b8ff" stroke="#63b8ff" points="1176.78,-66.86 1187.25,-65.25 1178.06,-59.98 1176.78,-66.86"/>
</a>
</g>
</g>
<!-- Node17&#45;&gt;Node5 -->
<g id="edge30_Node000017_Node000005" class="edge">
<title>Node17&#45;&gt;Node5</title>
<g id="a_edge30_Node000017_Node000005"><a xlink:title=" ">
<path fill="none" stroke="#63b8ff" d="M671.34,-52.39C604.61,-54.61 522.37,-65.37 456.5,-99 392.16,-131.85 342.21,-207.69 325.45,-235.52"/>
<polygon fill="#63b8ff" stroke="#63b8ff" points="671.35,-55.89 681.25,-52.13 671.16,-48.9 671.35,-55.89"/>
</a>
</g>
</g>
<!-- Node18&#45;&gt;Node6 -->
<g id="edge33_Node000018_Node000006" class="edge">
<title>Node18&#45;&gt;Node6</title>
<g id="a_edge33_Node000018_Node000006"><a xlink:title=" ">
<path fill="none" stroke="#63b8ff" d="M1823.58,-18.53C1734.43,-10.22 1601.05,0 1484.62,0 1484.62,0 1484.62,0 550.88,0 387.9,0 203.13,-73.02 126.9,-106.54"/>
<polygon fill="#63b8ff" stroke="#63b8ff" points="1822.98,-21.99 1833.26,-19.44 1823.64,-15.02 1822.98,-21.99"/>
</a>
</g>
</g>
</g>
</svg>

<g id="navigator" transform="translate(0 0)" fill="#404254">
  <rect fill="#f2f5e9" fill-opacity="0.5" stroke="#606060" stroke-width=".5" x="0" y="0" width="60" height="60"/>
  <use id="zoomplus" xlink:href="#zoomPlus" x="17" y="9" onmousedown="handleZoom(evt,'in')"/>
  <use id="zoomminus" xlink:href="#zoomMin" x="42" y="9" onmousedown="handleZoom(evt,'out')"/>
  <use id="reset" xlink:href="#resetDef" x="30" y="36" onmousedown="handleReset()"/>
   <use id="arrowup" xlink:href="#arrowUp" x="0" y="0" onmousedown="handlePan(0,-1)"/>
  <use id="arrowright" xlink:href="#arrowRight" x="0" y="0" onmousedown="handlePan(1,0)"/>
  <use id="arrowdown" xlink:href="#arrowDown" x="0" y="0" onmousedown="handlePan(0,1)"/>
  <use id="arrowleft" xlink:href="#arrowLeft" x="0" y="0" onmousedown="handlePan(-1,0)"/>
</g>
<svg viewBox="0 0 15 15" width="100%" height="30px" preserveAspectRatio="xMaxYMin meet">
 <g id="arrow_out" transform="scale(0.3 0.3)">
  <a xlink:href="classediteurpanovisu_1_1Panoramique_ae23d348100814df26fa15cef306661f7_icgraph_org.svg" target="_base">
   <rect id="button" ry="5" rx="5" y="6" x="6" height="38" width="38"
        fill="#f2f5e9" fill-opacity="0.5" stroke="#606060" stroke-width="1.0"/>
   <path id="arrow"
     d="M 11.500037,31.436501 C 11.940474,20.09759 22.043105,11.32322 32.158766,21.979434 L 37.068811,17.246167 C 37.068811,17.246167 37.088388,32 37.088388,32 L 22.160133,31.978069 C 22.160133,31.978069 26.997745,27.140456 26.997745,27.140456 C 18.528582,18.264221 13.291696,25.230495 11.500037,31.436501 z"
     style="fill:#404040;"/>
  </a>
 </g>
</svg>

<style type='text/css'>
<![CDATA[
[data-mouse-over-selected='false'] { opacity: 0.7; }
[data-mouse-over-selected='true']  { opacity: 1.0; }
]]>
</style>
<script type="application/ecmascript"><![CDATA[
document.addEventListener('DOMContentLoaded', (event) => {
  highlightEdges();
  highlightAdjacentNodes();
});
]]></script>
</svg>
