<?xml version="1.0" encoding="UTF-8" standalone="no"?>
<!DOCTYPE svg PUBLIC "-//W3C//DTD SVG 1.1//EN"
 "http://www.w3.org/Graphics/SVG/1.1/DTD/svg11.dtd">
<!-- Generated by graphviz version 13.1.2 (20250808.2320)
 -->
<!-- Title: editeurpanovisu.GestionnaireInterfaceController.changeCouleurHSPhoto Pages: 1 -->
<svg width="3002pt" height="494pt"
 viewBox="0.00 0.00 3002.00 494.00" xmlns="http://www.w3.org/2000/svg" xmlns:xlink="http://www.w3.org/1999/xlink">
<g id="graph0" class="graph" transform="scale(1 1) rotate(0) translate(4 489.82)">
<title>editeurpanovisu.GestionnaireInterfaceController.changeCouleurHSPhoto</title>
<!-- Node1 -->
<g id="Node000001" class="node">
<title>Node1</title>
<g id="a_Node000001"><a xlink:title=" ">
<polygon fill="#999999" stroke="#666666" points="2993.75,-440 2829.25,-440 2829.25,-396 2993.75,-396 2993.75,-440"/>
<text xml:space="preserve" text-anchor="start" x="2837.25" y="-426.5" font-family="Helvetica,sans-Serif" font-size="10.00">editeurpanovisu.Gestionnaire</text>
<text xml:space="preserve" text-anchor="start" x="2837.25" y="-414.5" font-family="Helvetica,sans-Serif" font-size="10.00">InterfaceController.changeCouleur</text>
<text xml:space="preserve" text-anchor="middle" x="2911.5" y="-402.5" font-family="Helvetica,sans-Serif" font-size="10.00">HSPhoto</text>
</a>
</g>
</g>
<!-- Node2 -->
<g id="Node000002" class="node">
<title>Node2</title>
<g id="a_Node000002"><a xlink:href="classediteurpanovisu_1_1GestionnaireInterfaceController.html#af7f1e67219c75f044a231abc76bcf790" target="_top" xlink:title=" ">
<polygon fill="white" stroke="#666666" points="2605.5,-340 2454.5,-340 2454.5,-296 2605.5,-296 2605.5,-340"/>
<text xml:space="preserve" text-anchor="start" x="2462.5" y="-326.5" font-family="Helvetica,sans-Serif" font-size="10.00">editeurpanovisu.Gestionnaire</text>
<text xml:space="preserve" text-anchor="start" x="2462.5" y="-314.5" font-family="Helvetica,sans-Serif" font-size="10.00">InterfaceController.afficheBarre</text>
<text xml:space="preserve" text-anchor="middle" x="2530" y="-302.5" font-family="Helvetica,sans-Serif" font-size="10.00">Classique</text>
</a>
</g>
</g>
<!-- Node1&#45;&gt;Node2 -->
<g id="edge1_Node000001_Node000002" class="edge">
<title>Node1&#45;&gt;Node2</title>
<g id="a_edge1_Node000001_Node000002"><a xlink:title=" ">
<path fill="none" stroke="#63b8ff" d="M2828.85,-392.26C2816.94,-388.7 2804.8,-385.18 2793.25,-382 2730.44,-364.71 2658.53,-347.33 2605.91,-335.05"/>
<polygon fill="#63b8ff" stroke="#63b8ff" points="2827.67,-395.56 2838.25,-395.1 2829.69,-388.86 2827.67,-395.56"/>
</a>
</g>
</g>
<!-- Node4 -->
<g id="Node000004" class="node">
<title>Node4</title>
<g id="a_Node000004"><a xlink:href="classediteurpanovisu_1_1GestionnaireInterfaceController.html#a55c8afda208674955a13d48d02be41b8" target="_top" xlink:title=" ">
<polygon fill="white" stroke="#666666" points="2213.5,-284 2046,-284 2046,-252 2213.5,-252 2213.5,-284"/>
<text xml:space="preserve" text-anchor="start" x="2054" y="-270.5" font-family="Helvetica,sans-Serif" font-size="10.00">editeurpanovisu.Gestionnaire</text>
<text xml:space="preserve" text-anchor="middle" x="2129.75" y="-258.5" font-family="Helvetica,sans-Serif" font-size="10.00">InterfaceController.afficheTemplate</text>
</a>
</g>
</g>
<!-- Node1&#45;&gt;Node4 -->
<g id="edge42_Node000001_Node000004" class="edge">
<title>Node1&#45;&gt;Node4</title>
<g id="a_edge42_Node000001_Node000004"><a xlink:title=" ">
<path fill="none" stroke="#63b8ff" d="M2817.39,-411.62C2646.87,-399.33 2297.45,-371.09 2249.5,-343 2225.87,-329.16 2235.79,-308.91 2213.5,-293 2208.98,-289.77 2204.04,-286.96 2198.89,-284.5"/>
<polygon fill="#63b8ff" stroke="#63b8ff" points="2817.13,-415.11 2827.35,-412.34 2817.63,-408.13 2817.13,-415.11"/>
</a>
</g>
</g>
<!-- Node20 -->
<g id="Node000020" class="node">
<title>Node20</title>
<g id="a_Node000020"><a xlink:href="classediteurpanovisu_1_1GestionnaireInterfaceController.html#ac7fa988dc99d8684686127a2269cd66e" target="_top" xlink:title=" ">
<polygon fill="white" stroke="#666666" points="2000.62,-416 1844.38,-416 1844.38,-384 2000.62,-384 2000.62,-416"/>
<text xml:space="preserve" text-anchor="start" x="1852.38" y="-402.5" font-family="Helvetica,sans-Serif" font-size="10.00">editeurpanovisu.Gestionnaire</text>
<text xml:space="preserve" text-anchor="middle" x="1922.5" y="-390.5" font-family="Helvetica,sans-Serif" font-size="10.00">InterfaceController.creeInterface</text>
</a>
</g>
</g>
<!-- Node1&#45;&gt;Node20 -->
<g id="edge46_Node000001_Node000020" class="edge">
<title>Node1&#45;&gt;Node20</title>
<g id="a_edge46_Node000001_Node000020"><a xlink:title=" ">
<path fill="none" stroke="#63b8ff" d="M2853.74,-444.85C2834.89,-452.65 2813.53,-460.32 2793.25,-465 2679.38,-491.28 2647.86,-484 2531,-484 2531,-484 2531,-484 2333,-484 2200.01,-484 2047.59,-440.96 1971.69,-416.5"/>
<polygon fill="#63b8ff" stroke="#63b8ff" points="2854.99,-448.12 2862.83,-440.99 2852.26,-441.68 2854.99,-448.12"/>
</a>
</g>
</g>
<!-- Node24 -->
<g id="Node000024" class="node">
<title>Node24</title>
<g id="a_Node000024"><a xlink:href="classediteurpanovisu_1_1GestionnaireInterfaceController.html#a8d8afa284f09872cc933fb2c9caa9059" target="_top" xlink:title=" ">
<polygon fill="white" stroke="#666666" points="2793.25,-456 2641.5,-456 2641.5,-424 2793.25,-424 2793.25,-456"/>
<text xml:space="preserve" text-anchor="start" x="2649.5" y="-442.5" font-family="Helvetica,sans-Serif" font-size="10.00">editeurpanovisu.Gestionnaire</text>
<text xml:space="preserve" text-anchor="middle" x="2717.38" y="-430.5" font-family="Helvetica,sans-Serif" font-size="10.00">InterfaceController.chargeBarre</text>
</a>
</g>
</g>
<!-- Node1&#45;&gt;Node24 -->
<g id="edge43_Node000001_Node000024" class="edge">
<title>Node1&#45;&gt;Node24</title>
<g id="a_edge43_Node000001_Node000024"><a xlink:title=" ">
<path fill="none" stroke="#63b8ff" d="M2817.65,-428.63C2809.58,-429.56 2801.47,-430.48 2793.57,-431.39"/>
<polygon fill="#63b8ff" stroke="#63b8ff" points="2817.98,-432.12 2827.52,-427.5 2817.18,-425.16 2817.98,-432.12"/>
</a>
</g>
</g>
<!-- Node3 -->
<g id="Node000003" class="node">
<title>Node3</title>
<g id="a_Node000003"><a xlink:href="classediteurpanovisu_1_1GestionnaireInterfaceController.html#a7c5cff6934d95be9a4babb6426a5ac26" target="_top" xlink:title=" ">
<polygon fill="white" stroke="#666666" points="2414,-246 2254,-246 2254,-202 2414,-202 2414,-246"/>
<text xml:space="preserve" text-anchor="start" x="2262" y="-232.5" font-family="Helvetica,sans-Serif" font-size="10.00">editeurpanovisu.Gestionnaire</text>
<text xml:space="preserve" text-anchor="start" x="2262" y="-220.5" font-family="Helvetica,sans-Serif" font-size="10.00">InterfaceController.afficheImages</text>
<text xml:space="preserve" text-anchor="middle" x="2334" y="-208.5" font-family="Helvetica,sans-Serif" font-size="10.00">FondInterface</text>
</a>
</g>
</g>
<!-- Node2&#45;&gt;Node3 -->
<g id="edge2_Node000002_Node000003" class="edge">
<title>Node2&#45;&gt;Node3</title>
<g id="a_edge2_Node000002_Node000003"><a xlink:title=" ">
<path fill="none" stroke="#63b8ff" d="M2478.15,-290.27C2459.54,-280.4 2438.22,-269.41 2418.5,-260 2408.95,-255.45 2398.69,-250.81 2388.73,-246.45"/>
<polygon fill="#63b8ff" stroke="#63b8ff" points="2476.38,-293.29 2486.85,-294.91 2479.67,-287.12 2476.38,-293.29"/>
</a>
</g>
</g>
<!-- Node2&#45;&gt;Node4 -->
<g id="edge3_Node000002_Node000004" class="edge">
<title>Node2&#45;&gt;Node4</title>
<g id="a_edge3_Node000002_Node000004"><a xlink:title=" ">
<path fill="none" stroke="#63b8ff" d="M2442.9,-297.33C2434.68,-295.72 2426.45,-294.24 2418.5,-293 2350,-282.33 2271.57,-275.89 2213.9,-272.23"/>
<polygon fill="#63b8ff" stroke="#63b8ff" points="2442.09,-300.74 2452.59,-299.31 2443.49,-293.88 2442.09,-300.74"/>
</a>
</g>
</g>
<!-- Node18 -->
<g id="Node000018" class="node">
<title>Node18</title>
<g id="a_Node000018"><a xlink:href="classediteurpanovisu_1_1GestionnaireInterfaceController.html#a5bdd1505c1ad1eee506c2618c9368994" target="_top" xlink:title=" ">
<polygon fill="white" stroke="#666666" points="2418.5,-334 2249.5,-334 2249.5,-302 2418.5,-302 2418.5,-334"/>
<text xml:space="preserve" text-anchor="start" x="2257.5" y="-320.5" font-family="Helvetica,sans-Serif" font-size="10.00">editeurpanovisu.Gestionnaire</text>
<text xml:space="preserve" text-anchor="middle" x="2334" y="-308.5" font-family="Helvetica,sans-Serif" font-size="10.00">InterfaceController.afficheVignettes</text>
</a>
</g>
</g>
<!-- Node2&#45;&gt;Node18 -->
<g id="edge29_Node000002_Node000018" class="edge">
<title>Node2&#45;&gt;Node18</title>
<g id="a_edge29_Node000002_Node000018"><a xlink:title=" ">
<path fill="none" stroke="#63b8ff" d="M2442.98,-318C2434.92,-318 2426.77,-318 2418.73,-318"/>
<polygon fill="#63b8ff" stroke="#63b8ff" points="2442.76,-321.5 2452.76,-318 2442.76,-314.5 2442.76,-321.5"/>
</a>
</g>
</g>
<!-- Node2&#45;&gt;Node20 -->
<g id="edge40_Node000002_Node000020" class="edge">
<title>Node2&#45;&gt;Node20</title>
<g id="a_edge40_Node000002_Node000020"><a xlink:title=" ">
<path fill="none" stroke="#63b8ff" d="M2443.02,-338.13C2434.75,-339.86 2426.48,-341.52 2418.5,-343 2272.01,-370.25 2098.55,-386.63 2000.73,-394.44"/>
<polygon fill="#63b8ff" stroke="#63b8ff" points="2443.74,-341.56 2452.79,-336.04 2442.28,-334.71 2443.74,-341.56"/>
</a>
</g>
</g>
<!-- Node21 -->
<g id="Node000021" class="node">
<title>Node21</title>
<g id="a_Node000021"><a xlink:href="classediteurpanovisu_1_1GestionnaireInterfaceController.html#a568c34e865fb653f63b8fa7a9a9cafc8" target="_top" xlink:title=" ">
<polygon fill="white" stroke="#666666" points="2200.75,-212 2058.75,-212 2058.75,-180 2200.75,-180 2200.75,-212"/>
<text xml:space="preserve" text-anchor="start" x="2066.75" y="-198.5" font-family="Helvetica,sans-Serif" font-size="10.00">editeurpanovisu.Gestionnaire</text>
<text xml:space="preserve" text-anchor="middle" x="2129.75" y="-186.5" font-family="Helvetica,sans-Serif" font-size="10.00">InterfaceController.rafraichit</text>
</a>
</g>
</g>
<!-- Node2&#45;&gt;Node21 -->
<g id="edge41_Node000002_Node000021" class="edge">
<title>Node2&#45;&gt;Node21</title>
<g id="a_edge41_Node000002_Node000021"><a xlink:title=" ">
<path fill="none" stroke="#63b8ff" d="M2511.52,-285.93C2492.95,-255.57 2460.49,-211.93 2418.5,-193 2349.15,-161.75 2260.52,-168.73 2200.06,-179.52"/>
<polygon fill="#63b8ff" stroke="#63b8ff" points="2508.4,-287.53 2516.51,-294.35 2514.43,-283.96 2508.4,-287.53"/>
</a>
</g>
</g>
<!-- Node5 -->
<g id="Node000005" class="node">
<title>Node5</title>
<g id="a_Node000005"><a xlink:href="classediteurpanovisu_1_1EditeurPanovisu.html#a87b29dc258cfc67370b1f27809e91b8e" target="_top" xlink:title=" ">
<polygon fill="white" stroke="#666666" points="2010,-284 1835,-284 1835,-252 2010,-252 2010,-284"/>
<text xml:space="preserve" text-anchor="start" x="1843" y="-270.5" font-family="Helvetica,sans-Serif" font-size="10.00">editeurpanovisu.EditeurPanovisu.tsk</text>
<text xml:space="preserve" text-anchor="middle" x="1922.5" y="-258.5" font-family="Helvetica,sans-Serif" font-size="10.00">AnalyseFichierPVU</text>
</a>
</g>
</g>
<!-- Node4&#45;&gt;Node5 -->
<g id="edge4_Node000004_Node000005" class="edge">
<title>Node4&#45;&gt;Node5</title>
<g id="a_edge4_Node000004_Node000005"><a xlink:title=" ">
<path fill="none" stroke="#63b8ff" d="M2034.1,-268C2026.23,-268 2018.29,-268 2010.48,-268"/>
<polygon fill="#63b8ff" stroke="#63b8ff" points="2034.05,-271.5 2044.05,-268 2034.05,-264.5 2034.05,-271.5"/>
</a>
</g>
</g>
<!-- Node6 -->
<g id="Node000006" class="node">
<title>Node6</title>
<g id="a_Node000006"><a xlink:href="classediteurpanovisu_1_1EditeurPanovisu.html#ab4beb1597b660a4a253befc6e76f1c54" target="_top" xlink:title=" ">
<polygon fill="white" stroke="#666666" points="1129.62,-372 944.12,-372 944.12,-340 1129.62,-340 1129.62,-372"/>
<text xml:space="preserve" text-anchor="start" x="952.12" y="-358.5" font-family="Helvetica,sans-Serif" font-size="10.00">editeurpanovisu.EditeurPanovisu.projet</text>
<text xml:space="preserve" text-anchor="middle" x="1036.88" y="-346.5" font-family="Helvetica,sans-Serif" font-size="10.00">Charge</text>
</a>
</g>
</g>
<!-- Node5&#45;&gt;Node6 -->
<g id="edge5_Node000005_Node000006" class="edge">
<title>Node5&#45;&gt;Node6</title>
<g id="a_edge5_Node000005_Node000006"><a xlink:title=" ">
<path fill="none" stroke="#63b8ff" d="M1835.7,-286.67C1823.42,-289 1810.91,-291.2 1799,-293 1559.25,-329.27 1273.63,-345.87 1130.02,-352.39"/>
<polygon fill="#63b8ff" stroke="#63b8ff" points="1836.26,-290.12 1845.41,-284.78 1834.92,-283.25 1836.26,-290.12"/>
</a>
</g>
</g>
<!-- Node9 -->
<g id="Node000009" class="node">
<title>Node9</title>
<g id="a_Node000009"><a xlink:href="classediteurpanovisu_1_1EditeurPanovisu.html#a6d19b4d885ee6fcec827b91956295732" target="_top" xlink:title=" ">
<polygon fill="white" stroke="#666666" points="1799,-284 1613.5,-284 1613.5,-252 1799,-252 1799,-284"/>
<text xml:space="preserve" text-anchor="start" x="1621.5" y="-270.5" font-family="Helvetica,sans-Serif" font-size="10.00">editeurpanovisu.EditeurPanovisu.projet</text>
<text xml:space="preserve" text-anchor="middle" x="1706.25" y="-258.5" font-family="Helvetica,sans-Serif" font-size="10.00">ChargeNom</text>
</a>
</g>
</g>
<!-- Node5&#45;&gt;Node9 -->
<g id="edge8_Node000005_Node000009" class="edge">
<title>Node5&#45;&gt;Node9</title>
<g id="a_edge8_Node000005_Node000009"><a xlink:title=" ">
<path fill="none" stroke="#63b8ff" d="M1823.16,-268C1815.26,-268 1807.3,-268 1799.45,-268"/>
<polygon fill="#63b8ff" stroke="#63b8ff" points="1823.15,-271.5 1833.15,-268 1823.15,-264.5 1823.15,-271.5"/>
</a>
</g>
</g>
<!-- Node7 -->
<g id="Node000007" class="node">
<title>Node7</title>
<g id="a_Node000007"><a xlink:href="classediteurpanovisu_1_1EditeurPanovisu.html#ac912b80c1f2ac97def60ff005c5c480b" target="_top" xlink:title=" ">
<polygon fill="white" stroke="#666666" points="420.5,-180 216.25,-180 216.25,-160 420.5,-160 420.5,-180"/>
<text xml:space="preserve" text-anchor="middle" x="318.38" y="-166.5" font-family="Helvetica,sans-Serif" font-size="10.00">editeurpanovisu.EditeurPanovisu.creeMenu</text>
</a>
</g>
</g>
<!-- Node6&#45;&gt;Node7 -->
<g id="edge6_Node000006_Node000007" class="edge">
<title>Node6&#45;&gt;Node7</title>
<g id="a_edge6_Node000006_Node000007"><a xlink:title=" ">
<path fill="none" stroke="#63b8ff" d="M932.46,-365.97C812.35,-373.19 610.96,-371.58 456.5,-301 395.11,-272.95 344.11,-205.82 326.22,-180.19"/>
<polygon fill="#63b8ff" stroke="#63b8ff" points="932.55,-369.47 942.31,-365.34 932.11,-362.48 932.55,-369.47"/>
</a>
</g>
</g>
<!-- Node8 -->
<g id="Node000008" class="node">
<title>Node8</title>
<g id="a_Node000008"><a xlink:href="classediteurpanovisu_1_1EditeurPanovisu.html#a86c393eee88f54c694db994ddd85b90d" target="_top" xlink:title=" ">
<polygon fill="white" stroke="#666666" points="180.25,-186 0,-186 0,-154 180.25,-154 180.25,-186"/>
<text xml:space="preserve" text-anchor="start" x="8" y="-172.5" font-family="Helvetica,sans-Serif" font-size="10.00">editeurpanovisu.EditeurPanovisu.cree</text>
<text xml:space="preserve" text-anchor="middle" x="90.12" y="-160.5" font-family="Helvetica,sans-Serif" font-size="10.00">Environnement</text>
</a>
</g>
</g>
<!-- Node7&#45;&gt;Node8 -->
<g id="edge7_Node000007_Node000008" class="edge">
<title>Node7&#45;&gt;Node8</title>
<g id="a_edge7_Node000007_Node000008"><a xlink:title=" ">
<path fill="none" stroke="#63b8ff" d="M204.51,-170C196.49,-170 188.46,-170 180.6,-170"/>
<polygon fill="#63b8ff" stroke="#63b8ff" points="204.32,-173.5 214.32,-170 204.32,-166.5 204.32,-173.5"/>
</a>
</g>
</g>
<!-- Node9&#45;&gt;Node7 -->
<g id="edge28_Node000009_Node000007" class="edge">
<title>Node9&#45;&gt;Node7</title>
<g id="a_edge28_Node000009_Node000007"><a xlink:title=" ">
<path fill="none" stroke="#63b8ff" d="M1677.8,-244.53C1611.25,-190.12 1434.11,-60 1262,-60 1262,-60 1262,-60 793.38,-60 642.01,-60 601.97,-68.18 456.5,-110 412.79,-122.56 364.76,-145.99 338.75,-159.55"/>
<polygon fill="#63b8ff" stroke="#63b8ff" points="1675.34,-247.03 1685.27,-250.71 1679.8,-241.64 1675.34,-247.03"/>
</a>
</g>
</g>
<!-- Node10 -->
<g id="Node000010" class="node">
<title>Node10</title>
<g id="a_Node000010"><a xlink:href="classediteurpanovisu_1_1EditeurPanovisu.html#af0d1c32bb78acbff561c822a0d15f760" target="_top" xlink:title=" ">
<polygon fill="white" stroke="#666666" points="1577.5,-306 1389.75,-306 1389.75,-274 1577.5,-274 1577.5,-306"/>
<text xml:space="preserve" text-anchor="start" x="1397.75" y="-292.5" font-family="Helvetica,sans-Serif" font-size="10.00">editeurpanovisu.EditeurPanovisu.ajoute</text>
<text xml:space="preserve" text-anchor="middle" x="1483.62" y="-280.5" font-family="Helvetica,sans-Serif" font-size="10.00">FichierHisto</text>
</a>
</g>
</g>
<!-- Node9&#45;&gt;Node10 -->
<g id="edge9_Node000009_Node000010" class="edge">
<title>Node9&#45;&gt;Node10</title>
<g id="a_edge9_Node000009_Node000010"><a xlink:title=" ">
<path fill="none" stroke="#63b8ff" d="M1601.97,-271.56C1593.92,-272.34 1585.83,-273.16 1577.86,-274.02"/>
<polygon fill="#63b8ff" stroke="#63b8ff" points="1602.14,-275.06 1611.78,-270.65 1601.49,-268.09 1602.14,-275.06"/>
</a>
</g>
</g>
<!-- Node10&#45;&gt;Node6 -->
<g id="edge10_Node000010_Node000006" class="edge">
<title>Node10&#45;&gt;Node6</title>
<g id="a_edge10_Node000010_Node000006"><a xlink:title=" ">
<path fill="none" stroke="#63b8ff" d="M1378.46,-305.46C1303.11,-316.64 1202.22,-331.61 1129.84,-342.35"/>
<polygon fill="#63b8ff" stroke="#63b8ff" points="1378.52,-308.99 1387.89,-304.06 1377.49,-302.06 1378.52,-308.99"/>
</a>
</g>
</g>
<!-- Node10&#45;&gt;Node9 -->
<g id="edge11_Node000010_Node000009" class="edge">
<title>Node10&#45;&gt;Node9</title>
<g id="a_edge11_Node000010_Node000009"><a xlink:title=" ">
<path fill="none" stroke="#63b8ff" d="M1589.19,-286.31C1597.24,-285.54 1605.33,-284.7 1613.28,-283.84"/>
<polygon fill="#63b8ff" stroke="#63b8ff" points="1589,-282.82 1579.37,-287.24 1589.65,-289.79 1589,-282.82"/>
</a>
</g>
</g>
<!-- Node11 -->
<g id="Node000011" class="node">
<title>Node11</title>
<g id="a_Node000011"><a xlink:href="classediteurpanovisu_1_1EditeurPanovisu.html#a9f3ea25b35d4884524508dab3dc4fd6a" target="_top" xlink:title=" ">
<polygon fill="white" stroke="#666666" points="1353.75,-262 1168.25,-262 1168.25,-230 1353.75,-230 1353.75,-262"/>
<text xml:space="preserve" text-anchor="start" x="1176.25" y="-248.5" font-family="Helvetica,sans-Serif" font-size="10.00">editeurpanovisu.EditeurPanovisu.projet</text>
<text xml:space="preserve" text-anchor="middle" x="1261" y="-236.5" font-family="Helvetica,sans-Serif" font-size="10.00">Sauve</text>
</a>
</g>
</g>
<!-- Node10&#45;&gt;Node11 -->
<g id="edge12_Node000010_Node000011" class="edge">
<title>Node10&#45;&gt;Node11</title>
<g id="a_edge12_Node000010_Node000011"><a xlink:title=" ">
<path fill="none" stroke="#63b8ff" d="M1389.01,-271.33C1374.29,-268.4 1359.18,-265.38 1344.73,-262.5"/>
<polygon fill="#63b8ff" stroke="#63b8ff" points="1388.18,-274.73 1398.67,-273.26 1389.55,-267.87 1388.18,-274.73"/>
</a>
</g>
</g>
<!-- Node17 -->
<g id="Node000017" class="node">
<title>Node17</title>
<g id="a_Node000017"><a xlink:href="classediteurpanovisu_1_1EditeurPanovisu.html#a7b2e25dc717eb52b62e23d54ec4c124a" target="_top" xlink:title=" ">
<polygon fill="white" stroke="#666666" points="887.12,-414 701.62,-414 701.62,-382 887.12,-382 887.12,-414"/>
<text xml:space="preserve" text-anchor="start" x="709.62" y="-400.5" font-family="Helvetica,sans-Serif" font-size="10.00">editeurpanovisu.EditeurPanovisu.projet</text>
<text xml:space="preserve" text-anchor="middle" x="794.38" y="-388.5" font-family="Helvetica,sans-Serif" font-size="10.00">SauveSous</text>
</a>
</g>
</g>
<!-- Node10&#45;&gt;Node17 -->
<g id="edge26_Node000010_Node000017" class="edge">
<title>Node10&#45;&gt;Node17</title>
<g id="a_edge26_Node000010_Node000017"><a xlink:title=" ">
<path fill="none" stroke="#63b8ff" d="M1432.08,-310.48C1408.54,-319.48 1380,-329.65 1353.75,-337 1257.1,-364.05 1231.86,-368.66 1132.25,-381 1049.87,-391.21 955.44,-395.32 887.55,-396.96"/>
<polygon fill="#63b8ff" stroke="#63b8ff" points="1433.04,-313.86 1441.1,-306.98 1430.51,-307.33 1433.04,-313.86"/>
</a>
</g>
</g>
<!-- Node11&#45;&gt;Node6 -->
<g id="edge16_Node000011_Node000006" class="edge">
<title>Node11&#45;&gt;Node6</title>
<g id="a_edge16_Node000011_Node000006"><a xlink:title=" ">
<path fill="none" stroke="#63b8ff" d="M1228.54,-268.85C1203.43,-286.29 1166.84,-309.98 1132.25,-326 1121.33,-331.06 1109.32,-335.59 1097.65,-339.51"/>
<polygon fill="#63b8ff" stroke="#63b8ff" points="1230.5,-271.75 1236.66,-263.13 1226.47,-266.02 1230.5,-271.75"/>
</a>
</g>
</g>
<!-- Node11&#45;&gt;Node7 -->
<g id="edge13_Node000011_Node000007" class="edge">
<title>Node11&#45;&gt;Node7</title>
<g id="a_edge13_Node000011_Node000007"><a xlink:title=" ">
<path fill="none" stroke="#63b8ff" d="M1222.64,-224.11C1197.86,-210.71 1164.15,-194.53 1132.25,-186 869.76,-115.79 542.4,-142.12 396.15,-159.51"/>
<polygon fill="#63b8ff" stroke="#63b8ff" points="1220.91,-227.16 1231.36,-228.93 1224.29,-221.03 1220.91,-227.16"/>
</a>
</g>
</g>
<!-- Node11&#45;&gt;Node9 -->
<g id="edge17_Node000011_Node000009" class="edge">
<title>Node11&#45;&gt;Node9</title>
<g id="a_edge17_Node000011_Node000009"><a xlink:title=" ">
<path fill="none" stroke="#63b8ff" d="M1365.33,-251.13C1440.33,-254.85 1540.88,-259.84 1613.14,-263.43"/>
<polygon fill="#63b8ff" stroke="#63b8ff" points="1365.67,-247.64 1355.5,-250.64 1365.32,-254.63 1365.67,-247.64"/>
</a>
</g>
</g>
<!-- Node12 -->
<g id="Node000012" class="node">
<title>Node12</title>
<g id="a_Node000012"><a xlink:href="classediteurpanovisu_1_1EditeurPanovisu.html#a94e36b9e9d09ab1a4c852b8a8cefa927" target="_top" xlink:title=" ">
<polygon fill="white" stroke="#666666" points="647.25,-208 456.5,-208 456.5,-176 647.25,-176 647.25,-208"/>
<text xml:space="preserve" text-anchor="start" x="464.5" y="-194.5" font-family="Helvetica,sans-Serif" font-size="10.00">editeurpanovisu.EditeurPanovisu.genere</text>
<text xml:space="preserve" text-anchor="middle" x="551.88" y="-182.5" font-family="Helvetica,sans-Serif" font-size="10.00">Visite</text>
</a>
</g>
</g>
<!-- Node11&#45;&gt;Node12 -->
<g id="edge14_Node000011_Node000012" class="edge">
<title>Node11&#45;&gt;Node12</title>
<g id="a_edge14_Node000011_Node000012"><a xlink:title=" ">
<path fill="none" stroke="#63b8ff" d="M1156.51,-239.53C1041.03,-232.11 848.65,-219.12 683.25,-205 671.69,-204.01 659.56,-202.9 647.55,-201.76"/>
<polygon fill="#63b8ff" stroke="#63b8ff" points="1156.08,-243.01 1166.28,-240.16 1156.52,-236.03 1156.08,-243.01"/>
</a>
</g>
</g>
<!-- Node13 -->
<g id="Node000013" class="node">
<title>Node13</title>
<g id="a_Node000013"><a xlink:href="classediteurpanovisu_1_1EditeurPanovisu.html#a9b46b222714af12c06ec33d410400773" target="_top" xlink:title=" ">
<polygon fill="white" stroke="#666666" points="647.25,-292 456.5,-292 456.5,-260 647.25,-260 647.25,-292"/>
<text xml:space="preserve" text-anchor="start" x="464.5" y="-278.5" font-family="Helvetica,sans-Serif" font-size="10.00">editeurpanovisu.EditeurPanovisu.projets</text>
<text xml:space="preserve" text-anchor="middle" x="551.88" y="-266.5" font-family="Helvetica,sans-Serif" font-size="10.00">Fermer</text>
</a>
</g>
</g>
<!-- Node11&#45;&gt;Node13 -->
<g id="edge18_Node000011_Node000013" class="edge">
<title>Node11&#45;&gt;Node13</title>
<g id="a_edge18_Node000011_Node000013"><a xlink:title=" ">
<path fill="none" stroke="#63b8ff" d="M1215.13,-266.93C1191.11,-276.98 1160.7,-287.93 1132.25,-293 963.58,-323.04 763.01,-305.61 647.57,-290.56"/>
<polygon fill="#63b8ff" stroke="#63b8ff" points="1216.49,-270.15 1224.29,-262.99 1213.72,-263.72 1216.49,-270.15"/>
</a>
</g>
</g>
<!-- Node14 -->
<g id="Node000014" class="node">
<title>Node14</title>
<g id="a_Node000014"><a xlink:href="classediteurpanovisu_1_1EditeurPanovisu.html#ac9d449399ccd38843fa12e716f0c9611" target="_top" xlink:title=" ">
<polygon fill="white" stroke="#666666" points="1132.25,-120 941.5,-120 941.5,-88 1132.25,-88 1132.25,-120"/>
<text xml:space="preserve" text-anchor="start" x="949.5" y="-106.5" font-family="Helvetica,sans-Serif" font-size="10.00">editeurpanovisu.EditeurPanovisu.projets</text>
<text xml:space="preserve" text-anchor="middle" x="1036.88" y="-94.5" font-family="Helvetica,sans-Serif" font-size="10.00">Nouveau</text>
</a>
</g>
</g>
<!-- Node11&#45;&gt;Node14 -->
<g id="edge20_Node000011_Node000014" class="edge">
<title>Node11&#45;&gt;Node14</title>
<g id="a_edge20_Node000011_Node000014"><a xlink:title=" ">
<path fill="none" stroke="#63b8ff" d="M1237.77,-221.24C1213.92,-196.05 1173.84,-157.47 1132.25,-134 1122.82,-128.68 1112.31,-124.16 1101.83,-120.37"/>
<polygon fill="#63b8ff" stroke="#63b8ff" points="1235.09,-223.51 1244.47,-228.44 1240.22,-218.74 1235.09,-223.51"/>
</a>
</g>
</g>
<!-- Node15 -->
<g id="Node000015" class="node">
<title>Node15</title>
<g id="a_Node000015"><a xlink:href="classediteurpanovisu_1_1EditeurPanovisu.html#a2b3125ffe2e6291efacf19df6cb30a8d" target="_top" xlink:title=" ">
<polygon fill="white" stroke="#666666" points="884.88,-196 703.88,-196 703.88,-176 884.88,-176 884.88,-196"/>
<text xml:space="preserve" text-anchor="middle" x="794.38" y="-182.5" font-family="Helvetica,sans-Serif" font-size="10.00">editeurpanovisu.EditeurPanovisu.start</text>
</a>
</g>
</g>
<!-- Node11&#45;&gt;Node15 -->
<g id="edge25_Node000011_Node000015" class="edge">
<title>Node11&#45;&gt;Node15</title>
<g id="a_edge25_Node000011_Node000015"><a xlink:title=" ">
<path fill="none" stroke="#63b8ff" d="M1199.73,-226.29C1178.6,-220.12 1154.58,-213.9 1132.25,-210 1049.37,-195.52 953.55,-189.74 885.35,-187.44"/>
<polygon fill="#63b8ff" stroke="#63b8ff" points="1198.46,-229.57 1209.04,-229.08 1200.46,-222.86 1198.46,-229.57"/>
</a>
</g>
</g>
<!-- Node16 -->
<g id="Node000016" class="node">
<title>Node16</title>
<g id="a_Node000016"><a xlink:href="classediteurpanovisu_1_1EditeurPanovisu.html#aef8c9b28c3e88d6e27e3f62b9a901134" target="_top" xlink:title=" ">
<polygon fill="white" stroke="#666666" points="1130.75,-284 943,-284 943,-252 1130.75,-252 1130.75,-284"/>
<text xml:space="preserve" text-anchor="start" x="951" y="-270.5" font-family="Helvetica,sans-Serif" font-size="10.00">editeurpanovisu.EditeurPanovisu.sauve</text>
<text xml:space="preserve" text-anchor="middle" x="1036.88" y="-258.5" font-family="Helvetica,sans-Serif" font-size="10.00">Fichiers</text>
</a>
</g>
</g>
<!-- Node11&#45;&gt;Node16 -->
<g id="edge24_Node000011_Node000016" class="edge">
<title>Node11&#45;&gt;Node16</title>
<g id="a_edge24_Node000011_Node000016"><a xlink:title=" ">
<path fill="none" stroke="#63b8ff" d="M1156.85,-256.22C1148.29,-257.06 1139.67,-257.92 1131.19,-258.76"/>
<polygon fill="#63b8ff" stroke="#63b8ff" points="1156.94,-259.72 1166.54,-255.26 1156.25,-252.76 1156.94,-259.72"/>
</a>
</g>
</g>
<!-- Node12&#45;&gt;Node7 -->
<g id="edge15_Node000012_Node000007" class="edge">
<title>Node12&#45;&gt;Node7</title>
<g id="a_edge15_Node000012_Node000007"><a xlink:title=" ">
<path fill="none" stroke="#63b8ff" d="M444.81,-181.92C436.83,-181.16 428.78,-180.4 420.83,-179.64"/>
<polygon fill="#63b8ff" stroke="#63b8ff" points="444.25,-185.38 454.54,-182.85 444.92,-178.41 444.25,-185.38"/>
</a>
</g>
</g>
<!-- Node13&#45;&gt;Node7 -->
<g id="edge19_Node000013_Node000007" class="edge">
<title>Node13&#45;&gt;Node7</title>
<g id="a_edge19_Node000013_Node000007"><a xlink:title=" ">
<path fill="none" stroke="#63b8ff" d="M504.58,-254.8C455.37,-232.27 379.58,-197.57 342.05,-180.38"/>
<polygon fill="#63b8ff" stroke="#63b8ff" points="503.03,-257.94 513.58,-258.92 505.95,-251.58 503.03,-257.94"/>
</a>
</g>
</g>
<!-- Node14&#45;&gt;Node7 -->
<g id="edge21_Node000014_Node000007" class="edge">
<title>Node14&#45;&gt;Node7</title>
<g id="a_edge21_Node000014_Node000007"><a xlink:title=" ">
<path fill="none" stroke="#63b8ff" d="M929.79,-103C813.09,-103.41 620.36,-108.52 456.5,-134 420.02,-139.67 379.21,-151.06 351.67,-159.51"/>
<polygon fill="#63b8ff" stroke="#63b8ff" points="929.68,-106.5 939.67,-102.98 929.67,-99.5 929.68,-106.5"/>
</a>
</g>
</g>
<!-- Node14&#45;&gt;Node15 -->
<g id="edge22_Node000014_Node000015" class="edge">
<title>Node14&#45;&gt;Node15</title>
<g id="a_edge22_Node000014_Node000015"><a xlink:title=" ">
<path fill="none" stroke="#63b8ff" d="M976.7,-124.18C929.05,-140.42 863.98,-162.61 826.14,-175.51"/>
<polygon fill="#63b8ff" stroke="#63b8ff" points="977.73,-127.52 986.06,-120.98 975.47,-120.9 977.73,-127.52"/>
</a>
</g>
</g>
<!-- Node15&#45;&gt;Node12 -->
<g id="edge23_Node000015_Node000012" class="edge">
<title>Node15&#45;&gt;Node12</title>
<g id="a_edge23_Node000015_Node000012"><a xlink:title=" ">
<path fill="none" stroke="#63b8ff" d="M692.23,-188.52C677.4,-188.89 662.18,-189.27 647.49,-189.64"/>
<polygon fill="#63b8ff" stroke="#63b8ff" points="692.06,-192.03 701.97,-188.28 691.88,-185.03 692.06,-192.03"/>
</a>
</g>
</g>
<!-- Node17&#45;&gt;Node7 -->
<g id="edge27_Node000017_Node000007" class="edge">
<title>Node17&#45;&gt;Node7</title>
<g id="a_edge27_Node000017_Node000007"><a xlink:title=" ">
<path fill="none" stroke="#63b8ff" d="M690.18,-410.26C619.75,-413.65 526.84,-407.95 456.5,-367 379.07,-321.92 334.98,-213.61 322.84,-180.07"/>
<polygon fill="#63b8ff" stroke="#63b8ff" points="689.98,-413.78 699.77,-409.73 689.59,-406.79 689.98,-413.78"/>
</a>
</g>
</g>
<!-- Node18&#45;&gt;Node4 -->
<g id="edge30_Node000018_Node000004" class="edge">
<title>Node18&#45;&gt;Node4</title>
<g id="a_edge30_Node000018_Node000004"><a xlink:title=" ">
<path fill="none" stroke="#63b8ff" d="M2255.38,-298.81C2236.22,-294.07 2215.87,-289.04 2197.29,-284.45"/>
<polygon fill="#63b8ff" stroke="#63b8ff" points="2254.48,-302.19 2265.03,-301.2 2256.16,-295.4 2254.48,-302.19"/>
</a>
</g>
</g>
<!-- Node19 -->
<g id="Node000019" class="node">
<title>Node19</title>
<g id="a_Node000019"><a xlink:href="classediteurpanovisu_1_1GestionnaireInterfaceController.html#a8c634f775c31c1a4db22d5ef0659f7e4" target="_top" xlink:title=" ">
<polygon fill="white" stroke="#666666" points="2203.38,-334 2056.12,-334 2056.12,-302 2203.38,-302 2203.38,-334"/>
<text xml:space="preserve" text-anchor="start" x="2064.12" y="-320.5" font-family="Helvetica,sans-Serif" font-size="10.00">editeurpanovisu.Gestionnaire</text>
<text xml:space="preserve" text-anchor="middle" x="2129.75" y="-308.5" font-family="Helvetica,sans-Serif" font-size="10.00">InterfaceController.afficheTitre</text>
</a>
</g>
</g>
<!-- Node18&#45;&gt;Node19 -->
<g id="edge31_Node000018_Node000019" class="edge">
<title>Node18&#45;&gt;Node19</title>
<g id="a_edge31_Node000018_Node000019"><a xlink:title=" ">
<path fill="none" stroke="#63b8ff" d="M2237.87,-318C2226.41,-318 2214.84,-318 2203.76,-318"/>
<polygon fill="#63b8ff" stroke="#63b8ff" points="2237.76,-321.5 2247.76,-318 2237.76,-314.5 2237.76,-321.5"/>
</a>
</g>
</g>
<!-- Node18&#45;&gt;Node20 -->
<g id="edge33_Node000018_Node000020" class="edge">
<title>Node18&#45;&gt;Node20</title>
<g id="a_edge33_Node000018_Node000020"><a xlink:title=" ">
<path fill="none" stroke="#63b8ff" d="M2243.86,-336.77C2233.63,-338.89 2223.34,-341 2213.5,-343 2141.59,-357.59 2059.53,-373.66 2001.1,-385.01"/>
<polygon fill="#63b8ff" stroke="#63b8ff" points="2244.37,-340.24 2253.45,-334.78 2242.94,-333.39 2244.37,-340.24"/>
</a>
</g>
</g>
<!-- Node18&#45;&gt;Node21 -->
<g id="edge34_Node000018_Node000021" class="edge">
<title>Node18&#45;&gt;Node21</title>
<g id="a_edge34_Node000018_Node000021"><a xlink:title=" ">
<path fill="none" stroke="#63b8ff" d="M2297.96,-295.44C2274.27,-280.33 2242.2,-260.15 2213.5,-243 2196.05,-232.58 2176.27,-221.32 2160.42,-212.44"/>
<polygon fill="#63b8ff" stroke="#63b8ff" points="2295.97,-298.33 2306.28,-300.76 2299.74,-292.43 2295.97,-298.33"/>
</a>
</g>
</g>
<!-- Node19&#45;&gt;Node20 -->
<g id="edge32_Node000019_Node000020" class="edge">
<title>Node19&#45;&gt;Node20</title>
<g id="a_edge32_Node000019_Node000020"><a xlink:title=" ">
<path fill="none" stroke="#63b8ff" d="M2071.47,-338.31C2062.9,-341.48 2054.2,-344.78 2046,-348 2017.19,-359.33 1984.97,-373.04 1960.82,-383.55"/>
<polygon fill="#63b8ff" stroke="#63b8ff" points="2072.59,-341.63 2080.77,-334.9 2070.18,-335.06 2072.59,-341.63"/>
</a>
</g>
</g>
<!-- Node21&#45;&gt;Node5 -->
<g id="edge35_Node000021_Node000005" class="edge">
<title>Node21&#45;&gt;Node5</title>
<g id="a_edge35_Node000021_Node000005"><a xlink:title=" ">
<path fill="none" stroke="#63b8ff" d="M2071.43,-216.11C2039.6,-227.27 2000.49,-240.99 1970.48,-251.52"/>
<polygon fill="#63b8ff" stroke="#63b8ff" points="2072.21,-219.54 2080.49,-212.93 2069.9,-212.94 2072.21,-219.54"/>
</a>
</g>
</g>
<!-- Node22 -->
<g id="Node000022" class="node">
<title>Node22</title>
<g id="a_Node000022"><a xlink:href="classediteurpanovisu_1_1EditeurPanovisu.html#a53cccf6a6b2693c872947460b66ae8ee" target="_top" xlink:title=" ">
<polygon fill="white" stroke="#666666" points="1348.5,-32 1173.5,-32 1173.5,0 1348.5,0 1348.5,-32"/>
<text xml:space="preserve" text-anchor="start" x="1181.5" y="-18.5" font-family="Helvetica,sans-Serif" font-size="10.00">editeurpanovisu.EditeurPanovisu.tsk</text>
<text xml:space="preserve" text-anchor="middle" x="1261" y="-6.5" font-family="Helvetica,sans-Serif" font-size="10.00">ChargeListeFichiers</text>
</a>
</g>
</g>
<!-- Node21&#45;&gt;Node22 -->
<g id="edge36_Node000021_Node000022" class="edge">
<title>Node21&#45;&gt;Node22</title>
<g id="a_edge36_Node000021_Node000022"><a xlink:title=" ">
<path fill="none" stroke="#63b8ff" d="M2068.78,-176.05C1968.35,-143.45 1759.25,-79.12 1577.5,-46 1500.91,-32.04 1412.59,-24.35 1348.92,-20.26"/>
<polygon fill="#63b8ff" stroke="#63b8ff" points="2067.58,-179.34 2078.17,-179.11 2069.75,-172.68 2067.58,-179.34"/>
</a>
</g>
</g>
<!-- Node22&#45;&gt;Node14 -->
<g id="edge39_Node000022_Node000014" class="edge">
<title>Node22&#45;&gt;Node14</title>
<g id="a_edge39_Node000022_Node000014"><a xlink:title=" ">
<path fill="none" stroke="#63b8ff" d="M1207.8,-36.68C1168.55,-52.23 1115.51,-73.24 1079.19,-87.63"/>
<polygon fill="#63b8ff" stroke="#63b8ff" points="1209.07,-39.94 1217.07,-33.01 1206.49,-33.44 1209.07,-39.94"/>
</a>
</g>
</g>
<!-- Node23 -->
<g id="Node000023" class="node">
<title>Node23</title>
<g id="a_Node000023"><a xlink:href="classediteurpanovisu_1_1EditeurPanovisu.html#a924d3ccff3e4f402d2309cd2eade3237" target="_top" xlink:title=" ">
<polygon fill="white" stroke="#666666" points="905.5,-32 683.25,-32 683.25,0 905.5,0 905.5,-32"/>
<text xml:space="preserve" text-anchor="start" x="691.25" y="-18.5" font-family="Helvetica,sans-Serif" font-size="10.00">editeurpanovisu.EditeurPanovisu.panoramiques</text>
<text xml:space="preserve" text-anchor="middle" x="794.38" y="-6.5" font-family="Helvetica,sans-Serif" font-size="10.00">Ajouter</text>
</a>
</g>
</g>
<!-- Node22&#45;&gt;Node23 -->
<g id="edge37_Node000022_Node000023" class="edge">
<title>Node22&#45;&gt;Node23</title>
<g id="a_edge37_Node000022_Node000023"><a xlink:title=" ">
<path fill="none" stroke="#63b8ff" d="M1161.83,-16C1086.83,-16 983.44,-16 905.6,-16"/>
<polygon fill="#63b8ff" stroke="#63b8ff" points="1161.64,-19.5 1171.64,-16 1161.64,-12.5 1161.64,-19.5"/>
</a>
</g>
</g>
<!-- Node23&#45;&gt;Node7 -->
<g id="edge38_Node000023_Node000007" class="edge">
<title>Node23&#45;&gt;Node7</title>
<g id="a_edge38_Node000023_Node000007"><a xlink:title=" ">
<path fill="none" stroke="#63b8ff" d="M671.5,-8.44C605.36,-8.8 523.64,-16.66 456.5,-46 396.8,-72.09 345.55,-134.77 326.9,-159.61"/>
<polygon fill="#63b8ff" stroke="#63b8ff" points="671.3,-11.94 681.31,-8.45 671.31,-4.94 671.3,-11.94"/>
</a>
</g>
</g>
<!-- Node24&#45;&gt;Node2 -->
<g id="edge44_Node000024_Node000002" class="edge">
<title>Node24&#45;&gt;Node2</title>
<g id="a_edge44_Node000024_Node000002"><a xlink:title=" ">
<path fill="none" stroke="#63b8ff" d="M2682.02,-417.39C2648.65,-395.43 2598.28,-362.28 2565.02,-340.39"/>
<polygon fill="#63b8ff" stroke="#63b8ff" points="2679.83,-420.14 2690.11,-422.71 2683.68,-414.29 2679.83,-420.14"/>
</a>
</g>
</g>
<!-- Node24&#45;&gt;Node20 -->
<g id="edge45_Node000024_Node000020" class="edge">
<title>Node24&#45;&gt;Node20</title>
<g id="a_edge45_Node000024_Node000020"><a xlink:title=" ">
<path fill="none" stroke="#63b8ff" d="M2629.71,-435.63C2474.06,-427.78 2149.59,-411.41 2000.92,-403.91"/>
<polygon fill="#63b8ff" stroke="#63b8ff" points="2629.39,-439.12 2639.56,-436.12 2629.75,-432.13 2629.39,-439.12"/>
</a>
</g>
</g>
</g>
</svg>
