<?xml version="1.0" encoding="UTF-8" standalone="no"?>
<!DOCTYPE svg PUBLIC "-//W3C//DTD SVG 1.1//EN"
 "http://www.w3.org/Graphics/SVG/1.1/DTD/svg11.dtd">
<!-- Generated by graphviz version 13.1.2 (20250808.2320)
 -->
<!-- Title: editeurpanovisu.BigDecimalField.setNumber Pages: 1 -->
<svg width="528pt" height="90pt"
 viewBox="0.00 0.00 528.00 90.00" xmlns="http://www.w3.org/2000/svg" xmlns:xlink="http://www.w3.org/1999/xlink">
<g id="graph0" class="graph" transform="scale(1 1) rotate(0) translate(4 86)">
<title>editeurpanovisu.BigDecimalField.setNumber</title>
<!-- Node1 -->
<g id="Node000001" class="node">
<title>Node1</title>
<g id="a_Node000001"><a xlink:title="Définit la valeur BigDecimal.">
<polygon fill="#999999" stroke="#666666" points="519.75,-57 382.25,-57 382.25,-25 519.75,-25 519.75,-57"/>
<text xml:space="preserve" text-anchor="start" x="390.25" y="-43.5" font-family="Helvetica,sans-Serif" font-size="10.00">editeurpanovisu.BigDecimal</text>
<text xml:space="preserve" text-anchor="middle" x="451" y="-31.5" font-family="Helvetica,sans-Serif" font-size="10.00">Field.setNumber</text>
</a>
</g>
</g>
<!-- Node2 -->
<g id="Node000002" class="node">
<title>Node2</title>
<g id="a_Node000002"><a xlink:href="classediteurpanovisu_1_1BigDecimalField.html#ae89951222ef046cb6343690c5f3334e6" target="_top" xlink:title="Constructeur avec valeur initiale.">
<polygon fill="white" stroke="#666666" points="330.88,-82 193.38,-82 193.38,-50 330.88,-50 330.88,-82"/>
<text xml:space="preserve" text-anchor="start" x="201.38" y="-68.5" font-family="Helvetica,sans-Serif" font-size="10.00">editeurpanovisu.BigDecimal</text>
<text xml:space="preserve" text-anchor="middle" x="262.12" y="-56.5" font-family="Helvetica,sans-Serif" font-size="10.00">Field.BigDecimalField</text>
</a>
</g>
</g>
<!-- Node1&#45;&gt;Node2 -->
<g id="edge1_Node000001_Node000002" class="edge">
<title>Node1&#45;&gt;Node2</title>
<g id="a_edge1_Node000001_Node000002"><a xlink:title=" ">
<path fill="none" stroke="#63b8ff" d="M370.97,-51.57C357.7,-53.35 344.03,-55.18 331.07,-56.91"/>
<polygon fill="#63b8ff" stroke="#63b8ff" points="371.06,-55.09 380.51,-50.3 370.13,-48.15 371.06,-55.09"/>
</a>
</g>
</g>
<!-- Node3 -->
<g id="Node000003" class="node">
<title>Node3</title>
<g id="a_Node000003"><a xlink:href="classediteurpanovisu_1_1GestionnaireDiaporamaController.html#ae05b9285b2f87ad3a870c65e0571401b" target="_top" xlink:title=" ">
<polygon fill="white" stroke="#666666" points="346.25,-32 178,-32 178,0 346.25,0 346.25,-32"/>
<text xml:space="preserve" text-anchor="start" x="186" y="-18.5" font-family="Helvetica,sans-Serif" font-size="10.00">editeurpanovisu.Gestionnaire</text>
<text xml:space="preserve" text-anchor="middle" x="262.12" y="-6.5" font-family="Helvetica,sans-Serif" font-size="10.00">DiaporamaController.initDiaporama</text>
</a>
</g>
</g>
<!-- Node1&#45;&gt;Node3 -->
<g id="edge2_Node000001_Node000003" class="edge">
<title>Node1&#45;&gt;Node3</title>
<g id="a_edge2_Node000001_Node000003"><a xlink:title=" ">
<path fill="none" stroke="#63b8ff" d="M370.83,-30.41C362.84,-29.34 354.71,-28.25 346.67,-27.18"/>
<polygon fill="#63b8ff" stroke="#63b8ff" points="370.13,-33.85 380.51,-31.7 371.06,-26.91 370.13,-33.85"/>
</a>
</g>
</g>
<!-- Node4 -->
<g id="Node000004" class="node">
<title>Node4</title>
<g id="a_Node000004"><a xlink:href="classediteurpanovisu_1_1GestionnaireDiaporamaController.html#ac5731a825a950a1b47f5d54087d1fe3f" target="_top" xlink:title=" ">
<polygon fill="white" stroke="#666666" points="142,-32 0,-32 0,0 142,0 142,-32"/>
<text xml:space="preserve" text-anchor="start" x="8" y="-18.5" font-family="Helvetica,sans-Serif" font-size="10.00">editeurpanovisu.Gestionnaire</text>
<text xml:space="preserve" text-anchor="middle" x="71" y="-6.5" font-family="Helvetica,sans-Serif" font-size="10.00">DiaporamaController.reInit</text>
</a>
</g>
</g>
<!-- Node3&#45;&gt;Node4 -->
<g id="edge3_Node000003_Node000004" class="edge">
<title>Node3&#45;&gt;Node4</title>
<g id="a_edge3_Node000003_Node000004"><a xlink:title=" ">
<path fill="none" stroke="#63b8ff" d="M166.26,-16C158.21,-16 150.16,-16 142.34,-16"/>
<polygon fill="#63b8ff" stroke="#63b8ff" points="166.11,-19.5 176.11,-16 166.11,-12.5 166.11,-19.5"/>
</a>
</g>
</g>
</g>
</svg>
