<?xml version="1.0" encoding="UTF-8" standalone="no"?>
<!DOCTYPE svg PUBLIC "-//W3C//DTD SVG 1.1//EN"
 "http://www.w3.org/Graphics/SVG/1.1/DTD/svg11.dtd">
<!-- Generated by graphviz version 13.1.2 (20250808.2320)
 -->
<!-- Title: editeurpanovisu.GestionnaireInterfaceController.getdYMasque Pages: 1 -->
<!--zoomable 489 -->

<svg id="main" version="1.1" xmlns="http://www.w3.org/2000/svg" xmlns:xlink="http://www.w3.org/1999/xlink" xml:space="preserve" onload="init(evt)">

<style type="text/css"><![CDATA[
.node, .edge {opacity: 0.7;}
.node.selected, .edge.selected {opacity: 1;}
.edge:hover path { stroke: red; }
.edge:hover polygon { stroke: red; fill: red; }
]]></style>

<defs>
  <circle id="rim" cx="0" cy="0" r="7"/>
  <circle id="rim2" cx="0" cy="0" r="3.5"/>
  <g id="zoomPlus">
    <use xlink:href="#rim" fill="#404040"><set attributeName="fill" to="#808080" begin="zoomplus.mouseover" end="zoomplus.mouseout"/></use>
    <path d="M-4,0h8M0,-4v8" fill="none" stroke="white" stroke-width="1.5" pointer-events="none"/>
  </g>
  <g id="zoomMin">
    <use xlink:href="#rim" fill="#404040"><set attributeName="fill" to="#808080" begin="zoomminus.mouseover" end="zoomminus.mouseout"/></use>
    <path d="M-4,0h8" fill="none" stroke="white" stroke-width="1.5" pointer-events="none"/>
  </g>
  <g id="arrowUp" transform="translate(30 24)">
    <use xlink:href="#rim"/>
    <path pointer-events="none" fill="none" stroke="white" stroke-width="1.5" d="M0,-3.0v7 M-2.5,-0.5L0,-3.0L2.5,-0.5"/>
  </g>
  <g id="arrowRight" transform="rotate(90) translate(36 -43)">
    <use xlink:href="#rim"/>
    <path pointer-events="none" fill="none" stroke="white" stroke-width="1.5" d="M0,-3.0v7 M-2.5,-0.5L0,-3.0L2.5,-0.5"/>
  </g>
  <g id="arrowDown" transform="rotate(180) translate(-30 -48)">
    <use xlink:href="#rim"/>
    <path pointer-events="none" fill="none" stroke="white" stroke-width="1.5" d="M0,-3.0v7 M-2.5,-0.5L0,-3.0L2.5,-0.5"/>
  </g>
  <g id="arrowLeft" transform="rotate(270) translate(-36 17)">
    <use xlink:href="#rim"/>
    <path pointer-events="none" fill="none" stroke="white" stroke-width="1.5" d="M0,-3.0v7 M-2.5,-0.5L0,-3.0L2.5,-0.5"/>
  </g>
  <g id="resetDef">
    <use xlink:href="#rim2" fill="#404040"><set attributeName="fill" to="#808080" begin="reset.mouseover" end="reset.mouseout"/></use>
  </g>
</defs>
<script type="application/ecmascript">
var viewWidth = 3011;
var viewHeight = 489;
var sectionId = 'dynsection-73';
</script>
<script type="application/ecmascript" xlink:href="svg.min.js"/>
<svg id="graph" class="graph">
<g id="viewport">
<title>editeurpanovisu.GestionnaireInterfaceController.getdYMasque</title>
<!-- Node1 -->
<g id="Node000001" class="node">
<title>Node1</title>
<g id="a_Node000001"><a xlink:title=" ">
<polygon fill="#999999" stroke="#666666" points="3002.75,-176.26 2843.5,-176.26 2843.5,-144.26 3002.75,-144.26 3002.75,-176.26"/>
<text xml:space="preserve" text-anchor="start" x="2851.5" y="-162.76" font-family="Helvetica,sans-Serif" font-size="10.00">editeurpanovisu.Gestionnaire</text>
<text xml:space="preserve" text-anchor="middle" x="2923.12" y="-150.76" font-family="Helvetica,sans-Serif" font-size="10.00">InterfaceController.getdYMasque</text>
</a>
</g>
</g>
<!-- Node2 -->
<g id="Node000002" class="node">
<title>Node2</title>
<g id="a_Node000002"><a xlink:href="classediteurpanovisu_1_1GestionnaireInterfaceController.html#a9ef193bbfdfd64f14e46d337445406ec" target="_top" xlink:title=" ">
<polygon fill="white" stroke="#666666" points="2805.62,-233.26 2643.38,-233.26 2643.38,-201.26 2805.62,-201.26 2805.62,-233.26"/>
<text xml:space="preserve" text-anchor="start" x="2651.38" y="-219.76" font-family="Helvetica,sans-Serif" font-size="10.00">editeurpanovisu.Gestionnaire</text>
<text xml:space="preserve" text-anchor="middle" x="2724.5" y="-207.76" font-family="Helvetica,sans-Serif" font-size="10.00">InterfaceController.afficheMasque</text>
</a>
</g>
</g>
<!-- Node1&#45;&gt;Node2 -->
<g id="edge1_Node000001_Node000002" class="edge">
<title>Node1&#45;&gt;Node2</title>
<g id="a_edge1_Node000001_Node000002"><a xlink:title=" ">
<path fill="none" stroke="#63b8ff" d="M2854.31,-179.92C2830.82,-186.73 2804.75,-194.29 2782.24,-200.81"/>
<polygon fill="#63b8ff" stroke="#63b8ff" points="2855.17,-183.31 2863.8,-177.17 2853.22,-176.59 2855.17,-183.31"/>
</a>
</g>
</g>
<!-- Node5 -->
<g id="Node000005" class="node">
<title>Node5</title>
<g id="a_Node000005"><a xlink:href="classediteurpanovisu_1_1GestionnaireInterfaceController.html#a55c8afda208674955a13d48d02be41b8" target="_top" xlink:title=" ">
<polygon fill="white" stroke="#666666" points="2213.5,-179.26 2046,-179.26 2046,-147.26 2213.5,-147.26 2213.5,-179.26"/>
<text xml:space="preserve" text-anchor="start" x="2054" y="-165.76" font-family="Helvetica,sans-Serif" font-size="10.00">editeurpanovisu.Gestionnaire</text>
<text xml:space="preserve" text-anchor="middle" x="2129.75" y="-153.76" font-family="Helvetica,sans-Serif" font-size="10.00">InterfaceController.afficheTemplate</text>
</a>
</g>
</g>
<!-- Node1&#45;&gt;Node5 -->
<g id="edge46_Node000001_Node000005" class="edge">
<title>Node1&#45;&gt;Node5</title>
<g id="a_edge46_Node000001_Node000005"><a xlink:title=" ">
<path fill="none" stroke="#63b8ff" d="M2832.05,-160.6C2677.42,-161.19 2363.7,-162.38 2213.95,-162.94"/>
<polygon fill="#63b8ff" stroke="#63b8ff" points="2831.85,-164.1 2841.84,-160.56 2831.82,-157.1 2831.85,-164.1"/>
</a>
</g>
</g>
<!-- Node13 -->
<g id="Node000013" class="node">
<title>Node13</title>
<g id="a_Node000013"><a xlink:href="classediteurpanovisu_1_1EditeurPanovisu.html#a94e36b9e9d09ab1a4c852b8a8cefa927" target="_top" xlink:title=" ">
<polygon fill="white" stroke="#666666" points="663,-287.26 472.25,-287.26 472.25,-255.26 663,-255.26 663,-287.26"/>
<text xml:space="preserve" text-anchor="start" x="480.25" y="-273.76" font-family="Helvetica,sans-Serif" font-size="10.00">editeurpanovisu.EditeurPanovisu.genere</text>
<text xml:space="preserve" text-anchor="middle" x="567.62" y="-261.76" font-family="Helvetica,sans-Serif" font-size="10.00">Visite</text>
</a>
</g>
</g>
<!-- Node1&#45;&gt;Node13 -->
<g id="edge47_Node000001_Node000013" class="edge">
<title>Node1&#45;&gt;Node13</title>
<g id="a_edge47_Node000001_Node000013"><a xlink:title=" ">
<path fill="none" stroke="#63b8ff" d="M2907.35,-186.45C2861.97,-263.04 2716.42,-481.26 2531,-481.26 2531,-481.26 2531,-481.26 1260,-481.26 994.06,-481.26 694.44,-337.24 599.31,-287.74"/>
<polygon fill="#63b8ff" stroke="#63b8ff" points="2910.3,-188.33 2912.32,-177.93 2904.25,-184.8 2910.3,-188.33"/>
</a>
</g>
</g>
<!-- Node25 -->
<g id="Node000025" class="node">
<title>Node25</title>
<g id="a_Node000025"><a xlink:href="classediteurpanovisu_1_1GestionnaireInterfaceController.html#ab66509c63a85a8285a081b24049e8774" target="_top" xlink:title=" ">
<polygon fill="white" stroke="#666666" points="2807.5,-75.26 2641.5,-75.26 2641.5,-43.26 2807.5,-43.26 2807.5,-75.26"/>
<text xml:space="preserve" text-anchor="start" x="2649.5" y="-61.76" font-family="Helvetica,sans-Serif" font-size="10.00">editeurpanovisu.Gestionnaire</text>
<text xml:space="preserve" text-anchor="middle" x="2724.5" y="-49.76" font-family="Helvetica,sans-Serif" font-size="10.00">InterfaceController.strGetTemplate</text>
</a>
</g>
</g>
<!-- Node1&#45;&gt;Node25 -->
<g id="edge48_Node000001_Node000025" class="edge">
<title>Node1&#45;&gt;Node25</title>
<g id="a_edge48_Node000001_Node000025"><a xlink:title=" ">
<path fill="none" stroke="#63b8ff" d="M2889.43,-137.51C2867.03,-122.57 2836.29,-103.26 2807.5,-89.26 2797.41,-84.35 2786.3,-79.78 2775.61,-75.75"/>
<polygon fill="#63b8ff" stroke="#63b8ff" points="2887.28,-140.29 2897.53,-142.98 2891.2,-134.49 2887.28,-140.29"/>
</a>
</g>
</g>
<!-- Node3 -->
<g id="Node000003" class="node">
<title>Node3</title>
<g id="a_Node000003"><a xlink:href="classediteurpanovisu_1_1GestionnaireInterfaceController.html#af7f1e67219c75f044a231abc76bcf790" target="_top" xlink:title=" ">
<polygon fill="white" stroke="#666666" points="2605.5,-308.26 2454.5,-308.26 2454.5,-264.26 2605.5,-264.26 2605.5,-308.26"/>
<text xml:space="preserve" text-anchor="start" x="2462.5" y="-294.76" font-family="Helvetica,sans-Serif" font-size="10.00">editeurpanovisu.Gestionnaire</text>
<text xml:space="preserve" text-anchor="start" x="2462.5" y="-282.76" font-family="Helvetica,sans-Serif" font-size="10.00">InterfaceController.afficheBarre</text>
<text xml:space="preserve" text-anchor="middle" x="2530" y="-270.76" font-family="Helvetica,sans-Serif" font-size="10.00">Classique</text>
</a>
</g>
</g>
<!-- Node2&#45;&gt;Node3 -->
<g id="edge2_Node000002_Node000003" class="edge">
<title>Node2&#45;&gt;Node3</title>
<g id="a_edge2_Node000002_Node000003"><a xlink:title=" ">
<path fill="none" stroke="#63b8ff" d="M2667.24,-237.43C2644.2,-245.68 2617.44,-255.28 2593.77,-263.76"/>
<polygon fill="#63b8ff" stroke="#63b8ff" points="2668.22,-240.79 2676.46,-234.12 2665.86,-234.2 2668.22,-240.79"/>
</a>
</g>
</g>
<!-- Node2&#45;&gt;Node5 -->
<g id="edge43_Node000002_Node000005" class="edge">
<title>Node2&#45;&gt;Node5</title>
<g id="a_edge43_Node000002_Node000005"><a xlink:title=" ">
<path fill="none" stroke="#63b8ff" d="M2631.8,-208.91C2517.59,-198.5 2324.12,-180.88 2214,-170.84"/>
<polygon fill="#63b8ff" stroke="#63b8ff" points="2631.16,-212.36 2641.43,-209.78 2631.79,-205.39 2631.16,-212.36"/>
</a>
</g>
</g>
<!-- Node21 -->
<g id="Node000021" class="node">
<title>Node21</title>
<g id="a_Node000021"><a xlink:href="classediteurpanovisu_1_1GestionnaireInterfaceController.html#ac7fa988dc99d8684686127a2269cd66e" target="_top" xlink:title=" ">
<polygon fill="white" stroke="#666666" points="2000.62,-437.26 1844.38,-437.26 1844.38,-405.26 2000.62,-405.26 2000.62,-437.26"/>
<text xml:space="preserve" text-anchor="start" x="1852.38" y="-423.76" font-family="Helvetica,sans-Serif" font-size="10.00">editeurpanovisu.Gestionnaire</text>
<text xml:space="preserve" text-anchor="middle" x="1922.5" y="-411.76" font-family="Helvetica,sans-Serif" font-size="10.00">InterfaceController.creeInterface</text>
</a>
</g>
</g>
<!-- Node2&#45;&gt;Node21 -->
<g id="edge44_Node000002_Node000021" class="edge">
<title>Node2&#45;&gt;Node21</title>
<g id="a_edge44_Node000002_Node000021"><a xlink:title=" ">
<path fill="none" stroke="#63b8ff" d="M2698.72,-241.14C2675.7,-262.6 2639.91,-294.18 2605.5,-317.26 2527.74,-369.41 2508.59,-388.77 2418.5,-414.26 2275.43,-454.75 2099.67,-443.71 2000.74,-432.3"/>
<polygon fill="#63b8ff" stroke="#63b8ff" points="2700.9,-243.9 2705.78,-234.49 2696.1,-238.8 2700.9,-243.9"/>
</a>
</g>
</g>
<!-- Node22 -->
<g id="Node000022" class="node">
<title>Node22</title>
<g id="a_Node000022"><a xlink:href="classediteurpanovisu_1_1GestionnaireInterfaceController.html#a568c34e865fb653f63b8fa7a9a9cafc8" target="_top" xlink:title=" ">
<polygon fill="white" stroke="#666666" points="2200.75,-271.26 2058.75,-271.26 2058.75,-239.26 2200.75,-239.26 2200.75,-271.26"/>
<text xml:space="preserve" text-anchor="start" x="2066.75" y="-257.76" font-family="Helvetica,sans-Serif" font-size="10.00">editeurpanovisu.Gestionnaire</text>
<text xml:space="preserve" text-anchor="middle" x="2129.75" y="-245.76" font-family="Helvetica,sans-Serif" font-size="10.00">InterfaceController.rafraichit</text>
</a>
</g>
</g>
<!-- Node2&#45;&gt;Node22 -->
<g id="edge45_Node000002_Node000022" class="edge">
<title>Node2&#45;&gt;Node22</title>
<g id="a_edge45_Node000002_Node000022"><a xlink:title=" ">
<path fill="none" stroke="#63b8ff" d="M2631.71,-223.14C2512.83,-230.77 2308.2,-243.88 2200.96,-250.76"/>
<polygon fill="#63b8ff" stroke="#63b8ff" points="2631.68,-226.65 2641.43,-222.52 2631.23,-219.67 2631.68,-226.65"/>
</a>
</g>
</g>
<!-- Node4 -->
<g id="Node000004" class="node">
<title>Node4</title>
<g id="a_Node000004"><a xlink:href="classediteurpanovisu_1_1GestionnaireInterfaceController.html#a7c5cff6934d95be9a4babb6426a5ac26" target="_top" xlink:title=" ">
<polygon fill="white" stroke="#666666" points="2414,-327.26 2254,-327.26 2254,-283.26 2414,-283.26 2414,-327.26"/>
<text xml:space="preserve" text-anchor="start" x="2262" y="-313.76" font-family="Helvetica,sans-Serif" font-size="10.00">editeurpanovisu.Gestionnaire</text>
<text xml:space="preserve" text-anchor="start" x="2262" y="-301.76" font-family="Helvetica,sans-Serif" font-size="10.00">InterfaceController.afficheImages</text>
<text xml:space="preserve" text-anchor="middle" x="2334" y="-289.76" font-family="Helvetica,sans-Serif" font-size="10.00">FondInterface</text>
</a>
</g>
</g>
<!-- Node3&#45;&gt;Node4 -->
<g id="edge3_Node000003_Node000004" class="edge">
<title>Node3&#45;&gt;Node4</title>
<g id="a_edge3_Node000003_Node000004"><a xlink:title=" ">
<path fill="none" stroke="#63b8ff" d="M2443.08,-294.67C2433.47,-295.62 2423.71,-296.57 2414.19,-297.5"/>
<polygon fill="#63b8ff" stroke="#63b8ff" points="2443.15,-298.18 2452.77,-293.73 2442.47,-291.22 2443.15,-298.18"/>
</a>
</g>
</g>
<!-- Node3&#45;&gt;Node5 -->
<g id="edge4_Node000003_Node000005" class="edge">
<title>Node3&#45;&gt;Node5</title>
<g id="a_edge4_Node000003_Node000005"><a xlink:title=" ">
<path fill="none" stroke="#63b8ff" d="M2445.56,-260.49C2366.79,-236.16 2251.04,-200.41 2184.04,-179.72"/>
<polygon fill="#63b8ff" stroke="#63b8ff" points="2444.38,-263.79 2454.97,-263.4 2446.45,-257.1 2444.38,-263.79"/>
</a>
</g>
</g>
<!-- Node19 -->
<g id="Node000019" class="node">
<title>Node19</title>
<g id="a_Node000019"><a xlink:href="classediteurpanovisu_1_1GestionnaireInterfaceController.html#a5bdd1505c1ad1eee506c2618c9368994" target="_top" xlink:title=" ">
<polygon fill="white" stroke="#666666" points="2418.5,-377.26 2249.5,-377.26 2249.5,-345.26 2418.5,-345.26 2418.5,-377.26"/>
<text xml:space="preserve" text-anchor="start" x="2257.5" y="-363.76" font-family="Helvetica,sans-Serif" font-size="10.00">editeurpanovisu.Gestionnaire</text>
<text xml:space="preserve" text-anchor="middle" x="2334" y="-351.76" font-family="Helvetica,sans-Serif" font-size="10.00">InterfaceController.afficheVignettes</text>
</a>
</g>
</g>
<!-- Node3&#45;&gt;Node19 -->
<g id="edge30_Node000003_Node000019" class="edge">
<title>Node3&#45;&gt;Node19</title>
<g id="a_edge30_Node000003_Node000019"><a xlink:title=" ">
<path fill="none" stroke="#63b8ff" d="M2472.65,-313.52C2455.46,-321.35 2436.38,-329.57 2418.5,-336.26 2410.56,-339.23 2402.1,-342.09 2393.73,-344.76"/>
<polygon fill="#63b8ff" stroke="#63b8ff" points="2474.08,-316.71 2481.7,-309.34 2471.15,-310.35 2474.08,-316.71"/>
</a>
</g>
</g>
<!-- Node3&#45;&gt;Node21 -->
<g id="edge41_Node000003_Node000021" class="edge">
<title>Node3&#45;&gt;Node21</title>
<g id="a_edge41_Node000003_Node000021"><a xlink:title=" ">
<path fill="none" stroke="#63b8ff" d="M2505.07,-317C2484.81,-340.5 2453.53,-371.32 2418.5,-386.26 2345.39,-417.43 2120.55,-421.85 2000.66,-421.89"/>
<polygon fill="#63b8ff" stroke="#63b8ff" points="2507.56,-319.47 2511.31,-309.56 2502.2,-314.98 2507.56,-319.47"/>
</a>
</g>
</g>
<!-- Node3&#45;&gt;Node22 -->
<g id="edge42_Node000003_Node000022" class="edge">
<title>Node3&#45;&gt;Node22</title>
<g id="a_edge42_Node000003_Node000022"><a xlink:title=" ">
<path fill="none" stroke="#63b8ff" d="M2442.92,-276.56C2434.67,-275.73 2426.43,-274.95 2418.5,-274.26 2344.43,-267.8 2259.47,-262.44 2201.18,-259.08"/>
<polygon fill="#63b8ff" stroke="#63b8ff" points="2442.34,-280.01 2452.64,-277.55 2443.05,-273.05 2442.34,-280.01"/>
</a>
</g>
</g>
<!-- Node6 -->
<g id="Node000006" class="node">
<title>Node6</title>
<g id="a_Node000006"><a xlink:href="classediteurpanovisu_1_1EditeurPanovisu.html#a87b29dc258cfc67370b1f27809e91b8e" target="_top" xlink:title=" ">
<polygon fill="white" stroke="#666666" points="2010,-179.26 1835,-179.26 1835,-147.26 2010,-147.26 2010,-179.26"/>
<text xml:space="preserve" text-anchor="start" x="1843" y="-165.76" font-family="Helvetica,sans-Serif" font-size="10.00">editeurpanovisu.EditeurPanovisu.tsk</text>
<text xml:space="preserve" text-anchor="middle" x="1922.5" y="-153.76" font-family="Helvetica,sans-Serif" font-size="10.00">AnalyseFichierPVU</text>
</a>
</g>
</g>
<!-- Node5&#45;&gt;Node6 -->
<g id="edge5_Node000005_Node000006" class="edge">
<title>Node5&#45;&gt;Node6</title>
<g id="a_edge5_Node000005_Node000006"><a xlink:title=" ">
<path fill="none" stroke="#63b8ff" d="M2034.1,-163.26C2026.23,-163.26 2018.29,-163.26 2010.48,-163.26"/>
<polygon fill="#63b8ff" stroke="#63b8ff" points="2034.05,-166.76 2044.05,-163.26 2034.05,-159.76 2034.05,-166.76"/>
</a>
</g>
</g>
<!-- Node7 -->
<g id="Node000007" class="node">
<title>Node7</title>
<g id="a_Node000007"><a xlink:href="classediteurpanovisu_1_1EditeurPanovisu.html#ab4beb1597b660a4a253befc6e76f1c54" target="_top" xlink:title=" ">
<polygon fill="white" stroke="#666666" points="1129.62,-87.26 944.12,-87.26 944.12,-55.26 1129.62,-55.26 1129.62,-87.26"/>
<text xml:space="preserve" text-anchor="start" x="952.12" y="-73.76" font-family="Helvetica,sans-Serif" font-size="10.00">editeurpanovisu.EditeurPanovisu.projet</text>
<text xml:space="preserve" text-anchor="middle" x="1036.88" y="-61.76" font-family="Helvetica,sans-Serif" font-size="10.00">Charge</text>
</a>
</g>
</g>
<!-- Node6&#45;&gt;Node7 -->
<g id="edge6_Node000006_Node000007" class="edge">
<title>Node6&#45;&gt;Node7</title>
<g id="a_edge6_Node000006_Node000007"><a xlink:title=" ">
<path fill="none" stroke="#63b8ff" d="M1836.87,-144.66C1824.22,-142.27 1811.3,-140.04 1799,-138.26 1520.53,-98.06 1448.41,-110.22 1168.25,-84.26 1155.91,-83.12 1142.91,-81.87 1130.1,-80.62"/>
<polygon fill="#63b8ff" stroke="#63b8ff" points="1835.93,-148.04 1846.41,-146.51 1837.26,-141.17 1835.93,-148.04"/>
</a>
</g>
</g>
<!-- Node10 -->
<g id="Node000010" class="node">
<title>Node10</title>
<g id="a_Node000010"><a xlink:href="classediteurpanovisu_1_1EditeurPanovisu.html#a6d19b4d885ee6fcec827b91956295732" target="_top" xlink:title=" ">
<polygon fill="white" stroke="#666666" points="1799,-179.26 1613.5,-179.26 1613.5,-147.26 1799,-147.26 1799,-179.26"/>
<text xml:space="preserve" text-anchor="start" x="1621.5" y="-165.76" font-family="Helvetica,sans-Serif" font-size="10.00">editeurpanovisu.EditeurPanovisu.projet</text>
<text xml:space="preserve" text-anchor="middle" x="1706.25" y="-153.76" font-family="Helvetica,sans-Serif" font-size="10.00">ChargeNom</text>
</a>
</g>
</g>
<!-- Node6&#45;&gt;Node10 -->
<g id="edge9_Node000006_Node000010" class="edge">
<title>Node6&#45;&gt;Node10</title>
<g id="a_edge9_Node000006_Node000010"><a xlink:title=" ">
<path fill="none" stroke="#63b8ff" d="M1823.16,-163.26C1815.26,-163.26 1807.3,-163.26 1799.45,-163.26"/>
<polygon fill="#63b8ff" stroke="#63b8ff" points="1823.15,-166.76 1833.15,-163.26 1823.15,-159.76 1823.15,-166.76"/>
</a>
</g>
</g>
<!-- Node8 -->
<g id="Node000008" class="node">
<title>Node8</title>
<g id="a_Node000008"><a xlink:href="classediteurpanovisu_1_1EditeurPanovisu.html#ac912b80c1f2ac97def60ff005c5c480b" target="_top" xlink:title=" ">
<polygon fill="white" stroke="#666666" points="420.5,-267.26 216.25,-267.26 216.25,-247.26 420.5,-247.26 420.5,-267.26"/>
<text xml:space="preserve" text-anchor="middle" x="318.38" y="-253.76" font-family="Helvetica,sans-Serif" font-size="10.00">editeurpanovisu.EditeurPanovisu.creeMenu</text>
</a>
</g>
</g>
<!-- Node7&#45;&gt;Node8 -->
<g id="edge7_Node000007_Node000008" class="edge">
<title>Node7&#45;&gt;Node8</title>
<g id="a_edge7_Node000007_Node000008"><a xlink:title=" ">
<path fill="none" stroke="#63b8ff" d="M932.43,-67.63C812.94,-67.18 612.75,-78.1 456.5,-145.26 400.02,-169.54 348.1,-224.24 328.08,-247.01"/>
<polygon fill="#63b8ff" stroke="#63b8ff" points="932.2,-71.13 942.23,-67.7 932.25,-64.13 932.2,-71.13"/>
</a>
</g>
</g>
<!-- Node9 -->
<g id="Node000009" class="node">
<title>Node9</title>
<g id="a_Node000009"><a xlink:href="classediteurpanovisu_1_1EditeurPanovisu.html#a86c393eee88f54c694db994ddd85b90d" target="_top" xlink:title=" ">
<polygon fill="white" stroke="#666666" points="180.25,-273.26 0,-273.26 0,-241.26 180.25,-241.26 180.25,-273.26"/>
<text xml:space="preserve" text-anchor="start" x="8" y="-259.76" font-family="Helvetica,sans-Serif" font-size="10.00">editeurpanovisu.EditeurPanovisu.cree</text>
<text xml:space="preserve" text-anchor="middle" x="90.12" y="-247.76" font-family="Helvetica,sans-Serif" font-size="10.00">Environnement</text>
</a>
</g>
</g>
<!-- Node8&#45;&gt;Node9 -->
<g id="edge8_Node000008_Node000009" class="edge">
<title>Node8&#45;&gt;Node9</title>
<g id="a_edge8_Node000008_Node000009"><a xlink:title=" ">
<path fill="none" stroke="#63b8ff" d="M204.51,-257.26C196.49,-257.26 188.46,-257.26 180.6,-257.26"/>
<polygon fill="#63b8ff" stroke="#63b8ff" points="204.32,-260.76 214.32,-257.26 204.32,-253.76 204.32,-260.76"/>
</a>
</g>
</g>
<!-- Node10&#45;&gt;Node8 -->
<g id="edge29_Node000010_Node000008" class="edge">
<title>Node10&#45;&gt;Node8</title>
<g id="a_edge29_Node000010_Node000008"><a xlink:title=" ">
<path fill="none" stroke="#63b8ff" d="M1658.08,-184.1C1561.66,-225.42 1334.05,-316.49 1132.25,-348.26 835.33,-395 747.78,-395.41 456.5,-321.26 410.67,-309.59 361.5,-282.69 336.34,-267.75"/>
<polygon fill="#63b8ff" stroke="#63b8ff" points="1659.18,-187.44 1666.97,-180.26 1656.41,-181.01 1659.18,-187.44"/>
</a>
</g>
</g>
<!-- Node11 -->
<g id="Node000011" class="node">
<title>Node11</title>
<g id="a_Node000011"><a xlink:href="classediteurpanovisu_1_1EditeurPanovisu.html#af0d1c32bb78acbff561c822a0d15f760" target="_top" xlink:title=" ">
<polygon fill="white" stroke="#666666" points="1577.5,-163.26 1389.75,-163.26 1389.75,-131.26 1577.5,-131.26 1577.5,-163.26"/>
<text xml:space="preserve" text-anchor="start" x="1397.75" y="-149.76" font-family="Helvetica,sans-Serif" font-size="10.00">editeurpanovisu.EditeurPanovisu.ajoute</text>
<text xml:space="preserve" text-anchor="middle" x="1483.62" y="-137.76" font-family="Helvetica,sans-Serif" font-size="10.00">FichierHisto</text>
</a>
</g>
</g>
<!-- Node10&#45;&gt;Node11 -->
<g id="edge10_Node000010_Node000011" class="edge">
<title>Node10&#45;&gt;Node11</title>
<g id="a_edge10_Node000010_Node000011"><a xlink:title=" ">
<path fill="none" stroke="#63b8ff" d="M1601.97,-149.03C1593.92,-148.42 1585.83,-147.85 1577.86,-147.34"/>
<polygon fill="#63b8ff" stroke="#63b8ff" points="1601.53,-152.51 1611.77,-149.81 1602.08,-145.53 1601.53,-152.51"/>
</a>
</g>
</g>
<!-- Node11&#45;&gt;Node7 -->
<g id="edge11_Node000011_Node000007" class="edge">
<title>Node11&#45;&gt;Node7</title>
<g id="a_edge11_Node000011_Node000007"><a xlink:title=" ">
<path fill="none" stroke="#63b8ff" d="M1377.96,-148.48C1315.71,-146.47 1235.92,-139.06 1168.25,-117.26 1150.62,-111.58 1149.36,-103.36 1132.25,-96.26 1124.66,-93.11 1116.55,-90.25 1108.41,-87.7"/>
<polygon fill="#63b8ff" stroke="#63b8ff" points="1377.77,-151.97 1387.86,-148.75 1377.96,-144.98 1377.77,-151.97"/>
</a>
</g>
</g>
<!-- Node11&#45;&gt;Node10 -->
<g id="edge12_Node000011_Node000010" class="edge">
<title>Node11&#45;&gt;Node10</title>
<g id="a_edge12_Node000011_Node000010"><a xlink:title=" ">
<path fill="none" stroke="#63b8ff" d="M1589.19,-161.59C1597.24,-162.19 1605.33,-162.75 1613.28,-163.26"/>
<polygon fill="#63b8ff" stroke="#63b8ff" points="1589.61,-158.11 1579.37,-160.82 1589.07,-165.09 1589.61,-158.11"/>
</a>
</g>
</g>
<!-- Node12 -->
<g id="Node000012" class="node">
<title>Node12</title>
<g id="a_Node000012"><a xlink:href="classediteurpanovisu_1_1EditeurPanovisu.html#a9f3ea25b35d4884524508dab3dc4fd6a" target="_top" xlink:title=" ">
<polygon fill="white" stroke="#666666" points="1353.75,-206.26 1168.25,-206.26 1168.25,-174.26 1353.75,-174.26 1353.75,-206.26"/>
<text xml:space="preserve" text-anchor="start" x="1176.25" y="-192.76" font-family="Helvetica,sans-Serif" font-size="10.00">editeurpanovisu.EditeurPanovisu.projet</text>
<text xml:space="preserve" text-anchor="middle" x="1261" y="-180.76" font-family="Helvetica,sans-Serif" font-size="10.00">Sauve</text>
</a>
</g>
</g>
<!-- Node11&#45;&gt;Node12 -->
<g id="edge13_Node000011_Node000012" class="edge">
<title>Node11&#45;&gt;Node12</title>
<g id="a_edge13_Node000011_Node000012"><a xlink:title=" ">
<path fill="none" stroke="#63b8ff" d="M1386.99,-165.9C1373.45,-168.54 1359.61,-171.24 1346.31,-173.83"/>
<polygon fill="#63b8ff" stroke="#63b8ff" points="1387.64,-169.34 1396.79,-163.99 1386.3,-162.47 1387.64,-169.34"/>
</a>
</g>
</g>
<!-- Node18 -->
<g id="Node000018" class="node">
<title>Node18</title>
<g id="a_Node000018"><a xlink:href="classediteurpanovisu_1_1EditeurPanovisu.html#a7b2e25dc717eb52b62e23d54ec4c124a" target="_top" xlink:title=" ">
<polygon fill="white" stroke="#666666" points="1353.75,-75.26 1168.25,-75.26 1168.25,-43.26 1353.75,-43.26 1353.75,-75.26"/>
<text xml:space="preserve" text-anchor="start" x="1176.25" y="-61.76" font-family="Helvetica,sans-Serif" font-size="10.00">editeurpanovisu.EditeurPanovisu.projet</text>
<text xml:space="preserve" text-anchor="middle" x="1261" y="-49.76" font-family="Helvetica,sans-Serif" font-size="10.00">SauveSous</text>
</a>
</g>
</g>
<!-- Node11&#45;&gt;Node18 -->
<g id="edge27_Node000011_Node000018" class="edge">
<title>Node11&#45;&gt;Node18</title>
<g id="a_edge27_Node000011_Node000018"><a xlink:title=" ">
<path fill="none" stroke="#63b8ff" d="M1430.78,-126.58C1391.8,-111.03 1339.11,-90.02 1303.04,-75.63"/>
<polygon fill="#63b8ff" stroke="#63b8ff" points="1429.39,-129.8 1439.98,-130.25 1431.99,-123.29 1429.39,-129.8"/>
</a>
</g>
</g>
<!-- Node12&#45;&gt;Node7 -->
<g id="edge17_Node000012_Node000007" class="edge">
<title>Node12&#45;&gt;Node7</title>
<g id="a_edge17_Node000012_Node000007"><a xlink:title=" ">
<path fill="none" stroke="#63b8ff" d="M1186.03,-168.98C1179.68,-165.6 1173.64,-161.72 1168.25,-157.26 1144,-137.19 1157.34,-115.27 1132.25,-96.26 1127.93,-92.99 1123.21,-90.14 1118.26,-87.66"/>
<polygon fill="#63b8ff" stroke="#63b8ff" points="1184.3,-172.03 1194.83,-173.21 1187.33,-165.72 1184.3,-172.03"/>
</a>
</g>
</g>
<!-- Node12&#45;&gt;Node8 -->
<g id="edge14_Node000012_Node000008" class="edge">
<title>Node12&#45;&gt;Node8</title>
<g id="a_edge14_Node000012_Node000008"><a xlink:title=" ">
<path fill="none" stroke="#63b8ff" d="M1156.56,-180.64C1002.02,-169.07 702.65,-157.54 456.5,-213.26 417.85,-222.01 374.49,-236.79 347.08,-246.78"/>
<polygon fill="#63b8ff" stroke="#63b8ff" points="1156.14,-184.12 1166.38,-181.39 1156.68,-177.14 1156.14,-184.12"/>
</a>
</g>
</g>
<!-- Node12&#45;&gt;Node10 -->
<g id="edge18_Node000012_Node000010" class="edge">
<title>Node12&#45;&gt;Node10</title>
<g id="a_edge18_Node000012_Node000010"><a xlink:title=" ">
<path fill="none" stroke="#63b8ff" d="M1365.46,-184.71C1427.05,-181.31 1506.76,-176.77 1577.5,-172.26 1589.04,-171.52 1601.16,-170.72 1613.15,-169.9"/>
<polygon fill="#63b8ff" stroke="#63b8ff" points="1365.48,-181.2 1355.68,-185.24 1365.86,-188.19 1365.48,-181.2"/>
</a>
</g>
</g>
<!-- Node12&#45;&gt;Node13 -->
<g id="edge15_Node000012_Node000013" class="edge">
<title>Node12&#45;&gt;Node13</title>
<g id="a_edge15_Node000012_Node000013"><a xlink:title=" ">
<path fill="none" stroke="#63b8ff" d="M1156.71,-207.75C1148.44,-209 1140.21,-210.18 1132.25,-211.26 967.69,-233.53 775.18,-252.51 663.06,-262.86"/>
<polygon fill="#63b8ff" stroke="#63b8ff" points="1157.13,-211.23 1166.49,-206.26 1156.08,-204.31 1157.13,-211.23"/>
</a>
</g>
</g>
<!-- Node14 -->
<g id="Node000014" class="node">
<title>Node14</title>
<g id="a_Node000014"><a xlink:href="classediteurpanovisu_1_1EditeurPanovisu.html#a9b46b222714af12c06ec33d410400773" target="_top" xlink:title=" ">
<polygon fill="white" stroke="#666666" points="905.5,-219.26 714.75,-219.26 714.75,-187.26 905.5,-187.26 905.5,-219.26"/>
<text xml:space="preserve" text-anchor="start" x="722.75" y="-205.76" font-family="Helvetica,sans-Serif" font-size="10.00">editeurpanovisu.EditeurPanovisu.projets</text>
<text xml:space="preserve" text-anchor="middle" x="810.12" y="-193.76" font-family="Helvetica,sans-Serif" font-size="10.00">Fermer</text>
</a>
</g>
</g>
<!-- Node12&#45;&gt;Node14 -->
<g id="edge19_Node000012_Node000014" class="edge">
<title>Node12&#45;&gt;Node14</title>
<g id="a_edge19_Node000012_Node000014"><a xlink:title=" ">
<path fill="none" stroke="#63b8ff" d="M1156.39,-193.26C1080.85,-195.45 979.3,-198.39 905.9,-200.52"/>
<polygon fill="#63b8ff" stroke="#63b8ff" points="1156.4,-196.76 1166.3,-192.97 1156.2,-189.77 1156.4,-196.76"/>
</a>
</g>
</g>
<!-- Node15 -->
<g id="Node000015" class="node">
<title>Node15</title>
<g id="a_Node000015"><a xlink:href="classediteurpanovisu_1_1EditeurPanovisu.html#ac9d449399ccd38843fa12e716f0c9611" target="_top" xlink:title=" ">
<polygon fill="white" stroke="#666666" points="1132.25,-339.26 941.5,-339.26 941.5,-307.26 1132.25,-307.26 1132.25,-339.26"/>
<text xml:space="preserve" text-anchor="start" x="949.5" y="-325.76" font-family="Helvetica,sans-Serif" font-size="10.00">editeurpanovisu.EditeurPanovisu.projets</text>
<text xml:space="preserve" text-anchor="middle" x="1036.88" y="-313.76" font-family="Helvetica,sans-Serif" font-size="10.00">Nouveau</text>
</a>
</g>
</g>
<!-- Node12&#45;&gt;Node15 -->
<g id="edge21_Node000012_Node000015" class="edge">
<title>Node12&#45;&gt;Node15</title>
<g id="a_edge21_Node000012_Node000015"><a xlink:title=" ">
<path fill="none" stroke="#63b8ff" d="M1235.85,-214.38C1211.53,-237.48 1172.03,-271.88 1132.25,-293.26 1122.41,-298.55 1111.48,-303.09 1100.65,-306.92"/>
<polygon fill="#63b8ff" stroke="#63b8ff" points="1238.23,-216.95 1243,-207.48 1233.37,-211.91 1238.23,-216.95"/>
</a>
</g>
</g>
<!-- Node16 -->
<g id="Node000016" class="node">
<title>Node16</title>
<g id="a_Node000016"><a xlink:href="classediteurpanovisu_1_1EditeurPanovisu.html#a2b3125ffe2e6291efacf19df6cb30a8d" target="_top" xlink:title=" ">
<polygon fill="white" stroke="#666666" points="900.62,-295.26 719.62,-295.26 719.62,-275.26 900.62,-275.26 900.62,-295.26"/>
<text xml:space="preserve" text-anchor="middle" x="810.12" y="-281.76" font-family="Helvetica,sans-Serif" font-size="10.00">editeurpanovisu.EditeurPanovisu.start</text>
</a>
</g>
</g>
<!-- Node12&#45;&gt;Node16 -->
<g id="edge26_Node000012_Node000016" class="edge">
<title>Node12&#45;&gt;Node16</title>
<g id="a_edge26_Node000012_Node000016"><a xlink:title=" ">
<path fill="none" stroke="#63b8ff" d="M1225.09,-212.59C1200.22,-227.34 1165.44,-245.65 1132.25,-255.26 1056.28,-277.26 966.38,-284.12 901.05,-285.84"/>
<polygon fill="#63b8ff" stroke="#63b8ff" points="1226.73,-215.69 1233.48,-207.52 1223.11,-209.7 1226.73,-215.69"/>
</a>
</g>
</g>
<!-- Node17 -->
<g id="Node000017" class="node">
<title>Node17</title>
<g id="a_Node000017"><a xlink:href="classediteurpanovisu_1_1EditeurPanovisu.html#aef8c9b28c3e88d6e27e3f62b9a901134" target="_top" xlink:title=" ">
<polygon fill="white" stroke="#666666" points="1130.75,-137.26 943,-137.26 943,-105.26 1130.75,-105.26 1130.75,-137.26"/>
<text xml:space="preserve" text-anchor="start" x="951" y="-123.76" font-family="Helvetica,sans-Serif" font-size="10.00">editeurpanovisu.EditeurPanovisu.sauve</text>
<text xml:space="preserve" text-anchor="middle" x="1036.88" y="-111.76" font-family="Helvetica,sans-Serif" font-size="10.00">Fichiers</text>
</a>
</g>
</g>
<!-- Node12&#45;&gt;Node17 -->
<g id="edge25_Node000012_Node000017" class="edge">
<title>Node12&#45;&gt;Node17</title>
<g id="a_edge25_Node000012_Node000017"><a xlink:title=" ">
<path fill="none" stroke="#63b8ff" d="M1196.49,-170.53C1163.04,-160.14 1122.5,-147.55 1090.78,-137.69"/>
<polygon fill="#63b8ff" stroke="#63b8ff" points="1195.04,-173.75 1205.63,-173.37 1197.12,-167.06 1195.04,-173.75"/>
</a>
</g>
</g>
<!-- Node13&#45;&gt;Node8 -->
<g id="edge16_Node000013_Node000008" class="edge">
<title>Node13&#45;&gt;Node8</title>
<g id="a_edge16_Node000013_Node000008"><a xlink:title=" ">
<path fill="none" stroke="#63b8ff" d="M460.99,-265.28C447.68,-264.53 434.09,-263.76 420.85,-263.01"/>
<polygon fill="#63b8ff" stroke="#63b8ff" points="460.4,-268.75 470.58,-265.82 460.79,-261.76 460.4,-268.75"/>
</a>
</g>
</g>
<!-- Node14&#45;&gt;Node8 -->
<g id="edge20_Node000014_Node000008" class="edge">
<title>Node14&#45;&gt;Node8</title>
<g id="a_edge20_Node000014_Node000008"><a xlink:title=" ">
<path fill="none" stroke="#63b8ff" d="M703.04,-214.96C617.07,-224.44 497.04,-237.67 414.23,-246.8"/>
<polygon fill="#63b8ff" stroke="#63b8ff" points="703.35,-218.44 712.9,-213.87 702.58,-211.49 703.35,-218.44"/>
</a>
</g>
</g>
<!-- Node15&#45;&gt;Node8 -->
<g id="edge22_Node000015_Node000008" class="edge">
<title>Node15&#45;&gt;Node8</title>
<g id="a_edge22_Node000015_Node000008"><a xlink:title=" ">
<path fill="none" stroke="#63b8ff" d="M929.7,-325.6C812.92,-326.49 620.12,-322.97 456.5,-296.26 418.52,-290.06 376.08,-277 348.62,-267.71"/>
<polygon fill="#63b8ff" stroke="#63b8ff" points="929.62,-329.11 939.59,-325.52 929.56,-322.11 929.62,-329.11"/>
</a>
</g>
</g>
<!-- Node15&#45;&gt;Node16 -->
<g id="edge23_Node000015_Node000016" class="edge">
<title>Node15&#45;&gt;Node16</title>
<g id="a_edge23_Node000015_Node000016"><a xlink:title=" ">
<path fill="none" stroke="#63b8ff" d="M930.08,-305.37C910.55,-302.07 890.75,-298.72 873.06,-295.73"/>
<polygon fill="#63b8ff" stroke="#63b8ff" points="929.28,-308.79 939.72,-307 930.44,-301.88 929.28,-308.79"/>
</a>
</g>
</g>
<!-- Node16&#45;&gt;Node13 -->
<g id="edge24_Node000016_Node000013" class="edge">
<title>Node16&#45;&gt;Node13</title>
<g id="a_edge24_Node000016_Node000013"><a xlink:title=" ">
<path fill="none" stroke="#63b8ff" d="M707.98,-279.37C693.15,-278.51 677.93,-277.62 663.24,-276.77"/>
<polygon fill="#63b8ff" stroke="#63b8ff" points="707.53,-282.85 717.72,-279.94 707.94,-275.86 707.53,-282.85"/>
</a>
</g>
</g>
<!-- Node18&#45;&gt;Node8 -->
<g id="edge28_Node000018_Node000008" class="edge">
<title>Node18&#45;&gt;Node8</title>
<g id="a_edge28_Node000018_Node000008"><a xlink:title=" ">
<path fill="none" stroke="#63b8ff" d="M1184.63,-40.33C1035.38,-7.14 695.93,46.6 456.5,-81.26 384.06,-119.94 337.56,-215.26 323.72,-246.88"/>
<polygon fill="#63b8ff" stroke="#63b8ff" points="1183.48,-43.65 1194,-42.44 1185.02,-36.83 1183.48,-43.65"/>
</a>
</g>
</g>
<!-- Node19&#45;&gt;Node5 -->
<g id="edge31_Node000019_Node000005" class="edge">
<title>Node19&#45;&gt;Node5</title>
<g id="a_edge31_Node000019_Node000005"><a xlink:title=" ">
<path fill="none" stroke="#63b8ff" d="M2251.44,-338.05C2250.78,-337.47 2250.13,-336.87 2249.5,-336.26 2213.68,-301.73 2241.95,-271.08 2213.5,-230.26 2198.91,-209.33 2176.01,-191.5 2157.99,-179.5"/>
<polygon fill="#63b8ff" stroke="#63b8ff" points="2249.34,-340.85 2259.48,-343.92 2253.47,-335.2 2249.34,-340.85"/>
</a>
</g>
</g>
<!-- Node20 -->
<g id="Node000020" class="node">
<title>Node20</title>
<g id="a_Node000020"><a xlink:href="classediteurpanovisu_1_1GestionnaireInterfaceController.html#a8c634f775c31c1a4db22d5ef0659f7e4" target="_top" xlink:title=" ">
<polygon fill="white" stroke="#666666" points="2203.38,-377.26 2056.12,-377.26 2056.12,-345.26 2203.38,-345.26 2203.38,-377.26"/>
<text xml:space="preserve" text-anchor="start" x="2064.12" y="-363.76" font-family="Helvetica,sans-Serif" font-size="10.00">editeurpanovisu.Gestionnaire</text>
<text xml:space="preserve" text-anchor="middle" x="2129.75" y="-351.76" font-family="Helvetica,sans-Serif" font-size="10.00">InterfaceController.afficheTitre</text>
</a>
</g>
</g>
<!-- Node19&#45;&gt;Node20 -->
<g id="edge32_Node000019_Node000020" class="edge">
<title>Node19&#45;&gt;Node20</title>
<g id="a_edge32_Node000019_Node000020"><a xlink:title=" ">
<path fill="none" stroke="#63b8ff" d="M2237.87,-361.26C2226.41,-361.26 2214.84,-361.26 2203.76,-361.26"/>
<polygon fill="#63b8ff" stroke="#63b8ff" points="2237.76,-364.76 2247.76,-361.26 2237.76,-357.76 2237.76,-364.76"/>
</a>
</g>
</g>
<!-- Node19&#45;&gt;Node21 -->
<g id="edge34_Node000019_Node000021" class="edge">
<title>Node19&#45;&gt;Node21</title>
<g id="a_edge34_Node000019_Node000021"><a xlink:title=" ">
<path fill="none" stroke="#63b8ff" d="M2255.39,-342.61C2241.52,-339.97 2227.14,-337.67 2213.5,-336.26 2139.45,-328.6 2111.49,-300.86 2046,-336.26 2020.3,-350.15 2033.03,-373.29 2010,-391.26 2003.11,-396.64 1995.18,-401.09 1986.99,-404.76"/>
<polygon fill="#63b8ff" stroke="#63b8ff" points="2254.41,-345.98 2264.9,-344.5 2255.78,-339.12 2254.41,-345.98"/>
</a>
</g>
</g>
<!-- Node19&#45;&gt;Node22 -->
<g id="edge35_Node000019_Node000022" class="edge">
<title>Node19&#45;&gt;Node22</title>
<g id="a_edge35_Node000019_Node000022"><a xlink:title=" ">
<path fill="none" stroke="#63b8ff" d="M2257.16,-340.27C2254.54,-339 2251.98,-337.67 2249.5,-336.26 2230.63,-325.54 2230.99,-316.11 2213.5,-303.26 2197.57,-291.56 2178.57,-280.36 2162.8,-271.73"/>
<polygon fill="#63b8ff" stroke="#63b8ff" points="2255.58,-343.39 2266.14,-344.2 2258.39,-336.98 2255.58,-343.39"/>
</a>
</g>
</g>
<!-- Node20&#45;&gt;Node21 -->
<g id="edge33_Node000020_Node000021" class="edge">
<title>Node20&#45;&gt;Node21</title>
<g id="a_edge33_Node000020_Node000021"><a xlink:title=" ">
<path fill="none" stroke="#63b8ff" d="M2061.67,-380.87C2035.17,-388.62 2005.06,-397.42 1979.73,-404.82"/>
<polygon fill="#63b8ff" stroke="#63b8ff" points="2062.32,-384.32 2070.94,-378.16 2060.36,-377.61 2062.32,-384.32"/>
</a>
</g>
</g>
<!-- Node22&#45;&gt;Node6 -->
<g id="edge36_Node000022_Node000006" class="edge">
<title>Node22&#45;&gt;Node6</title>
<g id="a_edge36_Node000022_Node000006"><a xlink:title=" ">
<path fill="none" stroke="#63b8ff" d="M2081.56,-234.11C2044.67,-217.57 1994.13,-194.92 1960.22,-179.72"/>
<polygon fill="#63b8ff" stroke="#63b8ff" points="2080.12,-237.3 2090.67,-238.19 2082.98,-230.91 2080.12,-237.3"/>
</a>
</g>
</g>
<!-- Node23 -->
<g id="Node000023" class="node">
<title>Node23</title>
<g id="a_Node000023"><a xlink:href="classediteurpanovisu_1_1EditeurPanovisu.html#a53cccf6a6b2693c872947460b66ae8ee" target="_top" xlink:title=" ">
<polygon fill="white" stroke="#666666" points="1348.5,-399.26 1173.5,-399.26 1173.5,-367.26 1348.5,-367.26 1348.5,-399.26"/>
<text xml:space="preserve" text-anchor="start" x="1181.5" y="-385.76" font-family="Helvetica,sans-Serif" font-size="10.00">editeurpanovisu.EditeurPanovisu.tsk</text>
<text xml:space="preserve" text-anchor="middle" x="1261" y="-373.76" font-family="Helvetica,sans-Serif" font-size="10.00">ChargeListeFichiers</text>
</a>
</g>
</g>
<!-- Node22&#45;&gt;Node23 -->
<g id="edge37_Node000022_Node000023" class="edge">
<title>Node22&#45;&gt;Node23</title>
<g id="a_edge37_Node000022_Node000023"><a xlink:title=" ">
<path fill="none" stroke="#63b8ff" d="M2047.5,-271.84C1940.26,-293.22 1745.41,-330.39 1577.5,-353.26 1500.49,-363.75 1412.41,-371.8 1348.93,-376.9"/>
<polygon fill="#63b8ff" stroke="#63b8ff" points="2047.95,-275.32 2057.07,-269.92 2046.58,-268.45 2047.95,-275.32"/>
</a>
</g>
</g>
<!-- Node23&#45;&gt;Node15 -->
<g id="edge40_Node000023_Node000015" class="edge">
<title>Node23&#45;&gt;Node15</title>
<g id="a_edge40_Node000023_Node000015"><a xlink:title=" ">
<path fill="none" stroke="#63b8ff" d="M1188.17,-363.86C1159.3,-356.06 1126.39,-347.17 1098.73,-339.7"/>
<polygon fill="#63b8ff" stroke="#63b8ff" points="1186.98,-367.16 1197.55,-366.39 1188.81,-360.4 1186.98,-367.16"/>
</a>
</g>
</g>
<!-- Node24 -->
<g id="Node000024" class="node">
<title>Node24</title>
<g id="a_Node000024"><a xlink:href="classediteurpanovisu_1_1EditeurPanovisu.html#a924d3ccff3e4f402d2309cd2eade3237" target="_top" xlink:title=" ">
<polygon fill="white" stroke="#666666" points="678.75,-443.26 456.5,-443.26 456.5,-411.26 678.75,-411.26 678.75,-443.26"/>
<text xml:space="preserve" text-anchor="start" x="464.5" y="-429.76" font-family="Helvetica,sans-Serif" font-size="10.00">editeurpanovisu.EditeurPanovisu.panoramiques</text>
<text xml:space="preserve" text-anchor="middle" x="567.62" y="-417.76" font-family="Helvetica,sans-Serif" font-size="10.00">Ajouter</text>
</a>
</g>
</g>
<!-- Node23&#45;&gt;Node24 -->
<g id="edge38_Node000023_Node000024" class="edge">
<title>Node23&#45;&gt;Node24</title>
<g id="a_edge38_Node000023_Node000024"><a xlink:title=" ">
<path fill="none" stroke="#63b8ff" d="M1161.86,-389.51C1034.35,-397.62 812.35,-411.75 679.08,-420.23"/>
<polygon fill="#63b8ff" stroke="#63b8ff" points="1161.87,-393.01 1171.63,-388.88 1161.42,-386.03 1161.87,-393.01"/>
</a>
</g>
</g>
<!-- Node24&#45;&gt;Node8 -->
<g id="edge39_Node000024_Node000008" class="edge">
<title>Node24&#45;&gt;Node8</title>
<g id="a_edge39_Node000024_Node000008"><a xlink:title=" ">
<path fill="none" stroke="#63b8ff" d="M507.07,-406.69C490.13,-399.71 472.07,-391.14 456.5,-381.26 402.3,-346.87 349.09,-290.53 328.41,-267.53"/>
<polygon fill="#63b8ff" stroke="#63b8ff" points="505.44,-409.81 516.03,-410.27 508.04,-403.31 505.44,-409.81"/>
</a>
</g>
</g>
<!-- Node26 -->
<g id="Node000026" class="node">
<title>Node26</title>
<g id="a_Node000026"><a xlink:href="classediteurpanovisu_1_1EditeurPanovisu.html#aaee69ab54364f89b58458c744a4195c0" target="_top" xlink:title=" ">
<polygon fill="white" stroke="#666666" points="1577.5,-75.26 1389.75,-75.26 1389.75,-43.26 1577.5,-43.26 1577.5,-75.26"/>
<text xml:space="preserve" text-anchor="start" x="1397.75" y="-61.76" font-family="Helvetica,sans-Serif" font-size="10.00">editeurpanovisu.EditeurPanovisu.sauve</text>
<text xml:space="preserve" text-anchor="middle" x="1483.62" y="-49.76" font-family="Helvetica,sans-Serif" font-size="10.00">FichierProjet</text>
</a>
</g>
</g>
<!-- Node25&#45;&gt;Node26 -->
<g id="edge49_Node000025_Node000026" class="edge">
<title>Node25&#45;&gt;Node26</title>
<g id="a_edge49_Node000025_Node000026"><a xlink:title=" ">
<path fill="none" stroke="#63b8ff" d="M2629.93,-59.26C2551.24,-59.26 2435.77,-59.26 2335,-59.26 2335,-59.26 2335,-59.26 1921.5,-59.26 1802.99,-59.26 1666.4,-59.26 1577.94,-59.26"/>
<polygon fill="#63b8ff" stroke="#63b8ff" points="2629.76,-62.76 2639.76,-59.26 2629.76,-55.76 2629.76,-62.76"/>
</a>
</g>
</g>
<!-- Node26&#45;&gt;Node12 -->
<g id="edge50_Node000026_Node000012" class="edge">
<title>Node26&#45;&gt;Node12</title>
<g id="a_edge50_Node000026_Node000012"><a xlink:title=" ">
<path fill="none" stroke="#63b8ff" d="M1445.36,-81.38C1401.25,-107.58 1328.82,-150.58 1289.5,-173.93"/>
<polygon fill="#63b8ff" stroke="#63b8ff" points="1447.02,-84.47 1453.83,-76.36 1443.44,-78.46 1447.02,-84.47"/>
</a>
</g>
</g>
<!-- Node26&#45;&gt;Node18 -->
<g id="edge51_Node000026_Node000018" class="edge">
<title>Node26&#45;&gt;Node18</title>
<g id="a_edge51_Node000026_Node000018"><a xlink:title=" ">
<path fill="none" stroke="#63b8ff" d="M1378.13,-59.26C1370.14,-59.26 1362.11,-59.26 1354.21,-59.26"/>
<polygon fill="#63b8ff" stroke="#63b8ff" points="1377.87,-62.76 1387.87,-59.26 1377.87,-55.76 1377.87,-62.76"/>
</a>
</g>
</g>
</g>
</svg>

<g id="navigator" transform="translate(0 0)" fill="#404254">
  <rect fill="#f2f5e9" fill-opacity="0.5" stroke="#606060" stroke-width=".5" x="0" y="0" width="60" height="60"/>
  <use id="zoomplus" xlink:href="#zoomPlus" x="17" y="9" onmousedown="handleZoom(evt,'in')"/>
  <use id="zoomminus" xlink:href="#zoomMin" x="42" y="9" onmousedown="handleZoom(evt,'out')"/>
  <use id="reset" xlink:href="#resetDef" x="30" y="36" onmousedown="handleReset()"/>
   <use id="arrowup" xlink:href="#arrowUp" x="0" y="0" onmousedown="handlePan(0,-1)"/>
  <use id="arrowright" xlink:href="#arrowRight" x="0" y="0" onmousedown="handlePan(1,0)"/>
  <use id="arrowdown" xlink:href="#arrowDown" x="0" y="0" onmousedown="handlePan(0,1)"/>
  <use id="arrowleft" xlink:href="#arrowLeft" x="0" y="0" onmousedown="handlePan(-1,0)"/>
</g>
<svg viewBox="0 0 15 15" width="100%" height="30px" preserveAspectRatio="xMaxYMin meet">
 <g id="arrow_out" transform="scale(0.3 0.3)">
  <a xlink:href="classediteurpanovisu_1_1GestionnaireInterfaceController_ac7dde18379fb126e6ab4dc4b4096428b_icgraph_org.svg" target="_base">
   <rect id="button" ry="5" rx="5" y="6" x="6" height="38" width="38"
        fill="#f2f5e9" fill-opacity="0.5" stroke="#606060" stroke-width="1.0"/>
   <path id="arrow"
     d="M 11.500037,31.436501 C 11.940474,20.09759 22.043105,11.32322 32.158766,21.979434 L 37.068811,17.246167 C 37.068811,17.246167 37.088388,32 37.088388,32 L 22.160133,31.978069 C 22.160133,31.978069 26.997745,27.140456 26.997745,27.140456 C 18.528582,18.264221 13.291696,25.230495 11.500037,31.436501 z"
     style="fill:#404040;"/>
  </a>
 </g>
</svg>

<style type='text/css'>
<![CDATA[
[data-mouse-over-selected='false'] { opacity: 0.7; }
[data-mouse-over-selected='true']  { opacity: 1.0; }
]]>
</style>
<script type="application/ecmascript"><![CDATA[
document.addEventListener('DOMContentLoaded', (event) => {
  highlightEdges();
  highlightAdjacentNodes();
});
]]></script>
</svg>
