<?xml version="1.0" encoding="UTF-8" standalone="no"?>
<!DOCTYPE svg PUBLIC "-//W3C//DTD SVG 1.1//EN"
 "http://www.w3.org/Graphics/SVG/1.1/DTD/svg11.dtd">
<!-- Generated by graphviz version 13.1.2 (20250808.2320)
 -->
<!-- Title: editeurpanovisu.EditeurPanovisu.choixZone Pages: 1 -->
<svg width="670pt" height="352pt"
 viewBox="0.00 0.00 670.00 352.00" xmlns="http://www.w3.org/2000/svg" xmlns:xlink="http://www.w3.org/1999/xlink">
<g id="graph0" class="graph" transform="scale(1 1) rotate(0) translate(4 348)">
<title>editeurpanovisu.EditeurPanovisu.choixZone</title>
<!-- Node1 -->
<g id="Node000001" class="node">
<title>Node1</title>
<g id="a_Node000001"><a xlink:title=" ">
<polygon fill="#999999" stroke="#666666" points="206.5,-220 0,-220 0,-200 206.5,-200 206.5,-220"/>
<text xml:space="preserve" text-anchor="middle" x="103.25" y="-206.5" font-family="Helvetica,sans-Serif" font-size="10.00">editeurpanovisu.EditeurPanovisu.choixZone</text>
</a>
</g>
</g>
<!-- Node2 -->
<g id="Node000002" class="node">
<title>Node2</title>
<g id="a_Node000002"><a xlink:href="classediteurpanovisu_1_1EditeurPanovisu.html#a29d4d3ebbb92f066b5e8218cac9fb791" target="_top" xlink:title=" ">
<polygon fill="white" stroke="#666666" points="433.25,-308 243.25,-308 243.25,-276 433.25,-276 433.25,-308"/>
<text xml:space="preserve" text-anchor="start" x="251.25" y="-294.5" font-family="Helvetica,sans-Serif" font-size="10.00">editeurpanovisu.EditeurPanovisu.affiche</text>
<text xml:space="preserve" text-anchor="middle" x="338.25" y="-282.5" font-family="Helvetica,sans-Serif" font-size="10.00">BarrePersonnalisee</text>
</a>
</g>
</g>
<!-- Node1&#45;&gt;Node2 -->
<g id="edge1_Node000001_Node000002" class="edge">
<title>Node1&#45;&gt;Node2</title>
<g id="a_edge1_Node000001_Node000002"><a xlink:title=" ">
<path fill="none" stroke="#63b8ff" d="M151.06,-220.4C177.73,-229.57 211.85,-242.39 242.5,-253 260.56,-259.25 280.72,-265.71 297.79,-271.75"/>
<polygon fill="#63b8ff" stroke="#63b8ff" points="296.49,-275 307.09,-275.14 298.89,-268.42 296.49,-275"/>
</a>
</g>
</g>
<!-- Node3 -->
<g id="Node000003" class="node">
<title>Node3</title>
<g id="a_Node000003"><a xlink:href="classediteurpanovisu_1_1ZoneTelecommande.html#a0f64c648f9559ce62bcc2c7f911e152b" target="_top" xlink:title=" ">
<polygon fill="white" stroke="#666666" points="661.5,-344 470,-344 470,-312 661.5,-312 661.5,-344"/>
<text xml:space="preserve" text-anchor="start" x="478" y="-330.5" font-family="Helvetica,sans-Serif" font-size="10.00">editeurpanovisu.ZoneTelecommande.get</text>
<text xml:space="preserve" text-anchor="middle" x="565.75" y="-318.5" font-family="Helvetica,sans-Serif" font-size="10.00">StrCoordonneesZone</text>
</a>
</g>
</g>
<!-- Node1&#45;&gt;Node3 -->
<g id="edge6_Node000001_Node000003" class="edge">
<title>Node1&#45;&gt;Node3</title>
<g id="a_edge6_Node000001_Node000003"><a xlink:title=" ">
<path fill="none" stroke="#63b8ff" d="M113.01,-220.16C133.14,-242.68 185.4,-296.39 242.5,-317 311.42,-341.88 394.11,-344.19 458.46,-340.51"/>
<polygon fill="#63b8ff" stroke="#63b8ff" points="458.58,-344.01 468.34,-339.88 458.14,-337.02 458.58,-344.01"/>
</a>
</g>
</g>
<!-- Node4 -->
<g id="Node000004" class="node">
<title>Node4</title>
<g id="a_Node000004"><a xlink:href="classediteurpanovisu_1_1ZoneTelecommande.html#a5891adda23405e784b8f56effcb6b004" target="_top" xlink:title=" ">
<polygon fill="white" stroke="#666666" points="661.5,-286 470,-286 470,-254 661.5,-254 661.5,-286"/>
<text xml:space="preserve" text-anchor="start" x="478" y="-272.5" font-family="Helvetica,sans-Serif" font-size="10.00">editeurpanovisu.ZoneTelecommande.get</text>
<text xml:space="preserve" text-anchor="middle" x="565.75" y="-260.5" font-family="Helvetica,sans-Serif" font-size="10.00">StrTypeZone</text>
</a>
</g>
</g>
<!-- Node1&#45;&gt;Node4 -->
<g id="edge8_Node000001_Node000004" class="edge">
<title>Node1&#45;&gt;Node4</title>
<g id="a_edge8_Node000001_Node000004"><a xlink:title=" ">
<path fill="none" stroke="#63b8ff" d="M184.73,-220.49C260.64,-230.38 374.94,-245.27 458.35,-256.14"/>
<polygon fill="#63b8ff" stroke="#63b8ff" points="457.79,-259.59 468.15,-257.41 458.69,-252.65 457.79,-259.59"/>
</a>
</g>
</g>
<!-- Node5 -->
<g id="Node000005" class="node">
<title>Node5</title>
<g id="a_Node000005"><a xlink:href="leaflet_8js.html#a73aff07b65d7c0b09ccf6b4c4f1b7a9d" target="_top" xlink:title=" ">
<polygon fill="white" stroke="#666666" points="580.15,-220 551.35,-220 551.35,-200 580.15,-200 580.15,-220"/>
<text xml:space="preserve" text-anchor="middle" x="565.75" y="-206.5" font-family="Helvetica,sans-Serif" font-size="10.00">i</text>
</a>
</g>
</g>
<!-- Node1&#45;&gt;Node5 -->
<g id="edge9_Node000001_Node000005" class="edge">
<title>Node1&#45;&gt;Node5</title>
<g id="a_edge9_Node000001_Node000005"><a xlink:title=" ">
<path fill="none" stroke="#63b8ff" d="M206.74,-210C314.84,-210 477.93,-210 539.77,-210"/>
<polygon fill="#63b8ff" stroke="#63b8ff" points="539.55,-213.5 549.55,-210 539.55,-206.5 539.55,-213.5"/>
</a>
</g>
</g>
<!-- Node6 -->
<g id="Node000006" class="node">
<title>Node6</title>
<g id="a_Node000006"><a xlink:href="classediteurpanovisu_1_1ZoneTelecommande.html#a957b162f5d5a34f7521b0f79c77a37c8" target="_top" xlink:title=" ">
<polygon fill="white" stroke="#666666" points="434,-32 242.5,-32 242.5,0 434,0 434,-32"/>
<text xml:space="preserve" text-anchor="start" x="250.5" y="-18.5" font-family="Helvetica,sans-Serif" font-size="10.00">editeurpanovisu.ZoneTelecommande.get</text>
<text xml:space="preserve" text-anchor="middle" x="338.25" y="-6.5" font-family="Helvetica,sans-Serif" font-size="10.00">StrIdZone</text>
</a>
</g>
</g>
<!-- Node1&#45;&gt;Node6 -->
<g id="edge7_Node000001_Node000006" class="edge">
<title>Node1&#45;&gt;Node6</title>
<g id="a_edge7_Node000001_Node000006"><a xlink:title=" ">
<path fill="none" stroke="#63b8ff" d="M109.55,-199.76C125.41,-170.2 175.55,-84.06 242.5,-41 244.51,-39.71 246.59,-38.48 248.72,-37.31"/>
<polygon fill="#63b8ff" stroke="#63b8ff" points="250.18,-40.5 257.65,-32.98 247.12,-34.2 250.18,-40.5"/>
</a>
</g>
</g>
<!-- Node7 -->
<g id="Node000007" class="node">
<title>Node7</title>
<g id="a_Node000007"><a xlink:href="classediteurpanovisu_1_1EditeurPanovisu.html#a9c8325680f840f88620058af793ed111" target="_top" xlink:title=" ">
<polygon fill="white" stroke="#666666" points="422.75,-132 253.75,-132 253.75,-100 422.75,-100 422.75,-132"/>
<text xml:space="preserve" text-anchor="start" x="261.75" y="-118.5" font-family="Helvetica,sans-Serif" font-size="10.00">editeurpanovisu.EditeurPanovisu.ol</text>
<text xml:space="preserve" text-anchor="middle" x="338.25" y="-106.5" font-family="Helvetica,sans-Serif" font-size="10.00">CreeAncresPourCercle</text>
</a>
</g>
</g>
<!-- Node1&#45;&gt;Node7 -->
<g id="edge10_Node000001_Node000007" class="edge">
<title>Node1&#45;&gt;Node7</title>
<g id="a_edge10_Node000001_Node000007"><a xlink:title=" ">
<path fill="none" stroke="#63b8ff" d="M122.05,-199.62C147.88,-184.92 197.57,-157.94 242.5,-141 247.37,-139.17 252.42,-137.41 257.56,-135.75"/>
<polygon fill="#63b8ff" stroke="#63b8ff" points="258.2,-139.21 266.71,-132.9 256.12,-132.53 258.2,-139.21"/>
</a>
</g>
</g>
<!-- Node10 -->
<g id="Node000010" class="node">
<title>Node10</title>
<g id="a_Node000010"><a xlink:href="classediteurpanovisu_1_1EditeurPanovisu.html#a6f18f6928e4c9edd8bbca32548e92a8e" target="_top" xlink:title=" ">
<polygon fill="white" stroke="#666666" points="422.75,-182 253.75,-182 253.75,-150 422.75,-150 422.75,-182"/>
<text xml:space="preserve" text-anchor="start" x="261.75" y="-168.5" font-family="Helvetica,sans-Serif" font-size="10.00">editeurpanovisu.EditeurPanovisu.ol</text>
<text xml:space="preserve" text-anchor="middle" x="338.25" y="-156.5" font-family="Helvetica,sans-Serif" font-size="10.00">CreeAncresPourPolygone</text>
</a>
</g>
</g>
<!-- Node1&#45;&gt;Node10 -->
<g id="edge13_Node000001_Node000010" class="edge">
<title>Node1&#45;&gt;Node10</title>
<g id="a_edge13_Node000001_Node000010"><a xlink:title=" ">
<path fill="none" stroke="#63b8ff" d="M159.76,-199.52C184.48,-194.85 214.3,-189.22 242.38,-183.92"/>
<polygon fill="#63b8ff" stroke="#63b8ff" points="242.79,-187.4 251.96,-182.11 241.49,-180.52 242.79,-187.4"/>
</a>
</g>
</g>
<!-- Node11 -->
<g id="Node000011" class="node">
<title>Node11</title>
<g id="a_Node000011"><a xlink:href="classediteurpanovisu_1_1EditeurPanovisu.html#aa6a068055ee9e2838ba26048a57ac8a6" target="_top" xlink:title=" ">
<polygon fill="white" stroke="#666666" points="422.75,-82 253.75,-82 253.75,-50 422.75,-50 422.75,-82"/>
<text xml:space="preserve" text-anchor="start" x="261.75" y="-68.5" font-family="Helvetica,sans-Serif" font-size="10.00">editeurpanovisu.EditeurPanovisu.ol</text>
<text xml:space="preserve" text-anchor="middle" x="338.25" y="-56.5" font-family="Helvetica,sans-Serif" font-size="10.00">CreeAncresPourRectangle</text>
</a>
</g>
</g>
<!-- Node1&#45;&gt;Node11 -->
<g id="edge17_Node000001_Node000011" class="edge">
<title>Node1&#45;&gt;Node11</title>
<g id="a_edge17_Node000001_Node000011"><a xlink:title=" ">
<path fill="none" stroke="#63b8ff" d="M113.16,-199.64C133.6,-176.53 186.45,-120.49 242.5,-91 245.39,-89.48 248.39,-88.04 251.45,-86.69"/>
<polygon fill="#63b8ff" stroke="#63b8ff" points="252.7,-89.96 260.67,-82.97 250.09,-83.47 252.7,-89.96"/>
</a>
</g>
</g>
<!-- Node2&#45;&gt;Node1 -->
<g id="edge2_Node000002_Node000001" class="edge">
<title>Node2&#45;&gt;Node1</title>
<g id="a_edge2_Node000002_Node000001"><a xlink:title=" ">
<path fill="none" stroke="#63b8ff" d="M256.01,-275.58C251.43,-274.06 246.9,-272.52 242.5,-271 201.61,-256.85 154.55,-238.76 127.23,-225.49"/>
<polygon fill="#63b8ff" stroke="#63b8ff" points="128.97,-222.45 118.47,-221 125.77,-228.68 128.97,-222.45"/>
</a>
</g>
</g>
<!-- Node2&#45;&gt;Node3 -->
<g id="edge3_Node000002_Node000003" class="edge">
<title>Node2&#45;&gt;Node3</title>
<g id="a_edge3_Node000002_Node000003"><a xlink:title=" ">
<path fill="none" stroke="#63b8ff" d="M433.58,-307.06C441.79,-308.37 450.14,-309.7 458.44,-311.03"/>
<polygon fill="#63b8ff" stroke="#63b8ff" points="457.79,-314.47 468.22,-312.59 458.9,-307.56 457.79,-314.47"/>
</a>
</g>
</g>
<!-- Node2&#45;&gt;Node4 -->
<g id="edge4_Node000002_Node000004" class="edge">
<title>Node2&#45;&gt;Node4</title>
<g id="a_edge4_Node000002_Node000004"><a xlink:title=" ">
<path fill="none" stroke="#63b8ff" d="M433.58,-282.8C441.79,-282 450.14,-281.18 458.44,-280.37"/>
<polygon fill="#63b8ff" stroke="#63b8ff" points="458.6,-283.87 468.21,-279.42 457.92,-276.91 458.6,-283.87"/>
</a>
</g>
</g>
<!-- Node2&#45;&gt;Node5 -->
<g id="edge5_Node000002_Node000005" class="edge">
<title>Node2&#45;&gt;Node5</title>
<g id="a_edge5_Node000002_Node000005"><a xlink:title=" ">
<path fill="none" stroke="#63b8ff" d="M384.61,-275.5C431.7,-258.38 503.56,-232.25 540.68,-218.75"/>
<polygon fill="#63b8ff" stroke="#63b8ff" points="541.4,-222.22 549.6,-215.51 539.01,-215.64 541.4,-222.22"/>
</a>
</g>
</g>
<!-- Node8 -->
<g id="Node000008" class="node">
<title>Node8</title>
<g id="a_Node000008"><a xlink:href="leaflet_8js.html#a008d931e56b6fc013061112f26afbffb" target="_top" xlink:title=" ">
<polygon fill="white" stroke="#666666" points="580.15,-107 551.35,-107 551.35,-87 580.15,-87 580.15,-107"/>
<text xml:space="preserve" text-anchor="middle" x="565.75" y="-93.5" font-family="Helvetica,sans-Serif" font-size="10.00">x</text>
</a>
</g>
</g>
<!-- Node7&#45;&gt;Node8 -->
<g id="edge11_Node000007_Node000008" class="edge">
<title>Node7&#45;&gt;Node8</title>
<g id="a_edge11_Node000007_Node000008"><a xlink:title=" ">
<path fill="none" stroke="#63b8ff" d="M423.22,-108.93C464.67,-105.43 511.68,-101.47 539.74,-99.11"/>
<polygon fill="#63b8ff" stroke="#63b8ff" points="539.69,-102.62 549.36,-98.3 539.1,-95.65 539.69,-102.62"/>
</a>
</g>
</g>
<!-- Node9 -->
<g id="Node000009" class="node">
<title>Node9</title>
<g id="a_Node000009"><a xlink:href="leaflet_8js.html#a9f9b62a373d2bb4624b7ac2df8151435" target="_top" xlink:title=" ">
<polygon fill="white" stroke="#666666" points="580.15,-145 551.35,-145 551.35,-125 580.15,-125 580.15,-145"/>
<text xml:space="preserve" text-anchor="middle" x="565.75" y="-131.5" font-family="Helvetica,sans-Serif" font-size="10.00">y</text>
</a>
</g>
</g>
<!-- Node7&#45;&gt;Node9 -->
<g id="edge12_Node000007_Node000009" class="edge">
<title>Node7&#45;&gt;Node9</title>
<g id="a_edge12_Node000007_Node000009"><a xlink:title=" ">
<path fill="none" stroke="#63b8ff" d="M423.22,-123.07C464.67,-126.57 511.68,-130.53 539.74,-132.89"/>
<polygon fill="#63b8ff" stroke="#63b8ff" points="539.1,-136.35 549.36,-133.7 539.69,-129.38 539.1,-136.35"/>
</a>
</g>
</g>
<!-- Node10&#45;&gt;Node5 -->
<g id="edge14_Node000010_Node000005" class="edge">
<title>Node10&#45;&gt;Node5</title>
<g id="a_edge14_Node000010_Node000005"><a xlink:title=" ">
<path fill="none" stroke="#63b8ff" d="M423.22,-182.38C464.67,-190.47 511.68,-199.64 539.74,-205.12"/>
<polygon fill="#63b8ff" stroke="#63b8ff" points="538.9,-208.52 549.38,-207 540.24,-201.65 538.9,-208.52"/>
</a>
</g>
</g>
<!-- Node10&#45;&gt;Node8 -->
<g id="edge15_Node000010_Node000008" class="edge">
<title>Node10&#45;&gt;Node8</title>
<g id="a_edge15_Node000010_Node000008"><a xlink:title=" ">
<path fill="none" stroke="#63b8ff" d="M412.33,-149.5C419.78,-147 427.13,-144.17 434,-141 451.69,-132.84 452.08,-123.63 470,-116 492.52,-106.41 520.14,-101.58 539.74,-99.2"/>
<polygon fill="#63b8ff" stroke="#63b8ff" points="539.98,-102.7 549.55,-98.15 539.23,-95.74 539.98,-102.7"/>
</a>
</g>
</g>
<!-- Node10&#45;&gt;Node9 -->
<g id="edge16_Node000010_Node000009" class="edge">
<title>Node10&#45;&gt;Node9</title>
<g id="a_edge16_Node000010_Node000009"><a xlink:title=" ">
<path fill="none" stroke="#63b8ff" d="M423.22,-154.46C464.67,-148.76 511.68,-142.3 539.74,-138.44"/>
<polygon fill="#63b8ff" stroke="#63b8ff" points="539.94,-141.94 549.37,-137.11 538.98,-135.01 539.94,-141.94"/>
</a>
</g>
</g>
<!-- Node11&#45;&gt;Node8 -->
<g id="edge18_Node000011_Node000008" class="edge">
<title>Node11&#45;&gt;Node8</title>
<g id="a_edge18_Node000011_Node000008"><a xlink:title=" ">
<path fill="none" stroke="#63b8ff" d="M423.22,-77.54C464.67,-83.24 511.68,-89.7 539.74,-93.56"/>
<polygon fill="#63b8ff" stroke="#63b8ff" points="538.98,-96.99 549.37,-94.89 539.94,-90.06 538.98,-96.99"/>
</a>
</g>
</g>
<!-- Node11&#45;&gt;Node9 -->
<g id="edge19_Node000011_Node000009" class="edge">
<title>Node11&#45;&gt;Node9</title>
<g id="a_edge19_Node000011_Node000009"><a xlink:title=" ">
<path fill="none" stroke="#63b8ff" d="M412.33,-82.5C419.78,-85 427.13,-87.83 434,-91 451.69,-99.16 452.08,-108.37 470,-116 492.52,-125.59 520.14,-130.42 539.74,-132.8"/>
<polygon fill="#63b8ff" stroke="#63b8ff" points="539.23,-136.26 549.55,-133.85 539.98,-129.3 539.23,-136.26"/>
</a>
</g>
</g>
</g>
</svg>
