<?xml version="1.0" encoding="UTF-8" standalone="no"?>
<!DOCTYPE svg PUBLIC "-//W3C//DTD SVG 1.1//EN"
 "http://www.w3.org/Graphics/SVG/1.1/DTD/svg11.dtd">
<!-- Generated by graphviz version 13.1.2 (20250808.2320)
 -->
<!-- Title: editeurpanovisu.OrdrePanoramique.supprimerElement Pages: 1 -->
<svg width="438pt" height="228pt"
 viewBox="0.00 0.00 438.00 228.00" xmlns="http://www.w3.org/2000/svg" xmlns:xlink="http://www.w3.org/1999/xlink">
<g id="graph0" class="graph" transform="scale(1 1) rotate(0) translate(4 224)">
<title>editeurpanovisu.OrdrePanoramique.supprimerElement</title>
<!-- Node1 -->
<g id="Node000001" class="node">
<title>Node1</title>
<g id="a_Node000001"><a xlink:title=" ">
<polygon fill="#999999" stroke="#666666" points="214,-132 0,-132 0,-100 214,-100 214,-132"/>
<text xml:space="preserve" text-anchor="start" x="8" y="-118.5" font-family="Helvetica,sans-Serif" font-size="10.00">editeurpanovisu.OrdrePanoramique.supprimer</text>
<text xml:space="preserve" text-anchor="middle" x="107" y="-106.5" font-family="Helvetica,sans-Serif" font-size="10.00">Element</text>
</a>
</g>
</g>
<!-- Node2 -->
<g id="Node000002" class="node">
<title>Node2</title>
<g id="a_Node000002"><a xlink:href="leaflet_8js.html#a73aff07b65d7c0b09ccf6b4c4f1b7a9d" target="_top" xlink:title=" ">
<polygon fill="white" stroke="#666666" points="354.52,-220 325.73,-220 325.73,-200 354.52,-200 354.52,-220"/>
<text xml:space="preserve" text-anchor="middle" x="340.12" y="-206.5" font-family="Helvetica,sans-Serif" font-size="10.00">i</text>
</a>
</g>
</g>
<!-- Node1&#45;&gt;Node2 -->
<g id="edge1_Node000001_Node000002" class="edge">
<title>Node1&#45;&gt;Node2</title>
<g id="a_edge1_Node000001_Node000002"><a xlink:title=" ">
<path fill="none" stroke="#63b8ff" d="M133.69,-132.37C161.39,-149.33 207.28,-175.5 250,-191 271.03,-198.63 296.01,-203.62 314.17,-206.57"/>
<polygon fill="#63b8ff" stroke="#63b8ff" points="313.61,-210.03 324.02,-208.06 314.66,-203.1 313.61,-210.03"/>
</a>
</g>
</g>
<!-- Node3 -->
<g id="Node000003" class="node">
<title>Node3</title>
<g id="a_Node000003"><a xlink:href="classediteurpanovisu_1_1PanoramiqueCellule.html#a5197a61ac2c8a575a88a7205a3827788" target="_top" xlink:title=" ">
<polygon fill="white" stroke="#666666" points="412.25,-182 268,-182 268,-150 412.25,-150 412.25,-182"/>
<text xml:space="preserve" text-anchor="start" x="276" y="-168.5" font-family="Helvetica,sans-Serif" font-size="10.00">editeurpanovisu.Panoramique</text>
<text xml:space="preserve" text-anchor="middle" x="340.12" y="-156.5" font-family="Helvetica,sans-Serif" font-size="10.00">Cellule.setImgPanoramique</text>
</a>
</g>
</g>
<!-- Node1&#45;&gt;Node3 -->
<g id="edge2_Node000001_Node000003" class="edge">
<title>Node1&#45;&gt;Node3</title>
<g id="a_edge2_Node000001_Node000003"><a xlink:title=" ">
<path fill="none" stroke="#63b8ff" d="M184,-132.44C207.28,-137.48 233,-143.04 256.7,-148.17"/>
<polygon fill="#63b8ff" stroke="#63b8ff" points="255.79,-151.55 266.3,-150.25 257.27,-144.71 255.79,-151.55"/>
</a>
</g>
</g>
<!-- Node4 -->
<g id="Node000004" class="node">
<title>Node4</title>
<g id="a_Node000004"><a xlink:href="classediteurpanovisu_1_1PanoramiqueCellule.html#a66dca565b3713687c8d34f97013ef83a" target="_top" xlink:title=" ">
<polygon fill="white" stroke="#666666" points="412.25,-132 268,-132 268,-100 412.25,-100 412.25,-132"/>
<text xml:space="preserve" text-anchor="start" x="276" y="-118.5" font-family="Helvetica,sans-Serif" font-size="10.00">editeurpanovisu.Panoramique</text>
<text xml:space="preserve" text-anchor="middle" x="340.12" y="-106.5" font-family="Helvetica,sans-Serif" font-size="10.00">Cellule.setiNumPano</text>
</a>
</g>
</g>
<!-- Node1&#45;&gt;Node4 -->
<g id="edge3_Node000001_Node000004" class="edge">
<title>Node1&#45;&gt;Node4</title>
<g id="a_edge3_Node000001_Node000004"><a xlink:title=" ">
<path fill="none" stroke="#63b8ff" d="M214.43,-116C228.5,-116 242.75,-116 256.34,-116"/>
<polygon fill="#63b8ff" stroke="#63b8ff" points="256.07,-119.5 266.07,-116 256.07,-112.5 256.07,-119.5"/>
</a>
</g>
</g>
<!-- Node5 -->
<g id="Node000005" class="node">
<title>Node5</title>
<g id="a_Node000005"><a xlink:href="classediteurpanovisu_1_1PanoramiqueCellule.html#ad9195089981021670fbc734ad202a8dc" target="_top" xlink:title=" ">
<polygon fill="white" stroke="#666666" points="416,-82 264.25,-82 264.25,-50 416,-50 416,-82"/>
<text xml:space="preserve" text-anchor="start" x="272.25" y="-68.5" font-family="Helvetica,sans-Serif" font-size="10.00">editeurpanovisu.Panoramique</text>
<text xml:space="preserve" text-anchor="middle" x="340.12" y="-56.5" font-family="Helvetica,sans-Serif" font-size="10.00">Cellule.setStrTitrePanoramique</text>
</a>
</g>
</g>
<!-- Node1&#45;&gt;Node5 -->
<g id="edge4_Node000001_Node000005" class="edge">
<title>Node1&#45;&gt;Node5</title>
<g id="a_edge4_Node000001_Node000005"><a xlink:title=" ">
<path fill="none" stroke="#63b8ff" d="M184,-99.56C206.05,-94.79 230.28,-89.55 252.91,-84.65"/>
<polygon fill="#63b8ff" stroke="#63b8ff" points="253.36,-88.14 262.39,-82.6 251.88,-81.29 253.36,-88.14"/>
</a>
</g>
</g>
<!-- Node6 -->
<g id="Node000006" class="node">
<title>Node6</title>
<g id="a_Node000006"><a xlink:href="classediteurpanovisu_1_1PanoramiqueCellule.html#a9399b6003010f4a490aba9b6dbbde7e2" target="_top" xlink:title=" ">
<polygon fill="white" stroke="#666666" points="430.25,-32 250,-32 250,0 430.25,0 430.25,-32"/>
<text xml:space="preserve" text-anchor="start" x="258" y="-18.5" font-family="Helvetica,sans-Serif" font-size="10.00">editeurpanovisu.Panoramique</text>
<text xml:space="preserve" text-anchor="middle" x="340.12" y="-6.5" font-family="Helvetica,sans-Serif" font-size="10.00">Cellule.setStrTitrePanoramiqueLigne2</text>
</a>
</g>
</g>
<!-- Node1&#45;&gt;Node6 -->
<g id="edge5_Node000001_Node000006" class="edge">
<title>Node1&#45;&gt;Node6</title>
<g id="a_edge5_Node000001_Node000006"><a xlink:title=" ">
<path fill="none" stroke="#63b8ff" d="M134.93,-99.55C162.89,-83.01 208.31,-57.64 250,-41 254.37,-39.26 258.9,-37.59 263.5,-35.99"/>
<polygon fill="#63b8ff" stroke="#63b8ff" points="264.49,-39.36 272.89,-32.9 262.29,-32.71 264.49,-39.36"/>
</a>
</g>
</g>
</g>
</svg>
