<?xml version="1.0" encoding="UTF-8" standalone="no"?>
<!DOCTYPE svg PUBLIC "-//W3C//DTD SVG 1.1//EN"
 "http://www.w3.org/Graphics/SVG/1.1/DTD/svg11.dtd">
<!-- Generated by graphviz version 13.1.2 (20250808.2320)
 -->
<!-- Title: editeurpanovisu.GestionnaireInterfaceController.getStrFenetreAideImage Pages: 1 -->
<!--zoomable 406 -->

<svg id="main" version="1.1" xmlns="http://www.w3.org/2000/svg" xmlns:xlink="http://www.w3.org/1999/xlink" xml:space="preserve" onload="init(evt)">

<style type="text/css"><![CDATA[
.node, .edge {opacity: 0.7;}
.node.selected, .edge.selected {opacity: 1;}
.edge:hover path { stroke: red; }
.edge:hover polygon { stroke: red; fill: red; }
]]></style>

<defs>
  <circle id="rim" cx="0" cy="0" r="7"/>
  <circle id="rim2" cx="0" cy="0" r="3.5"/>
  <g id="zoomPlus">
    <use xlink:href="#rim" fill="#404040"><set attributeName="fill" to="#808080" begin="zoomplus.mouseover" end="zoomplus.mouseout"/></use>
    <path d="M-4,0h8M0,-4v8" fill="none" stroke="white" stroke-width="1.5" pointer-events="none"/>
  </g>
  <g id="zoomMin">
    <use xlink:href="#rim" fill="#404040"><set attributeName="fill" to="#808080" begin="zoomminus.mouseover" end="zoomminus.mouseout"/></use>
    <path d="M-4,0h8" fill="none" stroke="white" stroke-width="1.5" pointer-events="none"/>
  </g>
  <g id="arrowUp" transform="translate(30 24)">
    <use xlink:href="#rim"/>
    <path pointer-events="none" fill="none" stroke="white" stroke-width="1.5" d="M0,-3.0v7 M-2.5,-0.5L0,-3.0L2.5,-0.5"/>
  </g>
  <g id="arrowRight" transform="rotate(90) translate(36 -43)">
    <use xlink:href="#rim"/>
    <path pointer-events="none" fill="none" stroke="white" stroke-width="1.5" d="M0,-3.0v7 M-2.5,-0.5L0,-3.0L2.5,-0.5"/>
  </g>
  <g id="arrowDown" transform="rotate(180) translate(-30 -48)">
    <use xlink:href="#rim"/>
    <path pointer-events="none" fill="none" stroke="white" stroke-width="1.5" d="M0,-3.0v7 M-2.5,-0.5L0,-3.0L2.5,-0.5"/>
  </g>
  <g id="arrowLeft" transform="rotate(270) translate(-36 17)">
    <use xlink:href="#rim"/>
    <path pointer-events="none" fill="none" stroke="white" stroke-width="1.5" d="M0,-3.0v7 M-2.5,-0.5L0,-3.0L2.5,-0.5"/>
  </g>
  <g id="resetDef">
    <use xlink:href="#rim2" fill="#404040"><set attributeName="fill" to="#808080" begin="reset.mouseover" end="reset.mouseout"/></use>
  </g>
</defs>
<script type="application/ecmascript">
var viewWidth = 2601;
var viewHeight = 406;
var sectionId = 'dynsection-153';
</script>
<script type="application/ecmascript" xlink:href="svg.min.js"/>
<svg id="graph" class="graph">
<g id="viewport">
<title>editeurpanovisu.GestionnaireInterfaceController.getStrFenetreAideImage</title>
<!-- Node1 -->
<g id="Node000001" class="node">
<title>Node1</title>
<g id="a_Node000001"><a xlink:title=" ">
<polygon fill="#999999" stroke="#666666" points="2592.75,-199.77 2434.25,-199.77 2434.25,-155.77 2592.75,-155.77 2592.75,-199.77"/>
<text xml:space="preserve" text-anchor="start" x="2442.25" y="-186.27" font-family="Helvetica,sans-Serif" font-size="10.00">editeurpanovisu.Gestionnaire</text>
<text xml:space="preserve" text-anchor="start" x="2442.25" y="-174.27" font-family="Helvetica,sans-Serif" font-size="10.00">InterfaceController.getStrFenetre</text>
<text xml:space="preserve" text-anchor="middle" x="2513.5" y="-162.27" font-family="Helvetica,sans-Serif" font-size="10.00">AideImage</text>
</a>
</g>
</g>
<!-- Node2 -->
<g id="Node000002" class="node">
<title>Node2</title>
<g id="a_Node000002"><a xlink:href="classediteurpanovisu_1_1GestionnaireInterfaceController.html#a400a2a34da2ac8f06caab548f31bac87" target="_top" xlink:title=" ">
<polygon fill="white" stroke="#666666" points="2398.25,-215.77 2218,-215.77 2218,-183.77 2398.25,-183.77 2398.25,-215.77"/>
<text xml:space="preserve" text-anchor="start" x="2226" y="-202.27" font-family="Helvetica,sans-Serif" font-size="10.00">editeurpanovisu.Gestionnaire</text>
<text xml:space="preserve" text-anchor="middle" x="2308.12" y="-190.27" font-family="Helvetica,sans-Serif" font-size="10.00">InterfaceController.afficheFenetreAide</text>
</a>
</g>
</g>
<!-- Node1&#45;&gt;Node2 -->
<g id="edge1_Node000001_Node000002" class="edge">
<title>Node1&#45;&gt;Node2</title>
<g id="a_edge1_Node000001_Node000002"><a xlink:title=" ">
<path fill="none" stroke="#63b8ff" d="M2422.42,-187.51C2414.55,-188.36 2406.58,-189.22 2398.72,-190.08"/>
<polygon fill="#63b8ff" stroke="#63b8ff" points="2422.8,-190.99 2432.37,-186.44 2422.05,-184.03 2422.8,-190.99"/>
</a>
</g>
</g>
<!-- Node3 -->
<g id="Node000003" class="node">
<title>Node3</title>
<g id="a_Node000003"><a xlink:href="classediteurpanovisu_1_1GestionnaireInterfaceController.html#a55c8afda208674955a13d48d02be41b8" target="_top" xlink:title=" ">
<polygon fill="white" stroke="#666666" points="2182,-259.77 2014.5,-259.77 2014.5,-227.77 2182,-227.77 2182,-259.77"/>
<text xml:space="preserve" text-anchor="start" x="2022.5" y="-246.27" font-family="Helvetica,sans-Serif" font-size="10.00">editeurpanovisu.Gestionnaire</text>
<text xml:space="preserve" text-anchor="middle" x="2098.25" y="-234.27" font-family="Helvetica,sans-Serif" font-size="10.00">InterfaceController.afficheTemplate</text>
</a>
</g>
</g>
<!-- Node1&#45;&gt;Node3 -->
<g id="edge29_Node000001_Node000003" class="edge">
<title>Node1&#45;&gt;Node3</title>
<g id="a_edge29_Node000001_Node000003"><a xlink:title=" ">
<path fill="none" stroke="#63b8ff" d="M2457.26,-204.75C2438.9,-212.55 2418.08,-220.19 2398.25,-224.77 2326.66,-241.29 2243.05,-245.37 2182.47,-245.7"/>
<polygon fill="#63b8ff" stroke="#63b8ff" points="2458.61,-207.97 2466.37,-200.76 2455.81,-201.56 2458.61,-207.97"/>
</a>
</g>
</g>
<!-- Node11 -->
<g id="Node000011" class="node">
<title>Node11</title>
<g id="a_Node000011"><a xlink:href="classediteurpanovisu_1_1EditeurPanovisu.html#a94e36b9e9d09ab1a4c852b8a8cefa927" target="_top" xlink:title=" ">
<polygon fill="white" stroke="#666666" points="647.25,-130.77 456.5,-130.77 456.5,-98.77 647.25,-98.77 647.25,-130.77"/>
<text xml:space="preserve" text-anchor="start" x="464.5" y="-117.27" font-family="Helvetica,sans-Serif" font-size="10.00">editeurpanovisu.EditeurPanovisu.genere</text>
<text xml:space="preserve" text-anchor="middle" x="551.88" y="-105.27" font-family="Helvetica,sans-Serif" font-size="10.00">Visite</text>
</a>
</g>
</g>
<!-- Node1&#45;&gt;Node11 -->
<g id="edge31_Node000001_Node000011" class="edge">
<title>Node1&#45;&gt;Node11</title>
<g id="a_edge31_Node000001_Node000011"><a xlink:title=" ">
<path fill="none" stroke="#63b8ff" d="M2469.76,-149.42C2396.95,-103.95 2242.78,-19.77 2099.25,-19.77 2099.25,-19.77 2099.25,-19.77 1228.5,-19.77 985.07,-19.77 921.49,-21.78 683.25,-71.77 653.04,-78.11 620.03,-89.03 594.79,-98.29"/>
<polygon fill="#63b8ff" stroke="#63b8ff" points="2467.46,-152.11 2477.79,-154.49 2471.2,-146.19 2467.46,-152.11"/>
</a>
</g>
</g>
<!-- Node17 -->
<g id="Node000017" class="node">
<title>Node17</title>
<g id="a_Node000017"><a xlink:href="classediteurpanovisu_1_1GestionnaireInterfaceController.html#ac7fa988dc99d8684686127a2269cd66e" target="_top" xlink:title=" ">
<polygon fill="white" stroke="#666666" points="2176.38,-193.77 2020.12,-193.77 2020.12,-161.77 2176.38,-161.77 2176.38,-193.77"/>
<text xml:space="preserve" text-anchor="start" x="2028.12" y="-180.27" font-family="Helvetica,sans-Serif" font-size="10.00">editeurpanovisu.Gestionnaire</text>
<text xml:space="preserve" text-anchor="middle" x="2098.25" y="-168.27" font-family="Helvetica,sans-Serif" font-size="10.00">InterfaceController.creeInterface</text>
</a>
</g>
</g>
<!-- Node1&#45;&gt;Node17 -->
<g id="edge30_Node000001_Node000017" class="edge">
<title>Node1&#45;&gt;Node17</title>
<g id="a_edge30_Node000001_Node000017"><a xlink:title=" ">
<path fill="none" stroke="#63b8ff" d="M2422.34,-175.18C2414.19,-175.01 2406.07,-174.87 2398.25,-174.77 2318.15,-173.72 2298.1,-173.76 2218,-174.77 2204.7,-174.94 2190.56,-175.21 2176.86,-175.52"/>
<polygon fill="#63b8ff" stroke="#63b8ff" points="2422.25,-178.68 2432.32,-175.4 2422.4,-171.68 2422.25,-178.68"/>
</a>
</g>
</g>
<!-- Node18 -->
<g id="Node000018" class="node">
<title>Node18</title>
<g id="a_Node000018"><a xlink:href="classediteurpanovisu_1_1GestionnaireInterfaceController.html#ad89227c352c38045e5b992d1a208e241" target="_top" xlink:title=" ">
<polygon fill="white" stroke="#666666" points="2384.38,-303.77 2231.88,-303.77 2231.88,-271.77 2384.38,-271.77 2384.38,-303.77"/>
<text xml:space="preserve" text-anchor="start" x="2239.88" y="-290.27" font-family="Helvetica,sans-Serif" font-size="10.00">editeurpanovisu.Gestionnaire</text>
<text xml:space="preserve" text-anchor="middle" x="2308.12" y="-278.27" font-family="Helvetica,sans-Serif" font-size="10.00">InterfaceController.setTemplate</text>
</a>
</g>
</g>
<!-- Node1&#45;&gt;Node18 -->
<g id="edge32_Node000001_Node000018" class="edge">
<title>Node1&#45;&gt;Node18</title>
<g id="a_edge32_Node000001_Node000018"><a xlink:title=" ">
<path fill="none" stroke="#63b8ff" d="M2476.44,-207.04C2454.76,-223.6 2426.05,-243.72 2398.25,-257.77 2388.05,-262.92 2376.76,-267.5 2365.75,-271.43"/>
<polygon fill="#63b8ff" stroke="#63b8ff" points="2478.32,-210.01 2484.08,-201.12 2474.03,-204.48 2478.32,-210.01"/>
</a>
</g>
</g>
<!-- Node19 -->
<g id="Node000019" class="node">
<title>Node19</title>
<g id="a_Node000019"><a xlink:href="classediteurpanovisu_1_1GestionnaireInterfaceController.html#ab66509c63a85a8285a081b24049e8774" target="_top" xlink:title=" ">
<polygon fill="white" stroke="#666666" points="1974,-136.77 1808,-136.77 1808,-104.77 1974,-104.77 1974,-136.77"/>
<text xml:space="preserve" text-anchor="start" x="1816" y="-123.27" font-family="Helvetica,sans-Serif" font-size="10.00">editeurpanovisu.Gestionnaire</text>
<text xml:space="preserve" text-anchor="middle" x="1891" y="-111.27" font-family="Helvetica,sans-Serif" font-size="10.00">InterfaceController.strGetTemplate</text>
</a>
</g>
</g>
<!-- Node1&#45;&gt;Node19 -->
<g id="edge34_Node000001_Node000019" class="edge">
<title>Node1&#45;&gt;Node19</title>
<g id="a_edge34_Node000001_Node000019"><a xlink:title=" ">
<path fill="none" stroke="#63b8ff" d="M2422.56,-169.51C2302.28,-158.46 2090.7,-139.02 1974.39,-128.34"/>
<polygon fill="#63b8ff" stroke="#63b8ff" points="2422.13,-172.98 2432.41,-170.41 2422.77,-166.01 2422.13,-172.98"/>
</a>
</g>
</g>
<!-- Node2&#45;&gt;Node3 -->
<g id="edge2_Node000002_Node000003" class="edge">
<title>Node2&#45;&gt;Node3</title>
<g id="a_edge2_Node000002_Node000003"><a xlink:title=" ">
<path fill="none" stroke="#63b8ff" d="M2218.51,-218.52C2204.78,-221.43 2190.68,-224.42 2177.2,-227.27"/>
<polygon fill="#63b8ff" stroke="#63b8ff" points="2218.89,-222.02 2227.94,-216.53 2217.44,-215.17 2218.89,-222.02"/>
</a>
</g>
</g>
<!-- Node2&#45;&gt;Node17 -->
<g id="edge28_Node000002_Node000017" class="edge">
<title>Node2&#45;&gt;Node17</title>
<g id="a_edge28_Node000002_Node000017"><a xlink:title=" ">
<path fill="none" stroke="#63b8ff" d="M2206.51,-189.12C2196.51,-188.06 2186.47,-187 2176.77,-185.97"/>
<polygon fill="#63b8ff" stroke="#63b8ff" points="2205.94,-192.58 2216.26,-190.15 2206.68,-185.62 2205.94,-192.58"/>
</a>
</g>
</g>
<!-- Node4 -->
<g id="Node000004" class="node">
<title>Node4</title>
<g id="a_Node000004"><a xlink:href="classediteurpanovisu_1_1EditeurPanovisu.html#a87b29dc258cfc67370b1f27809e91b8e" target="_top" xlink:title=" ">
<polygon fill="white" stroke="#666666" points="1978.5,-301.77 1803.5,-301.77 1803.5,-269.77 1978.5,-269.77 1978.5,-301.77"/>
<text xml:space="preserve" text-anchor="start" x="1811.5" y="-288.27" font-family="Helvetica,sans-Serif" font-size="10.00">editeurpanovisu.EditeurPanovisu.tsk</text>
<text xml:space="preserve" text-anchor="middle" x="1891" y="-276.27" font-family="Helvetica,sans-Serif" font-size="10.00">AnalyseFichierPVU</text>
</a>
</g>
</g>
<!-- Node3&#45;&gt;Node4 -->
<g id="edge3_Node000003_Node000004" class="edge">
<title>Node3&#45;&gt;Node4</title>
<g id="a_edge3_Node000003_Node000004"><a xlink:title=" ">
<path fill="none" stroke="#63b8ff" d="M2005.67,-262.51C1994.55,-264.78 1983.24,-267.1 1972.3,-269.34"/>
<polygon fill="#63b8ff" stroke="#63b8ff" points="2006.14,-265.98 2015.24,-260.55 2004.74,-259.13 2006.14,-265.98"/>
</a>
</g>
</g>
<!-- Node5 -->
<g id="Node000005" class="node">
<title>Node5</title>
<g id="a_Node000005"><a xlink:href="classediteurpanovisu_1_1EditeurPanovisu.html#ab4beb1597b660a4a253befc6e76f1c54" target="_top" xlink:title=" ">
<polygon fill="white" stroke="#666666" points="1098.12,-369.77 912.62,-369.77 912.62,-337.77 1098.12,-337.77 1098.12,-369.77"/>
<text xml:space="preserve" text-anchor="start" x="920.62" y="-356.27" font-family="Helvetica,sans-Serif" font-size="10.00">editeurpanovisu.EditeurPanovisu.projet</text>
<text xml:space="preserve" text-anchor="middle" x="1005.38" y="-344.27" font-family="Helvetica,sans-Serif" font-size="10.00">Charge</text>
</a>
</g>
</g>
<!-- Node4&#45;&gt;Node5 -->
<g id="edge4_Node000004_Node000005" class="edge">
<title>Node4&#45;&gt;Node5</title>
<g id="a_edge4_Node000004_Node000005"><a xlink:title=" ">
<path fill="none" stroke="#63b8ff" d="M1791.86,-299.13C1783.63,-300.08 1775.42,-300.98 1767.5,-301.77 1526.64,-325.7 1241.79,-341.96 1098.5,-349.31"/>
<polygon fill="#63b8ff" stroke="#63b8ff" points="1792.06,-302.63 1801.58,-297.97 1791.23,-295.68 1792.06,-302.63"/>
</a>
</g>
</g>
<!-- Node8 -->
<g id="Node000008" class="node">
<title>Node8</title>
<g id="a_Node000008"><a xlink:href="classediteurpanovisu_1_1EditeurPanovisu.html#a6d19b4d885ee6fcec827b91956295732" target="_top" xlink:title=" ">
<polygon fill="white" stroke="#666666" points="1767.5,-292.77 1582,-292.77 1582,-260.77 1767.5,-260.77 1767.5,-292.77"/>
<text xml:space="preserve" text-anchor="start" x="1590" y="-279.27" font-family="Helvetica,sans-Serif" font-size="10.00">editeurpanovisu.EditeurPanovisu.projet</text>
<text xml:space="preserve" text-anchor="middle" x="1674.75" y="-267.27" font-family="Helvetica,sans-Serif" font-size="10.00">ChargeNom</text>
</a>
</g>
</g>
<!-- Node4&#45;&gt;Node8 -->
<g id="edge7_Node000004_Node000008" class="edge">
<title>Node4&#45;&gt;Node8</title>
<g id="a_edge7_Node000004_Node000008"><a xlink:title=" ">
<path fill="none" stroke="#63b8ff" d="M1791.94,-281.65C1783.95,-281.31 1775.89,-280.97 1767.95,-280.64"/>
<polygon fill="#63b8ff" stroke="#63b8ff" points="1791.51,-285.13 1801.65,-282.06 1791.81,-278.14 1791.51,-285.13"/>
</a>
</g>
</g>
<!-- Node6 -->
<g id="Node000006" class="node">
<title>Node6</title>
<g id="a_Node000006"><a xlink:href="classediteurpanovisu_1_1EditeurPanovisu.html#ac912b80c1f2ac97def60ff005c5c480b" target="_top" xlink:title=" ">
<polygon fill="white" stroke="#666666" points="420.5,-278.77 216.25,-278.77 216.25,-258.77 420.5,-258.77 420.5,-278.77"/>
<text xml:space="preserve" text-anchor="middle" x="318.38" y="-265.27" font-family="Helvetica,sans-Serif" font-size="10.00">editeurpanovisu.EditeurPanovisu.creeMenu</text>
</a>
</g>
</g>
<!-- Node5&#45;&gt;Node6 -->
<g id="edge5_Node000005_Node000006" class="edge">
<title>Node5&#45;&gt;Node6</title>
<g id="a_edge5_Node000005_Node000006"><a xlink:title=" ">
<path fill="none" stroke="#63b8ff" d="M901.15,-351.75C790.26,-347.95 609.34,-337.05 456.5,-305.77 420.99,-298.5 381.05,-287.38 353.47,-279.23"/>
<polygon fill="#63b8ff" stroke="#63b8ff" points="900.71,-355.23 910.82,-352.06 900.94,-348.24 900.71,-355.23"/>
</a>
</g>
</g>
<!-- Node7 -->
<g id="Node000007" class="node">
<title>Node7</title>
<g id="a_Node000007"><a xlink:href="classediteurpanovisu_1_1EditeurPanovisu.html#a86c393eee88f54c694db994ddd85b90d" target="_top" xlink:title=" ">
<polygon fill="white" stroke="#666666" points="180.25,-284.77 0,-284.77 0,-252.77 180.25,-252.77 180.25,-284.77"/>
<text xml:space="preserve" text-anchor="start" x="8" y="-271.27" font-family="Helvetica,sans-Serif" font-size="10.00">editeurpanovisu.EditeurPanovisu.cree</text>
<text xml:space="preserve" text-anchor="middle" x="90.12" y="-259.27" font-family="Helvetica,sans-Serif" font-size="10.00">Environnement</text>
</a>
</g>
</g>
<!-- Node6&#45;&gt;Node7 -->
<g id="edge6_Node000006_Node000007" class="edge">
<title>Node6&#45;&gt;Node7</title>
<g id="a_edge6_Node000006_Node000007"><a xlink:title=" ">
<path fill="none" stroke="#63b8ff" d="M204.51,-268.77C196.49,-268.77 188.46,-268.77 180.6,-268.77"/>
<polygon fill="#63b8ff" stroke="#63b8ff" points="204.32,-272.27 214.32,-268.77 204.32,-265.27 204.32,-272.27"/>
</a>
</g>
</g>
<!-- Node8&#45;&gt;Node6 -->
<g id="edge27_Node000008_Node000006" class="edge">
<title>Node8&#45;&gt;Node6</title>
<g id="a_edge27_Node000008_Node000006"><a xlink:title=" ">
<path fill="none" stroke="#63b8ff" d="M1609.28,-296.42C1491,-330.69 1230.81,-397.77 1006.38,-397.77 1006.38,-397.77 1006.38,-397.77 777.62,-397.77 632.1,-397.77 594.66,-379.5 456.5,-333.77 411.98,-319.03 363.08,-293.36 337.41,-279.09"/>
<polygon fill="#63b8ff" stroke="#63b8ff" points="1610.21,-299.8 1618.83,-293.64 1608.25,-293.08 1610.21,-299.8"/>
</a>
</g>
</g>
<!-- Node9 -->
<g id="Node000009" class="node">
<title>Node9</title>
<g id="a_Node000009"><a xlink:href="classediteurpanovisu_1_1EditeurPanovisu.html#af0d1c32bb78acbff561c822a0d15f760" target="_top" xlink:title=" ">
<polygon fill="white" stroke="#666666" points="1546,-292.77 1358.25,-292.77 1358.25,-260.77 1546,-260.77 1546,-292.77"/>
<text xml:space="preserve" text-anchor="start" x="1366.25" y="-279.27" font-family="Helvetica,sans-Serif" font-size="10.00">editeurpanovisu.EditeurPanovisu.ajoute</text>
<text xml:space="preserve" text-anchor="middle" x="1452.12" y="-267.27" font-family="Helvetica,sans-Serif" font-size="10.00">FichierHisto</text>
</a>
</g>
</g>
<!-- Node8&#45;&gt;Node9 -->
<g id="edge8_Node000008_Node000009" class="edge">
<title>Node8&#45;&gt;Node9</title>
<g id="a_edge8_Node000008_Node000009"><a xlink:title=" ">
<path fill="none" stroke="#63b8ff" d="M1570.47,-270.03C1562.42,-270 1554.33,-270.02 1546.36,-270.09"/>
<polygon fill="#63b8ff" stroke="#63b8ff" points="1570.25,-273.53 1580.27,-270.09 1570.29,-266.53 1570.25,-273.53"/>
</a>
</g>
</g>
<!-- Node9&#45;&gt;Node5 -->
<g id="edge9_Node000009_Node000005" class="edge">
<title>Node9&#45;&gt;Node5</title>
<g id="a_edge9_Node000009_Node000005"><a xlink:title=" ">
<path fill="none" stroke="#63b8ff" d="M1346.96,-294.8C1271.61,-307.85 1170.72,-325.31 1098.34,-337.84"/>
<polygon fill="#63b8ff" stroke="#63b8ff" points="1347.14,-298.32 1356.4,-293.17 1345.95,-291.42 1347.14,-298.32"/>
</a>
</g>
</g>
<!-- Node9&#45;&gt;Node8 -->
<g id="edge10_Node000009_Node000008" class="edge">
<title>Node9&#45;&gt;Node8</title>
<g id="a_edge10_Node000009_Node000008"><a xlink:title=" ">
<path fill="none" stroke="#63b8ff" d="M1557.69,-283.51C1565.74,-283.53 1573.83,-283.51 1581.78,-283.43"/>
<polygon fill="#63b8ff" stroke="#63b8ff" points="1557.9,-280.01 1547.88,-283.45 1557.86,-287.01 1557.9,-280.01"/>
</a>
</g>
</g>
<!-- Node10 -->
<g id="Node000010" class="node">
<title>Node10</title>
<g id="a_Node000010"><a xlink:href="classediteurpanovisu_1_1EditeurPanovisu.html#a9f3ea25b35d4884524508dab3dc4fd6a" target="_top" xlink:title=" ">
<polygon fill="white" stroke="#666666" points="1322.25,-244.77 1136.75,-244.77 1136.75,-212.77 1322.25,-212.77 1322.25,-244.77"/>
<text xml:space="preserve" text-anchor="start" x="1144.75" y="-231.27" font-family="Helvetica,sans-Serif" font-size="10.00">editeurpanovisu.EditeurPanovisu.projet</text>
<text xml:space="preserve" text-anchor="middle" x="1229.5" y="-219.27" font-family="Helvetica,sans-Serif" font-size="10.00">Sauve</text>
</a>
</g>
</g>
<!-- Node9&#45;&gt;Node10 -->
<g id="edge11_Node000009_Node000010" class="edge">
<title>Node9&#45;&gt;Node10</title>
<g id="a_edge11_Node000009_Node000010"><a xlink:title=" ">
<path fill="none" stroke="#63b8ff" d="M1364.3,-257.88C1345.04,-253.69 1324.78,-249.28 1306.02,-245.2"/>
<polygon fill="#63b8ff" stroke="#63b8ff" points="1363.51,-261.29 1374.03,-259.99 1365,-254.45 1363.51,-261.29"/>
</a>
</g>
</g>
<!-- Node16 -->
<g id="Node000016" class="node">
<title>Node16</title>
<g id="a_Node000016"><a xlink:href="classediteurpanovisu_1_1EditeurPanovisu.html#a7b2e25dc717eb52b62e23d54ec4c124a" target="_top" xlink:title=" ">
<polygon fill="white" stroke="#666666" points="1322.25,-159.77 1136.75,-159.77 1136.75,-127.77 1322.25,-127.77 1322.25,-159.77"/>
<text xml:space="preserve" text-anchor="start" x="1144.75" y="-146.27" font-family="Helvetica,sans-Serif" font-size="10.00">editeurpanovisu.EditeurPanovisu.projet</text>
<text xml:space="preserve" text-anchor="middle" x="1229.5" y="-134.27" font-family="Helvetica,sans-Serif" font-size="10.00">SauveSous</text>
</a>
</g>
</g>
<!-- Node9&#45;&gt;Node16 -->
<g id="edge25_Node000009_Node000016" class="edge">
<title>Node9&#45;&gt;Node16</title>
<g id="a_edge25_Node000009_Node000016"><a xlink:title=" ">
<path fill="none" stroke="#63b8ff" d="M1414.31,-254.57C1370.16,-227.96 1297.18,-183.97 1257.77,-160.21"/>
<polygon fill="#63b8ff" stroke="#63b8ff" points="1412.4,-257.51 1422.78,-259.68 1416.02,-251.52 1412.4,-257.51"/>
</a>
</g>
</g>
<!-- Node10&#45;&gt;Node5 -->
<g id="edge15_Node000010_Node000005" class="edge">
<title>Node10&#45;&gt;Node5</title>
<g id="a_edge15_Node000010_Node000005"><a xlink:title=" ">
<path fill="none" stroke="#63b8ff" d="M1187.92,-250.93C1171.4,-260.71 1152.52,-272.91 1136.75,-285.77 1118.72,-300.47 1120.46,-311.41 1100.75,-323.77 1092.16,-329.16 1082.51,-333.65 1072.76,-337.39"/>
<polygon fill="#63b8ff" stroke="#63b8ff" points="1189.65,-253.97 1196.54,-245.92 1186.14,-247.91 1189.65,-253.97"/>
</a>
</g>
</g>
<!-- Node10&#45;&gt;Node6 -->
<g id="edge12_Node000010_Node000006" class="edge">
<title>Node10&#45;&gt;Node6</title>
<g id="a_edge12_Node000010_Node000006"><a xlink:title=" ">
<path fill="none" stroke="#63b8ff" d="M1140.96,-247.19C1127.54,-249.44 1113.81,-251.42 1100.75,-252.77 857.82,-277.9 570.21,-275.6 420.85,-272.02"/>
<polygon fill="#63b8ff" stroke="#63b8ff" points="1141.39,-250.67 1150.64,-245.5 1140.19,-243.77 1141.39,-250.67"/>
</a>
</g>
</g>
<!-- Node10&#45;&gt;Node8 -->
<g id="edge16_Node000010_Node000008" class="edge">
<title>Node10&#45;&gt;Node8</title>
<g id="a_edge16_Node000010_Node000008"><a xlink:title=" ">
<path fill="none" stroke="#63b8ff" d="M1333.92,-233.16C1395.67,-236.57 1475.54,-242.34 1546,-251.77 1562.8,-254.01 1580.72,-257.09 1597.66,-260.32"/>
<polygon fill="#63b8ff" stroke="#63b8ff" points="1334.29,-229.68 1324.12,-232.63 1333.92,-236.67 1334.29,-229.68"/>
</a>
</g>
</g>
<!-- Node10&#45;&gt;Node11 -->
<g id="edge13_Node000010_Node000011" class="edge">
<title>Node10&#45;&gt;Node11</title>
<g id="a_edge13_Node000010_Node000011"><a xlink:title=" ">
<path fill="none" stroke="#63b8ff" d="M1188.67,-206.55C1171.77,-196.18 1152.41,-183 1136.75,-168.77 1117.79,-151.54 1123.61,-135.32 1100.75,-123.77 943.25,-44.18 726.33,-75.21 618.81,-98.33"/>
<polygon fill="#63b8ff" stroke="#63b8ff" points="1186.61,-209.4 1196.99,-211.54 1190.21,-203.39 1186.61,-209.4"/>
</a>
</g>
</g>
<!-- Node12 -->
<g id="Node000012" class="node">
<title>Node12</title>
<g id="a_Node000012"><a xlink:href="classediteurpanovisu_1_1EditeurPanovisu.html#a9b46b222714af12c06ec33d410400773" target="_top" xlink:title=" ">
<polygon fill="white" stroke="#666666" points="874,-328.77 683.25,-328.77 683.25,-296.77 874,-296.77 874,-328.77"/>
<text xml:space="preserve" text-anchor="start" x="691.25" y="-315.27" font-family="Helvetica,sans-Serif" font-size="10.00">editeurpanovisu.EditeurPanovisu.projets</text>
<text xml:space="preserve" text-anchor="middle" x="778.62" y="-303.27" font-family="Helvetica,sans-Serif" font-size="10.00">Fermer</text>
</a>
</g>
</g>
<!-- Node10&#45;&gt;Node12 -->
<g id="edge17_Node000010_Node000012" class="edge">
<title>Node10&#45;&gt;Node12</title>
<g id="a_edge17_Node000010_Node000012"><a xlink:title=" ">
<path fill="none" stroke="#63b8ff" d="M1189.3,-250.4C1164.64,-262.95 1131.72,-277.8 1100.75,-285.77 1026.25,-304.93 939.14,-311.3 874.45,-313.09"/>
<polygon fill="#63b8ff" stroke="#63b8ff" points="1190.72,-253.6 1197.99,-245.89 1187.5,-247.39 1190.72,-253.6"/>
</a>
</g>
</g>
<!-- Node13 -->
<g id="Node000013" class="node">
<title>Node13</title>
<g id="a_Node000013"><a xlink:href="classediteurpanovisu_1_1EditeurPanovisu.html#ac9d449399ccd38843fa12e716f0c9611" target="_top" xlink:title=" ">
<polygon fill="white" stroke="#666666" points="1100.75,-243.77 910,-243.77 910,-211.77 1100.75,-211.77 1100.75,-243.77"/>
<text xml:space="preserve" text-anchor="start" x="918" y="-230.27" font-family="Helvetica,sans-Serif" font-size="10.00">editeurpanovisu.EditeurPanovisu.projets</text>
<text xml:space="preserve" text-anchor="middle" x="1005.38" y="-218.27" font-family="Helvetica,sans-Serif" font-size="10.00">Nouveau</text>
</a>
</g>
</g>
<!-- Node10&#45;&gt;Node13 -->
<g id="edge19_Node000010_Node000013" class="edge">
<title>Node10&#45;&gt;Node13</title>
<g id="a_edge19_Node000010_Node000013"><a xlink:title=" ">
<path fill="none" stroke="#63b8ff" d="M1125.24,-228.3C1117.2,-228.27 1109.11,-228.23 1101.13,-228.19"/>
<polygon fill="#63b8ff" stroke="#63b8ff" points="1125.02,-231.8 1135.04,-228.35 1125.05,-224.8 1125.02,-231.8"/>
</a>
</g>
</g>
<!-- Node14 -->
<g id="Node000014" class="node">
<title>Node14</title>
<g id="a_Node000014"><a xlink:href="classediteurpanovisu_1_1EditeurPanovisu.html#a2b3125ffe2e6291efacf19df6cb30a8d" target="_top" xlink:title=" ">
<polygon fill="white" stroke="#666666" points="869.12,-143.77 688.12,-143.77 688.12,-123.77 869.12,-123.77 869.12,-143.77"/>
<text xml:space="preserve" text-anchor="middle" x="778.62" y="-130.27" font-family="Helvetica,sans-Serif" font-size="10.00">editeurpanovisu.EditeurPanovisu.start</text>
</a>
</g>
</g>
<!-- Node10&#45;&gt;Node14 -->
<g id="edge24_Node000010_Node000014" class="edge">
<title>Node10&#45;&gt;Node14</title>
<g id="a_edge24_Node000010_Node000014"><a xlink:title=" ">
<path fill="none" stroke="#63b8ff" d="M1194.65,-206.13C1163.78,-185.95 1120.12,-158.71 1100.75,-152.77 1025.2,-129.57 935.06,-126.21 869.54,-127.85"/>
<polygon fill="#63b8ff" stroke="#63b8ff" points="1192.64,-208.99 1202.92,-211.57 1196.49,-203.15 1192.64,-208.99"/>
</a>
</g>
</g>
<!-- Node15 -->
<g id="Node000015" class="node">
<title>Node15</title>
<g id="a_Node000015"><a xlink:href="classediteurpanovisu_1_1EditeurPanovisu.html#aef8c9b28c3e88d6e27e3f62b9a901134" target="_top" xlink:title=" ">
<polygon fill="white" stroke="#666666" points="1099.25,-193.77 911.5,-193.77 911.5,-161.77 1099.25,-161.77 1099.25,-193.77"/>
<text xml:space="preserve" text-anchor="start" x="919.5" y="-180.27" font-family="Helvetica,sans-Serif" font-size="10.00">editeurpanovisu.EditeurPanovisu.sauve</text>
<text xml:space="preserve" text-anchor="middle" x="1005.38" y="-168.27" font-family="Helvetica,sans-Serif" font-size="10.00">Fichiers</text>
</a>
</g>
</g>
<!-- Node10&#45;&gt;Node15 -->
<g id="edge23_Node000010_Node000015" class="edge">
<title>Node10&#45;&gt;Node15</title>
<g id="a_edge23_Node000010_Node000015"><a xlink:title=" ">
<path fill="none" stroke="#63b8ff" d="M1145.58,-209.73C1123.34,-204.62 1099.5,-199.15 1077.94,-194.2"/>
<polygon fill="#63b8ff" stroke="#63b8ff" points="1144.68,-213.11 1155.21,-211.94 1146.25,-206.29 1144.68,-213.11"/>
</a>
</g>
</g>
<!-- Node11&#45;&gt;Node6 -->
<g id="edge14_Node000011_Node000006" class="edge">
<title>Node11&#45;&gt;Node6</title>
<g id="a_edge14_Node000011_Node000006"><a xlink:title=" ">
<path fill="none" stroke="#63b8ff" d="M516.82,-137.42C465.94,-171.27 372.09,-233.7 335.03,-258.36"/>
<polygon fill="#63b8ff" stroke="#63b8ff" points="518.45,-140.54 524.84,-132.09 514.58,-134.71 518.45,-140.54"/>
</a>
</g>
</g>
<!-- Node12&#45;&gt;Node6 -->
<g id="edge18_Node000012_Node000006" class="edge">
<title>Node12&#45;&gt;Node6</title>
<g id="a_edge18_Node000012_Node000006"><a xlink:title=" ">
<path fill="none" stroke="#63b8ff" d="M671.3,-303.06C608.74,-297.3 528.11,-289.77 456.5,-282.77 444.95,-281.64 432.85,-280.43 420.83,-279.22"/>
<polygon fill="#63b8ff" stroke="#63b8ff" points="670.97,-306.55 681.25,-303.98 671.61,-299.58 670.97,-306.55"/>
</a>
</g>
</g>
<!-- Node13&#45;&gt;Node6 -->
<g id="edge20_Node000013_Node000006" class="edge">
<title>Node13&#45;&gt;Node6</title>
<g id="a_edge20_Node000013_Node000006"><a xlink:title=" ">
<path fill="none" stroke="#63b8ff" d="M898.29,-231.34C787.84,-235.45 609.89,-243.16 456.5,-254.77 443.26,-255.77 429.31,-256.99 415.59,-258.3"/>
<polygon fill="#63b8ff" stroke="#63b8ff" points="898.38,-234.84 908.24,-230.98 898.12,-227.85 898.38,-234.84"/>
</a>
</g>
</g>
<!-- Node13&#45;&gt;Node14 -->
<g id="edge21_Node000013_Node000014" class="edge">
<title>Node13&#45;&gt;Node14</title>
<g id="a_edge21_Node000013_Node000014"><a xlink:title=" ">
<path fill="none" stroke="#63b8ff" d="M924.25,-207.91C919.39,-206.29 914.61,-204.57 910,-202.77 867.31,-186.07 820.58,-158.99 796.33,-144.21"/>
<polygon fill="#63b8ff" stroke="#63b8ff" points="922.95,-211.17 933.54,-210.87 925.07,-204.5 922.95,-211.17"/>
</a>
</g>
</g>
<!-- Node14&#45;&gt;Node11 -->
<g id="edge22_Node000014_Node000011" class="edge">
<title>Node14&#45;&gt;Node11</title>
<g id="a_edge22_Node000014_Node000011"><a xlink:title=" ">
<path fill="none" stroke="#63b8ff" d="M676.6,-125.23C666.98,-124.41 657.24,-123.59 647.68,-122.78"/>
<polygon fill="#63b8ff" stroke="#63b8ff" points="676.06,-128.69 686.32,-126.05 676.65,-121.72 676.06,-128.69"/>
</a>
</g>
</g>
<!-- Node16&#45;&gt;Node6 -->
<g id="edge26_Node000016_Node000006" class="edge">
<title>Node16&#45;&gt;Node6</title>
<g id="a_edge26_Node000016_Node000006"><a xlink:title=" ">
<path fill="none" stroke="#63b8ff" d="M1198.17,-120.86C1173.42,-103.66 1136.77,-81.47 1100.75,-71.77 824.17,2.77 707.23,48.75 456.5,-89.77 383.86,-129.9 337.49,-226.32 323.7,-258.28"/>
<polygon fill="#63b8ff" stroke="#63b8ff" points="1195.95,-123.58 1206.13,-126.53 1200.01,-117.88 1195.95,-123.58"/>
</a>
</g>
</g>
<!-- Node18&#45;&gt;Node4 -->
<g id="edge33_Node000018_Node000004" class="edge">
<title>Node18&#45;&gt;Node4</title>
<g id="a_edge33_Node000018_Node000004"><a xlink:title=" ">
<path fill="none" stroke="#63b8ff" d="M2220.35,-287.35C2149.51,-287.01 2049.89,-286.53 1978.99,-286.19"/>
<polygon fill="#63b8ff" stroke="#63b8ff" points="2219.94,-290.85 2229.95,-287.4 2219.97,-283.85 2219.94,-290.85"/>
</a>
</g>
</g>
<!-- Node20 -->
<g id="Node000020" class="node">
<title>Node20</title>
<g id="a_Node000020"><a xlink:href="classediteurpanovisu_1_1EditeurPanovisu.html#aaee69ab54364f89b58458c744a4195c0" target="_top" xlink:title=" ">
<polygon fill="white" stroke="#666666" points="1546,-159.77 1358.25,-159.77 1358.25,-127.77 1546,-127.77 1546,-159.77"/>
<text xml:space="preserve" text-anchor="start" x="1366.25" y="-146.27" font-family="Helvetica,sans-Serif" font-size="10.00">editeurpanovisu.EditeurPanovisu.sauve</text>
<text xml:space="preserve" text-anchor="middle" x="1452.12" y="-134.27" font-family="Helvetica,sans-Serif" font-size="10.00">FichierProjet</text>
</a>
</g>
</g>
<!-- Node19&#45;&gt;Node20 -->
<g id="edge35_Node000019_Node000020" class="edge">
<title>Node19&#45;&gt;Node20</title>
<g id="a_edge35_Node000019_Node000020"><a xlink:title=" ">
<path fill="none" stroke="#63b8ff" d="M1796.43,-125.69C1722.53,-129.58 1619.94,-134.99 1546.18,-138.87"/>
<polygon fill="#63b8ff" stroke="#63b8ff" points="1796.26,-129.21 1806.06,-125.19 1795.89,-122.22 1796.26,-129.21"/>
</a>
</g>
</g>
<!-- Node20&#45;&gt;Node10 -->
<g id="edge36_Node000020_Node000010" class="edge">
<title>Node20&#45;&gt;Node10</title>
<g id="a_edge36_Node000020_Node000010"><a xlink:title=" ">
<path fill="none" stroke="#63b8ff" d="M1397.9,-164.27C1359.65,-179.01 1308.77,-198.61 1273.18,-212.32"/>
<polygon fill="#63b8ff" stroke="#63b8ff" points="1398.84,-167.66 1406.91,-160.8 1396.32,-161.13 1398.84,-167.66"/>
</a>
</g>
</g>
<!-- Node20&#45;&gt;Node16 -->
<g id="edge37_Node000020_Node000016" class="edge">
<title>Node20&#45;&gt;Node16</title>
<g id="a_edge37_Node000020_Node000016"><a xlink:title=" ">
<path fill="none" stroke="#63b8ff" d="M1346.63,-143.77C1338.64,-143.77 1330.61,-143.77 1322.71,-143.77"/>
<polygon fill="#63b8ff" stroke="#63b8ff" points="1346.37,-147.27 1356.37,-143.77 1346.37,-140.27 1346.37,-147.27"/>
</a>
</g>
</g>
</g>
</svg>

<g id="navigator" transform="translate(0 0)" fill="#404254">
  <rect fill="#f2f5e9" fill-opacity="0.5" stroke="#606060" stroke-width=".5" x="0" y="0" width="60" height="60"/>
  <use id="zoomplus" xlink:href="#zoomPlus" x="17" y="9" onmousedown="handleZoom(evt,'in')"/>
  <use id="zoomminus" xlink:href="#zoomMin" x="42" y="9" onmousedown="handleZoom(evt,'out')"/>
  <use id="reset" xlink:href="#resetDef" x="30" y="36" onmousedown="handleReset()"/>
   <use id="arrowup" xlink:href="#arrowUp" x="0" y="0" onmousedown="handlePan(0,-1)"/>
  <use id="arrowright" xlink:href="#arrowRight" x="0" y="0" onmousedown="handlePan(1,0)"/>
  <use id="arrowdown" xlink:href="#arrowDown" x="0" y="0" onmousedown="handlePan(0,1)"/>
  <use id="arrowleft" xlink:href="#arrowLeft" x="0" y="0" onmousedown="handlePan(-1,0)"/>
</g>
<svg viewBox="0 0 15 15" width="100%" height="30px" preserveAspectRatio="xMaxYMin meet">
 <g id="arrow_out" transform="scale(0.3 0.3)">
  <a xlink:href="classediteurpanovisu_1_1GestionnaireInterfaceController_ab0b94455f451332ad6adf9569c940b8f_icgraph_org.svg" target="_base">
   <rect id="button" ry="5" rx="5" y="6" x="6" height="38" width="38"
        fill="#f2f5e9" fill-opacity="0.5" stroke="#606060" stroke-width="1.0"/>
   <path id="arrow"
     d="M 11.500037,31.436501 C 11.940474,20.09759 22.043105,11.32322 32.158766,21.979434 L 37.068811,17.246167 C 37.068811,17.246167 37.088388,32 37.088388,32 L 22.160133,31.978069 C 22.160133,31.978069 26.997745,27.140456 26.997745,27.140456 C 18.528582,18.264221 13.291696,25.230495 11.500037,31.436501 z"
     style="fill:#404040;"/>
  </a>
 </g>
</svg>

<style type='text/css'>
<![CDATA[
[data-mouse-over-selected='false'] { opacity: 0.7; }
[data-mouse-over-selected='true']  { opacity: 1.0; }
]]>
</style>
<script type="application/ecmascript"><![CDATA[
document.addEventListener('DOMContentLoaded', (event) => {
  highlightEdges();
  highlightAdjacentNodes();
});
]]></script>
</svg>
