<?xml version="1.0" encoding="UTF-8" standalone="no"?>
<!DOCTYPE svg PUBLIC "-//W3C//DTD SVG 1.1//EN"
 "http://www.w3.org/Graphics/SVG/1.1/DTD/svg11.dtd">
<!-- Generated by graphviz version 13.1.2 (20250808.2320)
 -->
<!-- Title: editeurpanovisu.OpenRouterClient.generatePanoramaDescription Pages: 1 -->
<svg width="360pt" height="58pt"
 viewBox="0.00 0.00 360.00 58.00" xmlns="http://www.w3.org/2000/svg" xmlns:xlink="http://www.w3.org/1999/xlink">
<g id="graph0" class="graph" transform="scale(1 1) rotate(0) translate(4 54)">
<title>editeurpanovisu.OpenRouterClient.generatePanoramaDescription</title>
<!-- Node1 -->
<g id="Node000001" class="node">
<title>Node1</title>
<g id="a_Node000001"><a xlink:title="Génère des suggestions de description pour un panorama.">
<polygon fill="#999999" stroke="#666666" points="175.75,-32 0,-32 0,0 175.75,0 175.75,-32"/>
<text xml:space="preserve" text-anchor="start" x="8" y="-18.5" font-family="Helvetica,sans-Serif" font-size="10.00">editeurpanovisu.OpenRouter</text>
<text xml:space="preserve" text-anchor="middle" x="87.88" y="-6.5" font-family="Helvetica,sans-Serif" font-size="10.00">Client.generatePanoramaDescription</text>
</a>
</g>
</g>
<!-- Node2 -->
<g id="Node000002" class="node">
<title>Node2</title>
<g id="a_Node000002"><a xlink:href="classediteurpanovisu_1_1OpenRouterClient.html#a6d6d3b5ec9d11ab65aa452a40c246df5" target="_top" xlink:title="Envoie un message au modèle et obtient une réponse.">
<polygon fill="white" stroke="#666666" points="351.5,-32 211.75,-32 211.75,0 351.5,0 351.5,-32"/>
<text xml:space="preserve" text-anchor="start" x="219.75" y="-18.5" font-family="Helvetica,sans-Serif" font-size="10.00">editeurpanovisu.OpenRouter</text>
<text xml:space="preserve" text-anchor="middle" x="281.62" y="-6.5" font-family="Helvetica,sans-Serif" font-size="10.00">Client.chat</text>
</a>
</g>
</g>
<!-- Node1&#45;&gt;Node2 -->
<g id="edge1_Node000001_Node000002" class="edge">
<title>Node1&#45;&gt;Node2</title>
<g id="a_edge1_Node000001_Node000002"><a xlink:title=" ">
<path fill="none" stroke="#63b8ff" d="M176.05,-16C184.03,-16 192.09,-16 200,-16"/>
<polygon fill="#63b8ff" stroke="#63b8ff" points="199.96,-19.5 209.96,-16 199.96,-12.5 199.96,-19.5"/>
</a>
</g>
</g>
<!-- Node2&#45;&gt;Node2 -->
<g id="edge2_Node000002_Node000002" class="edge">
<title>Node2&#45;&gt;Node2</title>
<g id="a_edge2_Node000002_Node000002"><a xlink:title=" ">
<path fill="none" stroke="#63b8ff" d="M247.04,-32.44C240.58,-41.58 252.11,-50 281.62,-50 297.77,-50 308.53,-47.48 313.91,-43.71"/>
<polygon fill="#63b8ff" stroke="#63b8ff" points="317.34,-44.42 315.91,-33.93 310.48,-43.02 317.34,-44.42"/>
</a>
</g>
</g>
</g>
</svg>
