<?xml version="1.0" encoding="UTF-8" standalone="no"?>
<!DOCTYPE svg PUBLIC "-//W3C//DTD SVG 1.1//EN"
 "http://www.w3.org/Graphics/SVG/1.1/DTD/svg11.dtd">
<!-- Generated by graphviz version 13.1.2 (20250808.2320)
 -->
<!-- Title: editeurpanovisu.GestionnaireInterfaceController.getiNombreImagesBouton Pages: 1 -->
<svg width="3234pt" height="599pt"
 viewBox="0.00 0.00 3234.00 599.00" xmlns="http://www.w3.org/2000/svg" xmlns:xlink="http://www.w3.org/1999/xlink">
<g id="graph0" class="graph" transform="scale(1 1) rotate(0) translate(4 594.81)">
<title>editeurpanovisu.GestionnaireInterfaceController.getiNombreImagesBouton</title>
<!-- Node1 -->
<g id="Node000001" class="node">
<title>Node1</title>
<g id="a_Node000001"><a xlink:title=" ">
<polygon fill="#999999" stroke="#666666" points="3225.75,-360.04 3044,-360.04 3044,-316.04 3225.75,-316.04 3225.75,-360.04"/>
<text xml:space="preserve" text-anchor="start" x="3052" y="-346.54" font-family="Helvetica,sans-Serif" font-size="10.00">editeurpanovisu.Gestionnaire</text>
<text xml:space="preserve" text-anchor="start" x="3052" y="-334.54" font-family="Helvetica,sans-Serif" font-size="10.00">InterfaceController.getiNombreImages</text>
<text xml:space="preserve" text-anchor="middle" x="3134.88" y="-322.54" font-family="Helvetica,sans-Serif" font-size="10.00">Bouton</text>
</a>
</g>
</g>
<!-- Node2 -->
<g id="Node000002" class="node">
<title>Node2</title>
<g id="a_Node000002"><a xlink:href="classediteurpanovisu_1_1GestionnaireInterfaceController.html#abbb77b6252a0951b9922aed46a4d67c9" target="_top" xlink:title=" ">
<polygon fill="white" stroke="#666666" points="3000.88,-482.04 2836.38,-482.04 2836.38,-438.04 3000.88,-438.04 3000.88,-482.04"/>
<text xml:space="preserve" text-anchor="start" x="2844.38" y="-468.54" font-family="Helvetica,sans-Serif" font-size="10.00">editeurpanovisu.Gestionnaire</text>
<text xml:space="preserve" text-anchor="start" x="2844.38" y="-456.54" font-family="Helvetica,sans-Serif" font-size="10.00">InterfaceController.changeCouleur</text>
<text xml:space="preserve" text-anchor="middle" x="2918.62" y="-444.54" font-family="Helvetica,sans-Serif" font-size="10.00">BarreClassique</text>
</a>
</g>
</g>
<!-- Node1&#45;&gt;Node2 -->
<g id="edge1_Node000001_Node000002" class="edge">
<title>Node1&#45;&gt;Node2</title>
<g id="a_edge1_Node000001_Node000002"><a xlink:title=" ">
<path fill="none" stroke="#63b8ff" d="M3084.71,-366.03C3046.59,-387.74 2994.45,-417.43 2959.03,-437.59"/>
<polygon fill="#63b8ff" stroke="#63b8ff" points="3086.3,-369.15 3093.26,-361.16 3082.84,-363.07 3086.3,-369.15"/>
</a>
</g>
</g>
<!-- Node11 -->
<g id="Node000011" class="node">
<title>Node11</title>
<g id="a_Node000011"><a xlink:href="classediteurpanovisu_1_1EditeurPanovisu.html#a94e36b9e9d09ab1a4c852b8a8cefa927" target="_top" xlink:title=" ">
<polygon fill="white" stroke="#666666" points="647.25,-375.04 456.5,-375.04 456.5,-343.04 647.25,-343.04 647.25,-375.04"/>
<text xml:space="preserve" text-anchor="start" x="464.5" y="-361.54" font-family="Helvetica,sans-Serif" font-size="10.00">editeurpanovisu.EditeurPanovisu.genere</text>
<text xml:space="preserve" text-anchor="middle" x="551.88" y="-349.54" font-family="Helvetica,sans-Serif" font-size="10.00">Visite</text>
</a>
</g>
</g>
<!-- Node1&#45;&gt;Node11 -->
<g id="edge63_Node000001_Node000011" class="edge">
<title>Node1&#45;&gt;Node11</title>
<g id="a_edge63_Node000001_Node000011"><a xlink:title=" ">
<path fill="none" stroke="#63b8ff" d="M3115.61,-369.94C3094.15,-404.64 3055.39,-459.4 3008,-491.04 2896.11,-565.74 2852.91,-579.04 2718.38,-579.04 2718.38,-579.04 2718.38,-579.04 1035.88,-579.04 877.12,-579.04 800.71,-628.84 683.25,-522.04 636.35,-479.39 691.99,-428.94 647.25,-384.04 644.02,-380.79 640.42,-377.96 636.57,-375.48"/>
<polygon fill="#63b8ff" stroke="#63b8ff" points="3118.49,-371.95 3120.67,-361.58 3112.5,-368.32 3118.49,-371.95"/>
</a>
</g>
</g>
<!-- Node17 -->
<g id="Node000017" class="node">
<title>Node17</title>
<g id="a_Node000017"><a xlink:href="classediteurpanovisu_1_1GestionnaireInterfaceController.html#a8d8afa284f09872cc933fb2c9caa9059" target="_top" xlink:title=" ">
<polygon fill="white" stroke="#666666" points="2793.25,-279.04 2641.5,-279.04 2641.5,-247.04 2793.25,-247.04 2793.25,-279.04"/>
<text xml:space="preserve" text-anchor="start" x="2649.5" y="-265.54" font-family="Helvetica,sans-Serif" font-size="10.00">editeurpanovisu.Gestionnaire</text>
<text xml:space="preserve" text-anchor="middle" x="2717.38" y="-253.54" font-family="Helvetica,sans-Serif" font-size="10.00">InterfaceController.chargeBarre</text>
</a>
</g>
</g>
<!-- Node1&#45;&gt;Node17 -->
<g id="edge62_Node000001_Node000017" class="edge">
<title>Node1&#45;&gt;Node17</title>
<g id="a_edge62_Node000001_Node000017"><a xlink:title=" ">
<path fill="none" stroke="#63b8ff" d="M3085.82,-310.2C3063,-298.39 3034.89,-285.81 3008,-279.04 2936.83,-261.11 2852.82,-258.41 2793.66,-259.41"/>
<polygon fill="#63b8ff" stroke="#63b8ff" points="3084.09,-313.24 3094.57,-314.84 3087.37,-307.06 3084.09,-313.24"/>
</a>
</g>
</g>
<!-- Node26 -->
<g id="Node000026" class="node">
<title>Node26</title>
<g id="a_Node000026"><a xlink:href="classediteurpanovisu_1_1GestionnaireInterfaceController.html#a9ef235c84ca4c7f9ba5599d6ca9d0eaf" target="_top" xlink:title=" ">
<polygon fill="white" stroke="#666666" points="3008,-382.04 2829.25,-382.04 2829.25,-350.04 3008,-350.04 3008,-382.04"/>
<text xml:space="preserve" text-anchor="start" x="2837.25" y="-368.54" font-family="Helvetica,sans-Serif" font-size="10.00">editeurpanovisu.Gestionnaire</text>
<text xml:space="preserve" text-anchor="middle" x="2918.62" y="-356.54" font-family="Helvetica,sans-Serif" font-size="10.00">InterfaceController.changeCouleurHS</text>
</a>
</g>
</g>
<!-- Node1&#45;&gt;Node26 -->
<g id="edge47_Node000001_Node000026" class="edge">
<title>Node1&#45;&gt;Node26</title>
<g id="a_edge47_Node000001_Node000026"><a xlink:title=" ">
<path fill="none" stroke="#63b8ff" d="M3032.36,-351.3C3024.35,-352.35 3016.3,-353.4 3008.39,-354.44"/>
<polygon fill="#63b8ff" stroke="#63b8ff" points="3032.67,-354.79 3042.13,-350.03 3031.76,-347.85 3032.67,-354.79"/>
</a>
</g>
</g>
<!-- Node27 -->
<g id="Node000027" class="node">
<title>Node27</title>
<g id="a_Node000027"><a xlink:href="classediteurpanovisu_1_1GestionnaireInterfaceController.html#a0b28da09c00fb7fa4d7cc086b78d8ea0" target="_top" xlink:title=" ">
<polygon fill="white" stroke="#666666" points="3000.88,-332.04 2836.38,-332.04 2836.38,-288.04 3000.88,-288.04 3000.88,-332.04"/>
<text xml:space="preserve" text-anchor="start" x="2844.38" y="-318.54" font-family="Helvetica,sans-Serif" font-size="10.00">editeurpanovisu.Gestionnaire</text>
<text xml:space="preserve" text-anchor="start" x="2844.38" y="-306.54" font-family="Helvetica,sans-Serif" font-size="10.00">InterfaceController.changeCouleur</text>
<text xml:space="preserve" text-anchor="middle" x="2918.62" y="-294.54" font-family="Helvetica,sans-Serif" font-size="10.00">HSHTML</text>
</a>
</g>
</g>
<!-- Node1&#45;&gt;Node27 -->
<g id="edge52_Node000001_Node000027" class="edge">
<title>Node1&#45;&gt;Node27</title>
<g id="a_edge52_Node000001_Node000027"><a xlink:title=" ">
<path fill="none" stroke="#63b8ff" d="M3032.36,-324.77C3021.93,-323.41 3011.42,-322.03 3001.24,-320.7"/>
<polygon fill="#63b8ff" stroke="#63b8ff" points="3031.76,-328.22 3042.13,-326.05 3032.67,-321.28 3031.76,-328.22"/>
</a>
</g>
</g>
<!-- Node28 -->
<g id="Node000028" class="node">
<title>Node28</title>
<g id="a_Node000028"><a xlink:href="classediteurpanovisu_1_1GestionnaireInterfaceController.html#acf735a6a656f2cb7af5957d45b6f6737" target="_top" xlink:title=" ">
<polygon fill="white" stroke="#666666" points="3000.88,-203.04 2836.38,-203.04 2836.38,-159.04 3000.88,-159.04 3000.88,-203.04"/>
<text xml:space="preserve" text-anchor="start" x="2844.38" y="-189.54" font-family="Helvetica,sans-Serif" font-size="10.00">editeurpanovisu.Gestionnaire</text>
<text xml:space="preserve" text-anchor="start" x="2844.38" y="-177.54" font-family="Helvetica,sans-Serif" font-size="10.00">InterfaceController.changeCouleur</text>
<text xml:space="preserve" text-anchor="middle" x="2918.62" y="-165.54" font-family="Helvetica,sans-Serif" font-size="10.00">HSPhoto</text>
</a>
</g>
</g>
<!-- Node1&#45;&gt;Node28 -->
<g id="edge57_Node000001_Node000028" class="edge">
<title>Node1&#45;&gt;Node28</title>
<g id="a_edge57_Node000001_Node000028"><a xlink:title=" ">
<path fill="none" stroke="#63b8ff" d="M3094.15,-308.93C3052.55,-278.44 2988.1,-231.22 2950.26,-203.49"/>
<polygon fill="#63b8ff" stroke="#63b8ff" points="3091.82,-311.56 3101.96,-314.65 3095.96,-305.91 3091.82,-311.56"/>
</a>
</g>
</g>
<!-- Node3 -->
<g id="Node000003" class="node">
<title>Node3</title>
<g id="a_Node000003"><a xlink:href="classediteurpanovisu_1_1GestionnaireInterfaceController.html#a55c8afda208674955a13d48d02be41b8" target="_top" xlink:title=" ">
<polygon fill="white" stroke="#666666" points="2213.5,-396.04 2046,-396.04 2046,-364.04 2213.5,-364.04 2213.5,-396.04"/>
<text xml:space="preserve" text-anchor="start" x="2054" y="-382.54" font-family="Helvetica,sans-Serif" font-size="10.00">editeurpanovisu.Gestionnaire</text>
<text xml:space="preserve" text-anchor="middle" x="2129.75" y="-370.54" font-family="Helvetica,sans-Serif" font-size="10.00">InterfaceController.afficheTemplate</text>
</a>
</g>
</g>
<!-- Node2&#45;&gt;Node3 -->
<g id="edge2_Node000002_Node000003" class="edge">
<title>Node2&#45;&gt;Node3</title>
<g id="a_edge2_Node000002_Node000003"><a xlink:title=" ">
<path fill="none" stroke="#63b8ff" d="M2824.66,-470.82C2814.08,-471.73 2803.44,-472.5 2793.25,-473.04 2550.63,-485.68 2486.48,-470.52 2249.5,-417.04 2225.38,-411.59 2199.08,-403.62 2177.38,-396.46"/>
<polygon fill="#63b8ff" stroke="#63b8ff" points="2824.95,-474.31 2834.59,-469.92 2824.32,-467.34 2824.95,-474.31"/>
</a>
</g>
</g>
<!-- Node2&#45;&gt;Node17 -->
<g id="edge28_Node000002_Node000017" class="edge">
<title>Node2&#45;&gt;Node17</title>
<g id="a_edge28_Node000002_Node000017"><a xlink:title=" ">
<path fill="none" stroke="#63b8ff" d="M2877.27,-431.14C2861.7,-419.34 2844.11,-405.16 2829.25,-391.04 2790.25,-353.97 2750.35,-304.49 2730.77,-279.28"/>
<polygon fill="#63b8ff" stroke="#63b8ff" points="2874.84,-433.7 2884.94,-436.89 2879.04,-428.1 2874.84,-433.7"/>
</a>
</g>
</g>
<!-- Node22 -->
<g id="Node000022" class="node">
<title>Node22</title>
<g id="a_Node000022"><a xlink:href="classediteurpanovisu_1_1GestionnaireInterfaceController.html#ac7fa988dc99d8684686127a2269cd66e" target="_top" xlink:title=" ">
<polygon fill="white" stroke="#666666" points="2000.62,-135.04 1844.38,-135.04 1844.38,-103.04 2000.62,-103.04 2000.62,-135.04"/>
<text xml:space="preserve" text-anchor="start" x="1852.38" y="-121.54" font-family="Helvetica,sans-Serif" font-size="10.00">editeurpanovisu.Gestionnaire</text>
<text xml:space="preserve" text-anchor="middle" x="1922.5" y="-109.54" font-family="Helvetica,sans-Serif" font-size="10.00">InterfaceController.creeInterface</text>
</a>
</g>
</g>
<!-- Node2&#45;&gt;Node22 -->
<g id="edge46_Node000002_Node000022" class="edge">
<title>Node2&#45;&gt;Node22</title>
<g id="a_edge46_Node000002_Node000022"><a xlink:title=" ">
<path fill="none" stroke="#63b8ff" d="M2835.43,-485.46C2757.77,-507.22 2637.61,-535.04 2531,-535.04 2531,-535.04 2531,-535.04 2333,-535.04 2199.71,-535.04 2143.13,-539.31 2046,-448.04 2042.93,-445.15 1953.46,-200.96 1929.41,-135.19"/>
<polygon fill="#63b8ff" stroke="#63b8ff" points="2835.98,-488.95 2844.65,-482.85 2834.07,-482.21 2835.98,-488.95"/>
</a>
</g>
</g>
<!-- Node4 -->
<g id="Node000004" class="node">
<title>Node4</title>
<g id="a_Node000004"><a xlink:href="classediteurpanovisu_1_1EditeurPanovisu.html#a87b29dc258cfc67370b1f27809e91b8e" target="_top" xlink:title=" ">
<polygon fill="white" stroke="#666666" points="2010,-396.04 1835,-396.04 1835,-364.04 2010,-364.04 2010,-396.04"/>
<text xml:space="preserve" text-anchor="start" x="1843" y="-382.54" font-family="Helvetica,sans-Serif" font-size="10.00">editeurpanovisu.EditeurPanovisu.tsk</text>
<text xml:space="preserve" text-anchor="middle" x="1922.5" y="-370.54" font-family="Helvetica,sans-Serif" font-size="10.00">AnalyseFichierPVU</text>
</a>
</g>
</g>
<!-- Node3&#45;&gt;Node4 -->
<g id="edge3_Node000003_Node000004" class="edge">
<title>Node3&#45;&gt;Node4</title>
<g id="a_edge3_Node000003_Node000004"><a xlink:title=" ">
<path fill="none" stroke="#63b8ff" d="M2034.1,-380.04C2026.23,-380.04 2018.29,-380.04 2010.48,-380.04"/>
<polygon fill="#63b8ff" stroke="#63b8ff" points="2034.05,-383.54 2044.05,-380.04 2034.05,-376.54 2034.05,-383.54"/>
</a>
</g>
</g>
<!-- Node5 -->
<g id="Node000005" class="node">
<title>Node5</title>
<g id="a_Node000005"><a xlink:href="classediteurpanovisu_1_1EditeurPanovisu.html#ab4beb1597b660a4a253befc6e76f1c54" target="_top" xlink:title=" ">
<polygon fill="white" stroke="#666666" points="1129.62,-551.04 944.12,-551.04 944.12,-519.04 1129.62,-519.04 1129.62,-551.04"/>
<text xml:space="preserve" text-anchor="start" x="952.12" y="-537.54" font-family="Helvetica,sans-Serif" font-size="10.00">editeurpanovisu.EditeurPanovisu.projet</text>
<text xml:space="preserve" text-anchor="middle" x="1036.88" y="-525.54" font-family="Helvetica,sans-Serif" font-size="10.00">Charge</text>
</a>
</g>
</g>
<!-- Node4&#45;&gt;Node5 -->
<g id="edge4_Node000004_Node000005" class="edge">
<title>Node4&#45;&gt;Node5</title>
<g id="a_edge4_Node000004_Node000005"><a xlink:title=" ">
<path fill="none" stroke="#63b8ff" d="M1853.2,-399.56C1747.23,-429.02 1536.38,-484.33 1353.75,-512.04 1278.87,-523.4 1193.11,-529.19 1129.87,-532.12"/>
<polygon fill="#63b8ff" stroke="#63b8ff" points="1853.9,-403 1862.59,-396.94 1852.02,-396.26 1853.9,-403"/>
</a>
</g>
</g>
<!-- Node8 -->
<g id="Node000008" class="node">
<title>Node8</title>
<g id="a_Node000008"><a xlink:href="classediteurpanovisu_1_1EditeurPanovisu.html#a6d19b4d885ee6fcec827b91956295732" target="_top" xlink:title=" ">
<polygon fill="white" stroke="#666666" points="1799,-396.04 1613.5,-396.04 1613.5,-364.04 1799,-364.04 1799,-396.04"/>
<text xml:space="preserve" text-anchor="start" x="1621.5" y="-382.54" font-family="Helvetica,sans-Serif" font-size="10.00">editeurpanovisu.EditeurPanovisu.projet</text>
<text xml:space="preserve" text-anchor="middle" x="1706.25" y="-370.54" font-family="Helvetica,sans-Serif" font-size="10.00">ChargeNom</text>
</a>
</g>
</g>
<!-- Node4&#45;&gt;Node8 -->
<g id="edge7_Node000004_Node000008" class="edge">
<title>Node4&#45;&gt;Node8</title>
<g id="a_edge7_Node000004_Node000008"><a xlink:title=" ">
<path fill="none" stroke="#63b8ff" d="M1823.16,-380.04C1815.26,-380.04 1807.3,-380.04 1799.45,-380.04"/>
<polygon fill="#63b8ff" stroke="#63b8ff" points="1823.15,-383.54 1833.15,-380.04 1823.15,-376.54 1823.15,-383.54"/>
</a>
</g>
</g>
<!-- Node6 -->
<g id="Node000006" class="node">
<title>Node6</title>
<g id="a_Node000006"><a xlink:href="classediteurpanovisu_1_1EditeurPanovisu.html#ac912b80c1f2ac97def60ff005c5c480b" target="_top" xlink:title=" ">
<polygon fill="white" stroke="#666666" points="420.5,-394.04 216.25,-394.04 216.25,-374.04 420.5,-374.04 420.5,-394.04"/>
<text xml:space="preserve" text-anchor="middle" x="318.38" y="-380.54" font-family="Helvetica,sans-Serif" font-size="10.00">editeurpanovisu.EditeurPanovisu.creeMenu</text>
</a>
</g>
</g>
<!-- Node5&#45;&gt;Node6 -->
<g id="edge5_Node000005_Node000006" class="edge">
<title>Node5&#45;&gt;Node6</title>
<g id="a_edge5_Node000005_Node000006"><a xlink:title=" ">
<path fill="none" stroke="#63b8ff" d="M932.51,-548.04C812.88,-558.7 612.36,-562.84 456.5,-497.04 399.66,-473.04 347.94,-417.57 328.03,-394.45"/>
<polygon fill="#63b8ff" stroke="#63b8ff" points="932.69,-551.53 942.33,-547.12 932.04,-544.56 932.69,-551.53"/>
</a>
</g>
</g>
<!-- Node7 -->
<g id="Node000007" class="node">
<title>Node7</title>
<g id="a_Node000007"><a xlink:href="classediteurpanovisu_1_1EditeurPanovisu.html#a86c393eee88f54c694db994ddd85b90d" target="_top" xlink:title=" ">
<polygon fill="white" stroke="#666666" points="180.25,-400.04 0,-400.04 0,-368.04 180.25,-368.04 180.25,-400.04"/>
<text xml:space="preserve" text-anchor="start" x="8" y="-386.54" font-family="Helvetica,sans-Serif" font-size="10.00">editeurpanovisu.EditeurPanovisu.cree</text>
<text xml:space="preserve" text-anchor="middle" x="90.12" y="-374.54" font-family="Helvetica,sans-Serif" font-size="10.00">Environnement</text>
</a>
</g>
</g>
<!-- Node6&#45;&gt;Node7 -->
<g id="edge6_Node000006_Node000007" class="edge">
<title>Node6&#45;&gt;Node7</title>
<g id="a_edge6_Node000006_Node000007"><a xlink:title=" ">
<path fill="none" stroke="#63b8ff" d="M204.51,-384.04C196.49,-384.04 188.46,-384.04 180.6,-384.04"/>
<polygon fill="#63b8ff" stroke="#63b8ff" points="204.32,-387.54 214.32,-384.04 204.32,-380.54 204.32,-387.54"/>
</a>
</g>
</g>
<!-- Node8&#45;&gt;Node6 -->
<g id="edge27_Node000008_Node000006" class="edge">
<title>Node8&#45;&gt;Node6</title>
<g id="a_edge27_Node000008_Node000006"><a xlink:title=" ">
<path fill="none" stroke="#63b8ff" d="M1673.82,-357.46C1603.62,-309.34 1427.26,-201.04 1262,-201.04 1262,-201.04 1262,-201.04 793.38,-201.04 638.29,-201.04 597.64,-227.75 456.5,-292.04 406.67,-314.73 354.86,-354.77 331.77,-373.64"/>
<polygon fill="#63b8ff" stroke="#63b8ff" points="1671.55,-360.15 1681.76,-362.97 1675.54,-354.4 1671.55,-360.15"/>
</a>
</g>
</g>
<!-- Node9 -->
<g id="Node000009" class="node">
<title>Node9</title>
<g id="a_Node000009"><a xlink:href="classediteurpanovisu_1_1EditeurPanovisu.html#af0d1c32bb78acbff561c822a0d15f760" target="_top" xlink:title=" ">
<polygon fill="white" stroke="#666666" points="1577.5,-439.04 1389.75,-439.04 1389.75,-407.04 1577.5,-407.04 1577.5,-439.04"/>
<text xml:space="preserve" text-anchor="start" x="1397.75" y="-425.54" font-family="Helvetica,sans-Serif" font-size="10.00">editeurpanovisu.EditeurPanovisu.ajoute</text>
<text xml:space="preserve" text-anchor="middle" x="1483.62" y="-413.54" font-family="Helvetica,sans-Serif" font-size="10.00">FichierHisto</text>
</a>
</g>
</g>
<!-- Node8&#45;&gt;Node9 -->
<g id="edge8_Node000008_Node000009" class="edge">
<title>Node8&#45;&gt;Node9</title>
<g id="a_edge8_Node000008_Node000009"><a xlink:title=" ">
<path fill="none" stroke="#63b8ff" d="M1602.25,-393.37C1580.37,-397.56 1558.11,-402.17 1538.93,-406.54"/>
<polygon fill="#63b8ff" stroke="#63b8ff" points="1602.62,-396.87 1611.8,-391.57 1601.32,-389.99 1602.62,-396.87"/>
</a>
</g>
</g>
<!-- Node9&#45;&gt;Node5 -->
<g id="edge9_Node000009_Node000005" class="edge">
<title>Node9&#45;&gt;Node5</title>
<g id="a_edge9_Node000009_Node000005"><a xlink:title=" ">
<path fill="none" stroke="#63b8ff" d="M1440.47,-444.35C1415.74,-456.08 1383.59,-470.04 1353.75,-479.04 1280.03,-501.25 1193.81,-515.8 1130.09,-524.49"/>
<polygon fill="#63b8ff" stroke="#63b8ff" points="1441.72,-447.63 1449.22,-440.13 1438.69,-441.32 1441.72,-447.63"/>
</a>
</g>
</g>
<!-- Node9&#45;&gt;Node8 -->
<g id="edge10_Node000009_Node000008" class="edge">
<title>Node9&#45;&gt;Node8</title>
<g id="a_edge10_Node000009_Node000008"><a xlink:title=" ">
<path fill="none" stroke="#63b8ff" d="M1588.99,-409.44C1610.45,-405.32 1632.2,-400.8 1651,-396.52"/>
<polygon fill="#63b8ff" stroke="#63b8ff" points="1588.48,-405.97 1579.31,-411.27 1589.78,-412.85 1588.48,-405.97"/>
</a>
</g>
</g>
<!-- Node10 -->
<g id="Node000010" class="node">
<title>Node10</title>
<g id="a_Node000010"><a xlink:href="classediteurpanovisu_1_1EditeurPanovisu.html#a9f3ea25b35d4884524508dab3dc4fd6a" target="_top" xlink:title=" ">
<polygon fill="white" stroke="#666666" points="1353.75,-395.04 1168.25,-395.04 1168.25,-363.04 1353.75,-363.04 1353.75,-395.04"/>
<text xml:space="preserve" text-anchor="start" x="1176.25" y="-381.54" font-family="Helvetica,sans-Serif" font-size="10.00">editeurpanovisu.EditeurPanovisu.projet</text>
<text xml:space="preserve" text-anchor="middle" x="1261" y="-369.54" font-family="Helvetica,sans-Serif" font-size="10.00">Sauve</text>
</a>
</g>
</g>
<!-- Node9&#45;&gt;Node10 -->
<g id="edge11_Node000009_Node000010" class="edge">
<title>Node9&#45;&gt;Node10</title>
<g id="a_edge11_Node000009_Node000010"><a xlink:title=" ">
<path fill="none" stroke="#63b8ff" d="M1389.01,-404.37C1374.29,-401.43 1359.18,-398.42 1344.73,-395.54"/>
<polygon fill="#63b8ff" stroke="#63b8ff" points="1388.18,-407.77 1398.67,-406.29 1389.55,-400.91 1388.18,-407.77"/>
</a>
</g>
</g>
<!-- Node16 -->
<g id="Node000016" class="node">
<title>Node16</title>
<g id="a_Node000016"><a xlink:href="classediteurpanovisu_1_1EditeurPanovisu.html#a7b2e25dc717eb52b62e23d54ec4c124a" target="_top" xlink:title=" ">
<polygon fill="white" stroke="#666666" points="887.12,-513.04 701.62,-513.04 701.62,-481.04 887.12,-481.04 887.12,-513.04"/>
<text xml:space="preserve" text-anchor="start" x="709.62" y="-499.54" font-family="Helvetica,sans-Serif" font-size="10.00">editeurpanovisu.EditeurPanovisu.projet</text>
<text xml:space="preserve" text-anchor="middle" x="794.38" y="-487.54" font-family="Helvetica,sans-Serif" font-size="10.00">SauveSous</text>
</a>
</g>
</g>
<!-- Node9&#45;&gt;Node16 -->
<g id="edge25_Node000009_Node000016" class="edge">
<title>Node9&#45;&gt;Node16</title>
<g id="a_edge25_Node000009_Node000016"><a xlink:title=" ">
<path fill="none" stroke="#63b8ff" d="M1378.02,-437.18C1308.44,-446.33 1214.97,-458.16 1132.25,-467.04 1049.49,-475.91 955.1,-484.16 887.33,-489.75"/>
<polygon fill="#63b8ff" stroke="#63b8ff" points="1378.46,-440.65 1387.91,-435.87 1377.54,-433.71 1378.46,-440.65"/>
</a>
</g>
</g>
<!-- Node10&#45;&gt;Node5 -->
<g id="edge15_Node000010_Node000005" class="edge">
<title>Node10&#45;&gt;Node5</title>
<g id="a_edge15_Node000010_Node000005"><a xlink:title=" ">
<path fill="none" stroke="#63b8ff" d="M1227.27,-402.03C1181.9,-433.89 1101.01,-490.7 1061.25,-518.62"/>
<polygon fill="#63b8ff" stroke="#63b8ff" points="1229.24,-404.92 1235.41,-396.31 1225.21,-399.19 1229.24,-404.92"/>
</a>
</g>
</g>
<!-- Node10&#45;&gt;Node6 -->
<g id="edge12_Node000010_Node000006" class="edge">
<title>Node10&#45;&gt;Node6</title>
<g id="a_edge12_Node000010_Node000006"><a xlink:title=" ">
<path fill="none" stroke="#63b8ff" d="M1177.06,-397.83C1030.51,-428.14 716.67,-479.99 456.5,-434.04 413.83,-426.5 366.98,-406.72 340.58,-394.42"/>
<polygon fill="#63b8ff" stroke="#63b8ff" points="1177.62,-401.29 1186.69,-395.82 1176.19,-394.44 1177.62,-401.29"/>
</a>
</g>
</g>
<!-- Node10&#45;&gt;Node8 -->
<g id="edge16_Node000010_Node000008" class="edge">
<title>Node10&#45;&gt;Node8</title>
<g id="a_edge16_Node000010_Node000008"><a xlink:title=" ">
<path fill="none" stroke="#63b8ff" d="M1365.33,-379.27C1440.33,-379.44 1540.88,-379.67 1613.14,-379.83"/>
<polygon fill="#63b8ff" stroke="#63b8ff" points="1365.51,-375.77 1355.51,-379.25 1365.5,-382.77 1365.51,-375.77"/>
</a>
</g>
</g>
<!-- Node10&#45;&gt;Node11 -->
<g id="edge13_Node000010_Node000011" class="edge">
<title>Node10&#45;&gt;Node11</title>
<g id="a_edge13_Node000010_Node000011"><a xlink:title=" ">
<path fill="none" stroke="#63b8ff" d="M1156.62,-376.11C1019.72,-372.24 780.18,-365.46 647.71,-361.72"/>
<polygon fill="#63b8ff" stroke="#63b8ff" points="1156.31,-379.6 1166.41,-376.39 1156.51,-372.61 1156.31,-379.6"/>
</a>
</g>
</g>
<!-- Node12 -->
<g id="Node000012" class="node">
<title>Node12</title>
<g id="a_Node000012"><a xlink:href="classediteurpanovisu_1_1EditeurPanovisu.html#a9b46b222714af12c06ec33d410400773" target="_top" xlink:title=" ">
<polygon fill="white" stroke="#666666" points="647.25,-425.04 456.5,-425.04 456.5,-393.04 647.25,-393.04 647.25,-425.04"/>
<text xml:space="preserve" text-anchor="start" x="464.5" y="-411.54" font-family="Helvetica,sans-Serif" font-size="10.00">editeurpanovisu.EditeurPanovisu.projets</text>
<text xml:space="preserve" text-anchor="middle" x="551.88" y="-399.54" font-family="Helvetica,sans-Serif" font-size="10.00">Fermer</text>
</a>
</g>
</g>
<!-- Node10&#45;&gt;Node12 -->
<g id="edge17_Node000010_Node000012" class="edge">
<title>Node10&#45;&gt;Node12</title>
<g id="a_edge17_Node000010_Node000012"><a xlink:title=" ">
<path fill="none" stroke="#63b8ff" d="M1156.65,-385.73C1148.39,-386.19 1140.18,-386.64 1132.25,-387.04 961.6,-395.62 762.52,-402.49 647.74,-406.15"/>
<polygon fill="#63b8ff" stroke="#63b8ff" points="1156.62,-389.23 1166.4,-385.16 1156.21,-382.25 1156.62,-389.23"/>
</a>
</g>
</g>
<!-- Node13 -->
<g id="Node000013" class="node">
<title>Node13</title>
<g id="a_Node000013"><a xlink:href="classediteurpanovisu_1_1EditeurPanovisu.html#ac9d449399ccd38843fa12e716f0c9611" target="_top" xlink:title=" ">
<polygon fill="white" stroke="#666666" points="1132.25,-261.04 941.5,-261.04 941.5,-229.04 1132.25,-229.04 1132.25,-261.04"/>
<text xml:space="preserve" text-anchor="start" x="949.5" y="-247.54" font-family="Helvetica,sans-Serif" font-size="10.00">editeurpanovisu.EditeurPanovisu.projets</text>
<text xml:space="preserve" text-anchor="middle" x="1036.88" y="-235.54" font-family="Helvetica,sans-Serif" font-size="10.00">Nouveau</text>
</a>
</g>
</g>
<!-- Node10&#45;&gt;Node13 -->
<g id="edge19_Node000010_Node000013" class="edge">
<title>Node10&#45;&gt;Node13</title>
<g id="a_edge19_Node000010_Node000013"><a xlink:title=" ">
<path fill="none" stroke="#63b8ff" d="M1237.86,-354.57C1214.09,-329.74 1174.06,-291.95 1132.25,-270.04 1126.09,-266.81 1119.49,-263.98 1112.74,-261.49"/>
<polygon fill="#63b8ff" stroke="#63b8ff" points="1235.13,-356.77 1244.53,-361.66 1240.23,-351.97 1235.13,-356.77"/>
</a>
</g>
</g>
<!-- Node14 -->
<g id="Node000014" class="node">
<title>Node14</title>
<g id="a_Node000014"><a xlink:href="classediteurpanovisu_1_1EditeurPanovisu.html#a2b3125ffe2e6291efacf19df6cb30a8d" target="_top" xlink:title=" ">
<polygon fill="white" stroke="#666666" points="884.88,-349.04 703.88,-349.04 703.88,-329.04 884.88,-329.04 884.88,-349.04"/>
<text xml:space="preserve" text-anchor="middle" x="794.38" y="-335.54" font-family="Helvetica,sans-Serif" font-size="10.00">editeurpanovisu.EditeurPanovisu.start</text>
</a>
</g>
</g>
<!-- Node10&#45;&gt;Node14 -->
<g id="edge24_Node000010_Node000014" class="edge">
<title>Node10&#45;&gt;Node14</title>
<g id="a_edge24_Node000010_Node000014"><a xlink:title=" ">
<path fill="none" stroke="#63b8ff" d="M1156.69,-365.62C1148.43,-364.69 1140.2,-363.82 1132.25,-363.04 1048.66,-354.83 953.14,-348.29 885.21,-344.13"/>
<polygon fill="#63b8ff" stroke="#63b8ff" points="1156.12,-369.08 1166.45,-366.74 1156.92,-362.12 1156.12,-369.08"/>
</a>
</g>
</g>
<!-- Node15 -->
<g id="Node000015" class="node">
<title>Node15</title>
<g id="a_Node000015"><a xlink:href="classediteurpanovisu_1_1EditeurPanovisu.html#aef8c9b28c3e88d6e27e3f62b9a901134" target="_top" xlink:title=" ">
<polygon fill="white" stroke="#666666" points="1130.75,-311.04 943,-311.04 943,-279.04 1130.75,-279.04 1130.75,-311.04"/>
<text xml:space="preserve" text-anchor="start" x="951" y="-297.54" font-family="Helvetica,sans-Serif" font-size="10.00">editeurpanovisu.EditeurPanovisu.sauve</text>
<text xml:space="preserve" text-anchor="middle" x="1036.88" y="-285.54" font-family="Helvetica,sans-Serif" font-size="10.00">Fichiers</text>
</a>
</g>
</g>
<!-- Node10&#45;&gt;Node15 -->
<g id="edge23_Node000010_Node000015" class="edge">
<title>Node10&#45;&gt;Node15</title>
<g id="a_edge23_Node000010_Node000015"><a xlink:title=" ">
<path fill="none" stroke="#63b8ff" d="M1213.48,-358.15C1189.44,-347.67 1159.5,-335.1 1132.25,-325.04 1119.51,-320.33 1105.64,-315.67 1092.56,-311.48"/>
<polygon fill="#63b8ff" stroke="#63b8ff" points="1211.79,-361.23 1222.35,-362.05 1214.6,-354.82 1211.79,-361.23"/>
</a>
</g>
</g>
<!-- Node11&#45;&gt;Node6 -->
<g id="edge14_Node000011_Node000006" class="edge">
<title>Node11&#45;&gt;Node6</title>
<g id="a_edge14_Node000011_Node000006"><a xlink:title=" ">
<path fill="none" stroke="#63b8ff" d="M444.6,-370.51C435.17,-371.53 425.65,-372.56 416.31,-373.57"/>
<polygon fill="#63b8ff" stroke="#63b8ff" points="444.98,-373.99 454.54,-369.44 444.22,-367.03 444.98,-373.99"/>
</a>
</g>
</g>
<!-- Node12&#45;&gt;Node6 -->
<g id="edge18_Node000012_Node000006" class="edge">
<title>Node12&#45;&gt;Node6</title>
<g id="a_edge18_Node000012_Node000006"><a xlink:title=" ">
<path fill="none" stroke="#63b8ff" d="M444.6,-397.56C435.17,-396.54 425.65,-395.51 416.31,-394.5"/>
<polygon fill="#63b8ff" stroke="#63b8ff" points="444.22,-401.04 454.54,-398.63 444.98,-394.08 444.22,-401.04"/>
</a>
</g>
</g>
<!-- Node13&#45;&gt;Node6 -->
<g id="edge20_Node000013_Node000006" class="edge">
<title>Node13&#45;&gt;Node6</title>
<g id="a_edge20_Node000013_Node000006"><a xlink:title=" ">
<path fill="none" stroke="#63b8ff" d="M929.71,-254.99C812.55,-267.44 619.04,-292.35 456.5,-334.04 415.75,-344.49 370.19,-362.41 343.19,-373.72"/>
<polygon fill="#63b8ff" stroke="#63b8ff" points="930.07,-258.47 939.65,-253.95 929.34,-251.51 930.07,-258.47"/>
</a>
</g>
</g>
<!-- Node13&#45;&gt;Node14 -->
<g id="edge21_Node000013_Node000014" class="edge">
<title>Node13&#45;&gt;Node14</title>
<g id="a_edge21_Node000013_Node000014"><a xlink:title=" ">
<path fill="none" stroke="#63b8ff" d="M956.84,-264.82C951.62,-266.48 946.46,-268.22 941.5,-270.04 941.3,-270.11 858.35,-309.29 817.53,-328.57"/>
<polygon fill="#63b8ff" stroke="#63b8ff" points="957.64,-268.24 966.18,-261.97 955.59,-261.54 957.64,-268.24"/>
</a>
</g>
</g>
<!-- Node14&#45;&gt;Node11 -->
<g id="edge22_Node000014_Node000011" class="edge">
<title>Node14&#45;&gt;Node11</title>
<g id="a_edge22_Node000014_Node000011"><a xlink:title=" ">
<path fill="none" stroke="#63b8ff" d="M692.23,-347.45C677.4,-348.68 662.18,-349.95 647.49,-351.17"/>
<polygon fill="#63b8ff" stroke="#63b8ff" points="692.3,-350.95 701.97,-346.64 691.72,-343.98 692.3,-350.95"/>
</a>
</g>
</g>
<!-- Node16&#45;&gt;Node6 -->
<g id="edge26_Node000016_Node000006" class="edge">
<title>Node16&#45;&gt;Node6</title>
<g id="a_edge26_Node000016_Node000006"><a xlink:title=" ">
<path fill="none" stroke="#63b8ff" d="M690.27,-499.82C622.32,-498.78 532.22,-491.84 456.5,-467.04 406.25,-450.58 355.06,-412.83 332,-394.46"/>
<polygon fill="#63b8ff" stroke="#63b8ff" points="689.86,-503.32 699.9,-499.92 689.94,-496.32 689.86,-503.32"/>
</a>
</g>
</g>
<!-- Node18 -->
<g id="Node000018" class="node">
<title>Node18</title>
<g id="a_Node000018"><a xlink:href="classediteurpanovisu_1_1GestionnaireInterfaceController.html#af7f1e67219c75f044a231abc76bcf790" target="_top" xlink:title=" ">
<polygon fill="white" stroke="#666666" points="2605.5,-285.04 2454.5,-285.04 2454.5,-241.04 2605.5,-241.04 2605.5,-285.04"/>
<text xml:space="preserve" text-anchor="start" x="2462.5" y="-271.54" font-family="Helvetica,sans-Serif" font-size="10.00">editeurpanovisu.Gestionnaire</text>
<text xml:space="preserve" text-anchor="start" x="2462.5" y="-259.54" font-family="Helvetica,sans-Serif" font-size="10.00">InterfaceController.afficheBarre</text>
<text xml:space="preserve" text-anchor="middle" x="2530" y="-247.54" font-family="Helvetica,sans-Serif" font-size="10.00">Classique</text>
</a>
</g>
</g>
<!-- Node17&#45;&gt;Node18 -->
<g id="edge29_Node000017_Node000018" class="edge">
<title>Node17&#45;&gt;Node18</title>
<g id="a_edge29_Node000017_Node000018"><a xlink:title=" ">
<path fill="none" stroke="#63b8ff" d="M2629.96,-263.04C2621.94,-263.04 2613.85,-263.04 2605.94,-263.04"/>
<polygon fill="#63b8ff" stroke="#63b8ff" points="2629.73,-266.54 2639.73,-263.04 2629.73,-259.54 2629.73,-266.54"/>
</a>
</g>
</g>
<!-- Node17&#45;&gt;Node22 -->
<g id="edge45_Node000017_Node000022" class="edge">
<title>Node17&#45;&gt;Node22</title>
<g id="a_edge45_Node000017_Node000022"><a xlink:title=" ">
<path fill="none" stroke="#63b8ff" d="M2662.47,-242.39C2655.36,-239.39 2648.21,-236.23 2641.5,-233.04 2539.11,-184.29 2528.13,-138.04 2418.5,-109.04 2274.95,-71.06 2099.73,-88.89 2000.95,-104.5"/>
<polygon fill="#63b8ff" stroke="#63b8ff" points="2660.84,-245.5 2671.42,-246.09 2663.51,-239.03 2660.84,-245.5"/>
</a>
</g>
</g>
<!-- Node18&#45;&gt;Node3 -->
<g id="edge31_Node000018_Node000003" class="edge">
<title>Node18&#45;&gt;Node3</title>
<g id="a_edge31_Node000018_Node000003"><a xlink:title=" ">
<path fill="none" stroke="#63b8ff" d="M2443.37,-280.31C2387.56,-292.44 2313.49,-310.18 2249.5,-331.04 2221.09,-340.3 2189.88,-353.29 2166.59,-363.57"/>
<polygon fill="#63b8ff" stroke="#63b8ff" points="2443.76,-283.81 2452.8,-278.28 2442.29,-276.97 2443.76,-283.81"/>
</a>
</g>
</g>
<!-- Node19 -->
<g id="Node000019" class="node">
<title>Node19</title>
<g id="a_Node000019"><a xlink:href="classediteurpanovisu_1_1GestionnaireInterfaceController.html#a7c5cff6934d95be9a4babb6426a5ac26" target="_top" xlink:title=" ">
<polygon fill="white" stroke="#666666" points="2414,-241.04 2254,-241.04 2254,-197.04 2414,-197.04 2414,-241.04"/>
<text xml:space="preserve" text-anchor="start" x="2262" y="-227.54" font-family="Helvetica,sans-Serif" font-size="10.00">editeurpanovisu.Gestionnaire</text>
<text xml:space="preserve" text-anchor="start" x="2262" y="-215.54" font-family="Helvetica,sans-Serif" font-size="10.00">InterfaceController.afficheImages</text>
<text xml:space="preserve" text-anchor="middle" x="2334" y="-203.54" font-family="Helvetica,sans-Serif" font-size="10.00">FondInterface</text>
</a>
</g>
</g>
<!-- Node18&#45;&gt;Node19 -->
<g id="edge30_Node000018_Node000019" class="edge">
<title>Node18&#45;&gt;Node19</title>
<g id="a_edge30_Node000018_Node000019"><a xlink:title=" ">
<path fill="none" stroke="#63b8ff" d="M2443.08,-243.55C2433.47,-241.37 2423.71,-239.16 2414.19,-237"/>
<polygon fill="#63b8ff" stroke="#63b8ff" points="2442.27,-246.95 2452.8,-245.75 2443.82,-240.13 2442.27,-246.95"/>
</a>
</g>
</g>
<!-- Node20 -->
<g id="Node000020" class="node">
<title>Node20</title>
<g id="a_Node000020"><a xlink:href="classediteurpanovisu_1_1GestionnaireInterfaceController.html#a5bdd1505c1ad1eee506c2618c9368994" target="_top" xlink:title=" ">
<polygon fill="white" stroke="#666666" points="2418.5,-179.04 2249.5,-179.04 2249.5,-147.04 2418.5,-147.04 2418.5,-179.04"/>
<text xml:space="preserve" text-anchor="start" x="2257.5" y="-165.54" font-family="Helvetica,sans-Serif" font-size="10.00">editeurpanovisu.Gestionnaire</text>
<text xml:space="preserve" text-anchor="middle" x="2334" y="-153.54" font-family="Helvetica,sans-Serif" font-size="10.00">InterfaceController.afficheVignettes</text>
</a>
</g>
</g>
<!-- Node18&#45;&gt;Node20 -->
<g id="edge32_Node000018_Node000020" class="edge">
<title>Node18&#45;&gt;Node20</title>
<g id="a_edge32_Node000018_Node000020"><a xlink:title=" ">
<path fill="none" stroke="#63b8ff" d="M2492.31,-233.94C2471.58,-218.61 2444.65,-200.46 2418.5,-188.04 2411.8,-184.85 2404.61,-181.97 2397.36,-179.4"/>
<polygon fill="#63b8ff" stroke="#63b8ff" points="2490.07,-236.64 2500.16,-239.85 2494.27,-231.04 2490.07,-236.64"/>
</a>
</g>
</g>
<!-- Node18&#45;&gt;Node22 -->
<g id="edge43_Node000018_Node000022" class="edge">
<title>Node18&#45;&gt;Node22</title>
<g id="a_edge43_Node000018_Node000022"><a xlink:title=" ">
<path fill="none" stroke="#63b8ff" d="M2511.36,-231.31C2492.67,-201.22 2460.12,-157.76 2418.5,-138.04 2346.81,-104.06 2121.34,-109.19 2000.99,-114.7"/>
<polygon fill="#63b8ff" stroke="#63b8ff" points="2508.23,-232.88 2516.38,-239.65 2514.22,-229.28 2508.23,-232.88"/>
</a>
</g>
</g>
<!-- Node23 -->
<g id="Node000023" class="node">
<title>Node23</title>
<g id="a_Node000023"><a xlink:href="classediteurpanovisu_1_1GestionnaireInterfaceController.html#a568c34e865fb653f63b8fa7a9a9cafc8" target="_top" xlink:title=" ">
<polygon fill="white" stroke="#666666" points="2200.75,-276.04 2058.75,-276.04 2058.75,-244.04 2200.75,-244.04 2200.75,-276.04"/>
<text xml:space="preserve" text-anchor="start" x="2066.75" y="-262.54" font-family="Helvetica,sans-Serif" font-size="10.00">editeurpanovisu.Gestionnaire</text>
<text xml:space="preserve" text-anchor="middle" x="2129.75" y="-250.54" font-family="Helvetica,sans-Serif" font-size="10.00">InterfaceController.rafraichit</text>
</a>
</g>
</g>
<!-- Node18&#45;&gt;Node23 -->
<g id="edge44_Node000018_Node000023" class="edge">
<title>Node18&#45;&gt;Node23</title>
<g id="a_edge44_Node000018_Node000023"><a xlink:title=" ">
<path fill="none" stroke="#63b8ff" d="M2442.75,-262.39C2370.41,-261.84 2268.41,-261.07 2200.98,-260.57"/>
<polygon fill="#63b8ff" stroke="#63b8ff" points="2442.55,-265.88 2452.58,-262.46 2442.61,-258.89 2442.55,-265.88"/>
</a>
</g>
</g>
<!-- Node20&#45;&gt;Node3 -->
<g id="edge33_Node000020_Node000003" class="edge">
<title>Node20&#45;&gt;Node3</title>
<g id="a_edge33_Node000020_Node000003"><a xlink:title=" ">
<path fill="none" stroke="#63b8ff" d="M2251.88,-185.92C2251.07,-186.61 2250.27,-187.31 2249.5,-188.04 2215.95,-219.49 2236.98,-245.5 2213.5,-285.04 2195.29,-315.69 2166.72,-345.82 2148.37,-363.67"/>
<polygon fill="#63b8ff" stroke="#63b8ff" points="2253.81,-188.85 2259.96,-180.23 2249.77,-183.13 2253.81,-188.85"/>
</a>
</g>
</g>
<!-- Node21 -->
<g id="Node000021" class="node">
<title>Node21</title>
<g id="a_Node000021"><a xlink:href="classediteurpanovisu_1_1GestionnaireInterfaceController.html#a8c634f775c31c1a4db22d5ef0659f7e4" target="_top" xlink:title=" ">
<polygon fill="white" stroke="#666666" points="2203.38,-179.04 2056.12,-179.04 2056.12,-147.04 2203.38,-147.04 2203.38,-179.04"/>
<text xml:space="preserve" text-anchor="start" x="2064.12" y="-165.54" font-family="Helvetica,sans-Serif" font-size="10.00">editeurpanovisu.Gestionnaire</text>
<text xml:space="preserve" text-anchor="middle" x="2129.75" y="-153.54" font-family="Helvetica,sans-Serif" font-size="10.00">InterfaceController.afficheTitre</text>
</a>
</g>
</g>
<!-- Node20&#45;&gt;Node21 -->
<g id="edge34_Node000020_Node000021" class="edge">
<title>Node20&#45;&gt;Node21</title>
<g id="a_edge34_Node000020_Node000021"><a xlink:title=" ">
<path fill="none" stroke="#63b8ff" d="M2237.87,-163.04C2226.41,-163.04 2214.84,-163.04 2203.76,-163.04"/>
<polygon fill="#63b8ff" stroke="#63b8ff" points="2237.76,-166.54 2247.76,-163.04 2237.76,-159.54 2237.76,-166.54"/>
</a>
</g>
</g>
<!-- Node20&#45;&gt;Node22 -->
<g id="edge36_Node000020_Node000022" class="edge">
<title>Node20&#45;&gt;Node22</title>
<g id="a_edge36_Node000020_Node000022"><a xlink:title=" ">
<path fill="none" stroke="#63b8ff" d="M2255.39,-181.69C2241.52,-184.33 2227.14,-186.62 2213.5,-188.04 2139.45,-195.7 2114.19,-217.89 2046,-188.04 2024.39,-178.58 2029.74,-161.96 2010,-149.04 2001.89,-143.73 1992.73,-139.24 1983.49,-135.49"/>
<polygon fill="#63b8ff" stroke="#63b8ff" points="2255.78,-185.18 2264.9,-179.8 2254.41,-178.31 2255.78,-185.18"/>
</a>
</g>
</g>
<!-- Node20&#45;&gt;Node23 -->
<g id="edge37_Node000020_Node000023" class="edge">
<title>Node20&#45;&gt;Node23</title>
<g id="a_edge37_Node000020_Node000023"><a xlink:title=" ">
<path fill="none" stroke="#63b8ff" d="M2257.16,-184.03C2254.54,-185.3 2251.98,-186.63 2249.5,-188.04 2230.63,-198.75 2231.52,-208.94 2213.5,-221.04 2200.58,-229.71 2185.42,-237.46 2171.64,-243.72"/>
<polygon fill="#63b8ff" stroke="#63b8ff" points="2258.39,-187.31 2266.14,-180.09 2255.58,-180.9 2258.39,-187.31"/>
</a>
</g>
</g>
<!-- Node21&#45;&gt;Node22 -->
<g id="edge35_Node000021_Node000022" class="edge">
<title>Node21&#45;&gt;Node22</title>
<g id="a_edge35_Node000021_Node000022"><a xlink:title=" ">
<path fill="none" stroke="#63b8ff" d="M2044.71,-145.02C2030.04,-141.88 2014.84,-138.62 2000.37,-135.52"/>
<polygon fill="#63b8ff" stroke="#63b8ff" points="2043.82,-148.41 2054.33,-147.08 2045.28,-141.56 2043.82,-148.41"/>
</a>
</g>
</g>
<!-- Node23&#45;&gt;Node4 -->
<g id="edge38_Node000023_Node000004" class="edge">
<title>Node23&#45;&gt;Node4</title>
<g id="a_edge38_Node000023_Node000004"><a xlink:title=" ">
<path fill="none" stroke="#63b8ff" d="M2090.91,-282.16C2050.6,-305.73 1987.73,-342.49 1951.6,-363.61"/>
<polygon fill="#63b8ff" stroke="#63b8ff" points="2092.47,-285.3 2099.33,-277.23 2088.94,-279.26 2092.47,-285.3"/>
</a>
</g>
</g>
<!-- Node24 -->
<g id="Node000024" class="node">
<title>Node24</title>
<g id="a_Node000024"><a xlink:href="classediteurpanovisu_1_1EditeurPanovisu.html#a53cccf6a6b2693c872947460b66ae8ee" target="_top" xlink:title=" ">
<polygon fill="white" stroke="#666666" points="1348.5,-173.04 1173.5,-173.04 1173.5,-141.04 1348.5,-141.04 1348.5,-173.04"/>
<text xml:space="preserve" text-anchor="start" x="1181.5" y="-159.54" font-family="Helvetica,sans-Serif" font-size="10.00">editeurpanovisu.EditeurPanovisu.tsk</text>
<text xml:space="preserve" text-anchor="middle" x="1261" y="-147.54" font-family="Helvetica,sans-Serif" font-size="10.00">ChargeListeFichiers</text>
</a>
</g>
</g>
<!-- Node23&#45;&gt;Node24 -->
<g id="edge39_Node000023_Node000024" class="edge">
<title>Node23&#45;&gt;Node24</title>
<g id="a_edge39_Node000023_Node000024"><a xlink:title=" ">
<path fill="none" stroke="#63b8ff" d="M2047.29,-248.29C1939.82,-233.02 1744.72,-206.05 1577.5,-187.04 1500.28,-178.25 1412.22,-170.03 1348.8,-164.42"/>
<polygon fill="#63b8ff" stroke="#63b8ff" points="2046.48,-251.71 2056.87,-249.66 2047.46,-244.78 2046.48,-251.71"/>
</a>
</g>
</g>
<!-- Node24&#45;&gt;Node13 -->
<g id="edge42_Node000024_Node000013" class="edge">
<title>Node24&#45;&gt;Node13</title>
<g id="a_edge42_Node000024_Node000013"><a xlink:title=" ">
<path fill="none" stroke="#63b8ff" d="M1207.8,-177.72C1168.55,-193.26 1115.51,-214.28 1079.19,-228.67"/>
<polygon fill="#63b8ff" stroke="#63b8ff" points="1209.07,-180.98 1217.07,-174.04 1206.49,-174.47 1209.07,-180.98"/>
</a>
</g>
</g>
<!-- Node25 -->
<g id="Node000025" class="node">
<title>Node25</title>
<g id="a_Node000025"><a xlink:href="classediteurpanovisu_1_1EditeurPanovisu.html#a924d3ccff3e4f402d2309cd2eade3237" target="_top" xlink:title=" ">
<polygon fill="white" stroke="#666666" points="905.5,-173.04 683.25,-173.04 683.25,-141.04 905.5,-141.04 905.5,-173.04"/>
<text xml:space="preserve" text-anchor="start" x="691.25" y="-159.54" font-family="Helvetica,sans-Serif" font-size="10.00">editeurpanovisu.EditeurPanovisu.panoramiques</text>
<text xml:space="preserve" text-anchor="middle" x="794.38" y="-147.54" font-family="Helvetica,sans-Serif" font-size="10.00">Ajouter</text>
</a>
</g>
</g>
<!-- Node24&#45;&gt;Node25 -->
<g id="edge40_Node000024_Node000025" class="edge">
<title>Node24&#45;&gt;Node25</title>
<g id="a_edge40_Node000024_Node000025"><a xlink:title=" ">
<path fill="none" stroke="#63b8ff" d="M1161.83,-157.04C1086.83,-157.04 983.44,-157.04 905.6,-157.04"/>
<polygon fill="#63b8ff" stroke="#63b8ff" points="1161.64,-160.54 1171.64,-157.04 1161.64,-153.54 1161.64,-160.54"/>
</a>
</g>
</g>
<!-- Node25&#45;&gt;Node6 -->
<g id="edge41_Node000025_Node000006" class="edge">
<title>Node25&#45;&gt;Node6</title>
<g id="a_edge41_Node000025_Node000006"><a xlink:title=" ">
<path fill="none" stroke="#63b8ff" d="M671.61,-143.69C604.01,-141.97 520.84,-149.7 456.5,-187.04 379.01,-232 334.96,-340.39 322.84,-373.96"/>
<polygon fill="#63b8ff" stroke="#63b8ff" points="671.13,-147.18 681.24,-144.01 671.36,-140.18 671.13,-147.18"/>
</a>
</g>
</g>
<!-- Node26&#45;&gt;Node3 -->
<g id="edge49_Node000026_Node000003" class="edge">
<title>Node26&#45;&gt;Node3</title>
<g id="a_edge49_Node000026_Node000003"><a xlink:title=" ">
<path fill="none" stroke="#63b8ff" d="M2852.74,-385.38C2833.75,-390.18 2812.82,-394.63 2793.25,-397.04 2553.38,-426.48 2490.56,-414.2 2249.5,-397.04 2237.97,-396.21 2225.86,-394.95 2213.96,-393.47"/>
<polygon fill="#63b8ff" stroke="#63b8ff" points="2853.42,-388.82 2862.21,-382.91 2851.65,-382.05 2853.42,-388.82"/>
</a>
</g>
</g>
<!-- Node26&#45;&gt;Node17 -->
<g id="edge50_Node000026_Node000017" class="edge">
<title>Node26&#45;&gt;Node17</title>
<g id="a_edge50_Node000026_Node000017"><a xlink:title=" ">
<path fill="none" stroke="#63b8ff" d="M2840.05,-345.75C2836.36,-344.27 2832.74,-342.7 2829.25,-341.04 2794.19,-324.34 2758.26,-296.76 2737.15,-279.27"/>
<polygon fill="#63b8ff" stroke="#63b8ff" points="2838.61,-348.95 2849.2,-349.17 2841.06,-342.39 2838.61,-348.95"/>
</a>
</g>
</g>
<!-- Node26&#45;&gt;Node18 -->
<g id="edge48_Node000026_Node000018" class="edge">
<title>Node26&#45;&gt;Node18</title>
<g id="a_edge48_Node000026_Node000018"><a xlink:title=" ">
<path fill="none" stroke="#63b8ff" d="M2817.7,-350.79C2764.7,-341.45 2698.85,-327.85 2641.5,-310.04 2620.1,-303.39 2597.18,-294.04 2577.8,-285.42"/>
<polygon fill="#63b8ff" stroke="#63b8ff" points="2816.87,-354.2 2827.32,-352.46 2818.06,-347.3 2816.87,-354.2"/>
</a>
</g>
</g>
<!-- Node26&#45;&gt;Node22 -->
<g id="edge51_Node000026_Node000022" class="edge">
<title>Node26&#45;&gt;Node22</title>
<g id="a_edge51_Node000026_Node000022"><a xlink:title=" ">
<path fill="none" stroke="#63b8ff" d="M2874.06,-387.29C2850.6,-397.95 2820.89,-410.22 2793.25,-418.04 2679.73,-450.13 2648.97,-459.04 2531,-459.04 2531,-459.04 2531,-459.04 2333,-459.04 2203.21,-459.04 2147.25,-486.25 2046,-405.04 2000.6,-368.62 1944.83,-190.85 1928.32,-135.51"/>
<polygon fill="#63b8ff" stroke="#63b8ff" points="2875.38,-390.54 2882.99,-383.17 2872.44,-384.18 2875.38,-390.54"/>
</a>
</g>
</g>
<!-- Node27&#45;&gt;Node3 -->
<g id="edge54_Node000027_Node000003" class="edge">
<title>Node27&#45;&gt;Node3</title>
<g id="a_edge54_Node000027_Node000003"><a xlink:title=" ">
<path fill="none" stroke="#63b8ff" d="M2824.85,-320.34C2762.79,-327.1 2679.29,-335.98 2605.5,-343.04 2522.46,-350.98 2501.65,-352.44 2418.5,-359.04 2349.59,-364.5 2271.36,-370.17 2213.88,-374.25"/>
<polygon fill="#63b8ff" stroke="#63b8ff" points="2825.11,-323.83 2834.67,-319.26 2824.35,-316.87 2825.11,-323.83"/>
</a>
</g>
</g>
<!-- Node27&#45;&gt;Node17 -->
<g id="edge55_Node000027_Node000017" class="edge">
<title>Node27&#45;&gt;Node17</title>
<g id="a_edge55_Node000027_Node000017"><a xlink:title=" ">
<path fill="none" stroke="#63b8ff" d="M2825.12,-288.22C2812.66,-285.28 2800.06,-282.3 2788.08,-279.48"/>
<polygon fill="#63b8ff" stroke="#63b8ff" points="2824,-291.55 2834.53,-290.44 2825.61,-284.73 2824,-291.55"/>
</a>
</g>
</g>
<!-- Node27&#45;&gt;Node18 -->
<g id="edge53_Node000027_Node000018" class="edge">
<title>Node27&#45;&gt;Node18</title>
<g id="a_edge53_Node000027_Node000018"><a xlink:title=" ">
<path fill="none" stroke="#63b8ff" d="M2824.79,-305.96C2771.03,-302.77 2702.2,-297.27 2641.5,-288.04 2629.93,-286.28 2617.77,-283.98 2605.92,-281.5"/>
<polygon fill="#63b8ff" stroke="#63b8ff" points="2824.32,-309.44 2834.51,-306.52 2824.73,-302.45 2824.32,-309.44"/>
</a>
</g>
</g>
<!-- Node27&#45;&gt;Node22 -->
<g id="edge56_Node000027_Node000022" class="edge">
<title>Node27&#45;&gt;Node22</title>
<g id="a_edge56_Node000027_Node000022"><a xlink:title=" ">
<path fill="none" stroke="#63b8ff" d="M2881.1,-280.75C2825.22,-237.55 2713.6,-157.39 2605.5,-116.04 2372.82,-27.02 2292.45,-45.63 2046,-82.04 2019.08,-86.01 1989.87,-94.66 1966.73,-102.59"/>
<polygon fill="#63b8ff" stroke="#63b8ff" points="2878.67,-283.29 2888.71,-286.68 2882.97,-277.77 2878.67,-283.29"/>
</a>
</g>
</g>
<!-- Node28&#45;&gt;Node3 -->
<g id="edge59_Node000028_Node000003" class="edge">
<title>Node28&#45;&gt;Node3</title>
<g id="a_edge59_Node000028_Node000003"><a xlink:title=" ">
<path fill="none" stroke="#63b8ff" d="M2824.68,-182.36C2767.49,-187.27 2695.13,-201.23 2641.5,-238.04 2617.11,-254.78 2630.1,-277.59 2605.5,-294.04 2603.46,-295.4 2349.39,-340.96 2213.82,-365.2"/>
<polygon fill="#63b8ff" stroke="#63b8ff" points="2824.7,-185.87 2834.4,-181.62 2824.16,-178.89 2824.7,-185.87"/>
</a>
</g>
</g>
<!-- Node28&#45;&gt;Node17 -->
<g id="edge60_Node000028_Node000017" class="edge">
<title>Node28&#45;&gt;Node17</title>
<g id="a_edge60_Node000028_Node000017"><a xlink:title=" ">
<path fill="none" stroke="#63b8ff" d="M2852.83,-207.7C2821.65,-220.53 2785.27,-235.51 2758.22,-246.64"/>
<polygon fill="#63b8ff" stroke="#63b8ff" points="2853.86,-211.06 2861.78,-204.02 2851.2,-204.59 2853.86,-211.06"/>
</a>
</g>
</g>
<!-- Node28&#45;&gt;Node18 -->
<g id="edge58_Node000028_Node000018" class="edge">
<title>Node28&#45;&gt;Node18</title>
<g id="a_edge58_Node000028_Node000018"><a xlink:title=" ">
<path fill="none" stroke="#63b8ff" d="M2825.03,-158.28C2770.03,-149.13 2699.86,-145.22 2641.5,-167.04 2602.22,-181.71 2567.67,-217.35 2548.07,-240.83"/>
<polygon fill="#63b8ff" stroke="#63b8ff" points="2824.23,-161.7 2834.68,-159.98 2825.44,-154.8 2824.23,-161.7"/>
</a>
</g>
</g>
<!-- Node28&#45;&gt;Node22 -->
<g id="edge61_Node000028_Node000022" class="edge">
<title>Node28&#45;&gt;Node22</title>
<g id="a_edge61_Node000028_Node000022"><a xlink:title=" ">
<path fill="none" stroke="#63b8ff" d="M2881.38,-151.71C2815.72,-101.65 2670.88,-5.04 2531,-5.04 2531,-5.04 2531,-5.04 2333,-5.04 2205,-5.04 2165.86,15.88 2046,-29.04 2002.75,-45.24 1961.39,-81.35 1939.54,-102.57"/>
<polygon fill="#63b8ff" stroke="#63b8ff" points="2879.23,-154.48 2889.29,-157.82 2883.51,-148.94 2879.23,-154.48"/>
</a>
</g>
</g>
</g>
</svg>
