<?xml version="1.0" encoding="UTF-8" standalone="no"?>
<!DOCTYPE svg PUBLIC "-//W3C//DTD SVG 1.1//EN"
 "http://www.w3.org/Graphics/SVG/1.1/DTD/svg11.dtd">
<!-- Generated by graphviz version 13.1.2 (20250808.2320)
 -->
<!-- Title: editeurpanovisu.GestionnaireInterfaceController.changeCouleurMasque Pages: 1 -->
<svg width="380pt" height="228pt"
 viewBox="0.00 0.00 380.00 228.00" xmlns="http://www.w3.org/2000/svg" xmlns:xlink="http://www.w3.org/1999/xlink">
<g id="graph0" class="graph" transform="scale(1 1) rotate(0) translate(4 224)">
<title>editeurpanovisu.GestionnaireInterfaceController.changeCouleurMasque</title>
<!-- Node1 -->
<g id="Node000001" class="node">
<title>Node1</title>
<g id="a_Node000001"><a xlink:title=" ">
<polygon fill="#999999" stroke="#666666" points="164.5,-120 0,-120 0,-76 164.5,-76 164.5,-120"/>
<text xml:space="preserve" text-anchor="start" x="8" y="-106.5" font-family="Helvetica,sans-Serif" font-size="10.00">editeurpanovisu.Gestionnaire</text>
<text xml:space="preserve" text-anchor="start" x="8" y="-94.5" font-family="Helvetica,sans-Serif" font-size="10.00">InterfaceController.changeCouleur</text>
<text xml:space="preserve" text-anchor="middle" x="82.25" y="-82.5" font-family="Helvetica,sans-Serif" font-size="10.00">Masque</text>
</a>
</g>
</g>
<!-- Node2 -->
<g id="Node000002" class="node">
<title>Node2</title>
<g id="a_Node000002"><a xlink:href="classediteurpanovisu_1_1GestionnaireInterfaceController.html#afc1fe32f830791ed641d875b89427aca" target="_top" xlink:title=" ">
<polygon fill="white" stroke="#666666" points="368,-220 204.25,-220 204.25,-188 368,-188 368,-220"/>
<text xml:space="preserve" text-anchor="start" x="212.25" y="-206.5" font-family="Helvetica,sans-Serif" font-size="10.00">editeurpanovisu.Gestionnaire</text>
<text xml:space="preserve" text-anchor="middle" x="286.12" y="-194.5" font-family="Helvetica,sans-Serif" font-size="10.00">InterfaceController.getImgMasque</text>
</a>
</g>
</g>
<!-- Node1&#45;&gt;Node2 -->
<g id="edge1_Node000001_Node000002" class="edge">
<title>Node1&#45;&gt;Node2</title>
<g id="a_edge1_Node000001_Node000002"><a xlink:title=" ">
<path fill="none" stroke="#63b8ff" d="M110.15,-120.29C132.98,-138.27 167.24,-163.1 200.5,-179 203.82,-180.59 207.26,-182.09 210.76,-183.52"/>
<polygon fill="#63b8ff" stroke="#63b8ff" points="209.44,-186.77 220.03,-187.05 211.93,-180.22 209.44,-186.77"/>
</a>
</g>
</g>
<!-- Node3 -->
<g id="Node000003" class="node">
<title>Node3</title>
<g id="a_Node000003"><a xlink:href="classediteurpanovisu_1_1GestionnaireInterfaceController.html#a59340fa9224b7f5b7f764833ced68bf6" target="_top" xlink:title=" ">
<polygon fill="white" stroke="#666666" points="371,-170 201.25,-170 201.25,-138 371,-138 371,-170"/>
<text xml:space="preserve" text-anchor="start" x="209.25" y="-156.5" font-family="Helvetica,sans-Serif" font-size="10.00">editeurpanovisu.Gestionnaire</text>
<text xml:space="preserve" text-anchor="middle" x="286.12" y="-144.5" font-family="Helvetica,sans-Serif" font-size="10.00">InterfaceController.getPrLisMasque</text>
</a>
</g>
</g>
<!-- Node1&#45;&gt;Node3 -->
<g id="edge2_Node000001_Node000003" class="edge">
<title>Node1&#45;&gt;Node3</title>
<g id="a_edge2_Node000001_Node000003"><a xlink:title=" ">
<path fill="none" stroke="#63b8ff" d="M164.2,-120.45C181.11,-125.15 198.81,-130.06 215.28,-134.63"/>
<polygon fill="#63b8ff" stroke="#63b8ff" points="213.88,-137.87 224.45,-137.17 215.75,-131.12 213.88,-137.87"/>
</a>
</g>
</g>
<!-- Node4 -->
<g id="Node000004" class="node">
<title>Node4</title>
<g id="a_Node000004"><a xlink:href="classediteurpanovisu_1_1GestionnaireInterfaceController.html#aa71013435a49b6180d667647ba290ce0" target="_top" xlink:title=" ">
<polygon fill="white" stroke="#666666" points="371.75,-120 200.5,-120 200.5,-76 371.75,-76 371.75,-120"/>
<text xml:space="preserve" text-anchor="start" x="208.5" y="-106.5" font-family="Helvetica,sans-Serif" font-size="10.00">editeurpanovisu.Gestionnaire</text>
<text xml:space="preserve" text-anchor="start" x="208.5" y="-94.5" font-family="Helvetica,sans-Serif" font-size="10.00">InterfaceController.getPwNouveaux</text>
<text xml:space="preserve" text-anchor="middle" x="286.12" y="-82.5" font-family="Helvetica,sans-Serif" font-size="10.00">Masque</text>
</a>
</g>
</g>
<!-- Node1&#45;&gt;Node4 -->
<g id="edge3_Node000001_Node000004" class="edge">
<title>Node1&#45;&gt;Node4</title>
<g id="a_edge3_Node000001_Node000004"><a xlink:title=" ">
<path fill="none" stroke="#63b8ff" d="M164.78,-98C172.74,-98 180.86,-98 188.95,-98"/>
<polygon fill="#63b8ff" stroke="#63b8ff" points="188.82,-101.5 198.82,-98 188.82,-94.5 188.82,-101.5"/>
</a>
</g>
</g>
<!-- Node5 -->
<g id="Node000005" class="node">
<title>Node5</title>
<g id="a_Node000005"><a xlink:href="leaflet_8js.html#a008d931e56b6fc013061112f26afbffb" target="_top" xlink:title=" ">
<polygon fill="white" stroke="#666666" points="300.52,-58 271.73,-58 271.73,-38 300.52,-38 300.52,-58"/>
<text xml:space="preserve" text-anchor="middle" x="286.12" y="-44.5" font-family="Helvetica,sans-Serif" font-size="10.00">x</text>
</a>
</g>
</g>
<!-- Node1&#45;&gt;Node5 -->
<g id="edge4_Node000001_Node000005" class="edge">
<title>Node1&#45;&gt;Node5</title>
<g id="a_edge4_Node000001_Node000005"><a xlink:title=" ">
<path fill="none" stroke="#63b8ff" d="M164.83,-76.01C176.78,-72.91 188.94,-69.82 200.5,-67 220.51,-62.11 243.3,-57.02 260.18,-53.34"/>
<polygon fill="#63b8ff" stroke="#63b8ff" points="260.8,-56.79 269.83,-51.25 259.32,-49.95 260.8,-56.79"/>
</a>
</g>
</g>
<!-- Node6 -->
<g id="Node000006" class="node">
<title>Node6</title>
<g id="a_Node000006"><a xlink:href="leaflet_8js.html#a9f9b62a373d2bb4624b7ac2df8151435" target="_top" xlink:title=" ">
<polygon fill="white" stroke="#666666" points="300.52,-20 271.73,-20 271.73,0 300.52,0 300.52,-20"/>
<text xml:space="preserve" text-anchor="middle" x="286.12" y="-6.5" font-family="Helvetica,sans-Serif" font-size="10.00">y</text>
</a>
</g>
</g>
<!-- Node1&#45;&gt;Node6 -->
<g id="edge5_Node000001_Node000006" class="edge">
<title>Node1&#45;&gt;Node6</title>
<g id="a_edge5_Node000001_Node000006"><a xlink:title=" ">
<path fill="none" stroke="#63b8ff" d="M114.71,-75.82C137.56,-60.65 169.75,-41.15 200.5,-29 219.77,-21.38 242.77,-16.47 259.93,-13.55"/>
<polygon fill="#63b8ff" stroke="#63b8ff" points="260.42,-17.01 269.76,-12 259.33,-10.1 260.42,-17.01"/>
</a>
</g>
</g>
</g>
</svg>
