<?xml version="1.0" encoding="UTF-8" standalone="no"?>
<!DOCTYPE svg PUBLIC "-//W3C//DTD SVG 1.1//EN"
 "http://www.w3.org/Graphics/SVG/1.1/DTD/svg11.dtd">
<!-- Generated by graphviz version 13.1.2 (20250808.2320)
 -->
<!-- Title: editeurpanovisu.GestionnaireInterfaceController.getCouleurLigneRadar Pages: 1 -->
<svg width="2637pt" height="456pt"
 viewBox="0.00 0.00 2637.00 456.00" xmlns="http://www.w3.org/2000/svg" xmlns:xlink="http://www.w3.org/1999/xlink">
<g id="graph0" class="graph" transform="scale(1 1) rotate(0) translate(4 452)">
<title>editeurpanovisu.GestionnaireInterfaceController.getCouleurLigneRadar</title>
<!-- Node1 -->
<g id="Node000001" class="node">
<title>Node1</title>
<g id="a_Node000001"><a xlink:title=" ">
<polygon fill="#999999" stroke="#666666" points="2628.75,-120 2432.75,-120 2432.75,-88 2628.75,-88 2628.75,-120"/>
<text xml:space="preserve" text-anchor="start" x="2440.75" y="-106.5" font-family="Helvetica,sans-Serif" font-size="10.00">editeurpanovisu.Gestionnaire</text>
<text xml:space="preserve" text-anchor="middle" x="2530.75" y="-94.5" font-family="Helvetica,sans-Serif" font-size="10.00">InterfaceController.getCouleurLigneRadar</text>
</a>
</g>
</g>
<!-- Node2 -->
<g id="Node000002" class="node">
<title>Node2</title>
<g id="a_Node000002"><a xlink:href="classediteurpanovisu_1_1GestionnaireInterfaceController.html#ace0168604ad1480beb57adc119ca795f" target="_top" xlink:title=" ">
<polygon fill="white" stroke="#666666" points="2396.75,-120 2249.5,-120 2249.5,-88 2396.75,-88 2396.75,-120"/>
<text xml:space="preserve" text-anchor="start" x="2257.5" y="-106.5" font-family="Helvetica,sans-Serif" font-size="10.00">editeurpanovisu.Gestionnaire</text>
<text xml:space="preserve" text-anchor="middle" x="2323.12" y="-94.5" font-family="Helvetica,sans-Serif" font-size="10.00">InterfaceController.affichePlan</text>
</a>
</g>
</g>
<!-- Node1&#45;&gt;Node2 -->
<g id="edge1_Node000001_Node000002" class="edge">
<title>Node1&#45;&gt;Node2</title>
<g id="a_edge1_Node000001_Node000002"><a xlink:title=" ">
<path fill="none" stroke="#63b8ff" d="M2420.98,-104C2412.94,-104 2404.94,-104 2397.2,-104"/>
<polygon fill="#63b8ff" stroke="#63b8ff" points="2420.84,-107.5 2430.84,-104 2420.84,-100.5 2420.84,-107.5"/>
</a>
</g>
</g>
<!-- Node3 -->
<g id="Node000003" class="node">
<title>Node3</title>
<g id="a_Node000003"><a xlink:href="classediteurpanovisu_1_1GestionnaireInterfaceController.html#a55c8afda208674955a13d48d02be41b8" target="_top" xlink:title=" ">
<polygon fill="white" stroke="#666666" points="2213.5,-192 2046,-192 2046,-160 2213.5,-160 2213.5,-192"/>
<text xml:space="preserve" text-anchor="start" x="2054" y="-178.5" font-family="Helvetica,sans-Serif" font-size="10.00">editeurpanovisu.Gestionnaire</text>
<text xml:space="preserve" text-anchor="middle" x="2129.75" y="-166.5" font-family="Helvetica,sans-Serif" font-size="10.00">InterfaceController.afficheTemplate</text>
</a>
</g>
</g>
<!-- Node1&#45;&gt;Node3 -->
<g id="edge37_Node000001_Node000003" class="edge">
<title>Node1&#45;&gt;Node3</title>
<g id="a_edge37_Node000001_Node000003"><a xlink:title=" ">
<path fill="none" stroke="#63b8ff" d="M2431.63,-122.57C2419.88,-124.76 2408.05,-126.94 2396.75,-129 2335.51,-140.17 2266.25,-152.39 2213.76,-161.57"/>
<polygon fill="#63b8ff" stroke="#63b8ff" points="2432.17,-126.03 2441.36,-120.75 2430.89,-119.15 2432.17,-126.03"/>
</a>
</g>
</g>
<!-- Node18 -->
<g id="Node000018" class="node">
<title>Node18</title>
<g id="a_Node000018"><a xlink:href="classediteurpanovisu_1_1GestionnaireInterfaceController.html#ac7fa988dc99d8684686127a2269cd66e" target="_top" xlink:title=" ">
<polygon fill="white" stroke="#666666" points="2000.62,-32 1844.38,-32 1844.38,0 2000.62,0 2000.62,-32"/>
<text xml:space="preserve" text-anchor="start" x="1852.38" y="-18.5" font-family="Helvetica,sans-Serif" font-size="10.00">editeurpanovisu.Gestionnaire</text>
<text xml:space="preserve" text-anchor="middle" x="1922.5" y="-6.5" font-family="Helvetica,sans-Serif" font-size="10.00">InterfaceController.creeInterface</text>
</a>
</g>
</g>
<!-- Node1&#45;&gt;Node18 -->
<g id="edge38_Node000001_Node000018" class="edge">
<title>Node1&#45;&gt;Node18</title>
<g id="a_edge38_Node000001_Node000018"><a xlink:title=" ">
<path fill="none" stroke="#63b8ff" d="M2476.41,-83.66C2414.34,-61.17 2308.23,-26.36 2213.5,-13 2139.78,-2.61 2120.44,-12.09 2046,-13 2031.43,-13.18 2015.88,-13.48 2000.93,-13.82"/>
<polygon fill="#63b8ff" stroke="#63b8ff" points="2475.09,-86.91 2485.68,-87.05 2477.49,-80.33 2475.09,-86.91"/>
</a>
</g>
</g>
<!-- Node2&#45;&gt;Node3 -->
<g id="edge2_Node000002_Node000003" class="edge">
<title>Node2&#45;&gt;Node3</title>
<g id="a_edge2_Node000002_Node000003"><a xlink:title=" ">
<path fill="none" stroke="#63b8ff" d="M2276.53,-125.12C2257.28,-133.67 2234.5,-143.31 2213.5,-151 2205.33,-153.99 2196.61,-156.91 2188.01,-159.64"/>
<polygon fill="#63b8ff" stroke="#63b8ff" points="2277.75,-128.4 2285.45,-121.12 2274.89,-122.02 2277.75,-128.4"/>
</a>
</g>
</g>
<!-- Node17 -->
<g id="Node000017" class="node">
<title>Node17</title>
<g id="a_Node000017"><a xlink:href="classediteurpanovisu_1_1GestionnaireInterfaceController.html#a8c634f775c31c1a4db22d5ef0659f7e4" target="_top" xlink:title=" ">
<polygon fill="white" stroke="#666666" points="2203.38,-54 2056.12,-54 2056.12,-22 2203.38,-22 2203.38,-54"/>
<text xml:space="preserve" text-anchor="start" x="2064.12" y="-40.5" font-family="Helvetica,sans-Serif" font-size="10.00">editeurpanovisu.Gestionnaire</text>
<text xml:space="preserve" text-anchor="middle" x="2129.75" y="-28.5" font-family="Helvetica,sans-Serif" font-size="10.00">InterfaceController.afficheTitre</text>
</a>
</g>
</g>
<!-- Node2&#45;&gt;Node17 -->
<g id="edge28_Node000002_Node000017" class="edge">
<title>Node2&#45;&gt;Node17</title>
<g id="a_edge28_Node000002_Node000017"><a xlink:title=" ">
<path fill="none" stroke="#63b8ff" d="M2263.71,-83.85C2236.33,-74.41 2204.13,-63.31 2178.27,-54.39"/>
<polygon fill="#63b8ff" stroke="#63b8ff" points="2262.3,-87.07 2272.9,-87.02 2264.58,-80.45 2262.3,-87.07"/>
</a>
</g>
</g>
<!-- Node2&#45;&gt;Node18 -->
<g id="edge30_Node000002_Node000018" class="edge">
<title>Node2&#45;&gt;Node18</title>
<g id="a_edge30_Node000002_Node000018"><a xlink:title=" ">
<path fill="none" stroke="#63b8ff" d="M2237.86,-97.95C2182.43,-92.41 2108.81,-82.04 2046,-63 2029.07,-57.87 2026.38,-52.69 2010,-46 1998.37,-41.25 1985.69,-36.58 1973.7,-32.39"/>
<polygon fill="#63b8ff" stroke="#63b8ff" points="2237.25,-101.41 2247.54,-98.88 2237.92,-94.44 2237.25,-101.41"/>
</a>
</g>
</g>
<!-- Node19 -->
<g id="Node000019" class="node">
<title>Node19</title>
<g id="a_Node000019"><a xlink:href="classediteurpanovisu_1_1GestionnaireInterfaceController.html#a568c34e865fb653f63b8fa7a9a9cafc8" target="_top" xlink:title=" ">
<polygon fill="white" stroke="#666666" points="2200.75,-142 2058.75,-142 2058.75,-110 2200.75,-110 2200.75,-142"/>
<text xml:space="preserve" text-anchor="start" x="2066.75" y="-128.5" font-family="Helvetica,sans-Serif" font-size="10.00">editeurpanovisu.Gestionnaire</text>
<text xml:space="preserve" text-anchor="middle" x="2129.75" y="-116.5" font-family="Helvetica,sans-Serif" font-size="10.00">InterfaceController.rafraichit</text>
</a>
</g>
</g>
<!-- Node2&#45;&gt;Node19 -->
<g id="edge31_Node000002_Node000019" class="edge">
<title>Node2&#45;&gt;Node19</title>
<g id="a_edge31_Node000002_Node000019"><a xlink:title=" ">
<path fill="none" stroke="#63b8ff" d="M2238.04,-113.67C2225.76,-115.08 2213.21,-116.52 2201.23,-117.9"/>
<polygon fill="#63b8ff" stroke="#63b8ff" points="2238.19,-117.17 2247.72,-112.55 2237.39,-110.22 2238.19,-117.17"/>
</a>
</g>
</g>
<!-- Node4 -->
<g id="Node000004" class="node">
<title>Node4</title>
<g id="a_Node000004"><a xlink:href="classediteurpanovisu_1_1EditeurPanovisu.html#a87b29dc258cfc67370b1f27809e91b8e" target="_top" xlink:title=" ">
<polygon fill="white" stroke="#666666" points="2010,-224 1835,-224 1835,-192 2010,-192 2010,-224"/>
<text xml:space="preserve" text-anchor="start" x="1843" y="-210.5" font-family="Helvetica,sans-Serif" font-size="10.00">editeurpanovisu.EditeurPanovisu.tsk</text>
<text xml:space="preserve" text-anchor="middle" x="1922.5" y="-198.5" font-family="Helvetica,sans-Serif" font-size="10.00">AnalyseFichierPVU</text>
</a>
</g>
</g>
<!-- Node3&#45;&gt;Node4 -->
<g id="edge3_Node000003_Node000004" class="edge">
<title>Node3&#45;&gt;Node4</title>
<g id="a_edge3_Node000003_Node000004"><a xlink:title=" ">
<path fill="none" stroke="#63b8ff" d="M2034.37,-190.71C2026.41,-191.96 2018.38,-193.21 2010.48,-194.44"/>
<polygon fill="#63b8ff" stroke="#63b8ff" points="2034.73,-194.2 2044.07,-189.2 2033.65,-187.28 2034.73,-194.2"/>
</a>
</g>
</g>
<!-- Node5 -->
<g id="Node000005" class="node">
<title>Node5</title>
<g id="a_Node000005"><a xlink:href="classediteurpanovisu_1_1EditeurPanovisu.html#ab4beb1597b660a4a253befc6e76f1c54" target="_top" xlink:title=" ">
<polygon fill="white" stroke="#666666" points="1129.62,-410 944.12,-410 944.12,-378 1129.62,-378 1129.62,-410"/>
<text xml:space="preserve" text-anchor="start" x="952.12" y="-396.5" font-family="Helvetica,sans-Serif" font-size="10.00">editeurpanovisu.EditeurPanovisu.projet</text>
<text xml:space="preserve" text-anchor="middle" x="1036.88" y="-384.5" font-family="Helvetica,sans-Serif" font-size="10.00">Charge</text>
</a>
</g>
</g>
<!-- Node4&#45;&gt;Node5 -->
<g id="edge4_Node000004_Node000005" class="edge">
<title>Node4&#45;&gt;Node5</title>
<g id="a_edge4_Node000004_Node000005"><a xlink:title=" ">
<path fill="none" stroke="#63b8ff" d="M1881.68,-229.49C1858.19,-241.41 1827.55,-255.67 1799,-265 1565.07,-341.43 1275.13,-374.59 1129.89,-387.23"/>
<polygon fill="#63b8ff" stroke="#63b8ff" points="1882.98,-232.76 1890.27,-225.07 1879.78,-226.54 1882.98,-232.76"/>
</a>
</g>
</g>
<!-- Node8 -->
<g id="Node000008" class="node">
<title>Node8</title>
<g id="a_Node000008"><a xlink:href="classediteurpanovisu_1_1EditeurPanovisu.html#a6d19b4d885ee6fcec827b91956295732" target="_top" xlink:title=" ">
<polygon fill="white" stroke="#666666" points="1799,-256 1613.5,-256 1613.5,-224 1799,-224 1799,-256"/>
<text xml:space="preserve" text-anchor="start" x="1621.5" y="-242.5" font-family="Helvetica,sans-Serif" font-size="10.00">editeurpanovisu.EditeurPanovisu.projet</text>
<text xml:space="preserve" text-anchor="middle" x="1706.25" y="-230.5" font-family="Helvetica,sans-Serif" font-size="10.00">ChargeNom</text>
</a>
</g>
</g>
<!-- Node4&#45;&gt;Node8 -->
<g id="edge7_Node000004_Node000008" class="edge">
<title>Node4&#45;&gt;Node8</title>
<g id="a_edge7_Node000004_Node000008"><a xlink:title=" ">
<path fill="none" stroke="#63b8ff" d="M1823.44,-222.65C1815.45,-223.84 1807.39,-225.04 1799.45,-226.23"/>
<polygon fill="#63b8ff" stroke="#63b8ff" points="1823.79,-226.13 1833.17,-221.19 1822.76,-219.21 1823.79,-226.13"/>
</a>
</g>
</g>
<!-- Node6 -->
<g id="Node000006" class="node">
<title>Node6</title>
<g id="a_Node000006"><a xlink:href="classediteurpanovisu_1_1EditeurPanovisu.html#ac912b80c1f2ac97def60ff005c5c480b" target="_top" xlink:title=" ">
<polygon fill="white" stroke="#666666" points="420.5,-250 216.25,-250 216.25,-230 420.5,-230 420.5,-250"/>
<text xml:space="preserve" text-anchor="middle" x="318.38" y="-236.5" font-family="Helvetica,sans-Serif" font-size="10.00">editeurpanovisu.EditeurPanovisu.creeMenu</text>
</a>
</g>
</g>
<!-- Node5&#45;&gt;Node6 -->
<g id="edge5_Node000005_Node000006" class="edge">
<title>Node5&#45;&gt;Node6</title>
<g id="a_edge5_Node000005_Node000006"><a xlink:title=" ">
<path fill="none" stroke="#63b8ff" d="M932.72,-389.19C814.96,-381.31 617.76,-360.8 456.5,-308 411.04,-293.12 361.72,-265.54 336.44,-250.49"/>
<polygon fill="#63b8ff" stroke="#63b8ff" points="932.15,-392.66 942.36,-389.81 932.61,-385.67 932.15,-392.66"/>
</a>
</g>
</g>
<!-- Node7 -->
<g id="Node000007" class="node">
<title>Node7</title>
<g id="a_Node000007"><a xlink:href="classediteurpanovisu_1_1EditeurPanovisu.html#a86c393eee88f54c694db994ddd85b90d" target="_top" xlink:title=" ">
<polygon fill="white" stroke="#666666" points="180.25,-256 0,-256 0,-224 180.25,-224 180.25,-256"/>
<text xml:space="preserve" text-anchor="start" x="8" y="-242.5" font-family="Helvetica,sans-Serif" font-size="10.00">editeurpanovisu.EditeurPanovisu.cree</text>
<text xml:space="preserve" text-anchor="middle" x="90.12" y="-230.5" font-family="Helvetica,sans-Serif" font-size="10.00">Environnement</text>
</a>
</g>
</g>
<!-- Node6&#45;&gt;Node7 -->
<g id="edge6_Node000006_Node000007" class="edge">
<title>Node6&#45;&gt;Node7</title>
<g id="a_edge6_Node000006_Node000007"><a xlink:title=" ">
<path fill="none" stroke="#63b8ff" d="M204.51,-240C196.49,-240 188.46,-240 180.6,-240"/>
<polygon fill="#63b8ff" stroke="#63b8ff" points="204.32,-243.5 214.32,-240 204.32,-236.5 204.32,-243.5"/>
</a>
</g>
</g>
<!-- Node8&#45;&gt;Node6 -->
<g id="edge27_Node000008_Node000006" class="edge">
<title>Node8&#45;&gt;Node6</title>
<g id="a_edge27_Node000008_Node000006"><a xlink:title=" ">
<path fill="none" stroke="#63b8ff" d="M1665.9,-218.24C1590.13,-178.45 1417.7,-98 1262,-98 1262,-98 1262,-98 809.12,-98 650.3,-98 605.35,-100.6 456.5,-156 407.05,-174.41 355.87,-211.42 332.47,-229.53"/>
<polygon fill="#63b8ff" stroke="#63b8ff" points="1664.12,-221.26 1674.6,-222.86 1667.41,-215.08 1664.12,-221.26"/>
</a>
</g>
</g>
<!-- Node9 -->
<g id="Node000009" class="node">
<title>Node9</title>
<g id="a_Node000009"><a xlink:href="classediteurpanovisu_1_1EditeurPanovisu.html#af0d1c32bb78acbff561c822a0d15f760" target="_top" xlink:title=" ">
<polygon fill="white" stroke="#666666" points="1577.5,-300 1389.75,-300 1389.75,-268 1577.5,-268 1577.5,-300"/>
<text xml:space="preserve" text-anchor="start" x="1397.75" y="-286.5" font-family="Helvetica,sans-Serif" font-size="10.00">editeurpanovisu.EditeurPanovisu.ajoute</text>
<text xml:space="preserve" text-anchor="middle" x="1483.62" y="-274.5" font-family="Helvetica,sans-Serif" font-size="10.00">FichierHisto</text>
</a>
</g>
</g>
<!-- Node8&#45;&gt;Node9 -->
<g id="edge8_Node000008_Node000009" class="edge">
<title>Node8&#45;&gt;Node9</title>
<g id="a_edge8_Node000008_Node000009"><a xlink:title=" ">
<path fill="none" stroke="#63b8ff" d="M1602.04,-253.85C1579.75,-258.21 1557.08,-263.03 1537.68,-267.55"/>
<polygon fill="#63b8ff" stroke="#63b8ff" points="1602.64,-257.29 1611.8,-251.96 1601.31,-250.42 1602.64,-257.29"/>
</a>
</g>
</g>
<!-- Node9&#45;&gt;Node5 -->
<g id="edge9_Node000009_Node000005" class="edge">
<title>Node9&#45;&gt;Node5</title>
<g id="a_edge9_Node000009_Node000005"><a xlink:title=" ">
<path fill="none" stroke="#63b8ff" d="M1404.9,-303.22C1319.85,-324.26 1184.95,-357.62 1104.55,-377.51"/>
<polygon fill="#63b8ff" stroke="#63b8ff" points="1405.71,-306.63 1414.57,-300.83 1404.02,-299.83 1405.71,-306.63"/>
</a>
</g>
</g>
<!-- Node9&#45;&gt;Node8 -->
<g id="edge10_Node000009_Node000008" class="edge">
<title>Node9&#45;&gt;Node8</title>
<g id="a_edge10_Node000009_Node000008"><a xlink:title=" ">
<path fill="none" stroke="#63b8ff" d="M1588.86,-269.95C1610.79,-265.65 1633.04,-260.92 1652.12,-256.46"/>
<polygon fill="#63b8ff" stroke="#63b8ff" points="1588.43,-266.47 1579.28,-271.81 1589.76,-273.34 1588.43,-266.47"/>
</a>
</g>
</g>
<!-- Node10 -->
<g id="Node000010" class="node">
<title>Node10</title>
<g id="a_Node000010"><a xlink:href="classediteurpanovisu_1_1EditeurPanovisu.html#a9f3ea25b35d4884524508dab3dc4fd6a" target="_top" xlink:title=" ">
<polygon fill="white" stroke="#666666" points="1353.75,-278 1168.25,-278 1168.25,-246 1353.75,-246 1353.75,-278"/>
<text xml:space="preserve" text-anchor="start" x="1176.25" y="-264.5" font-family="Helvetica,sans-Serif" font-size="10.00">editeurpanovisu.EditeurPanovisu.projet</text>
<text xml:space="preserve" text-anchor="middle" x="1261" y="-252.5" font-family="Helvetica,sans-Serif" font-size="10.00">Sauve</text>
</a>
</g>
</g>
<!-- Node9&#45;&gt;Node10 -->
<g id="edge11_Node000009_Node000010" class="edge">
<title>Node9&#45;&gt;Node10</title>
<g id="a_edge11_Node000009_Node000010"><a xlink:title=" ">
<path fill="none" stroke="#63b8ff" d="M1378.13,-273.58C1370.14,-272.78 1362.11,-271.98 1354.21,-271.19"/>
<polygon fill="#63b8ff" stroke="#63b8ff" points="1377.58,-277.04 1387.87,-274.55 1378.27,-270.08 1377.58,-277.04"/>
</a>
</g>
</g>
<!-- Node16 -->
<g id="Node000016" class="node">
<title>Node16</title>
<g id="a_Node000016"><a xlink:href="classediteurpanovisu_1_1EditeurPanovisu.html#a7b2e25dc717eb52b62e23d54ec4c124a" target="_top" xlink:title=" ">
<polygon fill="white" stroke="#666666" points="902.88,-448 717.38,-448 717.38,-416 902.88,-416 902.88,-448"/>
<text xml:space="preserve" text-anchor="start" x="725.38" y="-434.5" font-family="Helvetica,sans-Serif" font-size="10.00">editeurpanovisu.EditeurPanovisu.projet</text>
<text xml:space="preserve" text-anchor="middle" x="810.12" y="-422.5" font-family="Helvetica,sans-Serif" font-size="10.00">SauveSous</text>
</a>
</g>
</g>
<!-- Node9&#45;&gt;Node16 -->
<g id="edge25_Node000009_Node000016" class="edge">
<title>Node9&#45;&gt;Node16</title>
<g id="a_edge25_Node000009_Node000016"><a xlink:title=" ">
<path fill="none" stroke="#63b8ff" d="M1445.87,-306.25C1420.6,-320.9 1385.93,-339.75 1353.75,-353 1258.76,-392.11 1233.58,-402.13 1132.25,-419 1055.75,-431.74 967.65,-434.48 903.1,-434.32"/>
<polygon fill="#63b8ff" stroke="#63b8ff" points="1447.59,-309.3 1454.45,-301.23 1444.05,-303.26 1447.59,-309.3"/>
</a>
</g>
</g>
<!-- Node10&#45;&gt;Node5 -->
<g id="edge15_Node000010_Node000005" class="edge">
<title>Node10&#45;&gt;Node5</title>
<g id="a_edge15_Node000010_Node000005"><a xlink:title=" ">
<path fill="none" stroke="#63b8ff" d="M1230.94,-285.42C1194.09,-315.08 1135,-362.53 1132.25,-364 1122.39,-369.27 1111.46,-373.79 1100.63,-377.62"/>
<polygon fill="#63b8ff" stroke="#63b8ff" points="1233,-288.25 1238.6,-279.25 1228.61,-282.8 1233,-288.25"/>
</a>
</g>
</g>
<!-- Node10&#45;&gt;Node6 -->
<g id="edge12_Node000010_Node000006" class="edge">
<title>Node10&#45;&gt;Node6</title>
<g id="a_edge12_Node000010_Node000006"><a xlink:title=" ">
<path fill="none" stroke="#63b8ff" d="M1156.69,-259.58C975.14,-255.34 601.1,-246.59 420.86,-242.37"/>
<polygon fill="#63b8ff" stroke="#63b8ff" points="1156.5,-263.08 1166.58,-259.82 1156.67,-256.08 1156.5,-263.08"/>
</a>
</g>
</g>
<!-- Node10&#45;&gt;Node8 -->
<g id="edge16_Node000010_Node000008" class="edge">
<title>Node10&#45;&gt;Node8</title>
<g id="a_edge16_Node000010_Node000008"><a xlink:title=" ">
<path fill="none" stroke="#63b8ff" d="M1365.33,-256.87C1440.33,-253.15 1540.88,-248.16 1613.14,-244.57"/>
<polygon fill="#63b8ff" stroke="#63b8ff" points="1365.32,-253.37 1355.5,-257.36 1365.67,-260.36 1365.32,-253.37"/>
</a>
</g>
</g>
<!-- Node11 -->
<g id="Node000011" class="node">
<title>Node11</title>
<g id="a_Node000011"><a xlink:href="classediteurpanovisu_1_1EditeurPanovisu.html#a94e36b9e9d09ab1a4c852b8a8cefa927" target="_top" xlink:title=" ">
<polygon fill="white" stroke="#666666" points="663,-234 472.25,-234 472.25,-202 663,-202 663,-234"/>
<text xml:space="preserve" text-anchor="start" x="480.25" y="-220.5" font-family="Helvetica,sans-Serif" font-size="10.00">editeurpanovisu.EditeurPanovisu.genere</text>
<text xml:space="preserve" text-anchor="middle" x="567.62" y="-208.5" font-family="Helvetica,sans-Serif" font-size="10.00">Visite</text>
</a>
</g>
</g>
<!-- Node10&#45;&gt;Node11 -->
<g id="edge13_Node000010_Node000011" class="edge">
<title>Node10&#45;&gt;Node11</title>
<g id="a_edge13_Node000010_Node000011"><a xlink:title=" ">
<path fill="none" stroke="#63b8ff" d="M1156.68,-250.18C1148.42,-249.39 1140.2,-248.65 1132.25,-248 967.68,-234.61 775.57,-225.85 663.47,-221.43"/>
<polygon fill="#63b8ff" stroke="#63b8ff" points="1156.15,-253.64 1166.44,-251.14 1156.84,-246.68 1156.15,-253.64"/>
</a>
</g>
</g>
<!-- Node12 -->
<g id="Node000012" class="node">
<title>Node12</title>
<g id="a_Node000012"><a xlink:href="classediteurpanovisu_1_1EditeurPanovisu.html#a9b46b222714af12c06ec33d410400773" target="_top" xlink:title=" ">
<polygon fill="white" stroke="#666666" points="905.5,-344 714.75,-344 714.75,-312 905.5,-312 905.5,-344"/>
<text xml:space="preserve" text-anchor="start" x="722.75" y="-330.5" font-family="Helvetica,sans-Serif" font-size="10.00">editeurpanovisu.EditeurPanovisu.projets</text>
<text xml:space="preserve" text-anchor="middle" x="810.12" y="-318.5" font-family="Helvetica,sans-Serif" font-size="10.00">Fermer</text>
</a>
</g>
</g>
<!-- Node10&#45;&gt;Node12 -->
<g id="edge17_Node000010_Node000012" class="edge">
<title>Node10&#45;&gt;Node12</title>
<g id="a_edge17_Node000010_Node000012"><a xlink:title=" ">
<path fill="none" stroke="#63b8ff" d="M1228.65,-284.69C1203.85,-301.16 1167.63,-322.06 1132.25,-331 1057.79,-349.82 970.49,-347.52 905.72,-341.38"/>
<polygon fill="#63b8ff" stroke="#63b8ff" points="1230.34,-287.77 1236.64,-279.25 1226.4,-281.99 1230.34,-287.77"/>
</a>
</g>
</g>
<!-- Node13 -->
<g id="Node000013" class="node">
<title>Node13</title>
<g id="a_Node000013"><a xlink:href="classediteurpanovisu_1_1EditeurPanovisu.html#ac9d449399ccd38843fa12e716f0c9611" target="_top" xlink:title=" ">
<polygon fill="white" stroke="#666666" points="1132.25,-158 941.5,-158 941.5,-126 1132.25,-126 1132.25,-158"/>
<text xml:space="preserve" text-anchor="start" x="949.5" y="-144.5" font-family="Helvetica,sans-Serif" font-size="10.00">editeurpanovisu.EditeurPanovisu.projets</text>
<text xml:space="preserve" text-anchor="middle" x="1036.88" y="-132.5" font-family="Helvetica,sans-Serif" font-size="10.00">Nouveau</text>
</a>
</g>
</g>
<!-- Node10&#45;&gt;Node13 -->
<g id="edge19_Node000010_Node000013" class="edge">
<title>Node10&#45;&gt;Node13</title>
<g id="a_edge19_Node000010_Node000013"><a xlink:title=" ">
<path fill="none" stroke="#63b8ff" d="M1231.99,-238.44C1207.11,-218.49 1169.1,-190.29 1132.25,-172 1121.86,-166.84 1110.38,-162.32 1099.12,-158.45"/>
<polygon fill="#63b8ff" stroke="#63b8ff" points="1229.7,-241.1 1239.67,-244.69 1234.12,-235.67 1229.7,-241.1"/>
</a>
</g>
</g>
<!-- Node14 -->
<g id="Node000014" class="node">
<title>Node14</title>
<g id="a_Node000014"><a xlink:href="classediteurpanovisu_1_1EditeurPanovisu.html#a2b3125ffe2e6291efacf19df6cb30a8d" target="_top" xlink:title=" ">
<polygon fill="white" stroke="#666666" points="900.62,-196 719.62,-196 719.62,-176 900.62,-176 900.62,-196"/>
<text xml:space="preserve" text-anchor="middle" x="810.12" y="-182.5" font-family="Helvetica,sans-Serif" font-size="10.00">editeurpanovisu.EditeurPanovisu.start</text>
</a>
</g>
</g>
<!-- Node10&#45;&gt;Node14 -->
<g id="edge24_Node000010_Node000014" class="edge">
<title>Node10&#45;&gt;Node14</title>
<g id="a_edge24_Node000010_Node000014"><a xlink:title=" ">
<path fill="none" stroke="#63b8ff" d="M1217.53,-240.81C1193.18,-229.66 1161.7,-216.91 1132.25,-210 1055.51,-191.98 965.89,-186.53 900.85,-185.27"/>
<polygon fill="#63b8ff" stroke="#63b8ff" points="1215.93,-243.92 1226.47,-244.98 1218.89,-237.58 1215.93,-243.92"/>
</a>
</g>
</g>
<!-- Node15 -->
<g id="Node000015" class="node">
<title>Node15</title>
<g id="a_Node000015"><a xlink:href="classediteurpanovisu_1_1EditeurPanovisu.html#aef8c9b28c3e88d6e27e3f62b9a901134" target="_top" xlink:title=" ">
<polygon fill="white" stroke="#666666" points="1130.75,-322 943,-322 943,-290 1130.75,-290 1130.75,-322"/>
<text xml:space="preserve" text-anchor="start" x="951" y="-308.5" font-family="Helvetica,sans-Serif" font-size="10.00">editeurpanovisu.EditeurPanovisu.sauve</text>
<text xml:space="preserve" text-anchor="middle" x="1036.88" y="-296.5" font-family="Helvetica,sans-Serif" font-size="10.00">Fichiers</text>
</a>
</g>
</g>
<!-- Node10&#45;&gt;Node15 -->
<g id="edge23_Node000010_Node000015" class="edge">
<title>Node10&#45;&gt;Node15</title>
<g id="a_edge23_Node000010_Node000015"><a xlink:title=" ">
<path fill="none" stroke="#63b8ff" d="M1165.74,-280.67C1150.93,-283.6 1135.71,-286.62 1121.17,-289.5"/>
<polygon fill="#63b8ff" stroke="#63b8ff" points="1166.36,-284.12 1175.49,-278.74 1165,-277.25 1166.36,-284.12"/>
</a>
</g>
</g>
<!-- Node11&#45;&gt;Node6 -->
<g id="edge14_Node000011_Node000006" class="edge">
<title>Node11&#45;&gt;Node6</title>
<g id="a_edge14_Node000011_Node000006"><a xlink:title=" ">
<path fill="none" stroke="#63b8ff" d="M460.99,-227.4C447.68,-228.58 434.09,-229.79 420.85,-230.97"/>
<polygon fill="#63b8ff" stroke="#63b8ff" points="460.93,-230.92 470.58,-226.55 460.31,-223.95 460.93,-230.92"/>
</a>
</g>
</g>
<!-- Node12&#45;&gt;Node6 -->
<g id="edge18_Node000012_Node000006" class="edge">
<title>Node12&#45;&gt;Node6</title>
<g id="a_edge18_Node000012_Node000006"><a xlink:title=" ">
<path fill="none" stroke="#63b8ff" d="M703.27,-315.49C632.96,-306.42 538.8,-292.82 456.5,-276 421.65,-268.88 382.46,-258.33 354.92,-250.49"/>
<polygon fill="#63b8ff" stroke="#63b8ff" points="702.48,-318.92 712.84,-316.71 703.36,-311.97 702.48,-318.92"/>
</a>
</g>
</g>
<!-- Node13&#45;&gt;Node6 -->
<g id="edge20_Node000013_Node000006" class="edge">
<title>Node13&#45;&gt;Node6</title>
<g id="a_edge20_Node000013_Node000006"><a xlink:title=" ">
<path fill="none" stroke="#63b8ff" d="M929.75,-143.27C812.63,-146.53 619.15,-157.44 456.5,-193 416.18,-201.82 371.24,-218.63 344.15,-229.57"/>
<polygon fill="#63b8ff" stroke="#63b8ff" points="929.77,-146.77 939.68,-143.01 929.59,-139.77 929.77,-146.77"/>
</a>
</g>
</g>
<!-- Node13&#45;&gt;Node14 -->
<g id="edge21_Node000013_Node000014" class="edge">
<title>Node13&#45;&gt;Node14</title>
<g id="a_edge21_Node000013_Node000014"><a xlink:title=" ">
<path fill="none" stroke="#63b8ff" d="M940.81,-160.61C914.81,-165.7 887.53,-171.04 864.74,-175.5"/>
<polygon fill="#63b8ff" stroke="#63b8ff" points="941.24,-164.09 950.38,-158.74 939.9,-157.22 941.24,-164.09"/>
</a>
</g>
</g>
<!-- Node14&#45;&gt;Node11 -->
<g id="edge22_Node000014_Node000011" class="edge">
<title>Node14&#45;&gt;Node11</title>
<g id="a_edge22_Node000014_Node000011"><a xlink:title=" ">
<path fill="none" stroke="#63b8ff" d="M719.2,-197.97C701.01,-200.39 681.83,-202.94 663.48,-205.38"/>
<polygon fill="#63b8ff" stroke="#63b8ff" points="719.43,-201.47 728.88,-196.68 718.5,-194.53 719.43,-201.47"/>
</a>
</g>
</g>
<!-- Node16&#45;&gt;Node6 -->
<g id="edge26_Node000016_Node000006" class="edge">
<title>Node16&#45;&gt;Node6</title>
<g id="a_edge26_Node000016_Node000006"><a xlink:title=" ">
<path fill="none" stroke="#63b8ff" d="M705.9,-441.23C632.43,-443.3 533.48,-436.68 456.5,-397 389.27,-362.35 340.42,-279.63 324.75,-250.43"/>
<polygon fill="#63b8ff" stroke="#63b8ff" points="705.63,-444.74 715.5,-440.89 705.38,-437.74 705.63,-444.74"/>
</a>
</g>
</g>
<!-- Node17&#45;&gt;Node18 -->
<g id="edge29_Node000017_Node000018" class="edge">
<title>Node17&#45;&gt;Node18</title>
<g id="a_edge29_Node000017_Node000018"><a xlink:title=" ">
<path fill="none" stroke="#63b8ff" d="M2044.43,-28.96C2030.08,-27.42 2015.24,-25.83 2001.07,-24.31"/>
<polygon fill="#63b8ff" stroke="#63b8ff" points="2043.99,-32.43 2054.3,-30.02 2044.73,-25.47 2043.99,-32.43"/>
</a>
</g>
</g>
<!-- Node19&#45;&gt;Node4 -->
<g id="edge32_Node000019_Node000004" class="edge">
<title>Node19&#45;&gt;Node4</title>
<g id="a_edge32_Node000019_Node000004"><a xlink:title=" ">
<path fill="none" stroke="#63b8ff" d="M2059.64,-146.07C2055,-147.67 2050.42,-149.31 2046,-151 2014.55,-163 1979.87,-179.46 1955.46,-191.6"/>
<polygon fill="#63b8ff" stroke="#63b8ff" points="2060.7,-149.4 2069.09,-142.93 2058.49,-142.76 2060.7,-149.4"/>
</a>
</g>
</g>
<!-- Node20 -->
<g id="Node000020" class="node">
<title>Node20</title>
<g id="a_Node000020"><a xlink:href="classediteurpanovisu_1_1EditeurPanovisu.html#a53cccf6a6b2693c872947460b66ae8ee" target="_top" xlink:title=" ">
<polygon fill="white" stroke="#666666" points="1348.5,-70 1173.5,-70 1173.5,-38 1348.5,-38 1348.5,-70"/>
<text xml:space="preserve" text-anchor="start" x="1181.5" y="-56.5" font-family="Helvetica,sans-Serif" font-size="10.00">editeurpanovisu.EditeurPanovisu.tsk</text>
<text xml:space="preserve" text-anchor="middle" x="1261" y="-44.5" font-family="Helvetica,sans-Serif" font-size="10.00">ChargeListeFichiers</text>
</a>
</g>
</g>
<!-- Node19&#45;&gt;Node20 -->
<g id="edge33_Node000019_Node000020" class="edge">
<title>Node19&#45;&gt;Node20</title>
<g id="a_edge33_Node000019_Node000020"><a xlink:title=" ">
<path fill="none" stroke="#63b8ff" d="M2047.13,-119.22C1883.45,-105.62 1516.48,-75.14 1348.69,-61.2"/>
<polygon fill="#63b8ff" stroke="#63b8ff" points="2046.79,-122.7 2057.05,-120.04 2047.37,-115.73 2046.79,-122.7"/>
</a>
</g>
</g>
<!-- Node20&#45;&gt;Node13 -->
<g id="edge36_Node000020_Node000013" class="edge">
<title>Node20&#45;&gt;Node13</title>
<g id="a_edge36_Node000020_Node000013"><a xlink:title=" ">
<path fill="none" stroke="#63b8ff" d="M1207.8,-74.68C1168.55,-90.23 1115.51,-111.24 1079.19,-125.63"/>
<polygon fill="#63b8ff" stroke="#63b8ff" points="1209.07,-77.94 1217.07,-71.01 1206.49,-71.44 1209.07,-77.94"/>
</a>
</g>
</g>
<!-- Node21 -->
<g id="Node000021" class="node">
<title>Node21</title>
<g id="a_Node000021"><a xlink:href="classediteurpanovisu_1_1EditeurPanovisu.html#a924d3ccff3e4f402d2309cd2eade3237" target="_top" xlink:title=" ">
<polygon fill="white" stroke="#666666" points="678.75,-70 456.5,-70 456.5,-38 678.75,-38 678.75,-70"/>
<text xml:space="preserve" text-anchor="start" x="464.5" y="-56.5" font-family="Helvetica,sans-Serif" font-size="10.00">editeurpanovisu.EditeurPanovisu.panoramiques</text>
<text xml:space="preserve" text-anchor="middle" x="567.62" y="-44.5" font-family="Helvetica,sans-Serif" font-size="10.00">Ajouter</text>
</a>
</g>
</g>
<!-- Node20&#45;&gt;Node21 -->
<g id="edge34_Node000020_Node000021" class="edge">
<title>Node20&#45;&gt;Node21</title>
<g id="a_edge34_Node000020_Node000021"><a xlink:title=" ">
<path fill="none" stroke="#63b8ff" d="M1161.86,-54C1034.35,-54 812.35,-54 679.08,-54"/>
<polygon fill="#63b8ff" stroke="#63b8ff" points="1161.62,-57.5 1171.62,-54 1161.62,-50.5 1161.62,-57.5"/>
</a>
</g>
</g>
<!-- Node21&#45;&gt;Node6 -->
<g id="edge35_Node000021_Node000006" class="edge">
<title>Node21&#45;&gt;Node6</title>
<g id="a_edge35_Node000021_Node000006"><a xlink:title=" ">
<path fill="none" stroke="#63b8ff" d="M474.32,-74.68C468.11,-77.41 462.1,-80.51 456.5,-84 392.87,-123.7 342.11,-201.87 325.32,-229.79"/>
<polygon fill="#63b8ff" stroke="#63b8ff" points="475.57,-77.95 483.54,-70.96 472.95,-71.45 475.57,-77.95"/>
</a>
</g>
</g>
</g>
</svg>
