<?xml version="1.0" encoding="UTF-8" standalone="no"?>
<!DOCTYPE svg PUBLIC "-//W3C//DTD SVG 1.1//EN"
 "http://www.w3.org/Graphics/SVG/1.1/DTD/svg11.dtd">
<!-- Generated by graphviz version 13.1.2 (20250808.2320)
 -->
<!-- Title: editeurpanovisu.HuggingFaceClient.generateText Pages: 1 -->
<svg width="743pt" height="62pt"
 viewBox="0.00 0.00 743.00 62.00" xmlns="http://www.w3.org/2000/svg" xmlns:xlink="http://www.w3.org/1999/xlink">
<g id="graph0" class="graph" transform="scale(1 1) rotate(0) translate(4 58)">
<title>editeurpanovisu.HuggingFaceClient.generateText</title>
<!-- Node1 -->
<g id="Node000001" class="node">
<title>Node1</title>
<g id="a_Node000001"><a xlink:title="Génère du texte à partir d&#39;un prompt.">
<polygon fill="#999999" stroke="#666666" points="734.5,-32 589.5,-32 589.5,0 734.5,0 734.5,-32"/>
<text xml:space="preserve" text-anchor="start" x="597.5" y="-18.5" font-family="Helvetica,sans-Serif" font-size="10.00">editeurpanovisu.HuggingFace</text>
<text xml:space="preserve" text-anchor="middle" x="662" y="-6.5" font-family="Helvetica,sans-Serif" font-size="10.00">Client.generateText</text>
</a>
</g>
</g>
<!-- Node1&#45;&gt;Node1 -->
<g id="edge1_Node000001_Node000001" class="edge">
<title>Node1&#45;&gt;Node1</title>
<g id="a_edge1_Node000001_Node000001"><a xlink:title=" ">
<path fill="none" stroke="#63b8ff" d="M692.16,-43.71C687.13,-47.48 677.08,-50 662,-50 634.43,-50 623.65,-41.58 629.69,-32.44"/>
<polygon fill="#63b8ff" stroke="#63b8ff" points="695.59,-44.41 694.03,-33.93 688.72,-43.1 695.59,-44.41"/>
</a>
</g>
</g>
<!-- Node2 -->
<g id="Node000002" class="node">
<title>Node2</title>
<g id="a_Node000002"><a xlink:href="classediteurpanovisu_1_1HuggingFaceClient.html#a1bc40f824a65cb1221cbf1c7cae5e170" target="_top" xlink:title="Génère du texte de manière asynchrone.">
<polygon fill="white" stroke="#666666" points="553.5,-54 408.5,-54 408.5,-22 553.5,-22 553.5,-54"/>
<text xml:space="preserve" text-anchor="start" x="416.5" y="-40.5" font-family="Helvetica,sans-Serif" font-size="10.00">editeurpanovisu.HuggingFace</text>
<text xml:space="preserve" text-anchor="middle" x="481" y="-28.5" font-family="Helvetica,sans-Serif" font-size="10.00">Client.generateTextAsync</text>
</a>
</g>
</g>
<!-- Node1&#45;&gt;Node2 -->
<g id="edge2_Node000001_Node000002" class="edge">
<title>Node1&#45;&gt;Node2</title>
<g id="a_edge2_Node000001_Node000002"><a xlink:title=" ">
<path fill="none" stroke="#63b8ff" d="M577.91,-26.21C569.85,-27.2 561.72,-28.2 553.79,-29.18"/>
<polygon fill="#63b8ff" stroke="#63b8ff" points="578.22,-29.7 587.72,-25.01 577.37,-22.75 578.22,-29.7"/>
</a>
</g>
</g>
<!-- Node3 -->
<g id="Node000003" class="node">
<title>Node3</title>
<g id="a_Node000003"><a xlink:href="classediteurpanovisu_1_1TestAIClients.html#a55d1e3e95eea57dd03038092f607bff7" target="_top" xlink:title="Test du client Hugging Face.">
<polygon fill="white" stroke="#666666" points="372.5,-32 206.5,-32 206.5,0 372.5,0 372.5,-32"/>
<text xml:space="preserve" text-anchor="start" x="214.5" y="-18.5" font-family="Helvetica,sans-Serif" font-size="10.00">editeurpanovisu.TestAIClients.test</text>
<text xml:space="preserve" text-anchor="middle" x="289.5" y="-6.5" font-family="Helvetica,sans-Serif" font-size="10.00">HuggingFace</text>
</a>
</g>
</g>
<!-- Node1&#45;&gt;Node3 -->
<g id="edge5_Node000001_Node000003" class="edge">
<title>Node1&#45;&gt;Node3</title>
<g id="a_edge5_Node000001_Node000003"><a xlink:title=" ">
<path fill="none" stroke="#63b8ff" d="M577.55,-13.44C569.42,-13.26 561.3,-13.11 553.5,-13 489.06,-12.1 472.94,-12.18 408.5,-13 396.92,-13.15 384.71,-13.38 372.7,-13.64"/>
<polygon fill="#63b8ff" stroke="#63b8ff" points="577.42,-16.94 587.5,-13.68 577.59,-9.94 577.42,-16.94"/>
</a>
</g>
</g>
<!-- Node2&#45;&gt;Node3 -->
<g id="edge3_Node000002_Node000003" class="edge">
<title>Node2&#45;&gt;Node3</title>
<g id="a_edge3_Node000002_Node000003"><a xlink:title=" ">
<path fill="none" stroke="#63b8ff" d="M396.9,-28.35C388.91,-27.43 380.81,-26.49 372.84,-25.56"/>
<polygon fill="#63b8ff" stroke="#63b8ff" points="396.25,-31.8 406.58,-29.48 397.05,-24.85 396.25,-31.8"/>
</a>
</g>
</g>
<!-- Node4 -->
<g id="Node000004" class="node">
<title>Node4</title>
<g id="a_Node000004"><a xlink:href="classediteurpanovisu_1_1TestAIClients.html#a0513dc754d9bc85fc8b50d2b9993b35a" target="_top" xlink:title=" ">
<polygon fill="white" stroke="#666666" points="170.5,-26 0,-26 0,-6 170.5,-6 170.5,-26"/>
<text xml:space="preserve" text-anchor="middle" x="85.25" y="-12.5" font-family="Helvetica,sans-Serif" font-size="10.00">editeurpanovisu.TestAIClients.main</text>
</a>
</g>
</g>
<!-- Node3&#45;&gt;Node4 -->
<g id="edge4_Node000003_Node000004" class="edge">
<title>Node3&#45;&gt;Node4</title>
<g id="a_edge4_Node000003_Node000004"><a xlink:title=" ">
<path fill="none" stroke="#63b8ff" d="M194.91,-16C186.85,-16 178.72,-16 170.74,-16"/>
<polygon fill="#63b8ff" stroke="#63b8ff" points="194.72,-19.5 204.72,-16 194.72,-12.5 194.72,-19.5"/>
</a>
</g>
</g>
</g>
</svg>
