<?xml version="1.0" encoding="UTF-8" standalone="no"?>
<!DOCTYPE svg PUBLIC "-//W3C//DTD SVG 1.1//EN"
 "http://www.w3.org/Graphics/SVG/1.1/DTD/svg11.dtd">
<!-- Generated by graphviz version 13.1.2 (20250808.2320)
 -->
<!-- Title: editeurpanovisu.EditeurPanovisu.panoChoixRegard Pages: 1 -->
<svg width="649pt" height="178pt"
 viewBox="0.00 0.00 649.00 178.00" xmlns="http://www.w3.org/2000/svg" xmlns:xlink="http://www.w3.org/1999/xlink">
<g id="graph0" class="graph" transform="scale(1 1) rotate(0) translate(4 174)">
<title>editeurpanovisu.EditeurPanovisu.panoChoixRegard</title>
<!-- Node1 -->
<g id="Node000001" class="node">
<title>Node1</title>
<g id="a_Node000001"><a xlink:title=" ">
<polygon fill="#999999" stroke="#666666" points="182.5,-89 0,-89 0,-57 182.5,-57 182.5,-89"/>
<text xml:space="preserve" text-anchor="start" x="8" y="-75.5" font-family="Helvetica,sans-Serif" font-size="10.00">editeurpanovisu.EditeurPanovisu.pano</text>
<text xml:space="preserve" text-anchor="middle" x="91.25" y="-63.5" font-family="Helvetica,sans-Serif" font-size="10.00">ChoixRegard</text>
</a>
</g>
</g>
<!-- Node2 -->
<g id="Node000002" class="node">
<title>Node2</title>
<g id="a_Node000002"><a xlink:href="classediteurpanovisu_1_1EditeurPanovisu.html#ab8da99461ff612be4471f67b7bab6107" target="_top" xlink:title="Affiche la croix représentant le point de vue.">
<polygon fill="white" stroke="#666666" points="427.25,-102 218.5,-102 218.5,-82 427.25,-82 427.25,-102"/>
<text xml:space="preserve" text-anchor="middle" x="322.88" y="-88.5" font-family="Helvetica,sans-Serif" font-size="10.00">editeurpanovisu.EditeurPanovisu.affichePoV</text>
</a>
</g>
</g>
<!-- Node1&#45;&gt;Node2 -->
<g id="edge1_Node000001_Node000002" class="edge">
<title>Node1&#45;&gt;Node2</title>
<g id="a_edge1_Node000001_Node000002"><a xlink:title=" ">
<path fill="none" stroke="#63b8ff" d="M182.67,-80.48C190.61,-81.14 198.7,-81.81 206.8,-82.48"/>
<polygon fill="#63b8ff" stroke="#63b8ff" points="206.47,-85.96 216.73,-83.3 207.05,-78.99 206.47,-85.96"/>
</a>
</g>
</g>
<!-- Node4 -->
<g id="Node000004" class="node">
<title>Node4</title>
<g id="a_Node000004"><a xlink:href="classediteurpanovisu_1_1EditeurPanovisu.html#af28f960b49fa3c90fdf1550b88acca3d" target="_top" xlink:title=" ">
<polygon fill="white" stroke="#666666" points="640.5,-170 463.25,-170 463.25,-138 640.5,-138 640.5,-170"/>
<text xml:space="preserve" text-anchor="start" x="471.25" y="-156.5" font-family="Helvetica,sans-Serif" font-size="10.00">editeurpanovisu.EditeurPanovisu.geti</text>
<text xml:space="preserve" text-anchor="middle" x="551.88" y="-144.5" font-family="Helvetica,sans-Serif" font-size="10.00">PanoActuel</text>
</a>
</g>
</g>
<!-- Node1&#45;&gt;Node4 -->
<g id="edge6_Node000001_Node000004" class="edge">
<title>Node1&#45;&gt;Node4</title>
<g id="a_edge6_Node000001_Node000004"><a xlink:title=" ">
<path fill="none" stroke="#63b8ff" d="M140.33,-89.49C163.69,-96.99 192.31,-105.4 218.5,-111 296.09,-127.58 385.33,-138.7 451.79,-145.47"/>
<polygon fill="#63b8ff" stroke="#63b8ff" points="451.28,-148.93 461.58,-146.45 451.98,-141.97 451.28,-148.93"/>
</a>
</g>
</g>
<!-- Node5 -->
<g id="Node000005" class="node">
<title>Node5</title>
<g id="a_Node000005"><a xlink:href="classediteurpanovisu_1_1EditeurPanovisu.html#a95e78d275440537393c4e23b1d0c42bb" target="_top" xlink:title=" ">
<polygon fill="white" stroke="#666666" points="639.38,-70 464.38,-70 464.38,-38 639.38,-38 639.38,-70"/>
<text xml:space="preserve" text-anchor="start" x="472.38" y="-56.5" font-family="Helvetica,sans-Serif" font-size="10.00">editeurpanovisu.EditeurPanovisu.get</text>
<text xml:space="preserve" text-anchor="middle" x="551.88" y="-44.5" font-family="Helvetica,sans-Serif" font-size="10.00">PanoramiquesProjet</text>
</a>
</g>
</g>
<!-- Node1&#45;&gt;Node5 -->
<g id="edge7_Node000001_Node000005" class="edge">
<title>Node1&#45;&gt;Node5</title>
<g id="a_edge7_Node000001_Node000005"><a xlink:title=" ">
<path fill="none" stroke="#63b8ff" d="M182.86,-69.25C260.77,-66.02 372.91,-61.37 452.89,-58.06"/>
<polygon fill="#63b8ff" stroke="#63b8ff" points="452.59,-61.57 462.44,-57.66 452.3,-54.58 452.59,-61.57"/>
</a>
</g>
</g>
<!-- Node6 -->
<g id="Node000006" class="node">
<title>Node6</title>
<g id="a_Node000006"><a xlink:href="leaflet_8js.html#a873cae0273c5a7d9673544bbe0a6fe8b" target="_top" xlink:title=" ">
<polygon fill="white" stroke="#666666" points="566.27,-20 537.48,-20 537.48,0 566.27,0 566.27,-20"/>
<text xml:space="preserve" text-anchor="middle" x="551.88" y="-6.5" font-family="Helvetica,sans-Serif" font-size="10.00">Y</text>
</a>
</g>
</g>
<!-- Node1&#45;&gt;Node6 -->
<g id="edge8_Node000001_Node000006" class="edge">
<title>Node1&#45;&gt;Node6</title>
<g id="a_edge8_Node000001_Node000006"><a xlink:title=" ">
<path fill="none" stroke="#63b8ff" d="M182.86,-60.55C290.05,-45.83 462.02,-22.21 525.91,-13.43"/>
<polygon fill="#63b8ff" stroke="#63b8ff" points="526.27,-16.91 535.7,-12.08 525.32,-9.98 526.27,-16.91"/>
</a>
</g>
</g>
<!-- Node3 -->
<g id="Node000003" class="node">
<title>Node3</title>
<g id="a_Node000003"><a xlink:href="classediteurpanovisu_1_1EditeurPanovisu.html#acb237199b624fc6c6ad099c990a71ebe" target="_top" xlink:title=" ">
<polygon fill="white" stroke="#666666" points="640.5,-120 463.25,-120 463.25,-88 640.5,-88 640.5,-120"/>
<text xml:space="preserve" text-anchor="start" x="471.25" y="-106.5" font-family="Helvetica,sans-Serif" font-size="10.00">editeurpanovisu.EditeurPanovisu.geti</text>
<text xml:space="preserve" text-anchor="middle" x="551.88" y="-94.5" font-family="Helvetica,sans-Serif" font-size="10.00">DecalageMac</text>
</a>
</g>
</g>
<!-- Node2&#45;&gt;Node3 -->
<g id="edge2_Node000002_Node000003" class="edge">
<title>Node2&#45;&gt;Node3</title>
<g id="a_edge2_Node000002_Node000003"><a xlink:title=" ">
<path fill="none" stroke="#63b8ff" d="M427.74,-97.49C435.66,-97.91 443.65,-98.33 451.54,-98.75"/>
<polygon fill="#63b8ff" stroke="#63b8ff" points="451.34,-102.24 461.51,-99.28 451.71,-95.25 451.34,-102.24"/>
</a>
</g>
</g>
<!-- Node2&#45;&gt;Node4 -->
<g id="edge3_Node000002_Node000004" class="edge">
<title>Node2&#45;&gt;Node4</title>
<g id="a_edge3_Node000002_Node000004"><a xlink:title=" ">
<path fill="none" stroke="#63b8ff" d="M362.13,-102.45C394.23,-111.22 440.96,-123.98 479.89,-134.61"/>
<polygon fill="#63b8ff" stroke="#63b8ff" points="478.62,-137.89 489.19,-137.15 480.46,-131.14 478.62,-137.89"/>
</a>
</g>
</g>
<!-- Node2&#45;&gt;Node5 -->
<g id="edge4_Node000002_Node000005" class="edge">
<title>Node2&#45;&gt;Node5</title>
<g id="a_edge4_Node000002_Node000005"><a xlink:title=" ">
<path fill="none" stroke="#63b8ff" d="M386.5,-81.52C407.05,-78.08 430.4,-74.17 452.91,-70.4"/>
<polygon fill="#63b8ff" stroke="#63b8ff" points="453.46,-73.86 462.74,-68.75 452.3,-66.95 453.46,-73.86"/>
</a>
</g>
</g>
<!-- Node2&#45;&gt;Node6 -->
<g id="edge5_Node000002_Node000006" class="edge">
<title>Node2&#45;&gt;Node6</title>
<g id="a_edge5_Node000002_Node000006"><a xlink:title=" ">
<path fill="none" stroke="#63b8ff" d="M343.2,-81.68C369.64,-67.94 418.87,-43.66 463.25,-29 483.91,-22.18 508.12,-17.14 525.86,-13.97"/>
<polygon fill="#63b8ff" stroke="#63b8ff" points="526.21,-17.46 535.48,-12.34 525.04,-10.56 526.21,-17.46"/>
</a>
</g>
</g>
</g>
</svg>
