<?xml version="1.0" encoding="UTF-8" standalone="no"?>
<!DOCTYPE svg PUBLIC "-//W3C//DTD SVG 1.1//EN"
 "http://www.w3.org/Graphics/SVG/1.1/DTD/svg11.dtd">
<!-- Generated by graphviz version 13.1.2 (20250808.2320)
 -->
<!-- Title: editeurpanovisu.GestionnaireInterfaceController.getOpaciteRadar Pages: 1 -->
<svg width="2632pt" height="416pt"
 viewBox="0.00 0.00 2632.00 416.00" xmlns="http://www.w3.org/2000/svg" xmlns:xlink="http://www.w3.org/1999/xlink">
<g id="graph0" class="graph" transform="scale(1 1) rotate(0) translate(4 411.8)">
<title>editeurpanovisu.GestionnaireInterfaceController.getOpaciteRadar</title>
<!-- Node1 -->
<g id="Node000001" class="node">
<title>Node1</title>
<g id="a_Node000001"><a xlink:title=" ">
<polygon fill="#999999" stroke="#666666" points="2624.25,-156.8 2451.5,-156.8 2451.5,-124.8 2624.25,-124.8 2624.25,-156.8"/>
<text xml:space="preserve" text-anchor="start" x="2459.5" y="-143.3" font-family="Helvetica,sans-Serif" font-size="10.00">editeurpanovisu.Gestionnaire</text>
<text xml:space="preserve" text-anchor="middle" x="2537.88" y="-131.3" font-family="Helvetica,sans-Serif" font-size="10.00">InterfaceController.getOpaciteRadar</text>
</a>
</g>
</g>
<!-- Node2 -->
<g id="Node000002" class="node">
<title>Node2</title>
<g id="a_Node000002"><a xlink:href="classediteurpanovisu_1_1GestionnaireInterfaceController.html#ace0168604ad1480beb57adc119ca795f" target="_top" xlink:title=" ">
<polygon fill="white" stroke="#666666" points="2406.12,-156.8 2258.88,-156.8 2258.88,-124.8 2406.12,-124.8 2406.12,-156.8"/>
<text xml:space="preserve" text-anchor="start" x="2266.88" y="-143.3" font-family="Helvetica,sans-Serif" font-size="10.00">editeurpanovisu.Gestionnaire</text>
<text xml:space="preserve" text-anchor="middle" x="2332.5" y="-131.3" font-family="Helvetica,sans-Serif" font-size="10.00">InterfaceController.affichePlan</text>
</a>
</g>
</g>
<!-- Node1&#45;&gt;Node2 -->
<g id="edge1_Node000001_Node000002" class="edge">
<title>Node1&#45;&gt;Node2</title>
<g id="a_edge1_Node000001_Node000002"><a xlink:title=" ">
<path fill="none" stroke="#63b8ff" d="M2439.99,-140.8C2428.73,-140.8 2417.38,-140.8 2406.51,-140.8"/>
<polygon fill="#63b8ff" stroke="#63b8ff" points="2439.7,-144.3 2449.7,-140.8 2439.7,-137.3 2439.7,-144.3"/>
</a>
</g>
</g>
<!-- Node3 -->
<g id="Node000003" class="node">
<title>Node3</title>
<g id="a_Node000003"><a xlink:href="classediteurpanovisu_1_1GestionnaireInterfaceController.html#a55c8afda208674955a13d48d02be41b8" target="_top" xlink:title=" ">
<polygon fill="white" stroke="#666666" points="2213.5,-84.8 2046,-84.8 2046,-52.8 2213.5,-52.8 2213.5,-84.8"/>
<text xml:space="preserve" text-anchor="start" x="2054" y="-71.3" font-family="Helvetica,sans-Serif" font-size="10.00">editeurpanovisu.Gestionnaire</text>
<text xml:space="preserve" text-anchor="middle" x="2129.75" y="-59.3" font-family="Helvetica,sans-Serif" font-size="10.00">InterfaceController.afficheTemplate</text>
</a>
</g>
</g>
<!-- Node1&#45;&gt;Node3 -->
<g id="edge37_Node000001_Node000003" class="edge">
<title>Node1&#45;&gt;Node3</title>
<g id="a_edge37_Node000001_Node000003"><a xlink:title=" ">
<path fill="none" stroke="#63b8ff" d="M2448.29,-122.13C2437.26,-119.93 2426.13,-117.77 2415.5,-115.8 2347.76,-103.23 2270.64,-90.61 2213.76,-81.61"/>
<polygon fill="#63b8ff" stroke="#63b8ff" points="2447.29,-125.5 2457.78,-124.04 2448.67,-118.63 2447.29,-125.5"/>
</a>
</g>
</g>
<!-- Node22 -->
<g id="Node000022" class="node">
<title>Node22</title>
<g id="a_Node000022"><a xlink:href="classediteurpanovisu_1_1GestionnaireInterfaceController.html#ab66509c63a85a8285a081b24049e8774" target="_top" xlink:title=" ">
<polygon fill="white" stroke="#666666" points="2415.5,-236.8 2249.5,-236.8 2249.5,-204.8 2415.5,-204.8 2415.5,-236.8"/>
<text xml:space="preserve" text-anchor="start" x="2257.5" y="-223.3" font-family="Helvetica,sans-Serif" font-size="10.00">editeurpanovisu.Gestionnaire</text>
<text xml:space="preserve" text-anchor="middle" x="2332.5" y="-211.3" font-family="Helvetica,sans-Serif" font-size="10.00">InterfaceController.strGetTemplate</text>
</a>
</g>
</g>
<!-- Node1&#45;&gt;Node22 -->
<g id="edge38_Node000001_Node000022" class="edge">
<title>Node1&#45;&gt;Node22</title>
<g id="a_edge38_Node000001_Node000022"><a xlink:title=" ">
<path fill="none" stroke="#63b8ff" d="M2484.59,-161.37C2450.67,-174.71 2407.08,-191.85 2375.44,-204.3"/>
<polygon fill="#63b8ff" stroke="#63b8ff" points="2485.8,-164.65 2493.82,-157.73 2483.23,-158.14 2485.8,-164.65"/>
</a>
</g>
</g>
<!-- Node2&#45;&gt;Node3 -->
<g id="edge2_Node000002_Node000003" class="edge">
<title>Node2&#45;&gt;Node3</title>
<g id="a_edge2_Node000002_Node000003"><a xlink:title=" ">
<path fill="none" stroke="#63b8ff" d="M2280.27,-120.15C2251.65,-108.67 2220.38,-96.2 2213.5,-93.8 2205.14,-90.88 2196.24,-87.97 2187.49,-85.23"/>
<polygon fill="#63b8ff" stroke="#63b8ff" points="2278.65,-123.28 2289.24,-123.76 2281.26,-116.78 2278.65,-123.28"/>
</a>
</g>
</g>
<!-- Node17 -->
<g id="Node000017" class="node">
<title>Node17</title>
<g id="a_Node000017"><a xlink:href="classediteurpanovisu_1_1GestionnaireInterfaceController.html#a8c634f775c31c1a4db22d5ef0659f7e4" target="_top" xlink:title=" ">
<polygon fill="white" stroke="#666666" points="2203.38,-222.8 2056.12,-222.8 2056.12,-190.8 2203.38,-190.8 2203.38,-222.8"/>
<text xml:space="preserve" text-anchor="start" x="2064.12" y="-209.3" font-family="Helvetica,sans-Serif" font-size="10.00">editeurpanovisu.Gestionnaire</text>
<text xml:space="preserve" text-anchor="middle" x="2129.75" y="-197.3" font-family="Helvetica,sans-Serif" font-size="10.00">InterfaceController.afficheTitre</text>
</a>
</g>
</g>
<!-- Node2&#45;&gt;Node17 -->
<g id="edge28_Node000002_Node000017" class="edge">
<title>Node2&#45;&gt;Node17</title>
<g id="a_edge28_Node000002_Node000017"><a xlink:title=" ">
<path fill="none" stroke="#63b8ff" d="M2270.6,-160.82C2241.8,-170.29 2207.84,-181.45 2180.6,-190.41"/>
<polygon fill="#63b8ff" stroke="#63b8ff" points="2271.52,-164.2 2279.92,-157.75 2269.33,-157.55 2271.52,-164.2"/>
</a>
</g>
</g>
<!-- Node18 -->
<g id="Node000018" class="node">
<title>Node18</title>
<g id="a_Node000018"><a xlink:href="classediteurpanovisu_1_1GestionnaireInterfaceController.html#ac7fa988dc99d8684686127a2269cd66e" target="_top" xlink:title=" ">
<polygon fill="white" stroke="#666666" points="2000.62,-222.8 1844.38,-222.8 1844.38,-190.8 2000.62,-190.8 2000.62,-222.8"/>
<text xml:space="preserve" text-anchor="start" x="1852.38" y="-209.3" font-family="Helvetica,sans-Serif" font-size="10.00">editeurpanovisu.Gestionnaire</text>
<text xml:space="preserve" text-anchor="middle" x="1922.5" y="-197.3" font-family="Helvetica,sans-Serif" font-size="10.00">InterfaceController.creeInterface</text>
</a>
</g>
</g>
<!-- Node2&#45;&gt;Node18 -->
<g id="edge30_Node000002_Node000018" class="edge">
<title>Node2&#45;&gt;Node18</title>
<g id="a_edge30_Node000002_Node000018"><a xlink:title=" ">
<path fill="none" stroke="#63b8ff" d="M2247.44,-151.55C2190.46,-159.16 2113.53,-170.07 2046,-181.8 2031.35,-184.34 2015.77,-187.31 2000.81,-190.3"/>
<polygon fill="#63b8ff" stroke="#63b8ff" points="2247.61,-155.06 2257.06,-150.27 2246.69,-148.12 2247.61,-155.06"/>
</a>
</g>
</g>
<!-- Node19 -->
<g id="Node000019" class="node">
<title>Node19</title>
<g id="a_Node000019"><a xlink:href="classediteurpanovisu_1_1GestionnaireInterfaceController.html#a568c34e865fb653f63b8fa7a9a9cafc8" target="_top" xlink:title=" ">
<polygon fill="white" stroke="#666666" points="2200.75,-134.8 2058.75,-134.8 2058.75,-102.8 2200.75,-102.8 2200.75,-134.8"/>
<text xml:space="preserve" text-anchor="start" x="2066.75" y="-121.3" font-family="Helvetica,sans-Serif" font-size="10.00">editeurpanovisu.Gestionnaire</text>
<text xml:space="preserve" text-anchor="middle" x="2129.75" y="-109.3" font-family="Helvetica,sans-Serif" font-size="10.00">InterfaceController.rafraichit</text>
</a>
</g>
</g>
<!-- Node2&#45;&gt;Node19 -->
<g id="edge31_Node000002_Node000019" class="edge">
<title>Node2&#45;&gt;Node19</title>
<g id="a_edge31_Node000002_Node000019"><a xlink:title=" ">
<path fill="none" stroke="#63b8ff" d="M2247.35,-131.57C2231.94,-129.89 2216.01,-128.14 2201.06,-126.5"/>
<polygon fill="#63b8ff" stroke="#63b8ff" points="2246.63,-135.02 2256.95,-132.63 2247.39,-128.06 2246.63,-135.02"/>
</a>
</g>
</g>
<!-- Node4 -->
<g id="Node000004" class="node">
<title>Node4</title>
<g id="a_Node000004"><a xlink:href="classediteurpanovisu_1_1EditeurPanovisu.html#a87b29dc258cfc67370b1f27809e91b8e" target="_top" xlink:title=" ">
<polygon fill="white" stroke="#666666" points="2010,-109.8 1835,-109.8 1835,-77.8 2010,-77.8 2010,-109.8"/>
<text xml:space="preserve" text-anchor="start" x="1843" y="-96.3" font-family="Helvetica,sans-Serif" font-size="10.00">editeurpanovisu.EditeurPanovisu.tsk</text>
<text xml:space="preserve" text-anchor="middle" x="1922.5" y="-84.3" font-family="Helvetica,sans-Serif" font-size="10.00">AnalyseFichierPVU</text>
</a>
</g>
</g>
<!-- Node3&#45;&gt;Node4 -->
<g id="edge3_Node000003_Node000004" class="edge">
<title>Node3&#45;&gt;Node4</title>
<g id="a_edge3_Node000003_Node000004"><a xlink:title=" ">
<path fill="none" stroke="#63b8ff" d="M2034.37,-80.29C2026.41,-81.26 2018.38,-82.24 2010.48,-83.2"/>
<polygon fill="#63b8ff" stroke="#63b8ff" points="2034.56,-83.8 2044.06,-79.11 2033.71,-76.85 2034.56,-83.8"/>
</a>
</g>
</g>
<!-- Node5 -->
<g id="Node000005" class="node">
<title>Node5</title>
<g id="a_Node000005"><a xlink:href="classediteurpanovisu_1_1EditeurPanovisu.html#ab4beb1597b660a4a253befc6e76f1c54" target="_top" xlink:title=" ">
<polygon fill="white" stroke="#666666" points="1129.62,-67.8 944.12,-67.8 944.12,-35.8 1129.62,-35.8 1129.62,-67.8"/>
<text xml:space="preserve" text-anchor="start" x="952.12" y="-54.3" font-family="Helvetica,sans-Serif" font-size="10.00">editeurpanovisu.EditeurPanovisu.projet</text>
<text xml:space="preserve" text-anchor="middle" x="1036.88" y="-42.3" font-family="Helvetica,sans-Serif" font-size="10.00">Charge</text>
</a>
</g>
</g>
<!-- Node4&#45;&gt;Node5 -->
<g id="edge4_Node000004_Node000005" class="edge">
<title>Node4&#45;&gt;Node5</title>
<g id="a_edge4_Node000004_Node000005"><a xlink:title=" ">
<path fill="none" stroke="#63b8ff" d="M1823.45,-89.14C1651.48,-80.96 1297.83,-64.15 1130.08,-56.18"/>
<polygon fill="#63b8ff" stroke="#63b8ff" points="1823.09,-92.62 1833.25,-89.6 1823.43,-85.63 1823.09,-92.62"/>
</a>
</g>
</g>
<!-- Node8 -->
<g id="Node000008" class="node">
<title>Node8</title>
<g id="a_Node000008"><a xlink:href="classediteurpanovisu_1_1EditeurPanovisu.html#a6d19b4d885ee6fcec827b91956295732" target="_top" xlink:title=" ">
<polygon fill="white" stroke="#666666" points="1799,-131.8 1613.5,-131.8 1613.5,-99.8 1799,-99.8 1799,-131.8"/>
<text xml:space="preserve" text-anchor="start" x="1621.5" y="-118.3" font-family="Helvetica,sans-Serif" font-size="10.00">editeurpanovisu.EditeurPanovisu.projet</text>
<text xml:space="preserve" text-anchor="middle" x="1706.25" y="-106.3" font-family="Helvetica,sans-Serif" font-size="10.00">ChargeNom</text>
</a>
</g>
</g>
<!-- Node4&#45;&gt;Node8 -->
<g id="edge7_Node000004_Node000008" class="edge">
<title>Node4&#45;&gt;Node8</title>
<g id="a_edge7_Node000004_Node000008"><a xlink:title=" ">
<path fill="none" stroke="#63b8ff" d="M1823.44,-103.87C1815.45,-104.69 1807.39,-105.51 1799.45,-106.33"/>
<polygon fill="#63b8ff" stroke="#63b8ff" points="1823.57,-107.37 1833.16,-102.87 1822.85,-100.41 1823.57,-107.37"/>
</a>
</g>
</g>
<!-- Node6 -->
<g id="Node000006" class="node">
<title>Node6</title>
<g id="a_Node000006"><a xlink:href="classediteurpanovisu_1_1EditeurPanovisu.html#ac912b80c1f2ac97def60ff005c5c480b" target="_top" xlink:title=" ">
<polygon fill="white" stroke="#666666" points="420.5,-215.8 216.25,-215.8 216.25,-195.8 420.5,-195.8 420.5,-215.8"/>
<text xml:space="preserve" text-anchor="middle" x="318.38" y="-202.3" font-family="Helvetica,sans-Serif" font-size="10.00">editeurpanovisu.EditeurPanovisu.creeMenu</text>
</a>
</g>
</g>
<!-- Node5&#45;&gt;Node6 -->
<g id="edge5_Node000005_Node000006" class="edge">
<title>Node5&#45;&gt;Node6</title>
<g id="a_edge5_Node000005_Node000006"><a xlink:title=" ">
<path fill="none" stroke="#63b8ff" d="M932.57,-41.71C813.42,-34.07 613.75,-33.73 456.5,-95.8 399.72,-118.21 347.97,-172.74 328.04,-195.53"/>
<polygon fill="#63b8ff" stroke="#63b8ff" points="932.13,-45.18 942.34,-42.37 932.6,-38.2 932.13,-45.18"/>
</a>
</g>
</g>
<!-- Node7 -->
<g id="Node000007" class="node">
<title>Node7</title>
<g id="a_Node000007"><a xlink:href="classediteurpanovisu_1_1EditeurPanovisu.html#a86c393eee88f54c694db994ddd85b90d" target="_top" xlink:title=" ">
<polygon fill="white" stroke="#666666" points="180.25,-221.8 0,-221.8 0,-189.8 180.25,-189.8 180.25,-221.8"/>
<text xml:space="preserve" text-anchor="start" x="8" y="-208.3" font-family="Helvetica,sans-Serif" font-size="10.00">editeurpanovisu.EditeurPanovisu.cree</text>
<text xml:space="preserve" text-anchor="middle" x="90.12" y="-196.3" font-family="Helvetica,sans-Serif" font-size="10.00">Environnement</text>
</a>
</g>
</g>
<!-- Node6&#45;&gt;Node7 -->
<g id="edge6_Node000006_Node000007" class="edge">
<title>Node6&#45;&gt;Node7</title>
<g id="a_edge6_Node000006_Node000007"><a xlink:title=" ">
<path fill="none" stroke="#63b8ff" d="M204.51,-205.8C196.49,-205.8 188.46,-205.8 180.6,-205.8"/>
<polygon fill="#63b8ff" stroke="#63b8ff" points="204.32,-209.3 214.32,-205.8 204.32,-202.3 204.32,-209.3"/>
</a>
</g>
</g>
<!-- Node8&#45;&gt;Node6 -->
<g id="edge27_Node000008_Node000006" class="edge">
<title>Node8&#45;&gt;Node6</title>
<g id="a_edge27_Node000008_Node000006"><a xlink:title=" ">
<path fill="none" stroke="#63b8ff" d="M1655.31,-95.33C1574.23,-64.02 1408.3,-7.8 1262,-7.8 1262,-7.8 1262,-7.8 793.38,-7.8 642.7,-7.8 589.63,24.75 456.5,-45.8 388.62,-81.77 339.83,-166.39 324.49,-195.64"/>
<polygon fill="#63b8ff" stroke="#63b8ff" points="1653.71,-98.47 1664.29,-98.84 1656.25,-91.95 1653.71,-98.47"/>
</a>
</g>
</g>
<!-- Node9 -->
<g id="Node000009" class="node">
<title>Node9</title>
<g id="a_Node000009"><a xlink:href="classediteurpanovisu_1_1EditeurPanovisu.html#af0d1c32bb78acbff561c822a0d15f760" target="_top" xlink:title=" ">
<polygon fill="white" stroke="#666666" points="1577.5,-131.8 1389.75,-131.8 1389.75,-99.8 1577.5,-99.8 1577.5,-131.8"/>
<text xml:space="preserve" text-anchor="start" x="1397.75" y="-118.3" font-family="Helvetica,sans-Serif" font-size="10.00">editeurpanovisu.EditeurPanovisu.ajoute</text>
<text xml:space="preserve" text-anchor="middle" x="1483.62" y="-106.3" font-family="Helvetica,sans-Serif" font-size="10.00">FichierHisto</text>
</a>
</g>
</g>
<!-- Node8&#45;&gt;Node9 -->
<g id="edge8_Node000008_Node000009" class="edge">
<title>Node8&#45;&gt;Node9</title>
<g id="a_edge8_Node000008_Node000009"><a xlink:title=" ">
<path fill="none" stroke="#63b8ff" d="M1601.97,-109.06C1593.92,-109.03 1585.83,-109.05 1577.86,-109.12"/>
<polygon fill="#63b8ff" stroke="#63b8ff" points="1601.75,-112.56 1611.77,-109.12 1601.79,-105.56 1601.75,-112.56"/>
</a>
</g>
</g>
<!-- Node9&#45;&gt;Node5 -->
<g id="edge9_Node000009_Node000005" class="edge">
<title>Node9&#45;&gt;Node5</title>
<g id="a_edge9_Node000009_Node000005"><a xlink:title=" ">
<path fill="none" stroke="#63b8ff" d="M1378.23,-105.81C1316.9,-99.37 1237.96,-90.09 1168.25,-78.8 1149.88,-75.82 1130.17,-72.04 1111.79,-68.27"/>
<polygon fill="#63b8ff" stroke="#63b8ff" points="1377.66,-109.27 1387.97,-106.83 1378.39,-102.31 1377.66,-109.27"/>
</a>
</g>
</g>
<!-- Node9&#45;&gt;Node8 -->
<g id="edge10_Node000009_Node000008" class="edge">
<title>Node9&#45;&gt;Node8</title>
<g id="a_edge10_Node000009_Node000008"><a xlink:title=" ">
<path fill="none" stroke="#63b8ff" d="M1589.19,-122.54C1597.24,-122.56 1605.33,-122.54 1613.28,-122.46"/>
<polygon fill="#63b8ff" stroke="#63b8ff" points="1589.4,-119.04 1579.38,-122.48 1589.36,-126.04 1589.4,-119.04"/>
</a>
</g>
</g>
<!-- Node10 -->
<g id="Node000010" class="node">
<title>Node10</title>
<g id="a_Node000010"><a xlink:href="classediteurpanovisu_1_1EditeurPanovisu.html#a9f3ea25b35d4884524508dab3dc4fd6a" target="_top" xlink:title=" ">
<polygon fill="white" stroke="#666666" points="1353.75,-181.8 1168.25,-181.8 1168.25,-149.8 1353.75,-149.8 1353.75,-181.8"/>
<text xml:space="preserve" text-anchor="start" x="1176.25" y="-168.3" font-family="Helvetica,sans-Serif" font-size="10.00">editeurpanovisu.EditeurPanovisu.projet</text>
<text xml:space="preserve" text-anchor="middle" x="1261" y="-156.3" font-family="Helvetica,sans-Serif" font-size="10.00">Sauve</text>
</a>
</g>
</g>
<!-- Node9&#45;&gt;Node10 -->
<g id="edge11_Node000009_Node000010" class="edge">
<title>Node9&#45;&gt;Node10</title>
<g id="a_edge11_Node000009_Node000010"><a xlink:title=" ">
<path fill="none" stroke="#63b8ff" d="M1399.12,-134.72C1377.88,-139.53 1355.23,-144.67 1334.59,-149.35"/>
<polygon fill="#63b8ff" stroke="#63b8ff" points="1399.62,-138.2 1408.6,-132.57 1398.08,-131.37 1399.62,-138.2"/>
</a>
</g>
</g>
<!-- Node16 -->
<g id="Node000016" class="node">
<title>Node16</title>
<g id="a_Node000016"><a xlink:href="classediteurpanovisu_1_1EditeurPanovisu.html#a7b2e25dc717eb52b62e23d54ec4c124a" target="_top" xlink:title=" ">
<polygon fill="white" stroke="#666666" points="1353.75,-250.8 1168.25,-250.8 1168.25,-218.8 1353.75,-218.8 1353.75,-250.8"/>
<text xml:space="preserve" text-anchor="start" x="1176.25" y="-237.3" font-family="Helvetica,sans-Serif" font-size="10.00">editeurpanovisu.EditeurPanovisu.projet</text>
<text xml:space="preserve" text-anchor="middle" x="1261" y="-225.3" font-family="Helvetica,sans-Serif" font-size="10.00">SauveSous</text>
</a>
</g>
</g>
<!-- Node9&#45;&gt;Node16 -->
<g id="edge25_Node000009_Node000016" class="edge">
<title>Node9&#45;&gt;Node16</title>
<g id="a_edge25_Node000009_Node000016"><a xlink:title=" ">
<path fill="none" stroke="#63b8ff" d="M1446.18,-138.05C1420.61,-153.41 1385.46,-174 1353.75,-190.8 1335.64,-200.39 1315.11,-210.32 1298.06,-218.32"/>
<polygon fill="#63b8ff" stroke="#63b8ff" points="1447.77,-141.18 1454.53,-133.02 1444.16,-135.18 1447.77,-141.18"/>
</a>
</g>
</g>
<!-- Node10&#45;&gt;Node5 -->
<g id="edge15_Node000010_Node000005" class="edge">
<title>Node10&#45;&gt;Node5</title>
<g id="a_edge15_Node000010_Node000005"><a xlink:title=" ">
<path fill="none" stroke="#63b8ff" d="M1198.77,-144.8C1188.08,-139.76 1177.45,-133.77 1168.25,-126.8 1147.84,-111.32 1153.36,-96.3 1132.25,-81.8 1124.31,-76.34 1115.33,-71.84 1106.15,-68.14"/>
<polygon fill="#63b8ff" stroke="#63b8ff" points="1197.06,-147.87 1207.62,-148.73 1199.9,-141.47 1197.06,-147.87"/>
</a>
</g>
</g>
<!-- Node10&#45;&gt;Node6 -->
<g id="edge12_Node000010_Node000006" class="edge">
<title>Node10&#45;&gt;Node6</title>
<g id="a_edge12_Node000010_Node000006"><a xlink:title=" ">
<path fill="none" stroke="#63b8ff" d="M1156.69,-170.19C975.14,-177.91 601.1,-193.82 420.86,-201.48"/>
<polygon fill="#63b8ff" stroke="#63b8ff" points="1156.74,-173.69 1166.58,-169.77 1156.44,-166.7 1156.74,-173.69"/>
</a>
</g>
</g>
<!-- Node10&#45;&gt;Node8 -->
<g id="edge16_Node000010_Node000008" class="edge">
<title>Node10&#45;&gt;Node8</title>
<g id="a_edge16_Node000010_Node000008"><a xlink:title=" ">
<path fill="none" stroke="#63b8ff" d="M1365.42,-160.59C1427.17,-156.73 1507.03,-150.45 1577.5,-140.8 1594.07,-138.53 1611.73,-135.48 1628.48,-132.3"/>
<polygon fill="#63b8ff" stroke="#63b8ff" points="1365.38,-157.08 1355.62,-161.19 1365.81,-164.07 1365.38,-157.08"/>
</a>
</g>
</g>
<!-- Node11 -->
<g id="Node000011" class="node">
<title>Node11</title>
<g id="a_Node000011"><a xlink:href="classediteurpanovisu_1_1EditeurPanovisu.html#a94e36b9e9d09ab1a4c852b8a8cefa927" target="_top" xlink:title=" ">
<polygon fill="white" stroke="#666666" points="647.25,-243.8 456.5,-243.8 456.5,-211.8 647.25,-211.8 647.25,-243.8"/>
<text xml:space="preserve" text-anchor="start" x="464.5" y="-230.3" font-family="Helvetica,sans-Serif" font-size="10.00">editeurpanovisu.EditeurPanovisu.genere</text>
<text xml:space="preserve" text-anchor="middle" x="551.88" y="-218.3" font-family="Helvetica,sans-Serif" font-size="10.00">Visite</text>
</a>
</g>
</g>
<!-- Node10&#45;&gt;Node11 -->
<g id="edge13_Node000010_Node000011" class="edge">
<title>Node10&#45;&gt;Node11</title>
<g id="a_edge13_Node000010_Node000011"><a xlink:title=" ">
<path fill="none" stroke="#63b8ff" d="M1193.27,-185.1C1173.75,-190.04 1152.29,-194.8 1132.25,-197.8 962.79,-223.16 762.69,-228.06 647.51,-228.5"/>
<polygon fill="#63b8ff" stroke="#63b8ff" points="1193.93,-188.55 1202.73,-182.65 1192.17,-181.77 1193.93,-188.55"/>
</a>
</g>
</g>
<!-- Node12 -->
<g id="Node000012" class="node">
<title>Node12</title>
<g id="a_Node000012"><a xlink:href="classediteurpanovisu_1_1EditeurPanovisu.html#a9b46b222714af12c06ec33d410400773" target="_top" xlink:title=" ">
<polygon fill="white" stroke="#666666" points="647.25,-136.8 456.5,-136.8 456.5,-104.8 647.25,-104.8 647.25,-136.8"/>
<text xml:space="preserve" text-anchor="start" x="464.5" y="-123.3" font-family="Helvetica,sans-Serif" font-size="10.00">editeurpanovisu.EditeurPanovisu.projets</text>
<text xml:space="preserve" text-anchor="middle" x="551.88" y="-111.3" font-family="Helvetica,sans-Serif" font-size="10.00">Fermer</text>
</a>
</g>
</g>
<!-- Node10&#45;&gt;Node12 -->
<g id="edge17_Node000010_Node000012" class="edge">
<title>Node10&#45;&gt;Node12</title>
<g id="a_edge17_Node000010_Node000012"><a xlink:title=" ">
<path fill="none" stroke="#63b8ff" d="M1218.42,-144.52C1194.01,-133.24 1162.18,-120.55 1132.25,-114.8 964.07,-82.47 763.34,-95.79 647.73,-108.35"/>
<polygon fill="#63b8ff" stroke="#63b8ff" points="1216.83,-147.64 1227.37,-148.76 1219.83,-141.32 1216.83,-147.64"/>
</a>
</g>
</g>
<!-- Node13 -->
<g id="Node000013" class="node">
<title>Node13</title>
<g id="a_Node000013"><a xlink:href="classediteurpanovisu_1_1EditeurPanovisu.html#ac9d449399ccd38843fa12e716f0c9611" target="_top" xlink:title=" ">
<polygon fill="white" stroke="#666666" points="1132.25,-319.8 941.5,-319.8 941.5,-287.8 1132.25,-287.8 1132.25,-319.8"/>
<text xml:space="preserve" text-anchor="start" x="949.5" y="-306.3" font-family="Helvetica,sans-Serif" font-size="10.00">editeurpanovisu.EditeurPanovisu.projets</text>
<text xml:space="preserve" text-anchor="middle" x="1036.88" y="-294.3" font-family="Helvetica,sans-Serif" font-size="10.00">Nouveau</text>
</a>
</g>
</g>
<!-- Node10&#45;&gt;Node13 -->
<g id="edge19_Node000010_Node000013" class="edge">
<title>Node10&#45;&gt;Node13</title>
<g id="a_edge19_Node000010_Node000013"><a xlink:title=" ">
<path fill="none" stroke="#63b8ff" d="M1201.76,-187.1C1189.8,-193.21 1177.92,-200.74 1168.25,-209.8 1144.43,-232.11 1157.56,-253.2 1132.25,-273.8 1125.58,-279.22 1117.92,-283.67 1109.9,-287.32"/>
<polygon fill="#63b8ff" stroke="#63b8ff" points="1202.92,-190.42 1210.42,-182.94 1199.89,-184.11 1202.92,-190.42"/>
</a>
</g>
</g>
<!-- Node14 -->
<g id="Node000014" class="node">
<title>Node14</title>
<g id="a_Node000014"><a xlink:href="classediteurpanovisu_1_1EditeurPanovisu.html#a2b3125ffe2e6291efacf19df6cb30a8d" target="_top" xlink:title=" ">
<polygon fill="white" stroke="#666666" points="884.88,-269.8 703.88,-269.8 703.88,-249.8 884.88,-249.8 884.88,-269.8"/>
<text xml:space="preserve" text-anchor="middle" x="794.38" y="-256.3" font-family="Helvetica,sans-Serif" font-size="10.00">editeurpanovisu.EditeurPanovisu.start</text>
</a>
</g>
</g>
<!-- Node10&#45;&gt;Node14 -->
<g id="edge24_Node000010_Node000014" class="edge">
<title>Node10&#45;&gt;Node14</title>
<g id="a_edge24_Node000010_Node000014"><a xlink:title=" ">
<path fill="none" stroke="#63b8ff" d="M1211.98,-186.85C1197.63,-193.66 1182.06,-201.59 1168.25,-209.8 1151.28,-219.88 1150.8,-229.06 1132.25,-235.8 1052.2,-264.86 954.54,-268.67 885.02,-266.53"/>
<polygon fill="#63b8ff" stroke="#63b8ff" points="1213.21,-190.14 1220.79,-182.74 1210.25,-183.79 1213.21,-190.14"/>
</a>
</g>
</g>
<!-- Node15 -->
<g id="Node000015" class="node">
<title>Node15</title>
<g id="a_Node000015"><a xlink:href="classediteurpanovisu_1_1EditeurPanovisu.html#aef8c9b28c3e88d6e27e3f62b9a901134" target="_top" xlink:title=" ">
<polygon fill="white" stroke="#666666" points="1130.75,-155.8 943,-155.8 943,-123.8 1130.75,-123.8 1130.75,-155.8"/>
<text xml:space="preserve" text-anchor="start" x="951" y="-142.3" font-family="Helvetica,sans-Serif" font-size="10.00">editeurpanovisu.EditeurPanovisu.sauve</text>
<text xml:space="preserve" text-anchor="middle" x="1036.88" y="-130.3" font-family="Helvetica,sans-Serif" font-size="10.00">Fichiers</text>
</a>
</g>
</g>
<!-- Node10&#45;&gt;Node15 -->
<g id="edge23_Node000010_Node000015" class="edge">
<title>Node10&#45;&gt;Node15</title>
<g id="a_edge23_Node000010_Node000015"><a xlink:title=" ">
<path fill="none" stroke="#63b8ff" d="M1156.85,-153.72C1148.29,-152.72 1139.67,-151.71 1131.19,-150.72"/>
<polygon fill="#63b8ff" stroke="#63b8ff" points="1156.21,-157.17 1166.55,-154.86 1157.02,-150.22 1156.21,-157.17"/>
</a>
</g>
</g>
<!-- Node11&#45;&gt;Node6 -->
<g id="edge14_Node000011_Node000006" class="edge">
<title>Node11&#45;&gt;Node6</title>
<g id="a_edge14_Node000011_Node000006"><a xlink:title=" ">
<path fill="none" stroke="#63b8ff" d="M444.81,-217.72C436.83,-216.96 428.78,-216.19 420.83,-215.44"/>
<polygon fill="#63b8ff" stroke="#63b8ff" points="444.25,-221.18 454.54,-218.64 444.92,-214.21 444.25,-221.18"/>
</a>
</g>
</g>
<!-- Node12&#45;&gt;Node6 -->
<g id="edge18_Node000012_Node000006" class="edge">
<title>Node12&#45;&gt;Node6</title>
<g id="a_edge18_Node000012_Node000006"><a xlink:title=" ">
<path fill="none" stroke="#63b8ff" d="M495.45,-141.15C448.93,-158.23 384.38,-181.93 347.75,-195.38"/>
<polygon fill="#63b8ff" stroke="#63b8ff" points="496.36,-144.54 504.54,-137.81 493.95,-137.97 496.36,-144.54"/>
</a>
</g>
</g>
<!-- Node13&#45;&gt;Node6 -->
<g id="edge20_Node000013_Node000006" class="edge">
<title>Node13&#45;&gt;Node6</title>
<g id="a_edge20_Node000013_Node000006"><a xlink:title=" ">
<path fill="none" stroke="#63b8ff" d="M929.65,-302.96C812.45,-300.07 618.9,-289.48 456.5,-252.8 416.37,-243.73 371.56,-227.07 344.43,-216.22"/>
<polygon fill="#63b8ff" stroke="#63b8ff" points="929.51,-306.45 939.59,-303.18 929.67,-299.46 929.51,-306.45"/>
</a>
</g>
</g>
<!-- Node13&#45;&gt;Node14 -->
<g id="edge21_Node000013_Node000014" class="edge">
<title>Node13&#45;&gt;Node14</title>
<g id="a_edge21_Node000013_Node000014"><a xlink:title=" ">
<path fill="none" stroke="#63b8ff" d="M934.9,-285.32C906.84,-280.19 877.35,-274.79 852.75,-270.29"/>
<polygon fill="#63b8ff" stroke="#63b8ff" points="934.02,-288.72 944.49,-287.08 935.28,-281.83 934.02,-288.72"/>
</a>
</g>
</g>
<!-- Node14&#45;&gt;Node11 -->
<g id="edge22_Node000014_Node000011" class="edge">
<title>Node14&#45;&gt;Node11</title>
<g id="a_edge22_Node000014_Node000011"><a xlink:title=" ">
<path fill="none" stroke="#63b8ff" d="M703.45,-247.83C685.26,-245.41 666.08,-242.86 647.73,-240.42"/>
<polygon fill="#63b8ff" stroke="#63b8ff" points="702.75,-251.27 713.13,-249.12 703.68,-244.33 702.75,-251.27"/>
</a>
</g>
</g>
<!-- Node16&#45;&gt;Node6 -->
<g id="edge26_Node000016_Node000006" class="edge">
<title>Node16&#45;&gt;Node6</title>
<g id="a_edge26_Node000016_Node000006"><a xlink:title=" ">
<path fill="none" stroke="#63b8ff" d="M1204,-256.17C1191.5,-262.39 1178.83,-269.94 1168.25,-278.8 1147.25,-296.37 1156.62,-316.31 1132.25,-328.8 998.27,-397.42 599.65,-328.36 456.5,-281.8 408.36,-266.14 357.78,-233.11 333.73,-216.22"/>
<polygon fill="#63b8ff" stroke="#63b8ff" points="1205.48,-259.34 1213.03,-251.91 1202.5,-253.01 1205.48,-259.34"/>
</a>
</g>
</g>
<!-- Node17&#45;&gt;Node18 -->
<g id="edge29_Node000017_Node000018" class="edge">
<title>Node17&#45;&gt;Node18</title>
<g id="a_edge29_Node000017_Node000018"><a xlink:title=" ">
<path fill="none" stroke="#63b8ff" d="M2044.43,-206.8C2030.08,-206.8 2015.24,-206.8 2001.07,-206.8"/>
<polygon fill="#63b8ff" stroke="#63b8ff" points="2044.3,-210.3 2054.3,-206.8 2044.3,-203.3 2044.3,-210.3"/>
</a>
</g>
</g>
<!-- Node19&#45;&gt;Node4 -->
<g id="edge32_Node000019_Node000004" class="edge">
<title>Node19&#45;&gt;Node4</title>
<g id="a_edge32_Node000019_Node000004"><a xlink:title=" ">
<path fill="none" stroke="#63b8ff" d="M2047.02,-108.84C2035,-107.38 2022.57,-105.86 2010.45,-104.39"/>
<polygon fill="#63b8ff" stroke="#63b8ff" points="2046.55,-112.31 2056.9,-110.04 2047.4,-105.36 2046.55,-112.31"/>
</a>
</g>
</g>
<!-- Node20 -->
<g id="Node000020" class="node">
<title>Node20</title>
<g id="a_Node000020"><a xlink:href="classediteurpanovisu_1_1EditeurPanovisu.html#a53cccf6a6b2693c872947460b66ae8ee" target="_top" xlink:title=" ">
<polygon fill="white" stroke="#666666" points="1348.5,-319.8 1173.5,-319.8 1173.5,-287.8 1348.5,-287.8 1348.5,-319.8"/>
<text xml:space="preserve" text-anchor="start" x="1181.5" y="-306.3" font-family="Helvetica,sans-Serif" font-size="10.00">editeurpanovisu.EditeurPanovisu.tsk</text>
<text xml:space="preserve" text-anchor="middle" x="1261" y="-294.3" font-family="Helvetica,sans-Serif" font-size="10.00">ChargeListeFichiers</text>
</a>
</g>
</g>
<!-- Node19&#45;&gt;Node20 -->
<g id="edge33_Node000019_Node000020" class="edge">
<title>Node19&#45;&gt;Node20</title>
<g id="a_edge33_Node000019_Node000020"><a xlink:title=" ">
<path fill="none" stroke="#63b8ff" d="M2047.18,-134.4C1987.99,-146.19 1906.17,-163.42 1835,-181.8 1719.22,-211.69 1694.29,-234.13 1577.5,-259.8 1500.93,-276.62 1412.43,-288.31 1348.68,-295.38"/>
<polygon fill="#63b8ff" stroke="#63b8ff" points="2047.72,-137.86 2056.85,-132.49 2046.36,-131 2047.72,-137.86"/>
</a>
</g>
</g>
<!-- Node20&#45;&gt;Node13 -->
<g id="edge36_Node000020_Node000013" class="edge">
<title>Node20&#45;&gt;Node13</title>
<g id="a_edge36_Node000020_Node000013"><a xlink:title=" ">
<path fill="none" stroke="#63b8ff" d="M1161.88,-303.8C1152.2,-303.8 1142.38,-303.8 1132.73,-303.8"/>
<polygon fill="#63b8ff" stroke="#63b8ff" points="1161.65,-307.3 1171.65,-303.8 1161.65,-300.3 1161.65,-307.3"/>
</a>
</g>
</g>
<!-- Node21 -->
<g id="Node000021" class="node">
<title>Node21</title>
<g id="a_Node000021"><a xlink:href="classediteurpanovisu_1_1EditeurPanovisu.html#a924d3ccff3e4f402d2309cd2eade3237" target="_top" xlink:title=" ">
<polygon fill="white" stroke="#666666" points="905.5,-407.8 683.25,-407.8 683.25,-375.8 905.5,-375.8 905.5,-407.8"/>
<text xml:space="preserve" text-anchor="start" x="691.25" y="-394.3" font-family="Helvetica,sans-Serif" font-size="10.00">editeurpanovisu.EditeurPanovisu.panoramiques</text>
<text xml:space="preserve" text-anchor="middle" x="794.38" y="-382.3" font-family="Helvetica,sans-Serif" font-size="10.00">Ajouter</text>
</a>
</g>
</g>
<!-- Node20&#45;&gt;Node21 -->
<g id="edge34_Node000020_Node000021" class="edge">
<title>Node20&#45;&gt;Node21</title>
<g id="a_edge34_Node000020_Node000021"><a xlink:title=" ">
<path fill="none" stroke="#63b8ff" d="M1221.32,-325.51C1196.62,-338.31 1163.47,-353.57 1132.25,-361.8 1058.29,-381.27 972.39,-388.7 905.84,-391.29"/>
<polygon fill="#63b8ff" stroke="#63b8ff" points="1222.81,-328.68 1230.02,-320.91 1219.54,-322.49 1222.81,-328.68"/>
</a>
</g>
</g>
<!-- Node21&#45;&gt;Node6 -->
<g id="edge35_Node000021_Node000006" class="edge">
<title>Node21&#45;&gt;Node6</title>
<g id="a_edge35_Node000021_Node000006"><a xlink:title=" ">
<path fill="none" stroke="#63b8ff" d="M671.6,-402.33C604.77,-403.01 522.34,-395.18 456.5,-361.8 389.28,-327.71 340.42,-245.31 324.75,-216.19"/>
<polygon fill="#63b8ff" stroke="#63b8ff" points="671.59,-405.83 681.53,-402.16 671.47,-398.83 671.59,-405.83"/>
</a>
</g>
</g>
<!-- Node23 -->
<g id="Node000023" class="node">
<title>Node23</title>
<g id="a_Node000023"><a xlink:href="classediteurpanovisu_1_1EditeurPanovisu.html#aaee69ab54364f89b58458c744a4195c0" target="_top" xlink:title=" ">
<polygon fill="white" stroke="#666666" points="1577.5,-250.8 1389.75,-250.8 1389.75,-218.8 1577.5,-218.8 1577.5,-250.8"/>
<text xml:space="preserve" text-anchor="start" x="1397.75" y="-237.3" font-family="Helvetica,sans-Serif" font-size="10.00">editeurpanovisu.EditeurPanovisu.sauve</text>
<text xml:space="preserve" text-anchor="middle" x="1483.62" y="-225.3" font-family="Helvetica,sans-Serif" font-size="10.00">FichierProjet</text>
</a>
</g>
</g>
<!-- Node22&#45;&gt;Node23 -->
<g id="edge39_Node000022_Node000023" class="edge">
<title>Node22&#45;&gt;Node23</title>
<g id="a_edge39_Node000022_Node000023"><a xlink:title=" ">
<path fill="none" stroke="#63b8ff" d="M2237.84,-230.29C2229.61,-230.89 2221.41,-231.41 2213.5,-231.8 1985.36,-242.88 1716.58,-239.82 1577.89,-237.06"/>
<polygon fill="#63b8ff" stroke="#63b8ff" points="2237.83,-233.8 2247.53,-229.54 2237.29,-226.82 2237.83,-233.8"/>
</a>
</g>
</g>
<!-- Node23&#45;&gt;Node10 -->
<g id="edge40_Node000023_Node000010" class="edge">
<title>Node23&#45;&gt;Node10</title>
<g id="a_edge40_Node000023_Node000010"><a xlink:title=" ">
<path fill="none" stroke="#63b8ff" d="M1419.11,-214.93C1385.97,-204.57 1345.92,-192.04 1314.54,-182.23"/>
<polygon fill="#63b8ff" stroke="#63b8ff" points="1418.03,-218.26 1428.62,-217.9 1420.12,-211.58 1418.03,-218.26"/>
</a>
</g>
</g>
<!-- Node23&#45;&gt;Node16 -->
<g id="edge41_Node000023_Node000016" class="edge">
<title>Node23&#45;&gt;Node16</title>
<g id="a_edge41_Node000023_Node000016"><a xlink:title=" ">
<path fill="none" stroke="#63b8ff" d="M1378.13,-234.8C1370.14,-234.8 1362.11,-234.8 1354.21,-234.8"/>
<polygon fill="#63b8ff" stroke="#63b8ff" points="1377.87,-238.3 1387.87,-234.8 1377.87,-231.3 1377.87,-238.3"/>
</a>
</g>
</g>
</g>
</svg>
