<?xml version="1.0" encoding="UTF-8" standalone="no"?>
<!DOCTYPE svg PUBLIC "-//W3C//DTD SVG 1.1//EN"
 "http://www.w3.org/Graphics/SVG/1.1/DTD/svg11.dtd">
<!-- Generated by graphviz version 13.1.2 (20250808.2320)
 -->
<!-- Title: editeurpanovisu.ZoneTelecommande.getStrIdZone Pages: 1 -->
<svg width="1593pt" height="165pt"
 viewBox="0.00 0.00 1593.00 165.00" xmlns="http://www.w3.org/2000/svg" xmlns:xlink="http://www.w3.org/1999/xlink">
<g id="graph0" class="graph" transform="scale(1 1) rotate(0) translate(4 161)">
<title>editeurpanovisu.ZoneTelecommande.getStrIdZone</title>
<!-- Node1 -->
<g id="Node000001" class="node">
<title>Node1</title>
<g id="a_Node000001"><a xlink:title=" ">
<polygon fill="#999999" stroke="#666666" points="1585,-88 1393.5,-88 1393.5,-56 1585,-56 1585,-88"/>
<text xml:space="preserve" text-anchor="start" x="1401.5" y="-74.5" font-family="Helvetica,sans-Serif" font-size="10.00">editeurpanovisu.ZoneTelecommande.get</text>
<text xml:space="preserve" text-anchor="middle" x="1489.25" y="-62.5" font-family="Helvetica,sans-Serif" font-size="10.00">StrIdZone</text>
</a>
</g>
</g>
<!-- Node2 -->
<g id="Node000002" class="node">
<title>Node2</title>
<g id="a_Node000002"><a xlink:href="classediteurpanovisu_1_1EditeurPanovisu.html#a9dfe2ee4acc820595c5d1a6cd40ba0ae" target="_top" xlink:title=" ">
<polygon fill="white" stroke="#666666" points="1357.5,-82 1151,-82 1151,-62 1357.5,-62 1357.5,-82"/>
<text xml:space="preserve" text-anchor="middle" x="1254.25" y="-68.5" font-family="Helvetica,sans-Serif" font-size="10.00">editeurpanovisu.EditeurPanovisu.choixZone</text>
</a>
</g>
</g>
<!-- Node1&#45;&gt;Node2 -->
<g id="edge1_Node000001_Node000002" class="edge">
<title>Node1&#45;&gt;Node2</title>
<g id="a_edge1_Node000001_Node000002"><a xlink:title=" ">
<path fill="none" stroke="#63b8ff" d="M1381.82,-72C1373.77,-72 1365.66,-72 1357.64,-72"/>
<polygon fill="#63b8ff" stroke="#63b8ff" points="1381.63,-75.5 1391.63,-72 1381.63,-68.5 1381.63,-75.5"/>
</a>
</g>
</g>
<!-- Node9 -->
<g id="Node000009" class="node">
<title>Node9</title>
<g id="a_Node000009"><a xlink:href="classediteurpanovisu_1_1EditeurPanovisu.html#a94e36b9e9d09ab1a4c852b8a8cefa927" target="_top" xlink:title=" ">
<polygon fill="white" stroke="#666666" points="1115,-32 924.25,-32 924.25,0 1115,0 1115,-32"/>
<text xml:space="preserve" text-anchor="start" x="932.25" y="-18.5" font-family="Helvetica,sans-Serif" font-size="10.00">editeurpanovisu.EditeurPanovisu.genere</text>
<text xml:space="preserve" text-anchor="middle" x="1019.62" y="-6.5" font-family="Helvetica,sans-Serif" font-size="10.00">Visite</text>
</a>
</g>
</g>
<!-- Node1&#45;&gt;Node9 -->
<g id="edge10_Node000001_Node000009" class="edge">
<title>Node1&#45;&gt;Node9</title>
<g id="a_edge10_Node000001_Node000009"><a xlink:title=" ">
<path fill="none" stroke="#63b8ff" d="M1382.01,-56.25C1373.72,-55.11 1365.48,-54.02 1357.5,-53 1275.94,-42.6 1183.03,-32.53 1115.48,-25.52"/>
<polygon fill="#63b8ff" stroke="#63b8ff" points="1381.44,-59.7 1391.82,-57.6 1382.4,-52.77 1381.44,-59.7"/>
</a>
</g>
</g>
<!-- Node10 -->
<g id="Node000010" class="node">
<title>Node10</title>
<g id="a_Node000010"><a xlink:href="classediteurpanovisu_1_1EditeurPanovisu.html#aacaed302ce38e3b0336bc9707a862399" target="_top" xlink:title=" ">
<polygon fill="white" stroke="#666666" points="877.38,-139 686.62,-139 686.62,-107 877.38,-107 877.38,-139"/>
<text xml:space="preserve" text-anchor="start" x="694.62" y="-125.5" font-family="Helvetica,sans-Serif" font-size="10.00">editeurpanovisu.EditeurPanovisu.sauver</text>
<text xml:space="preserve" text-anchor="middle" x="782" y="-113.5" font-family="Helvetica,sans-Serif" font-size="10.00">Barre</text>
</a>
</g>
</g>
<!-- Node1&#45;&gt;Node10 -->
<g id="edge12_Node000001_Node000010" class="edge">
<title>Node1&#45;&gt;Node10</title>
<g id="a_edge12_Node000001_Node000010"><a xlink:title=" ">
<path fill="none" stroke="#63b8ff" d="M1381.82,-88.26C1373.6,-89.28 1365.42,-90.21 1357.5,-91 1189.02,-107.9 991.79,-116.45 877.74,-120.3"/>
<polygon fill="#63b8ff" stroke="#63b8ff" points="1382.06,-91.76 1391.54,-87.03 1381.17,-84.82 1382.06,-91.76"/>
</a>
</g>
</g>
<!-- Node3 -->
<g id="Node000003" class="node">
<title>Node3</title>
<g id="a_Node000003"><a xlink:href="classediteurpanovisu_1_1EditeurPanovisu.html#a29d4d3ebbb92f066b5e8218cac9fb791" target="_top" xlink:title=" ">
<polygon fill="white" stroke="#666666" points="1114.62,-88 924.62,-88 924.62,-56 1114.62,-56 1114.62,-88"/>
<text xml:space="preserve" text-anchor="start" x="932.62" y="-74.5" font-family="Helvetica,sans-Serif" font-size="10.00">editeurpanovisu.EditeurPanovisu.affiche</text>
<text xml:space="preserve" text-anchor="middle" x="1019.62" y="-62.5" font-family="Helvetica,sans-Serif" font-size="10.00">BarrePersonnalisee</text>
</a>
</g>
</g>
<!-- Node2&#45;&gt;Node3 -->
<g id="edge2_Node000002_Node000003" class="edge">
<title>Node2&#45;&gt;Node3</title>
<g id="a_edge2_Node000002_Node000003"><a xlink:title=" ">
<path fill="none" stroke="#63b8ff" d="M1139.15,-65.25C1131.08,-65.24 1122.99,-65.28 1115.05,-65.36"/>
<polygon fill="#63b8ff" stroke="#63b8ff" points="1139.01,-68.75 1149.03,-65.29 1139.04,-61.75 1139.01,-68.75"/>
</a>
</g>
</g>
<!-- Node3&#45;&gt;Node2 -->
<g id="edge8_Node000003_Node000002" class="edge">
<title>Node3&#45;&gt;Node2</title>
<g id="a_edge8_Node000003_Node000002"><a xlink:title=" ">
<path fill="none" stroke="#63b8ff" d="M1126.36,-78.73C1134.4,-78.76 1142.52,-78.76 1150.54,-78.71"/>
<polygon fill="#63b8ff" stroke="#63b8ff" points="1126.59,-75.23 1116.56,-78.65 1126.54,-82.23 1126.59,-75.23"/>
</a>
</g>
</g>
<!-- Node4 -->
<g id="Node000004" class="node">
<title>Node4</title>
<g id="a_Node000004"><a xlink:href="classediteurpanovisu_1_1EditeurPanovisu.html#a62659844e352ea62b111ae5f3d4d544f" target="_top" xlink:title=" ">
<polygon fill="white" stroke="#666666" points="888.25,-89 675.75,-89 675.75,-69 888.25,-69 888.25,-89"/>
<text xml:space="preserve" text-anchor="middle" x="782" y="-75.5" font-family="Helvetica,sans-Serif" font-size="10.00">editeurpanovisu.EditeurPanovisu.ajouterZone</text>
</a>
</g>
</g>
<!-- Node3&#45;&gt;Node4 -->
<g id="edge3_Node000003_Node000004" class="edge">
<title>Node3&#45;&gt;Node4</title>
<g id="a_edge3_Node000003_Node000004"><a xlink:title=" ">
<path fill="none" stroke="#63b8ff" d="M912.87,-75.14C904.84,-75.38 896.74,-75.62 888.72,-75.86"/>
<polygon fill="#63b8ff" stroke="#63b8ff" points="912.74,-78.65 922.63,-74.85 912.53,-71.65 912.74,-78.65"/>
</a>
</g>
</g>
<!-- Node5 -->
<g id="Node000005" class="node">
<title>Node5</title>
<g id="a_Node000005"><a xlink:href="classediteurpanovisu_1_1EditeurPanovisu.html#ac5533ea4201b09e116eb56a3477513c3" target="_top" xlink:title=" ">
<polygon fill="white" stroke="#666666" points="639.75,-87 456.5,-87 456.5,-55 639.75,-55 639.75,-87"/>
<text xml:space="preserve" text-anchor="start" x="464.5" y="-73.5" font-family="Helvetica,sans-Serif" font-size="10.00">editeurpanovisu.EditeurPanovisu.creer</text>
<text xml:space="preserve" text-anchor="middle" x="548.12" y="-61.5" font-family="Helvetica,sans-Serif" font-size="10.00">EditerBarre</text>
</a>
</g>
</g>
<!-- Node3&#45;&gt;Node5 -->
<g id="edge9_Node000003_Node000005" class="edge">
<title>Node3&#45;&gt;Node5</title>
<g id="a_edge9_Node000003_Node000005"><a xlink:title=" ">
<path fill="none" stroke="#63b8ff" d="M912.95,-61.45C904.6,-60.87 896.29,-60.37 888.25,-60 793.9,-55.67 770.11,-55.91 675.75,-60 664.18,-60.5 652.02,-61.26 640.02,-62.15"/>
<polygon fill="#63b8ff" stroke="#63b8ff" points="912.6,-64.93 922.83,-62.18 913.12,-57.95 912.6,-64.93"/>
</a>
</g>
</g>
<!-- Node4&#45;&gt;Node5 -->
<g id="edge4_Node000004_Node000005" class="edge">
<title>Node4&#45;&gt;Node5</title>
<g id="a_edge4_Node000004_Node000005"><a xlink:title=" ">
<path fill="none" stroke="#63b8ff" d="M664.17,-74.97C656.09,-74.69 648.02,-74.41 640.1,-74.14"/>
<polygon fill="#63b8ff" stroke="#63b8ff" points="663.95,-78.46 674.07,-75.31 664.19,-71.47 663.95,-78.46"/>
</a>
</g>
</g>
<!-- Node6 -->
<g id="Node000006" class="node">
<title>Node6</title>
<g id="a_Node000006"><a xlink:href="classediteurpanovisu_1_1GestionnaireInterfaceController.html#ac7fa988dc99d8684686127a2269cd66e" target="_top" xlink:title=" ">
<polygon fill="white" stroke="#666666" points="396.5,-87 240.25,-87 240.25,-55 396.5,-55 396.5,-87"/>
<text xml:space="preserve" text-anchor="start" x="248.25" y="-73.5" font-family="Helvetica,sans-Serif" font-size="10.00">editeurpanovisu.Gestionnaire</text>
<text xml:space="preserve" text-anchor="middle" x="318.38" y="-61.5" font-family="Helvetica,sans-Serif" font-size="10.00">InterfaceController.creeInterface</text>
</a>
</g>
</g>
<!-- Node5&#45;&gt;Node6 -->
<g id="edge5_Node000005_Node000006" class="edge">
<title>Node5&#45;&gt;Node6</title>
<g id="a_edge5_Node000005_Node000006"><a xlink:title=" ">
<path fill="none" stroke="#63b8ff" d="M444.96,-71C428.74,-71 412.19,-71 396.66,-71"/>
<polygon fill="#63b8ff" stroke="#63b8ff" points="444.62,-74.5 454.62,-71 444.62,-67.5 444.62,-74.5"/>
</a>
</g>
</g>
<!-- Node7 -->
<g id="Node000007" class="node">
<title>Node7</title>
<g id="a_Node000007"><a xlink:href="classediteurpanovisu_1_1EditeurPanovisu.html#ac912b80c1f2ac97def60ff005c5c480b" target="_top" xlink:title=" ">
<polygon fill="white" stroke="#666666" points="420.5,-29 216.25,-29 216.25,-9 420.5,-9 420.5,-29"/>
<text xml:space="preserve" text-anchor="middle" x="318.38" y="-15.5" font-family="Helvetica,sans-Serif" font-size="10.00">editeurpanovisu.EditeurPanovisu.creeMenu</text>
</a>
</g>
</g>
<!-- Node5&#45;&gt;Node7 -->
<g id="edge6_Node000005_Node000007" class="edge">
<title>Node5&#45;&gt;Node7</title>
<g id="a_edge6_Node000005_Node000007"><a xlink:title=" ">
<path fill="none" stroke="#63b8ff" d="M463.92,-52C430.59,-44.39 393.47,-35.92 365.19,-29.46"/>
<polygon fill="#63b8ff" stroke="#63b8ff" points="463.06,-55.4 473.59,-54.21 464.62,-48.57 463.06,-55.4"/>
</a>
</g>
</g>
<!-- Node8 -->
<g id="Node000008" class="node">
<title>Node8</title>
<g id="a_Node000008"><a xlink:href="classediteurpanovisu_1_1EditeurPanovisu.html#a86c393eee88f54c694db994ddd85b90d" target="_top" xlink:title=" ">
<polygon fill="white" stroke="#666666" points="180.25,-35 0,-35 0,-3 180.25,-3 180.25,-35"/>
<text xml:space="preserve" text-anchor="start" x="8" y="-21.5" font-family="Helvetica,sans-Serif" font-size="10.00">editeurpanovisu.EditeurPanovisu.cree</text>
<text xml:space="preserve" text-anchor="middle" x="90.12" y="-9.5" font-family="Helvetica,sans-Serif" font-size="10.00">Environnement</text>
</a>
</g>
</g>
<!-- Node7&#45;&gt;Node8 -->
<g id="edge7_Node000007_Node000008" class="edge">
<title>Node7&#45;&gt;Node8</title>
<g id="a_edge7_Node000007_Node000008"><a xlink:title=" ">
<path fill="none" stroke="#63b8ff" d="M204.51,-19C196.49,-19 188.46,-19 180.6,-19"/>
<polygon fill="#63b8ff" stroke="#63b8ff" points="204.32,-22.5 214.32,-19 204.32,-15.5 204.32,-22.5"/>
</a>
</g>
</g>
<!-- Node9&#45;&gt;Node7 -->
<g id="edge11_Node000009_Node000007" class="edge">
<title>Node9&#45;&gt;Node7</title>
<g id="a_edge11_Node000009_Node000007"><a xlink:title=" ">
<path fill="none" stroke="#63b8ff" d="M912.54,-16.46C779.2,-17.03 551.96,-18 420.83,-18.56"/>
<polygon fill="#63b8ff" stroke="#63b8ff" points="912.46,-19.96 922.44,-16.41 912.43,-12.96 912.46,-19.96"/>
</a>
</g>
</g>
<!-- Node10&#45;&gt;Node5 -->
<g id="edge13_Node000010_Node000005" class="edge">
<title>Node10&#45;&gt;Node5</title>
<g id="a_edge13_Node000010_Node000005"><a xlink:title=" ">
<path fill="none" stroke="#63b8ff" d="M696.62,-104.08C672.31,-98.63 645.99,-92.72 622.41,-87.44"/>
<polygon fill="#63b8ff" stroke="#63b8ff" points="695.63,-107.44 706.16,-106.22 697.16,-100.61 695.63,-107.44"/>
</a>
</g>
</g>
<!-- Node10&#45;&gt;Node10 -->
<g id="edge14_Node000010_Node000010" class="edge">
<title>Node10&#45;&gt;Node10</title>
<g id="a_edge14_Node000010_Node000010"><a xlink:title=" ">
<path fill="none" stroke="#63b8ff" d="M821.25,-150.54C814.85,-154.41 801.76,-157 782,-157 746.37,-157 732.45,-148.58 740.25,-139.44"/>
<polygon fill="#63b8ff" stroke="#63b8ff" points="824.63,-151.44 823.42,-140.92 817.81,-149.9 824.63,-151.44"/>
</a>
</g>
</g>
</g>
</svg>
