<?xml version="1.0" encoding="UTF-8" standalone="no"?>
<!DOCTYPE svg PUBLIC "-//W3C//DTD SVG 1.1//EN"
 "http://www.w3.org/Graphics/SVG/1.1/DTD/svg11.dtd">
<!-- Generated by graphviz version 13.1.2 (20250808.2320)
 -->
<!-- Title: editeurpanovisu.HuggingFaceClient.HuggingFaceClient Pages: 1 -->
<!--zoomable 99 -->

<svg id="main" version="1.1" xmlns="http://www.w3.org/2000/svg" xmlns:xlink="http://www.w3.org/1999/xlink" xml:space="preserve" onload="init(evt)">

<style type="text/css"><![CDATA[
.node, .edge {opacity: 0.7;}
.node.selected, .edge.selected {opacity: 1;}
.edge:hover path { stroke: red; }
.edge:hover polygon { stroke: red; fill: red; }
]]></style>

<defs>
  <circle id="rim" cx="0" cy="0" r="7"/>
  <circle id="rim2" cx="0" cy="0" r="3.5"/>
  <g id="zoomPlus">
    <use xlink:href="#rim" fill="#404040"><set attributeName="fill" to="#808080" begin="zoomplus.mouseover" end="zoomplus.mouseout"/></use>
    <path d="M-4,0h8M0,-4v8" fill="none" stroke="white" stroke-width="1.5" pointer-events="none"/>
  </g>
  <g id="zoomMin">
    <use xlink:href="#rim" fill="#404040"><set attributeName="fill" to="#808080" begin="zoomminus.mouseover" end="zoomminus.mouseout"/></use>
    <path d="M-4,0h8" fill="none" stroke="white" stroke-width="1.5" pointer-events="none"/>
  </g>
  <g id="arrowUp" transform="translate(30 24)">
    <use xlink:href="#rim"/>
    <path pointer-events="none" fill="none" stroke="white" stroke-width="1.5" d="M0,-3.0v7 M-2.5,-0.5L0,-3.0L2.5,-0.5"/>
  </g>
  <g id="arrowRight" transform="rotate(90) translate(36 -43)">
    <use xlink:href="#rim"/>
    <path pointer-events="none" fill="none" stroke="white" stroke-width="1.5" d="M0,-3.0v7 M-2.5,-0.5L0,-3.0L2.5,-0.5"/>
  </g>
  <g id="arrowDown" transform="rotate(180) translate(-30 -48)">
    <use xlink:href="#rim"/>
    <path pointer-events="none" fill="none" stroke="white" stroke-width="1.5" d="M0,-3.0v7 M-2.5,-0.5L0,-3.0L2.5,-0.5"/>
  </g>
  <g id="arrowLeft" transform="rotate(270) translate(-36 17)">
    <use xlink:href="#rim"/>
    <path pointer-events="none" fill="none" stroke="white" stroke-width="1.5" d="M0,-3.0v7 M-2.5,-0.5L0,-3.0L2.5,-0.5"/>
  </g>
  <g id="resetDef">
    <use xlink:href="#rim2" fill="#404040"><set attributeName="fill" to="#808080" begin="reset.mouseover" end="reset.mouseout"/></use>
  </g>
</defs>
<script type="application/ecmascript">
var viewWidth = 775;
var viewHeight = 99;
var sectionId = 'dynsection-1';
</script>
<script type="application/ecmascript" xlink:href="svg.min.js"/>
<svg id="graph" class="graph">
<g id="viewport">
<title>editeurpanovisu.HuggingFaceClient.HuggingFaceClient</title>
<!-- Node1 -->
<g id="Node000001" class="node">
<title>Node1</title>
<g id="a_Node000001"><a xlink:title="Constructeur avec configuration automatique depuis ApiKeysConfig.">
<polygon fill="#999999" stroke="#666666" points="145,-76 0,-76 0,-44 145,-44 145,-76"/>
<text xml:space="preserve" text-anchor="start" x="8" y="-62.5" font-family="Helvetica,sans-Serif" font-size="10.00">editeurpanovisu.HuggingFace</text>
<text xml:space="preserve" text-anchor="middle" x="72.5" y="-50.5" font-family="Helvetica,sans-Serif" font-size="10.00">Client.HuggingFaceClient</text>
</a>
</g>
</g>
<!-- Node2 -->
<g id="Node000002" class="node">
<title>Node2</title>
<g id="a_Node000002"><a xlink:href="classediteurpanovisu_1_1ApiKeysConfig.html#a918cc5fdfc57722e40aef9f055a7f6b4" target="_top" xlink:title="Récupère la clé API Hugging Face.">
<polygon fill="white" stroke="#666666" points="557.25,-82 388.25,-82 388.25,-50 557.25,-50 557.25,-82"/>
<text xml:space="preserve" text-anchor="start" x="396.25" y="-68.5" font-family="Helvetica,sans-Serif" font-size="10.00">editeurpanovisu.ApiKeysConfig.get</text>
<text xml:space="preserve" text-anchor="middle" x="472.75" y="-56.5" font-family="Helvetica,sans-Serif" font-size="10.00">HuggingFaceApiKey</text>
</a>
</g>
</g>
<!-- Node1&#45;&gt;Node2 -->
<g id="edge1_Node000001_Node000002" class="edge">
<title>Node1&#45;&gt;Node2</title>
<g id="a_edge1_Node000001_Node000002"><a xlink:title=" ">
<path fill="none" stroke="#63b8ff" d="M133.34,-76.47C148.75,-80 165.39,-83.21 181,-85 256.61,-93.68 276.38,-90.99 352.25,-85 360.24,-84.37 368.5,-83.5 376.78,-82.49"/>
<polygon fill="#63b8ff" stroke="#63b8ff" points="377.09,-85.98 386.55,-81.21 376.18,-79.04 377.09,-85.98"/>
</a>
</g>
</g>
<!-- Node4 -->
<g id="Node000004" class="node">
<title>Node4</title>
<g id="a_Node000004"><a xlink:href="classediteurpanovisu_1_1ApiKeysConfig.html#a2294156977bc950d191de4ffd2364ee1" target="_top" xlink:title="Récupère le modèle Hugging Face configuré">
<polygon fill="white" stroke="#666666" points="557.25,-32 388.25,-32 388.25,0 557.25,0 557.25,-32"/>
<text xml:space="preserve" text-anchor="start" x="396.25" y="-18.5" font-family="Helvetica,sans-Serif" font-size="10.00">editeurpanovisu.ApiKeysConfig.get</text>
<text xml:space="preserve" text-anchor="middle" x="472.75" y="-6.5" font-family="Helvetica,sans-Serif" font-size="10.00">HuggingFaceModel</text>
</a>
</g>
</g>
<!-- Node1&#45;&gt;Node4 -->
<g id="edge3_Node000001_Node000004" class="edge">
<title>Node1&#45;&gt;Node4</title>
<g id="a_edge3_Node000001_Node000004"><a xlink:title=" ">
<path fill="none" stroke="#63b8ff" d="M136.55,-43.53C151.07,-40.24 166.5,-37.15 181,-35 245.97,-25.39 319.84,-20.64 376.85,-18.29"/>
<polygon fill="#63b8ff" stroke="#63b8ff" points="376.66,-21.8 386.51,-17.91 376.38,-14.81 376.66,-21.8"/>
</a>
</g>
</g>
<!-- Node5 -->
<g id="Node000005" class="node">
<title>Node5</title>
<g id="a_Node000005"><a xlink:href="classediteurpanovisu_1_1ApiKeysConfig.html#a048ff9cd5ae4cb7c5738168b4234f333" target="_top" xlink:title="Vérifie si une clé API Hugging Face est configurée.">
<polygon fill="white" stroke="#666666" points="352.25,-76 181,-76 181,-44 352.25,-44 352.25,-76"/>
<text xml:space="preserve" text-anchor="start" x="189" y="-62.5" font-family="Helvetica,sans-Serif" font-size="10.00">editeurpanovisu.ApiKeysConfig.has</text>
<text xml:space="preserve" text-anchor="middle" x="266.62" y="-50.5" font-family="Helvetica,sans-Serif" font-size="10.00">HuggingFaceApiKey</text>
</a>
</g>
</g>
<!-- Node1&#45;&gt;Node5 -->
<g id="edge5_Node000001_Node000005" class="edge">
<title>Node1&#45;&gt;Node5</title>
<g id="a_edge5_Node000001_Node000005"><a xlink:title=" ">
<path fill="none" stroke="#63b8ff" d="M145.31,-60C153.14,-60 161.19,-60 169.25,-60"/>
<polygon fill="#63b8ff" stroke="#63b8ff" points="169.1,-63.5 179.1,-60 169.1,-56.5 169.1,-63.5"/>
</a>
</g>
</g>
<!-- Node3 -->
<g id="Node000003" class="node">
<title>Node3</title>
<g id="a_Node000003"><a xlink:href="classediteurpanovisu_1_1ApiKeysConfig.html#a7babcdd2b84a59ec6088d85c66d00551" target="_top" xlink:title="Charge le fichier de configuration des clés API.">
<polygon fill="white" stroke="#666666" points="766.75,-57 593.25,-57 593.25,-25 766.75,-25 766.75,-57"/>
<text xml:space="preserve" text-anchor="start" x="601.25" y="-43.5" font-family="Helvetica,sans-Serif" font-size="10.00">editeurpanovisu.ApiKeysConfig.load</text>
<text xml:space="preserve" text-anchor="middle" x="680" y="-31.5" font-family="Helvetica,sans-Serif" font-size="10.00">Properties</text>
</a>
</g>
</g>
<!-- Node2&#45;&gt;Node3 -->
<g id="edge2_Node000002_Node000003" class="edge">
<title>Node2&#45;&gt;Node3</title>
<g id="a_edge2_Node000002_Node000003"><a xlink:title=" ">
<path fill="none" stroke="#63b8ff" d="M557.53,-55.8C565.44,-54.83 573.51,-53.85 581.53,-52.87"/>
<polygon fill="#63b8ff" stroke="#63b8ff" points="581.82,-56.36 591.32,-51.68 580.97,-49.41 581.82,-56.36"/>
</a>
</g>
</g>
<!-- Node4&#45;&gt;Node3 -->
<g id="edge4_Node000004_Node000003" class="edge">
<title>Node4&#45;&gt;Node3</title>
<g id="a_edge4_Node000004_Node000003"><a xlink:title=" ">
<path fill="none" stroke="#63b8ff" d="M557.53,-26.2C565.44,-27.17 573.51,-28.15 581.53,-29.13"/>
<polygon fill="#63b8ff" stroke="#63b8ff" points="580.97,-32.59 591.32,-30.32 581.82,-25.64 580.97,-32.59"/>
</a>
</g>
</g>
<!-- Node5&#45;&gt;Node2 -->
<g id="edge6_Node000005_Node000002" class="edge">
<title>Node5&#45;&gt;Node2</title>
<g id="a_edge6_Node000005_Node000002"><a xlink:title=" ">
<path fill="none" stroke="#63b8ff" d="M352.71,-62.5C360.51,-62.73 368.43,-62.96 376.31,-63.19"/>
<polygon fill="#63b8ff" stroke="#63b8ff" points="376.17,-66.69 386.27,-63.49 376.38,-59.7 376.17,-66.69"/>
</a>
</g>
</g>
</g>
</svg>

<g id="navigator" transform="translate(0 0)" fill="#404254">
  <rect fill="#f2f5e9" fill-opacity="0.5" stroke="#606060" stroke-width=".5" x="0" y="0" width="60" height="60"/>
  <use id="zoomplus" xlink:href="#zoomPlus" x="17" y="9" onmousedown="handleZoom(evt,'in')"/>
  <use id="zoomminus" xlink:href="#zoomMin" x="42" y="9" onmousedown="handleZoom(evt,'out')"/>
  <use id="reset" xlink:href="#resetDef" x="30" y="36" onmousedown="handleReset()"/>
   <use id="arrowup" xlink:href="#arrowUp" x="0" y="0" onmousedown="handlePan(0,-1)"/>
  <use id="arrowright" xlink:href="#arrowRight" x="0" y="0" onmousedown="handlePan(1,0)"/>
  <use id="arrowdown" xlink:href="#arrowDown" x="0" y="0" onmousedown="handlePan(0,1)"/>
  <use id="arrowleft" xlink:href="#arrowLeft" x="0" y="0" onmousedown="handlePan(-1,0)"/>
</g>
<svg viewBox="0 0 15 15" width="100%" height="30px" preserveAspectRatio="xMaxYMin meet">
 <g id="arrow_out" transform="scale(0.3 0.3)">
  <a xlink:href="classediteurpanovisu_1_1HuggingFaceClient_a12e6bcc947b3a15c9b32ff54c3b2a7f1_cgraph_org.svg" target="_base">
   <rect id="button" ry="5" rx="5" y="6" x="6" height="38" width="38"
        fill="#f2f5e9" fill-opacity="0.5" stroke="#606060" stroke-width="1.0"/>
   <path id="arrow"
     d="M 11.500037,31.436501 C 11.940474,20.09759 22.043105,11.32322 32.158766,21.979434 L 37.068811,17.246167 C 37.068811,17.246167 37.088388,32 37.088388,32 L 22.160133,31.978069 C 22.160133,31.978069 26.997745,27.140456 26.997745,27.140456 C 18.528582,18.264221 13.291696,25.230495 11.500037,31.436501 z"
     style="fill:#404040;"/>
  </a>
 </g>
</svg>

<style type='text/css'>
<![CDATA[
[data-mouse-over-selected='false'] { opacity: 0.7; }
[data-mouse-over-selected='true']  { opacity: 1.0; }
]]>
</style>
<script type="application/ecmascript"><![CDATA[
document.addEventListener('DOMContentLoaded', (event) => {
  highlightEdges();
  highlightAdjacentNodes();
});
]]></script>
</svg>
