<?xml version="1.0" encoding="UTF-8" standalone="no"?>
<!DOCTYPE svg PUBLIC "-//W3C//DTD SVG 1.1//EN"
 "http://www.w3.org/Graphics/SVG/1.1/DTD/svg11.dtd">
<!-- Generated by graphviz version 13.1.2 (20250808.2320)
 -->
<!-- Title: editeurpanovisu.EditeurPanovisu.loadSvgIcon Pages: 1 -->
<!--zoomable 140 -->

<svg id="main" version="1.1" xmlns="http://www.w3.org/2000/svg" xmlns:xlink="http://www.w3.org/1999/xlink" xml:space="preserve" onload="init(evt)">

<style type="text/css"><![CDATA[
.node, .edge {opacity: 0.7;}
.node.selected, .edge.selected {opacity: 1;}
.edge:hover path { stroke: red; }
.edge:hover polygon { stroke: red; fill: red; }
]]></style>

<defs>
  <circle id="rim" cx="0" cy="0" r="7"/>
  <circle id="rim2" cx="0" cy="0" r="3.5"/>
  <g id="zoomPlus">
    <use xlink:href="#rim" fill="#404040"><set attributeName="fill" to="#808080" begin="zoomplus.mouseover" end="zoomplus.mouseout"/></use>
    <path d="M-4,0h8M0,-4v8" fill="none" stroke="white" stroke-width="1.5" pointer-events="none"/>
  </g>
  <g id="zoomMin">
    <use xlink:href="#rim" fill="#404040"><set attributeName="fill" to="#808080" begin="zoomminus.mouseover" end="zoomminus.mouseout"/></use>
    <path d="M-4,0h8" fill="none" stroke="white" stroke-width="1.5" pointer-events="none"/>
  </g>
  <g id="arrowUp" transform="translate(30 24)">
    <use xlink:href="#rim"/>
    <path pointer-events="none" fill="none" stroke="white" stroke-width="1.5" d="M0,-3.0v7 M-2.5,-0.5L0,-3.0L2.5,-0.5"/>
  </g>
  <g id="arrowRight" transform="rotate(90) translate(36 -43)">
    <use xlink:href="#rim"/>
    <path pointer-events="none" fill="none" stroke="white" stroke-width="1.5" d="M0,-3.0v7 M-2.5,-0.5L0,-3.0L2.5,-0.5"/>
  </g>
  <g id="arrowDown" transform="rotate(180) translate(-30 -48)">
    <use xlink:href="#rim"/>
    <path pointer-events="none" fill="none" stroke="white" stroke-width="1.5" d="M0,-3.0v7 M-2.5,-0.5L0,-3.0L2.5,-0.5"/>
  </g>
  <g id="arrowLeft" transform="rotate(270) translate(-36 17)">
    <use xlink:href="#rim"/>
    <path pointer-events="none" fill="none" stroke="white" stroke-width="1.5" d="M0,-3.0v7 M-2.5,-0.5L0,-3.0L2.5,-0.5"/>
  </g>
  <g id="resetDef">
    <use xlink:href="#rim2" fill="#404040"><set attributeName="fill" to="#808080" begin="reset.mouseover" end="reset.mouseout"/></use>
  </g>
</defs>
<script type="application/ecmascript">
var viewWidth = 746;
var viewHeight = 140;
var sectionId = 'dynsection-151';
</script>
<script type="application/ecmascript" xlink:href="svg.min.js"/>
<svg id="graph" class="graph">
<g id="viewport">
<title>editeurpanovisu.EditeurPanovisu.loadSvgIcon</title>
<!-- Node1 -->
<g id="Node000001" class="node">
<title>Node1</title>
<g id="a_Node000001"><a xlink:title="Charge une icône SVG avec couleur personnalisée.">
<polygon fill="#999999" stroke="#666666" points="179.5,-82 0,-82 0,-50 179.5,-50 179.5,-82"/>
<text xml:space="preserve" text-anchor="start" x="8" y="-68.5" font-family="Helvetica,sans-Serif" font-size="10.00">editeurpanovisu.EditeurPanovisu.load</text>
<text xml:space="preserve" text-anchor="middle" x="89.75" y="-56.5" font-family="Helvetica,sans-Serif" font-size="10.00">SvgIcon</text>
</a>
</g>
</g>
<!-- Node2 -->
<g id="Node000002" class="node">
<title>Node2</title>
<g id="a_Node000002"><a xlink:href="classediteurpanovisu_1_1EditeurPanovisu.html#ae9640dc5eb2933e07534464d6477d96c" target="_top" xlink:title=" ">
<polygon fill="white" stroke="#666666" points="390.5,-132 215.5,-132 215.5,-100 390.5,-100 390.5,-132"/>
<text xml:space="preserve" text-anchor="start" x="223.5" y="-118.5" font-family="Helvetica,sans-Serif" font-size="10.00">editeurpanovisu.EditeurPanovisu.get</text>
<text xml:space="preserve" text-anchor="middle" x="303" y="-106.5" font-family="Helvetica,sans-Serif" font-size="10.00">StrRepertAppli</text>
</a>
</g>
</g>
<!-- Node1&#45;&gt;Node2 -->
<g id="edge1_Node000001_Node000002" class="edge">
<title>Node1&#45;&gt;Node2</title>
<g id="a_edge1_Node000001_Node000002"><a xlink:title=" ">
<path fill="none" stroke="#63b8ff" d="M160.21,-82.44C179.8,-87.08 201.27,-92.16 221.44,-96.93"/>
<polygon fill="#63b8ff" stroke="#63b8ff" points="220.48,-100.3 231.02,-99.2 222.1,-93.49 220.48,-100.3"/>
</a>
</g>
</g>
<!-- Node3 -->
<g id="Node000003" class="node">
<title>Node3</title>
<g id="a_Node000003"><a xlink:href="classediteurpanovisu_1_1util_1_1SvgIconLoader.html#ab0e96e5ebb4dce78ea938d9adca21ce2" target="_top" xlink:title="Charge une icône SVG et la convertit en ImageView avec dimensions personnalisées.">
<polygon fill="white" stroke="#666666" points="363.5,-82 242.5,-82 242.5,-50 363.5,-50 363.5,-82"/>
<text xml:space="preserve" text-anchor="start" x="250.5" y="-68.5" font-family="Helvetica,sans-Serif" font-size="10.00">editeurpanovisu.util.Svg</text>
<text xml:space="preserve" text-anchor="middle" x="303" y="-56.5" font-family="Helvetica,sans-Serif" font-size="10.00">IconLoader.loadSvgIcon</text>
</a>
</g>
</g>
<!-- Node1&#45;&gt;Node3 -->
<g id="edge2_Node000001_Node000003" class="edge">
<title>Node1&#45;&gt;Node3</title>
<g id="a_edge2_Node000001_Node000003"><a xlink:title=" ">
<path fill="none" stroke="#63b8ff" d="M179.73,-66C196.86,-66 214.59,-66 231.06,-66"/>
<polygon fill="#63b8ff" stroke="#63b8ff" points="230.72,-69.5 240.72,-66 230.72,-62.5 230.72,-69.5"/>
</a>
</g>
</g>
<!-- Node8 -->
<g id="Node000008" class="node">
<title>Node8</title>
<g id="a_Node000008"><a xlink:href="classediteurpanovisu_1_1util_1_1SvgIconLoader.html#a10cd814eb1151190717a3b14b61172be" target="_top" xlink:title="Définit le chemin de base de l&#39;application.">
<polygon fill="white" stroke="#666666" points="373.25,-32 232.75,-32 232.75,0 373.25,0 373.25,-32"/>
<text xml:space="preserve" text-anchor="start" x="240.75" y="-18.5" font-family="Helvetica,sans-Serif" font-size="10.00">editeurpanovisu.util.Svg</text>
<text xml:space="preserve" text-anchor="middle" x="303" y="-6.5" font-family="Helvetica,sans-Serif" font-size="10.00">IconLoader.setBaseAppPath</text>
</a>
</g>
</g>
<!-- Node1&#45;&gt;Node8 -->
<g id="edge7_Node000001_Node000008" class="edge">
<title>Node1&#45;&gt;Node8</title>
<g id="a_edge7_Node000001_Node000008"><a xlink:title=" ">
<path fill="none" stroke="#63b8ff" d="M160.21,-49.56C179.8,-44.92 201.27,-39.84 221.44,-35.07"/>
<polygon fill="#63b8ff" stroke="#63b8ff" points="222.1,-38.51 231.02,-32.8 220.48,-31.7 222.1,-38.51"/>
</a>
</g>
</g>
<!-- Node4 -->
<g id="Node000004" class="node">
<title>Node4</title>
<g id="a_Node000004"><a xlink:href="classediteurpanovisu_1_1util_1_1SvgIconLoader.html#a8cf07e331f244b74d124210c1569d3b4" target="_top" xlink:title="Convertit un SVG en BufferedImage PNG avec Batik (dimensions personnalisées)">
<polygon fill="white" stroke="#666666" points="570.75,-132 426.5,-132 426.5,-100 570.75,-100 570.75,-132"/>
<text xml:space="preserve" text-anchor="start" x="434.5" y="-118.5" font-family="Helvetica,sans-Serif" font-size="10.00">editeurpanovisu.util.Svg</text>
<text xml:space="preserve" text-anchor="middle" x="498.62" y="-106.5" font-family="Helvetica,sans-Serif" font-size="10.00">IconLoader.convertSvgToPng</text>
</a>
</g>
</g>
<!-- Node3&#45;&gt;Node4 -->
<g id="edge3_Node000003_Node000004" class="edge">
<title>Node3&#45;&gt;Node4</title>
<g id="a_edge3_Node000003_Node000004"><a xlink:title=" ">
<path fill="none" stroke="#63b8ff" d="M363.94,-81.48C382.59,-86.3 403.4,-91.67 422.93,-96.71"/>
<polygon fill="#63b8ff" stroke="#63b8ff" points="421.92,-100.07 432.48,-99.18 423.67,-93.29 421.92,-100.07"/>
</a>
</g>
</g>
<!-- Node5 -->
<g id="Node000005" class="node">
<title>Node5</title>
<g id="a_Node000005"><a xlink:href="classediteurpanovisu_1_1util_1_1SvgIconLoader.html#af5cfc8e00f14b39cc7972184362e819c" target="_top" xlink:title="Détecte la couleur appropriée selon le thème actif (clair ou foncé) Fonctionne avec tous les thèmes :...">
<polygon fill="white" stroke="#666666" points="565.5,-82 431.75,-82 431.75,-50 565.5,-50 565.5,-82"/>
<text xml:space="preserve" text-anchor="start" x="439.75" y="-68.5" font-family="Helvetica,sans-Serif" font-size="10.00">editeurpanovisu.util.Svg</text>
<text xml:space="preserve" text-anchor="middle" x="498.62" y="-56.5" font-family="Helvetica,sans-Serif" font-size="10.00">IconLoader.getThemeColor</text>
</a>
</g>
</g>
<!-- Node3&#45;&gt;Node5 -->
<g id="edge4_Node000003_Node000005" class="edge">
<title>Node3&#45;&gt;Node5</title>
<g id="a_edge4_Node000003_Node000005"><a xlink:title=" ">
<path fill="none" stroke="#63b8ff" d="M363.94,-66C381.69,-66 401.39,-66 420.08,-66"/>
<polygon fill="#63b8ff" stroke="#63b8ff" points="420.05,-69.5 430.05,-66 420.05,-62.5 420.05,-69.5"/>
</a>
</g>
</g>
<!-- Node6 -->
<g id="Node000006" class="node">
<title>Node6</title>
<g id="a_Node000006"><a xlink:href="classediteurpanovisu_1_1util_1_1SvgIconLoader.html#ab9fdb534790cb51ab1b57c506d003289" target="_top" xlink:title="Fallback: charge l&#39;icône PNG si le SVG n&#39;est pas disponible.">
<polygon fill="white" stroke="#666666" points="568.12,-32 429.12,-32 429.12,0 568.12,0 568.12,-32"/>
<text xml:space="preserve" text-anchor="start" x="437.12" y="-18.5" font-family="Helvetica,sans-Serif" font-size="10.00">editeurpanovisu.util.Svg</text>
<text xml:space="preserve" text-anchor="middle" x="498.62" y="-6.5" font-family="Helvetica,sans-Serif" font-size="10.00">IconLoader.loadFallbackPng</text>
</a>
</g>
</g>
<!-- Node3&#45;&gt;Node6 -->
<g id="edge5_Node000003_Node000006" class="edge">
<title>Node3&#45;&gt;Node6</title>
<g id="a_edge5_Node000003_Node000006"><a xlink:title=" ">
<path fill="none" stroke="#63b8ff" d="M363.94,-50.52C382.59,-45.7 403.4,-40.33 422.93,-35.29"/>
<polygon fill="#63b8ff" stroke="#63b8ff" points="423.67,-38.71 432.48,-32.82 421.92,-31.93 423.67,-38.71"/>
</a>
</g>
</g>
<!-- Node7 -->
<g id="Node000007" class="node">
<title>Node7</title>
<g id="a_Node000007"><a xlink:href="classediteurpanovisu_1_1util_1_1SvgIconLoader.html#af546932dfbd067f7700bd0832d5efb64" target="_top" xlink:title="Mappe les noms de fichiers SVG vers les noms PNG existants.">
<polygon fill="white" stroke="#666666" points="737.5,-32 606.75,-32 606.75,0 737.5,0 737.5,-32"/>
<text xml:space="preserve" text-anchor="start" x="614.75" y="-18.5" font-family="Helvetica,sans-Serif" font-size="10.00">editeurpanovisu.util.Svg</text>
<text xml:space="preserve" text-anchor="middle" x="672.12" y="-6.5" font-family="Helvetica,sans-Serif" font-size="10.00">IconLoader.mapSvgToPng</text>
</a>
</g>
</g>
<!-- Node6&#45;&gt;Node7 -->
<g id="edge6_Node000006_Node000007" class="edge">
<title>Node6&#45;&gt;Node7</title>
<g id="a_edge6_Node000006_Node000007"><a xlink:title=" ">
<path fill="none" stroke="#63b8ff" d="M568.39,-16C577.24,-16 586.33,-16 595.29,-16"/>
<polygon fill="#63b8ff" stroke="#63b8ff" points="595,-19.5 605,-16 595,-12.5 595,-19.5"/>
</a>
</g>
</g>
</g>
</svg>

<g id="navigator" transform="translate(0 0)" fill="#404254">
  <rect fill="#f2f5e9" fill-opacity="0.5" stroke="#606060" stroke-width=".5" x="0" y="0" width="60" height="60"/>
  <use id="zoomplus" xlink:href="#zoomPlus" x="17" y="9" onmousedown="handleZoom(evt,'in')"/>
  <use id="zoomminus" xlink:href="#zoomMin" x="42" y="9" onmousedown="handleZoom(evt,'out')"/>
  <use id="reset" xlink:href="#resetDef" x="30" y="36" onmousedown="handleReset()"/>
   <use id="arrowup" xlink:href="#arrowUp" x="0" y="0" onmousedown="handlePan(0,-1)"/>
  <use id="arrowright" xlink:href="#arrowRight" x="0" y="0" onmousedown="handlePan(1,0)"/>
  <use id="arrowdown" xlink:href="#arrowDown" x="0" y="0" onmousedown="handlePan(0,1)"/>
  <use id="arrowleft" xlink:href="#arrowLeft" x="0" y="0" onmousedown="handlePan(-1,0)"/>
</g>
<svg viewBox="0 0 15 15" width="100%" height="30px" preserveAspectRatio="xMaxYMin meet">
 <g id="arrow_out" transform="scale(0.3 0.3)">
  <a xlink:href="classediteurpanovisu_1_1EditeurPanovisu_a10e4a731076e3375369e0572372ae29b_cgraph_org.svg" target="_base">
   <rect id="button" ry="5" rx="5" y="6" x="6" height="38" width="38"
        fill="#f2f5e9" fill-opacity="0.5" stroke="#606060" stroke-width="1.0"/>
   <path id="arrow"
     d="M 11.500037,31.436501 C 11.940474,20.09759 22.043105,11.32322 32.158766,21.979434 L 37.068811,17.246167 C 37.068811,17.246167 37.088388,32 37.088388,32 L 22.160133,31.978069 C 22.160133,31.978069 26.997745,27.140456 26.997745,27.140456 C 18.528582,18.264221 13.291696,25.230495 11.500037,31.436501 z"
     style="fill:#404040;"/>
  </a>
 </g>
</svg>

<style type='text/css'>
<![CDATA[
[data-mouse-over-selected='false'] { opacity: 0.7; }
[data-mouse-over-selected='true']  { opacity: 1.0; }
]]>
</style>
<script type="application/ecmascript"><![CDATA[
document.addEventListener('DOMContentLoaded', (event) => {
  highlightEdges();
  highlightAdjacentNodes();
});
]]></script>
</svg>
