<?xml version="1.0" encoding="UTF-8" standalone="no"?>
<!DOCTYPE svg PUBLIC "-//W3C//DTD SVG 1.1//EN"
 "http://www.w3.org/Graphics/SVG/1.1/DTD/svg11.dtd">
<!-- Generated by graphviz version 13.1.2 (20250808.2320)
 -->
<!-- Title: editeurpanovisu.GestionnairePlanController.retirePlanCourant Pages: 1 -->
<!--zoomable 836 -->

<svg id="main" version="1.1" xmlns="http://www.w3.org/2000/svg" xmlns:xlink="http://www.w3.org/1999/xlink" xml:space="preserve" onload="init(evt)">

<style type="text/css"><![CDATA[
.node, .edge {opacity: 0.7;}
.node.selected, .edge.selected {opacity: 1;}
.edge:hover path { stroke: red; }
.edge:hover polygon { stroke: red; fill: red; }
]]></style>

<defs>
  <circle id="rim" cx="0" cy="0" r="7"/>
  <circle id="rim2" cx="0" cy="0" r="3.5"/>
  <g id="zoomPlus">
    <use xlink:href="#rim" fill="#404040"><set attributeName="fill" to="#808080" begin="zoomplus.mouseover" end="zoomplus.mouseout"/></use>
    <path d="M-4,0h8M0,-4v8" fill="none" stroke="white" stroke-width="1.5" pointer-events="none"/>
  </g>
  <g id="zoomMin">
    <use xlink:href="#rim" fill="#404040"><set attributeName="fill" to="#808080" begin="zoomminus.mouseover" end="zoomminus.mouseout"/></use>
    <path d="M-4,0h8" fill="none" stroke="white" stroke-width="1.5" pointer-events="none"/>
  </g>
  <g id="arrowUp" transform="translate(30 24)">
    <use xlink:href="#rim"/>
    <path pointer-events="none" fill="none" stroke="white" stroke-width="1.5" d="M0,-3.0v7 M-2.5,-0.5L0,-3.0L2.5,-0.5"/>
  </g>
  <g id="arrowRight" transform="rotate(90) translate(36 -43)">
    <use xlink:href="#rim"/>
    <path pointer-events="none" fill="none" stroke="white" stroke-width="1.5" d="M0,-3.0v7 M-2.5,-0.5L0,-3.0L2.5,-0.5"/>
  </g>
  <g id="arrowDown" transform="rotate(180) translate(-30 -48)">
    <use xlink:href="#rim"/>
    <path pointer-events="none" fill="none" stroke="white" stroke-width="1.5" d="M0,-3.0v7 M-2.5,-0.5L0,-3.0L2.5,-0.5"/>
  </g>
  <g id="arrowLeft" transform="rotate(270) translate(-36 17)">
    <use xlink:href="#rim"/>
    <path pointer-events="none" fill="none" stroke="white" stroke-width="1.5" d="M0,-3.0v7 M-2.5,-0.5L0,-3.0L2.5,-0.5"/>
  </g>
  <g id="resetDef">
    <use xlink:href="#rim2" fill="#404040"><set attributeName="fill" to="#808080" begin="reset.mouseover" end="reset.mouseout"/></use>
  </g>
</defs>
<script type="application/ecmascript">
var viewWidth = 1772;
var viewHeight = 836;
var sectionId = 'dynsection-38';
</script>
<script type="application/ecmascript" xlink:href="svg.min.js"/>
<svg id="graph" class="graph">
<g id="viewport">
<title>editeurpanovisu.GestionnairePlanController.retirePlanCourant</title>
<!-- Node1 -->
<g id="Node000001" class="node">
<title>Node1</title>
<g id="a_Node000001"><a xlink:title=" ">
<polygon fill="#999999" stroke="#666666" points="156.25,-480.55 0,-480.55 0,-448.55 156.25,-448.55 156.25,-480.55"/>
<text xml:space="preserve" text-anchor="start" x="8" y="-467.05" font-family="Helvetica,sans-Serif" font-size="10.00">editeurpanovisu.Gestionnaire</text>
<text xml:space="preserve" text-anchor="middle" x="78.12" y="-455.05" font-family="Helvetica,sans-Serif" font-size="10.00">PlanController.retirePlanCourant</text>
</a>
</g>
</g>
<!-- Node2 -->
<g id="Node000002" class="node">
<title>Node2</title>
<g id="a_Node000002"><a xlink:href="classediteurpanovisu_1_1GestionnairePlanController.html#a0c00558611ee42fef942f5a53081d888" target="_top" xlink:title=" ">
<polygon fill="white" stroke="#666666" points="334.25,-643.55 192.25,-643.55 192.25,-611.55 334.25,-611.55 334.25,-643.55"/>
<text xml:space="preserve" text-anchor="start" x="200.25" y="-630.05" font-family="Helvetica,sans-Serif" font-size="10.00">editeurpanovisu.Gestionnaire</text>
<text xml:space="preserve" text-anchor="middle" x="263.25" y="-618.05" font-family="Helvetica,sans-Serif" font-size="10.00">PlanController.afficherPlan</text>
</a>
</g>
</g>
<!-- Node1&#45;&gt;Node2 -->
<g id="edge1_Node000001_Node000002" class="edge">
<title>Node1&#45;&gt;Node2</title>
<g id="a_edge1_Node000001_Node000002"><a xlink:title=" ">
<path fill="none" stroke="#63b8ff" d="M97.35,-480.77C129.77,-509.62 197.56,-569.97 235.35,-603.6"/>
<polygon fill="#63b8ff" stroke="#63b8ff" points="232.9,-606.1 242.69,-610.14 237.55,-600.88 232.9,-606.1"/>
</a>
</g>
</g>
<!-- Node6 -->
<g id="Node000006" class="node">
<title>Node6</title>
<g id="a_Node000006"><a xlink:href="leaflet_8js.html#a73aff07b65d7c0b09ccf6b4c4f1b7a9d" target="_top" xlink:title=" ">
<polygon fill="white" stroke="#666666" points="1706.65,-157.55 1677.85,-157.55 1677.85,-137.55 1706.65,-137.55 1706.65,-157.55"/>
<text xml:space="preserve" text-anchor="middle" x="1692.25" y="-144.05" font-family="Helvetica,sans-Serif" font-size="10.00">i</text>
</a>
</g>
</g>
<!-- Node1&#45;&gt;Node6 -->
<g id="edge42_Node000001_Node000006" class="edge">
<title>Node1&#45;&gt;Node6</title>
<g id="a_edge42_Node000001_Node000006"><a xlink:title=" ">
<path fill="none" stroke="#63b8ff" d="M83.51,-448.1C106.56,-365.8 221.59,-2.55 456.75,-2.55 456.75,-2.55 456.75,-2.55 1287,-2.55 1420.53,-2.55 1464.49,14 1584.5,-44.55 1624.4,-64.01 1658.96,-103.96 1677.29,-127.99"/>
<polygon fill="#63b8ff" stroke="#63b8ff" points="1674.45,-130.03 1683.22,-135.98 1680.08,-125.87 1674.45,-130.03"/>
</a>
</g>
</g>
<!-- Node20 -->
<g id="Node000020" class="node">
<title>Node20</title>
<g id="a_Node000020"><a xlink:href="classediteurpanovisu_1_1GestionnairePlanController.html#a2f5a045c16dc044403025b9e0a3d7391" target="_top" xlink:title=" ">
<polygon fill="white" stroke="#666666" points="529.5,-480.55 386,-480.55 386,-448.55 529.5,-448.55 529.5,-480.55"/>
<text xml:space="preserve" text-anchor="start" x="394" y="-467.05" font-family="Helvetica,sans-Serif" font-size="10.00">editeurpanovisu.Gestionnaire</text>
<text xml:space="preserve" text-anchor="middle" x="457.75" y="-455.05" font-family="Helvetica,sans-Serif" font-size="10.00">PlanController.setiPlanActuel</text>
</a>
</g>
</g>
<!-- Node1&#45;&gt;Node20 -->
<g id="edge43_Node000001_Node000020" class="edge">
<title>Node1&#45;&gt;Node20</title>
<g id="a_edge43_Node000001_Node000020"><a xlink:title=" ">
<path fill="none" stroke="#63b8ff" d="M156.45,-464.55C219.86,-464.55 309.4,-464.55 374.2,-464.55"/>
<polygon fill="#63b8ff" stroke="#63b8ff" points="374.07,-468.05 384.07,-464.55 374.07,-461.05 374.07,-468.05"/>
</a>
</g>
</g>
<!-- Node3 -->
<g id="Node000003" class="node">
<title>Node3</title>
<g id="a_Node000003"><a xlink:href="classediteurpanovisu_1_1GestionnairePlanController.html#a3e391ad45897cea8e74ed724d7b0a08f" target="_top" xlink:title=" ">
<polygon fill="white" stroke="#666666" points="1567.25,-744.55 1417.75,-744.55 1417.75,-712.55 1567.25,-712.55 1567.25,-744.55"/>
<text xml:space="preserve" text-anchor="start" x="1425.75" y="-731.05" font-family="Helvetica,sans-Serif" font-size="10.00">editeurpanovisu.Gestionnaire</text>
<text xml:space="preserve" text-anchor="middle" x="1492.5" y="-719.05" font-family="Helvetica,sans-Serif" font-size="10.00">PlanController.afficheBoussole</text>
</a>
</g>
</g>
<!-- Node2&#45;&gt;Node3 -->
<g id="edge2_Node000002_Node000003" class="edge">
<title>Node2&#45;&gt;Node3</title>
<g id="a_edge2_Node000002_Node000003"><a xlink:title=" ">
<path fill="none" stroke="#63b8ff" d="M286.5,-643.84C307.09,-657.94 339.12,-677.44 370.25,-686.55 460.42,-712.94 487.4,-695.16 581.25,-699.55 884.52,-713.72 1244.95,-722.95 1406.17,-726.67"/>
<polygon fill="#63b8ff" stroke="#63b8ff" points="1405.84,-730.17 1415.92,-726.9 1406,-723.17 1405.84,-730.17"/>
</a>
</g>
</g>
<!-- Node4 -->
<g id="Node000004" class="node">
<title>Node4</title>
<g id="a_Node000004"><a xlink:href="classediteurpanovisu_1_1GestionnairePlanController.html#a2edd566ca304172fcd4ab5559dd1738c" target="_top" xlink:title=" ">
<polygon fill="white" stroke="#666666" points="1764,-624.55 1620.5,-624.55 1620.5,-592.55 1764,-592.55 1764,-624.55"/>
<text xml:space="preserve" text-anchor="start" x="1628.5" y="-611.05" font-family="Helvetica,sans-Serif" font-size="10.00">editeurpanovisu.Gestionnaire</text>
<text xml:space="preserve" text-anchor="middle" x="1692.25" y="-599.05" font-family="Helvetica,sans-Serif" font-size="10.00">PlanController.getiPlanActuel</text>
</a>
</g>
</g>
<!-- Node2&#45;&gt;Node4 -->
<g id="edge37_Node000002_Node000004" class="edge">
<title>Node2&#45;&gt;Node4</title>
<g id="a_edge37_Node000002_Node000004"><a xlink:title=" ">
<path fill="none" stroke="#63b8ff" d="M269.16,-643.85C280.52,-678.35 312.15,-758.35 370.25,-792.55 483.57,-859.25 534.01,-811.55 665.5,-811.55 665.5,-811.55 665.5,-811.55 1287,-811.55 1421.71,-811.55 1470.68,-825.6 1584.5,-753.55 1630.3,-724.55 1663.03,-668.31 1679.38,-635.04"/>
<polygon fill="#63b8ff" stroke="#63b8ff" points="1682.51,-636.61 1683.65,-626.07 1676.19,-633.6 1682.51,-636.61"/>
</a>
</g>
</g>
<!-- Node5 -->
<g id="Node000005" class="node">
<title>Node5</title>
<g id="a_Node000005"><a xlink:href="classediteurpanovisu_1_1GestionnairePlanController.html#a3b110caac2b1cd6e082b90c98de22d91" target="_top" xlink:title=" ">
<polygon fill="white" stroke="#666666" points="1364.5,-706.55 1207.5,-706.55 1207.5,-674.55 1364.5,-674.55 1364.5,-706.55"/>
<text xml:space="preserve" text-anchor="start" x="1215.5" y="-693.05" font-family="Helvetica,sans-Serif" font-size="10.00">editeurpanovisu.Gestionnaire</text>
<text xml:space="preserve" text-anchor="middle" x="1286" y="-681.05" font-family="Helvetica,sans-Serif" font-size="10.00">PlanController.afficheConfigPlan</text>
</a>
</g>
</g>
<!-- Node2&#45;&gt;Node5 -->
<g id="edge4_Node000002_Node000005" class="edge">
<title>Node2&#45;&gt;Node5</title>
<g id="a_edge4_Node000002_Node000005"><a xlink:title=" ">
<path fill="none" stroke="#63b8ff" d="M309.35,-643.96C327.97,-650.11 349.92,-656.57 370.25,-660.55 499.49,-685.82 533.81,-685.55 665.5,-685.55 665.5,-685.55 665.5,-685.55 869.12,-685.55 981.82,-685.55 1111.68,-687.41 1195.89,-688.86"/>
<polygon fill="#63b8ff" stroke="#63b8ff" points="1195.63,-692.35 1205.69,-689.03 1195.76,-685.35 1195.63,-692.35"/>
</a>
</g>
</g>
<!-- Node7 -->
<g id="Node000007" class="node">
<title>Node7</title>
<g id="a_Node000007"><a xlink:href="classediteurpanovisu_1_1GestionnairePlanController.html#ac6a814832aad8390d7157032c3f7f107" target="_top" xlink:title=" ">
<polygon fill="white" stroke="#666666" points="1171.5,-466.55 984.5,-466.55 984.5,-434.55 1171.5,-434.55 1171.5,-466.55"/>
<text xml:space="preserve" text-anchor="start" x="992.5" y="-453.05" font-family="Helvetica,sans-Serif" font-size="10.00">editeurpanovisu.Gestionnaire</text>
<text xml:space="preserve" text-anchor="middle" x="1078" y="-441.05" font-family="Helvetica,sans-Serif" font-size="10.00">PlanController.ajouteAffichageHotspots</text>
</a>
</g>
</g>
<!-- Node2&#45;&gt;Node7 -->
<g id="edge8_Node000002_Node000007" class="edge">
<title>Node2&#45;&gt;Node7</title>
<g id="a_edge8_Node000002_Node000007"><a xlink:title=" ">
<path fill="none" stroke="#63b8ff" d="M334.5,-620.44C391.58,-614.09 474.01,-603.62 545.25,-589.55 715.78,-555.86 912.88,-499.73 1012.38,-470.15"/>
<polygon fill="#63b8ff" stroke="#63b8ff" points="1013.12,-473.59 1021.7,-467.38 1011.12,-466.88 1013.12,-473.59"/>
</a>
</g>
</g>
<!-- Node9 -->
<g id="Node000009" class="node">
<title>Node9</title>
<g id="a_Node000009"><a xlink:href="classediteurpanovisu_1_1GestionnairePlanController.html#ae85c33829adf0dab112e4120e0dd2df2" target="_top" xlink:title=" ">
<polygon fill="white" stroke="#666666" points="1584.5,-542.55 1400.5,-542.55 1400.5,-510.55 1584.5,-510.55 1584.5,-542.55"/>
<text xml:space="preserve" text-anchor="start" x="1408.5" y="-529.05" font-family="Helvetica,sans-Serif" font-size="10.00">editeurpanovisu.Gestionnaire</text>
<text xml:space="preserve" text-anchor="middle" x="1492.5" y="-517.05" font-family="Helvetica,sans-Serif" font-size="10.00">PlanController.retireAffichageHotSpots</text>
</a>
</g>
</g>
<!-- Node2&#45;&gt;Node9 -->
<g id="edge38_Node000002_Node000009" class="edge">
<title>Node2&#45;&gt;Node9</title>
<g id="a_edge38_Node000002_Node000009"><a xlink:title=" ">
<path fill="none" stroke="#63b8ff" d="M334.51,-632.89C414.58,-638.51 549.38,-646.55 665.5,-646.55 665.5,-646.55 665.5,-646.55 869.12,-646.55 921.88,-646.55 1244.85,-579.21 1403.59,-545.42"/>
<polygon fill="#63b8ff" stroke="#63b8ff" points="1404.2,-548.87 1413.25,-543.36 1402.74,-542.02 1404.2,-548.87"/>
</a>
</g>
</g>
<!-- Node12 -->
<g id="Node000012" class="node">
<title>Node12</title>
<g id="a_Node000012"><a xlink:href="classediteurpanovisu_1_1GestionnairePlanController.html#a6ca25de825e710388268b0a3ced9d868" target="_top" xlink:title=" ">
<polygon fill="white" stroke="#666666" points="545.25,-580.55 370.25,-580.55 370.25,-536.55 545.25,-536.55 545.25,-580.55"/>
<text xml:space="preserve" text-anchor="start" x="378.25" y="-567.05" font-family="Helvetica,sans-Serif" font-size="10.00">editeurpanovisu.Gestionnaire</text>
<text xml:space="preserve" text-anchor="start" x="378.25" y="-555.05" font-family="Helvetica,sans-Serif" font-size="10.00">PlanController.ajouteAffichagePoints</text>
<text xml:space="preserve" text-anchor="middle" x="457.75" y="-543.05" font-family="Helvetica,sans-Serif" font-size="10.00">Hotspots</text>
</a>
</g>
</g>
<!-- Node2&#45;&gt;Node12 -->
<g id="edge18_Node000002_Node000012" class="edge">
<title>Node2&#45;&gt;Node12</title>
<g id="a_edge18_Node000002_Node000012"><a xlink:title=" ">
<path fill="none" stroke="#63b8ff" d="M309.87,-611.19C331.76,-603.35 358.53,-593.75 383.19,-584.91"/>
<polygon fill="#63b8ff" stroke="#63b8ff" points="384.32,-588.23 392.56,-581.56 381.96,-581.64 384.32,-588.23"/>
</a>
</g>
</g>
<!-- Node18 -->
<g id="Node000018" class="node">
<title>Node18</title>
<g id="a_Node000018"><a xlink:href="classediteurpanovisu_1_1GestionnairePlanController.html#a3ab3f1b67b50004fa4ecd51241317dcd" target="_top" xlink:title=" ">
<polygon fill="white" stroke="#666666" points="528.75,-783.55 386.75,-783.55 386.75,-751.55 528.75,-751.55 528.75,-783.55"/>
<text xml:space="preserve" text-anchor="start" x="394.75" y="-770.05" font-family="Helvetica,sans-Serif" font-size="10.00">editeurpanovisu.Gestionnaire</text>
<text xml:space="preserve" text-anchor="middle" x="457.75" y="-758.05" font-family="Helvetica,sans-Serif" font-size="10.00">PlanController.getApPlan</text>
</a>
</g>
</g>
<!-- Node2&#45;&gt;Node18 -->
<g id="edge36_Node000002_Node000018" class="edge">
<title>Node2&#45;&gt;Node18</title>
<g id="a_edge36_Node000002_Node000018"><a xlink:title=" ">
<path fill="none" stroke="#63b8ff" d="M275.8,-643.68C293.56,-667.41 329.81,-711.69 370.25,-737.55 375.44,-740.86 381.04,-743.87 386.81,-746.57"/>
<polygon fill="#63b8ff" stroke="#63b8ff" points="385.36,-749.76 395.93,-750.52 388.14,-743.33 385.36,-749.76"/>
</a>
</g>
</g>
<!-- Node19 -->
<g id="Node000019" class="node">
<title>Node19</title>
<g id="a_Node000019"><a xlink:href="classediteurpanovisu_1_1GestionnairePlanController.html#aff1e9a3b2cfc2290d47ef88959714f88" target="_top" xlink:title=" ">
<polygon fill="white" stroke="#666666" points="751.75,-74.55 581.25,-74.55 581.25,-30.55 751.75,-30.55 751.75,-74.55"/>
<text xml:space="preserve" text-anchor="start" x="589.25" y="-61.05" font-family="Helvetica,sans-Serif" font-size="10.00">editeurpanovisu.Gestionnaire</text>
<text xml:space="preserve" text-anchor="start" x="589.25" y="-49.05" font-family="Helvetica,sans-Serif" font-size="10.00">PlanController.retireAffichagePoints</text>
<text xml:space="preserve" text-anchor="middle" x="666.5" y="-37.05" font-family="Helvetica,sans-Serif" font-size="10.00">HotSpots</text>
</a>
</g>
</g>
<!-- Node2&#45;&gt;Node19 -->
<g id="edge39_Node000002_Node000019" class="edge">
<title>Node2&#45;&gt;Node19</title>
<g id="a_edge39_Node000002_Node000019"><a xlink:title=" ">
<path fill="none" stroke="#63b8ff" d="M276.68,-611.2C294.73,-588.69 330.41,-548.54 370.25,-527.55 440.66,-490.44 492.57,-549.21 545.25,-489.55 604.46,-422.48 528.67,-160.93 581.25,-88.55 582.93,-86.24 584.78,-84.08 586.78,-82.05"/>
<polygon fill="#63b8ff" stroke="#63b8ff" points="588.67,-85.05 594,-75.89 584.12,-79.72 588.67,-85.05"/>
</a>
</g>
</g>
<!-- Node2&#45;&gt;Node20 -->
<g id="edge41_Node000002_Node000020" class="edge">
<title>Node2&#45;&gt;Node20</title>
<g id="a_edge41_Node000002_Node000020"><a xlink:title=" ">
<path fill="none" stroke="#63b8ff" d="M273.12,-611.17C289.01,-583.31 324.94,-526.61 370.25,-494.55 374.91,-491.25 379.98,-488.28 385.23,-485.62"/>
<polygon fill="#63b8ff" stroke="#63b8ff" points="386.53,-488.88 394.14,-481.51 383.59,-482.52 386.53,-488.88"/>
</a>
</g>
</g>
<!-- Node3&#45;&gt;Node4 -->
<g id="edge3_Node000003_Node000004" class="edge">
<title>Node3&#45;&gt;Node4</title>
<g id="a_edge3_Node000003_Node000004"><a xlink:title=" ">
<path fill="none" stroke="#63b8ff" d="M1554.12,-712.17C1564.55,-708.35 1575.06,-703.82 1584.5,-698.55 1616.16,-680.86 1647.28,-653.1 1667.67,-633.09"/>
<polygon fill="#63b8ff" stroke="#63b8ff" points="1670.06,-635.65 1674.66,-626.11 1665.11,-630.7 1670.06,-635.65"/>
</a>
</g>
</g>
<!-- Node5&#45;&gt;Node3 -->
<g id="edge5_Node000005_Node000003" class="edge">
<title>Node5&#45;&gt;Node3</title>
<g id="a_edge5_Node000005_Node000003"><a xlink:title=" ">
<path fill="none" stroke="#63b8ff" d="M1364.9,-705.02C1378.52,-707.55 1392.76,-710.2 1406.57,-712.76"/>
<polygon fill="#63b8ff" stroke="#63b8ff" points="1405.57,-716.14 1416.04,-714.52 1406.85,-709.26 1405.57,-716.14"/>
</a>
</g>
</g>
<!-- Node5&#45;&gt;Node4 -->
<g id="edge6_Node000005_Node000004" class="edge">
<title>Node5&#45;&gt;Node4</title>
<g id="a_edge6_Node000005_Node000004"><a xlink:title=" ">
<path fill="none" stroke="#63b8ff" d="M1364.83,-690.14C1425.68,-688.06 1511.85,-681.19 1584.5,-660.55 1608.82,-653.64 1634.33,-641.41 1654.32,-630.56"/>
<polygon fill="#63b8ff" stroke="#63b8ff" points="1655.87,-633.7 1662.9,-625.77 1652.47,-627.58 1655.87,-633.7"/>
</a>
</g>
</g>
<!-- Node5&#45;&gt;Node6 -->
<g id="edge7_Node000005_Node000006" class="edge">
<title>Node5&#45;&gt;Node6</title>
<g id="a_edge7_Node000005_Node000006"><a xlink:title=" ">
<path fill="none" stroke="#63b8ff" d="M1334.24,-674.07C1409.24,-647.03 1550.55,-592.18 1584.5,-551.55 1682.83,-433.85 1691.56,-235.03 1691.61,-169.34"/>
<polygon fill="#63b8ff" stroke="#63b8ff" points="1695.11,-169.53 1691.54,-159.55 1688.11,-169.58 1695.11,-169.53"/>
</a>
</g>
</g>
<!-- Node7&#45;&gt;Node4 -->
<g id="edge15_Node000007_Node000004" class="edge">
<title>Node7&#45;&gt;Node4</title>
<g id="a_edge15_Node000007_Node000004"><a xlink:title=" ">
<path fill="none" stroke="#63b8ff" d="M1155.53,-467.04C1172.57,-470.26 1190.6,-473.33 1207.5,-475.55 1290.76,-486.47 1508.09,-466.71 1584.5,-501.55 1623.24,-519.21 1655.76,-557.47 1674.38,-583.12"/>
<polygon fill="#63b8ff" stroke="#63b8ff" points="1671.33,-584.87 1679.95,-591.03 1677.05,-580.84 1671.33,-584.87"/>
</a>
</g>
</g>
<!-- Node8 -->
<g id="Node000008" class="node">
<title>Node8</title>
<g id="a_Node000008"><a xlink:href="classediteurpanovisu_1_1GestionnairePlanController.html#ad4f72bd693b5b3bd93bee89bda000990" target="_top" xlink:title=" ">
<polygon fill="white" stroke="#666666" points="1357,-466.55 1215,-466.55 1215,-434.55 1357,-434.55 1357,-466.55"/>
<text xml:space="preserve" text-anchor="start" x="1223" y="-453.05" font-family="Helvetica,sans-Serif" font-size="10.00">editeurpanovisu.Gestionnaire</text>
<text xml:space="preserve" text-anchor="middle" x="1286" y="-441.05" font-family="Helvetica,sans-Serif" font-size="10.00">PlanController.affichageHS</text>
</a>
</g>
</g>
<!-- Node7&#45;&gt;Node8 -->
<g id="edge9_Node000007_Node000008" class="edge">
<title>Node7&#45;&gt;Node8</title>
<g id="a_edge9_Node000007_Node000008"><a xlink:title=" ">
<path fill="none" stroke="#63b8ff" d="M1171.76,-443.83C1182.23,-443.77 1192.85,-443.8 1203.17,-443.92"/>
<polygon fill="#63b8ff" stroke="#63b8ff" points="1203.1,-447.42 1213.16,-444.08 1203.22,-440.43 1203.1,-447.42"/>
</a>
</g>
</g>
<!-- Node11 -->
<g id="Node000011" class="node">
<title>Node11</title>
<g id="a_Node000011"><a xlink:href="classediteurpanovisu_1_1GestionnairePlanController.html#ace9c9d5683a0db9254026f3cb20cedd3" target="_top" xlink:title=" ">
<polygon fill="white" stroke="#666666" points="1357,-340.55 1215,-340.55 1215,-308.55 1357,-308.55 1357,-340.55"/>
<text xml:space="preserve" text-anchor="start" x="1223" y="-327.05" font-family="Helvetica,sans-Serif" font-size="10.00">editeurpanovisu.Gestionnaire</text>
<text xml:space="preserve" text-anchor="middle" x="1286" y="-315.05" font-family="Helvetica,sans-Serif" font-size="10.00">PlanController.listePano</text>
</a>
</g>
</g>
<!-- Node7&#45;&gt;Node11 -->
<g id="edge16_Node000007_Node000011" class="edge">
<title>Node7&#45;&gt;Node11</title>
<g id="a_edge16_Node000007_Node000011"><a xlink:title=" ">
<path fill="none" stroke="#63b8ff" d="M1105.93,-434.07C1142.4,-411.77 1207.63,-371.87 1248.48,-346.88"/>
<polygon fill="#63b8ff" stroke="#63b8ff" points="1250.07,-350.02 1256.77,-341.81 1246.41,-344.04 1250.07,-350.02"/>
</a>
</g>
</g>
<!-- Node8&#45;&gt;Node7 -->
<g id="edge10_Node000008_Node000007" class="edge">
<title>Node8&#45;&gt;Node7</title>
<g id="a_edge10_Node000008_Node000007"><a xlink:title=" ">
<path fill="none" stroke="#63b8ff" d="M1214.67,-456.99C1204.42,-457.19 1193.69,-457.29 1182.94,-457.3"/>
<polygon fill="#63b8ff" stroke="#63b8ff" points="1183.28,-453.8 1173.27,-457.27 1183.26,-460.8 1183.28,-453.8"/>
</a>
</g>
</g>
<!-- Node8&#45;&gt;Node9 -->
<g id="edge11_Node000008_Node000009" class="edge">
<title>Node8&#45;&gt;Node9</title>
<g id="a_edge11_Node000008_Node000009"><a xlink:title=" ">
<path fill="none" stroke="#63b8ff" d="M1331.37,-467.04C1362.33,-478.54 1403.83,-493.96 1436.82,-506.23"/>
<polygon fill="#63b8ff" stroke="#63b8ff" points="1435.2,-509.36 1445.79,-509.56 1437.64,-502.8 1435.2,-509.36"/>
</a>
</g>
</g>
<!-- Node10 -->
<g id="Node000010" class="node">
<title>Node10</title>
<g id="a_Node000010"><a xlink:href="classediteurpanovisu_1_1GestionnairePlanController.html#ae1523e38be18cc67cdfc275adff5dd18" target="_top" xlink:title=" ">
<polygon fill="white" stroke="#666666" points="1563.5,-296.55 1421.5,-296.55 1421.5,-264.55 1563.5,-264.55 1563.5,-296.55"/>
<text xml:space="preserve" text-anchor="start" x="1429.5" y="-283.05" font-family="Helvetica,sans-Serif" font-size="10.00">editeurpanovisu.Gestionnaire</text>
<text xml:space="preserve" text-anchor="middle" x="1492.5" y="-271.05" font-family="Helvetica,sans-Serif" font-size="10.00">PlanController.valideHsplan</text>
</a>
</g>
</g>
<!-- Node8&#45;&gt;Node10 -->
<g id="edge12_Node000008_Node000010" class="edge">
<title>Node8&#45;&gt;Node10</title>
<g id="a_edge12_Node000008_Node000010"><a xlink:title=" ">
<path fill="none" stroke="#63b8ff" d="M1306.61,-434.25C1343.02,-403.97 1421.21,-338.98 1463.3,-303.99"/>
<polygon fill="#63b8ff" stroke="#63b8ff" points="1465.33,-306.85 1470.79,-297.77 1460.86,-301.47 1465.33,-306.85"/>
</a>
</g>
</g>
<!-- Node10&#45;&gt;Node4 -->
<g id="edge13_Node000010_Node000004" class="edge">
<title>Node10&#45;&gt;Node4</title>
<g id="a_edge13_Node000010_Node000004"><a xlink:title=" ">
<path fill="none" stroke="#63b8ff" d="M1520,-296.89C1539.95,-310.31 1566.8,-330.92 1584.5,-354.55 1639.08,-427.4 1671.5,-532.31 1684.55,-581.35"/>
<polygon fill="#63b8ff" stroke="#63b8ff" points="1681.11,-582.02 1687.01,-590.82 1687.89,-580.27 1681.11,-582.02"/>
</a>
</g>
</g>
<!-- Node10&#45;&gt;Node6 -->
<g id="edge14_Node000010_Node000006" class="edge">
<title>Node10&#45;&gt;Node6</title>
<g id="a_edge14_Node000010_Node000006"><a xlink:title=" ">
<path fill="none" stroke="#63b8ff" d="M1517.75,-264.24C1556.19,-238.39 1630.6,-188.34 1668.24,-163.02"/>
<polygon fill="#63b8ff" stroke="#63b8ff" points="1669.8,-166.19 1676.15,-157.7 1665.9,-160.38 1669.8,-166.19"/>
</a>
</g>
</g>
<!-- Node11&#45;&gt;Node6 -->
<g id="edge17_Node000011_Node000006" class="edge">
<title>Node11&#45;&gt;Node6</title>
<g id="a_edge17_Node000011_Node000006"><a xlink:title=" ">
<path fill="none" stroke="#63b8ff" d="M1357.49,-336.7C1421.12,-343.98 1515.12,-345.29 1584.5,-305.55 1638.7,-274.5 1670.99,-203.4 1684.23,-168.14"/>
<polygon fill="#63b8ff" stroke="#63b8ff" points="1687.39,-169.69 1687.48,-159.09 1680.8,-167.32 1687.39,-169.69"/>
</a>
</g>
</g>
<!-- Node12&#45;&gt;Node4 -->
<g id="edge34_Node000012_Node000004" class="edge">
<title>Node12&#45;&gt;Node4</title>
<g id="a_edge34_Node000012_Node000004"><a xlink:title=" ">
<path fill="none" stroke="#63b8ff" d="M545.73,-562.48C711.84,-569.93 1085.71,-586.45 1400.5,-598.55 1470.76,-601.25 1550.59,-603.97 1608.8,-605.89"/>
<polygon fill="#63b8ff" stroke="#63b8ff" points="1608.53,-609.38 1618.64,-606.21 1608.76,-602.38 1608.53,-609.38"/>
</a>
</g>
</g>
<!-- Node12&#45;&gt;Node6 -->
<g id="edge35_Node000012_Node000006" class="edge">
<title>Node12&#45;&gt;Node6</title>
<g id="a_edge35_Node000012_Node000006"><a xlink:title=" ">
<path fill="none" stroke="#63b8ff" d="M529.82,-536.1C535.57,-532.26 540.85,-527.78 545.25,-522.55 592.14,-466.74 549.35,-428.09 581.25,-362.55 644.77,-232.04 658.74,-176.05 787.75,-109.55 902.27,-50.52 948.17,-90.55 1077,-90.55 1077,-90.55 1077,-90.55 1287,-90.55 1431.85,-90.55 1603.07,-126.88 1666.23,-141.53"/>
<polygon fill="#63b8ff" stroke="#63b8ff" points="1665.38,-144.92 1675.91,-143.81 1666.98,-138.11 1665.38,-144.92"/>
</a>
</g>
</g>
<!-- Node13 -->
<g id="Node000013" class="node">
<title>Node13</title>
<g id="a_Node000013"><a xlink:href="classediteurpanovisu_1_1GestionnairePlanController.html#a2e6f0187e7151e006c001659da532c6e" target="_top" xlink:title=" ">
<polygon fill="white" stroke="#666666" points="737.5,-403.55 595.5,-403.55 595.5,-371.55 737.5,-371.55 737.5,-403.55"/>
<text xml:space="preserve" text-anchor="start" x="603.5" y="-390.05" font-family="Helvetica,sans-Serif" font-size="10.00">editeurpanovisu.Gestionnaire</text>
<text xml:space="preserve" text-anchor="middle" x="666.5" y="-378.05" font-family="Helvetica,sans-Serif" font-size="10.00">PlanController.afficheHS</text>
</a>
</g>
</g>
<!-- Node12&#45;&gt;Node13 -->
<g id="edge19_Node000012_Node000013" class="edge">
<title>Node12&#45;&gt;Node13</title>
<g id="a_edge19_Node000012_Node000013"><a xlink:title=" ">
<path fill="none" stroke="#63b8ff" d="M521.96,-536.19C530.11,-532.19 538.09,-527.64 545.25,-522.55 588.44,-491.8 626.98,-442.86 648.21,-413.11"/>
<polygon fill="#63b8ff" stroke="#63b8ff" points="650.99,-415.25 653.86,-405.06 645.25,-411.24 650.99,-415.25"/>
</a>
</g>
</g>
<!-- Node13&#45;&gt;Node4 -->
<g id="edge29_Node000013_Node000004" class="edge">
<title>Node13&#45;&gt;Node4</title>
<g id="a_edge29_Node000013_Node000004"><a xlink:title=" ">
<path fill="none" stroke="#63b8ff" d="M687.38,-403.79C744.3,-448.57 914.25,-570.55 1077,-570.55 1077,-570.55 1077,-570.55 1287,-570.55 1398.93,-570.55 1527.53,-585.17 1609.06,-596.27"/>
<polygon fill="#63b8ff" stroke="#63b8ff" points="1608.36,-599.71 1618.74,-597.6 1609.31,-592.77 1608.36,-599.71"/>
</a>
</g>
</g>
<!-- Node13&#45;&gt;Node6 -->
<g id="edge30_Node000013_Node000006" class="edge">
<title>Node13&#45;&gt;Node6</title>
<g id="a_edge30_Node000013_Node000006"><a xlink:title=" ">
<path fill="none" stroke="#63b8ff" d="M675.24,-371.32C691.43,-339.15 732.05,-267.17 787.75,-229.55 936.33,-129.19 1535.22,-142.48 1665.96,-146.65"/>
<polygon fill="#63b8ff" stroke="#63b8ff" points="1665.81,-150.15 1675.92,-146.98 1666.04,-143.15 1665.81,-150.15"/>
</a>
</g>
</g>
<!-- Node13&#45;&gt;Node7 -->
<g id="edge28_Node000013_Node000007" class="edge">
<title>Node13&#45;&gt;Node7</title>
<g id="a_edge28_Node000013_Node000007"><a xlink:title=" ">
<path fill="none" stroke="#63b8ff" d="M737.9,-398.38C802.6,-408.33 899.37,-423.22 972.99,-434.55"/>
<polygon fill="#63b8ff" stroke="#63b8ff" points="972.23,-437.97 982.64,-436.03 973.29,-431.05 972.23,-437.97"/>
</a>
</g>
</g>
<!-- Node13&#45;&gt;Node9 -->
<g id="edge31_Node000013_Node000009" class="edge">
<title>Node13&#45;&gt;Node9</title>
<g id="a_edge31_Node000013_Node000009"><a xlink:title=" ">
<path fill="none" stroke="#63b8ff" d="M707.1,-404C730.32,-413.23 760.38,-424.48 787.75,-432.55 995.62,-493.81 1249.88,-515.26 1388.79,-522.69"/>
<polygon fill="#63b8ff" stroke="#63b8ff" points="1388.54,-526.18 1398.71,-523.2 1388.91,-519.19 1388.54,-526.18"/>
</a>
</g>
</g>
<!-- Node13&#45;&gt;Node10 -->
<g id="edge32_Node000013_Node000010" class="edge">
<title>Node13&#45;&gt;Node10</title>
<g id="a_edge32_Node000013_Node000010"><a xlink:title=" ">
<path fill="none" stroke="#63b8ff" d="M689.4,-371.14C738.79,-335.31 864,-251.12 984.5,-223.55 1143.14,-187.25 1335.21,-232.41 1431.02,-260.8"/>
<polygon fill="#63b8ff" stroke="#63b8ff" points="1429.9,-264.12 1440.49,-263.65 1431.92,-257.42 1429.9,-264.12"/>
</a>
</g>
</g>
<!-- Node14 -->
<g id="Node000014" class="node">
<title>Node14</title>
<g id="a_Node000014"><a xlink:href="classediteurpanovisu_1_1GestionnairePlanController.html#a375ef7ea66bf40c2ad7d973e1a40c065" target="_top" xlink:title=" ">
<polygon fill="white" stroke="#666666" points="948.5,-371.55 787.75,-371.55 787.75,-327.55 948.5,-327.55 948.5,-371.55"/>
<text xml:space="preserve" text-anchor="start" x="795.75" y="-358.05" font-family="Helvetica,sans-Serif" font-size="10.00">editeurpanovisu.Gestionnaire</text>
<text xml:space="preserve" text-anchor="start" x="795.75" y="-346.05" font-family="Helvetica,sans-Serif" font-size="10.00">PlanController.afficherListePanos</text>
<text xml:space="preserve" text-anchor="middle" x="868.12" y="-334.05" font-family="Helvetica,sans-Serif" font-size="10.00">Vignettes</text>
</a>
</g>
</g>
<!-- Node13&#45;&gt;Node14 -->
<g id="edge20_Node000013_Node000014" class="edge">
<title>Node13&#45;&gt;Node14</title>
<g id="a_edge20_Node000013_Node000014"><a xlink:title=" ">
<path fill="none" stroke="#63b8ff" d="M737.88,-374.15C750.3,-371.79 763.38,-369.3 776.26,-366.84"/>
<polygon fill="#63b8ff" stroke="#63b8ff" points="776.85,-370.29 786.02,-364.99 775.54,-363.42 776.85,-370.29"/>
</a>
</g>
</g>
<!-- Node17 -->
<g id="Node000017" class="node">
<title>Node17</title>
<g id="a_Node000017"><a xlink:href="leaflet_8js.html#a873cae0273c5a7d9673544bbe0a6fe8b" target="_top" xlink:title=" ">
<polygon fill="white" stroke="#666666" points="882.52,-138.55 853.73,-138.55 853.73,-118.55 882.52,-118.55 882.52,-138.55"/>
<text xml:space="preserve" text-anchor="middle" x="868.12" y="-125.05" font-family="Helvetica,sans-Serif" font-size="10.00">Y</text>
</a>
</g>
</g>
<!-- Node13&#45;&gt;Node17 -->
<g id="edge33_Node000013_Node000017" class="edge">
<title>Node13&#45;&gt;Node17</title>
<g id="a_edge33_Node000013_Node000017"><a xlink:title=" ">
<path fill="none" stroke="#63b8ff" d="M671.18,-371.08C681.58,-328.35 715.28,-213.06 787.75,-152.55 803.04,-139.78 825,-133.8 841.95,-131"/>
<polygon fill="#63b8ff" stroke="#63b8ff" points="842.29,-134.49 851.73,-129.68 841.36,-127.55 842.29,-134.49"/>
</a>
</g>
</g>
<!-- Node14&#45;&gt;Node4 -->
<g id="edge22_Node000014_Node000004" class="edge">
<title>Node14&#45;&gt;Node4</title>
<g id="a_edge22_Node000014_Node000004"><a xlink:title=" ">
<path fill="none" stroke="#63b8ff" d="M948.75,-348.28C1047.57,-348.39 1220.63,-354.08 1364.5,-387.55 1467.07,-411.4 1499.87,-412.87 1584.5,-475.55 1624.51,-505.18 1658.02,-553.28 1676.31,-582.79"/>
<polygon fill="#63b8ff" stroke="#63b8ff" points="1673.16,-584.36 1681.34,-591.1 1679.15,-580.73 1673.16,-584.36"/>
</a>
</g>
</g>
<!-- Node14&#45;&gt;Node6 -->
<g id="edge23_Node000014_Node000006" class="edge">
<title>Node14&#45;&gt;Node6</title>
<g id="a_edge23_Node000014_Node000006"><a xlink:title=" ">
<path fill="none" stroke="#63b8ff" d="M882.24,-327.23C900.85,-297.83 937.92,-247.11 984.5,-223.55 1107.63,-161.27 1554.96,-149.8 1666.12,-147.9"/>
<polygon fill="#63b8ff" stroke="#63b8ff" points="1665.98,-151.4 1675.92,-147.74 1665.86,-144.4 1665.98,-151.4"/>
</a>
</g>
</g>
<!-- Node14&#45;&gt;Node7 -->
<g id="edge21_Node000014_Node000007" class="edge">
<title>Node14&#45;&gt;Node7</title>
<g id="a_edge21_Node000014_Node000007"><a xlink:title=" ">
<path fill="none" stroke="#63b8ff" d="M900.8,-371.89C923.36,-387.09 954.82,-406.84 984.5,-420.55 992.07,-424.04 1000.15,-427.3 1008.28,-430.29"/>
<polygon fill="#63b8ff" stroke="#63b8ff" points="1006.93,-433.53 1017.52,-433.56 1009.26,-426.93 1006.93,-433.53"/>
</a>
</g>
</g>
<!-- Node14&#45;&gt;Node9 -->
<g id="edge25_Node000014_Node000009" class="edge">
<title>Node14&#45;&gt;Node9</title>
<g id="a_edge25_Node000014_Node000009"><a xlink:title=" ">
<path fill="none" stroke="#63b8ff" d="M940.68,-372C955.09,-375.96 970.19,-379.71 984.5,-382.55 1151.22,-415.59 1207.44,-360.57 1364.5,-425.55 1406.23,-442.81 1445.5,-478.06 1469.03,-502"/>
<polygon fill="#63b8ff" stroke="#63b8ff" points="1466.45,-504.38 1475.91,-509.16 1471.5,-499.53 1466.45,-504.38"/>
</a>
</g>
</g>
<!-- Node14&#45;&gt;Node10 -->
<g id="edge27_Node000014_Node000010" class="edge">
<title>Node14&#45;&gt;Node10</title>
<g id="a_edge27_Node000014_Node000010"><a xlink:title=" ">
<path fill="none" stroke="#63b8ff" d="M948.81,-343.84C1010.22,-338.41 1096.95,-328.48 1171.5,-311.55 1187.95,-307.81 1190.95,-302.8 1207.5,-299.55 1274.75,-286.32 1352.49,-281.84 1409.62,-280.52"/>
<polygon fill="#63b8ff" stroke="#63b8ff" points="1409.68,-284.02 1419.61,-280.32 1409.54,-277.03 1409.68,-284.02"/>
</a>
</g>
</g>
<!-- Node15 -->
<g id="Node000015" class="node">
<title>Node15</title>
<g id="a_Node000015"><a xlink:href="leaflet_8js.html#abf5830200d869e463ea38504a19985f6" target="_top" xlink:title=" ">
<polygon fill="white" stroke="#666666" points="1092.75,-302.55 1063.25,-302.55 1063.25,-282.55 1092.75,-282.55 1092.75,-302.55"/>
<text xml:space="preserve" text-anchor="middle" x="1078" y="-289.05" font-family="Helvetica,sans-Serif" font-size="10.00">me</text>
</a>
</g>
</g>
<!-- Node14&#45;&gt;Node15 -->
<g id="edge24_Node000014_Node000015" class="edge">
<title>Node14&#45;&gt;Node15</title>
<g id="a_edge24_Node000014_Node000015"><a xlink:title=" ">
<path fill="none" stroke="#63b8ff" d="M946.63,-327.09C959.27,-323.51 972.24,-319.89 984.5,-316.55 1007.22,-310.35 1033.17,-303.65 1051.8,-298.91"/>
<polygon fill="#63b8ff" stroke="#63b8ff" points="1052.57,-302.32 1061.4,-296.47 1050.85,-295.54 1052.57,-302.32"/>
</a>
</g>
</g>
<!-- Node16 -->
<g id="Node000016" class="node">
<title>Node16</title>
<g id="a_Node000016"><a xlink:href="classediteurpanovisu_1_1GestionnairePlanController.html#a2f1b683e1be605730a62f963e130bdc2" target="_top" xlink:title=" ">
<polygon fill="white" stroke="#666666" points="1169.62,-264.55 986.38,-264.55 986.38,-232.55 1169.62,-232.55 1169.62,-264.55"/>
<text xml:space="preserve" text-anchor="start" x="994.38" y="-251.05" font-family="Helvetica,sans-Serif" font-size="10.00">editeurpanovisu.Gestionnaire</text>
<text xml:space="preserve" text-anchor="middle" x="1078" y="-239.05" font-family="Helvetica,sans-Serif" font-size="10.00">PlanController.setStrPlanListeVignette</text>
</a>
</g>
</g>
<!-- Node14&#45;&gt;Node16 -->
<g id="edge26_Node000014_Node000016" class="edge">
<title>Node14&#45;&gt;Node16</title>
<g id="a_edge26_Node000014_Node000016"><a xlink:title=" ">
<path fill="none" stroke="#63b8ff" d="M897.5,-327.13C919.99,-310.32 952.79,-287.83 984.5,-273.55 988.29,-271.84 992.22,-270.23 996.22,-268.71"/>
<polygon fill="#63b8ff" stroke="#63b8ff" points="997.28,-272.05 1005.54,-265.41 994.94,-265.45 997.28,-272.05"/>
</a>
</g>
</g>
<!-- Node19&#45;&gt;Node6 -->
<g id="edge40_Node000019_Node000006" class="edge">
<title>Node19&#45;&gt;Node6</title>
<g id="a_edge40_Node000019_Node000006"><a xlink:title=" ">
<path fill="none" stroke="#63b8ff" d="M752.2,-52.55C835.01,-52.55 964.67,-52.55 1077,-52.55 1077,-52.55 1077,-52.55 1287,-52.55 1419.65,-52.55 1459.17,-33.1 1584.5,-76.55 1618.09,-88.19 1651.31,-112.94 1671.56,-129.91"/>
<polygon fill="#63b8ff" stroke="#63b8ff" points="1669.14,-132.45 1679,-136.32 1673.71,-127.14 1669.14,-132.45"/>
</a>
</g>
</g>
</g>
</svg>

<g id="navigator" transform="translate(0 0)" fill="#404254">
  <rect fill="#f2f5e9" fill-opacity="0.5" stroke="#606060" stroke-width=".5" x="0" y="0" width="60" height="60"/>
  <use id="zoomplus" xlink:href="#zoomPlus" x="17" y="9" onmousedown="handleZoom(evt,'in')"/>
  <use id="zoomminus" xlink:href="#zoomMin" x="42" y="9" onmousedown="handleZoom(evt,'out')"/>
  <use id="reset" xlink:href="#resetDef" x="30" y="36" onmousedown="handleReset()"/>
   <use id="arrowup" xlink:href="#arrowUp" x="0" y="0" onmousedown="handlePan(0,-1)"/>
  <use id="arrowright" xlink:href="#arrowRight" x="0" y="0" onmousedown="handlePan(1,0)"/>
  <use id="arrowdown" xlink:href="#arrowDown" x="0" y="0" onmousedown="handlePan(0,1)"/>
  <use id="arrowleft" xlink:href="#arrowLeft" x="0" y="0" onmousedown="handlePan(-1,0)"/>
</g>
<svg viewBox="0 0 15 15" width="100%" height="30px" preserveAspectRatio="xMaxYMin meet">
 <g id="arrow_out" transform="scale(0.3 0.3)">
  <a xlink:href="classediteurpanovisu_1_1GestionnairePlanController_a06b6b5ee31b551123cfa45faa50b52b9_cgraph_org.svg" target="_base">
   <rect id="button" ry="5" rx="5" y="6" x="6" height="38" width="38"
        fill="#f2f5e9" fill-opacity="0.5" stroke="#606060" stroke-width="1.0"/>
   <path id="arrow"
     d="M 11.500037,31.436501 C 11.940474,20.09759 22.043105,11.32322 32.158766,21.979434 L 37.068811,17.246167 C 37.068811,17.246167 37.088388,32 37.088388,32 L 22.160133,31.978069 C 22.160133,31.978069 26.997745,27.140456 26.997745,27.140456 C 18.528582,18.264221 13.291696,25.230495 11.500037,31.436501 z"
     style="fill:#404040;"/>
  </a>
 </g>
</svg>

<style type='text/css'>
<![CDATA[
[data-mouse-over-selected='false'] { opacity: 0.7; }
[data-mouse-over-selected='true']  { opacity: 1.0; }
]]>
</style>
<script type="application/ecmascript"><![CDATA[
document.addEventListener('DOMContentLoaded', (event) => {
  highlightEdges();
  highlightAdjacentNodes();
});
]]></script>
</svg>
