<?xml version="1.0" encoding="UTF-8" standalone="no"?>
<!DOCTYPE svg PUBLIC "-//W3C//DTD SVG 1.1//EN"
 "http://www.w3.org/Graphics/SVG/1.1/DTD/svg11.dtd">
<!-- Generated by graphviz version 13.1.2 (20250808.2320)
 -->
<!-- Title: editeurpanovisu.ReadWriteImage.ManagedImageBufferedImageFactory Pages: 1 -->
<svg width="176pt" height="260pt"
 viewBox="0.00 0.00 176.00 260.00" xmlns="http://www.w3.org/2000/svg" xmlns:xlink="http://www.w3.org/1999/xlink">

<svg id="main" version="1.1" xmlns="http://www.w3.org/2000/svg" xmlns:xlink="http://www.w3.org/1999/xlink" xml:space="preserve">

<style type="text/css"><![CDATA[
.node, .edge {opacity: 0.7;}
.node.selected, .edge.selected {opacity: 1;}
.edge:hover path { stroke: red; }
.edge:hover polygon { stroke: red; fill: red; }
]]></style>
<script type="application/ecmascript" xlink:href="svg.min.js"/>
<svg id="graph" class="graph">
<g id="graph0" class="graph" transform="scale(1 1) rotate(0) translate(4 256)">
<title>editeurpanovisu.ReadWriteImage.ManagedImageBufferedImageFactory</title>
<!-- Node1 -->
<g id="Node000001" class="node">
<title>Node1</title>
<g id="a_Node000001"><a xlink:title=" ">
<polygon fill="#999999" stroke="none" points="167.75,-164 0,-164 0,0 167.75,0 167.75,-164"/>
<text xml:space="preserve" text-anchor="start" x="4" y="-150.5" font-family="Helvetica,sans-Serif" font-size="10.00">editeurpanovisu.ReadWrite</text>
<text xml:space="preserve" text-anchor="start" x="4" y="-138.5" font-family="Helvetica,sans-Serif" font-size="10.00">Image.ManagedImageBufferedImage</text>
<text xml:space="preserve" text-anchor="start" x="67.38" y="-126.5" font-family="Helvetica,sans-Serif" font-size="10.00">Factory</text>
<text xml:space="preserve" text-anchor="start" x="82.38" y="-110.5" font-family="Helvetica,sans-Serif" font-size="10.00"> </text>
<text xml:space="preserve" text-anchor="start" x="6.75" y="-94.5" font-family="Helvetica,sans-Serif" font-size="10.00">+</text>
<text xml:space="preserve" text-anchor="start" x="19.5" y="-94.5" font-family="Helvetica,sans-Serif" font-size="10.00">BufferedImage getColorBuffered</text>
<text xml:space="preserve" text-anchor="start" x="19.5" y="-82.5" font-family="Helvetica,sans-Serif" font-size="10.00">Image(final int iLargeur,</text>
<text xml:space="preserve" text-anchor="start" x="19.5" y="-70.5" font-family="Helvetica,sans-Serif" font-size="10.00"> final int iHauteur, final</text>
<text xml:space="preserve" text-anchor="start" x="19.5" y="-58.5" font-family="Helvetica,sans-Serif" font-size="10.00"> boolean bAasAlpha)</text>
<text xml:space="preserve" text-anchor="start" x="6.75" y="-42.5" font-family="Helvetica,sans-Serif" font-size="10.00">+</text>
<text xml:space="preserve" text-anchor="start" x="19.5" y="-42.5" font-family="Helvetica,sans-Serif" font-size="10.00">BufferedImage getGrayscale</text>
<text xml:space="preserve" text-anchor="start" x="19.5" y="-30.5" font-family="Helvetica,sans-Serif" font-size="10.00">BufferedImage(final int</text>
<text xml:space="preserve" text-anchor="start" x="19.5" y="-18.5" font-family="Helvetica,sans-Serif" font-size="10.00"> width, final int height,</text>
<text xml:space="preserve" text-anchor="start" x="19.5" y="-6.5" font-family="Helvetica,sans-Serif" font-size="10.00"> final boolean hasAlpha)</text>
<polygon fill="#666666" stroke="#666666" points="0,-122 0,-122 167.75,-122 167.75,-122 0,-122"/>
<polygon fill="#666666" stroke="#666666" points="0,-106 0,-106 167.75,-106 167.75,-106 0,-106"/>
<polygon fill="none" stroke="#666666" points="0,0 0,-164 167.75,-164 167.75,0 0,0"/>
</a>
</g>
</g>
<!-- Node2 -->
<g id="Node000002" class="node">
<title>Node2</title>
<g id="a_Node000002"><a xlink:title=" ">
<polygon fill="white" stroke="none" points="135.88,-252 31.88,-252 31.88,-200 135.88,-200 135.88,-252"/>
<text xml:space="preserve" text-anchor="start" x="35.88" y="-238.5" font-family="Helvetica,sans-Serif" font-size="10.00">BufferedImageFactory</text>
<text xml:space="preserve" text-anchor="start" x="82.38" y="-222.5" font-family="Helvetica,sans-Serif" font-size="10.00"> </text>
<text xml:space="preserve" text-anchor="start" x="82.38" y="-206.5" font-family="Helvetica,sans-Serif" font-size="10.00"> </text>
<polygon fill="#666666" stroke="#666666" points="31.88,-234 31.88,-234 135.88,-234 135.88,-234 31.88,-234"/>
<polygon fill="#666666" stroke="#666666" points="31.88,-218 31.88,-218 135.88,-218 135.88,-218 31.88,-218"/>
<polygon fill="none" stroke="#666666" points="31.88,-200 31.88,-252 135.88,-252 135.88,-200 31.88,-200"/>
</a>
</g>
</g>
<!-- Node2&#45;&gt;Node1 -->
<g id="edge1_Node000001_Node000002" class="edge">
<title>Node2&#45;&gt;Node1</title>
<g id="a_edge1_Node000001_Node000002"><a xlink:title=" ">
<path fill="none" stroke="#63b8ff" d="M83.88,-188.77C83.88,-181.03 83.88,-172.55 83.88,-163.87"/>
<polygon fill="none" stroke="#63b8ff" points="80.38,-188.75 83.88,-198.75 87.38,-188.75 80.38,-188.75"/>
</a>
</g>
</g>
</g>
</svg>
</svg>

<style type='text/css'>
<![CDATA[
[data-mouse-over-selected='false'] { opacity: 0.7; }
[data-mouse-over-selected='true']  { opacity: 1.0; }
]]>
</style>
<script type="application/ecmascript"><![CDATA[
document.addEventListener('DOMContentLoaded', (event) => {
  highlightEdges();
  highlightAdjacentNodes();
});
]]></script>
</svg>
