<?xml version="1.0" encoding="UTF-8" standalone="no"?>
<!DOCTYPE svg PUBLIC "-//W3C//DTD SVG 1.1//EN"
 "http://www.w3.org/Graphics/SVG/1.1/DTD/svg11.dtd">
<!-- Generated by graphviz version 13.1.2 (20250808.2320)
 -->
<!-- Title: editeurpanovisu.EditeurPanovisu.getVbChoixPanoramique Pages: 1 -->
<!--zoomable 579 -->

<svg id="main" version="1.1" xmlns="http://www.w3.org/2000/svg" xmlns:xlink="http://www.w3.org/1999/xlink" xml:space="preserve" onload="init(evt)">

<style type="text/css"><![CDATA[
.node, .edge {opacity: 0.7;}
.node.selected, .edge.selected {opacity: 1;}
.edge:hover path { stroke: red; }
.edge:hover polygon { stroke: red; fill: red; }
]]></style>

<defs>
  <circle id="rim" cx="0" cy="0" r="7"/>
  <circle id="rim2" cx="0" cy="0" r="3.5"/>
  <g id="zoomPlus">
    <use xlink:href="#rim" fill="#404040"><set attributeName="fill" to="#808080" begin="zoomplus.mouseover" end="zoomplus.mouseout"/></use>
    <path d="M-4,0h8M0,-4v8" fill="none" stroke="white" stroke-width="1.5" pointer-events="none"/>
  </g>
  <g id="zoomMin">
    <use xlink:href="#rim" fill="#404040"><set attributeName="fill" to="#808080" begin="zoomminus.mouseover" end="zoomminus.mouseout"/></use>
    <path d="M-4,0h8" fill="none" stroke="white" stroke-width="1.5" pointer-events="none"/>
  </g>
  <g id="arrowUp" transform="translate(30 24)">
    <use xlink:href="#rim"/>
    <path pointer-events="none" fill="none" stroke="white" stroke-width="1.5" d="M0,-3.0v7 M-2.5,-0.5L0,-3.0L2.5,-0.5"/>
  </g>
  <g id="arrowRight" transform="rotate(90) translate(36 -43)">
    <use xlink:href="#rim"/>
    <path pointer-events="none" fill="none" stroke="white" stroke-width="1.5" d="M0,-3.0v7 M-2.5,-0.5L0,-3.0L2.5,-0.5"/>
  </g>
  <g id="arrowDown" transform="rotate(180) translate(-30 -48)">
    <use xlink:href="#rim"/>
    <path pointer-events="none" fill="none" stroke="white" stroke-width="1.5" d="M0,-3.0v7 M-2.5,-0.5L0,-3.0L2.5,-0.5"/>
  </g>
  <g id="arrowLeft" transform="rotate(270) translate(-36 17)">
    <use xlink:href="#rim"/>
    <path pointer-events="none" fill="none" stroke="white" stroke-width="1.5" d="M0,-3.0v7 M-2.5,-0.5L0,-3.0L2.5,-0.5"/>
  </g>
  <g id="resetDef">
    <use xlink:href="#rim2" fill="#404040"><set attributeName="fill" to="#808080" begin="reset.mouseover" end="reset.mouseout"/></use>
  </g>
</defs>
<script type="application/ecmascript">
var viewWidth = 2237;
var viewHeight = 579;
var sectionId = 'dynsection-123';
</script>
<script type="application/ecmascript" xlink:href="svg.min.js"/>
<svg id="graph" class="graph">
<g id="viewport">
<title>editeurpanovisu.EditeurPanovisu.getVbChoixPanoramique</title>
<!-- Node1 -->
<g id="Node000001" class="node">
<title>Node1</title>
<g id="a_Node000001"><a xlink:title=" ">
<polygon fill="#999999" stroke="#666666" points="2229.25,-398.88 2054.25,-398.88 2054.25,-366.88 2229.25,-366.88 2229.25,-398.88"/>
<text xml:space="preserve" text-anchor="start" x="2062.25" y="-385.38" font-family="Helvetica,sans-Serif" font-size="10.00">editeurpanovisu.EditeurPanovisu.get</text>
<text xml:space="preserve" text-anchor="middle" x="2141.75" y="-373.38" font-family="Helvetica,sans-Serif" font-size="10.00">VbChoixPanoramique</text>
</a>
</g>
</g>
<!-- Node2 -->
<g id="Node000002" class="node">
<title>Node2</title>
<g id="a_Node000002"><a xlink:href="classediteurpanovisu_1_1EditeurPanovisu.html#a86c393eee88f54c694db994ddd85b90d" target="_top" xlink:title=" ">
<polygon fill="white" stroke="#666666" points="180.25,-538.88 0,-538.88 0,-506.88 180.25,-506.88 180.25,-538.88"/>
<text xml:space="preserve" text-anchor="start" x="8" y="-525.38" font-family="Helvetica,sans-Serif" font-size="10.00">editeurpanovisu.EditeurPanovisu.cree</text>
<text xml:space="preserve" text-anchor="middle" x="90.12" y="-513.38" font-family="Helvetica,sans-Serif" font-size="10.00">Environnement</text>
</a>
</g>
</g>
<!-- Node1&#45;&gt;Node2 -->
<g id="edge1_Node000001_Node000002" class="edge">
<title>Node1&#45;&gt;Node2</title>
<g id="a_edge1_Node000001_Node000002"><a xlink:title=" ">
<path fill="none" stroke="#63b8ff" d="M2126.1,-409.15C2106.27,-441.97 2067.62,-497.08 2018.25,-523.88 1897.21,-589.59 1849.1,-566.88 1711.38,-566.88 1711.38,-566.88 1711.38,-566.88 550.88,-566.88 421.78,-566.88 273.22,-549.48 180.74,-536.56"/>
<polygon fill="#63b8ff" stroke="#63b8ff" points="2129.05,-411.04 2131.1,-400.65 2123.02,-407.49 2129.05,-411.04"/>
</a>
</g>
</g>
<!-- Node3 -->
<g id="Node000003" class="node">
<title>Node3</title>
<g id="a_Node000003"><a xlink:href="classediteurpanovisu_1_1EditeurPanovisu.html#a31698230ca6021fb284e21e7a35135d0" target="_top" xlink:title="Génère une description IA pour le panoramique courant.">
<polygon fill="white" stroke="#666666" points="1807.25,-538.88 1613.5,-538.88 1613.5,-506.88 1807.25,-506.88 1807.25,-538.88"/>
<text xml:space="preserve" text-anchor="start" x="1621.5" y="-525.38" font-family="Helvetica,sans-Serif" font-size="10.00">editeurpanovisu.EditeurPanovisu.generer</text>
<text xml:space="preserve" text-anchor="middle" x="1710.38" y="-513.38" font-family="Helvetica,sans-Serif" font-size="10.00">DescriptionIA</text>
</a>
</g>
</g>
<!-- Node1&#45;&gt;Node3 -->
<g id="edge2_Node000001_Node000003" class="edge">
<title>Node1&#45;&gt;Node3</title>
<g id="a_edge2_Node000001_Node000003"><a xlink:title=" ">
<path fill="none" stroke="#63b8ff" d="M2121.52,-407.69C2099.64,-433.88 2061.31,-473.93 2018.25,-492.88 1951.98,-522.04 1870.08,-528.77 1807.56,-528.62"/>
<polygon fill="#63b8ff" stroke="#63b8ff" points="2123.99,-410.2 2127.6,-400.24 2118.57,-405.77 2123.99,-410.2"/>
</a>
</g>
</g>
<!-- Node4 -->
<g id="Node000004" class="node">
<title>Node4</title>
<g id="a_Node000004"><a xlink:href="classediteurpanovisu_1_1EditeurPanovisu.html#a94e36b9e9d09ab1a4c852b8a8cefa927" target="_top" xlink:title=" ">
<polygon fill="white" stroke="#666666" points="647.25,-351.88 456.5,-351.88 456.5,-319.88 647.25,-319.88 647.25,-351.88"/>
<text xml:space="preserve" text-anchor="start" x="464.5" y="-338.38" font-family="Helvetica,sans-Serif" font-size="10.00">editeurpanovisu.EditeurPanovisu.genere</text>
<text xml:space="preserve" text-anchor="middle" x="551.88" y="-326.38" font-family="Helvetica,sans-Serif" font-size="10.00">Visite</text>
</a>
</g>
</g>
<!-- Node1&#45;&gt;Node4 -->
<g id="edge4_Node000001_Node000004" class="edge">
<title>Node1&#45;&gt;Node4</title>
<g id="a_edge4_Node000001_Node000004"><a xlink:title=" ">
<path fill="none" stroke="#63b8ff" d="M2086.9,-402.94C2006.4,-431.08 1849.36,-478.88 1711.38,-478.88 1711.38,-478.88 1711.38,-478.88 1260,-478.88 1007,-478.88 712.99,-389.85 600.22,-352.28"/>
<polygon fill="#63b8ff" stroke="#63b8ff" points="2087.58,-406.41 2095.85,-399.78 2085.25,-399.81 2087.58,-406.41"/>
</a>
</g>
</g>
<!-- Node6 -->
<g id="Node000006" class="node">
<title>Node6</title>
<g id="a_Node000006"><a xlink:href="classediteurpanovisu_1_1EditeurPanovisu.html#ab4beb1597b660a4a253befc6e76f1c54" target="_top" xlink:title=" ">
<polygon fill="white" stroke="#666666" points="1129.62,-122.88 944.12,-122.88 944.12,-90.88 1129.62,-90.88 1129.62,-122.88"/>
<text xml:space="preserve" text-anchor="start" x="952.12" y="-109.38" font-family="Helvetica,sans-Serif" font-size="10.00">editeurpanovisu.EditeurPanovisu.projet</text>
<text xml:space="preserve" text-anchor="middle" x="1036.88" y="-97.38" font-family="Helvetica,sans-Serif" font-size="10.00">Charge</text>
</a>
</g>
</g>
<!-- Node1&#45;&gt;Node6 -->
<g id="edge7_Node000001_Node000006" class="edge">
<title>Node1&#45;&gt;Node6</title>
<g id="a_edge7_Node000001_Node000006"><a xlink:title=" ">
<path fill="none" stroke="#63b8ff" d="M2132.68,-355.86C2117.77,-310.82 2081.54,-220.72 2018.25,-173.88 1905.56,-90.48 1851.57,-100.88 1711.38,-100.88 1711.38,-100.88 1711.38,-100.88 1482.62,-100.88 1360.62,-100.88 1219.8,-103.17 1129.86,-104.92"/>
<polygon fill="#63b8ff" stroke="#63b8ff" points="2129.25,-356.64 2135.63,-365.1 2135.92,-354.51 2129.25,-356.64"/>
</a>
</g>
</g>
<!-- Node7 -->
<g id="Node000007" class="node">
<title>Node7</title>
<g id="a_Node000007"><a xlink:href="classediteurpanovisu_1_1EditeurPanovisu.html#a6d19b4d885ee6fcec827b91956295732" target="_top" xlink:title=" ">
<polygon fill="white" stroke="#666666" points="1803.12,-292.88 1617.62,-292.88 1617.62,-260.88 1803.12,-260.88 1803.12,-292.88"/>
<text xml:space="preserve" text-anchor="start" x="1625.62" y="-279.38" font-family="Helvetica,sans-Serif" font-size="10.00">editeurpanovisu.EditeurPanovisu.projet</text>
<text xml:space="preserve" text-anchor="middle" x="1710.38" y="-267.38" font-family="Helvetica,sans-Serif" font-size="10.00">ChargeNom</text>
</a>
</g>
</g>
<!-- Node1&#45;&gt;Node7 -->
<g id="edge9_Node000001_Node000007" class="edge">
<title>Node1&#45;&gt;Node7</title>
<g id="a_edge9_Node000001_Node000007"><a xlink:title=" ">
<path fill="none" stroke="#63b8ff" d="M2062.96,-363.68C1981.57,-343.58 1855.16,-312.38 1778.15,-293.37"/>
<polygon fill="#63b8ff" stroke="#63b8ff" points="2062.11,-367.07 2072.66,-366.07 2063.79,-360.28 2062.11,-367.07"/>
</a>
</g>
</g>
<!-- Node11 -->
<g id="Node000011" class="node">
<title>Node11</title>
<g id="a_Node000011"><a xlink:href="classediteurpanovisu_1_1EditeurPanovisu.html#ac9d449399ccd38843fa12e716f0c9611" target="_top" xlink:title=" ">
<polygon fill="white" stroke="#666666" points="1132.25,-412.88 941.5,-412.88 941.5,-380.88 1132.25,-380.88 1132.25,-412.88"/>
<text xml:space="preserve" text-anchor="start" x="949.5" y="-399.38" font-family="Helvetica,sans-Serif" font-size="10.00">editeurpanovisu.EditeurPanovisu.projets</text>
<text xml:space="preserve" text-anchor="middle" x="1036.88" y="-387.38" font-family="Helvetica,sans-Serif" font-size="10.00">Nouveau</text>
</a>
</g>
</g>
<!-- Node1&#45;&gt;Node11 -->
<g id="edge29_Node000001_Node000011" class="edge">
<title>Node1&#45;&gt;Node11</title>
<g id="a_edge29_Node000001_Node000011"><a xlink:title=" ">
<path fill="none" stroke="#63b8ff" d="M2042.53,-382.88C1955.51,-382.88 1824.99,-382.88 1711.38,-382.88 1711.38,-382.88 1711.38,-382.88 1482.62,-382.88 1361.73,-382.88 1222.43,-388.11 1132.42,-392.18"/>
<polygon fill="#63b8ff" stroke="#63b8ff" points="2042.47,-386.38 2052.47,-382.88 2042.47,-379.38 2042.47,-386.38"/>
</a>
</g>
</g>
<!-- Node15 -->
<g id="Node000015" class="node">
<title>Node15</title>
<g id="a_Node000015"><a xlink:href="classediteurpanovisu_1_1EditeurPanovisu.html#aaee69ab54364f89b58458c744a4195c0" target="_top" xlink:title=" ">
<polygon fill="white" stroke="#666666" points="1577.5,-160.88 1389.75,-160.88 1389.75,-128.88 1577.5,-128.88 1577.5,-160.88"/>
<text xml:space="preserve" text-anchor="start" x="1397.75" y="-147.38" font-family="Helvetica,sans-Serif" font-size="10.00">editeurpanovisu.EditeurPanovisu.sauve</text>
<text xml:space="preserve" text-anchor="middle" x="1483.62" y="-135.38" font-family="Helvetica,sans-Serif" font-size="10.00">FichierProjet</text>
</a>
</g>
</g>
<!-- Node1&#45;&gt;Node15 -->
<g id="edge30_Node000001_Node000015" class="edge">
<title>Node1&#45;&gt;Node15</title>
<g id="a_edge30_Node000001_Node000015"><a xlink:title=" ">
<path fill="none" stroke="#63b8ff" d="M2122.75,-357.32C2101.01,-328.14 2061.88,-280.74 2018.25,-251.88 1883.69,-162.87 1691.23,-145 1577.97,-142.96"/>
<polygon fill="#63b8ff" stroke="#63b8ff" points="2119.81,-359.24 2128.54,-365.24 2125.46,-355.1 2119.81,-359.24"/>
</a>
</g>
</g>
<!-- Node16 -->
<g id="Node000016" class="node">
<title>Node16</title>
<g id="a_Node000016"><a xlink:href="classediteurpanovisu_1_1EditeurPanovisu.html#a87b29dc258cfc67370b1f27809e91b8e" target="_top" xlink:title=" ">
<polygon fill="white" stroke="#666666" points="2018.25,-292.88 1843.25,-292.88 1843.25,-260.88 2018.25,-260.88 2018.25,-292.88"/>
<text xml:space="preserve" text-anchor="start" x="1851.25" y="-279.38" font-family="Helvetica,sans-Serif" font-size="10.00">editeurpanovisu.EditeurPanovisu.tsk</text>
<text xml:space="preserve" text-anchor="middle" x="1930.75" y="-267.38" font-family="Helvetica,sans-Serif" font-size="10.00">AnalyseFichierPVU</text>
</a>
</g>
</g>
<!-- Node1&#45;&gt;Node16 -->
<g id="edge33_Node000001_Node000016" class="edge">
<title>Node1&#45;&gt;Node16</title>
<g id="a_edge33_Node000001_Node000016"><a xlink:title=" ">
<path fill="none" stroke="#63b8ff" d="M2103.16,-360.83C2079.17,-347.05 2047.23,-329.25 2018.25,-314.88 2003.11,-307.38 1986.16,-299.76 1971.29,-293.33"/>
<polygon fill="#63b8ff" stroke="#63b8ff" points="2101.2,-363.74 2111.61,-365.71 2104.7,-357.68 2101.2,-363.74"/>
</a>
</g>
</g>
<!-- Node17 -->
<g id="Node000017" class="node">
<title>Node17</title>
<g id="a_Node000017"><a xlink:href="classediteurpanovisu_1_1EditeurPanovisu.html#a53cccf6a6b2693c872947460b66ae8ee" target="_top" xlink:title=" ">
<polygon fill="white" stroke="#666666" points="1348.5,-442.88 1173.5,-442.88 1173.5,-410.88 1348.5,-410.88 1348.5,-442.88"/>
<text xml:space="preserve" text-anchor="start" x="1181.5" y="-429.38" font-family="Helvetica,sans-Serif" font-size="10.00">editeurpanovisu.EditeurPanovisu.tsk</text>
<text xml:space="preserve" text-anchor="middle" x="1261" y="-417.38" font-family="Helvetica,sans-Serif" font-size="10.00">ChargeListeFichiers</text>
</a>
</g>
</g>
<!-- Node1&#45;&gt;Node17 -->
<g id="edge36_Node000001_Node000017" class="edge">
<title>Node1&#45;&gt;Node17</title>
<g id="a_edge36_Node000001_Node000017"><a xlink:title=" ">
<path fill="none" stroke="#63b8ff" d="M2042.61,-394.75C2034.38,-395.55 2026.17,-396.27 2018.25,-396.88 1776.21,-415.49 1489.65,-422.86 1348.89,-425.53"/>
<polygon fill="#63b8ff" stroke="#63b8ff" points="2042.72,-398.25 2052.32,-393.77 2042.02,-391.29 2042.72,-398.25"/>
</a>
</g>
</g>
<!-- Node3&#45;&gt;Node2 -->
<g id="edge3_Node000003_Node000002" class="edge">
<title>Node3&#45;&gt;Node2</title>
<g id="a_edge3_Node000003_Node000002"><a xlink:title=" ">
<path fill="none" stroke="#63b8ff" d="M1601.99,-522.88C1511.36,-522.88 1378.19,-522.88 1262,-522.88 1262,-522.88 1262,-522.88 550.88,-522.88 422.17,-522.88 273.2,-522.88 180.55,-522.88"/>
<polygon fill="#63b8ff" stroke="#63b8ff" points="1601.87,-526.38 1611.87,-522.88 1601.87,-519.38 1601.87,-526.38"/>
</a>
</g>
</g>
<!-- Node5 -->
<g id="Node000005" class="node">
<title>Node5</title>
<g id="a_Node000005"><a xlink:href="classediteurpanovisu_1_1EditeurPanovisu.html#ac912b80c1f2ac97def60ff005c5c480b" target="_top" xlink:title=" ">
<polygon fill="white" stroke="#666666" points="420.5,-289.88 216.25,-289.88 216.25,-269.88 420.5,-269.88 420.5,-289.88"/>
<text xml:space="preserve" text-anchor="middle" x="318.38" y="-276.38" font-family="Helvetica,sans-Serif" font-size="10.00">editeurpanovisu.EditeurPanovisu.creeMenu</text>
</a>
</g>
</g>
<!-- Node4&#45;&gt;Node5 -->
<g id="edge5_Node000004_Node000005" class="edge">
<title>Node4&#45;&gt;Node5</title>
<g id="a_edge5_Node000004_Node000005"><a xlink:title=" ">
<path fill="none" stroke="#63b8ff" d="M471.54,-316.69C435.08,-307.87 393.25,-297.75 362.69,-290.36"/>
<polygon fill="#63b8ff" stroke="#63b8ff" points="470.66,-320.08 481.2,-319.03 472.3,-313.27 470.66,-320.08"/>
</a>
</g>
</g>
<!-- Node5&#45;&gt;Node2 -->
<g id="edge6_Node000005_Node000002" class="edge">
<title>Node5&#45;&gt;Node2</title>
<g id="a_edge6_Node000005_Node000002"><a xlink:title=" ">
<path fill="none" stroke="#63b8ff" d="M300.03,-298.51C257.22,-344.49 147.06,-462.8 106.45,-506.42"/>
<polygon fill="#63b8ff" stroke="#63b8ff" points="302.37,-301.13 306.62,-291.43 297.25,-296.36 302.37,-301.13"/>
</a>
</g>
</g>
<!-- Node6&#45;&gt;Node5 -->
<g id="edge8_Node000006_Node000005" class="edge">
<title>Node6&#45;&gt;Node5</title>
<g id="a_edge8_Node000006_Node000005"><a xlink:title=" ">
<path fill="none" stroke="#63b8ff" d="M932.27,-90.15C811.99,-75.57 610.45,-66.46 456.5,-136.88 391.75,-166.5 342.06,-241.72 325.41,-269.43"/>
<polygon fill="#63b8ff" stroke="#63b8ff" points="931.8,-93.61 942.15,-91.38 932.67,-86.67 931.8,-93.61"/>
</a>
</g>
</g>
<!-- Node7&#45;&gt;Node5 -->
<g id="edge28_Node000007_Node000005" class="edge">
<title>Node7&#45;&gt;Node5</title>
<g id="a_edge28_Node000007_Node000005"><a xlink:title=" ">
<path fill="none" stroke="#63b8ff" d="M1605.92,-285.98C1596.32,-286.68 1586.73,-287.33 1577.5,-287.88 1478.17,-293.8 1453.24,-294.1 1353.75,-295.88 1011.67,-301.99 605.92,-290.15 420.68,-283.69"/>
<polygon fill="#63b8ff" stroke="#63b8ff" points="1605.97,-289.49 1615.68,-285.25 1605.44,-282.51 1605.97,-289.49"/>
</a>
</g>
</g>
<!-- Node8 -->
<g id="Node000008" class="node">
<title>Node8</title>
<g id="a_Node000008"><a xlink:href="classediteurpanovisu_1_1EditeurPanovisu.html#af0d1c32bb78acbff561c822a0d15f760" target="_top" xlink:title=" ">
<polygon fill="white" stroke="#666666" points="1577.5,-248.88 1389.75,-248.88 1389.75,-216.88 1577.5,-216.88 1577.5,-248.88"/>
<text xml:space="preserve" text-anchor="start" x="1397.75" y="-235.38" font-family="Helvetica,sans-Serif" font-size="10.00">editeurpanovisu.EditeurPanovisu.ajoute</text>
<text xml:space="preserve" text-anchor="middle" x="1483.62" y="-223.38" font-family="Helvetica,sans-Serif" font-size="10.00">FichierHisto</text>
</a>
</g>
</g>
<!-- Node7&#45;&gt;Node8 -->
<g id="edge10_Node000007_Node000008" class="edge">
<title>Node7&#45;&gt;Node8</title>
<g id="a_edge10_Node000007_Node000008"><a xlink:title=" ">
<path fill="none" stroke="#63b8ff" d="M1644.04,-257.9C1623.34,-253.32 1600.03,-248.61 1577.77,-244.45"/>
<polygon fill="#63b8ff" stroke="#63b8ff" points="1643.25,-261.31 1653.78,-260.09 1644.79,-254.48 1643.25,-261.31"/>
</a>
</g>
</g>
<!-- Node8&#45;&gt;Node6 -->
<g id="edge11_Node000008_Node000006" class="edge">
<title>Node8&#45;&gt;Node6</title>
<g id="a_edge11_Node000008_Node000006"><a xlink:title=" ">
<path fill="none" stroke="#63b8ff" d="M1378.12,-233.26C1300.26,-231.65 1201.83,-225.04 1168.25,-202.88 1140.36,-184.48 1158.03,-158.14 1132.25,-136.88 1125.62,-131.41 1117.98,-126.93 1109.97,-123.27"/>
<polygon fill="#63b8ff" stroke="#63b8ff" points="1377.88,-236.76 1387.94,-233.44 1378,-229.76 1377.88,-236.76"/>
</a>
</g>
</g>
<!-- Node8&#45;&gt;Node7 -->
<g id="edge12_Node000008_Node000007" class="edge">
<title>Node8&#45;&gt;Node7</title>
<g id="a_edge12_Node000008_Node000007"><a xlink:title=" ">
<path fill="none" stroke="#63b8ff" d="M1549.91,-251.86C1570.96,-256.5 1594.71,-261.31 1617.31,-265.51"/>
<polygon fill="#63b8ff" stroke="#63b8ff" points="1550.85,-248.48 1540.32,-249.7 1549.31,-255.31 1550.85,-248.48"/>
</a>
</g>
</g>
<!-- Node9 -->
<g id="Node000009" class="node">
<title>Node9</title>
<g id="a_Node000009"><a xlink:href="classediteurpanovisu_1_1EditeurPanovisu.html#a9f3ea25b35d4884524508dab3dc4fd6a" target="_top" xlink:title=" ">
<polygon fill="white" stroke="#666666" points="1353.75,-286.88 1168.25,-286.88 1168.25,-254.88 1353.75,-254.88 1353.75,-286.88"/>
<text xml:space="preserve" text-anchor="start" x="1176.25" y="-273.38" font-family="Helvetica,sans-Serif" font-size="10.00">editeurpanovisu.EditeurPanovisu.projet</text>
<text xml:space="preserve" text-anchor="middle" x="1261" y="-261.38" font-family="Helvetica,sans-Serif" font-size="10.00">Sauve</text>
</a>
</g>
</g>
<!-- Node8&#45;&gt;Node9 -->
<g id="edge13_Node000008_Node000009" class="edge">
<title>Node8&#45;&gt;Node9</title>
<g id="a_edge13_Node000008_Node000009"><a xlink:title=" ">
<path fill="none" stroke="#63b8ff" d="M1378.13,-250.88C1370.14,-252.26 1362.11,-253.64 1354.21,-255"/>
<polygon fill="#63b8ff" stroke="#63b8ff" points="1378.63,-254.34 1387.89,-249.2 1377.44,-247.45 1378.63,-254.34"/>
</a>
</g>
</g>
<!-- Node14 -->
<g id="Node000014" class="node">
<title>Node14</title>
<g id="a_Node000014"><a xlink:href="classediteurpanovisu_1_1EditeurPanovisu.html#a7b2e25dc717eb52b62e23d54ec4c124a" target="_top" xlink:title=" ">
<polygon fill="white" stroke="#666666" points="1353.75,-160.88 1168.25,-160.88 1168.25,-128.88 1353.75,-128.88 1353.75,-160.88"/>
<text xml:space="preserve" text-anchor="start" x="1176.25" y="-147.38" font-family="Helvetica,sans-Serif" font-size="10.00">editeurpanovisu.EditeurPanovisu.projet</text>
<text xml:space="preserve" text-anchor="middle" x="1261" y="-135.38" font-family="Helvetica,sans-Serif" font-size="10.00">SauveSous</text>
</a>
</g>
</g>
<!-- Node8&#45;&gt;Node14 -->
<g id="edge26_Node000008_Node000014" class="edge">
<title>Node8&#45;&gt;Node14</title>
<g id="a_edge26_Node000008_Node000014"><a xlink:title=" ">
<path fill="none" stroke="#63b8ff" d="M1430.78,-212.2C1391.8,-196.65 1339.11,-175.64 1303.04,-161.25"/>
<polygon fill="#63b8ff" stroke="#63b8ff" points="1429.39,-215.42 1439.98,-215.87 1431.99,-208.92 1429.39,-215.42"/>
</a>
</g>
</g>
<!-- Node9&#45;&gt;Node4 -->
<g id="edge15_Node000009_Node000004" class="edge">
<title>Node9&#45;&gt;Node4</title>
<g id="a_edge15_Node000009_Node000004"><a xlink:title=" ">
<path fill="none" stroke="#63b8ff" d="M1156.5,-276.47C1094.16,-280.15 1013.21,-285.46 941.5,-291.88 840.9,-300.89 726,-314.28 647.38,-323.93"/>
<polygon fill="#63b8ff" stroke="#63b8ff" points="1156.63,-279.97 1166.41,-275.89 1156.22,-272.98 1156.63,-279.97"/>
</a>
</g>
</g>
<!-- Node9&#45;&gt;Node5 -->
<g id="edge14_Node000009_Node000005" class="edge">
<title>Node9&#45;&gt;Node5</title>
<g id="a_edge14_Node000009_Node000005"><a xlink:title=" ">
<path fill="none" stroke="#63b8ff" d="M1195.99,-249.75C1186.09,-244.82 1176.44,-238.9 1168.25,-231.88 1145.21,-212.14 1158.73,-188.69 1132.25,-173.88 1045.16,-125.18 782.94,-168.71 683.25,-172.88 582.21,-177.11 552.27,-159.39 456.5,-191.88 405.07,-209.33 353.65,-250.11 331.16,-269.4"/>
<polygon fill="#63b8ff" stroke="#63b8ff" points="1194.43,-252.88 1204.98,-253.9 1197.37,-246.53 1194.43,-252.88"/>
</a>
</g>
</g>
<!-- Node9&#45;&gt;Node6 -->
<g id="edge16_Node000009_Node000006" class="edge">
<title>Node9&#45;&gt;Node6</title>
<g id="a_edge16_Node000009_Node000006"><a xlink:title=" ">
<path fill="none" stroke="#63b8ff" d="M1177.99,-248.85C1174.51,-246.46 1171.23,-243.81 1168.25,-240.88 1133.37,-206.59 1167.27,-171.02 1132.25,-136.88 1126.59,-131.36 1119.91,-126.86 1112.77,-123.18"/>
<polygon fill="#63b8ff" stroke="#63b8ff" points="1175.94,-251.7 1186.32,-253.81 1179.52,-245.69 1175.94,-251.7"/>
</a>
</g>
</g>
<!-- Node9&#45;&gt;Node7 -->
<g id="edge17_Node000009_Node000007" class="edge">
<title>Node9&#45;&gt;Node7</title>
<g id="a_edge17_Node000009_Node000007"><a xlink:title=" ">
<path fill="none" stroke="#63b8ff" d="M1365.53,-272.27C1441.58,-273.29 1543.99,-274.66 1617.22,-275.65"/>
<polygon fill="#63b8ff" stroke="#63b8ff" points="1365.59,-268.77 1355.55,-272.14 1365.5,-275.77 1365.59,-268.77"/>
</a>
</g>
</g>
<!-- Node10 -->
<g id="Node000010" class="node">
<title>Node10</title>
<g id="a_Node000010"><a xlink:href="classediteurpanovisu_1_1EditeurPanovisu.html#a9b46b222714af12c06ec33d410400773" target="_top" xlink:title=" ">
<polygon fill="white" stroke="#666666" points="647.25,-232.88 456.5,-232.88 456.5,-200.88 647.25,-200.88 647.25,-232.88"/>
<text xml:space="preserve" text-anchor="start" x="464.5" y="-219.38" font-family="Helvetica,sans-Serif" font-size="10.00">editeurpanovisu.EditeurPanovisu.projets</text>
<text xml:space="preserve" text-anchor="middle" x="551.88" y="-207.38" font-family="Helvetica,sans-Serif" font-size="10.00">Fermer</text>
</a>
</g>
</g>
<!-- Node9&#45;&gt;Node10 -->
<g id="edge18_Node000009_Node000010" class="edge">
<title>Node9&#45;&gt;Node10</title>
<g id="a_edge18_Node000009_Node000010"><a xlink:title=" ">
<path fill="none" stroke="#63b8ff" d="M1206.28,-250.03C1193.59,-244.56 1180.27,-238.37 1168.25,-231.88 1151.33,-222.75 1150.65,-213.45 1132.25,-207.88 960.87,-155.99 747.71,-180.61 633.73,-200.43"/>
<polygon fill="#63b8ff" stroke="#63b8ff" points="1204.77,-253.19 1215.35,-253.85 1207.49,-246.74 1204.77,-253.19"/>
</a>
</g>
</g>
<!-- Node9&#45;&gt;Node11 -->
<g id="edge20_Node000009_Node000011" class="edge">
<title>Node9&#45;&gt;Node11</title>
<g id="a_edge20_Node000009_Node000011"><a xlink:title=" ">
<path fill="none" stroke="#63b8ff" d="M1233.87,-294.73C1209.22,-316.15 1170.46,-347.18 1132.25,-366.88 1122.16,-372.08 1111.01,-376.59 1100,-380.43"/>
<polygon fill="#63b8ff" stroke="#63b8ff" points="1235.96,-297.55 1241.15,-288.31 1231.33,-292.3 1235.96,-297.55"/>
</a>
</g>
</g>
<!-- Node12 -->
<g id="Node000012" class="node">
<title>Node12</title>
<g id="a_Node000012"><a xlink:href="classediteurpanovisu_1_1EditeurPanovisu.html#a2b3125ffe2e6291efacf19df6cb30a8d" target="_top" xlink:title=" ">
<polygon fill="white" stroke="#666666" points="884.88,-365.88 703.88,-365.88 703.88,-345.88 884.88,-345.88 884.88,-365.88"/>
<text xml:space="preserve" text-anchor="middle" x="794.38" y="-352.38" font-family="Helvetica,sans-Serif" font-size="10.00">editeurpanovisu.EditeurPanovisu.start</text>
</a>
</g>
</g>
<!-- Node9&#45;&gt;Node12 -->
<g id="edge25_Node000009_Node000012" class="edge">
<title>Node9&#45;&gt;Node12</title>
<g id="a_edge25_Node000009_Node000012"><a xlink:title=" ">
<path fill="none" stroke="#63b8ff" d="M1158.65,-289.42C1064.89,-306.57 928.87,-331.46 852.66,-345.4"/>
<polygon fill="#63b8ff" stroke="#63b8ff" points="1159.17,-292.89 1168.38,-287.64 1157.91,-286 1159.17,-292.89"/>
</a>
</g>
</g>
<!-- Node13 -->
<g id="Node000013" class="node">
<title>Node13</title>
<g id="a_Node000013"><a xlink:href="classediteurpanovisu_1_1EditeurPanovisu.html#aef8c9b28c3e88d6e27e3f62b9a901134" target="_top" xlink:title=" ">
<polygon fill="white" stroke="#666666" points="1130.75,-248.88 943,-248.88 943,-216.88 1130.75,-216.88 1130.75,-248.88"/>
<text xml:space="preserve" text-anchor="start" x="951" y="-235.38" font-family="Helvetica,sans-Serif" font-size="10.00">editeurpanovisu.EditeurPanovisu.sauve</text>
<text xml:space="preserve" text-anchor="middle" x="1036.88" y="-223.38" font-family="Helvetica,sans-Serif" font-size="10.00">Fichiers</text>
</a>
</g>
</g>
<!-- Node9&#45;&gt;Node13 -->
<g id="edge24_Node000009_Node000013" class="edge">
<title>Node9&#45;&gt;Node13</title>
<g id="a_edge24_Node000009_Node000013"><a xlink:title=" ">
<path fill="none" stroke="#63b8ff" d="M1156.85,-253.23C1148.29,-251.77 1139.67,-250.3 1131.19,-248.84"/>
<polygon fill="#63b8ff" stroke="#63b8ff" points="1156.11,-256.66 1166.56,-254.9 1157.29,-249.76 1156.11,-256.66"/>
</a>
</g>
</g>
<!-- Node10&#45;&gt;Node5 -->
<g id="edge19_Node000010_Node000005" class="edge">
<title>Node10&#45;&gt;Node5</title>
<g id="a_edge19_Node000010_Node000005"><a xlink:title=" ">
<path fill="none" stroke="#63b8ff" d="M479.28,-236.36C439.18,-247.28 390.76,-260.45 357.78,-269.43"/>
<polygon fill="#63b8ff" stroke="#63b8ff" points="480.16,-239.75 488.89,-233.75 478.32,-233 480.16,-239.75"/>
</a>
</g>
</g>
<!-- Node11&#45;&gt;Node5 -->
<g id="edge21_Node000011_Node000005" class="edge">
<title>Node11&#45;&gt;Node5</title>
<g id="a_edge21_Node000011_Node000005"><a xlink:title=" ">
<path fill="none" stroke="#63b8ff" d="M929.96,-404.9C811.75,-410.53 616.1,-409.87 456.5,-360.88 406.28,-345.47 355.07,-308.31 332,-290.18"/>
<polygon fill="#63b8ff" stroke="#63b8ff" points="929.84,-408.41 939.65,-404.41 929.48,-401.42 929.84,-408.41"/>
</a>
</g>
</g>
<!-- Node11&#45;&gt;Node12 -->
<g id="edge22_Node000011_Node000012" class="edge">
<title>Node11&#45;&gt;Node12</title>
<g id="a_edge22_Node000011_Node000012"><a xlink:title=" ">
<path fill="none" stroke="#63b8ff" d="M930.1,-378.85C905.02,-374.57 879.09,-370.15 856.75,-366.34"/>
<polygon fill="#63b8ff" stroke="#63b8ff" points="929.23,-382.25 939.68,-380.48 930.41,-375.35 929.23,-382.25"/>
</a>
</g>
</g>
<!-- Node12&#45;&gt;Node4 -->
<g id="edge23_Node000012_Node000004" class="edge">
<title>Node12&#45;&gt;Node4</title>
<g id="a_edge23_Node000012_Node000004"><a xlink:title=" ">
<path fill="none" stroke="#63b8ff" d="M692.23,-347.47C677.4,-346.24 662.18,-344.97 647.49,-343.75"/>
<polygon fill="#63b8ff" stroke="#63b8ff" points="691.72,-350.94 701.97,-348.28 692.3,-343.96 691.72,-350.94"/>
</a>
</g>
</g>
<!-- Node14&#45;&gt;Node5 -->
<g id="edge27_Node000014_Node000005" class="edge">
<title>Node14&#45;&gt;Node5</title>
<g id="a_edge27_Node000014_Node000005"><a xlink:title=" ">
<path fill="none" stroke="#63b8ff" d="M1225.66,-122.79C1200.8,-108.12 1165.82,-90.1 1132.25,-81.88 840.53,-10.46 720.7,58.94 456.5,-83.88 377.96,-126.34 334.62,-235.73 322.76,-269.68"/>
<polygon fill="#63b8ff" stroke="#63b8ff" points="1223.66,-125.67 1234.03,-127.85 1227.28,-119.68 1223.66,-125.67"/>
</a>
</g>
</g>
<!-- Node15&#45;&gt;Node9 -->
<g id="edge31_Node000015_Node000009" class="edge">
<title>Node15&#45;&gt;Node9</title>
<g id="a_edge31_Node000015_Node000009"><a xlink:title=" ">
<path fill="none" stroke="#63b8ff" d="M1443.8,-167.05C1400.07,-192.03 1330,-232.05 1290.85,-254.4"/>
<polygon fill="#63b8ff" stroke="#63b8ff" points="1445.52,-170.1 1452.47,-162.1 1442.05,-164.02 1445.52,-170.1"/>
</a>
</g>
</g>
<!-- Node15&#45;&gt;Node14 -->
<g id="edge32_Node000015_Node000014" class="edge">
<title>Node15&#45;&gt;Node14</title>
<g id="a_edge32_Node000015_Node000014"><a xlink:title=" ">
<path fill="none" stroke="#63b8ff" d="M1378.13,-144.88C1370.14,-144.88 1362.11,-144.88 1354.21,-144.88"/>
<polygon fill="#63b8ff" stroke="#63b8ff" points="1377.87,-148.38 1387.87,-144.88 1377.87,-141.38 1377.87,-148.38"/>
</a>
</g>
</g>
<!-- Node16&#45;&gt;Node6 -->
<g id="edge34_Node000016_Node000006" class="edge">
<title>Node16&#45;&gt;Node6</title>
<g id="a_edge34_Node000016_Node000006"><a xlink:title=" ">
<path fill="none" stroke="#63b8ff" d="M1838.71,-258.17C1828.11,-256.03 1817.44,-253.9 1807.25,-251.88 1705.26,-231.71 1680.44,-222.48 1577.5,-207.88 1396.64,-182.23 1341.03,-229.17 1168.25,-169.88 1150.29,-163.72 1149.05,-155.73 1132.25,-146.88 1115.87,-138.26 1097.23,-130.04 1080.86,-123.32"/>
<polygon fill="#63b8ff" stroke="#63b8ff" points="1837.74,-261.55 1848.23,-260.1 1839.13,-254.69 1837.74,-261.55"/>
</a>
</g>
</g>
<!-- Node16&#45;&gt;Node7 -->
<g id="edge35_Node000016_Node000007" class="edge">
<title>Node16&#45;&gt;Node7</title>
<g id="a_edge35_Node000016_Node000007"><a xlink:title=" ">
<path fill="none" stroke="#63b8ff" d="M1831.48,-276.88C1822.13,-276.88 1812.67,-276.88 1803.38,-276.88"/>
<polygon fill="#63b8ff" stroke="#63b8ff" points="1831.3,-280.38 1841.3,-276.88 1831.3,-273.38 1831.3,-280.38"/>
</a>
</g>
</g>
<!-- Node17&#45;&gt;Node11 -->
<g id="edge39_Node000017_Node000011" class="edge">
<title>Node17&#45;&gt;Node11</title>
<g id="a_edge39_Node000017_Node000011"><a xlink:title=" ">
<path fill="none" stroke="#63b8ff" d="M1161.88,-413.63C1152.2,-412.32 1142.38,-411 1132.73,-409.69"/>
<polygon fill="#63b8ff" stroke="#63b8ff" points="1161.29,-417.08 1171.67,-414.95 1162.22,-410.14 1161.29,-417.08"/>
</a>
</g>
</g>
<!-- Node18 -->
<g id="Node000018" class="node">
<title>Node18</title>
<g id="a_Node000018"><a xlink:href="classediteurpanovisu_1_1EditeurPanovisu.html#a924d3ccff3e4f402d2309cd2eade3237" target="_top" xlink:title=" ">
<polygon fill="white" stroke="#666666" points="905.5,-494.88 683.25,-494.88 683.25,-462.88 905.5,-462.88 905.5,-494.88"/>
<text xml:space="preserve" text-anchor="start" x="691.25" y="-481.38" font-family="Helvetica,sans-Serif" font-size="10.00">editeurpanovisu.EditeurPanovisu.panoramiques</text>
<text xml:space="preserve" text-anchor="middle" x="794.38" y="-469.38" font-family="Helvetica,sans-Serif" font-size="10.00">Ajouter</text>
</a>
</g>
</g>
<!-- Node17&#45;&gt;Node18 -->
<g id="edge37_Node000017_Node000018" class="edge">
<title>Node17&#45;&gt;Node18</title>
<g id="a_edge37_Node000017_Node000018"><a xlink:title=" ">
<path fill="none" stroke="#63b8ff" d="M1161.83,-437.87C1086.83,-446.26 983.44,-457.83 905.6,-466.55"/>
<polygon fill="#63b8ff" stroke="#63b8ff" points="1162.1,-441.36 1171.65,-436.77 1161.32,-434.4 1162.1,-441.36"/>
</a>
</g>
</g>
<!-- Node18&#45;&gt;Node5 -->
<g id="edge38_Node000018_Node000005" class="edge">
<title>Node18&#45;&gt;Node5</title>
<g id="a_edge38_Node000018_Node000005"><a xlink:title=" ">
<path fill="none" stroke="#63b8ff" d="M671.41,-470.31C604.88,-461.7 522.81,-444.44 456.5,-409.88 397.44,-379.11 345.82,-315.39 326.98,-290.33"/>
<polygon fill="#63b8ff" stroke="#63b8ff" points="670.94,-473.78 681.29,-471.54 671.8,-466.83 670.94,-473.78"/>
</a>
</g>
</g>
</g>
</svg>

<g id="navigator" transform="translate(0 0)" fill="#404254">
  <rect fill="#f2f5e9" fill-opacity="0.5" stroke="#606060" stroke-width=".5" x="0" y="0" width="60" height="60"/>
  <use id="zoomplus" xlink:href="#zoomPlus" x="17" y="9" onmousedown="handleZoom(evt,'in')"/>
  <use id="zoomminus" xlink:href="#zoomMin" x="42" y="9" onmousedown="handleZoom(evt,'out')"/>
  <use id="reset" xlink:href="#resetDef" x="30" y="36" onmousedown="handleReset()"/>
   <use id="arrowup" xlink:href="#arrowUp" x="0" y="0" onmousedown="handlePan(0,-1)"/>
  <use id="arrowright" xlink:href="#arrowRight" x="0" y="0" onmousedown="handlePan(1,0)"/>
  <use id="arrowdown" xlink:href="#arrowDown" x="0" y="0" onmousedown="handlePan(0,1)"/>
  <use id="arrowleft" xlink:href="#arrowLeft" x="0" y="0" onmousedown="handlePan(-1,0)"/>
</g>
<svg viewBox="0 0 15 15" width="100%" height="30px" preserveAspectRatio="xMaxYMin meet">
 <g id="arrow_out" transform="scale(0.3 0.3)">
  <a xlink:href="classediteurpanovisu_1_1EditeurPanovisu_a5240bc810eeff97f8c7271615c42ec44_icgraph_org.svg" target="_base">
   <rect id="button" ry="5" rx="5" y="6" x="6" height="38" width="38"
        fill="#f2f5e9" fill-opacity="0.5" stroke="#606060" stroke-width="1.0"/>
   <path id="arrow"
     d="M 11.500037,31.436501 C 11.940474,20.09759 22.043105,11.32322 32.158766,21.979434 L 37.068811,17.246167 C 37.068811,17.246167 37.088388,32 37.088388,32 L 22.160133,31.978069 C 22.160133,31.978069 26.997745,27.140456 26.997745,27.140456 C 18.528582,18.264221 13.291696,25.230495 11.500037,31.436501 z"
     style="fill:#404040;"/>
  </a>
 </g>
</svg>

<style type='text/css'>
<![CDATA[
[data-mouse-over-selected='false'] { opacity: 0.7; }
[data-mouse-over-selected='true']  { opacity: 1.0; }
]]>
</style>
<script type="application/ecmascript"><![CDATA[
document.addEventListener('DOMContentLoaded', (event) => {
  highlightEdges();
  highlightAdjacentNodes();
});
]]></script>
</svg>
