<?xml version="1.0" encoding="UTF-8" standalone="no"?>
<!DOCTYPE svg PUBLIC "-//W3C//DTD SVG 1.1//EN"
 "http://www.w3.org/Graphics/SVG/1.1/DTD/svg11.dtd">
<!-- Generated by graphviz version 13.1.2 (20250808.2320)
 -->
<!-- Title: editeurpanovisu.TestAIClients.main Pages: 1 -->
<!--zoomable 556 -->

<svg id="main" version="1.1" xmlns="http://www.w3.org/2000/svg" xmlns:xlink="http://www.w3.org/1999/xlink" xml:space="preserve" onload="init(evt)">

<style type="text/css"><![CDATA[
.node, .edge {opacity: 0.7;}
.node.selected, .edge.selected {opacity: 1;}
.edge:hover path { stroke: red; }
.edge:hover polygon { stroke: red; fill: red; }
]]></style>

<defs>
  <circle id="rim" cx="0" cy="0" r="7"/>
  <circle id="rim2" cx="0" cy="0" r="3.5"/>
  <g id="zoomPlus">
    <use xlink:href="#rim" fill="#404040"><set attributeName="fill" to="#808080" begin="zoomplus.mouseover" end="zoomplus.mouseout"/></use>
    <path d="M-4,0h8M0,-4v8" fill="none" stroke="white" stroke-width="1.5" pointer-events="none"/>
  </g>
  <g id="zoomMin">
    <use xlink:href="#rim" fill="#404040"><set attributeName="fill" to="#808080" begin="zoomminus.mouseover" end="zoomminus.mouseout"/></use>
    <path d="M-4,0h8" fill="none" stroke="white" stroke-width="1.5" pointer-events="none"/>
  </g>
  <g id="arrowUp" transform="translate(30 24)">
    <use xlink:href="#rim"/>
    <path pointer-events="none" fill="none" stroke="white" stroke-width="1.5" d="M0,-3.0v7 M-2.5,-0.5L0,-3.0L2.5,-0.5"/>
  </g>
  <g id="arrowRight" transform="rotate(90) translate(36 -43)">
    <use xlink:href="#rim"/>
    <path pointer-events="none" fill="none" stroke="white" stroke-width="1.5" d="M0,-3.0v7 M-2.5,-0.5L0,-3.0L2.5,-0.5"/>
  </g>
  <g id="arrowDown" transform="rotate(180) translate(-30 -48)">
    <use xlink:href="#rim"/>
    <path pointer-events="none" fill="none" stroke="white" stroke-width="1.5" d="M0,-3.0v7 M-2.5,-0.5L0,-3.0L2.5,-0.5"/>
  </g>
  <g id="arrowLeft" transform="rotate(270) translate(-36 17)">
    <use xlink:href="#rim"/>
    <path pointer-events="none" fill="none" stroke="white" stroke-width="1.5" d="M0,-3.0v7 M-2.5,-0.5L0,-3.0L2.5,-0.5"/>
  </g>
  <g id="resetDef">
    <use xlink:href="#rim2" fill="#404040"><set attributeName="fill" to="#808080" begin="reset.mouseover" end="reset.mouseout"/></use>
  </g>
</defs>
<script type="application/ecmascript">
var viewWidth = 773;
var viewHeight = 556;
var sectionId = 'dynsection-1';
</script>
<script type="application/ecmascript" xlink:href="svg.min.js"/>
<svg id="graph" class="graph">
<g id="viewport">
<title>editeurpanovisu.TestAIClients.main</title>
<!-- Node1 -->
<g id="Node000001" class="node">
<title>Node1</title>
<g id="a_Node000001"><a xlink:title=" ">
<polygon fill="#999999" stroke="#666666" points="170.5,-333 0,-333 0,-313 170.5,-313 170.5,-333"/>
<text xml:space="preserve" text-anchor="middle" x="85.25" y="-319.5" font-family="Helvetica,sans-Serif" font-size="10.00">editeurpanovisu.TestAIClients.main</text>
</a>
</g>
</g>
<!-- Node2 -->
<g id="Node000002" class="node">
<title>Node2</title>
<g id="a_Node000002"><a xlink:href="classediteurpanovisu_1_1TestAIClients.html#a55d1e3e95eea57dd03038092f607bff7" target="_top" xlink:title="Test du client Hugging Face.">
<polygon fill="white" stroke="#666666" points="372.5,-458 206.5,-458 206.5,-426 372.5,-426 372.5,-458"/>
<text xml:space="preserve" text-anchor="start" x="214.5" y="-444.5" font-family="Helvetica,sans-Serif" font-size="10.00">editeurpanovisu.TestAIClients.test</text>
<text xml:space="preserve" text-anchor="middle" x="289.5" y="-432.5" font-family="Helvetica,sans-Serif" font-size="10.00">HuggingFace</text>
</a>
</g>
</g>
<!-- Node1&#45;&gt;Node2 -->
<g id="edge1_Node000001_Node000002" class="edge">
<title>Node1&#45;&gt;Node2</title>
<g id="a_edge1_Node000001_Node000002"><a xlink:title=" ">
<path fill="none" stroke="#63b8ff" d="M103.84,-333.35C136.48,-352.55 207.04,-394.07 250.87,-419.86"/>
<polygon fill="#63b8ff" stroke="#63b8ff" points="248.9,-422.76 259.29,-424.82 252.45,-416.73 248.9,-422.76"/>
</a>
</g>
</g>
<!-- Node7 -->
<g id="Node000007" class="node">
<title>Node7</title>
<g id="a_Node000007"><a xlink:href="classediteurpanovisu_1_1TestAIClients.html#a77fbca3f26c8ae02ffe75835740034f7" target="_top" xlink:title="Test du client OpenRouter.">
<polygon fill="white" stroke="#666666" points="372.5,-220 206.5,-220 206.5,-188 372.5,-188 372.5,-220"/>
<text xml:space="preserve" text-anchor="start" x="214.5" y="-206.5" font-family="Helvetica,sans-Serif" font-size="10.00">editeurpanovisu.TestAIClients.test</text>
<text xml:space="preserve" text-anchor="middle" x="289.5" y="-194.5" font-family="Helvetica,sans-Serif" font-size="10.00">OpenRouter</text>
</a>
</g>
</g>
<!-- Node1&#45;&gt;Node7 -->
<g id="edge8_Node000001_Node000007" class="edge">
<title>Node1&#45;&gt;Node7</title>
<g id="a_edge8_Node000001_Node000007"><a xlink:title=" ">
<path fill="none" stroke="#63b8ff" d="M103.84,-312.65C136.48,-293.45 207.04,-251.93 250.87,-226.14"/>
<polygon fill="#63b8ff" stroke="#63b8ff" points="252.45,-229.27 259.29,-221.18 248.9,-223.24 252.45,-229.27"/>
</a>
</g>
</g>
<!-- Node3 -->
<g id="Node000003" class="node">
<title>Node3</title>
<g id="a_Node000003"><a xlink:href="classediteurpanovisu_1_1HuggingFaceClient.html#a4c0af2a214470600ed8821aa4038331f" target="_top" xlink:title="Génère du texte à partir d&#39;un prompt.">
<polygon fill="white" stroke="#666666" points="765.25,-530 620.25,-530 620.25,-498 765.25,-498 765.25,-530"/>
<text xml:space="preserve" text-anchor="start" x="628.25" y="-516.5" font-family="Helvetica,sans-Serif" font-size="10.00">editeurpanovisu.HuggingFace</text>
<text xml:space="preserve" text-anchor="middle" x="692.75" y="-504.5" font-family="Helvetica,sans-Serif" font-size="10.00">Client.generateText</text>
</a>
</g>
</g>
<!-- Node2&#45;&gt;Node3 -->
<g id="edge2_Node000002_Node000003" class="edge">
<title>Node2&#45;&gt;Node3</title>
<g id="a_edge2_Node000002_Node000003"><a xlink:title=" ">
<path fill="none" stroke="#63b8ff" d="M308.86,-458.46C330.76,-476.87 369.34,-505.61 408.5,-517 473.8,-536 551.2,-533.59 608.57,-527.37"/>
<polygon fill="#63b8ff" stroke="#63b8ff" points="608.74,-530.87 618.27,-526.25 607.93,-523.92 608.74,-530.87"/>
</a>
</g>
</g>
<!-- Node4 -->
<g id="Node000004" class="node">
<title>Node4</title>
<g id="a_Node000004"><a xlink:href="classediteurpanovisu_1_1HuggingFaceClient.html#a1bc40f824a65cb1221cbf1c7cae5e170" target="_top" xlink:title="Génère du texte de manière asynchrone.">
<polygon fill="white" stroke="#666666" points="568.88,-508 423.88,-508 423.88,-476 568.88,-476 568.88,-508"/>
<text xml:space="preserve" text-anchor="start" x="431.88" y="-494.5" font-family="Helvetica,sans-Serif" font-size="10.00">editeurpanovisu.HuggingFace</text>
<text xml:space="preserve" text-anchor="middle" x="496.38" y="-482.5" font-family="Helvetica,sans-Serif" font-size="10.00">Client.generateTextAsync</text>
</a>
</g>
</g>
<!-- Node2&#45;&gt;Node4 -->
<g id="edge4_Node000002_Node000004" class="edge">
<title>Node2&#45;&gt;Node4</title>
<g id="a_edge4_Node000002_Node000004"><a xlink:title=" ">
<path fill="none" stroke="#63b8ff" d="M357.87,-458.44C376.77,-463.05 397.49,-468.11 416.97,-472.87"/>
<polygon fill="#63b8ff" stroke="#63b8ff" points="415.95,-476.22 426.5,-475.19 417.61,-469.42 415.95,-476.22"/>
</a>
</g>
</g>
<!-- Node5 -->
<g id="Node000005" class="node">
<title>Node5</title>
<g id="a_Node000005"><a xlink:href="classediteurpanovisu_1_1HuggingFaceClient.html#adb750e8b85863fec36e617afdb9be775" target="_top" xlink:title="Récupère le nom du modèle utilisé">
<polygon fill="white" stroke="#666666" points="568.88,-458 423.88,-458 423.88,-426 568.88,-426 568.88,-458"/>
<text xml:space="preserve" text-anchor="start" x="431.88" y="-444.5" font-family="Helvetica,sans-Serif" font-size="10.00">editeurpanovisu.HuggingFace</text>
<text xml:space="preserve" text-anchor="middle" x="496.38" y="-432.5" font-family="Helvetica,sans-Serif" font-size="10.00">Client.getModelName</text>
</a>
</g>
</g>
<!-- Node2&#45;&gt;Node5 -->
<g id="edge6_Node000002_Node000005" class="edge">
<title>Node2&#45;&gt;Node5</title>
<g id="a_edge6_Node000002_Node000005"><a xlink:title=" ">
<path fill="none" stroke="#63b8ff" d="M372.94,-442C385.93,-442 399.36,-442 412.36,-442"/>
<polygon fill="#63b8ff" stroke="#63b8ff" points="412.14,-445.5 422.14,-442 412.14,-438.5 412.14,-445.5"/>
</a>
</g>
</g>
<!-- Node6 -->
<g id="Node000006" class="node">
<title>Node6</title>
<g id="a_Node000006"><a xlink:href="classediteurpanovisu_1_1HuggingFaceClient.html#a8ab14ad60a8c19d17407402ca93cbbce" target="_top" xlink:title="Vérifie si le client est configuré correctement.">
<polygon fill="white" stroke="#666666" points="568.88,-408 423.88,-408 423.88,-376 568.88,-376 568.88,-408"/>
<text xml:space="preserve" text-anchor="start" x="431.88" y="-394.5" font-family="Helvetica,sans-Serif" font-size="10.00">editeurpanovisu.HuggingFace</text>
<text xml:space="preserve" text-anchor="middle" x="496.38" y="-382.5" font-family="Helvetica,sans-Serif" font-size="10.00">Client.isConfigured</text>
</a>
</g>
</g>
<!-- Node2&#45;&gt;Node6 -->
<g id="edge7_Node000002_Node000006" class="edge">
<title>Node2&#45;&gt;Node6</title>
<g id="a_edge7_Node000002_Node000006"><a xlink:title=" ">
<path fill="none" stroke="#63b8ff" d="M357.87,-425.56C376.77,-420.95 397.49,-415.89 416.97,-411.13"/>
<polygon fill="#63b8ff" stroke="#63b8ff" points="417.61,-414.58 426.5,-408.81 415.95,-407.78 417.61,-414.58"/>
</a>
</g>
</g>
<!-- Node3&#45;&gt;Node3 -->
<g id="edge3_Node000003_Node000003" class="edge">
<title>Node3&#45;&gt;Node3</title>
<g id="a_edge3_Node000003_Node000003"><a xlink:title=" ">
<path fill="none" stroke="#63b8ff" d="M657.69,-530.44C651.15,-539.58 662.83,-548 692.75,-548 709.11,-548 720.02,-545.48 725.48,-541.71"/>
<polygon fill="#63b8ff" stroke="#63b8ff" points="728.9,-542.43 727.5,-531.92 722.05,-541.01 728.9,-542.43"/>
</a>
</g>
</g>
<!-- Node4&#45;&gt;Node3 -->
<g id="edge5_Node000004_Node000003" class="edge">
<title>Node4&#45;&gt;Node3</title>
<g id="a_edge5_Node000004_Node000003"><a xlink:title=" ">
<path fill="none" stroke="#63b8ff" d="M569.2,-500.13C582,-501.58 595.43,-503.1 608.51,-504.58"/>
<polygon fill="#63b8ff" stroke="#63b8ff" points="608.06,-508.05 618.39,-505.7 608.85,-501.09 608.06,-508.05"/>
</a>
</g>
</g>
<!-- Node8 -->
<g id="Node000008" class="node">
<title>Node8</title>
<g id="a_Node000008"><a xlink:href="classediteurpanovisu_1_1OpenRouterClient.html#a6d6d3b5ec9d11ab65aa452a40c246df5" target="_top" xlink:title="Envoie un message au modèle et obtient une réponse.">
<polygon fill="white" stroke="#666666" points="762.62,-295 622.88,-295 622.88,-263 762.62,-263 762.62,-295"/>
<text xml:space="preserve" text-anchor="start" x="630.88" y="-281.5" font-family="Helvetica,sans-Serif" font-size="10.00">editeurpanovisu.OpenRouter</text>
<text xml:space="preserve" text-anchor="middle" x="692.75" y="-269.5" font-family="Helvetica,sans-Serif" font-size="10.00">Client.chat</text>
</a>
</g>
</g>
<!-- Node7&#45;&gt;Node8 -->
<g id="edge9_Node000007_Node000008" class="edge">
<title>Node7&#45;&gt;Node8</title>
<g id="a_edge9_Node000007_Node000008"><a xlink:title=" ">
<path fill="none" stroke="#63b8ff" d="M299.6,-220.16C316.65,-248.57 356.43,-306.55 408.5,-329 480.23,-359.93 507.98,-345.87 584.25,-329 609.07,-323.51 634.95,-311.69 655.1,-300.91"/>
<polygon fill="#63b8ff" stroke="#63b8ff" points="656.69,-304.04 663.76,-296.14 653.31,-297.9 656.69,-304.04"/>
</a>
</g>
</g>
<!-- Node9 -->
<g id="Node000009" class="node">
<title>Node9</title>
<g id="a_Node000009"><a xlink:href="classediteurpanovisu_1_1OpenRouterClient.html#abd04c3bcd52a589bcf2efcc36a23b650" target="_top" xlink:title="Envoie un message de manière asynchrone.">
<polygon fill="white" stroke="#666666" points="566.25,-320 426.5,-320 426.5,-288 566.25,-288 566.25,-320"/>
<text xml:space="preserve" text-anchor="start" x="434.5" y="-306.5" font-family="Helvetica,sans-Serif" font-size="10.00">editeurpanovisu.OpenRouter</text>
<text xml:space="preserve" text-anchor="middle" x="496.38" y="-294.5" font-family="Helvetica,sans-Serif" font-size="10.00">Client.chatAsync</text>
</a>
</g>
</g>
<!-- Node7&#45;&gt;Node9 -->
<g id="edge11_Node000007_Node000009" class="edge">
<title>Node7&#45;&gt;Node9</title>
<g id="a_edge11_Node000007_Node000009"><a xlink:title=" ">
<path fill="none" stroke="#63b8ff" d="M312.04,-220.38C334.92,-237.11 372.65,-262.85 408.5,-279 412.23,-280.68 416.09,-282.27 420.03,-283.78"/>
<polygon fill="#63b8ff" stroke="#63b8ff" points="418.57,-286.98 429.16,-287.08 420.94,-280.39 418.57,-286.98"/>
</a>
</g>
</g>
<!-- Node10 -->
<g id="Node000010" class="node">
<title>Node10</title>
<g id="a_Node000010"><a xlink:href="classediteurpanovisu_1_1OpenRouterClient.html#a8771d1fc79129ff298c76aff05edd267" target="_top" xlink:title="Génère des suggestions de description pour un panorama.">
<polygon fill="white" stroke="#666666" points="584.25,-270 408.5,-270 408.5,-238 584.25,-238 584.25,-270"/>
<text xml:space="preserve" text-anchor="start" x="416.5" y="-256.5" font-family="Helvetica,sans-Serif" font-size="10.00">editeurpanovisu.OpenRouter</text>
<text xml:space="preserve" text-anchor="middle" x="496.38" y="-244.5" font-family="Helvetica,sans-Serif" font-size="10.00">Client.generatePanoramaDescription</text>
</a>
</g>
</g>
<!-- Node7&#45;&gt;Node10 -->
<g id="edge13_Node000007_Node000010" class="edge">
<title>Node7&#45;&gt;Node10</title>
<g id="a_edge13_Node000007_Node000010"><a xlink:title=" ">
<path fill="none" stroke="#63b8ff" d="M357.87,-220.44C376.77,-225.05 397.49,-230.11 416.97,-234.87"/>
<polygon fill="#63b8ff" stroke="#63b8ff" points="415.95,-238.22 426.5,-237.19 417.61,-231.42 415.95,-238.22"/>
</a>
</g>
</g>
<!-- Node11 -->
<g id="Node000011" class="node">
<title>Node11</title>
<g id="a_Node000011"><a xlink:href="classediteurpanovisu_1_1OpenRouterClient.html#ace2ecd68c42b6fa90c7b720cc14015f5" target="_top" xlink:title="Liste des modèles gratuits populaires sur OpenRouter.">
<polygon fill="white" stroke="#666666" points="566.25,-220 426.5,-220 426.5,-188 566.25,-188 566.25,-220"/>
<text xml:space="preserve" text-anchor="start" x="434.5" y="-206.5" font-family="Helvetica,sans-Serif" font-size="10.00">editeurpanovisu.OpenRouter</text>
<text xml:space="preserve" text-anchor="middle" x="496.38" y="-194.5" font-family="Helvetica,sans-Serif" font-size="10.00">Client.getFreeModels</text>
</a>
</g>
</g>
<!-- Node7&#45;&gt;Node11 -->
<g id="edge15_Node000007_Node000011" class="edge">
<title>Node7&#45;&gt;Node11</title>
<g id="a_edge15_Node000007_Node000011"><a xlink:title=" ">
<path fill="none" stroke="#63b8ff" d="M372.94,-204C386.76,-204 401.07,-204 414.84,-204"/>
<polygon fill="#63b8ff" stroke="#63b8ff" points="414.73,-207.5 424.73,-204 414.73,-200.5 414.73,-207.5"/>
</a>
</g>
</g>
<!-- Node12 -->
<g id="Node000012" class="node">
<title>Node12</title>
<g id="a_Node000012"><a xlink:href="classediteurpanovisu_1_1OpenRouterClient.html#acbf09f1edb45b096d73fe68cabb87bae" target="_top" xlink:title="Récupère le nom du modèle utilisé">
<polygon fill="white" stroke="#666666" points="566.25,-170 426.5,-170 426.5,-138 566.25,-138 566.25,-170"/>
<text xml:space="preserve" text-anchor="start" x="434.5" y="-156.5" font-family="Helvetica,sans-Serif" font-size="10.00">editeurpanovisu.OpenRouter</text>
<text xml:space="preserve" text-anchor="middle" x="496.38" y="-144.5" font-family="Helvetica,sans-Serif" font-size="10.00">Client.getModelName</text>
</a>
</g>
</g>
<!-- Node7&#45;&gt;Node12 -->
<g id="edge16_Node000007_Node000012" class="edge">
<title>Node7&#45;&gt;Node12</title>
<g id="a_edge16_Node000007_Node000012"><a xlink:title=" ">
<path fill="none" stroke="#63b8ff" d="M357.87,-187.56C376.77,-182.95 397.49,-177.89 416.97,-173.13"/>
<polygon fill="#63b8ff" stroke="#63b8ff" points="417.61,-176.58 426.5,-170.81 415.95,-169.78 417.61,-176.58"/>
</a>
</g>
</g>
<!-- Node13 -->
<g id="Node000013" class="node">
<title>Node13</title>
<g id="a_Node000013"><a xlink:href="leaflet_8js.html#a73aff07b65d7c0b09ccf6b4c4f1b7a9d" target="_top" xlink:title=" ">
<polygon fill="white" stroke="#666666" points="510.77,-120 481.98,-120 481.98,-100 510.77,-100 510.77,-120"/>
<text xml:space="preserve" text-anchor="middle" x="496.38" y="-106.5" font-family="Helvetica,sans-Serif" font-size="10.00">i</text>
</a>
</g>
</g>
<!-- Node7&#45;&gt;Node13 -->
<g id="edge17_Node000007_Node000013" class="edge">
<title>Node7&#45;&gt;Node13</title>
<g id="a_edge17_Node000007_Node000013"><a xlink:title=" ">
<path fill="none" stroke="#63b8ff" d="M311,-187.78C333.62,-170.68 371.69,-144.16 408.5,-129 428.47,-120.77 452.55,-115.86 470.3,-113.1"/>
<polygon fill="#63b8ff" stroke="#63b8ff" points="470.78,-116.57 480.19,-111.7 469.8,-109.64 470.78,-116.57"/>
</a>
</g>
</g>
<!-- Node14 -->
<g id="Node000014" class="node">
<title>Node14</title>
<g id="a_Node000014"><a xlink:href="classediteurpanovisu_1_1OpenRouterClient.html#a2eda70a167df12b13f92a872e4e1d401" target="_top" xlink:title="Vérifie si le client est configuré correctement.">
<polygon fill="white" stroke="#666666" points="566.25,-82 426.5,-82 426.5,-50 566.25,-50 566.25,-82"/>
<text xml:space="preserve" text-anchor="start" x="434.5" y="-68.5" font-family="Helvetica,sans-Serif" font-size="10.00">editeurpanovisu.OpenRouter</text>
<text xml:space="preserve" text-anchor="middle" x="496.38" y="-56.5" font-family="Helvetica,sans-Serif" font-size="10.00">Client.isConfigured</text>
</a>
</g>
</g>
<!-- Node7&#45;&gt;Node14 -->
<g id="edge18_Node000007_Node000014" class="edge">
<title>Node7&#45;&gt;Node14</title>
<g id="a_edge18_Node000007_Node000014"><a xlink:title=" ">
<path fill="none" stroke="#63b8ff" d="M303.16,-187.58C322.99,-162.99 363.75,-116.74 408.5,-91 410.85,-89.65 413.28,-88.36 415.77,-87.14"/>
<polygon fill="#63b8ff" stroke="#63b8ff" points="417.16,-90.36 424.89,-83.11 414.33,-83.95 417.16,-90.36"/>
</a>
</g>
</g>
<!-- Node15 -->
<g id="Node000015" class="node">
<title>Node15</title>
<g id="a_Node000015"><a xlink:href="classediteurpanovisu_1_1OpenRouterClient.html#ad0e45a62c406dae1c0e9aa17e1fe335f" target="_top" xlink:title="Suggère des hotspots pertinents pour un panorama.">
<polygon fill="white" stroke="#666666" points="566.25,-32 426.5,-32 426.5,0 566.25,0 566.25,-32"/>
<text xml:space="preserve" text-anchor="start" x="434.5" y="-18.5" font-family="Helvetica,sans-Serif" font-size="10.00">editeurpanovisu.OpenRouter</text>
<text xml:space="preserve" text-anchor="middle" x="496.38" y="-6.5" font-family="Helvetica,sans-Serif" font-size="10.00">Client.suggestHotspots</text>
</a>
</g>
</g>
<!-- Node7&#45;&gt;Node15 -->
<g id="edge19_Node000007_Node000015" class="edge">
<title>Node7&#45;&gt;Node15</title>
<g id="a_edge19_Node000007_Node000015"><a xlink:title=" ">
<path fill="none" stroke="#63b8ff" d="M297.79,-187.57C313.26,-154.61 352.6,-80.25 408.5,-41 410.86,-39.34 413.33,-37.79 415.88,-36.35"/>
<polygon fill="#63b8ff" stroke="#63b8ff" points="417.32,-39.54 424.7,-31.94 414.19,-33.28 417.32,-39.54"/>
</a>
</g>
</g>
<!-- Node8&#45;&gt;Node8 -->
<g id="edge10_Node000008_Node000008" class="edge">
<title>Node8&#45;&gt;Node8</title>
<g id="a_edge10_Node000008_Node000008"><a xlink:title=" ">
<path fill="none" stroke="#63b8ff" d="M657.69,-295.44C651.15,-304.58 662.83,-313 692.75,-313 709.11,-313 720.02,-310.48 725.48,-306.71"/>
<polygon fill="#63b8ff" stroke="#63b8ff" points="728.9,-307.43 727.5,-296.92 722.05,-306.01 728.9,-307.43"/>
</a>
</g>
</g>
<!-- Node9&#45;&gt;Node8 -->
<g id="edge12_Node000009_Node000008" class="edge">
<title>Node9&#45;&gt;Node8</title>
<g id="a_edge12_Node000009_Node000008"><a xlink:title=" ">
<path fill="none" stroke="#63b8ff" d="M566.73,-295.08C581.15,-293.23 596.46,-291.26 611.25,-289.35"/>
<polygon fill="#63b8ff" stroke="#63b8ff" points="611.45,-292.86 620.92,-288.11 610.56,-285.91 611.45,-292.86"/>
</a>
</g>
</g>
<!-- Node10&#45;&gt;Node8 -->
<g id="edge14_Node000010_Node000008" class="edge">
<title>Node10&#45;&gt;Node8</title>
<g id="a_edge14_Node000010_Node000008"><a xlink:title=" ">
<path fill="none" stroke="#63b8ff" d="M584.61,-265.22C593.45,-266.36 602.41,-267.51 611.17,-268.64"/>
<polygon fill="#63b8ff" stroke="#63b8ff" points="610.7,-272.1 621.07,-269.91 611.59,-265.16 610.7,-272.1"/>
</a>
</g>
</g>
<!-- Node15&#45;&gt;Node8 -->
<g id="edge20_Node000015_Node000008" class="edge">
<title>Node15&#45;&gt;Node8</title>
<g id="a_edge20_Node000015_Node000008"><a xlink:title=" ">
<path fill="none" stroke="#63b8ff" d="M566.69,-29.74C573.04,-32.78 579.03,-36.48 584.25,-41 649.65,-97.6 677.28,-202.01 687.11,-251.54"/>
<polygon fill="#63b8ff" stroke="#63b8ff" points="683.62,-251.95 688.91,-261.13 690.5,-250.66 683.62,-251.95"/>
</a>
</g>
</g>
</g>
</svg>

<g id="navigator" transform="translate(0 0)" fill="#404254">
  <rect fill="#f2f5e9" fill-opacity="0.5" stroke="#606060" stroke-width=".5" x="0" y="0" width="60" height="60"/>
  <use id="zoomplus" xlink:href="#zoomPlus" x="17" y="9" onmousedown="handleZoom(evt,'in')"/>
  <use id="zoomminus" xlink:href="#zoomMin" x="42" y="9" onmousedown="handleZoom(evt,'out')"/>
  <use id="reset" xlink:href="#resetDef" x="30" y="36" onmousedown="handleReset()"/>
   <use id="arrowup" xlink:href="#arrowUp" x="0" y="0" onmousedown="handlePan(0,-1)"/>
  <use id="arrowright" xlink:href="#arrowRight" x="0" y="0" onmousedown="handlePan(1,0)"/>
  <use id="arrowdown" xlink:href="#arrowDown" x="0" y="0" onmousedown="handlePan(0,1)"/>
  <use id="arrowleft" xlink:href="#arrowLeft" x="0" y="0" onmousedown="handlePan(-1,0)"/>
</g>
<svg viewBox="0 0 15 15" width="100%" height="30px" preserveAspectRatio="xMaxYMin meet">
 <g id="arrow_out" transform="scale(0.3 0.3)">
  <a xlink:href="classediteurpanovisu_1_1TestAIClients_a0513dc754d9bc85fc8b50d2b9993b35a_cgraph_org.svg" target="_base">
   <rect id="button" ry="5" rx="5" y="6" x="6" height="38" width="38"
        fill="#f2f5e9" fill-opacity="0.5" stroke="#606060" stroke-width="1.0"/>
   <path id="arrow"
     d="M 11.500037,31.436501 C 11.940474,20.09759 22.043105,11.32322 32.158766,21.979434 L 37.068811,17.246167 C 37.068811,17.246167 37.088388,32 37.088388,32 L 22.160133,31.978069 C 22.160133,31.978069 26.997745,27.140456 26.997745,27.140456 C 18.528582,18.264221 13.291696,25.230495 11.500037,31.436501 z"
     style="fill:#404040;"/>
  </a>
 </g>
</svg>

<style type='text/css'>
<![CDATA[
[data-mouse-over-selected='false'] { opacity: 0.7; }
[data-mouse-over-selected='true']  { opacity: 1.0; }
]]>
</style>
<script type="application/ecmascript"><![CDATA[
document.addEventListener('DOMContentLoaded', (event) => {
  highlightEdges();
  highlightAdjacentNodes();
});
]]></script>
</svg>
