<?xml version="1.0" encoding="UTF-8" standalone="no"?>
<!DOCTYPE svg PUBLIC "-//W3C//DTD SVG 1.1//EN"
 "http://www.w3.org/Graphics/SVG/1.1/DTD/svg11.dtd">
<!-- Generated by graphviz version 13.1.2 (20250808.2320)
 -->
<!-- Title: editeurpanovisu.GestionnaireInterfaceController.rafraichit Pages: 1 -->
<!--zoomable 418 -->

<svg id="main" version="1.1" xmlns="http://www.w3.org/2000/svg" xmlns:xlink="http://www.w3.org/1999/xlink" xml:space="preserve" onload="init(evt)">

<style type="text/css"><![CDATA[
.node, .edge {opacity: 0.7;}
.node.selected, .edge.selected {opacity: 1;}
.edge:hover path { stroke: red; }
.edge:hover polygon { stroke: red; fill: red; }
]]></style>

<defs>
  <circle id="rim" cx="0" cy="0" r="7"/>
  <circle id="rim2" cx="0" cy="0" r="3.5"/>
  <g id="zoomPlus">
    <use xlink:href="#rim" fill="#404040"><set attributeName="fill" to="#808080" begin="zoomplus.mouseover" end="zoomplus.mouseout"/></use>
    <path d="M-4,0h8M0,-4v8" fill="none" stroke="white" stroke-width="1.5" pointer-events="none"/>
  </g>
  <g id="zoomMin">
    <use xlink:href="#rim" fill="#404040"><set attributeName="fill" to="#808080" begin="zoomminus.mouseover" end="zoomminus.mouseout"/></use>
    <path d="M-4,0h8" fill="none" stroke="white" stroke-width="1.5" pointer-events="none"/>
  </g>
  <g id="arrowUp" transform="translate(30 24)">
    <use xlink:href="#rim"/>
    <path pointer-events="none" fill="none" stroke="white" stroke-width="1.5" d="M0,-3.0v7 M-2.5,-0.5L0,-3.0L2.5,-0.5"/>
  </g>
  <g id="arrowRight" transform="rotate(90) translate(36 -43)">
    <use xlink:href="#rim"/>
    <path pointer-events="none" fill="none" stroke="white" stroke-width="1.5" d="M0,-3.0v7 M-2.5,-0.5L0,-3.0L2.5,-0.5"/>
  </g>
  <g id="arrowDown" transform="rotate(180) translate(-30 -48)">
    <use xlink:href="#rim"/>
    <path pointer-events="none" fill="none" stroke="white" stroke-width="1.5" d="M0,-3.0v7 M-2.5,-0.5L0,-3.0L2.5,-0.5"/>
  </g>
  <g id="arrowLeft" transform="rotate(270) translate(-36 17)">
    <use xlink:href="#rim"/>
    <path pointer-events="none" fill="none" stroke="white" stroke-width="1.5" d="M0,-3.0v7 M-2.5,-0.5L0,-3.0L2.5,-0.5"/>
  </g>
  <g id="resetDef">
    <use xlink:href="#rim2" fill="#404040"><set attributeName="fill" to="#808080" begin="reset.mouseover" end="reset.mouseout"/></use>
  </g>
</defs>
<script type="application/ecmascript">
var viewWidth = 2196;
var viewHeight = 418;
var sectionId = 'dynsection-270';
</script>
<script type="application/ecmascript" xlink:href="svg.min.js"/>
<svg id="graph" class="graph">
<g id="viewport">
<title>editeurpanovisu.GestionnaireInterfaceController.rafraichit</title>
<!-- Node1 -->
<g id="Node000001" class="node">
<title>Node1</title>
<g id="a_Node000001"><a xlink:title=" ">
<polygon fill="#999999" stroke="#666666" points="2188,-180 2046,-180 2046,-148 2188,-148 2188,-180"/>
<text xml:space="preserve" text-anchor="start" x="2054" y="-166.5" font-family="Helvetica,sans-Serif" font-size="10.00">editeurpanovisu.Gestionnaire</text>
<text xml:space="preserve" text-anchor="middle" x="2117" y="-154.5" font-family="Helvetica,sans-Serif" font-size="10.00">InterfaceController.rafraichit</text>
</a>
</g>
</g>
<!-- Node2 -->
<g id="Node000002" class="node">
<title>Node2</title>
<g id="a_Node000002"><a xlink:href="classediteurpanovisu_1_1EditeurPanovisu.html#a87b29dc258cfc67370b1f27809e91b8e" target="_top" xlink:title=" ">
<polygon fill="white" stroke="#666666" points="2010,-284 1835,-284 1835,-252 2010,-252 2010,-284"/>
<text xml:space="preserve" text-anchor="start" x="1843" y="-270.5" font-family="Helvetica,sans-Serif" font-size="10.00">editeurpanovisu.EditeurPanovisu.tsk</text>
<text xml:space="preserve" text-anchor="middle" x="1922.5" y="-258.5" font-family="Helvetica,sans-Serif" font-size="10.00">AnalyseFichierPVU</text>
</a>
</g>
</g>
<!-- Node1&#45;&gt;Node2 -->
<g id="edge1_Node000001_Node000002" class="edge">
<title>Node1&#45;&gt;Node2</title>
<g id="a_edge1_Node000001_Node000002"><a xlink:title=" ">
<path fill="none" stroke="#63b8ff" d="M2075.71,-185.77C2039.38,-205.39 1986.75,-233.83 1953.86,-251.6"/>
<polygon fill="#63b8ff" stroke="#63b8ff" points="2077.03,-189.03 2084.17,-181.2 2073.7,-182.87 2077.03,-189.03"/>
</a>
</g>
</g>
<!-- Node15 -->
<g id="Node000015" class="node">
<title>Node15</title>
<g id="a_Node000015"><a xlink:href="classediteurpanovisu_1_1EditeurPanovisu.html#a53cccf6a6b2693c872947460b66ae8ee" target="_top" xlink:title=" ">
<polygon fill="white" stroke="#666666" points="1348.5,-32 1173.5,-32 1173.5,0 1348.5,0 1348.5,-32"/>
<text xml:space="preserve" text-anchor="start" x="1181.5" y="-18.5" font-family="Helvetica,sans-Serif" font-size="10.00">editeurpanovisu.EditeurPanovisu.tsk</text>
<text xml:space="preserve" text-anchor="middle" x="1261" y="-6.5" font-family="Helvetica,sans-Serif" font-size="10.00">ChargeListeFichiers</text>
</a>
</g>
</g>
<!-- Node1&#45;&gt;Node15 -->
<g id="edge26_Node000001_Node000015" class="edge">
<title>Node1&#45;&gt;Node15</title>
<g id="a_edge26_Node000001_Node000015"><a xlink:title=" ">
<path fill="none" stroke="#63b8ff" d="M2041.71,-144.73C1938.33,-118.6 1744.91,-72.2 1577.5,-46 1500.58,-33.96 1412.3,-26.07 1348.72,-21.41"/>
<polygon fill="#63b8ff" stroke="#63b8ff" points="2040.62,-148.07 2051.18,-147.13 2042.34,-141.28 2040.62,-148.07"/>
</a>
</g>
</g>
<!-- Node3 -->
<g id="Node000003" class="node">
<title>Node3</title>
<g id="a_Node000003"><a xlink:href="classediteurpanovisu_1_1EditeurPanovisu.html#ab4beb1597b660a4a253befc6e76f1c54" target="_top" xlink:title=" ">
<polygon fill="white" stroke="#666666" points="1129.62,-372 944.12,-372 944.12,-340 1129.62,-340 1129.62,-372"/>
<text xml:space="preserve" text-anchor="start" x="952.12" y="-358.5" font-family="Helvetica,sans-Serif" font-size="10.00">editeurpanovisu.EditeurPanovisu.projet</text>
<text xml:space="preserve" text-anchor="middle" x="1036.88" y="-346.5" font-family="Helvetica,sans-Serif" font-size="10.00">Charge</text>
</a>
</g>
</g>
<!-- Node2&#45;&gt;Node3 -->
<g id="edge2_Node000002_Node000003" class="edge">
<title>Node2&#45;&gt;Node3</title>
<g id="a_edge2_Node000002_Node000003"><a xlink:title=" ">
<path fill="none" stroke="#63b8ff" d="M1835.7,-286.67C1823.42,-289 1810.91,-291.2 1799,-293 1559.25,-329.27 1273.63,-345.87 1130.02,-352.39"/>
<polygon fill="#63b8ff" stroke="#63b8ff" points="1836.26,-290.12 1845.41,-284.78 1834.92,-283.25 1836.26,-290.12"/>
</a>
</g>
</g>
<!-- Node6 -->
<g id="Node000006" class="node">
<title>Node6</title>
<g id="a_Node000006"><a xlink:href="classediteurpanovisu_1_1EditeurPanovisu.html#a6d19b4d885ee6fcec827b91956295732" target="_top" xlink:title=" ">
<polygon fill="white" stroke="#666666" points="1799,-284 1613.5,-284 1613.5,-252 1799,-252 1799,-284"/>
<text xml:space="preserve" text-anchor="start" x="1621.5" y="-270.5" font-family="Helvetica,sans-Serif" font-size="10.00">editeurpanovisu.EditeurPanovisu.projet</text>
<text xml:space="preserve" text-anchor="middle" x="1706.25" y="-258.5" font-family="Helvetica,sans-Serif" font-size="10.00">ChargeNom</text>
</a>
</g>
</g>
<!-- Node2&#45;&gt;Node6 -->
<g id="edge5_Node000002_Node000006" class="edge">
<title>Node2&#45;&gt;Node6</title>
<g id="a_edge5_Node000002_Node000006"><a xlink:title=" ">
<path fill="none" stroke="#63b8ff" d="M1823.16,-268C1815.26,-268 1807.3,-268 1799.45,-268"/>
<polygon fill="#63b8ff" stroke="#63b8ff" points="1823.15,-271.5 1833.15,-268 1823.15,-264.5 1823.15,-271.5"/>
</a>
</g>
</g>
<!-- Node4 -->
<g id="Node000004" class="node">
<title>Node4</title>
<g id="a_Node000004"><a xlink:href="classediteurpanovisu_1_1EditeurPanovisu.html#ac912b80c1f2ac97def60ff005c5c480b" target="_top" xlink:title=" ">
<polygon fill="white" stroke="#666666" points="420.5,-212 216.25,-212 216.25,-192 420.5,-192 420.5,-212"/>
<text xml:space="preserve" text-anchor="middle" x="318.38" y="-198.5" font-family="Helvetica,sans-Serif" font-size="10.00">editeurpanovisu.EditeurPanovisu.creeMenu</text>
</a>
</g>
</g>
<!-- Node3&#45;&gt;Node4 -->
<g id="edge3_Node000003_Node000004" class="edge">
<title>Node3&#45;&gt;Node4</title>
<g id="a_edge3_Node000003_Node000004"><a xlink:title=" ">
<path fill="none" stroke="#63b8ff" d="M932.72,-351.19C814.96,-343.31 617.76,-322.8 456.5,-270 411.04,-255.12 361.72,-227.54 336.44,-212.49"/>
<polygon fill="#63b8ff" stroke="#63b8ff" points="932.15,-354.66 942.36,-351.81 932.61,-347.67 932.15,-354.66"/>
</a>
</g>
</g>
<!-- Node5 -->
<g id="Node000005" class="node">
<title>Node5</title>
<g id="a_Node000005"><a xlink:href="classediteurpanovisu_1_1EditeurPanovisu.html#a86c393eee88f54c694db994ddd85b90d" target="_top" xlink:title=" ">
<polygon fill="white" stroke="#666666" points="180.25,-218 0,-218 0,-186 180.25,-186 180.25,-218"/>
<text xml:space="preserve" text-anchor="start" x="8" y="-204.5" font-family="Helvetica,sans-Serif" font-size="10.00">editeurpanovisu.EditeurPanovisu.cree</text>
<text xml:space="preserve" text-anchor="middle" x="90.12" y="-192.5" font-family="Helvetica,sans-Serif" font-size="10.00">Environnement</text>
</a>
</g>
</g>
<!-- Node4&#45;&gt;Node5 -->
<g id="edge4_Node000004_Node000005" class="edge">
<title>Node4&#45;&gt;Node5</title>
<g id="a_edge4_Node000004_Node000005"><a xlink:title=" ">
<path fill="none" stroke="#63b8ff" d="M204.51,-202C196.49,-202 188.46,-202 180.6,-202"/>
<polygon fill="#63b8ff" stroke="#63b8ff" points="204.32,-205.5 214.32,-202 204.32,-198.5 204.32,-205.5"/>
</a>
</g>
</g>
<!-- Node6&#45;&gt;Node4 -->
<g id="edge25_Node000006_Node000004" class="edge">
<title>Node6&#45;&gt;Node4</title>
<g id="a_edge25_Node000006_Node000004"><a xlink:title=" ">
<path fill="none" stroke="#63b8ff" d="M1677.8,-244.53C1611.25,-190.12 1434.11,-60 1262,-60 1262,-60 1262,-60 809.12,-60 650.3,-60 605.35,-62.6 456.5,-118 407.05,-136.41 355.87,-173.42 332.47,-191.53"/>
<polygon fill="#63b8ff" stroke="#63b8ff" points="1675.34,-247.03 1685.27,-250.71 1679.8,-241.64 1675.34,-247.03"/>
</a>
</g>
</g>
<!-- Node7 -->
<g id="Node000007" class="node">
<title>Node7</title>
<g id="a_Node000007"><a xlink:href="classediteurpanovisu_1_1EditeurPanovisu.html#af0d1c32bb78acbff561c822a0d15f760" target="_top" xlink:title=" ">
<polygon fill="white" stroke="#666666" points="1577.5,-306 1389.75,-306 1389.75,-274 1577.5,-274 1577.5,-306"/>
<text xml:space="preserve" text-anchor="start" x="1397.75" y="-292.5" font-family="Helvetica,sans-Serif" font-size="10.00">editeurpanovisu.EditeurPanovisu.ajoute</text>
<text xml:space="preserve" text-anchor="middle" x="1483.62" y="-280.5" font-family="Helvetica,sans-Serif" font-size="10.00">FichierHisto</text>
</a>
</g>
</g>
<!-- Node6&#45;&gt;Node7 -->
<g id="edge6_Node000006_Node000007" class="edge">
<title>Node6&#45;&gt;Node7</title>
<g id="a_edge6_Node000006_Node000007"><a xlink:title=" ">
<path fill="none" stroke="#63b8ff" d="M1601.97,-271.56C1593.92,-272.34 1585.83,-273.16 1577.86,-274.02"/>
<polygon fill="#63b8ff" stroke="#63b8ff" points="1602.14,-275.06 1611.78,-270.65 1601.49,-268.09 1602.14,-275.06"/>
</a>
</g>
</g>
<!-- Node7&#45;&gt;Node3 -->
<g id="edge7_Node000007_Node000003" class="edge">
<title>Node7&#45;&gt;Node3</title>
<g id="a_edge7_Node000007_Node000003"><a xlink:title=" ">
<path fill="none" stroke="#63b8ff" d="M1378.46,-305.46C1303.11,-316.64 1202.22,-331.61 1129.84,-342.35"/>
<polygon fill="#63b8ff" stroke="#63b8ff" points="1378.52,-308.99 1387.89,-304.06 1377.49,-302.06 1378.52,-308.99"/>
</a>
</g>
</g>
<!-- Node7&#45;&gt;Node6 -->
<g id="edge8_Node000007_Node000006" class="edge">
<title>Node7&#45;&gt;Node6</title>
<g id="a_edge8_Node000007_Node000006"><a xlink:title=" ">
<path fill="none" stroke="#63b8ff" d="M1589.19,-286.31C1597.24,-285.54 1605.33,-284.7 1613.28,-283.84"/>
<polygon fill="#63b8ff" stroke="#63b8ff" points="1589,-282.82 1579.37,-287.24 1589.65,-289.79 1589,-282.82"/>
</a>
</g>
</g>
<!-- Node8 -->
<g id="Node000008" class="node">
<title>Node8</title>
<g id="a_Node000008"><a xlink:href="classediteurpanovisu_1_1EditeurPanovisu.html#a9f3ea25b35d4884524508dab3dc4fd6a" target="_top" xlink:title=" ">
<polygon fill="white" stroke="#666666" points="1353.75,-262 1168.25,-262 1168.25,-230 1353.75,-230 1353.75,-262"/>
<text xml:space="preserve" text-anchor="start" x="1176.25" y="-248.5" font-family="Helvetica,sans-Serif" font-size="10.00">editeurpanovisu.EditeurPanovisu.projet</text>
<text xml:space="preserve" text-anchor="middle" x="1261" y="-236.5" font-family="Helvetica,sans-Serif" font-size="10.00">Sauve</text>
</a>
</g>
</g>
<!-- Node7&#45;&gt;Node8 -->
<g id="edge9_Node000007_Node000008" class="edge">
<title>Node7&#45;&gt;Node8</title>
<g id="a_edge9_Node000007_Node000008"><a xlink:title=" ">
<path fill="none" stroke="#63b8ff" d="M1389.01,-271.33C1374.29,-268.4 1359.18,-265.38 1344.73,-262.5"/>
<polygon fill="#63b8ff" stroke="#63b8ff" points="1388.18,-274.73 1398.67,-273.26 1389.55,-267.87 1388.18,-274.73"/>
</a>
</g>
</g>
<!-- Node14 -->
<g id="Node000014" class="node">
<title>Node14</title>
<g id="a_Node000014"><a xlink:href="classediteurpanovisu_1_1EditeurPanovisu.html#a7b2e25dc717eb52b62e23d54ec4c124a" target="_top" xlink:title=" ">
<polygon fill="white" stroke="#666666" points="902.88,-410 717.38,-410 717.38,-378 902.88,-378 902.88,-410"/>
<text xml:space="preserve" text-anchor="start" x="725.38" y="-396.5" font-family="Helvetica,sans-Serif" font-size="10.00">editeurpanovisu.EditeurPanovisu.projet</text>
<text xml:space="preserve" text-anchor="middle" x="810.12" y="-384.5" font-family="Helvetica,sans-Serif" font-size="10.00">SauveSous</text>
</a>
</g>
</g>
<!-- Node7&#45;&gt;Node14 -->
<g id="edge23_Node000007_Node000014" class="edge">
<title>Node7&#45;&gt;Node14</title>
<g id="a_edge23_Node000007_Node000014"><a xlink:title=" ">
<path fill="none" stroke="#63b8ff" d="M1432.08,-310.48C1408.54,-319.48 1380,-329.65 1353.75,-337 1257.1,-364.05 1231.92,-369.16 1132.25,-381 1055.37,-390.14 967.5,-393.19 903.13,-394.07"/>
<polygon fill="#63b8ff" stroke="#63b8ff" points="1433.04,-313.86 1441.1,-306.98 1430.51,-307.33 1433.04,-313.86"/>
</a>
</g>
</g>
<!-- Node8&#45;&gt;Node3 -->
<g id="edge13_Node000008_Node000003" class="edge">
<title>Node8&#45;&gt;Node3</title>
<g id="a_edge13_Node000008_Node000003"><a xlink:title=" ">
<path fill="none" stroke="#63b8ff" d="M1228.54,-268.85C1203.43,-286.29 1166.84,-309.98 1132.25,-326 1121.33,-331.06 1109.32,-335.59 1097.65,-339.51"/>
<polygon fill="#63b8ff" stroke="#63b8ff" points="1230.5,-271.75 1236.66,-263.13 1226.47,-266.02 1230.5,-271.75"/>
</a>
</g>
</g>
<!-- Node8&#45;&gt;Node4 -->
<g id="edge10_Node000008_Node000004" class="edge">
<title>Node8&#45;&gt;Node4</title>
<g id="a_edge10_Node000008_Node000004"><a xlink:title=" ">
<path fill="none" stroke="#63b8ff" d="M1156.69,-241.17C975.14,-232.68 601.1,-215.18 420.86,-206.75"/>
<polygon fill="#63b8ff" stroke="#63b8ff" points="1156.43,-244.66 1166.58,-241.63 1156.76,-237.67 1156.43,-244.66"/>
</a>
</g>
</g>
<!-- Node8&#45;&gt;Node6 -->
<g id="edge14_Node000008_Node000006" class="edge">
<title>Node8&#45;&gt;Node6</title>
<g id="a_edge14_Node000008_Node000006"><a xlink:title=" ">
<path fill="none" stroke="#63b8ff" d="M1365.33,-251.13C1440.33,-254.85 1540.88,-259.84 1613.14,-263.43"/>
<polygon fill="#63b8ff" stroke="#63b8ff" points="1365.67,-247.64 1355.5,-250.64 1365.32,-254.63 1365.67,-247.64"/>
</a>
</g>
</g>
<!-- Node9 -->
<g id="Node000009" class="node">
<title>Node9</title>
<g id="a_Node000009"><a xlink:href="classediteurpanovisu_1_1EditeurPanovisu.html#a94e36b9e9d09ab1a4c852b8a8cefa927" target="_top" xlink:title=" ">
<polygon fill="white" stroke="#666666" points="663,-196 472.25,-196 472.25,-164 663,-164 663,-196"/>
<text xml:space="preserve" text-anchor="start" x="480.25" y="-182.5" font-family="Helvetica,sans-Serif" font-size="10.00">editeurpanovisu.EditeurPanovisu.genere</text>
<text xml:space="preserve" text-anchor="middle" x="567.62" y="-170.5" font-family="Helvetica,sans-Serif" font-size="10.00">Visite</text>
</a>
</g>
</g>
<!-- Node8&#45;&gt;Node9 -->
<g id="edge11_Node000008_Node000009" class="edge">
<title>Node8&#45;&gt;Node9</title>
<g id="a_edge11_Node000008_Node000009"><a xlink:title=" ">
<path fill="none" stroke="#63b8ff" d="M1200.59,-226.31C1179.27,-220.03 1154.9,-213.75 1132.25,-210 968.99,-182.99 775.86,-178.56 663.31,-178.68"/>
<polygon fill="#63b8ff" stroke="#63b8ff" points="1199.4,-229.61 1209.99,-229.14 1201.42,-222.9 1199.4,-229.61"/>
</a>
</g>
</g>
<!-- Node10 -->
<g id="Node000010" class="node">
<title>Node10</title>
<g id="a_Node000010"><a xlink:href="classediteurpanovisu_1_1EditeurPanovisu.html#a9b46b222714af12c06ec33d410400773" target="_top" xlink:title=" ">
<polygon fill="white" stroke="#666666" points="905.5,-306 714.75,-306 714.75,-274 905.5,-274 905.5,-306"/>
<text xml:space="preserve" text-anchor="start" x="722.75" y="-292.5" font-family="Helvetica,sans-Serif" font-size="10.00">editeurpanovisu.EditeurPanovisu.projets</text>
<text xml:space="preserve" text-anchor="middle" x="810.12" y="-280.5" font-family="Helvetica,sans-Serif" font-size="10.00">Fermer</text>
</a>
</g>
</g>
<!-- Node8&#45;&gt;Node10 -->
<g id="edge15_Node000008_Node000010" class="edge">
<title>Node8&#45;&gt;Node10</title>
<g id="a_edge15_Node000008_Node000010"><a xlink:title=" ">
<path fill="none" stroke="#63b8ff" d="M1215.13,-266.93C1191.11,-276.98 1160.7,-287.93 1132.25,-293 1056.91,-306.42 970.05,-304.59 905.68,-300"/>
<polygon fill="#63b8ff" stroke="#63b8ff" points="1216.49,-270.15 1224.29,-262.99 1213.72,-263.72 1216.49,-270.15"/>
</a>
</g>
</g>
<!-- Node11 -->
<g id="Node000011" class="node">
<title>Node11</title>
<g id="a_Node000011"><a xlink:href="classediteurpanovisu_1_1EditeurPanovisu.html#ac9d449399ccd38843fa12e716f0c9611" target="_top" xlink:title=" ">
<polygon fill="white" stroke="#666666" points="1132.25,-120 941.5,-120 941.5,-88 1132.25,-88 1132.25,-120"/>
<text xml:space="preserve" text-anchor="start" x="949.5" y="-106.5" font-family="Helvetica,sans-Serif" font-size="10.00">editeurpanovisu.EditeurPanovisu.projets</text>
<text xml:space="preserve" text-anchor="middle" x="1036.88" y="-94.5" font-family="Helvetica,sans-Serif" font-size="10.00">Nouveau</text>
</a>
</g>
</g>
<!-- Node8&#45;&gt;Node11 -->
<g id="edge17_Node000008_Node000011" class="edge">
<title>Node8&#45;&gt;Node11</title>
<g id="a_edge17_Node000008_Node000011"><a xlink:title=" ">
<path fill="none" stroke="#63b8ff" d="M1237.77,-221.24C1213.92,-196.05 1173.84,-157.47 1132.25,-134 1122.82,-128.68 1112.31,-124.16 1101.83,-120.37"/>
<polygon fill="#63b8ff" stroke="#63b8ff" points="1235.09,-223.51 1244.47,-228.44 1240.22,-218.74 1235.09,-223.51"/>
</a>
</g>
</g>
<!-- Node12 -->
<g id="Node000012" class="node">
<title>Node12</title>
<g id="a_Node000012"><a xlink:href="classediteurpanovisu_1_1EditeurPanovisu.html#a2b3125ffe2e6291efacf19df6cb30a8d" target="_top" xlink:title=" ">
<polygon fill="white" stroke="#666666" points="900.62,-158 719.62,-158 719.62,-138 900.62,-138 900.62,-158"/>
<text xml:space="preserve" text-anchor="middle" x="810.12" y="-144.5" font-family="Helvetica,sans-Serif" font-size="10.00">editeurpanovisu.EditeurPanovisu.start</text>
</a>
</g>
</g>
<!-- Node8&#45;&gt;Node12 -->
<g id="edge22_Node000008_Node000012" class="edge">
<title>Node8&#45;&gt;Node12</title>
<g id="a_edge22_Node000008_Node000012"><a xlink:title=" ">
<path fill="none" stroke="#63b8ff" d="M1229.59,-223.07C1204.8,-205.74 1168.14,-183.09 1132.25,-172 1056.67,-148.64 966.53,-143.77 901.02,-144.09"/>
<polygon fill="#63b8ff" stroke="#63b8ff" points="1227.4,-225.81 1237.57,-228.77 1231.47,-220.11 1227.4,-225.81"/>
</a>
</g>
</g>
<!-- Node13 -->
<g id="Node000013" class="node">
<title>Node13</title>
<g id="a_Node000013"><a xlink:href="classediteurpanovisu_1_1EditeurPanovisu.html#aef8c9b28c3e88d6e27e3f62b9a901134" target="_top" xlink:title=" ">
<polygon fill="white" stroke="#666666" points="1130.75,-284 943,-284 943,-252 1130.75,-252 1130.75,-284"/>
<text xml:space="preserve" text-anchor="start" x="951" y="-270.5" font-family="Helvetica,sans-Serif" font-size="10.00">editeurpanovisu.EditeurPanovisu.sauve</text>
<text xml:space="preserve" text-anchor="middle" x="1036.88" y="-258.5" font-family="Helvetica,sans-Serif" font-size="10.00">Fichiers</text>
</a>
</g>
</g>
<!-- Node8&#45;&gt;Node13 -->
<g id="edge21_Node000008_Node000013" class="edge">
<title>Node8&#45;&gt;Node13</title>
<g id="a_edge21_Node000008_Node000013"><a xlink:title=" ">
<path fill="none" stroke="#63b8ff" d="M1156.85,-256.22C1148.29,-257.06 1139.67,-257.92 1131.19,-258.76"/>
<polygon fill="#63b8ff" stroke="#63b8ff" points="1156.94,-259.72 1166.54,-255.26 1156.25,-252.76 1156.94,-259.72"/>
</a>
</g>
</g>
<!-- Node9&#45;&gt;Node4 -->
<g id="edge12_Node000009_Node000004" class="edge">
<title>Node9&#45;&gt;Node4</title>
<g id="a_edge12_Node000009_Node000004"><a xlink:title=" ">
<path fill="none" stroke="#63b8ff" d="M460.99,-189.4C447.68,-190.58 434.09,-191.79 420.85,-192.97"/>
<polygon fill="#63b8ff" stroke="#63b8ff" points="460.93,-192.92 470.58,-188.55 460.31,-185.95 460.93,-192.92"/>
</a>
</g>
</g>
<!-- Node10&#45;&gt;Node4 -->
<g id="edge16_Node000010_Node000004" class="edge">
<title>Node10&#45;&gt;Node4</title>
<g id="a_edge16_Node000010_Node000004"><a xlink:title=" ">
<path fill="none" stroke="#63b8ff" d="M703.27,-277.49C632.96,-268.42 538.8,-254.82 456.5,-238 421.65,-230.88 382.46,-220.33 354.92,-212.49"/>
<polygon fill="#63b8ff" stroke="#63b8ff" points="702.48,-280.92 712.84,-278.71 703.36,-273.97 702.48,-280.92"/>
</a>
</g>
</g>
<!-- Node11&#45;&gt;Node4 -->
<g id="edge18_Node000011_Node000004" class="edge">
<title>Node11&#45;&gt;Node4</title>
<g id="a_edge18_Node000011_Node000004"><a xlink:title=" ">
<path fill="none" stroke="#63b8ff" d="M929.75,-105.27C812.63,-108.53 619.15,-119.44 456.5,-155 416.18,-163.82 371.24,-180.63 344.15,-191.57"/>
<polygon fill="#63b8ff" stroke="#63b8ff" points="929.77,-108.77 939.68,-105.01 929.59,-101.77 929.77,-108.77"/>
</a>
</g>
</g>
<!-- Node11&#45;&gt;Node12 -->
<g id="edge19_Node000011_Node000012" class="edge">
<title>Node11&#45;&gt;Node12</title>
<g id="a_edge19_Node000011_Node000012"><a xlink:title=" ">
<path fill="none" stroke="#63b8ff" d="M940.81,-122.61C914.81,-127.7 887.53,-133.04 864.74,-137.5"/>
<polygon fill="#63b8ff" stroke="#63b8ff" points="941.24,-126.09 950.38,-120.74 939.9,-119.22 941.24,-126.09"/>
</a>
</g>
</g>
<!-- Node12&#45;&gt;Node9 -->
<g id="edge20_Node000012_Node000009" class="edge">
<title>Node12&#45;&gt;Node9</title>
<g id="a_edge20_Node000012_Node000009"><a xlink:title=" ">
<path fill="none" stroke="#63b8ff" d="M719.2,-159.97C701.01,-162.39 681.83,-164.94 663.48,-167.38"/>
<polygon fill="#63b8ff" stroke="#63b8ff" points="719.43,-163.47 728.88,-158.68 718.5,-156.53 719.43,-163.47"/>
</a>
</g>
</g>
<!-- Node14&#45;&gt;Node4 -->
<g id="edge24_Node000014_Node000004" class="edge">
<title>Node14&#45;&gt;Node4</title>
<g id="a_edge24_Node000014_Node000004"><a xlink:title=" ">
<path fill="none" stroke="#63b8ff" d="M705.9,-403.23C632.43,-405.3 533.48,-398.68 456.5,-359 389.27,-324.35 340.42,-241.63 324.75,-212.43"/>
<polygon fill="#63b8ff" stroke="#63b8ff" points="705.63,-406.74 715.5,-402.89 705.38,-399.74 705.63,-406.74"/>
</a>
</g>
</g>
<!-- Node15&#45;&gt;Node11 -->
<g id="edge29_Node000015_Node000011" class="edge">
<title>Node15&#45;&gt;Node11</title>
<g id="a_edge29_Node000015_Node000011"><a xlink:title=" ">
<path fill="none" stroke="#63b8ff" d="M1207.8,-36.68C1168.55,-52.23 1115.51,-73.24 1079.19,-87.63"/>
<polygon fill="#63b8ff" stroke="#63b8ff" points="1209.07,-39.94 1217.07,-33.01 1206.49,-33.44 1209.07,-39.94"/>
</a>
</g>
</g>
<!-- Node16 -->
<g id="Node000016" class="node">
<title>Node16</title>
<g id="a_Node000016"><a xlink:href="classediteurpanovisu_1_1EditeurPanovisu.html#a924d3ccff3e4f402d2309cd2eade3237" target="_top" xlink:title=" ">
<polygon fill="white" stroke="#666666" points="678.75,-32 456.5,-32 456.5,0 678.75,0 678.75,-32"/>
<text xml:space="preserve" text-anchor="start" x="464.5" y="-18.5" font-family="Helvetica,sans-Serif" font-size="10.00">editeurpanovisu.EditeurPanovisu.panoramiques</text>
<text xml:space="preserve" text-anchor="middle" x="567.62" y="-6.5" font-family="Helvetica,sans-Serif" font-size="10.00">Ajouter</text>
</a>
</g>
</g>
<!-- Node15&#45;&gt;Node16 -->
<g id="edge27_Node000015_Node000016" class="edge">
<title>Node15&#45;&gt;Node16</title>
<g id="a_edge27_Node000015_Node000016"><a xlink:title=" ">
<path fill="none" stroke="#63b8ff" d="M1161.86,-16C1034.35,-16 812.35,-16 679.08,-16"/>
<polygon fill="#63b8ff" stroke="#63b8ff" points="1161.62,-19.5 1171.62,-16 1161.62,-12.5 1161.62,-19.5"/>
</a>
</g>
</g>
<!-- Node16&#45;&gt;Node4 -->
<g id="edge28_Node000016_Node000004" class="edge">
<title>Node16&#45;&gt;Node4</title>
<g id="a_edge28_Node000016_Node000004"><a xlink:title=" ">
<path fill="none" stroke="#63b8ff" d="M474.32,-36.68C468.11,-39.41 462.1,-42.51 456.5,-46 392.87,-85.7 342.11,-163.87 325.32,-191.79"/>
<polygon fill="#63b8ff" stroke="#63b8ff" points="475.57,-39.95 483.54,-32.96 472.95,-33.45 475.57,-39.95"/>
</a>
</g>
</g>
</g>
</svg>

<g id="navigator" transform="translate(0 0)" fill="#404254">
  <rect fill="#f2f5e9" fill-opacity="0.5" stroke="#606060" stroke-width=".5" x="0" y="0" width="60" height="60"/>
  <use id="zoomplus" xlink:href="#zoomPlus" x="17" y="9" onmousedown="handleZoom(evt,'in')"/>
  <use id="zoomminus" xlink:href="#zoomMin" x="42" y="9" onmousedown="handleZoom(evt,'out')"/>
  <use id="reset" xlink:href="#resetDef" x="30" y="36" onmousedown="handleReset()"/>
   <use id="arrowup" xlink:href="#arrowUp" x="0" y="0" onmousedown="handlePan(0,-1)"/>
  <use id="arrowright" xlink:href="#arrowRight" x="0" y="0" onmousedown="handlePan(1,0)"/>
  <use id="arrowdown" xlink:href="#arrowDown" x="0" y="0" onmousedown="handlePan(0,1)"/>
  <use id="arrowleft" xlink:href="#arrowLeft" x="0" y="0" onmousedown="handlePan(-1,0)"/>
</g>
<svg viewBox="0 0 15 15" width="100%" height="30px" preserveAspectRatio="xMaxYMin meet">
 <g id="arrow_out" transform="scale(0.3 0.3)">
  <a xlink:href="classediteurpanovisu_1_1GestionnaireInterfaceController_a568c34e865fb653f63b8fa7a9a9cafc8_icgraph_org.svg" target="_base">
   <rect id="button" ry="5" rx="5" y="6" x="6" height="38" width="38"
        fill="#f2f5e9" fill-opacity="0.5" stroke="#606060" stroke-width="1.0"/>
   <path id="arrow"
     d="M 11.500037,31.436501 C 11.940474,20.09759 22.043105,11.32322 32.158766,21.979434 L 37.068811,17.246167 C 37.068811,17.246167 37.088388,32 37.088388,32 L 22.160133,31.978069 C 22.160133,31.978069 26.997745,27.140456 26.997745,27.140456 C 18.528582,18.264221 13.291696,25.230495 11.500037,31.436501 z"
     style="fill:#404040;"/>
  </a>
 </g>
</svg>

<style type='text/css'>
<![CDATA[
[data-mouse-over-selected='false'] { opacity: 0.7; }
[data-mouse-over-selected='true']  { opacity: 1.0; }
]]>
</style>
<script type="application/ecmascript"><![CDATA[
document.addEventListener('DOMContentLoaded', (event) => {
  highlightEdges();
  highlightAdjacentNodes();
});
]]></script>
</svg>
