<?xml version="1.0" encoding="UTF-8" standalone="no"?>
<!DOCTYPE svg PUBLIC "-//W3C//DTD SVG 1.1//EN"
 "http://www.w3.org/Graphics/SVG/1.1/DTD/svg11.dtd">
<!-- Generated by graphviz version 13.1.2 (20250808.2320)
 -->
<!-- Title: editeurpanovisu.GestionnaireInterfaceController.getTailleBarreClassique Pages: 1 -->
<!--zoomable 456 -->

<svg id="main" version="1.1" xmlns="http://www.w3.org/2000/svg" xmlns:xlink="http://www.w3.org/1999/xlink" xml:space="preserve" onload="init(evt)">

<style type="text/css"><![CDATA[
.node, .edge {opacity: 0.7;}
.node.selected, .edge.selected {opacity: 1;}
.edge:hover path { stroke: red; }
.edge:hover polygon { stroke: red; fill: red; }
]]></style>

<defs>
  <circle id="rim" cx="0" cy="0" r="7"/>
  <circle id="rim2" cx="0" cy="0" r="3.5"/>
  <g id="zoomPlus">
    <use xlink:href="#rim" fill="#404040"><set attributeName="fill" to="#808080" begin="zoomplus.mouseover" end="zoomplus.mouseout"/></use>
    <path d="M-4,0h8M0,-4v8" fill="none" stroke="white" stroke-width="1.5" pointer-events="none"/>
  </g>
  <g id="zoomMin">
    <use xlink:href="#rim" fill="#404040"><set attributeName="fill" to="#808080" begin="zoomminus.mouseover" end="zoomminus.mouseout"/></use>
    <path d="M-4,0h8" fill="none" stroke="white" stroke-width="1.5" pointer-events="none"/>
  </g>
  <g id="arrowUp" transform="translate(30 24)">
    <use xlink:href="#rim"/>
    <path pointer-events="none" fill="none" stroke="white" stroke-width="1.5" d="M0,-3.0v7 M-2.5,-0.5L0,-3.0L2.5,-0.5"/>
  </g>
  <g id="arrowRight" transform="rotate(90) translate(36 -43)">
    <use xlink:href="#rim"/>
    <path pointer-events="none" fill="none" stroke="white" stroke-width="1.5" d="M0,-3.0v7 M-2.5,-0.5L0,-3.0L2.5,-0.5"/>
  </g>
  <g id="arrowDown" transform="rotate(180) translate(-30 -48)">
    <use xlink:href="#rim"/>
    <path pointer-events="none" fill="none" stroke="white" stroke-width="1.5" d="M0,-3.0v7 M-2.5,-0.5L0,-3.0L2.5,-0.5"/>
  </g>
  <g id="arrowLeft" transform="rotate(270) translate(-36 17)">
    <use xlink:href="#rim"/>
    <path pointer-events="none" fill="none" stroke="white" stroke-width="1.5" d="M0,-3.0v7 M-2.5,-0.5L0,-3.0L2.5,-0.5"/>
  </g>
  <g id="resetDef">
    <use xlink:href="#rim2" fill="#404040"><set attributeName="fill" to="#808080" begin="reset.mouseover" end="reset.mouseout"/></use>
  </g>
</defs>
<script type="application/ecmascript">
var viewWidth = 2621;
var viewHeight = 456;
var sectionId = 'dynsection-207';
</script>
<script type="application/ecmascript" xlink:href="svg.min.js"/>
<svg id="graph" class="graph">
<g id="viewport">
<title>editeurpanovisu.GestionnaireInterfaceController.getTailleBarreClassique</title>
<!-- Node1 -->
<g id="Node000001" class="node">
<title>Node1</title>
<g id="a_Node000001"><a xlink:title=" ">
<polygon fill="#999999" stroke="#666666" points="2613,-148 2454.5,-148 2454.5,-104 2613,-104 2613,-148"/>
<text xml:space="preserve" text-anchor="start" x="2462.5" y="-134.5" font-family="Helvetica,sans-Serif" font-size="10.00">editeurpanovisu.Gestionnaire</text>
<text xml:space="preserve" text-anchor="start" x="2462.5" y="-122.5" font-family="Helvetica,sans-Serif" font-size="10.00">InterfaceController.getTailleBarre</text>
<text xml:space="preserve" text-anchor="middle" x="2533.75" y="-110.5" font-family="Helvetica,sans-Serif" font-size="10.00">Classique</text>
</a>
</g>
</g>
<!-- Node2 -->
<g id="Node000002" class="node">
<title>Node2</title>
<g id="a_Node000002"><a xlink:href="classediteurpanovisu_1_1GestionnaireInterfaceController.html#a7c5cff6934d95be9a4babb6426a5ac26" target="_top" xlink:title=" ">
<polygon fill="white" stroke="#666666" points="2414,-236 2254,-236 2254,-192 2414,-192 2414,-236"/>
<text xml:space="preserve" text-anchor="start" x="2262" y="-222.5" font-family="Helvetica,sans-Serif" font-size="10.00">editeurpanovisu.Gestionnaire</text>
<text xml:space="preserve" text-anchor="start" x="2262" y="-210.5" font-family="Helvetica,sans-Serif" font-size="10.00">InterfaceController.afficheImages</text>
<text xml:space="preserve" text-anchor="middle" x="2334" y="-198.5" font-family="Helvetica,sans-Serif" font-size="10.00">FondInterface</text>
</a>
</g>
</g>
<!-- Node1&#45;&gt;Node2 -->
<g id="edge1_Node000001_Node000002" class="edge">
<title>Node1&#45;&gt;Node2</title>
<g id="a_edge1_Node000001_Node000002"><a xlink:title=" ">
<path fill="none" stroke="#63b8ff" d="M2473.72,-153.14C2456,-161.21 2436.49,-170.03 2418.5,-178 2408.4,-182.48 2397.58,-187.2 2387.18,-191.69"/>
<polygon fill="#63b8ff" stroke="#63b8ff" points="2474.9,-156.45 2482.54,-149.11 2471.99,-150.08 2474.9,-156.45"/>
</a>
</g>
</g>
<!-- Node3 -->
<g id="Node000003" class="node">
<title>Node3</title>
<g id="a_Node000003"><a xlink:href="classediteurpanovisu_1_1GestionnaireInterfaceController.html#a55c8afda208674955a13d48d02be41b8" target="_top" xlink:title=" ">
<polygon fill="white" stroke="#666666" points="2213.5,-192 2046,-192 2046,-160 2213.5,-160 2213.5,-192"/>
<text xml:space="preserve" text-anchor="start" x="2054" y="-178.5" font-family="Helvetica,sans-Serif" font-size="10.00">editeurpanovisu.Gestionnaire</text>
<text xml:space="preserve" text-anchor="middle" x="2129.75" y="-166.5" font-family="Helvetica,sans-Serif" font-size="10.00">InterfaceController.afficheTemplate</text>
</a>
</g>
</g>
<!-- Node1&#45;&gt;Node3 -->
<g id="edge2_Node000001_Node000003" class="edge">
<title>Node1&#45;&gt;Node3</title>
<g id="a_edge2_Node000001_Node000003"><a xlink:title=" ">
<path fill="none" stroke="#63b8ff" d="M2443.08,-137.15C2374.53,-145.68 2280.73,-157.35 2213.86,-165.66"/>
<polygon fill="#63b8ff" stroke="#63b8ff" points="2443.29,-140.65 2452.78,-135.95 2442.43,-133.71 2443.29,-140.65"/>
</a>
</g>
</g>
<!-- Node17 -->
<g id="Node000017" class="node">
<title>Node17</title>
<g id="a_Node000017"><a xlink:href="classediteurpanovisu_1_1GestionnaireInterfaceController.html#a5bdd1505c1ad1eee506c2618c9368994" target="_top" xlink:title=" ">
<polygon fill="white" stroke="#666666" points="2418.5,-98 2249.5,-98 2249.5,-66 2418.5,-66 2418.5,-98"/>
<text xml:space="preserve" text-anchor="start" x="2257.5" y="-84.5" font-family="Helvetica,sans-Serif" font-size="10.00">editeurpanovisu.Gestionnaire</text>
<text xml:space="preserve" text-anchor="middle" x="2334" y="-72.5" font-family="Helvetica,sans-Serif" font-size="10.00">InterfaceController.afficheVignettes</text>
</a>
</g>
</g>
<!-- Node1&#45;&gt;Node17 -->
<g id="edge28_Node000001_Node000017" class="edge">
<title>Node1&#45;&gt;Node17</title>
<g id="a_edge28_Node000001_Node000017"><a xlink:title=" ">
<path fill="none" stroke="#63b8ff" d="M2443.13,-106.06C2431.7,-103.52 2420.1,-100.94 2408.95,-98.45"/>
<polygon fill="#63b8ff" stroke="#63b8ff" points="2442.03,-109.4 2452.55,-108.15 2443.55,-102.57 2442.03,-109.4"/>
</a>
</g>
</g>
<!-- Node19 -->
<g id="Node000019" class="node">
<title>Node19</title>
<g id="a_Node000019"><a xlink:href="classediteurpanovisu_1_1GestionnaireInterfaceController.html#ac7fa988dc99d8684686127a2269cd66e" target="_top" xlink:title=" ">
<polygon fill="white" stroke="#666666" points="2000.62,-32 1844.38,-32 1844.38,0 2000.62,0 2000.62,-32"/>
<text xml:space="preserve" text-anchor="start" x="1852.38" y="-18.5" font-family="Helvetica,sans-Serif" font-size="10.00">editeurpanovisu.Gestionnaire</text>
<text xml:space="preserve" text-anchor="middle" x="1922.5" y="-6.5" font-family="Helvetica,sans-Serif" font-size="10.00">InterfaceController.creeInterface</text>
</a>
</g>
</g>
<!-- Node1&#45;&gt;Node19 -->
<g id="edge39_Node000001_Node000019" class="edge">
<title>Node1&#45;&gt;Node19</title>
<g id="a_edge39_Node000001_Node000019"><a xlink:title=" ">
<path fill="none" stroke="#63b8ff" d="M2492.9,-97.43C2471.7,-83.42 2444.65,-67.37 2418.5,-57 2279.21,-1.79 2100.98,-2.64 2000.82,-8.88"/>
<polygon fill="#63b8ff" stroke="#63b8ff" points="2490.71,-100.17 2500.96,-102.85 2494.62,-94.37 2490.71,-100.17"/>
</a>
</g>
</g>
<!-- Node20 -->
<g id="Node000020" class="node">
<title>Node20</title>
<g id="a_Node000020"><a xlink:href="classediteurpanovisu_1_1GestionnaireInterfaceController.html#a568c34e865fb653f63b8fa7a9a9cafc8" target="_top" xlink:title=" ">
<polygon fill="white" stroke="#666666" points="2200.75,-142 2058.75,-142 2058.75,-110 2200.75,-110 2200.75,-142"/>
<text xml:space="preserve" text-anchor="start" x="2066.75" y="-128.5" font-family="Helvetica,sans-Serif" font-size="10.00">editeurpanovisu.Gestionnaire</text>
<text xml:space="preserve" text-anchor="middle" x="2129.75" y="-116.5" font-family="Helvetica,sans-Serif" font-size="10.00">InterfaceController.rafraichit</text>
</a>
</g>
</g>
<!-- Node1&#45;&gt;Node20 -->
<g id="edge40_Node000001_Node000020" class="edge">
<title>Node1&#45;&gt;Node20</title>
<g id="a_edge40_Node000001_Node000020"><a xlink:title=" ">
<path fill="none" stroke="#63b8ff" d="M2442.81,-126C2369.74,-126 2268.12,-126 2200.95,-126"/>
<polygon fill="#63b8ff" stroke="#63b8ff" points="2442.77,-129.5 2452.77,-126 2442.77,-122.5 2442.77,-129.5"/>
</a>
</g>
</g>
<!-- Node4 -->
<g id="Node000004" class="node">
<title>Node4</title>
<g id="a_Node000004"><a xlink:href="classediteurpanovisu_1_1EditeurPanovisu.html#a87b29dc258cfc67370b1f27809e91b8e" target="_top" xlink:title=" ">
<polygon fill="white" stroke="#666666" points="2010,-235 1835,-235 1835,-203 2010,-203 2010,-235"/>
<text xml:space="preserve" text-anchor="start" x="1843" y="-221.5" font-family="Helvetica,sans-Serif" font-size="10.00">editeurpanovisu.EditeurPanovisu.tsk</text>
<text xml:space="preserve" text-anchor="middle" x="1922.5" y="-209.5" font-family="Helvetica,sans-Serif" font-size="10.00">AnalyseFichierPVU</text>
</a>
</g>
</g>
<!-- Node3&#45;&gt;Node4 -->
<g id="edge3_Node000003_Node000004" class="edge">
<title>Node3&#45;&gt;Node4</title>
<g id="a_edge3_Node000003_Node000004"><a xlink:title=" ">
<path fill="none" stroke="#63b8ff" d="M2039.02,-194.8C2026.67,-197.39 2014.06,-200.03 2001.93,-202.57"/>
<polygon fill="#63b8ff" stroke="#63b8ff" points="2039.72,-198.23 2048.79,-192.75 2038.29,-191.38 2039.72,-198.23"/>
</a>
</g>
</g>
<!-- Node5 -->
<g id="Node000005" class="node">
<title>Node5</title>
<g id="a_Node000005"><a xlink:href="classediteurpanovisu_1_1EditeurPanovisu.html#ab4beb1597b660a4a253befc6e76f1c54" target="_top" xlink:title=" ">
<polygon fill="white" stroke="#666666" points="1129.62,-410 944.12,-410 944.12,-378 1129.62,-378 1129.62,-410"/>
<text xml:space="preserve" text-anchor="start" x="952.12" y="-396.5" font-family="Helvetica,sans-Serif" font-size="10.00">editeurpanovisu.EditeurPanovisu.projet</text>
<text xml:space="preserve" text-anchor="middle" x="1036.88" y="-384.5" font-family="Helvetica,sans-Serif" font-size="10.00">Charge</text>
</a>
</g>
</g>
<!-- Node4&#45;&gt;Node5 -->
<g id="edge4_Node000004_Node000005" class="edge">
<title>Node4&#45;&gt;Node5</title>
<g id="a_edge4_Node000004_Node000005"><a xlink:title=" ">
<path fill="none" stroke="#63b8ff" d="M1873.19,-239.72C1850.91,-248.71 1823.92,-258.8 1799,-266 1562.94,-334.19 1274.53,-370.37 1129.89,-385.41"/>
<polygon fill="#63b8ff" stroke="#63b8ff" points="1874.39,-243.01 1882.32,-235.99 1871.74,-236.53 1874.39,-243.01"/>
</a>
</g>
</g>
<!-- Node8 -->
<g id="Node000008" class="node">
<title>Node8</title>
<g id="a_Node000008"><a xlink:href="classediteurpanovisu_1_1EditeurPanovisu.html#a6d19b4d885ee6fcec827b91956295732" target="_top" xlink:title=" ">
<polygon fill="white" stroke="#666666" points="1799,-257 1613.5,-257 1613.5,-225 1799,-225 1799,-257"/>
<text xml:space="preserve" text-anchor="start" x="1621.5" y="-243.5" font-family="Helvetica,sans-Serif" font-size="10.00">editeurpanovisu.EditeurPanovisu.projet</text>
<text xml:space="preserve" text-anchor="middle" x="1706.25" y="-231.5" font-family="Helvetica,sans-Serif" font-size="10.00">ChargeNom</text>
</a>
</g>
</g>
<!-- Node4&#45;&gt;Node8 -->
<g id="edge7_Node000004_Node000008" class="edge">
<title>Node4&#45;&gt;Node8</title>
<g id="a_edge7_Node000004_Node000008"><a xlink:title=" ">
<path fill="none" stroke="#63b8ff" d="M1823.44,-229.07C1815.45,-229.89 1807.39,-230.72 1799.45,-231.53"/>
<polygon fill="#63b8ff" stroke="#63b8ff" points="1823.57,-232.57 1833.16,-228.07 1822.85,-225.61 1823.57,-232.57"/>
</a>
</g>
</g>
<!-- Node6 -->
<g id="Node000006" class="node">
<title>Node6</title>
<g id="a_Node000006"><a xlink:href="classediteurpanovisu_1_1EditeurPanovisu.html#ac912b80c1f2ac97def60ff005c5c480b" target="_top" xlink:title=" ">
<polygon fill="white" stroke="#666666" points="420.5,-250 216.25,-250 216.25,-230 420.5,-230 420.5,-250"/>
<text xml:space="preserve" text-anchor="middle" x="318.38" y="-236.5" font-family="Helvetica,sans-Serif" font-size="10.00">editeurpanovisu.EditeurPanovisu.creeMenu</text>
</a>
</g>
</g>
<!-- Node5&#45;&gt;Node6 -->
<g id="edge5_Node000005_Node000006" class="edge">
<title>Node5&#45;&gt;Node6</title>
<g id="a_edge5_Node000005_Node000006"><a xlink:title=" ">
<path fill="none" stroke="#63b8ff" d="M932.72,-389.19C814.96,-381.31 617.76,-360.8 456.5,-308 411.04,-293.12 361.72,-265.54 336.44,-250.49"/>
<polygon fill="#63b8ff" stroke="#63b8ff" points="932.15,-392.66 942.36,-389.81 932.61,-385.67 932.15,-392.66"/>
</a>
</g>
</g>
<!-- Node7 -->
<g id="Node000007" class="node">
<title>Node7</title>
<g id="a_Node000007"><a xlink:href="classediteurpanovisu_1_1EditeurPanovisu.html#a86c393eee88f54c694db994ddd85b90d" target="_top" xlink:title=" ">
<polygon fill="white" stroke="#666666" points="180.25,-256 0,-256 0,-224 180.25,-224 180.25,-256"/>
<text xml:space="preserve" text-anchor="start" x="8" y="-242.5" font-family="Helvetica,sans-Serif" font-size="10.00">editeurpanovisu.EditeurPanovisu.cree</text>
<text xml:space="preserve" text-anchor="middle" x="90.12" y="-230.5" font-family="Helvetica,sans-Serif" font-size="10.00">Environnement</text>
</a>
</g>
</g>
<!-- Node6&#45;&gt;Node7 -->
<g id="edge6_Node000006_Node000007" class="edge">
<title>Node6&#45;&gt;Node7</title>
<g id="a_edge6_Node000006_Node000007"><a xlink:title=" ">
<path fill="none" stroke="#63b8ff" d="M204.51,-240C196.49,-240 188.46,-240 180.6,-240"/>
<polygon fill="#63b8ff" stroke="#63b8ff" points="204.32,-243.5 214.32,-240 204.32,-236.5 204.32,-243.5"/>
</a>
</g>
</g>
<!-- Node8&#45;&gt;Node6 -->
<g id="edge27_Node000008_Node000006" class="edge">
<title>Node8&#45;&gt;Node6</title>
<g id="a_edge27_Node000008_Node000006"><a xlink:title=" ">
<path fill="none" stroke="#63b8ff" d="M1666.2,-219.24C1590.61,-179.22 1418,-98 1262,-98 1262,-98 1262,-98 809.12,-98 650.3,-98 605.35,-100.6 456.5,-156 407.05,-174.41 355.87,-211.42 332.47,-229.53"/>
<polygon fill="#63b8ff" stroke="#63b8ff" points="1664.4,-222.25 1674.87,-223.88 1667.71,-216.07 1664.4,-222.25"/>
</a>
</g>
</g>
<!-- Node9 -->
<g id="Node000009" class="node">
<title>Node9</title>
<g id="a_Node000009"><a xlink:href="classediteurpanovisu_1_1EditeurPanovisu.html#af0d1c32bb78acbff561c822a0d15f760" target="_top" xlink:title=" ">
<polygon fill="white" stroke="#666666" points="1577.5,-301 1389.75,-301 1389.75,-269 1577.5,-269 1577.5,-301"/>
<text xml:space="preserve" text-anchor="start" x="1397.75" y="-287.5" font-family="Helvetica,sans-Serif" font-size="10.00">editeurpanovisu.EditeurPanovisu.ajoute</text>
<text xml:space="preserve" text-anchor="middle" x="1483.62" y="-275.5" font-family="Helvetica,sans-Serif" font-size="10.00">FichierHisto</text>
</a>
</g>
</g>
<!-- Node8&#45;&gt;Node9 -->
<g id="edge8_Node000008_Node000009" class="edge">
<title>Node8&#45;&gt;Node9</title>
<g id="a_edge8_Node000008_Node000009"><a xlink:title=" ">
<path fill="none" stroke="#63b8ff" d="M1602.04,-254.85C1579.75,-259.21 1557.08,-264.03 1537.68,-268.55"/>
<polygon fill="#63b8ff" stroke="#63b8ff" points="1602.64,-258.29 1611.8,-252.96 1601.31,-251.42 1602.64,-258.29"/>
</a>
</g>
</g>
<!-- Node9&#45;&gt;Node5 -->
<g id="edge9_Node000009_Node000005" class="edge">
<title>Node9&#45;&gt;Node5</title>
<g id="a_edge9_Node000009_Node000005"><a xlink:title=" ">
<path fill="none" stroke="#63b8ff" d="M1404.44,-304.16C1319.57,-324.96 1185.44,-357.83 1105.12,-377.52"/>
<polygon fill="#63b8ff" stroke="#63b8ff" points="1405.21,-307.58 1414.09,-301.8 1403.54,-300.78 1405.21,-307.58"/>
</a>
</g>
</g>
<!-- Node9&#45;&gt;Node8 -->
<g id="edge10_Node000009_Node000008" class="edge">
<title>Node9&#45;&gt;Node8</title>
<g id="a_edge10_Node000009_Node000008"><a xlink:title=" ">
<path fill="none" stroke="#63b8ff" d="M1588.86,-270.95C1610.79,-266.65 1633.04,-261.92 1652.12,-257.46"/>
<polygon fill="#63b8ff" stroke="#63b8ff" points="1588.43,-267.47 1579.28,-272.81 1589.76,-274.34 1588.43,-267.47"/>
</a>
</g>
</g>
<!-- Node10 -->
<g id="Node000010" class="node">
<title>Node10</title>
<g id="a_Node000010"><a xlink:href="classediteurpanovisu_1_1EditeurPanovisu.html#a9f3ea25b35d4884524508dab3dc4fd6a" target="_top" xlink:title=" ">
<polygon fill="white" stroke="#666666" points="1353.75,-278 1168.25,-278 1168.25,-246 1353.75,-246 1353.75,-278"/>
<text xml:space="preserve" text-anchor="start" x="1176.25" y="-264.5" font-family="Helvetica,sans-Serif" font-size="10.00">editeurpanovisu.EditeurPanovisu.projet</text>
<text xml:space="preserve" text-anchor="middle" x="1261" y="-252.5" font-family="Helvetica,sans-Serif" font-size="10.00">Sauve</text>
</a>
</g>
</g>
<!-- Node9&#45;&gt;Node10 -->
<g id="edge11_Node000009_Node000010" class="edge">
<title>Node9&#45;&gt;Node10</title>
<g id="a_edge11_Node000009_Node000010"><a xlink:title=" ">
<path fill="none" stroke="#63b8ff" d="M1378.13,-274.11C1370.14,-273.27 1362.11,-272.44 1354.21,-271.61"/>
<polygon fill="#63b8ff" stroke="#63b8ff" points="1377.57,-277.57 1387.87,-275.12 1378.29,-270.6 1377.57,-277.57"/>
</a>
</g>
</g>
<!-- Node16 -->
<g id="Node000016" class="node">
<title>Node16</title>
<g id="a_Node000016"><a xlink:href="classediteurpanovisu_1_1EditeurPanovisu.html#a7b2e25dc717eb52b62e23d54ec4c124a" target="_top" xlink:title=" ">
<polygon fill="white" stroke="#666666" points="902.88,-448 717.38,-448 717.38,-416 902.88,-416 902.88,-448"/>
<text xml:space="preserve" text-anchor="start" x="725.38" y="-434.5" font-family="Helvetica,sans-Serif" font-size="10.00">editeurpanovisu.EditeurPanovisu.projet</text>
<text xml:space="preserve" text-anchor="middle" x="810.12" y="-422.5" font-family="Helvetica,sans-Serif" font-size="10.00">SauveSous</text>
</a>
</g>
</g>
<!-- Node9&#45;&gt;Node16 -->
<g id="edge25_Node000009_Node000016" class="edge">
<title>Node9&#45;&gt;Node16</title>
<g id="a_edge25_Node000009_Node000016"><a xlink:title=" ">
<path fill="none" stroke="#63b8ff" d="M1445.89,-307.29C1420.63,-321.96 1385.95,-340.82 1353.75,-354 1258.8,-392.86 1233.49,-402.36 1132.25,-419 1055.72,-431.58 967.62,-434.33 903.08,-434.22"/>
<polygon fill="#63b8ff" stroke="#63b8ff" points="1447.61,-310.34 1454.46,-302.26 1444.07,-304.31 1447.61,-310.34"/>
</a>
</g>
</g>
<!-- Node10&#45;&gt;Node5 -->
<g id="edge15_Node000010_Node000005" class="edge">
<title>Node10&#45;&gt;Node5</title>
<g id="a_edge15_Node000010_Node000005"><a xlink:title=" ">
<path fill="none" stroke="#63b8ff" d="M1230.94,-285.42C1194.09,-315.08 1135,-362.53 1132.25,-364 1122.39,-369.27 1111.46,-373.79 1100.63,-377.62"/>
<polygon fill="#63b8ff" stroke="#63b8ff" points="1233,-288.25 1238.6,-279.25 1228.61,-282.8 1233,-288.25"/>
</a>
</g>
</g>
<!-- Node10&#45;&gt;Node6 -->
<g id="edge12_Node000010_Node000006" class="edge">
<title>Node10&#45;&gt;Node6</title>
<g id="a_edge12_Node000010_Node000006"><a xlink:title=" ">
<path fill="none" stroke="#63b8ff" d="M1156.69,-259.58C975.14,-255.34 601.1,-246.59 420.86,-242.37"/>
<polygon fill="#63b8ff" stroke="#63b8ff" points="1156.5,-263.08 1166.58,-259.82 1156.67,-256.08 1156.5,-263.08"/>
</a>
</g>
</g>
<!-- Node10&#45;&gt;Node8 -->
<g id="edge16_Node000010_Node000008" class="edge">
<title>Node10&#45;&gt;Node8</title>
<g id="a_edge16_Node000010_Node000008"><a xlink:title=" ">
<path fill="none" stroke="#63b8ff" d="M1365.33,-257.1C1440.33,-253.55 1540.88,-248.79 1613.14,-245.36"/>
<polygon fill="#63b8ff" stroke="#63b8ff" points="1365.33,-253.6 1355.5,-257.57 1365.66,-260.59 1365.33,-253.6"/>
</a>
</g>
</g>
<!-- Node11 -->
<g id="Node000011" class="node">
<title>Node11</title>
<g id="a_Node000011"><a xlink:href="classediteurpanovisu_1_1EditeurPanovisu.html#a94e36b9e9d09ab1a4c852b8a8cefa927" target="_top" xlink:title=" ">
<polygon fill="white" stroke="#666666" points="663,-234 472.25,-234 472.25,-202 663,-202 663,-234"/>
<text xml:space="preserve" text-anchor="start" x="480.25" y="-220.5" font-family="Helvetica,sans-Serif" font-size="10.00">editeurpanovisu.EditeurPanovisu.genere</text>
<text xml:space="preserve" text-anchor="middle" x="567.62" y="-208.5" font-family="Helvetica,sans-Serif" font-size="10.00">Visite</text>
</a>
</g>
</g>
<!-- Node10&#45;&gt;Node11 -->
<g id="edge13_Node000010_Node000011" class="edge">
<title>Node10&#45;&gt;Node11</title>
<g id="a_edge13_Node000010_Node000011"><a xlink:title=" ">
<path fill="none" stroke="#63b8ff" d="M1156.68,-250.18C1148.42,-249.39 1140.2,-248.65 1132.25,-248 967.68,-234.61 775.57,-225.85 663.47,-221.43"/>
<polygon fill="#63b8ff" stroke="#63b8ff" points="1156.15,-253.64 1166.44,-251.14 1156.84,-246.68 1156.15,-253.64"/>
</a>
</g>
</g>
<!-- Node12 -->
<g id="Node000012" class="node">
<title>Node12</title>
<g id="a_Node000012"><a xlink:href="classediteurpanovisu_1_1EditeurPanovisu.html#a9b46b222714af12c06ec33d410400773" target="_top" xlink:title=" ">
<polygon fill="white" stroke="#666666" points="905.5,-344 714.75,-344 714.75,-312 905.5,-312 905.5,-344"/>
<text xml:space="preserve" text-anchor="start" x="722.75" y="-330.5" font-family="Helvetica,sans-Serif" font-size="10.00">editeurpanovisu.EditeurPanovisu.projets</text>
<text xml:space="preserve" text-anchor="middle" x="810.12" y="-318.5" font-family="Helvetica,sans-Serif" font-size="10.00">Fermer</text>
</a>
</g>
</g>
<!-- Node10&#45;&gt;Node12 -->
<g id="edge17_Node000010_Node000012" class="edge">
<title>Node10&#45;&gt;Node12</title>
<g id="a_edge17_Node000010_Node000012"><a xlink:title=" ">
<path fill="none" stroke="#63b8ff" d="M1228.65,-284.69C1203.85,-301.16 1167.63,-322.06 1132.25,-331 1057.79,-349.82 970.49,-347.52 905.72,-341.38"/>
<polygon fill="#63b8ff" stroke="#63b8ff" points="1230.34,-287.77 1236.64,-279.25 1226.4,-281.99 1230.34,-287.77"/>
</a>
</g>
</g>
<!-- Node13 -->
<g id="Node000013" class="node">
<title>Node13</title>
<g id="a_Node000013"><a xlink:href="classediteurpanovisu_1_1EditeurPanovisu.html#ac9d449399ccd38843fa12e716f0c9611" target="_top" xlink:title=" ">
<polygon fill="white" stroke="#666666" points="1132.25,-158 941.5,-158 941.5,-126 1132.25,-126 1132.25,-158"/>
<text xml:space="preserve" text-anchor="start" x="949.5" y="-144.5" font-family="Helvetica,sans-Serif" font-size="10.00">editeurpanovisu.EditeurPanovisu.projets</text>
<text xml:space="preserve" text-anchor="middle" x="1036.88" y="-132.5" font-family="Helvetica,sans-Serif" font-size="10.00">Nouveau</text>
</a>
</g>
</g>
<!-- Node10&#45;&gt;Node13 -->
<g id="edge19_Node000010_Node000013" class="edge">
<title>Node10&#45;&gt;Node13</title>
<g id="a_edge19_Node000010_Node000013"><a xlink:title=" ">
<path fill="none" stroke="#63b8ff" d="M1231.99,-238.44C1207.11,-218.49 1169.1,-190.29 1132.25,-172 1121.86,-166.84 1110.38,-162.32 1099.12,-158.45"/>
<polygon fill="#63b8ff" stroke="#63b8ff" points="1229.7,-241.1 1239.67,-244.69 1234.12,-235.67 1229.7,-241.1"/>
</a>
</g>
</g>
<!-- Node14 -->
<g id="Node000014" class="node">
<title>Node14</title>
<g id="a_Node000014"><a xlink:href="classediteurpanovisu_1_1EditeurPanovisu.html#a2b3125ffe2e6291efacf19df6cb30a8d" target="_top" xlink:title=" ">
<polygon fill="white" stroke="#666666" points="900.62,-196 719.62,-196 719.62,-176 900.62,-176 900.62,-196"/>
<text xml:space="preserve" text-anchor="middle" x="810.12" y="-182.5" font-family="Helvetica,sans-Serif" font-size="10.00">editeurpanovisu.EditeurPanovisu.start</text>
</a>
</g>
</g>
<!-- Node10&#45;&gt;Node14 -->
<g id="edge24_Node000010_Node000014" class="edge">
<title>Node10&#45;&gt;Node14</title>
<g id="a_edge24_Node000010_Node000014"><a xlink:title=" ">
<path fill="none" stroke="#63b8ff" d="M1217.53,-240.81C1193.18,-229.66 1161.7,-216.91 1132.25,-210 1055.51,-191.98 965.89,-186.53 900.85,-185.27"/>
<polygon fill="#63b8ff" stroke="#63b8ff" points="1215.93,-243.92 1226.47,-244.98 1218.89,-237.58 1215.93,-243.92"/>
</a>
</g>
</g>
<!-- Node15 -->
<g id="Node000015" class="node">
<title>Node15</title>
<g id="a_Node000015"><a xlink:href="classediteurpanovisu_1_1EditeurPanovisu.html#aef8c9b28c3e88d6e27e3f62b9a901134" target="_top" xlink:title=" ">
<polygon fill="white" stroke="#666666" points="1130.75,-322 943,-322 943,-290 1130.75,-290 1130.75,-322"/>
<text xml:space="preserve" text-anchor="start" x="951" y="-308.5" font-family="Helvetica,sans-Serif" font-size="10.00">editeurpanovisu.EditeurPanovisu.sauve</text>
<text xml:space="preserve" text-anchor="middle" x="1036.88" y="-296.5" font-family="Helvetica,sans-Serif" font-size="10.00">Fichiers</text>
</a>
</g>
</g>
<!-- Node10&#45;&gt;Node15 -->
<g id="edge23_Node000010_Node000015" class="edge">
<title>Node10&#45;&gt;Node15</title>
<g id="a_edge23_Node000010_Node000015"><a xlink:title=" ">
<path fill="none" stroke="#63b8ff" d="M1165.74,-280.67C1150.93,-283.6 1135.71,-286.62 1121.17,-289.5"/>
<polygon fill="#63b8ff" stroke="#63b8ff" points="1166.36,-284.12 1175.49,-278.74 1165,-277.25 1166.36,-284.12"/>
</a>
</g>
</g>
<!-- Node11&#45;&gt;Node6 -->
<g id="edge14_Node000011_Node000006" class="edge">
<title>Node11&#45;&gt;Node6</title>
<g id="a_edge14_Node000011_Node000006"><a xlink:title=" ">
<path fill="none" stroke="#63b8ff" d="M460.99,-227.4C447.68,-228.58 434.09,-229.79 420.85,-230.97"/>
<polygon fill="#63b8ff" stroke="#63b8ff" points="460.93,-230.92 470.58,-226.55 460.31,-223.95 460.93,-230.92"/>
</a>
</g>
</g>
<!-- Node12&#45;&gt;Node6 -->
<g id="edge18_Node000012_Node000006" class="edge">
<title>Node12&#45;&gt;Node6</title>
<g id="a_edge18_Node000012_Node000006"><a xlink:title=" ">
<path fill="none" stroke="#63b8ff" d="M703.27,-315.49C632.96,-306.42 538.8,-292.82 456.5,-276 421.65,-268.88 382.46,-258.33 354.92,-250.49"/>
<polygon fill="#63b8ff" stroke="#63b8ff" points="702.48,-318.92 712.84,-316.71 703.36,-311.97 702.48,-318.92"/>
</a>
</g>
</g>
<!-- Node13&#45;&gt;Node6 -->
<g id="edge20_Node000013_Node000006" class="edge">
<title>Node13&#45;&gt;Node6</title>
<g id="a_edge20_Node000013_Node000006"><a xlink:title=" ">
<path fill="none" stroke="#63b8ff" d="M929.75,-143.27C812.63,-146.53 619.15,-157.44 456.5,-193 416.18,-201.82 371.24,-218.63 344.15,-229.57"/>
<polygon fill="#63b8ff" stroke="#63b8ff" points="929.77,-146.77 939.68,-143.01 929.59,-139.77 929.77,-146.77"/>
</a>
</g>
</g>
<!-- Node13&#45;&gt;Node14 -->
<g id="edge21_Node000013_Node000014" class="edge">
<title>Node13&#45;&gt;Node14</title>
<g id="a_edge21_Node000013_Node000014"><a xlink:title=" ">
<path fill="none" stroke="#63b8ff" d="M940.81,-160.61C914.81,-165.7 887.53,-171.04 864.74,-175.5"/>
<polygon fill="#63b8ff" stroke="#63b8ff" points="941.24,-164.09 950.38,-158.74 939.9,-157.22 941.24,-164.09"/>
</a>
</g>
</g>
<!-- Node14&#45;&gt;Node11 -->
<g id="edge22_Node000014_Node000011" class="edge">
<title>Node14&#45;&gt;Node11</title>
<g id="a_edge22_Node000014_Node000011"><a xlink:title=" ">
<path fill="none" stroke="#63b8ff" d="M719.2,-197.97C701.01,-200.39 681.83,-202.94 663.48,-205.38"/>
<polygon fill="#63b8ff" stroke="#63b8ff" points="719.43,-201.47 728.88,-196.68 718.5,-194.53 719.43,-201.47"/>
</a>
</g>
</g>
<!-- Node16&#45;&gt;Node6 -->
<g id="edge26_Node000016_Node000006" class="edge">
<title>Node16&#45;&gt;Node6</title>
<g id="a_edge26_Node000016_Node000006"><a xlink:title=" ">
<path fill="none" stroke="#63b8ff" d="M705.9,-441.23C632.43,-443.3 533.48,-436.68 456.5,-397 389.27,-362.35 340.42,-279.63 324.75,-250.43"/>
<polygon fill="#63b8ff" stroke="#63b8ff" points="705.63,-444.74 715.5,-440.89 705.38,-437.74 705.63,-444.74"/>
</a>
</g>
</g>
<!-- Node17&#45;&gt;Node3 -->
<g id="edge29_Node000017_Node000003" class="edge">
<title>Node17&#45;&gt;Node3</title>
<g id="a_edge29_Node000017_Node000003"><a xlink:title=" ">
<path fill="none" stroke="#63b8ff" d="M2299.26,-104.29C2275.9,-119.01 2243.7,-137.93 2213.5,-151 2206.34,-154.1 2198.67,-156.97 2191,-159.58"/>
<polygon fill="#63b8ff" stroke="#63b8ff" points="2300.87,-107.42 2307.42,-99.09 2297.11,-101.52 2300.87,-107.42"/>
</a>
</g>
</g>
<!-- Node18 -->
<g id="Node000018" class="node">
<title>Node18</title>
<g id="a_Node000018"><a xlink:href="classediteurpanovisu_1_1GestionnaireInterfaceController.html#a8c634f775c31c1a4db22d5ef0659f7e4" target="_top" xlink:title=" ">
<polygon fill="white" stroke="#666666" points="2203.38,-54 2056.12,-54 2056.12,-22 2203.38,-22 2203.38,-54"/>
<text xml:space="preserve" text-anchor="start" x="2064.12" y="-40.5" font-family="Helvetica,sans-Serif" font-size="10.00">editeurpanovisu.Gestionnaire</text>
<text xml:space="preserve" text-anchor="middle" x="2129.75" y="-28.5" font-family="Helvetica,sans-Serif" font-size="10.00">InterfaceController.afficheTitre</text>
</a>
</g>
</g>
<!-- Node17&#45;&gt;Node18 -->
<g id="edge30_Node000017_Node000018" class="edge">
<title>Node17&#45;&gt;Node18</title>
<g id="a_edge30_Node000017_Node000018"><a xlink:title=" ">
<path fill="none" stroke="#63b8ff" d="M2246.55,-63.19C2232.23,-60.08 2217.51,-56.88 2203.57,-53.84"/>
<polygon fill="#63b8ff" stroke="#63b8ff" points="2245.41,-66.53 2255.92,-65.23 2246.9,-59.69 2245.41,-66.53"/>
</a>
</g>
</g>
<!-- Node17&#45;&gt;Node19 -->
<g id="edge32_Node000017_Node000019" class="edge">
<title>Node17&#45;&gt;Node19</title>
<g id="a_edge32_Node000017_Node000019"><a xlink:title=" ">
<path fill="none" stroke="#63b8ff" d="M2237.67,-84.55C2181.12,-83.89 2108.52,-79.21 2046,-63 2028.87,-58.56 2026.38,-52.69 2010,-46 1998.37,-41.25 1985.69,-36.58 1973.7,-32.39"/>
<polygon fill="#63b8ff" stroke="#63b8ff" points="2237.58,-88.05 2247.6,-84.62 2237.63,-81.05 2237.58,-88.05"/>
</a>
</g>
</g>
<!-- Node17&#45;&gt;Node20 -->
<g id="edge33_Node000017_Node000020" class="edge">
<title>Node17&#45;&gt;Node20</title>
<g id="a_edge33_Node000017_Node000020"><a xlink:title=" ">
<path fill="none" stroke="#63b8ff" d="M2246.5,-100.82C2231.4,-104.1 2215.85,-107.49 2201.24,-110.66"/>
<polygon fill="#63b8ff" stroke="#63b8ff" points="2246.9,-104.31 2255.92,-98.77 2245.41,-97.47 2246.9,-104.31"/>
</a>
</g>
</g>
<!-- Node18&#45;&gt;Node19 -->
<g id="edge31_Node000018_Node000019" class="edge">
<title>Node18&#45;&gt;Node19</title>
<g id="a_edge31_Node000018_Node000019"><a xlink:title=" ">
<path fill="none" stroke="#63b8ff" d="M2044.43,-28.96C2030.08,-27.42 2015.24,-25.83 2001.07,-24.31"/>
<polygon fill="#63b8ff" stroke="#63b8ff" points="2043.99,-32.43 2054.3,-30.02 2044.73,-25.47 2043.99,-32.43"/>
</a>
</g>
</g>
<!-- Node20&#45;&gt;Node4 -->
<g id="edge34_Node000020_Node000004" class="edge">
<title>Node20&#45;&gt;Node4</title>
<g id="a_edge34_Node000020_Node000004"><a xlink:title=" ">
<path fill="none" stroke="#63b8ff" d="M2058.39,-146.11C2054.17,-147.67 2050.01,-149.31 2046,-151 2011.05,-165.78 1973.21,-187.8 1948.97,-202.74"/>
<polygon fill="#63b8ff" stroke="#63b8ff" points="2059.29,-149.51 2067.56,-142.89 2056.97,-142.91 2059.29,-149.51"/>
</a>
</g>
</g>
<!-- Node21 -->
<g id="Node000021" class="node">
<title>Node21</title>
<g id="a_Node000021"><a xlink:href="classediteurpanovisu_1_1EditeurPanovisu.html#a53cccf6a6b2693c872947460b66ae8ee" target="_top" xlink:title=" ">
<polygon fill="white" stroke="#666666" points="1348.5,-70 1173.5,-70 1173.5,-38 1348.5,-38 1348.5,-70"/>
<text xml:space="preserve" text-anchor="start" x="1181.5" y="-56.5" font-family="Helvetica,sans-Serif" font-size="10.00">editeurpanovisu.EditeurPanovisu.tsk</text>
<text xml:space="preserve" text-anchor="middle" x="1261" y="-44.5" font-family="Helvetica,sans-Serif" font-size="10.00">ChargeListeFichiers</text>
</a>
</g>
</g>
<!-- Node20&#45;&gt;Node21 -->
<g id="edge35_Node000020_Node000021" class="edge">
<title>Node20&#45;&gt;Node21</title>
<g id="a_edge35_Node000020_Node000021"><a xlink:title=" ">
<path fill="none" stroke="#63b8ff" d="M2047.13,-119.22C1883.45,-105.62 1516.48,-75.14 1348.69,-61.2"/>
<polygon fill="#63b8ff" stroke="#63b8ff" points="2046.79,-122.7 2057.05,-120.04 2047.37,-115.73 2046.79,-122.7"/>
</a>
</g>
</g>
<!-- Node21&#45;&gt;Node13 -->
<g id="edge38_Node000021_Node000013" class="edge">
<title>Node21&#45;&gt;Node13</title>
<g id="a_edge38_Node000021_Node000013"><a xlink:title=" ">
<path fill="none" stroke="#63b8ff" d="M1207.8,-74.68C1168.55,-90.23 1115.51,-111.24 1079.19,-125.63"/>
<polygon fill="#63b8ff" stroke="#63b8ff" points="1209.07,-77.94 1217.07,-71.01 1206.49,-71.44 1209.07,-77.94"/>
</a>
</g>
</g>
<!-- Node22 -->
<g id="Node000022" class="node">
<title>Node22</title>
<g id="a_Node000022"><a xlink:href="classediteurpanovisu_1_1EditeurPanovisu.html#a924d3ccff3e4f402d2309cd2eade3237" target="_top" xlink:title=" ">
<polygon fill="white" stroke="#666666" points="678.75,-70 456.5,-70 456.5,-38 678.75,-38 678.75,-70"/>
<text xml:space="preserve" text-anchor="start" x="464.5" y="-56.5" font-family="Helvetica,sans-Serif" font-size="10.00">editeurpanovisu.EditeurPanovisu.panoramiques</text>
<text xml:space="preserve" text-anchor="middle" x="567.62" y="-44.5" font-family="Helvetica,sans-Serif" font-size="10.00">Ajouter</text>
</a>
</g>
</g>
<!-- Node21&#45;&gt;Node22 -->
<g id="edge36_Node000021_Node000022" class="edge">
<title>Node21&#45;&gt;Node22</title>
<g id="a_edge36_Node000021_Node000022"><a xlink:title=" ">
<path fill="none" stroke="#63b8ff" d="M1161.86,-54C1034.35,-54 812.35,-54 679.08,-54"/>
<polygon fill="#63b8ff" stroke="#63b8ff" points="1161.62,-57.5 1171.62,-54 1161.62,-50.5 1161.62,-57.5"/>
</a>
</g>
</g>
<!-- Node22&#45;&gt;Node6 -->
<g id="edge37_Node000022_Node000006" class="edge">
<title>Node22&#45;&gt;Node6</title>
<g id="a_edge37_Node000022_Node000006"><a xlink:title=" ">
<path fill="none" stroke="#63b8ff" d="M474.32,-74.68C468.11,-77.41 462.1,-80.51 456.5,-84 392.87,-123.7 342.11,-201.87 325.32,-229.79"/>
<polygon fill="#63b8ff" stroke="#63b8ff" points="475.57,-77.95 483.54,-70.96 472.95,-71.45 475.57,-77.95"/>
</a>
</g>
</g>
</g>
</svg>

<g id="navigator" transform="translate(0 0)" fill="#404254">
  <rect fill="#f2f5e9" fill-opacity="0.5" stroke="#606060" stroke-width=".5" x="0" y="0" width="60" height="60"/>
  <use id="zoomplus" xlink:href="#zoomPlus" x="17" y="9" onmousedown="handleZoom(evt,'in')"/>
  <use id="zoomminus" xlink:href="#zoomMin" x="42" y="9" onmousedown="handleZoom(evt,'out')"/>
  <use id="reset" xlink:href="#resetDef" x="30" y="36" onmousedown="handleReset()"/>
   <use id="arrowup" xlink:href="#arrowUp" x="0" y="0" onmousedown="handlePan(0,-1)"/>
  <use id="arrowright" xlink:href="#arrowRight" x="0" y="0" onmousedown="handlePan(1,0)"/>
  <use id="arrowdown" xlink:href="#arrowDown" x="0" y="0" onmousedown="handlePan(0,1)"/>
  <use id="arrowleft" xlink:href="#arrowLeft" x="0" y="0" onmousedown="handlePan(-1,0)"/>
</g>
<svg viewBox="0 0 15 15" width="100%" height="30px" preserveAspectRatio="xMaxYMin meet">
 <g id="arrow_out" transform="scale(0.3 0.3)">
  <a xlink:href="classediteurpanovisu_1_1GestionnaireInterfaceController_a85a431d12f9113a0a6e30c8fb90f9389_icgraph_org.svg" target="_base">
   <rect id="button" ry="5" rx="5" y="6" x="6" height="38" width="38"
        fill="#f2f5e9" fill-opacity="0.5" stroke="#606060" stroke-width="1.0"/>
   <path id="arrow"
     d="M 11.500037,31.436501 C 11.940474,20.09759 22.043105,11.32322 32.158766,21.979434 L 37.068811,17.246167 C 37.068811,17.246167 37.088388,32 37.088388,32 L 22.160133,31.978069 C 22.160133,31.978069 26.997745,27.140456 26.997745,27.140456 C 18.528582,18.264221 13.291696,25.230495 11.500037,31.436501 z"
     style="fill:#404040;"/>
  </a>
 </g>
</svg>

<style type='text/css'>
<![CDATA[
[data-mouse-over-selected='false'] { opacity: 0.7; }
[data-mouse-over-selected='true']  { opacity: 1.0; }
]]>
</style>
<script type="application/ecmascript"><![CDATA[
document.addEventListener('DOMContentLoaded', (event) => {
  highlightEdges();
  highlightAdjacentNodes();
});
]]></script>
</svg>
