<?xml version="1.0" encoding="UTF-8" standalone="no"?>
<!DOCTYPE svg PUBLIC "-//W3C//DTD SVG 1.1//EN"
 "http://www.w3.org/Graphics/SVG/1.1/DTD/svg11.dtd">
<!-- Generated by graphviz version 13.1.2 (20250808.2320)
 -->
<!-- Title: editeurpanovisu.GestionnaireInterfaceController.chargeBarre Pages: 1 -->
<!--zoomable 1109 -->

<svg id="main" version="1.1" xmlns="http://www.w3.org/2000/svg" xmlns:xlink="http://www.w3.org/1999/xlink" xml:space="preserve" onload="init(evt)">

<style type="text/css"><![CDATA[
.node, .edge {opacity: 0.7;}
.node.selected, .edge.selected {opacity: 1;}
.edge:hover path { stroke: red; }
.edge:hover polygon { stroke: red; fill: red; }
]]></style>

<defs>
  <circle id="rim" cx="0" cy="0" r="7"/>
  <circle id="rim2" cx="0" cy="0" r="3.5"/>
  <g id="zoomPlus">
    <use xlink:href="#rim" fill="#404040"><set attributeName="fill" to="#808080" begin="zoomplus.mouseover" end="zoomplus.mouseout"/></use>
    <path d="M-4,0h8M0,-4v8" fill="none" stroke="white" stroke-width="1.5" pointer-events="none"/>
  </g>
  <g id="zoomMin">
    <use xlink:href="#rim" fill="#404040"><set attributeName="fill" to="#808080" begin="zoomminus.mouseover" end="zoomminus.mouseout"/></use>
    <path d="M-4,0h8" fill="none" stroke="white" stroke-width="1.5" pointer-events="none"/>
  </g>
  <g id="arrowUp" transform="translate(30 24)">
    <use xlink:href="#rim"/>
    <path pointer-events="none" fill="none" stroke="white" stroke-width="1.5" d="M0,-3.0v7 M-2.5,-0.5L0,-3.0L2.5,-0.5"/>
  </g>
  <g id="arrowRight" transform="rotate(90) translate(36 -43)">
    <use xlink:href="#rim"/>
    <path pointer-events="none" fill="none" stroke="white" stroke-width="1.5" d="M0,-3.0v7 M-2.5,-0.5L0,-3.0L2.5,-0.5"/>
  </g>
  <g id="arrowDown" transform="rotate(180) translate(-30 -48)">
    <use xlink:href="#rim"/>
    <path pointer-events="none" fill="none" stroke="white" stroke-width="1.5" d="M0,-3.0v7 M-2.5,-0.5L0,-3.0L2.5,-0.5"/>
  </g>
  <g id="arrowLeft" transform="rotate(270) translate(-36 17)">
    <use xlink:href="#rim"/>
    <path pointer-events="none" fill="none" stroke="white" stroke-width="1.5" d="M0,-3.0v7 M-2.5,-0.5L0,-3.0L2.5,-0.5"/>
  </g>
  <g id="resetDef">
    <use xlink:href="#rim2" fill="#404040"><set attributeName="fill" to="#808080" begin="reset.mouseover" end="reset.mouseout"/></use>
  </g>
</defs>
<script type="application/ecmascript">
var viewWidth = 595;
var viewHeight = 1109;
var sectionId = 'dynsection-50';
</script>
<script type="application/ecmascript" xlink:href="svg.min.js"/>
<svg id="graph" class="graph">
<g id="viewport">
<title>editeurpanovisu.GestionnaireInterfaceController.chargeBarre</title>
<!-- Node1 -->
<g id="Node000001" class="node">
<title>Node1</title>
<g id="a_Node000001"><a xlink:title=" ">
<polygon fill="#999999" stroke="#666666" points="151.75,-622 0,-622 0,-590 151.75,-590 151.75,-622"/>
<text xml:space="preserve" text-anchor="start" x="8" y="-608.5" font-family="Helvetica,sans-Serif" font-size="10.00">editeurpanovisu.Gestionnaire</text>
<text xml:space="preserve" text-anchor="middle" x="75.88" y="-596.5" font-family="Helvetica,sans-Serif" font-size="10.00">InterfaceController.chargeBarre</text>
</a>
</g>
</g>
<!-- Node2 -->
<g id="Node000002" class="node">
<title>Node2</title>
<g id="a_Node000002"><a xlink:href="classediteurpanovisu_1_1GestionnaireInterfaceController.html#abbb77b6252a0951b9922aed46a4d67c9" target="_top" xlink:title=" ">
<polygon fill="white" stroke="#666666" points="360.88,-990 196.38,-990 196.38,-946 360.88,-946 360.88,-990"/>
<text xml:space="preserve" text-anchor="start" x="204.38" y="-976.5" font-family="Helvetica,sans-Serif" font-size="10.00">editeurpanovisu.Gestionnaire</text>
<text xml:space="preserve" text-anchor="start" x="204.38" y="-964.5" font-family="Helvetica,sans-Serif" font-size="10.00">InterfaceController.changeCouleur</text>
<text xml:space="preserve" text-anchor="middle" x="278.62" y="-952.5" font-family="Helvetica,sans-Serif" font-size="10.00">BarreClassique</text>
</a>
</g>
</g>
<!-- Node1&#45;&gt;Node2 -->
<g id="edge1_Node000001_Node000002" class="edge">
<title>Node1&#45;&gt;Node2</title>
<g id="a_edge1_Node000001_Node000002"><a xlink:title=" ">
<path fill="none" stroke="#63b8ff" d="M77.77,-622.31C81.47,-674.51 99.93,-839.38 187.75,-932 190.16,-934.54 192.77,-936.91 195.54,-939.11"/>
<polygon fill="#63b8ff" stroke="#63b8ff" points="193.39,-941.88 203.59,-944.73 197.4,-936.14 193.39,-941.88"/>
</a>
</g>
</g>
<!-- Node3 -->
<g id="Node000003" class="node">
<title>Node3</title>
<g id="a_Node000003"><a xlink:href="classediteurpanovisu_1_1GestionnaireInterfaceController.html#a983d74a7f753792b5fdc241d07e7153e" target="_top" xlink:title=" ">
<polygon fill="white" stroke="#666666" points="579,-1015 413.75,-1015 413.75,-983 579,-983 579,-1015"/>
<text xml:space="preserve" text-anchor="start" x="421.75" y="-1001.5" font-family="Helvetica,sans-Serif" font-size="10.00">editeurpanovisu.Gestionnaire</text>
<text xml:space="preserve" text-anchor="middle" x="496.38" y="-989.5" font-family="Helvetica,sans-Serif" font-size="10.00">InterfaceController.getImgBoutons</text>
</a>
</g>
</g>
<!-- Node1&#45;&gt;Node3 -->
<g id="edge36_Node000001_Node000003" class="edge">
<title>Node1&#45;&gt;Node3</title>
<g id="a_edge36_Node000001_Node000003"><a xlink:title=" ">
<path fill="none" stroke="#63b8ff" d="M78.55,-622.14C86.25,-693.02 120.85,-975.44 187.75,-1027 264.8,-1086.39 387.12,-1047.55 451.86,-1019.88"/>
<polygon fill="#63b8ff" stroke="#63b8ff" points="452.98,-1023.21 460.74,-1015.98 450.17,-1016.79 452.98,-1023.21"/>
</a>
</g>
</g>
<!-- Node4 -->
<g id="Node000004" class="node">
<title>Node4</title>
<g id="a_Node000004"><a xlink:href="classediteurpanovisu_1_1GestionnaireInterfaceController.html#a79db307bf3dc80979bb8d62ef7843ea4" target="_top" xlink:title=" ">
<polygon fill="white" stroke="#666666" points="587.25,-965 405.5,-965 405.5,-921 587.25,-921 587.25,-965"/>
<text xml:space="preserve" text-anchor="start" x="413.5" y="-951.5" font-family="Helvetica,sans-Serif" font-size="10.00">editeurpanovisu.Gestionnaire</text>
<text xml:space="preserve" text-anchor="start" x="413.5" y="-939.5" font-family="Helvetica,sans-Serif" font-size="10.00">InterfaceController.getiNombreImages</text>
<text xml:space="preserve" text-anchor="middle" x="496.38" y="-927.5" font-family="Helvetica,sans-Serif" font-size="10.00">Bouton</text>
</a>
</g>
</g>
<!-- Node1&#45;&gt;Node4 -->
<g id="edge38_Node000001_Node000004" class="edge">
<title>Node1&#45;&gt;Node4</title>
<g id="a_edge38_Node000001_Node000004"><a xlink:title=" ">
<path fill="none" stroke="#63b8ff" d="M78.9,-622.44C87.7,-690.84 125.01,-951.51 187.75,-999 252.16,-1047.75 292.41,-1023.14 369.5,-999 388.09,-993.18 388.13,-982.81 405.5,-974 408.23,-972.61 411.05,-971.26 413.91,-969.95"/>
<polygon fill="#63b8ff" stroke="#63b8ff" points="415.27,-973.18 423.06,-965.99 412.49,-966.75 415.27,-973.18"/>
</a>
</g>
</g>
<!-- Node5 -->
<g id="Node000005" class="node">
<title>Node5</title>
<g id="a_Node000005"><a xlink:href="classediteurpanovisu_1_1GestionnaireInterfaceController.html#a51203c9ecf97b1e3f057e0d3471a57b7" target="_top" xlink:title=" ">
<polygon fill="white" stroke="#666666" points="582,-903 410.75,-903 410.75,-871 582,-871 582,-903"/>
<text xml:space="preserve" text-anchor="start" x="418.75" y="-889.5" font-family="Helvetica,sans-Serif" font-size="10.00">editeurpanovisu.Gestionnaire</text>
<text xml:space="preserve" text-anchor="middle" x="496.38" y="-877.5" font-family="Helvetica,sans-Serif" font-size="10.00">InterfaceController.getPrLisBoutons</text>
</a>
</g>
</g>
<!-- Node1&#45;&gt;Node5 -->
<g id="edge39_Node000001_Node000005" class="edge">
<title>Node1&#45;&gt;Node5</title>
<g id="a_edge39_Node000001_Node000005"><a xlink:title=" ">
<path fill="none" stroke="#63b8ff" d="M77.14,-622.45C78.97,-674.04 92.43,-833.16 187.75,-899 220.91,-921.91 321.79,-913.66 399.07,-903.01"/>
<polygon fill="#63b8ff" stroke="#63b8ff" points="399.38,-906.5 408.79,-901.64 398.4,-899.57 399.38,-906.5"/>
</a>
</g>
</g>
<!-- Node6 -->
<g id="Node000006" class="node">
<title>Node6</title>
<g id="a_Node000006"><a xlink:href="classediteurpanovisu_1_1GestionnaireInterfaceController.html#a26a8714c1be2bd8f02fcb958b4e9fbf7" target="_top" xlink:title=" ">
<polygon fill="white" stroke="#666666" points="582,-853 410.75,-853 410.75,-809 582,-809 582,-853"/>
<text xml:space="preserve" text-anchor="start" x="418.75" y="-839.5" font-family="Helvetica,sans-Serif" font-size="10.00">editeurpanovisu.Gestionnaire</text>
<text xml:space="preserve" text-anchor="start" x="418.75" y="-827.5" font-family="Helvetica,sans-Serif" font-size="10.00">InterfaceController.getPwNouveaux</text>
<text xml:space="preserve" text-anchor="middle" x="496.38" y="-815.5" font-family="Helvetica,sans-Serif" font-size="10.00">Boutons</text>
</a>
</g>
</g>
<!-- Node1&#45;&gt;Node6 -->
<g id="edge40_Node000001_Node000006" class="edge">
<title>Node1&#45;&gt;Node6</title>
<g id="a_edge40_Node000001_Node000006"><a xlink:title=" ">
<path fill="none" stroke="#63b8ff" d="M94.2,-622.36C114.84,-640.93 151.16,-670.72 187.75,-687 263.15,-720.54 304.54,-674.1 369.5,-725 398.6,-747.81 377.89,-775.41 405.5,-800 406.28,-800.7 407.08,-801.38 407.89,-802.04"/>
<polygon fill="#63b8ff" stroke="#63b8ff" points="405.72,-804.79 415.9,-807.74 409.78,-799.09 405.72,-804.79"/>
</a>
</g>
</g>
<!-- Node7 -->
<g id="Node000007" class="node">
<title>Node7</title>
<g id="a_Node000007"><a xlink:href="leaflet_8js.html#a73aff07b65d7c0b09ccf6b4c4f1b7a9d" target="_top" xlink:title=" ">
<polygon fill="white" stroke="#666666" points="510.77,-1085 481.98,-1085 481.98,-1065 510.77,-1065 510.77,-1085"/>
<text xml:space="preserve" text-anchor="middle" x="496.38" y="-1071.5" font-family="Helvetica,sans-Serif" font-size="10.00">i</text>
</a>
</g>
</g>
<!-- Node1&#45;&gt;Node7 -->
<g id="edge46_Node000001_Node000007" class="edge">
<title>Node1&#45;&gt;Node7</title>
<g id="a_edge46_Node000001_Node000007"><a xlink:title=" ">
<path fill="none" stroke="#63b8ff" d="M78.34,-622.17C85.36,-695.91 118.18,-999.1 187.75,-1057 270.67,-1126.01 413.84,-1097.47 470.88,-1082.24"/>
<polygon fill="#63b8ff" stroke="#63b8ff" points="471.54,-1085.69 480.24,-1079.64 469.67,-1078.95 471.54,-1085.69"/>
</a>
</g>
</g>
<!-- Node10 -->
<g id="Node000010" class="node">
<title>Node10</title>
<g id="a_Node000010"><a xlink:href="classediteurpanovisu_1_1GestionnaireInterfaceController.html#a9ef235c84ca4c7f9ba5599d6ca9d0eaf" target="_top" xlink:title=" ">
<polygon fill="white" stroke="#666666" points="368,-890 189.25,-890 189.25,-858 368,-858 368,-890"/>
<text xml:space="preserve" text-anchor="start" x="197.25" y="-876.5" font-family="Helvetica,sans-Serif" font-size="10.00">editeurpanovisu.Gestionnaire</text>
<text xml:space="preserve" text-anchor="middle" x="278.62" y="-864.5" font-family="Helvetica,sans-Serif" font-size="10.00">InterfaceController.changeCouleurHS</text>
</a>
</g>
</g>
<!-- Node1&#45;&gt;Node10 -->
<g id="edge9_Node000001_Node000010" class="edge">
<title>Node1&#45;&gt;Node10</title>
<g id="a_edge9_Node000001_Node000010"><a xlink:title=" ">
<path fill="none" stroke="#63b8ff" d="M79.48,-622.45C87.32,-666.25 114.77,-786.65 187.75,-849 188.7,-849.82 189.68,-850.6 190.68,-851.37"/>
<polygon fill="#63b8ff" stroke="#63b8ff" points="188.67,-854.23 198.96,-856.74 192.48,-848.36 188.67,-854.23"/>
</a>
</g>
</g>
<!-- Node11 -->
<g id="Node000011" class="node">
<title>Node11</title>
<g id="a_Node000011"><a xlink:href="classediteurpanovisu_1_1GestionnaireInterfaceController.html#a0b28da09c00fb7fa4d7cc086b78d8ea0" target="_top" xlink:title=" ">
<polygon fill="white" stroke="#666666" points="360.88,-840 196.38,-840 196.38,-796 360.88,-796 360.88,-840"/>
<text xml:space="preserve" text-anchor="start" x="204.38" y="-826.5" font-family="Helvetica,sans-Serif" font-size="10.00">editeurpanovisu.Gestionnaire</text>
<text xml:space="preserve" text-anchor="start" x="204.38" y="-814.5" font-family="Helvetica,sans-Serif" font-size="10.00">InterfaceController.changeCouleur</text>
<text xml:space="preserve" text-anchor="middle" x="278.62" y="-802.5" font-family="Helvetica,sans-Serif" font-size="10.00">HSHTML</text>
</a>
</g>
</g>
<!-- Node1&#45;&gt;Node11 -->
<g id="edge16_Node000001_Node000011" class="edge">
<title>Node1&#45;&gt;Node11</title>
<g id="a_edge16_Node000001_Node000011"><a xlink:title=" ">
<path fill="none" stroke="#63b8ff" d="M82.51,-622.36C95.47,-657.6 130.72,-741.19 187.75,-787 188.87,-787.9 190.02,-788.78 191.2,-789.63"/>
<polygon fill="#63b8ff" stroke="#63b8ff" points="189.05,-792.41 199.36,-794.86 192.83,-786.52 189.05,-792.41"/>
</a>
</g>
</g>
<!-- Node12 -->
<g id="Node000012" class="node">
<title>Node12</title>
<g id="a_Node000012"><a xlink:href="classediteurpanovisu_1_1GestionnaireInterfaceController.html#acf735a6a656f2cb7af5957d45b6f6737" target="_top" xlink:title=" ">
<polygon fill="white" stroke="#666666" points="360.88,-778 196.38,-778 196.38,-734 360.88,-734 360.88,-778"/>
<text xml:space="preserve" text-anchor="start" x="204.38" y="-764.5" font-family="Helvetica,sans-Serif" font-size="10.00">editeurpanovisu.Gestionnaire</text>
<text xml:space="preserve" text-anchor="start" x="204.38" y="-752.5" font-family="Helvetica,sans-Serif" font-size="10.00">InterfaceController.changeCouleur</text>
<text xml:space="preserve" text-anchor="middle" x="278.62" y="-740.5" font-family="Helvetica,sans-Serif" font-size="10.00">HSPhoto</text>
</a>
</g>
</g>
<!-- Node1&#45;&gt;Node12 -->
<g id="edge23_Node000001_Node000012" class="edge">
<title>Node1&#45;&gt;Node12</title>
<g id="a_edge23_Node000001_Node000012"><a xlink:title=" ">
<path fill="none" stroke="#63b8ff" d="M89.16,-622.46C108,-646.72 146.23,-692.19 187.75,-720 192.23,-723 196.99,-725.81 201.91,-728.44"/>
<polygon fill="#63b8ff" stroke="#63b8ff" points="200.28,-731.54 210.79,-732.89 203.42,-725.28 200.28,-731.54"/>
</a>
</g>
</g>
<!-- Node13 -->
<g id="Node000013" class="node">
<title>Node13</title>
<g id="a_Node000013"><a xlink:href="classediteurpanovisu_1_1GestionnaireInterfaceController.html#aa9dfb9dc76509970b124ec2919b291f5" target="_top" xlink:title=" ">
<polygon fill="white" stroke="#666666" points="360.88,-678 196.38,-678 196.38,-634 360.88,-634 360.88,-678"/>
<text xml:space="preserve" text-anchor="start" x="204.38" y="-664.5" font-family="Helvetica,sans-Serif" font-size="10.00">editeurpanovisu.Gestionnaire</text>
<text xml:space="preserve" text-anchor="start" x="204.38" y="-652.5" font-family="Helvetica,sans-Serif" font-size="10.00">InterfaceController.changeCouleur</text>
<text xml:space="preserve" text-anchor="middle" x="278.62" y="-640.5" font-family="Helvetica,sans-Serif" font-size="10.00">Masque</text>
</a>
</g>
</g>
<!-- Node1&#45;&gt;Node13 -->
<g id="edge30_Node000001_Node000013" class="edge">
<title>Node1&#45;&gt;Node13</title>
<g id="a_edge30_Node000001_Node000013"><a xlink:title=" ">
<path fill="none" stroke="#63b8ff" d="M142.89,-622.44C156.45,-625.82 170.98,-629.44 185.28,-633"/>
<polygon fill="#63b8ff" stroke="#63b8ff" points="184.14,-636.32 194.69,-635.34 185.83,-629.53 184.14,-636.32"/>
</a>
</g>
</g>
<!-- Node14 -->
<g id="Node000014" class="node">
<title>Node14</title>
<g id="a_Node000014"><a xlink:href="classediteurpanovisu_1_1GestionnaireInterfaceController.html#afc1fe32f830791ed641d875b89427aca" target="_top" xlink:title=" ">
<polygon fill="white" stroke="#666666" points="578.25,-603 414.5,-603 414.5,-571 578.25,-571 578.25,-603"/>
<text xml:space="preserve" text-anchor="start" x="422.5" y="-589.5" font-family="Helvetica,sans-Serif" font-size="10.00">editeurpanovisu.Gestionnaire</text>
<text xml:space="preserve" text-anchor="middle" x="496.38" y="-577.5" font-family="Helvetica,sans-Serif" font-size="10.00">InterfaceController.getImgMasque</text>
</a>
</g>
</g>
<!-- Node1&#45;&gt;Node14 -->
<g id="edge37_Node000001_Node000014" class="edge">
<title>Node1&#45;&gt;Node14</title>
<g id="a_edge37_Node000001_Node000014"><a xlink:title=" ">
<path fill="none" stroke="#63b8ff" d="M152.18,-602.58C222.46,-599.39 327.53,-594.62 402.89,-591.2"/>
<polygon fill="#63b8ff" stroke="#63b8ff" points="402.9,-594.7 412.74,-590.75 402.59,-587.71 402.9,-594.7"/>
</a>
</g>
</g>
<!-- Node17 -->
<g id="Node000017" class="node">
<title>Node17</title>
<g id="a_Node000017"><a xlink:href="classediteurpanovisu_1_1GestionnaireInterfaceController.html#af4e73210233b6a9730d6f5eb672cbf91" target="_top" xlink:title=" ">
<polygon fill="white" stroke="#666666" points="368,-578 189.25,-578 189.25,-534 368,-534 368,-578"/>
<text xml:space="preserve" text-anchor="start" x="197.25" y="-564.5" font-family="Helvetica,sans-Serif" font-size="10.00">editeurpanovisu.Gestionnaire</text>
<text xml:space="preserve" text-anchor="start" x="197.25" y="-552.5" font-family="Helvetica,sans-Serif" font-size="10.00">InterfaceController.getStrNomImages</text>
<text xml:space="preserve" text-anchor="middle" x="278.62" y="-540.5" font-family="Helvetica,sans-Serif" font-size="10.00">Boutons</text>
</a>
</g>
</g>
<!-- Node1&#45;&gt;Node17 -->
<g id="edge41_Node000001_Node000017" class="edge">
<title>Node1&#45;&gt;Node17</title>
<g id="a_edge41_Node000001_Node000017"><a xlink:title=" ">
<path fill="none" stroke="#63b8ff" d="M142.89,-589.56C154.17,-586.75 166.12,-583.77 178.05,-580.8"/>
<polygon fill="#63b8ff" stroke="#63b8ff" points="178.66,-584.26 187.51,-578.44 176.97,-577.46 178.66,-584.26"/>
</a>
</g>
</g>
<!-- Node18 -->
<g id="Node000018" class="node">
<title>Node18</title>
<g id="a_Node000018"><a xlink:href="classediteurpanovisu_1_1GestionnaireInterfaceController.html#ad69bc2d0d777973a8ea7c53220f127c2" target="_top" xlink:title=" ">
<polygon fill="white" stroke="#666666" points="352.62,-516 204.62,-516 204.62,-472 352.62,-472 352.62,-516"/>
<text xml:space="preserve" text-anchor="start" x="212.62" y="-502.5" font-family="Helvetica,sans-Serif" font-size="10.00">editeurpanovisu.Gestionnaire</text>
<text xml:space="preserve" text-anchor="start" x="212.62" y="-490.5" font-family="Helvetica,sans-Serif" font-size="10.00">InterfaceController.getStrStyle</text>
<text xml:space="preserve" text-anchor="middle" x="278.62" y="-478.5" font-family="Helvetica,sans-Serif" font-size="10.00">HotSpotHTML</text>
</a>
</g>
</g>
<!-- Node1&#45;&gt;Node18 -->
<g id="edge42_Node000001_Node000018" class="edge">
<title>Node1&#45;&gt;Node18</title>
<g id="a_edge42_Node000001_Node000018"><a xlink:title=" ">
<path fill="none" stroke="#63b8ff" d="M95.35,-589.8C116.47,-571.94 152.68,-543.33 187.75,-525 190.4,-523.61 193.13,-522.27 195.91,-520.97"/>
<polygon fill="#63b8ff" stroke="#63b8ff" points="197.03,-524.3 204.76,-517.05 194.2,-517.89 197.03,-524.3"/>
</a>
</g>
</g>
<!-- Node19 -->
<g id="Node000019" class="node">
<title>Node19</title>
<g id="a_Node000019"><a xlink:href="classediteurpanovisu_1_1GestionnaireInterfaceController.html#ae631993ff4462fb817aaec51d7fc960d" target="_top" xlink:title=" ">
<polygon fill="white" stroke="#666666" points="352.62,-454 204.62,-454 204.62,-410 352.62,-410 352.62,-454"/>
<text xml:space="preserve" text-anchor="start" x="212.62" y="-440.5" font-family="Helvetica,sans-Serif" font-size="10.00">editeurpanovisu.Gestionnaire</text>
<text xml:space="preserve" text-anchor="start" x="212.62" y="-428.5" font-family="Helvetica,sans-Serif" font-size="10.00">InterfaceController.getStrStyle</text>
<text xml:space="preserve" text-anchor="middle" x="278.62" y="-416.5" font-family="Helvetica,sans-Serif" font-size="10.00">HotSpotImages</text>
</a>
</g>
</g>
<!-- Node1&#45;&gt;Node19 -->
<g id="edge43_Node000001_Node000019" class="edge">
<title>Node1&#45;&gt;Node19</title>
<g id="a_edge43_Node000001_Node000019"><a xlink:title=" ">
<path fill="none" stroke="#63b8ff" d="M85.26,-589.78C101.26,-560.35 138.98,-497.95 187.75,-463 189.82,-461.52 191.97,-460.1 194.18,-458.74"/>
<polygon fill="#63b8ff" stroke="#63b8ff" points="195.81,-461.84 202.87,-453.94 192.42,-455.71 195.81,-461.84"/>
</a>
</g>
</g>
<!-- Node20 -->
<g id="Node000020" class="node">
<title>Node20</title>
<g id="a_Node000020"><a xlink:href="classediteurpanovisu_1_1GestionnaireInterfaceController.html#a95c174c4737c49758cc59909bd9cc7ca" target="_top" xlink:title=" ">
<polygon fill="white" stroke="#666666" points="363.12,-392 194.12,-392 194.12,-348 363.12,-348 363.12,-392"/>
<text xml:space="preserve" text-anchor="start" x="202.12" y="-378.5" font-family="Helvetica,sans-Serif" font-size="10.00">editeurpanovisu.Gestionnaire</text>
<text xml:space="preserve" text-anchor="start" x="202.12" y="-366.5" font-family="Helvetica,sans-Serif" font-size="10.00">InterfaceController.getWiNouveaux</text>
<text xml:space="preserve" text-anchor="middle" x="278.62" y="-354.5" font-family="Helvetica,sans-Serif" font-size="10.00">Boutons</text>
</a>
</g>
</g>
<!-- Node1&#45;&gt;Node20 -->
<g id="edge44_Node000001_Node000020" class="edge">
<title>Node1&#45;&gt;Node20</title>
<g id="a_edge44_Node000001_Node000020"><a xlink:title=" ">
<path fill="none" stroke="#63b8ff" d="M81.27,-589.54C92.42,-550.94 125.43,-453.88 187.75,-401 188.69,-400.2 189.66,-399.42 190.65,-398.66"/>
<polygon fill="#63b8ff" stroke="#63b8ff" points="192.42,-401.68 198.74,-393.18 188.49,-395.89 192.42,-401.68"/>
</a>
</g>
</g>
<!-- Node21 -->
<g id="Node000021" class="node">
<title>Node21</title>
<g id="a_Node000021"><a xlink:href="classediteurpanovisu_1_1GestionnaireInterfaceController.html#a0d212df90e4eac2527f57d783a8caada" target="_top" xlink:title=" ">
<polygon fill="white" stroke="#666666" points="363.12,-330 194.12,-330 194.12,-286 363.12,-286 363.12,-330"/>
<text xml:space="preserve" text-anchor="start" x="202.12" y="-316.5" font-family="Helvetica,sans-Serif" font-size="10.00">editeurpanovisu.Gestionnaire</text>
<text xml:space="preserve" text-anchor="start" x="202.12" y="-304.5" font-family="Helvetica,sans-Serif" font-size="10.00">InterfaceController.getWiNouveaux</text>
<text xml:space="preserve" text-anchor="middle" x="278.62" y="-292.5" font-family="Helvetica,sans-Serif" font-size="10.00">Masque</text>
</a>
</g>
</g>
<!-- Node1&#45;&gt;Node21 -->
<g id="edge45_Node000001_Node000021" class="edge">
<title>Node1&#45;&gt;Node21</title>
<g id="a_edge45_Node000001_Node000021"><a xlink:title=" ">
<path fill="none" stroke="#63b8ff" d="M78.99,-589.57C85.79,-543.35 111.33,-410.86 187.75,-339 188.38,-338.41 189.02,-337.82 189.68,-337.25"/>
<polygon fill="#63b8ff" stroke="#63b8ff" points="191.65,-340.15 197.54,-331.34 187.44,-334.55 191.65,-340.15"/>
</a>
</g>
</g>
<!-- Node22 -->
<g id="Node000022" class="node">
<title>Node22</title>
<g id="a_Node000022"><a xlink:href="classediteurpanovisu_1_1GestionnaireInterfaceController.html#ad15adfa3b77eb7f8e2bbb775d1138bc0" target="_top" xlink:title=" ">
<polygon fill="white" stroke="#666666" points="360.5,-268 196.75,-268 196.75,-236 360.5,-236 360.5,-268"/>
<text xml:space="preserve" text-anchor="start" x="204.75" y="-254.5" font-family="Helvetica,sans-Serif" font-size="10.00">editeurpanovisu.Gestionnaire</text>
<text xml:space="preserve" text-anchor="middle" x="278.62" y="-242.5" font-family="Helvetica,sans-Serif" font-size="10.00">InterfaceController.setImgMasque</text>
</a>
</g>
</g>
<!-- Node1&#45;&gt;Node22 -->
<g id="edge47_Node000001_Node000022" class="edge">
<title>Node1&#45;&gt;Node22</title>
<g id="a_edge47_Node000001_Node000022"><a xlink:title=" ">
<path fill="none" stroke="#63b8ff" d="M77.29,-589.5C79.55,-536.01 94.12,-365.72 187.75,-277 188.39,-276.39 189.04,-275.8 189.71,-275.23"/>
<polygon fill="#63b8ff" stroke="#63b8ff" points="191.73,-278.08 197.77,-269.38 187.62,-272.42 191.73,-278.08"/>
</a>
</g>
</g>
<!-- Node23 -->
<g id="Node000023" class="node">
<title>Node23</title>
<g id="a_Node000023"><a xlink:href="classediteurpanovisu_1_1GestionnaireInterfaceController.html#a79757c15391f43b5f0b86c0727cb24fe" target="_top" xlink:title=" ">
<polygon fill="white" stroke="#666666" points="369.5,-218 187.75,-218 187.75,-174 369.5,-174 369.5,-218"/>
<text xml:space="preserve" text-anchor="start" x="195.75" y="-204.5" font-family="Helvetica,sans-Serif" font-size="10.00">editeurpanovisu.Gestionnaire</text>
<text xml:space="preserve" text-anchor="start" x="195.75" y="-192.5" font-family="Helvetica,sans-Serif" font-size="10.00">InterfaceController.setiNombreImages</text>
<text xml:space="preserve" text-anchor="middle" x="278.62" y="-180.5" font-family="Helvetica,sans-Serif" font-size="10.00">Bouton</text>
</a>
</g>
</g>
<!-- Node1&#45;&gt;Node23 -->
<g id="edge48_Node000001_Node000023" class="edge">
<title>Node1&#45;&gt;Node23</title>
<g id="a_edge48_Node000001_Node000023"><a xlink:title=" ">
<path fill="none" stroke="#63b8ff" d="M76.66,-589.79C76.8,-532.12 85.09,-334.67 187.75,-227 188.23,-226.5 188.72,-226 189.22,-225.51"/>
<polygon fill="#63b8ff" stroke="#63b8ff" points="191.29,-228.34 196.76,-219.26 186.82,-222.95 191.29,-228.34"/>
</a>
</g>
</g>
<!-- Node24 -->
<g id="Node000024" class="node">
<title>Node24</title>
<g id="a_Node000024"><a xlink:href="classediteurpanovisu_1_1GestionnaireInterfaceController.html#a6c982e4270e8aa10ec335dbc300cfed9" target="_top" xlink:title=" ">
<polygon fill="white" stroke="#666666" points="363.5,-156 193.75,-156 193.75,-124 363.5,-124 363.5,-156"/>
<text xml:space="preserve" text-anchor="start" x="201.75" y="-142.5" font-family="Helvetica,sans-Serif" font-size="10.00">editeurpanovisu.Gestionnaire</text>
<text xml:space="preserve" text-anchor="middle" x="278.62" y="-130.5" font-family="Helvetica,sans-Serif" font-size="10.00">InterfaceController.setPrLisMasque</text>
</a>
</g>
</g>
<!-- Node1&#45;&gt;Node24 -->
<g id="edge49_Node000001_Node000024" class="edge">
<title>Node1&#45;&gt;Node24</title>
<g id="a_edge49_Node000001_Node000024"><a xlink:title=" ">
<path fill="none" stroke="#63b8ff" d="M78.8,-589.54C87.6,-517.17 126.15,-228.16 187.75,-165 188.24,-164.49 188.75,-164 189.26,-163.51"/>
<polygon fill="#63b8ff" stroke="#63b8ff" points="191.37,-166.3 197.08,-157.38 187.05,-160.79 191.37,-166.3"/>
</a>
</g>
</g>
<!-- Node25 -->
<g id="Node000025" class="node">
<title>Node25</title>
<g id="a_Node000025"><a xlink:href="classediteurpanovisu_1_1GestionnaireInterfaceController.html#a0766192e970e5831e943d4a446e1049c" target="_top" xlink:title=" ">
<polygon fill="white" stroke="#666666" points="364.25,-106 193,-106 193,-62 364.25,-62 364.25,-106"/>
<text xml:space="preserve" text-anchor="start" x="201" y="-92.5" font-family="Helvetica,sans-Serif" font-size="10.00">editeurpanovisu.Gestionnaire</text>
<text xml:space="preserve" text-anchor="start" x="201" y="-80.5" font-family="Helvetica,sans-Serif" font-size="10.00">InterfaceController.setPwNouveaux</text>
<text xml:space="preserve" text-anchor="middle" x="278.62" y="-68.5" font-family="Helvetica,sans-Serif" font-size="10.00">Masque</text>
</a>
</g>
</g>
<!-- Node1&#45;&gt;Node25 -->
<g id="edge50_Node000001_Node000025" class="edge">
<title>Node1&#45;&gt;Node25</title>
<g id="a_edge50_Node000001_Node000025"><a xlink:title=" ">
<path fill="none" stroke="#63b8ff" d="M78.45,-589.62C86.14,-512.74 122.09,-188.32 187.75,-115 188.11,-114.6 188.47,-114.21 188.84,-113.82"/>
<polygon fill="#63b8ff" stroke="#63b8ff" points="190.96,-116.61 196.14,-107.37 186.33,-111.36 190.96,-116.61"/>
</a>
</g>
</g>
<!-- Node26 -->
<g id="Node000026" class="node">
<title>Node26</title>
<g id="a_Node000026"><a xlink:href="classediteurpanovisu_1_1GestionnaireInterfaceController.html#a14ba6dce20a06c37064cb36c3839a7c5" target="_top" xlink:title=" ">
<polygon fill="white" stroke="#666666" points="363.12,-44 194.12,-44 194.12,0 363.12,0 363.12,-44"/>
<text xml:space="preserve" text-anchor="start" x="202.12" y="-30.5" font-family="Helvetica,sans-Serif" font-size="10.00">editeurpanovisu.Gestionnaire</text>
<text xml:space="preserve" text-anchor="start" x="202.12" y="-18.5" font-family="Helvetica,sans-Serif" font-size="10.00">InterfaceController.setWiNouveaux</text>
<text xml:space="preserve" text-anchor="middle" x="278.62" y="-6.5" font-family="Helvetica,sans-Serif" font-size="10.00">Masque</text>
</a>
</g>
</g>
<!-- Node1&#45;&gt;Node26 -->
<g id="edge51_Node000001_Node000026" class="edge">
<title>Node1&#45;&gt;Node26</title>
<g id="a_edge51_Node000001_Node000026"><a xlink:title=" ">
<path fill="none" stroke="#63b8ff" d="M78.01,-589.54C84,-506.77 114.61,-136.68 187.75,-53 188.1,-52.6 188.46,-52.2 188.83,-51.8"/>
<polygon fill="#63b8ff" stroke="#63b8ff" points="190.97,-54.59 196.06,-45.29 186.28,-49.38 190.97,-54.59"/>
</a>
</g>
</g>
<!-- Node2&#45;&gt;Node3 -->
<g id="edge2_Node000002_Node000003" class="edge">
<title>Node2&#45;&gt;Node3</title>
<g id="a_edge2_Node000002_Node000003"><a xlink:title=" ">
<path fill="none" stroke="#63b8ff" d="M361.19,-979.72C374.52,-981.64 388.42,-983.63 402.01,-985.59"/>
<polygon fill="#63b8ff" stroke="#63b8ff" points="401.44,-989.04 411.84,-987 402.44,-982.11 401.44,-989.04"/>
</a>
</g>
</g>
<!-- Node2&#45;&gt;Node4 -->
<g id="edge3_Node000002_Node000004" class="edge">
<title>Node2&#45;&gt;Node4</title>
<g id="a_edge3_Node000002_Node000004"><a xlink:title=" ">
<path fill="none" stroke="#63b8ff" d="M361.19,-958.55C371.82,-957.32 382.81,-956.04 393.71,-954.78"/>
<polygon fill="#63b8ff" stroke="#63b8ff" points="394,-958.27 403.53,-953.64 393.19,-951.32 394,-958.27"/>
</a>
</g>
</g>
<!-- Node2&#45;&gt;Node5 -->
<g id="edge4_Node000002_Node000005" class="edge">
<title>Node2&#45;&gt;Node5</title>
<g id="a_edge4_Node000002_Node000005"><a xlink:title=" ">
<path fill="none" stroke="#63b8ff" d="M338.58,-945.62C348.98,-941.32 359.63,-936.69 369.5,-932 386.03,-924.14 388.57,-918.95 405.5,-912 409.8,-910.24 414.26,-908.56 418.8,-906.96"/>
<polygon fill="#63b8ff" stroke="#63b8ff" points="419.67,-910.36 428.05,-903.87 417.45,-903.72 419.67,-910.36"/>
</a>
</g>
</g>
<!-- Node2&#45;&gt;Node6 -->
<g id="edge5_Node000002_Node000006" class="edge">
<title>Node2&#45;&gt;Node6</title>
<g id="a_edge5_Node000002_Node000006"><a xlink:title=" ">
<path fill="none" stroke="#63b8ff" d="M310.87,-945.74C328.57,-932.71 350.83,-915.6 369.5,-899 386.64,-883.75 386.13,-874.3 405.5,-862 407.33,-860.84 409.21,-859.72 411.12,-858.63"/>
<polygon fill="#63b8ff" stroke="#63b8ff" points="412.39,-861.92 419.64,-854.2 409.16,-855.71 412.39,-861.92"/>
</a>
</g>
</g>
<!-- Node2&#45;&gt;Node7 -->
<g id="edge6_Node000002_Node000007" class="edge">
<title>Node2&#45;&gt;Node7</title>
<g id="a_edge6_Node000002_Node000007"><a xlink:title=" ">
<path fill="none" stroke="#63b8ff" d="M324.85,-990.43C369.45,-1012.55 435.91,-1045.51 471.25,-1063.03"/>
<polygon fill="#63b8ff" stroke="#63b8ff" points="469.69,-1066.17 480.21,-1067.48 472.8,-1059.9 469.69,-1066.17"/>
</a>
</g>
</g>
<!-- Node8 -->
<g id="Node000008" class="node">
<title>Node8</title>
<g id="a_Node000008"><a xlink:href="leaflet_8js.html#a008d931e56b6fc013061112f26afbffb" target="_top" xlink:title=" ">
<polygon fill="white" stroke="#666666" points="510.77,-753 481.98,-753 481.98,-733 510.77,-733 510.77,-753"/>
<text xml:space="preserve" text-anchor="middle" x="496.38" y="-739.5" font-family="Helvetica,sans-Serif" font-size="10.00">x</text>
</a>
</g>
</g>
<!-- Node2&#45;&gt;Node8 -->
<g id="edge7_Node000002_Node000008" class="edge">
<title>Node2&#45;&gt;Node8</title>
<g id="a_edge7_Node000002_Node000008"><a xlink:title=" ">
<path fill="none" stroke="#63b8ff" d="M319.53,-945.71C337.23,-933.95 356.87,-918.01 369.5,-899 404.34,-846.57 359.91,-805.42 405.5,-762 422.62,-745.69 450.05,-741.9 470.1,-741.6"/>
<polygon fill="#63b8ff" stroke="#63b8ff" points="469.92,-745.1 479.97,-741.75 470.03,-738.1 469.92,-745.1"/>
</a>
</g>
</g>
<!-- Node9 -->
<g id="Node000009" class="node">
<title>Node9</title>
<g id="a_Node000009"><a xlink:href="leaflet_8js.html#a9f9b62a373d2bb4624b7ac2df8151435" target="_top" xlink:title=" ">
<polygon fill="white" stroke="#666666" points="510.77,-791 481.98,-791 481.98,-771 510.77,-771 510.77,-791"/>
<text xml:space="preserve" text-anchor="middle" x="496.38" y="-777.5" font-family="Helvetica,sans-Serif" font-size="10.00">y</text>
</a>
</g>
</g>
<!-- Node2&#45;&gt;Node9 -->
<g id="edge8_Node000002_Node000009" class="edge">
<title>Node2&#45;&gt;Node9</title>
<g id="a_edge8_Node000002_Node000009"><a xlink:title=" ">
<path fill="none" stroke="#63b8ff" d="M317.86,-945.79C335.61,-933.85 355.78,-917.72 369.5,-899 397.17,-861.24 370.15,-830.7 405.5,-800 423.26,-784.57 450.4,-780.61 470.21,-780.03"/>
<polygon fill="#63b8ff" stroke="#63b8ff" points="470.21,-783.53 480.21,-780.04 470.21,-776.53 470.21,-783.53"/>
</a>
</g>
</g>
<!-- Node10&#45;&gt;Node3 -->
<g id="edge10_Node000010_Node000003" class="edge">
<title>Node10&#45;&gt;Node3</title>
<g id="a_edge10_Node000010_Node000003"><a xlink:title=" ">
<path fill="none" stroke="#63b8ff" d="M305.75,-890.43C324.21,-902.49 349.19,-919.71 369.5,-937 386.97,-951.87 385.76,-962.3 405.5,-974 407.79,-975.36 410.16,-976.65 412.59,-977.87"/>
<polygon fill="#63b8ff" stroke="#63b8ff" points="410.9,-980.95 421.45,-981.88 413.79,-974.57 410.9,-980.95"/>
</a>
</g>
</g>
<!-- Node10&#45;&gt;Node4 -->
<g id="edge11_Node000010_Node000004" class="edge">
<title>Node10&#45;&gt;Node4</title>
<g id="a_edge11_Node000010_Node000004"><a xlink:title=" ">
<path fill="none" stroke="#63b8ff" d="M331.03,-890.44C355.9,-898.39 386.34,-908.13 414.24,-917.05"/>
<polygon fill="#63b8ff" stroke="#63b8ff" points="413.16,-920.38 423.75,-920.09 415.29,-913.71 413.16,-920.38"/>
</a>
</g>
</g>
<!-- Node10&#45;&gt;Node5 -->
<g id="edge12_Node000010_Node000005" class="edge">
<title>Node10&#45;&gt;Node5</title>
<g id="a_edge12_Node000010_Node000005"><a xlink:title=" ">
<path fill="none" stroke="#63b8ff" d="M368.31,-879.34C378.45,-879.95 388.81,-880.58 399.04,-881.2"/>
<polygon fill="#63b8ff" stroke="#63b8ff" points="398.8,-884.69 409,-881.8 399.22,-877.7 398.8,-884.69"/>
</a>
</g>
</g>
<!-- Node10&#45;&gt;Node6 -->
<g id="edge13_Node000010_Node000006" class="edge">
<title>Node10&#45;&gt;Node6</title>
<g id="a_edge13_Node000010_Node000006"><a xlink:title=" ">
<path fill="none" stroke="#63b8ff" d="M362.11,-857.56C374.23,-855.15 386.79,-852.64 399.15,-850.18"/>
<polygon fill="#63b8ff" stroke="#63b8ff" points="399.82,-853.61 408.94,-848.23 398.45,-846.75 399.82,-853.61"/>
</a>
</g>
</g>
<!-- Node10&#45;&gt;Node8 -->
<g id="edge14_Node000010_Node000008" class="edge">
<title>Node10&#45;&gt;Node8</title>
<g id="a_edge14_Node000010_Node000008"><a xlink:title=" ">
<path fill="none" stroke="#63b8ff" d="M357.16,-857.73C361.58,-855.22 365.74,-852.33 369.5,-849 400.83,-821.25 373.32,-788.75 405.5,-762 423.49,-747.05 450.38,-742.99 470.06,-742.26"/>
<polygon fill="#63b8ff" stroke="#63b8ff" points="470.02,-745.76 480,-742.18 469.97,-738.76 470.02,-745.76"/>
</a>
</g>
</g>
<!-- Node10&#45;&gt;Node9 -->
<g id="edge15_Node000010_Node000009" class="edge">
<title>Node10&#45;&gt;Node9</title>
<g id="a_edge15_Node000010_Node000009"><a xlink:title=" ">
<path fill="none" stroke="#63b8ff" d="M354.04,-857.68C359.48,-855.19 364.7,-852.31 369.5,-849 391.74,-833.65 382.79,-814.65 405.5,-800 424.96,-787.45 451.26,-783.02 470.38,-781.54"/>
<polygon fill="#63b8ff" stroke="#63b8ff" points="470.45,-785.05 480.25,-781.02 470.08,-778.06 470.45,-785.05"/>
</a>
</g>
</g>
<!-- Node11&#45;&gt;Node3 -->
<g id="edge17_Node000011_Node000003" class="edge">
<title>Node11&#45;&gt;Node3</title>
<g id="a_edge17_Node000011_Node000003"><a xlink:title=" ">
<path fill="none" stroke="#63b8ff" d="M359.35,-840.28C363.01,-842.87 366.43,-845.77 369.5,-849 409.31,-890.92 364.43,-933.31 405.5,-974 406.13,-974.62 406.77,-975.22 407.42,-975.81"/>
<polygon fill="#63b8ff" stroke="#63b8ff" points="405.26,-978.57 415.36,-981.78 409.46,-972.97 405.26,-978.57"/>
</a>
</g>
</g>
<!-- Node11&#45;&gt;Node4 -->
<g id="edge18_Node000011_Node000004" class="edge">
<title>Node11&#45;&gt;Node4</title>
<g id="a_edge18_Node000011_Node000004"><a xlink:title=" ">
<path fill="none" stroke="#63b8ff" d="M357.17,-840.44C361.53,-843 365.69,-845.84 369.5,-849 394.33,-869.57 380.67,-891.43 405.5,-912 406.45,-912.79 407.43,-913.56 408.42,-914.31"/>
<polygon fill="#63b8ff" stroke="#63b8ff" points="406.3,-917.1 416.57,-919.73 410.18,-911.28 406.3,-917.1"/>
</a>
</g>
</g>
<!-- Node11&#45;&gt;Node5 -->
<g id="edge19_Node000011_Node000005" class="edge">
<title>Node11&#45;&gt;Node5</title>
<g id="a_edge19_Node000011_Node000005"><a xlink:title=" ">
<path fill="none" stroke="#63b8ff" d="M344.95,-840.41C353.22,-843.28 361.56,-846.2 369.5,-849 385.54,-854.66 389.29,-856.83 405.5,-862 411.19,-863.82 417.1,-865.63 423.06,-867.4"/>
<polygon fill="#63b8ff" stroke="#63b8ff" points="421.76,-870.66 432.34,-870.11 423.72,-863.94 421.76,-870.66"/>
</a>
</g>
</g>
<!-- Node11&#45;&gt;Node6 -->
<g id="edge20_Node000011_Node000006" class="edge">
<title>Node11&#45;&gt;Node6</title>
<g id="a_edge20_Node000011_Node000006"><a xlink:title=" ">
<path fill="none" stroke="#63b8ff" d="M361.19,-822.91C373.65,-823.67 386.61,-824.45 399.34,-825.21"/>
<polygon fill="#63b8ff" stroke="#63b8ff" points="398.76,-828.68 408.95,-825.79 399.18,-821.7 398.76,-828.68"/>
</a>
</g>
</g>
<!-- Node11&#45;&gt;Node8 -->
<g id="edge21_Node000011_Node000008" class="edge">
<title>Node11&#45;&gt;Node8</title>
<g id="a_edge21_Node000011_Node000008"><a xlink:title=" ">
<path fill="none" stroke="#63b8ff" d="M350.55,-795.61C357.06,-792.94 363.47,-790.06 369.5,-787 386.87,-778.19 387.62,-769.72 405.5,-762 426.42,-752.97 451.98,-748.1 470.49,-745.56"/>
<polygon fill="#63b8ff" stroke="#63b8ff" points="470.77,-749.05 480.27,-744.36 469.92,-742.1 470.77,-749.05"/>
</a>
</g>
</g>
<!-- Node11&#45;&gt;Node9 -->
<g id="edge22_Node000011_Node000009" class="edge">
<title>Node11&#45;&gt;Node9</title>
<g id="a_edge22_Node000011_Node000009"><a xlink:title=" ">
<path fill="none" stroke="#63b8ff" d="M361.19,-804.01C399.92,-797.37 443.48,-789.9 470.17,-785.32"/>
<polygon fill="#63b8ff" stroke="#63b8ff" points="470.74,-788.78 480.01,-783.64 469.56,-781.88 470.74,-788.78"/>
</a>
</g>
</g>
<!-- Node12&#45;&gt;Node3 -->
<g id="edge24_Node000012_Node000003" class="edge">
<title>Node12&#45;&gt;Node3</title>
<g id="a_edge24_Node000012_Node000003"><a xlink:title=" ">
<path fill="none" stroke="#63b8ff" d="M360.1,-778.25C363.52,-780.85 366.69,-783.76 369.5,-787 424.95,-850.94 348.13,-911.77 405.5,-974 405.98,-974.52 406.47,-975.03 406.97,-975.53"/>
<polygon fill="#63b8ff" stroke="#63b8ff" points="404.68,-978.18 414.63,-981.81 409.11,-972.76 404.68,-978.18"/>
</a>
</g>
</g>
<!-- Node12&#45;&gt;Node4 -->
<g id="edge25_Node000012_Node000004" class="edge">
<title>Node12&#45;&gt;Node4</title>
<g id="a_edge25_Node000012_Node000004"><a xlink:title=" ">
<path fill="none" stroke="#63b8ff" d="M359.35,-778.28C363.01,-780.87 366.43,-783.77 369.5,-787 409.31,-828.92 365.69,-870.08 405.5,-912 405.98,-912.5 406.47,-913 406.96,-913.49"/>
<polygon fill="#63b8ff" stroke="#63b8ff" points="404.56,-916.05 414.49,-919.75 409.04,-910.67 404.56,-916.05"/>
</a>
</g>
</g>
<!-- Node12&#45;&gt;Node5 -->
<g id="edge26_Node000012_Node000005" class="edge">
<title>Node12&#45;&gt;Node5</title>
<g id="a_edge26_Node000012_Node000005"><a xlink:title=" ">
<path fill="none" stroke="#63b8ff" d="M357.87,-778.39C362.01,-780.96 365.93,-783.82 369.5,-787 397.11,-811.59 377.16,-838.26 405.5,-862 406.62,-862.94 407.77,-863.84 408.95,-864.7"/>
<polygon fill="#63b8ff" stroke="#63b8ff" points="406.88,-867.54 417.21,-869.91 410.61,-861.62 406.88,-867.54"/>
</a>
</g>
</g>
<!-- Node12&#45;&gt;Node6 -->
<g id="edge27_Node000012_Node000006" class="edge">
<title>Node12&#45;&gt;Node6</title>
<g id="a_edge27_Node000012_Node000006"><a xlink:title=" ">
<path fill="none" stroke="#63b8ff" d="M344.95,-778.41C353.22,-781.28 361.56,-784.2 369.5,-787 385.54,-792.66 389.46,-794.34 405.5,-800 409.96,-801.58 414.56,-803.19 419.19,-804.81"/>
<polygon fill="#63b8ff" stroke="#63b8ff" points="418.03,-808.11 428.62,-808.09 420.33,-801.5 418.03,-808.11"/>
</a>
</g>
</g>
<!-- Node12&#45;&gt;Node8 -->
<g id="edge28_Node000012_Node000008" class="edge">
<title>Node12&#45;&gt;Node8</title>
<g id="a_edge28_Node000012_Node000008"><a xlink:title=" ">
<path fill="none" stroke="#63b8ff" d="M361.19,-751.09C399.92,-748.75 443.48,-746.13 470.17,-744.52"/>
<polygon fill="#63b8ff" stroke="#63b8ff" points="470.22,-748.02 479.99,-743.93 469.8,-741.04 470.22,-748.02"/>
</a>
</g>
</g>
<!-- Node12&#45;&gt;Node9 -->
<g id="edge29_Node000012_Node000009" class="edge">
<title>Node12&#45;&gt;Node9</title>
<g id="a_edge29_Node000012_Node000009"><a xlink:title=" ">
<path fill="none" stroke="#63b8ff" d="M361.19,-765.45C399.92,-769.94 443.48,-774.99 470.17,-778.08"/>
<polygon fill="#63b8ff" stroke="#63b8ff" points="469.66,-781.54 480,-779.22 470.46,-774.59 469.66,-781.54"/>
</a>
</g>
</g>
<!-- Node13&#45;&gt;Node8 -->
<g id="edge34_Node000013_Node000008" class="edge">
<title>Node13&#45;&gt;Node8</title>
<g id="a_edge34_Node000013_Node000008"><a xlink:title=" ">
<path fill="none" stroke="#63b8ff" d="M343.35,-678.31C352.38,-682.38 361.35,-686.96 369.5,-692 387.71,-703.26 386.39,-714.35 405.5,-724 425.84,-734.27 451.47,-738.99 470.15,-741.16"/>
<polygon fill="#63b8ff" stroke="#63b8ff" points="469.76,-744.64 480.05,-742.13 470.44,-737.68 469.76,-744.64"/>
</a>
</g>
</g>
<!-- Node13&#45;&gt;Node9 -->
<g id="edge35_Node000013_Node000009" class="edge">
<title>Node13&#45;&gt;Node9</title>
<g id="a_edge35_Node000013_Node000009"><a xlink:title=" ">
<path fill="none" stroke="#63b8ff" d="M350.29,-678.42C357.22,-682.3 363.78,-686.8 369.5,-692 395.37,-715.55 377.69,-740.77 405.5,-762 424.1,-776.2 450.9,-780.36 470.39,-781.33"/>
<polygon fill="#63b8ff" stroke="#63b8ff" points="470.12,-784.83 480.2,-781.55 470.28,-777.83 470.12,-784.83"/>
</a>
</g>
</g>
<!-- Node13&#45;&gt;Node14 -->
<g id="edge31_Node000013_Node000014" class="edge">
<title>Node13&#45;&gt;Node14</title>
<g id="a_edge31_Node000013_Node000014"><a xlink:title=" ">
<path fill="none" stroke="#63b8ff" d="M341.14,-633.6C361.53,-626.42 384.4,-618.61 405.5,-612 411.3,-610.18 417.32,-608.36 423.39,-606.58"/>
<polygon fill="#63b8ff" stroke="#63b8ff" points="424.22,-609.98 432.85,-603.83 422.27,-603.26 424.22,-609.98"/>
</a>
</g>
</g>
<!-- Node15 -->
<g id="Node000015" class="node">
<title>Node15</title>
<g id="a_Node000015"><a xlink:href="classediteurpanovisu_1_1GestionnaireInterfaceController.html#a59340fa9224b7f5b7f764833ced68bf6" target="_top" xlink:title=" ">
<polygon fill="white" stroke="#666666" points="581.25,-715 411.5,-715 411.5,-683 581.25,-683 581.25,-715"/>
<text xml:space="preserve" text-anchor="start" x="419.5" y="-701.5" font-family="Helvetica,sans-Serif" font-size="10.00">editeurpanovisu.Gestionnaire</text>
<text xml:space="preserve" text-anchor="middle" x="496.38" y="-689.5" font-family="Helvetica,sans-Serif" font-size="10.00">InterfaceController.getPrLisMasque</text>
</a>
</g>
</g>
<!-- Node13&#45;&gt;Node15 -->
<g id="edge32_Node000013_Node000015" class="edge">
<title>Node13&#45;&gt;Node15</title>
<g id="a_edge32_Node000013_Node000015"><a xlink:title=" ">
<path fill="none" stroke="#63b8ff" d="M361.19,-672.26C374.34,-674.88 388.04,-677.61 401.44,-680.28"/>
<polygon fill="#63b8ff" stroke="#63b8ff" points="400.64,-683.69 411.13,-682.21 402.01,-676.82 400.64,-683.69"/>
</a>
</g>
</g>
<!-- Node16 -->
<g id="Node000016" class="node">
<title>Node16</title>
<g id="a_Node000016"><a xlink:href="classediteurpanovisu_1_1GestionnaireInterfaceController.html#aa71013435a49b6180d667647ba290ce0" target="_top" xlink:title=" ">
<polygon fill="white" stroke="#666666" points="582,-665 410.75,-665 410.75,-621 582,-621 582,-665"/>
<text xml:space="preserve" text-anchor="start" x="418.75" y="-651.5" font-family="Helvetica,sans-Serif" font-size="10.00">editeurpanovisu.Gestionnaire</text>
<text xml:space="preserve" text-anchor="start" x="418.75" y="-639.5" font-family="Helvetica,sans-Serif" font-size="10.00">InterfaceController.getPwNouveaux</text>
<text xml:space="preserve" text-anchor="middle" x="496.38" y="-627.5" font-family="Helvetica,sans-Serif" font-size="10.00">Masque</text>
</a>
</g>
</g>
<!-- Node13&#45;&gt;Node16 -->
<g id="edge33_Node000013_Node000016" class="edge">
<title>Node13&#45;&gt;Node16</title>
<g id="a_edge33_Node000013_Node000016"><a xlink:title=" ">
<path fill="none" stroke="#63b8ff" d="M361.19,-651.09C373.65,-650.33 386.61,-649.55 399.34,-648.79"/>
<polygon fill="#63b8ff" stroke="#63b8ff" points="399.18,-652.3 408.95,-648.21 398.76,-645.32 399.18,-652.3"/>
</a>
</g>
</g>
</g>
</svg>

<g id="navigator" transform="translate(0 0)" fill="#404254">
  <rect fill="#f2f5e9" fill-opacity="0.5" stroke="#606060" stroke-width=".5" x="0" y="0" width="60" height="60"/>
  <use id="zoomplus" xlink:href="#zoomPlus" x="17" y="9" onmousedown="handleZoom(evt,'in')"/>
  <use id="zoomminus" xlink:href="#zoomMin" x="42" y="9" onmousedown="handleZoom(evt,'out')"/>
  <use id="reset" xlink:href="#resetDef" x="30" y="36" onmousedown="handleReset()"/>
   <use id="arrowup" xlink:href="#arrowUp" x="0" y="0" onmousedown="handlePan(0,-1)"/>
  <use id="arrowright" xlink:href="#arrowRight" x="0" y="0" onmousedown="handlePan(1,0)"/>
  <use id="arrowdown" xlink:href="#arrowDown" x="0" y="0" onmousedown="handlePan(0,1)"/>
  <use id="arrowleft" xlink:href="#arrowLeft" x="0" y="0" onmousedown="handlePan(-1,0)"/>
</g>
<svg viewBox="0 0 15 15" width="100%" height="30px" preserveAspectRatio="xMaxYMin meet">
 <g id="arrow_out" transform="scale(0.3 0.3)">
  <a xlink:href="classediteurpanovisu_1_1GestionnaireInterfaceController_a8d8afa284f09872cc933fb2c9caa9059_cgraph_org.svg" target="_base">
   <rect id="button" ry="5" rx="5" y="6" x="6" height="38" width="38"
        fill="#f2f5e9" fill-opacity="0.5" stroke="#606060" stroke-width="1.0"/>
   <path id="arrow"
     d="M 11.500037,31.436501 C 11.940474,20.09759 22.043105,11.32322 32.158766,21.979434 L 37.068811,17.246167 C 37.068811,17.246167 37.088388,32 37.088388,32 L 22.160133,31.978069 C 22.160133,31.978069 26.997745,27.140456 26.997745,27.140456 C 18.528582,18.264221 13.291696,25.230495 11.500037,31.436501 z"
     style="fill:#404040;"/>
  </a>
 </g>
</svg>

<style type='text/css'>
<![CDATA[
[data-mouse-over-selected='false'] { opacity: 0.7; }
[data-mouse-over-selected='true']  { opacity: 1.0; }
]]>
</style>
<script type="application/ecmascript"><![CDATA[
document.addEventListener('DOMContentLoaded', (event) => {
  highlightEdges();
  highlightAdjacentNodes();
});
]]></script>
</svg>
