<?xml version="1.0" encoding="UTF-8" standalone="no"?>
<!DOCTYPE svg PUBLIC "-//W3C//DTD SVG 1.1//EN"
 "http://www.w3.org/Graphics/SVG/1.1/DTD/svg11.dtd">
<!-- Generated by graphviz version 13.1.2 (20250808.2320)
 -->
<!-- Title: editeurpanovisu.PaneOutil.getApPaneOutil Pages: 1 -->
<svg width="371pt" height="90pt"
 viewBox="0.00 0.00 371.00 90.00" xmlns="http://www.w3.org/2000/svg" xmlns:xlink="http://www.w3.org/1999/xlink">
<g id="graph0" class="graph" transform="scale(1 1) rotate(0) translate(4 86)">
<title>editeurpanovisu.PaneOutil.getApPaneOutil</title>
<!-- Node1 -->
<g id="Node000001" class="node">
<title>Node1</title>
<g id="a_Node000001"><a xlink:title=" ">
<polygon fill="#999999" stroke="#666666" points="362.75,-57 216.25,-57 216.25,-25 362.75,-25 362.75,-57"/>
<text xml:space="preserve" text-anchor="start" x="224.25" y="-43.5" font-family="Helvetica,sans-Serif" font-size="10.00">editeurpanovisu.PaneOutil.get</text>
<text xml:space="preserve" text-anchor="middle" x="289.5" y="-31.5" font-family="Helvetica,sans-Serif" font-size="10.00">ApPaneOutil</text>
</a>
</g>
</g>
<!-- Node2 -->
<g id="Node000002" class="node">
<title>Node2</title>
<g id="a_Node000002"><a xlink:href="classediteurpanovisu_1_1EditeurPanovisu.html#a86c393eee88f54c694db994ddd85b90d" target="_top" xlink:title=" ">
<polygon fill="white" stroke="#666666" points="180.25,-82 0,-82 0,-50 180.25,-50 180.25,-82"/>
<text xml:space="preserve" text-anchor="start" x="8" y="-68.5" font-family="Helvetica,sans-Serif" font-size="10.00">editeurpanovisu.EditeurPanovisu.cree</text>
<text xml:space="preserve" text-anchor="middle" x="90.12" y="-56.5" font-family="Helvetica,sans-Serif" font-size="10.00">Environnement</text>
</a>
</g>
</g>
<!-- Node1&#45;&gt;Node2 -->
<g id="edge1_Node000001_Node000002" class="edge">
<title>Node1&#45;&gt;Node2</title>
<g id="a_edge1_Node000001_Node000002"><a xlink:title=" ">
<path fill="none" stroke="#63b8ff" d="M204.45,-51.65C196.6,-52.64 188.62,-53.65 180.72,-54.65"/>
<polygon fill="#63b8ff" stroke="#63b8ff" points="204.86,-55.12 214.34,-50.39 203.98,-48.18 204.86,-55.12"/>
</a>
</g>
</g>
<!-- Node3 -->
<g id="Node000003" class="node">
<title>Node3</title>
<g id="a_Node000003"><a xlink:href="classediteurpanovisu_1_1GestionnaireInterfaceController.html#ac7fa988dc99d8684686127a2269cd66e" target="_top" xlink:title=" ">
<polygon fill="white" stroke="#666666" points="168.25,-32 12,-32 12,0 168.25,0 168.25,-32"/>
<text xml:space="preserve" text-anchor="start" x="20" y="-18.5" font-family="Helvetica,sans-Serif" font-size="10.00">editeurpanovisu.Gestionnaire</text>
<text xml:space="preserve" text-anchor="middle" x="90.12" y="-6.5" font-family="Helvetica,sans-Serif" font-size="10.00">InterfaceController.creeInterface</text>
</a>
</g>
</g>
<!-- Node1&#45;&gt;Node3 -->
<g id="edge2_Node000001_Node000003" class="edge">
<title>Node1&#45;&gt;Node3</title>
<g id="a_edge2_Node000001_Node000003"><a xlink:title=" ">
<path fill="none" stroke="#63b8ff" d="M204.53,-30.36C192.61,-28.85 180.39,-27.31 168.6,-25.81"/>
<polygon fill="#63b8ff" stroke="#63b8ff" points="203.98,-33.82 214.34,-31.61 204.86,-26.88 203.98,-33.82"/>
</a>
</g>
</g>
</g>
</svg>
