<?xml version="1.0" encoding="UTF-8" standalone="no"?>
<!DOCTYPE svg PUBLIC "-//W3C//DTD SVG 1.1//EN"
 "http://www.w3.org/Graphics/SVG/1.1/DTD/svg11.dtd">
<!-- Generated by graphviz version 13.1.2 (20250808.2320)
 -->
<!-- Title: editeurpanovisu.TransformationsPanoramique.cube2rect Pages: 1 -->
<svg width="231pt" height="104pt"
 viewBox="0.00 0.00 231.00 104.00" xmlns="http://www.w3.org/2000/svg" xmlns:xlink="http://www.w3.org/1999/xlink">
<g id="graph0" class="graph" transform="scale(1 1) rotate(0) translate(4 100)">
<title>editeurpanovisu.TransformationsPanoramique.cube2rect</title>
<!-- Node1 -->
<g id="Node000001" class="node">
<title>Node1</title>
<g id="a_Node000001"><a xlink:title=" ">
<polygon fill="#999999" stroke="#666666" points="157.75,-64 0,-64 0,-32 157.75,-32 157.75,-64"/>
<text xml:space="preserve" text-anchor="start" x="8" y="-50.5" font-family="Helvetica,sans-Serif" font-size="10.00">editeurpanovisu.Transformations</text>
<text xml:space="preserve" text-anchor="middle" x="78.88" y="-38.5" font-family="Helvetica,sans-Serif" font-size="10.00">Panoramique.cube2rect</text>
</a>
</g>
</g>
<!-- Node2 -->
<g id="Node000002" class="node">
<title>Node2</title>
<g id="a_Node000002"><a xlink:href="leaflet_8js.html#a73aff07b65d7c0b09ccf6b4c4f1b7a9d" target="_top" xlink:title=" ">
<polygon fill="white" stroke="#666666" points="222.55,-96 193.75,-96 193.75,-76 222.55,-76 222.55,-96"/>
<text xml:space="preserve" text-anchor="middle" x="208.15" y="-82.5" font-family="Helvetica,sans-Serif" font-size="10.00">i</text>
</a>
</g>
</g>
<!-- Node1&#45;&gt;Node2 -->
<g id="edge1_Node000001_Node000002" class="edge">
<title>Node1&#45;&gt;Node2</title>
<g id="a_edge1_Node000001_Node000002"><a xlink:title=" ">
<path fill="none" stroke="#63b8ff" d="M134.96,-64.45C151.59,-69.41 169.01,-74.61 182.57,-78.66"/>
<polygon fill="#63b8ff" stroke="#63b8ff" points="181.34,-81.95 191.93,-81.46 183.35,-75.24 181.34,-81.95"/>
</a>
</g>
</g>
<!-- Node3 -->
<g id="Node000003" class="node">
<title>Node3</title>
<g id="a_Node000003"><a xlink:href="leaflet_8js.html#afa3c32d9f7f168b0e59ddc33ec31bb84" target="_top" xlink:title=" ">
<polygon fill="white" stroke="#666666" points="222.55,-58 193.75,-58 193.75,-38 222.55,-38 222.55,-58"/>
<text xml:space="preserve" text-anchor="middle" x="208.15" y="-44.5" font-family="Helvetica,sans-Serif" font-size="10.00">j</text>
</a>
</g>
</g>
<!-- Node1&#45;&gt;Node3 -->
<g id="edge2_Node000001_Node000003" class="edge">
<title>Node1&#45;&gt;Node3</title>
<g id="a_edge2_Node000001_Node000003"><a xlink:title=" ">
<path fill="none" stroke="#63b8ff" d="M157.94,-48C166.54,-48 174.76,-48 181.95,-48"/>
<polygon fill="#63b8ff" stroke="#63b8ff" points="181.75,-51.5 191.75,-48 181.75,-44.5 181.75,-51.5"/>
</a>
</g>
</g>
<!-- Node4 -->
<g id="Node000004" class="node">
<title>Node4</title>
<g id="a_Node000004"><a xlink:href="leaflet_8js.html#a873cae0273c5a7d9673544bbe0a6fe8b" target="_top" xlink:title=" ">
<polygon fill="white" stroke="#666666" points="222.55,-20 193.75,-20 193.75,0 222.55,0 222.55,-20"/>
<text xml:space="preserve" text-anchor="middle" x="208.15" y="-6.5" font-family="Helvetica,sans-Serif" font-size="10.00">Y</text>
</a>
</g>
</g>
<!-- Node1&#45;&gt;Node4 -->
<g id="edge3_Node000001_Node000004" class="edge">
<title>Node1&#45;&gt;Node4</title>
<g id="a_edge3_Node000001_Node000004"><a xlink:title=" ">
<path fill="none" stroke="#63b8ff" d="M134.96,-31.55C151.59,-26.59 169.01,-21.39 182.57,-17.34"/>
<polygon fill="#63b8ff" stroke="#63b8ff" points="183.35,-20.76 191.93,-14.54 181.34,-14.05 183.35,-20.76"/>
</a>
</g>
</g>
</g>
</svg>
