<?xml version="1.0" encoding="UTF-8" standalone="no"?>
<!DOCTYPE svg PUBLIC "-//W3C//DTD SVG 1.1//EN"
 "http://www.w3.org/Graphics/SVG/1.1/DTD/svg11.dtd">
<!-- Generated by graphviz version 13.1.2 (20250808.2320)
 -->
<!-- Title: editeurpanovisu.GestionnaireInterfaceController.getiCalqueVignettes Pages: 1 -->
<!--zoomable 629 -->

<svg id="main" version="1.1" xmlns="http://www.w3.org/2000/svg" xmlns:xlink="http://www.w3.org/1999/xlink" xml:space="preserve" onload="init(evt)">

<style type="text/css"><![CDATA[
.node, .edge {opacity: 0.7;}
.node.selected, .edge.selected {opacity: 1;}
.edge:hover path { stroke: red; }
.edge:hover polygon { stroke: red; fill: red; }
]]></style>

<defs>
  <circle id="rim" cx="0" cy="0" r="7"/>
  <circle id="rim2" cx="0" cy="0" r="3.5"/>
  <g id="zoomPlus">
    <use xlink:href="#rim" fill="#404040"><set attributeName="fill" to="#808080" begin="zoomplus.mouseover" end="zoomplus.mouseout"/></use>
    <path d="M-4,0h8M0,-4v8" fill="none" stroke="white" stroke-width="1.5" pointer-events="none"/>
  </g>
  <g id="zoomMin">
    <use xlink:href="#rim" fill="#404040"><set attributeName="fill" to="#808080" begin="zoomminus.mouseover" end="zoomminus.mouseout"/></use>
    <path d="M-4,0h8" fill="none" stroke="white" stroke-width="1.5" pointer-events="none"/>
  </g>
  <g id="arrowUp" transform="translate(30 24)">
    <use xlink:href="#rim"/>
    <path pointer-events="none" fill="none" stroke="white" stroke-width="1.5" d="M0,-3.0v7 M-2.5,-0.5L0,-3.0L2.5,-0.5"/>
  </g>
  <g id="arrowRight" transform="rotate(90) translate(36 -43)">
    <use xlink:href="#rim"/>
    <path pointer-events="none" fill="none" stroke="white" stroke-width="1.5" d="M0,-3.0v7 M-2.5,-0.5L0,-3.0L2.5,-0.5"/>
  </g>
  <g id="arrowDown" transform="rotate(180) translate(-30 -48)">
    <use xlink:href="#rim"/>
    <path pointer-events="none" fill="none" stroke="white" stroke-width="1.5" d="M0,-3.0v7 M-2.5,-0.5L0,-3.0L2.5,-0.5"/>
  </g>
  <g id="arrowLeft" transform="rotate(270) translate(-36 17)">
    <use xlink:href="#rim"/>
    <path pointer-events="none" fill="none" stroke="white" stroke-width="1.5" d="M0,-3.0v7 M-2.5,-0.5L0,-3.0L2.5,-0.5"/>
  </g>
  <g id="resetDef">
    <use xlink:href="#rim2" fill="#404040"><set attributeName="fill" to="#808080" begin="reset.mouseover" end="reset.mouseout"/></use>
  </g>
</defs>
<script type="application/ecmascript">
var viewWidth = 3083;
var viewHeight = 629;
var sectionId = 'dynsection-99';
</script>
<script type="application/ecmascript" xlink:href="svg.min.js"/>
<svg id="graph" class="graph">
<g id="viewport">
<title>editeurpanovisu.GestionnaireInterfaceController.getiCalqueVignettes</title>
<!-- Node1 -->
<g id="Node000001" class="node">
<title>Node1</title>
<g id="a_Node000001"><a xlink:title=" ">
<polygon fill="#999999" stroke="#666666" points="3074.75,-400.44 2887.75,-400.44 2887.75,-368.44 3074.75,-368.44 3074.75,-400.44"/>
<text xml:space="preserve" text-anchor="start" x="2895.75" y="-386.94" font-family="Helvetica,sans-Serif" font-size="10.00">editeurpanovisu.Gestionnaire</text>
<text xml:space="preserve" text-anchor="middle" x="2981.25" y="-374.94" font-family="Helvetica,sans-Serif" font-size="10.00">InterfaceController.getiCalqueVignettes</text>
</a>
</g>
</g>
<!-- Node2 -->
<g id="Node000002" class="node">
<title>Node2</title>
<g id="a_Node000002"><a xlink:href="classediteurpanovisu_1_1GestionnaireInterfaceController.html#a55c8afda208674955a13d48d02be41b8" target="_top" xlink:title=" ">
<polygon fill="white" stroke="#666666" points="2213.5,-336.44 2046,-336.44 2046,-304.44 2213.5,-304.44 2213.5,-336.44"/>
<text xml:space="preserve" text-anchor="start" x="2054" y="-322.94" font-family="Helvetica,sans-Serif" font-size="10.00">editeurpanovisu.Gestionnaire</text>
<text xml:space="preserve" text-anchor="middle" x="2129.75" y="-310.94" font-family="Helvetica,sans-Serif" font-size="10.00">InterfaceController.afficheTemplate</text>
</a>
</g>
</g>
<!-- Node1&#45;&gt;Node2 -->
<g id="edge1_Node000001_Node000002" class="edge">
<title>Node1&#45;&gt;Node2</title>
<g id="a_edge1_Node000001_Node000002"><a xlink:title=" ">
<path fill="none" stroke="#63b8ff" d="M2876.07,-376.59C2705.42,-363.73 2369.77,-338.44 2213.91,-326.7"/>
<polygon fill="#63b8ff" stroke="#63b8ff" points="2875.57,-380.06 2885.81,-377.32 2876.1,-373.08 2875.57,-380.06"/>
</a>
</g>
</g>
<!-- Node10 -->
<g id="Node000010" class="node">
<title>Node10</title>
<g id="a_Node000010"><a xlink:href="classediteurpanovisu_1_1EditeurPanovisu.html#a94e36b9e9d09ab1a4c852b8a8cefa927" target="_top" xlink:title=" ">
<polygon fill="white" stroke="#666666" points="647.25,-519.44 456.5,-519.44 456.5,-487.44 647.25,-487.44 647.25,-519.44"/>
<text xml:space="preserve" text-anchor="start" x="464.5" y="-505.94" font-family="Helvetica,sans-Serif" font-size="10.00">editeurpanovisu.EditeurPanovisu.genere</text>
<text xml:space="preserve" text-anchor="middle" x="551.88" y="-493.94" font-family="Helvetica,sans-Serif" font-size="10.00">Visite</text>
</a>
</g>
</g>
<!-- Node1&#45;&gt;Node10 -->
<g id="edge28_Node000001_Node000010" class="edge">
<title>Node1&#45;&gt;Node10</title>
<g id="a_edge28_Node000001_Node000010"><a xlink:title=" ">
<path fill="none" stroke="#63b8ff" d="M2953.83,-408.19C2888.99,-463.93 2714.78,-598.44 2543.38,-598.44 2543.38,-598.44 2543.38,-598.44 1260,-598.44 1002.28,-598.44 936.66,-585.33 683.25,-538.44 657.67,-533.7 629.76,-526.49 606.35,-519.85"/>
<polygon fill="#63b8ff" stroke="#63b8ff" points="2955.85,-411.07 2961.1,-401.87 2951.26,-405.79 2955.85,-411.07"/>
</a>
</g>
</g>
<!-- Node16 -->
<g id="Node000016" class="node">
<title>Node16</title>
<g id="a_Node000016"><a xlink:href="classediteurpanovisu_1_1GestionnaireInterfaceController.html#ac7fa988dc99d8684686127a2269cd66e" target="_top" xlink:title=" ">
<polygon fill="white" stroke="#666666" points="2000.62,-138.44 1844.38,-138.44 1844.38,-106.44 2000.62,-106.44 2000.62,-138.44"/>
<text xml:space="preserve" text-anchor="start" x="1852.38" y="-124.94" font-family="Helvetica,sans-Serif" font-size="10.00">editeurpanovisu.Gestionnaire</text>
<text xml:space="preserve" text-anchor="middle" x="1922.5" y="-112.94" font-family="Helvetica,sans-Serif" font-size="10.00">InterfaceController.creeInterface</text>
</a>
</g>
</g>
<!-- Node1&#45;&gt;Node16 -->
<g id="edge27_Node000001_Node000016" class="edge">
<title>Node1&#45;&gt;Node16</title>
<g id="a_edge27_Node000001_Node000016"><a xlink:title=" ">
<path fill="none" stroke="#63b8ff" d="M2971.61,-357.22C2955.11,-308.84 2915.01,-206.89 2851.75,-142.44 2746.06,-34.75 2694.26,-0.44 2543.38,-0.44 2543.38,-0.44 2543.38,-0.44 2333,-0.44 2204.27,-0.44 2166.23,6.55 2046,-39.44 2004.97,-55.13 1964.1,-86.89 1941.48,-106.25"/>
<polygon fill="#63b8ff" stroke="#63b8ff" points="2968.26,-358.23 2974.74,-366.61 2974.9,-356.02 2968.26,-358.23"/>
</a>
</g>
</g>
<!-- Node17 -->
<g id="Node000017" class="node">
<title>Node17</title>
<g id="a_Node000017"><a xlink:href="classediteurpanovisu_1_1GestionnaireInterfaceController.html#a6841b5ee320549f9685bf881b97271f6" target="_top" xlink:title="Réaffiche les éléments dans l&#39;ordre des plans.">
<polygon fill="white" stroke="#666666" points="2851.75,-195.44 2666.25,-195.44 2666.25,-151.44 2851.75,-151.44 2851.75,-195.44"/>
<text xml:space="preserve" text-anchor="start" x="2674.25" y="-181.94" font-family="Helvetica,sans-Serif" font-size="10.00">editeurpanovisu.Gestionnaire</text>
<text xml:space="preserve" text-anchor="start" x="2674.25" y="-169.94" font-family="Helvetica,sans-Serif" font-size="10.00">InterfaceController.reOrdonneElements</text>
<text xml:space="preserve" text-anchor="middle" x="2759" y="-157.94" font-family="Helvetica,sans-Serif" font-size="10.00">Calque</text>
</a>
</g>
</g>
<!-- Node1&#45;&gt;Node17 -->
<g id="edge29_Node000001_Node000017" class="edge">
<title>Node1&#45;&gt;Node17</title>
<g id="a_edge29_Node000001_Node000017"><a xlink:title=" ">
<path fill="none" stroke="#63b8ff" d="M2955.11,-360.35C2912.16,-319.21 2825.25,-235.95 2783.47,-195.92"/>
<polygon fill="#63b8ff" stroke="#63b8ff" points="2952.6,-362.79 2962.24,-367.18 2957.44,-357.74 2952.6,-362.79"/>
</a>
</g>
</g>
<!-- Node26 -->
<g id="Node000026" class="node">
<title>Node26</title>
<g id="a_Node000026"><a xlink:href="classediteurpanovisu_1_1GestionnaireInterfaceController.html#ab66509c63a85a8285a081b24049e8774" target="_top" xlink:title=" ">
<polygon fill="white" stroke="#666666" points="2842,-444.44 2676,-444.44 2676,-412.44 2842,-412.44 2842,-444.44"/>
<text xml:space="preserve" text-anchor="start" x="2684" y="-430.94" font-family="Helvetica,sans-Serif" font-size="10.00">editeurpanovisu.Gestionnaire</text>
<text xml:space="preserve" text-anchor="middle" x="2759" y="-418.94" font-family="Helvetica,sans-Serif" font-size="10.00">InterfaceController.strGetTemplate</text>
</a>
</g>
</g>
<!-- Node1&#45;&gt;Node26 -->
<g id="edge51_Node000001_Node000026" class="edge">
<title>Node1&#45;&gt;Node26</title>
<g id="a_edge51_Node000001_Node000026"><a xlink:title=" ">
<path fill="none" stroke="#63b8ff" d="M2886.71,-403.12C2871.93,-406.08 2856.73,-409.11 2842.23,-412.01"/>
<polygon fill="#63b8ff" stroke="#63b8ff" points="2887.32,-406.57 2896.44,-401.18 2885.95,-399.71 2887.32,-406.57"/>
</a>
</g>
</g>
<!-- Node3 -->
<g id="Node000003" class="node">
<title>Node3</title>
<g id="a_Node000003"><a xlink:href="classediteurpanovisu_1_1EditeurPanovisu.html#a87b29dc258cfc67370b1f27809e91b8e" target="_top" xlink:title=" ">
<polygon fill="white" stroke="#666666" points="2010,-311.44 1835,-311.44 1835,-279.44 2010,-279.44 2010,-311.44"/>
<text xml:space="preserve" text-anchor="start" x="1843" y="-297.94" font-family="Helvetica,sans-Serif" font-size="10.00">editeurpanovisu.EditeurPanovisu.tsk</text>
<text xml:space="preserve" text-anchor="middle" x="1922.5" y="-285.94" font-family="Helvetica,sans-Serif" font-size="10.00">AnalyseFichierPVU</text>
</a>
</g>
</g>
<!-- Node2&#45;&gt;Node3 -->
<g id="edge2_Node000002_Node000003" class="edge">
<title>Node2&#45;&gt;Node3</title>
<g id="a_edge2_Node000002_Node000003"><a xlink:title=" ">
<path fill="none" stroke="#63b8ff" d="M2034.37,-308.94C2026.41,-307.97 2018.38,-306.99 2010.48,-306.03"/>
<polygon fill="#63b8ff" stroke="#63b8ff" points="2033.71,-312.39 2044.06,-310.12 2034.56,-305.44 2033.71,-312.39"/>
</a>
</g>
</g>
<!-- Node4 -->
<g id="Node000004" class="node">
<title>Node4</title>
<g id="a_Node000004"><a xlink:href="classediteurpanovisu_1_1EditeurPanovisu.html#ab4beb1597b660a4a253befc6e76f1c54" target="_top" xlink:title=" ">
<polygon fill="white" stroke="#666666" points="1129.62,-330.44 944.12,-330.44 944.12,-298.44 1129.62,-298.44 1129.62,-330.44"/>
<text xml:space="preserve" text-anchor="start" x="952.12" y="-316.94" font-family="Helvetica,sans-Serif" font-size="10.00">editeurpanovisu.EditeurPanovisu.projet</text>
<text xml:space="preserve" text-anchor="middle" x="1036.88" y="-304.94" font-family="Helvetica,sans-Serif" font-size="10.00">Charge</text>
</a>
</g>
</g>
<!-- Node3&#45;&gt;Node4 -->
<g id="edge3_Node000003_Node000004" class="edge">
<title>Node3&#45;&gt;Node4</title>
<g id="a_edge3_Node000003_Node000004"><a xlink:title=" ">
<path fill="none" stroke="#63b8ff" d="M1823.45,-297.54C1651.48,-301.24 1297.83,-308.85 1130.08,-312.45"/>
<polygon fill="#63b8ff" stroke="#63b8ff" points="1823.33,-301.05 1833.25,-297.33 1823.18,-294.05 1823.33,-301.05"/>
</a>
</g>
</g>
<!-- Node7 -->
<g id="Node000007" class="node">
<title>Node7</title>
<g id="a_Node000007"><a xlink:href="classediteurpanovisu_1_1EditeurPanovisu.html#a6d19b4d885ee6fcec827b91956295732" target="_top" xlink:title=" ">
<polygon fill="white" stroke="#666666" points="1799,-350.44 1613.5,-350.44 1613.5,-318.44 1799,-318.44 1799,-350.44"/>
<text xml:space="preserve" text-anchor="start" x="1621.5" y="-336.94" font-family="Helvetica,sans-Serif" font-size="10.00">editeurpanovisu.EditeurPanovisu.projet</text>
<text xml:space="preserve" text-anchor="middle" x="1706.25" y="-324.94" font-family="Helvetica,sans-Serif" font-size="10.00">ChargeNom</text>
</a>
</g>
</g>
<!-- Node3&#45;&gt;Node7 -->
<g id="edge6_Node000003_Node000007" class="edge">
<title>Node3&#45;&gt;Node7</title>
<g id="a_edge6_Node000003_Node000007"><a xlink:title=" ">
<path fill="none" stroke="#63b8ff" d="M1823.45,-313.28C1814.87,-314.85 1806.21,-316.42 1797.7,-317.97"/>
<polygon fill="#63b8ff" stroke="#63b8ff" points="1823.96,-316.75 1833.18,-311.51 1822.71,-309.86 1823.96,-316.75"/>
</a>
</g>
</g>
<!-- Node5 -->
<g id="Node000005" class="node">
<title>Node5</title>
<g id="a_Node000005"><a xlink:href="classediteurpanovisu_1_1EditeurPanovisu.html#ac912b80c1f2ac97def60ff005c5c480b" target="_top" xlink:title=" ">
<polygon fill="white" stroke="#666666" points="420.5,-349.44 216.25,-349.44 216.25,-329.44 420.5,-329.44 420.5,-349.44"/>
<text xml:space="preserve" text-anchor="middle" x="318.38" y="-335.94" font-family="Helvetica,sans-Serif" font-size="10.00">editeurpanovisu.EditeurPanovisu.creeMenu</text>
</a>
</g>
</g>
<!-- Node4&#45;&gt;Node5 -->
<g id="edge4_Node000004_Node000005" class="edge">
<title>Node4&#45;&gt;Node5</title>
<g id="a_edge4_Node000004_Node000005"><a xlink:title=" ">
<path fill="none" stroke="#63b8ff" d="M932.39,-318.05C795.68,-322.82 556.39,-331.17 420.75,-335.9"/>
<polygon fill="#63b8ff" stroke="#63b8ff" points="932.29,-321.55 942.16,-317.71 932.04,-314.56 932.29,-321.55"/>
</a>
</g>
</g>
<!-- Node6 -->
<g id="Node000006" class="node">
<title>Node6</title>
<g id="a_Node000006"><a xlink:href="classediteurpanovisu_1_1EditeurPanovisu.html#a86c393eee88f54c694db994ddd85b90d" target="_top" xlink:title=" ">
<polygon fill="white" stroke="#666666" points="180.25,-355.44 0,-355.44 0,-323.44 180.25,-323.44 180.25,-355.44"/>
<text xml:space="preserve" text-anchor="start" x="8" y="-341.94" font-family="Helvetica,sans-Serif" font-size="10.00">editeurpanovisu.EditeurPanovisu.cree</text>
<text xml:space="preserve" text-anchor="middle" x="90.12" y="-329.94" font-family="Helvetica,sans-Serif" font-size="10.00">Environnement</text>
</a>
</g>
</g>
<!-- Node5&#45;&gt;Node6 -->
<g id="edge5_Node000005_Node000006" class="edge">
<title>Node5&#45;&gt;Node6</title>
<g id="a_edge5_Node000005_Node000006"><a xlink:title=" ">
<path fill="none" stroke="#63b8ff" d="M204.51,-339.44C196.49,-339.44 188.46,-339.44 180.6,-339.44"/>
<polygon fill="#63b8ff" stroke="#63b8ff" points="204.32,-342.94 214.32,-339.44 204.32,-335.94 204.32,-342.94"/>
</a>
</g>
</g>
<!-- Node7&#45;&gt;Node5 -->
<g id="edge26_Node000007_Node000005" class="edge">
<title>Node7&#45;&gt;Node5</title>
<g id="a_edge26_Node000007_Node000005"><a xlink:title=" ">
<path fill="none" stroke="#63b8ff" d="M1637.41,-315.02C1517.52,-282.48 1259.86,-220.44 1037.88,-220.44 1037.88,-220.44 1037.88,-220.44 793.38,-220.44 615.62,-220.44 411.36,-300.13 343.02,-329.08"/>
<polygon fill="#63b8ff" stroke="#63b8ff" points="1636.2,-318.32 1646.77,-317.58 1638.05,-311.57 1636.2,-318.32"/>
</a>
</g>
</g>
<!-- Node8 -->
<g id="Node000008" class="node">
<title>Node8</title>
<g id="a_Node000008"><a xlink:href="classediteurpanovisu_1_1EditeurPanovisu.html#af0d1c32bb78acbff561c822a0d15f760" target="_top" xlink:title=" ">
<polygon fill="white" stroke="#666666" points="1577.5,-394.44 1389.75,-394.44 1389.75,-362.44 1577.5,-362.44 1577.5,-394.44"/>
<text xml:space="preserve" text-anchor="start" x="1397.75" y="-380.94" font-family="Helvetica,sans-Serif" font-size="10.00">editeurpanovisu.EditeurPanovisu.ajoute</text>
<text xml:space="preserve" text-anchor="middle" x="1483.62" y="-368.94" font-family="Helvetica,sans-Serif" font-size="10.00">FichierHisto</text>
</a>
</g>
</g>
<!-- Node7&#45;&gt;Node8 -->
<g id="edge7_Node000007_Node000008" class="edge">
<title>Node7&#45;&gt;Node8</title>
<g id="a_edge7_Node000007_Node000008"><a xlink:title=" ">
<path fill="none" stroke="#63b8ff" d="M1602.04,-348.28C1579.75,-352.65 1557.08,-357.46 1537.68,-361.99"/>
<polygon fill="#63b8ff" stroke="#63b8ff" points="1602.64,-351.73 1611.8,-346.4 1601.31,-344.86 1602.64,-351.73"/>
</a>
</g>
</g>
<!-- Node8&#45;&gt;Node4 -->
<g id="edge8_Node000008_Node000004" class="edge">
<title>Node8&#45;&gt;Node4</title>
<g id="a_edge8_Node000008_Node000004"><a xlink:title=" ">
<path fill="none" stroke="#63b8ff" d="M1391.34,-359.92C1378.73,-357.6 1365.94,-355.37 1353.75,-353.44 1278.71,-341.54 1193.15,-331.17 1130.03,-324.12"/>
<polygon fill="#63b8ff" stroke="#63b8ff" points="1390.38,-363.3 1400.85,-361.7 1391.67,-356.42 1390.38,-363.3"/>
</a>
</g>
</g>
<!-- Node8&#45;&gt;Node7 -->
<g id="edge9_Node000008_Node000007" class="edge">
<title>Node8&#45;&gt;Node7</title>
<g id="a_edge9_Node000008_Node000007"><a xlink:title=" ">
<path fill="none" stroke="#63b8ff" d="M1588.86,-364.39C1610.79,-360.08 1633.04,-355.35 1652.12,-350.9"/>
<polygon fill="#63b8ff" stroke="#63b8ff" points="1588.43,-360.91 1579.28,-366.24 1589.76,-367.78 1588.43,-360.91"/>
</a>
</g>
</g>
<!-- Node9 -->
<g id="Node000009" class="node">
<title>Node9</title>
<g id="a_Node000009"><a xlink:href="classediteurpanovisu_1_1EditeurPanovisu.html#a9f3ea25b35d4884524508dab3dc4fd6a" target="_top" xlink:title=" ">
<polygon fill="white" stroke="#666666" points="1353.75,-394.44 1168.25,-394.44 1168.25,-362.44 1353.75,-362.44 1353.75,-394.44"/>
<text xml:space="preserve" text-anchor="start" x="1176.25" y="-380.94" font-family="Helvetica,sans-Serif" font-size="10.00">editeurpanovisu.EditeurPanovisu.projet</text>
<text xml:space="preserve" text-anchor="middle" x="1261" y="-368.94" font-family="Helvetica,sans-Serif" font-size="10.00">Sauve</text>
</a>
</g>
</g>
<!-- Node8&#45;&gt;Node9 -->
<g id="edge10_Node000008_Node000009" class="edge">
<title>Node8&#45;&gt;Node9</title>
<g id="a_edge10_Node000008_Node000009"><a xlink:title=" ">
<path fill="none" stroke="#63b8ff" d="M1378.13,-378.44C1370.14,-378.44 1362.11,-378.44 1354.21,-378.44"/>
<polygon fill="#63b8ff" stroke="#63b8ff" points="1377.87,-381.94 1387.87,-378.44 1377.87,-374.94 1377.87,-381.94"/>
</a>
</g>
</g>
<!-- Node15 -->
<g id="Node000015" class="node">
<title>Node15</title>
<g id="a_Node000015"><a xlink:href="classediteurpanovisu_1_1EditeurPanovisu.html#a7b2e25dc717eb52b62e23d54ec4c124a" target="_top" xlink:title=" ">
<polygon fill="white" stroke="#666666" points="1353.75,-444.44 1168.25,-444.44 1168.25,-412.44 1353.75,-412.44 1353.75,-444.44"/>
<text xml:space="preserve" text-anchor="start" x="1176.25" y="-430.94" font-family="Helvetica,sans-Serif" font-size="10.00">editeurpanovisu.EditeurPanovisu.projet</text>
<text xml:space="preserve" text-anchor="middle" x="1261" y="-418.94" font-family="Helvetica,sans-Serif" font-size="10.00">SauveSous</text>
</a>
</g>
</g>
<!-- Node8&#45;&gt;Node15 -->
<g id="edge24_Node000008_Node000015" class="edge">
<title>Node8&#45;&gt;Node15</title>
<g id="a_edge24_Node000008_Node000015"><a xlink:title=" ">
<path fill="none" stroke="#63b8ff" d="M1399.12,-397.36C1377.88,-402.17 1355.23,-407.31 1334.59,-411.99"/>
<polygon fill="#63b8ff" stroke="#63b8ff" points="1399.62,-400.84 1408.6,-395.21 1398.08,-394.01 1399.62,-400.84"/>
</a>
</g>
</g>
<!-- Node9&#45;&gt;Node4 -->
<g id="edge14_Node000009_Node000004" class="edge">
<title>Node9&#45;&gt;Node4</title>
<g id="a_edge14_Node000009_Node000004"><a xlink:title=" ">
<path fill="none" stroke="#63b8ff" d="M1192.04,-358.86C1160.95,-349.9 1124.52,-339.4 1094.88,-330.86"/>
<polygon fill="#63b8ff" stroke="#63b8ff" points="1190.76,-362.13 1201.34,-361.54 1192.7,-355.4 1190.76,-362.13"/>
</a>
</g>
</g>
<!-- Node9&#45;&gt;Node5 -->
<g id="edge11_Node000009_Node000005" class="edge">
<title>Node9&#45;&gt;Node5</title>
<g id="a_edge11_Node000009_Node000005"><a xlink:title=" ">
<path fill="none" stroke="#63b8ff" d="M1156.69,-374.15C975.14,-366.63 601.1,-351.12 420.86,-343.64"/>
<polygon fill="#63b8ff" stroke="#63b8ff" points="1156.45,-377.65 1166.58,-374.56 1156.74,-370.65 1156.45,-377.65"/>
</a>
</g>
</g>
<!-- Node9&#45;&gt;Node7 -->
<g id="edge15_Node000009_Node000007" class="edge">
<title>Node9&#45;&gt;Node7</title>
<g id="a_edge15_Node000009_Node000007"><a xlink:title=" ">
<path fill="none" stroke="#63b8ff" d="M1348.35,-359.92C1362.15,-357.43 1376.31,-355.15 1389.75,-353.44 1464.6,-343.9 1550.06,-339.13 1613.14,-336.75"/>
<polygon fill="#63b8ff" stroke="#63b8ff" points="1348.07,-356.41 1338.88,-361.68 1349.35,-363.3 1348.07,-356.41"/>
</a>
</g>
</g>
<!-- Node9&#45;&gt;Node10 -->
<g id="edge12_Node000009_Node000010" class="edge">
<title>Node9&#45;&gt;Node10</title>
<g id="a_edge12_Node000009_Node000010"><a xlink:title=" ">
<path fill="none" stroke="#63b8ff" d="M1171.09,-401.03C1170.12,-401.81 1169.17,-402.61 1168.25,-403.44 1135.59,-432.78 1168.07,-470.05 1132.25,-495.44 1056.9,-548.84 791.56,-529.75 647.55,-514.68"/>
<polygon fill="#63b8ff" stroke="#63b8ff" points="1172.79,-404.11 1179.1,-395.6 1168.86,-398.32 1172.79,-404.11"/>
</a>
</g>
</g>
<!-- Node11 -->
<g id="Node000011" class="node">
<title>Node11</title>
<g id="a_Node000011"><a xlink:href="classediteurpanovisu_1_1EditeurPanovisu.html#a9b46b222714af12c06ec33d410400773" target="_top" xlink:title=" ">
<polygon fill="white" stroke="#666666" points="647.25,-440.44 456.5,-440.44 456.5,-408.44 647.25,-408.44 647.25,-440.44"/>
<text xml:space="preserve" text-anchor="start" x="464.5" y="-426.94" font-family="Helvetica,sans-Serif" font-size="10.00">editeurpanovisu.EditeurPanovisu.projets</text>
<text xml:space="preserve" text-anchor="middle" x="551.88" y="-414.94" font-family="Helvetica,sans-Serif" font-size="10.00">Fermer</text>
</a>
</g>
</g>
<!-- Node9&#45;&gt;Node11 -->
<g id="edge16_Node000009_Node000011" class="edge">
<title>Node9&#45;&gt;Node11</title>
<g id="a_edge16_Node000009_Node000011"><a xlink:title=" ">
<path fill="none" stroke="#63b8ff" d="M1179.87,-398.6C1175.9,-400.12 1172,-401.73 1168.25,-403.44 1150.75,-411.4 1150.65,-421.86 1132.25,-427.44 965.22,-478.01 758.47,-458.65 642.57,-440.93"/>
<polygon fill="#63b8ff" stroke="#63b8ff" points="1180.85,-401.96 1189.09,-395.3 1178.49,-395.37 1180.85,-401.96"/>
</a>
</g>
</g>
<!-- Node12 -->
<g id="Node000012" class="node">
<title>Node12</title>
<g id="a_Node000012"><a xlink:href="classediteurpanovisu_1_1EditeurPanovisu.html#ac9d449399ccd38843fa12e716f0c9611" target="_top" xlink:title=" ">
<polygon fill="white" stroke="#666666" points="1132.25,-280.44 941.5,-280.44 941.5,-248.44 1132.25,-248.44 1132.25,-280.44"/>
<text xml:space="preserve" text-anchor="start" x="949.5" y="-266.94" font-family="Helvetica,sans-Serif" font-size="10.00">editeurpanovisu.EditeurPanovisu.projets</text>
<text xml:space="preserve" text-anchor="middle" x="1036.88" y="-254.94" font-family="Helvetica,sans-Serif" font-size="10.00">Nouveau</text>
</a>
</g>
</g>
<!-- Node9&#45;&gt;Node12 -->
<g id="edge18_Node000009_Node000012" class="edge">
<title>Node9&#45;&gt;Node12</title>
<g id="a_edge18_Node000009_Node000012"><a xlink:title=" ">
<path fill="none" stroke="#63b8ff" d="M1232.16,-354.71C1207.39,-334.7 1169.44,-306.66 1132.25,-289.44 1125.33,-286.23 1117.92,-283.38 1110.42,-280.86"/>
<polygon fill="#63b8ff" stroke="#63b8ff" points="1229.85,-357.34 1239.8,-360.98 1234.29,-351.93 1229.85,-357.34"/>
</a>
</g>
</g>
<!-- Node13 -->
<g id="Node000013" class="node">
<title>Node13</title>
<g id="a_Node000013"><a xlink:href="classediteurpanovisu_1_1EditeurPanovisu.html#a2b3125ffe2e6291efacf19df6cb30a8d" target="_top" xlink:title=" ">
<polygon fill="white" stroke="#666666" points="884.88,-494.44 703.88,-494.44 703.88,-474.44 884.88,-474.44 884.88,-494.44"/>
<text xml:space="preserve" text-anchor="middle" x="794.38" y="-480.94" font-family="Helvetica,sans-Serif" font-size="10.00">editeurpanovisu.EditeurPanovisu.start</text>
</a>
</g>
</g>
<!-- Node9&#45;&gt;Node13 -->
<g id="edge23_Node000009_Node000013" class="edge">
<title>Node9&#45;&gt;Node13</title>
<g id="a_edge23_Node000009_Node000013"><a xlink:title=" ">
<path fill="none" stroke="#63b8ff" d="M1172.47,-400.52C1171.03,-401.45 1169.62,-402.42 1168.25,-403.44 1144.16,-421.25 1157.96,-445.05 1132.25,-460.44 1045.21,-512.53 921.97,-505.17 851.2,-494.93"/>
<polygon fill="#63b8ff" stroke="#63b8ff" points="1174.09,-403.62 1181.08,-395.67 1170.65,-397.53 1174.09,-403.62"/>
</a>
</g>
</g>
<!-- Node14 -->
<g id="Node000014" class="node">
<title>Node14</title>
<g id="a_Node000014"><a xlink:href="classediteurpanovisu_1_1EditeurPanovisu.html#aef8c9b28c3e88d6e27e3f62b9a901134" target="_top" xlink:title=" ">
<polygon fill="white" stroke="#666666" points="1130.75,-418.44 943,-418.44 943,-386.44 1130.75,-386.44 1130.75,-418.44"/>
<text xml:space="preserve" text-anchor="start" x="951" y="-404.94" font-family="Helvetica,sans-Serif" font-size="10.00">editeurpanovisu.EditeurPanovisu.sauve</text>
<text xml:space="preserve" text-anchor="middle" x="1036.88" y="-392.94" font-family="Helvetica,sans-Serif" font-size="10.00">Fichiers</text>
</a>
</g>
</g>
<!-- Node9&#45;&gt;Node14 -->
<g id="edge22_Node000009_Node000014" class="edge">
<title>Node9&#45;&gt;Node14</title>
<g id="a_edge22_Node000009_Node000014"><a xlink:title=" ">
<path fill="none" stroke="#63b8ff" d="M1156.85,-389.58C1148.29,-390.51 1139.67,-391.44 1131.19,-392.35"/>
<polygon fill="#63b8ff" stroke="#63b8ff" points="1156.98,-393.09 1166.55,-388.53 1156.23,-386.13 1156.98,-393.09"/>
</a>
</g>
</g>
<!-- Node10&#45;&gt;Node5 -->
<g id="edge13_Node000010_Node000005" class="edge">
<title>Node10&#45;&gt;Node5</title>
<g id="a_edge13_Node000010_Node000005"><a xlink:title=" ">
<path fill="none" stroke="#63b8ff" d="M509.45,-481.58C492.66,-472.24 473.3,-460.88 456.5,-449.44 407.56,-416.11 354.05,-370.12 331,-349.8"/>
<polygon fill="#63b8ff" stroke="#63b8ff" points="507.76,-484.64 518.21,-486.38 511.12,-478.5 507.76,-484.64"/>
</a>
</g>
</g>
<!-- Node11&#45;&gt;Node5 -->
<g id="edge17_Node000011_Node000005" class="edge">
<title>Node11&#45;&gt;Node5</title>
<g id="a_edge17_Node000011_Node000005"><a xlink:title=" ">
<path fill="none" stroke="#63b8ff" d="M495.45,-404.08C448.93,-387.01 384.38,-363.3 347.75,-349.85"/>
<polygon fill="#63b8ff" stroke="#63b8ff" points="493.95,-407.26 504.54,-407.43 496.36,-400.69 493.95,-407.26"/>
</a>
</g>
</g>
<!-- Node12&#45;&gt;Node5 -->
<g id="edge19_Node000012_Node000005" class="edge">
<title>Node12&#45;&gt;Node5</title>
<g id="a_edge19_Node000012_Node000005"><a xlink:title=" ">
<path fill="none" stroke="#63b8ff" d="M929.67,-275.25C813.46,-287.13 621.69,-306.85 456.5,-324.44 442.93,-325.88 428.6,-327.43 414.53,-328.96"/>
<polygon fill="#63b8ff" stroke="#63b8ff" points="929.92,-278.74 939.51,-274.24 929.21,-271.78 929.92,-278.74"/>
</a>
</g>
</g>
<!-- Node12&#45;&gt;Node13 -->
<g id="edge20_Node000012_Node000013" class="edge">
<title>Node12&#45;&gt;Node13</title>
<g id="a_edge20_Node000012_Node000013"><a xlink:title=" ">
<path fill="none" stroke="#63b8ff" d="M947.2,-285.89C945.25,-287.01 943.34,-288.19 941.5,-289.44 866.79,-339.82 815.24,-441.36 800.03,-474.04"/>
<polygon fill="#63b8ff" stroke="#63b8ff" points="948.63,-289.09 955.96,-281.43 945.46,-282.85 948.63,-289.09"/>
</a>
</g>
</g>
<!-- Node13&#45;&gt;Node10 -->
<g id="edge21_Node000013_Node000010" class="edge">
<title>Node13&#45;&gt;Node10</title>
<g id="a_edge21_Node000013_Node000010"><a xlink:title=" ">
<path fill="none" stroke="#63b8ff" d="M692.23,-492.43C677.4,-493.6 662.18,-494.8 647.49,-495.96"/>
<polygon fill="#63b8ff" stroke="#63b8ff" points="692.28,-495.93 701.97,-491.66 691.73,-488.96 692.28,-495.93"/>
</a>
</g>
</g>
<!-- Node15&#45;&gt;Node5 -->
<g id="edge25_Node000015_Node000005" class="edge">
<title>Node15&#45;&gt;Node5</title>
<g id="a_edge25_Node000015_Node000005"><a xlink:title=" ">
<path fill="none" stroke="#63b8ff" d="M1237.42,-452.77C1213.77,-476.4 1174.29,-510.92 1132.25,-526.44 850.5,-630.44 720.98,-670.74 456.5,-528.44 380.1,-487.33 335.61,-382.88 323.07,-349.71"/>
<polygon fill="#63b8ff" stroke="#63b8ff" points="1239.85,-455.29 1244.33,-445.7 1234.84,-450.4 1239.85,-455.29"/>
</a>
</g>
</g>
<!-- Node17&#45;&gt;Node2 -->
<g id="edge47_Node000017_Node000002" class="edge">
<title>Node17&#45;&gt;Node2</title>
<g id="a_edge47_Node000017_Node000002"><a xlink:title=" ">
<path fill="none" stroke="#63b8ff" d="M2705.05,-201.02C2682.32,-212.37 2655.29,-225.21 2630.25,-235.44 2538.36,-272.96 2516.05,-288.07 2418.5,-306.44 2350.42,-319.25 2271.78,-322.3 2213.94,-322.39"/>
<polygon fill="#63b8ff" stroke="#63b8ff" points="2706.46,-204.23 2713.81,-196.61 2703.31,-197.98 2706.46,-204.23"/>
</a>
</g>
</g>
<!-- Node17&#45;&gt;Node16 -->
<g id="edge50_Node000017_Node000016" class="edge">
<title>Node17&#45;&gt;Node16</title>
<g id="a_edge50_Node000017_Node000016"><a xlink:title=" ">
<path fill="none" stroke="#63b8ff" d="M2663.56,-148.24C2652.36,-145.49 2641.07,-142.83 2630.25,-140.44 2536.81,-119.79 2513.8,-110.14 2418.5,-101.44 2343.7,-94.61 2324.57,-99.02 2249.5,-101.44 2164.33,-104.18 2066.84,-110.93 2000.83,-116.05"/>
<polygon fill="#63b8ff" stroke="#63b8ff" points="2662.69,-151.63 2673.24,-150.65 2664.38,-144.84 2662.69,-151.63"/>
</a>
</g>
</g>
<!-- Node18 -->
<g id="Node000018" class="node">
<title>Node18</title>
<g id="a_Node000018"><a xlink:href="classediteurpanovisu_1_1GestionnaireInterfaceController.html#af7f1e67219c75f044a231abc76bcf790" target="_top" xlink:title=" ">
<polygon fill="white" stroke="#666666" points="2617.88,-226.44 2466.88,-226.44 2466.88,-182.44 2617.88,-182.44 2617.88,-226.44"/>
<text xml:space="preserve" text-anchor="start" x="2474.88" y="-212.94" font-family="Helvetica,sans-Serif" font-size="10.00">editeurpanovisu.Gestionnaire</text>
<text xml:space="preserve" text-anchor="start" x="2474.88" y="-200.94" font-family="Helvetica,sans-Serif" font-size="10.00">InterfaceController.afficheBarre</text>
<text xml:space="preserve" text-anchor="middle" x="2542.38" y="-188.94" font-family="Helvetica,sans-Serif" font-size="10.00">Classique</text>
</a>
</g>
</g>
<!-- Node17&#45;&gt;Node18 -->
<g id="edge30_Node000017_Node000018" class="edge">
<title>Node17&#45;&gt;Node18</title>
<g id="a_edge30_Node000017_Node000018"><a xlink:title=" ">
<path fill="none" stroke="#63b8ff" d="M2654.79,-188.34C2642.49,-190.12 2630.12,-191.91 2618.32,-193.61"/>
<polygon fill="#63b8ff" stroke="#63b8ff" points="2655.15,-191.83 2664.55,-186.93 2654.15,-184.9 2655.15,-191.83"/>
</a>
</g>
</g>
<!-- Node19 -->
<g id="Node000019" class="node">
<title>Node19</title>
<g id="a_Node000019"><a xlink:href="classediteurpanovisu_1_1GestionnaireInterfaceController.html#a7c5cff6934d95be9a4babb6426a5ac26" target="_top" xlink:title=" ">
<polygon fill="white" stroke="#666666" points="2414,-154.44 2254,-154.44 2254,-110.44 2414,-110.44 2414,-154.44"/>
<text xml:space="preserve" text-anchor="start" x="2262" y="-140.94" font-family="Helvetica,sans-Serif" font-size="10.00">editeurpanovisu.Gestionnaire</text>
<text xml:space="preserve" text-anchor="start" x="2262" y="-128.94" font-family="Helvetica,sans-Serif" font-size="10.00">InterfaceController.afficheImages</text>
<text xml:space="preserve" text-anchor="middle" x="2334" y="-116.94" font-family="Helvetica,sans-Serif" font-size="10.00">FondInterface</text>
</a>
</g>
</g>
<!-- Node17&#45;&gt;Node19 -->
<g id="edge46_Node000017_Node000019" class="edge">
<title>Node17&#45;&gt;Node19</title>
<g id="a_edge46_Node000017_Node000019"><a xlink:title=" ">
<path fill="none" stroke="#63b8ff" d="M2654.75,-163.43C2580.68,-156.25 2482.37,-146.72 2414.41,-140.13"/>
<polygon fill="#63b8ff" stroke="#63b8ff" points="2654.16,-166.89 2664.45,-164.37 2654.83,-159.92 2654.16,-166.89"/>
</a>
</g>
</g>
<!-- Node25 -->
<g id="Node000025" class="node">
<title>Node25</title>
<g id="a_Node000025"><a xlink:href="classediteurpanovisu_1_1GestionnaireInterfaceController.html#adfe4c44c6a7320ef314eca16dc9afcb3" target="_top" xlink:title="pannel des niveaux de calque">
<polygon fill="white" stroke="#666666" points="2630.25,-60.44 2454.5,-60.44 2454.5,-28.44 2630.25,-28.44 2630.25,-60.44"/>
<text xml:space="preserve" text-anchor="start" x="2462.5" y="-46.94" font-family="Helvetica,sans-Serif" font-size="10.00">editeurpanovisu.Gestionnaire</text>
<text xml:space="preserve" text-anchor="middle" x="2542.38" y="-34.94" font-family="Helvetica,sans-Serif" font-size="10.00">InterfaceController.apAfficheCalques</text>
</a>
</g>
</g>
<!-- Node17&#45;&gt;Node25 -->
<g id="edge48_Node000017_Node000025" class="edge">
<title>Node17&#45;&gt;Node25</title>
<g id="a_edge48_Node000017_Node000025"><a xlink:title=" ">
<path fill="none" stroke="#63b8ff" d="M2725.67,-143.53C2701.02,-121.98 2665.42,-93.46 2630.25,-74.44 2620.71,-69.27 2610.1,-64.74 2599.68,-60.86"/>
<polygon fill="#63b8ff" stroke="#63b8ff" points="2723.3,-146.11 2733.1,-150.12 2727.94,-140.87 2723.3,-146.11"/>
</a>
</g>
</g>
<!-- Node18&#45;&gt;Node2 -->
<g id="edge32_Node000018_Node000002" class="edge">
<title>Node18&#45;&gt;Node2</title>
<g id="a_edge32_Node000018_Node000002"><a xlink:title=" ">
<path fill="none" stroke="#63b8ff" d="M2500.1,-232.93C2477.07,-247.53 2447.28,-264.32 2418.5,-274.44 2351.92,-297.85 2272.46,-309.41 2213.92,-315.07"/>
<polygon fill="#63b8ff" stroke="#63b8ff" points="2501.77,-236.02 2508.27,-227.66 2497.97,-230.14 2501.77,-236.02"/>
</a>
</g>
</g>
<!-- Node18&#45;&gt;Node16 -->
<g id="edge44_Node000018_Node000016" class="edge">
<title>Node18&#45;&gt;Node16</title>
<g id="a_edge44_Node000018_Node000016"><a xlink:title=" ">
<path fill="none" stroke="#63b8ff" d="M2455.26,-192.93C2397.1,-185.01 2318.61,-174.05 2249.5,-163.44 2233.47,-160.97 2229.56,-159.74 2213.5,-157.44 2141.59,-147.11 2059.35,-137.38 2000.86,-130.81"/>
<polygon fill="#63b8ff" stroke="#63b8ff" points="2454.74,-196.39 2465.12,-194.27 2455.68,-189.45 2454.74,-196.39"/>
</a>
</g>
</g>
<!-- Node18&#45;&gt;Node19 -->
<g id="edge31_Node000018_Node000019" class="edge">
<title>Node18&#45;&gt;Node19</title>
<g id="a_edge31_Node000018_Node000019"><a xlink:title=" ">
<path fill="none" stroke="#63b8ff" d="M2466.31,-178.25C2444.35,-170.59 2420.55,-162.28 2399.32,-154.87"/>
<polygon fill="#63b8ff" stroke="#63b8ff" points="2464.9,-181.46 2475.5,-181.45 2467.21,-174.85 2464.9,-181.46"/>
</a>
</g>
</g>
<!-- Node20 -->
<g id="Node000020" class="node">
<title>Node20</title>
<g id="a_Node000020"><a xlink:href="classediteurpanovisu_1_1GestionnaireInterfaceController.html#a5bdd1505c1ad1eee506c2618c9368994" target="_top" xlink:title=" ">
<polygon fill="white" stroke="#666666" points="2418.5,-242.44 2249.5,-242.44 2249.5,-210.44 2418.5,-210.44 2418.5,-242.44"/>
<text xml:space="preserve" text-anchor="start" x="2257.5" y="-228.94" font-family="Helvetica,sans-Serif" font-size="10.00">editeurpanovisu.Gestionnaire</text>
<text xml:space="preserve" text-anchor="middle" x="2334" y="-216.94" font-family="Helvetica,sans-Serif" font-size="10.00">InterfaceController.afficheVignettes</text>
</a>
</g>
</g>
<!-- Node18&#45;&gt;Node20 -->
<g id="edge33_Node000018_Node000020" class="edge">
<title>Node18&#45;&gt;Node20</title>
<g id="a_edge33_Node000018_Node000020"><a xlink:title=" ">
<path fill="none" stroke="#63b8ff" d="M2455.21,-213.62C2443.22,-214.9 2430.92,-216.21 2418.98,-217.48"/>
<polygon fill="#63b8ff" stroke="#63b8ff" points="2455.5,-217.11 2465.07,-212.57 2454.76,-210.15 2455.5,-217.11"/>
</a>
</g>
</g>
<!-- Node22 -->
<g id="Node000022" class="node">
<title>Node22</title>
<g id="a_Node000022"><a xlink:href="classediteurpanovisu_1_1GestionnaireInterfaceController.html#a568c34e865fb653f63b8fa7a9a9cafc8" target="_top" xlink:title=" ">
<polygon fill="white" stroke="#666666" points="2200.75,-286.44 2058.75,-286.44 2058.75,-254.44 2200.75,-254.44 2200.75,-286.44"/>
<text xml:space="preserve" text-anchor="start" x="2066.75" y="-272.94" font-family="Helvetica,sans-Serif" font-size="10.00">editeurpanovisu.Gestionnaire</text>
<text xml:space="preserve" text-anchor="middle" x="2129.75" y="-260.94" font-family="Helvetica,sans-Serif" font-size="10.00">InterfaceController.rafraichit</text>
</a>
</g>
</g>
<!-- Node18&#45;&gt;Node22 -->
<g id="edge45_Node000018_Node000022" class="edge">
<title>Node18&#45;&gt;Node22</title>
<g id="a_edge45_Node000018_Node000022"><a xlink:title=" ">
<path fill="none" stroke="#63b8ff" d="M2482.34,-231.12C2462.45,-239 2439.87,-246.76 2418.5,-251.44 2345.51,-267.42 2259.82,-271.23 2201.05,-271.62"/>
<polygon fill="#63b8ff" stroke="#63b8ff" points="2483.44,-234.45 2491.38,-227.45 2480.8,-227.97 2483.44,-234.45"/>
</a>
</g>
</g>
<!-- Node20&#45;&gt;Node2 -->
<g id="edge34_Node000020_Node000002" class="edge">
<title>Node20&#45;&gt;Node2</title>
<g id="a_edge34_Node000020_Node000002"><a xlink:title=" ">
<path fill="none" stroke="#63b8ff" d="M2299.26,-248.73C2275.9,-263.45 2243.7,-282.36 2213.5,-295.44 2206.34,-298.54 2198.67,-301.41 2191,-304.02"/>
<polygon fill="#63b8ff" stroke="#63b8ff" points="2300.87,-251.85 2307.42,-243.52 2297.11,-245.95 2300.87,-251.85"/>
</a>
</g>
</g>
<!-- Node20&#45;&gt;Node16 -->
<g id="edge37_Node000020_Node000016" class="edge">
<title>Node20&#45;&gt;Node16</title>
<g id="a_edge37_Node000020_Node000016"><a xlink:title=" ">
<path fill="none" stroke="#63b8ff" d="M2238.01,-234.64C2180.49,-236.13 2106.75,-231.73 2046,-207.44 2026.66,-199.7 2026.82,-189.72 2010,-177.44 1991.03,-163.59 1968.62,-149.4 1951.37,-138.9"/>
<polygon fill="#63b8ff" stroke="#63b8ff" points="2237.9,-238.15 2247.78,-234.32 2237.67,-231.15 2237.9,-238.15"/>
</a>
</g>
</g>
<!-- Node21 -->
<g id="Node000021" class="node">
<title>Node21</title>
<g id="a_Node000021"><a xlink:href="classediteurpanovisu_1_1GestionnaireInterfaceController.html#a8c634f775c31c1a4db22d5ef0659f7e4" target="_top" xlink:title=" ">
<polygon fill="white" stroke="#666666" points="2203.38,-198.44 2056.12,-198.44 2056.12,-166.44 2203.38,-166.44 2203.38,-198.44"/>
<text xml:space="preserve" text-anchor="start" x="2064.12" y="-184.94" font-family="Helvetica,sans-Serif" font-size="10.00">editeurpanovisu.Gestionnaire</text>
<text xml:space="preserve" text-anchor="middle" x="2129.75" y="-172.94" font-family="Helvetica,sans-Serif" font-size="10.00">InterfaceController.afficheTitre</text>
</a>
</g>
</g>
<!-- Node20&#45;&gt;Node21 -->
<g id="edge35_Node000020_Node000021" class="edge">
<title>Node20&#45;&gt;Node21</title>
<g id="a_edge35_Node000020_Node000021"><a xlink:title=" ">
<path fill="none" stroke="#63b8ff" d="M2246.55,-207.63C2232.23,-204.51 2217.51,-201.31 2203.57,-198.28"/>
<polygon fill="#63b8ff" stroke="#63b8ff" points="2245.41,-210.96 2255.92,-209.67 2246.9,-204.12 2245.41,-210.96"/>
</a>
</g>
</g>
<!-- Node20&#45;&gt;Node22 -->
<g id="edge38_Node000020_Node000022" class="edge">
<title>Node20&#45;&gt;Node22</title>
<g id="a_edge38_Node000020_Node000022"><a xlink:title=" ">
<path fill="none" stroke="#63b8ff" d="M2246.5,-245.25C2231.4,-248.54 2215.85,-251.92 2201.24,-255.1"/>
<polygon fill="#63b8ff" stroke="#63b8ff" points="2246.9,-248.75 2255.92,-243.2 2245.41,-241.91 2246.9,-248.75"/>
</a>
</g>
</g>
<!-- Node21&#45;&gt;Node16 -->
<g id="edge36_Node000021_Node000016" class="edge">
<title>Node21&#45;&gt;Node16</title>
<g id="a_edge36_Node000021_Node000016"><a xlink:title=" ">
<path fill="none" stroke="#63b8ff" d="M2061.67,-162.83C2035.17,-155.08 2005.06,-146.28 1979.73,-138.87"/>
<polygon fill="#63b8ff" stroke="#63b8ff" points="2060.36,-166.09 2070.94,-165.54 2062.32,-159.37 2060.36,-166.09"/>
</a>
</g>
</g>
<!-- Node22&#45;&gt;Node3 -->
<g id="edge39_Node000022_Node000003" class="edge">
<title>Node22&#45;&gt;Node3</title>
<g id="a_edge39_Node000022_Node000003"><a xlink:title=" ">
<path fill="none" stroke="#63b8ff" d="M2047.02,-280.39C2035,-281.86 2022.57,-283.37 2010.45,-284.85"/>
<polygon fill="#63b8ff" stroke="#63b8ff" points="2047.4,-283.87 2056.9,-279.19 2046.55,-276.92 2047.4,-283.87"/>
</a>
</g>
</g>
<!-- Node23 -->
<g id="Node000023" class="node">
<title>Node23</title>
<g id="a_Node000023"><a xlink:href="classediteurpanovisu_1_1EditeurPanovisu.html#a53cccf6a6b2693c872947460b66ae8ee" target="_top" xlink:title=" ">
<polygon fill="white" stroke="#666666" points="1348.5,-192.44 1173.5,-192.44 1173.5,-160.44 1348.5,-160.44 1348.5,-192.44"/>
<text xml:space="preserve" text-anchor="start" x="1181.5" y="-178.94" font-family="Helvetica,sans-Serif" font-size="10.00">editeurpanovisu.EditeurPanovisu.tsk</text>
<text xml:space="preserve" text-anchor="middle" x="1261" y="-166.94" font-family="Helvetica,sans-Serif" font-size="10.00">ChargeListeFichiers</text>
</a>
</g>
</g>
<!-- Node22&#45;&gt;Node23 -->
<g id="edge40_Node000022_Node000023" class="edge">
<title>Node22&#45;&gt;Node23</title>
<g id="a_edge40_Node000022_Node000023"><a xlink:title=" ">
<path fill="none" stroke="#63b8ff" d="M2047.13,-261.58C1883.45,-243.83 1516.48,-204.03 1348.69,-185.84"/>
<polygon fill="#63b8ff" stroke="#63b8ff" points="2046.73,-265.06 2057.05,-262.66 2047.49,-258.1 2046.73,-265.06"/>
</a>
</g>
</g>
<!-- Node23&#45;&gt;Node12 -->
<g id="edge43_Node000023_Node000012" class="edge">
<title>Node23&#45;&gt;Node12</title>
<g id="a_edge43_Node000023_Node000012"><a xlink:title=" ">
<path fill="none" stroke="#63b8ff" d="M1207.8,-197.12C1168.55,-212.66 1115.51,-233.68 1079.19,-248.07"/>
<polygon fill="#63b8ff" stroke="#63b8ff" points="1209.07,-200.38 1217.07,-193.44 1206.49,-193.87 1209.07,-200.38"/>
</a>
</g>
</g>
<!-- Node24 -->
<g id="Node000024" class="node">
<title>Node24</title>
<g id="a_Node000024"><a xlink:href="classediteurpanovisu_1_1EditeurPanovisu.html#a924d3ccff3e4f402d2309cd2eade3237" target="_top" xlink:title=" ">
<polygon fill="white" stroke="#666666" points="905.5,-192.44 683.25,-192.44 683.25,-160.44 905.5,-160.44 905.5,-192.44"/>
<text xml:space="preserve" text-anchor="start" x="691.25" y="-178.94" font-family="Helvetica,sans-Serif" font-size="10.00">editeurpanovisu.EditeurPanovisu.panoramiques</text>
<text xml:space="preserve" text-anchor="middle" x="794.38" y="-166.94" font-family="Helvetica,sans-Serif" font-size="10.00">Ajouter</text>
</a>
</g>
</g>
<!-- Node23&#45;&gt;Node24 -->
<g id="edge41_Node000023_Node000024" class="edge">
<title>Node23&#45;&gt;Node24</title>
<g id="a_edge41_Node000023_Node000024"><a xlink:title=" ">
<path fill="none" stroke="#63b8ff" d="M1161.83,-176.44C1086.83,-176.44 983.44,-176.44 905.6,-176.44"/>
<polygon fill="#63b8ff" stroke="#63b8ff" points="1161.64,-179.94 1171.64,-176.44 1161.64,-172.94 1161.64,-179.94"/>
</a>
</g>
</g>
<!-- Node24&#45;&gt;Node5 -->
<g id="edge42_Node000024_Node000005" class="edge">
<title>Node24&#45;&gt;Node5</title>
<g id="a_edge42_Node000024_Node000005"><a xlink:title=" ">
<path fill="none" stroke="#63b8ff" d="M671.47,-167.96C605.13,-168 523.24,-175.87 456.5,-206.44 394.69,-234.75 343.94,-303 326.17,-329.07"/>
<polygon fill="#63b8ff" stroke="#63b8ff" points="671.28,-171.45 681.3,-168.01 671.32,-164.45 671.28,-171.45"/>
</a>
</g>
</g>
<!-- Node25&#45;&gt;Node16 -->
<g id="edge49_Node000025_Node000016" class="edge">
<title>Node25&#45;&gt;Node16</title>
<g id="a_edge49_Node000025_Node000016"><a xlink:title=" ">
<path fill="none" stroke="#63b8ff" d="M2442.72,-38.73C2341.67,-35.31 2180.75,-36.63 2046,-68.44 2012.3,-76.39 1976.33,-93.38 1952.15,-106.19"/>
<polygon fill="#63b8ff" stroke="#63b8ff" points="2442.5,-42.22 2452.62,-39.09 2442.75,-35.23 2442.5,-42.22"/>
</a>
</g>
</g>
<!-- Node27 -->
<g id="Node000027" class="node">
<title>Node27</title>
<g id="a_Node000027"><a xlink:href="classediteurpanovisu_1_1EditeurPanovisu.html#aaee69ab54364f89b58458c744a4195c0" target="_top" xlink:title=" ">
<polygon fill="white" stroke="#666666" points="1577.5,-444.44 1389.75,-444.44 1389.75,-412.44 1577.5,-412.44 1577.5,-444.44"/>
<text xml:space="preserve" text-anchor="start" x="1397.75" y="-430.94" font-family="Helvetica,sans-Serif" font-size="10.00">editeurpanovisu.EditeurPanovisu.sauve</text>
<text xml:space="preserve" text-anchor="middle" x="1483.62" y="-418.94" font-family="Helvetica,sans-Serif" font-size="10.00">FichierProjet</text>
</a>
</g>
</g>
<!-- Node26&#45;&gt;Node27 -->
<g id="edge52_Node000026_Node000027" class="edge">
<title>Node26&#45;&gt;Node27</title>
<g id="a_edge52_Node000026_Node000027"><a xlink:title=" ">
<path fill="none" stroke="#63b8ff" d="M2664.45,-428.44C2578.74,-428.44 2448.33,-428.44 2335,-428.44 2335,-428.44 2335,-428.44 1921.5,-428.44 1802.99,-428.44 1666.4,-428.44 1577.94,-428.44"/>
<polygon fill="#63b8ff" stroke="#63b8ff" points="2664.21,-431.94 2674.21,-428.44 2664.21,-424.94 2664.21,-431.94"/>
</a>
</g>
</g>
<!-- Node27&#45;&gt;Node9 -->
<g id="edge53_Node000027_Node000009" class="edge">
<title>Node27&#45;&gt;Node9</title>
<g id="a_edge53_Node000027_Node000009"><a xlink:title=" ">
<path fill="none" stroke="#63b8ff" d="M1399.12,-409.51C1377.88,-404.7 1355.23,-399.57 1334.59,-394.89"/>
<polygon fill="#63b8ff" stroke="#63b8ff" points="1398.08,-412.86 1408.6,-411.66 1399.62,-406.04 1398.08,-412.86"/>
</a>
</g>
</g>
<!-- Node27&#45;&gt;Node15 -->
<g id="edge54_Node000027_Node000015" class="edge">
<title>Node27&#45;&gt;Node15</title>
<g id="a_edge54_Node000027_Node000015"><a xlink:title=" ">
<path fill="none" stroke="#63b8ff" d="M1378.13,-428.44C1370.14,-428.44 1362.11,-428.44 1354.21,-428.44"/>
<polygon fill="#63b8ff" stroke="#63b8ff" points="1377.87,-431.94 1387.87,-428.44 1377.87,-424.94 1377.87,-431.94"/>
</a>
</g>
</g>
</g>
</svg>

<g id="navigator" transform="translate(0 0)" fill="#404254">
  <rect fill="#f2f5e9" fill-opacity="0.5" stroke="#606060" stroke-width=".5" x="0" y="0" width="60" height="60"/>
  <use id="zoomplus" xlink:href="#zoomPlus" x="17" y="9" onmousedown="handleZoom(evt,'in')"/>
  <use id="zoomminus" xlink:href="#zoomMin" x="42" y="9" onmousedown="handleZoom(evt,'out')"/>
  <use id="reset" xlink:href="#resetDef" x="30" y="36" onmousedown="handleReset()"/>
   <use id="arrowup" xlink:href="#arrowUp" x="0" y="0" onmousedown="handlePan(0,-1)"/>
  <use id="arrowright" xlink:href="#arrowRight" x="0" y="0" onmousedown="handlePan(1,0)"/>
  <use id="arrowdown" xlink:href="#arrowDown" x="0" y="0" onmousedown="handlePan(0,1)"/>
  <use id="arrowleft" xlink:href="#arrowLeft" x="0" y="0" onmousedown="handlePan(-1,0)"/>
</g>
<svg viewBox="0 0 15 15" width="100%" height="30px" preserveAspectRatio="xMaxYMin meet">
 <g id="arrow_out" transform="scale(0.3 0.3)">
  <a xlink:href="classediteurpanovisu_1_1GestionnaireInterfaceController_aba4a79d6544bf312a6f3a329ad6e4233_icgraph_org.svg" target="_base">
   <rect id="button" ry="5" rx="5" y="6" x="6" height="38" width="38"
        fill="#f2f5e9" fill-opacity="0.5" stroke="#606060" stroke-width="1.0"/>
   <path id="arrow"
     d="M 11.500037,31.436501 C 11.940474,20.09759 22.043105,11.32322 32.158766,21.979434 L 37.068811,17.246167 C 37.068811,17.246167 37.088388,32 37.088388,32 L 22.160133,31.978069 C 22.160133,31.978069 26.997745,27.140456 26.997745,27.140456 C 18.528582,18.264221 13.291696,25.230495 11.500037,31.436501 z"
     style="fill:#404040;"/>
  </a>
 </g>
</svg>

<style type='text/css'>
<![CDATA[
[data-mouse-over-selected='false'] { opacity: 0.7; }
[data-mouse-over-selected='true']  { opacity: 1.0; }
]]>
</style>
<script type="application/ecmascript"><![CDATA[
document.addEventListener('DOMContentLoaded', (event) => {
  highlightEdges();
  highlightAdjacentNodes();
});
]]></script>
</svg>
