<?xml version="1.0" encoding="UTF-8" standalone="no"?>
<!DOCTYPE svg PUBLIC "-//W3C//DTD SVG 1.1//EN"
 "http://www.w3.org/Graphics/SVG/1.1/DTD/svg11.dtd">
<!-- Generated by graphviz version 13.1.2 (20250808.2320)
 -->
<!-- Title: editeurpanovisu.GestionnairePlanController.retireAffichageHotSpots Pages: 1 -->
<svg width="3566pt" height="418pt"
 viewBox="0.00 0.00 3566.00 418.00" xmlns="http://www.w3.org/2000/svg" xmlns:xlink="http://www.w3.org/1999/xlink">
<g id="graph0" class="graph" transform="scale(1 1) rotate(0) translate(4 414)">
<title>editeurpanovisu.GestionnairePlanController.retireAffichageHotSpots</title>
<!-- Node1 -->
<g id="Node000001" class="node">
<title>Node1</title>
<g id="a_Node000001"><a xlink:title=" ">
<polygon fill="#999999" stroke="#666666" points="3557.75,-141 3373.75,-141 3373.75,-109 3557.75,-109 3557.75,-141"/>
<text xml:space="preserve" text-anchor="start" x="3381.75" y="-127.5" font-family="Helvetica,sans-Serif" font-size="10.00">editeurpanovisu.Gestionnaire</text>
<text xml:space="preserve" text-anchor="middle" x="3465.75" y="-115.5" font-family="Helvetica,sans-Serif" font-size="10.00">PlanController.retireAffichageHotSpots</text>
</a>
</g>
</g>
<!-- Node2 -->
<g id="Node000002" class="node">
<title>Node2</title>
<g id="a_Node000002"><a xlink:href="classediteurpanovisu_1_1GestionnairePlanController.html#ad4f72bd693b5b3bd93bee89bda000990" target="_top" xlink:title=" ">
<polygon fill="white" stroke="#666666" points="3337.75,-141 3195.75,-141 3195.75,-109 3337.75,-109 3337.75,-141"/>
<text xml:space="preserve" text-anchor="start" x="3203.75" y="-127.5" font-family="Helvetica,sans-Serif" font-size="10.00">editeurpanovisu.Gestionnaire</text>
<text xml:space="preserve" text-anchor="middle" x="3266.75" y="-115.5" font-family="Helvetica,sans-Serif" font-size="10.00">PlanController.affichageHS</text>
</a>
</g>
</g>
<!-- Node1&#45;&gt;Node2 -->
<g id="edge1_Node000001_Node000002" class="edge">
<title>Node1&#45;&gt;Node2</title>
<g id="a_edge1_Node000001_Node000002"><a xlink:title=" ">
<path fill="none" stroke="#63b8ff" d="M3362.03,-125C3353.94,-125 3345.89,-125 3338.1,-125"/>
<polygon fill="#63b8ff" stroke="#63b8ff" points="3361.95,-128.5 3371.95,-125 3361.95,-121.5 3361.95,-128.5"/>
</a>
</g>
</g>
<!-- Node4 -->
<g id="Node000004" class="node">
<title>Node4</title>
<g id="a_Node000004"><a xlink:href="classediteurpanovisu_1_1GestionnairePlanController.html#a2e6f0187e7151e006c001659da532c6e" target="_top" xlink:title=" ">
<polygon fill="white" stroke="#666666" points="2738.5,-139 2596.5,-139 2596.5,-107 2738.5,-107 2738.5,-139"/>
<text xml:space="preserve" text-anchor="start" x="2604.5" y="-125.5" font-family="Helvetica,sans-Serif" font-size="10.00">editeurpanovisu.Gestionnaire</text>
<text xml:space="preserve" text-anchor="middle" x="2667.5" y="-113.5" font-family="Helvetica,sans-Serif" font-size="10.00">PlanController.afficheHS</text>
</a>
</g>
</g>
<!-- Node1&#45;&gt;Node4 -->
<g id="edge46_Node000001_Node000004" class="edge">
<title>Node1&#45;&gt;Node4</title>
<g id="a_edge46_Node000001_Node000004"><a xlink:title=" ">
<path fill="none" stroke="#63b8ff" d="M3382.67,-106.43C3367.79,-103.75 3352.36,-101.42 3337.75,-100 3119.93,-78.76 2860.57,-101.2 2738.54,-114.56"/>
<polygon fill="#63b8ff" stroke="#63b8ff" points="3381.95,-109.85 3392.42,-108.25 3383.24,-102.97 3381.95,-109.85"/>
</a>
</g>
</g>
<!-- Node6 -->
<g id="Node000006" class="node">
<title>Node6</title>
<g id="a_Node000006"><a xlink:href="classediteurpanovisu_1_1GestionnairePlanController.html#a0c00558611ee42fef942f5a53081d888" target="_top" xlink:title=" ">
<polygon fill="white" stroke="#666666" points="2345.75,-117 2203.75,-117 2203.75,-85 2345.75,-85 2345.75,-117"/>
<text xml:space="preserve" text-anchor="start" x="2211.75" y="-103.5" font-family="Helvetica,sans-Serif" font-size="10.00">editeurpanovisu.Gestionnaire</text>
<text xml:space="preserve" text-anchor="middle" x="2274.75" y="-91.5" font-family="Helvetica,sans-Serif" font-size="10.00">PlanController.afficherPlan</text>
</a>
</g>
</g>
<!-- Node1&#45;&gt;Node6 -->
<g id="edge48_Node000001_Node000006" class="edge">
<title>Node1&#45;&gt;Node6</title>
<g id="a_edge48_Node000001_Node000006"><a xlink:title=" ">
<path fill="none" stroke="#63b8ff" d="M3424.67,-103.42C3354.41,-67.65 3203.49,0 3067.25,0 3067.25,0 3067.25,0 2666.5,0 2533.02,0 2381.82,-55.93 2313.19,-84.55"/>
<polygon fill="#63b8ff" stroke="#63b8ff" points="3423,-106.49 3433.5,-107.96 3426.21,-100.27 3423,-106.49"/>
</a>
</g>
</g>
<!-- Node24 -->
<g id="Node000024" class="node">
<title>Node24</title>
<g id="a_Node000024"><a xlink:href="classediteurpanovisu_1_1GestionnairePlanController.html#a375ef7ea66bf40c2ad7d973e1a40c065" target="_top" xlink:title=" ">
<polygon fill="white" stroke="#666666" points="2936.75,-224 2776,-224 2776,-180 2936.75,-180 2936.75,-224"/>
<text xml:space="preserve" text-anchor="start" x="2784" y="-210.5" font-family="Helvetica,sans-Serif" font-size="10.00">editeurpanovisu.Gestionnaire</text>
<text xml:space="preserve" text-anchor="start" x="2784" y="-198.5" font-family="Helvetica,sans-Serif" font-size="10.00">PlanController.afficherListePanos</text>
<text xml:space="preserve" text-anchor="middle" x="2856.38" y="-186.5" font-family="Helvetica,sans-Serif" font-size="10.00">Vignettes</text>
</a>
</g>
</g>
<!-- Node1&#45;&gt;Node24 -->
<g id="edge47_Node000001_Node000024" class="edge">
<title>Node1&#45;&gt;Node24</title>
<g id="a_edge47_Node000001_Node000024"><a xlink:title=" ">
<path fill="none" stroke="#63b8ff" d="M3375.62,-143.56C3362.94,-145.9 3350.04,-148.13 3337.75,-150 3197.39,-171.37 3032.65,-187.21 2937.12,-195.5"/>
<polygon fill="#63b8ff" stroke="#63b8ff" points="3376.02,-147.04 3385.2,-141.75 3374.73,-140.16 3376.02,-147.04"/>
</a>
</g>
</g>
<!-- Node25 -->
<g id="Node000025" class="node">
<title>Node25</title>
<g id="a_Node000025"><a xlink:href="classediteurpanovisu_1_1GestionnairePlanController.html#af59de56896ae00bb1d75f97b68e565a3" target="_top" xlink:title=" ">
<polygon fill="white" stroke="#666666" points="2740,-211 2595,-211 2595,-179 2740,-179 2740,-211"/>
<text xml:space="preserve" text-anchor="start" x="2603" y="-197.5" font-family="Helvetica,sans-Serif" font-size="10.00">editeurpanovisu.Gestionnaire</text>
<text xml:space="preserve" text-anchor="middle" x="2667.5" y="-185.5" font-family="Helvetica,sans-Serif" font-size="10.00">PlanController.planMouseClic</text>
</a>
</g>
</g>
<!-- Node1&#45;&gt;Node25 -->
<g id="edge49_Node000001_Node000025" class="edge">
<title>Node1&#45;&gt;Node25</title>
<g id="a_edge49_Node000001_Node000025"><a xlink:title=" ">
<path fill="none" stroke="#63b8ff" d="M3417.25,-145.71C3393.72,-155.25 3364.65,-165.99 3337.75,-173 3163.37,-218.45 3116.46,-219.63 2936.75,-233 2865.5,-238.3 2846.42,-245.08 2776,-233 2751.61,-228.82 2725.41,-219.66 2704.98,-211.38"/>
<polygon fill="#63b8ff" stroke="#63b8ff" points="3418.33,-149.05 3426.24,-142 3415.66,-142.57 3418.33,-149.05"/>
</a>
</g>
</g>
<!-- Node3 -->
<g id="Node000003" class="node">
<title>Node3</title>
<g id="a_Node000003"><a xlink:href="classediteurpanovisu_1_1GestionnairePlanController.html#ac6a814832aad8390d7157032c3f7f107" target="_top" xlink:title=" ">
<polygon fill="white" stroke="#666666" points="3159.75,-141 2972.75,-141 2972.75,-109 3159.75,-109 3159.75,-141"/>
<text xml:space="preserve" text-anchor="start" x="2980.75" y="-127.5" font-family="Helvetica,sans-Serif" font-size="10.00">editeurpanovisu.Gestionnaire</text>
<text xml:space="preserve" text-anchor="middle" x="3066.25" y="-115.5" font-family="Helvetica,sans-Serif" font-size="10.00">PlanController.ajouteAffichageHotspots</text>
</a>
</g>
</g>
<!-- Node2&#45;&gt;Node3 -->
<g id="edge2_Node000002_Node000003" class="edge">
<title>Node2&#45;&gt;Node3</title>
<g id="a_edge2_Node000002_Node000003"><a xlink:title=" ">
<path fill="none" stroke="#63b8ff" d="M3184.02,-118.34C3176.1,-118.26 3168.03,-118.23 3160.01,-118.26"/>
<polygon fill="#63b8ff" stroke="#63b8ff" points="3183.92,-121.84 3193.97,-118.49 3184.03,-114.84 3183.92,-121.84"/>
</a>
</g>
</g>
<!-- Node3&#45;&gt;Node2 -->
<g id="edge3_Node000003_Node000002" class="edge">
<title>Node3&#45;&gt;Node2</title>
<g id="a_edge3_Node000003_Node000002"><a xlink:title=" ">
<path fill="none" stroke="#63b8ff" d="M3171.49,-131.74C3179.61,-131.72 3187.68,-131.63 3195.49,-131.49"/>
<polygon fill="#63b8ff" stroke="#63b8ff" points="3171.53,-128.24 3161.53,-131.74 3171.53,-135.24 3171.53,-128.24"/>
</a>
</g>
</g>
<!-- Node3&#45;&gt;Node4 -->
<g id="edge4_Node000003_Node000004" class="edge">
<title>Node3&#45;&gt;Node4</title>
<g id="a_edge4_Node000003_Node000004"><a xlink:title=" ">
<path fill="none" stroke="#63b8ff" d="M2960.97,-124.47C2890.86,-124.12 2800.35,-123.66 2738.71,-123.35"/>
<polygon fill="#63b8ff" stroke="#63b8ff" points="2960.95,-127.97 2970.97,-124.52 2960.98,-120.97 2960.95,-127.97"/>
</a>
</g>
</g>
<!-- Node3&#45;&gt;Node6 -->
<g id="edge44_Node000003_Node000006" class="edge">
<title>Node3&#45;&gt;Node6</title>
<g id="a_edge44_Node000003_Node000006"><a xlink:title=" ">
<path fill="none" stroke="#63b8ff" d="M2961.21,-114.6C2897.43,-108.66 2814.07,-101.68 2740,-98 2581.97,-90.14 2542.17,-90.62 2384,-95 2371.77,-95.34 2358.77,-95.89 2346.18,-96.53"/>
<polygon fill="#63b8ff" stroke="#63b8ff" points="2960.69,-118.06 2970.97,-115.51 2961.34,-111.09 2960.69,-118.06"/>
</a>
</g>
</g>
<!-- Node3&#45;&gt;Node24 -->
<g id="edge39_Node000003_Node000024" class="edge">
<title>Node3&#45;&gt;Node24</title>
<g id="a_edge39_Node000003_Node000024"><a xlink:title=" ">
<path fill="none" stroke="#63b8ff" d="M3010.34,-145.34C2981.87,-155.88 2947.04,-168.79 2917.81,-179.61"/>
<polygon fill="#63b8ff" stroke="#63b8ff" points="3011.33,-148.71 3019.49,-141.95 3008.9,-142.14 3011.33,-148.71"/>
</a>
</g>
</g>
<!-- Node3&#45;&gt;Node25 -->
<g id="edge45_Node000003_Node000025" class="edge">
<title>Node3&#45;&gt;Node25</title>
<g id="a_edge45_Node000003_Node000025"><a xlink:title=" ">
<path fill="none" stroke="#63b8ff" d="M2961.3,-139.94C2906.11,-148.27 2837.21,-159.31 2776,-171 2764.07,-173.28 2751.45,-175.9 2739.21,-178.56"/>
<polygon fill="#63b8ff" stroke="#63b8ff" points="2961.64,-143.43 2971.01,-138.48 2960.6,-136.5 2961.64,-143.43"/>
</a>
</g>
</g>
<!-- Node5 -->
<g id="Node000005" class="node">
<title>Node5</title>
<g id="a_Node000005"><a xlink:href="classediteurpanovisu_1_1GestionnairePlanController.html#a6ca25de825e710388268b0a3ced9d868" target="_top" xlink:title=" ">
<polygon fill="white" stroke="#666666" points="2559,-148 2384,-148 2384,-104 2559,-104 2559,-148"/>
<text xml:space="preserve" text-anchor="start" x="2392" y="-134.5" font-family="Helvetica,sans-Serif" font-size="10.00">editeurpanovisu.Gestionnaire</text>
<text xml:space="preserve" text-anchor="start" x="2392" y="-122.5" font-family="Helvetica,sans-Serif" font-size="10.00">PlanController.ajouteAffichagePoints</text>
<text xml:space="preserve" text-anchor="middle" x="2471.5" y="-110.5" font-family="Helvetica,sans-Serif" font-size="10.00">Hotspots</text>
</a>
</g>
</g>
<!-- Node4&#45;&gt;Node5 -->
<g id="edge5_Node000004_Node000005" class="edge">
<title>Node4&#45;&gt;Node5</title>
<g id="a_edge5_Node000004_Node000005"><a xlink:title=" ">
<path fill="none" stroke="#63b8ff" d="M2584.86,-124.26C2576.46,-124.39 2567.91,-124.52 2559.45,-124.66"/>
<polygon fill="#63b8ff" stroke="#63b8ff" points="2584.73,-127.77 2594.67,-124.11 2584.62,-120.77 2584.73,-127.77"/>
</a>
</g>
</g>
<!-- Node5&#45;&gt;Node6 -->
<g id="edge6_Node000005_Node000006" class="edge">
<title>Node5&#45;&gt;Node6</title>
<g id="a_edge6_Node000005_Node000006"><a xlink:title=" ">
<path fill="none" stroke="#63b8ff" d="M2372.42,-113.41C2363.53,-112.27 2354.65,-111.13 2346.07,-110.03"/>
<polygon fill="#63b8ff" stroke="#63b8ff" points="2371.8,-116.86 2382.16,-114.66 2372.69,-109.92 2371.8,-116.86"/>
</a>
</g>
</g>
<!-- Node7 -->
<g id="Node000007" class="node">
<title>Node7</title>
<g id="a_Node000007"><a xlink:href="classediteurpanovisu_1_1GestionnairePlanController.html#a28463a3559d99394ecb23f3c74d14835" target="_top" xlink:title=" ">
<polygon fill="white" stroke="#666666" points="2158.38,-324 2016.38,-324 2016.38,-292 2158.38,-292 2158.38,-324"/>
<text xml:space="preserve" text-anchor="start" x="2024.38" y="-310.5" font-family="Helvetica,sans-Serif" font-size="10.00">editeurpanovisu.Gestionnaire</text>
<text xml:space="preserve" text-anchor="middle" x="2087.38" y="-298.5" font-family="Helvetica,sans-Serif" font-size="10.00">PlanController.ajouterPlan</text>
</a>
</g>
</g>
<!-- Node6&#45;&gt;Node7 -->
<g id="edge7_Node000006_Node000007" class="edge">
<title>Node6&#45;&gt;Node7</title>
<g id="a_edge7_Node000006_Node000007"><a xlink:title=" ">
<path fill="none" stroke="#63b8ff" d="M2222.83,-122.85C2215.25,-127.27 2207.86,-132.32 2201.5,-138 2149.78,-184.14 2111.08,-258.95 2095.68,-291.73"/>
<polygon fill="#63b8ff" stroke="#63b8ff" points="2224.38,-125.99 2231.49,-118.14 2221.04,-119.84 2224.38,-125.99"/>
</a>
</g>
</g>
<!-- Node22 -->
<g id="Node000022" class="node">
<title>Node22</title>
<g id="a_Node000022"><a xlink:href="classediteurpanovisu_1_1GestionnairePlanController.html#a5cee5137d1f749e8a23a38ecb3bf38cb" target="_top" xlink:title=" ">
<polygon fill="white" stroke="#666666" points="1956.75,-104 1814.75,-104 1814.75,-72 1956.75,-72 1956.75,-104"/>
<text xml:space="preserve" text-anchor="start" x="1822.75" y="-90.5" font-family="Helvetica,sans-Serif" font-size="10.00">editeurpanovisu.Gestionnaire</text>
<text xml:space="preserve" text-anchor="middle" x="1885.75" y="-78.5" font-family="Helvetica,sans-Serif" font-size="10.00">PlanController.creeInterface</text>
</a>
</g>
</g>
<!-- Node6&#45;&gt;Node22 -->
<g id="edge35_Node000006_Node000022" class="edge">
<title>Node6&#45;&gt;Node22</title>
<g id="a_edge35_Node000006_Node000022"><a xlink:title=" ">
<path fill="none" stroke="#63b8ff" d="M2192.31,-98.26C2122.58,-95.92 2023.24,-92.58 1956.96,-90.36"/>
<polygon fill="#63b8ff" stroke="#63b8ff" points="2192.04,-101.76 2202.15,-98.59 2192.28,-94.76 2192.04,-101.76"/>
</a>
</g>
</g>
<!-- Node23 -->
<g id="Node000023" class="node">
<title>Node23</title>
<g id="a_Node000023"><a xlink:href="classediteurpanovisu_1_1GestionnairePlanController.html#a06b6b5ee31b551123cfa45faa50b52b9" target="_top" xlink:title=" ">
<polygon fill="white" stroke="#666666" points="2165.5,-82 2009.25,-82 2009.25,-50 2165.5,-50 2165.5,-82"/>
<text xml:space="preserve" text-anchor="start" x="2017.25" y="-68.5" font-family="Helvetica,sans-Serif" font-size="10.00">editeurpanovisu.Gestionnaire</text>
<text xml:space="preserve" text-anchor="middle" x="2087.38" y="-56.5" font-family="Helvetica,sans-Serif" font-size="10.00">PlanController.retirePlanCourant</text>
</a>
</g>
</g>
<!-- Node6&#45;&gt;Node23 -->
<g id="edge37_Node000006_Node000023" class="edge">
<title>Node6&#45;&gt;Node23</title>
<g id="a_edge37_Node000006_Node000023"><a xlink:title=" ">
<path fill="none" stroke="#63b8ff" d="M2192.33,-85.63C2183.52,-83.96 2174.56,-82.27 2165.8,-80.62"/>
<polygon fill="#63b8ff" stroke="#63b8ff" points="2191.44,-89.02 2201.92,-87.44 2192.74,-82.14 2191.44,-89.02"/>
</a>
</g>
</g>
<!-- Node8 -->
<g id="Node000008" class="node">
<title>Node8</title>
<g id="a_Node000008"><a xlink:href="classediteurpanovisu_1_1EditeurPanovisu.html#af504270c500842e35c1a37bf1e6d3e8d" target="_top" xlink:title=" ">
<polygon fill="white" stroke="#666666" points="1759.25,-410 1579.75,-410 1579.75,-378 1759.25,-378 1759.25,-410"/>
<text xml:space="preserve" text-anchor="start" x="1587.75" y="-396.5" font-family="Helvetica,sans-Serif" font-size="10.00">editeurpanovisu.EditeurPanovisu.plan</text>
<text xml:space="preserve" text-anchor="middle" x="1669.5" y="-384.5" font-family="Helvetica,sans-Serif" font-size="10.00">Ajouter</text>
</a>
</g>
</g>
<!-- Node7&#45;&gt;Node8 -->
<g id="edge8_Node000007_Node000008" class="edge">
<title>Node7&#45;&gt;Node8</title>
<g id="a_edge8_Node000007_Node000008"><a xlink:title=" ">
<path fill="none" stroke="#63b8ff" d="M2005.05,-326.16C1994.36,-328.49 1983.55,-330.83 1973.25,-333 1899.41,-348.6 1815.25,-365.48 1754.44,-377.52"/>
<polygon fill="#63b8ff" stroke="#63b8ff" points="2005.62,-329.62 2014.64,-324.06 2004.12,-322.78 2005.62,-329.62"/>
</a>
</g>
</g>
<!-- Node11 -->
<g id="Node000011" class="node">
<title>Node11</title>
<g id="a_Node000011"><a xlink:href="classediteurpanovisu_1_1EditeurPanovisu.html#a87b29dc258cfc67370b1f27809e91b8e" target="_top" xlink:title=" ">
<polygon fill="white" stroke="#666666" points="1973.25,-324 1798.25,-324 1798.25,-292 1973.25,-292 1973.25,-324"/>
<text xml:space="preserve" text-anchor="start" x="1806.25" y="-310.5" font-family="Helvetica,sans-Serif" font-size="10.00">editeurpanovisu.EditeurPanovisu.tsk</text>
<text xml:space="preserve" text-anchor="middle" x="1885.75" y="-298.5" font-family="Helvetica,sans-Serif" font-size="10.00">AnalyseFichierPVU</text>
</a>
</g>
</g>
<!-- Node7&#45;&gt;Node11 -->
<g id="edge11_Node000007_Node000011" class="edge">
<title>Node7&#45;&gt;Node11</title>
<g id="a_edge11_Node000007_Node000011"><a xlink:title=" ">
<path fill="none" stroke="#63b8ff" d="M2004.6,-308C1994.39,-308 1983.92,-308 1973.64,-308"/>
<polygon fill="#63b8ff" stroke="#63b8ff" points="2004.48,-311.5 2014.48,-308 2004.48,-304.5 2004.48,-311.5"/>
</a>
</g>
</g>
<!-- Node9 -->
<g id="Node000009" class="node">
<title>Node9</title>
<g id="a_Node000009"><a xlink:href="classediteurpanovisu_1_1EditeurPanovisu.html#ac912b80c1f2ac97def60ff005c5c480b" target="_top" xlink:title=" ">
<polygon fill="white" stroke="#666666" points="420.5,-206 216.25,-206 216.25,-186 420.5,-186 420.5,-206"/>
<text xml:space="preserve" text-anchor="middle" x="318.38" y="-192.5" font-family="Helvetica,sans-Serif" font-size="10.00">editeurpanovisu.EditeurPanovisu.creeMenu</text>
</a>
</g>
</g>
<!-- Node8&#45;&gt;Node9 -->
<g id="edge9_Node000008_Node000009" class="edge">
<title>Node8&#45;&gt;Node9</title>
<g id="a_edge9_Node000008_Node000009"><a xlink:title=" ">
<path fill="none" stroke="#63b8ff" d="M1568.08,-394C1478.24,-394 1342.96,-394 1225.25,-394 1225.25,-394 1225.25,-394 775,-394 629.57,-394 585.41,-386.31 456.5,-319 399.52,-289.25 347.48,-230.39 327.75,-206.47"/>
<polygon fill="#63b8ff" stroke="#63b8ff" points="1567.84,-397.5 1577.84,-394 1567.84,-390.5 1567.84,-397.5"/>
</a>
</g>
</g>
<!-- Node10 -->
<g id="Node000010" class="node">
<title>Node10</title>
<g id="a_Node000010"><a xlink:href="classediteurpanovisu_1_1EditeurPanovisu.html#a86c393eee88f54c694db994ddd85b90d" target="_top" xlink:title=" ">
<polygon fill="white" stroke="#666666" points="180.25,-212 0,-212 0,-180 180.25,-180 180.25,-212"/>
<text xml:space="preserve" text-anchor="start" x="8" y="-198.5" font-family="Helvetica,sans-Serif" font-size="10.00">editeurpanovisu.EditeurPanovisu.cree</text>
<text xml:space="preserve" text-anchor="middle" x="90.12" y="-186.5" font-family="Helvetica,sans-Serif" font-size="10.00">Environnement</text>
</a>
</g>
</g>
<!-- Node9&#45;&gt;Node10 -->
<g id="edge10_Node000009_Node000010" class="edge">
<title>Node9&#45;&gt;Node10</title>
<g id="a_edge10_Node000009_Node000010"><a xlink:title=" ">
<path fill="none" stroke="#63b8ff" d="M204.51,-196C196.49,-196 188.46,-196 180.6,-196"/>
<polygon fill="#63b8ff" stroke="#63b8ff" points="204.32,-199.5 214.32,-196 204.32,-192.5 204.32,-199.5"/>
</a>
</g>
</g>
<!-- Node12 -->
<g id="Node000012" class="node">
<title>Node12</title>
<g id="a_Node000012"><a xlink:href="classediteurpanovisu_1_1EditeurPanovisu.html#ab4beb1597b660a4a253befc6e76f1c54" target="_top" xlink:title=" ">
<polygon fill="white" stroke="#666666" points="1092.88,-328 907.38,-328 907.38,-296 1092.88,-296 1092.88,-328"/>
<text xml:space="preserve" text-anchor="start" x="915.38" y="-314.5" font-family="Helvetica,sans-Serif" font-size="10.00">editeurpanovisu.EditeurPanovisu.projet</text>
<text xml:space="preserve" text-anchor="middle" x="1000.12" y="-302.5" font-family="Helvetica,sans-Serif" font-size="10.00">Charge</text>
</a>
</g>
</g>
<!-- Node11&#45;&gt;Node12 -->
<g id="edge12_Node000011_Node000012" class="edge">
<title>Node11&#45;&gt;Node12</title>
<g id="a_edge12_Node000011_Node000012"><a xlink:title=" ">
<path fill="none" stroke="#63b8ff" d="M1786.7,-308.44C1614.73,-309.22 1261.08,-310.82 1093.33,-311.58"/>
<polygon fill="#63b8ff" stroke="#63b8ff" points="1786.51,-311.94 1796.5,-308.4 1786.48,-304.94 1786.51,-311.94"/>
</a>
</g>
</g>
<!-- Node13 -->
<g id="Node000013" class="node">
<title>Node13</title>
<g id="a_Node000013"><a xlink:href="classediteurpanovisu_1_1EditeurPanovisu.html#a6d19b4d885ee6fcec827b91956295732" target="_top" xlink:title=" ">
<polygon fill="white" stroke="#666666" points="1762.25,-283 1576.75,-283 1576.75,-251 1762.25,-251 1762.25,-283"/>
<text xml:space="preserve" text-anchor="start" x="1584.75" y="-269.5" font-family="Helvetica,sans-Serif" font-size="10.00">editeurpanovisu.EditeurPanovisu.projet</text>
<text xml:space="preserve" text-anchor="middle" x="1669.5" y="-257.5" font-family="Helvetica,sans-Serif" font-size="10.00">ChargeNom</text>
</a>
</g>
</g>
<!-- Node11&#45;&gt;Node13 -->
<g id="edge14_Node000011_Node000013" class="edge">
<title>Node11&#45;&gt;Node13</title>
<g id="a_edge14_Node000011_Node000013"><a xlink:title=" ">
<path fill="none" stroke="#63b8ff" d="M1787.42,-289.37C1777.12,-287.4 1766.7,-285.41 1756.54,-283.47"/>
<polygon fill="#63b8ff" stroke="#63b8ff" points="1786.57,-292.77 1797.05,-291.22 1787.88,-285.9 1786.57,-292.77"/>
</a>
</g>
</g>
<!-- Node12&#45;&gt;Node9 -->
<g id="edge13_Node000012_Node000009" class="edge">
<title>Node12&#45;&gt;Node9</title>
<g id="a_edge13_Node000012_Node000009"><a xlink:title=" ">
<path fill="none" stroke="#63b8ff" d="M895.52,-300.18C785.88,-286.86 608.11,-262.98 456.5,-232 421.65,-224.88 382.46,-214.33 354.92,-206.49"/>
<polygon fill="#63b8ff" stroke="#63b8ff" points="895.05,-303.65 905.39,-301.37 895.89,-296.7 895.05,-303.65"/>
</a>
</g>
</g>
<!-- Node13&#45;&gt;Node9 -->
<g id="edge34_Node000013_Node000009" class="edge">
<title>Node13&#45;&gt;Node9</title>
<g id="a_edge34_Node000013_Node000009"><a xlink:title=" ">
<path fill="none" stroke="#63b8ff" d="M1645.49,-242.29C1583.93,-179 1407.69,-16 1225.25,-16 1225.25,-16 1225.25,-16 775,-16 632.44,-16 584.19,9.39 456.5,-54 392.96,-85.55 342.52,-158.92 325.54,-185.85"/>
<polygon fill="#63b8ff" stroke="#63b8ff" points="1642.91,-244.65 1652.36,-249.44 1647.96,-239.8 1642.91,-244.65"/>
</a>
</g>
</g>
<!-- Node14 -->
<g id="Node000014" class="node">
<title>Node14</title>
<g id="a_Node000014"><a xlink:href="classediteurpanovisu_1_1EditeurPanovisu.html#af0d1c32bb78acbff561c822a0d15f760" target="_top" xlink:title=" ">
<polygon fill="white" stroke="#666666" points="1540.75,-283 1353,-283 1353,-251 1540.75,-251 1540.75,-283"/>
<text xml:space="preserve" text-anchor="start" x="1361" y="-269.5" font-family="Helvetica,sans-Serif" font-size="10.00">editeurpanovisu.EditeurPanovisu.ajoute</text>
<text xml:space="preserve" text-anchor="middle" x="1446.88" y="-257.5" font-family="Helvetica,sans-Serif" font-size="10.00">FichierHisto</text>
</a>
</g>
</g>
<!-- Node13&#45;&gt;Node14 -->
<g id="edge15_Node000013_Node000014" class="edge">
<title>Node13&#45;&gt;Node14</title>
<g id="a_edge15_Node000013_Node000014"><a xlink:title=" ">
<path fill="none" stroke="#63b8ff" d="M1565.22,-260.26C1557.17,-260.23 1549.08,-260.25 1541.11,-260.32"/>
<polygon fill="#63b8ff" stroke="#63b8ff" points="1565,-263.76 1575.02,-260.32 1565.04,-256.76 1565,-263.76"/>
</a>
</g>
</g>
<!-- Node14&#45;&gt;Node12 -->
<g id="edge16_Node000014_Node000012" class="edge">
<title>Node14&#45;&gt;Node12</title>
<g id="a_edge16_Node000014_Node000012"><a xlink:title=" ">
<path fill="none" stroke="#63b8ff" d="M1341.44,-277.07C1280.25,-283.03 1201.48,-290.79 1131.5,-298 1119.16,-299.27 1106.16,-300.64 1093.35,-302"/>
<polygon fill="#63b8ff" stroke="#63b8ff" points="1341.54,-280.58 1351.15,-276.12 1340.86,-273.61 1341.54,-280.58"/>
</a>
</g>
</g>
<!-- Node14&#45;&gt;Node13 -->
<g id="edge17_Node000014_Node000013" class="edge">
<title>Node14&#45;&gt;Node13</title>
<g id="a_edge17_Node000014_Node000013"><a xlink:title=" ">
<path fill="none" stroke="#63b8ff" d="M1552.44,-273.74C1560.49,-273.76 1568.58,-273.74 1576.53,-273.67"/>
<polygon fill="#63b8ff" stroke="#63b8ff" points="1552.65,-270.24 1542.63,-273.69 1552.61,-277.24 1552.65,-270.24"/>
</a>
</g>
</g>
<!-- Node15 -->
<g id="Node000015" class="node">
<title>Node15</title>
<g id="a_Node000015"><a xlink:href="classediteurpanovisu_1_1EditeurPanovisu.html#a9f3ea25b35d4884524508dab3dc4fd6a" target="_top" xlink:title=" ">
<polygon fill="white" stroke="#666666" points="1317,-234 1131.5,-234 1131.5,-202 1317,-202 1317,-234"/>
<text xml:space="preserve" text-anchor="start" x="1139.5" y="-220.5" font-family="Helvetica,sans-Serif" font-size="10.00">editeurpanovisu.EditeurPanovisu.projet</text>
<text xml:space="preserve" text-anchor="middle" x="1224.25" y="-208.5" font-family="Helvetica,sans-Serif" font-size="10.00">Sauve</text>
</a>
</g>
</g>
<!-- Node14&#45;&gt;Node15 -->
<g id="edge18_Node000014_Node000015" class="edge">
<title>Node14&#45;&gt;Node15</title>
<g id="a_edge18_Node000014_Node000015"><a xlink:title=" ">
<path fill="none" stroke="#63b8ff" d="M1360.72,-248.09C1340.54,-243.6 1319.17,-238.86 1299.51,-234.49"/>
<polygon fill="#63b8ff" stroke="#63b8ff" points="1359.8,-251.47 1370.32,-250.22 1361.32,-244.63 1359.8,-251.47"/>
</a>
</g>
</g>
<!-- Node21 -->
<g id="Node000021" class="node">
<title>Node21</title>
<g id="a_Node000021"><a xlink:href="classediteurpanovisu_1_1EditeurPanovisu.html#a7b2e25dc717eb52b62e23d54ec4c124a" target="_top" xlink:title=" ">
<polygon fill="white" stroke="#666666" points="868.75,-354 683.25,-354 683.25,-322 868.75,-322 868.75,-354"/>
<text xml:space="preserve" text-anchor="start" x="691.25" y="-340.5" font-family="Helvetica,sans-Serif" font-size="10.00">editeurpanovisu.EditeurPanovisu.projet</text>
<text xml:space="preserve" text-anchor="middle" x="776" y="-328.5" font-family="Helvetica,sans-Serif" font-size="10.00">SauveSous</text>
</a>
</g>
</g>
<!-- Node14&#45;&gt;Node21 -->
<g id="edge32_Node000014_Node000021" class="edge">
<title>Node14&#45;&gt;Node21</title>
<g id="a_edge32_Node000014_Node000021"><a xlink:title=" ">
<path fill="none" stroke="#63b8ff" d="M1369.64,-286.16C1352.38,-290.27 1334.1,-294.44 1317,-298 1219.14,-318.37 1195.07,-328.14 1095.5,-337 1019.49,-343.76 932.88,-343.52 869.18,-341.87"/>
<polygon fill="#63b8ff" stroke="#63b8ff" points="1370.44,-289.57 1379.35,-283.83 1368.81,-282.76 1370.44,-289.57"/>
</a>
</g>
</g>
<!-- Node15&#45;&gt;Node9 -->
<g id="edge19_Node000015_Node000009" class="edge">
<title>Node15&#45;&gt;Node9</title>
<g id="a_edge19_Node000015_Node000009"><a xlink:title=" ">
<path fill="none" stroke="#63b8ff" d="M1119.69,-215.48C945.01,-211.23 593.98,-202.68 420.78,-198.47"/>
<polygon fill="#63b8ff" stroke="#63b8ff" points="1119.59,-218.98 1129.67,-215.72 1119.76,-211.98 1119.59,-218.98"/>
</a>
</g>
</g>
<!-- Node15&#45;&gt;Node12 -->
<g id="edge22_Node000015_Node000012" class="edge">
<title>Node15&#45;&gt;Node12</title>
<g id="a_edge22_Node000015_Node000012"><a xlink:title=" ">
<path fill="none" stroke="#63b8ff" d="M1170.74,-238.86C1157.61,-244.77 1143.78,-251.63 1131.5,-259 1114.12,-269.43 1113.66,-278 1095.5,-287 1088.97,-290.24 1081.97,-293.09 1074.84,-295.6"/>
<polygon fill="#63b8ff" stroke="#63b8ff" points="1171.94,-242.15 1179.69,-234.93 1169.13,-235.74 1171.94,-242.15"/>
</a>
</g>
</g>
<!-- Node15&#45;&gt;Node13 -->
<g id="edge23_Node000015_Node000013" class="edge">
<title>Node15&#45;&gt;Node13</title>
<g id="a_edge23_Node000015_Node000013"><a xlink:title=" ">
<path fill="none" stroke="#63b8ff" d="M1328.67,-222.8C1390.42,-226.43 1470.29,-232.46 1540.75,-242 1557.43,-244.26 1575.23,-247.32 1592.07,-250.53"/>
<polygon fill="#63b8ff" stroke="#63b8ff" points="1329.05,-219.32 1318.87,-222.24 1328.65,-226.31 1329.05,-219.32"/>
</a>
</g>
</g>
<!-- Node16 -->
<g id="Node000016" class="node">
<title>Node16</title>
<g id="a_Node000016"><a xlink:href="classediteurpanovisu_1_1EditeurPanovisu.html#a94e36b9e9d09ab1a4c852b8a8cefa927" target="_top" xlink:title=" ">
<polygon fill="white" stroke="#666666" points="647.25,-140 456.5,-140 456.5,-108 647.25,-108 647.25,-140"/>
<text xml:space="preserve" text-anchor="start" x="464.5" y="-126.5" font-family="Helvetica,sans-Serif" font-size="10.00">editeurpanovisu.EditeurPanovisu.genere</text>
<text xml:space="preserve" text-anchor="middle" x="551.88" y="-114.5" font-family="Helvetica,sans-Serif" font-size="10.00">Visite</text>
</a>
</g>
</g>
<!-- Node15&#45;&gt;Node16 -->
<g id="edge20_Node000015_Node000016" class="edge">
<title>Node15&#45;&gt;Node16</title>
<g id="a_edge20_Node000015_Node000016"><a xlink:title=" ">
<path fill="none" stroke="#63b8ff" d="M1151.11,-198.86C1133.05,-194.52 1113.64,-190.24 1095.5,-187 939.59,-159.14 756.18,-140.82 647.49,-131.45"/>
<polygon fill="#63b8ff" stroke="#63b8ff" points="1150.15,-202.23 1160.7,-201.21 1151.81,-195.43 1150.15,-202.23"/>
</a>
</g>
</g>
<!-- Node17 -->
<g id="Node000017" class="node">
<title>Node17</title>
<g id="a_Node000017"><a xlink:href="classediteurpanovisu_1_1EditeurPanovisu.html#a9b46b222714af12c06ec33d410400773" target="_top" xlink:title=" ">
<polygon fill="white" stroke="#666666" points="647.25,-190 456.5,-190 456.5,-158 647.25,-158 647.25,-190"/>
<text xml:space="preserve" text-anchor="start" x="464.5" y="-176.5" font-family="Helvetica,sans-Serif" font-size="10.00">editeurpanovisu.EditeurPanovisu.projets</text>
<text xml:space="preserve" text-anchor="middle" x="551.88" y="-164.5" font-family="Helvetica,sans-Serif" font-size="10.00">Fermer</text>
</a>
</g>
</g>
<!-- Node15&#45;&gt;Node17 -->
<g id="edge24_Node000015_Node000017" class="edge">
<title>Node15&#45;&gt;Node17</title>
<g id="a_edge24_Node000015_Node000017"><a xlink:title=" ">
<path fill="none" stroke="#63b8ff" d="M1119.93,-206.2C1111.67,-205.4 1103.45,-204.65 1095.5,-204 938.7,-191.08 755.95,-182.27 647.57,-177.69"/>
<polygon fill="#63b8ff" stroke="#63b8ff" points="1119.4,-209.66 1129.69,-207.16 1120.09,-202.7 1119.4,-209.66"/>
</a>
</g>
</g>
<!-- Node18 -->
<g id="Node000018" class="node">
<title>Node18</title>
<g id="a_Node000018"><a xlink:href="classediteurpanovisu_1_1EditeurPanovisu.html#ac9d449399ccd38843fa12e716f0c9611" target="_top" xlink:title=" ">
<polygon fill="white" stroke="#666666" points="1095.5,-76 904.75,-76 904.75,-44 1095.5,-44 1095.5,-76"/>
<text xml:space="preserve" text-anchor="start" x="912.75" y="-62.5" font-family="Helvetica,sans-Serif" font-size="10.00">editeurpanovisu.EditeurPanovisu.projets</text>
<text xml:space="preserve" text-anchor="middle" x="1000.12" y="-50.5" font-family="Helvetica,sans-Serif" font-size="10.00">Nouveau</text>
</a>
</g>
</g>
<!-- Node15&#45;&gt;Node18 -->
<g id="edge26_Node000015_Node000018" class="edge">
<title>Node15&#45;&gt;Node18</title>
<g id="a_edge26_Node000015_Node000018"><a xlink:title=" ">
<path fill="none" stroke="#63b8ff" d="M1204.31,-192.75C1181.49,-163.99 1140.55,-117.44 1095.5,-90 1086.69,-84.63 1076.83,-80.14 1066.88,-76.39"/>
<polygon fill="#63b8ff" stroke="#63b8ff" points="1201.5,-194.84 1210.41,-200.58 1207.02,-190.54 1201.5,-194.84"/>
</a>
</g>
</g>
<!-- Node19 -->
<g id="Node000019" class="node">
<title>Node19</title>
<g id="a_Node000019"><a xlink:href="classediteurpanovisu_1_1EditeurPanovisu.html#a2b3125ffe2e6291efacf19df6cb30a8d" target="_top" xlink:title=" ">
<polygon fill="white" stroke="#666666" points="866.5,-114 685.5,-114 685.5,-94 866.5,-94 866.5,-114"/>
<text xml:space="preserve" text-anchor="middle" x="776" y="-100.5" font-family="Helvetica,sans-Serif" font-size="10.00">editeurpanovisu.EditeurPanovisu.start</text>
</a>
</g>
</g>
<!-- Node15&#45;&gt;Node19 -->
<g id="edge31_Node000015_Node000019" class="edge">
<title>Node15&#45;&gt;Node19</title>
<g id="a_edge31_Node000015_Node000019"><a xlink:title=" ">
<path fill="none" stroke="#63b8ff" d="M1198.58,-194.38C1174.43,-172.88 1135.53,-142.36 1095.5,-128 1021.65,-101.5 932.13,-96.96 866.83,-98.21"/>
<polygon fill="#63b8ff" stroke="#63b8ff" points="1195.92,-196.69 1205.67,-200.83 1200.63,-191.51 1195.92,-196.69"/>
</a>
</g>
</g>
<!-- Node20 -->
<g id="Node000020" class="node">
<title>Node20</title>
<g id="a_Node000020"><a xlink:href="classediteurpanovisu_1_1EditeurPanovisu.html#aef8c9b28c3e88d6e27e3f62b9a901134" target="_top" xlink:title=" ">
<polygon fill="white" stroke="#666666" points="1094,-278 906.25,-278 906.25,-246 1094,-246 1094,-278"/>
<text xml:space="preserve" text-anchor="start" x="914.25" y="-264.5" font-family="Helvetica,sans-Serif" font-size="10.00">editeurpanovisu.EditeurPanovisu.sauve</text>
<text xml:space="preserve" text-anchor="middle" x="1000.12" y="-252.5" font-family="Helvetica,sans-Serif" font-size="10.00">Fichiers</text>
</a>
</g>
</g>
<!-- Node15&#45;&gt;Node20 -->
<g id="edge30_Node000015_Node000020" class="edge">
<title>Node15&#45;&gt;Node20</title>
<g id="a_edge30_Node000015_Node000020"><a xlink:title=" ">
<path fill="none" stroke="#63b8ff" d="M1128.99,-236.67C1114.18,-239.6 1098.96,-242.62 1084.42,-245.5"/>
<polygon fill="#63b8ff" stroke="#63b8ff" points="1129.61,-240.12 1138.74,-234.74 1128.25,-233.25 1129.61,-240.12"/>
</a>
</g>
</g>
<!-- Node16&#45;&gt;Node9 -->
<g id="edge21_Node000016_Node000009" class="edge">
<title>Node16&#45;&gt;Node9</title>
<g id="a_edge21_Node000016_Node000009"><a xlink:title=" ">
<path fill="none" stroke="#63b8ff" d="M475.43,-143.47C469.01,-145.28 462.63,-147.14 456.5,-149 418.57,-160.51 375.41,-175.65 347.81,-185.59"/>
<polygon fill="#63b8ff" stroke="#63b8ff" points="476.07,-146.93 484.77,-140.88 474.2,-140.18 476.07,-146.93"/>
</a>
</g>
</g>
<!-- Node17&#45;&gt;Node9 -->
<g id="edge25_Node000017_Node000009" class="edge">
<title>Node17&#45;&gt;Node9</title>
<g id="a_edge25_Node000017_Node000009"><a xlink:title=" ">
<path fill="none" stroke="#63b8ff" d="M444.81,-184.08C436.83,-184.84 428.78,-185.6 420.83,-186.36"/>
<polygon fill="#63b8ff" stroke="#63b8ff" points="444.92,-187.59 454.54,-183.15 444.25,-180.62 444.92,-187.59"/>
</a>
</g>
</g>
<!-- Node18&#45;&gt;Node9 -->
<g id="edge27_Node000018_Node000009" class="edge">
<title>Node18&#45;&gt;Node9</title>
<g id="a_edge27_Node000018_Node000009"><a xlink:title=" ">
<path fill="none" stroke="#63b8ff" d="M893.01,-51.13C781.05,-45.5 601.15,-47.23 456.5,-99 402.69,-118.26 350.9,-164.89 329.57,-185.69"/>
<polygon fill="#63b8ff" stroke="#63b8ff" points="892.62,-54.61 902.79,-51.65 892.99,-47.62 892.62,-54.61"/>
</a>
</g>
</g>
<!-- Node18&#45;&gt;Node19 -->
<g id="edge28_Node000018_Node000019" class="edge">
<title>Node18&#45;&gt;Node19</title>
<g id="a_edge28_Node000018_Node000019"><a xlink:title=" ">
<path fill="none" stroke="#63b8ff" d="M904.83,-78.68C879.23,-83.75 852.41,-89.06 829.99,-93.5"/>
<polygon fill="#63b8ff" stroke="#63b8ff" points="905.48,-82.12 914.61,-76.74 904.12,-75.25 905.48,-82.12"/>
</a>
</g>
</g>
<!-- Node19&#45;&gt;Node16 -->
<g id="edge29_Node000019_Node000016" class="edge">
<title>Node19&#45;&gt;Node16</title>
<g id="a_edge29_Node000019_Node000016"><a xlink:title=" ">
<path fill="none" stroke="#63b8ff" d="M673.87,-113.11C665.14,-113.89 656.32,-114.69 647.63,-115.47"/>
<polygon fill="#63b8ff" stroke="#63b8ff" points="674.14,-116.6 683.79,-112.21 673.51,-109.62 674.14,-116.6"/>
</a>
</g>
</g>
<!-- Node21&#45;&gt;Node9 -->
<g id="edge33_Node000021_Node000009" class="edge">
<title>Node21&#45;&gt;Node9</title>
<g id="a_edge33_Node000021_Node000009"><a xlink:title=" ">
<path fill="none" stroke="#63b8ff" d="M671.61,-330.53C607.92,-323.41 525.52,-309.63 456.5,-283 406.26,-263.62 354.66,-224.73 331.69,-206.23"/>
<polygon fill="#63b8ff" stroke="#63b8ff" points="671.06,-333.99 681.37,-331.57 671.8,-327.03 671.06,-333.99"/>
</a>
</g>
</g>
<!-- Node22&#45;&gt;Node18 -->
<g id="edge36_Node000022_Node000018" class="edge">
<title>Node22&#45;&gt;Node18</title>
<g id="a_edge36_Node000022_Node000018"><a xlink:title=" ">
<path fill="none" stroke="#63b8ff" d="M1802.84,-85.4C1638.69,-80.2 1270.25,-68.53 1095.96,-63"/>
<polygon fill="#63b8ff" stroke="#63b8ff" points="1802.69,-88.9 1812.79,-85.72 1802.91,-81.9 1802.69,-88.9"/>
</a>
</g>
</g>
<!-- Node23&#45;&gt;Node22 -->
<g id="edge38_Node000023_Node000022" class="edge">
<title>Node23&#45;&gt;Node22</title>
<g id="a_edge38_Node000023_Node000022"><a xlink:title=" ">
<path fill="none" stroke="#63b8ff" d="M1997.58,-75.79C1983.99,-77.28 1970.12,-78.81 1957,-80.26"/>
<polygon fill="#63b8ff" stroke="#63b8ff" points="1997.85,-79.28 2007.4,-74.7 1997.08,-72.32 1997.85,-79.28"/>
</a>
</g>
</g>
<!-- Node24&#45;&gt;Node4 -->
<g id="edge40_Node000024_Node000004" class="edge">
<title>Node24&#45;&gt;Node4</title>
<g id="a_edge40_Node000024_Node000004"><a xlink:title=" ">
<path fill="none" stroke="#63b8ff" d="M2791.81,-175.13C2763.81,-163.29 2731.8,-149.76 2707.42,-139.45"/>
<polygon fill="#63b8ff" stroke="#63b8ff" points="2790.36,-178.31 2800.93,-178.98 2793.08,-171.87 2790.36,-178.31"/>
</a>
</g>
</g>
<!-- Node24&#45;&gt;Node25 -->
<g id="edge41_Node000024_Node000025" class="edge">
<title>Node24&#45;&gt;Node25</title>
<g id="a_edge41_Node000024_Node000025"><a xlink:title=" ">
<path fill="none" stroke="#63b8ff" d="M2764.27,-198.59C2756.24,-198.29 2748.18,-197.98 2740.34,-197.69"/>
<polygon fill="#63b8ff" stroke="#63b8ff" points="2763.94,-202.08 2774.07,-198.95 2764.21,-195.08 2763.94,-202.08"/>
</a>
</g>
</g>
<!-- Node26 -->
<g id="Node000026" class="node">
<title>Node26</title>
<g id="a_Node000026"><a xlink:href="classediteurpanovisu_1_1GestionnairePlanController.html#a1eafa34c648e53e136ec2470af9633ce" target="_top" xlink:title=" ">
<polygon fill="white" stroke="#666666" points="2348,-179 2201.5,-179 2201.5,-147 2348,-147 2348,-179"/>
<text xml:space="preserve" text-anchor="start" x="2209.5" y="-165.5" font-family="Helvetica,sans-Serif" font-size="10.00">editeurpanovisu.Gestionnaire</text>
<text xml:space="preserve" text-anchor="middle" x="2274.75" y="-153.5" font-family="Helvetica,sans-Serif" font-size="10.00">PlanController.gereSourisPlan</text>
</a>
</g>
</g>
<!-- Node25&#45;&gt;Node26 -->
<g id="edge42_Node000025_Node000026" class="edge">
<title>Node25&#45;&gt;Node26</title>
<g id="a_edge42_Node000025_Node000026"><a xlink:title=" ">
<path fill="none" stroke="#63b8ff" d="M2583.46,-188.2C2513.67,-182.48 2414.94,-174.4 2348.29,-168.94"/>
<polygon fill="#63b8ff" stroke="#63b8ff" points="2583.07,-191.68 2593.32,-189.01 2583.64,-184.7 2583.07,-191.68"/>
</a>
</g>
</g>
<!-- Node26&#45;&gt;Node22 -->
<g id="edge43_Node000026_Node000022" class="edge">
<title>Node26&#45;&gt;Node22</title>
<g id="a_edge43_Node000026_Node000022"><a xlink:title=" ">
<path fill="none" stroke="#63b8ff" d="M2190.5,-146.87C2120.92,-133.38 2022.81,-114.37 1957.1,-101.63"/>
<polygon fill="#63b8ff" stroke="#63b8ff" points="2189.44,-150.23 2199.93,-148.69 2190.77,-143.35 2189.44,-150.23"/>
</a>
</g>
</g>
</g>
</svg>
