<?xml version="1.0" encoding="UTF-8" standalone="no"?>
<!DOCTYPE svg PUBLIC "-//W3C//DTD SVG 1.1//EN"
 "http://www.w3.org/Graphics/SVG/1.1/DTD/svg11.dtd">
<!-- Generated by graphviz version 13.1.2 (20250808.2320)
 -->
<!-- Title: editeurpanovisu.GestionnairePlanController.ajouteAffichagePointsHotspots Pages: 1 -->
<!--zoomable 526 -->

<svg id="main" version="1.1" xmlns="http://www.w3.org/2000/svg" xmlns:xlink="http://www.w3.org/1999/xlink" xml:space="preserve" onload="init(evt)">

<style type="text/css"><![CDATA[
.node, .edge {opacity: 0.7;}
.node.selected, .edge.selected {opacity: 1;}
.edge:hover path { stroke: red; }
.edge:hover polygon { stroke: red; fill: red; }
]]></style>

<defs>
  <circle id="rim" cx="0" cy="0" r="7"/>
  <circle id="rim2" cx="0" cy="0" r="3.5"/>
  <g id="zoomPlus">
    <use xlink:href="#rim" fill="#404040"><set attributeName="fill" to="#808080" begin="zoomplus.mouseover" end="zoomplus.mouseout"/></use>
    <path d="M-4,0h8M0,-4v8" fill="none" stroke="white" stroke-width="1.5" pointer-events="none"/>
  </g>
  <g id="zoomMin">
    <use xlink:href="#rim" fill="#404040"><set attributeName="fill" to="#808080" begin="zoomminus.mouseover" end="zoomminus.mouseout"/></use>
    <path d="M-4,0h8" fill="none" stroke="white" stroke-width="1.5" pointer-events="none"/>
  </g>
  <g id="arrowUp" transform="translate(30 24)">
    <use xlink:href="#rim"/>
    <path pointer-events="none" fill="none" stroke="white" stroke-width="1.5" d="M0,-3.0v7 M-2.5,-0.5L0,-3.0L2.5,-0.5"/>
  </g>
  <g id="arrowRight" transform="rotate(90) translate(36 -43)">
    <use xlink:href="#rim"/>
    <path pointer-events="none" fill="none" stroke="white" stroke-width="1.5" d="M0,-3.0v7 M-2.5,-0.5L0,-3.0L2.5,-0.5"/>
  </g>
  <g id="arrowDown" transform="rotate(180) translate(-30 -48)">
    <use xlink:href="#rim"/>
    <path pointer-events="none" fill="none" stroke="white" stroke-width="1.5" d="M0,-3.0v7 M-2.5,-0.5L0,-3.0L2.5,-0.5"/>
  </g>
  <g id="arrowLeft" transform="rotate(270) translate(-36 17)">
    <use xlink:href="#rim"/>
    <path pointer-events="none" fill="none" stroke="white" stroke-width="1.5" d="M0,-3.0v7 M-2.5,-0.5L0,-3.0L2.5,-0.5"/>
  </g>
  <g id="resetDef">
    <use xlink:href="#rim2" fill="#404040"><set attributeName="fill" to="#808080" begin="reset.mouseover" end="reset.mouseout"/></use>
  </g>
</defs>
<script type="application/ecmascript">
var viewWidth = 1358;
var viewHeight = 526;
var sectionId = 'dynsection-15';
</script>
<script type="application/ecmascript" xlink:href="svg.min.js"/>
<svg id="graph" class="graph">
<g id="viewport">
<title>editeurpanovisu.GestionnairePlanController.ajouteAffichagePointsHotspots</title>
<!-- Node1 -->
<g id="Node000001" class="node">
<title>Node1</title>
<g id="a_Node000001"><a xlink:title=" ">
<polygon fill="#999999" stroke="#666666" points="175,-344 0,-344 0,-300 175,-300 175,-344"/>
<text xml:space="preserve" text-anchor="start" x="8" y="-330.5" font-family="Helvetica,sans-Serif" font-size="10.00">editeurpanovisu.Gestionnaire</text>
<text xml:space="preserve" text-anchor="start" x="8" y="-318.5" font-family="Helvetica,sans-Serif" font-size="10.00">PlanController.ajouteAffichagePoints</text>
<text xml:space="preserve" text-anchor="middle" x="87.5" y="-306.5" font-family="Helvetica,sans-Serif" font-size="10.00">Hotspots</text>
</a>
</g>
</g>
<!-- Node2 -->
<g id="Node000002" class="node">
<title>Node2</title>
<g id="a_Node000002"><a xlink:href="classediteurpanovisu_1_1GestionnairePlanController.html#a2e6f0187e7151e006c001659da532c6e" target="_top" xlink:title=" ">
<polygon fill="white" stroke="#666666" points="353,-338 211,-338 211,-306 353,-306 353,-338"/>
<text xml:space="preserve" text-anchor="start" x="219" y="-324.5" font-family="Helvetica,sans-Serif" font-size="10.00">editeurpanovisu.Gestionnaire</text>
<text xml:space="preserve" text-anchor="middle" x="282" y="-312.5" font-family="Helvetica,sans-Serif" font-size="10.00">PlanController.afficheHS</text>
</a>
</g>
</g>
<!-- Node1&#45;&gt;Node2 -->
<g id="edge1_Node000001_Node000002" class="edge">
<title>Node1&#45;&gt;Node2</title>
<g id="a_edge1_Node000001_Node000002"><a xlink:title=" ">
<path fill="none" stroke="#63b8ff" d="M175.46,-322C183.36,-322 191.34,-322 199.19,-322"/>
<polygon fill="#63b8ff" stroke="#63b8ff" points="199.06,-325.5 209.06,-322 199.06,-318.5 199.06,-325.5"/>
</a>
</g>
</g>
<!-- Node8 -->
<g id="Node000008" class="node">
<title>Node8</title>
<g id="a_Node000008"><a xlink:href="classediteurpanovisu_1_1GestionnairePlanController.html#a2edd566ca304172fcd4ab5559dd1738c" target="_top" xlink:title=" ">
<polygon fill="white" stroke="#666666" points="1350.25,-92 1206.75,-92 1206.75,-60 1350.25,-60 1350.25,-92"/>
<text xml:space="preserve" text-anchor="start" x="1214.75" y="-78.5" font-family="Helvetica,sans-Serif" font-size="10.00">editeurpanovisu.Gestionnaire</text>
<text xml:space="preserve" text-anchor="middle" x="1278.5" y="-66.5" font-family="Helvetica,sans-Serif" font-size="10.00">PlanController.getiPlanActuel</text>
</a>
</g>
</g>
<!-- Node1&#45;&gt;Node8 -->
<g id="edge25_Node000001_Node000008" class="edge">
<title>Node1&#45;&gt;Node8</title>
<g id="a_edge25_Node000001_Node000008"><a xlink:title=" ">
<path fill="none" stroke="#63b8ff" d="M100.45,-299.61C141.22,-226.59 282.71,0 468.38,0 468.38,0 468.38,0 880.75,0 1010.52,0 1044.88,-2.43 1170.75,-34 1191.42,-39.18 1213.46,-47.37 1232.11,-55.15"/>
<polygon fill="#63b8ff" stroke="#63b8ff" points="1230.71,-58.35 1241.28,-59.06 1233.45,-51.91 1230.71,-58.35"/>
</a>
</g>
</g>
<!-- Node9 -->
<g id="Node000009" class="node">
<title>Node9</title>
<g id="a_Node000009"><a xlink:href="leaflet_8js.html#a73aff07b65d7c0b09ccf6b4c4f1b7a9d" target="_top" xlink:title=" ">
<polygon fill="white" stroke="#666666" points="1292.9,-282 1264.1,-282 1264.1,-262 1292.9,-262 1292.9,-282"/>
<text xml:space="preserve" text-anchor="middle" x="1278.5" y="-268.5" font-family="Helvetica,sans-Serif" font-size="10.00">i</text>
</a>
</g>
</g>
<!-- Node1&#45;&gt;Node9 -->
<g id="edge26_Node000001_Node000009" class="edge">
<title>Node1&#45;&gt;Node9</title>
<g id="a_edge26_Node000001_Node000009"><a xlink:title=" ">
<path fill="none" stroke="#63b8ff" d="M112.07,-344.48C168.62,-395.97 318.47,-518 468.38,-518 468.38,-518 468.38,-518 880.75,-518 1015.31,-518 1062.46,-510.87 1170.75,-431 1220.54,-394.28 1254.34,-326.95 1269.1,-292.89"/>
<polygon fill="#63b8ff" stroke="#63b8ff" points="1272.3,-294.32 1272.93,-283.74 1265.84,-291.61 1272.3,-294.32"/>
</a>
</g>
</g>
<!-- Node3 -->
<g id="Node000003" class="node">
<title>Node3</title>
<g id="a_Node000003"><a xlink:href="classediteurpanovisu_1_1GestionnairePlanController.html#a375ef7ea66bf40c2ad7d973e1a40c065" target="_top" xlink:title=" ">
<polygon fill="white" stroke="#666666" points="549.75,-278 389,-278 389,-234 549.75,-234 549.75,-278"/>
<text xml:space="preserve" text-anchor="start" x="397" y="-264.5" font-family="Helvetica,sans-Serif" font-size="10.00">editeurpanovisu.Gestionnaire</text>
<text xml:space="preserve" text-anchor="start" x="397" y="-252.5" font-family="Helvetica,sans-Serif" font-size="10.00">PlanController.afficherListePanos</text>
<text xml:space="preserve" text-anchor="middle" x="469.38" y="-240.5" font-family="Helvetica,sans-Serif" font-size="10.00">Vignettes</text>
</a>
</g>
</g>
<!-- Node2&#45;&gt;Node3 -->
<g id="edge2_Node000002_Node000003" class="edge">
<title>Node2&#45;&gt;Node3</title>
<g id="a_edge2_Node000002_Node000003"><a xlink:title=" ">
<path fill="none" stroke="#63b8ff" d="M329.3,-305.52C349.02,-298.49 372.52,-290.13 394.54,-282.29"/>
<polygon fill="#63b8ff" stroke="#63b8ff" points="395.53,-285.65 403.78,-279 393.18,-279.06 395.53,-285.65"/>
</a>
</g>
</g>
<!-- Node4 -->
<g id="Node000004" class="node">
<title>Node4</title>
<g id="a_Node000004"><a xlink:href="classediteurpanovisu_1_1GestionnairePlanController.html#ac6a814832aad8390d7157032c3f7f107" target="_top" xlink:title=" ">
<polygon fill="white" stroke="#666666" points="772.75,-338 585.75,-338 585.75,-306 772.75,-306 772.75,-338"/>
<text xml:space="preserve" text-anchor="start" x="593.75" y="-324.5" font-family="Helvetica,sans-Serif" font-size="10.00">editeurpanovisu.Gestionnaire</text>
<text xml:space="preserve" text-anchor="middle" x="679.25" y="-312.5" font-family="Helvetica,sans-Serif" font-size="10.00">PlanController.ajouteAffichageHotspots</text>
</a>
</g>
</g>
<!-- Node2&#45;&gt;Node4 -->
<g id="edge19_Node000002_Node000004" class="edge">
<title>Node2&#45;&gt;Node4</title>
<g id="a_edge19_Node000002_Node000004"><a xlink:title=" ">
<path fill="none" stroke="#63b8ff" d="M353.21,-322C414.46,-322 504.19,-322 573.86,-322"/>
<polygon fill="#63b8ff" stroke="#63b8ff" points="573.78,-325.5 583.78,-322 573.78,-318.5 573.78,-325.5"/>
</a>
</g>
</g>
<!-- Node6 -->
<g id="Node000006" class="node">
<title>Node6</title>
<g id="a_Node000006"><a xlink:href="classediteurpanovisu_1_1GestionnairePlanController.html#ae85c33829adf0dab112e4120e0dd2df2" target="_top" xlink:title=" ">
<polygon fill="white" stroke="#666666" points="1170.75,-382 986.75,-382 986.75,-350 1170.75,-350 1170.75,-382"/>
<text xml:space="preserve" text-anchor="start" x="994.75" y="-368.5" font-family="Helvetica,sans-Serif" font-size="10.00">editeurpanovisu.Gestionnaire</text>
<text xml:space="preserve" text-anchor="middle" x="1078.75" y="-356.5" font-family="Helvetica,sans-Serif" font-size="10.00">PlanController.retireAffichageHotSpots</text>
</a>
</g>
</g>
<!-- Node2&#45;&gt;Node6 -->
<g id="edge22_Node000002_Node000006" class="edge">
<title>Node2&#45;&gt;Node6</title>
<g id="a_edge22_Node000002_Node000006"><a xlink:title=" ">
<path fill="none" stroke="#63b8ff" d="M353.23,-338.05C414.33,-351.33 505.41,-369.5 585.75,-379 746.92,-398.06 789.16,-405.13 950.75,-390 964.24,-388.74 978.42,-386.74 992.23,-384.41"/>
<polygon fill="#63b8ff" stroke="#63b8ff" points="992.47,-387.93 1001.71,-382.75 991.26,-381.03 992.47,-387.93"/>
</a>
</g>
</g>
<!-- Node7 -->
<g id="Node000007" class="node">
<title>Node7</title>
<g id="a_Node000007"><a xlink:href="classediteurpanovisu_1_1GestionnairePlanController.html#ae1523e38be18cc67cdfc275adff5dd18" target="_top" xlink:title=" ">
<polygon fill="white" stroke="#666666" points="1149.75,-162 1007.75,-162 1007.75,-130 1149.75,-130 1149.75,-162"/>
<text xml:space="preserve" text-anchor="start" x="1015.75" y="-148.5" font-family="Helvetica,sans-Serif" font-size="10.00">editeurpanovisu.Gestionnaire</text>
<text xml:space="preserve" text-anchor="middle" x="1078.75" y="-136.5" font-family="Helvetica,sans-Serif" font-size="10.00">PlanController.valideHsplan</text>
</a>
</g>
</g>
<!-- Node2&#45;&gt;Node7 -->
<g id="edge23_Node000002_Node000007" class="edge">
<title>Node2&#45;&gt;Node7</title>
<g id="a_edge23_Node000002_Node000007"><a xlink:title=" ">
<path fill="none" stroke="#63b8ff" d="M297.92,-305.63C317.39,-284.95 353.22,-249.13 389,-225 469.34,-170.81 491.38,-153.05 585.75,-131 727.17,-97.95 897.66,-115.39 996.29,-130.85"/>
<polygon fill="#63b8ff" stroke="#63b8ff" points="995.45,-134.26 1005.87,-132.39 996.55,-127.35 995.45,-134.26"/>
</a>
</g>
</g>
<!-- Node2&#45;&gt;Node8 -->
<g id="edge20_Node000002_Node000008" class="edge">
<title>Node2&#45;&gt;Node8</title>
<g id="a_edge20_Node000002_Node000008"><a xlink:title=" ">
<path fill="none" stroke="#63b8ff" d="M287.85,-305.71C299.38,-269.79 331.8,-183.18 389,-136 493.71,-49.63 542.52,-38 678.25,-38 678.25,-38 678.25,-38 880.75,-38 1009.79,-38 1042.88,-34.67 1170.75,-52 1180.77,-53.36 1191.24,-55.19 1201.54,-57.24"/>
<polygon fill="#63b8ff" stroke="#63b8ff" points="1200.64,-60.63 1211.14,-59.23 1202.06,-53.77 1200.64,-60.63"/>
</a>
</g>
</g>
<!-- Node2&#45;&gt;Node9 -->
<g id="edge21_Node000002_Node000009" class="edge">
<title>Node2&#45;&gt;Node9</title>
<g id="a_edge21_Node000002_Node000009"><a xlink:title=" ">
<path fill="none" stroke="#63b8ff" d="M311.92,-338.4C332.81,-349.69 361.98,-364.34 389,-374 513.35,-418.47 546.19,-442 678.25,-442 678.25,-442 678.25,-442 880.75,-442 1011.62,-442 1056.34,-454.53 1170.75,-391 1213.81,-367.09 1248.46,-319.15 1265.68,-291.99"/>
<polygon fill="#63b8ff" stroke="#63b8ff" points="1268.54,-294.01 1270.8,-283.66 1262.58,-290.34 1268.54,-294.01"/>
</a>
</g>
</g>
<!-- Node13 -->
<g id="Node000013" class="node">
<title>Node13</title>
<g id="a_Node000013"><a xlink:href="leaflet_8js.html#a873cae0273c5a7d9673544bbe0a6fe8b" target="_top" xlink:title=" ">
<polygon fill="white" stroke="#666666" points="483.77,-490 454.98,-490 454.98,-470 483.77,-470 483.77,-490"/>
<text xml:space="preserve" text-anchor="middle" x="469.38" y="-476.5" font-family="Helvetica,sans-Serif" font-size="10.00">Y</text>
</a>
</g>
</g>
<!-- Node2&#45;&gt;Node13 -->
<g id="edge24_Node000002_Node000013" class="edge">
<title>Node2&#45;&gt;Node13</title>
<g id="a_edge24_Node000002_Node000013"><a xlink:title=" ">
<path fill="none" stroke="#63b8ff" d="M291.46,-338.25C306.96,-366.45 342.65,-424.46 389,-456 405.38,-467.15 427.08,-473.24 443.65,-476.5"/>
<polygon fill="#63b8ff" stroke="#63b8ff" points="442.72,-479.89 453.17,-478.14 443.91,-472.99 442.72,-479.89"/>
</a>
</g>
</g>
<!-- Node3&#45;&gt;Node4 -->
<g id="edge3_Node000003_Node000004" class="edge">
<title>Node3&#45;&gt;Node4</title>
<g id="a_edge3_Node000003_Node000004"><a xlink:title=" ">
<path fill="none" stroke="#63b8ff" d="M541.04,-278.44C565.23,-286.11 592.09,-294.65 615.6,-302.11"/>
<polygon fill="#63b8ff" stroke="#63b8ff" points="614.46,-305.42 625.05,-305.11 616.58,-298.75 614.46,-305.42"/>
</a>
</g>
</g>
<!-- Node3&#45;&gt;Node6 -->
<g id="edge16_Node000003_Node000006" class="edge">
<title>Node3&#45;&gt;Node6</title>
<g id="a_edge16_Node000003_Node000006"><a xlink:title=" ">
<path fill="none" stroke="#63b8ff" d="M490.33,-278.42C511.51,-300.46 547.21,-332.79 585.75,-347 713.69,-394.17 873.22,-389.93 975.3,-380.04"/>
<polygon fill="#63b8ff" stroke="#63b8ff" points="975.42,-383.54 985.02,-379.05 974.72,-376.58 975.42,-383.54"/>
</a>
</g>
</g>
<!-- Node3&#45;&gt;Node7 -->
<g id="edge18_Node000003_Node000007" class="edge">
<title>Node3&#45;&gt;Node7</title>
<g id="a_edge18_Node000003_Node000007"><a xlink:title=" ">
<path fill="none" stroke="#63b8ff" d="M492.29,-233.59C513.9,-213.13 548.96,-184.13 585.75,-171 723.22,-121.93 896.07,-127.18 996.03,-136.13"/>
<polygon fill="#63b8ff" stroke="#63b8ff" points="995.46,-139.59 1005.75,-137.03 996.12,-132.62 995.46,-139.59"/>
</a>
</g>
</g>
<!-- Node3&#45;&gt;Node8 -->
<g id="edge13_Node000003_Node000008" class="edge">
<title>Node3&#45;&gt;Node8</title>
<g id="a_edge13_Node000003_Node000008"><a xlink:title=" ">
<path fill="none" stroke="#63b8ff" d="M483.44,-233.66C502,-204.28 539,-153.72 585.75,-131 787.05,-33.17 1060.48,-48.36 1195.34,-64.06"/>
<polygon fill="#63b8ff" stroke="#63b8ff" points="1194.54,-67.49 1204.88,-65.2 1195.37,-60.54 1194.54,-67.49"/>
</a>
</g>
</g>
<!-- Node3&#45;&gt;Node9 -->
<g id="edge14_Node000003_Node000009" class="edge">
<title>Node3&#45;&gt;Node9</title>
<g id="a_edge14_Node000003_Node000009"><a xlink:title=" ">
<path fill="none" stroke="#63b8ff" d="M550.12,-258.34C562.06,-258.62 574.23,-258.85 585.75,-259 668.85,-260.08 690.71,-272.31 772.75,-259 789.4,-256.3 792.1,-249.7 808.75,-247 871.05,-236.89 887.68,-244.59 950.75,-247 1063.62,-251.31 1197.94,-263.97 1252.56,-269.44"/>
<polygon fill="#63b8ff" stroke="#63b8ff" points="1252.02,-272.9 1262.32,-270.43 1252.72,-265.94 1252.02,-272.9"/>
</a>
</g>
</g>
<!-- Node11 -->
<g id="Node000011" class="node">
<title>Node11</title>
<g id="a_Node000011"><a xlink:href="leaflet_8js.html#abf5830200d869e463ea38504a19985f6" target="_top" xlink:title=" ">
<polygon fill="white" stroke="#666666" points="694,-250 664.5,-250 664.5,-230 694,-230 694,-250"/>
<text xml:space="preserve" text-anchor="middle" x="679.25" y="-236.5" font-family="Helvetica,sans-Serif" font-size="10.00">me</text>
</a>
</g>
</g>
<!-- Node3&#45;&gt;Node11 -->
<g id="edge15_Node000003_Node000011" class="edge">
<title>Node3&#45;&gt;Node11</title>
<g id="a_edge15_Node000003_Node000011"><a xlink:title=" ">
<path fill="none" stroke="#63b8ff" d="M550.15,-249.86C586.75,-247.04 627.59,-243.9 653.1,-241.94"/>
<polygon fill="#63b8ff" stroke="#63b8ff" points="653.1,-245.45 662.8,-241.19 652.56,-238.47 653.1,-245.45"/>
</a>
</g>
</g>
<!-- Node12 -->
<g id="Node000012" class="node">
<title>Node12</title>
<g id="a_Node000012"><a xlink:href="classediteurpanovisu_1_1GestionnairePlanController.html#a2f1b683e1be605730a62f963e130bdc2" target="_top" xlink:title=" ">
<polygon fill="white" stroke="#666666" points="770.88,-212 587.62,-212 587.62,-180 770.88,-180 770.88,-212"/>
<text xml:space="preserve" text-anchor="start" x="595.62" y="-198.5" font-family="Helvetica,sans-Serif" font-size="10.00">editeurpanovisu.Gestionnaire</text>
<text xml:space="preserve" text-anchor="middle" x="679.25" y="-186.5" font-family="Helvetica,sans-Serif" font-size="10.00">PlanController.setStrPlanListeVignette</text>
</a>
</g>
</g>
<!-- Node3&#45;&gt;Node12 -->
<g id="edge17_Node000003_Node000012" class="edge">
<title>Node3&#45;&gt;Node12</title>
<g id="a_edge17_Node000003_Node000012"><a xlink:title=" ">
<path fill="none" stroke="#63b8ff" d="M543.21,-233.54C557.3,-229.3 571.97,-224.95 585.75,-221 592.26,-219.13 599.03,-217.23 605.82,-215.35"/>
<polygon fill="#63b8ff" stroke="#63b8ff" points="606.31,-218.84 615.02,-212.82 604.45,-212.1 606.31,-218.84"/>
</a>
</g>
</g>
<!-- Node5 -->
<g id="Node000005" class="node">
<title>Node5</title>
<g id="a_Node000005"><a xlink:href="classediteurpanovisu_1_1GestionnairePlanController.html#ad4f72bd693b5b3bd93bee89bda000990" target="_top" xlink:title=" ">
<polygon fill="white" stroke="#666666" points="950.75,-338 808.75,-338 808.75,-306 950.75,-306 950.75,-338"/>
<text xml:space="preserve" text-anchor="start" x="816.75" y="-324.5" font-family="Helvetica,sans-Serif" font-size="10.00">editeurpanovisu.Gestionnaire</text>
<text xml:space="preserve" text-anchor="middle" x="879.75" y="-312.5" font-family="Helvetica,sans-Serif" font-size="10.00">PlanController.affichageHS</text>
</a>
</g>
</g>
<!-- Node4&#45;&gt;Node5 -->
<g id="edge4_Node000004_Node000005" class="edge">
<title>Node4&#45;&gt;Node5</title>
<g id="a_edge4_Node000004_Node000005"><a xlink:title=" ">
<path fill="none" stroke="#63b8ff" d="M773.11,-315.26C781.11,-315.23 789.16,-315.26 797.06,-315.34"/>
<polygon fill="#63b8ff" stroke="#63b8ff" points="796.94,-318.84 806.99,-315.49 797.05,-311.84 796.94,-318.84"/>
</a>
</g>
</g>
<!-- Node4&#45;&gt;Node8 -->
<g id="edge10_Node000004_Node000008" class="edge">
<title>Node4&#45;&gt;Node8</title>
<g id="a_edge10_Node000004_Node000008"><a xlink:title=" ">
<path fill="none" stroke="#63b8ff" d="M747.17,-305.52C756.17,-301.84 764.97,-297.38 772.75,-292 793.82,-277.44 786.93,-260.42 808.75,-247 948.77,-160.86 1023.96,-245.02 1170.75,-171 1205.02,-153.72 1236.85,-122.64 1256.68,-100.74"/>
<polygon fill="#63b8ff" stroke="#63b8ff" points="1259.16,-103.22 1263.16,-93.41 1253.91,-98.58 1259.16,-103.22"/>
</a>
</g>
</g>
<!-- Node10 -->
<g id="Node000010" class="node">
<title>Node10</title>
<g id="a_Node000010"><a xlink:href="classediteurpanovisu_1_1GestionnairePlanController.html#ace9c9d5683a0db9254026f3cb20cedd3" target="_top" xlink:title=" ">
<polygon fill="white" stroke="#666666" points="950.75,-288 808.75,-288 808.75,-256 950.75,-256 950.75,-288"/>
<text xml:space="preserve" text-anchor="start" x="816.75" y="-274.5" font-family="Helvetica,sans-Serif" font-size="10.00">editeurpanovisu.Gestionnaire</text>
<text xml:space="preserve" text-anchor="middle" x="879.75" y="-262.5" font-family="Helvetica,sans-Serif" font-size="10.00">PlanController.listePano</text>
</a>
</g>
</g>
<!-- Node4&#45;&gt;Node10 -->
<g id="edge11_Node000004_Node000010" class="edge">
<title>Node4&#45;&gt;Node10</title>
<g id="a_edge11_Node000004_Node000010"><a xlink:title=" ">
<path fill="none" stroke="#63b8ff" d="M745.52,-305.56C763.75,-300.97 783.72,-295.94 802.53,-291.2"/>
<polygon fill="#63b8ff" stroke="#63b8ff" points="803.13,-294.66 811.97,-288.82 801.42,-287.87 803.13,-294.66"/>
</a>
</g>
</g>
<!-- Node5&#45;&gt;Node4 -->
<g id="edge5_Node000005_Node000004" class="edge">
<title>Node5&#45;&gt;Node4</title>
<g id="a_edge5_Node000005_Node000004"><a xlink:title=" ">
<path fill="none" stroke="#63b8ff" d="M808.51,-328.49C800.71,-328.63 792.66,-328.72 784.56,-328.74"/>
<polygon fill="#63b8ff" stroke="#63b8ff" points="784.62,-325.24 774.62,-328.74 784.62,-332.24 784.62,-325.24"/>
</a>
</g>
</g>
<!-- Node5&#45;&gt;Node6 -->
<g id="edge6_Node000005_Node000006" class="edge">
<title>Node5&#45;&gt;Node6</title>
<g id="a_edge6_Node000005_Node000006"><a xlink:title=" ">
<path fill="none" stroke="#63b8ff" d="M951.04,-337.7C964.64,-340.74 979.02,-343.95 993.03,-347.08"/>
<polygon fill="#63b8ff" stroke="#63b8ff" points="992.16,-350.47 1002.68,-349.23 993.69,-343.64 992.16,-350.47"/>
</a>
</g>
</g>
<!-- Node5&#45;&gt;Node7 -->
<g id="edge7_Node000005_Node000007" class="edge">
<title>Node5&#45;&gt;Node7</title>
<g id="a_edge7_Node000005_Node000007"><a xlink:title=" ">
<path fill="none" stroke="#63b8ff" d="M935.66,-305.63C940.96,-303.1 946.09,-300.24 950.75,-297 999.95,-262.81 1041.2,-204.85 1062.4,-171.56"/>
<polygon fill="#63b8ff" stroke="#63b8ff" points="1065.2,-173.7 1067.52,-163.36 1059.26,-169.99 1065.2,-173.7"/>
</a>
</g>
</g>
<!-- Node7&#45;&gt;Node8 -->
<g id="edge8_Node000007_Node000008" class="edge">
<title>Node7&#45;&gt;Node8</title>
<g id="a_edge8_Node000007_Node000008"><a xlink:title=" ">
<path fill="none" stroke="#63b8ff" d="M1126.11,-129.59C1154.28,-119.62 1190.45,-106.82 1220.37,-96.22"/>
<polygon fill="#63b8ff" stroke="#63b8ff" points="1221.4,-99.57 1229.66,-92.94 1219.06,-92.97 1221.4,-99.57"/>
</a>
</g>
</g>
<!-- Node7&#45;&gt;Node9 -->
<g id="edge9_Node000007_Node000009" class="edge">
<title>Node7&#45;&gt;Node9</title>
<g id="a_edge9_Node000007_Node000009"><a xlink:title=" ">
<path fill="none" stroke="#63b8ff" d="M1141.47,-162.48C1151.57,-166.26 1161.68,-170.74 1170.75,-176 1206.81,-196.91 1241.32,-231.47 1260.91,-252.93"/>
<polygon fill="#63b8ff" stroke="#63b8ff" points="1258.3,-255.25 1267.57,-260.37 1263.51,-250.59 1258.3,-255.25"/>
</a>
</g>
</g>
<!-- Node10&#45;&gt;Node9 -->
<g id="edge12_Node000010_Node000009" class="edge">
<title>Node10&#45;&gt;Node9</title>
<g id="a_edge12_Node000010_Node000009"><a xlink:title=" ">
<path fill="none" stroke="#63b8ff" d="M951.22,-272C1041.45,-272 1193.21,-272 1252.6,-272"/>
<polygon fill="#63b8ff" stroke="#63b8ff" points="1252.31,-275.5 1262.31,-272 1252.31,-268.5 1252.31,-275.5"/>
</a>
</g>
</g>
</g>
</svg>

<g id="navigator" transform="translate(0 0)" fill="#404254">
  <rect fill="#f2f5e9" fill-opacity="0.5" stroke="#606060" stroke-width=".5" x="0" y="0" width="60" height="60"/>
  <use id="zoomplus" xlink:href="#zoomPlus" x="17" y="9" onmousedown="handleZoom(evt,'in')"/>
  <use id="zoomminus" xlink:href="#zoomMin" x="42" y="9" onmousedown="handleZoom(evt,'out')"/>
  <use id="reset" xlink:href="#resetDef" x="30" y="36" onmousedown="handleReset()"/>
   <use id="arrowup" xlink:href="#arrowUp" x="0" y="0" onmousedown="handlePan(0,-1)"/>
  <use id="arrowright" xlink:href="#arrowRight" x="0" y="0" onmousedown="handlePan(1,0)"/>
  <use id="arrowdown" xlink:href="#arrowDown" x="0" y="0" onmousedown="handlePan(0,1)"/>
  <use id="arrowleft" xlink:href="#arrowLeft" x="0" y="0" onmousedown="handlePan(-1,0)"/>
</g>
<svg viewBox="0 0 15 15" width="100%" height="30px" preserveAspectRatio="xMaxYMin meet">
 <g id="arrow_out" transform="scale(0.3 0.3)">
  <a xlink:href="classediteurpanovisu_1_1GestionnairePlanController_a6ca25de825e710388268b0a3ced9d868_cgraph_org.svg" target="_base">
   <rect id="button" ry="5" rx="5" y="6" x="6" height="38" width="38"
        fill="#f2f5e9" fill-opacity="0.5" stroke="#606060" stroke-width="1.0"/>
   <path id="arrow"
     d="M 11.500037,31.436501 C 11.940474,20.09759 22.043105,11.32322 32.158766,21.979434 L 37.068811,17.246167 C 37.068811,17.246167 37.088388,32 37.088388,32 L 22.160133,31.978069 C 22.160133,31.978069 26.997745,27.140456 26.997745,27.140456 C 18.528582,18.264221 13.291696,25.230495 11.500037,31.436501 z"
     style="fill:#404040;"/>
  </a>
 </g>
</svg>

<style type='text/css'>
<![CDATA[
[data-mouse-over-selected='false'] { opacity: 0.7; }
[data-mouse-over-selected='true']  { opacity: 1.0; }
]]>
</style>
<script type="application/ecmascript"><![CDATA[
document.addEventListener('DOMContentLoaded', (event) => {
  highlightEdges();
  highlightAdjacentNodes();
});
]]></script>
</svg>
