<?xml version="1.0" encoding="UTF-8" standalone="no"?>
<!DOCTYPE svg PUBLIC "-//W3C//DTD SVG 1.1//EN"
 "http://www.w3.org/Graphics/SVG/1.1/DTD/svg11.dtd">
<!-- Generated by graphviz version 13.1.2 (20250808.2320)
 -->
<!-- Title: editeurpanovisu.TransformationsPanoramique.cube2rect Pages: 1 -->
<svg width="2437pt" height="501pt"
 viewBox="0.00 0.00 2437.00 501.00" xmlns="http://www.w3.org/2000/svg" xmlns:xlink="http://www.w3.org/1999/xlink">
<g id="graph0" class="graph" transform="scale(1 1) rotate(0) translate(4 497)">
<title>editeurpanovisu.TransformationsPanoramique.cube2rect</title>
<!-- Node1 -->
<g id="Node000001" class="node">
<title>Node1</title>
<g id="a_Node000001"><a xlink:title=" ">
<polygon fill="#999999" stroke="#666666" points="2429,-167 2271.25,-167 2271.25,-135 2429,-135 2429,-167"/>
<text xml:space="preserve" text-anchor="start" x="2279.25" y="-153.5" font-family="Helvetica,sans-Serif" font-size="10.00">editeurpanovisu.Transformations</text>
<text xml:space="preserve" text-anchor="middle" x="2350.12" y="-141.5" font-family="Helvetica,sans-Serif" font-size="10.00">Panoramique.cube2rect</text>
</a>
</g>
</g>
<!-- Node2 -->
<g id="Node000002" class="node">
<title>Node2</title>
<g id="a_Node000002"><a xlink:href="classediteurpanovisu_1_1EditeurPanovisu.html#a50e220de3f9a12fde56a2f23e2f59cd2" target="_top" xlink:title=" ">
<polygon fill="white" stroke="#666666" points="2235.25,-230 2047.5,-230 2047.5,-198 2235.25,-198 2235.25,-230"/>
<text xml:space="preserve" text-anchor="start" x="2055.5" y="-216.5" font-family="Helvetica,sans-Serif" font-size="10.00">editeurpanovisu.EditeurPanovisu.ajoute</text>
<text xml:space="preserve" text-anchor="middle" x="2141.38" y="-204.5" font-family="Helvetica,sans-Serif" font-size="10.00">PanoramiqueProjet</text>
</a>
</g>
</g>
<!-- Node1&#45;&gt;Node2 -->
<g id="edge1_Node000001_Node000002" class="edge">
<title>Node1&#45;&gt;Node2</title>
<g id="a_edge1_Node000001_Node000002"><a xlink:title=" ">
<path fill="none" stroke="#63b8ff" d="M2284.11,-170.81C2255.92,-179.4 2223.3,-189.34 2196.47,-197.52"/>
<polygon fill="#63b8ff" stroke="#63b8ff" points="2285.08,-174.17 2293.63,-167.91 2283.04,-167.48 2285.08,-174.17"/>
</a>
</g>
</g>
<!-- Node18 -->
<g id="Node000018" class="node">
<title>Node18</title>
<g id="a_Node000018"><a xlink:href="classediteurpanovisu_1_1EquiCubeDialogController.html#a859d7bcbdb37f828495100df8fa4f397" target="_top" xlink:title=" ">
<polygon fill="white" stroke="#666666" points="2211.25,-142 2071.5,-142 2071.5,-110 2211.25,-110 2211.25,-142"/>
<text xml:space="preserve" text-anchor="start" x="2079.5" y="-128.5" font-family="Helvetica,sans-Serif" font-size="10.00">editeurpanovisu.EquiCube</text>
<text xml:space="preserve" text-anchor="middle" x="2141.38" y="-116.5" font-family="Helvetica,sans-Serif" font-size="10.00">DialogController.traiteFichier</text>
</a>
</g>
</g>
<!-- Node1&#45;&gt;Node18 -->
<g id="edge32_Node000001_Node000018" class="edge">
<title>Node1&#45;&gt;Node18</title>
<g id="a_edge32_Node000001_Node000018"><a xlink:title=" ">
<path fill="none" stroke="#63b8ff" d="M2259.85,-140.2C2243.66,-138.25 2226.99,-136.23 2211.49,-134.36"/>
<polygon fill="#63b8ff" stroke="#63b8ff" points="2259.11,-143.64 2269.46,-141.37 2259.95,-136.69 2259.11,-143.64"/>
</a>
</g>
</g>
<!-- Node2&#45;&gt;Node2 -->
<g id="edge2_Node000002_Node000002" class="edge">
<title>Node2&#45;&gt;Node2</title>
<g id="a_edge2_Node000002_Node000002"><a xlink:title=" ">
<path fill="none" stroke="#63b8ff" d="M2176.41,-241.54C2170.69,-245.41 2159.02,-248 2141.38,-248 2109.57,-248 2097.15,-239.58 2104.11,-230.44"/>
<polygon fill="#63b8ff" stroke="#63b8ff" points="2179.8,-242.42 2178.34,-231.93 2172.94,-241.04 2179.8,-242.42"/>
</a>
</g>
</g>
<!-- Node3 -->
<g id="Node000003" class="node">
<title>Node3</title>
<g id="a_Node000003"><a xlink:href="classediteurpanovisu_1_1EditeurPanovisu.html#a87b29dc258cfc67370b1f27809e91b8e" target="_top" xlink:title=" ">
<polygon fill="white" stroke="#666666" points="2011.5,-230 1836.5,-230 1836.5,-198 2011.5,-198 2011.5,-230"/>
<text xml:space="preserve" text-anchor="start" x="1844.5" y="-216.5" font-family="Helvetica,sans-Serif" font-size="10.00">editeurpanovisu.EditeurPanovisu.tsk</text>
<text xml:space="preserve" text-anchor="middle" x="1924" y="-204.5" font-family="Helvetica,sans-Serif" font-size="10.00">AnalyseFichierPVU</text>
</a>
</g>
</g>
<!-- Node2&#45;&gt;Node3 -->
<g id="edge3_Node000002_Node000003" class="edge">
<title>Node2&#45;&gt;Node3</title>
<g id="a_edge3_Node000002_Node000003"><a xlink:title=" ">
<path fill="none" stroke="#63b8ff" d="M2035.86,-214C2027.84,-214 2019.79,-214 2011.9,-214"/>
<polygon fill="#63b8ff" stroke="#63b8ff" points="2035.65,-217.5 2045.65,-214 2035.65,-210.5 2035.65,-217.5"/>
</a>
</g>
</g>
<!-- Node16 -->
<g id="Node000016" class="node">
<title>Node16</title>
<g id="a_Node000016"><a xlink:href="classediteurpanovisu_1_1EditeurPanovisu.html#a53cccf6a6b2693c872947460b66ae8ee" target="_top" xlink:title=" ">
<polygon fill="white" stroke="#666666" points="1350,-460 1175,-460 1175,-428 1350,-428 1350,-460"/>
<text xml:space="preserve" text-anchor="start" x="1183" y="-446.5" font-family="Helvetica,sans-Serif" font-size="10.00">editeurpanovisu.EditeurPanovisu.tsk</text>
<text xml:space="preserve" text-anchor="middle" x="1262.5" y="-434.5" font-family="Helvetica,sans-Serif" font-size="10.00">ChargeListeFichiers</text>
</a>
</g>
</g>
<!-- Node2&#45;&gt;Node16 -->
<g id="edge28_Node000002_Node000016" class="edge">
<title>Node2&#45;&gt;Node16</title>
<g id="a_edge28_Node000002_Node000016"><a xlink:title=" ">
<path fill="none" stroke="#63b8ff" d="M2066.64,-233.34C1897.57,-277.69 1484.36,-386.07 1326.35,-427.51"/>
<polygon fill="#63b8ff" stroke="#63b8ff" points="2067.42,-236.76 2076.2,-230.83 2065.64,-229.98 2067.42,-236.76"/>
</a>
</g>
</g>
<!-- Node4 -->
<g id="Node000004" class="node">
<title>Node4</title>
<g id="a_Node000004"><a xlink:href="classediteurpanovisu_1_1EditeurPanovisu.html#ab4beb1597b660a4a253befc6e76f1c54" target="_top" xlink:title=" ">
<polygon fill="white" stroke="#666666" points="1131.12,-208 945.62,-208 945.62,-176 1131.12,-176 1131.12,-208"/>
<text xml:space="preserve" text-anchor="start" x="953.62" y="-194.5" font-family="Helvetica,sans-Serif" font-size="10.00">editeurpanovisu.EditeurPanovisu.projet</text>
<text xml:space="preserve" text-anchor="middle" x="1038.38" y="-182.5" font-family="Helvetica,sans-Serif" font-size="10.00">Charge</text>
</a>
</g>
</g>
<!-- Node3&#45;&gt;Node4 -->
<g id="edge4_Node000003_Node000004" class="edge">
<title>Node3&#45;&gt;Node4</title>
<g id="a_edge4_Node000003_Node000004"><a xlink:title=" ">
<path fill="none" stroke="#63b8ff" d="M1824.95,-211.56C1652.98,-207.28 1299.33,-198.47 1131.58,-194.3"/>
<polygon fill="#63b8ff" stroke="#63b8ff" points="1824.66,-215.05 1834.75,-211.8 1824.84,-208.05 1824.66,-215.05"/>
</a>
</g>
</g>
<!-- Node7 -->
<g id="Node000007" class="node">
<title>Node7</title>
<g id="a_Node000007"><a xlink:href="classediteurpanovisu_1_1EditeurPanovisu.html#a6d19b4d885ee6fcec827b91956295732" target="_top" xlink:title=" ">
<polygon fill="white" stroke="#666666" points="1800.5,-170 1615,-170 1615,-138 1800.5,-138 1800.5,-170"/>
<text xml:space="preserve" text-anchor="start" x="1623" y="-156.5" font-family="Helvetica,sans-Serif" font-size="10.00">editeurpanovisu.EditeurPanovisu.projet</text>
<text xml:space="preserve" text-anchor="middle" x="1707.75" y="-144.5" font-family="Helvetica,sans-Serif" font-size="10.00">ChargeNom</text>
</a>
</g>
</g>
<!-- Node3&#45;&gt;Node7 -->
<g id="edge7_Node000003_Node000007" class="edge">
<title>Node3&#45;&gt;Node7</title>
<g id="a_edge7_Node000003_Node000007"><a xlink:title=" ">
<path fill="none" stroke="#63b8ff" d="M1853.34,-194.49C1825.59,-186.72 1794.01,-177.88 1767.45,-170.44"/>
<polygon fill="#63b8ff" stroke="#63b8ff" points="1852.14,-197.79 1862.71,-197.12 1854.03,-191.05 1852.14,-197.79"/>
</a>
</g>
</g>
<!-- Node5 -->
<g id="Node000005" class="node">
<title>Node5</title>
<g id="a_Node000005"><a xlink:href="classediteurpanovisu_1_1EditeurPanovisu.html#ac912b80c1f2ac97def60ff005c5c480b" target="_top" xlink:title=" ">
<polygon fill="white" stroke="#666666" points="420.5,-227 216.25,-227 216.25,-207 420.5,-207 420.5,-227"/>
<text xml:space="preserve" text-anchor="middle" x="318.38" y="-213.5" font-family="Helvetica,sans-Serif" font-size="10.00">editeurpanovisu.EditeurPanovisu.creeMenu</text>
</a>
</g>
</g>
<!-- Node4&#45;&gt;Node5 -->
<g id="edge5_Node000004_Node000005" class="edge">
<title>Node4&#45;&gt;Node5</title>
<g id="a_edge5_Node000004_Node000005"><a xlink:title=" ">
<path fill="none" stroke="#63b8ff" d="M934.04,-195.6C797.04,-200.37 556.8,-208.73 420.78,-213.47"/>
<polygon fill="#63b8ff" stroke="#63b8ff" points="933.96,-199.1 943.83,-195.26 933.72,-192.11 933.96,-199.1"/>
</a>
</g>
</g>
<!-- Node6 -->
<g id="Node000006" class="node">
<title>Node6</title>
<g id="a_Node000006"><a xlink:href="classediteurpanovisu_1_1EditeurPanovisu.html#a86c393eee88f54c694db994ddd85b90d" target="_top" xlink:title=" ">
<polygon fill="white" stroke="#666666" points="180.25,-233 0,-233 0,-201 180.25,-201 180.25,-233"/>
<text xml:space="preserve" text-anchor="start" x="8" y="-219.5" font-family="Helvetica,sans-Serif" font-size="10.00">editeurpanovisu.EditeurPanovisu.cree</text>
<text xml:space="preserve" text-anchor="middle" x="90.12" y="-207.5" font-family="Helvetica,sans-Serif" font-size="10.00">Environnement</text>
</a>
</g>
</g>
<!-- Node5&#45;&gt;Node6 -->
<g id="edge6_Node000005_Node000006" class="edge">
<title>Node5&#45;&gt;Node6</title>
<g id="a_edge6_Node000005_Node000006"><a xlink:title=" ">
<path fill="none" stroke="#63b8ff" d="M204.51,-217C196.49,-217 188.46,-217 180.6,-217"/>
<polygon fill="#63b8ff" stroke="#63b8ff" points="204.32,-220.5 214.32,-217 204.32,-213.5 204.32,-220.5"/>
</a>
</g>
</g>
<!-- Node7&#45;&gt;Node5 -->
<g id="edge27_Node000007_Node000005" class="edge">
<title>Node7&#45;&gt;Node5</title>
<g id="a_edge27_Node000007_Node000005"><a xlink:title=" ">
<path fill="none" stroke="#63b8ff" d="M1620.4,-135.49C1606.6,-132.99 1592.44,-130.71 1579,-129 1439.65,-111.25 1403.98,-110 1263.5,-110 1263.5,-110 1263.5,-110 810.62,-110 651.86,-110 609.42,-114.31 456.5,-157 412.45,-169.3 364.16,-193.04 338.27,-206.69"/>
<polygon fill="#63b8ff" stroke="#63b8ff" points="1619.4,-138.86 1629.87,-137.24 1620.68,-131.98 1619.4,-138.86"/>
</a>
</g>
</g>
<!-- Node8 -->
<g id="Node000008" class="node">
<title>Node8</title>
<g id="a_Node000008"><a xlink:href="classediteurpanovisu_1_1EditeurPanovisu.html#af0d1c32bb78acbff561c822a0d15f760" target="_top" xlink:title=" ">
<polygon fill="white" stroke="#666666" points="1579,-170 1391.25,-170 1391.25,-138 1579,-138 1579,-170"/>
<text xml:space="preserve" text-anchor="start" x="1399.25" y="-156.5" font-family="Helvetica,sans-Serif" font-size="10.00">editeurpanovisu.EditeurPanovisu.ajoute</text>
<text xml:space="preserve" text-anchor="middle" x="1485.12" y="-144.5" font-family="Helvetica,sans-Serif" font-size="10.00">FichierHisto</text>
</a>
</g>
</g>
<!-- Node7&#45;&gt;Node8 -->
<g id="edge8_Node000007_Node000008" class="edge">
<title>Node7&#45;&gt;Node8</title>
<g id="a_edge8_Node000007_Node000008"><a xlink:title=" ">
<path fill="none" stroke="#63b8ff" d="M1603.47,-147.26C1595.42,-147.23 1587.33,-147.25 1579.36,-147.32"/>
<polygon fill="#63b8ff" stroke="#63b8ff" points="1603.25,-150.76 1613.27,-147.32 1603.29,-143.76 1603.25,-150.76"/>
</a>
</g>
</g>
<!-- Node8&#45;&gt;Node4 -->
<g id="edge9_Node000008_Node000004" class="edge">
<title>Node8&#45;&gt;Node4</title>
<g id="a_edge9_Node000008_Node000004"><a xlink:title=" ">
<path fill="none" stroke="#63b8ff" d="M1379.5,-162.94C1304.2,-169.37 1203.58,-177.97 1131.34,-184.14"/>
<polygon fill="#63b8ff" stroke="#63b8ff" points="1379.72,-166.43 1389.38,-162.09 1379.12,-159.46 1379.72,-166.43"/>
</a>
</g>
</g>
<!-- Node8&#45;&gt;Node7 -->
<g id="edge10_Node000008_Node000007" class="edge">
<title>Node8&#45;&gt;Node7</title>
<g id="a_edge10_Node000008_Node000007"><a xlink:title=" ">
<path fill="none" stroke="#63b8ff" d="M1590.69,-160.74C1598.74,-160.76 1606.83,-160.74 1614.78,-160.67"/>
<polygon fill="#63b8ff" stroke="#63b8ff" points="1590.9,-157.24 1580.88,-160.69 1590.86,-164.24 1590.9,-157.24"/>
</a>
</g>
</g>
<!-- Node9 -->
<g id="Node000009" class="node">
<title>Node9</title>
<g id="a_Node000009"><a xlink:href="classediteurpanovisu_1_1EditeurPanovisu.html#a9f3ea25b35d4884524508dab3dc4fd6a" target="_top" xlink:title=" ">
<polygon fill="white" stroke="#666666" points="1355.25,-296 1169.75,-296 1169.75,-264 1355.25,-264 1355.25,-296"/>
<text xml:space="preserve" text-anchor="start" x="1177.75" y="-282.5" font-family="Helvetica,sans-Serif" font-size="10.00">editeurpanovisu.EditeurPanovisu.projet</text>
<text xml:space="preserve" text-anchor="middle" x="1262.5" y="-270.5" font-family="Helvetica,sans-Serif" font-size="10.00">Sauve</text>
</a>
</g>
</g>
<!-- Node8&#45;&gt;Node9 -->
<g id="edge11_Node000008_Node000009" class="edge">
<title>Node8&#45;&gt;Node9</title>
<g id="a_edge11_Node000008_Node000009"><a xlink:title=" ">
<path fill="none" stroke="#63b8ff" d="M1412.91,-174.29C1405.45,-177.21 1398.1,-180.45 1391.25,-184 1348.4,-206.22 1304.78,-242.59 1281.23,-263.6"/>
<polygon fill="#63b8ff" stroke="#63b8ff" points="1413.91,-177.65 1422.07,-170.89 1411.47,-171.09 1413.91,-177.65"/>
</a>
</g>
</g>
<!-- Node15 -->
<g id="Node000015" class="node">
<title>Node15</title>
<g id="a_Node000015"><a xlink:href="classediteurpanovisu_1_1EditeurPanovisu.html#a7b2e25dc717eb52b62e23d54ec4c124a" target="_top" xlink:title=" ">
<polygon fill="white" stroke="#666666" points="904.38,-170 718.88,-170 718.88,-138 904.38,-138 904.38,-170"/>
<text xml:space="preserve" text-anchor="start" x="726.88" y="-156.5" font-family="Helvetica,sans-Serif" font-size="10.00">editeurpanovisu.EditeurPanovisu.projet</text>
<text xml:space="preserve" text-anchor="middle" x="811.62" y="-144.5" font-family="Helvetica,sans-Serif" font-size="10.00">SauveSous</text>
</a>
</g>
</g>
<!-- Node8&#45;&gt;Node15 -->
<g id="edge25_Node000008_Node000015" class="edge">
<title>Node8&#45;&gt;Node15</title>
<g id="a_edge25_Node000008_Node000015"><a xlink:title=" ">
<path fill="none" stroke="#63b8ff" d="M1379.6,-154C1249.35,-154 1028.81,-154 904.66,-154"/>
<polygon fill="#63b8ff" stroke="#63b8ff" points="1379.24,-157.5 1389.24,-154 1379.24,-150.5 1379.24,-157.5"/>
</a>
</g>
</g>
<!-- Node9&#45;&gt;Node4 -->
<g id="edge15_Node000009_Node000004" class="edge">
<title>Node9&#45;&gt;Node4</title>
<g id="a_edge15_Node000009_Node000004"><a xlink:title=" ">
<path fill="none" stroke="#63b8ff" d="M1190.51,-259.54C1183.35,-256.67 1176.31,-253.49 1169.75,-250 1151.85,-240.49 1151.69,-231.44 1133.75,-222 1123.86,-216.8 1112.91,-212.3 1102.07,-208.49"/>
<polygon fill="#63b8ff" stroke="#63b8ff" points="1189.03,-262.72 1199.63,-263 1191.52,-256.18 1189.03,-262.72"/>
</a>
</g>
</g>
<!-- Node9&#45;&gt;Node5 -->
<g id="edge12_Node000009_Node000005" class="edge">
<title>Node9&#45;&gt;Node5</title>
<g id="a_edge12_Node000009_Node000005"><a xlink:title=" ">
<path fill="none" stroke="#63b8ff" d="M1158.01,-273.08C976.06,-260.91 601.05,-235.84 420.66,-223.77"/>
<polygon fill="#63b8ff" stroke="#63b8ff" points="1157.73,-276.57 1167.94,-273.74 1158.2,-269.58 1157.73,-276.57"/>
</a>
</g>
</g>
<!-- Node9&#45;&gt;Node7 -->
<g id="edge16_Node000009_Node000007" class="edge">
<title>Node9&#45;&gt;Node7</title>
<g id="a_edge16_Node000009_Node000007"><a xlink:title=" ">
<path fill="none" stroke="#63b8ff" d="M1332.27,-260.45C1419.21,-235.74 1567.34,-193.63 1648.8,-170.47"/>
<polygon fill="#63b8ff" stroke="#63b8ff" points="1331.58,-257.01 1322.92,-263.11 1333.49,-263.74 1331.58,-257.01"/>
</a>
</g>
</g>
<!-- Node10 -->
<g id="Node000010" class="node">
<title>Node10</title>
<g id="a_Node000010"><a xlink:href="classediteurpanovisu_1_1EditeurPanovisu.html#a94e36b9e9d09ab1a4c852b8a8cefa927" target="_top" xlink:title=" ">
<polygon fill="white" stroke="#666666" points="663.75,-296 473,-296 473,-264 663.75,-264 663.75,-296"/>
<text xml:space="preserve" text-anchor="start" x="481" y="-282.5" font-family="Helvetica,sans-Serif" font-size="10.00">editeurpanovisu.EditeurPanovisu.genere</text>
<text xml:space="preserve" text-anchor="middle" x="568.38" y="-270.5" font-family="Helvetica,sans-Serif" font-size="10.00">Visite</text>
</a>
</g>
</g>
<!-- Node9&#45;&gt;Node10 -->
<g id="edge13_Node000009_Node000010" class="edge">
<title>Node9&#45;&gt;Node10</title>
<g id="a_edge13_Node000009_Node000010"><a xlink:title=" ">
<path fill="none" stroke="#63b8ff" d="M1158.16,-280C1024.49,-280 793.52,-280 664.16,-280"/>
<polygon fill="#63b8ff" stroke="#63b8ff" points="1158.08,-283.5 1168.08,-280 1158.08,-276.5 1158.08,-283.5"/>
</a>
</g>
</g>
<!-- Node11 -->
<g id="Node000011" class="node">
<title>Node11</title>
<g id="a_Node000011"><a xlink:href="classediteurpanovisu_1_1EditeurPanovisu.html#a9b46b222714af12c06ec33d410400773" target="_top" xlink:title=" ">
<polygon fill="white" stroke="#666666" points="907,-383 716.25,-383 716.25,-351 907,-351 907,-383"/>
<text xml:space="preserve" text-anchor="start" x="724.25" y="-369.5" font-family="Helvetica,sans-Serif" font-size="10.00">editeurpanovisu.EditeurPanovisu.projets</text>
<text xml:space="preserve" text-anchor="middle" x="811.62" y="-357.5" font-family="Helvetica,sans-Serif" font-size="10.00">Fermer</text>
</a>
</g>
</g>
<!-- Node9&#45;&gt;Node11 -->
<g id="edge17_Node000009_Node000011" class="edge">
<title>Node9&#45;&gt;Node11</title>
<g id="a_edge17_Node000009_Node000011"><a xlink:title=" ">
<path fill="none" stroke="#63b8ff" d="M1240.32,-304.4C1217.07,-329.15 1177.23,-365.89 1133.75,-381 1048.75,-410.54 943.43,-397.31 877.1,-383.47"/>
<polygon fill="#63b8ff" stroke="#63b8ff" points="1242.64,-307.06 1246.81,-297.32 1237.47,-302.33 1242.64,-307.06"/>
</a>
</g>
</g>
<!-- Node12 -->
<g id="Node000012" class="node">
<title>Node12</title>
<g id="a_Node000012"><a xlink:href="classediteurpanovisu_1_1EditeurPanovisu.html#ac9d449399ccd38843fa12e716f0c9611" target="_top" xlink:title=" ">
<polygon fill="white" stroke="#666666" points="1133.75,-460 943,-460 943,-428 1133.75,-428 1133.75,-460"/>
<text xml:space="preserve" text-anchor="start" x="951" y="-446.5" font-family="Helvetica,sans-Serif" font-size="10.00">editeurpanovisu.EditeurPanovisu.projets</text>
<text xml:space="preserve" text-anchor="middle" x="1038.38" y="-434.5" font-family="Helvetica,sans-Serif" font-size="10.00">Nouveau</text>
</a>
</g>
</g>
<!-- Node9&#45;&gt;Node12 -->
<g id="edge19_Node000009_Node000012" class="edge">
<title>Node9&#45;&gt;Node12</title>
<g id="a_edge19_Node000009_Node000012"><a xlink:title=" ">
<path fill="none" stroke="#63b8ff" d="M1243.84,-305.12C1221.48,-335.14 1180.24,-384.95 1133.75,-414 1125.15,-419.38 1115.5,-423.87 1105.74,-427.6"/>
<polygon fill="#63b8ff" stroke="#63b8ff" points="1246.45,-307.48 1249.52,-297.34 1240.8,-303.35 1246.45,-307.48"/>
</a>
</g>
</g>
<!-- Node13 -->
<g id="Node000013" class="node">
<title>Node13</title>
<g id="a_Node000013"><a xlink:href="classediteurpanovisu_1_1EditeurPanovisu.html#a2b3125ffe2e6291efacf19df6cb30a8d" target="_top" xlink:title=" ">
<polygon fill="white" stroke="#666666" points="902.12,-322 721.12,-322 721.12,-302 902.12,-302 902.12,-322"/>
<text xml:space="preserve" text-anchor="middle" x="811.62" y="-308.5" font-family="Helvetica,sans-Serif" font-size="10.00">editeurpanovisu.EditeurPanovisu.start</text>
</a>
</g>
</g>
<!-- Node9&#45;&gt;Node13 -->
<g id="edge24_Node000009_Node000013" class="edge">
<title>Node9&#45;&gt;Node13</title>
<g id="a_edge24_Node000009_Node000013"><a xlink:title=" ">
<path fill="none" stroke="#63b8ff" d="M1158.11,-287.37C1080.82,-292.88 976.2,-300.34 902.4,-305.6"/>
<polygon fill="#63b8ff" stroke="#63b8ff" points="1158.07,-290.88 1167.8,-286.68 1157.58,-283.9 1158.07,-290.88"/>
</a>
</g>
</g>
<!-- Node14 -->
<g id="Node000014" class="node">
<title>Node14</title>
<g id="a_Node000014"><a xlink:href="classediteurpanovisu_1_1EditeurPanovisu.html#aef8c9b28c3e88d6e27e3f62b9a901134" target="_top" xlink:title=" ">
<polygon fill="white" stroke="#666666" points="1132.25,-372 944.5,-372 944.5,-340 1132.25,-340 1132.25,-372"/>
<text xml:space="preserve" text-anchor="start" x="952.5" y="-358.5" font-family="Helvetica,sans-Serif" font-size="10.00">editeurpanovisu.EditeurPanovisu.sauve</text>
<text xml:space="preserve" text-anchor="middle" x="1038.38" y="-346.5" font-family="Helvetica,sans-Serif" font-size="10.00">Fichiers</text>
</a>
</g>
</g>
<!-- Node9&#45;&gt;Node14 -->
<g id="edge23_Node000009_Node000014" class="edge">
<title>Node9&#45;&gt;Node14</title>
<g id="a_edge23_Node000009_Node000014"><a xlink:title=" ">
<path fill="none" stroke="#63b8ff" d="M1206.32,-300.38C1183.87,-308.54 1157.64,-317.91 1133.75,-326 1120.4,-330.52 1105.92,-335.23 1092.4,-339.53"/>
<polygon fill="#63b8ff" stroke="#63b8ff" points="1207.39,-303.72 1215.59,-297.01 1204.99,-297.14 1207.39,-303.72"/>
</a>
</g>
</g>
<!-- Node10&#45;&gt;Node5 -->
<g id="edge14_Node000010_Node000005" class="edge">
<title>Node10&#45;&gt;Node5</title>
<g id="a_edge14_Node000010_Node000005"><a xlink:title=" ">
<path fill="none" stroke="#63b8ff" d="M491.51,-260.73C448.39,-249.77 396.07,-236.48 360.52,-227.45"/>
<polygon fill="#63b8ff" stroke="#63b8ff" points="490.52,-264.09 501.07,-263.16 492.24,-257.3 490.52,-264.09"/>
</a>
</g>
</g>
<!-- Node11&#45;&gt;Node5 -->
<g id="edge18_Node000011_Node000005" class="edge">
<title>Node11&#45;&gt;Node5</title>
<g id="a_edge18_Node000011_Node000005"><a xlink:title=" ">
<path fill="none" stroke="#63b8ff" d="M704.47,-359.48C632.54,-351.74 536.39,-336.17 456.5,-305 406.17,-285.36 354.61,-246.04 331.67,-227.34"/>
<polygon fill="#63b8ff" stroke="#63b8ff" points="703.99,-362.95 714.3,-360.5 704.71,-355.98 703.99,-362.95"/>
</a>
</g>
</g>
<!-- Node12&#45;&gt;Node5 -->
<g id="edge20_Node000012_Node000005" class="edge">
<title>Node12&#45;&gt;Node5</title>
<g id="a_edge20_Node000012_Node000005"><a xlink:title=" ">
<path fill="none" stroke="#63b8ff" d="M931.19,-443.93C810.17,-439.85 609.35,-420.67 456.5,-344 397.62,-314.47 345.9,-251.91 327,-227.28"/>
<polygon fill="#63b8ff" stroke="#63b8ff" points="931.04,-447.43 941.14,-444.24 931.25,-440.43 931.04,-447.43"/>
</a>
</g>
</g>
<!-- Node12&#45;&gt;Node13 -->
<g id="edge21_Node000012_Node000013" class="edge">
<title>Node12&#45;&gt;Node13</title>
<g id="a_edge21_Node000012_Node000013"><a xlink:title=" ">
<path fill="none" stroke="#63b8ff" d="M999.75,-421.77C981.85,-410.49 960.57,-396.01 943,-381 925.06,-365.68 926.9,-354.66 907,-342 893.36,-333.33 877.02,-326.98 861.79,-322.42"/>
<polygon fill="#63b8ff" stroke="#63b8ff" points="997.67,-424.6 1008.02,-426.9 1001.36,-418.65 997.67,-424.6"/>
</a>
</g>
</g>
<!-- Node13&#45;&gt;Node10 -->
<g id="edge22_Node000013_Node000010" class="edge">
<title>Node13&#45;&gt;Node10</title>
<g id="a_edge22_Node000013_Node000010"><a xlink:title=" ">
<path fill="none" stroke="#63b8ff" d="M720.34,-300.02C701.98,-297.59 682.61,-295.02 664.1,-292.56"/>
<polygon fill="#63b8ff" stroke="#63b8ff" points="719.76,-303.48 730.13,-301.32 720.68,-296.54 719.76,-303.48"/>
</a>
</g>
</g>
<!-- Node15&#45;&gt;Node5 -->
<g id="edge26_Node000015_Node000005" class="edge">
<title>Node15&#45;&gt;Node5</title>
<g id="a_edge26_Node000015_Node000005"><a xlink:title=" ">
<path fill="none" stroke="#63b8ff" d="M707.28,-158.61C636.38,-162.79 540.33,-170.44 456.5,-184 422.05,-189.57 383.47,-199.16 356.02,-206.58"/>
<polygon fill="#63b8ff" stroke="#63b8ff" points="707.15,-162.13 716.93,-158.06 706.75,-155.14 707.15,-162.13"/>
</a>
</g>
</g>
<!-- Node16&#45;&gt;Node12 -->
<g id="edge31_Node000016_Node000012" class="edge">
<title>Node16&#45;&gt;Node12</title>
<g id="a_edge31_Node000016_Node000012"><a xlink:title=" ">
<path fill="none" stroke="#63b8ff" d="M1163.38,-444C1153.7,-444 1143.88,-444 1134.23,-444"/>
<polygon fill="#63b8ff" stroke="#63b8ff" points="1163.15,-447.5 1173.15,-444 1163.15,-440.5 1163.15,-447.5"/>
</a>
</g>
</g>
<!-- Node17 -->
<g id="Node000017" class="node">
<title>Node17</title>
<g id="a_Node000017"><a xlink:href="classediteurpanovisu_1_1EditeurPanovisu.html#a924d3ccff3e4f402d2309cd2eade3237" target="_top" xlink:title=" ">
<polygon fill="white" stroke="#666666" points="679.5,-493 457.25,-493 457.25,-461 679.5,-461 679.5,-493"/>
<text xml:space="preserve" text-anchor="start" x="465.25" y="-479.5" font-family="Helvetica,sans-Serif" font-size="10.00">editeurpanovisu.EditeurPanovisu.panoramiques</text>
<text xml:space="preserve" text-anchor="middle" x="568.38" y="-467.5" font-family="Helvetica,sans-Serif" font-size="10.00">Ajouter</text>
</a>
</g>
</g>
<!-- Node16&#45;&gt;Node17 -->
<g id="edge29_Node000016_Node000017" class="edge">
<title>Node16&#45;&gt;Node17</title>
<g id="a_edge29_Node000016_Node000017"><a xlink:title=" ">
<path fill="none" stroke="#63b8ff" d="M1178.09,-462.55C1163.38,-465.18 1148.17,-467.5 1133.75,-469 976.71,-485.35 793.78,-484.28 679.76,-481.25"/>
<polygon fill="#63b8ff" stroke="#63b8ff" points="1178.53,-466.03 1187.73,-460.76 1177.26,-459.14 1178.53,-466.03"/>
</a>
</g>
</g>
<!-- Node17&#45;&gt;Node5 -->
<g id="edge30_Node000017_Node000005" class="edge">
<title>Node17&#45;&gt;Node5</title>
<g id="a_edge30_Node000017_Node000005"><a xlink:title=" ">
<path fill="none" stroke="#63b8ff" d="M490.83,-456.31C478.59,-450.92 466.64,-444.24 456.5,-436 381.67,-375.15 335.81,-262.04 323.04,-227.37"/>
<polygon fill="#63b8ff" stroke="#63b8ff" points="489.16,-459.41 499.74,-459.96 491.82,-452.93 489.16,-459.41"/>
</a>
</g>
</g>
<!-- Node19 -->
<g id="Node000019" class="node">
<title>Node19</title>
<g id="a_Node000019"><a xlink:href="classediteurpanovisu_1_1EquiCubeDialogController.html#a01c288eacc25996544414cc5e9ceb0a1" target="_top" xlink:title=" ">
<polygon fill="white" stroke="#666666" points="1998.38,-122 1849.62,-122 1849.62,-90 1998.38,-90 1998.38,-122"/>
<text xml:space="preserve" text-anchor="start" x="1857.62" y="-108.5" font-family="Helvetica,sans-Serif" font-size="10.00">editeurpanovisu.EquiCube</text>
<text xml:space="preserve" text-anchor="middle" x="1924" y="-96.5" font-family="Helvetica,sans-Serif" font-size="10.00">DialogController.tskTraitement</text>
</a>
</g>
</g>
<!-- Node18&#45;&gt;Node19 -->
<g id="edge33_Node000018_Node000019" class="edge">
<title>Node18&#45;&gt;Node19</title>
<g id="a_edge33_Node000018_Node000019"><a xlink:title=" ">
<path fill="none" stroke="#63b8ff" d="M2059.75,-118.51C2039.71,-116.65 2018.34,-114.67 1998.66,-112.84"/>
<polygon fill="#63b8ff" stroke="#63b8ff" points="2059.26,-121.98 2069.54,-119.42 2059.9,-115.01 2059.26,-121.98"/>
</a>
</g>
</g>
<!-- Node20 -->
<g id="Node000020" class="node">
<title>Node20</title>
<g id="a_Node000020"><a xlink:href="classediteurpanovisu_1_1EquiCubeDialogController.html#a29f2bdf8cb9ac2486c6d038ada9c2ce6" target="_top" xlink:title=" ">
<polygon fill="white" stroke="#666666" points="1776.12,-103 1639.38,-103 1639.38,-71 1776.12,-71 1776.12,-103"/>
<text xml:space="preserve" text-anchor="start" x="1647.38" y="-89.5" font-family="Helvetica,sans-Serif" font-size="10.00">editeurpanovisu.EquiCube</text>
<text xml:space="preserve" text-anchor="middle" x="1707.75" y="-77.5" font-family="Helvetica,sans-Serif" font-size="10.00">DialogController.validerE2C</text>
</a>
</g>
</g>
<!-- Node19&#45;&gt;Node20 -->
<g id="edge34_Node000019_Node000020" class="edge">
<title>Node19&#45;&gt;Node20</title>
<g id="a_edge34_Node000019_Node000020"><a xlink:title=" ">
<path fill="none" stroke="#63b8ff" d="M1838.05,-98.47C1817.61,-96.65 1796.04,-94.74 1776.5,-93.01"/>
<polygon fill="#63b8ff" stroke="#63b8ff" points="1837.49,-101.93 1847.76,-99.33 1838.11,-94.96 1837.49,-101.93"/>
</a>
</g>
</g>
<!-- Node21 -->
<g id="Node000021" class="node">
<title>Node21</title>
<g id="a_Node000021"><a xlink:href="classediteurpanovisu_1_1EquiCubeDialogController.html#a05e62237b5363eba15018189320cf5db" target="_top" xlink:title=" ">
<polygon fill="white" stroke="#666666" points="886.75,-82 736.5,-82 736.5,-50 886.75,-50 886.75,-82"/>
<text xml:space="preserve" text-anchor="start" x="744.5" y="-68.5" font-family="Helvetica,sans-Serif" font-size="10.00">editeurpanovisu.EquiCube</text>
<text xml:space="preserve" text-anchor="middle" x="811.62" y="-56.5" font-family="Helvetica,sans-Serif" font-size="10.00">DialogController.afficheFenetre</text>
</a>
</g>
</g>
<!-- Node20&#45;&gt;Node21 -->
<g id="edge35_Node000020_Node000021" class="edge">
<title>Node20&#45;&gt;Node21</title>
<g id="a_edge35_Node000020_Node000021"><a xlink:title=" ">
<path fill="none" stroke="#63b8ff" d="M1627.76,-85.14C1456.7,-81.13 1053.97,-71.67 887.08,-67.75"/>
<polygon fill="#63b8ff" stroke="#63b8ff" points="1627.59,-88.64 1637.67,-85.38 1627.75,-81.64 1627.59,-88.64"/>
</a>
</g>
</g>
<!-- Node22 -->
<g id="Node000022" class="node">
<title>Node22</title>
<g id="a_Node000022"><a xlink:href="classediteurpanovisu_1_1EditeurPanovisu.html#a93957c2097ff96e3588049e82b749c2d" target="_top" xlink:title=" ">
<polygon fill="white" stroke="#666666" points="680.25,-82 456.5,-82 456.5,-50 680.25,-50 680.25,-82"/>
<text xml:space="preserve" text-anchor="start" x="464.5" y="-68.5" font-family="Helvetica,sans-Serif" font-size="10.00">editeurpanovisu.EditeurPanovisu.transformation</text>
<text xml:space="preserve" text-anchor="middle" x="568.38" y="-56.5" font-family="Helvetica,sans-Serif" font-size="10.00">Cube2Equi</text>
</a>
</g>
</g>
<!-- Node21&#45;&gt;Node22 -->
<g id="edge36_Node000021_Node000022" class="edge">
<title>Node21&#45;&gt;Node22</title>
<g id="a_edge36_Node000021_Node000022"><a xlink:title=" ">
<path fill="none" stroke="#63b8ff" d="M724.96,-66C710.63,-66 695.59,-66 680.74,-66"/>
<polygon fill="#63b8ff" stroke="#63b8ff" points="724.76,-69.5 734.76,-66 724.76,-62.5 724.76,-69.5"/>
</a>
</g>
</g>
<!-- Node23 -->
<g id="Node000023" class="node">
<title>Node23</title>
<g id="a_Node000023"><a xlink:href="classediteurpanovisu_1_1EditeurPanovisu.html#a11f8778a8326d6a7dee94344a246ec02" target="_top" xlink:title=" ">
<polygon fill="white" stroke="#666666" points="680.25,-32 456.5,-32 456.5,0 680.25,0 680.25,-32"/>
<text xml:space="preserve" text-anchor="start" x="464.5" y="-18.5" font-family="Helvetica,sans-Serif" font-size="10.00">editeurpanovisu.EditeurPanovisu.transformation</text>
<text xml:space="preserve" text-anchor="middle" x="568.38" y="-6.5" font-family="Helvetica,sans-Serif" font-size="10.00">Equi2Cube</text>
</a>
</g>
</g>
<!-- Node21&#45;&gt;Node23 -->
<g id="edge38_Node000021_Node000023" class="edge">
<title>Node21&#45;&gt;Node23</title>
<g id="a_edge38_Node000021_Node000023"><a xlink:title=" ">
<path fill="none" stroke="#63b8ff" d="M725.06,-48.27C700.27,-43.13 673.32,-37.54 648.92,-32.49"/>
<polygon fill="#63b8ff" stroke="#63b8ff" points="724.29,-51.68 734.79,-50.28 725.71,-44.83 724.29,-51.68"/>
</a>
</g>
</g>
<!-- Node22&#45;&gt;Node5 -->
<g id="edge37_Node000022_Node000005" class="edge">
<title>Node22&#45;&gt;Node5</title>
<g id="a_edge37_Node000022_Node000005"><a xlink:title=" ">
<path fill="none" stroke="#63b8ff" d="M478.05,-86.24C470.59,-89.1 463.3,-92.34 456.5,-96 400.3,-126.24 347.82,-183.59 327.86,-206.83"/>
<polygon fill="#63b8ff" stroke="#63b8ff" points="479.02,-89.61 487.26,-82.95 476.67,-83.01 479.02,-89.61"/>
</a>
</g>
</g>
<!-- Node23&#45;&gt;Node5 -->
<g id="edge39_Node000023_Node000005" class="edge">
<title>Node23&#45;&gt;Node5</title>
<g id="a_edge39_Node000023_Node000005"><a xlink:title=" ">
<path fill="none" stroke="#63b8ff" d="M462.71,-37.35C460.59,-38.51 458.52,-39.72 456.5,-41 387.49,-84.78 339.08,-175.96 324.2,-206.66"/>
<polygon fill="#63b8ff" stroke="#63b8ff" points="464.12,-40.56 471.59,-33.05 461.07,-34.26 464.12,-40.56"/>
</a>
</g>
</g>
</g>
</svg>
