<?xml version="1.0" encoding="UTF-8" standalone="no"?>
<!DOCTYPE svg PUBLIC "-//W3C//DTD SVG 1.1//EN"
 "http://www.w3.org/Graphics/SVG/1.1/DTD/svg11.dtd">
<!-- Generated by graphviz version 13.1.2 (20250808.2320)
 -->
<!-- Title: editeurpanovisu.GestionnaireInterfaceController.getWiNouveauxMasque Pages: 1 -->
<!--zoomable 456 -->

<svg id="main" version="1.1" xmlns="http://www.w3.org/2000/svg" xmlns:xlink="http://www.w3.org/1999/xlink" xml:space="preserve" onload="init(evt)">

<style type="text/css"><![CDATA[
.node, .edge {opacity: 0.7;}
.node.selected, .edge.selected {opacity: 1;}
.edge:hover path { stroke: red; }
.edge:hover polygon { stroke: red; fill: red; }
]]></style>

<defs>
  <circle id="rim" cx="0" cy="0" r="7"/>
  <circle id="rim2" cx="0" cy="0" r="3.5"/>
  <g id="zoomPlus">
    <use xlink:href="#rim" fill="#404040"><set attributeName="fill" to="#808080" begin="zoomplus.mouseover" end="zoomplus.mouseout"/></use>
    <path d="M-4,0h8M0,-4v8" fill="none" stroke="white" stroke-width="1.5" pointer-events="none"/>
  </g>
  <g id="zoomMin">
    <use xlink:href="#rim" fill="#404040"><set attributeName="fill" to="#808080" begin="zoomminus.mouseover" end="zoomminus.mouseout"/></use>
    <path d="M-4,0h8" fill="none" stroke="white" stroke-width="1.5" pointer-events="none"/>
  </g>
  <g id="arrowUp" transform="translate(30 24)">
    <use xlink:href="#rim"/>
    <path pointer-events="none" fill="none" stroke="white" stroke-width="1.5" d="M0,-3.0v7 M-2.5,-0.5L0,-3.0L2.5,-0.5"/>
  </g>
  <g id="arrowRight" transform="rotate(90) translate(36 -43)">
    <use xlink:href="#rim"/>
    <path pointer-events="none" fill="none" stroke="white" stroke-width="1.5" d="M0,-3.0v7 M-2.5,-0.5L0,-3.0L2.5,-0.5"/>
  </g>
  <g id="arrowDown" transform="rotate(180) translate(-30 -48)">
    <use xlink:href="#rim"/>
    <path pointer-events="none" fill="none" stroke="white" stroke-width="1.5" d="M0,-3.0v7 M-2.5,-0.5L0,-3.0L2.5,-0.5"/>
  </g>
  <g id="arrowLeft" transform="rotate(270) translate(-36 17)">
    <use xlink:href="#rim"/>
    <path pointer-events="none" fill="none" stroke="white" stroke-width="1.5" d="M0,-3.0v7 M-2.5,-0.5L0,-3.0L2.5,-0.5"/>
  </g>
  <g id="resetDef">
    <use xlink:href="#rim2" fill="#404040"><set attributeName="fill" to="#808080" begin="reset.mouseover" end="reset.mouseout"/></use>
  </g>
</defs>
<script type="application/ecmascript">
var viewWidth = 3006;
var viewHeight = 456;
var sectionId = 'dynsection-222';
</script>
<script type="application/ecmascript" xlink:href="svg.min.js"/>
<svg id="graph" class="graph">
<g id="viewport">
<title>editeurpanovisu.GestionnaireInterfaceController.getWiNouveauxMasque</title>
<!-- Node1 -->
<g id="Node000001" class="node">
<title>Node1</title>
<g id="a_Node000001"><a xlink:title=" ">
<polygon fill="#999999" stroke="#666666" points="2998.25,-63 2829.25,-63 2829.25,-19 2998.25,-19 2998.25,-63"/>
<text xml:space="preserve" text-anchor="start" x="2837.25" y="-49.5" font-family="Helvetica,sans-Serif" font-size="10.00">editeurpanovisu.Gestionnaire</text>
<text xml:space="preserve" text-anchor="start" x="2837.25" y="-37.5" font-family="Helvetica,sans-Serif" font-size="10.00">InterfaceController.getWiNouveaux</text>
<text xml:space="preserve" text-anchor="middle" x="2913.75" y="-25.5" font-family="Helvetica,sans-Serif" font-size="10.00">Masque</text>
</a>
</g>
</g>
<!-- Node2 -->
<g id="Node000002" class="node">
<title>Node2</title>
<g id="a_Node000002"><a xlink:href="classediteurpanovisu_1_1GestionnaireInterfaceController.html#a8d8afa284f09872cc933fb2c9caa9059" target="_top" xlink:title=" ">
<polygon fill="white" stroke="#666666" points="2793.25,-57 2641.5,-57 2641.5,-25 2793.25,-25 2793.25,-57"/>
<text xml:space="preserve" text-anchor="start" x="2649.5" y="-43.5" font-family="Helvetica,sans-Serif" font-size="10.00">editeurpanovisu.Gestionnaire</text>
<text xml:space="preserve" text-anchor="middle" x="2717.38" y="-31.5" font-family="Helvetica,sans-Serif" font-size="10.00">InterfaceController.chargeBarre</text>
</a>
</g>
</g>
<!-- Node1&#45;&gt;Node2 -->
<g id="edge1_Node000001_Node000002" class="edge">
<title>Node1&#45;&gt;Node2</title>
<g id="a_edge1_Node000001_Node000002"><a xlink:title=" ">
<path fill="none" stroke="#63b8ff" d="M2817.59,-41C2809.57,-41 2801.52,-41 2793.67,-41"/>
<polygon fill="#63b8ff" stroke="#63b8ff" points="2817.39,-44.5 2827.39,-41 2817.39,-37.5 2817.39,-44.5"/>
</a>
</g>
</g>
<!-- Node3 -->
<g id="Node000003" class="node">
<title>Node3</title>
<g id="a_Node000003"><a xlink:href="classediteurpanovisu_1_1GestionnaireInterfaceController.html#af7f1e67219c75f044a231abc76bcf790" target="_top" xlink:title=" ">
<polygon fill="white" stroke="#666666" points="2605.5,-148 2454.5,-148 2454.5,-104 2605.5,-104 2605.5,-148"/>
<text xml:space="preserve" text-anchor="start" x="2462.5" y="-134.5" font-family="Helvetica,sans-Serif" font-size="10.00">editeurpanovisu.Gestionnaire</text>
<text xml:space="preserve" text-anchor="start" x="2462.5" y="-122.5" font-family="Helvetica,sans-Serif" font-size="10.00">InterfaceController.afficheBarre</text>
<text xml:space="preserve" text-anchor="middle" x="2530" y="-110.5" font-family="Helvetica,sans-Serif" font-size="10.00">Classique</text>
</a>
</g>
</g>
<!-- Node2&#45;&gt;Node3 -->
<g id="edge2_Node000002_Node000003" class="edge">
<title>Node2&#45;&gt;Node3</title>
<g id="a_edge2_Node000002_Node000003"><a xlink:title=" ">
<path fill="none" stroke="#63b8ff" d="M2670.48,-62.04C2642.97,-74.66 2607.99,-90.7 2579.95,-103.56"/>
<polygon fill="#63b8ff" stroke="#63b8ff" points="2671.63,-65.37 2679.26,-58.02 2668.71,-59.01 2671.63,-65.37"/>
</a>
</g>
</g>
<!-- Node21 -->
<g id="Node000021" class="node">
<title>Node21</title>
<g id="a_Node000021"><a xlink:href="classediteurpanovisu_1_1GestionnaireInterfaceController.html#ac7fa988dc99d8684686127a2269cd66e" target="_top" xlink:title=" ">
<polygon fill="white" stroke="#666666" points="2000.62,-32 1844.38,-32 1844.38,0 2000.62,0 2000.62,-32"/>
<text xml:space="preserve" text-anchor="start" x="1852.38" y="-18.5" font-family="Helvetica,sans-Serif" font-size="10.00">editeurpanovisu.Gestionnaire</text>
<text xml:space="preserve" text-anchor="middle" x="1922.5" y="-6.5" font-family="Helvetica,sans-Serif" font-size="10.00">InterfaceController.creeInterface</text>
</a>
</g>
</g>
<!-- Node2&#45;&gt;Node21 -->
<g id="edge43_Node000002_Node000021" class="edge">
<title>Node2&#45;&gt;Node21</title>
<g id="a_edge43_Node000002_Node000021"><a xlink:title=" ">
<path fill="none" stroke="#63b8ff" d="M2629.75,-35.38C2529.58,-29.19 2359.7,-19.63 2213.5,-16 2141.53,-14.21 2059.47,-14.42 2001.06,-14.95"/>
<polygon fill="#63b8ff" stroke="#63b8ff" points="2629.31,-38.86 2639.51,-35.99 2629.75,-31.88 2629.31,-38.86"/>
</a>
</g>
</g>
<!-- Node4 -->
<g id="Node000004" class="node">
<title>Node4</title>
<g id="a_Node000004"><a xlink:href="classediteurpanovisu_1_1GestionnaireInterfaceController.html#a7c5cff6934d95be9a4babb6426a5ac26" target="_top" xlink:title=" ">
<polygon fill="white" stroke="#666666" points="2414,-220 2254,-220 2254,-176 2414,-176 2414,-220"/>
<text xml:space="preserve" text-anchor="start" x="2262" y="-206.5" font-family="Helvetica,sans-Serif" font-size="10.00">editeurpanovisu.Gestionnaire</text>
<text xml:space="preserve" text-anchor="start" x="2262" y="-194.5" font-family="Helvetica,sans-Serif" font-size="10.00">InterfaceController.afficheImages</text>
<text xml:space="preserve" text-anchor="middle" x="2334" y="-182.5" font-family="Helvetica,sans-Serif" font-size="10.00">FondInterface</text>
</a>
</g>
</g>
<!-- Node3&#45;&gt;Node4 -->
<g id="edge3_Node000003_Node000004" class="edge">
<title>Node3&#45;&gt;Node4</title>
<g id="a_edge3_Node000003_Node000004"><a xlink:title=" ">
<path fill="none" stroke="#63b8ff" d="M2457.87,-152.4C2437.39,-160 2415.24,-168.22 2395.46,-175.56"/>
<polygon fill="#63b8ff" stroke="#63b8ff" points="2458.84,-155.77 2467,-149.01 2456.4,-149.21 2458.84,-155.77"/>
</a>
</g>
</g>
<!-- Node5 -->
<g id="Node000005" class="node">
<title>Node5</title>
<g id="a_Node000005"><a xlink:href="classediteurpanovisu_1_1GestionnaireInterfaceController.html#a55c8afda208674955a13d48d02be41b8" target="_top" xlink:title=" ">
<polygon fill="white" stroke="#666666" points="2213.5,-264 2046,-264 2046,-232 2213.5,-232 2213.5,-264"/>
<text xml:space="preserve" text-anchor="start" x="2054" y="-250.5" font-family="Helvetica,sans-Serif" font-size="10.00">editeurpanovisu.Gestionnaire</text>
<text xml:space="preserve" text-anchor="middle" x="2129.75" y="-238.5" font-family="Helvetica,sans-Serif" font-size="10.00">InterfaceController.afficheTemplate</text>
</a>
</g>
</g>
<!-- Node3&#45;&gt;Node5 -->
<g id="edge4_Node000003_Node000005" class="edge">
<title>Node3&#45;&gt;Node5</title>
<g id="a_edge4_Node000003_Node000005"><a xlink:title=" ">
<path fill="none" stroke="#63b8ff" d="M2505.65,-157.26C2485.53,-181.54 2454.15,-213.59 2418.5,-229 2353.82,-256.97 2273.28,-259.92 2213.87,-256.92"/>
<polygon fill="#63b8ff" stroke="#63b8ff" points="2508.3,-159.55 2511.85,-149.57 2502.85,-155.16 2508.3,-159.55"/>
</a>
</g>
</g>
<!-- Node19 -->
<g id="Node000019" class="node">
<title>Node19</title>
<g id="a_Node000019"><a xlink:href="classediteurpanovisu_1_1GestionnaireInterfaceController.html#a5bdd1505c1ad1eee506c2618c9368994" target="_top" xlink:title=" ">
<polygon fill="white" stroke="#666666" points="2418.5,-120 2249.5,-120 2249.5,-88 2418.5,-88 2418.5,-120"/>
<text xml:space="preserve" text-anchor="start" x="2257.5" y="-106.5" font-family="Helvetica,sans-Serif" font-size="10.00">editeurpanovisu.Gestionnaire</text>
<text xml:space="preserve" text-anchor="middle" x="2334" y="-94.5" font-family="Helvetica,sans-Serif" font-size="10.00">InterfaceController.afficheVignettes</text>
</a>
</g>
</g>
<!-- Node3&#45;&gt;Node19 -->
<g id="edge30_Node000003_Node000019" class="edge">
<title>Node3&#45;&gt;Node19</title>
<g id="a_edge30_Node000003_Node000019"><a xlink:title=" ">
<path fill="none" stroke="#63b8ff" d="M2442.98,-116.24C2434.92,-115.33 2426.77,-114.41 2418.73,-113.5"/>
<polygon fill="#63b8ff" stroke="#63b8ff" points="2442.44,-119.71 2452.77,-117.36 2443.23,-112.75 2442.44,-119.71"/>
</a>
</g>
</g>
<!-- Node3&#45;&gt;Node21 -->
<g id="edge41_Node000003_Node000021" class="edge">
<title>Node3&#45;&gt;Node21</title>
<g id="a_edge41_Node000003_Node000021"><a xlink:title=" ">
<path fill="none" stroke="#63b8ff" d="M2471.64,-99.15C2454.77,-91.93 2436.11,-84.58 2418.5,-79 2329.66,-50.86 2305.79,-47.86 2213.5,-35 2141.91,-25.03 2059.64,-20.27 2001.05,-18.01"/>
<polygon fill="#63b8ff" stroke="#63b8ff" points="2469.93,-102.22 2480.5,-103.01 2472.73,-95.81 2469.93,-102.22"/>
</a>
</g>
</g>
<!-- Node22 -->
<g id="Node000022" class="node">
<title>Node22</title>
<g id="a_Node000022"><a xlink:href="classediteurpanovisu_1_1GestionnaireInterfaceController.html#a568c34e865fb653f63b8fa7a9a9cafc8" target="_top" xlink:title=" ">
<polygon fill="white" stroke="#666666" points="2200.75,-164 2058.75,-164 2058.75,-132 2200.75,-132 2200.75,-164"/>
<text xml:space="preserve" text-anchor="start" x="2066.75" y="-150.5" font-family="Helvetica,sans-Serif" font-size="10.00">editeurpanovisu.Gestionnaire</text>
<text xml:space="preserve" text-anchor="middle" x="2129.75" y="-138.5" font-family="Helvetica,sans-Serif" font-size="10.00">InterfaceController.rafraichit</text>
</a>
</g>
</g>
<!-- Node3&#45;&gt;Node22 -->
<g id="edge42_Node000003_Node000022" class="edge">
<title>Node3&#45;&gt;Node22</title>
<g id="a_edge42_Node000003_Node000022"><a xlink:title=" ">
<path fill="none" stroke="#63b8ff" d="M2442.75,-130.76C2370.41,-134.76 2268.41,-140.4 2200.98,-144.12"/>
<polygon fill="#63b8ff" stroke="#63b8ff" points="2442.79,-134.27 2452.58,-130.22 2442.4,-127.28 2442.79,-134.27"/>
</a>
</g>
</g>
<!-- Node6 -->
<g id="Node000006" class="node">
<title>Node6</title>
<g id="a_Node000006"><a xlink:href="classediteurpanovisu_1_1EditeurPanovisu.html#a87b29dc258cfc67370b1f27809e91b8e" target="_top" xlink:title=" ">
<polygon fill="white" stroke="#666666" points="2010,-267 1835,-267 1835,-235 2010,-235 2010,-267"/>
<text xml:space="preserve" text-anchor="start" x="1843" y="-253.5" font-family="Helvetica,sans-Serif" font-size="10.00">editeurpanovisu.EditeurPanovisu.tsk</text>
<text xml:space="preserve" text-anchor="middle" x="1922.5" y="-241.5" font-family="Helvetica,sans-Serif" font-size="10.00">AnalyseFichierPVU</text>
</a>
</g>
</g>
<!-- Node5&#45;&gt;Node6 -->
<g id="edge5_Node000005_Node000006" class="edge">
<title>Node5&#45;&gt;Node6</title>
<g id="a_edge5_Node000005_Node000006"><a xlink:title=" ">
<path fill="none" stroke="#63b8ff" d="M2034.1,-249.38C2026.23,-249.5 2018.29,-249.61 2010.48,-249.73"/>
<polygon fill="#63b8ff" stroke="#63b8ff" points="2034.1,-252.88 2044.05,-249.24 2034,-245.88 2034.1,-252.88"/>
</a>
</g>
</g>
<!-- Node7 -->
<g id="Node000007" class="node">
<title>Node7</title>
<g id="a_Node000007"><a xlink:href="classediteurpanovisu_1_1EditeurPanovisu.html#ab4beb1597b660a4a253befc6e76f1c54" target="_top" xlink:title=" ">
<polygon fill="white" stroke="#666666" points="1129.62,-410 944.12,-410 944.12,-378 1129.62,-378 1129.62,-410"/>
<text xml:space="preserve" text-anchor="start" x="952.12" y="-396.5" font-family="Helvetica,sans-Serif" font-size="10.00">editeurpanovisu.EditeurPanovisu.projet</text>
<text xml:space="preserve" text-anchor="middle" x="1036.88" y="-384.5" font-family="Helvetica,sans-Serif" font-size="10.00">Charge</text>
</a>
</g>
</g>
<!-- Node6&#45;&gt;Node7 -->
<g id="edge6_Node000006_Node000007" class="edge">
<title>Node6&#45;&gt;Node7</title>
<g id="a_edge6_Node000006_Node000007"><a xlink:title=" ">
<path fill="none" stroke="#63b8ff" d="M1842.87,-270.06C1828.31,-273.46 1813.21,-276.91 1799,-280 1602.46,-322.77 1553.08,-334.13 1353.75,-361 1278.61,-371.13 1193.07,-379.9 1129.96,-385.84"/>
<polygon fill="#63b8ff" stroke="#63b8ff" points="1843.48,-273.51 1852.41,-267.82 1841.88,-266.7 1843.48,-273.51"/>
</a>
</g>
</g>
<!-- Node10 -->
<g id="Node000010" class="node">
<title>Node10</title>
<g id="a_Node000010"><a xlink:href="classediteurpanovisu_1_1EditeurPanovisu.html#a6d19b4d885ee6fcec827b91956295732" target="_top" xlink:title=" ">
<polygon fill="white" stroke="#666666" points="1799,-271 1613.5,-271 1613.5,-239 1799,-239 1799,-271"/>
<text xml:space="preserve" text-anchor="start" x="1621.5" y="-257.5" font-family="Helvetica,sans-Serif" font-size="10.00">editeurpanovisu.EditeurPanovisu.projet</text>
<text xml:space="preserve" text-anchor="middle" x="1706.25" y="-245.5" font-family="Helvetica,sans-Serif" font-size="10.00">ChargeNom</text>
</a>
</g>
</g>
<!-- Node6&#45;&gt;Node10 -->
<g id="edge9_Node000006_Node000010" class="edge">
<title>Node6&#45;&gt;Node10</title>
<g id="a_edge9_Node000006_Node000010"><a xlink:title=" ">
<path fill="none" stroke="#63b8ff" d="M1823.16,-252.84C1815.26,-252.98 1807.3,-253.13 1799.45,-253.28"/>
<polygon fill="#63b8ff" stroke="#63b8ff" points="1823.22,-256.34 1833.15,-252.65 1823.09,-249.34 1823.22,-256.34"/>
</a>
</g>
</g>
<!-- Node8 -->
<g id="Node000008" class="node">
<title>Node8</title>
<g id="a_Node000008"><a xlink:href="classediteurpanovisu_1_1EditeurPanovisu.html#ac912b80c1f2ac97def60ff005c5c480b" target="_top" xlink:title=" ">
<polygon fill="white" stroke="#666666" points="420.5,-250 216.25,-250 216.25,-230 420.5,-230 420.5,-250"/>
<text xml:space="preserve" text-anchor="middle" x="318.38" y="-236.5" font-family="Helvetica,sans-Serif" font-size="10.00">editeurpanovisu.EditeurPanovisu.creeMenu</text>
</a>
</g>
</g>
<!-- Node7&#45;&gt;Node8 -->
<g id="edge7_Node000007_Node000008" class="edge">
<title>Node7&#45;&gt;Node8</title>
<g id="a_edge7_Node000007_Node000008"><a xlink:title=" ">
<path fill="none" stroke="#63b8ff" d="M932.72,-389.19C814.96,-381.31 617.76,-360.8 456.5,-308 411.04,-293.12 361.72,-265.54 336.44,-250.49"/>
<polygon fill="#63b8ff" stroke="#63b8ff" points="932.15,-392.66 942.36,-389.81 932.61,-385.67 932.15,-392.66"/>
</a>
</g>
</g>
<!-- Node9 -->
<g id="Node000009" class="node">
<title>Node9</title>
<g id="a_Node000009"><a xlink:href="classediteurpanovisu_1_1EditeurPanovisu.html#a86c393eee88f54c694db994ddd85b90d" target="_top" xlink:title=" ">
<polygon fill="white" stroke="#666666" points="180.25,-256 0,-256 0,-224 180.25,-224 180.25,-256"/>
<text xml:space="preserve" text-anchor="start" x="8" y="-242.5" font-family="Helvetica,sans-Serif" font-size="10.00">editeurpanovisu.EditeurPanovisu.cree</text>
<text xml:space="preserve" text-anchor="middle" x="90.12" y="-230.5" font-family="Helvetica,sans-Serif" font-size="10.00">Environnement</text>
</a>
</g>
</g>
<!-- Node8&#45;&gt;Node9 -->
<g id="edge8_Node000008_Node000009" class="edge">
<title>Node8&#45;&gt;Node9</title>
<g id="a_edge8_Node000008_Node000009"><a xlink:title=" ">
<path fill="none" stroke="#63b8ff" d="M204.51,-240C196.49,-240 188.46,-240 180.6,-240"/>
<polygon fill="#63b8ff" stroke="#63b8ff" points="204.32,-243.5 214.32,-240 204.32,-236.5 204.32,-243.5"/>
</a>
</g>
</g>
<!-- Node10&#45;&gt;Node8 -->
<g id="edge29_Node000010_Node000008" class="edge">
<title>Node10&#45;&gt;Node8</title>
<g id="a_edge29_Node000010_Node000008"><a xlink:title=" ">
<path fill="none" stroke="#63b8ff" d="M1669.75,-233.03C1596.46,-189.83 1421.84,-98 1262,-98 1262,-98 1262,-98 809.12,-98 650.3,-98 605.35,-100.6 456.5,-156 407.05,-174.41 355.87,-211.42 332.47,-229.53"/>
<polygon fill="#63b8ff" stroke="#63b8ff" points="1667.73,-235.9 1678.11,-238.01 1671.31,-229.89 1667.73,-235.9"/>
</a>
</g>
</g>
<!-- Node11 -->
<g id="Node000011" class="node">
<title>Node11</title>
<g id="a_Node000011"><a xlink:href="classediteurpanovisu_1_1EditeurPanovisu.html#af0d1c32bb78acbff561c822a0d15f760" target="_top" xlink:title=" ">
<polygon fill="white" stroke="#666666" points="1577.5,-315 1389.75,-315 1389.75,-283 1577.5,-283 1577.5,-315"/>
<text xml:space="preserve" text-anchor="start" x="1397.75" y="-301.5" font-family="Helvetica,sans-Serif" font-size="10.00">editeurpanovisu.EditeurPanovisu.ajoute</text>
<text xml:space="preserve" text-anchor="middle" x="1483.62" y="-289.5" font-family="Helvetica,sans-Serif" font-size="10.00">FichierHisto</text>
</a>
</g>
</g>
<!-- Node10&#45;&gt;Node11 -->
<g id="edge10_Node000010_Node000011" class="edge">
<title>Node10&#45;&gt;Node11</title>
<g id="a_edge10_Node000010_Node000011"><a xlink:title=" ">
<path fill="none" stroke="#63b8ff" d="M1602.04,-268.85C1579.75,-273.21 1557.08,-278.03 1537.68,-282.55"/>
<polygon fill="#63b8ff" stroke="#63b8ff" points="1602.64,-272.29 1611.8,-266.96 1601.31,-265.42 1602.64,-272.29"/>
</a>
</g>
</g>
<!-- Node11&#45;&gt;Node7 -->
<g id="edge11_Node000011_Node000007" class="edge">
<title>Node11&#45;&gt;Node7</title>
<g id="a_edge11_Node000011_Node000007"><a xlink:title=" ">
<path fill="none" stroke="#63b8ff" d="M1394.16,-317.9C1312.57,-335.32 1192.66,-360.94 1114.92,-377.54"/>
<polygon fill="#63b8ff" stroke="#63b8ff" points="1394.88,-321.32 1403.93,-315.81 1393.42,-314.48 1394.88,-321.32"/>
</a>
</g>
</g>
<!-- Node11&#45;&gt;Node10 -->
<g id="edge12_Node000011_Node000010" class="edge">
<title>Node11&#45;&gt;Node10</title>
<g id="a_edge12_Node000011_Node000010"><a xlink:title=" ">
<path fill="none" stroke="#63b8ff" d="M1588.86,-284.95C1610.79,-280.65 1633.04,-275.92 1652.12,-271.46"/>
<polygon fill="#63b8ff" stroke="#63b8ff" points="1588.43,-281.47 1579.28,-286.81 1589.76,-288.34 1588.43,-281.47"/>
</a>
</g>
</g>
<!-- Node12 -->
<g id="Node000012" class="node">
<title>Node12</title>
<g id="a_Node000012"><a xlink:href="classediteurpanovisu_1_1EditeurPanovisu.html#a9f3ea25b35d4884524508dab3dc4fd6a" target="_top" xlink:title=" ">
<polygon fill="white" stroke="#666666" points="1353.75,-278 1168.25,-278 1168.25,-246 1353.75,-246 1353.75,-278"/>
<text xml:space="preserve" text-anchor="start" x="1176.25" y="-264.5" font-family="Helvetica,sans-Serif" font-size="10.00">editeurpanovisu.EditeurPanovisu.projet</text>
<text xml:space="preserve" text-anchor="middle" x="1261" y="-252.5" font-family="Helvetica,sans-Serif" font-size="10.00">Sauve</text>
</a>
</g>
</g>
<!-- Node11&#45;&gt;Node12 -->
<g id="edge13_Node000011_Node000012" class="edge">
<title>Node11&#45;&gt;Node12</title>
<g id="a_edge13_Node000011_Node000012"><a xlink:title=" ">
<path fill="none" stroke="#63b8ff" d="M1378.13,-281.48C1370.14,-280.14 1362.11,-278.79 1354.21,-277.46"/>
<polygon fill="#63b8ff" stroke="#63b8ff" points="1377.45,-284.91 1387.89,-283.11 1378.6,-278.01 1377.45,-284.91"/>
</a>
</g>
</g>
<!-- Node18 -->
<g id="Node000018" class="node">
<title>Node18</title>
<g id="a_Node000018"><a xlink:href="classediteurpanovisu_1_1EditeurPanovisu.html#a7b2e25dc717eb52b62e23d54ec4c124a" target="_top" xlink:title=" ">
<polygon fill="white" stroke="#666666" points="902.88,-448 717.38,-448 717.38,-416 902.88,-416 902.88,-448"/>
<text xml:space="preserve" text-anchor="start" x="725.38" y="-434.5" font-family="Helvetica,sans-Serif" font-size="10.00">editeurpanovisu.EditeurPanovisu.projet</text>
<text xml:space="preserve" text-anchor="middle" x="810.12" y="-422.5" font-family="Helvetica,sans-Serif" font-size="10.00">SauveSous</text>
</a>
</g>
</g>
<!-- Node11&#45;&gt;Node18 -->
<g id="edge27_Node000011_Node000018" class="edge">
<title>Node11&#45;&gt;Node18</title>
<g id="a_edge27_Node000011_Node000018"><a xlink:title=" ">
<path fill="none" stroke="#63b8ff" d="M1442.43,-320.81C1417.44,-333.75 1384.34,-349.76 1353.75,-361 1258.23,-396.11 1232.9,-403.97 1132.25,-419 1055.68,-430.44 967.78,-433.3 903.32,-433.51"/>
<polygon fill="#63b8ff" stroke="#63b8ff" points="1444.04,-323.92 1451.28,-316.18 1440.79,-317.72 1444.04,-323.92"/>
</a>
</g>
</g>
<!-- Node12&#45;&gt;Node7 -->
<g id="edge17_Node000012_Node000007" class="edge">
<title>Node12&#45;&gt;Node7</title>
<g id="a_edge17_Node000012_Node000007"><a xlink:title=" ">
<path fill="none" stroke="#63b8ff" d="M1230.94,-285.42C1194.09,-315.08 1135,-362.53 1132.25,-364 1122.39,-369.27 1111.46,-373.79 1100.63,-377.62"/>
<polygon fill="#63b8ff" stroke="#63b8ff" points="1233,-288.25 1238.6,-279.25 1228.61,-282.8 1233,-288.25"/>
</a>
</g>
</g>
<!-- Node12&#45;&gt;Node8 -->
<g id="edge14_Node000012_Node000008" class="edge">
<title>Node12&#45;&gt;Node8</title>
<g id="a_edge14_Node000012_Node000008"><a xlink:title=" ">
<path fill="none" stroke="#63b8ff" d="M1156.69,-259.58C975.14,-255.34 601.1,-246.59 420.86,-242.37"/>
<polygon fill="#63b8ff" stroke="#63b8ff" points="1156.5,-263.08 1166.58,-259.82 1156.67,-256.08 1156.5,-263.08"/>
</a>
</g>
</g>
<!-- Node12&#45;&gt;Node10 -->
<g id="edge18_Node000012_Node000010" class="edge">
<title>Node12&#45;&gt;Node10</title>
<g id="a_edge18_Node000012_Node000010"><a xlink:title=" ">
<path fill="none" stroke="#63b8ff" d="M1365.33,-260.37C1440.33,-259.18 1540.88,-257.6 1613.14,-256.45"/>
<polygon fill="#63b8ff" stroke="#63b8ff" points="1365.45,-256.87 1355.51,-260.52 1365.56,-263.86 1365.45,-256.87"/>
</a>
</g>
</g>
<!-- Node13 -->
<g id="Node000013" class="node">
<title>Node13</title>
<g id="a_Node000013"><a xlink:href="classediteurpanovisu_1_1EditeurPanovisu.html#a94e36b9e9d09ab1a4c852b8a8cefa927" target="_top" xlink:title=" ">
<polygon fill="white" stroke="#666666" points="663,-234 472.25,-234 472.25,-202 663,-202 663,-234"/>
<text xml:space="preserve" text-anchor="start" x="480.25" y="-220.5" font-family="Helvetica,sans-Serif" font-size="10.00">editeurpanovisu.EditeurPanovisu.genere</text>
<text xml:space="preserve" text-anchor="middle" x="567.62" y="-208.5" font-family="Helvetica,sans-Serif" font-size="10.00">Visite</text>
</a>
</g>
</g>
<!-- Node12&#45;&gt;Node13 -->
<g id="edge15_Node000012_Node000013" class="edge">
<title>Node12&#45;&gt;Node13</title>
<g id="a_edge15_Node000012_Node000013"><a xlink:title=" ">
<path fill="none" stroke="#63b8ff" d="M1156.68,-250.18C1148.42,-249.39 1140.2,-248.65 1132.25,-248 967.68,-234.61 775.57,-225.85 663.47,-221.43"/>
<polygon fill="#63b8ff" stroke="#63b8ff" points="1156.15,-253.64 1166.44,-251.14 1156.84,-246.68 1156.15,-253.64"/>
</a>
</g>
</g>
<!-- Node14 -->
<g id="Node000014" class="node">
<title>Node14</title>
<g id="a_Node000014"><a xlink:href="classediteurpanovisu_1_1EditeurPanovisu.html#a9b46b222714af12c06ec33d410400773" target="_top" xlink:title=" ">
<polygon fill="white" stroke="#666666" points="905.5,-344 714.75,-344 714.75,-312 905.5,-312 905.5,-344"/>
<text xml:space="preserve" text-anchor="start" x="722.75" y="-330.5" font-family="Helvetica,sans-Serif" font-size="10.00">editeurpanovisu.EditeurPanovisu.projets</text>
<text xml:space="preserve" text-anchor="middle" x="810.12" y="-318.5" font-family="Helvetica,sans-Serif" font-size="10.00">Fermer</text>
</a>
</g>
</g>
<!-- Node12&#45;&gt;Node14 -->
<g id="edge19_Node000012_Node000014" class="edge">
<title>Node12&#45;&gt;Node14</title>
<g id="a_edge19_Node000012_Node000014"><a xlink:title=" ">
<path fill="none" stroke="#63b8ff" d="M1228.65,-284.69C1203.85,-301.16 1167.63,-322.06 1132.25,-331 1057.79,-349.82 970.49,-347.52 905.72,-341.38"/>
<polygon fill="#63b8ff" stroke="#63b8ff" points="1230.34,-287.77 1236.64,-279.25 1226.4,-281.99 1230.34,-287.77"/>
</a>
</g>
</g>
<!-- Node15 -->
<g id="Node000015" class="node">
<title>Node15</title>
<g id="a_Node000015"><a xlink:href="classediteurpanovisu_1_1EditeurPanovisu.html#ac9d449399ccd38843fa12e716f0c9611" target="_top" xlink:title=" ">
<polygon fill="white" stroke="#666666" points="1132.25,-158 941.5,-158 941.5,-126 1132.25,-126 1132.25,-158"/>
<text xml:space="preserve" text-anchor="start" x="949.5" y="-144.5" font-family="Helvetica,sans-Serif" font-size="10.00">editeurpanovisu.EditeurPanovisu.projets</text>
<text xml:space="preserve" text-anchor="middle" x="1036.88" y="-132.5" font-family="Helvetica,sans-Serif" font-size="10.00">Nouveau</text>
</a>
</g>
</g>
<!-- Node12&#45;&gt;Node15 -->
<g id="edge21_Node000012_Node000015" class="edge">
<title>Node12&#45;&gt;Node15</title>
<g id="a_edge21_Node000012_Node000015"><a xlink:title=" ">
<path fill="none" stroke="#63b8ff" d="M1231.99,-238.44C1207.11,-218.49 1169.1,-190.29 1132.25,-172 1121.86,-166.84 1110.38,-162.32 1099.12,-158.45"/>
<polygon fill="#63b8ff" stroke="#63b8ff" points="1229.7,-241.1 1239.67,-244.69 1234.12,-235.67 1229.7,-241.1"/>
</a>
</g>
</g>
<!-- Node16 -->
<g id="Node000016" class="node">
<title>Node16</title>
<g id="a_Node000016"><a xlink:href="classediteurpanovisu_1_1EditeurPanovisu.html#a2b3125ffe2e6291efacf19df6cb30a8d" target="_top" xlink:title=" ">
<polygon fill="white" stroke="#666666" points="900.62,-196 719.62,-196 719.62,-176 900.62,-176 900.62,-196"/>
<text xml:space="preserve" text-anchor="middle" x="810.12" y="-182.5" font-family="Helvetica,sans-Serif" font-size="10.00">editeurpanovisu.EditeurPanovisu.start</text>
</a>
</g>
</g>
<!-- Node12&#45;&gt;Node16 -->
<g id="edge26_Node000012_Node000016" class="edge">
<title>Node12&#45;&gt;Node16</title>
<g id="a_edge26_Node000012_Node000016"><a xlink:title=" ">
<path fill="none" stroke="#63b8ff" d="M1217.53,-240.81C1193.18,-229.66 1161.7,-216.91 1132.25,-210 1055.51,-191.98 965.89,-186.53 900.85,-185.27"/>
<polygon fill="#63b8ff" stroke="#63b8ff" points="1215.93,-243.92 1226.47,-244.98 1218.89,-237.58 1215.93,-243.92"/>
</a>
</g>
</g>
<!-- Node17 -->
<g id="Node000017" class="node">
<title>Node17</title>
<g id="a_Node000017"><a xlink:href="classediteurpanovisu_1_1EditeurPanovisu.html#aef8c9b28c3e88d6e27e3f62b9a901134" target="_top" xlink:title=" ">
<polygon fill="white" stroke="#666666" points="1130.75,-322 943,-322 943,-290 1130.75,-290 1130.75,-322"/>
<text xml:space="preserve" text-anchor="start" x="951" y="-308.5" font-family="Helvetica,sans-Serif" font-size="10.00">editeurpanovisu.EditeurPanovisu.sauve</text>
<text xml:space="preserve" text-anchor="middle" x="1036.88" y="-296.5" font-family="Helvetica,sans-Serif" font-size="10.00">Fichiers</text>
</a>
</g>
</g>
<!-- Node12&#45;&gt;Node17 -->
<g id="edge25_Node000012_Node000017" class="edge">
<title>Node12&#45;&gt;Node17</title>
<g id="a_edge25_Node000012_Node000017"><a xlink:title=" ">
<path fill="none" stroke="#63b8ff" d="M1165.74,-280.67C1150.93,-283.6 1135.71,-286.62 1121.17,-289.5"/>
<polygon fill="#63b8ff" stroke="#63b8ff" points="1166.36,-284.12 1175.49,-278.74 1165,-277.25 1166.36,-284.12"/>
</a>
</g>
</g>
<!-- Node13&#45;&gt;Node8 -->
<g id="edge16_Node000013_Node000008" class="edge">
<title>Node13&#45;&gt;Node8</title>
<g id="a_edge16_Node000013_Node000008"><a xlink:title=" ">
<path fill="none" stroke="#63b8ff" d="M460.99,-227.4C447.68,-228.58 434.09,-229.79 420.85,-230.97"/>
<polygon fill="#63b8ff" stroke="#63b8ff" points="460.93,-230.92 470.58,-226.55 460.31,-223.95 460.93,-230.92"/>
</a>
</g>
</g>
<!-- Node14&#45;&gt;Node8 -->
<g id="edge20_Node000014_Node000008" class="edge">
<title>Node14&#45;&gt;Node8</title>
<g id="a_edge20_Node000014_Node000008"><a xlink:title=" ">
<path fill="none" stroke="#63b8ff" d="M703.27,-315.49C632.96,-306.42 538.8,-292.82 456.5,-276 421.65,-268.88 382.46,-258.33 354.92,-250.49"/>
<polygon fill="#63b8ff" stroke="#63b8ff" points="702.48,-318.92 712.84,-316.71 703.36,-311.97 702.48,-318.92"/>
</a>
</g>
</g>
<!-- Node15&#45;&gt;Node8 -->
<g id="edge22_Node000015_Node000008" class="edge">
<title>Node15&#45;&gt;Node8</title>
<g id="a_edge22_Node000015_Node000008"><a xlink:title=" ">
<path fill="none" stroke="#63b8ff" d="M929.75,-143.27C812.63,-146.53 619.15,-157.44 456.5,-193 416.18,-201.82 371.24,-218.63 344.15,-229.57"/>
<polygon fill="#63b8ff" stroke="#63b8ff" points="929.77,-146.77 939.68,-143.01 929.59,-139.77 929.77,-146.77"/>
</a>
</g>
</g>
<!-- Node15&#45;&gt;Node16 -->
<g id="edge23_Node000015_Node000016" class="edge">
<title>Node15&#45;&gt;Node16</title>
<g id="a_edge23_Node000015_Node000016"><a xlink:title=" ">
<path fill="none" stroke="#63b8ff" d="M940.81,-160.61C914.81,-165.7 887.53,-171.04 864.74,-175.5"/>
<polygon fill="#63b8ff" stroke="#63b8ff" points="941.24,-164.09 950.38,-158.74 939.9,-157.22 941.24,-164.09"/>
</a>
</g>
</g>
<!-- Node16&#45;&gt;Node13 -->
<g id="edge24_Node000016_Node000013" class="edge">
<title>Node16&#45;&gt;Node13</title>
<g id="a_edge24_Node000016_Node000013"><a xlink:title=" ">
<path fill="none" stroke="#63b8ff" d="M719.2,-197.97C701.01,-200.39 681.83,-202.94 663.48,-205.38"/>
<polygon fill="#63b8ff" stroke="#63b8ff" points="719.43,-201.47 728.88,-196.68 718.5,-194.53 719.43,-201.47"/>
</a>
</g>
</g>
<!-- Node18&#45;&gt;Node8 -->
<g id="edge28_Node000018_Node000008" class="edge">
<title>Node18&#45;&gt;Node8</title>
<g id="a_edge28_Node000018_Node000008"><a xlink:title=" ">
<path fill="none" stroke="#63b8ff" d="M705.9,-441.23C632.43,-443.3 533.48,-436.68 456.5,-397 389.27,-362.35 340.42,-279.63 324.75,-250.43"/>
<polygon fill="#63b8ff" stroke="#63b8ff" points="705.63,-444.74 715.5,-440.89 705.38,-437.74 705.63,-444.74"/>
</a>
</g>
</g>
<!-- Node19&#45;&gt;Node5 -->
<g id="edge31_Node000019_Node000005" class="edge">
<title>Node19&#45;&gt;Node5</title>
<g id="a_edge31_Node000019_Node000005"><a xlink:title=" ">
<path fill="none" stroke="#63b8ff" d="M2300.92,-126.84C2259.9,-156.04 2189.89,-205.89 2153.78,-231.6"/>
<polygon fill="#63b8ff" stroke="#63b8ff" points="2302.84,-129.77 2308.96,-121.12 2298.78,-124.07 2302.84,-129.77"/>
</a>
</g>
</g>
<!-- Node20 -->
<g id="Node000020" class="node">
<title>Node20</title>
<g id="a_Node000020"><a xlink:href="classediteurpanovisu_1_1GestionnaireInterfaceController.html#a8c634f775c31c1a4db22d5ef0659f7e4" target="_top" xlink:title=" ">
<polygon fill="white" stroke="#666666" points="2203.38,-76 2056.12,-76 2056.12,-44 2203.38,-44 2203.38,-76"/>
<text xml:space="preserve" text-anchor="start" x="2064.12" y="-62.5" font-family="Helvetica,sans-Serif" font-size="10.00">editeurpanovisu.Gestionnaire</text>
<text xml:space="preserve" text-anchor="middle" x="2129.75" y="-50.5" font-family="Helvetica,sans-Serif" font-size="10.00">InterfaceController.afficheTitre</text>
</a>
</g>
</g>
<!-- Node19&#45;&gt;Node20 -->
<g id="edge32_Node000019_Node000020" class="edge">
<title>Node19&#45;&gt;Node20</title>
<g id="a_edge32_Node000019_Node000020"><a xlink:title=" ">
<path fill="none" stroke="#63b8ff" d="M2246.55,-85.19C2232.23,-82.08 2217.51,-78.88 2203.57,-75.84"/>
<polygon fill="#63b8ff" stroke="#63b8ff" points="2245.41,-88.53 2255.92,-87.23 2246.9,-81.69 2245.41,-88.53"/>
</a>
</g>
</g>
<!-- Node19&#45;&gt;Node21 -->
<g id="edge34_Node000019_Node000021" class="edge">
<title>Node19&#45;&gt;Node21</title>
<g id="a_edge34_Node000019_Node000021"><a xlink:title=" ">
<path fill="none" stroke="#63b8ff" d="M2237.71,-114.96C2179.6,-117.56 2105.35,-113.36 2046,-85 2024.72,-74.83 2029.74,-58.92 2010,-46 2001.89,-40.69 1992.73,-36.21 1983.49,-32.46"/>
<polygon fill="#63b8ff" stroke="#63b8ff" points="2237.8,-118.46 2247.6,-114.44 2237.43,-111.47 2237.8,-118.46"/>
</a>
</g>
</g>
<!-- Node19&#45;&gt;Node22 -->
<g id="edge35_Node000019_Node000022" class="edge">
<title>Node19&#45;&gt;Node22</title>
<g id="a_edge35_Node000019_Node000022"><a xlink:title=" ">
<path fill="none" stroke="#63b8ff" d="M2246.5,-122.82C2231.4,-126.1 2215.85,-129.49 2201.24,-132.66"/>
<polygon fill="#63b8ff" stroke="#63b8ff" points="2246.9,-126.31 2255.92,-120.77 2245.41,-119.47 2246.9,-126.31"/>
</a>
</g>
</g>
<!-- Node20&#45;&gt;Node21 -->
<g id="edge33_Node000020_Node000021" class="edge">
<title>Node20&#45;&gt;Node21</title>
<g id="a_edge33_Node000020_Node000021"><a xlink:title=" ">
<path fill="none" stroke="#63b8ff" d="M2044.71,-41.98C2030.04,-38.84 2014.84,-35.58 2000.37,-32.48"/>
<polygon fill="#63b8ff" stroke="#63b8ff" points="2043.82,-45.37 2054.33,-44.05 2045.28,-38.53 2043.82,-45.37"/>
</a>
</g>
</g>
<!-- Node22&#45;&gt;Node6 -->
<g id="edge36_Node000022_Node000006" class="edge">
<title>Node22&#45;&gt;Node6</title>
<g id="a_edge36_Node000022_Node000006"><a xlink:title=" ">
<path fill="none" stroke="#63b8ff" d="M2086.32,-169.29C2047.69,-188.68 1991.46,-216.9 1956.21,-234.59"/>
<polygon fill="#63b8ff" stroke="#63b8ff" points="2087.51,-172.61 2094.87,-165 2084.37,-166.36 2087.51,-172.61"/>
</a>
</g>
</g>
<!-- Node23 -->
<g id="Node000023" class="node">
<title>Node23</title>
<g id="a_Node000023"><a xlink:href="classediteurpanovisu_1_1EditeurPanovisu.html#a53cccf6a6b2693c872947460b66ae8ee" target="_top" xlink:title=" ">
<polygon fill="white" stroke="#666666" points="1348.5,-70 1173.5,-70 1173.5,-38 1348.5,-38 1348.5,-70"/>
<text xml:space="preserve" text-anchor="start" x="1181.5" y="-56.5" font-family="Helvetica,sans-Serif" font-size="10.00">editeurpanovisu.EditeurPanovisu.tsk</text>
<text xml:space="preserve" text-anchor="middle" x="1261" y="-44.5" font-family="Helvetica,sans-Serif" font-size="10.00">ChargeListeFichiers</text>
</a>
</g>
</g>
<!-- Node22&#45;&gt;Node23 -->
<g id="edge37_Node000022_Node000023" class="edge">
<title>Node22&#45;&gt;Node23</title>
<g id="a_edge37_Node000022_Node000023"><a xlink:title=" ">
<path fill="none" stroke="#63b8ff" d="M2046.91,-137.96C1939.31,-124.88 1744.36,-101.62 1577.5,-84 1500.21,-75.84 1412.16,-67.55 1348.76,-61.76"/>
<polygon fill="#63b8ff" stroke="#63b8ff" points="2046.47,-141.43 2056.81,-139.17 2047.31,-134.48 2046.47,-141.43"/>
</a>
</g>
</g>
<!-- Node23&#45;&gt;Node15 -->
<g id="edge40_Node000023_Node000015" class="edge">
<title>Node23&#45;&gt;Node15</title>
<g id="a_edge40_Node000023_Node000015"><a xlink:title=" ">
<path fill="none" stroke="#63b8ff" d="M1207.8,-74.68C1168.55,-90.23 1115.51,-111.24 1079.19,-125.63"/>
<polygon fill="#63b8ff" stroke="#63b8ff" points="1209.07,-77.94 1217.07,-71.01 1206.49,-71.44 1209.07,-77.94"/>
</a>
</g>
</g>
<!-- Node24 -->
<g id="Node000024" class="node">
<title>Node24</title>
<g id="a_Node000024"><a xlink:href="classediteurpanovisu_1_1EditeurPanovisu.html#a924d3ccff3e4f402d2309cd2eade3237" target="_top" xlink:title=" ">
<polygon fill="white" stroke="#666666" points="678.75,-70 456.5,-70 456.5,-38 678.75,-38 678.75,-70"/>
<text xml:space="preserve" text-anchor="start" x="464.5" y="-56.5" font-family="Helvetica,sans-Serif" font-size="10.00">editeurpanovisu.EditeurPanovisu.panoramiques</text>
<text xml:space="preserve" text-anchor="middle" x="567.62" y="-44.5" font-family="Helvetica,sans-Serif" font-size="10.00">Ajouter</text>
</a>
</g>
</g>
<!-- Node23&#45;&gt;Node24 -->
<g id="edge38_Node000023_Node000024" class="edge">
<title>Node23&#45;&gt;Node24</title>
<g id="a_edge38_Node000023_Node000024"><a xlink:title=" ">
<path fill="none" stroke="#63b8ff" d="M1161.86,-54C1034.35,-54 812.35,-54 679.08,-54"/>
<polygon fill="#63b8ff" stroke="#63b8ff" points="1161.62,-57.5 1171.62,-54 1161.62,-50.5 1161.62,-57.5"/>
</a>
</g>
</g>
<!-- Node24&#45;&gt;Node8 -->
<g id="edge39_Node000024_Node000008" class="edge">
<title>Node24&#45;&gt;Node8</title>
<g id="a_edge39_Node000024_Node000008"><a xlink:title=" ">
<path fill="none" stroke="#63b8ff" d="M474.32,-74.68C468.11,-77.41 462.1,-80.51 456.5,-84 392.87,-123.7 342.11,-201.87 325.32,-229.79"/>
<polygon fill="#63b8ff" stroke="#63b8ff" points="475.57,-77.95 483.54,-70.96 472.95,-71.45 475.57,-77.95"/>
</a>
</g>
</g>
</g>
</svg>

<g id="navigator" transform="translate(0 0)" fill="#404254">
  <rect fill="#f2f5e9" fill-opacity="0.5" stroke="#606060" stroke-width=".5" x="0" y="0" width="60" height="60"/>
  <use id="zoomplus" xlink:href="#zoomPlus" x="17" y="9" onmousedown="handleZoom(evt,'in')"/>
  <use id="zoomminus" xlink:href="#zoomMin" x="42" y="9" onmousedown="handleZoom(evt,'out')"/>
  <use id="reset" xlink:href="#resetDef" x="30" y="36" onmousedown="handleReset()"/>
   <use id="arrowup" xlink:href="#arrowUp" x="0" y="0" onmousedown="handlePan(0,-1)"/>
  <use id="arrowright" xlink:href="#arrowRight" x="0" y="0" onmousedown="handlePan(1,0)"/>
  <use id="arrowdown" xlink:href="#arrowDown" x="0" y="0" onmousedown="handlePan(0,1)"/>
  <use id="arrowleft" xlink:href="#arrowLeft" x="0" y="0" onmousedown="handlePan(-1,0)"/>
</g>
<svg viewBox="0 0 15 15" width="100%" height="30px" preserveAspectRatio="xMaxYMin meet">
 <g id="arrow_out" transform="scale(0.3 0.3)">
  <a xlink:href="classediteurpanovisu_1_1GestionnaireInterfaceController_a0d212df90e4eac2527f57d783a8caada_icgraph_org.svg" target="_base">
   <rect id="button" ry="5" rx="5" y="6" x="6" height="38" width="38"
        fill="#f2f5e9" fill-opacity="0.5" stroke="#606060" stroke-width="1.0"/>
   <path id="arrow"
     d="M 11.500037,31.436501 C 11.940474,20.09759 22.043105,11.32322 32.158766,21.979434 L 37.068811,17.246167 C 37.068811,17.246167 37.088388,32 37.088388,32 L 22.160133,31.978069 C 22.160133,31.978069 26.997745,27.140456 26.997745,27.140456 C 18.528582,18.264221 13.291696,25.230495 11.500037,31.436501 z"
     style="fill:#404040;"/>
  </a>
 </g>
</svg>

<style type='text/css'>
<![CDATA[
[data-mouse-over-selected='false'] { opacity: 0.7; }
[data-mouse-over-selected='true']  { opacity: 1.0; }
]]>
</style>
<script type="application/ecmascript"><![CDATA[
document.addEventListener('DOMContentLoaded', (event) => {
  highlightEdges();
  highlightAdjacentNodes();
});
]]></script>
</svg>
