<?xml version="1.0" encoding="UTF-8" standalone="no"?>
<!DOCTYPE svg PUBLIC "-//W3C//DTD SVG 1.1//EN"
 "http://www.w3.org/Graphics/SVG/1.1/DTD/svg11.dtd">
<!-- Generated by graphviz version 13.1.2 (20250808.2320)
 -->
<!-- Title: editeurpanovisu.GestionnaireInterfaceController.retireImageFond Pages: 1 -->
<svg width="417pt" height="258pt"
 viewBox="0.00 0.00 417.00 258.00" xmlns="http://www.w3.org/2000/svg" xmlns:xlink="http://www.w3.org/1999/xlink">
<g id="graph0" class="graph" transform="scale(1 1) rotate(0) translate(4 254)">
<title>editeurpanovisu.GestionnaireInterfaceController.retireImageFond</title>
<!-- Node1 -->
<g id="Node000001" class="node">
<title>Node1</title>
<g id="a_Node000001"><a xlink:title=" ">
<polygon fill="#999999" stroke="#666666" points="169.75,-120 0,-120 0,-88 169.75,-88 169.75,-120"/>
<text xml:space="preserve" text-anchor="start" x="8" y="-106.5" font-family="Helvetica,sans-Serif" font-size="10.00">editeurpanovisu.Gestionnaire</text>
<text xml:space="preserve" text-anchor="middle" x="84.88" y="-94.5" font-family="Helvetica,sans-Serif" font-size="10.00">InterfaceController.retireImageFond</text>
</a>
</g>
</g>
<!-- Node2 -->
<g id="Node000002" class="node">
<title>Node2</title>
<g id="a_Node000002"><a xlink:href="classediteurpanovisu_1_1GestionnaireInterfaceController.html#a1e451bccc11cb6a7fc94d34988b86045" target="_top" xlink:title=" ">
<polygon fill="white" stroke="#666666" points="387.5,-232 227.5,-232 227.5,-188 387.5,-188 387.5,-232"/>
<text xml:space="preserve" text-anchor="start" x="235.5" y="-218.5" font-family="Helvetica,sans-Serif" font-size="10.00">editeurpanovisu.Gestionnaire</text>
<text xml:space="preserve" text-anchor="start" x="235.5" y="-206.5" font-family="Helvetica,sans-Serif" font-size="10.00">InterfaceController.afficheImages</text>
<text xml:space="preserve" text-anchor="middle" x="307.5" y="-194.5" font-family="Helvetica,sans-Serif" font-size="10.00">FondInterface</text>
</a>
</g>
</g>
<!-- Node1&#45;&gt;Node2 -->
<g id="edge1_Node000001_Node000002" class="edge">
<title>Node1&#45;&gt;Node2</title>
<g id="a_edge1_Node000001_Node000002"><a xlink:title=" ">
<path fill="none" stroke="#63b8ff" d="M107.86,-120.22C131.18,-136.82 169.58,-162.47 205.75,-179 209.27,-180.61 212.89,-182.16 216.58,-183.66"/>
<polygon fill="#63b8ff" stroke="#63b8ff" points="215.11,-186.85 225.7,-187.19 217.64,-180.32 215.11,-186.85"/>
</a>
</g>
</g>
<!-- Node3 -->
<g id="Node000003" class="node">
<title>Node3</title>
<g id="a_Node000003"><a xlink:href="classediteurpanovisu_1_1GestionnaireInterfaceController.html#a81fc8be3be405d5f63ce263dec29d665" target="_top" xlink:title=" ">
<polygon fill="white" stroke="#666666" points="390.88,-170 224.12,-170 224.12,-138 390.88,-138 390.88,-170"/>
<text xml:space="preserve" text-anchor="start" x="232.12" y="-156.5" font-family="Helvetica,sans-Serif" font-size="10.00">editeurpanovisu.Gestionnaire</text>
<text xml:space="preserve" text-anchor="middle" x="307.5" y="-144.5" font-family="Helvetica,sans-Serif" font-size="10.00">InterfaceController.getImagesFond</text>
</a>
</g>
</g>
<!-- Node1&#45;&gt;Node3 -->
<g id="edge3_Node000001_Node000003" class="edge">
<title>Node1&#45;&gt;Node3</title>
<g id="a_edge3_Node000001_Node000003"><a xlink:title=" ">
<path fill="none" stroke="#63b8ff" d="M158.42,-120.44C179.06,-125.12 201.71,-130.25 222.95,-135.07"/>
<polygon fill="#63b8ff" stroke="#63b8ff" points="221.91,-138.42 232.43,-137.21 223.45,-131.59 221.91,-138.42"/>
</a>
</g>
</g>
<!-- Node4 -->
<g id="Node000004" class="node">
<title>Node4</title>
<g id="a_Node000004"><a xlink:href="classediteurpanovisu_1_1GestionnaireInterfaceController.html#a7b2d1d574b7036451a7d0189bf3af83d" target="_top" xlink:title=" ">
<polygon fill="white" stroke="#666666" points="409.25,-120 205.75,-120 205.75,-88 409.25,-88 409.25,-120"/>
<text xml:space="preserve" text-anchor="start" x="213.75" y="-106.5" font-family="Helvetica,sans-Serif" font-size="10.00">editeurpanovisu.Gestionnaire</text>
<text xml:space="preserve" text-anchor="middle" x="307.5" y="-94.5" font-family="Helvetica,sans-Serif" font-size="10.00">InterfaceController.getiNombreImagesFond</text>
</a>
</g>
</g>
<!-- Node1&#45;&gt;Node4 -->
<g id="edge4_Node000001_Node000004" class="edge">
<title>Node1&#45;&gt;Node4</title>
<g id="a_edge4_Node000001_Node000004"><a xlink:title=" ">
<path fill="none" stroke="#63b8ff" d="M170.23,-104C178.08,-104 186.12,-104 194.18,-104"/>
<polygon fill="#63b8ff" stroke="#63b8ff" points="194.05,-107.5 204.05,-104 194.05,-100.5 194.05,-107.5"/>
</a>
</g>
</g>
<!-- Node5 -->
<g id="Node000005" class="node">
<title>Node5</title>
<g id="a_Node000005"><a xlink:href="leaflet_8js.html#a73aff07b65d7c0b09ccf6b4c4f1b7a9d" target="_top" xlink:title=" ">
<polygon fill="white" stroke="#666666" points="321.9,-70 293.1,-70 293.1,-50 321.9,-50 321.9,-70"/>
<text xml:space="preserve" text-anchor="middle" x="307.5" y="-56.5" font-family="Helvetica,sans-Serif" font-size="10.00">i</text>
</a>
</g>
</g>
<!-- Node1&#45;&gt;Node5 -->
<g id="edge5_Node000001_Node000005" class="edge">
<title>Node1&#45;&gt;Node5</title>
<g id="a_edge5_Node000001_Node000005"><a xlink:title=" ">
<path fill="none" stroke="#63b8ff" d="M163.86,-87.51C177.8,-84.63 192.2,-81.69 205.75,-79 231.61,-73.87 261.27,-68.31 281.67,-64.54"/>
<polygon fill="#63b8ff" stroke="#63b8ff" points="282.11,-68.02 291.31,-62.77 280.84,-61.14 282.11,-68.02"/>
</a>
</g>
</g>
<!-- Node6 -->
<g id="Node000006" class="node">
<title>Node6</title>
<g id="a_Node000006"><a xlink:href="classediteurpanovisu_1_1GestionnaireInterfaceController.html#af01b83ee27a515ea0602e093ce87c3cd" target="_top" xlink:title=" ">
<polygon fill="white" stroke="#666666" points="409.25,-32 205.75,-32 205.75,0 409.25,0 409.25,-32"/>
<text xml:space="preserve" text-anchor="start" x="213.75" y="-18.5" font-family="Helvetica,sans-Serif" font-size="10.00">editeurpanovisu.Gestionnaire</text>
<text xml:space="preserve" text-anchor="middle" x="307.5" y="-6.5" font-family="Helvetica,sans-Serif" font-size="10.00">InterfaceController.setiNombreImagesFond</text>
</a>
</g>
</g>
<!-- Node1&#45;&gt;Node6 -->
<g id="edge6_Node000001_Node000006" class="edge">
<title>Node1&#45;&gt;Node6</title>
<g id="a_edge6_Node000001_Node000006"><a xlink:title=" ">
<path fill="none" stroke="#63b8ff" d="M112.62,-87.55C136.35,-73.53 172.35,-53.71 205.75,-41 210.65,-39.14 215.74,-37.37 220.91,-35.71"/>
<polygon fill="#63b8ff" stroke="#63b8ff" points="221.61,-39.16 230.15,-32.89 219.57,-32.46 221.61,-39.16"/>
</a>
</g>
</g>
<!-- Node2&#45;&gt;Node2 -->
<g id="edge2_Node000002_Node000002" class="edge">
<title>Node2&#45;&gt;Node2</title>
<g id="a_edge2_Node000002_Node000002"><a xlink:title=" ">
<path fill="none" stroke="#63b8ff" d="M266.26,-232.21C262.88,-241.8 276.63,-250 307.5,-250 325.83,-250 338.12,-247.11 344.38,-242.75"/>
<polygon fill="#63b8ff" stroke="#63b8ff" points="347.57,-244.19 348.16,-233.61 341.1,-241.51 347.57,-244.19"/>
</a>
</g>
</g>
</g>
</svg>
