<?xml version="1.0" encoding="UTF-8" standalone="no"?>
<!DOCTYPE svg PUBLIC "-//W3C//DTD SVG 1.1//EN"
 "http://www.w3.org/Graphics/SVG/1.1/DTD/svg11.dtd">
<!-- Generated by graphviz version 13.1.2 (20250808.2320)
 -->
<!-- Title: editeurpanovisu.EditeurPanovisu.afficheBarrePersonnalisee Pages: 1 -->
<!--zoomable 357 -->

<svg id="main" version="1.1" xmlns="http://www.w3.org/2000/svg" xmlns:xlink="http://www.w3.org/1999/xlink" xml:space="preserve" onload="init(evt)">

<style type="text/css"><![CDATA[
.node, .edge {opacity: 0.7;}
.node.selected, .edge.selected {opacity: 1;}
.edge:hover path { stroke: red; }
.edge:hover polygon { stroke: red; fill: red; }
]]></style>

<defs>
  <circle id="rim" cx="0" cy="0" r="7"/>
  <circle id="rim2" cx="0" cy="0" r="3.5"/>
  <g id="zoomPlus">
    <use xlink:href="#rim" fill="#404040"><set attributeName="fill" to="#808080" begin="zoomplus.mouseover" end="zoomplus.mouseout"/></use>
    <path d="M-4,0h8M0,-4v8" fill="none" stroke="white" stroke-width="1.5" pointer-events="none"/>
  </g>
  <g id="zoomMin">
    <use xlink:href="#rim" fill="#404040"><set attributeName="fill" to="#808080" begin="zoomminus.mouseover" end="zoomminus.mouseout"/></use>
    <path d="M-4,0h8" fill="none" stroke="white" stroke-width="1.5" pointer-events="none"/>
  </g>
  <g id="arrowUp" transform="translate(30 24)">
    <use xlink:href="#rim"/>
    <path pointer-events="none" fill="none" stroke="white" stroke-width="1.5" d="M0,-3.0v7 M-2.5,-0.5L0,-3.0L2.5,-0.5"/>
  </g>
  <g id="arrowRight" transform="rotate(90) translate(36 -43)">
    <use xlink:href="#rim"/>
    <path pointer-events="none" fill="none" stroke="white" stroke-width="1.5" d="M0,-3.0v7 M-2.5,-0.5L0,-3.0L2.5,-0.5"/>
  </g>
  <g id="arrowDown" transform="rotate(180) translate(-30 -48)">
    <use xlink:href="#rim"/>
    <path pointer-events="none" fill="none" stroke="white" stroke-width="1.5" d="M0,-3.0v7 M-2.5,-0.5L0,-3.0L2.5,-0.5"/>
  </g>
  <g id="arrowLeft" transform="rotate(270) translate(-36 17)">
    <use xlink:href="#rim"/>
    <path pointer-events="none" fill="none" stroke="white" stroke-width="1.5" d="M0,-3.0v7 M-2.5,-0.5L0,-3.0L2.5,-0.5"/>
  </g>
  <g id="resetDef">
    <use xlink:href="#rim2" fill="#404040"><set attributeName="fill" to="#808080" begin="reset.mouseover" end="reset.mouseout"/></use>
  </g>
</defs>
<script type="application/ecmascript">
var viewWidth = 733;
var viewHeight = 357;
var sectionId = 'dynsection-2';
</script>
<script type="application/ecmascript" xlink:href="svg.min.js"/>
<svg id="graph" class="graph">
<g id="viewport">
<title>editeurpanovisu.EditeurPanovisu.afficheBarrePersonnalisee</title>
<!-- Node1 -->
<g id="Node000001" class="node">
<title>Node1</title>
<g id="a_Node000001"><a xlink:title=" ">
<polygon fill="#999999" stroke="#666666" points="190,-207 0,-207 0,-175 190,-175 190,-207"/>
<text xml:space="preserve" text-anchor="start" x="8" y="-193.5" font-family="Helvetica,sans-Serif" font-size="10.00">editeurpanovisu.EditeurPanovisu.affiche</text>
<text xml:space="preserve" text-anchor="middle" x="95" y="-181.5" font-family="Helvetica,sans-Serif" font-size="10.00">BarrePersonnalisee</text>
</a>
</g>
</g>
<!-- Node2 -->
<g id="Node000002" class="node">
<title>Node2</title>
<g id="a_Node000002"><a xlink:href="classediteurpanovisu_1_1EditeurPanovisu.html#a9dfe2ee4acc820595c5d1a6cd40ba0ae" target="_top" xlink:title=" ">
<polygon fill="white" stroke="#666666" points="432.5,-201 226,-201 226,-181 432.5,-181 432.5,-201"/>
<text xml:space="preserve" text-anchor="middle" x="329.25" y="-187.5" font-family="Helvetica,sans-Serif" font-size="10.00">editeurpanovisu.EditeurPanovisu.choixZone</text>
</a>
</g>
</g>
<!-- Node1&#45;&gt;Node2 -->
<g id="edge1_Node000001_Node000002" class="edge">
<title>Node1&#45;&gt;Node2</title>
<g id="a_edge1_Node000001_Node000002"><a xlink:title=" ">
<path fill="none" stroke="#63b8ff" d="M190.46,-184.36C198.32,-184.28 206.31,-184.24 214.28,-184.25"/>
<polygon fill="#63b8ff" stroke="#63b8ff" points="214.01,-187.75 224.02,-184.28 214.04,-180.75 214.01,-187.75"/>
</a>
</g>
</g>
<!-- Node3 -->
<g id="Node000003" class="node">
<title>Node3</title>
<g id="a_Node000003"><a xlink:href="classediteurpanovisu_1_1ZoneTelecommande.html#a0f64c648f9559ce62bcc2c7f911e152b" target="_top" xlink:title=" ">
<polygon fill="white" stroke="#666666" points="660,-320 468.5,-320 468.5,-288 660,-288 660,-320"/>
<text xml:space="preserve" text-anchor="start" x="476.5" y="-306.5" font-family="Helvetica,sans-Serif" font-size="10.00">editeurpanovisu.ZoneTelecommande.get</text>
<text xml:space="preserve" text-anchor="middle" x="564.25" y="-294.5" font-family="Helvetica,sans-Serif" font-size="10.00">StrCoordonneesZone</text>
</a>
</g>
</g>
<!-- Node1&#45;&gt;Node3 -->
<g id="edge17_Node000001_Node000003" class="edge">
<title>Node1&#45;&gt;Node3</title>
<g id="a_edge17_Node000001_Node000003"><a xlink:title=" ">
<path fill="none" stroke="#63b8ff" d="M164.19,-207.49C249.3,-228.07 394.55,-263.2 484.36,-284.92"/>
<polygon fill="#63b8ff" stroke="#63b8ff" points="483.29,-288.26 493.83,-287.21 484.94,-281.46 483.29,-288.26"/>
</a>
</g>
</g>
<!-- Node5 -->
<g id="Node000005" class="node">
<title>Node5</title>
<g id="a_Node000005"><a xlink:href="classediteurpanovisu_1_1ZoneTelecommande.html#a5891adda23405e784b8f56effcb6b004" target="_top" xlink:title=" ">
<polygon fill="white" stroke="#666666" points="660,-32 468.5,-32 468.5,0 660,0 660,-32"/>
<text xml:space="preserve" text-anchor="start" x="476.5" y="-18.5" font-family="Helvetica,sans-Serif" font-size="10.00">editeurpanovisu.ZoneTelecommande.get</text>
<text xml:space="preserve" text-anchor="middle" x="564.25" y="-6.5" font-family="Helvetica,sans-Serif" font-size="10.00">StrTypeZone</text>
</a>
</g>
</g>
<!-- Node1&#45;&gt;Node5 -->
<g id="edge18_Node000001_Node000005" class="edge">
<title>Node1&#45;&gt;Node5</title>
<g id="a_edge18_Node000001_Node000005"><a xlink:title=" ">
<path fill="none" stroke="#63b8ff" d="M132.44,-174.55C198.49,-145.14 342.78,-82.72 468.5,-41 474.15,-39.12 480.03,-37.29 485.96,-35.53"/>
<polygon fill="#63b8ff" stroke="#63b8ff" points="486.58,-39 495.22,-32.86 484.64,-32.27 486.58,-39"/>
</a>
</g>
</g>
<!-- Node6 -->
<g id="Node000006" class="node">
<title>Node6</title>
<g id="a_Node000006"><a xlink:href="leaflet_8js.html#a73aff07b65d7c0b09ccf6b4c4f1b7a9d" target="_top" xlink:title=" ">
<polygon fill="white" stroke="#666666" points="724.8,-270 696,-270 696,-250 724.8,-250 724.8,-270"/>
<text xml:space="preserve" text-anchor="middle" x="710.4" y="-256.5" font-family="Helvetica,sans-Serif" font-size="10.00">i</text>
</a>
</g>
</g>
<!-- Node1&#45;&gt;Node6 -->
<g id="edge19_Node000001_Node000006" class="edge">
<title>Node1&#45;&gt;Node6</title>
<g id="a_edge19_Node000001_Node000006"><a xlink:title=" ">
<path fill="none" stroke="#63b8ff" d="M121.52,-207.25C147.13,-222.98 188.1,-246.65 226,-262 329.64,-303.96 357.7,-313.97 468.5,-329 552.84,-340.44 584.3,-367.9 660,-329 679.59,-318.93 693.15,-297.09 701.04,-280.66"/>
<polygon fill="#63b8ff" stroke="#63b8ff" points="704.13,-282.31 704.98,-271.75 697.73,-279.47 704.13,-282.31"/>
</a>
</g>
</g>
<!-- Node2&#45;&gt;Node1 -->
<g id="edge2_Node000002_Node000001" class="edge">
<title>Node2&#45;&gt;Node1</title>
<g id="a_edge2_Node000002_Node000001"><a xlink:title=" ">
<path fill="none" stroke="#63b8ff" d="M225.54,-197.71C217.7,-197.76 209.78,-197.76 201.92,-197.73"/>
<polygon fill="#63b8ff" stroke="#63b8ff" points="202,-194.23 191.98,-197.66 201.95,-201.23 202,-194.23"/>
</a>
</g>
</g>
<!-- Node2&#45;&gt;Node3 -->
<g id="edge3_Node000002_Node000003" class="edge">
<title>Node2&#45;&gt;Node3</title>
<g id="a_edge3_Node000002_Node000003"><a xlink:title=" ">
<path fill="none" stroke="#63b8ff" d="M344.96,-201.42C369.56,-218.48 421.03,-252.59 468.5,-274 476.35,-277.54 484.75,-280.84 493.17,-283.86"/>
<polygon fill="#63b8ff" stroke="#63b8ff" points="491.79,-287.09 502.39,-287.04 494.07,-280.47 491.79,-287.09"/>
</a>
</g>
</g>
<!-- Node4 -->
<g id="Node000004" class="node">
<title>Node4</title>
<g id="a_Node000004"><a xlink:href="classediteurpanovisu_1_1ZoneTelecommande.html#a957b162f5d5a34f7521b0f79c77a37c8" target="_top" xlink:title=" ">
<polygon fill="white" stroke="#666666" points="660,-82 468.5,-82 468.5,-50 660,-50 660,-82"/>
<text xml:space="preserve" text-anchor="start" x="476.5" y="-68.5" font-family="Helvetica,sans-Serif" font-size="10.00">editeurpanovisu.ZoneTelecommande.get</text>
<text xml:space="preserve" text-anchor="middle" x="564.25" y="-56.5" font-family="Helvetica,sans-Serif" font-size="10.00">StrIdZone</text>
</a>
</g>
</g>
<!-- Node2&#45;&gt;Node4 -->
<g id="edge4_Node000002_Node000004" class="edge">
<title>Node2&#45;&gt;Node4</title>
<g id="a_edge4_Node000002_Node000004"><a xlink:title=" ">
<path fill="none" stroke="#63b8ff" d="M343.36,-180.56C372.41,-157.58 441.73,-103.67 468.5,-91 471.99,-89.35 475.6,-87.79 479.29,-86.33"/>
<polygon fill="#63b8ff" stroke="#63b8ff" points="480.26,-89.71 488.43,-82.97 477.84,-83.14 480.26,-89.71"/>
</a>
</g>
</g>
<!-- Node2&#45;&gt;Node5 -->
<g id="edge5_Node000002_Node000005" class="edge">
<title>Node2&#45;&gt;Node5</title>
<g id="a_edge5_Node000002_Node000005"><a xlink:title=" ">
<path fill="none" stroke="#63b8ff" d="M347.69,-180.7C369.69,-167.02 407.65,-141.05 432.5,-111 454.79,-84.04 441.23,-62.91 468.5,-41 469.66,-40.07 470.84,-39.18 472.06,-38.31"/>
<polygon fill="#63b8ff" stroke="#63b8ff" points="473.85,-41.32 480.57,-33.12 470.21,-35.34 473.85,-41.32"/>
</a>
</g>
</g>
<!-- Node2&#45;&gt;Node6 -->
<g id="edge6_Node000002_Node000006" class="edge">
<title>Node2&#45;&gt;Node6</title>
<g id="a_edge6_Node000002_Node000006"><a xlink:title=" ">
<path fill="none" stroke="#63b8ff" d="M353.17,-201.45C380.15,-213.24 426.59,-231.94 468.5,-241 545.92,-257.73 640.18,-260.12 684.32,-260.22"/>
<polygon fill="#63b8ff" stroke="#63b8ff" points="684.12,-263.72 694.12,-260.2 684.11,-256.72 684.12,-263.72"/>
</a>
</g>
</g>
<!-- Node7 -->
<g id="Node000007" class="node">
<title>Node7</title>
<g id="a_Node000007"><a xlink:href="classediteurpanovisu_1_1EditeurPanovisu.html#a9c8325680f840f88620058af793ed111" target="_top" xlink:title=" ">
<polygon fill="white" stroke="#666666" points="648.75,-132 479.75,-132 479.75,-100 648.75,-100 648.75,-132"/>
<text xml:space="preserve" text-anchor="start" x="487.75" y="-118.5" font-family="Helvetica,sans-Serif" font-size="10.00">editeurpanovisu.EditeurPanovisu.ol</text>
<text xml:space="preserve" text-anchor="middle" x="564.25" y="-106.5" font-family="Helvetica,sans-Serif" font-size="10.00">CreeAncresPourCercle</text>
</a>
</g>
</g>
<!-- Node2&#45;&gt;Node7 -->
<g id="edge7_Node000002_Node000007" class="edge">
<title>Node2&#45;&gt;Node7</title>
<g id="a_edge7_Node000002_Node000007"><a xlink:title=" ">
<path fill="none" stroke="#63b8ff" d="M357.03,-180.51C384.71,-169.86 429.27,-153.24 468.5,-141 474.53,-139.12 480.81,-137.25 487.14,-135.44"/>
<polygon fill="#63b8ff" stroke="#63b8ff" points="487.65,-138.94 496.33,-132.87 485.76,-132.2 487.65,-138.94"/>
</a>
</g>
</g>
<!-- Node10 -->
<g id="Node000010" class="node">
<title>Node10</title>
<g id="a_Node000010"><a xlink:href="classediteurpanovisu_1_1EditeurPanovisu.html#a6f18f6928e4c9edd8bbca32548e92a8e" target="_top" xlink:title=" ">
<polygon fill="white" stroke="#666666" points="648.75,-232 479.75,-232 479.75,-200 648.75,-200 648.75,-232"/>
<text xml:space="preserve" text-anchor="start" x="487.75" y="-218.5" font-family="Helvetica,sans-Serif" font-size="10.00">editeurpanovisu.EditeurPanovisu.ol</text>
<text xml:space="preserve" text-anchor="middle" x="564.25" y="-206.5" font-family="Helvetica,sans-Serif" font-size="10.00">CreeAncresPourPolygone</text>
</a>
</g>
</g>
<!-- Node2&#45;&gt;Node10 -->
<g id="edge10_Node000002_Node000010" class="edge">
<title>Node2&#45;&gt;Node10</title>
<g id="a_edge10_Node000002_Node000010"><a xlink:title=" ">
<path fill="none" stroke="#63b8ff" d="M428.05,-201.49C441.25,-202.91 454.77,-204.36 467.92,-205.77"/>
<polygon fill="#63b8ff" stroke="#63b8ff" points="467.55,-209.25 477.86,-206.84 468.29,-202.29 467.55,-209.25"/>
</a>
</g>
</g>
<!-- Node11 -->
<g id="Node000011" class="node">
<title>Node11</title>
<g id="a_Node000011"><a xlink:href="classediteurpanovisu_1_1EditeurPanovisu.html#aa6a068055ee9e2838ba26048a57ac8a6" target="_top" xlink:title=" ">
<polygon fill="white" stroke="#666666" points="648.75,-182 479.75,-182 479.75,-150 648.75,-150 648.75,-182"/>
<text xml:space="preserve" text-anchor="start" x="487.75" y="-168.5" font-family="Helvetica,sans-Serif" font-size="10.00">editeurpanovisu.EditeurPanovisu.ol</text>
<text xml:space="preserve" text-anchor="middle" x="564.25" y="-156.5" font-family="Helvetica,sans-Serif" font-size="10.00">CreeAncresPourRectangle</text>
</a>
</g>
</g>
<!-- Node2&#45;&gt;Node11 -->
<g id="edge14_Node000002_Node000011" class="edge">
<title>Node2&#45;&gt;Node11</title>
<g id="a_edge14_Node000002_Node000011"><a xlink:title=" ">
<path fill="none" stroke="#63b8ff" d="M428.05,-180.51C441.25,-179.09 454.77,-177.64 467.92,-176.23"/>
<polygon fill="#63b8ff" stroke="#63b8ff" points="468.29,-179.71 477.86,-175.16 467.55,-172.75 468.29,-179.71"/>
</a>
</g>
</g>
<!-- Node8 -->
<g id="Node000008" class="node">
<title>Node8</title>
<g id="a_Node000008"><a xlink:href="leaflet_8js.html#a008d931e56b6fc013061112f26afbffb" target="_top" xlink:title=" ">
<polygon fill="white" stroke="#666666" points="724.8,-195 696,-195 696,-175 724.8,-175 724.8,-195"/>
<text xml:space="preserve" text-anchor="middle" x="710.4" y="-181.5" font-family="Helvetica,sans-Serif" font-size="10.00">x</text>
</a>
</g>
</g>
<!-- Node7&#45;&gt;Node8 -->
<g id="edge8_Node000007_Node000008" class="edge">
<title>Node7&#45;&gt;Node8</title>
<g id="a_edge8_Node000007_Node000008"><a xlink:title=" ">
<path fill="none" stroke="#63b8ff" d="M640.98,-132.48C647.57,-134.96 654,-137.78 660,-141 672.14,-147.52 683.76,-157.6 692.67,-166.46"/>
<polygon fill="#63b8ff" stroke="#63b8ff" points="690.11,-168.85 699.55,-173.65 695.17,-164.01 690.11,-168.85"/>
</a>
</g>
</g>
<!-- Node9 -->
<g id="Node000009" class="node">
<title>Node9</title>
<g id="a_Node000009"><a xlink:href="leaflet_8js.html#a9f9b62a373d2bb4624b7ac2df8151435" target="_top" xlink:title=" ">
<polygon fill="white" stroke="#666666" points="724.8,-157 696,-157 696,-137 724.8,-137 724.8,-157"/>
<text xml:space="preserve" text-anchor="middle" x="710.4" y="-143.5" font-family="Helvetica,sans-Serif" font-size="10.00">y</text>
</a>
</g>
</g>
<!-- Node7&#45;&gt;Node9 -->
<g id="edge9_Node000007_Node000009" class="edge">
<title>Node7&#45;&gt;Node9</title>
<g id="a_edge9_Node000007_Node000009"><a xlink:title=" ">
<path fill="none" stroke="#63b8ff" d="M641.97,-132.5C657.5,-135.84 672.74,-139.12 684.8,-141.71"/>
<polygon fill="#63b8ff" stroke="#63b8ff" points="683.69,-145.05 694.2,-143.73 685.16,-138.21 683.69,-145.05"/>
</a>
</g>
</g>
<!-- Node10&#45;&gt;Node6 -->
<g id="edge11_Node000010_Node000006" class="edge">
<title>Node10&#45;&gt;Node6</title>
<g id="a_edge11_Node000010_Node000006"><a xlink:title=" ">
<path fill="none" stroke="#63b8ff" d="M618.93,-232.38C641.54,-239.29 666.74,-246.98 684.79,-252.49"/>
<polygon fill="#63b8ff" stroke="#63b8ff" points="683.74,-255.83 694.32,-255.4 685.78,-249.13 683.74,-255.83"/>
</a>
</g>
</g>
<!-- Node10&#45;&gt;Node8 -->
<g id="edge12_Node000010_Node000008" class="edge">
<title>Node10&#45;&gt;Node8</title>
<g id="a_edge12_Node000010_Node000008"><a xlink:title=" ">
<path fill="none" stroke="#63b8ff" d="M641.97,-199.5C657.5,-196.16 672.74,-192.88 684.8,-190.29"/>
<polygon fill="#63b8ff" stroke="#63b8ff" points="685.16,-193.79 694.2,-188.27 683.69,-186.95 685.16,-193.79"/>
</a>
</g>
</g>
<!-- Node10&#45;&gt;Node9 -->
<g id="edge13_Node000010_Node000009" class="edge">
<title>Node10&#45;&gt;Node9</title>
<g id="a_edge13_Node000010_Node000009"><a xlink:title=" ">
<path fill="none" stroke="#63b8ff" d="M640.98,-199.52C647.57,-197.04 654,-194.22 660,-191 672.14,-184.48 683.76,-174.4 692.67,-165.54"/>
<polygon fill="#63b8ff" stroke="#63b8ff" points="695.17,-167.99 699.55,-158.35 690.11,-163.15 695.17,-167.99"/>
</a>
</g>
</g>
<!-- Node11&#45;&gt;Node8 -->
<g id="edge15_Node000011_Node000008" class="edge">
<title>Node11&#45;&gt;Node8</title>
<g id="a_edge15_Node000011_Node000008"><a xlink:title=" ">
<path fill="none" stroke="#63b8ff" d="M649.1,-177.05C661.96,-178.75 674.3,-180.37 684.44,-181.71"/>
<polygon fill="#63b8ff" stroke="#63b8ff" points="683.71,-185.14 694.09,-182.98 684.63,-178.2 683.71,-185.14"/>
</a>
</g>
</g>
<!-- Node11&#45;&gt;Node9 -->
<g id="edge16_Node000011_Node000009" class="edge">
<title>Node11&#45;&gt;Node9</title>
<g id="a_edge16_Node000011_Node000009"><a xlink:title=" ">
<path fill="none" stroke="#63b8ff" d="M649.1,-154.95C661.96,-153.25 674.3,-151.63 684.44,-150.29"/>
<polygon fill="#63b8ff" stroke="#63b8ff" points="684.63,-153.8 694.09,-149.02 683.71,-146.86 684.63,-153.8"/>
</a>
</g>
</g>
</g>
</svg>

<g id="navigator" transform="translate(0 0)" fill="#404254">
  <rect fill="#f2f5e9" fill-opacity="0.5" stroke="#606060" stroke-width=".5" x="0" y="0" width="60" height="60"/>
  <use id="zoomplus" xlink:href="#zoomPlus" x="17" y="9" onmousedown="handleZoom(evt,'in')"/>
  <use id="zoomminus" xlink:href="#zoomMin" x="42" y="9" onmousedown="handleZoom(evt,'out')"/>
  <use id="reset" xlink:href="#resetDef" x="30" y="36" onmousedown="handleReset()"/>
   <use id="arrowup" xlink:href="#arrowUp" x="0" y="0" onmousedown="handlePan(0,-1)"/>
  <use id="arrowright" xlink:href="#arrowRight" x="0" y="0" onmousedown="handlePan(1,0)"/>
  <use id="arrowdown" xlink:href="#arrowDown" x="0" y="0" onmousedown="handlePan(0,1)"/>
  <use id="arrowleft" xlink:href="#arrowLeft" x="0" y="0" onmousedown="handlePan(-1,0)"/>
</g>
<svg viewBox="0 0 15 15" width="100%" height="30px" preserveAspectRatio="xMaxYMin meet">
 <g id="arrow_out" transform="scale(0.3 0.3)">
  <a xlink:href="classediteurpanovisu_1_1EditeurPanovisu_a29d4d3ebbb92f066b5e8218cac9fb791_cgraph_org.svg" target="_base">
   <rect id="button" ry="5" rx="5" y="6" x="6" height="38" width="38"
        fill="#f2f5e9" fill-opacity="0.5" stroke="#606060" stroke-width="1.0"/>
   <path id="arrow"
     d="M 11.500037,31.436501 C 11.940474,20.09759 22.043105,11.32322 32.158766,21.979434 L 37.068811,17.246167 C 37.068811,17.246167 37.088388,32 37.088388,32 L 22.160133,31.978069 C 22.160133,31.978069 26.997745,27.140456 26.997745,27.140456 C 18.528582,18.264221 13.291696,25.230495 11.500037,31.436501 z"
     style="fill:#404040;"/>
  </a>
 </g>
</svg>

<style type='text/css'>
<![CDATA[
[data-mouse-over-selected='false'] { opacity: 0.7; }
[data-mouse-over-selected='true']  { opacity: 1.0; }
]]>
</style>
<script type="application/ecmascript"><![CDATA[
document.addEventListener('DOMContentLoaded', (event) => {
  highlightEdges();
  highlightAdjacentNodes();
});
]]></script>
</svg>
