<?xml version="1.0" encoding="UTF-8" standalone="no"?>
<!DOCTYPE svg PUBLIC "-//W3C//DTD SVG 1.1//EN"
 "http://www.w3.org/Graphics/SVG/1.1/DTD/svg11.dtd">
<!-- Generated by graphviz version 13.1.2 (20250808.2320)
 -->
<!-- Title: editeurpanovisu.EditeurPanovisu.setStrTypeFichierTransf Pages: 1 -->
<svg width="1723pt" height="134pt"
 viewBox="0.00 0.00 1723.00 134.00" xmlns="http://www.w3.org/2000/svg" xmlns:xlink="http://www.w3.org/1999/xlink">
<g id="graph0" class="graph" transform="scale(1 1) rotate(0) translate(4 130)">
<title>editeurpanovisu.EditeurPanovisu.setStrTypeFichierTransf</title>
<!-- Node1 -->
<g id="Node000001" class="node">
<title>Node1</title>
<g id="a_Node000001"><a xlink:title=" ">
<polygon fill="#999999" stroke="#666666" points="1715,-76 1540,-76 1540,-44 1715,-44 1715,-76"/>
<text xml:space="preserve" text-anchor="start" x="1548" y="-62.5" font-family="Helvetica,sans-Serif" font-size="10.00">editeurpanovisu.EditeurPanovisu.set</text>
<text xml:space="preserve" text-anchor="middle" x="1627.5" y="-50.5" font-family="Helvetica,sans-Serif" font-size="10.00">StrTypeFichierTransf</text>
</a>
</g>
</g>
<!-- Node2 -->
<g id="Node000002" class="node">
<title>Node2</title>
<g id="a_Node000002"><a xlink:href="classediteurpanovisu_1_1EquiCubeDialogController.html#a05e62237b5363eba15018189320cf5db" target="_top" xlink:title=" ">
<polygon fill="white" stroke="#666666" points="886.75,-101 736.5,-101 736.5,-69 886.75,-69 886.75,-101"/>
<text xml:space="preserve" text-anchor="start" x="744.5" y="-87.5" font-family="Helvetica,sans-Serif" font-size="10.00">editeurpanovisu.EquiCube</text>
<text xml:space="preserve" text-anchor="middle" x="811.62" y="-75.5" font-family="Helvetica,sans-Serif" font-size="10.00">DialogController.afficheFenetre</text>
</a>
</g>
</g>
<!-- Node1&#45;&gt;Node2 -->
<g id="edge1_Node000001_Node000002" class="edge">
<title>Node1&#45;&gt;Node2</title>
<g id="a_edge1_Node000001_Node000002"><a xlink:title=" ">
<path fill="none" stroke="#63b8ff" d="M1528.31,-62.17C1395.53,-65.23 1151.35,-71.31 943,-79 924.89,-79.67 905.36,-80.51 887.08,-81.34"/>
<polygon fill="#63b8ff" stroke="#63b8ff" points="1528.2,-65.67 1538.12,-61.94 1528.04,-58.67 1528.2,-65.67"/>
</a>
</g>
</g>
<!-- Node7 -->
<g id="Node000007" class="node">
<title>Node7</title>
<g id="a_Node000007"><a xlink:href="classediteurpanovisu_1_1EditeurPanovisu.html#a6d5fd7170b4fe9e54f3606c9ce90a56a" target="_top" xlink:title=" ">
<polygon fill="white" stroke="#666666" points="1504,-32 1332.75,-32 1332.75,0 1504,0 1504,-32"/>
<text xml:space="preserve" text-anchor="start" x="1340.75" y="-18.5" font-family="Helvetica,sans-Serif" font-size="10.00">editeurpanovisu.EditeurPanovisu.lis</text>
<text xml:space="preserve" text-anchor="middle" x="1418.38" y="-6.5" font-family="Helvetica,sans-Serif" font-size="10.00">Preferences</text>
</a>
</g>
</g>
<!-- Node1&#45;&gt;Node7 -->
<g id="edge7_Node000001_Node000007" class="edge">
<title>Node1&#45;&gt;Node7</title>
<g id="a_edge7_Node000001_Node000007"><a xlink:title=" ">
<path fill="none" stroke="#63b8ff" d="M1538.2,-41.24C1524.52,-38.34 1510.47,-35.35 1497.05,-32.5"/>
<polygon fill="#63b8ff" stroke="#63b8ff" points="1537.09,-44.58 1547.6,-43.24 1538.54,-37.74 1537.09,-44.58"/>
</a>
</g>
</g>
<!-- Node10 -->
<g id="Node000010" class="node">
<title>Node10</title>
<g id="a_Node000010"><a xlink:href="classediteurpanovisu_1_1EquiCubeDialogController.html#a859d7bcbdb37f828495100df8fa4f397" target="_top" xlink:title=" ">
<polygon fill="white" stroke="#666666" points="1488.25,-120 1348.5,-120 1348.5,-88 1488.25,-88 1488.25,-120"/>
<text xml:space="preserve" text-anchor="start" x="1356.5" y="-106.5" font-family="Helvetica,sans-Serif" font-size="10.00">editeurpanovisu.EquiCube</text>
<text xml:space="preserve" text-anchor="middle" x="1418.38" y="-94.5" font-family="Helvetica,sans-Serif" font-size="10.00">DialogController.traiteFichier</text>
</a>
</g>
</g>
<!-- Node1&#45;&gt;Node10 -->
<g id="edge11_Node000001_Node000010" class="edge">
<title>Node1&#45;&gt;Node10</title>
<g id="a_edge11_Node000001_Node000010"><a xlink:title=" ">
<path fill="none" stroke="#63b8ff" d="M1538.25,-78.75C1521.62,-82.28 1504.46,-85.93 1488.52,-89.31"/>
<polygon fill="#63b8ff" stroke="#63b8ff" points="1538.54,-82.26 1547.6,-76.76 1537.09,-75.42 1538.54,-82.26"/>
</a>
</g>
</g>
<!-- Node3 -->
<g id="Node000003" class="node">
<title>Node3</title>
<g id="a_Node000003"><a xlink:href="classediteurpanovisu_1_1EditeurPanovisu.html#a93957c2097ff96e3588049e82b749c2d" target="_top" xlink:title=" ">
<polygon fill="white" stroke="#666666" points="680.25,-76 456.5,-76 456.5,-44 680.25,-44 680.25,-76"/>
<text xml:space="preserve" text-anchor="start" x="464.5" y="-62.5" font-family="Helvetica,sans-Serif" font-size="10.00">editeurpanovisu.EditeurPanovisu.transformation</text>
<text xml:space="preserve" text-anchor="middle" x="568.38" y="-50.5" font-family="Helvetica,sans-Serif" font-size="10.00">Cube2Equi</text>
</a>
</g>
</g>
<!-- Node2&#45;&gt;Node3 -->
<g id="edge2_Node000002_Node000003" class="edge">
<title>Node2&#45;&gt;Node3</title>
<g id="a_edge2_Node000002_Node000003"><a xlink:title=" ">
<path fill="none" stroke="#63b8ff" d="M724.96,-76.12C710.63,-74.64 695.59,-73.08 680.74,-71.54"/>
<polygon fill="#63b8ff" stroke="#63b8ff" points="724.46,-79.59 734.77,-77.14 725.18,-72.63 724.46,-79.59"/>
</a>
</g>
</g>
<!-- Node6 -->
<g id="Node000006" class="node">
<title>Node6</title>
<g id="a_Node000006"><a xlink:href="classediteurpanovisu_1_1EditeurPanovisu.html#a11f8778a8326d6a7dee94344a246ec02" target="_top" xlink:title=" ">
<polygon fill="white" stroke="#666666" points="680.25,-126 456.5,-126 456.5,-94 680.25,-94 680.25,-126"/>
<text xml:space="preserve" text-anchor="start" x="464.5" y="-112.5" font-family="Helvetica,sans-Serif" font-size="10.00">editeurpanovisu.EditeurPanovisu.transformation</text>
<text xml:space="preserve" text-anchor="middle" x="568.38" y="-100.5" font-family="Helvetica,sans-Serif" font-size="10.00">Equi2Cube</text>
</a>
</g>
</g>
<!-- Node2&#45;&gt;Node6 -->
<g id="edge5_Node000002_Node000006" class="edge">
<title>Node2&#45;&gt;Node6</title>
<g id="a_edge5_Node000002_Node000006"><a xlink:title=" ">
<path fill="none" stroke="#63b8ff" d="M724.96,-93.88C710.63,-95.36 695.59,-96.92 680.74,-98.46"/>
<polygon fill="#63b8ff" stroke="#63b8ff" points="725.18,-97.37 734.77,-92.86 724.46,-90.41 725.18,-97.37"/>
</a>
</g>
</g>
<!-- Node4 -->
<g id="Node000004" class="node">
<title>Node4</title>
<g id="a_Node000004"><a xlink:href="classediteurpanovisu_1_1EditeurPanovisu.html#ac912b80c1f2ac97def60ff005c5c480b" target="_top" xlink:title=" ">
<polygon fill="white" stroke="#666666" points="420.5,-70 216.25,-70 216.25,-50 420.5,-50 420.5,-70"/>
<text xml:space="preserve" text-anchor="middle" x="318.38" y="-56.5" font-family="Helvetica,sans-Serif" font-size="10.00">editeurpanovisu.EditeurPanovisu.creeMenu</text>
</a>
</g>
</g>
<!-- Node3&#45;&gt;Node4 -->
<g id="edge3_Node000003_Node000004" class="edge">
<title>Node3&#45;&gt;Node4</title>
<g id="a_edge3_Node000003_Node000004"><a xlink:title=" ">
<path fill="none" stroke="#63b8ff" d="M444.78,-60C436.78,-60 428.77,-60 420.88,-60"/>
<polygon fill="#63b8ff" stroke="#63b8ff" points="444.56,-63.5 454.56,-60 444.56,-56.5 444.56,-63.5"/>
</a>
</g>
</g>
<!-- Node5 -->
<g id="Node000005" class="node">
<title>Node5</title>
<g id="a_Node000005"><a xlink:href="classediteurpanovisu_1_1EditeurPanovisu.html#a86c393eee88f54c694db994ddd85b90d" target="_top" xlink:title=" ">
<polygon fill="white" stroke="#666666" points="180.25,-76 0,-76 0,-44 180.25,-44 180.25,-76"/>
<text xml:space="preserve" text-anchor="start" x="8" y="-62.5" font-family="Helvetica,sans-Serif" font-size="10.00">editeurpanovisu.EditeurPanovisu.cree</text>
<text xml:space="preserve" text-anchor="middle" x="90.12" y="-50.5" font-family="Helvetica,sans-Serif" font-size="10.00">Environnement</text>
</a>
</g>
</g>
<!-- Node4&#45;&gt;Node5 -->
<g id="edge4_Node000004_Node000005" class="edge">
<title>Node4&#45;&gt;Node5</title>
<g id="a_edge4_Node000004_Node000005"><a xlink:title=" ">
<path fill="none" stroke="#63b8ff" d="M204.51,-60C196.49,-60 188.46,-60 180.6,-60"/>
<polygon fill="#63b8ff" stroke="#63b8ff" points="204.32,-63.5 214.32,-60 204.32,-56.5 204.32,-63.5"/>
</a>
</g>
</g>
<!-- Node6&#45;&gt;Node4 -->
<g id="edge6_Node000006_Node000004" class="edge">
<title>Node6&#45;&gt;Node4</title>
<g id="a_edge6_Node000006_Node000004"><a xlink:title=" ">
<path fill="none" stroke="#63b8ff" d="M474.63,-91.3C439.71,-84.26 401.25,-76.51 371.35,-70.48"/>
<polygon fill="#63b8ff" stroke="#63b8ff" points="473.85,-94.71 484.34,-93.26 475.23,-87.85 473.85,-94.71"/>
</a>
</g>
</g>
<!-- Node8 -->
<g id="Node000008" class="node">
<title>Node8</title>
<g id="a_Node000008"><a xlink:href="classediteurpanovisu_1_1EditeurPanovisu.html#a2b3125ffe2e6291efacf19df6cb30a8d" target="_top" xlink:title=" ">
<polygon fill="white" stroke="#666666" points="1296.75,-26 1115.75,-26 1115.75,-6 1296.75,-6 1296.75,-26"/>
<text xml:space="preserve" text-anchor="middle" x="1206.25" y="-12.5" font-family="Helvetica,sans-Serif" font-size="10.00">editeurpanovisu.EditeurPanovisu.start</text>
</a>
</g>
</g>
<!-- Node7&#45;&gt;Node8 -->
<g id="edge8_Node000007_Node000008" class="edge">
<title>Node7&#45;&gt;Node8</title>
<g id="a_edge8_Node000007_Node000008"><a xlink:title=" ">
<path fill="none" stroke="#63b8ff" d="M1321.26,-16C1313.26,-16 1305.19,-16 1297.23,-16"/>
<polygon fill="#63b8ff" stroke="#63b8ff" points="1321,-19.5 1331,-16 1321,-12.5 1321,-19.5"/>
</a>
</g>
</g>
<!-- Node9 -->
<g id="Node000009" class="node">
<title>Node9</title>
<g id="a_Node000009"><a xlink:href="classediteurpanovisu_1_1EditeurPanovisu.html#a94e36b9e9d09ab1a4c852b8a8cefa927" target="_top" xlink:title=" ">
<polygon fill="white" stroke="#666666" points="907,-32 716.25,-32 716.25,0 907,0 907,-32"/>
<text xml:space="preserve" text-anchor="start" x="724.25" y="-18.5" font-family="Helvetica,sans-Serif" font-size="10.00">editeurpanovisu.EditeurPanovisu.genere</text>
<text xml:space="preserve" text-anchor="middle" x="811.62" y="-6.5" font-family="Helvetica,sans-Serif" font-size="10.00">Visite</text>
</a>
</g>
</g>
<!-- Node8&#45;&gt;Node9 -->
<g id="edge9_Node000008_Node000009" class="edge">
<title>Node8&#45;&gt;Node9</title>
<g id="a_edge9_Node000008_Node000009"><a xlink:title=" ">
<path fill="none" stroke="#63b8ff" d="M1104.52,-16C1043.79,-16 966.91,-16 907.3,-16"/>
<polygon fill="#63b8ff" stroke="#63b8ff" points="1104.15,-19.5 1114.15,-16 1104.15,-12.5 1104.15,-19.5"/>
</a>
</g>
</g>
<!-- Node9&#45;&gt;Node4 -->
<g id="edge10_Node000009_Node000004" class="edge">
<title>Node9&#45;&gt;Node4</title>
<g id="a_edge10_Node000009_Node000004"><a xlink:title=" ">
<path fill="none" stroke="#63b8ff" d="M704.92,-18.17C634.37,-20.48 539.65,-25.23 456.5,-35 427.06,-38.46 394.4,-44.33 368.33,-49.52"/>
<polygon fill="#63b8ff" stroke="#63b8ff" points="704.63,-21.68 714.52,-17.87 704.41,-14.68 704.63,-21.68"/>
</a>
</g>
</g>
<!-- Node11 -->
<g id="Node000011" class="node">
<title>Node11</title>
<g id="a_Node000011"><a xlink:href="classediteurpanovisu_1_1EquiCubeDialogController.html#a01c288eacc25996544414cc5e9ceb0a1" target="_top" xlink:title=" ">
<polygon fill="white" stroke="#666666" points="1280.62,-120 1131.88,-120 1131.88,-88 1280.62,-88 1280.62,-120"/>
<text xml:space="preserve" text-anchor="start" x="1139.88" y="-106.5" font-family="Helvetica,sans-Serif" font-size="10.00">editeurpanovisu.EquiCube</text>
<text xml:space="preserve" text-anchor="middle" x="1206.25" y="-94.5" font-family="Helvetica,sans-Serif" font-size="10.00">DialogController.tskTraitement</text>
</a>
</g>
</g>
<!-- Node10&#45;&gt;Node11 -->
<g id="edge12_Node000010_Node000011" class="edge">
<title>Node10&#45;&gt;Node11</title>
<g id="a_edge12_Node000010_Node000011"><a xlink:title=" ">
<path fill="none" stroke="#63b8ff" d="M1337,-104C1318.62,-104 1299.17,-104 1281.09,-104"/>
<polygon fill="#63b8ff" stroke="#63b8ff" points="1336.77,-107.5 1346.77,-104 1336.77,-100.5 1336.77,-107.5"/>
</a>
</g>
</g>
<!-- Node12 -->
<g id="Node000012" class="node">
<title>Node12</title>
<g id="a_Node000012"><a xlink:href="classediteurpanovisu_1_1EquiCubeDialogController.html#a29f2bdf8cb9ac2486c6d038ada9c2ce6" target="_top" xlink:title=" ">
<polygon fill="white" stroke="#666666" points="1079.75,-120 943,-120 943,-88 1079.75,-88 1079.75,-120"/>
<text xml:space="preserve" text-anchor="start" x="951" y="-106.5" font-family="Helvetica,sans-Serif" font-size="10.00">editeurpanovisu.EquiCube</text>
<text xml:space="preserve" text-anchor="middle" x="1011.38" y="-94.5" font-family="Helvetica,sans-Serif" font-size="10.00">DialogController.validerE2C</text>
</a>
</g>
</g>
<!-- Node11&#45;&gt;Node12 -->
<g id="edge13_Node000011_Node000012" class="edge">
<title>Node11&#45;&gt;Node12</title>
<g id="a_edge13_Node000011_Node000012"><a xlink:title=" ">
<path fill="none" stroke="#63b8ff" d="M1120.29,-104C1106.83,-104 1093.06,-104 1080.06,-104"/>
<polygon fill="#63b8ff" stroke="#63b8ff" points="1119.99,-107.5 1129.99,-104 1119.99,-100.5 1119.99,-107.5"/>
</a>
</g>
</g>
<!-- Node12&#45;&gt;Node2 -->
<g id="edge14_Node000012_Node000002" class="edge">
<title>Node12&#45;&gt;Node2</title>
<g id="a_edge14_Node000012_Node000002"><a xlink:title=" ">
<path fill="none" stroke="#63b8ff" d="M931.53,-96.42C916.88,-95.02 901.61,-93.55 887.09,-92.15"/>
<polygon fill="#63b8ff" stroke="#63b8ff" points="930.8,-99.87 941.09,-97.34 931.47,-92.9 930.8,-99.87"/>
</a>
</g>
</g>
</g>
</svg>
