<?xml version="1.0" encoding="UTF-8" standalone="no"?>
<!DOCTYPE svg PUBLIC "-//W3C//DTD SVG 1.1//EN"
 "http://www.w3.org/Graphics/SVG/1.1/DTD/svg11.dtd">
<!-- Generated by graphviz version 13.1.2 (20250808.2320)
 -->
<!-- Title: editeurpanovisu.NavigateurOpenLayersSeul.getApChoixCartographie Pages: 1 -->
<svg width="841pt" height="68pt"
 viewBox="0.00 0.00 841.00 68.00" xmlns="http://www.w3.org/2000/svg" xmlns:xlink="http://www.w3.org/1999/xlink">
<g id="graph0" class="graph" transform="scale(1 1) rotate(0) translate(4 64)">
<title>editeurpanovisu.NavigateurOpenLayersSeul.getApChoixCartographie</title>
<!-- Node1 -->
<g id="Node000001" class="node">
<title>Node1</title>
<g id="a_Node000001"><a xlink:title=" ">
<polygon fill="#999999" stroke="#666666" points="832.75,-38 635.25,-38 635.25,-6 832.75,-6 832.75,-38"/>
<text xml:space="preserve" text-anchor="start" x="643.25" y="-24.5" font-family="Helvetica,sans-Serif" font-size="10.00">editeurpanovisu.Navigateur</text>
<text xml:space="preserve" text-anchor="middle" x="734" y="-12.5" font-family="Helvetica,sans-Serif" font-size="10.00">OpenLayersSeul.getApChoixCartographie</text>
</a>
</g>
</g>
<!-- Node2 -->
<g id="Node000002" class="node">
<title>Node2</title>
<g id="a_Node000002"><a xlink:href="classediteurpanovisu_1_1NavigateurOpenLayersSeul.html#a6a948b85fe184214f9e5d7b774807b6a" target="_top" xlink:title=" ">
<polygon fill="white" stroke="#666666" points="599.25,-60 406.25,-60 406.25,-28 599.25,-28 599.25,-60"/>
<text xml:space="preserve" text-anchor="start" x="414.25" y="-46.5" font-family="Helvetica,sans-Serif" font-size="10.00">editeurpanovisu.Navigateur</text>
<text xml:space="preserve" text-anchor="middle" x="502.75" y="-34.5" font-family="Helvetica,sans-Serif" font-size="10.00">OpenLayersSeul.afficheCartesOpenlayer</text>
</a>
</g>
</g>
<!-- Node1&#45;&gt;Node2 -->
<g id="edge1_Node000001_Node000002" class="edge">
<title>Node1&#45;&gt;Node2</title>
<g id="a_edge1_Node000001_Node000002"><a xlink:title=" ">
<path fill="none" stroke="#63b8ff" d="M623.51,-32.51C615.52,-33.27 607.49,-34.04 599.58,-34.8"/>
<polygon fill="#63b8ff" stroke="#63b8ff" points="623.65,-36.01 633.27,-31.57 622.98,-29.04 623.65,-36.01"/>
</a>
</g>
</g>
<!-- Node4 -->
<g id="Node000004" class="node">
<title>Node4</title>
<g id="a_Node000004"><a xlink:href="classediteurpanovisu_1_1NavigateurOpenLayersSeul.html#a86413462bed95fc61c68740e91499c5c" target="_top" xlink:title=" ">
<polygon fill="white" stroke="#666666" points="166.75,-44 0,-44 0,0 166.75,0 166.75,-44"/>
<text xml:space="preserve" text-anchor="start" x="8" y="-30.5" font-family="Helvetica,sans-Serif" font-size="10.00">editeurpanovisu.Navigateur</text>
<text xml:space="preserve" text-anchor="start" x="8" y="-18.5" font-family="Helvetica,sans-Serif" font-size="10.00">OpenLayersSeul.afficheNavigateur</text>
<text xml:space="preserve" text-anchor="middle" x="83.38" y="-6.5" font-family="Helvetica,sans-Serif" font-size="10.00">OpenLayer</text>
</a>
</g>
</g>
<!-- Node1&#45;&gt;Node4 -->
<g id="edge4_Node000001_Node000004" class="edge">
<title>Node1&#45;&gt;Node4</title>
<g id="a_edge4_Node000001_Node000004"><a xlink:title=" ">
<path fill="none" stroke="#63b8ff" d="M623.26,-19.34C615.13,-19.2 607.06,-19.09 599.25,-19 423.04,-17.02 378.96,-16.77 202.75,-19 191.24,-19.15 179.1,-19.37 167.16,-19.63"/>
<polygon fill="#63b8ff" stroke="#63b8ff" points="623.18,-22.84 633.25,-19.52 623.31,-15.84 623.18,-22.84"/>
</a>
</g>
</g>
<!-- Node3 -->
<g id="Node000003" class="node">
<title>Node3</title>
<g id="a_Node000003"><a xlink:href="classediteurpanovisu_1_1NavigateurOpenLayersSeul.html#a90af8f534bb74bfb718faa9c50193d76" target="_top" xlink:title=" ">
<polygon fill="white" stroke="#666666" points="370.25,-60 202.75,-60 202.75,-28 370.25,-28 370.25,-60"/>
<text xml:space="preserve" text-anchor="start" x="210.75" y="-46.5" font-family="Helvetica,sans-Serif" font-size="10.00">editeurpanovisu.Navigateur</text>
<text xml:space="preserve" text-anchor="middle" x="286.5" y="-34.5" font-family="Helvetica,sans-Serif" font-size="10.00">OpenLayersSeul.valideBingApiKey</text>
</a>
</g>
</g>
<!-- Node2&#45;&gt;Node3 -->
<g id="edge2_Node000002_Node000003" class="edge">
<title>Node2&#45;&gt;Node3</title>
<g id="a_edge2_Node000002_Node000003"><a xlink:title=" ">
<path fill="none" stroke="#63b8ff" d="M394.52,-44C386.45,-44 378.38,-44 370.5,-44"/>
<polygon fill="#63b8ff" stroke="#63b8ff" points="394.39,-47.5 404.39,-44 394.39,-40.5 394.39,-47.5"/>
</a>
</g>
</g>
<!-- Node3&#45;&gt;Node4 -->
<g id="edge3_Node000003_Node000004" class="edge">
<title>Node3&#45;&gt;Node4</title>
<g id="a_edge3_Node000003_Node000004"><a xlink:title=" ">
<path fill="none" stroke="#63b8ff" d="M191.22,-33.69C183.18,-32.81 175.09,-31.92 167.15,-31.05"/>
<polygon fill="#63b8ff" stroke="#63b8ff" points="190.71,-37.15 201.03,-34.76 191.47,-30.19 190.71,-37.15"/>
</a>
</g>
</g>
</g>
</svg>
