<?xml version="1.0" encoding="UTF-8" standalone="no"?>
<!DOCTYPE svg PUBLIC "-//W3C//DTD SVG 1.1//EN"
 "http://www.w3.org/Graphics/SVG/1.1/DTD/svg11.dtd">
<!-- Generated by graphviz version 13.1.2 (20250808.2320)
 -->
<!-- Title: editeurpanovisu.GestionnaireInterfaceController.isbReplieDemarrageCarte Pages: 1 -->
<!--zoomable 347 -->

<svg id="main" version="1.1" xmlns="http://www.w3.org/2000/svg" xmlns:xlink="http://www.w3.org/1999/xlink" xml:space="preserve" onload="init(evt)">

<style type="text/css"><![CDATA[
.node, .edge {opacity: 0.7;}
.node.selected, .edge.selected {opacity: 1;}
.edge:hover path { stroke: red; }
.edge:hover polygon { stroke: red; fill: red; }
]]></style>

<defs>
  <circle id="rim" cx="0" cy="0" r="7"/>
  <circle id="rim2" cx="0" cy="0" r="3.5"/>
  <g id="zoomPlus">
    <use xlink:href="#rim" fill="#404040"><set attributeName="fill" to="#808080" begin="zoomplus.mouseover" end="zoomplus.mouseout"/></use>
    <path d="M-4,0h8M0,-4v8" fill="none" stroke="white" stroke-width="1.5" pointer-events="none"/>
  </g>
  <g id="zoomMin">
    <use xlink:href="#rim" fill="#404040"><set attributeName="fill" to="#808080" begin="zoomminus.mouseover" end="zoomminus.mouseout"/></use>
    <path d="M-4,0h8" fill="none" stroke="white" stroke-width="1.5" pointer-events="none"/>
  </g>
  <g id="arrowUp" transform="translate(30 24)">
    <use xlink:href="#rim"/>
    <path pointer-events="none" fill="none" stroke="white" stroke-width="1.5" d="M0,-3.0v7 M-2.5,-0.5L0,-3.0L2.5,-0.5"/>
  </g>
  <g id="arrowRight" transform="rotate(90) translate(36 -43)">
    <use xlink:href="#rim"/>
    <path pointer-events="none" fill="none" stroke="white" stroke-width="1.5" d="M0,-3.0v7 M-2.5,-0.5L0,-3.0L2.5,-0.5"/>
  </g>
  <g id="arrowDown" transform="rotate(180) translate(-30 -48)">
    <use xlink:href="#rim"/>
    <path pointer-events="none" fill="none" stroke="white" stroke-width="1.5" d="M0,-3.0v7 M-2.5,-0.5L0,-3.0L2.5,-0.5"/>
  </g>
  <g id="arrowLeft" transform="rotate(270) translate(-36 17)">
    <use xlink:href="#rim"/>
    <path pointer-events="none" fill="none" stroke="white" stroke-width="1.5" d="M0,-3.0v7 M-2.5,-0.5L0,-3.0L2.5,-0.5"/>
  </g>
  <g id="resetDef">
    <use xlink:href="#rim2" fill="#404040"><set attributeName="fill" to="#808080" begin="reset.mouseover" end="reset.mouseout"/></use>
  </g>
</defs>
<script type="application/ecmascript">
var viewWidth = 2438;
var viewHeight = 347;
var sectionId = 'dynsection-255';
</script>
<script type="application/ecmascript" xlink:href="svg.min.js"/>
<svg id="graph" class="graph">
<g id="viewport">
<title>editeurpanovisu.GestionnaireInterfaceController.isbReplieDemarrageCarte</title>
<!-- Node1 -->
<g id="Node000001" class="node">
<title>Node1</title>
<g id="a_Node000001"><a xlink:title=" ">
<polygon fill="#999999" stroke="#666666" points="2429.75,-231.11 2218,-231.11 2218,-199.11 2429.75,-199.11 2429.75,-231.11"/>
<text xml:space="preserve" text-anchor="start" x="2226" y="-217.61" font-family="Helvetica,sans-Serif" font-size="10.00">editeurpanovisu.Gestionnaire</text>
<text xml:space="preserve" text-anchor="middle" x="2323.88" y="-205.61" font-family="Helvetica,sans-Serif" font-size="10.00">InterfaceController.isbReplieDemarrageCarte</text>
</a>
</g>
</g>
<!-- Node2 -->
<g id="Node000002" class="node">
<title>Node2</title>
<g id="a_Node000002"><a xlink:href="classediteurpanovisu_1_1GestionnaireInterfaceController.html#a55c8afda208674955a13d48d02be41b8" target="_top" xlink:title=" ">
<polygon fill="white" stroke="#666666" points="2182,-267.11 2014.5,-267.11 2014.5,-235.11 2182,-235.11 2182,-267.11"/>
<text xml:space="preserve" text-anchor="start" x="2022.5" y="-253.61" font-family="Helvetica,sans-Serif" font-size="10.00">editeurpanovisu.Gestionnaire</text>
<text xml:space="preserve" text-anchor="middle" x="2098.25" y="-241.61" font-family="Helvetica,sans-Serif" font-size="10.00">InterfaceController.afficheTemplate</text>
</a>
</g>
</g>
<!-- Node1&#45;&gt;Node2 -->
<g id="edge1_Node000001_Node000002" class="edge">
<title>Node1&#45;&gt;Node2</title>
<g id="a_edge1_Node000001_Node000002"><a xlink:title=" ">
<path fill="none" stroke="#63b8ff" d="M2209.46,-233.37C2200.35,-234.83 2191.26,-236.29 2182.43,-237.72"/>
<polygon fill="#63b8ff" stroke="#63b8ff" points="2209.74,-236.86 2219.06,-231.82 2208.63,-229.95 2209.74,-236.86"/>
</a>
</g>
</g>
<!-- Node16 -->
<g id="Node000016" class="node">
<title>Node16</title>
<g id="a_Node000016"><a xlink:href="classediteurpanovisu_1_1GestionnaireInterfaceController.html#ab66509c63a85a8285a081b24049e8774" target="_top" xlink:title=" ">
<polygon fill="white" stroke="#666666" points="2181.25,-206.11 2015.25,-206.11 2015.25,-174.11 2181.25,-174.11 2181.25,-206.11"/>
<text xml:space="preserve" text-anchor="start" x="2023.25" y="-192.61" font-family="Helvetica,sans-Serif" font-size="10.00">editeurpanovisu.Gestionnaire</text>
<text xml:space="preserve" text-anchor="middle" x="2098.25" y="-180.61" font-family="Helvetica,sans-Serif" font-size="10.00">InterfaceController.strGetTemplate</text>
</a>
</g>
</g>
<!-- Node1&#45;&gt;Node16 -->
<g id="edge27_Node000001_Node000016" class="edge">
<title>Node1&#45;&gt;Node16</title>
<g id="a_edge27_Node000001_Node000016"><a xlink:title=" ">
<path fill="none" stroke="#63b8ff" d="M2206.23,-202.07C2197.89,-201.14 2189.59,-200.21 2181.51,-199.3"/>
<polygon fill="#63b8ff" stroke="#63b8ff" points="2205.78,-205.54 2216.11,-203.17 2206.56,-198.58 2205.78,-205.54"/>
</a>
</g>
</g>
<!-- Node3 -->
<g id="Node000003" class="node">
<title>Node3</title>
<g id="a_Node000003"><a xlink:href="classediteurpanovisu_1_1EditeurPanovisu.html#a87b29dc258cfc67370b1f27809e91b8e" target="_top" xlink:title=" ">
<polygon fill="white" stroke="#666666" points="1978.5,-270.11 1803.5,-270.11 1803.5,-238.11 1978.5,-238.11 1978.5,-270.11"/>
<text xml:space="preserve" text-anchor="start" x="1811.5" y="-256.61" font-family="Helvetica,sans-Serif" font-size="10.00">editeurpanovisu.EditeurPanovisu.tsk</text>
<text xml:space="preserve" text-anchor="middle" x="1891" y="-244.61" font-family="Helvetica,sans-Serif" font-size="10.00">AnalyseFichierPVU</text>
</a>
</g>
</g>
<!-- Node2&#45;&gt;Node3 -->
<g id="edge2_Node000002_Node000003" class="edge">
<title>Node2&#45;&gt;Node3</title>
<g id="a_edge2_Node000002_Node000003"><a xlink:title=" ">
<path fill="none" stroke="#63b8ff" d="M2002.6,-252.49C1994.73,-252.61 1986.79,-252.72 1978.98,-252.84"/>
<polygon fill="#63b8ff" stroke="#63b8ff" points="2002.6,-255.99 2012.55,-252.35 2002.5,-248.99 2002.6,-255.99"/>
</a>
</g>
</g>
<!-- Node4 -->
<g id="Node000004" class="node">
<title>Node4</title>
<g id="a_Node000004"><a xlink:href="classediteurpanovisu_1_1EditeurPanovisu.html#ab4beb1597b660a4a253befc6e76f1c54" target="_top" xlink:title=" ">
<polygon fill="white" stroke="#666666" points="1098.12,-311.11 912.62,-311.11 912.62,-279.11 1098.12,-279.11 1098.12,-311.11"/>
<text xml:space="preserve" text-anchor="start" x="920.62" y="-297.61" font-family="Helvetica,sans-Serif" font-size="10.00">editeurpanovisu.EditeurPanovisu.projet</text>
<text xml:space="preserve" text-anchor="middle" x="1005.38" y="-285.61" font-family="Helvetica,sans-Serif" font-size="10.00">Charge</text>
</a>
</g>
</g>
<!-- Node3&#45;&gt;Node4 -->
<g id="edge3_Node000003_Node000004" class="edge">
<title>Node3&#45;&gt;Node4</title>
<g id="a_edge3_Node000003_Node000004"><a xlink:title=" ">
<path fill="none" stroke="#63b8ff" d="M1809.36,-272.71C1795.47,-275.3 1781.12,-277.59 1767.5,-279.11 1527.29,-305.92 1241.86,-302.59 1098.4,-298.5"/>
<polygon fill="#63b8ff" stroke="#63b8ff" points="1809.74,-276.2 1818.9,-270.86 1808.41,-269.33 1809.74,-276.2"/>
</a>
</g>
</g>
<!-- Node7 -->
<g id="Node000007" class="node">
<title>Node7</title>
<g id="a_Node000007"><a xlink:href="classediteurpanovisu_1_1EditeurPanovisu.html#a6d19b4d885ee6fcec827b91956295732" target="_top" xlink:title=" ">
<polygon fill="white" stroke="#666666" points="1767.5,-270.11 1582,-270.11 1582,-238.11 1767.5,-238.11 1767.5,-270.11"/>
<text xml:space="preserve" text-anchor="start" x="1590" y="-256.61" font-family="Helvetica,sans-Serif" font-size="10.00">editeurpanovisu.EditeurPanovisu.projet</text>
<text xml:space="preserve" text-anchor="middle" x="1674.75" y="-244.61" font-family="Helvetica,sans-Serif" font-size="10.00">ChargeNom</text>
</a>
</g>
</g>
<!-- Node3&#45;&gt;Node7 -->
<g id="edge6_Node000003_Node000007" class="edge">
<title>Node3&#45;&gt;Node7</title>
<g id="a_edge6_Node000003_Node000007"><a xlink:title=" ">
<path fill="none" stroke="#63b8ff" d="M1791.66,-254.11C1783.76,-254.11 1775.8,-254.11 1767.95,-254.11"/>
<polygon fill="#63b8ff" stroke="#63b8ff" points="1791.65,-257.61 1801.65,-254.11 1791.65,-250.61 1791.65,-257.61"/>
</a>
</g>
</g>
<!-- Node5 -->
<g id="Node000005" class="node">
<title>Node5</title>
<g id="a_Node000005"><a xlink:href="classediteurpanovisu_1_1EditeurPanovisu.html#ac912b80c1f2ac97def60ff005c5c480b" target="_top" xlink:title=" ">
<polygon fill="white" stroke="#666666" points="420.5,-217.11 216.25,-217.11 216.25,-197.11 420.5,-197.11 420.5,-217.11"/>
<text xml:space="preserve" text-anchor="middle" x="318.38" y="-203.61" font-family="Helvetica,sans-Serif" font-size="10.00">editeurpanovisu.EditeurPanovisu.creeMenu</text>
</a>
</g>
</g>
<!-- Node4&#45;&gt;Node5 -->
<g id="edge4_Node000004_Node000005" class="edge">
<title>Node4&#45;&gt;Node5</title>
<g id="a_edge4_Node000004_Node000005"><a xlink:title=" ">
<path fill="none" stroke="#63b8ff" d="M901.18,-292.2C790.31,-287.52 609.41,-275.4 456.5,-244.11 420.99,-236.84 381.05,-225.72 353.47,-217.57"/>
<polygon fill="#63b8ff" stroke="#63b8ff" points="900.71,-295.68 910.84,-292.59 900.99,-288.69 900.71,-295.68"/>
</a>
</g>
</g>
<!-- Node6 -->
<g id="Node000006" class="node">
<title>Node6</title>
<g id="a_Node000006"><a xlink:href="classediteurpanovisu_1_1EditeurPanovisu.html#a86c393eee88f54c694db994ddd85b90d" target="_top" xlink:title=" ">
<polygon fill="white" stroke="#666666" points="180.25,-223.11 0,-223.11 0,-191.11 180.25,-191.11 180.25,-223.11"/>
<text xml:space="preserve" text-anchor="start" x="8" y="-209.61" font-family="Helvetica,sans-Serif" font-size="10.00">editeurpanovisu.EditeurPanovisu.cree</text>
<text xml:space="preserve" text-anchor="middle" x="90.12" y="-197.61" font-family="Helvetica,sans-Serif" font-size="10.00">Environnement</text>
</a>
</g>
</g>
<!-- Node5&#45;&gt;Node6 -->
<g id="edge5_Node000005_Node000006" class="edge">
<title>Node5&#45;&gt;Node6</title>
<g id="a_edge5_Node000005_Node000006"><a xlink:title=" ">
<path fill="none" stroke="#63b8ff" d="M204.51,-207.11C196.49,-207.11 188.46,-207.11 180.6,-207.11"/>
<polygon fill="#63b8ff" stroke="#63b8ff" points="204.32,-210.61 214.32,-207.11 204.32,-203.61 204.32,-210.61"/>
</a>
</g>
</g>
<!-- Node7&#45;&gt;Node5 -->
<g id="edge26_Node000007_Node000005" class="edge">
<title>Node7&#45;&gt;Node5</title>
<g id="a_edge26_Node000007_Node000005"><a xlink:title=" ">
<path fill="none" stroke="#63b8ff" d="M1585.11,-272.97C1466.06,-298.01 1265.37,-339.11 1230.5,-339.11 1230.5,-339.11 1230.5,-339.11 777.62,-339.11 631.83,-339.11 594.7,-318.55 456.5,-272.11 412.05,-257.17 363.12,-231.58 337.43,-217.37"/>
<polygon fill="#63b8ff" stroke="#63b8ff" points="1585.82,-276.39 1594.88,-270.91 1584.37,-269.55 1585.82,-276.39"/>
</a>
</g>
</g>
<!-- Node8 -->
<g id="Node000008" class="node">
<title>Node8</title>
<g id="a_Node000008"><a xlink:href="classediteurpanovisu_1_1EditeurPanovisu.html#af0d1c32bb78acbff561c822a0d15f760" target="_top" xlink:title=" ">
<polygon fill="white" stroke="#666666" points="1546,-248.11 1358.25,-248.11 1358.25,-216.11 1546,-216.11 1546,-248.11"/>
<text xml:space="preserve" text-anchor="start" x="1366.25" y="-234.61" font-family="Helvetica,sans-Serif" font-size="10.00">editeurpanovisu.EditeurPanovisu.ajoute</text>
<text xml:space="preserve" text-anchor="middle" x="1452.12" y="-222.61" font-family="Helvetica,sans-Serif" font-size="10.00">FichierHisto</text>
</a>
</g>
</g>
<!-- Node7&#45;&gt;Node8 -->
<g id="edge7_Node000007_Node000008" class="edge">
<title>Node7&#45;&gt;Node8</title>
<g id="a_edge7_Node000007_Node000008"><a xlink:title=" ">
<path fill="none" stroke="#63b8ff" d="M1570.47,-237.07C1562.42,-236.24 1554.33,-235.45 1546.36,-234.73"/>
<polygon fill="#63b8ff" stroke="#63b8ff" points="1569.96,-240.54 1580.28,-238.11 1570.7,-233.58 1569.96,-240.54"/>
</a>
</g>
</g>
<!-- Node8&#45;&gt;Node4 -->
<g id="edge8_Node000008_Node000004" class="edge">
<title>Node8&#45;&gt;Node4</title>
<g id="a_edge8_Node000008_Node000004"><a xlink:title=" ">
<path fill="none" stroke="#63b8ff" d="M1346.5,-246.93C1271.2,-257.59 1170.58,-271.85 1098.34,-282.08"/>
<polygon fill="#63b8ff" stroke="#63b8ff" points="1346.98,-250.39 1356.39,-245.53 1346,-243.46 1346.98,-250.39"/>
</a>
</g>
</g>
<!-- Node8&#45;&gt;Node7 -->
<g id="edge9_Node000008_Node000007" class="edge">
<title>Node8&#45;&gt;Node7</title>
<g id="a_edge9_Node000008_Node000007"><a xlink:title=" ">
<path fill="none" stroke="#63b8ff" d="M1557.69,-249.28C1565.74,-250.1 1573.83,-250.88 1581.78,-251.6"/>
<polygon fill="#63b8ff" stroke="#63b8ff" points="1558.18,-245.81 1547.87,-248.24 1557.45,-252.77 1558.18,-245.81"/>
</a>
</g>
</g>
<!-- Node9 -->
<g id="Node000009" class="node">
<title>Node9</title>
<g id="a_Node000009"><a xlink:href="classediteurpanovisu_1_1EditeurPanovisu.html#a9f3ea25b35d4884524508dab3dc4fd6a" target="_top" xlink:title=" ">
<polygon fill="white" stroke="#666666" points="1322.25,-223.11 1136.75,-223.11 1136.75,-191.11 1322.25,-191.11 1322.25,-223.11"/>
<text xml:space="preserve" text-anchor="start" x="1144.75" y="-209.61" font-family="Helvetica,sans-Serif" font-size="10.00">editeurpanovisu.EditeurPanovisu.projet</text>
<text xml:space="preserve" text-anchor="middle" x="1229.5" y="-197.61" font-family="Helvetica,sans-Serif" font-size="10.00">Sauve</text>
</a>
</g>
</g>
<!-- Node8&#45;&gt;Node9 -->
<g id="edge10_Node000008_Node000009" class="edge">
<title>Node8&#45;&gt;Node9</title>
<g id="a_edge10_Node000008_Node000009"><a xlink:title=" ">
<path fill="none" stroke="#63b8ff" d="M1346.63,-220.27C1338.64,-219.36 1330.61,-218.45 1322.71,-217.56"/>
<polygon fill="#63b8ff" stroke="#63b8ff" points="1346.05,-223.72 1356.38,-221.37 1346.83,-216.77 1346.05,-223.72"/>
</a>
</g>
</g>
<!-- Node15 -->
<g id="Node000015" class="node">
<title>Node15</title>
<g id="a_Node000015"><a xlink:href="classediteurpanovisu_1_1EditeurPanovisu.html#a7b2e25dc717eb52b62e23d54ec4c124a" target="_top" xlink:title=" ">
<polygon fill="white" stroke="#666666" points="1322.25,-173.11 1136.75,-173.11 1136.75,-141.11 1322.25,-141.11 1322.25,-173.11"/>
<text xml:space="preserve" text-anchor="start" x="1144.75" y="-159.61" font-family="Helvetica,sans-Serif" font-size="10.00">editeurpanovisu.EditeurPanovisu.projet</text>
<text xml:space="preserve" text-anchor="middle" x="1229.5" y="-147.61" font-family="Helvetica,sans-Serif" font-size="10.00">SauveSous</text>
</a>
</g>
</g>
<!-- Node8&#45;&gt;Node15 -->
<g id="edge24_Node000008_Node000015" class="edge">
<title>Node8&#45;&gt;Node15</title>
<g id="a_edge24_Node000008_Node000015"><a xlink:title=" ">
<path fill="none" stroke="#63b8ff" d="M1369.71,-211.97C1365.79,-210.45 1361.95,-208.83 1358.25,-207.11 1340.58,-198.9 1339.9,-190.34 1322.25,-182.11 1315.37,-178.9 1308,-176.03 1300.53,-173.49"/>
<polygon fill="#63b8ff" stroke="#63b8ff" points="1368.21,-215.15 1378.81,-215.26 1370.59,-208.57 1368.21,-215.15"/>
</a>
</g>
</g>
<!-- Node9&#45;&gt;Node4 -->
<g id="edge14_Node000009_Node000004" class="edge">
<title>Node9&#45;&gt;Node4</title>
<g id="a_edge14_Node000009_Node000004"><a xlink:title=" ">
<path fill="none" stroke="#63b8ff" d="M1184.71,-228.54C1160.29,-240.1 1129.17,-254.18 1100.75,-265.11 1088.23,-269.92 1074.58,-274.58 1061.65,-278.74"/>
<polygon fill="#63b8ff" stroke="#63b8ff" points="1186.19,-231.72 1193.71,-224.25 1183.17,-225.4 1186.19,-231.72"/>
</a>
</g>
</g>
<!-- Node9&#45;&gt;Node5 -->
<g id="edge11_Node000009_Node000005" class="edge">
<title>Node9&#45;&gt;Node5</title>
<g id="a_edge11_Node000009_Node000005"><a xlink:title=" ">
<path fill="none" stroke="#63b8ff" d="M1139.09,-184.2C1138.29,-183.52 1137.51,-182.83 1136.75,-182.11 1100.25,-147.68 1141.5,-104.39 1100.75,-75.11 1086.93,-65.17 702.05,-79.54 683.25,-81.11 581.83,-89.58 551.37,-76.25 456.5,-113.11 404.31,-133.38 352.47,-176.91 330.42,-196.81"/>
<polygon fill="#63b8ff" stroke="#63b8ff" points="1136.83,-186.89 1147,-189.86 1140.91,-181.2 1136.83,-186.89"/>
</a>
</g>
</g>
<!-- Node9&#45;&gt;Node7 -->
<g id="edge15_Node000009_Node000007" class="edge">
<title>Node9&#45;&gt;Node7</title>
<g id="a_edge15_Node000009_Node000007"><a xlink:title=" ">
<path fill="none" stroke="#63b8ff" d="M1272.88,-228.31C1297.2,-239.28 1328.69,-251.53 1358.25,-257.11 1432.53,-271.13 1518.41,-269.16 1581.79,-264.37"/>
<polygon fill="#63b8ff" stroke="#63b8ff" points="1274.5,-225.2 1263.96,-224.18 1271.56,-231.55 1274.5,-225.2"/>
</a>
</g>
</g>
<!-- Node10 -->
<g id="Node000010" class="node">
<title>Node10</title>
<g id="a_Node000010"><a xlink:href="classediteurpanovisu_1_1EditeurPanovisu.html#a94e36b9e9d09ab1a4c852b8a8cefa927" target="_top" xlink:title=" ">
<polygon fill="white" stroke="#666666" points="647.25,-154.11 456.5,-154.11 456.5,-122.11 647.25,-122.11 647.25,-154.11"/>
<text xml:space="preserve" text-anchor="start" x="464.5" y="-140.61" font-family="Helvetica,sans-Serif" font-size="10.00">editeurpanovisu.EditeurPanovisu.genere</text>
<text xml:space="preserve" text-anchor="middle" x="551.88" y="-128.61" font-family="Helvetica,sans-Serif" font-size="10.00">Visite</text>
</a>
</g>
</g>
<!-- Node9&#45;&gt;Node10 -->
<g id="edge12_Node000009_Node000010" class="edge">
<title>Node9&#45;&gt;Node10</title>
<g id="a_edge12_Node000009_Node000010"><a xlink:title=" ">
<path fill="none" stroke="#63b8ff" d="M1140.12,-184.82C1138.97,-183.95 1137.84,-183.04 1136.75,-182.11 1106.86,-156.45 1133.78,-122.57 1100.75,-101.11 1025.31,-52.08 763.28,-95.46 630.82,-121.64"/>
<polygon fill="#63b8ff" stroke="#63b8ff" points="1137.89,-187.54 1148.19,-190.02 1141.68,-181.66 1137.89,-187.54"/>
</a>
</g>
</g>
<!-- Node11 -->
<g id="Node000011" class="node">
<title>Node11</title>
<g id="a_Node000011"><a xlink:href="classediteurpanovisu_1_1EditeurPanovisu.html#a9b46b222714af12c06ec33d410400773" target="_top" xlink:title=" ">
<polygon fill="white" stroke="#666666" points="874,-267.11 683.25,-267.11 683.25,-235.11 874,-235.11 874,-267.11"/>
<text xml:space="preserve" text-anchor="start" x="691.25" y="-253.61" font-family="Helvetica,sans-Serif" font-size="10.00">editeurpanovisu.EditeurPanovisu.projets</text>
<text xml:space="preserve" text-anchor="middle" x="778.62" y="-241.61" font-family="Helvetica,sans-Serif" font-size="10.00">Fermer</text>
</a>
</g>
</g>
<!-- Node9&#45;&gt;Node11 -->
<g id="edge16_Node000009_Node000011" class="edge">
<title>Node9&#45;&gt;Node11</title>
<g id="a_edge16_Node000009_Node000011"><a xlink:title=" ">
<path fill="none" stroke="#63b8ff" d="M1142.15,-225.63C1128.35,-228.12 1114.19,-230.4 1100.75,-232.11 1024.98,-241.72 938.53,-246.48 874.43,-248.84"/>
<polygon fill="#63b8ff" stroke="#63b8ff" points="1142.43,-229.14 1151.63,-223.88 1141.16,-222.26 1142.43,-229.14"/>
</a>
</g>
</g>
<!-- Node12 -->
<g id="Node000012" class="node">
<title>Node12</title>
<g id="a_Node000012"><a xlink:href="classediteurpanovisu_1_1EditeurPanovisu.html#ac9d449399ccd38843fa12e716f0c9611" target="_top" xlink:title=" ">
<polygon fill="white" stroke="#666666" points="1100.75,-223.11 910,-223.11 910,-191.11 1100.75,-191.11 1100.75,-223.11"/>
<text xml:space="preserve" text-anchor="start" x="918" y="-209.61" font-family="Helvetica,sans-Serif" font-size="10.00">editeurpanovisu.EditeurPanovisu.projets</text>
<text xml:space="preserve" text-anchor="middle" x="1005.38" y="-197.61" font-family="Helvetica,sans-Serif" font-size="10.00">Nouveau</text>
</a>
</g>
</g>
<!-- Node9&#45;&gt;Node12 -->
<g id="edge18_Node000009_Node000012" class="edge">
<title>Node9&#45;&gt;Node12</title>
<g id="a_edge18_Node000009_Node000012"><a xlink:title=" ">
<path fill="none" stroke="#63b8ff" d="M1125.24,-207.11C1117.2,-207.11 1109.11,-207.11 1101.13,-207.11"/>
<polygon fill="#63b8ff" stroke="#63b8ff" points="1125.04,-210.61 1135.04,-207.11 1125.04,-203.61 1125.04,-210.61"/>
</a>
</g>
</g>
<!-- Node13 -->
<g id="Node000013" class="node">
<title>Node13</title>
<g id="a_Node000013"><a xlink:href="classediteurpanovisu_1_1EditeurPanovisu.html#a2b3125ffe2e6291efacf19df6cb30a8d" target="_top" xlink:title=" ">
<polygon fill="white" stroke="#666666" points="869.12,-148.11 688.12,-148.11 688.12,-128.11 869.12,-128.11 869.12,-148.11"/>
<text xml:space="preserve" text-anchor="middle" x="778.62" y="-134.61" font-family="Helvetica,sans-Serif" font-size="10.00">editeurpanovisu.EditeurPanovisu.start</text>
</a>
</g>
</g>
<!-- Node9&#45;&gt;Node13 -->
<g id="edge23_Node000009_Node000013" class="edge">
<title>Node9&#45;&gt;Node13</title>
<g id="a_edge23_Node000009_Node000013"><a xlink:title=" ">
<path fill="none" stroke="#63b8ff" d="M1142.26,-185.63C1140.37,-184.52 1138.53,-183.34 1136.75,-182.11 1114.25,-166.5 1125.12,-144.59 1100.75,-132.11 1006.21,-83.68 874.55,-110.65 813.37,-127.62"/>
<polygon fill="#63b8ff" stroke="#63b8ff" points="1140.22,-188.51 1150.7,-190.04 1143.46,-182.31 1140.22,-188.51"/>
</a>
</g>
</g>
<!-- Node14 -->
<g id="Node000014" class="node">
<title>Node14</title>
<g id="a_Node000014"><a xlink:href="classediteurpanovisu_1_1EditeurPanovisu.html#aef8c9b28c3e88d6e27e3f62b9a901134" target="_top" xlink:title=" ">
<polygon fill="white" stroke="#666666" points="1099.25,-173.11 911.5,-173.11 911.5,-141.11 1099.25,-141.11 1099.25,-173.11"/>
<text xml:space="preserve" text-anchor="start" x="919.5" y="-159.61" font-family="Helvetica,sans-Serif" font-size="10.00">editeurpanovisu.EditeurPanovisu.sauve</text>
<text xml:space="preserve" text-anchor="middle" x="1005.38" y="-147.61" font-family="Helvetica,sans-Serif" font-size="10.00">Fichiers</text>
</a>
</g>
</g>
<!-- Node9&#45;&gt;Node14 -->
<g id="edge22_Node000009_Node000014" class="edge">
<title>Node9&#45;&gt;Node14</title>
<g id="a_edge22_Node000009_Node000014"><a xlink:title=" ">
<path fill="none" stroke="#63b8ff" d="M1144.43,-188.18C1123.05,-183.37 1100.24,-178.24 1079.46,-173.56"/>
<polygon fill="#63b8ff" stroke="#63b8ff" points="1143.46,-191.55 1153.98,-190.33 1145,-184.72 1143.46,-191.55"/>
</a>
</g>
</g>
<!-- Node10&#45;&gt;Node5 -->
<g id="edge13_Node000010_Node000005" class="edge">
<title>Node10&#45;&gt;Node5</title>
<g id="a_edge13_Node000010_Node000005"><a xlink:title=" ">
<path fill="none" stroke="#63b8ff" d="M484.89,-157.77C442.38,-170.44 388.82,-186.41 354.33,-196.69"/>
<polygon fill="#63b8ff" stroke="#63b8ff" points="485.68,-161.19 494.27,-154.98 483.69,-154.48 485.68,-161.19"/>
</a>
</g>
</g>
<!-- Node11&#45;&gt;Node5 -->
<g id="edge17_Node000011_Node000005" class="edge">
<title>Node11&#45;&gt;Node5</title>
<g id="a_edge17_Node000011_Node000005"><a xlink:title=" ">
<path fill="none" stroke="#63b8ff" d="M671.3,-241.4C608.74,-235.64 528.11,-228.11 456.5,-221.11 444.95,-219.98 432.85,-218.77 420.83,-217.56"/>
<polygon fill="#63b8ff" stroke="#63b8ff" points="670.97,-244.89 681.25,-242.32 671.61,-237.92 670.97,-244.89"/>
</a>
</g>
</g>
<!-- Node12&#45;&gt;Node5 -->
<g id="edge19_Node000012_Node000005" class="edge">
<title>Node12&#45;&gt;Node5</title>
<g id="a_edge19_Node000012_Node000005"><a xlink:title=" ">
<path fill="none" stroke="#63b8ff" d="M898.7,-207.11C768.51,-207.11 548.9,-207.11 420.73,-207.11"/>
<polygon fill="#63b8ff" stroke="#63b8ff" points="898.33,-210.61 908.33,-207.11 898.33,-203.61 898.33,-210.61"/>
</a>
</g>
</g>
<!-- Node12&#45;&gt;Node13 -->
<g id="edge20_Node000012_Node000013" class="edge">
<title>Node12&#45;&gt;Node13</title>
<g id="a_edge20_Node000012_Node000013"><a xlink:title=" ">
<path fill="none" stroke="#63b8ff" d="M929.1,-187.65C922.62,-185.83 916.19,-183.97 910,-182.11 874.89,-171.54 835.01,-157.83 808.7,-148.54"/>
<polygon fill="#63b8ff" stroke="#63b8ff" points="927.96,-190.97 938.54,-190.26 929.83,-184.22 927.96,-190.97"/>
</a>
</g>
</g>
<!-- Node13&#45;&gt;Node10 -->
<g id="edge21_Node000013_Node000010" class="edge">
<title>Node13&#45;&gt;Node10</title>
<g id="a_edge21_Node000013_Node000010"><a xlink:title=" ">
<path fill="none" stroke="#63b8ff" d="M676.6,-138.11C666.98,-138.11 657.24,-138.11 647.68,-138.11"/>
<polygon fill="#63b8ff" stroke="#63b8ff" points="676.32,-141.61 686.32,-138.11 676.32,-134.61 676.32,-141.61"/>
</a>
</g>
</g>
<!-- Node15&#45;&gt;Node5 -->
<g id="edge25_Node000015_Node000005" class="edge">
<title>Node15&#45;&gt;Node5</title>
<g id="a_edge25_Node000015_Node000005"><a xlink:title=" ">
<path fill="none" stroke="#63b8ff" d="M1204.01,-133.07C1179.99,-111.32 1141.17,-80.8 1100.75,-68.11 827.53,17.68 720.79,31.18 456.5,-79.11 394.89,-104.82 344.02,-171.43 326.2,-196.95"/>
<polygon fill="#63b8ff" stroke="#63b8ff" points="1201.35,-135.37 1211.06,-139.61 1206.11,-130.24 1201.35,-135.37"/>
</a>
</g>
</g>
<!-- Node17 -->
<g id="Node000017" class="node">
<title>Node17</title>
<g id="a_Node000017"><a xlink:href="classediteurpanovisu_1_1EditeurPanovisu.html#aaee69ab54364f89b58458c744a4195c0" target="_top" xlink:title=" ">
<polygon fill="white" stroke="#666666" points="1546,-198.11 1358.25,-198.11 1358.25,-166.11 1546,-166.11 1546,-198.11"/>
<text xml:space="preserve" text-anchor="start" x="1366.25" y="-184.61" font-family="Helvetica,sans-Serif" font-size="10.00">editeurpanovisu.EditeurPanovisu.sauve</text>
<text xml:space="preserve" text-anchor="middle" x="1452.12" y="-172.61" font-family="Helvetica,sans-Serif" font-size="10.00">FichierProjet</text>
</a>
</g>
</g>
<!-- Node16&#45;&gt;Node17 -->
<g id="edge28_Node000016_Node000017" class="edge">
<title>Node16&#45;&gt;Node17</title>
<g id="a_edge28_Node000016_Node000017"><a xlink:title=" ">
<path fill="none" stroke="#63b8ff" d="M2003.84,-188.95C1881.56,-187.43 1668.49,-184.78 1546.33,-183.26"/>
<polygon fill="#63b8ff" stroke="#63b8ff" points="2003.46,-192.44 2013.5,-189.07 2003.55,-185.44 2003.46,-192.44"/>
</a>
</g>
</g>
<!-- Node17&#45;&gt;Node9 -->
<g id="edge29_Node000017_Node000009" class="edge">
<title>Node17&#45;&gt;Node9</title>
<g id="a_edge29_Node000017_Node000009"><a xlink:title=" ">
<path fill="none" stroke="#63b8ff" d="M1346.63,-193.95C1338.64,-194.85 1330.61,-195.76 1322.71,-196.66"/>
<polygon fill="#63b8ff" stroke="#63b8ff" points="1346.83,-197.45 1356.38,-192.84 1346.05,-190.49 1346.83,-197.45"/>
</a>
</g>
</g>
<!-- Node17&#45;&gt;Node15 -->
<g id="edge30_Node000017_Node000015" class="edge">
<title>Node17&#45;&gt;Node15</title>
<g id="a_edge30_Node000017_Node000015"><a xlink:title=" ">
<path fill="none" stroke="#63b8ff" d="M1346.63,-170.27C1338.64,-169.36 1330.61,-168.45 1322.71,-167.56"/>
<polygon fill="#63b8ff" stroke="#63b8ff" points="1346.05,-173.72 1356.38,-171.37 1346.83,-166.77 1346.05,-173.72"/>
</a>
</g>
</g>
</g>
</svg>

<g id="navigator" transform="translate(0 0)" fill="#404254">
  <rect fill="#f2f5e9" fill-opacity="0.5" stroke="#606060" stroke-width=".5" x="0" y="0" width="60" height="60"/>
  <use id="zoomplus" xlink:href="#zoomPlus" x="17" y="9" onmousedown="handleZoom(evt,'in')"/>
  <use id="zoomminus" xlink:href="#zoomMin" x="42" y="9" onmousedown="handleZoom(evt,'out')"/>
  <use id="reset" xlink:href="#resetDef" x="30" y="36" onmousedown="handleReset()"/>
   <use id="arrowup" xlink:href="#arrowUp" x="0" y="0" onmousedown="handlePan(0,-1)"/>
  <use id="arrowright" xlink:href="#arrowRight" x="0" y="0" onmousedown="handlePan(1,0)"/>
  <use id="arrowdown" xlink:href="#arrowDown" x="0" y="0" onmousedown="handlePan(0,1)"/>
  <use id="arrowleft" xlink:href="#arrowLeft" x="0" y="0" onmousedown="handlePan(-1,0)"/>
</g>
<svg viewBox="0 0 15 15" width="100%" height="30px" preserveAspectRatio="xMaxYMin meet">
 <g id="arrow_out" transform="scale(0.3 0.3)">
  <a xlink:href="classediteurpanovisu_1_1GestionnaireInterfaceController_a08a596dbadbc1f3b06858a68824b8f11_icgraph_org.svg" target="_base">
   <rect id="button" ry="5" rx="5" y="6" x="6" height="38" width="38"
        fill="#f2f5e9" fill-opacity="0.5" stroke="#606060" stroke-width="1.0"/>
   <path id="arrow"
     d="M 11.500037,31.436501 C 11.940474,20.09759 22.043105,11.32322 32.158766,21.979434 L 37.068811,17.246167 C 37.068811,17.246167 37.088388,32 37.088388,32 L 22.160133,31.978069 C 22.160133,31.978069 26.997745,27.140456 26.997745,27.140456 C 18.528582,18.264221 13.291696,25.230495 11.500037,31.436501 z"
     style="fill:#404040;"/>
  </a>
 </g>
</svg>

<style type='text/css'>
<![CDATA[
[data-mouse-over-selected='false'] { opacity: 0.7; }
[data-mouse-over-selected='true']  { opacity: 1.0; }
]]>
</style>
<script type="application/ecmascript"><![CDATA[
document.addEventListener('DOMContentLoaded', (event) => {
  highlightEdges();
  highlightAdjacentNodes();
});
]]></script>
</svg>
