<?xml version="1.0" encoding="UTF-8" standalone="no"?>
<!DOCTYPE svg PUBLIC "-//W3C//DTD SVG 1.1//EN"
 "http://www.w3.org/Graphics/SVG/1.1/DTD/svg11.dtd">
<!-- Generated by graphviz version 13.1.2 (20250808.2320)
 -->
<!-- Title: editeurpanovisu.GestionnaireInterfaceController.getFenetreOpaciteFond Pages: 1 -->
<svg width="1993pt" height="428pt"
 viewBox="0.00 0.00 1993.00 428.00" xmlns="http://www.w3.org/2000/svg" xmlns:xlink="http://www.w3.org/1999/xlink">
<g id="graph0" class="graph" transform="scale(1 1) rotate(0) translate(4 424)">
<title>editeurpanovisu.GestionnaireInterfaceController.getFenetreOpaciteFond</title>
<!-- Node1 -->
<g id="Node000001" class="node">
<title>Node1</title>
<g id="a_Node000001"><a xlink:title=" ">
<polygon fill="#999999" stroke="#666666" points="1985.25,-116 1784,-116 1784,-84 1985.25,-84 1985.25,-116"/>
<text xml:space="preserve" text-anchor="start" x="1792" y="-102.5" font-family="Helvetica,sans-Serif" font-size="10.00">editeurpanovisu.Gestionnaire</text>
<text xml:space="preserve" text-anchor="middle" x="1884.62" y="-90.5" font-family="Helvetica,sans-Serif" font-size="10.00">InterfaceController.getFenetreOpaciteFond</text>
</a>
</g>
</g>
<!-- Node2 -->
<g id="Node000002" class="node">
<title>Node2</title>
<g id="a_Node000002"><a xlink:href="classediteurpanovisu_1_1GestionnaireInterfaceController.html#ab66509c63a85a8285a081b24049e8774" target="_top" xlink:title=" ">
<polygon fill="white" stroke="#666666" points="1748,-116 1582,-116 1582,-84 1748,-84 1748,-116"/>
<text xml:space="preserve" text-anchor="start" x="1590" y="-102.5" font-family="Helvetica,sans-Serif" font-size="10.00">editeurpanovisu.Gestionnaire</text>
<text xml:space="preserve" text-anchor="middle" x="1665" y="-90.5" font-family="Helvetica,sans-Serif" font-size="10.00">InterfaceController.strGetTemplate</text>
</a>
</g>
</g>
<!-- Node1&#45;&gt;Node2 -->
<g id="edge1_Node000001_Node000002" class="edge">
<title>Node1&#45;&gt;Node2</title>
<g id="a_edge1_Node000001_Node000002"><a xlink:title=" ">
<path fill="none" stroke="#63b8ff" d="M1772.32,-100C1764.25,-100 1756.2,-100 1748.34,-100"/>
<polygon fill="#63b8ff" stroke="#63b8ff" points="1772.22,-103.5 1782.22,-100 1772.22,-96.5 1772.22,-103.5"/>
</a>
</g>
</g>
<!-- Node3 -->
<g id="Node000003" class="node">
<title>Node3</title>
<g id="a_Node000003"><a xlink:href="classediteurpanovisu_1_1EditeurPanovisu.html#aaee69ab54364f89b58458c744a4195c0" target="_top" xlink:title=" ">
<polygon fill="white" stroke="#666666" points="1546,-116 1358.25,-116 1358.25,-84 1546,-84 1546,-116"/>
<text xml:space="preserve" text-anchor="start" x="1366.25" y="-102.5" font-family="Helvetica,sans-Serif" font-size="10.00">editeurpanovisu.EditeurPanovisu.sauve</text>
<text xml:space="preserve" text-anchor="middle" x="1452.12" y="-90.5" font-family="Helvetica,sans-Serif" font-size="10.00">FichierProjet</text>
</a>
</g>
</g>
<!-- Node2&#45;&gt;Node3 -->
<g id="edge2_Node000002_Node000003" class="edge">
<title>Node2&#45;&gt;Node3</title>
<g id="a_edge2_Node000002_Node000003"><a xlink:title=" ">
<path fill="none" stroke="#63b8ff" d="M1570.09,-100C1562.2,-100 1554.22,-100 1546.34,-100"/>
<polygon fill="#63b8ff" stroke="#63b8ff" points="1570.05,-103.5 1580.05,-100 1570.05,-96.5 1570.05,-103.5"/>
</a>
</g>
</g>
<!-- Node4 -->
<g id="Node000004" class="node">
<title>Node4</title>
<g id="a_Node000004"><a xlink:href="classediteurpanovisu_1_1EditeurPanovisu.html#a9f3ea25b35d4884524508dab3dc4fd6a" target="_top" xlink:title=" ">
<polygon fill="white" stroke="#666666" points="1322.25,-219 1136.75,-219 1136.75,-187 1322.25,-187 1322.25,-219"/>
<text xml:space="preserve" text-anchor="start" x="1144.75" y="-205.5" font-family="Helvetica,sans-Serif" font-size="10.00">editeurpanovisu.EditeurPanovisu.projet</text>
<text xml:space="preserve" text-anchor="middle" x="1229.5" y="-193.5" font-family="Helvetica,sans-Serif" font-size="10.00">Sauve</text>
</a>
</g>
</g>
<!-- Node3&#45;&gt;Node4 -->
<g id="edge3_Node000003_Node000004" class="edge">
<title>Node3&#45;&gt;Node4</title>
<g id="a_edge3_Node000003_Node000004"><a xlink:title=" ">
<path fill="none" stroke="#63b8ff" d="M1405.78,-121.17C1364.25,-140.56 1303.63,-168.86 1265.66,-186.59"/>
<polygon fill="#63b8ff" stroke="#63b8ff" points="1407.21,-124.36 1414.79,-116.96 1404.25,-118.02 1407.21,-124.36"/>
</a>
</g>
</g>
<!-- Node11 -->
<g id="Node000011" class="node">
<title>Node11</title>
<g id="a_Node000011"><a xlink:href="classediteurpanovisu_1_1EditeurPanovisu.html#a7b2e25dc717eb52b62e23d54ec4c124a" target="_top" xlink:title=" ">
<polygon fill="white" stroke="#666666" points="644.62,-32 459.12,-32 459.12,0 644.62,0 644.62,-32"/>
<text xml:space="preserve" text-anchor="start" x="467.12" y="-18.5" font-family="Helvetica,sans-Serif" font-size="10.00">editeurpanovisu.EditeurPanovisu.projet</text>
<text xml:space="preserve" text-anchor="middle" x="551.88" y="-6.5" font-family="Helvetica,sans-Serif" font-size="10.00">SauveSous</text>
</a>
</g>
</g>
<!-- Node3&#45;&gt;Node11 -->
<g id="edge26_Node000003_Node000011" class="edge">
<title>Node3&#45;&gt;Node11</title>
<g id="a_edge26_Node000003_Node000011"><a xlink:title=" ">
<path fill="none" stroke="#63b8ff" d="M1362.55,-81.28C1291.99,-67.17 1190.49,-48.65 1100.75,-39 941.02,-21.82 753.81,-17.29 644.75,-16.21"/>
<polygon fill="#63b8ff" stroke="#63b8ff" points="1361.63,-84.67 1372.12,-83.21 1363.01,-77.81 1361.63,-84.67"/>
</a>
</g>
</g>
<!-- Node5 -->
<g id="Node000005" class="node">
<title>Node5</title>
<g id="a_Node000005"><a xlink:href="classediteurpanovisu_1_1EditeurPanovisu.html#ac912b80c1f2ac97def60ff005c5c480b" target="_top" xlink:title=" ">
<polygon fill="white" stroke="#666666" points="420.5,-217 216.25,-217 216.25,-197 420.5,-197 420.5,-217"/>
<text xml:space="preserve" text-anchor="middle" x="318.38" y="-203.5" font-family="Helvetica,sans-Serif" font-size="10.00">editeurpanovisu.EditeurPanovisu.creeMenu</text>
</a>
</g>
</g>
<!-- Node4&#45;&gt;Node5 -->
<g id="edge4_Node000004_Node000005" class="edge">
<title>Node4&#45;&gt;Node5</title>
<g id="a_edge4_Node000004_Node000005"><a xlink:title=" ">
<path fill="none" stroke="#63b8ff" d="M1213.92,-228.89C1193.53,-262.1 1153.08,-318.13 1100.75,-341 957.67,-403.52 534.17,-275.83 456.5,-255 417.16,-244.45 372.88,-228.11 345.55,-217.48"/>
<polygon fill="#63b8ff" stroke="#63b8ff" points="1216.7,-231.06 1218.81,-220.68 1210.68,-227.47 1216.7,-231.06"/>
</a>
</g>
</g>
<!-- Node7 -->
<g id="Node000007" class="node">
<title>Node7</title>
<g id="a_Node000007"><a xlink:href="classediteurpanovisu_1_1EditeurPanovisu.html#a94e36b9e9d09ab1a4c852b8a8cefa927" target="_top" xlink:title=" ">
<polygon fill="white" stroke="#666666" points="647.25,-223 456.5,-223 456.5,-191 647.25,-191 647.25,-223"/>
<text xml:space="preserve" text-anchor="start" x="464.5" y="-209.5" font-family="Helvetica,sans-Serif" font-size="10.00">editeurpanovisu.EditeurPanovisu.genere</text>
<text xml:space="preserve" text-anchor="middle" x="551.88" y="-197.5" font-family="Helvetica,sans-Serif" font-size="10.00">Visite</text>
</a>
</g>
</g>
<!-- Node4&#45;&gt;Node7 -->
<g id="edge6_Node000004_Node000007" class="edge">
<title>Node4&#45;&gt;Node7</title>
<g id="a_edge6_Node000004_Node000007"><a xlink:title=" ">
<path fill="none" stroke="#63b8ff" d="M1124.98,-202.06C1015.3,-201.28 837.06,-200.64 683.25,-203 671.7,-203.18 659.58,-203.44 647.57,-203.75"/>
<polygon fill="#63b8ff" stroke="#63b8ff" points="1124.82,-205.55 1134.85,-202.13 1124.87,-198.56 1124.82,-205.55"/>
</a>
</g>
</g>
<!-- Node8 -->
<g id="Node000008" class="node">
<title>Node8</title>
<g id="a_Node000008"><a xlink:href="classediteurpanovisu_1_1EditeurPanovisu.html#ab4beb1597b660a4a253befc6e76f1c54" target="_top" xlink:title=" ">
<polygon fill="white" stroke="#666666" points="644.62,-162 459.12,-162 459.12,-130 644.62,-130 644.62,-162"/>
<text xml:space="preserve" text-anchor="start" x="467.12" y="-148.5" font-family="Helvetica,sans-Serif" font-size="10.00">editeurpanovisu.EditeurPanovisu.projet</text>
<text xml:space="preserve" text-anchor="middle" x="551.88" y="-136.5" font-family="Helvetica,sans-Serif" font-size="10.00">Charge</text>
</a>
</g>
</g>
<!-- Node4&#45;&gt;Node8 -->
<g id="edge8_Node000004_Node000008" class="edge">
<title>Node4&#45;&gt;Node8</title>
<g id="a_edge8_Node000004_Node000008"><a xlink:title=" ">
<path fill="none" stroke="#63b8ff" d="M1125.11,-194.28C994.1,-183.22 770.31,-164.34 644.93,-153.77"/>
<polygon fill="#63b8ff" stroke="#63b8ff" points="1124.56,-197.74 1134.82,-195.1 1125.15,-190.77 1124.56,-197.74"/>
</a>
</g>
</g>
<!-- Node9 -->
<g id="Node000009" class="node">
<title>Node9</title>
<g id="a_Node000009"><a xlink:href="classediteurpanovisu_1_1EditeurPanovisu.html#a6d19b4d885ee6fcec827b91956295732" target="_top" xlink:title=" ">
<polygon fill="white" stroke="#666666" points="1098.12,-80 912.62,-80 912.62,-48 1098.12,-48 1098.12,-80"/>
<text xml:space="preserve" text-anchor="start" x="920.62" y="-66.5" font-family="Helvetica,sans-Serif" font-size="10.00">editeurpanovisu.EditeurPanovisu.projet</text>
<text xml:space="preserve" text-anchor="middle" x="1005.38" y="-54.5" font-family="Helvetica,sans-Serif" font-size="10.00">ChargeNom</text>
</a>
</g>
</g>
<!-- Node4&#45;&gt;Node9 -->
<g id="edge10_Node000004_Node000009" class="edge">
<title>Node4&#45;&gt;Node9</title>
<g id="a_edge10_Node000004_Node000009"><a xlink:title=" ">
<path fill="none" stroke="#63b8ff" d="M1205.74,-178.53C1181.74,-154.04 1141.79,-116.8 1100.75,-94 1091.28,-88.74 1080.76,-84.25 1070.27,-80.47"/>
<polygon fill="#63b8ff" stroke="#63b8ff" points="1203.03,-180.76 1212.49,-185.53 1208.07,-175.9 1203.03,-180.76"/>
</a>
</g>
</g>
<!-- Node12 -->
<g id="Node000012" class="node">
<title>Node12</title>
<g id="a_Node000012"><a xlink:href="classediteurpanovisu_1_1EditeurPanovisu.html#a9b46b222714af12c06ec33d410400773" target="_top" xlink:title=" ">
<polygon fill="white" stroke="#666666" points="874,-420 683.25,-420 683.25,-388 874,-388 874,-420"/>
<text xml:space="preserve" text-anchor="start" x="691.25" y="-406.5" font-family="Helvetica,sans-Serif" font-size="10.00">editeurpanovisu.EditeurPanovisu.projets</text>
<text xml:space="preserve" text-anchor="middle" x="778.62" y="-394.5" font-family="Helvetica,sans-Serif" font-size="10.00">Fermer</text>
</a>
</g>
</g>
<!-- Node4&#45;&gt;Node12 -->
<g id="edge18_Node000004_Node000012" class="edge">
<title>Node4&#45;&gt;Node12</title>
<g id="a_edge18_Node000004_Node000012"><a xlink:title=" ">
<path fill="none" stroke="#63b8ff" d="M1217.25,-229.65C1199.11,-268.89 1159.42,-341.1 1100.75,-374 1032.01,-412.55 941.79,-417.78 874.48,-414.68"/>
<polygon fill="#63b8ff" stroke="#63b8ff" points="1220.37,-231.23 1221.27,-220.67 1213.99,-228.37 1220.37,-231.23"/>
</a>
</g>
</g>
<!-- Node13 -->
<g id="Node000013" class="node">
<title>Node13</title>
<g id="a_Node000013"><a xlink:href="classediteurpanovisu_1_1EditeurPanovisu.html#ac9d449399ccd38843fa12e716f0c9611" target="_top" xlink:title=" ">
<polygon fill="white" stroke="#666666" points="1100.75,-282 910,-282 910,-250 1100.75,-250 1100.75,-282"/>
<text xml:space="preserve" text-anchor="start" x="918" y="-268.5" font-family="Helvetica,sans-Serif" font-size="10.00">editeurpanovisu.EditeurPanovisu.projets</text>
<text xml:space="preserve" text-anchor="middle" x="1005.38" y="-256.5" font-family="Helvetica,sans-Serif" font-size="10.00">Nouveau</text>
</a>
</g>
</g>
<!-- Node4&#45;&gt;Node13 -->
<g id="edge20_Node000004_Node000013" class="edge">
<title>Node4&#45;&gt;Node13</title>
<g id="a_edge20_Node000004_Node000013"><a xlink:title=" ">
<path fill="none" stroke="#63b8ff" d="M1159.45,-222.58C1128.99,-231.22 1093.58,-241.27 1064.49,-249.52"/>
<polygon fill="#63b8ff" stroke="#63b8ff" points="1160.31,-225.98 1168.97,-219.88 1158.4,-219.24 1160.31,-225.98"/>
</a>
</g>
</g>
<!-- Node14 -->
<g id="Node000014" class="node">
<title>Node14</title>
<g id="a_Node000014"><a xlink:href="classediteurpanovisu_1_1EditeurPanovisu.html#a2b3125ffe2e6291efacf19df6cb30a8d" target="_top" xlink:title=" ">
<polygon fill="white" stroke="#666666" points="869.12,-232 688.12,-232 688.12,-212 869.12,-212 869.12,-232"/>
<text xml:space="preserve" text-anchor="middle" x="778.62" y="-218.5" font-family="Helvetica,sans-Serif" font-size="10.00">editeurpanovisu.EditeurPanovisu.start</text>
</a>
</g>
</g>
<!-- Node4&#45;&gt;Node14 -->
<g id="edge25_Node000004_Node000014" class="edge">
<title>Node4&#45;&gt;Node14</title>
<g id="a_edge25_Node000004_Node000014"><a xlink:title=" ">
<path fill="none" stroke="#63b8ff" d="M1125.11,-207.38C1047.82,-210.65 943.2,-215.08 869.4,-218.2"/>
<polygon fill="#63b8ff" stroke="#63b8ff" points="1124.95,-210.89 1134.8,-206.97 1124.66,-203.89 1124.95,-210.89"/>
</a>
</g>
</g>
<!-- Node15 -->
<g id="Node000015" class="node">
<title>Node15</title>
<g id="a_Node000015"><a xlink:href="classediteurpanovisu_1_1EditeurPanovisu.html#aef8c9b28c3e88d6e27e3f62b9a901134" target="_top" xlink:title=" ">
<polygon fill="white" stroke="#666666" points="1099.25,-332 911.5,-332 911.5,-300 1099.25,-300 1099.25,-332"/>
<text xml:space="preserve" text-anchor="start" x="919.5" y="-318.5" font-family="Helvetica,sans-Serif" font-size="10.00">editeurpanovisu.EditeurPanovisu.sauve</text>
<text xml:space="preserve" text-anchor="middle" x="1005.38" y="-306.5" font-family="Helvetica,sans-Serif" font-size="10.00">Fichiers</text>
</a>
</g>
</g>
<!-- Node4&#45;&gt;Node15 -->
<g id="edge24_Node000004_Node000015" class="edge">
<title>Node4&#45;&gt;Node15</title>
<g id="a_edge24_Node000004_Node000015"><a xlink:title=" ">
<path fill="none" stroke="#63b8ff" d="M1200.61,-226.45C1175.82,-246.21 1137.85,-273.94 1100.75,-291 1093.82,-294.19 1086.41,-297.03 1078.9,-299.54"/>
<polygon fill="#63b8ff" stroke="#63b8ff" points="1202.69,-229.26 1208.26,-220.25 1198.29,-223.82 1202.69,-229.26"/>
</a>
</g>
</g>
<!-- Node6 -->
<g id="Node000006" class="node">
<title>Node6</title>
<g id="a_Node000006"><a xlink:href="classediteurpanovisu_1_1EditeurPanovisu.html#a86c393eee88f54c694db994ddd85b90d" target="_top" xlink:title=" ">
<polygon fill="white" stroke="#666666" points="180.25,-223 0,-223 0,-191 180.25,-191 180.25,-223"/>
<text xml:space="preserve" text-anchor="start" x="8" y="-209.5" font-family="Helvetica,sans-Serif" font-size="10.00">editeurpanovisu.EditeurPanovisu.cree</text>
<text xml:space="preserve" text-anchor="middle" x="90.12" y="-197.5" font-family="Helvetica,sans-Serif" font-size="10.00">Environnement</text>
</a>
</g>
</g>
<!-- Node5&#45;&gt;Node6 -->
<g id="edge5_Node000005_Node000006" class="edge">
<title>Node5&#45;&gt;Node6</title>
<g id="a_edge5_Node000005_Node000006"><a xlink:title=" ">
<path fill="none" stroke="#63b8ff" d="M204.51,-207C196.49,-207 188.46,-207 180.6,-207"/>
<polygon fill="#63b8ff" stroke="#63b8ff" points="204.32,-210.5 214.32,-207 204.32,-203.5 204.32,-210.5"/>
</a>
</g>
</g>
<!-- Node7&#45;&gt;Node5 -->
<g id="edge7_Node000007_Node000005" class="edge">
<title>Node7&#45;&gt;Node5</title>
<g id="a_edge7_Node000007_Node000005"><a xlink:title=" ">
<path fill="none" stroke="#63b8ff" d="M444.54,-207C436.64,-207 428.69,-207 420.83,-207"/>
<polygon fill="#63b8ff" stroke="#63b8ff" points="444.53,-210.5 454.53,-207 444.53,-203.5 444.53,-210.5"/>
</a>
</g>
</g>
<!-- Node8&#45;&gt;Node5 -->
<g id="edge9_Node000008_Node000005" class="edge">
<title>Node8&#45;&gt;Node5</title>
<g id="a_edge9_Node000008_Node000005"><a xlink:title=" ">
<path fill="none" stroke="#63b8ff" d="M477.41,-165.36C438.13,-175.71 391.32,-188.04 358.89,-196.59"/>
<polygon fill="#63b8ff" stroke="#63b8ff" points="478.29,-168.75 487.07,-162.81 476.51,-161.98 478.29,-168.75"/>
</a>
</g>
</g>
<!-- Node9&#45;&gt;Node5 -->
<g id="edge17_Node000009_Node000005" class="edge">
<title>Node9&#45;&gt;Node5</title>
<g id="a_edge17_Node000009_Node000005"><a xlink:title=" ">
<path fill="none" stroke="#63b8ff" d="M901.21,-58.52C788.08,-56.15 603.13,-63.13 456.5,-121 406.84,-140.6 355.36,-178.48 332.12,-196.71"/>
<polygon fill="#63b8ff" stroke="#63b8ff" points="901.02,-62.02 911.1,-58.76 901.18,-55.02 901.02,-62.02"/>
</a>
</g>
</g>
<!-- Node10 -->
<g id="Node000010" class="node">
<title>Node10</title>
<g id="a_Node000010"><a xlink:href="classediteurpanovisu_1_1EditeurPanovisu.html#af0d1c32bb78acbff561c822a0d15f760" target="_top" xlink:title=" ">
<polygon fill="white" stroke="#666666" points="872.5,-118 684.75,-118 684.75,-86 872.5,-86 872.5,-118"/>
<text xml:space="preserve" text-anchor="start" x="692.75" y="-104.5" font-family="Helvetica,sans-Serif" font-size="10.00">editeurpanovisu.EditeurPanovisu.ajoute</text>
<text xml:space="preserve" text-anchor="middle" x="778.62" y="-92.5" font-family="Helvetica,sans-Serif" font-size="10.00">FichierHisto</text>
</a>
</g>
</g>
<!-- Node9&#45;&gt;Node10 -->
<g id="edge11_Node000009_Node000010" class="edge">
<title>Node9&#45;&gt;Node10</title>
<g id="a_edge11_Node000009_Node000010"><a xlink:title=" ">
<path fill="none" stroke="#63b8ff" d="M900.98,-74.75C880.49,-78.13 859.59,-81.87 841.05,-85.52"/>
<polygon fill="#63b8ff" stroke="#63b8ff" points="901.51,-78.21 910.82,-73.16 900.39,-71.3 901.51,-78.21"/>
</a>
</g>
</g>
<!-- Node10&#45;&gt;Node4 -->
<g id="edge14_Node000010_Node000004" class="edge">
<title>Node10&#45;&gt;Node4</title>
<g id="a_edge14_Node000010_Node000004"><a xlink:title=" ">
<path fill="none" stroke="#63b8ff" d="M884.24,-100.95C948.07,-102.95 1030.61,-110.29 1100.75,-132 1140.26,-144.23 1181.25,-169.67 1205.81,-186.54"/>
<polygon fill="#63b8ff" stroke="#63b8ff" points="884.55,-97.46 874.46,-100.69 884.37,-104.46 884.55,-97.46"/>
</a>
</g>
</g>
<!-- Node10&#45;&gt;Node8 -->
<g id="edge12_Node000010_Node000008" class="edge">
<title>Node10&#45;&gt;Node8</title>
<g id="a_edge12_Node000010_Node000008"><a xlink:title=" ">
<path fill="none" stroke="#63b8ff" d="M682.7,-120.58C667.57,-123.55 652.01,-126.59 637.16,-129.5"/>
<polygon fill="#63b8ff" stroke="#63b8ff" points="682.99,-124.09 692.13,-118.74 681.65,-117.22 682.99,-124.09"/>
</a>
</g>
</g>
<!-- Node10&#45;&gt;Node9 -->
<g id="edge13_Node000010_Node000009" class="edge">
<title>Node10&#45;&gt;Node9</title>
<g id="a_edge13_Node000010_Node000009"><a xlink:title=" ">
<path fill="none" stroke="#63b8ff" d="M883.8,-91.12C904.04,-87.78 924.65,-84.08 942.96,-80.47"/>
<polygon fill="#63b8ff" stroke="#63b8ff" points="883.4,-87.64 874.09,-92.7 884.53,-94.55 883.4,-87.64"/>
</a>
</g>
</g>
<!-- Node10&#45;&gt;Node11 -->
<g id="edge15_Node000010_Node000011" class="edge">
<title>Node10&#45;&gt;Node11</title>
<g id="a_edge15_Node000010_Node000011"><a xlink:title=" ">
<path fill="none" stroke="#63b8ff" d="M723.87,-81.43C684.66,-66.43 632.22,-46.36 595.8,-32.42"/>
<polygon fill="#63b8ff" stroke="#63b8ff" points="722.55,-84.67 733.14,-84.98 725.05,-78.14 722.55,-84.67"/>
</a>
</g>
</g>
<!-- Node11&#45;&gt;Node5 -->
<g id="edge16_Node000011_Node000005" class="edge">
<title>Node11&#45;&gt;Node5</title>
<g id="a_edge16_Node000011_Node000005"><a xlink:title=" ">
<path fill="none" stroke="#63b8ff" d="M472.81,-36.88C467.11,-39.58 461.6,-42.61 456.5,-46 392.9,-88.27 342.12,-168.14 325.32,-196.6"/>
<polygon fill="#63b8ff" stroke="#63b8ff" points="474.07,-40.15 481.86,-32.97 471.29,-33.73 474.07,-40.15"/>
</a>
</g>
</g>
<!-- Node12&#45;&gt;Node5 -->
<g id="edge19_Node000012_Node000005" class="edge">
<title>Node12&#45;&gt;Node5</title>
<g id="a_edge19_Node000012_Node000005"><a xlink:title=" ">
<path fill="none" stroke="#63b8ff" d="M671.74,-414.08C606.14,-415.65 522.18,-408.88 456.5,-374 386.59,-336.87 338.77,-247.5 324.12,-217.22"/>
<polygon fill="#63b8ff" stroke="#63b8ff" points="671.54,-417.59 681.42,-413.77 671.32,-410.59 671.54,-417.59"/>
</a>
</g>
</g>
<!-- Node13&#45;&gt;Node5 -->
<g id="edge21_Node000013_Node000005" class="edge">
<title>Node13&#45;&gt;Node5</title>
<g id="a_edge21_Node000013_Node000005"><a xlink:title=" ">
<path fill="none" stroke="#63b8ff" d="M898.05,-263.13C787.41,-259.27 609.31,-250.61 456.5,-232 427.19,-228.43 394.68,-222.59 368.67,-217.45"/>
<polygon fill="#63b8ff" stroke="#63b8ff" points="897.91,-266.63 908.02,-263.47 898.15,-259.63 897.91,-266.63"/>
</a>
</g>
</g>
<!-- Node13&#45;&gt;Node14 -->
<g id="edge22_Node000013_Node000014" class="edge">
<title>Node13&#45;&gt;Node14</title>
<g id="a_edge22_Node000013_Node000014"><a xlink:title=" ">
<path fill="none" stroke="#63b8ff" d="M909.31,-247.39C883.31,-242.3 856.03,-236.96 833.24,-232.5"/>
<polygon fill="#63b8ff" stroke="#63b8ff" points="908.4,-250.78 918.88,-249.26 909.74,-243.91 908.4,-250.78"/>
</a>
</g>
</g>
<!-- Node14&#45;&gt;Node7 -->
<g id="edge23_Node000014_Node000007" class="edge">
<title>Node14&#45;&gt;Node7</title>
<g id="a_edge23_Node000014_Node000007"><a xlink:title=" ">
<path fill="none" stroke="#63b8ff" d="M676.6,-215.26C666.98,-214.62 657.24,-213.97 647.68,-213.33"/>
<polygon fill="#63b8ff" stroke="#63b8ff" points="676.11,-218.73 686.32,-215.91 676.57,-211.75 676.11,-218.73"/>
</a>
</g>
</g>
</g>
</svg>
