<?xml version="1.0" encoding="UTF-8" standalone="no"?>
<!DOCTYPE svg PUBLIC "-//W3C//DTD SVG 1.1//EN"
 "http://www.w3.org/Graphics/SVG/1.1/DTD/svg11.dtd">
<!-- Generated by graphviz version 13.1.2 (20250808.2320)
 -->
<!-- Title: editeurpanovisu.PanoramicCube.setPanoramicImage Pages: 1 -->
<svg width="400pt" height="218pt"
 viewBox="0.00 0.00 400.00 218.00" xmlns="http://www.w3.org/2000/svg" xmlns:xlink="http://www.w3.org/1999/xlink">
<g id="graph0" class="graph" transform="scale(1 1) rotate(0) translate(4 214)">
<title>editeurpanovisu.PanoramicCube.setPanoramicImage</title>
<!-- Node1 -->
<g id="Node000001" class="node">
<title>Node1</title>
<g id="a_Node000001"><a xlink:title="Applique une image panoramique équirectangulaire sur le cube Utilise TransformationsPanoramique pour ...">
<polygon fill="#999999" stroke="#666666" points="133.75,-156 0,-156 0,-124 133.75,-124 133.75,-156"/>
<text xml:space="preserve" text-anchor="start" x="8" y="-142.5" font-family="Helvetica,sans-Serif" font-size="10.00">editeurpanovisu.Panoramic</text>
<text xml:space="preserve" text-anchor="middle" x="66.88" y="-130.5" font-family="Helvetica,sans-Serif" font-size="10.00">Cube.setPanoramicImage</text>
</a>
</g>
</g>
<!-- Node2 -->
<g id="Node000002" class="node">
<title>Node2</title>
<g id="a_Node000002"><a xlink:href="classediteurpanovisu_1_1TransformationsPanoramique.html#a0cc52e5ea8c62bf993d60216992d1993" target="_top" xlink:title=" ">
<polygon fill="white" stroke="#666666" points="327.5,-156 169.75,-156 169.75,-124 327.5,-124 327.5,-156"/>
<text xml:space="preserve" text-anchor="start" x="177.75" y="-142.5" font-family="Helvetica,sans-Serif" font-size="10.00">editeurpanovisu.Transformations</text>
<text xml:space="preserve" text-anchor="middle" x="248.62" y="-130.5" font-family="Helvetica,sans-Serif" font-size="10.00">Panoramique.equi2cube</text>
</a>
</g>
</g>
<!-- Node1&#45;&gt;Node2 -->
<g id="edge1_Node000001_Node000002" class="edge">
<title>Node1&#45;&gt;Node2</title>
<g id="a_edge1_Node000001_Node000002"><a xlink:title=" ">
<path fill="none" stroke="#63b8ff" d="M134.04,-140C141.87,-140 149.95,-140 158.03,-140"/>
<polygon fill="#63b8ff" stroke="#63b8ff" points="157.91,-143.5 167.91,-140 157.91,-136.5 157.91,-143.5"/>
</a>
</g>
</g>
<!-- Node3 -->
<g id="Node000003" class="node">
<title>Node3</title>
<g id="a_Node000003"><a xlink:href="leaflet_8js.html#a73aff07b65d7c0b09ccf6b4c4f1b7a9d" target="_top" xlink:title=" ">
<polygon fill="white" stroke="#666666" points="392.3,-210 363.5,-210 363.5,-190 392.3,-190 392.3,-210"/>
<text xml:space="preserve" text-anchor="middle" x="377.9" y="-196.5" font-family="Helvetica,sans-Serif" font-size="10.00">i</text>
</a>
</g>
</g>
<!-- Node1&#45;&gt;Node3 -->
<g id="edge6_Node000001_Node000003" class="edge">
<title>Node1&#45;&gt;Node3</title>
<g id="a_edge6_Node000001_Node000003"><a xlink:title=" ">
<path fill="none" stroke="#63b8ff" d="M131.84,-156.46C144.37,-159.46 157.44,-162.45 169.75,-165 235.17,-178.54 313.03,-190.62 352.03,-196.4"/>
<polygon fill="#63b8ff" stroke="#63b8ff" points="351.36,-199.84 361.77,-197.83 352.38,-192.91 351.36,-199.84"/>
</a>
</g>
</g>
<!-- Node7 -->
<g id="Node000007" class="node">
<title>Node7</title>
<g id="a_Node000007"><a xlink:href="classediteurpanovisu_1_1PanoramicCube.html#ae3447e86fef1c622cc0a4ed3796b7982" target="_top" xlink:title="Redimensionne une image au format équirectangulaire avec ratio 2:1.">
<polygon fill="white" stroke="#666666" points="321.88,-64 175.38,-64 175.38,-32 321.88,-32 321.88,-64"/>
<text xml:space="preserve" text-anchor="start" x="183.38" y="-50.5" font-family="Helvetica,sans-Serif" font-size="10.00">editeurpanovisu.Panoramic</text>
<text xml:space="preserve" text-anchor="middle" x="248.62" y="-38.5" font-family="Helvetica,sans-Serif" font-size="10.00">Cube.resizeToEquirectangular</text>
</a>
</g>
</g>
<!-- Node1&#45;&gt;Node7 -->
<g id="edge7_Node000001_Node000007" class="edge">
<title>Node1&#45;&gt;Node7</title>
<g id="a_edge7_Node000001_Node000007"><a xlink:title=" ">
<path fill="none" stroke="#63b8ff" d="M100.01,-123.55C129.44,-108.49 173.2,-86.09 205.44,-69.59"/>
<polygon fill="#63b8ff" stroke="#63b8ff" points="206.81,-72.82 214.12,-65.15 203.62,-66.59 206.81,-72.82"/>
</a>
</g>
</g>
<!-- Node2&#45;&gt;Node3 -->
<g id="edge2_Node000002_Node000003" class="edge">
<title>Node2&#45;&gt;Node3</title>
<g id="a_edge2_Node000002_Node000003"><a xlink:title=" ">
<path fill="none" stroke="#63b8ff" d="M284.4,-156.4C306.06,-166.6 333.38,-179.48 352.69,-188.59"/>
<polygon fill="#63b8ff" stroke="#63b8ff" points="351.13,-191.72 361.67,-192.82 354.12,-185.39 351.13,-191.72"/>
</a>
</g>
</g>
<!-- Node4 -->
<g id="Node000004" class="node">
<title>Node4</title>
<g id="a_Node000004"><a xlink:href="leaflet_8js.html#afa3c32d9f7f168b0e59ddc33ec31bb84" target="_top" xlink:title=" ">
<polygon fill="white" stroke="#666666" points="392.3,-172 363.5,-172 363.5,-152 392.3,-152 392.3,-172"/>
<text xml:space="preserve" text-anchor="middle" x="377.9" y="-158.5" font-family="Helvetica,sans-Serif" font-size="10.00">j</text>
</a>
</g>
</g>
<!-- Node2&#45;&gt;Node4 -->
<g id="edge3_Node000002_Node000004" class="edge">
<title>Node2&#45;&gt;Node4</title>
<g id="a_edge3_Node000002_Node000004"><a xlink:title=" ">
<path fill="none" stroke="#63b8ff" d="M327.69,-153.49C336.29,-154.98 344.51,-156.4 351.7,-157.64"/>
<polygon fill="#63b8ff" stroke="#63b8ff" points="351.07,-161.09 361.52,-159.34 352.26,-154.19 351.07,-161.09"/>
</a>
</g>
</g>
<!-- Node5 -->
<g id="Node000005" class="node">
<title>Node5</title>
<g id="a_Node000005"><a xlink:href="leaflet_8js.html#a873cae0273c5a7d9673544bbe0a6fe8b" target="_top" xlink:title=" ">
<polygon fill="white" stroke="#666666" points="392.3,-134 363.5,-134 363.5,-114 392.3,-114 392.3,-134"/>
<text xml:space="preserve" text-anchor="middle" x="377.9" y="-120.5" font-family="Helvetica,sans-Serif" font-size="10.00">Y</text>
</a>
</g>
</g>
<!-- Node2&#45;&gt;Node5 -->
<g id="edge4_Node000002_Node000005" class="edge">
<title>Node2&#45;&gt;Node5</title>
<g id="a_edge4_Node000002_Node000005"><a xlink:title=" ">
<path fill="none" stroke="#63b8ff" d="M327.69,-130.19C336.29,-129.11 344.51,-128.07 351.7,-127.17"/>
<polygon fill="#63b8ff" stroke="#63b8ff" points="352.02,-130.65 361.51,-125.93 351.15,-123.71 352.02,-130.65"/>
</a>
</g>
</g>
<!-- Node6 -->
<g id="Node000006" class="node">
<title>Node6</title>
<g id="a_Node000006"><a xlink:href="leaflet_8js.html#a225602860fb21629c65836853697cc39" target="_top" xlink:title=" ">
<polygon fill="white" stroke="#666666" points="392.3,-96 363.5,-96 363.5,-76 392.3,-76 392.3,-96"/>
<text xml:space="preserve" text-anchor="middle" x="377.9" y="-82.5" font-family="Helvetica,sans-Serif" font-size="10.00">Z</text>
</a>
</g>
</g>
<!-- Node2&#45;&gt;Node6 -->
<g id="edge5_Node000002_Node000006" class="edge">
<title>Node2&#45;&gt;Node6</title>
<g id="a_edge5_Node000002_Node000006"><a xlink:title=" ">
<path fill="none" stroke="#63b8ff" d="M288.5,-123.5C309.35,-114.66 334.4,-104.03 352.5,-96.35"/>
<polygon fill="#63b8ff" stroke="#63b8ff" points="353.79,-99.61 361.63,-92.48 351.06,-93.16 353.79,-99.61"/>
</a>
</g>
</g>
<!-- Node8 -->
<g id="Node000008" class="node">
<title>Node8</title>
<g id="a_Node000008"><a xlink:href="leaflet_8js.html#a008d931e56b6fc013061112f26afbffb" target="_top" xlink:title=" ">
<polygon fill="white" stroke="#666666" points="392.3,-58 363.5,-58 363.5,-38 392.3,-38 392.3,-58"/>
<text xml:space="preserve" text-anchor="middle" x="377.9" y="-44.5" font-family="Helvetica,sans-Serif" font-size="10.00">x</text>
</a>
</g>
</g>
<!-- Node7&#45;&gt;Node8 -->
<g id="edge8_Node000007_Node000008" class="edge">
<title>Node7&#45;&gt;Node8</title>
<g id="a_edge8_Node000007_Node000008"><a xlink:title=" ">
<path fill="none" stroke="#63b8ff" d="M322.19,-48C332.69,-48 342.86,-48 351.52,-48"/>
<polygon fill="#63b8ff" stroke="#63b8ff" points="351.49,-51.5 361.49,-48 351.49,-44.5 351.49,-51.5"/>
</a>
</g>
</g>
<!-- Node9 -->
<g id="Node000009" class="node">
<title>Node9</title>
<g id="a_Node000009"><a xlink:href="leaflet_8js.html#a9f9b62a373d2bb4624b7ac2df8151435" target="_top" xlink:title=" ">
<polygon fill="white" stroke="#666666" points="392.3,-20 363.5,-20 363.5,0 392.3,0 392.3,-20"/>
<text xml:space="preserve" text-anchor="middle" x="377.9" y="-6.5" font-family="Helvetica,sans-Serif" font-size="10.00">y</text>
</a>
</g>
</g>
<!-- Node7&#45;&gt;Node9 -->
<g id="edge9_Node000007_Node000009" class="edge">
<title>Node7&#45;&gt;Node9</title>
<g id="a_edge9_Node000007_Node000009"><a xlink:title=" ">
<path fill="none" stroke="#63b8ff" d="M304.71,-31.55C321.34,-26.59 338.76,-21.39 352.32,-17.34"/>
<polygon fill="#63b8ff" stroke="#63b8ff" points="353.1,-20.76 361.68,-14.54 351.09,-14.05 353.1,-20.76"/>
</a>
</g>
</g>
</g>
</svg>
