<?xml version="1.0" encoding="UTF-8" standalone="no"?>
<!DOCTYPE svg PUBLIC "-//W3C//DTD SVG 1.1//EN"
 "http://www.w3.org/Graphics/SVG/1.1/DTD/svg11.dtd">
<!-- Generated by graphviz version 13.1.2 (20250808.2320)
 -->
<!-- Title: editeurpanovisu.DocumentationDialog.afficher Pages: 1 -->
<svg width="618pt" height="40pt"
 viewBox="0.00 0.00 618.00 40.00" xmlns="http://www.w3.org/2000/svg" xmlns:xlink="http://www.w3.org/1999/xlink">
<g id="graph0" class="graph" transform="scale(1 1) rotate(0) translate(4 36)">
<title>editeurpanovisu.DocumentationDialog.afficher</title>
<!-- Node1 -->
<g id="Node000001" class="node">
<title>Node1</title>
<g id="a_Node000001"><a xlink:title="Méthode statique pour afficher le dialogue.">
<polygon fill="#999999" stroke="#666666" points="609.75,-32 456.5,-32 456.5,0 609.75,0 609.75,-32"/>
<text xml:space="preserve" text-anchor="start" x="464.5" y="-18.5" font-family="Helvetica,sans-Serif" font-size="10.00">editeurpanovisu.Documentation</text>
<text xml:space="preserve" text-anchor="middle" x="533.12" y="-6.5" font-family="Helvetica,sans-Serif" font-size="10.00">Dialog.afficher</text>
</a>
</g>
</g>
<!-- Node2 -->
<g id="Node000002" class="node">
<title>Node2</title>
<g id="a_Node000002"><a xlink:href="classediteurpanovisu_1_1EditeurPanovisu.html#ac912b80c1f2ac97def60ff005c5c480b" target="_top" xlink:title=" ">
<polygon fill="white" stroke="#666666" points="420.5,-26 216.25,-26 216.25,-6 420.5,-6 420.5,-26"/>
<text xml:space="preserve" text-anchor="middle" x="318.38" y="-12.5" font-family="Helvetica,sans-Serif" font-size="10.00">editeurpanovisu.EditeurPanovisu.creeMenu</text>
</a>
</g>
</g>
<!-- Node1&#45;&gt;Node2 -->
<g id="edge1_Node000001_Node000002" class="edge">
<title>Node1&#45;&gt;Node2</title>
<g id="a_edge1_Node000001_Node000002"><a xlink:title=" ">
<path fill="none" stroke="#63b8ff" d="M444.8,-16C436.92,-16 428.89,-16 420.9,-16"/>
<polygon fill="#63b8ff" stroke="#63b8ff" points="444.7,-19.5 454.7,-16 444.7,-12.5 444.7,-19.5"/>
</a>
</g>
</g>
<!-- Node3 -->
<g id="Node000003" class="node">
<title>Node3</title>
<g id="a_Node000003"><a xlink:href="classediteurpanovisu_1_1EditeurPanovisu.html#a86c393eee88f54c694db994ddd85b90d" target="_top" xlink:title=" ">
<polygon fill="white" stroke="#666666" points="180.25,-32 0,-32 0,0 180.25,0 180.25,-32"/>
<text xml:space="preserve" text-anchor="start" x="8" y="-18.5" font-family="Helvetica,sans-Serif" font-size="10.00">editeurpanovisu.EditeurPanovisu.cree</text>
<text xml:space="preserve" text-anchor="middle" x="90.12" y="-6.5" font-family="Helvetica,sans-Serif" font-size="10.00">Environnement</text>
</a>
</g>
</g>
<!-- Node2&#45;&gt;Node3 -->
<g id="edge2_Node000002_Node000003" class="edge">
<title>Node2&#45;&gt;Node3</title>
<g id="a_edge2_Node000002_Node000003"><a xlink:title=" ">
<path fill="none" stroke="#63b8ff" d="M204.51,-16C196.49,-16 188.46,-16 180.6,-16"/>
<polygon fill="#63b8ff" stroke="#63b8ff" points="204.32,-19.5 214.32,-16 204.32,-12.5 204.32,-19.5"/>
</a>
</g>
</g>
</g>
</svg>
