<?xml version="1.0" encoding="UTF-8" standalone="no"?>
<!DOCTYPE svg PUBLIC "-//W3C//DTD SVG 1.1//EN"
 "http://www.w3.org/Graphics/SVG/1.1/DTD/svg11.dtd">
<!-- Generated by graphviz version 13.1.2 (20250808.2320)
 -->
<!-- Title: editeurpanovisu.GestionnairePlanController.valideHsplan Pages: 1 -->
<svg width="330pt" height="78pt"
 viewBox="0.00 0.00 330.00 78.00" xmlns="http://www.w3.org/2000/svg" xmlns:xlink="http://www.w3.org/1999/xlink">
<g id="graph0" class="graph" transform="scale(1 1) rotate(0) translate(4 74)">
<title>editeurpanovisu.GestionnairePlanController.valideHsplan</title>
<!-- Node1 -->
<g id="Node000001" class="node">
<title>Node1</title>
<g id="a_Node000001"><a xlink:title=" ">
<polygon fill="#999999" stroke="#666666" points="142,-48 0,-48 0,-16 142,-16 142,-48"/>
<text xml:space="preserve" text-anchor="start" x="8" y="-34.5" font-family="Helvetica,sans-Serif" font-size="10.00">editeurpanovisu.Gestionnaire</text>
<text xml:space="preserve" text-anchor="middle" x="71" y="-22.5" font-family="Helvetica,sans-Serif" font-size="10.00">PlanController.valideHsplan</text>
</a>
</g>
</g>
<!-- Node2 -->
<g id="Node000002" class="node">
<title>Node2</title>
<g id="a_Node000002"><a xlink:href="classediteurpanovisu_1_1GestionnairePlanController.html#a2edd566ca304172fcd4ab5559dd1738c" target="_top" xlink:title=" ">
<polygon fill="white" stroke="#666666" points="321.5,-70 178,-70 178,-38 321.5,-38 321.5,-70"/>
<text xml:space="preserve" text-anchor="start" x="186" y="-56.5" font-family="Helvetica,sans-Serif" font-size="10.00">editeurpanovisu.Gestionnaire</text>
<text xml:space="preserve" text-anchor="middle" x="249.75" y="-44.5" font-family="Helvetica,sans-Serif" font-size="10.00">PlanController.getiPlanActuel</text>
</a>
</g>
</g>
<!-- Node1&#45;&gt;Node2 -->
<g id="edge1_Node000001_Node000002" class="edge">
<title>Node1&#45;&gt;Node2</title>
<g id="a_edge1_Node000001_Node000002"><a xlink:title=" ">
<path fill="none" stroke="#63b8ff" d="M142.36,-40.76C150.28,-41.74 158.4,-42.75 166.45,-43.76"/>
<polygon fill="#63b8ff" stroke="#63b8ff" points="165.9,-47.22 176.26,-44.98 166.77,-40.27 165.9,-47.22"/>
</a>
</g>
</g>
<!-- Node3 -->
<g id="Node000003" class="node">
<title>Node3</title>
<g id="a_Node000003"><a xlink:href="leaflet_8js.html#a73aff07b65d7c0b09ccf6b4c4f1b7a9d" target="_top" xlink:title=" ">
<polygon fill="white" stroke="#666666" points="264.15,-20 235.35,-20 235.35,0 264.15,0 264.15,-20"/>
<text xml:space="preserve" text-anchor="middle" x="249.75" y="-6.5" font-family="Helvetica,sans-Serif" font-size="10.00">i</text>
</a>
</g>
</g>
<!-- Node1&#45;&gt;Node3 -->
<g id="edge2_Node000001_Node000003" class="edge">
<title>Node1&#45;&gt;Node3</title>
<g id="a_edge2_Node000001_Node000003"><a xlink:title=" ">
<path fill="none" stroke="#63b8ff" d="M142.36,-23.24C171.17,-19.66 202.65,-15.74 223.83,-13.1"/>
<polygon fill="#63b8ff" stroke="#63b8ff" points="224.03,-16.6 233.52,-11.9 223.16,-9.66 224.03,-16.6"/>
</a>
</g>
</g>
</g>
</svg>
