<?xml version="1.0" encoding="UTF-8" standalone="no"?>
<!DOCTYPE svg PUBLIC "-//W3C//DTD SVG 1.1//EN"
 "http://www.w3.org/Graphics/SVG/1.1/DTD/svg11.dtd">
<!-- Generated by graphviz version 13.1.2 (20250808.2320)
 -->
<!-- Title: editeurpanovisu.GestionnaireDiaporamaController.initDiaporama Pages: 1 -->
<svg width="381pt" height="666pt"
 viewBox="0.00 0.00 381.00 666.00" xmlns="http://www.w3.org/2000/svg" xmlns:xlink="http://www.w3.org/1999/xlink">
<g id="graph0" class="graph" transform="scale(1 1) rotate(0) translate(4 662)">
<title>editeurpanovisu.GestionnaireDiaporamaController.initDiaporama</title>
<!-- Node1 -->
<g id="Node000001" class="node">
<title>Node1</title>
<g id="a_Node000001"><a xlink:title=" ">
<polygon fill="#999999" stroke="#666666" points="168.25,-357 0,-357 0,-325 168.25,-325 168.25,-357"/>
<text xml:space="preserve" text-anchor="start" x="8" y="-343.5" font-family="Helvetica,sans-Serif" font-size="10.00">editeurpanovisu.Gestionnaire</text>
<text xml:space="preserve" text-anchor="middle" x="84.12" y="-331.5" font-family="Helvetica,sans-Serif" font-size="10.00">DiaporamaController.initDiaporama</text>
</a>
</g>
</g>
<!-- Node2 -->
<g id="Node000002" class="node">
<title>Node2</title>
<g id="a_Node000002"><a xlink:href="classediteurpanovisu_1_1GestionnaireDiaporamaController.html#a4e194804ba3846af066a18b58ba76899" target="_top" xlink:title=" ">
<polygon fill="white" stroke="#666666" points="373.25,-658 204.25,-658 204.25,-626 373.25,-626 373.25,-658"/>
<text xml:space="preserve" text-anchor="start" x="212.25" y="-644.5" font-family="Helvetica,sans-Serif" font-size="10.00">editeurpanovisu.Gestionnaire</text>
<text xml:space="preserve" text-anchor="middle" x="288.75" y="-632.5" font-family="Helvetica,sans-Serif" font-size="10.00">DiaporamaController.getDiaporama</text>
</a>
</g>
</g>
<!-- Node1&#45;&gt;Node2 -->
<g id="edge1_Node000001_Node000002" class="edge">
<title>Node1&#45;&gt;Node2</title>
<g id="a_edge1_Node000001_Node000002"><a xlink:title=" ">
<path fill="none" stroke="#63b8ff" d="M87.35,-357.47C94.66,-405.09 122.37,-544.15 204.25,-617 205.18,-617.83 206.14,-618.63 207.13,-619.41"/>
<polygon fill="#63b8ff" stroke="#63b8ff" points="205.03,-622.22 215.29,-624.86 208.91,-616.39 205.03,-622.22"/>
</a>
</g>
</g>
<!-- Node3 -->
<g id="Node000003" class="node">
<title>Node3</title>
<g id="a_Node000003"><a xlink:href="classediteurpanovisu_1_1Diaporama.html#a4f194556e806da57bc913012a2fec132" target="_top" xlink:title=" ">
<polygon fill="white" stroke="#666666" points="365.38,-608 212.12,-608 212.12,-576 365.38,-576 365.38,-608"/>
<text xml:space="preserve" text-anchor="start" x="220.12" y="-594.5" font-family="Helvetica,sans-Serif" font-size="10.00">editeurpanovisu.Diaporama.geti</text>
<text xml:space="preserve" text-anchor="middle" x="288.75" y="-582.5" font-family="Helvetica,sans-Serif" font-size="10.00">NombreImages</text>
</a>
</g>
</g>
<!-- Node1&#45;&gt;Node3 -->
<g id="edge2_Node000001_Node000003" class="edge">
<title>Node1&#45;&gt;Node3</title>
<g id="a_edge2_Node000001_Node000003"><a xlink:title=" ">
<path fill="none" stroke="#63b8ff" d="M89.06,-357.46C99.88,-399.06 134.03,-509.24 204.25,-567 205.37,-567.92 206.52,-568.8 207.7,-569.66"/>
<polygon fill="#63b8ff" stroke="#63b8ff" points="205.61,-572.48 215.96,-574.78 209.3,-566.53 205.61,-572.48"/>
</a>
</g>
</g>
<!-- Node4 -->
<g id="Node000004" class="node">
<title>Node4</title>
<g id="a_Node000004"><a xlink:href="leaflet_8js.html#a73aff07b65d7c0b09ccf6b4c4f1b7a9d" target="_top" xlink:title=" ">
<polygon fill="white" stroke="#666666" points="303.15,-558 274.35,-558 274.35,-538 303.15,-538 303.15,-558"/>
<text xml:space="preserve" text-anchor="middle" x="288.75" y="-544.5" font-family="Helvetica,sans-Serif" font-size="10.00">i</text>
</a>
</g>
</g>
<!-- Node1&#45;&gt;Node4 -->
<g id="edge3_Node000001_Node000004" class="edge">
<title>Node1&#45;&gt;Node4</title>
<g id="a_edge3_Node000001_Node000004"><a xlink:title=" ">
<path fill="none" stroke="#63b8ff" d="M90.57,-357.38C103.74,-394.3 140.97,-484.31 204.25,-529 221.34,-541.07 244.86,-545.61 262.59,-547.25"/>
<polygon fill="#63b8ff" stroke="#63b8ff" points="262.33,-550.74 272.53,-547.9 262.78,-543.76 262.33,-550.74"/>
</a>
</g>
</g>
<!-- Node5 -->
<g id="Node000005" class="node">
<title>Node5</title>
<g id="a_Node000005"><a xlink:href="classediteurpanovisu_1_1GestionnaireDiaporamaController.html#a69aa24b60ec648a27dc0fd70f6e716eb" target="_top" xlink:title=" ">
<polygon fill="white" stroke="#666666" points="368.38,-520 209.12,-520 209.12,-488 368.38,-488 368.38,-520"/>
<text xml:space="preserve" text-anchor="start" x="217.12" y="-506.5" font-family="Helvetica,sans-Serif" font-size="10.00">editeurpanovisu.Gestionnaire</text>
<text xml:space="preserve" text-anchor="middle" x="288.75" y="-494.5" font-family="Helvetica,sans-Serif" font-size="10.00">DiaporamaController.isbDisabled</text>
</a>
</g>
</g>
<!-- Node1&#45;&gt;Node5 -->
<g id="edge4_Node000001_Node000005" class="edge">
<title>Node1&#45;&gt;Node5</title>
<g id="a_edge4_Node000001_Node000005"><a xlink:title=" ">
<path fill="none" stroke="#63b8ff" d="M94.73,-357.27C112.61,-386.13 153.78,-446.31 204.25,-479 206.23,-480.29 208.29,-481.51 210.39,-482.67"/>
<polygon fill="#63b8ff" stroke="#63b8ff" points="208.7,-485.74 219.22,-487 211.79,-479.45 208.7,-485.74"/>
</a>
</g>
</g>
<!-- Node6 -->
<g id="Node000006" class="node">
<title>Node6</title>
<g id="a_Node000006"><a xlink:href="leaflet_8js.html#abf5830200d869e463ea38504a19985f6" target="_top" xlink:title=" ">
<polygon fill="white" stroke="#666666" points="303.5,-470 274,-470 274,-450 303.5,-450 303.5,-470"/>
<text xml:space="preserve" text-anchor="middle" x="288.75" y="-456.5" font-family="Helvetica,sans-Serif" font-size="10.00">me</text>
</a>
</g>
</g>
<!-- Node1&#45;&gt;Node6 -->
<g id="edge5_Node000001_Node000006" class="edge">
<title>Node1&#45;&gt;Node6</title>
<g id="a_edge5_Node000001_Node000006"><a xlink:title=" ">
<path fill="none" stroke="#63b8ff" d="M99.57,-357.24C120.43,-379.62 161.2,-419.62 204.25,-441 222.57,-450.1 245.32,-454.91 262.45,-457.41"/>
<polygon fill="#63b8ff" stroke="#63b8ff" points="261.91,-460.87 272.28,-458.66 262.8,-453.92 261.91,-460.87"/>
</a>
</g>
</g>
<!-- Node7 -->
<g id="Node000007" class="node">
<title>Node7</title>
<g id="a_Node000007"><a xlink:href="classediteurpanovisu_1_1BigDecimalField.html#a2ddb75ec2e1d79bb0a984366df7f3f43" target="_top" xlink:title="Obtient la propriété du nombre.">
<polygon fill="white" stroke="#666666" points="357.5,-432 220,-432 220,-400 357.5,-400 357.5,-432"/>
<text xml:space="preserve" text-anchor="start" x="228" y="-418.5" font-family="Helvetica,sans-Serif" font-size="10.00">editeurpanovisu.BigDecimal</text>
<text xml:space="preserve" text-anchor="middle" x="288.75" y="-406.5" font-family="Helvetica,sans-Serif" font-size="10.00">Field.numberProperty</text>
</a>
</g>
</g>
<!-- Node1&#45;&gt;Node7 -->
<g id="edge6_Node000001_Node000007" class="edge">
<title>Node1&#45;&gt;Node7</title>
<g id="a_edge6_Node000001_Node000007"><a xlink:title=" ">
<path fill="none" stroke="#63b8ff" d="M121.49,-357.45C144.88,-367.73 176.06,-380.9 204.25,-391 209.16,-392.76 214.25,-394.5 219.4,-396.19"/>
<polygon fill="#63b8ff" stroke="#63b8ff" points="217.96,-399.4 228.55,-399.12 220.1,-392.73 217.96,-399.4"/>
</a>
</g>
</g>
<!-- Node8 -->
<g id="Node000008" class="node">
<title>Node8</title>
<g id="a_Node000008"><a xlink:href="classediteurpanovisu_1_1Diaporama.html#a7be609880a2af991670add24d218cd72" target="_top" xlink:title=" ">
<polygon fill="white" stroke="#666666" points="364.25,-382 213.25,-382 213.25,-350 364.25,-350 364.25,-382"/>
<text xml:space="preserve" text-anchor="start" x="221.25" y="-368.5" font-family="Helvetica,sans-Serif" font-size="10.00">editeurpanovisu.Diaporama.set</text>
<text xml:space="preserve" text-anchor="middle" x="288.75" y="-356.5" font-family="Helvetica,sans-Serif" font-size="10.00">DelaiDiaporama</text>
</a>
</g>
</g>
<!-- Node1&#45;&gt;Node8 -->
<g id="edge7_Node000001_Node000008" class="edge">
<title>Node1&#45;&gt;Node8</title>
<g id="a_edge7_Node000001_Node000008"><a xlink:title=" ">
<path fill="none" stroke="#63b8ff" d="M168.71,-351.31C179.55,-352.65 190.67,-354.02 201.56,-355.37"/>
<polygon fill="#63b8ff" stroke="#63b8ff" points="200.93,-358.82 211.29,-356.57 201.79,-351.87 200.93,-358.82"/>
</a>
</g>
</g>
<!-- Node9 -->
<g id="Node000009" class="node">
<title>Node9</title>
<g id="a_Node000009"><a xlink:href="classediteurpanovisu_1_1Diaporama.html#ac4935db8198282a699f95a8de3e60976" target="_top" xlink:title=" ">
<polygon fill="white" stroke="#666666" points="365.38,-332 212.12,-332 212.12,-300 365.38,-300 365.38,-332"/>
<text xml:space="preserve" text-anchor="start" x="220.12" y="-318.5" font-family="Helvetica,sans-Serif" font-size="10.00">editeurpanovisu.Diaporama.seti</text>
<text xml:space="preserve" text-anchor="middle" x="288.75" y="-306.5" font-family="Helvetica,sans-Serif" font-size="10.00">NombreImages</text>
</a>
</g>
</g>
<!-- Node1&#45;&gt;Node9 -->
<g id="edge8_Node000001_Node000009" class="edge">
<title>Node1&#45;&gt;Node9</title>
<g id="a_edge8_Node000001_Node000009"><a xlink:title=" ">
<path fill="none" stroke="#63b8ff" d="M168.71,-330.69C179.2,-329.39 189.95,-328.07 200.49,-326.77"/>
<polygon fill="#63b8ff" stroke="#63b8ff" points="200.83,-330.25 210.32,-325.55 199.97,-323.3 200.83,-330.25"/>
</a>
</g>
</g>
<!-- Node10 -->
<g id="Node000010" class="node">
<title>Node10</title>
<g id="a_Node000010"><a xlink:href="classediteurpanovisu_1_1BigDecimalField.html#adc2700ac44fad89e58019ce2b13206c9" target="_top" xlink:title="Définit la valeur BigDecimal.">
<polygon fill="white" stroke="#666666" points="357.5,-282 220,-282 220,-250 357.5,-250 357.5,-282"/>
<text xml:space="preserve" text-anchor="start" x="228" y="-268.5" font-family="Helvetica,sans-Serif" font-size="10.00">editeurpanovisu.BigDecimal</text>
<text xml:space="preserve" text-anchor="middle" x="288.75" y="-256.5" font-family="Helvetica,sans-Serif" font-size="10.00">Field.setNumber</text>
</a>
</g>
</g>
<!-- Node1&#45;&gt;Node10 -->
<g id="edge9_Node000001_Node000010" class="edge">
<title>Node1&#45;&gt;Node10</title>
<g id="a_edge9_Node000001_Node000010"><a xlink:title=" ">
<path fill="none" stroke="#63b8ff" d="M121.49,-324.55C144.88,-314.27 176.06,-301.1 204.25,-291 209.16,-289.24 214.25,-287.5 219.4,-285.81"/>
<polygon fill="#63b8ff" stroke="#63b8ff" points="220.1,-289.27 228.55,-282.88 217.96,-282.6 220.1,-289.27"/>
</a>
</g>
</g>
<!-- Node11 -->
<g id="Node000011" class="node">
<title>Node11</title>
<g id="a_Node000011"><a xlink:href="classediteurpanovisu_1_1Diaporama.html#ae1c21fcc3a2624c22fb8ebca4bd678ac" target="_top" xlink:title=" ">
<polygon fill="white" stroke="#666666" points="364.25,-232 213.25,-232 213.25,-200 364.25,-200 364.25,-232"/>
<text xml:space="preserve" text-anchor="start" x="221.25" y="-218.5" font-family="Helvetica,sans-Serif" font-size="10.00">editeurpanovisu.Diaporama.set</text>
<text xml:space="preserve" text-anchor="middle" x="288.75" y="-206.5" font-family="Helvetica,sans-Serif" font-size="10.00">OpaciteDiaporama</text>
</a>
</g>
</g>
<!-- Node1&#45;&gt;Node11 -->
<g id="edge10_Node000001_Node000011" class="edge">
<title>Node1&#45;&gt;Node11</title>
<g id="a_edge10_Node000001_Node000011"><a xlink:title=" ">
<path fill="none" stroke="#63b8ff" d="M100.14,-324.79C121.34,-302.81 162.18,-263.69 204.25,-241 207.06,-239.48 209.97,-238.05 212.95,-236.69"/>
<polygon fill="#63b8ff" stroke="#63b8ff" points="214.03,-240.04 221.9,-232.95 211.33,-233.58 214.03,-240.04"/>
</a>
</g>
</g>
<!-- Node12 -->
<g id="Node000012" class="node">
<title>Node12</title>
<g id="a_Node000012"><a xlink:href="classediteurpanovisu_1_1Diaporama.html#a4080ce2ce59c7875e6dee4c0974a6332" target="_top" xlink:title=" ">
<polygon fill="white" stroke="#666666" points="364.25,-182 213.25,-182 213.25,-150 364.25,-150 364.25,-182"/>
<text xml:space="preserve" text-anchor="start" x="221.25" y="-168.5" font-family="Helvetica,sans-Serif" font-size="10.00">editeurpanovisu.Diaporama.set</text>
<text xml:space="preserve" text-anchor="middle" x="288.75" y="-156.5" font-family="Helvetica,sans-Serif" font-size="10.00">StrCouleurFondDiaporama</text>
</a>
</g>
</g>
<!-- Node1&#45;&gt;Node12 -->
<g id="edge11_Node000001_Node000012" class="edge">
<title>Node1&#45;&gt;Node12</title>
<g id="a_edge11_Node000001_Node000012"><a xlink:title=" ">
<path fill="none" stroke="#63b8ff" d="M93.56,-324.76C110.39,-293.97 151.11,-226.99 204.25,-191 206.04,-189.79 207.88,-188.64 209.77,-187.54"/>
<polygon fill="#63b8ff" stroke="#63b8ff" points="210.94,-190.88 218.24,-183.19 207.74,-184.65 210.94,-190.88"/>
</a>
</g>
</g>
<!-- Node13 -->
<g id="Node000013" class="node">
<title>Node13</title>
<g id="a_Node000013"><a xlink:href="classediteurpanovisu_1_1Diaporama.html#ab07d44144b22518b0c3569444f5a1ab2" target="_top" xlink:title=" ">
<polygon fill="white" stroke="#666666" points="364.25,-132 213.25,-132 213.25,-100 364.25,-100 364.25,-132"/>
<text xml:space="preserve" text-anchor="start" x="221.25" y="-118.5" font-family="Helvetica,sans-Serif" font-size="10.00">editeurpanovisu.Diaporama.set</text>
<text xml:space="preserve" text-anchor="middle" x="288.75" y="-106.5" font-family="Helvetica,sans-Serif" font-size="10.00">StrFichiers</text>
</a>
</g>
</g>
<!-- Node1&#45;&gt;Node13 -->
<g id="edge12_Node000001_Node000013" class="edge">
<title>Node1&#45;&gt;Node13</title>
<g id="a_edge12_Node000001_Node000013"><a xlink:title=" ">
<path fill="none" stroke="#63b8ff" d="M90.2,-324.76C102.92,-286.7 139.87,-191.2 204.25,-141 205.56,-139.98 206.9,-139.01 208.28,-138.07"/>
<polygon fill="#63b8ff" stroke="#63b8ff" points="209.69,-141.3 216.54,-133.21 206.15,-135.27 209.69,-141.3"/>
</a>
</g>
</g>
<!-- Node14 -->
<g id="Node000014" class="node">
<title>Node14</title>
<g id="a_Node000014"><a xlink:href="classediteurpanovisu_1_1Diaporama.html#a08cc1de302348877469f8c123cb57f14" target="_top" xlink:title=" ">
<polygon fill="white" stroke="#666666" points="364.25,-82 213.25,-82 213.25,-50 364.25,-50 364.25,-82"/>
<text xml:space="preserve" text-anchor="start" x="221.25" y="-68.5" font-family="Helvetica,sans-Serif" font-size="10.00">editeurpanovisu.Diaporama.set</text>
<text xml:space="preserve" text-anchor="middle" x="288.75" y="-56.5" font-family="Helvetica,sans-Serif" font-size="10.00">StrFichiersImage</text>
</a>
</g>
</g>
<!-- Node1&#45;&gt;Node14 -->
<g id="edge13_Node000001_Node000014" class="edge">
<title>Node1&#45;&gt;Node14</title>
<g id="a_edge13_Node000001_Node000014"><a xlink:title=" ">
<path fill="none" stroke="#63b8ff" d="M88.11,-324.79C97.13,-280.44 128.32,-156.07 204.25,-91 205.2,-90.19 206.17,-89.4 207.17,-88.64"/>
<polygon fill="#63b8ff" stroke="#63b8ff" points="208.93,-91.67 215.42,-83.29 205.12,-85.8 208.93,-91.67"/>
</a>
</g>
</g>
<!-- Node15 -->
<g id="Node000015" class="node">
<title>Node15</title>
<g id="a_Node000015"><a xlink:href="classediteurpanovisu_1_1Diaporama.html#a92471ddae41d8fdb9a63eeb665b8f0ae" target="_top" xlink:title=" ">
<polygon fill="white" stroke="#666666" points="364.25,-32 213.25,-32 213.25,0 364.25,0 364.25,-32"/>
<text xml:space="preserve" text-anchor="start" x="221.25" y="-18.5" font-family="Helvetica,sans-Serif" font-size="10.00">editeurpanovisu.Diaporama.set</text>
<text xml:space="preserve" text-anchor="middle" x="288.75" y="-6.5" font-family="Helvetica,sans-Serif" font-size="10.00">StrLibellesImages</text>
</a>
</g>
</g>
<!-- Node1&#45;&gt;Node15 -->
<g id="edge14_Node000001_Node000015" class="edge">
<title>Node1&#45;&gt;Node15</title>
<g id="a_edge14_Node000001_Node000015"><a xlink:title=" ">
<path fill="none" stroke="#63b8ff" d="M86.71,-324.57C92.45,-274.33 116.67,-121.27 204.25,-41 205.03,-40.28 205.83,-39.59 206.65,-38.91"/>
<polygon fill="#63b8ff" stroke="#63b8ff" points="208.57,-41.84 214.79,-33.27 204.58,-36.09 208.57,-41.84"/>
</a>
</g>
</g>
</g>
</svg>
