<?xml version="1.0" encoding="UTF-8" standalone="no"?>
<!DOCTYPE svg PUBLIC "-//W3C//DTD SVG 1.1//EN"
 "http://www.w3.org/Graphics/SVG/1.1/DTD/svg11.dtd">
<!-- Generated by graphviz version 13.1.2 (20250808.2320)
 -->
<!-- Title: editeurpanovisu.GestionnaireInterfaceController.getOpacitePlan Pages: 1 -->
<svg width="2626pt" height="431pt"
 viewBox="0.00 0.00 2626.00 431.00" xmlns="http://www.w3.org/2000/svg" xmlns:xlink="http://www.w3.org/1999/xlink">
<g id="graph0" class="graph" transform="scale(1 1) rotate(0) translate(4 427)">
<title>editeurpanovisu.GestionnaireInterfaceController.getOpacitePlan</title>
<!-- Node1 -->
<g id="Node000001" class="node">
<title>Node1</title>
<g id="a_Node000001"><a xlink:title=" ">
<polygon fill="#999999" stroke="#666666" points="2617.5,-227 2451.5,-227 2451.5,-195 2617.5,-195 2617.5,-227"/>
<text xml:space="preserve" text-anchor="start" x="2459.5" y="-213.5" font-family="Helvetica,sans-Serif" font-size="10.00">editeurpanovisu.Gestionnaire</text>
<text xml:space="preserve" text-anchor="middle" x="2534.5" y="-201.5" font-family="Helvetica,sans-Serif" font-size="10.00">InterfaceController.getOpacitePlan</text>
</a>
</g>
</g>
<!-- Node2 -->
<g id="Node000002" class="node">
<title>Node2</title>
<g id="a_Node000002"><a xlink:href="classediteurpanovisu_1_1GestionnaireInterfaceController.html#ace0168604ad1480beb57adc119ca795f" target="_top" xlink:title=" ">
<polygon fill="white" stroke="#666666" points="2406.12,-123 2258.88,-123 2258.88,-91 2406.12,-91 2406.12,-123"/>
<text xml:space="preserve" text-anchor="start" x="2266.88" y="-109.5" font-family="Helvetica,sans-Serif" font-size="10.00">editeurpanovisu.Gestionnaire</text>
<text xml:space="preserve" text-anchor="middle" x="2332.5" y="-97.5" font-family="Helvetica,sans-Serif" font-size="10.00">InterfaceController.affichePlan</text>
</a>
</g>
</g>
<!-- Node1&#45;&gt;Node2 -->
<g id="edge1_Node000001_Node000002" class="edge">
<title>Node1&#45;&gt;Node2</title>
<g id="a_edge1_Node000001_Node000002"><a xlink:title=" ">
<path fill="none" stroke="#63b8ff" d="M2491.64,-189.23C2453.9,-169.61 2399.21,-141.17 2365.04,-123.4"/>
<polygon fill="#63b8ff" stroke="#63b8ff" points="2489.98,-192.31 2500.47,-193.82 2493.21,-186.1 2489.98,-192.31"/>
</a>
</g>
</g>
<!-- Node3 -->
<g id="Node000003" class="node">
<title>Node3</title>
<g id="a_Node000003"><a xlink:href="classediteurpanovisu_1_1GestionnaireInterfaceController.html#a55c8afda208674955a13d48d02be41b8" target="_top" xlink:title=" ">
<polygon fill="white" stroke="#666666" points="2213.5,-173 2046,-173 2046,-141 2213.5,-141 2213.5,-173"/>
<text xml:space="preserve" text-anchor="start" x="2054" y="-159.5" font-family="Helvetica,sans-Serif" font-size="10.00">editeurpanovisu.Gestionnaire</text>
<text xml:space="preserve" text-anchor="middle" x="2129.75" y="-147.5" font-family="Helvetica,sans-Serif" font-size="10.00">InterfaceController.afficheTemplate</text>
</a>
</g>
</g>
<!-- Node1&#45;&gt;Node3 -->
<g id="edge37_Node000001_Node000003" class="edge">
<title>Node1&#45;&gt;Node3</title>
<g id="a_edge37_Node000001_Node000003"><a xlink:title=" ">
<path fill="none" stroke="#63b8ff" d="M2439.83,-198.44C2371.45,-189.27 2279.58,-176.95 2213.81,-168.14"/>
<polygon fill="#63b8ff" stroke="#63b8ff" points="2439.15,-201.88 2449.53,-199.74 2440.08,-194.94 2439.15,-201.88"/>
</a>
</g>
</g>
<!-- Node11 -->
<g id="Node000011" class="node">
<title>Node11</title>
<g id="a_Node000011"><a xlink:href="classediteurpanovisu_1_1EditeurPanovisu.html#a94e36b9e9d09ab1a4c852b8a8cefa927" target="_top" xlink:title=" ">
<polygon fill="white" stroke="#666666" points="647.25,-237 456.5,-237 456.5,-205 647.25,-205 647.25,-237"/>
<text xml:space="preserve" text-anchor="start" x="464.5" y="-223.5" font-family="Helvetica,sans-Serif" font-size="10.00">editeurpanovisu.EditeurPanovisu.genere</text>
<text xml:space="preserve" text-anchor="middle" x="551.88" y="-211.5" font-family="Helvetica,sans-Serif" font-size="10.00">Visite</text>
</a>
</g>
</g>
<!-- Node1&#45;&gt;Node11 -->
<g id="edge38_Node000001_Node000011" class="edge">
<title>Node1&#45;&gt;Node11</title>
<g id="a_edge38_Node000001_Node000011"><a xlink:title=" ">
<path fill="none" stroke="#63b8ff" d="M2509.08,-234.87C2449.69,-290.3 2290.79,-423 2130.75,-423 2130.75,-423 2130.75,-423 1260,-423 997.24,-423 917.96,-411.14 683.25,-293 664.39,-283.51 665.14,-273.22 647.25,-262 631.97,-252.41 614.05,-244.01 597.96,-237.34"/>
<polygon fill="#63b8ff" stroke="#63b8ff" points="2511.15,-237.74 2516.01,-228.32 2506.34,-232.65 2511.15,-237.74"/>
</a>
</g>
</g>
<!-- Node22 -->
<g id="Node000022" class="node">
<title>Node22</title>
<g id="a_Node000022"><a xlink:href="classediteurpanovisu_1_1GestionnaireInterfaceController.html#ab66509c63a85a8285a081b24049e8774" target="_top" xlink:title=" ">
<polygon fill="white" stroke="#666666" points="2415.5,-240 2249.5,-240 2249.5,-208 2415.5,-208 2415.5,-240"/>
<text xml:space="preserve" text-anchor="start" x="2257.5" y="-226.5" font-family="Helvetica,sans-Serif" font-size="10.00">editeurpanovisu.Gestionnaire</text>
<text xml:space="preserve" text-anchor="middle" x="2332.5" y="-214.5" font-family="Helvetica,sans-Serif" font-size="10.00">InterfaceController.strGetTemplate</text>
</a>
</g>
</g>
<!-- Node1&#45;&gt;Node22 -->
<g id="edge39_Node000001_Node000022" class="edge">
<title>Node1&#45;&gt;Node22</title>
<g id="a_edge39_Node000001_Node000022"><a xlink:title=" ">
<path fill="none" stroke="#63b8ff" d="M2439.92,-217.08C2431.84,-217.61 2423.7,-218.14 2415.72,-218.66"/>
<polygon fill="#63b8ff" stroke="#63b8ff" points="2440.02,-220.58 2449.78,-216.44 2439.57,-213.6 2440.02,-220.58"/>
</a>
</g>
</g>
<!-- Node2&#45;&gt;Node3 -->
<g id="edge2_Node000002_Node000003" class="edge">
<title>Node2&#45;&gt;Node3</title>
<g id="a_edge2_Node000002_Node000003"><a xlink:title=" ">
<path fill="none" stroke="#63b8ff" d="M2254.45,-126.19C2235.44,-130.93 2215.24,-135.96 2196.8,-140.55"/>
<polygon fill="#63b8ff" stroke="#63b8ff" points="2255.16,-129.62 2264.02,-123.81 2253.47,-122.83 2255.16,-129.62"/>
</a>
</g>
</g>
<!-- Node17 -->
<g id="Node000017" class="node">
<title>Node17</title>
<g id="a_Node000017"><a xlink:href="classediteurpanovisu_1_1GestionnaireInterfaceController.html#a8c634f775c31c1a4db22d5ef0659f7e4" target="_top" xlink:title=" ">
<polygon fill="white" stroke="#666666" points="2203.38,-35 2056.12,-35 2056.12,-3 2203.38,-3 2203.38,-35"/>
<text xml:space="preserve" text-anchor="start" x="2064.12" y="-21.5" font-family="Helvetica,sans-Serif" font-size="10.00">editeurpanovisu.Gestionnaire</text>
<text xml:space="preserve" text-anchor="middle" x="2129.75" y="-9.5" font-family="Helvetica,sans-Serif" font-size="10.00">InterfaceController.afficheTitre</text>
</a>
</g>
</g>
<!-- Node2&#45;&gt;Node17 -->
<g id="edge28_Node000002_Node000017" class="edge">
<title>Node2&#45;&gt;Node17</title>
<g id="a_edge28_Node000002_Node000017"><a xlink:title=" ">
<path fill="none" stroke="#63b8ff" d="M2290.21,-85.33C2267.79,-73.91 2239.43,-60.03 2213.5,-49 2202.39,-44.27 2190.26,-39.61 2178.79,-35.41"/>
<polygon fill="#63b8ff" stroke="#63b8ff" points="2288.54,-88.4 2299.03,-89.85 2291.73,-82.18 2288.54,-88.4"/>
</a>
</g>
</g>
<!-- Node18 -->
<g id="Node000018" class="node">
<title>Node18</title>
<g id="a_Node000018"><a xlink:href="classediteurpanovisu_1_1GestionnaireInterfaceController.html#ac7fa988dc99d8684686127a2269cd66e" target="_top" xlink:title=" ">
<polygon fill="white" stroke="#666666" points="2000.62,-35 1844.38,-35 1844.38,-3 2000.62,-3 2000.62,-35"/>
<text xml:space="preserve" text-anchor="start" x="1852.38" y="-21.5" font-family="Helvetica,sans-Serif" font-size="10.00">editeurpanovisu.Gestionnaire</text>
<text xml:space="preserve" text-anchor="middle" x="1922.5" y="-9.5" font-family="Helvetica,sans-Serif" font-size="10.00">InterfaceController.creeInterface</text>
</a>
</g>
</g>
<!-- Node2&#45;&gt;Node18 -->
<g id="edge30_Node000002_Node000018" class="edge">
<title>Node2&#45;&gt;Node18</title>
<g id="a_edge30_Node000002_Node000018"><a xlink:title=" ">
<path fill="none" stroke="#63b8ff" d="M2247.61,-88.91C2174.86,-73.21 2070.45,-50.7 1999.96,-35.49"/>
<polygon fill="#63b8ff" stroke="#63b8ff" points="2246.57,-92.26 2257.08,-90.95 2248.04,-85.42 2246.57,-92.26"/>
</a>
</g>
</g>
<!-- Node19 -->
<g id="Node000019" class="node">
<title>Node19</title>
<g id="a_Node000019"><a xlink:href="classediteurpanovisu_1_1GestionnaireInterfaceController.html#a568c34e865fb653f63b8fa7a9a9cafc8" target="_top" xlink:title=" ">
<polygon fill="white" stroke="#666666" points="2200.75,-123 2058.75,-123 2058.75,-91 2200.75,-91 2200.75,-123"/>
<text xml:space="preserve" text-anchor="start" x="2066.75" y="-109.5" font-family="Helvetica,sans-Serif" font-size="10.00">editeurpanovisu.Gestionnaire</text>
<text xml:space="preserve" text-anchor="middle" x="2129.75" y="-97.5" font-family="Helvetica,sans-Serif" font-size="10.00">InterfaceController.rafraichit</text>
</a>
</g>
</g>
<!-- Node2&#45;&gt;Node19 -->
<g id="edge31_Node000002_Node000019" class="edge">
<title>Node2&#45;&gt;Node19</title>
<g id="a_edge31_Node000002_Node000019"><a xlink:title=" ">
<path fill="none" stroke="#63b8ff" d="M2247.35,-107C2231.94,-107 2216.01,-107 2201.06,-107"/>
<polygon fill="#63b8ff" stroke="#63b8ff" points="2246.94,-110.5 2256.94,-107 2246.94,-103.5 2246.94,-110.5"/>
</a>
</g>
</g>
<!-- Node4 -->
<g id="Node000004" class="node">
<title>Node4</title>
<g id="a_Node000004"><a xlink:href="classediteurpanovisu_1_1EditeurPanovisu.html#a87b29dc258cfc67370b1f27809e91b8e" target="_top" xlink:title=" ">
<polygon fill="white" stroke="#666666" points="2010,-148 1835,-148 1835,-116 2010,-116 2010,-148"/>
<text xml:space="preserve" text-anchor="start" x="1843" y="-134.5" font-family="Helvetica,sans-Serif" font-size="10.00">editeurpanovisu.EditeurPanovisu.tsk</text>
<text xml:space="preserve" text-anchor="middle" x="1922.5" y="-122.5" font-family="Helvetica,sans-Serif" font-size="10.00">AnalyseFichierPVU</text>
</a>
</g>
</g>
<!-- Node3&#45;&gt;Node4 -->
<g id="edge3_Node000003_Node000004" class="edge">
<title>Node3&#45;&gt;Node4</title>
<g id="a_edge3_Node000003_Node000004"><a xlink:title=" ">
<path fill="none" stroke="#63b8ff" d="M2034.37,-145.5C2026.41,-144.53 2018.38,-143.56 2010.48,-142.59"/>
<polygon fill="#63b8ff" stroke="#63b8ff" points="2033.71,-148.95 2044.06,-146.68 2034.56,-142 2033.71,-148.95"/>
</a>
</g>
</g>
<!-- Node5 -->
<g id="Node000005" class="node">
<title>Node5</title>
<g id="a_Node000005"><a xlink:href="classediteurpanovisu_1_1EditeurPanovisu.html#ab4beb1597b660a4a253befc6e76f1c54" target="_top" xlink:title=" ">
<polygon fill="white" stroke="#666666" points="1129.62,-117 944.12,-117 944.12,-85 1129.62,-85 1129.62,-117"/>
<text xml:space="preserve" text-anchor="start" x="952.12" y="-103.5" font-family="Helvetica,sans-Serif" font-size="10.00">editeurpanovisu.EditeurPanovisu.projet</text>
<text xml:space="preserve" text-anchor="middle" x="1036.88" y="-91.5" font-family="Helvetica,sans-Serif" font-size="10.00">Charge</text>
</a>
</g>
</g>
<!-- Node4&#45;&gt;Node5 -->
<g id="edge4_Node000004_Node000005" class="edge">
<title>Node4&#45;&gt;Node5</title>
<g id="a_edge4_Node000004_Node000005"><a xlink:title=" ">
<path fill="none" stroke="#63b8ff" d="M1823.45,-128.56C1651.48,-122.53 1297.83,-110.12 1130.08,-104.23"/>
<polygon fill="#63b8ff" stroke="#63b8ff" points="1823.13,-132.05 1833.25,-128.9 1823.38,-125.06 1823.13,-132.05"/>
</a>
</g>
</g>
<!-- Node8 -->
<g id="Node000008" class="node">
<title>Node8</title>
<g id="a_Node000008"><a xlink:href="classediteurpanovisu_1_1EditeurPanovisu.html#a6d19b4d885ee6fcec827b91956295732" target="_top" xlink:title=" ">
<polygon fill="white" stroke="#666666" points="1799,-199 1613.5,-199 1613.5,-167 1799,-167 1799,-199"/>
<text xml:space="preserve" text-anchor="start" x="1621.5" y="-185.5" font-family="Helvetica,sans-Serif" font-size="10.00">editeurpanovisu.EditeurPanovisu.projet</text>
<text xml:space="preserve" text-anchor="middle" x="1706.25" y="-173.5" font-family="Helvetica,sans-Serif" font-size="10.00">ChargeNom</text>
</a>
</g>
</g>
<!-- Node4&#45;&gt;Node8 -->
<g id="edge7_Node000004_Node000008" class="edge">
<title>Node4&#45;&gt;Node8</title>
<g id="a_edge7_Node000004_Node000008"><a xlink:title=" ">
<path fill="none" stroke="#63b8ff" d="M1841.22,-151.11C1819.86,-156.19 1796.98,-161.64 1776.28,-166.57"/>
<polygon fill="#63b8ff" stroke="#63b8ff" points="1841.84,-154.56 1850.76,-148.84 1840.22,-147.75 1841.84,-154.56"/>
</a>
</g>
</g>
<!-- Node6 -->
<g id="Node000006" class="node">
<title>Node6</title>
<g id="a_Node000006"><a xlink:href="classediteurpanovisu_1_1EditeurPanovisu.html#ac912b80c1f2ac97def60ff005c5c480b" target="_top" xlink:title=" ">
<polygon fill="white" stroke="#666666" points="420.5,-177 216.25,-177 216.25,-157 420.5,-157 420.5,-177"/>
<text xml:space="preserve" text-anchor="middle" x="318.38" y="-163.5" font-family="Helvetica,sans-Serif" font-size="10.00">editeurpanovisu.EditeurPanovisu.creeMenu</text>
</a>
</g>
</g>
<!-- Node5&#45;&gt;Node6 -->
<g id="edge5_Node000005_Node000006" class="edge">
<title>Node5&#45;&gt;Node6</title>
<g id="a_edge5_Node000005_Node000006"><a xlink:title=" ">
<path fill="none" stroke="#63b8ff" d="M932.35,-99.99C815.93,-100.33 621.56,-105.34 456.5,-131 420.02,-136.67 379.21,-148.06 351.67,-156.51"/>
<polygon fill="#63b8ff" stroke="#63b8ff" points="932.21,-103.49 942.2,-99.98 932.19,-96.49 932.21,-103.49"/>
</a>
</g>
</g>
<!-- Node7 -->
<g id="Node000007" class="node">
<title>Node7</title>
<g id="a_Node000007"><a xlink:href="classediteurpanovisu_1_1EditeurPanovisu.html#a86c393eee88f54c694db994ddd85b90d" target="_top" xlink:title=" ">
<polygon fill="white" stroke="#666666" points="180.25,-183 0,-183 0,-151 180.25,-151 180.25,-183"/>
<text xml:space="preserve" text-anchor="start" x="8" y="-169.5" font-family="Helvetica,sans-Serif" font-size="10.00">editeurpanovisu.EditeurPanovisu.cree</text>
<text xml:space="preserve" text-anchor="middle" x="90.12" y="-157.5" font-family="Helvetica,sans-Serif" font-size="10.00">Environnement</text>
</a>
</g>
</g>
<!-- Node6&#45;&gt;Node7 -->
<g id="edge6_Node000006_Node000007" class="edge">
<title>Node6&#45;&gt;Node7</title>
<g id="a_edge6_Node000006_Node000007"><a xlink:title=" ">
<path fill="none" stroke="#63b8ff" d="M204.51,-167C196.49,-167 188.46,-167 180.6,-167"/>
<polygon fill="#63b8ff" stroke="#63b8ff" points="204.32,-170.5 214.32,-167 204.32,-163.5 204.32,-170.5"/>
</a>
</g>
</g>
<!-- Node8&#45;&gt;Node6 -->
<g id="edge27_Node000008_Node000006" class="edge">
<title>Node8&#45;&gt;Node6</title>
<g id="a_edge27_Node000008_Node000006"><a xlink:title=" ">
<path fill="none" stroke="#63b8ff" d="M1673.57,-205.68C1648.61,-222.52 1612.31,-244.78 1577.5,-258 1203.15,-400.19 1083.18,-388.23 683.25,-368 582.08,-362.88 545.02,-394.25 456.5,-345 384.23,-304.79 337.62,-209.11 323.73,-177.4"/>
<polygon fill="#63b8ff" stroke="#63b8ff" points="1675.37,-208.69 1681.64,-200.15 1671.41,-202.92 1675.37,-208.69"/>
</a>
</g>
</g>
<!-- Node9 -->
<g id="Node000009" class="node">
<title>Node9</title>
<g id="a_Node000009"><a xlink:href="classediteurpanovisu_1_1EditeurPanovisu.html#af0d1c32bb78acbff561c822a0d15f760" target="_top" xlink:title=" ">
<polygon fill="white" stroke="#666666" points="1577.5,-199 1389.75,-199 1389.75,-167 1577.5,-167 1577.5,-199"/>
<text xml:space="preserve" text-anchor="start" x="1397.75" y="-185.5" font-family="Helvetica,sans-Serif" font-size="10.00">editeurpanovisu.EditeurPanovisu.ajoute</text>
<text xml:space="preserve" text-anchor="middle" x="1483.62" y="-173.5" font-family="Helvetica,sans-Serif" font-size="10.00">FichierHisto</text>
</a>
</g>
</g>
<!-- Node8&#45;&gt;Node9 -->
<g id="edge8_Node000008_Node000009" class="edge">
<title>Node8&#45;&gt;Node9</title>
<g id="a_edge8_Node000008_Node000009"><a xlink:title=" ">
<path fill="none" stroke="#63b8ff" d="M1601.97,-176.26C1593.92,-176.23 1585.83,-176.25 1577.86,-176.32"/>
<polygon fill="#63b8ff" stroke="#63b8ff" points="1601.75,-179.76 1611.77,-176.32 1601.79,-172.76 1601.75,-179.76"/>
</a>
</g>
</g>
<!-- Node9&#45;&gt;Node5 -->
<g id="edge9_Node000009_Node000005" class="edge">
<title>Node9&#45;&gt;Node5</title>
<g id="a_edge9_Node000009_Node000005"><a xlink:title=" ">
<path fill="none" stroke="#63b8ff" d="M1387.2,-164.34C1375.93,-162.18 1364.59,-160.03 1353.75,-158 1278.44,-143.9 1192.9,-128.5 1129.85,-117.27"/>
<polygon fill="#63b8ff" stroke="#63b8ff" points="1386.46,-167.77 1396.94,-166.22 1387.78,-160.89 1386.46,-167.77"/>
</a>
</g>
</g>
<!-- Node9&#45;&gt;Node8 -->
<g id="edge10_Node000009_Node000008" class="edge">
<title>Node9&#45;&gt;Node8</title>
<g id="a_edge10_Node000009_Node000008"><a xlink:title=" ">
<path fill="none" stroke="#63b8ff" d="M1589.19,-189.74C1597.24,-189.76 1605.33,-189.74 1613.28,-189.67"/>
<polygon fill="#63b8ff" stroke="#63b8ff" points="1589.4,-186.24 1579.38,-189.69 1589.36,-193.24 1589.4,-186.24"/>
</a>
</g>
</g>
<!-- Node10 -->
<g id="Node000010" class="node">
<title>Node10</title>
<g id="a_Node000010"><a xlink:href="classediteurpanovisu_1_1EditeurPanovisu.html#a9f3ea25b35d4884524508dab3dc4fd6a" target="_top" xlink:title=" ">
<polygon fill="white" stroke="#666666" points="1353.75,-199 1168.25,-199 1168.25,-167 1353.75,-167 1353.75,-199"/>
<text xml:space="preserve" text-anchor="start" x="1176.25" y="-185.5" font-family="Helvetica,sans-Serif" font-size="10.00">editeurpanovisu.EditeurPanovisu.projet</text>
<text xml:space="preserve" text-anchor="middle" x="1261" y="-173.5" font-family="Helvetica,sans-Serif" font-size="10.00">Sauve</text>
</a>
</g>
</g>
<!-- Node9&#45;&gt;Node10 -->
<g id="edge11_Node000009_Node000010" class="edge">
<title>Node9&#45;&gt;Node10</title>
<g id="a_edge11_Node000009_Node000010"><a xlink:title=" ">
<path fill="none" stroke="#63b8ff" d="M1378.13,-183C1370.14,-183 1362.11,-183 1354.21,-183"/>
<polygon fill="#63b8ff" stroke="#63b8ff" points="1377.87,-186.5 1387.87,-183 1377.87,-179.5 1377.87,-186.5"/>
</a>
</g>
</g>
<!-- Node16 -->
<g id="Node000016" class="node">
<title>Node16</title>
<g id="a_Node000016"><a xlink:href="classediteurpanovisu_1_1EditeurPanovisu.html#a7b2e25dc717eb52b62e23d54ec4c124a" target="_top" xlink:title=" ">
<polygon fill="white" stroke="#666666" points="1353.75,-249 1168.25,-249 1168.25,-217 1353.75,-217 1353.75,-249"/>
<text xml:space="preserve" text-anchor="start" x="1176.25" y="-235.5" font-family="Helvetica,sans-Serif" font-size="10.00">editeurpanovisu.EditeurPanovisu.projet</text>
<text xml:space="preserve" text-anchor="middle" x="1261" y="-223.5" font-family="Helvetica,sans-Serif" font-size="10.00">SauveSous</text>
</a>
</g>
</g>
<!-- Node9&#45;&gt;Node16 -->
<g id="edge25_Node000009_Node000016" class="edge">
<title>Node9&#45;&gt;Node16</title>
<g id="a_edge25_Node000009_Node000016"><a xlink:title=" ">
<path fill="none" stroke="#63b8ff" d="M1399.12,-201.92C1377.88,-206.74 1355.23,-211.87 1334.59,-216.55"/>
<polygon fill="#63b8ff" stroke="#63b8ff" points="1399.62,-205.4 1408.6,-199.78 1398.08,-198.57 1399.62,-205.4"/>
</a>
</g>
</g>
<!-- Node10&#45;&gt;Node5 -->
<g id="edge15_Node000010_Node000005" class="edge">
<title>Node10&#45;&gt;Node5</title>
<g id="a_edge15_Node000010_Node000005"><a xlink:title=" ">
<path fill="none" stroke="#63b8ff" d="M1192.19,-162.82C1184.02,-159.8 1175.87,-156.51 1168.25,-153 1151.22,-145.14 1149.31,-138.79 1132.25,-131 1121.15,-125.93 1108.94,-121.37 1097.1,-117.42"/>
<polygon fill="#63b8ff" stroke="#63b8ff" points="1190.9,-166.07 1201.49,-166.11 1193.24,-159.47 1190.9,-166.07"/>
</a>
</g>
</g>
<!-- Node10&#45;&gt;Node6 -->
<g id="edge12_Node000010_Node000006" class="edge">
<title>Node10&#45;&gt;Node6</title>
<g id="a_edge12_Node000010_Node000006"><a xlink:title=" ">
<path fill="none" stroke="#63b8ff" d="M1156.75,-176C1086.06,-171.57 990.15,-166.27 905.5,-164 735.5,-159.45 537.66,-162.12 420.78,-164.52"/>
<polygon fill="#63b8ff" stroke="#63b8ff" points="1156.16,-179.47 1166.36,-176.61 1156.6,-172.49 1156.16,-179.47"/>
</a>
</g>
</g>
<!-- Node10&#45;&gt;Node8 -->
<g id="edge16_Node000010_Node000008" class="edge">
<title>Node10&#45;&gt;Node8</title>
<g id="a_edge16_Node000010_Node000008"><a xlink:title=" ">
<path fill="none" stroke="#63b8ff" d="M1344.57,-164.43C1359.53,-161.75 1375.05,-159.42 1389.75,-158 1472.81,-149.95 1494.44,-149.95 1577.5,-158 1595.95,-159.79 1615.68,-163 1633.99,-166.53"/>
<polygon fill="#63b8ff" stroke="#63b8ff" points="1343.94,-160.98 1334.75,-166.25 1345.22,-167.86 1343.94,-160.98"/>
</a>
</g>
</g>
<!-- Node10&#45;&gt;Node11 -->
<g id="edge13_Node000010_Node000011" class="edge">
<title>Node10&#45;&gt;Node11</title>
<g id="a_edge13_Node000010_Node000011"><a xlink:title=" ">
<path fill="none" stroke="#63b8ff" d="M1174.02,-204.53C1172.05,-205.63 1170.12,-206.79 1168.25,-208 1147.05,-221.75 1155.08,-241.18 1132.25,-252 950.65,-338.06 700.24,-271.16 598.54,-237.44"/>
<polygon fill="#63b8ff" stroke="#63b8ff" points="1175.46,-207.73 1182.87,-200.16 1172.36,-201.45 1175.46,-207.73"/>
</a>
</g>
</g>
<!-- Node12 -->
<g id="Node000012" class="node">
<title>Node12</title>
<g id="a_Node000012"><a xlink:href="classediteurpanovisu_1_1EditeurPanovisu.html#a9b46b222714af12c06ec33d410400773" target="_top" xlink:title=" ">
<polygon fill="white" stroke="#666666" points="647.25,-303 456.5,-303 456.5,-271 647.25,-271 647.25,-303"/>
<text xml:space="preserve" text-anchor="start" x="464.5" y="-289.5" font-family="Helvetica,sans-Serif" font-size="10.00">editeurpanovisu.EditeurPanovisu.projets</text>
<text xml:space="preserve" text-anchor="middle" x="551.88" y="-277.5" font-family="Helvetica,sans-Serif" font-size="10.00">Fermer</text>
</a>
</g>
</g>
<!-- Node10&#45;&gt;Node12 -->
<g id="edge17_Node000010_Node000012" class="edge">
<title>Node10&#45;&gt;Node12</title>
<g id="a_edge17_Node000010_Node000012"><a xlink:title=" ">
<path fill="none" stroke="#63b8ff" d="M1171.63,-205.31C1170.48,-206.17 1169.35,-207.07 1168.25,-208 1138.85,-232.99 1164.42,-265.7 1132.25,-287 1055.35,-337.91 791.34,-315.89 647.74,-299.29"/>
<polygon fill="#63b8ff" stroke="#63b8ff" points="1173.19,-208.46 1179.72,-200.12 1169.41,-202.57 1173.19,-208.46"/>
</a>
</g>
</g>
<!-- Node13 -->
<g id="Node000013" class="node">
<title>Node13</title>
<g id="a_Node000013"><a xlink:href="classediteurpanovisu_1_1EditeurPanovisu.html#ac9d449399ccd38843fa12e716f0c9611" target="_top" xlink:title=" ">
<polygon fill="white" stroke="#666666" points="1132.25,-67 941.5,-67 941.5,-35 1132.25,-35 1132.25,-67"/>
<text xml:space="preserve" text-anchor="start" x="949.5" y="-53.5" font-family="Helvetica,sans-Serif" font-size="10.00">editeurpanovisu.EditeurPanovisu.projets</text>
<text xml:space="preserve" text-anchor="middle" x="1036.88" y="-41.5" font-family="Helvetica,sans-Serif" font-size="10.00">Nouveau</text>
</a>
</g>
</g>
<!-- Node10&#45;&gt;Node13 -->
<g id="edge19_Node000010_Node000013" class="edge">
<title>Node10&#45;&gt;Node13</title>
<g id="a_edge19_Node000010_Node000013"><a xlink:title=" ">
<path fill="none" stroke="#63b8ff" d="M1237.37,-158.59C1213.48,-134.23 1173.61,-97.43 1132.25,-76 1125.93,-72.72 1119.14,-69.85 1112.21,-67.34"/>
<polygon fill="#63b8ff" stroke="#63b8ff" points="1234.62,-160.78 1244.08,-165.55 1239.66,-155.92 1234.62,-160.78"/>
</a>
</g>
</g>
<!-- Node14 -->
<g id="Node000014" class="node">
<title>Node14</title>
<g id="a_Node000014"><a xlink:href="classediteurpanovisu_1_1EditeurPanovisu.html#a2b3125ffe2e6291efacf19df6cb30a8d" target="_top" xlink:title=" ">
<polygon fill="white" stroke="#666666" points="884.88,-193 703.88,-193 703.88,-173 884.88,-173 884.88,-193"/>
<text xml:space="preserve" text-anchor="middle" x="794.38" y="-179.5" font-family="Helvetica,sans-Serif" font-size="10.00">editeurpanovisu.EditeurPanovisu.start</text>
</a>
</g>
</g>
<!-- Node10&#45;&gt;Node14 -->
<g id="edge24_Node000010_Node000014" class="edge">
<title>Node10&#45;&gt;Node14</title>
<g id="a_edge24_Node000010_Node000014"><a xlink:title=" ">
<path fill="none" stroke="#63b8ff" d="M1156.66,-183C1075.28,-183 962.99,-183 885.29,-183"/>
<polygon fill="#63b8ff" stroke="#63b8ff" points="1156.41,-186.5 1166.41,-183 1156.41,-179.5 1156.41,-186.5"/>
</a>
</g>
</g>
<!-- Node15 -->
<g id="Node000015" class="node">
<title>Node15</title>
<g id="a_Node000015"><a xlink:href="classediteurpanovisu_1_1EditeurPanovisu.html#aef8c9b28c3e88d6e27e3f62b9a901134" target="_top" xlink:title=" ">
<polygon fill="white" stroke="#666666" points="1130.75,-243 943,-243 943,-211 1130.75,-211 1130.75,-243"/>
<text xml:space="preserve" text-anchor="start" x="951" y="-229.5" font-family="Helvetica,sans-Serif" font-size="10.00">editeurpanovisu.EditeurPanovisu.sauve</text>
<text xml:space="preserve" text-anchor="middle" x="1036.88" y="-217.5" font-family="Helvetica,sans-Serif" font-size="10.00">Fichiers</text>
</a>
</g>
</g>
<!-- Node10&#45;&gt;Node15 -->
<g id="edge23_Node000010_Node000015" class="edge">
<title>Node10&#45;&gt;Node15</title>
<g id="a_edge23_Node000010_Node000015"><a xlink:title=" ">
<path fill="none" stroke="#63b8ff" d="M1165.74,-201.67C1150.93,-204.6 1135.71,-207.62 1121.17,-210.5"/>
<polygon fill="#63b8ff" stroke="#63b8ff" points="1166.36,-205.12 1175.49,-199.74 1165,-198.25 1166.36,-205.12"/>
</a>
</g>
</g>
<!-- Node11&#45;&gt;Node6 -->
<g id="edge14_Node000011_Node000006" class="edge">
<title>Node11&#45;&gt;Node6</title>
<g id="a_edge14_Node000011_Node000006"><a xlink:title=" ">
<path fill="none" stroke="#63b8ff" d="M469.36,-201.98C434,-193.74 393.97,-184.4 364.16,-177.45"/>
<polygon fill="#63b8ff" stroke="#63b8ff" points="468.15,-205.3 478.69,-204.16 469.74,-198.48 468.15,-205.3"/>
</a>
</g>
</g>
<!-- Node12&#45;&gt;Node6 -->
<g id="edge18_Node000012_Node000006" class="edge">
<title>Node12&#45;&gt;Node6</title>
<g id="a_edge18_Node000012_Node000006"><a xlink:title=" ">
<path fill="none" stroke="#63b8ff" d="M500.29,-266.27C485.98,-260.07 470.5,-253.04 456.5,-246 411.83,-223.52 361.37,-193.08 335.93,-177.35"/>
<polygon fill="#63b8ff" stroke="#63b8ff" points="498.5,-269.31 509.07,-270.03 501.26,-262.88 498.5,-269.31"/>
</a>
</g>
</g>
<!-- Node13&#45;&gt;Node6 -->
<g id="edge20_Node000013_Node000006" class="edge">
<title>Node13&#45;&gt;Node6</title>
<g id="a_edge20_Node000013_Node000006"><a xlink:title=" ">
<path fill="none" stroke="#63b8ff" d="M929.74,-51.28C812.21,-53.89 618,-65 456.5,-107 411.99,-118.58 363.47,-142.83 337.77,-156.69"/>
<polygon fill="#63b8ff" stroke="#63b8ff" points="929.78,-54.78 939.71,-51.08 929.64,-47.79 929.78,-54.78"/>
</a>
</g>
</g>
<!-- Node13&#45;&gt;Node14 -->
<g id="edge21_Node000013_Node000014" class="edge">
<title>Node13&#45;&gt;Node14</title>
<g id="a_edge21_Node000013_Node000014"><a xlink:title=" ">
<path fill="none" stroke="#63b8ff" d="M952.24,-71.32C948.57,-72.78 944.97,-74.34 941.5,-76 885.6,-102.69 829.2,-151.67 806.18,-172.82"/>
<polygon fill="#63b8ff" stroke="#63b8ff" points="953.17,-74.7 961.33,-67.95 950.74,-68.14 953.17,-74.7"/>
</a>
</g>
</g>
<!-- Node14&#45;&gt;Node11 -->
<g id="edge22_Node000014_Node000011" class="edge">
<title>Node14&#45;&gt;Node11</title>
<g id="a_edge22_Node000014_Node000011"><a xlink:title=" ">
<path fill="none" stroke="#63b8ff" d="M715.83,-195.25C694.02,-198.7 670.05,-202.49 647.37,-206.07"/>
<polygon fill="#63b8ff" stroke="#63b8ff" points="716.19,-198.74 725.53,-193.72 715.1,-191.82 716.19,-198.74"/>
</a>
</g>
</g>
<!-- Node16&#45;&gt;Node6 -->
<g id="edge26_Node000016_Node000006" class="edge">
<title>Node16&#45;&gt;Node6</title>
<g id="a_edge26_Node000016_Node000006"><a xlink:title=" ">
<path fill="none" stroke="#63b8ff" d="M1233.58,-256.7C1209.22,-276.93 1171.05,-304.64 1132.25,-317 989.17,-362.59 592.67,-375.32 456.5,-312 391.15,-281.61 341.47,-204.88 325.14,-177.18"/>
<polygon fill="#63b8ff" stroke="#63b8ff" points="1235.71,-259.49 1241.07,-250.35 1231.18,-254.16 1235.71,-259.49"/>
</a>
</g>
</g>
<!-- Node17&#45;&gt;Node18 -->
<g id="edge29_Node000017_Node000018" class="edge">
<title>Node17&#45;&gt;Node18</title>
<g id="a_edge29_Node000017_Node000018"><a xlink:title=" ">
<path fill="none" stroke="#63b8ff" d="M2044.43,-19C2030.08,-19 2015.24,-19 2001.07,-19"/>
<polygon fill="#63b8ff" stroke="#63b8ff" points="2044.3,-22.5 2054.3,-19 2044.3,-15.5 2044.3,-22.5"/>
</a>
</g>
</g>
<!-- Node19&#45;&gt;Node4 -->
<g id="edge32_Node000019_Node000004" class="edge">
<title>Node19&#45;&gt;Node4</title>
<g id="a_edge32_Node000019_Node000004"><a xlink:title=" ">
<path fill="none" stroke="#63b8ff" d="M2047.02,-116.95C2035,-118.42 2022.57,-119.93 2010.45,-121.41"/>
<polygon fill="#63b8ff" stroke="#63b8ff" points="2047.4,-120.44 2056.9,-115.75 2046.55,-113.49 2047.4,-120.44"/>
</a>
</g>
</g>
<!-- Node20 -->
<g id="Node000020" class="node">
<title>Node20</title>
<g id="a_Node000020"><a xlink:href="classediteurpanovisu_1_1EditeurPanovisu.html#a53cccf6a6b2693c872947460b66ae8ee" target="_top" xlink:title=" ">
<polygon fill="white" stroke="#666666" points="1348.5,-67 1173.5,-67 1173.5,-35 1348.5,-35 1348.5,-67"/>
<text xml:space="preserve" text-anchor="start" x="1181.5" y="-53.5" font-family="Helvetica,sans-Serif" font-size="10.00">editeurpanovisu.EditeurPanovisu.tsk</text>
<text xml:space="preserve" text-anchor="middle" x="1261" y="-41.5" font-family="Helvetica,sans-Serif" font-size="10.00">ChargeListeFichiers</text>
</a>
</g>
</g>
<!-- Node19&#45;&gt;Node20 -->
<g id="edge33_Node000019_Node000020" class="edge">
<title>Node19&#45;&gt;Node20</title>
<g id="a_edge33_Node000019_Node000020"><a xlink:title=" ">
<path fill="none" stroke="#63b8ff" d="M2047.13,-101.73C1883.45,-91.15 1516.48,-67.44 1348.69,-56.6"/>
<polygon fill="#63b8ff" stroke="#63b8ff" points="2046.84,-105.22 2057.04,-102.37 2047.29,-98.23 2046.84,-105.22"/>
</a>
</g>
</g>
<!-- Node20&#45;&gt;Node13 -->
<g id="edge36_Node000020_Node000013" class="edge">
<title>Node20&#45;&gt;Node13</title>
<g id="a_edge36_Node000020_Node000013"><a xlink:title=" ">
<path fill="none" stroke="#63b8ff" d="M1161.88,-51C1152.2,-51 1142.38,-51 1132.73,-51"/>
<polygon fill="#63b8ff" stroke="#63b8ff" points="1161.65,-54.5 1171.65,-51 1161.65,-47.5 1161.65,-54.5"/>
</a>
</g>
</g>
<!-- Node21 -->
<g id="Node000021" class="node">
<title>Node21</title>
<g id="a_Node000021"><a xlink:href="classediteurpanovisu_1_1EditeurPanovisu.html#a924d3ccff3e4f402d2309cd2eade3237" target="_top" xlink:title=" ">
<polygon fill="white" stroke="#666666" points="905.5,-32 683.25,-32 683.25,0 905.5,0 905.5,-32"/>
<text xml:space="preserve" text-anchor="start" x="691.25" y="-18.5" font-family="Helvetica,sans-Serif" font-size="10.00">editeurpanovisu.EditeurPanovisu.panoramiques</text>
<text xml:space="preserve" text-anchor="middle" x="794.38" y="-6.5" font-family="Helvetica,sans-Serif" font-size="10.00">Ajouter</text>
</a>
</g>
</g>
<!-- Node20&#45;&gt;Node21 -->
<g id="edge34_Node000020_Node000021" class="edge">
<title>Node20&#45;&gt;Node21</title>
<g id="a_edge34_Node000020_Node000021"><a xlink:title=" ">
<path fill="none" stroke="#63b8ff" d="M1175.75,-32.49C1161.3,-29.9 1146.39,-27.58 1132.25,-26 1056.95,-17.57 971.63,-15.11 905.69,-14.74"/>
<polygon fill="#63b8ff" stroke="#63b8ff" points="1174.73,-35.86 1185.2,-34.24 1176,-28.98 1174.73,-35.86"/>
</a>
</g>
</g>
<!-- Node21&#45;&gt;Node6 -->
<g id="edge35_Node000021_Node000006" class="edge">
<title>Node21&#45;&gt;Node6</title>
<g id="a_edge35_Node000021_Node000006"><a xlink:title=" ">
<path fill="none" stroke="#63b8ff" d="M671.76,-10.94C605.69,-12.4 523.96,-21.2 456.5,-50 398.65,-74.7 347.11,-132.74 327.63,-156.54"/>
<polygon fill="#63b8ff" stroke="#63b8ff" points="671.6,-14.45 681.55,-10.79 671.49,-7.45 671.6,-14.45"/>
</a>
</g>
</g>
<!-- Node23 -->
<g id="Node000023" class="node">
<title>Node23</title>
<g id="a_Node000023"><a xlink:href="classediteurpanovisu_1_1EditeurPanovisu.html#aaee69ab54364f89b58458c744a4195c0" target="_top" xlink:title=" ">
<polygon fill="white" stroke="#666666" points="1577.5,-249 1389.75,-249 1389.75,-217 1577.5,-217 1577.5,-249"/>
<text xml:space="preserve" text-anchor="start" x="1397.75" y="-235.5" font-family="Helvetica,sans-Serif" font-size="10.00">editeurpanovisu.EditeurPanovisu.sauve</text>
<text xml:space="preserve" text-anchor="middle" x="1483.62" y="-223.5" font-family="Helvetica,sans-Serif" font-size="10.00">FichierProjet</text>
</a>
</g>
</g>
<!-- Node22&#45;&gt;Node23 -->
<g id="edge40_Node000022_Node000023" class="edge">
<title>Node22&#45;&gt;Node23</title>
<g id="a_edge40_Node000022_Node000023"><a xlink:title=" ">
<path fill="none" stroke="#63b8ff" d="M2237.7,-225C2074.54,-226.73 1740.4,-230.28 1577.73,-232.01"/>
<polygon fill="#63b8ff" stroke="#63b8ff" points="2237.67,-228.5 2247.63,-224.89 2237.59,-221.5 2237.67,-228.5"/>
</a>
</g>
</g>
<!-- Node23&#45;&gt;Node10 -->
<g id="edge41_Node000023_Node000010" class="edge">
<title>Node23&#45;&gt;Node10</title>
<g id="a_edge41_Node000023_Node000010"><a xlink:title=" ">
<path fill="none" stroke="#63b8ff" d="M1399.12,-214.08C1377.88,-209.26 1355.23,-204.13 1334.59,-199.45"/>
<polygon fill="#63b8ff" stroke="#63b8ff" points="1398.08,-217.43 1408.6,-216.22 1399.62,-210.6 1398.08,-217.43"/>
</a>
</g>
</g>
<!-- Node23&#45;&gt;Node16 -->
<g id="edge42_Node000023_Node000016" class="edge">
<title>Node23&#45;&gt;Node16</title>
<g id="a_edge42_Node000023_Node000016"><a xlink:title=" ">
<path fill="none" stroke="#63b8ff" d="M1378.13,-233C1370.14,-233 1362.11,-233 1354.21,-233"/>
<polygon fill="#63b8ff" stroke="#63b8ff" points="1377.87,-236.5 1387.87,-233 1377.87,-229.5 1377.87,-236.5"/>
</a>
</g>
</g>
</g>
</svg>
