<?xml version="1.0" encoding="UTF-8" standalone="no"?>
<!DOCTYPE svg PUBLIC "-//W3C//DTD SVG 1.1//EN"
 "http://www.w3.org/Graphics/SVG/1.1/DTD/svg11.dtd">
<!-- Generated by graphviz version 13.1.2 (20250808.2320)
 -->
<!-- Title: editeurpanovisu.EditeurPanovisu.getStrDernierRepertoireVisite Pages: 1 -->
<svg width="1307pt" height="103pt"
 viewBox="0.00 0.00 1307.00 103.00" xmlns="http://www.w3.org/2000/svg" xmlns:xlink="http://www.w3.org/1999/xlink">
<g id="graph0" class="graph" transform="scale(1 1) rotate(0) translate(4 99)">
<title>editeurpanovisu.EditeurPanovisu.getStrDernierRepertoireVisite</title>
<!-- Node1 -->
<g id="Node000001" class="node">
<title>Node1</title>
<g id="a_Node000001"><a xlink:title=" ">
<polygon fill="#999999" stroke="#666666" points="1299,-95 1124,-95 1124,-63 1299,-63 1299,-95"/>
<text xml:space="preserve" text-anchor="start" x="1132" y="-81.5" font-family="Helvetica,sans-Serif" font-size="10.00">editeurpanovisu.EditeurPanovisu.get</text>
<text xml:space="preserve" text-anchor="middle" x="1211.5" y="-69.5" font-family="Helvetica,sans-Serif" font-size="10.00">StrDernierRepertoireVisite</text>
</a>
</g>
</g>
<!-- Node2 -->
<g id="Node000002" class="node">
<title>Node2</title>
<g id="a_Node000002"><a xlink:href="classediteurpanovisu_1_1EditeurPanovisu.html#a94e36b9e9d09ab1a4c852b8a8cefa927" target="_top" xlink:title=" ">
<polygon fill="white" stroke="#666666" points="647.25,-88 456.5,-88 456.5,-56 647.25,-56 647.25,-88"/>
<text xml:space="preserve" text-anchor="start" x="464.5" y="-74.5" font-family="Helvetica,sans-Serif" font-size="10.00">editeurpanovisu.EditeurPanovisu.genere</text>
<text xml:space="preserve" text-anchor="middle" x="551.88" y="-62.5" font-family="Helvetica,sans-Serif" font-size="10.00">Visite</text>
</a>
</g>
</g>
<!-- Node1&#45;&gt;Node2 -->
<g id="edge1_Node000001_Node000002" class="edge">
<title>Node1&#45;&gt;Node2</title>
<g id="a_edge1_Node000001_Node000002"><a xlink:title=" ">
<path fill="none" stroke="#63b8ff" d="M1112.02,-81.62C1103.89,-81.77 1095.81,-81.9 1088,-82 908.12,-84.2 863.05,-83.79 683.25,-78 671.7,-77.63 659.58,-77.17 647.57,-76.66"/>
<polygon fill="#63b8ff" stroke="#63b8ff" points="1112.07,-85.12 1122,-81.42 1111.93,-78.12 1112.07,-85.12"/>
</a>
</g>
</g>
<!-- Node5 -->
<g id="Node000005" class="node">
<title>Node5</title>
<g id="a_Node000005"><a xlink:href="classediteurpanovisu_1_1EditeurPanovisu.html#aab293202a1140d1151a35062614f436e" target="_top" xlink:title=" ">
<polygon fill="white" stroke="#666666" points="1088,-73 900.25,-73 900.25,-41 1088,-41 1088,-73"/>
<text xml:space="preserve" text-anchor="start" x="908.25" y="-59.5" font-family="Helvetica,sans-Serif" font-size="10.00">editeurpanovisu.EditeurPanovisu.sauve</text>
<text xml:space="preserve" text-anchor="middle" x="994.12" y="-47.5" font-family="Helvetica,sans-Serif" font-size="10.00">Preferences</text>
</a>
</g>
</g>
<!-- Node1&#45;&gt;Node5 -->
<g id="edge4_Node000001_Node000005" class="edge">
<title>Node1&#45;&gt;Node5</title>
<g id="a_edge4_Node000001_Node000005"><a xlink:title=" ">
<path fill="none" stroke="#63b8ff" d="M1112.33,-68.97C1104.37,-68.16 1096.34,-67.34 1088.41,-66.53"/>
<polygon fill="#63b8ff" stroke="#63b8ff" points="1111.71,-72.43 1122.01,-69.96 1112.42,-65.46 1111.71,-72.43"/>
</a>
</g>
</g>
<!-- Node3 -->
<g id="Node000003" class="node">
<title>Node3</title>
<g id="a_Node000003"><a xlink:href="classediteurpanovisu_1_1EditeurPanovisu.html#ac912b80c1f2ac97def60ff005c5c480b" target="_top" xlink:title=" ">
<polygon fill="white" stroke="#666666" points="420.5,-51 216.25,-51 216.25,-31 420.5,-31 420.5,-51"/>
<text xml:space="preserve" text-anchor="middle" x="318.38" y="-37.5" font-family="Helvetica,sans-Serif" font-size="10.00">editeurpanovisu.EditeurPanovisu.creeMenu</text>
</a>
</g>
</g>
<!-- Node2&#45;&gt;Node3 -->
<g id="edge2_Node000002_Node000003" class="edge">
<title>Node2&#45;&gt;Node3</title>
<g id="a_edge2_Node000002_Node000003"><a xlink:title=" ">
<path fill="none" stroke="#63b8ff" d="M445.02,-57.82C429.01,-55.68 412.74,-53.5 397.46,-51.46"/>
<polygon fill="#63b8ff" stroke="#63b8ff" points="444.17,-61.24 454.55,-59.1 445.1,-54.3 444.17,-61.24"/>
</a>
</g>
</g>
<!-- Node4 -->
<g id="Node000004" class="node">
<title>Node4</title>
<g id="a_Node000004"><a xlink:href="classediteurpanovisu_1_1EditeurPanovisu.html#a86c393eee88f54c694db994ddd85b90d" target="_top" xlink:title=" ">
<polygon fill="white" stroke="#666666" points="180.25,-57 0,-57 0,-25 180.25,-25 180.25,-57"/>
<text xml:space="preserve" text-anchor="start" x="8" y="-43.5" font-family="Helvetica,sans-Serif" font-size="10.00">editeurpanovisu.EditeurPanovisu.cree</text>
<text xml:space="preserve" text-anchor="middle" x="90.12" y="-31.5" font-family="Helvetica,sans-Serif" font-size="10.00">Environnement</text>
</a>
</g>
</g>
<!-- Node3&#45;&gt;Node4 -->
<g id="edge3_Node000003_Node000004" class="edge">
<title>Node3&#45;&gt;Node4</title>
<g id="a_edge3_Node000003_Node000004"><a xlink:title=" ">
<path fill="none" stroke="#63b8ff" d="M204.51,-41C196.49,-41 188.46,-41 180.6,-41"/>
<polygon fill="#63b8ff" stroke="#63b8ff" points="204.32,-44.5 214.32,-41 204.32,-37.5 204.32,-44.5"/>
</a>
</g>
</g>
<!-- Node5&#45;&gt;Node2 -->
<g id="edge5_Node000005_Node000002" class="edge">
<title>Node5&#45;&gt;Node2</title>
<g id="a_edge5_Node000005_Node000002"><a xlink:title=" ">
<path fill="none" stroke="#63b8ff" d="M888.69,-60.56C815.53,-63.05 718.55,-66.36 647.62,-68.77"/>
<polygon fill="#63b8ff" stroke="#63b8ff" points="888.37,-64.07 898.25,-60.23 888.13,-57.08 888.37,-64.07"/>
</a>
</g>
</g>
<!-- Node6 -->
<g id="Node000006" class="node">
<title>Node6</title>
<g id="a_Node000006"><a xlink:href="classediteurpanovisu_1_1EditeurPanovisu.html#a9b46b222714af12c06ec33d410400773" target="_top" xlink:title=" ">
<polygon fill="white" stroke="#666666" points="647.25,-32 456.5,-32 456.5,0 647.25,0 647.25,-32"/>
<text xml:space="preserve" text-anchor="start" x="464.5" y="-18.5" font-family="Helvetica,sans-Serif" font-size="10.00">editeurpanovisu.EditeurPanovisu.projets</text>
<text xml:space="preserve" text-anchor="middle" x="551.88" y="-6.5" font-family="Helvetica,sans-Serif" font-size="10.00">Fermer</text>
</a>
</g>
</g>
<!-- Node5&#45;&gt;Node6 -->
<g id="edge6_Node000005_Node000006" class="edge">
<title>Node5&#45;&gt;Node6</title>
<g id="a_edge6_Node000005_Node000006"><a xlink:title=" ">
<path fill="none" stroke="#63b8ff" d="M932.93,-37.36C911.49,-31.25 887.02,-25.26 864.25,-22 792.13,-11.67 709.66,-10.55 647.72,-11.81"/>
<polygon fill="#63b8ff" stroke="#63b8ff" points="931.81,-40.68 942.39,-40.13 933.78,-33.96 931.81,-40.68"/>
</a>
</g>
</g>
<!-- Node7 -->
<g id="Node000007" class="node">
<title>Node7</title>
<g id="a_Node000007"><a xlink:href="classediteurpanovisu_1_1EditeurPanovisu.html#a2b3125ffe2e6291efacf19df6cb30a8d" target="_top" xlink:title=" ">
<polygon fill="white" stroke="#666666" points="864.25,-51 683.25,-51 683.25,-31 864.25,-31 864.25,-51"/>
<text xml:space="preserve" text-anchor="middle" x="773.75" y="-37.5" font-family="Helvetica,sans-Serif" font-size="10.00">editeurpanovisu.EditeurPanovisu.start</text>
</a>
</g>
</g>
<!-- Node5&#45;&gt;Node7 -->
<g id="edge8_Node000005_Node000007" class="edge">
<title>Node5&#45;&gt;Node7</title>
<g id="a_edge8_Node000005_Node000007"><a xlink:title=" ">
<path fill="none" stroke="#63b8ff" d="M888.57,-49.34C880.54,-48.75 872.48,-48.16 864.56,-47.58"/>
<polygon fill="#63b8ff" stroke="#63b8ff" points="888.14,-52.82 898.37,-50.06 888.65,-45.84 888.14,-52.82"/>
</a>
</g>
</g>
<!-- Node6&#45;&gt;Node3 -->
<g id="edge7_Node000006_Node000003" class="edge">
<title>Node6&#45;&gt;Node3</title>
<g id="a_edge7_Node000006_Node000003"><a xlink:title=" ">
<path fill="none" stroke="#63b8ff" d="M444.6,-27.48C435.17,-28.5 425.65,-29.52 416.31,-30.53"/>
<polygon fill="#63b8ff" stroke="#63b8ff" points="444.98,-30.96 454.54,-26.4 444.22,-24 444.98,-30.96"/>
</a>
</g>
</g>
<!-- Node7&#45;&gt;Node2 -->
<g id="edge9_Node000007_Node000002" class="edge">
<title>Node7&#45;&gt;Node2</title>
<g id="a_edge9_Node000007_Node000002"><a xlink:title=" ">
<path fill="none" stroke="#63b8ff" d="M687.06,-53.08C674.09,-54.91 660.65,-56.8 647.51,-58.66"/>
<polygon fill="#63b8ff" stroke="#63b8ff" points="687.4,-56.57 696.81,-51.71 686.42,-49.64 687.4,-56.57"/>
</a>
</g>
</g>
</g>
</svg>
