<?xml version="1.0" encoding="UTF-8" standalone="no"?>
<!DOCTYPE svg PUBLIC "-//W3C//DTD SVG 1.1//EN"
 "http://www.w3.org/Graphics/SVG/1.1/DTD/svg11.dtd">
<!-- Generated by graphviz version 13.1.2 (20250808.2320)
 -->
<!-- Title: editeurpanovisu.GestionnaireInterfaceController.getStrVisibiliteBarrePersonnalisee Pages: 1 -->
<!--zoomable 468 -->

<svg id="main" version="1.1" xmlns="http://www.w3.org/2000/svg" xmlns:xlink="http://www.w3.org/1999/xlink" xml:space="preserve" onload="init(evt)">

<style type="text/css"><![CDATA[
.node, .edge {opacity: 0.7;}
.node.selected, .edge.selected {opacity: 1;}
.edge:hover path { stroke: red; }
.edge:hover polygon { stroke: red; fill: red; }
]]></style>

<defs>
  <circle id="rim" cx="0" cy="0" r="7"/>
  <circle id="rim2" cx="0" cy="0" r="3.5"/>
  <g id="zoomPlus">
    <use xlink:href="#rim" fill="#404040"><set attributeName="fill" to="#808080" begin="zoomplus.mouseover" end="zoomplus.mouseout"/></use>
    <path d="M-4,0h8M0,-4v8" fill="none" stroke="white" stroke-width="1.5" pointer-events="none"/>
  </g>
  <g id="zoomMin">
    <use xlink:href="#rim" fill="#404040"><set attributeName="fill" to="#808080" begin="zoomminus.mouseover" end="zoomminus.mouseout"/></use>
    <path d="M-4,0h8" fill="none" stroke="white" stroke-width="1.5" pointer-events="none"/>
  </g>
  <g id="arrowUp" transform="translate(30 24)">
    <use xlink:href="#rim"/>
    <path pointer-events="none" fill="none" stroke="white" stroke-width="1.5" d="M0,-3.0v7 M-2.5,-0.5L0,-3.0L2.5,-0.5"/>
  </g>
  <g id="arrowRight" transform="rotate(90) translate(36 -43)">
    <use xlink:href="#rim"/>
    <path pointer-events="none" fill="none" stroke="white" stroke-width="1.5" d="M0,-3.0v7 M-2.5,-0.5L0,-3.0L2.5,-0.5"/>
  </g>
  <g id="arrowDown" transform="rotate(180) translate(-30 -48)">
    <use xlink:href="#rim"/>
    <path pointer-events="none" fill="none" stroke="white" stroke-width="1.5" d="M0,-3.0v7 M-2.5,-0.5L0,-3.0L2.5,-0.5"/>
  </g>
  <g id="arrowLeft" transform="rotate(270) translate(-36 17)">
    <use xlink:href="#rim"/>
    <path pointer-events="none" fill="none" stroke="white" stroke-width="1.5" d="M0,-3.0v7 M-2.5,-0.5L0,-3.0L2.5,-0.5"/>
  </g>
  <g id="resetDef">
    <use xlink:href="#rim2" fill="#404040"><set attributeName="fill" to="#808080" begin="reset.mouseover" end="reset.mouseout"/></use>
  </g>
</defs>
<script type="application/ecmascript">
var viewWidth = 2865;
var viewHeight = 468;
var sectionId = 'dynsection-203';
</script>
<script type="application/ecmascript" xlink:href="svg.min.js"/>
<svg id="graph" class="graph">
<g id="viewport">
<title>editeurpanovisu.GestionnaireInterfaceController.getStrVisibiliteBarrePersonnalisee</title>
<!-- Node1 -->
<g id="Node000001" class="node">
<title>Node1</title>
<g id="a_Node000001"><a xlink:title=" ">
<polygon fill="#999999" stroke="#666666" points="2857,-252.66 2694.75,-252.66 2694.75,-208.66 2857,-208.66 2857,-252.66"/>
<text xml:space="preserve" text-anchor="start" x="2702.75" y="-239.16" font-family="Helvetica,sans-Serif" font-size="10.00">editeurpanovisu.Gestionnaire</text>
<text xml:space="preserve" text-anchor="start" x="2702.75" y="-227.16" font-family="Helvetica,sans-Serif" font-size="10.00">InterfaceController.getStrVisibilite</text>
<text xml:space="preserve" text-anchor="middle" x="2775.88" y="-215.16" font-family="Helvetica,sans-Serif" font-size="10.00">BarrePersonnalisee</text>
</a>
</g>
</g>
<!-- Node2 -->
<g id="Node000002" class="node">
<title>Node2</title>
<g id="a_Node000002"><a xlink:href="classediteurpanovisu_1_1GestionnaireInterfaceController.html#a3f85cb5c53dc115280ee2e1290a532f3" target="_top" xlink:title=" ">
<polygon fill="white" stroke="#666666" points="2651.25,-358.66 2500.25,-358.66 2500.25,-314.66 2651.25,-314.66 2651.25,-358.66"/>
<text xml:space="preserve" text-anchor="start" x="2508.25" y="-345.16" font-family="Helvetica,sans-Serif" font-size="10.00">editeurpanovisu.Gestionnaire</text>
<text xml:space="preserve" text-anchor="start" x="2508.25" y="-333.16" font-family="Helvetica,sans-Serif" font-size="10.00">InterfaceController.afficheBarre</text>
<text xml:space="preserve" text-anchor="middle" x="2575.75" y="-321.16" font-family="Helvetica,sans-Serif" font-size="10.00">Personnalisee</text>
</a>
</g>
</g>
<!-- Node1&#45;&gt;Node2 -->
<g id="edge1_Node000001_Node000002" class="edge">
<title>Node1&#45;&gt;Node2</title>
<g id="a_edge1_Node000001_Node000002"><a xlink:title=" ">
<path fill="none" stroke="#63b8ff" d="M2723.07,-258.37C2690.55,-275.77 2649.16,-297.92 2618.71,-314.21"/>
<polygon fill="#63b8ff" stroke="#63b8ff" points="2724.36,-261.66 2731.52,-253.85 2721.05,-255.48 2724.36,-261.66"/>
</a>
</g>
</g>
<!-- Node4 -->
<g id="Node000004" class="node">
<title>Node4</title>
<g id="a_Node000004"><a xlink:href="classediteurpanovisu_1_1GestionnaireInterfaceController.html#a55c8afda208674955a13d48d02be41b8" target="_top" xlink:title=" ">
<polygon fill="white" stroke="#666666" points="2213.5,-258.66 2046,-258.66 2046,-226.66 2213.5,-226.66 2213.5,-258.66"/>
<text xml:space="preserve" text-anchor="start" x="2054" y="-245.16" font-family="Helvetica,sans-Serif" font-size="10.00">editeurpanovisu.Gestionnaire</text>
<text xml:space="preserve" text-anchor="middle" x="2129.75" y="-233.16" font-family="Helvetica,sans-Serif" font-size="10.00">InterfaceController.afficheTemplate</text>
</a>
</g>
</g>
<!-- Node1&#45;&gt;Node4 -->
<g id="edge43_Node000001_Node000004" class="edge">
<title>Node1&#45;&gt;Node4</title>
<g id="a_edge43_Node000001_Node000004"><a xlink:title=" ">
<path fill="none" stroke="#63b8ff" d="M2682.82,-232.37C2557.39,-234.71 2334.65,-238.86 2213.99,-241.11"/>
<polygon fill="#63b8ff" stroke="#63b8ff" points="2682.83,-235.87 2692.76,-232.19 2682.7,-228.88 2682.83,-235.87"/>
</a>
</g>
</g>
<!-- Node25 -->
<g id="Node000025" class="node">
<title>Node25</title>
<g id="a_Node000025"><a xlink:href="classediteurpanovisu_1_1GestionnaireInterfaceController.html#ab66509c63a85a8285a081b24049e8774" target="_top" xlink:title=" ">
<polygon fill="white" stroke="#666666" points="2658.75,-192.66 2492.75,-192.66 2492.75,-160.66 2658.75,-160.66 2658.75,-192.66"/>
<text xml:space="preserve" text-anchor="start" x="2500.75" y="-179.16" font-family="Helvetica,sans-Serif" font-size="10.00">editeurpanovisu.Gestionnaire</text>
<text xml:space="preserve" text-anchor="middle" x="2575.75" y="-167.16" font-family="Helvetica,sans-Serif" font-size="10.00">InterfaceController.strGetTemplate</text>
</a>
</g>
</g>
<!-- Node1&#45;&gt;Node25 -->
<g id="edge44_Node000001_Node000025" class="edge">
<title>Node1&#45;&gt;Node25</title>
<g id="a_edge44_Node000001_Node000025"><a xlink:title=" ">
<path fill="none" stroke="#63b8ff" d="M2683.48,-205.75C2667.78,-201.47 2651.83,-197.12 2637.2,-193.14"/>
<polygon fill="#63b8ff" stroke="#63b8ff" points="2682.26,-209.04 2692.83,-208.3 2684.1,-202.29 2682.26,-209.04"/>
</a>
</g>
</g>
<!-- Node3 -->
<g id="Node000003" class="node">
<title>Node3</title>
<g id="a_Node000003"><a xlink:href="classediteurpanovisu_1_1GestionnaireInterfaceController.html#a5bdd1505c1ad1eee506c2618c9368994" target="_top" xlink:title=" ">
<polygon fill="white" stroke="#666666" points="2437.62,-352.66 2268.62,-352.66 2268.62,-320.66 2437.62,-320.66 2437.62,-352.66"/>
<text xml:space="preserve" text-anchor="start" x="2276.62" y="-339.16" font-family="Helvetica,sans-Serif" font-size="10.00">editeurpanovisu.Gestionnaire</text>
<text xml:space="preserve" text-anchor="middle" x="2353.12" y="-327.16" font-family="Helvetica,sans-Serif" font-size="10.00">InterfaceController.afficheVignettes</text>
</a>
</g>
</g>
<!-- Node2&#45;&gt;Node3 -->
<g id="edge2_Node000002_Node000003" class="edge">
<title>Node2&#45;&gt;Node3</title>
<g id="a_edge2_Node000002_Node000003"><a xlink:title=" ">
<path fill="none" stroke="#63b8ff" d="M2488.64,-336.66C2471.94,-336.66 2454.47,-336.66 2437.85,-336.66"/>
<polygon fill="#63b8ff" stroke="#63b8ff" points="2488.54,-340.16 2498.54,-336.66 2488.54,-333.16 2488.54,-340.16"/>
</a>
</g>
</g>
<!-- Node19 -->
<g id="Node000019" class="node">
<title>Node19</title>
<g id="a_Node000019"><a xlink:href="classediteurpanovisu_1_1GestionnaireInterfaceController.html#ac7fa988dc99d8684686127a2269cd66e" target="_top" xlink:title=" ">
<polygon fill="white" stroke="#666666" points="2000.62,-399.66 1844.38,-399.66 1844.38,-367.66 2000.62,-367.66 2000.62,-399.66"/>
<text xml:space="preserve" text-anchor="start" x="1852.38" y="-386.16" font-family="Helvetica,sans-Serif" font-size="10.00">editeurpanovisu.Gestionnaire</text>
<text xml:space="preserve" text-anchor="middle" x="1922.5" y="-374.16" font-family="Helvetica,sans-Serif" font-size="10.00">InterfaceController.creeInterface</text>
</a>
</g>
</g>
<!-- Node2&#45;&gt;Node19 -->
<g id="edge42_Node000002_Node000019" class="edge">
<title>Node2&#45;&gt;Node19</title>
<g id="a_edge42_Node000002_Node000019"><a xlink:title=" ">
<path fill="none" stroke="#63b8ff" d="M2546.84,-366.93C2524.78,-388.48 2491.93,-415.67 2456.75,-427.66 2283.94,-486.55 2226.09,-451.67 2046,-421.66 2018.98,-417.16 1989.65,-408.21 1966.46,-400.13"/>
<polygon fill="#63b8ff" stroke="#63b8ff" points="2549.11,-369.62 2553.68,-360.06 2544.15,-364.68 2549.11,-369.62"/>
</a>
</g>
</g>
<!-- Node23 -->
<g id="Node000023" class="node">
<title>Node23</title>
<g id="a_Node000023"><a xlink:href="classediteurpanovisu_1_1GestionnaireInterfaceController.html#a6c3ac6b8d3a669f9952954530cc27e52" target="_top" xlink:title=" ">
<polygon fill="white" stroke="#666666" points="2429,-302.66 2277.25,-302.66 2277.25,-258.66 2429,-258.66 2429,-302.66"/>
<text xml:space="preserve" text-anchor="start" x="2285.25" y="-289.16" font-family="Helvetica,sans-Serif" font-size="10.00">editeurpanovisu.Gestionnaire</text>
<text xml:space="preserve" text-anchor="start" x="2285.25" y="-277.16" font-family="Helvetica,sans-Serif" font-size="10.00">InterfaceController.chargeBarre</text>
<text xml:space="preserve" text-anchor="middle" x="2353.12" y="-265.16" font-family="Helvetica,sans-Serif" font-size="10.00">Personnalisee</text>
</a>
</g>
</g>
<!-- Node2&#45;&gt;Node23 -->
<g id="edge38_Node000002_Node000023" class="edge">
<title>Node2&#45;&gt;Node23</title>
<g id="a_edge38_Node000002_Node000023"><a xlink:title=" ">
<path fill="none" stroke="#63b8ff" d="M2488.97,-314.89C2469.35,-309.91 2448.64,-304.65 2429.49,-299.79"/>
<polygon fill="#63b8ff" stroke="#63b8ff" points="2488.04,-318.26 2498.59,-317.33 2489.76,-311.47 2488.04,-318.26"/>
</a>
</g>
</g>
<!-- Node24 -->
<g id="Node000024" class="node">
<title>Node24</title>
<g id="a_Node000024"><a xlink:href="classediteurpanovisu_1_1GestionnaireInterfaceController.html#af830b49c8951d0b3c694aeba5f49d518" target="_top" xlink:title=" ">
<polygon fill="white" stroke="#666666" points="2456.75,-418.66 2249.5,-418.66 2249.5,-386.66 2456.75,-386.66 2456.75,-418.66"/>
<text xml:space="preserve" text-anchor="start" x="2257.5" y="-405.16" font-family="Helvetica,sans-Serif" font-size="10.00">editeurpanovisu.Gestionnaire</text>
<text xml:space="preserve" text-anchor="middle" x="2353.12" y="-393.16" font-family="Helvetica,sans-Serif" font-size="10.00">InterfaceController.choixBarrePersonnalisee</text>
</a>
</g>
</g>
<!-- Node2&#45;&gt;Node24 -->
<g id="edge40_Node000002_Node000024" class="edge">
<title>Node2&#45;&gt;Node24</title>
<g id="a_edge40_Node000002_Node000024"><a xlink:title=" ">
<path fill="none" stroke="#63b8ff" d="M2489.1,-362.28C2462.25,-370.31 2433.35,-378.96 2409.21,-386.18"/>
<polygon fill="#63b8ff" stroke="#63b8ff" points="2490.03,-365.66 2498.61,-359.44 2488.02,-358.95 2490.03,-365.66"/>
</a>
</g>
</g>
<!-- Node3&#45;&gt;Node4 -->
<g id="edge3_Node000003_Node000004" class="edge">
<title>Node3&#45;&gt;Node4</title>
<g id="a_edge3_Node000003_Node000004"><a xlink:title=" ">
<path fill="none" stroke="#63b8ff" d="M2257.98,-316.47C2255.06,-314.98 2252.23,-313.38 2249.5,-311.66 2228.12,-298.19 2234.51,-281.7 2213.5,-267.66 2208.63,-264.41 2203.33,-261.56 2197.83,-259.08"/>
<polygon fill="#63b8ff" stroke="#63b8ff" points="2256.25,-319.52 2266.8,-320.49 2259.16,-313.15 2256.25,-319.52"/>
</a>
</g>
</g>
<!-- Node18 -->
<g id="Node000018" class="node">
<title>Node18</title>
<g id="a_Node000018"><a xlink:href="classediteurpanovisu_1_1GestionnaireInterfaceController.html#a8c634f775c31c1a4db22d5ef0659f7e4" target="_top" xlink:title=" ">
<polygon fill="white" stroke="#666666" points="2203.38,-396.66 2056.12,-396.66 2056.12,-364.66 2203.38,-364.66 2203.38,-396.66"/>
<text xml:space="preserve" text-anchor="start" x="2064.12" y="-383.16" font-family="Helvetica,sans-Serif" font-size="10.00">editeurpanovisu.Gestionnaire</text>
<text xml:space="preserve" text-anchor="middle" x="2129.75" y="-371.16" font-family="Helvetica,sans-Serif" font-size="10.00">InterfaceController.afficheTitre</text>
</a>
</g>
</g>
<!-- Node3&#45;&gt;Node18 -->
<g id="edge29_Node000003_Node000018" class="edge">
<title>Node3&#45;&gt;Node18</title>
<g id="a_edge29_Node000003_Node000018"><a xlink:title=" ">
<path fill="none" stroke="#63b8ff" d="M2258.12,-355.34C2239.87,-358.97 2221.01,-362.72 2203.57,-366.18"/>
<polygon fill="#63b8ff" stroke="#63b8ff" points="2258.77,-358.78 2267.89,-353.4 2257.4,-351.92 2258.77,-358.78"/>
</a>
</g>
</g>
<!-- Node3&#45;&gt;Node19 -->
<g id="edge31_Node000003_Node000019" class="edge">
<title>Node3&#45;&gt;Node19</title>
<g id="a_edge31_Node000003_Node000019"><a xlink:title=" ">
<path fill="none" stroke="#63b8ff" d="M2256.8,-338.59C2196.18,-340.8 2116.18,-345.53 2046,-355.66 2026.46,-358.48 2005.43,-362.8 1986.4,-367.22"/>
<polygon fill="#63b8ff" stroke="#63b8ff" points="2256.88,-342.09 2266.76,-338.24 2256.64,-335.09 2256.88,-342.09"/>
</a>
</g>
</g>
<!-- Node20 -->
<g id="Node000020" class="node">
<title>Node20</title>
<g id="a_Node000020"><a xlink:href="classediteurpanovisu_1_1GestionnaireInterfaceController.html#a568c34e865fb653f63b8fa7a9a9cafc8" target="_top" xlink:title=" ">
<polygon fill="white" stroke="#666666" points="2200.75,-308.66 2058.75,-308.66 2058.75,-276.66 2200.75,-276.66 2200.75,-308.66"/>
<text xml:space="preserve" text-anchor="start" x="2066.75" y="-295.16" font-family="Helvetica,sans-Serif" font-size="10.00">editeurpanovisu.Gestionnaire</text>
<text xml:space="preserve" text-anchor="middle" x="2129.75" y="-283.16" font-family="Helvetica,sans-Serif" font-size="10.00">InterfaceController.rafraichit</text>
</a>
</g>
</g>
<!-- Node3&#45;&gt;Node20 -->
<g id="edge32_Node000003_Node000020" class="edge">
<title>Node3&#45;&gt;Node20</title>
<g id="a_edge32_Node000003_Node000020"><a xlink:title=" ">
<path fill="none" stroke="#63b8ff" d="M2258.2,-317.99C2239.05,-314.19 2219.22,-310.24 2201.07,-306.64"/>
<polygon fill="#63b8ff" stroke="#63b8ff" points="2257.4,-321.4 2267.89,-319.92 2258.77,-314.53 2257.4,-321.4"/>
</a>
</g>
</g>
<!-- Node5 -->
<g id="Node000005" class="node">
<title>Node5</title>
<g id="a_Node000005"><a xlink:href="classediteurpanovisu_1_1EditeurPanovisu.html#a87b29dc258cfc67370b1f27809e91b8e" target="_top" xlink:title=" ">
<polygon fill="white" stroke="#666666" points="2010,-283.66 1835,-283.66 1835,-251.66 2010,-251.66 2010,-283.66"/>
<text xml:space="preserve" text-anchor="start" x="1843" y="-270.16" font-family="Helvetica,sans-Serif" font-size="10.00">editeurpanovisu.EditeurPanovisu.tsk</text>
<text xml:space="preserve" text-anchor="middle" x="1922.5" y="-258.16" font-family="Helvetica,sans-Serif" font-size="10.00">AnalyseFichierPVU</text>
</a>
</g>
</g>
<!-- Node4&#45;&gt;Node5 -->
<g id="edge4_Node000004_Node000005" class="edge">
<title>Node4&#45;&gt;Node5</title>
<g id="a_edge4_Node000004_Node000005"><a xlink:title=" ">
<path fill="none" stroke="#63b8ff" d="M2034.37,-254.15C2026.41,-255.12 2018.38,-256.1 2010.48,-257.06"/>
<polygon fill="#63b8ff" stroke="#63b8ff" points="2034.56,-257.66 2044.06,-252.97 2033.71,-250.71 2034.56,-257.66"/>
</a>
</g>
</g>
<!-- Node6 -->
<g id="Node000006" class="node">
<title>Node6</title>
<g id="a_Node000006"><a xlink:href="classediteurpanovisu_1_1EditeurPanovisu.html#ab4beb1597b660a4a253befc6e76f1c54" target="_top" xlink:title=" ">
<polygon fill="white" stroke="#666666" points="1129.62,-311.66 944.12,-311.66 944.12,-279.66 1129.62,-279.66 1129.62,-311.66"/>
<text xml:space="preserve" text-anchor="start" x="952.12" y="-298.16" font-family="Helvetica,sans-Serif" font-size="10.00">editeurpanovisu.EditeurPanovisu.projet</text>
<text xml:space="preserve" text-anchor="middle" x="1036.88" y="-286.16" font-family="Helvetica,sans-Serif" font-size="10.00">Charge</text>
</a>
</g>
</g>
<!-- Node5&#45;&gt;Node6 -->
<g id="edge5_Node000005_Node000006" class="edge">
<title>Node5&#45;&gt;Node6</title>
<g id="a_edge5_Node000005_Node000006"><a xlink:title=" ">
<path fill="none" stroke="#63b8ff" d="M1823.45,-270.77C1651.48,-276.22 1297.83,-287.42 1130.08,-292.74"/>
<polygon fill="#63b8ff" stroke="#63b8ff" points="1823.36,-274.27 1833.25,-270.46 1823.14,-267.27 1823.36,-274.27"/>
</a>
</g>
</g>
<!-- Node9 -->
<g id="Node000009" class="node">
<title>Node9</title>
<g id="a_Node000009"><a xlink:href="classediteurpanovisu_1_1EditeurPanovisu.html#a6d19b4d885ee6fcec827b91956295732" target="_top" xlink:title=" ">
<polygon fill="white" stroke="#666666" points="1799,-219.66 1613.5,-219.66 1613.5,-187.66 1799,-187.66 1799,-219.66"/>
<text xml:space="preserve" text-anchor="start" x="1621.5" y="-206.16" font-family="Helvetica,sans-Serif" font-size="10.00">editeurpanovisu.EditeurPanovisu.projet</text>
<text xml:space="preserve" text-anchor="middle" x="1706.25" y="-194.16" font-family="Helvetica,sans-Serif" font-size="10.00">ChargeNom</text>
</a>
</g>
</g>
<!-- Node5&#45;&gt;Node9 -->
<g id="edge8_Node000005_Node000009" class="edge">
<title>Node5&#45;&gt;Node9</title>
<g id="a_edge8_Node000005_Node000009"><a xlink:title=" ">
<path fill="none" stroke="#63b8ff" d="M1855.56,-247.96C1825.65,-239.03 1790.7,-228.59 1762.24,-220.08"/>
<polygon fill="#63b8ff" stroke="#63b8ff" points="1854.29,-251.24 1864.88,-250.74 1856.3,-244.53 1854.29,-251.24"/>
</a>
</g>
</g>
<!-- Node7 -->
<g id="Node000007" class="node">
<title>Node7</title>
<g id="a_Node000007"><a xlink:href="classediteurpanovisu_1_1EditeurPanovisu.html#ac912b80c1f2ac97def60ff005c5c480b" target="_top" xlink:title=" ">
<polygon fill="white" stroke="#666666" points="420.5,-166.66 216.25,-166.66 216.25,-146.66 420.5,-146.66 420.5,-166.66"/>
<text xml:space="preserve" text-anchor="middle" x="318.38" y="-153.16" font-family="Helvetica,sans-Serif" font-size="10.00">editeurpanovisu.EditeurPanovisu.creeMenu</text>
</a>
</g>
</g>
<!-- Node6&#45;&gt;Node7 -->
<g id="edge6_Node000006_Node000007" class="edge">
<title>Node6&#45;&gt;Node7</title>
<g id="a_edge6_Node000006_Node000007"><a xlink:title=" ">
<path fill="none" stroke="#63b8ff" d="M932.43,-284.7C815.69,-271.07 620.66,-244.5 456.5,-203.66 417.06,-193.85 372.81,-177.71 345.51,-167.13"/>
<polygon fill="#63b8ff" stroke="#63b8ff" points="931.99,-288.17 942.32,-285.84 932.79,-281.22 931.99,-288.17"/>
</a>
</g>
</g>
<!-- Node8 -->
<g id="Node000008" class="node">
<title>Node8</title>
<g id="a_Node000008"><a xlink:href="classediteurpanovisu_1_1EditeurPanovisu.html#a86c393eee88f54c694db994ddd85b90d" target="_top" xlink:title=" ">
<polygon fill="white" stroke="#666666" points="180.25,-172.66 0,-172.66 0,-140.66 180.25,-140.66 180.25,-172.66"/>
<text xml:space="preserve" text-anchor="start" x="8" y="-159.16" font-family="Helvetica,sans-Serif" font-size="10.00">editeurpanovisu.EditeurPanovisu.cree</text>
<text xml:space="preserve" text-anchor="middle" x="90.12" y="-147.16" font-family="Helvetica,sans-Serif" font-size="10.00">Environnement</text>
</a>
</g>
</g>
<!-- Node7&#45;&gt;Node8 -->
<g id="edge7_Node000007_Node000008" class="edge">
<title>Node7&#45;&gt;Node8</title>
<g id="a_edge7_Node000007_Node000008"><a xlink:title=" ">
<path fill="none" stroke="#63b8ff" d="M204.51,-156.66C196.49,-156.66 188.46,-156.66 180.6,-156.66"/>
<polygon fill="#63b8ff" stroke="#63b8ff" points="204.32,-160.16 214.32,-156.66 204.32,-153.16 204.32,-160.16"/>
</a>
</g>
</g>
<!-- Node9&#45;&gt;Node7 -->
<g id="edge28_Node000009_Node000007" class="edge">
<title>Node9&#45;&gt;Node7</title>
<g id="a_edge28_Node000009_Node000007"><a xlink:title=" ">
<path fill="none" stroke="#63b8ff" d="M1676.11,-180.56C1607.94,-128.92 1431.02,-8.66 1262,-8.66 1262,-8.66 1262,-8.66 793.38,-8.66 643.17,-8.66 594.76,23.04 456.5,-35.66 397.17,-60.85 345.71,-122.17 326.95,-146.49"/>
<polygon fill="#63b8ff" stroke="#63b8ff" points="1673.73,-183.14 1683.79,-186.45 1677.98,-177.59 1673.73,-183.14"/>
</a>
</g>
</g>
<!-- Node10 -->
<g id="Node000010" class="node">
<title>Node10</title>
<g id="a_Node000010"><a xlink:href="classediteurpanovisu_1_1EditeurPanovisu.html#af0d1c32bb78acbff561c822a0d15f760" target="_top" xlink:title=" ">
<polygon fill="white" stroke="#666666" points="1577.5,-219.66 1389.75,-219.66 1389.75,-187.66 1577.5,-187.66 1577.5,-219.66"/>
<text xml:space="preserve" text-anchor="start" x="1397.75" y="-206.16" font-family="Helvetica,sans-Serif" font-size="10.00">editeurpanovisu.EditeurPanovisu.ajoute</text>
<text xml:space="preserve" text-anchor="middle" x="1483.62" y="-194.16" font-family="Helvetica,sans-Serif" font-size="10.00">FichierHisto</text>
</a>
</g>
</g>
<!-- Node9&#45;&gt;Node10 -->
<g id="edge9_Node000009_Node000010" class="edge">
<title>Node9&#45;&gt;Node10</title>
<g id="a_edge9_Node000009_Node000010"><a xlink:title=" ">
<path fill="none" stroke="#63b8ff" d="M1601.97,-196.92C1593.92,-196.89 1585.83,-196.91 1577.86,-196.98"/>
<polygon fill="#63b8ff" stroke="#63b8ff" points="1601.75,-200.42 1611.77,-196.98 1601.79,-193.42 1601.75,-200.42"/>
</a>
</g>
</g>
<!-- Node10&#45;&gt;Node6 -->
<g id="edge10_Node000010_Node000006" class="edge">
<title>Node10&#45;&gt;Node6</title>
<g id="a_edge10_Node000010_Node000006"><a xlink:title=" ">
<path fill="none" stroke="#63b8ff" d="M1391.98,-222.41C1311.34,-239.09 1194.55,-263.25 1117.45,-279.2"/>
<polygon fill="#63b8ff" stroke="#63b8ff" points="1392.55,-225.87 1401.63,-220.41 1391.13,-219.01 1392.55,-225.87"/>
</a>
</g>
</g>
<!-- Node10&#45;&gt;Node9 -->
<g id="edge11_Node000010_Node000009" class="edge">
<title>Node10&#45;&gt;Node9</title>
<g id="a_edge11_Node000010_Node000009"><a xlink:title=" ">
<path fill="none" stroke="#63b8ff" d="M1589.19,-210.4C1597.24,-210.42 1605.33,-210.4 1613.28,-210.32"/>
<polygon fill="#63b8ff" stroke="#63b8ff" points="1589.4,-206.9 1579.38,-210.34 1589.36,-213.9 1589.4,-206.9"/>
</a>
</g>
</g>
<!-- Node11 -->
<g id="Node000011" class="node">
<title>Node11</title>
<g id="a_Node000011"><a xlink:href="classediteurpanovisu_1_1EditeurPanovisu.html#a9f3ea25b35d4884524508dab3dc4fd6a" target="_top" xlink:title=" ">
<polygon fill="white" stroke="#666666" points="1353.75,-219.66 1168.25,-219.66 1168.25,-187.66 1353.75,-187.66 1353.75,-219.66"/>
<text xml:space="preserve" text-anchor="start" x="1176.25" y="-206.16" font-family="Helvetica,sans-Serif" font-size="10.00">editeurpanovisu.EditeurPanovisu.projet</text>
<text xml:space="preserve" text-anchor="middle" x="1261" y="-194.16" font-family="Helvetica,sans-Serif" font-size="10.00">Sauve</text>
</a>
</g>
</g>
<!-- Node10&#45;&gt;Node11 -->
<g id="edge12_Node000010_Node000011" class="edge">
<title>Node10&#45;&gt;Node11</title>
<g id="a_edge12_Node000010_Node000011"><a xlink:title=" ">
<path fill="none" stroke="#63b8ff" d="M1378.13,-203.66C1370.14,-203.66 1362.11,-203.66 1354.21,-203.66"/>
<polygon fill="#63b8ff" stroke="#63b8ff" points="1377.87,-207.16 1387.87,-203.66 1377.87,-200.16 1377.87,-207.16"/>
</a>
</g>
</g>
<!-- Node17 -->
<g id="Node000017" class="node">
<title>Node17</title>
<g id="a_Node000017"><a xlink:href="classediteurpanovisu_1_1EditeurPanovisu.html#a7b2e25dc717eb52b62e23d54ec4c124a" target="_top" xlink:title=" ">
<polygon fill="white" stroke="#666666" points="1353.75,-169.66 1168.25,-169.66 1168.25,-137.66 1353.75,-137.66 1353.75,-169.66"/>
<text xml:space="preserve" text-anchor="start" x="1176.25" y="-156.16" font-family="Helvetica,sans-Serif" font-size="10.00">editeurpanovisu.EditeurPanovisu.projet</text>
<text xml:space="preserve" text-anchor="middle" x="1261" y="-144.16" font-family="Helvetica,sans-Serif" font-size="10.00">SauveSous</text>
</a>
</g>
</g>
<!-- Node10&#45;&gt;Node17 -->
<g id="edge26_Node000010_Node000017" class="edge">
<title>Node10&#45;&gt;Node17</title>
<g id="a_edge26_Node000010_Node000017"><a xlink:title=" ">
<path fill="none" stroke="#63b8ff" d="M1399.12,-184.73C1377.88,-179.92 1355.23,-174.79 1334.59,-170.11"/>
<polygon fill="#63b8ff" stroke="#63b8ff" points="1398.08,-188.09 1408.6,-186.88 1399.62,-181.26 1398.08,-188.09"/>
</a>
</g>
</g>
<!-- Node11&#45;&gt;Node6 -->
<g id="edge16_Node000011_Node000006" class="edge">
<title>Node11&#45;&gt;Node6</title>
<g id="a_edge16_Node000011_Node000006"><a xlink:title=" ">
<path fill="none" stroke="#63b8ff" d="M1190.09,-224.39C1182.49,-227.71 1175.06,-231.45 1168.25,-235.66 1149.27,-247.39 1151.67,-259.66 1132.25,-270.66 1126.5,-273.92 1120.31,-276.76 1113.95,-279.24"/>
<polygon fill="#63b8ff" stroke="#63b8ff" points="1191.17,-227.73 1199.1,-220.72 1188.52,-221.25 1191.17,-227.73"/>
</a>
</g>
</g>
<!-- Node11&#45;&gt;Node7 -->
<g id="edge13_Node000011_Node000007" class="edge">
<title>Node11&#45;&gt;Node7</title>
<g id="a_edge13_Node000011_Node000007"><a xlink:title=" ">
<path fill="none" stroke="#63b8ff" d="M1165.84,-185.36C1154.55,-183.57 1143.16,-181.94 1132.25,-180.66 833.73,-145.61 757.05,-150.37 456.5,-153.66 444.95,-153.78 432.86,-153.97 420.84,-154.19"/>
<polygon fill="#63b8ff" stroke="#63b8ff" points="1165.14,-188.79 1175.58,-186.96 1166.28,-181.89 1165.14,-188.79"/>
</a>
</g>
</g>
<!-- Node11&#45;&gt;Node9 -->
<g id="edge17_Node000011_Node000009" class="edge">
<title>Node11&#45;&gt;Node9</title>
<g id="a_edge17_Node000011_Node000009"><a xlink:title=" ">
<path fill="none" stroke="#63b8ff" d="M1344.57,-222.23C1359.53,-224.91 1375.05,-227.23 1389.75,-228.66 1472.81,-236.71 1494.44,-236.71 1577.5,-228.66 1595.95,-226.87 1615.68,-223.66 1633.99,-220.13"/>
<polygon fill="#63b8ff" stroke="#63b8ff" points="1345.22,-218.79 1334.75,-220.41 1343.94,-225.68 1345.22,-218.79"/>
</a>
</g>
</g>
<!-- Node12 -->
<g id="Node000012" class="node">
<title>Node12</title>
<g id="a_Node000012"><a xlink:href="classediteurpanovisu_1_1EditeurPanovisu.html#a94e36b9e9d09ab1a4c852b8a8cefa927" target="_top" xlink:title=" ">
<polygon fill="white" stroke="#666666" points="647.25,-194.66 456.5,-194.66 456.5,-162.66 647.25,-162.66 647.25,-194.66"/>
<text xml:space="preserve" text-anchor="start" x="464.5" y="-181.16" font-family="Helvetica,sans-Serif" font-size="10.00">editeurpanovisu.EditeurPanovisu.genere</text>
<text xml:space="preserve" text-anchor="middle" x="551.88" y="-169.16" font-family="Helvetica,sans-Serif" font-size="10.00">Visite</text>
</a>
</g>
</g>
<!-- Node11&#45;&gt;Node12 -->
<g id="edge14_Node000011_Node000012" class="edge">
<title>Node11&#45;&gt;Node12</title>
<g id="a_edge14_Node000011_Node000012"><a xlink:title=" ">
<path fill="none" stroke="#63b8ff" d="M1156.75,-196.24C1086.06,-191.47 990.16,-185.64 905.5,-182.66 818.16,-179.58 718.58,-178.69 647.57,-178.51"/>
<polygon fill="#63b8ff" stroke="#63b8ff" points="1156.15,-199.7 1166.36,-196.89 1156.62,-192.72 1156.15,-199.7"/>
</a>
</g>
</g>
<!-- Node13 -->
<g id="Node000013" class="node">
<title>Node13</title>
<g id="a_Node000013"><a xlink:href="classediteurpanovisu_1_1EditeurPanovisu.html#a9b46b222714af12c06ec33d410400773" target="_top" xlink:title=" ">
<polygon fill="white" stroke="#666666" points="647.25,-106.66 456.5,-106.66 456.5,-74.66 647.25,-74.66 647.25,-106.66"/>
<text xml:space="preserve" text-anchor="start" x="464.5" y="-93.16" font-family="Helvetica,sans-Serif" font-size="10.00">editeurpanovisu.EditeurPanovisu.projets</text>
<text xml:space="preserve" text-anchor="middle" x="551.88" y="-81.16" font-family="Helvetica,sans-Serif" font-size="10.00">Fermer</text>
</a>
</g>
</g>
<!-- Node11&#45;&gt;Node13 -->
<g id="edge18_Node000011_Node000013" class="edge">
<title>Node11&#45;&gt;Node13</title>
<g id="a_edge18_Node000011_Node000013"><a xlink:title=" ">
<path fill="none" stroke="#63b8ff" d="M1172.24,-181.62C1170.87,-180.67 1169.54,-179.69 1168.25,-178.66 1141.79,-157.62 1160.94,-129.53 1132.25,-111.66 1053.97,-62.91 790.89,-73.19 647.68,-82.97"/>
<polygon fill="#63b8ff" stroke="#63b8ff" points="1170.02,-184.36 1180.39,-186.51 1173.62,-178.36 1170.02,-184.36"/>
</a>
</g>
</g>
<!-- Node14 -->
<g id="Node000014" class="node">
<title>Node14</title>
<g id="a_Node000014"><a xlink:href="classediteurpanovisu_1_1EditeurPanovisu.html#ac9d449399ccd38843fa12e716f0c9611" target="_top" xlink:title=" ">
<polygon fill="white" stroke="#666666" points="1132.25,-361.66 941.5,-361.66 941.5,-329.66 1132.25,-329.66 1132.25,-361.66"/>
<text xml:space="preserve" text-anchor="start" x="949.5" y="-348.16" font-family="Helvetica,sans-Serif" font-size="10.00">editeurpanovisu.EditeurPanovisu.projets</text>
<text xml:space="preserve" text-anchor="middle" x="1036.88" y="-336.16" font-family="Helvetica,sans-Serif" font-size="10.00">Nouveau</text>
</a>
</g>
</g>
<!-- Node11&#45;&gt;Node14 -->
<g id="edge20_Node000011_Node000014" class="edge">
<title>Node11&#45;&gt;Node14</title>
<g id="a_edge20_Node000011_Node000014"><a xlink:title=" ">
<path fill="none" stroke="#63b8ff" d="M1239.69,-228.33C1216.43,-254.98 1175.88,-296.81 1132.25,-320.66 1126.3,-323.91 1119.91,-326.76 1113.35,-329.24"/>
<polygon fill="#63b8ff" stroke="#63b8ff" points="1242.06,-230.94 1245.91,-221.07 1236.74,-226.38 1242.06,-230.94"/>
</a>
</g>
</g>
<!-- Node15 -->
<g id="Node000015" class="node">
<title>Node15</title>
<g id="a_Node000015"><a xlink:href="classediteurpanovisu_1_1EditeurPanovisu.html#a2b3125ffe2e6291efacf19df6cb30a8d" target="_top" xlink:title=" ">
<polygon fill="white" stroke="#666666" points="884.88,-211.66 703.88,-211.66 703.88,-191.66 884.88,-191.66 884.88,-211.66"/>
<text xml:space="preserve" text-anchor="middle" x="794.38" y="-198.16" font-family="Helvetica,sans-Serif" font-size="10.00">editeurpanovisu.EditeurPanovisu.start</text>
</a>
</g>
</g>
<!-- Node11&#45;&gt;Node15 -->
<g id="edge25_Node000011_Node000015" class="edge">
<title>Node11&#45;&gt;Node15</title>
<g id="a_edge25_Node000011_Node000015"><a xlink:title=" ">
<path fill="none" stroke="#63b8ff" d="M1156.66,-203.21C1075.28,-202.86 962.99,-202.38 885.29,-202.05"/>
<polygon fill="#63b8ff" stroke="#63b8ff" points="1156.4,-206.71 1166.41,-203.26 1156.43,-199.71 1156.4,-206.71"/>
</a>
</g>
</g>
<!-- Node16 -->
<g id="Node000016" class="node">
<title>Node16</title>
<g id="a_Node000016"><a xlink:href="classediteurpanovisu_1_1EditeurPanovisu.html#aef8c9b28c3e88d6e27e3f62b9a901134" target="_top" xlink:title=" ">
<polygon fill="white" stroke="#666666" points="1130.75,-261.66 943,-261.66 943,-229.66 1130.75,-229.66 1130.75,-261.66"/>
<text xml:space="preserve" text-anchor="start" x="951" y="-248.16" font-family="Helvetica,sans-Serif" font-size="10.00">editeurpanovisu.EditeurPanovisu.sauve</text>
<text xml:space="preserve" text-anchor="middle" x="1036.88" y="-236.16" font-family="Helvetica,sans-Serif" font-size="10.00">Fichiers</text>
</a>
</g>
</g>
<!-- Node11&#45;&gt;Node16 -->
<g id="edge24_Node000011_Node000016" class="edge">
<title>Node11&#45;&gt;Node16</title>
<g id="a_edge24_Node000011_Node000016"><a xlink:title=" ">
<path fill="none" stroke="#63b8ff" d="M1161.64,-222.26C1149.36,-224.58 1136.87,-226.94 1124.78,-229.23"/>
<polygon fill="#63b8ff" stroke="#63b8ff" points="1162.19,-225.72 1171.36,-220.42 1160.88,-218.84 1162.19,-225.72"/>
</a>
</g>
</g>
<!-- Node12&#45;&gt;Node7 -->
<g id="edge15_Node000012_Node000007" class="edge">
<title>Node12&#45;&gt;Node7</title>
<g id="a_edge15_Node000012_Node000007"><a xlink:title=" ">
<path fill="none" stroke="#63b8ff" d="M444.81,-168.58C436.83,-167.82 428.78,-167.06 420.83,-166.3"/>
<polygon fill="#63b8ff" stroke="#63b8ff" points="444.25,-172.04 454.54,-169.5 444.92,-165.07 444.25,-172.04"/>
</a>
</g>
</g>
<!-- Node13&#45;&gt;Node7 -->
<g id="edge19_Node000013_Node000007" class="edge">
<title>Node13&#45;&gt;Node7</title>
<g id="a_edge19_Node000013_Node000007"><a xlink:title=" ">
<path fill="none" stroke="#63b8ff" d="M482.2,-110.24C440.79,-122.04 389.69,-136.61 355.9,-146.24"/>
<polygon fill="#63b8ff" stroke="#63b8ff" points="482.94,-113.67 491.6,-107.56 481.02,-106.93 482.94,-113.67"/>
</a>
</g>
</g>
<!-- Node14&#45;&gt;Node7 -->
<g id="edge21_Node000014_Node000007" class="edge">
<title>Node14&#45;&gt;Node7</title>
<g id="a_edge21_Node000014_Node000007"><a xlink:title=" ">
<path fill="none" stroke="#63b8ff" d="M929.88,-336.85C811.39,-324.49 615.3,-296.41 456.5,-236.66 408.26,-218.51 357.33,-184.19 333.38,-167.01"/>
<polygon fill="#63b8ff" stroke="#63b8ff" points="929.29,-340.31 939.6,-337.85 930.01,-333.35 929.29,-340.31"/>
</a>
</g>
</g>
<!-- Node14&#45;&gt;Node15 -->
<g id="edge22_Node000014_Node000015" class="edge">
<title>Node14&#45;&gt;Node15</title>
<g id="a_edge22_Node000014_Node000015"><a xlink:title=" ">
<path fill="none" stroke="#63b8ff" d="M951,-325.09C947.75,-323.7 944.57,-322.22 941.5,-320.66 883.2,-290.95 826.8,-235.03 804.92,-211.99"/>
<polygon fill="#63b8ff" stroke="#63b8ff" points="949.59,-328.29 960.18,-328.68 952.14,-321.77 949.59,-328.29"/>
</a>
</g>
</g>
<!-- Node15&#45;&gt;Node12 -->
<g id="edge23_Node000015_Node000012" class="edge">
<title>Node15&#45;&gt;Node12</title>
<g id="a_edge23_Node000015_Node000012"><a xlink:title=" ">
<path fill="none" stroke="#63b8ff" d="M692.23,-191.99C677.4,-190.57 662.18,-189.11 647.49,-187.71"/>
<polygon fill="#63b8ff" stroke="#63b8ff" points="691.69,-195.45 701.97,-192.92 692.35,-188.48 691.69,-195.45"/>
</a>
</g>
</g>
<!-- Node17&#45;&gt;Node7 -->
<g id="edge27_Node000017_Node000007" class="edge">
<title>Node17&#45;&gt;Node7</title>
<g id="a_edge27_Node000017_Node000007"><a xlink:title=" ">
<path fill="none" stroke="#63b8ff" d="M1233.07,-130.26C1208.62,-110.66 1170.63,-84.1 1132.25,-72.66 988.34,-29.75 600.28,-22.29 456.5,-65.66 403.16,-81.75 351.52,-126.13 329.94,-146.36"/>
<polygon fill="#63b8ff" stroke="#63b8ff" points="1230.63,-132.79 1240.58,-136.43 1235.07,-127.38 1230.63,-132.79"/>
</a>
</g>
</g>
<!-- Node18&#45;&gt;Node19 -->
<g id="edge30_Node000018_Node000019" class="edge">
<title>Node18&#45;&gt;Node19</title>
<g id="a_edge30_Node000018_Node000019"><a xlink:title=" ">
<path fill="none" stroke="#63b8ff" d="M2044.43,-381.89C2030.08,-382.1 2015.24,-382.32 2001.07,-382.52"/>
<polygon fill="#63b8ff" stroke="#63b8ff" points="2044.35,-385.39 2054.3,-381.75 2044.25,-378.39 2044.35,-385.39"/>
</a>
</g>
</g>
<!-- Node20&#45;&gt;Node5 -->
<g id="edge33_Node000020_Node000005" class="edge">
<title>Node20&#45;&gt;Node5</title>
<g id="a_edge33_Node000020_Node000005"><a xlink:title=" ">
<path fill="none" stroke="#63b8ff" d="M2047.02,-282.7C2035,-281.24 2022.57,-279.73 2010.45,-278.25"/>
<polygon fill="#63b8ff" stroke="#63b8ff" points="2046.55,-286.17 2056.9,-283.91 2047.4,-279.22 2046.55,-286.17"/>
</a>
</g>
</g>
<!-- Node21 -->
<g id="Node000021" class="node">
<title>Node21</title>
<g id="a_Node000021"><a xlink:href="classediteurpanovisu_1_1EditeurPanovisu.html#a53cccf6a6b2693c872947460b66ae8ee" target="_top" xlink:title=" ">
<polygon fill="white" stroke="#666666" points="1348.5,-361.66 1173.5,-361.66 1173.5,-329.66 1348.5,-329.66 1348.5,-361.66"/>
<text xml:space="preserve" text-anchor="start" x="1181.5" y="-348.16" font-family="Helvetica,sans-Serif" font-size="10.00">editeurpanovisu.EditeurPanovisu.tsk</text>
<text xml:space="preserve" text-anchor="middle" x="1261" y="-336.16" font-family="Helvetica,sans-Serif" font-size="10.00">ChargeListeFichiers</text>
</a>
</g>
</g>
<!-- Node20&#45;&gt;Node21 -->
<g id="edge34_Node000020_Node000021" class="edge">
<title>Node20&#45;&gt;Node21</title>
<g id="a_edge34_Node000020_Node000021"><a xlink:title=" ">
<path fill="none" stroke="#63b8ff" d="M2047.13,-297.65C1883.45,-307.66 1516.48,-330.1 1348.69,-340.36"/>
<polygon fill="#63b8ff" stroke="#63b8ff" points="2047.28,-301.15 2057.04,-297.04 2046.85,-294.16 2047.28,-301.15"/>
</a>
</g>
</g>
<!-- Node21&#45;&gt;Node14 -->
<g id="edge37_Node000021_Node000014" class="edge">
<title>Node21&#45;&gt;Node14</title>
<g id="a_edge37_Node000021_Node000014"><a xlink:title=" ">
<path fill="none" stroke="#63b8ff" d="M1161.88,-345.66C1152.2,-345.66 1142.38,-345.66 1132.73,-345.66"/>
<polygon fill="#63b8ff" stroke="#63b8ff" points="1161.65,-349.16 1171.65,-345.66 1161.65,-342.16 1161.65,-349.16"/>
</a>
</g>
</g>
<!-- Node22 -->
<g id="Node000022" class="node">
<title>Node22</title>
<g id="a_Node000022"><a xlink:href="classediteurpanovisu_1_1EditeurPanovisu.html#a924d3ccff3e4f402d2309cd2eade3237" target="_top" xlink:title=" ">
<polygon fill="white" stroke="#666666" points="905.5,-395.66 683.25,-395.66 683.25,-363.66 905.5,-363.66 905.5,-395.66"/>
<text xml:space="preserve" text-anchor="start" x="691.25" y="-382.16" font-family="Helvetica,sans-Serif" font-size="10.00">editeurpanovisu.EditeurPanovisu.panoramiques</text>
<text xml:space="preserve" text-anchor="middle" x="794.38" y="-370.16" font-family="Helvetica,sans-Serif" font-size="10.00">Ajouter</text>
</a>
</g>
</g>
<!-- Node21&#45;&gt;Node22 -->
<g id="edge35_Node000021_Node000022" class="edge">
<title>Node21&#45;&gt;Node22</title>
<g id="a_edge35_Node000021_Node000022"><a xlink:title=" ">
<path fill="none" stroke="#63b8ff" d="M1176.02,-364.15C1161.49,-366.76 1146.48,-369.09 1132.25,-370.66 1056.94,-378.97 971.62,-381.18 905.69,-381.33"/>
<polygon fill="#63b8ff" stroke="#63b8ff" points="1176.34,-367.65 1185.54,-362.39 1175.07,-360.77 1176.34,-367.65"/>
</a>
</g>
</g>
<!-- Node22&#45;&gt;Node7 -->
<g id="edge36_Node000022_Node000007" class="edge">
<title>Node22&#45;&gt;Node7</title>
<g id="a_edge36_Node000022_Node000007"><a xlink:title=" ">
<path fill="none" stroke="#63b8ff" d="M671.84,-387.88C604.32,-387.1 521.15,-376.93 456.5,-339.66 383.24,-297.42 336.96,-198.78 323.48,-166.84"/>
<polygon fill="#63b8ff" stroke="#63b8ff" points="671.44,-391.37 681.45,-387.92 671.47,-384.37 671.44,-391.37"/>
</a>
</g>
</g>
<!-- Node23&#45;&gt;Node4 -->
<g id="edge39_Node000023_Node000004" class="edge">
<title>Node23&#45;&gt;Node4</title>
<g id="a_edge39_Node000023_Node000004"><a xlink:title=" ">
<path fill="none" stroke="#63b8ff" d="M2265.77,-265.84C2248.67,-262.9 2230.76,-259.83 2213.77,-256.91"/>
<polygon fill="#63b8ff" stroke="#63b8ff" points="2264.93,-269.24 2275.38,-267.48 2266.11,-262.34 2264.93,-269.24"/>
</a>
</g>
</g>
<!-- Node24&#45;&gt;Node19 -->
<g id="edge41_Node000024_Node000019" class="edge">
<title>Node24&#45;&gt;Node19</title>
<g id="a_edge41_Node000024_Node000019"><a xlink:title=" ">
<path fill="none" stroke="#63b8ff" d="M2237.84,-409.11C2180.21,-411.01 2109.28,-411.3 2046,-405.66 2031.36,-404.35 2015.86,-402.19 2000.98,-399.72"/>
<polygon fill="#63b8ff" stroke="#63b8ff" points="2237.8,-412.62 2247.67,-408.77 2237.56,-405.62 2237.8,-412.62"/>
</a>
</g>
</g>
<!-- Node26 -->
<g id="Node000026" class="node">
<title>Node26</title>
<g id="a_Node000026"><a xlink:href="classediteurpanovisu_1_1EditeurPanovisu.html#aaee69ab54364f89b58458c744a4195c0" target="_top" xlink:title=" ">
<polygon fill="white" stroke="#666666" points="1577.5,-169.66 1389.75,-169.66 1389.75,-137.66 1577.5,-137.66 1577.5,-169.66"/>
<text xml:space="preserve" text-anchor="start" x="1397.75" y="-156.16" font-family="Helvetica,sans-Serif" font-size="10.00">editeurpanovisu.EditeurPanovisu.sauve</text>
<text xml:space="preserve" text-anchor="middle" x="1483.62" y="-144.16" font-family="Helvetica,sans-Serif" font-size="10.00">FichierProjet</text>
</a>
</g>
</g>
<!-- Node25&#45;&gt;Node26 -->
<g id="edge45_Node000025_Node000026" class="edge">
<title>Node25&#45;&gt;Node26</title>
<g id="a_edge45_Node000025_Node000026"><a xlink:title=" ">
<path fill="none" stroke="#63b8ff" d="M2481.31,-170C2391.5,-164.18 2251.92,-156.66 2130.75,-156.66 2130.75,-156.66 2130.75,-156.66 1921.5,-156.66 1802.99,-156.66 1666.39,-155.54 1577.94,-154.67"/>
<polygon fill="#63b8ff" stroke="#63b8ff" points="2480.84,-173.48 2491.05,-170.64 2481.3,-166.49 2480.84,-173.48"/>
</a>
</g>
</g>
<!-- Node26&#45;&gt;Node11 -->
<g id="edge46_Node000026_Node000011" class="edge">
<title>Node26&#45;&gt;Node11</title>
<g id="a_edge46_Node000026_Node000011"><a xlink:title=" ">
<path fill="none" stroke="#63b8ff" d="M1399.12,-172.58C1377.88,-177.4 1355.23,-182.53 1334.59,-187.21"/>
<polygon fill="#63b8ff" stroke="#63b8ff" points="1399.62,-176.06 1408.6,-170.43 1398.08,-169.23 1399.62,-176.06"/>
</a>
</g>
</g>
<!-- Node26&#45;&gt;Node17 -->
<g id="edge47_Node000026_Node000017" class="edge">
<title>Node26&#45;&gt;Node17</title>
<g id="a_edge47_Node000026_Node000017"><a xlink:title=" ">
<path fill="none" stroke="#63b8ff" d="M1378.13,-153.66C1370.14,-153.66 1362.11,-153.66 1354.21,-153.66"/>
<polygon fill="#63b8ff" stroke="#63b8ff" points="1377.87,-157.16 1387.87,-153.66 1377.87,-150.16 1377.87,-157.16"/>
</a>
</g>
</g>
</g>
</svg>

<g id="navigator" transform="translate(0 0)" fill="#404254">
  <rect fill="#f2f5e9" fill-opacity="0.5" stroke="#606060" stroke-width=".5" x="0" y="0" width="60" height="60"/>
  <use id="zoomplus" xlink:href="#zoomPlus" x="17" y="9" onmousedown="handleZoom(evt,'in')"/>
  <use id="zoomminus" xlink:href="#zoomMin" x="42" y="9" onmousedown="handleZoom(evt,'out')"/>
  <use id="reset" xlink:href="#resetDef" x="30" y="36" onmousedown="handleReset()"/>
   <use id="arrowup" xlink:href="#arrowUp" x="0" y="0" onmousedown="handlePan(0,-1)"/>
  <use id="arrowright" xlink:href="#arrowRight" x="0" y="0" onmousedown="handlePan(1,0)"/>
  <use id="arrowdown" xlink:href="#arrowDown" x="0" y="0" onmousedown="handlePan(0,1)"/>
  <use id="arrowleft" xlink:href="#arrowLeft" x="0" y="0" onmousedown="handlePan(-1,0)"/>
</g>
<svg viewBox="0 0 15 15" width="100%" height="30px" preserveAspectRatio="xMaxYMin meet">
 <g id="arrow_out" transform="scale(0.3 0.3)">
  <a xlink:href="classediteurpanovisu_1_1GestionnaireInterfaceController_a403e20d6e2f1f4eb0d2ba8e8e4edbb40_icgraph_org.svg" target="_base">
   <rect id="button" ry="5" rx="5" y="6" x="6" height="38" width="38"
        fill="#f2f5e9" fill-opacity="0.5" stroke="#606060" stroke-width="1.0"/>
   <path id="arrow"
     d="M 11.500037,31.436501 C 11.940474,20.09759 22.043105,11.32322 32.158766,21.979434 L 37.068811,17.246167 C 37.068811,17.246167 37.088388,32 37.088388,32 L 22.160133,31.978069 C 22.160133,31.978069 26.997745,27.140456 26.997745,27.140456 C 18.528582,18.264221 13.291696,25.230495 11.500037,31.436501 z"
     style="fill:#404040;"/>
  </a>
 </g>
</svg>

<style type='text/css'>
<![CDATA[
[data-mouse-over-selected='false'] { opacity: 0.7; }
[data-mouse-over-selected='true']  { opacity: 1.0; }
]]>
</style>
<script type="application/ecmascript"><![CDATA[
document.addEventListener('DOMContentLoaded', (event) => {
  highlightEdges();
  highlightAdjacentNodes();
});
]]></script>
</svg>
