<?xml version="1.0" encoding="UTF-8" standalone="no"?>
<!DOCTYPE svg PUBLIC "-//W3C//DTD SVG 1.1//EN"
 "http://www.w3.org/Graphics/SVG/1.1/DTD/svg11.dtd">
<!-- Generated by graphviz version 13.1.2 (20250808.2320)
 -->
<!-- Title: editeurpanovisu.GestionnaireInterfaceController.chargeBarrePersonnalisee Pages: 1 -->
<!--zoomable 1516 -->

<svg id="main" version="1.1" xmlns="http://www.w3.org/2000/svg" xmlns:xlink="http://www.w3.org/1999/xlink" xml:space="preserve" onload="init(evt)">

<style type="text/css"><![CDATA[
.node, .edge {opacity: 0.7;}
.node.selected, .edge.selected {opacity: 1;}
.edge:hover path { stroke: red; }
.edge:hover polygon { stroke: red; fill: red; }
]]></style>

<defs>
  <circle id="rim" cx="0" cy="0" r="7"/>
  <circle id="rim2" cx="0" cy="0" r="3.5"/>
  <g id="zoomPlus">
    <use xlink:href="#rim" fill="#404040"><set attributeName="fill" to="#808080" begin="zoomplus.mouseover" end="zoomplus.mouseout"/></use>
    <path d="M-4,0h8M0,-4v8" fill="none" stroke="white" stroke-width="1.5" pointer-events="none"/>
  </g>
  <g id="zoomMin">
    <use xlink:href="#rim" fill="#404040"><set attributeName="fill" to="#808080" begin="zoomminus.mouseover" end="zoomminus.mouseout"/></use>
    <path d="M-4,0h8" fill="none" stroke="white" stroke-width="1.5" pointer-events="none"/>
  </g>
  <g id="arrowUp" transform="translate(30 24)">
    <use xlink:href="#rim"/>
    <path pointer-events="none" fill="none" stroke="white" stroke-width="1.5" d="M0,-3.0v7 M-2.5,-0.5L0,-3.0L2.5,-0.5"/>
  </g>
  <g id="arrowRight" transform="rotate(90) translate(36 -43)">
    <use xlink:href="#rim"/>
    <path pointer-events="none" fill="none" stroke="white" stroke-width="1.5" d="M0,-3.0v7 M-2.5,-0.5L0,-3.0L2.5,-0.5"/>
  </g>
  <g id="arrowDown" transform="rotate(180) translate(-30 -48)">
    <use xlink:href="#rim"/>
    <path pointer-events="none" fill="none" stroke="white" stroke-width="1.5" d="M0,-3.0v7 M-2.5,-0.5L0,-3.0L2.5,-0.5"/>
  </g>
  <g id="arrowLeft" transform="rotate(270) translate(-36 17)">
    <use xlink:href="#rim"/>
    <path pointer-events="none" fill="none" stroke="white" stroke-width="1.5" d="M0,-3.0v7 M-2.5,-0.5L0,-3.0L2.5,-0.5"/>
  </g>
  <g id="resetDef">
    <use xlink:href="#rim2" fill="#404040"><set attributeName="fill" to="#808080" begin="reset.mouseover" end="reset.mouseout"/></use>
  </g>
</defs>
<script type="application/ecmascript">
var viewWidth = 842;
var viewHeight = 1516;
var sectionId = 'dynsection-52';
</script>
<script type="application/ecmascript" xlink:href="svg.min.js"/>
<svg id="graph" class="graph">
<g id="viewport">
<title>editeurpanovisu.GestionnaireInterfaceController.chargeBarrePersonnalisee</title>
<!-- Node1 -->
<g id="Node000001" class="node">
<title>Node1</title>
<g id="a_Node000001"><a xlink:title=" ">
<polygon fill="#999999" stroke="#666666" points="151.75,-964 0,-964 0,-920 151.75,-920 151.75,-964"/>
<text xml:space="preserve" text-anchor="start" x="8" y="-950.5" font-family="Helvetica,sans-Serif" font-size="10.00">editeurpanovisu.Gestionnaire</text>
<text xml:space="preserve" text-anchor="start" x="8" y="-938.5" font-family="Helvetica,sans-Serif" font-size="10.00">InterfaceController.chargeBarre</text>
<text xml:space="preserve" text-anchor="middle" x="75.88" y="-926.5" font-family="Helvetica,sans-Serif" font-size="10.00">Personnalisee</text>
</a>
</g>
</g>
<!-- Node2 -->
<g id="Node000002" class="node">
<title>Node2</title>
<g id="a_Node000002"><a xlink:href="classediteurpanovisu_1_1GestionnaireInterfaceController.html#a3f85cb5c53dc115280ee2e1290a532f3" target="_top" xlink:title=" ">
<polygon fill="white" stroke="#666666" points="351.5,-590 200.5,-590 200.5,-546 351.5,-546 351.5,-590"/>
<text xml:space="preserve" text-anchor="start" x="208.5" y="-576.5" font-family="Helvetica,sans-Serif" font-size="10.00">editeurpanovisu.Gestionnaire</text>
<text xml:space="preserve" text-anchor="start" x="208.5" y="-564.5" font-family="Helvetica,sans-Serif" font-size="10.00">InterfaceController.afficheBarre</text>
<text xml:space="preserve" text-anchor="middle" x="276" y="-552.5" font-family="Helvetica,sans-Serif" font-size="10.00">Personnalisee</text>
</a>
</g>
</g>
<!-- Node1&#45;&gt;Node2 -->
<g id="edge1_Node000001_Node000002" class="edge">
<title>Node1&#45;&gt;Node2</title>
<g id="a_edge1_Node000001_Node000002"><a xlink:title=" ">
<path fill="none" stroke="#63b8ff" d="M88.68,-919.72C122.26,-856.32 218.49,-674.68 257.88,-600.32"/>
<polygon fill="#63b8ff" stroke="#63b8ff" points="260.96,-601.97 262.55,-591.5 254.78,-598.69 260.96,-601.97"/>
</a>
</g>
</g>
<!-- Node10 -->
<g id="Node000010" class="node">
<title>Node10</title>
<g id="a_Node000010"><a xlink:href="classediteurpanovisu_1_1GestionnaireInterfaceController.html#a1c6ac3176357d8507ce82a90a72e7fef" target="_top" xlink:title=" ">
<polygon fill="white" stroke="#666666" points="817.75,-1365 641.25,-1365 641.25,-1321 817.75,-1321 817.75,-1365"/>
<text xml:space="preserve" text-anchor="start" x="649.25" y="-1351.5" font-family="Helvetica,sans-Serif" font-size="10.00">editeurpanovisu.Gestionnaire</text>
<text xml:space="preserve" text-anchor="start" x="649.25" y="-1339.5" font-family="Helvetica,sans-Serif" font-size="10.00">InterfaceController.getiNombreZones</text>
<text xml:space="preserve" text-anchor="middle" x="729.5" y="-1327.5" font-family="Helvetica,sans-Serif" font-size="10.00">BarrePersonnalisee</text>
</a>
</g>
</g>
<!-- Node1&#45;&gt;Node10 -->
<g id="edge27_Node000001_Node000010" class="edge">
<title>Node1&#45;&gt;Node10</title>
<g id="a_edge27_Node000001_Node000010"><a xlink:title=" ">
<path fill="none" stroke="#63b8ff" d="M80.99,-964.44C98.86,-1054.06 178.95,-1386.17 400.25,-1483 477,-1516.58 511.36,-1515.09 588.75,-1483 641.52,-1461.11 684.72,-1408.55 708.51,-1374.42"/>
<polygon fill="#63b8ff" stroke="#63b8ff" points="711.11,-1376.82 713.84,-1366.58 705.32,-1372.88 711.11,-1376.82"/>
</a>
</g>
</g>
<!-- Node11 -->
<g id="Node000011" class="node">
<title>Node11</title>
<g id="a_Node000011"><a xlink:href="classediteurpanovisu_1_1GestionnaireInterfaceController.html#a772989932b75e9e5a035e42b31d84bd5" target="_top" xlink:title=" ">
<polygon fill="white" stroke="#666666" points="811,-964 648,-964 648,-920 811,-920 811,-964"/>
<text xml:space="preserve" text-anchor="start" x="656" y="-950.5" font-family="Helvetica,sans-Serif" font-size="10.00">editeurpanovisu.Gestionnaire</text>
<text xml:space="preserve" text-anchor="start" x="656" y="-938.5" font-family="Helvetica,sans-Serif" font-size="10.00">InterfaceController.getZonesBarre</text>
<text xml:space="preserve" text-anchor="middle" x="729.5" y="-926.5" font-family="Helvetica,sans-Serif" font-size="10.00">Personnalisee</text>
</a>
</g>
</g>
<!-- Node1&#45;&gt;Node11 -->
<g id="edge28_Node000001_Node000011" class="edge">
<title>Node1&#45;&gt;Node11</title>
<g id="a_edge28_Node000001_Node000011"><a xlink:title=" ">
<path fill="none" stroke="#63b8ff" d="M151.94,-942C271.81,-942 506.15,-942 636.12,-942"/>
<polygon fill="#63b8ff" stroke="#63b8ff" points="636.08,-945.5 646.08,-942 636.08,-938.5 636.08,-945.5"/>
</a>
</g>
</g>
<!-- Node26 -->
<g id="Node000026" class="node">
<title>Node26</title>
<g id="a_Node000026"><a xlink:href="classediteurpanovisu_1_1GestionnaireInterfaceController.html#a05b3f40caf509ecb5e59d67c175bc5e6" target="_top" xlink:title=" ">
<polygon fill="white" stroke="#666666" points="353.75,-1244 198.25,-1244 198.25,-1212 353.75,-1212 353.75,-1244"/>
<text xml:space="preserve" text-anchor="start" x="206.25" y="-1230.5" font-family="Helvetica,sans-Serif" font-size="10.00">editeurpanovisu.Gestionnaire</text>
<text xml:space="preserve" text-anchor="middle" x="276" y="-1218.5" font-family="Helvetica,sans-Serif" font-size="10.00">InterfaceController.lisFichierShp</text>
</a>
</g>
</g>
<!-- Node1&#45;&gt;Node26 -->
<g id="edge29_Node000001_Node000026" class="edge">
<title>Node1&#45;&gt;Node26</title>
<g id="a_edge29_Node000001_Node000026"><a xlink:title=" ">
<path fill="none" stroke="#63b8ff" d="M92.42,-964.44C128.74,-1016.86 218.96,-1147.1 257.3,-1202.46"/>
<polygon fill="#63b8ff" stroke="#63b8ff" points="254.19,-1204.11 262.77,-1210.34 259.95,-1200.13 254.19,-1204.11"/>
</a>
</g>
</g>
<!-- Node34 -->
<g id="Node000034" class="node">
<title>Node34</title>
<g id="a_Node000034"><a xlink:href="classediteurpanovisu_1_1GestionnaireInterfaceController.html#a75c8e5eea4a88800e61e8402a70ab997" target="_top" xlink:title=" ">
<polygon fill="white" stroke="#666666" points="364.25,-528 187.75,-528 187.75,-484 364.25,-484 364.25,-528"/>
<text xml:space="preserve" text-anchor="start" x="195.75" y="-514.5" font-family="Helvetica,sans-Serif" font-size="10.00">editeurpanovisu.Gestionnaire</text>
<text xml:space="preserve" text-anchor="start" x="195.75" y="-502.5" font-family="Helvetica,sans-Serif" font-size="10.00">InterfaceController.setiNombreZones</text>
<text xml:space="preserve" text-anchor="middle" x="276" y="-490.5" font-family="Helvetica,sans-Serif" font-size="10.00">BarrePersonnalisee</text>
</a>
</g>
</g>
<!-- Node1&#45;&gt;Node34 -->
<g id="edge38_Node000001_Node000034" class="edge">
<title>Node1&#45;&gt;Node34</title>
<g id="a_edge38_Node000001_Node000034"><a xlink:title=" ">
<path fill="none" stroke="#63b8ff" d="M76.25,-919.78C75.6,-852.72 82.84,-649.99 187.75,-537 188.12,-536.6 188.49,-536.21 188.87,-535.82"/>
<polygon fill="#63b8ff" stroke="#63b8ff" points="191.07,-538.55 196.4,-529.39 186.52,-533.23 191.07,-538.55"/>
</a>
</g>
</g>
<!-- Node3 -->
<g id="Node000003" class="node">
<title>Node3</title>
<g id="a_Node000003"><a xlink:href="classediteurpanovisu_1_1GestionnaireInterfaceController.html#a887c3df8e9a5b08d8dd75d3d6cea4f0e" target="_top" xlink:title=" ">
<polygon fill="white" stroke="#666666" points="576.75,-714 412.25,-714 412.25,-670 576.75,-670 576.75,-714"/>
<text xml:space="preserve" text-anchor="start" x="420.25" y="-700.5" font-family="Helvetica,sans-Serif" font-size="10.00">editeurpanovisu.Gestionnaire</text>
<text xml:space="preserve" text-anchor="start" x="420.25" y="-688.5" font-family="Helvetica,sans-Serif" font-size="10.00">InterfaceController.changeCouleur</text>
<text xml:space="preserve" text-anchor="middle" x="494.5" y="-676.5" font-family="Helvetica,sans-Serif" font-size="10.00">BarrePersonnalisee</text>
</a>
</g>
</g>
<!-- Node2&#45;&gt;Node3 -->
<g id="edge2_Node000002_Node000003" class="edge">
<title>Node2&#45;&gt;Node3</title>
<g id="a_edge2_Node000002_Node000003"><a xlink:title=" ">
<path fill="none" stroke="#63b8ff" d="M301.32,-590.19C325.08,-610.88 362.99,-641.43 400.25,-661 402.92,-662.4 405.66,-663.76 408.46,-665.07"/>
<polygon fill="#63b8ff" stroke="#63b8ff" points="406.83,-668.18 417.39,-669 409.65,-661.77 406.83,-668.18"/>
</a>
</g>
</g>
<!-- Node4 -->
<g id="Node000004" class="node">
<title>Node4</title>
<g id="a_Node000004"><a xlink:href="classediteurpanovisu_1_1GestionnaireInterfaceController.html#ab9746d4365e9a97b21e98192b136c9b1" target="_top" xlink:title=" ">
<polygon fill="white" stroke="#666666" points="834.25,-866 624.75,-866 624.75,-822 834.25,-822 834.25,-866"/>
<text xml:space="preserve" text-anchor="start" x="632.75" y="-852.5" font-family="Helvetica,sans-Serif" font-size="10.00">editeurpanovisu.Gestionnaire</text>
<text xml:space="preserve" text-anchor="start" x="632.75" y="-840.5" font-family="Helvetica,sans-Serif" font-size="10.00">InterfaceController.getWiBarrePersonnalisee</text>
<text xml:space="preserve" text-anchor="middle" x="729.5" y="-828.5" font-family="Helvetica,sans-Serif" font-size="10.00">Couleur</text>
</a>
</g>
</g>
<!-- Node2&#45;&gt;Node4 -->
<g id="edge24_Node000002_Node000004" class="edge">
<title>Node2&#45;&gt;Node4</title>
<g id="a_edge24_Node000002_Node000004"><a xlink:title=" ">
<path fill="none" stroke="#63b8ff" d="M278.94,-590.15C285.09,-645.18 309.52,-787.89 400.25,-847 472.09,-893.8 572.87,-884.56 643.75,-868.98"/>
<polygon fill="#63b8ff" stroke="#63b8ff" points="644.42,-872.41 653.39,-866.77 642.86,-865.59 644.42,-872.41"/>
</a>
</g>
</g>
<!-- Node9 -->
<g id="Node000009" class="node">
<title>Node9</title>
<g id="a_Node000009"><a xlink:href="classediteurpanovisu_1_1GestionnaireInterfaceController.html#a456a8e41f8025891190ff155226fea19" target="_top" xlink:title=" ">
<polygon fill="white" stroke="#666666" points="572.25,-1002 416.75,-1002 416.75,-970 572.25,-970 572.25,-1002"/>
<text xml:space="preserve" text-anchor="start" x="424.75" y="-988.5" font-family="Helvetica,sans-Serif" font-size="10.00">editeurpanovisu.Gestionnaire</text>
<text xml:space="preserve" text-anchor="middle" x="494.5" y="-976.5" font-family="Helvetica,sans-Serif" font-size="10.00">InterfaceController.chercheZone</text>
</a>
</g>
</g>
<!-- Node2&#45;&gt;Node9 -->
<g id="edge8_Node000002_Node000009" class="edge">
<title>Node2&#45;&gt;Node9</title>
<g id="a_edge8_Node000002_Node000009"><a xlink:title=" ">
<path fill="none" stroke="#63b8ff" d="M280.14,-590.23C289.35,-648.99 320.84,-811.27 400.25,-918 413.97,-936.45 434.13,-952.02 452.2,-963.59"/>
<polygon fill="#63b8ff" stroke="#63b8ff" points="450.32,-966.54 460.67,-968.8 453.99,-960.58 450.32,-966.54"/>
</a>
</g>
</g>
<!-- Node2&#45;&gt;Node11 -->
<g id="edge25_Node000002_Node000011" class="edge">
<title>Node2&#45;&gt;Node11</title>
<g id="a_edge25_Node000002_Node000011"><a xlink:title=" ">
<path fill="none" stroke="#63b8ff" d="M278.76,-590.14C284.57,-647.51 308.42,-801.83 400.25,-878 418.43,-893.08 546.11,-914.84 636.75,-928.71"/>
<polygon fill="#63b8ff" stroke="#63b8ff" points="635.97,-932.13 646.39,-930.17 637.03,-925.21 635.97,-932.13"/>
</a>
</g>
</g>
<!-- Node13 -->
<g id="Node000013" class="node">
<title>Node13</title>
<g id="a_Node000013"><a xlink:href="classediteurpanovisu_1_1GestionnaireInterfaceController.html#a3beec9292296c279afdcdc3796371eae" target="_top" xlink:title=" ">
<polygon fill="white" stroke="#666666" points="579,-168 410,-168 410,-124 579,-124 579,-168"/>
<text xml:space="preserve" text-anchor="start" x="418" y="-154.5" font-family="Helvetica,sans-Serif" font-size="10.00">editeurpanovisu.Gestionnaire</text>
<text xml:space="preserve" text-anchor="start" x="418" y="-142.5" font-family="Helvetica,sans-Serif" font-size="10.00">InterfaceController.getOffsetXBarre</text>
<text xml:space="preserve" text-anchor="middle" x="494.5" y="-130.5" font-family="Helvetica,sans-Serif" font-size="10.00">Personnalisee</text>
</a>
</g>
</g>
<!-- Node2&#45;&gt;Node13 -->
<g id="edge12_Node000002_Node000013" class="edge">
<title>Node2&#45;&gt;Node13</title>
<g id="a_edge12_Node000002_Node000013"><a xlink:title=" ">
<path fill="none" stroke="#63b8ff" d="M351.65,-548.76C356.39,-545.44 360.68,-541.56 364.25,-537 463.41,-410.42 299.8,-302.56 400.25,-177 400.68,-176.46 401.13,-175.93 401.58,-175.4"/>
<polygon fill="#63b8ff" stroke="#63b8ff" points="403.73,-178.19 408.55,-168.76 398.9,-173.12 403.73,-178.19"/>
</a>
</g>
</g>
<!-- Node14 -->
<g id="Node000014" class="node">
<title>Node14</title>
<g id="a_Node000014"><a xlink:href="classediteurpanovisu_1_1GestionnaireInterfaceController.html#aa085a8c03478eaf03cfbce9ba5a04597" target="_top" xlink:title=" ">
<polygon fill="white" stroke="#666666" points="579,-106 410,-106 410,-62 579,-62 579,-106"/>
<text xml:space="preserve" text-anchor="start" x="418" y="-92.5" font-family="Helvetica,sans-Serif" font-size="10.00">editeurpanovisu.Gestionnaire</text>
<text xml:space="preserve" text-anchor="start" x="418" y="-80.5" font-family="Helvetica,sans-Serif" font-size="10.00">InterfaceController.getOffsetYBarre</text>
<text xml:space="preserve" text-anchor="middle" x="494.5" y="-68.5" font-family="Helvetica,sans-Serif" font-size="10.00">Personnalisee</text>
</a>
</g>
</g>
<!-- Node2&#45;&gt;Node14 -->
<g id="edge13_Node000002_Node000014" class="edge">
<title>Node2&#45;&gt;Node14</title>
<g id="a_edge13_Node000002_Node000014"><a xlink:title=" ">
<path fill="none" stroke="#63b8ff" d="M351.73,-548.82C356.45,-545.49 360.71,-541.58 364.25,-537 421.75,-462.49 341.99,-188.92 400.25,-115 400.68,-114.46 401.12,-113.92 401.57,-113.4"/>
<polygon fill="#63b8ff" stroke="#63b8ff" points="403.72,-116.18 408.5,-106.72 398.87,-111.13 403.72,-116.18"/>
</a>
</g>
</g>
<!-- Node15 -->
<g id="Node000015" class="node">
<title>Node15</title>
<g id="a_Node000015"><a xlink:href="classediteurpanovisu_1_1GestionnaireInterfaceController.html#a0fe16fbbd8f752d78d7fafde902c4502" target="_top" xlink:title=" ">
<polygon fill="white" stroke="#666666" points="578.62,-44 410.38,-44 410.38,0 578.62,0 578.62,-44"/>
<text xml:space="preserve" text-anchor="start" x="418.38" y="-30.5" font-family="Helvetica,sans-Serif" font-size="10.00">editeurpanovisu.Gestionnaire</text>
<text xml:space="preserve" text-anchor="start" x="418.38" y="-18.5" font-family="Helvetica,sans-Serif" font-size="10.00">InterfaceController.getStrAideBarre</text>
<text xml:space="preserve" text-anchor="middle" x="494.5" y="-6.5" font-family="Helvetica,sans-Serif" font-size="10.00">Personnalisee</text>
</a>
</g>
</g>
<!-- Node2&#45;&gt;Node15 -->
<g id="edge14_Node000002_Node000015" class="edge">
<title>Node2&#45;&gt;Node15</title>
<g id="a_edge14_Node000002_Node000015"><a xlink:title=" ">
<path fill="none" stroke="#63b8ff" d="M351.78,-548.86C356.49,-545.52 360.74,-541.6 364.25,-537 429.68,-451.26 333.95,-138.07 400.25,-53 400.78,-52.32 401.33,-51.65 401.89,-51"/>
<polygon fill="#63b8ff" stroke="#63b8ff" points="404.03,-53.8 408.85,-44.36 399.19,-48.73 404.03,-53.8"/>
</a>
</g>
</g>
<!-- Node16 -->
<g id="Node000016" class="node">
<title>Node16</title>
<g id="a_Node000016"><a xlink:href="classediteurpanovisu_1_1GestionnaireInterfaceController.html#a4dc29749745d950d45ab72c332e93f56" target="_top" xlink:title=" ">
<polygon fill="white" stroke="#666666" points="577.12,-838 411.88,-838 411.88,-794 577.12,-794 577.12,-838"/>
<text xml:space="preserve" text-anchor="start" x="419.88" y="-824.5" font-family="Helvetica,sans-Serif" font-size="10.00">editeurpanovisu.Gestionnaire</text>
<text xml:space="preserve" text-anchor="start" x="419.88" y="-812.5" font-family="Helvetica,sans-Serif" font-size="10.00">InterfaceController.getStrInfoBarre</text>
<text xml:space="preserve" text-anchor="middle" x="494.5" y="-800.5" font-family="Helvetica,sans-Serif" font-size="10.00">Personnalisee</text>
</a>
</g>
</g>
<!-- Node2&#45;&gt;Node16 -->
<g id="edge15_Node000002_Node000016" class="edge">
<title>Node2&#45;&gt;Node16</title>
<g id="a_edge15_Node000002_Node000016"><a xlink:title=" ">
<path fill="none" stroke="#63b8ff" d="M283.65,-590.29C297.82,-634.04 335.13,-731.52 400.25,-785 401.21,-785.79 402.18,-786.55 403.18,-787.3"/>
<polygon fill="#63b8ff" stroke="#63b8ff" points="401.05,-790.09 411.32,-792.68 404.91,-784.25 401.05,-790.09"/>
</a>
</g>
</g>
<!-- Node17 -->
<g id="Node000017" class="node">
<title>Node17</title>
<g id="a_Node000017"><a xlink:href="classediteurpanovisu_1_1GestionnaireInterfaceController.html#a535fe349d3010c9512e5ef9ad24faf1c" target="_top" xlink:title=" ">
<polygon fill="white" stroke="#666666" points="568.12,-776 420.88,-776 420.88,-732 568.12,-732 568.12,-776"/>
<text xml:space="preserve" text-anchor="start" x="428.88" y="-762.5" font-family="Helvetica,sans-Serif" font-size="10.00">editeurpanovisu.Gestionnaire</text>
<text xml:space="preserve" text-anchor="start" x="428.88" y="-750.5" font-family="Helvetica,sans-Serif" font-size="10.00">InterfaceController.getStrPlein</text>
<text xml:space="preserve" text-anchor="middle" x="494.5" y="-738.5" font-family="Helvetica,sans-Serif" font-size="10.00">EcranBarrePersonnalisee</text>
</a>
</g>
</g>
<!-- Node2&#45;&gt;Node17 -->
<g id="edge16_Node000002_Node000017" class="edge">
<title>Node2&#45;&gt;Node17</title>
<g id="a_edge16_Node000002_Node000017"><a xlink:title=" ">
<path fill="none" stroke="#63b8ff" d="M289.09,-590.38C308.3,-623.94 348.96,-687.16 400.25,-723 403.49,-725.27 406.92,-727.38 410.46,-729.34"/>
<polygon fill="#63b8ff" stroke="#63b8ff" points="408.85,-732.45 419.35,-733.82 411.99,-726.2 408.85,-732.45"/>
</a>
</g>
</g>
<!-- Node18 -->
<g id="Node000018" class="node">
<title>Node18</title>
<g id="a_Node000018"><a xlink:href="classediteurpanovisu_1_1GestionnaireInterfaceController.html#af3d65b631cfeebe0d404798677a607a1" target="_top" xlink:title=" ">
<polygon fill="white" stroke="#666666" points="574.88,-652 414.12,-652 414.12,-608 574.88,-608 574.88,-652"/>
<text xml:space="preserve" text-anchor="start" x="422.12" y="-638.5" font-family="Helvetica,sans-Serif" font-size="10.00">editeurpanovisu.Gestionnaire</text>
<text xml:space="preserve" text-anchor="start" x="422.12" y="-626.5" font-family="Helvetica,sans-Serif" font-size="10.00">InterfaceController.getStrPosition</text>
<text xml:space="preserve" text-anchor="middle" x="494.5" y="-614.5" font-family="Helvetica,sans-Serif" font-size="10.00">BarrePersonnalisee</text>
</a>
</g>
</g>
<!-- Node2&#45;&gt;Node18 -->
<g id="edge17_Node000002_Node000018" class="edge">
<title>Node2&#45;&gt;Node18</title>
<g id="a_edge17_Node000002_Node000018"><a xlink:title=" ">
<path fill="none" stroke="#63b8ff" d="M351.81,-589.42C368.71,-594.26 386.82,-599.45 404.25,-604.44"/>
<polygon fill="#63b8ff" stroke="#63b8ff" points="402.97,-607.72 413.55,-607.1 404.9,-600.99 402.97,-607.72"/>
</a>
</g>
</g>
<!-- Node19 -->
<g id="Node000019" class="node">
<title>Node19</title>
<g id="a_Node000019"><a xlink:href="classediteurpanovisu_1_1GestionnaireInterfaceController.html#aad213d32e70a9615a44560a36da5c799" target="_top" xlink:title=" ">
<polygon fill="white" stroke="#666666" points="574.88,-590 414.12,-590 414.12,-546 574.88,-546 574.88,-590"/>
<text xml:space="preserve" text-anchor="start" x="422.12" y="-576.5" font-family="Helvetica,sans-Serif" font-size="10.00">editeurpanovisu.Gestionnaire</text>
<text xml:space="preserve" text-anchor="start" x="422.12" y="-564.5" font-family="Helvetica,sans-Serif" font-size="10.00">InterfaceController.getStrPosition</text>
<text xml:space="preserve" text-anchor="middle" x="494.5" y="-552.5" font-family="Helvetica,sans-Serif" font-size="10.00">Vignettes</text>
</a>
</g>
</g>
<!-- Node2&#45;&gt;Node19 -->
<g id="edge18_Node000002_Node000019" class="edge">
<title>Node2&#45;&gt;Node19</title>
<g id="a_edge18_Node000002_Node000019"><a xlink:title=" ">
<path fill="none" stroke="#63b8ff" d="M351.81,-568C368.25,-568 385.84,-568 402.83,-568"/>
<polygon fill="#63b8ff" stroke="#63b8ff" points="402.38,-571.5 412.38,-568 402.38,-564.5 402.38,-571.5"/>
</a>
</g>
</g>
<!-- Node20 -->
<g id="Node000020" class="node">
<title>Node20</title>
<g id="a_Node000020"><a xlink:href="classediteurpanovisu_1_1GestionnaireInterfaceController.html#a6de224e4718885cec40b38bf06bc760b" target="_top" xlink:title=" ">
<polygon fill="white" stroke="#666666" points="575.62,-528 413.38,-528 413.38,-484 575.62,-484 575.62,-528"/>
<text xml:space="preserve" text-anchor="start" x="421.38" y="-514.5" font-family="Helvetica,sans-Serif" font-size="10.00">editeurpanovisu.Gestionnaire</text>
<text xml:space="preserve" text-anchor="start" x="421.38" y="-502.5" font-family="Helvetica,sans-Serif" font-size="10.00">InterfaceController.getStrRotation</text>
<text xml:space="preserve" text-anchor="middle" x="494.5" y="-490.5" font-family="Helvetica,sans-Serif" font-size="10.00">BarrePersonnalisee</text>
</a>
</g>
</g>
<!-- Node2&#45;&gt;Node20 -->
<g id="edge19_Node000002_Node000020" class="edge">
<title>Node2&#45;&gt;Node20</title>
<g id="a_edge19_Node000002_Node000020"><a xlink:title=" ">
<path fill="none" stroke="#63b8ff" d="M351.81,-546.58C368.71,-541.74 386.82,-536.55 404.25,-531.56"/>
<polygon fill="#63b8ff" stroke="#63b8ff" points="404.9,-535.01 413.55,-528.9 402.97,-528.28 404.9,-535.01"/>
</a>
</g>
</g>
<!-- Node21 -->
<g id="Node000021" class="node">
<title>Node21</title>
<g id="a_Node000021"><a xlink:href="classediteurpanovisu_1_1GestionnaireInterfaceController.html#a980b8c33a8f5de65866d83e9bae36eb3" target="_top" xlink:title=" ">
<polygon fill="white" stroke="#666666" points="571.12,-466 417.88,-466 417.88,-422 571.12,-422 571.12,-466"/>
<text xml:space="preserve" text-anchor="start" x="425.88" y="-452.5" font-family="Helvetica,sans-Serif" font-size="10.00">editeurpanovisu.Gestionnaire</text>
<text xml:space="preserve" text-anchor="start" x="425.88" y="-440.5" font-family="Helvetica,sans-Serif" font-size="10.00">InterfaceController.getStrSouris</text>
<text xml:space="preserve" text-anchor="middle" x="494.5" y="-428.5" font-family="Helvetica,sans-Serif" font-size="10.00">BarrePersonnalisee</text>
</a>
</g>
</g>
<!-- Node2&#45;&gt;Node21 -->
<g id="edge20_Node000002_Node000021" class="edge">
<title>Node2&#45;&gt;Node21</title>
<g id="a_edge20_Node000002_Node000021"><a xlink:title=" ">
<path fill="none" stroke="#63b8ff" d="M351.84,-545.63C356.23,-543.05 360.42,-540.18 364.25,-537 388.76,-516.64 375.53,-495.11 400.25,-475 402.65,-473.05 405.18,-471.22 407.8,-469.5"/>
<polygon fill="#63b8ff" stroke="#63b8ff" points="409.47,-472.58 416.37,-464.53 405.96,-466.52 409.47,-472.58"/>
</a>
</g>
</g>
<!-- Node22 -->
<g id="Node000022" class="node">
<title>Node22</title>
<g id="a_Node000022"><a xlink:href="classediteurpanovisu_1_1GestionnaireInterfaceController.html#a403e20d6e2f1f4eb0d2ba8e8e4edbb40" target="_top" xlink:title=" ">
<polygon fill="white" stroke="#666666" points="575.62,-404 413.38,-404 413.38,-360 575.62,-360 575.62,-404"/>
<text xml:space="preserve" text-anchor="start" x="421.38" y="-390.5" font-family="Helvetica,sans-Serif" font-size="10.00">editeurpanovisu.Gestionnaire</text>
<text xml:space="preserve" text-anchor="start" x="421.38" y="-378.5" font-family="Helvetica,sans-Serif" font-size="10.00">InterfaceController.getStrVisibilite</text>
<text xml:space="preserve" text-anchor="middle" x="494.5" y="-366.5" font-family="Helvetica,sans-Serif" font-size="10.00">BarrePersonnalisee</text>
</a>
</g>
</g>
<!-- Node2&#45;&gt;Node22 -->
<g id="edge21_Node000002_Node000022" class="edge">
<title>Node2&#45;&gt;Node22</title>
<g id="a_edge21_Node000002_Node000022"><a xlink:title=" ">
<path fill="none" stroke="#63b8ff" d="M351.99,-547.2C356.46,-544.24 360.61,-540.86 364.25,-537 403.62,-495.25 360.46,-454.35 400.25,-413 401.43,-411.77 402.67,-410.59 403.94,-409.46"/>
<polygon fill="#63b8ff" stroke="#63b8ff" points="405.89,-412.37 411.75,-403.55 401.66,-406.79 405.89,-412.37"/>
</a>
</g>
</g>
<!-- Node23 -->
<g id="Node000023" class="node">
<title>Node23</title>
<g id="a_Node000023"><a xlink:href="classediteurpanovisu_1_1GestionnaireInterfaceController.html#ad97587fbbedd4a2dcd36f89dc1a35f92" target="_top" xlink:title=" ">
<polygon fill="white" stroke="#666666" points="573.75,-342 415.25,-342 415.25,-298 573.75,-298 573.75,-342"/>
<text xml:space="preserve" text-anchor="start" x="423.25" y="-328.5" font-family="Helvetica,sans-Serif" font-size="10.00">editeurpanovisu.Gestionnaire</text>
<text xml:space="preserve" text-anchor="start" x="423.25" y="-316.5" font-family="Helvetica,sans-Serif" font-size="10.00">InterfaceController.getTailleBarre</text>
<text xml:space="preserve" text-anchor="middle" x="494.5" y="-304.5" font-family="Helvetica,sans-Serif" font-size="10.00">Personnalisee</text>
</a>
</g>
</g>
<!-- Node2&#45;&gt;Node23 -->
<g id="edge22_Node000002_Node000023" class="edge">
<title>Node2&#45;&gt;Node23</title>
<g id="a_edge22_Node000002_Node000023"><a xlink:title=" ">
<path fill="none" stroke="#63b8ff" d="M351.6,-548.12C356.28,-544.94 360.58,-541.27 364.25,-537 419.15,-473.16 344.7,-414.27 400.25,-351 402.12,-348.87 404.14,-346.88 406.29,-345.03"/>
<polygon fill="#63b8ff" stroke="#63b8ff" points="407.9,-348.19 413.89,-339.45 403.76,-342.55 407.9,-348.19"/>
</a>
</g>
</g>
<!-- Node24 -->
<g id="Node000024" class="node">
<title>Node24</title>
<g id="a_Node000024"><a xlink:href="classediteurpanovisu_1_1GestionnaireInterfaceController.html#ad63f4f38da6c32eb88ec59736a236df9" target="_top" xlink:title=" ">
<polygon fill="white" stroke="#666666" points="576.75,-280 412.25,-280 412.25,-236 576.75,-236 576.75,-280"/>
<text xml:space="preserve" text-anchor="start" x="420.25" y="-266.5" font-family="Helvetica,sans-Serif" font-size="10.00">editeurpanovisu.Gestionnaire</text>
<text xml:space="preserve" text-anchor="start" x="420.25" y="-254.5" font-family="Helvetica,sans-Serif" font-size="10.00">InterfaceController.getTailleIcones</text>
<text xml:space="preserve" text-anchor="middle" x="494.5" y="-242.5" font-family="Helvetica,sans-Serif" font-size="10.00">BarrePersonnalisee</text>
</a>
</g>
</g>
<!-- Node2&#45;&gt;Node24 -->
<g id="edge23_Node000002_Node000024" class="edge">
<title>Node2&#45;&gt;Node24</title>
<g id="a_edge23_Node000002_Node000024"><a xlink:title=" ">
<path fill="none" stroke="#63b8ff" d="M351.83,-548.31C356.46,-545.09 360.68,-541.35 364.25,-537 434.87,-450.87 328.75,-374.4 400.25,-289 401.2,-287.86 402.2,-286.76 403.24,-285.7"/>
<polygon fill="#63b8ff" stroke="#63b8ff" points="405.38,-288.47 410.74,-279.33 400.85,-283.14 405.38,-288.47"/>
</a>
</g>
</g>
<!-- Node25 -->
<g id="Node000025" class="node">
<title>Node25</title>
<g id="a_Node000025"><a xlink:href="classediteurpanovisu_1_1GestionnaireInterfaceController.html#a3c94ef30b179b71bceb9669655fdc909" target="_top" xlink:title=" ">
<polygon fill="white" stroke="#666666" points="586.12,-218 402.88,-218 402.88,-186 586.12,-186 586.12,-218"/>
<text xml:space="preserve" text-anchor="start" x="410.88" y="-204.5" font-family="Helvetica,sans-Serif" font-size="10.00">editeurpanovisu.Gestionnaire</text>
<text xml:space="preserve" text-anchor="middle" x="494.5" y="-192.5" font-family="Helvetica,sans-Serif" font-size="10.00">InterfaceController.isbAfficheVignettes</text>
</a>
</g>
</g>
<!-- Node2&#45;&gt;Node25 -->
<g id="edge26_Node000002_Node000025" class="edge">
<title>Node2&#45;&gt;Node25</title>
<g id="a_edge26_Node000002_Node000025"><a xlink:title=" ">
<path fill="none" stroke="#63b8ff" d="M351.97,-548.42C356.57,-545.18 360.75,-541.4 364.25,-537 450.66,-428.5 309.6,-331.99 400.25,-227 400.61,-226.59 400.97,-226.18 401.34,-225.78"/>
<polygon fill="#63b8ff" stroke="#63b8ff" points="403.51,-228.53 408.7,-219.29 398.88,-223.28 403.51,-228.53"/>
</a>
</g>
</g>
<!-- Node3&#45;&gt;Node4 -->
<g id="edge3_Node000003_Node000004" class="edge">
<title>Node3&#45;&gt;Node4</title>
<g id="a_edge3_Node000003_Node000004"><a xlink:title=" ">
<path fill="none" stroke="#63b8ff" d="M574.53,-714.39C579.51,-716.97 584.3,-719.83 588.75,-723 610.18,-738.27 605.83,-751.71 624.75,-770 642.09,-786.76 663.47,-802.66 682.31,-815.4"/>
<polygon fill="#63b8ff" stroke="#63b8ff" points="680.37,-818.31 690.64,-820.92 684.24,-812.48 680.37,-818.31"/>
</a>
</g>
</g>
<!-- Node5 -->
<g id="Node000005" class="node">
<title>Node5</title>
<g id="a_Node000005"><a xlink:href="classediteurpanovisu_1_1GestionnaireInterfaceController.html#a4472332e08bddfe24b5108be90b40c7e" target="_top" xlink:title=" ">
<polygon fill="white" stroke="#666666" points="817.75,-685 641.25,-685 641.25,-641 817.75,-641 817.75,-685"/>
<text xml:space="preserve" text-anchor="start" x="649.25" y="-671.5" font-family="Helvetica,sans-Serif" font-size="10.00">editeurpanovisu.Gestionnaire</text>
<text xml:space="preserve" text-anchor="start" x="649.25" y="-659.5" font-family="Helvetica,sans-Serif" font-size="10.00">InterfaceController.isbCouleurOrigine</text>
<text xml:space="preserve" text-anchor="middle" x="729.5" y="-647.5" font-family="Helvetica,sans-Serif" font-size="10.00">BarrePersonnalisee</text>
</a>
</g>
</g>
<!-- Node3&#45;&gt;Node5 -->
<g id="edge4_Node000003_Node000005" class="edge">
<title>Node3&#45;&gt;Node5</title>
<g id="a_edge4_Node000003_Node000005"><a xlink:title=" ">
<path fill="none" stroke="#63b8ff" d="M576.99,-681.86C594.08,-679.73 612.28,-677.47 629.92,-675.27"/>
<polygon fill="#63b8ff" stroke="#63b8ff" points="630.11,-678.77 639.61,-674.06 629.25,-671.83 630.11,-678.77"/>
</a>
</g>
</g>
<!-- Node6 -->
<g id="Node000006" class="node">
<title>Node6</title>
<g id="a_Node000006"><a xlink:href="classediteurpanovisu_1_1GestionnaireInterfaceController.html#ad090e0c38c41588e380e3efbc95ed784" target="_top" xlink:title=" ">
<polygon fill="white" stroke="#666666" points="834.25,-623 624.75,-623 624.75,-579 834.25,-579 834.25,-623"/>
<text xml:space="preserve" text-anchor="start" x="632.75" y="-609.5" font-family="Helvetica,sans-Serif" font-size="10.00">editeurpanovisu.Gestionnaire</text>
<text xml:space="preserve" text-anchor="start" x="632.75" y="-597.5" font-family="Helvetica,sans-Serif" font-size="10.00">InterfaceController.setWiBarrePersonnalisee</text>
<text xml:space="preserve" text-anchor="middle" x="729.5" y="-585.5" font-family="Helvetica,sans-Serif" font-size="10.00">Couleur</text>
</a>
</g>
</g>
<!-- Node3&#45;&gt;Node6 -->
<g id="edge5_Node000003_Node000006" class="edge">
<title>Node3&#45;&gt;Node6</title>
<g id="a_edge5_Node000003_Node000006"><a xlink:title=" ">
<path fill="none" stroke="#63b8ff" d="M570.82,-669.6C577,-666.97 583.06,-664.11 588.75,-661 606.79,-651.16 606.57,-641.56 624.75,-632 627.43,-630.59 630.18,-629.24 632.98,-627.94"/>
<polygon fill="#63b8ff" stroke="#63b8ff" points="634.15,-631.25 641.94,-624.06 631.37,-624.82 634.15,-631.25"/>
</a>
</g>
</g>
<!-- Node7 -->
<g id="Node000007" class="node">
<title>Node7</title>
<g id="a_Node000007"><a xlink:href="leaflet_8js.html#a008d931e56b6fc013061112f26afbffb" target="_top" xlink:title=" ">
<polygon fill="white" stroke="#666666" points="743.9,-761 715.1,-761 715.1,-741 743.9,-741 743.9,-761"/>
<text xml:space="preserve" text-anchor="middle" x="729.5" y="-747.5" font-family="Helvetica,sans-Serif" font-size="10.00">x</text>
</a>
</g>
</g>
<!-- Node3&#45;&gt;Node7 -->
<g id="edge6_Node000003_Node000007" class="edge">
<title>Node3&#45;&gt;Node7</title>
<g id="a_edge6_Node000003_Node000007"><a xlink:title=" ">
<path fill="none" stroke="#63b8ff" d="M562.83,-714.5C582.64,-720.67 604.45,-727.02 624.75,-732 651.36,-738.53 682.31,-743.92 703.43,-747.27"/>
<polygon fill="#63b8ff" stroke="#63b8ff" points="702.71,-750.7 713.13,-748.77 703.78,-743.78 702.71,-750.7"/>
</a>
</g>
</g>
<!-- Node8 -->
<g id="Node000008" class="node">
<title>Node8</title>
<g id="a_Node000008"><a xlink:href="leaflet_8js.html#a9f9b62a373d2bb4624b7ac2df8151435" target="_top" xlink:title=" ">
<polygon fill="white" stroke="#666666" points="743.9,-723 715.1,-723 715.1,-703 743.9,-703 743.9,-723"/>
<text xml:space="preserve" text-anchor="middle" x="729.5" y="-709.5" font-family="Helvetica,sans-Serif" font-size="10.00">y</text>
</a>
</g>
</g>
<!-- Node3&#45;&gt;Node8 -->
<g id="edge7_Node000003_Node000008" class="edge">
<title>Node3&#45;&gt;Node8</title>
<g id="a_edge7_Node000003_Node000008"><a xlink:title=" ">
<path fill="none" stroke="#63b8ff" d="M576.99,-699.34C621.51,-703.36 673.55,-708.05 703.6,-710.76"/>
<polygon fill="#63b8ff" stroke="#63b8ff" points="702.91,-714.21 713.19,-711.62 703.54,-707.24 702.91,-714.21"/>
</a>
</g>
</g>
<!-- Node9&#45;&gt;Node10 -->
<g id="edge9_Node000009_Node000010" class="edge">
<title>Node9&#45;&gt;Node10</title>
<g id="a_edge9_Node000009_Node000010"><a xlink:title=" ">
<path fill="none" stroke="#63b8ff" d="M572.58,-999.16C578.53,-1002.33 584.05,-1006.22 588.75,-1011 634.74,-1057.7 600.79,-1093 624.75,-1154 647.52,-1211.96 684.51,-1274.4 707.62,-1311.03"/>
<polygon fill="#63b8ff" stroke="#63b8ff" points="704.61,-1312.82 712.94,-1319.37 710.52,-1309.06 704.61,-1312.82"/>
</a>
</g>
</g>
<!-- Node9&#45;&gt;Node11 -->
<g id="edge10_Node000009_Node000011" class="edge">
<title>Node9&#45;&gt;Node11</title>
<g id="a_edge10_Node000009_Node000011"><a xlink:title=" ">
<path fill="none" stroke="#63b8ff" d="M572.44,-971.47C592.89,-967.61 615.18,-963.4 636.35,-959.4"/>
<polygon fill="#63b8ff" stroke="#63b8ff" points="636.98,-962.84 646.16,-957.55 635.68,-955.97 636.98,-962.84"/>
</a>
</g>
</g>
<!-- Node12 -->
<g id="Node000012" class="node">
<title>Node12</title>
<g id="a_Node000012"><a xlink:href="leaflet_8js.html#a73aff07b65d7c0b09ccf6b4c4f1b7a9d" target="_top" xlink:title=" ">
<polygon fill="white" stroke="#666666" points="743.9,-1145 715.1,-1145 715.1,-1125 743.9,-1125 743.9,-1145"/>
<text xml:space="preserve" text-anchor="middle" x="729.5" y="-1131.5" font-family="Helvetica,sans-Serif" font-size="10.00">i</text>
</a>
</g>
</g>
<!-- Node9&#45;&gt;Node12 -->
<g id="edge11_Node000009_Node000012" class="edge">
<title>Node9&#45;&gt;Node12</title>
<g id="a_edge11_Node000009_Node000012"><a xlink:title=" ">
<path fill="none" stroke="#63b8ff" d="M569.54,-1002.39C576.19,-1004.89 582.7,-1007.74 588.75,-1011 640.1,-1038.64 688.26,-1088.63 712.38,-1115.93"/>
<polygon fill="#63b8ff" stroke="#63b8ff" points="709.68,-1118.16 718.88,-1123.42 714.97,-1113.58 709.68,-1118.16"/>
</a>
</g>
</g>
<!-- Node26&#45;&gt;Node12 -->
<g id="edge30_Node000026_Node000012" class="edge">
<title>Node26&#45;&gt;Node12</title>
<g id="a_edge30_Node000026_Node000012"><a xlink:title=" ">
<path fill="none" stroke="#63b8ff" d="M320.98,-1244.45C382.88,-1264.95 498.24,-1293.37 588.75,-1259 644.33,-1237.9 691.96,-1183.45 714.53,-1154.22"/>
<polygon fill="#63b8ff" stroke="#63b8ff" points="717.07,-1156.67 720.29,-1146.57 711.48,-1152.46 717.07,-1156.67"/>
</a>
</g>
</g>
<!-- Node27 -->
<g id="Node000027" class="node">
<title>Node27</title>
<g id="a_Node000027"><a xlink:href="classediteurpanovisu_1_1GestionnaireInterfaceController.html#aaa0bdb6891045cb1670f0bea0f36b7fb" target="_top" xlink:title=" ">
<polygon fill="white" stroke="#666666" points="578.62,-1250 410.38,-1250 410.38,-1206 578.62,-1206 578.62,-1250"/>
<text xml:space="preserve" text-anchor="start" x="418.38" y="-1236.5" font-family="Helvetica,sans-Serif" font-size="10.00">editeurpanovisu.Gestionnaire</text>
<text xml:space="preserve" text-anchor="start" x="418.38" y="-1224.5" font-family="Helvetica,sans-Serif" font-size="10.00">InterfaceController.setStrAideBarre</text>
<text xml:space="preserve" text-anchor="middle" x="494.5" y="-1212.5" font-family="Helvetica,sans-Serif" font-size="10.00">Personnalisee</text>
</a>
</g>
</g>
<!-- Node26&#45;&gt;Node27 -->
<g id="edge31_Node000026_Node000027" class="edge">
<title>Node26&#45;&gt;Node27</title>
<g id="a_edge31_Node000026_Node000027"><a xlink:title=" ">
<path fill="none" stroke="#63b8ff" d="M354.24,-1228C368.66,-1228 383.88,-1228 398.76,-1228"/>
<polygon fill="#63b8ff" stroke="#63b8ff" points="398.53,-1231.5 408.53,-1228 398.53,-1224.5 398.53,-1231.5"/>
</a>
</g>
</g>
<!-- Node28 -->
<g id="Node000028" class="node">
<title>Node28</title>
<g id="a_Node000028"><a xlink:href="classediteurpanovisu_1_1GestionnaireInterfaceController.html#a130e1bdc0edfb913798f1448583397a3" target="_top" xlink:title=" ">
<polygon fill="white" stroke="#666666" points="588.75,-1188 400.25,-1188 400.25,-1144 588.75,-1144 588.75,-1188"/>
<text xml:space="preserve" text-anchor="start" x="408.25" y="-1174.5" font-family="Helvetica,sans-Serif" font-size="10.00">editeurpanovisu.Gestionnaire</text>
<text xml:space="preserve" text-anchor="start" x="408.25" y="-1162.5" font-family="Helvetica,sans-Serif" font-size="10.00">InterfaceController.setStrDeplacements</text>
<text xml:space="preserve" text-anchor="middle" x="494.5" y="-1150.5" font-family="Helvetica,sans-Serif" font-size="10.00">BarrePersonnalisee</text>
</a>
</g>
</g>
<!-- Node26&#45;&gt;Node28 -->
<g id="edge32_Node000026_Node000028" class="edge">
<title>Node26&#45;&gt;Node28</title>
<g id="a_edge32_Node000026_Node000028"><a xlink:title=" ">
<path fill="none" stroke="#63b8ff" d="M334.45,-1211.55C355.75,-1205.45 380.45,-1198.37 403.94,-1191.65"/>
<polygon fill="#63b8ff" stroke="#63b8ff" points="404.89,-1195.02 413.54,-1188.9 402.96,-1188.29 404.89,-1195.02"/>
</a>
</g>
</g>
<!-- Node29 -->
<g id="Node000029" class="node">
<title>Node29</title>
<g id="a_Node000029"><a xlink:href="classediteurpanovisu_1_1GestionnaireInterfaceController.html#afed2f40362411d3df7e6737620ac7abd" target="_top" xlink:title=" ">
<polygon fill="white" stroke="#666666" points="577.12,-1126 411.88,-1126 411.88,-1082 577.12,-1082 577.12,-1126"/>
<text xml:space="preserve" text-anchor="start" x="419.88" y="-1112.5" font-family="Helvetica,sans-Serif" font-size="10.00">editeurpanovisu.Gestionnaire</text>
<text xml:space="preserve" text-anchor="start" x="419.88" y="-1100.5" font-family="Helvetica,sans-Serif" font-size="10.00">InterfaceController.setStrInfoBarre</text>
<text xml:space="preserve" text-anchor="middle" x="494.5" y="-1088.5" font-family="Helvetica,sans-Serif" font-size="10.00">Personnalisee</text>
</a>
</g>
</g>
<!-- Node26&#45;&gt;Node29 -->
<g id="edge33_Node000026_Node000029" class="edge">
<title>Node26&#45;&gt;Node29</title>
<g id="a_edge33_Node000026_Node000029"><a xlink:title=" ">
<path fill="none" stroke="#63b8ff" d="M294.52,-1211.81C317.34,-1191.46 359.2,-1156.57 400.25,-1135 402.92,-1133.6 405.66,-1132.24 408.46,-1130.93"/>
<polygon fill="#63b8ff" stroke="#63b8ff" points="409.65,-1134.23 417.39,-1127 406.83,-1127.82 409.65,-1134.23"/>
</a>
</g>
</g>
<!-- Node30 -->
<g id="Node000030" class="node">
<title>Node30</title>
<g id="a_Node000030"><a xlink:href="classediteurpanovisu_1_1GestionnaireInterfaceController.html#a70d79a5e7137cbad0e20ee5bc8295ab4" target="_top" xlink:title=" ">
<polygon fill="white" stroke="#666666" points="568.12,-1064 420.88,-1064 420.88,-1020 568.12,-1020 568.12,-1064"/>
<text xml:space="preserve" text-anchor="start" x="428.88" y="-1050.5" font-family="Helvetica,sans-Serif" font-size="10.00">editeurpanovisu.Gestionnaire</text>
<text xml:space="preserve" text-anchor="start" x="428.88" y="-1038.5" font-family="Helvetica,sans-Serif" font-size="10.00">InterfaceController.setStrPlein</text>
<text xml:space="preserve" text-anchor="middle" x="494.5" y="-1026.5" font-family="Helvetica,sans-Serif" font-size="10.00">EcranBarrePersonnalisee</text>
</a>
</g>
</g>
<!-- Node26&#45;&gt;Node30 -->
<g id="edge34_Node000026_Node000030" class="edge">
<title>Node26&#45;&gt;Node30</title>
<g id="a_edge34_Node000026_Node000030"><a xlink:title=" ">
<path fill="none" stroke="#63b8ff" d="M285.57,-1211.85C302.99,-1180.52 345.58,-1111.21 400.25,-1073 403.49,-1070.73 406.92,-1068.62 410.46,-1066.66"/>
<polygon fill="#63b8ff" stroke="#63b8ff" points="411.99,-1069.8 419.35,-1062.18 408.85,-1063.55 411.99,-1069.8"/>
</a>
</g>
</g>
<!-- Node31 -->
<g id="Node000031" class="node">
<title>Node31</title>
<g id="a_Node000031"><a xlink:href="classediteurpanovisu_1_1GestionnaireInterfaceController.html#ac2dda4cbbcfc8092668620d88995f902" target="_top" xlink:title=" ">
<polygon fill="white" stroke="#666666" points="575.62,-1474 413.38,-1474 413.38,-1430 575.62,-1430 575.62,-1474"/>
<text xml:space="preserve" text-anchor="start" x="421.38" y="-1460.5" font-family="Helvetica,sans-Serif" font-size="10.00">editeurpanovisu.Gestionnaire</text>
<text xml:space="preserve" text-anchor="start" x="421.38" y="-1448.5" font-family="Helvetica,sans-Serif" font-size="10.00">InterfaceController.setStrRotation</text>
<text xml:space="preserve" text-anchor="middle" x="494.5" y="-1436.5" font-family="Helvetica,sans-Serif" font-size="10.00">BarrePersonnalisee</text>
</a>
</g>
</g>
<!-- Node26&#45;&gt;Node31 -->
<g id="edge35_Node000026_Node000031" class="edge">
<title>Node26&#45;&gt;Node31</title>
<g id="a_edge35_Node000026_Node000031"><a xlink:title=" ">
<path fill="none" stroke="#63b8ff" d="M283,-1244.37C297.38,-1281.37 337.36,-1372.02 400.25,-1421 401.39,-1421.88 402.55,-1422.74 403.73,-1423.58"/>
<polygon fill="#63b8ff" stroke="#63b8ff" points="401.62,-1426.38 411.95,-1428.73 405.33,-1420.45 401.62,-1426.38"/>
</a>
</g>
</g>
<!-- Node32 -->
<g id="Node000032" class="node">
<title>Node32</title>
<g id="a_Node000032"><a xlink:href="classediteurpanovisu_1_1GestionnaireInterfaceController.html#ac9f1fe98a370e602d367989910ea6860" target="_top" xlink:title=" ">
<polygon fill="white" stroke="#666666" points="571.12,-1412 417.88,-1412 417.88,-1368 571.12,-1368 571.12,-1412"/>
<text xml:space="preserve" text-anchor="start" x="425.88" y="-1398.5" font-family="Helvetica,sans-Serif" font-size="10.00">editeurpanovisu.Gestionnaire</text>
<text xml:space="preserve" text-anchor="start" x="425.88" y="-1386.5" font-family="Helvetica,sans-Serif" font-size="10.00">InterfaceController.setStrSouris</text>
<text xml:space="preserve" text-anchor="middle" x="494.5" y="-1374.5" font-family="Helvetica,sans-Serif" font-size="10.00">BarrePersonnalisee</text>
</a>
</g>
</g>
<!-- Node26&#45;&gt;Node32 -->
<g id="edge36_Node000026_Node000032" class="edge">
<title>Node26&#45;&gt;Node32</title>
<g id="a_edge36_Node000026_Node000032"><a xlink:title=" ">
<path fill="none" stroke="#63b8ff" d="M288,-1244.13C307.5,-1271.56 350.77,-1327.4 400.25,-1359 402.64,-1360.53 405.11,-1361.99 407.65,-1363.38"/>
<polygon fill="#63b8ff" stroke="#63b8ff" points="405.83,-1366.38 416.34,-1367.76 408.98,-1360.13 405.83,-1366.38"/>
</a>
</g>
</g>
<!-- Node33 -->
<g id="Node000033" class="node">
<title>Node33</title>
<g id="a_Node000033"><a xlink:href="classediteurpanovisu_1_1GestionnaireInterfaceController.html#a6af37e045ae9a06acad24baeb9a7b315" target="_top" xlink:title=" ">
<polygon fill="white" stroke="#666666" points="581.25,-1350 407.75,-1350 407.75,-1306 581.25,-1306 581.25,-1350"/>
<text xml:space="preserve" text-anchor="start" x="415.75" y="-1336.5" font-family="Helvetica,sans-Serif" font-size="10.00">editeurpanovisu.Gestionnaire</text>
<text xml:space="preserve" text-anchor="start" x="415.75" y="-1324.5" font-family="Helvetica,sans-Serif" font-size="10.00">InterfaceController.setStrZoomBarre</text>
<text xml:space="preserve" text-anchor="middle" x="494.5" y="-1312.5" font-family="Helvetica,sans-Serif" font-size="10.00">Personnalisee</text>
</a>
</g>
</g>
<!-- Node26&#45;&gt;Node33 -->
<g id="edge37_Node000026_Node000033" class="edge">
<title>Node26&#45;&gt;Node33</title>
<g id="a_edge37_Node000026_Node000033"><a xlink:title=" ">
<path fill="none" stroke="#63b8ff" d="M306.43,-1244.46C331.12,-1257.97 367.5,-1277.23 400.25,-1292 407.24,-1295.15 414.59,-1298.29 421.98,-1301.32"/>
<polygon fill="#63b8ff" stroke="#63b8ff" points="420.42,-1304.46 431,-1304.96 423.04,-1297.97 420.42,-1304.46"/>
</a>
</g>
</g>
</g>
</svg>

<g id="navigator" transform="translate(0 0)" fill="#404254">
  <rect fill="#f2f5e9" fill-opacity="0.5" stroke="#606060" stroke-width=".5" x="0" y="0" width="60" height="60"/>
  <use id="zoomplus" xlink:href="#zoomPlus" x="17" y="9" onmousedown="handleZoom(evt,'in')"/>
  <use id="zoomminus" xlink:href="#zoomMin" x="42" y="9" onmousedown="handleZoom(evt,'out')"/>
  <use id="reset" xlink:href="#resetDef" x="30" y="36" onmousedown="handleReset()"/>
   <use id="arrowup" xlink:href="#arrowUp" x="0" y="0" onmousedown="handlePan(0,-1)"/>
  <use id="arrowright" xlink:href="#arrowRight" x="0" y="0" onmousedown="handlePan(1,0)"/>
  <use id="arrowdown" xlink:href="#arrowDown" x="0" y="0" onmousedown="handlePan(0,1)"/>
  <use id="arrowleft" xlink:href="#arrowLeft" x="0" y="0" onmousedown="handlePan(-1,0)"/>
</g>
<svg viewBox="0 0 15 15" width="100%" height="30px" preserveAspectRatio="xMaxYMin meet">
 <g id="arrow_out" transform="scale(0.3 0.3)">
  <a xlink:href="classediteurpanovisu_1_1GestionnaireInterfaceController_a6c3ac6b8d3a669f9952954530cc27e52_cgraph_org.svg" target="_base">
   <rect id="button" ry="5" rx="5" y="6" x="6" height="38" width="38"
        fill="#f2f5e9" fill-opacity="0.5" stroke="#606060" stroke-width="1.0"/>
   <path id="arrow"
     d="M 11.500037,31.436501 C 11.940474,20.09759 22.043105,11.32322 32.158766,21.979434 L 37.068811,17.246167 C 37.068811,17.246167 37.088388,32 37.088388,32 L 22.160133,31.978069 C 22.160133,31.978069 26.997745,27.140456 26.997745,27.140456 C 18.528582,18.264221 13.291696,25.230495 11.500037,31.436501 z"
     style="fill:#404040;"/>
  </a>
 </g>
</svg>

<style type='text/css'>
<![CDATA[
[data-mouse-over-selected='false'] { opacity: 0.7; }
[data-mouse-over-selected='true']  { opacity: 1.0; }
]]>
</style>
<script type="application/ecmascript"><![CDATA[
document.addEventListener('DOMContentLoaded', (event) => {
  highlightEdges();
  highlightAdjacentNodes();
});
]]></script>
</svg>
