<?xml version="1.0" encoding="UTF-8" standalone="no"?>
<!DOCTYPE svg PUBLIC "-//W3C//DTD SVG 1.1//EN"
 "http://www.w3.org/Graphics/SVG/1.1/DTD/svg11.dtd">
<!-- Generated by graphviz version 13.1.2 (20250808.2320)
 -->
<!-- Title: editeurpanovisu.EditeurPanovisu.clickBtnValidePano Pages: 1 -->
<svg width="403pt" height="228pt"
 viewBox="0.00 0.00 403.00 228.00" xmlns="http://www.w3.org/2000/svg" xmlns:xlink="http://www.w3.org/1999/xlink">

<svg id="main" version="1.1" xmlns="http://www.w3.org/2000/svg" xmlns:xlink="http://www.w3.org/1999/xlink" xml:space="preserve">

<style type="text/css"><![CDATA[
.node, .edge {opacity: 0.7;}
.node.selected, .edge.selected {opacity: 1;}
.edge:hover path { stroke: red; }
.edge:hover polygon { stroke: red; fill: red; }
]]></style>
<script type="application/ecmascript" xlink:href="svg.min.js"/>
<svg id="graph" class="graph">
<g id="graph0" class="graph" transform="scale(1 1) rotate(0) translate(4 224)">
<title>editeurpanovisu.EditeurPanovisu.clickBtnValidePano</title>
<!-- Node1 -->
<g id="Node000001" class="node">
<title>Node1</title>
<g id="a_Node000001"><a xlink:title=" ">
<polygon fill="#999999" stroke="#666666" points="181.75,-120 0,-120 0,-88 181.75,-88 181.75,-120"/>
<text xml:space="preserve" text-anchor="start" x="8" y="-106.5" font-family="Helvetica,sans-Serif" font-size="10.00">editeurpanovisu.EditeurPanovisu.click</text>
<text xml:space="preserve" text-anchor="middle" x="90.88" y="-94.5" font-family="Helvetica,sans-Serif" font-size="10.00">BtnValidePano</text>
</a>
</g>
</g>
<!-- Node2 -->
<g id="Node000002" class="node">
<title>Node2</title>
<g id="a_Node000002"><a xlink:href="classediteurpanovisu_1_1EditeurPanovisu.html#af28f960b49fa3c90fdf1550b88acca3d" target="_top" xlink:title=" ">
<polygon fill="white" stroke="#666666" points="395,-220 217.75,-220 217.75,-188 395,-188 395,-220"/>
<text xml:space="preserve" text-anchor="start" x="225.75" y="-206.5" font-family="Helvetica,sans-Serif" font-size="10.00">editeurpanovisu.EditeurPanovisu.geti</text>
<text xml:space="preserve" text-anchor="middle" x="306.38" y="-194.5" font-family="Helvetica,sans-Serif" font-size="10.00">PanoActuel</text>
</a>
</g>
</g>
<!-- Node1&#45;&gt;Node2 -->
<g id="edge1_Node000001_Node000002" class="edge">
<title>Node1&#45;&gt;Node2</title>
<g id="a_edge1_Node000001_Node000002"><a xlink:title=" ">
<path fill="none" stroke="#63b8ff" d="M115.02,-120.3C139.56,-136.97 179.92,-162.66 217.75,-179 221.72,-180.71 225.84,-182.35 230.04,-183.9"/>
<polygon fill="#63b8ff" stroke="#63b8ff" points="228.55,-187.09 239.15,-187.08 230.86,-180.48 228.55,-187.09"/>
</a>
</g>
</g>
<!-- Node3 -->
<g id="Node000003" class="node">
<title>Node3</title>
<g id="a_Node000003"><a xlink:href="classediteurpanovisu_1_1EditeurPanovisu.html#a95e78d275440537393c4e23b1d0c42bb" target="_top" xlink:title=" ">
<polygon fill="white" stroke="#666666" points="393.88,-170 218.88,-170 218.88,-138 393.88,-138 393.88,-170"/>
<text xml:space="preserve" text-anchor="start" x="226.88" y="-156.5" font-family="Helvetica,sans-Serif" font-size="10.00">editeurpanovisu.EditeurPanovisu.get</text>
<text xml:space="preserve" text-anchor="middle" x="306.38" y="-144.5" font-family="Helvetica,sans-Serif" font-size="10.00">PanoramiquesProjet</text>
</a>
</g>
</g>
<!-- Node1&#45;&gt;Node3 -->
<g id="edge2_Node000001_Node000003" class="edge">
<title>Node1&#45;&gt;Node3</title>
<g id="a_edge2_Node000001_Node000003"><a xlink:title=" ">
<path fill="none" stroke="#63b8ff" d="M162.08,-120.44C181.87,-125.08 203.57,-130.16 223.96,-134.93"/>
<polygon fill="#63b8ff" stroke="#63b8ff" points="223.12,-138.33 233.66,-137.2 224.72,-131.52 223.12,-138.33"/>
</a>
</g>
</g>
<!-- Node4 -->
<g id="Node000004" class="node">
<title>Node4</title>
<g id="a_Node000004"><a xlink:href="classediteurpanovisu_1_1EditeurPanovisu.html#ab06447aa93b79a9f40b52f86d4b209d9" target="_top" xlink:title=" ">
<polygon fill="white" stroke="#666666" points="393.88,-120 218.88,-120 218.88,-88 393.88,-88 393.88,-120"/>
<text xml:space="preserve" text-anchor="start" x="226.88" y="-106.5" font-family="Helvetica,sans-Serif" font-size="10.00">editeurpanovisu.EditeurPanovisu.get</text>
<text xml:space="preserve" text-anchor="middle" x="306.38" y="-94.5" font-family="Helvetica,sans-Serif" font-size="10.00">ScnPrincipale</text>
</a>
</g>
</g>
<!-- Node1&#45;&gt;Node4 -->
<g id="edge3_Node000001_Node000004" class="edge">
<title>Node1&#45;&gt;Node4</title>
<g id="a_edge3_Node000001_Node000004"><a xlink:title=" ">
<path fill="none" stroke="#63b8ff" d="M182.11,-104C190.4,-104 198.83,-104 207.19,-104"/>
<polygon fill="#63b8ff" stroke="#63b8ff" points="207.01,-107.5 217.01,-104 207.01,-100.5 207.01,-107.5"/>
</a>
</g>
</g>
<!-- Node5 -->
<g id="Node000005" class="node">
<title>Node5</title>
<g id="a_Node000005"><a xlink:href="leaflet_8js.html#a73aff07b65d7c0b09ccf6b4c4f1b7a9d" target="_top" xlink:title=" ">
<polygon fill="white" stroke="#666666" points="320.77,-70 291.98,-70 291.98,-50 320.77,-50 320.77,-70"/>
<text xml:space="preserve" text-anchor="middle" x="306.38" y="-56.5" font-family="Helvetica,sans-Serif" font-size="10.00">i</text>
</a>
</g>
</g>
<!-- Node1&#45;&gt;Node5 -->
<g id="edge4_Node000001_Node000005" class="edge">
<title>Node1&#45;&gt;Node5</title>
<g id="a_edge4_Node000001_Node000005"><a xlink:title=" ">
<path fill="none" stroke="#63b8ff" d="M171.68,-87.55C210.3,-79.59 253.95,-70.6 280.56,-65.11"/>
<polygon fill="#63b8ff" stroke="#63b8ff" points="280.94,-68.61 290.03,-63.16 279.53,-61.75 280.94,-68.61"/>
</a>
</g>
</g>
<!-- Node6 -->
<g id="Node000006" class="node">
<title>Node6</title>
<g id="a_Node000006"><a xlink:href="classediteurpanovisu_1_1Panoramique.html#ae23d348100814df26fa15cef306661f7" target="_top" xlink:title=" ">
<polygon fill="white" stroke="#666666" points="386.75,-32 226,-32 226,0 386.75,0 386.75,-32"/>
<text xml:space="preserve" text-anchor="start" x="234" y="-18.5" font-family="Helvetica,sans-Serif" font-size="10.00">editeurpanovisu.Panoramique.set</text>
<text xml:space="preserve" text-anchor="middle" x="306.38" y="-6.5" font-family="Helvetica,sans-Serif" font-size="10.00">StrTitrePanoramique</text>
</a>
</g>
</g>
<!-- Node1&#45;&gt;Node6 -->
<g id="edge5_Node000001_Node000006" class="edge">
<title>Node1&#45;&gt;Node6</title>
<g id="a_edge5_Node000001_Node000006"><a xlink:title=" ">
<path fill="none" stroke="#63b8ff" d="M120.68,-87.65C145.75,-73.89 183.36,-54.38 217.75,-41 222.15,-39.29 226.71,-37.64 231.33,-36.06"/>
<polygon fill="#63b8ff" stroke="#63b8ff" points="232.35,-39.41 240.76,-32.97 230.17,-32.75 232.35,-39.41"/>
</a>
</g>
</g>
</g>
</svg>
</svg>

<style type='text/css'>
<![CDATA[
[data-mouse-over-selected='false'] { opacity: 0.7; }
[data-mouse-over-selected='true']  { opacity: 1.0; }
]]>
</style>
<script type="application/ecmascript"><![CDATA[
document.addEventListener('DOMContentLoaded', (event) => {
  highlightEdges();
  highlightAdjacentNodes();
});
]]></script>
</svg>
