<?xml version="1.0" encoding="UTF-8" standalone="no"?>
<!DOCTYPE svg PUBLIC "-//W3C//DTD SVG 1.1//EN"
 "http://www.w3.org/Graphics/SVG/1.1/DTD/svg11.dtd">
<!-- Generated by graphviz version 13.1.2 (20250808.2320)
 -->
<!-- Title: editeurpanovisu.HotspotDiaporama.HotSpot Pages: 1 -->
<svg width="402pt" height="90pt"
 viewBox="0.00 0.00 402.00 90.00" xmlns="http://www.w3.org/2000/svg" xmlns:xlink="http://www.w3.org/1999/xlink">
<g id="graph0" class="graph" transform="scale(1 1) rotate(0) translate(4 86)">
<title>editeurpanovisu.HotspotDiaporama.HotSpot</title>
<!-- Node1 -->
<g id="Node000001" class="node">
<title>Node1</title>
<g id="a_Node000001"><a xlink:title=" ">
<polygon fill="#999999" stroke="#666666" points="172,-57 0,-57 0,-25 172,-25 172,-57"/>
<text xml:space="preserve" text-anchor="start" x="8" y="-43.5" font-family="Helvetica,sans-Serif" font-size="10.00">editeurpanovisu.HotspotDiaporama.</text>
<text xml:space="preserve" text-anchor="middle" x="86" y="-31.5" font-family="Helvetica,sans-Serif" font-size="10.00">HotSpot</text>
</a>
</g>
</g>
<!-- Node2 -->
<g id="Node000002" class="node">
<title>Node2</title>
<g id="a_Node000002"><a xlink:href="classediteurpanovisu_1_1HotspotDiaporama.html#ad5b295a9feb469195e57b10ebed08e99" target="_top" xlink:title=" ">
<polygon fill="white" stroke="#666666" points="393.5,-82 208,-82 208,-50 393.5,-50 393.5,-82"/>
<text xml:space="preserve" text-anchor="start" x="216" y="-68.5" font-family="Helvetica,sans-Serif" font-size="10.00">editeurpanovisu.HotspotDiaporama.set</text>
<text xml:space="preserve" text-anchor="middle" x="300.75" y="-56.5" font-family="Helvetica,sans-Serif" font-size="10.00">Latitude</text>
</a>
</g>
</g>
<!-- Node1&#45;&gt;Node2 -->
<g id="edge1_Node000001_Node000002" class="edge">
<title>Node1&#45;&gt;Node2</title>
<g id="a_edge1_Node000001_Node000002"><a xlink:title=" ">
<path fill="none" stroke="#63b8ff" d="M172.31,-51.02C180.24,-51.96 188.34,-52.91 196.42,-53.86"/>
<polygon fill="#63b8ff" stroke="#63b8ff" points="195.96,-57.33 206.3,-55.02 196.77,-50.38 195.96,-57.33"/>
</a>
</g>
</g>
<!-- Node3 -->
<g id="Node000003" class="node">
<title>Node3</title>
<g id="a_Node000003"><a xlink:href="classediteurpanovisu_1_1HotspotDiaporama.html#a1a597a395065ed58bc0b7e1dbe67ad27" target="_top" xlink:title=" ">
<polygon fill="white" stroke="#666666" points="393.5,-32 208,-32 208,0 393.5,0 393.5,-32"/>
<text xml:space="preserve" text-anchor="start" x="216" y="-18.5" font-family="Helvetica,sans-Serif" font-size="10.00">editeurpanovisu.HotspotDiaporama.set</text>
<text xml:space="preserve" text-anchor="middle" x="300.75" y="-6.5" font-family="Helvetica,sans-Serif" font-size="10.00">Longitude</text>
</a>
</g>
</g>
<!-- Node1&#45;&gt;Node3 -->
<g id="edge2_Node000001_Node000003" class="edge">
<title>Node1&#45;&gt;Node3</title>
<g id="a_edge2_Node000001_Node000003"><a xlink:title=" ">
<path fill="none" stroke="#63b8ff" d="M172.31,-30.98C180.24,-30.04 188.34,-29.09 196.42,-28.14"/>
<polygon fill="#63b8ff" stroke="#63b8ff" points="196.77,-31.62 206.3,-26.98 195.96,-24.67 196.77,-31.62"/>
</a>
</g>
</g>
</g>
</svg>
