<?xml version="1.0" encoding="UTF-8" standalone="no"?>
<!DOCTYPE svg PUBLIC "-//W3C//DTD SVG 1.1//EN"
 "http://www.w3.org/Graphics/SVG/1.1/DTD/svg11.dtd">
<!-- Generated by graphviz version 13.1.2 (20250808.2320)
 -->
<!-- Title: editeurpanovisu.GestionnaireInterfaceController.getStrRotationBarrePersonnalisee Pages: 1 -->
<svg width="2865pt" height="455pt"
 viewBox="0.00 0.00 2865.00 455.00" xmlns="http://www.w3.org/2000/svg" xmlns:xlink="http://www.w3.org/1999/xlink">
<g id="graph0" class="graph" transform="scale(1 1) rotate(0) translate(4 450.7)">
<title>editeurpanovisu.GestionnaireInterfaceController.getStrRotationBarrePersonnalisee</title>
<!-- Node1 -->
<g id="Node000001" class="node">
<title>Node1</title>
<g id="a_Node000001"><a xlink:title=" ">
<polygon fill="#999999" stroke="#666666" points="2857,-125.7 2694.75,-125.7 2694.75,-81.7 2857,-81.7 2857,-125.7"/>
<text xml:space="preserve" text-anchor="start" x="2702.75" y="-112.2" font-family="Helvetica,sans-Serif" font-size="10.00">editeurpanovisu.Gestionnaire</text>
<text xml:space="preserve" text-anchor="start" x="2702.75" y="-100.2" font-family="Helvetica,sans-Serif" font-size="10.00">InterfaceController.getStrRotation</text>
<text xml:space="preserve" text-anchor="middle" x="2775.88" y="-88.2" font-family="Helvetica,sans-Serif" font-size="10.00">BarrePersonnalisee</text>
</a>
</g>
</g>
<!-- Node2 -->
<g id="Node000002" class="node">
<title>Node2</title>
<g id="a_Node000002"><a xlink:href="classediteurpanovisu_1_1GestionnaireInterfaceController.html#a3f85cb5c53dc115280ee2e1290a532f3" target="_top" xlink:title=" ">
<polygon fill="white" stroke="#666666" points="2651.25,-277.7 2500.25,-277.7 2500.25,-233.7 2651.25,-233.7 2651.25,-277.7"/>
<text xml:space="preserve" text-anchor="start" x="2508.25" y="-264.2" font-family="Helvetica,sans-Serif" font-size="10.00">editeurpanovisu.Gestionnaire</text>
<text xml:space="preserve" text-anchor="start" x="2508.25" y="-252.2" font-family="Helvetica,sans-Serif" font-size="10.00">InterfaceController.afficheBarre</text>
<text xml:space="preserve" text-anchor="middle" x="2575.75" y="-240.2" font-family="Helvetica,sans-Serif" font-size="10.00">Personnalisee</text>
</a>
</g>
</g>
<!-- Node1&#45;&gt;Node2 -->
<g id="edge1_Node000001_Node000002" class="edge">
<title>Node1&#45;&gt;Node2</title>
<g id="a_edge1_Node000001_Node000002"><a xlink:title=" ">
<path fill="none" stroke="#63b8ff" d="M2736.85,-132.87C2698.6,-162.22 2640.47,-206.82 2605.78,-233.43"/>
<polygon fill="#63b8ff" stroke="#63b8ff" points="2738.64,-135.91 2744.44,-127.05 2734.38,-130.36 2738.64,-135.91"/>
</a>
</g>
</g>
<!-- Node4 -->
<g id="Node000004" class="node">
<title>Node4</title>
<g id="a_Node000004"><a xlink:href="classediteurpanovisu_1_1GestionnaireInterfaceController.html#a55c8afda208674955a13d48d02be41b8" target="_top" xlink:title=" ">
<polygon fill="white" stroke="#666666" points="2213.5,-188.7 2046,-188.7 2046,-156.7 2213.5,-156.7 2213.5,-188.7"/>
<text xml:space="preserve" text-anchor="start" x="2054" y="-175.2" font-family="Helvetica,sans-Serif" font-size="10.00">editeurpanovisu.Gestionnaire</text>
<text xml:space="preserve" text-anchor="middle" x="2129.75" y="-163.2" font-family="Helvetica,sans-Serif" font-size="10.00">InterfaceController.afficheTemplate</text>
</a>
</g>
</g>
<!-- Node1&#45;&gt;Node4 -->
<g id="edge43_Node000001_Node000004" class="edge">
<title>Node1&#45;&gt;Node4</title>
<g id="a_edge43_Node000001_Node000004"><a xlink:title=" ">
<path fill="none" stroke="#63b8ff" d="M2683.08,-112.48C2578.17,-122.67 2401.34,-140.31 2249.5,-157.7 2237.94,-159.02 2225.75,-160.49 2213.77,-161.96"/>
<polygon fill="#63b8ff" stroke="#63b8ff" points="2683.14,-116 2692.75,-111.55 2682.46,-109.03 2683.14,-116"/>
</a>
</g>
</g>
<!-- Node12 -->
<g id="Node000012" class="node">
<title>Node12</title>
<g id="a_Node000012"><a xlink:href="classediteurpanovisu_1_1EditeurPanovisu.html#a94e36b9e9d09ab1a4c852b8a8cefa927" target="_top" xlink:title=" ">
<polygon fill="white" stroke="#666666" points="647.25,-211.7 456.5,-211.7 456.5,-179.7 647.25,-179.7 647.25,-211.7"/>
<text xml:space="preserve" text-anchor="start" x="464.5" y="-198.2" font-family="Helvetica,sans-Serif" font-size="10.00">editeurpanovisu.EditeurPanovisu.genere</text>
<text xml:space="preserve" text-anchor="middle" x="551.88" y="-186.2" font-family="Helvetica,sans-Serif" font-size="10.00">Visite</text>
</a>
</g>
</g>
<!-- Node1&#45;&gt;Node12 -->
<g id="edge44_Node000001_Node000012" class="edge">
<title>Node1&#45;&gt;Node12</title>
<g id="a_edge44_Node000001_Node000012"><a xlink:title=" ">
<path fill="none" stroke="#63b8ff" d="M2683.16,-93.43C2460.69,-68.85 1896.78,-8.7 1707.25,-8.7 1707.25,-8.7 1707.25,-8.7 1260,-8.7 994.28,-8.7 690.51,-133.64 588.42,-179.27"/>
<polygon fill="#63b8ff" stroke="#63b8ff" points="2682.62,-96.89 2692.95,-94.51 2683.39,-89.93 2682.62,-96.89"/>
</a>
</g>
</g>
<!-- Node25 -->
<g id="Node000025" class="node">
<title>Node25</title>
<g id="a_Node000025"><a xlink:href="classediteurpanovisu_1_1GestionnaireInterfaceController.html#ab66509c63a85a8285a081b24049e8774" target="_top" xlink:title=" ">
<polygon fill="white" stroke="#666666" points="2658.75,-56.7 2492.75,-56.7 2492.75,-24.7 2658.75,-24.7 2658.75,-56.7"/>
<text xml:space="preserve" text-anchor="start" x="2500.75" y="-43.2" font-family="Helvetica,sans-Serif" font-size="10.00">editeurpanovisu.Gestionnaire</text>
<text xml:space="preserve" text-anchor="middle" x="2575.75" y="-31.2" font-family="Helvetica,sans-Serif" font-size="10.00">InterfaceController.strGetTemplate</text>
</a>
</g>
</g>
<!-- Node1&#45;&gt;Node25 -->
<g id="edge45_Node000001_Node000025" class="edge">
<title>Node1&#45;&gt;Node25</title>
<g id="a_edge45_Node000001_Node000025"><a xlink:title=" ">
<path fill="none" stroke="#63b8ff" d="M2693.5,-77.83C2671.5,-70.83 2648.29,-63.45 2628.42,-57.13"/>
<polygon fill="#63b8ff" stroke="#63b8ff" points="2692.15,-81.07 2702.74,-80.76 2694.27,-74.4 2692.15,-81.07"/>
</a>
</g>
</g>
<!-- Node3 -->
<g id="Node000003" class="node">
<title>Node3</title>
<g id="a_Node000003"><a xlink:href="classediteurpanovisu_1_1GestionnaireInterfaceController.html#a5bdd1505c1ad1eee506c2618c9368994" target="_top" xlink:title=" ">
<polygon fill="white" stroke="#666666" points="2437.62,-271.7 2268.62,-271.7 2268.62,-239.7 2437.62,-239.7 2437.62,-271.7"/>
<text xml:space="preserve" text-anchor="start" x="2276.62" y="-258.2" font-family="Helvetica,sans-Serif" font-size="10.00">editeurpanovisu.Gestionnaire</text>
<text xml:space="preserve" text-anchor="middle" x="2353.12" y="-246.2" font-family="Helvetica,sans-Serif" font-size="10.00">InterfaceController.afficheVignettes</text>
</a>
</g>
</g>
<!-- Node2&#45;&gt;Node3 -->
<g id="edge2_Node000002_Node000003" class="edge">
<title>Node2&#45;&gt;Node3</title>
<g id="a_edge2_Node000002_Node000003"><a xlink:title=" ">
<path fill="none" stroke="#63b8ff" d="M2488.64,-255.7C2471.94,-255.7 2454.47,-255.7 2437.85,-255.7"/>
<polygon fill="#63b8ff" stroke="#63b8ff" points="2488.54,-259.2 2498.54,-255.7 2488.54,-252.2 2488.54,-259.2"/>
</a>
</g>
</g>
<!-- Node19 -->
<g id="Node000019" class="node">
<title>Node19</title>
<g id="a_Node000019"><a xlink:href="classediteurpanovisu_1_1GestionnaireInterfaceController.html#ac7fa988dc99d8684686127a2269cd66e" target="_top" xlink:title=" ">
<polygon fill="white" stroke="#666666" points="2000.62,-406.7 1844.38,-406.7 1844.38,-374.7 2000.62,-374.7 2000.62,-406.7"/>
<text xml:space="preserve" text-anchor="start" x="1852.38" y="-393.2" font-family="Helvetica,sans-Serif" font-size="10.00">editeurpanovisu.Gestionnaire</text>
<text xml:space="preserve" text-anchor="middle" x="1922.5" y="-381.2" font-family="Helvetica,sans-Serif" font-size="10.00">InterfaceController.creeInterface</text>
</a>
</g>
</g>
<!-- Node2&#45;&gt;Node19 -->
<g id="edge42_Node000002_Node000019" class="edge">
<title>Node2&#45;&gt;Node19</title>
<g id="a_edge42_Node000002_Node000019"><a xlink:title=" ">
<path fill="none" stroke="#63b8ff" d="M2488.85,-275.5C2415.75,-292.16 2307.91,-316.3 2213.5,-335.7 2141.59,-350.48 2059.36,-365.94 2000.87,-376.69"/>
<polygon fill="#63b8ff" stroke="#63b8ff" points="2489.38,-278.97 2498.35,-273.33 2487.82,-272.14 2489.38,-278.97"/>
</a>
</g>
</g>
<!-- Node23 -->
<g id="Node000023" class="node">
<title>Node23</title>
<g id="a_Node000023"><a xlink:href="classediteurpanovisu_1_1GestionnaireInterfaceController.html#a6c3ac6b8d3a669f9952954530cc27e52" target="_top" xlink:title=" ">
<polygon fill="white" stroke="#666666" points="2429,-210.7 2277.25,-210.7 2277.25,-166.7 2429,-166.7 2429,-210.7"/>
<text xml:space="preserve" text-anchor="start" x="2285.25" y="-197.2" font-family="Helvetica,sans-Serif" font-size="10.00">editeurpanovisu.Gestionnaire</text>
<text xml:space="preserve" text-anchor="start" x="2285.25" y="-185.2" font-family="Helvetica,sans-Serif" font-size="10.00">InterfaceController.chargeBarre</text>
<text xml:space="preserve" text-anchor="middle" x="2353.12" y="-173.2" font-family="Helvetica,sans-Serif" font-size="10.00">Personnalisee</text>
</a>
</g>
</g>
<!-- Node2&#45;&gt;Node23 -->
<g id="edge38_Node000002_Node000023" class="edge">
<title>Node2&#45;&gt;Node23</title>
<g id="a_edge38_Node000002_Node000023"><a xlink:title=" ">
<path fill="none" stroke="#63b8ff" d="M2489.82,-229.91C2469.44,-223.72 2447.84,-217.16 2428.01,-211.14"/>
<polygon fill="#63b8ff" stroke="#63b8ff" points="2488.64,-233.21 2499.22,-232.76 2490.67,-226.51 2488.64,-233.21"/>
</a>
</g>
</g>
<!-- Node24 -->
<g id="Node000024" class="node">
<title>Node24</title>
<g id="a_Node000024"><a xlink:href="classediteurpanovisu_1_1GestionnaireInterfaceController.html#af830b49c8951d0b3c694aeba5f49d518" target="_top" xlink:title=" ">
<polygon fill="white" stroke="#666666" points="2456.75,-414.7 2249.5,-414.7 2249.5,-382.7 2456.75,-382.7 2456.75,-414.7"/>
<text xml:space="preserve" text-anchor="start" x="2257.5" y="-401.2" font-family="Helvetica,sans-Serif" font-size="10.00">editeurpanovisu.Gestionnaire</text>
<text xml:space="preserve" text-anchor="middle" x="2353.12" y="-389.2" font-family="Helvetica,sans-Serif" font-size="10.00">InterfaceController.choixBarrePersonnalisee</text>
</a>
</g>
</g>
<!-- Node2&#45;&gt;Node24 -->
<g id="edge40_Node000002_Node000024" class="edge">
<title>Node2&#45;&gt;Node24</title>
<g id="a_edge40_Node000002_Node000024"><a xlink:title=" ">
<path fill="none" stroke="#63b8ff" d="M2549.88,-286.68C2527.9,-312.14 2493.66,-347.37 2456.75,-368.7 2447.43,-374.09 2437.06,-378.57 2426.61,-382.29"/>
<polygon fill="#63b8ff" stroke="#63b8ff" points="2552.36,-289.17 2556.15,-279.28 2547.02,-284.65 2552.36,-289.17"/>
</a>
</g>
</g>
<!-- Node3&#45;&gt;Node4 -->
<g id="edge3_Node000003_Node000004" class="edge">
<title>Node3&#45;&gt;Node4</title>
<g id="a_edge3_Node000003_Node000004"><a xlink:title=" ">
<path fill="none" stroke="#63b8ff" d="M2287.83,-235.49C2274.93,-230.79 2261.63,-225.45 2249.5,-219.7 2232.56,-211.66 2230.61,-205.36 2213.5,-197.7 2206.51,-194.57 2199.03,-191.7 2191.52,-189.1"/>
<polygon fill="#63b8ff" stroke="#63b8ff" points="2286.51,-238.74 2297.1,-238.79 2288.85,-232.14 2286.51,-238.74"/>
</a>
</g>
</g>
<!-- Node18 -->
<g id="Node000018" class="node">
<title>Node18</title>
<g id="a_Node000018"><a xlink:href="classediteurpanovisu_1_1GestionnaireInterfaceController.html#a8c634f775c31c1a4db22d5ef0659f7e4" target="_top" xlink:title=" ">
<polygon fill="white" stroke="#666666" points="2203.38,-326.7 2056.12,-326.7 2056.12,-294.7 2203.38,-294.7 2203.38,-326.7"/>
<text xml:space="preserve" text-anchor="start" x="2064.12" y="-313.2" font-family="Helvetica,sans-Serif" font-size="10.00">editeurpanovisu.Gestionnaire</text>
<text xml:space="preserve" text-anchor="middle" x="2129.75" y="-301.2" font-family="Helvetica,sans-Serif" font-size="10.00">InterfaceController.afficheTitre</text>
</a>
</g>
</g>
<!-- Node3&#45;&gt;Node18 -->
<g id="edge29_Node000003_Node000018" class="edge">
<title>Node3&#45;&gt;Node18</title>
<g id="a_edge29_Node000003_Node000018"><a xlink:title=" ">
<path fill="none" stroke="#63b8ff" d="M2274.91,-274.89C2249.48,-281.2 2221.44,-288.17 2196.91,-294.26"/>
<polygon fill="#63b8ff" stroke="#63b8ff" points="2275.68,-278.3 2284.54,-272.49 2273.99,-271.51 2275.68,-278.3"/>
</a>
</g>
</g>
<!-- Node3&#45;&gt;Node19 -->
<g id="edge31_Node000003_Node000019" class="edge">
<title>Node3&#45;&gt;Node19</title>
<g id="a_edge31_Node000003_Node000019"><a xlink:title=" ">
<path fill="none" stroke="#63b8ff" d="M2257.02,-255.03C2180.02,-256.28 2079.1,-262.54 2046,-285.7 2015.7,-306.9 2037.59,-336.08 2010,-360.7 2003.83,-366.2 1996.6,-370.71 1988.99,-374.39"/>
<polygon fill="#63b8ff" stroke="#63b8ff" points="2256.73,-258.53 2266.68,-254.9 2256.63,-251.53 2256.73,-258.53"/>
</a>
</g>
</g>
<!-- Node20 -->
<g id="Node000020" class="node">
<title>Node20</title>
<g id="a_Node000020"><a xlink:href="classediteurpanovisu_1_1GestionnaireInterfaceController.html#a568c34e865fb653f63b8fa7a9a9cafc8" target="_top" xlink:title=" ">
<polygon fill="white" stroke="#666666" points="2200.75,-238.7 2058.75,-238.7 2058.75,-206.7 2200.75,-206.7 2200.75,-238.7"/>
<text xml:space="preserve" text-anchor="start" x="2066.75" y="-225.2" font-family="Helvetica,sans-Serif" font-size="10.00">editeurpanovisu.Gestionnaire</text>
<text xml:space="preserve" text-anchor="middle" x="2129.75" y="-213.2" font-family="Helvetica,sans-Serif" font-size="10.00">InterfaceController.rafraichit</text>
</a>
</g>
</g>
<!-- Node3&#45;&gt;Node20 -->
<g id="edge32_Node000003_Node000020" class="edge">
<title>Node3&#45;&gt;Node20</title>
<g id="a_edge32_Node000003_Node000020"><a xlink:title=" ">
<path fill="none" stroke="#63b8ff" d="M2257.15,-241.54C2238.37,-238.74 2218.98,-235.85 2201.19,-233.2"/>
<polygon fill="#63b8ff" stroke="#63b8ff" points="2256.53,-244.99 2266.94,-243 2257.56,-238.07 2256.53,-244.99"/>
</a>
</g>
</g>
<!-- Node5 -->
<g id="Node000005" class="node">
<title>Node5</title>
<g id="a_Node000005"><a xlink:href="classediteurpanovisu_1_1EditeurPanovisu.html#a87b29dc258cfc67370b1f27809e91b8e" target="_top" xlink:title=" ">
<polygon fill="white" stroke="#666666" points="2010,-188.7 1835,-188.7 1835,-156.7 2010,-156.7 2010,-188.7"/>
<text xml:space="preserve" text-anchor="start" x="1843" y="-175.2" font-family="Helvetica,sans-Serif" font-size="10.00">editeurpanovisu.EditeurPanovisu.tsk</text>
<text xml:space="preserve" text-anchor="middle" x="1922.5" y="-163.2" font-family="Helvetica,sans-Serif" font-size="10.00">AnalyseFichierPVU</text>
</a>
</g>
</g>
<!-- Node4&#45;&gt;Node5 -->
<g id="edge4_Node000004_Node000005" class="edge">
<title>Node4&#45;&gt;Node5</title>
<g id="a_edge4_Node000004_Node000005"><a xlink:title=" ">
<path fill="none" stroke="#63b8ff" d="M2034.1,-172.7C2026.23,-172.7 2018.29,-172.7 2010.48,-172.7"/>
<polygon fill="#63b8ff" stroke="#63b8ff" points="2034.05,-176.2 2044.05,-172.7 2034.05,-169.2 2034.05,-176.2"/>
</a>
</g>
</g>
<!-- Node6 -->
<g id="Node000006" class="node">
<title>Node6</title>
<g id="a_Node000006"><a xlink:href="classediteurpanovisu_1_1EditeurPanovisu.html#ab4beb1597b660a4a253befc6e76f1c54" target="_top" xlink:title=" ">
<polygon fill="white" stroke="#666666" points="1129.62,-106.7 944.12,-106.7 944.12,-74.7 1129.62,-74.7 1129.62,-106.7"/>
<text xml:space="preserve" text-anchor="start" x="952.12" y="-93.2" font-family="Helvetica,sans-Serif" font-size="10.00">editeurpanovisu.EditeurPanovisu.projet</text>
<text xml:space="preserve" text-anchor="middle" x="1036.88" y="-81.2" font-family="Helvetica,sans-Serif" font-size="10.00">Charge</text>
</a>
</g>
</g>
<!-- Node5&#45;&gt;Node6 -->
<g id="edge5_Node000005_Node000006" class="edge">
<title>Node5&#45;&gt;Node6</title>
<g id="a_edge5_Node000005_Node000006"><a xlink:title=" ">
<path fill="none" stroke="#63b8ff" d="M1833.23,-154.05C1821.74,-151.81 1810.1,-149.63 1799,-147.7 1701.01,-130.64 1676.52,-125.12 1577.5,-115.7 1420.65,-100.77 1237.27,-94.67 1129.73,-92.24"/>
<polygon fill="#63b8ff" stroke="#63b8ff" points="1832.22,-157.42 1842.71,-155.92 1833.57,-150.55 1832.22,-157.42"/>
</a>
</g>
</g>
<!-- Node9 -->
<g id="Node000009" class="node">
<title>Node9</title>
<g id="a_Node000009"><a xlink:href="classediteurpanovisu_1_1EditeurPanovisu.html#a6d19b4d885ee6fcec827b91956295732" target="_top" xlink:title=" ">
<polygon fill="white" stroke="#666666" points="1799,-188.7 1613.5,-188.7 1613.5,-156.7 1799,-156.7 1799,-188.7"/>
<text xml:space="preserve" text-anchor="start" x="1621.5" y="-175.2" font-family="Helvetica,sans-Serif" font-size="10.00">editeurpanovisu.EditeurPanovisu.projet</text>
<text xml:space="preserve" text-anchor="middle" x="1706.25" y="-163.2" font-family="Helvetica,sans-Serif" font-size="10.00">ChargeNom</text>
</a>
</g>
</g>
<!-- Node5&#45;&gt;Node9 -->
<g id="edge8_Node000005_Node000009" class="edge">
<title>Node5&#45;&gt;Node9</title>
<g id="a_edge8_Node000005_Node000009"><a xlink:title=" ">
<path fill="none" stroke="#63b8ff" d="M1823.16,-172.7C1815.26,-172.7 1807.3,-172.7 1799.45,-172.7"/>
<polygon fill="#63b8ff" stroke="#63b8ff" points="1823.15,-176.2 1833.15,-172.7 1823.15,-169.2 1823.15,-176.2"/>
</a>
</g>
</g>
<!-- Node7 -->
<g id="Node000007" class="node">
<title>Node7</title>
<g id="a_Node000007"><a xlink:href="classediteurpanovisu_1_1EditeurPanovisu.html#ac912b80c1f2ac97def60ff005c5c480b" target="_top" xlink:title=" ">
<polygon fill="white" stroke="#666666" points="420.5,-239.7 216.25,-239.7 216.25,-219.7 420.5,-219.7 420.5,-239.7"/>
<text xml:space="preserve" text-anchor="middle" x="318.38" y="-226.2" font-family="Helvetica,sans-Serif" font-size="10.00">editeurpanovisu.EditeurPanovisu.creeMenu</text>
</a>
</g>
</g>
<!-- Node6&#45;&gt;Node7 -->
<g id="edge6_Node000006_Node000007" class="edge">
<title>Node6&#45;&gt;Node7</title>
<g id="a_edge6_Node000006_Node000007"><a xlink:title=" ">
<path fill="none" stroke="#63b8ff" d="M932.54,-77.57C813.57,-66.58 614.27,-61.01 456.5,-120.7 399.61,-142.22 347.92,-196.64 328.02,-219.42"/>
<polygon fill="#63b8ff" stroke="#63b8ff" points="932,-81.03 942.29,-78.5 932.67,-74.07 932,-81.03"/>
</a>
</g>
</g>
<!-- Node8 -->
<g id="Node000008" class="node">
<title>Node8</title>
<g id="a_Node000008"><a xlink:href="classediteurpanovisu_1_1EditeurPanovisu.html#a86c393eee88f54c694db994ddd85b90d" target="_top" xlink:title=" ">
<polygon fill="white" stroke="#666666" points="180.25,-245.7 0,-245.7 0,-213.7 180.25,-213.7 180.25,-245.7"/>
<text xml:space="preserve" text-anchor="start" x="8" y="-232.2" font-family="Helvetica,sans-Serif" font-size="10.00">editeurpanovisu.EditeurPanovisu.cree</text>
<text xml:space="preserve" text-anchor="middle" x="90.12" y="-220.2" font-family="Helvetica,sans-Serif" font-size="10.00">Environnement</text>
</a>
</g>
</g>
<!-- Node7&#45;&gt;Node8 -->
<g id="edge7_Node000007_Node000008" class="edge">
<title>Node7&#45;&gt;Node8</title>
<g id="a_edge7_Node000007_Node000008"><a xlink:title=" ">
<path fill="none" stroke="#63b8ff" d="M204.51,-229.7C196.49,-229.7 188.46,-229.7 180.6,-229.7"/>
<polygon fill="#63b8ff" stroke="#63b8ff" points="204.32,-233.2 214.32,-229.7 204.32,-226.2 204.32,-233.2"/>
</a>
</g>
</g>
<!-- Node9&#45;&gt;Node7 -->
<g id="edge28_Node000009_Node000007" class="edge">
<title>Node9&#45;&gt;Node7</title>
<g id="a_edge28_Node000009_Node000007"><a xlink:title=" ">
<path fill="none" stroke="#63b8ff" d="M1618.52,-191.6C1486.81,-221.32 1243.69,-280.46 1168.25,-327.7 1147.98,-340.4 1154.1,-357.97 1132.25,-367.7 994.73,-428.95 597.6,-372.2 456.5,-319.7 405.26,-300.64 353.75,-259.54 331.19,-240.19"/>
<polygon fill="#63b8ff" stroke="#63b8ff" points="1618.89,-195.1 1627.88,-189.5 1617.36,-188.27 1618.89,-195.1"/>
</a>
</g>
</g>
<!-- Node10 -->
<g id="Node000010" class="node">
<title>Node10</title>
<g id="a_Node000010"><a xlink:href="classediteurpanovisu_1_1EditeurPanovisu.html#af0d1c32bb78acbff561c822a0d15f760" target="_top" xlink:title=" ">
<polygon fill="white" stroke="#666666" points="1577.5,-156.7 1389.75,-156.7 1389.75,-124.7 1577.5,-124.7 1577.5,-156.7"/>
<text xml:space="preserve" text-anchor="start" x="1397.75" y="-143.2" font-family="Helvetica,sans-Serif" font-size="10.00">editeurpanovisu.EditeurPanovisu.ajoute</text>
<text xml:space="preserve" text-anchor="middle" x="1483.62" y="-131.2" font-family="Helvetica,sans-Serif" font-size="10.00">FichierHisto</text>
</a>
</g>
</g>
<!-- Node9&#45;&gt;Node10 -->
<g id="edge9_Node000009_Node000010" class="edge">
<title>Node9&#45;&gt;Node10</title>
<g id="a_edge9_Node000009_Node000010"><a xlink:title=" ">
<path fill="none" stroke="#63b8ff" d="M1624.09,-154.39C1609.03,-151.98 1593.18,-149.64 1577.79,-147.54"/>
<polygon fill="#63b8ff" stroke="#63b8ff" points="1623.52,-157.85 1633.95,-156 1624.64,-150.94 1623.52,-157.85"/>
</a>
</g>
</g>
<!-- Node10&#45;&gt;Node6 -->
<g id="edge10_Node000010_Node000006" class="edge">
<title>Node10&#45;&gt;Node6</title>
<g id="a_edge10_Node000010_Node000006"><a xlink:title=" ">
<path fill="none" stroke="#63b8ff" d="M1378.05,-132.23C1316.81,-126.89 1238.04,-119.38 1168.25,-110.7 1155.87,-109.16 1142.84,-107.37 1130.02,-105.51"/>
<polygon fill="#63b8ff" stroke="#63b8ff" points="1377.5,-135.69 1387.77,-133.07 1378.11,-128.72 1377.5,-135.69"/>
</a>
</g>
</g>
<!-- Node10&#45;&gt;Node9 -->
<g id="edge11_Node000010_Node000009" class="edge">
<title>Node10&#45;&gt;Node9</title>
<g id="a_edge11_Node000010_Node000009"><a xlink:title=" ">
<path fill="none" stroke="#63b8ff" d="M1565.7,-158.99C1581.18,-161.47 1597.49,-163.88 1613.28,-166.03"/>
<polygon fill="#63b8ff" stroke="#63b8ff" points="1566.52,-155.58 1556.08,-157.42 1565.39,-162.49 1566.52,-155.58"/>
</a>
</g>
</g>
<!-- Node11 -->
<g id="Node000011" class="node">
<title>Node11</title>
<g id="a_Node000011"><a xlink:href="classediteurpanovisu_1_1EditeurPanovisu.html#a9f3ea25b35d4884524508dab3dc4fd6a" target="_top" xlink:title=" ">
<polygon fill="white" stroke="#666666" points="1353.75,-199.7 1168.25,-199.7 1168.25,-167.7 1353.75,-167.7 1353.75,-199.7"/>
<text xml:space="preserve" text-anchor="start" x="1176.25" y="-186.2" font-family="Helvetica,sans-Serif" font-size="10.00">editeurpanovisu.EditeurPanovisu.projet</text>
<text xml:space="preserve" text-anchor="middle" x="1261" y="-174.2" font-family="Helvetica,sans-Serif" font-size="10.00">Sauve</text>
</a>
</g>
</g>
<!-- Node10&#45;&gt;Node11 -->
<g id="edge12_Node000010_Node000011" class="edge">
<title>Node10&#45;&gt;Node11</title>
<g id="a_edge12_Node000010_Node000011"><a xlink:title=" ">
<path fill="none" stroke="#63b8ff" d="M1386.99,-159.34C1373.45,-161.98 1359.61,-164.68 1346.31,-167.27"/>
<polygon fill="#63b8ff" stroke="#63b8ff" points="1387.64,-162.78 1396.79,-157.43 1386.3,-155.91 1387.64,-162.78"/>
</a>
</g>
</g>
<!-- Node17 -->
<g id="Node000017" class="node">
<title>Node17</title>
<g id="a_Node000017"><a xlink:href="classediteurpanovisu_1_1EditeurPanovisu.html#a7b2e25dc717eb52b62e23d54ec4c124a" target="_top" xlink:title=" ">
<polygon fill="white" stroke="#666666" points="1353.75,-68.7 1168.25,-68.7 1168.25,-36.7 1353.75,-36.7 1353.75,-68.7"/>
<text xml:space="preserve" text-anchor="start" x="1176.25" y="-55.2" font-family="Helvetica,sans-Serif" font-size="10.00">editeurpanovisu.EditeurPanovisu.projet</text>
<text xml:space="preserve" text-anchor="middle" x="1261" y="-43.2" font-family="Helvetica,sans-Serif" font-size="10.00">SauveSous</text>
</a>
</g>
</g>
<!-- Node10&#45;&gt;Node17 -->
<g id="edge26_Node000010_Node000017" class="edge">
<title>Node10&#45;&gt;Node17</title>
<g id="a_edge26_Node000010_Node000017"><a xlink:title=" ">
<path fill="none" stroke="#63b8ff" d="M1430.78,-120.02C1391.8,-104.47 1339.11,-83.46 1303.04,-69.07"/>
<polygon fill="#63b8ff" stroke="#63b8ff" points="1429.39,-123.24 1439.98,-123.69 1431.99,-116.74 1429.39,-123.24"/>
</a>
</g>
</g>
<!-- Node11&#45;&gt;Node6 -->
<g id="edge16_Node000011_Node000006" class="edge">
<title>Node11&#45;&gt;Node6</title>
<g id="a_edge16_Node000011_Node000006"><a xlink:title=" ">
<path fill="none" stroke="#63b8ff" d="M1191.61,-163.09C1183.53,-159.71 1175.57,-155.92 1168.25,-151.7 1149.96,-141.15 1150.68,-131 1132.25,-120.7 1122.79,-115.42 1112.28,-110.92 1101.79,-107.14"/>
<polygon fill="#63b8ff" stroke="#63b8ff" points="1190.25,-166.31 1200.84,-166.72 1192.82,-159.8 1190.25,-166.31"/>
</a>
</g>
</g>
<!-- Node11&#45;&gt;Node7 -->
<g id="edge13_Node000011_Node000007" class="edge">
<title>Node11&#45;&gt;Node7</title>
<g id="a_edge13_Node000011_Node000007"><a xlink:title=" ">
<path fill="none" stroke="#63b8ff" d="M1156.5,-167.79C1002.18,-147.26 703.46,-119.83 456.5,-170.7 411.06,-180.06 362.13,-205.18 336.8,-219.44"/>
<polygon fill="#63b8ff" stroke="#63b8ff" points="1155.93,-171.25 1166.31,-169.12 1156.87,-164.31 1155.93,-171.25"/>
</a>
</g>
</g>
<!-- Node11&#45;&gt;Node9 -->
<g id="edge17_Node000011_Node000009" class="edge">
<title>Node11&#45;&gt;Node9</title>
<g id="a_edge17_Node000011_Node000009"><a xlink:title=" ">
<path fill="none" stroke="#63b8ff" d="M1365.33,-181.14C1440.33,-179.28 1540.88,-176.78 1613.14,-174.99"/>
<polygon fill="#63b8ff" stroke="#63b8ff" points="1365.42,-177.63 1355.51,-181.38 1365.59,-184.63 1365.42,-177.63"/>
</a>
</g>
</g>
<!-- Node11&#45;&gt;Node12 -->
<g id="edge14_Node000011_Node000012" class="edge">
<title>Node11&#45;&gt;Node12</title>
<g id="a_edge14_Node000011_Node000012"><a xlink:title=" ">
<path fill="none" stroke="#63b8ff" d="M1156.62,-185.46C1019.72,-187.78 780.18,-191.84 647.71,-194.09"/>
<polygon fill="#63b8ff" stroke="#63b8ff" points="1156.47,-188.96 1166.41,-185.29 1156.35,-181.96 1156.47,-188.96"/>
</a>
</g>
</g>
<!-- Node13 -->
<g id="Node000013" class="node">
<title>Node13</title>
<g id="a_Node000013"><a xlink:href="classediteurpanovisu_1_1EditeurPanovisu.html#a9b46b222714af12c06ec33d410400773" target="_top" xlink:title=" ">
<polygon fill="white" stroke="#666666" points="647.25,-279.7 456.5,-279.7 456.5,-247.7 647.25,-247.7 647.25,-279.7"/>
<text xml:space="preserve" text-anchor="start" x="464.5" y="-266.2" font-family="Helvetica,sans-Serif" font-size="10.00">editeurpanovisu.EditeurPanovisu.projets</text>
<text xml:space="preserve" text-anchor="middle" x="551.88" y="-254.2" font-family="Helvetica,sans-Serif" font-size="10.00">Fermer</text>
</a>
</g>
</g>
<!-- Node11&#45;&gt;Node13 -->
<g id="edge18_Node000011_Node000013" class="edge">
<title>Node11&#45;&gt;Node13</title>
<g id="a_edge18_Node000011_Node000013"><a xlink:title=" ">
<path fill="none" stroke="#63b8ff" d="M1233.04,-207.27C1208.58,-227.08 1170.58,-254.14 1132.25,-266.7 962.83,-322.23 750.27,-299.43 635.52,-280.14"/>
<polygon fill="#63b8ff" stroke="#63b8ff" points="1235.09,-210.11 1240.56,-201.03 1230.63,-204.72 1235.09,-210.11"/>
</a>
</g>
</g>
<!-- Node14 -->
<g id="Node000014" class="node">
<title>Node14</title>
<g id="a_Node000014"><a xlink:href="classediteurpanovisu_1_1EditeurPanovisu.html#ac9d449399ccd38843fa12e716f0c9611" target="_top" xlink:title=" ">
<polygon fill="white" stroke="#666666" points="1132.25,-358.7 941.5,-358.7 941.5,-326.7 1132.25,-326.7 1132.25,-358.7"/>
<text xml:space="preserve" text-anchor="start" x="949.5" y="-345.2" font-family="Helvetica,sans-Serif" font-size="10.00">editeurpanovisu.EditeurPanovisu.projets</text>
<text xml:space="preserve" text-anchor="middle" x="1036.88" y="-333.2" font-family="Helvetica,sans-Serif" font-size="10.00">Nouveau</text>
</a>
</g>
</g>
<!-- Node11&#45;&gt;Node14 -->
<g id="edge20_Node000011_Node000014" class="edge">
<title>Node11&#45;&gt;Node14</title>
<g id="a_edge20_Node000011_Node000014"><a xlink:title=" ">
<path fill="none" stroke="#63b8ff" d="M1241.11,-209.15C1218.33,-238.14 1177.42,-285.07 1132.25,-312.7 1123.45,-318.08 1113.59,-322.59 1103.65,-326.34"/>
<polygon fill="#63b8ff" stroke="#63b8ff" points="1243.86,-211.31 1247.19,-201.26 1238.32,-207.04 1243.86,-211.31"/>
</a>
</g>
</g>
<!-- Node15 -->
<g id="Node000015" class="node">
<title>Node15</title>
<g id="a_Node000015"><a xlink:href="classediteurpanovisu_1_1EditeurPanovisu.html#a2b3125ffe2e6291efacf19df6cb30a8d" target="_top" xlink:title=" ">
<polygon fill="white" stroke="#666666" points="884.88,-270.7 703.88,-270.7 703.88,-250.7 884.88,-250.7 884.88,-270.7"/>
<text xml:space="preserve" text-anchor="middle" x="794.38" y="-257.2" font-family="Helvetica,sans-Serif" font-size="10.00">editeurpanovisu.EditeurPanovisu.start</text>
</a>
</g>
</g>
<!-- Node11&#45;&gt;Node15 -->
<g id="edge25_Node000011_Node000015" class="edge">
<title>Node11&#45;&gt;Node15</title>
<g id="a_edge25_Node000011_Node000015"><a xlink:title=" ">
<path fill="none" stroke="#63b8ff" d="M1222.14,-205.39C1197.4,-218.41 1163.91,-233.91 1132.25,-241.7 1050.34,-261.86 953.99,-265.35 885.36,-264.55"/>
<polygon fill="#63b8ff" stroke="#63b8ff" points="1223.69,-208.52 1230.84,-200.71 1220.38,-202.36 1223.69,-208.52"/>
</a>
</g>
</g>
<!-- Node16 -->
<g id="Node000016" class="node">
<title>Node16</title>
<g id="a_Node000016"><a xlink:href="classediteurpanovisu_1_1EditeurPanovisu.html#aef8c9b28c3e88d6e27e3f62b9a901134" target="_top" xlink:title=" ">
<polygon fill="white" stroke="#666666" points="1130.75,-232.7 943,-232.7 943,-200.7 1130.75,-200.7 1130.75,-232.7"/>
<text xml:space="preserve" text-anchor="start" x="951" y="-219.2" font-family="Helvetica,sans-Serif" font-size="10.00">editeurpanovisu.EditeurPanovisu.sauve</text>
<text xml:space="preserve" text-anchor="middle" x="1036.88" y="-207.2" font-family="Helvetica,sans-Serif" font-size="10.00">Fichiers</text>
</a>
</g>
</g>
<!-- Node11&#45;&gt;Node16 -->
<g id="edge24_Node000011_Node000016" class="edge">
<title>Node11&#45;&gt;Node16</title>
<g id="a_edge24_Node000011_Node000016"><a xlink:title=" ">
<path fill="none" stroke="#63b8ff" d="M1156.85,-199.02C1148.29,-200.3 1139.67,-201.58 1131.19,-202.84"/>
<polygon fill="#63b8ff" stroke="#63b8ff" points="1157.18,-202.52 1166.55,-197.58 1156.15,-195.59 1157.18,-202.52"/>
</a>
</g>
</g>
<!-- Node12&#45;&gt;Node7 -->
<g id="edge15_Node000012_Node000007" class="edge">
<title>Node12&#45;&gt;Node7</title>
<g id="a_edge15_Node000012_Node000007"><a xlink:title=" ">
<path fill="none" stroke="#63b8ff" d="M444.71,-211.29C426.4,-213.98 407.76,-216.72 390.66,-219.23"/>
<polygon fill="#63b8ff" stroke="#63b8ff" points="445.16,-214.76 454.55,-209.85 444.15,-207.84 445.16,-214.76"/>
</a>
</g>
</g>
<!-- Node13&#45;&gt;Node7 -->
<g id="edge19_Node000013_Node000007" class="edge">
<title>Node13&#45;&gt;Node7</title>
<g id="a_edge19_Node000013_Node000007"><a xlink:title=" ">
<path fill="none" stroke="#63b8ff" d="M444.71,-248.11C426.4,-245.42 407.76,-242.68 390.66,-240.17"/>
<polygon fill="#63b8ff" stroke="#63b8ff" points="444.15,-251.56 454.55,-249.55 445.16,-244.64 444.15,-251.56"/>
</a>
</g>
</g>
<!-- Node14&#45;&gt;Node7 -->
<g id="edge21_Node000014_Node000007" class="edge">
<title>Node14&#45;&gt;Node7</title>
<g id="a_edge21_Node000014_Node000007"><a xlink:title=" ">
<path fill="none" stroke="#63b8ff" d="M929.54,-342.69C812.03,-340.41 618.02,-329.88 456.5,-288.7 412.3,-277.43 364.06,-253.77 338.23,-240.08"/>
<polygon fill="#63b8ff" stroke="#63b8ff" points="929.44,-346.19 939.5,-342.87 929.57,-339.19 929.44,-346.19"/>
</a>
</g>
</g>
<!-- Node14&#45;&gt;Node15 -->
<g id="edge22_Node000014_Node000015" class="edge">
<title>Node14&#45;&gt;Node15</title>
<g id="a_edge22_Node000014_Node000015"><a xlink:title=" ">
<path fill="none" stroke="#63b8ff" d="M976.7,-322.52C929.05,-306.28 863.98,-284.09 826.14,-271.19"/>
<polygon fill="#63b8ff" stroke="#63b8ff" points="975.47,-325.8 986.06,-325.72 977.73,-319.18 975.47,-325.8"/>
</a>
</g>
</g>
<!-- Node15&#45;&gt;Node12 -->
<g id="edge23_Node000015_Node000012" class="edge">
<title>Node15&#45;&gt;Node12</title>
<g id="a_edge23_Node000015_Node000012"><a xlink:title=" ">
<path fill="none" stroke="#63b8ff" d="M743.99,-247.35C706.18,-237.13 653.83,-222.99 613.48,-212.08"/>
<polygon fill="#63b8ff" stroke="#63b8ff" points="742.71,-250.63 753.27,-249.86 744.53,-243.87 742.71,-250.63"/>
</a>
</g>
</g>
<!-- Node17&#45;&gt;Node7 -->
<g id="edge27_Node000017_Node000007" class="edge">
<title>Node17&#45;&gt;Node7</title>
<g id="a_edge27_Node000017_Node000007"><a xlink:title=" ">
<path fill="none" stroke="#63b8ff" d="M1177.18,-34.03C1025.69,-4.26 697.42,39.8 456.5,-73.7 388,-105.97 339.61,-190.27 324.43,-219.53"/>
<polygon fill="#63b8ff" stroke="#63b8ff" points="1176.24,-37.42 1186.73,-35.94 1177.61,-30.55 1176.24,-37.42"/>
</a>
</g>
</g>
<!-- Node18&#45;&gt;Node19 -->
<g id="edge30_Node000018_Node000019" class="edge">
<title>Node18&#45;&gt;Node19</title>
<g id="a_edge30_Node000018_Node000019"><a xlink:title=" ">
<path fill="none" stroke="#63b8ff" d="M2068.48,-331.27C2060.84,-334.26 2053.18,-337.43 2046,-340.7 2029.34,-348.29 2026.71,-353.23 2010,-360.7 1999.12,-365.57 1987.19,-370.16 1975.76,-374.21"/>
<polygon fill="#63b8ff" stroke="#63b8ff" points="2069.7,-334.55 2077.81,-327.73 2067.22,-328.01 2069.7,-334.55"/>
</a>
</g>
</g>
<!-- Node20&#45;&gt;Node5 -->
<g id="edge33_Node000020_Node000005" class="edge">
<title>Node20&#45;&gt;Node5</title>
<g id="a_edge33_Node000020_Node000005"><a xlink:title=" ">
<path fill="none" stroke="#63b8ff" d="M2050.25,-203.58C2030.73,-198.82 2009.97,-193.77 1991.03,-189.15"/>
<polygon fill="#63b8ff" stroke="#63b8ff" points="2049.24,-206.94 2059.79,-205.9 2050.9,-200.13 2049.24,-206.94"/>
</a>
</g>
</g>
<!-- Node21 -->
<g id="Node000021" class="node">
<title>Node21</title>
<g id="a_Node000021"><a xlink:href="classediteurpanovisu_1_1EditeurPanovisu.html#a53cccf6a6b2693c872947460b66ae8ee" target="_top" xlink:title=" ">
<polygon fill="white" stroke="#666666" points="1348.5,-368.7 1173.5,-368.7 1173.5,-336.7 1348.5,-336.7 1348.5,-368.7"/>
<text xml:space="preserve" text-anchor="start" x="1181.5" y="-355.2" font-family="Helvetica,sans-Serif" font-size="10.00">editeurpanovisu.EditeurPanovisu.tsk</text>
<text xml:space="preserve" text-anchor="middle" x="1261" y="-343.2" font-family="Helvetica,sans-Serif" font-size="10.00">ChargeListeFichiers</text>
</a>
</g>
</g>
<!-- Node20&#45;&gt;Node21 -->
<g id="edge34_Node000020_Node000021" class="edge">
<title>Node20&#45;&gt;Node21</title>
<g id="a_edge34_Node000020_Node000021"><a xlink:title=" ">
<path fill="none" stroke="#63b8ff" d="M2047.52,-239.66C1940.3,-261.54 1745.47,-299.52 1577.5,-322.7 1500.51,-333.32 1412.43,-341.36 1348.94,-346.43"/>
<polygon fill="#63b8ff" stroke="#63b8ff" points="2047.99,-243.14 2057.09,-237.71 2046.59,-236.28 2047.99,-243.14"/>
</a>
</g>
</g>
<!-- Node21&#45;&gt;Node14 -->
<g id="edge37_Node000021_Node000014" class="edge">
<title>Node21&#45;&gt;Node14</title>
<g id="a_edge37_Node000021_Node000014"><a xlink:title=" ">
<path fill="none" stroke="#63b8ff" d="M1161.88,-348.28C1152.2,-347.85 1142.38,-347.41 1132.73,-346.97"/>
<polygon fill="#63b8ff" stroke="#63b8ff" points="1161.51,-351.77 1171.65,-348.72 1161.82,-344.78 1161.51,-351.77"/>
</a>
</g>
</g>
<!-- Node22 -->
<g id="Node000022" class="node">
<title>Node22</title>
<g id="a_Node000022"><a xlink:href="classediteurpanovisu_1_1EditeurPanovisu.html#a924d3ccff3e4f402d2309cd2eade3237" target="_top" xlink:title=" ">
<polygon fill="white" stroke="#666666" points="905.5,-446.7 683.25,-446.7 683.25,-414.7 905.5,-414.7 905.5,-446.7"/>
<text xml:space="preserve" text-anchor="start" x="691.25" y="-433.2" font-family="Helvetica,sans-Serif" font-size="10.00">editeurpanovisu.EditeurPanovisu.panoramiques</text>
<text xml:space="preserve" text-anchor="middle" x="794.38" y="-421.2" font-family="Helvetica,sans-Serif" font-size="10.00">Ajouter</text>
</a>
</g>
</g>
<!-- Node21&#45;&gt;Node22 -->
<g id="edge35_Node000021_Node000022" class="edge">
<title>Node21&#45;&gt;Node22</title>
<g id="a_edge35_Node000021_Node000022"><a xlink:title=" ">
<path fill="none" stroke="#63b8ff" d="M1213.68,-373.57C1189.83,-383.42 1159.99,-394.38 1132.25,-400.7 1057.83,-417.67 972.12,-425.14 905.78,-428.38"/>
<polygon fill="#63b8ff" stroke="#63b8ff" points="1214.94,-376.84 1222.79,-369.73 1212.22,-370.39 1214.94,-376.84"/>
</a>
</g>
</g>
<!-- Node22&#45;&gt;Node7 -->
<g id="edge36_Node000022_Node000007" class="edge">
<title>Node22&#45;&gt;Node7</title>
<g id="a_edge36_Node000022_Node000007"><a xlink:title=" ">
<path fill="none" stroke="#63b8ff" d="M671.38,-442.38C604.29,-443.45 521.69,-435.63 456.5,-400.7 385.72,-362.78 338.46,-271.2 324.04,-240.18"/>
<polygon fill="#63b8ff" stroke="#63b8ff" points="671.43,-445.88 681.35,-442.14 671.27,-438.88 671.43,-445.88"/>
</a>
</g>
</g>
<!-- Node23&#45;&gt;Node4 -->
<g id="edge39_Node000023_Node000004" class="edge">
<title>Node23&#45;&gt;Node4</title>
<g id="a_edge39_Node000023_Node000004"><a xlink:title=" ">
<path fill="none" stroke="#63b8ff" d="M2265.77,-182.46C2248.67,-181.22 2230.76,-179.93 2213.77,-178.7"/>
<polygon fill="#63b8ff" stroke="#63b8ff" points="2265.13,-185.92 2275.36,-183.15 2265.64,-178.94 2265.13,-185.92"/>
</a>
</g>
</g>
<!-- Node24&#45;&gt;Node19 -->
<g id="edge41_Node000024_Node000019" class="edge">
<title>Node24&#45;&gt;Node19</title>
<g id="a_edge41_Node000024_Node000019"><a xlink:title=" ">
<path fill="none" stroke="#63b8ff" d="M2237.83,-396.57C2162.98,-395.17 2067.14,-393.38 2001.08,-392.15"/>
<polygon fill="#63b8ff" stroke="#63b8ff" points="2237.61,-400.06 2247.67,-396.75 2237.74,-393.07 2237.61,-400.06"/>
</a>
</g>
</g>
<!-- Node26 -->
<g id="Node000026" class="node">
<title>Node26</title>
<g id="a_Node000026"><a xlink:href="classediteurpanovisu_1_1EditeurPanovisu.html#aaee69ab54364f89b58458c744a4195c0" target="_top" xlink:title=" ">
<polygon fill="white" stroke="#666666" points="1577.5,-68.7 1389.75,-68.7 1389.75,-36.7 1577.5,-36.7 1577.5,-68.7"/>
<text xml:space="preserve" text-anchor="start" x="1397.75" y="-55.2" font-family="Helvetica,sans-Serif" font-size="10.00">editeurpanovisu.EditeurPanovisu.sauve</text>
<text xml:space="preserve" text-anchor="middle" x="1483.62" y="-43.2" font-family="Helvetica,sans-Serif" font-size="10.00">FichierProjet</text>
</a>
</g>
</g>
<!-- Node25&#45;&gt;Node26 -->
<g id="edge46_Node000025_Node000026" class="edge">
<title>Node25&#45;&gt;Node26</title>
<g id="a_edge46_Node000025_Node000026"><a xlink:title=" ">
<path fill="none" stroke="#63b8ff" d="M2481.26,-42.7C2391.42,-44.44 2251.81,-46.7 2130.75,-46.7 2130.75,-46.7 2130.75,-46.7 1921.5,-46.7 1802.98,-46.7 1666.39,-48.94 1577.94,-50.68"/>
<polygon fill="#63b8ff" stroke="#63b8ff" points="2481.07,-46.2 2491,-42.51 2480.93,-39.2 2481.07,-46.2"/>
</a>
</g>
</g>
<!-- Node26&#45;&gt;Node11 -->
<g id="edge47_Node000026_Node000011" class="edge">
<title>Node26&#45;&gt;Node11</title>
<g id="a_edge47_Node000026_Node000011"><a xlink:title=" ">
<path fill="none" stroke="#63b8ff" d="M1445.36,-74.82C1401.25,-101.02 1328.82,-144.02 1289.5,-167.37"/>
<polygon fill="#63b8ff" stroke="#63b8ff" points="1447.02,-77.91 1453.83,-69.8 1443.44,-71.9 1447.02,-77.91"/>
</a>
</g>
</g>
<!-- Node26&#45;&gt;Node17 -->
<g id="edge48_Node000026_Node000017" class="edge">
<title>Node26&#45;&gt;Node17</title>
<g id="a_edge48_Node000026_Node000017"><a xlink:title=" ">
<path fill="none" stroke="#63b8ff" d="M1378.13,-52.7C1370.14,-52.7 1362.11,-52.7 1354.21,-52.7"/>
<polygon fill="#63b8ff" stroke="#63b8ff" points="1377.87,-56.2 1387.87,-52.7 1377.87,-49.2 1377.87,-56.2"/>
</a>
</g>
</g>
</g>
</svg>
