<?xml version="1.0" encoding="UTF-8" standalone="no"?>
<!DOCTYPE svg PUBLIC "-//W3C//DTD SVG 1.1//EN"
 "http://www.w3.org/Graphics/SVG/1.1/DTD/svg11.dtd">
<!-- Generated by graphviz version 13.1.2 (20250808.2320)
 -->
<!-- Title: editeurpanovisu.GestionnaireInterfaceController.getWiBarrePersonnaliseeCouleur Pages: 1 -->
<svg width="3098pt" height="504pt"
 viewBox="0.00 0.00 3098.00 504.00" xmlns="http://www.w3.org/2000/svg" xmlns:xlink="http://www.w3.org/1999/xlink">
<g id="graph0" class="graph" transform="scale(1 1) rotate(0) translate(4 500)">
<title>editeurpanovisu.GestionnaireInterfaceController.getWiBarrePersonnaliseeCouleur</title>
<!-- Node1 -->
<g id="Node000001" class="node">
<title>Node1</title>
<g id="a_Node000001"><a xlink:title=" ">
<polygon fill="#999999" stroke="#666666" points="3089.75,-126 2880.25,-126 2880.25,-82 3089.75,-82 3089.75,-126"/>
<text xml:space="preserve" text-anchor="start" x="2888.25" y="-112.5" font-family="Helvetica,sans-Serif" font-size="10.00">editeurpanovisu.Gestionnaire</text>
<text xml:space="preserve" text-anchor="start" x="2888.25" y="-100.5" font-family="Helvetica,sans-Serif" font-size="10.00">InterfaceController.getWiBarrePersonnalisee</text>
<text xml:space="preserve" text-anchor="middle" x="2985" y="-88.5" font-family="Helvetica,sans-Serif" font-size="10.00">Couleur</text>
</a>
</g>
</g>
<!-- Node2 -->
<g id="Node000002" class="node">
<title>Node2</title>
<g id="a_Node000002"><a xlink:href="classediteurpanovisu_1_1GestionnaireInterfaceController.html#a3f85cb5c53dc115280ee2e1290a532f3" target="_top" xlink:title=" ">
<polygon fill="white" stroke="#666666" points="2643.75,-126 2492.75,-126 2492.75,-82 2643.75,-82 2643.75,-126"/>
<text xml:space="preserve" text-anchor="start" x="2500.75" y="-112.5" font-family="Helvetica,sans-Serif" font-size="10.00">editeurpanovisu.Gestionnaire</text>
<text xml:space="preserve" text-anchor="start" x="2500.75" y="-100.5" font-family="Helvetica,sans-Serif" font-size="10.00">InterfaceController.afficheBarre</text>
<text xml:space="preserve" text-anchor="middle" x="2568.25" y="-88.5" font-family="Helvetica,sans-Serif" font-size="10.00">Personnalisee</text>
</a>
</g>
</g>
<!-- Node1&#45;&gt;Node2 -->
<g id="edge1_Node000001_Node000002" class="edge">
<title>Node1&#45;&gt;Node2</title>
<g id="a_edge1_Node000001_Node000002"><a xlink:title=" ">
<path fill="none" stroke="#63b8ff" d="M2868.6,-109.34C2860.36,-109.61 2852.18,-109.83 2844.25,-110 2771.16,-111.57 2752.83,-111.98 2679.75,-110 2668.23,-109.69 2656.04,-109.19 2644.12,-108.62"/>
<polygon fill="#63b8ff" stroke="#63b8ff" points="2868.46,-112.85 2878.34,-109.02 2868.22,-105.85 2868.46,-112.85"/>
</a>
</g>
</g>
<!-- Node25 -->
<g id="Node000025" class="node">
<title>Node25</title>
<g id="a_Node000025"><a xlink:href="classediteurpanovisu_1_1GestionnaireInterfaceController.html#a887c3df8e9a5b08d8dd75d3d6cea4f0e" target="_top" xlink:title=" ">
<polygon fill="white" stroke="#666666" points="2844.25,-101 2679.75,-101 2679.75,-57 2844.25,-57 2844.25,-101"/>
<text xml:space="preserve" text-anchor="start" x="2687.75" y="-87.5" font-family="Helvetica,sans-Serif" font-size="10.00">editeurpanovisu.Gestionnaire</text>
<text xml:space="preserve" text-anchor="start" x="2687.75" y="-75.5" font-family="Helvetica,sans-Serif" font-size="10.00">InterfaceController.changeCouleur</text>
<text xml:space="preserve" text-anchor="middle" x="2762" y="-63.5" font-family="Helvetica,sans-Serif" font-size="10.00">BarrePersonnalisee</text>
</a>
</g>
</g>
<!-- Node1&#45;&gt;Node25 -->
<g id="edge43_Node000001_Node000025" class="edge">
<title>Node1&#45;&gt;Node25</title>
<g id="a_edge43_Node000001_Node000025"><a xlink:title=" ">
<path fill="none" stroke="#63b8ff" d="M2868.56,-90.94C2860.48,-90.03 2852.45,-89.12 2844.62,-88.23"/>
<polygon fill="#63b8ff" stroke="#63b8ff" points="2868.14,-94.42 2878.47,-92.06 2868.92,-87.46 2868.14,-94.42"/>
</a>
</g>
</g>
<!-- Node3 -->
<g id="Node000003" class="node">
<title>Node3</title>
<g id="a_Node000003"><a xlink:href="classediteurpanovisu_1_1GestionnaireInterfaceController.html#a5bdd1505c1ad1eee506c2618c9368994" target="_top" xlink:title=" ">
<polygon fill="white" stroke="#666666" points="2437.62,-164 2268.62,-164 2268.62,-132 2437.62,-132 2437.62,-164"/>
<text xml:space="preserve" text-anchor="start" x="2276.62" y="-150.5" font-family="Helvetica,sans-Serif" font-size="10.00">editeurpanovisu.Gestionnaire</text>
<text xml:space="preserve" text-anchor="middle" x="2353.12" y="-138.5" font-family="Helvetica,sans-Serif" font-size="10.00">InterfaceController.afficheVignettes</text>
</a>
</g>
</g>
<!-- Node2&#45;&gt;Node3 -->
<g id="edge2_Node000002_Node000003" class="edge">
<title>Node2&#45;&gt;Node3</title>
<g id="a_edge2_Node000002_Node000003"><a xlink:title=" ">
<path fill="none" stroke="#63b8ff" d="M2481.16,-121.77C2465.53,-125 2449.29,-128.35 2433.85,-131.54"/>
<polygon fill="#63b8ff" stroke="#63b8ff" points="2481.84,-125.21 2490.93,-119.76 2480.43,-118.35 2481.84,-125.21"/>
</a>
</g>
</g>
<!-- Node19 -->
<g id="Node000019" class="node">
<title>Node19</title>
<g id="a_Node000019"><a xlink:href="classediteurpanovisu_1_1GestionnaireInterfaceController.html#ac7fa988dc99d8684686127a2269cd66e" target="_top" xlink:title=" ">
<polygon fill="white" stroke="#666666" points="2000.62,-76 1844.38,-76 1844.38,-44 2000.62,-44 2000.62,-76"/>
<text xml:space="preserve" text-anchor="start" x="1852.38" y="-62.5" font-family="Helvetica,sans-Serif" font-size="10.00">editeurpanovisu.Gestionnaire</text>
<text xml:space="preserve" text-anchor="middle" x="1922.5" y="-50.5" font-family="Helvetica,sans-Serif" font-size="10.00">InterfaceController.creeInterface</text>
</a>
</g>
</g>
<!-- Node2&#45;&gt;Node19 -->
<g id="edge42_Node000002_Node000019" class="edge">
<title>Node2&#45;&gt;Node19</title>
<g id="a_edge42_Node000002_Node000019"><a xlink:title=" ">
<path fill="none" stroke="#63b8ff" d="M2481.18,-97.79C2409.55,-92.66 2304.9,-85.22 2213.5,-79 2141.52,-74.1 2059.46,-68.74 2001.05,-64.97"/>
<polygon fill="#63b8ff" stroke="#63b8ff" points="2480.65,-101.26 2490.87,-98.49 2481.15,-94.28 2480.65,-101.26"/>
</a>
</g>
</g>
<!-- Node23 -->
<g id="Node000023" class="node">
<title>Node23</title>
<g id="a_Node000023"><a xlink:href="classediteurpanovisu_1_1GestionnaireInterfaceController.html#a6c3ac6b8d3a669f9952954530cc27e52" target="_top" xlink:title=" ">
<polygon fill="white" stroke="#666666" points="2429,-245 2277.25,-245 2277.25,-201 2429,-201 2429,-245"/>
<text xml:space="preserve" text-anchor="start" x="2285.25" y="-231.5" font-family="Helvetica,sans-Serif" font-size="10.00">editeurpanovisu.Gestionnaire</text>
<text xml:space="preserve" text-anchor="start" x="2285.25" y="-219.5" font-family="Helvetica,sans-Serif" font-size="10.00">InterfaceController.chargeBarre</text>
<text xml:space="preserve" text-anchor="middle" x="2353.12" y="-207.5" font-family="Helvetica,sans-Serif" font-size="10.00">Personnalisee</text>
</a>
</g>
</g>
<!-- Node2&#45;&gt;Node23 -->
<g id="edge38_Node000002_Node000023" class="edge">
<title>Node2&#45;&gt;Node23</title>
<g id="a_edge38_Node000002_Node000023"><a xlink:title=" ">
<path fill="none" stroke="#63b8ff" d="M2523.95,-132.51C2503.81,-145.38 2479.36,-160.48 2456.75,-173 2439.5,-182.55 2420.15,-192.23 2402.95,-200.5"/>
<polygon fill="#63b8ff" stroke="#63b8ff" points="2525.67,-135.56 2532.19,-127.21 2521.88,-129.67 2525.67,-135.56"/>
</a>
</g>
</g>
<!-- Node24 -->
<g id="Node000024" class="node">
<title>Node24</title>
<g id="a_Node000024"><a xlink:href="classediteurpanovisu_1_1GestionnaireInterfaceController.html#af830b49c8951d0b3c694aeba5f49d518" target="_top" xlink:title=" ">
<polygon fill="white" stroke="#666666" points="2456.75,-32 2249.5,-32 2249.5,0 2456.75,0 2456.75,-32"/>
<text xml:space="preserve" text-anchor="start" x="2257.5" y="-18.5" font-family="Helvetica,sans-Serif" font-size="10.00">editeurpanovisu.Gestionnaire</text>
<text xml:space="preserve" text-anchor="middle" x="2353.12" y="-6.5" font-family="Helvetica,sans-Serif" font-size="10.00">InterfaceController.choixBarrePersonnalisee</text>
</a>
</g>
</g>
<!-- Node2&#45;&gt;Node24 -->
<g id="edge40_Node000002_Node000024" class="edge">
<title>Node2&#45;&gt;Node24</title>
<g id="a_edge40_Node000002_Node000024"><a xlink:title=" ">
<path fill="none" stroke="#63b8ff" d="M2519.11,-76.07C2500.09,-65.74 2477.78,-54.49 2456.75,-46 2444.36,-40.99 2430.82,-36.43 2417.76,-32.46"/>
<polygon fill="#63b8ff" stroke="#63b8ff" points="2517.25,-79.04 2527.7,-80.8 2520.63,-72.91 2517.25,-79.04"/>
</a>
</g>
</g>
<!-- Node4 -->
<g id="Node000004" class="node">
<title>Node4</title>
<g id="a_Node000004"><a xlink:href="classediteurpanovisu_1_1GestionnaireInterfaceController.html#a55c8afda208674955a13d48d02be41b8" target="_top" xlink:title=" ">
<polygon fill="white" stroke="#666666" points="2213.5,-258 2046,-258 2046,-226 2213.5,-226 2213.5,-258"/>
<text xml:space="preserve" text-anchor="start" x="2054" y="-244.5" font-family="Helvetica,sans-Serif" font-size="10.00">editeurpanovisu.Gestionnaire</text>
<text xml:space="preserve" text-anchor="middle" x="2129.75" y="-232.5" font-family="Helvetica,sans-Serif" font-size="10.00">InterfaceController.afficheTemplate</text>
</a>
</g>
</g>
<!-- Node3&#45;&gt;Node4 -->
<g id="edge3_Node000003_Node000004" class="edge">
<title>Node3&#45;&gt;Node4</title>
<g id="a_edge3_Node000003_Node000004"><a xlink:title=" ">
<path fill="none" stroke="#63b8ff" d="M2298.23,-168.7C2282.22,-175.48 2264.87,-183.48 2249.5,-192 2232.46,-201.44 2231.04,-208.52 2213.5,-217 2207.01,-220.13 2200.05,-222.97 2193.02,-225.52"/>
<polygon fill="#63b8ff" stroke="#63b8ff" points="2299.22,-172.07 2307.11,-165 2296.54,-165.61 2299.22,-172.07"/>
</a>
</g>
</g>
<!-- Node18 -->
<g id="Node000018" class="node">
<title>Node18</title>
<g id="a_Node000018"><a xlink:href="classediteurpanovisu_1_1GestionnaireInterfaceController.html#a8c634f775c31c1a4db22d5ef0659f7e4" target="_top" xlink:title=" ">
<polygon fill="white" stroke="#666666" points="2203.38,-120 2056.12,-120 2056.12,-88 2203.38,-88 2203.38,-120"/>
<text xml:space="preserve" text-anchor="start" x="2064.12" y="-106.5" font-family="Helvetica,sans-Serif" font-size="10.00">editeurpanovisu.Gestionnaire</text>
<text xml:space="preserve" text-anchor="middle" x="2129.75" y="-94.5" font-family="Helvetica,sans-Serif" font-size="10.00">InterfaceController.afficheTitre</text>
</a>
</g>
</g>
<!-- Node3&#45;&gt;Node18 -->
<g id="edge29_Node000003_Node000018" class="edge">
<title>Node3&#45;&gt;Node18</title>
<g id="a_edge29_Node000003_Node000018"><a xlink:title=" ">
<path fill="none" stroke="#63b8ff" d="M2258.12,-129.32C2239.87,-125.69 2221.01,-121.94 2203.57,-118.47"/>
<polygon fill="#63b8ff" stroke="#63b8ff" points="2257.4,-132.74 2267.89,-131.26 2258.77,-125.88 2257.4,-132.74"/>
</a>
</g>
</g>
<!-- Node3&#45;&gt;Node19 -->
<g id="edge31_Node000003_Node000019" class="edge">
<title>Node3&#45;&gt;Node19</title>
<g id="a_edge31_Node000003_Node000019"><a xlink:title=" ">
<path fill="none" stroke="#63b8ff" d="M2257.27,-159.84C2194.38,-163.53 2111.67,-160.21 2046,-129 2024.69,-118.87 2029.74,-102.92 2010,-90 2001.89,-84.69 1992.73,-80.21 1983.49,-76.46"/>
<polygon fill="#63b8ff" stroke="#63b8ff" points="2257.12,-163.35 2266.87,-159.2 2256.66,-156.37 2257.12,-163.35"/>
</a>
</g>
</g>
<!-- Node20 -->
<g id="Node000020" class="node">
<title>Node20</title>
<g id="a_Node000020"><a xlink:href="classediteurpanovisu_1_1GestionnaireInterfaceController.html#a568c34e865fb653f63b8fa7a9a9cafc8" target="_top" xlink:title=" ">
<polygon fill="white" stroke="#666666" points="2200.75,-208 2058.75,-208 2058.75,-176 2200.75,-176 2200.75,-208"/>
<text xml:space="preserve" text-anchor="start" x="2066.75" y="-194.5" font-family="Helvetica,sans-Serif" font-size="10.00">editeurpanovisu.Gestionnaire</text>
<text xml:space="preserve" text-anchor="middle" x="2129.75" y="-182.5" font-family="Helvetica,sans-Serif" font-size="10.00">InterfaceController.rafraichit</text>
</a>
</g>
</g>
<!-- Node3&#45;&gt;Node20 -->
<g id="edge32_Node000003_Node000020" class="edge">
<title>Node3&#45;&gt;Node20</title>
<g id="a_edge32_Node000003_Node000020"><a xlink:title=" ">
<path fill="none" stroke="#63b8ff" d="M2258.2,-166.67C2239.05,-170.47 2219.22,-174.42 2201.07,-178.02"/>
<polygon fill="#63b8ff" stroke="#63b8ff" points="2258.77,-170.12 2267.89,-164.74 2257.4,-163.26 2258.77,-170.12"/>
</a>
</g>
</g>
<!-- Node5 -->
<g id="Node000005" class="node">
<title>Node5</title>
<g id="a_Node000005"><a xlink:href="classediteurpanovisu_1_1EditeurPanovisu.html#a87b29dc258cfc67370b1f27809e91b8e" target="_top" xlink:title=" ">
<polygon fill="white" stroke="#666666" points="2010,-279 1835,-279 1835,-247 2010,-247 2010,-279"/>
<text xml:space="preserve" text-anchor="start" x="1843" y="-265.5" font-family="Helvetica,sans-Serif" font-size="10.00">editeurpanovisu.EditeurPanovisu.tsk</text>
<text xml:space="preserve" text-anchor="middle" x="1922.5" y="-253.5" font-family="Helvetica,sans-Serif" font-size="10.00">AnalyseFichierPVU</text>
</a>
</g>
</g>
<!-- Node4&#45;&gt;Node5 -->
<g id="edge4_Node000004_Node000005" class="edge">
<title>Node4&#45;&gt;Node5</title>
<g id="a_edge4_Node000004_Node000005"><a xlink:title=" ">
<path fill="none" stroke="#63b8ff" d="M2034.37,-251.66C2026.41,-252.47 2018.38,-253.29 2010.48,-254.1"/>
<polygon fill="#63b8ff" stroke="#63b8ff" points="2034.47,-255.17 2044.06,-250.67 2033.75,-248.2 2034.47,-255.17"/>
</a>
</g>
</g>
<!-- Node6 -->
<g id="Node000006" class="node">
<title>Node6</title>
<g id="a_Node000006"><a xlink:href="classediteurpanovisu_1_1EditeurPanovisu.html#ab4beb1597b660a4a253befc6e76f1c54" target="_top" xlink:title=" ">
<polygon fill="white" stroke="#666666" points="1129.62,-454 944.12,-454 944.12,-422 1129.62,-422 1129.62,-454"/>
<text xml:space="preserve" text-anchor="start" x="952.12" y="-440.5" font-family="Helvetica,sans-Serif" font-size="10.00">editeurpanovisu.EditeurPanovisu.projet</text>
<text xml:space="preserve" text-anchor="middle" x="1036.88" y="-428.5" font-family="Helvetica,sans-Serif" font-size="10.00">Charge</text>
</a>
</g>
</g>
<!-- Node5&#45;&gt;Node6 -->
<g id="edge5_Node000005_Node000006" class="edge">
<title>Node5&#45;&gt;Node6</title>
<g id="a_edge5_Node000005_Node000006"><a xlink:title=" ">
<path fill="none" stroke="#63b8ff" d="M1872.14,-283.64C1850.05,-292.32 1823.5,-302.02 1799,-309 1562.81,-376.32 1274.76,-413.36 1130.12,-428.98"/>
<polygon fill="#63b8ff" stroke="#63b8ff" points="1873.2,-286.98 1881.19,-280.03 1870.61,-280.48 1873.2,-286.98"/>
</a>
</g>
</g>
<!-- Node9 -->
<g id="Node000009" class="node">
<title>Node9</title>
<g id="a_Node000009"><a xlink:href="classediteurpanovisu_1_1EditeurPanovisu.html#a6d19b4d885ee6fcec827b91956295732" target="_top" xlink:title=" ">
<polygon fill="white" stroke="#666666" points="1799,-300 1613.5,-300 1613.5,-268 1799,-268 1799,-300"/>
<text xml:space="preserve" text-anchor="start" x="1621.5" y="-286.5" font-family="Helvetica,sans-Serif" font-size="10.00">editeurpanovisu.EditeurPanovisu.projet</text>
<text xml:space="preserve" text-anchor="middle" x="1706.25" y="-274.5" font-family="Helvetica,sans-Serif" font-size="10.00">ChargeNom</text>
</a>
</g>
</g>
<!-- Node5&#45;&gt;Node9 -->
<g id="edge8_Node000005_Node000009" class="edge">
<title>Node5&#45;&gt;Node9</title>
<g id="a_edge8_Node000005_Node000009"><a xlink:title=" ">
<path fill="none" stroke="#63b8ff" d="M1823.44,-272.61C1815.45,-273.39 1807.39,-274.18 1799.45,-274.96"/>
<polygon fill="#63b8ff" stroke="#63b8ff" points="1823.55,-276.12 1833.16,-271.66 1822.87,-269.15 1823.55,-276.12"/>
</a>
</g>
</g>
<!-- Node7 -->
<g id="Node000007" class="node">
<title>Node7</title>
<g id="a_Node000007"><a xlink:href="classediteurpanovisu_1_1EditeurPanovisu.html#ac912b80c1f2ac97def60ff005c5c480b" target="_top" xlink:title=" ">
<polygon fill="white" stroke="#666666" points="420.5,-294 216.25,-294 216.25,-274 420.5,-274 420.5,-294"/>
<text xml:space="preserve" text-anchor="middle" x="318.38" y="-280.5" font-family="Helvetica,sans-Serif" font-size="10.00">editeurpanovisu.EditeurPanovisu.creeMenu</text>
</a>
</g>
</g>
<!-- Node6&#45;&gt;Node7 -->
<g id="edge6_Node000006_Node000007" class="edge">
<title>Node6&#45;&gt;Node7</title>
<g id="a_edge6_Node000006_Node000007"><a xlink:title=" ">
<path fill="none" stroke="#63b8ff" d="M932.5,-448.79C813.28,-457.15 613.55,-458.48 456.5,-396 399.38,-373.28 347.81,-317.7 327.99,-294.47"/>
<polygon fill="#63b8ff" stroke="#63b8ff" points="932.56,-452.29 942.27,-448.07 932.04,-445.31 932.56,-452.29"/>
</a>
</g>
</g>
<!-- Node8 -->
<g id="Node000008" class="node">
<title>Node8</title>
<g id="a_Node000008"><a xlink:href="classediteurpanovisu_1_1EditeurPanovisu.html#a86c393eee88f54c694db994ddd85b90d" target="_top" xlink:title=" ">
<polygon fill="white" stroke="#666666" points="180.25,-300 0,-300 0,-268 180.25,-268 180.25,-300"/>
<text xml:space="preserve" text-anchor="start" x="8" y="-286.5" font-family="Helvetica,sans-Serif" font-size="10.00">editeurpanovisu.EditeurPanovisu.cree</text>
<text xml:space="preserve" text-anchor="middle" x="90.12" y="-274.5" font-family="Helvetica,sans-Serif" font-size="10.00">Environnement</text>
</a>
</g>
</g>
<!-- Node7&#45;&gt;Node8 -->
<g id="edge7_Node000007_Node000008" class="edge">
<title>Node7&#45;&gt;Node8</title>
<g id="a_edge7_Node000007_Node000008"><a xlink:title=" ">
<path fill="none" stroke="#63b8ff" d="M204.51,-284C196.49,-284 188.46,-284 180.6,-284"/>
<polygon fill="#63b8ff" stroke="#63b8ff" points="204.32,-287.5 214.32,-284 204.32,-280.5 204.32,-287.5"/>
</a>
</g>
</g>
<!-- Node9&#45;&gt;Node7 -->
<g id="edge28_Node000009_Node000007" class="edge">
<title>Node9&#45;&gt;Node7</title>
<g id="a_edge28_Node000009_Node000007"><a xlink:title=" ">
<path fill="none" stroke="#63b8ff" d="M1665.9,-262.24C1590.13,-222.45 1417.7,-142 1262,-142 1262,-142 1262,-142 793.38,-142 641.22,-142 599.1,-149.92 456.5,-203 407.78,-221.13 356.67,-256.32 332.95,-273.73"/>
<polygon fill="#63b8ff" stroke="#63b8ff" points="1664.12,-265.26 1674.6,-266.86 1667.41,-259.08 1664.12,-265.26"/>
</a>
</g>
</g>
<!-- Node10 -->
<g id="Node000010" class="node">
<title>Node10</title>
<g id="a_Node000010"><a xlink:href="classediteurpanovisu_1_1EditeurPanovisu.html#af0d1c32bb78acbff561c822a0d15f760" target="_top" xlink:title=" ">
<polygon fill="white" stroke="#666666" points="1577.5,-344 1389.75,-344 1389.75,-312 1577.5,-312 1577.5,-344"/>
<text xml:space="preserve" text-anchor="start" x="1397.75" y="-330.5" font-family="Helvetica,sans-Serif" font-size="10.00">editeurpanovisu.EditeurPanovisu.ajoute</text>
<text xml:space="preserve" text-anchor="middle" x="1483.62" y="-318.5" font-family="Helvetica,sans-Serif" font-size="10.00">FichierHisto</text>
</a>
</g>
</g>
<!-- Node9&#45;&gt;Node10 -->
<g id="edge9_Node000009_Node000010" class="edge">
<title>Node9&#45;&gt;Node10</title>
<g id="a_edge9_Node000009_Node000010"><a xlink:title=" ">
<path fill="none" stroke="#63b8ff" d="M1602.04,-297.85C1579.75,-302.21 1557.08,-307.03 1537.68,-311.55"/>
<polygon fill="#63b8ff" stroke="#63b8ff" points="1602.64,-301.29 1611.8,-295.96 1601.31,-294.42 1602.64,-301.29"/>
</a>
</g>
</g>
<!-- Node10&#45;&gt;Node6 -->
<g id="edge10_Node000010_Node000006" class="edge">
<title>Node10&#45;&gt;Node6</title>
<g id="a_edge10_Node000010_Node000006"><a xlink:title=" ">
<path fill="none" stroke="#63b8ff" d="M1404.9,-347.22C1319.85,-368.26 1184.95,-401.62 1104.55,-421.51"/>
<polygon fill="#63b8ff" stroke="#63b8ff" points="1405.71,-350.63 1414.57,-344.83 1404.02,-343.83 1405.71,-350.63"/>
</a>
</g>
</g>
<!-- Node10&#45;&gt;Node9 -->
<g id="edge11_Node000010_Node000009" class="edge">
<title>Node10&#45;&gt;Node9</title>
<g id="a_edge11_Node000010_Node000009"><a xlink:title=" ">
<path fill="none" stroke="#63b8ff" d="M1588.86,-313.95C1610.79,-309.65 1633.04,-304.92 1652.12,-300.46"/>
<polygon fill="#63b8ff" stroke="#63b8ff" points="1588.43,-310.47 1579.28,-315.81 1589.76,-317.34 1588.43,-310.47"/>
</a>
</g>
</g>
<!-- Node11 -->
<g id="Node000011" class="node">
<title>Node11</title>
<g id="a_Node000011"><a xlink:href="classediteurpanovisu_1_1EditeurPanovisu.html#a9f3ea25b35d4884524508dab3dc4fd6a" target="_top" xlink:title=" ">
<polygon fill="white" stroke="#666666" points="1353.75,-322 1168.25,-322 1168.25,-290 1353.75,-290 1353.75,-322"/>
<text xml:space="preserve" text-anchor="start" x="1176.25" y="-308.5" font-family="Helvetica,sans-Serif" font-size="10.00">editeurpanovisu.EditeurPanovisu.projet</text>
<text xml:space="preserve" text-anchor="middle" x="1261" y="-296.5" font-family="Helvetica,sans-Serif" font-size="10.00">Sauve</text>
</a>
</g>
</g>
<!-- Node10&#45;&gt;Node11 -->
<g id="edge12_Node000010_Node000011" class="edge">
<title>Node10&#45;&gt;Node11</title>
<g id="a_edge12_Node000010_Node000011"><a xlink:title=" ">
<path fill="none" stroke="#63b8ff" d="M1378.13,-317.58C1370.14,-316.78 1362.11,-315.98 1354.21,-315.19"/>
<polygon fill="#63b8ff" stroke="#63b8ff" points="1377.58,-321.04 1387.87,-318.55 1378.27,-314.08 1377.58,-321.04"/>
</a>
</g>
</g>
<!-- Node17 -->
<g id="Node000017" class="node">
<title>Node17</title>
<g id="a_Node000017"><a xlink:href="classediteurpanovisu_1_1EditeurPanovisu.html#a7b2e25dc717eb52b62e23d54ec4c124a" target="_top" xlink:title=" ">
<polygon fill="white" stroke="#666666" points="887.12,-496 701.62,-496 701.62,-464 887.12,-464 887.12,-496"/>
<text xml:space="preserve" text-anchor="start" x="709.62" y="-482.5" font-family="Helvetica,sans-Serif" font-size="10.00">editeurpanovisu.EditeurPanovisu.projet</text>
<text xml:space="preserve" text-anchor="middle" x="794.38" y="-470.5" font-family="Helvetica,sans-Serif" font-size="10.00">SauveSous</text>
</a>
</g>
</g>
<!-- Node10&#45;&gt;Node17 -->
<g id="edge26_Node000010_Node000017" class="edge">
<title>Node10&#45;&gt;Node17</title>
<g id="a_edge26_Node000010_Node000017"><a xlink:title=" ">
<path fill="none" stroke="#63b8ff" d="M1445.87,-350.25C1420.6,-364.9 1385.93,-383.75 1353.75,-397 1258.76,-436.11 1233.49,-445.62 1132.25,-463 1050.29,-477.07 955.61,-480.76 887.53,-481.26"/>
<polygon fill="#63b8ff" stroke="#63b8ff" points="1447.59,-353.3 1454.45,-345.23 1444.05,-347.26 1447.59,-353.3"/>
</a>
</g>
</g>
<!-- Node11&#45;&gt;Node6 -->
<g id="edge16_Node000011_Node000006" class="edge">
<title>Node11&#45;&gt;Node6</title>
<g id="a_edge16_Node000011_Node000006"><a xlink:title=" ">
<path fill="none" stroke="#63b8ff" d="M1230.94,-329.42C1194.09,-359.08 1135,-406.53 1132.25,-408 1122.39,-413.27 1111.46,-417.79 1100.63,-421.62"/>
<polygon fill="#63b8ff" stroke="#63b8ff" points="1233,-332.25 1238.6,-323.25 1228.61,-326.8 1233,-332.25"/>
</a>
</g>
</g>
<!-- Node11&#45;&gt;Node7 -->
<g id="edge13_Node000011_Node000007" class="edge">
<title>Node11&#45;&gt;Node7</title>
<g id="a_edge13_Node000011_Node000007"><a xlink:title=" ">
<path fill="none" stroke="#63b8ff" d="M1156.69,-303.58C975.14,-299.34 601.1,-290.59 420.86,-286.37"/>
<polygon fill="#63b8ff" stroke="#63b8ff" points="1156.5,-307.08 1166.58,-303.82 1156.67,-300.08 1156.5,-307.08"/>
</a>
</g>
</g>
<!-- Node11&#45;&gt;Node9 -->
<g id="edge17_Node000011_Node000009" class="edge">
<title>Node11&#45;&gt;Node9</title>
<g id="a_edge17_Node000011_Node000009"><a xlink:title=" ">
<path fill="none" stroke="#63b8ff" d="M1365.33,-300.87C1440.33,-297.15 1540.88,-292.16 1613.14,-288.57"/>
<polygon fill="#63b8ff" stroke="#63b8ff" points="1365.32,-297.37 1355.5,-301.36 1365.67,-304.36 1365.32,-297.37"/>
</a>
</g>
</g>
<!-- Node12 -->
<g id="Node000012" class="node">
<title>Node12</title>
<g id="a_Node000012"><a xlink:href="classediteurpanovisu_1_1EditeurPanovisu.html#a94e36b9e9d09ab1a4c852b8a8cefa927" target="_top" xlink:title=" ">
<polygon fill="white" stroke="#666666" points="647.25,-278 456.5,-278 456.5,-246 647.25,-246 647.25,-278"/>
<text xml:space="preserve" text-anchor="start" x="464.5" y="-264.5" font-family="Helvetica,sans-Serif" font-size="10.00">editeurpanovisu.EditeurPanovisu.genere</text>
<text xml:space="preserve" text-anchor="middle" x="551.88" y="-252.5" font-family="Helvetica,sans-Serif" font-size="10.00">Visite</text>
</a>
</g>
</g>
<!-- Node11&#45;&gt;Node12 -->
<g id="edge14_Node000011_Node000012" class="edge">
<title>Node11&#45;&gt;Node12</title>
<g id="a_edge14_Node000011_Node000012"><a xlink:title=" ">
<path fill="none" stroke="#63b8ff" d="M1156.68,-294.17C1148.42,-293.38 1140.2,-292.64 1132.25,-292 961.7,-278.25 762.38,-269.54 647.57,-265.23"/>
<polygon fill="#63b8ff" stroke="#63b8ff" points="1156.15,-297.63 1166.45,-295.13 1156.84,-290.66 1156.15,-297.63"/>
</a>
</g>
</g>
<!-- Node13 -->
<g id="Node000013" class="node">
<title>Node13</title>
<g id="a_Node000013"><a xlink:href="classediteurpanovisu_1_1EditeurPanovisu.html#a9b46b222714af12c06ec33d410400773" target="_top" xlink:title=" ">
<polygon fill="white" stroke="#666666" points="647.25,-387 456.5,-387 456.5,-355 647.25,-355 647.25,-387"/>
<text xml:space="preserve" text-anchor="start" x="464.5" y="-373.5" font-family="Helvetica,sans-Serif" font-size="10.00">editeurpanovisu.EditeurPanovisu.projets</text>
<text xml:space="preserve" text-anchor="middle" x="551.88" y="-361.5" font-family="Helvetica,sans-Serif" font-size="10.00">Fermer</text>
</a>
</g>
</g>
<!-- Node11&#45;&gt;Node13 -->
<g id="edge18_Node000011_Node000013" class="edge">
<title>Node11&#45;&gt;Node13</title>
<g id="a_edge18_Node000011_Node000013"><a xlink:title=" ">
<path fill="none" stroke="#63b8ff" d="M1220.69,-327.84C1184.96,-347.59 1137.09,-373.78 1132.25,-375 965.86,-417.06 763.89,-401.28 647.69,-386.07"/>
<polygon fill="#63b8ff" stroke="#63b8ff" points="1222.02,-331.1 1229.08,-323.19 1218.63,-324.98 1222.02,-331.1"/>
</a>
</g>
</g>
<!-- Node14 -->
<g id="Node000014" class="node">
<title>Node14</title>
<g id="a_Node000014"><a xlink:href="classediteurpanovisu_1_1EditeurPanovisu.html#ac9d449399ccd38843fa12e716f0c9611" target="_top" xlink:title=" ">
<polygon fill="white" stroke="#666666" points="1132.25,-202 941.5,-202 941.5,-170 1132.25,-170 1132.25,-202"/>
<text xml:space="preserve" text-anchor="start" x="949.5" y="-188.5" font-family="Helvetica,sans-Serif" font-size="10.00">editeurpanovisu.EditeurPanovisu.projets</text>
<text xml:space="preserve" text-anchor="middle" x="1036.88" y="-176.5" font-family="Helvetica,sans-Serif" font-size="10.00">Nouveau</text>
</a>
</g>
</g>
<!-- Node11&#45;&gt;Node14 -->
<g id="edge20_Node000011_Node000014" class="edge">
<title>Node11&#45;&gt;Node14</title>
<g id="a_edge20_Node000011_Node000014"><a xlink:title=" ">
<path fill="none" stroke="#63b8ff" d="M1231.99,-282.44C1207.11,-262.49 1169.1,-234.29 1132.25,-216 1121.86,-210.84 1110.38,-206.32 1099.12,-202.45"/>
<polygon fill="#63b8ff" stroke="#63b8ff" points="1229.7,-285.1 1239.67,-288.69 1234.12,-279.67 1229.7,-285.1"/>
</a>
</g>
</g>
<!-- Node15 -->
<g id="Node000015" class="node">
<title>Node15</title>
<g id="a_Node000015"><a xlink:href="classediteurpanovisu_1_1EditeurPanovisu.html#a2b3125ffe2e6291efacf19df6cb30a8d" target="_top" xlink:title=" ">
<polygon fill="white" stroke="#666666" points="884.88,-240 703.88,-240 703.88,-220 884.88,-220 884.88,-240"/>
<text xml:space="preserve" text-anchor="middle" x="794.38" y="-226.5" font-family="Helvetica,sans-Serif" font-size="10.00">editeurpanovisu.EditeurPanovisu.start</text>
</a>
</g>
</g>
<!-- Node11&#45;&gt;Node15 -->
<g id="edge25_Node000011_Node000015" class="edge">
<title>Node11&#45;&gt;Node15</title>
<g id="a_edge25_Node000011_Node000015"><a xlink:title=" ">
<path fill="none" stroke="#63b8ff" d="M1217.54,-284.77C1193.2,-273.61 1161.71,-260.86 1132.25,-254 1050.02,-234.85 953.71,-229.65 885.18,-228.76"/>
<polygon fill="#63b8ff" stroke="#63b8ff" points="1215.94,-287.88 1226.48,-288.95 1218.9,-281.54 1215.94,-287.88"/>
</a>
</g>
</g>
<!-- Node16 -->
<g id="Node000016" class="node">
<title>Node16</title>
<g id="a_Node000016"><a xlink:href="classediteurpanovisu_1_1EditeurPanovisu.html#aef8c9b28c3e88d6e27e3f62b9a901134" target="_top" xlink:title=" ">
<polygon fill="white" stroke="#666666" points="1130.75,-366 943,-366 943,-334 1130.75,-334 1130.75,-366"/>
<text xml:space="preserve" text-anchor="start" x="951" y="-352.5" font-family="Helvetica,sans-Serif" font-size="10.00">editeurpanovisu.EditeurPanovisu.sauve</text>
<text xml:space="preserve" text-anchor="middle" x="1036.88" y="-340.5" font-family="Helvetica,sans-Serif" font-size="10.00">Fichiers</text>
</a>
</g>
</g>
<!-- Node11&#45;&gt;Node16 -->
<g id="edge24_Node000011_Node000016" class="edge">
<title>Node11&#45;&gt;Node16</title>
<g id="a_edge24_Node000011_Node000016"><a xlink:title=" ">
<path fill="none" stroke="#63b8ff" d="M1165.74,-324.67C1150.93,-327.6 1135.71,-330.62 1121.17,-333.5"/>
<polygon fill="#63b8ff" stroke="#63b8ff" points="1166.36,-328.12 1175.49,-322.74 1165,-321.25 1166.36,-328.12"/>
</a>
</g>
</g>
<!-- Node12&#45;&gt;Node7 -->
<g id="edge15_Node000012_Node000007" class="edge">
<title>Node12&#45;&gt;Node7</title>
<g id="a_edge15_Node000012_Node000007"><a xlink:title=" ">
<path fill="none" stroke="#63b8ff" d="M444.81,-272.08C436.83,-272.84 428.78,-273.6 420.83,-274.36"/>
<polygon fill="#63b8ff" stroke="#63b8ff" points="444.92,-275.59 454.54,-271.15 444.25,-268.62 444.92,-275.59"/>
</a>
</g>
</g>
<!-- Node13&#45;&gt;Node7 -->
<g id="edge19_Node000013_Node000007" class="edge">
<title>Node13&#45;&gt;Node7</title>
<g id="a_edge19_Node000013_Node000007"><a xlink:title=" ">
<path fill="none" stroke="#63b8ff" d="M496.47,-350.55C449.58,-332.93 383.8,-308.21 347.03,-294.39"/>
<polygon fill="#63b8ff" stroke="#63b8ff" points="495.05,-353.76 505.64,-354 497.51,-347.21 495.05,-353.76"/>
</a>
</g>
</g>
<!-- Node14&#45;&gt;Node7 -->
<g id="edge21_Node000014_Node000007" class="edge">
<title>Node14&#45;&gt;Node7</title>
<g id="a_edge21_Node000014_Node000007"><a xlink:title=" ">
<path fill="none" stroke="#63b8ff" d="M929.65,-186.84C812.45,-189.73 618.9,-200.31 456.5,-237 416.37,-246.07 371.56,-262.72 344.43,-273.58"/>
<polygon fill="#63b8ff" stroke="#63b8ff" points="929.67,-190.34 939.59,-186.61 929.51,-183.34 929.67,-190.34"/>
</a>
</g>
</g>
<!-- Node14&#45;&gt;Node15 -->
<g id="edge22_Node000014_Node000015" class="edge">
<title>Node14&#45;&gt;Node15</title>
<g id="a_edge22_Node000014_Node000015"><a xlink:title=" ">
<path fill="none" stroke="#63b8ff" d="M934.9,-204.47C906.84,-209.61 877.35,-215 852.75,-219.5"/>
<polygon fill="#63b8ff" stroke="#63b8ff" points="935.28,-207.96 944.49,-202.72 934.02,-201.08 935.28,-207.96"/>
</a>
</g>
</g>
<!-- Node15&#45;&gt;Node12 -->
<g id="edge23_Node000015_Node000012" class="edge">
<title>Node15&#45;&gt;Node12</title>
<g id="a_edge23_Node000015_Node000012"><a xlink:title=" ">
<path fill="none" stroke="#63b8ff" d="M703.45,-241.97C685.26,-244.39 666.08,-246.94 647.73,-249.38"/>
<polygon fill="#63b8ff" stroke="#63b8ff" points="703.68,-245.47 713.13,-240.68 702.75,-238.53 703.68,-245.47"/>
</a>
</g>
</g>
<!-- Node17&#45;&gt;Node7 -->
<g id="edge27_Node000017_Node000007" class="edge">
<title>Node17&#45;&gt;Node7</title>
<g id="a_edge27_Node000017_Node000007"><a xlink:title=" ">
<path fill="none" stroke="#63b8ff" d="M689.73,-490.4C619.96,-492.78 528.01,-486.64 456.5,-449 386.96,-412.39 338.9,-324.04 324.15,-294.11"/>
<polygon fill="#63b8ff" stroke="#63b8ff" points="689.81,-493.9 699.65,-489.99 689.52,-486.91 689.81,-493.9"/>
</a>
</g>
</g>
<!-- Node18&#45;&gt;Node19 -->
<g id="edge30_Node000018_Node000019" class="edge">
<title>Node18&#45;&gt;Node19</title>
<g id="a_edge30_Node000018_Node000019"><a xlink:title=" ">
<path fill="none" stroke="#63b8ff" d="M2044.71,-85.98C2030.04,-82.84 2014.84,-79.58 2000.37,-76.48"/>
<polygon fill="#63b8ff" stroke="#63b8ff" points="2043.82,-89.37 2054.33,-88.05 2045.28,-82.53 2043.82,-89.37"/>
</a>
</g>
</g>
<!-- Node20&#45;&gt;Node5 -->
<g id="edge33_Node000020_Node000005" class="edge">
<title>Node20&#45;&gt;Node5</title>
<g id="a_edge33_Node000020_Node000005"><a xlink:title=" ">
<path fill="none" stroke="#63b8ff" d="M2061.62,-211.87C2056.32,-213.57 2051.06,-215.29 2046,-217 2018.89,-226.18 1988.79,-237.46 1965.21,-246.56"/>
<polygon fill="#63b8ff" stroke="#63b8ff" points="2062.57,-215.24 2071.06,-208.9 2060.47,-208.56 2062.57,-215.24"/>
</a>
</g>
</g>
<!-- Node21 -->
<g id="Node000021" class="node">
<title>Node21</title>
<g id="a_Node000021"><a xlink:href="classediteurpanovisu_1_1EditeurPanovisu.html#a53cccf6a6b2693c872947460b66ae8ee" target="_top" xlink:title=" ">
<polygon fill="white" stroke="#666666" points="1348.5,-114 1173.5,-114 1173.5,-82 1348.5,-82 1348.5,-114"/>
<text xml:space="preserve" text-anchor="start" x="1181.5" y="-100.5" font-family="Helvetica,sans-Serif" font-size="10.00">editeurpanovisu.EditeurPanovisu.tsk</text>
<text xml:space="preserve" text-anchor="middle" x="1261" y="-88.5" font-family="Helvetica,sans-Serif" font-size="10.00">ChargeListeFichiers</text>
</a>
</g>
</g>
<!-- Node20&#45;&gt;Node21 -->
<g id="edge34_Node000020_Node000021" class="edge">
<title>Node20&#45;&gt;Node21</title>
<g id="a_edge34_Node000020_Node000021"><a xlink:title=" ">
<path fill="none" stroke="#63b8ff" d="M2046.91,-181.96C1939.31,-168.88 1744.36,-145.62 1577.5,-128 1500.21,-119.84 1412.16,-111.55 1348.76,-105.76"/>
<polygon fill="#63b8ff" stroke="#63b8ff" points="2046.47,-185.43 2056.81,-183.17 2047.31,-178.48 2046.47,-185.43"/>
</a>
</g>
</g>
<!-- Node21&#45;&gt;Node14 -->
<g id="edge37_Node000021_Node000014" class="edge">
<title>Node21&#45;&gt;Node14</title>
<g id="a_edge37_Node000021_Node000014"><a xlink:title=" ">
<path fill="none" stroke="#63b8ff" d="M1207.8,-118.68C1168.55,-134.23 1115.51,-155.24 1079.19,-169.63"/>
<polygon fill="#63b8ff" stroke="#63b8ff" points="1209.07,-121.94 1217.07,-115.01 1206.49,-115.44 1209.07,-121.94"/>
</a>
</g>
</g>
<!-- Node22 -->
<g id="Node000022" class="node">
<title>Node22</title>
<g id="a_Node000022"><a xlink:href="classediteurpanovisu_1_1EditeurPanovisu.html#a924d3ccff3e4f402d2309cd2eade3237" target="_top" xlink:title=" ">
<polygon fill="white" stroke="#666666" points="905.5,-114 683.25,-114 683.25,-82 905.5,-82 905.5,-114"/>
<text xml:space="preserve" text-anchor="start" x="691.25" y="-100.5" font-family="Helvetica,sans-Serif" font-size="10.00">editeurpanovisu.EditeurPanovisu.panoramiques</text>
<text xml:space="preserve" text-anchor="middle" x="794.38" y="-88.5" font-family="Helvetica,sans-Serif" font-size="10.00">Ajouter</text>
</a>
</g>
</g>
<!-- Node21&#45;&gt;Node22 -->
<g id="edge35_Node000021_Node000022" class="edge">
<title>Node21&#45;&gt;Node22</title>
<g id="a_edge35_Node000021_Node000022"><a xlink:title=" ">
<path fill="none" stroke="#63b8ff" d="M1161.83,-98C1086.83,-98 983.44,-98 905.6,-98"/>
<polygon fill="#63b8ff" stroke="#63b8ff" points="1161.64,-101.5 1171.64,-98 1161.64,-94.5 1161.64,-101.5"/>
</a>
</g>
</g>
<!-- Node22&#45;&gt;Node7 -->
<g id="edge36_Node000022_Node000007" class="edge">
<title>Node22&#45;&gt;Node7</title>
<g id="a_edge36_Node000022_Node000007"><a xlink:title=" ">
<path fill="none" stroke="#63b8ff" d="M671.6,-87.46C604.77,-86.79 522.34,-94.62 456.5,-128 389.28,-162.08 340.42,-244.49 324.75,-273.6"/>
<polygon fill="#63b8ff" stroke="#63b8ff" points="671.47,-90.96 681.53,-87.64 671.59,-83.96 671.47,-90.96"/>
</a>
</g>
</g>
<!-- Node23&#45;&gt;Node4 -->
<g id="edge39_Node000023_Node000004" class="edge">
<title>Node23&#45;&gt;Node4</title>
<g id="a_edge39_Node000023_Node000004"><a xlink:title=" ">
<path fill="none" stroke="#63b8ff" d="M2265.77,-230.41C2248.67,-231.88 2230.76,-233.42 2213.77,-234.87"/>
<polygon fill="#63b8ff" stroke="#63b8ff" points="2265.7,-233.93 2275.36,-229.59 2265.1,-226.96 2265.7,-233.93"/>
</a>
</g>
</g>
<!-- Node24&#45;&gt;Node19 -->
<g id="edge41_Node000024_Node000019" class="edge">
<title>Node24&#45;&gt;Node19</title>
<g id="a_edge41_Node000024_Node000019"><a xlink:title=" ">
<path fill="none" stroke="#63b8ff" d="M2238.01,-26.74C2180.41,-32.28 2109.47,-39.26 2046,-46 2031.42,-47.55 2015.87,-49.27 2000.92,-50.96"/>
<polygon fill="#63b8ff" stroke="#63b8ff" points="2238.22,-30.24 2247.84,-25.8 2237.55,-23.27 2238.22,-30.24"/>
</a>
</g>
</g>
<!-- Node25&#45;&gt;Node2 -->
<g id="edge44_Node000025_Node000002" class="edge">
<title>Node25&#45;&gt;Node2</title>
<g id="a_edge44_Node000025_Node000002"><a xlink:title=" ">
<path fill="none" stroke="#63b8ff" d="M2668.07,-91.12C2660.03,-92.16 2651.96,-93.22 2644.08,-94.24"/>
<polygon fill="#63b8ff" stroke="#63b8ff" points="2668.44,-94.6 2677.9,-89.83 2667.53,-87.66 2668.44,-94.6"/>
</a>
</g>
</g>
</g>
</svg>
