<?xml version="1.0" encoding="UTF-8" standalone="no"?>
<!DOCTYPE svg PUBLIC "-//W3C//DTD SVG 1.1//EN"
 "http://www.w3.org/Graphics/SVG/1.1/DTD/svg11.dtd">
<!-- Generated by graphviz version 13.1.2 (20250808.2320)
 -->
<!-- Title: editeurpanovisu.GestionnairePlanController.afficherPlan Pages: 1 -->
<svg width="1580pt" height="738pt"
 viewBox="0.00 0.00 1580.00 738.00" xmlns="http://www.w3.org/2000/svg" xmlns:xlink="http://www.w3.org/1999/xlink">
<g id="graph0" class="graph" transform="scale(1 1) rotate(0) translate(4 733.7)">
<title>editeurpanovisu.GestionnairePlanController.afficherPlan</title>
<!-- Node1 -->
<g id="Node000001" class="node">
<title>Node1</title>
<g id="a_Node000001"><a xlink:title=" ">
<polygon fill="#999999" stroke="#666666" points="142,-413 0,-413 0,-381 142,-381 142,-413"/>
<text xml:space="preserve" text-anchor="start" x="8" y="-399.5" font-family="Helvetica,sans-Serif" font-size="10.00">editeurpanovisu.Gestionnaire</text>
<text xml:space="preserve" text-anchor="middle" x="71" y="-387.5" font-family="Helvetica,sans-Serif" font-size="10.00">PlanController.afficherPlan</text>
</a>
</g>
</g>
<!-- Node2 -->
<g id="Node000002" class="node">
<title>Node2</title>
<g id="a_Node000002"><a xlink:href="classediteurpanovisu_1_1GestionnairePlanController.html#a3e391ad45897cea8e74ed724d7b0a08f" target="_top" xlink:title=" ">
<polygon fill="white" stroke="#666666" points="1375,-688 1225.5,-688 1225.5,-656 1375,-656 1375,-688"/>
<text xml:space="preserve" text-anchor="start" x="1233.5" y="-674.5" font-family="Helvetica,sans-Serif" font-size="10.00">editeurpanovisu.Gestionnaire</text>
<text xml:space="preserve" text-anchor="middle" x="1300.25" y="-662.5" font-family="Helvetica,sans-Serif" font-size="10.00">PlanController.afficheBoussole</text>
</a>
</g>
</g>
<!-- Node1&#45;&gt;Node2 -->
<g id="edge1_Node000001_Node000002" class="edge">
<title>Node1&#45;&gt;Node2</title>
<g id="a_edge1_Node000001_Node000002"><a xlink:title=" ">
<path fill="none" stroke="#63b8ff" d="M77.7,-413.44C90.37,-447.62 124.06,-526.88 178,-571 286.03,-659.38 333.68,-678 473.25,-678 473.25,-678 473.25,-678 886.75,-678 999.79,-678 1130.23,-675.72 1213.66,-673.97"/>
<polygon fill="#63b8ff" stroke="#63b8ff" points="1213.67,-677.47 1223.6,-673.76 1213.53,-670.47 1213.67,-677.47"/>
</a>
</g>
</g>
<!-- Node3 -->
<g id="Node000003" class="node">
<title>Node3</title>
<g id="a_Node000003"><a xlink:href="classediteurpanovisu_1_1GestionnairePlanController.html#a2edd566ca304172fcd4ab5559dd1738c" target="_top" xlink:title=" ">
<polygon fill="white" stroke="#666666" points="1571.75,-587 1428.25,-587 1428.25,-555 1571.75,-555 1571.75,-587"/>
<text xml:space="preserve" text-anchor="start" x="1436.25" y="-573.5" font-family="Helvetica,sans-Serif" font-size="10.00">editeurpanovisu.Gestionnaire</text>
<text xml:space="preserve" text-anchor="middle" x="1500" y="-561.5" font-family="Helvetica,sans-Serif" font-size="10.00">PlanController.getiPlanActuel</text>
</a>
</g>
</g>
<!-- Node1&#45;&gt;Node3 -->
<g id="edge36_Node000001_Node000003" class="edge">
<title>Node1&#45;&gt;Node3</title>
<g id="a_edge36_Node000001_Node000003"><a xlink:title=" ">
<path fill="none" stroke="#63b8ff" d="M74.44,-413.35C81.75,-456.31 107.45,-573.29 178,-634 281.23,-722.83 337.06,-716 473.25,-716 473.25,-716 473.25,-716 1094.75,-716 1227.24,-716 1273.88,-756.51 1392.25,-697 1435.56,-675.23 1468.22,-627.26 1485.41,-597.19"/>
<polygon fill="#63b8ff" stroke="#63b8ff" points="1488.33,-599.14 1490.11,-588.7 1482.21,-595.76 1488.33,-599.14"/>
</a>
</g>
</g>
<!-- Node4 -->
<g id="Node000004" class="node">
<title>Node4</title>
<g id="a_Node000004"><a xlink:href="classediteurpanovisu_1_1GestionnairePlanController.html#a3b110caac2b1cd6e082b90c98de22d91" target="_top" xlink:title=" ">
<polygon fill="white" stroke="#666666" points="1172.25,-650 1015.25,-650 1015.25,-618 1172.25,-618 1172.25,-650"/>
<text xml:space="preserve" text-anchor="start" x="1023.25" y="-636.5" font-family="Helvetica,sans-Serif" font-size="10.00">editeurpanovisu.Gestionnaire</text>
<text xml:space="preserve" text-anchor="middle" x="1093.75" y="-624.5" font-family="Helvetica,sans-Serif" font-size="10.00">PlanController.afficheConfigPlan</text>
</a>
</g>
</g>
<!-- Node1&#45;&gt;Node4 -->
<g id="edge3_Node000001_Node000004" class="edge">
<title>Node1&#45;&gt;Node4</title>
<g id="a_edge3_Node000001_Node000004"><a xlink:title=" ">
<path fill="none" stroke="#63b8ff" d="M86.58,-413.45C135.47,-466.72 300.27,-631 473.25,-631 473.25,-631 473.25,-631 676.88,-631 789.57,-631 919.43,-632.12 1003.64,-632.99"/>
<polygon fill="#63b8ff" stroke="#63b8ff" points="1003.4,-636.48 1013.44,-633.09 1003.48,-629.48 1003.4,-636.48"/>
</a>
</g>
</g>
<!-- Node6 -->
<g id="Node000006" class="node">
<title>Node6</title>
<g id="a_Node000006"><a xlink:href="classediteurpanovisu_1_1GestionnairePlanController.html#ac6a814832aad8390d7157032c3f7f107" target="_top" xlink:title=" ">
<polygon fill="white" stroke="#666666" points="979.25,-448 792.25,-448 792.25,-416 979.25,-416 979.25,-448"/>
<text xml:space="preserve" text-anchor="start" x="800.25" y="-434.5" font-family="Helvetica,sans-Serif" font-size="10.00">editeurpanovisu.Gestionnaire</text>
<text xml:space="preserve" text-anchor="middle" x="885.75" y="-422.5" font-family="Helvetica,sans-Serif" font-size="10.00">PlanController.ajouteAffichageHotspots</text>
</a>
</g>
</g>
<!-- Node1&#45;&gt;Node6 -->
<g id="edge7_Node000001_Node000006" class="edge">
<title>Node1&#45;&gt;Node6</title>
<g id="a_edge7_Node000001_Node000006"><a xlink:title=" ">
<path fill="none" stroke="#63b8ff" d="M120.01,-413.5C138,-419.02 158.74,-424.63 178,-428 431.4,-472.37 499.91,-475.78 756.25,-454 767.08,-453.08 778.36,-451.73 789.55,-450.15"/>
<polygon fill="#63b8ff" stroke="#63b8ff" points="789.81,-453.65 799.19,-448.72 788.78,-446.72 789.81,-453.65"/>
</a>
</g>
</g>
<!-- Node8 -->
<g id="Node000008" class="node">
<title>Node8</title>
<g id="a_Node000008"><a xlink:href="classediteurpanovisu_1_1GestionnairePlanController.html#ae85c33829adf0dab112e4120e0dd2df2" target="_top" xlink:title=" ">
<polygon fill="white" stroke="#666666" points="1392.25,-218 1208.25,-218 1208.25,-186 1392.25,-186 1392.25,-218"/>
<text xml:space="preserve" text-anchor="start" x="1216.25" y="-204.5" font-family="Helvetica,sans-Serif" font-size="10.00">editeurpanovisu.Gestionnaire</text>
<text xml:space="preserve" text-anchor="middle" x="1300.25" y="-192.5" font-family="Helvetica,sans-Serif" font-size="10.00">PlanController.retireAffichageHotSpots</text>
</a>
</g>
</g>
<!-- Node1&#45;&gt;Node8 -->
<g id="edge37_Node000001_Node000008" class="edge">
<title>Node1&#45;&gt;Node8</title>
<g id="a_edge37_Node000001_Node000008"><a xlink:title=" ">
<path fill="none" stroke="#63b8ff" d="M85.36,-380.66C132.25,-325.27 296.16,-148 473.25,-148 473.25,-148 473.25,-148 886.75,-148 1014.25,-148 1046.18,-156.97 1172.25,-176 1185.86,-178.05 1200.21,-180.61 1214.18,-183.31"/>
<polygon fill="#63b8ff" stroke="#63b8ff" points="1213.3,-186.71 1223.79,-185.21 1214.66,-179.84 1213.3,-186.71"/>
</a>
</g>
</g>
<!-- Node11 -->
<g id="Node000011" class="node">
<title>Node11</title>
<g id="a_Node000011"><a xlink:href="classediteurpanovisu_1_1GestionnairePlanController.html#a6ca25de825e710388268b0a3ced9d868" target="_top" xlink:title=" ">
<polygon fill="white" stroke="#666666" points="353,-419 178,-419 178,-375 353,-375 353,-419"/>
<text xml:space="preserve" text-anchor="start" x="186" y="-405.5" font-family="Helvetica,sans-Serif" font-size="10.00">editeurpanovisu.Gestionnaire</text>
<text xml:space="preserve" text-anchor="start" x="186" y="-393.5" font-family="Helvetica,sans-Serif" font-size="10.00">PlanController.ajouteAffichagePoints</text>
<text xml:space="preserve" text-anchor="middle" x="265.5" y="-381.5" font-family="Helvetica,sans-Serif" font-size="10.00">Hotspots</text>
</a>
</g>
</g>
<!-- Node1&#45;&gt;Node11 -->
<g id="edge17_Node000001_Node000011" class="edge">
<title>Node1&#45;&gt;Node11</title>
<g id="a_edge17_Node000001_Node000011"><a xlink:title=" ">
<path fill="none" stroke="#63b8ff" d="M142.31,-397C150.13,-397 158.18,-397 166.26,-397"/>
<polygon fill="#63b8ff" stroke="#63b8ff" points="166.15,-400.5 176.15,-397 166.15,-393.5 166.15,-400.5"/>
</a>
</g>
</g>
<!-- Node17 -->
<g id="Node000017" class="node">
<title>Node17</title>
<g id="a_Node000017"><a xlink:href="classediteurpanovisu_1_1GestionnairePlanController.html#a3ab3f1b67b50004fa4ecd51241317dcd" target="_top" xlink:title=" ">
<polygon fill="white" stroke="#666666" points="336.5,-82 194.5,-82 194.5,-50 336.5,-50 336.5,-82"/>
<text xml:space="preserve" text-anchor="start" x="202.5" y="-68.5" font-family="Helvetica,sans-Serif" font-size="10.00">editeurpanovisu.Gestionnaire</text>
<text xml:space="preserve" text-anchor="middle" x="265.5" y="-56.5" font-family="Helvetica,sans-Serif" font-size="10.00">PlanController.getApPlan</text>
</a>
</g>
</g>
<!-- Node1&#45;&gt;Node17 -->
<g id="edge35_Node000001_Node000017" class="edge">
<title>Node1&#45;&gt;Node17</title>
<g id="a_edge35_Node000001_Node000017"><a xlink:title=" ">
<path fill="none" stroke="#63b8ff" d="M72.94,-380.72C76.69,-330.9 94.75,-178.85 178,-96 180.85,-93.17 183.97,-90.6 187.3,-88.28"/>
<polygon fill="#63b8ff" stroke="#63b8ff" points="189.07,-91.29 195.83,-83.13 185.46,-85.3 189.07,-91.29"/>
</a>
</g>
</g>
<!-- Node18 -->
<g id="Node000018" class="node">
<title>Node18</title>
<g id="a_Node000018"><a xlink:href="classediteurpanovisu_1_1GestionnairePlanController.html#aff1e9a3b2cfc2290d47ef88959714f88" target="_top" xlink:title=" ">
<polygon fill="white" stroke="#666666" points="559.5,-44 389,-44 389,0 559.5,0 559.5,-44"/>
<text xml:space="preserve" text-anchor="start" x="397" y="-30.5" font-family="Helvetica,sans-Serif" font-size="10.00">editeurpanovisu.Gestionnaire</text>
<text xml:space="preserve" text-anchor="start" x="397" y="-18.5" font-family="Helvetica,sans-Serif" font-size="10.00">PlanController.retireAffichagePoints</text>
<text xml:space="preserve" text-anchor="middle" x="474.25" y="-6.5" font-family="Helvetica,sans-Serif" font-size="10.00">HotSpots</text>
</a>
</g>
</g>
<!-- Node1&#45;&gt;Node18 -->
<g id="edge38_Node000001_Node000018" class="edge">
<title>Node1&#45;&gt;Node18</title>
<g id="a_edge38_Node000001_Node000018"><a xlink:title=" ">
<path fill="none" stroke="#63b8ff" d="M73.51,-380.81C78.7,-334.68 100.08,-201.56 178,-134 238.51,-81.53 282.39,-128.8 353,-91 372.14,-80.76 370.76,-69.77 389,-58 393.72,-54.95 398.75,-52.06 403.9,-49.34"/>
<polygon fill="#63b8ff" stroke="#63b8ff" points="405.2,-52.6 412.57,-45 402.07,-46.35 405.2,-52.6"/>
</a>
</g>
</g>
<!-- Node19 -->
<g id="Node000019" class="node">
<title>Node19</title>
<g id="a_Node000019"><a xlink:href="classediteurpanovisu_1_1GestionnairePlanController.html#a2f5a045c16dc044403025b9e0a3d7391" target="_top" xlink:title=" ">
<polygon fill="white" stroke="#666666" points="337.25,-32 193.75,-32 193.75,0 337.25,0 337.25,-32"/>
<text xml:space="preserve" text-anchor="start" x="201.75" y="-18.5" font-family="Helvetica,sans-Serif" font-size="10.00">editeurpanovisu.Gestionnaire</text>
<text xml:space="preserve" text-anchor="middle" x="265.5" y="-6.5" font-family="Helvetica,sans-Serif" font-size="10.00">PlanController.setiPlanActuel</text>
</a>
</g>
</g>
<!-- Node1&#45;&gt;Node19 -->
<g id="edge40_Node000001_Node000019" class="edge">
<title>Node1&#45;&gt;Node19</title>
<g id="a_edge40_Node000001_Node000019"><a xlink:title=" ">
<path fill="none" stroke="#63b8ff" d="M71.71,-380.83C71.63,-325.1 79.11,-139.1 178,-41 179.85,-39.17 181.82,-37.47 183.9,-35.89"/>
<polygon fill="#63b8ff" stroke="#63b8ff" points="185.74,-38.86 192.3,-30.54 181.98,-32.96 185.74,-38.86"/>
</a>
</g>
</g>
<!-- Node2&#45;&gt;Node3 -->
<g id="edge2_Node000002_Node000003" class="edge">
<title>Node2&#45;&gt;Node3</title>
<g id="a_edge2_Node000002_Node000003"><a xlink:title=" ">
<path fill="none" stroke="#63b8ff" d="M1358.98,-655.57C1370.23,-651.64 1381.78,-647.09 1392.25,-642 1419.55,-628.72 1448.06,-609.44 1468.75,-594.32"/>
<polygon fill="#63b8ff" stroke="#63b8ff" points="1470.79,-597.16 1476.73,-588.39 1466.62,-591.54 1470.79,-597.16"/>
</a>
</g>
</g>
<!-- Node4&#45;&gt;Node2 -->
<g id="edge4_Node000004_Node000002" class="edge">
<title>Node4&#45;&gt;Node2</title>
<g id="a_edge4_Node000004_Node000002"><a xlink:title=" ">
<path fill="none" stroke="#63b8ff" d="M1172.65,-648.47C1186.27,-651.01 1200.51,-653.65 1214.32,-656.22"/>
<polygon fill="#63b8ff" stroke="#63b8ff" points="1213.32,-659.59 1223.79,-657.98 1214.6,-652.71 1213.32,-659.59"/>
</a>
</g>
</g>
<!-- Node4&#45;&gt;Node3 -->
<g id="edge5_Node000004_Node000003" class="edge">
<title>Node4&#45;&gt;Node3</title>
<g id="a_edge5_Node000004_Node000003"><a xlink:title=" ">
<path fill="none" stroke="#63b8ff" d="M1172.75,-630.39C1233.13,-626.58 1318.61,-618.94 1392.25,-604 1408.7,-600.66 1426.23,-595.81 1442.22,-590.85"/>
<polygon fill="#63b8ff" stroke="#63b8ff" points="1443.11,-594.24 1451.58,-587.87 1440.99,-587.57 1443.11,-594.24"/>
</a>
</g>
</g>
<!-- Node5 -->
<g id="Node000005" class="node">
<title>Node5</title>
<g id="a_Node000005"><a xlink:href="leaflet_8js.html#a73aff07b65d7c0b09ccf6b4c4f1b7a9d" target="_top" xlink:title=" ">
<polygon fill="white" stroke="#666666" points="1514.4,-272 1485.6,-272 1485.6,-252 1514.4,-252 1514.4,-272"/>
<text xml:space="preserve" text-anchor="middle" x="1500" y="-258.5" font-family="Helvetica,sans-Serif" font-size="10.00">i</text>
</a>
</g>
</g>
<!-- Node4&#45;&gt;Node5 -->
<g id="edge6_Node000004_Node000005" class="edge">
<title>Node4&#45;&gt;Node5</title>
<g id="a_edge6_Node000004_Node000005"><a xlink:title=" ">
<path fill="none" stroke="#63b8ff" d="M1115.78,-617.73C1165.63,-578.83 1294.13,-476.55 1392.25,-381 1426.65,-347.49 1463.32,-304.92 1483.47,-280.84"/>
<polygon fill="#63b8ff" stroke="#63b8ff" points="1485.91,-283.38 1489.61,-273.46 1480.53,-278.91 1485.91,-283.38"/>
</a>
</g>
</g>
<!-- Node6&#45;&gt;Node3 -->
<g id="edge14_Node000006_Node000003" class="edge">
<title>Node6&#45;&gt;Node3</title>
<g id="a_edge14_Node000006_Node000003"><a xlink:title=" ">
<path fill="none" stroke="#63b8ff" d="M979.72,-432.1C1083.5,-435.01 1254.9,-448.25 1392.25,-500 1421.69,-511.09 1451.17,-531.58 1471.66,-547.71"/>
<polygon fill="#63b8ff" stroke="#63b8ff" points="1469.25,-550.26 1479.23,-553.81 1473.64,-544.81 1469.25,-550.26"/>
</a>
</g>
</g>
<!-- Node7 -->
<g id="Node000007" class="node">
<title>Node7</title>
<g id="a_Node000007"><a xlink:href="classediteurpanovisu_1_1GestionnairePlanController.html#ad4f72bd693b5b3bd93bee89bda000990" target="_top" xlink:title=" ">
<polygon fill="white" stroke="#666666" points="1164.75,-410 1022.75,-410 1022.75,-378 1164.75,-378 1164.75,-410"/>
<text xml:space="preserve" text-anchor="start" x="1030.75" y="-396.5" font-family="Helvetica,sans-Serif" font-size="10.00">editeurpanovisu.Gestionnaire</text>
<text xml:space="preserve" text-anchor="middle" x="1093.75" y="-384.5" font-family="Helvetica,sans-Serif" font-size="10.00">PlanController.affichageHS</text>
</a>
</g>
</g>
<!-- Node6&#45;&gt;Node7 -->
<g id="edge8_Node000006_Node000007" class="edge">
<title>Node6&#45;&gt;Node7</title>
<g id="a_edge8_Node000006_Node000007"><a xlink:title=" ">
<path fill="none" stroke="#63b8ff" d="M943.04,-415.53C964.13,-411 988.53,-406.32 1011.44,-402.38"/>
<polygon fill="#63b8ff" stroke="#63b8ff" points="1011.77,-405.88 1021.05,-400.77 1010.61,-398.98 1011.77,-405.88"/>
</a>
</g>
</g>
<!-- Node10 -->
<g id="Node000010" class="node">
<title>Node10</title>
<g id="a_Node000010"><a xlink:href="classediteurpanovisu_1_1GestionnairePlanController.html#ace9c9d5683a0db9254026f3cb20cedd3" target="_top" xlink:title=" ">
<polygon fill="white" stroke="#666666" points="1164.75,-322 1022.75,-322 1022.75,-290 1164.75,-290 1164.75,-322"/>
<text xml:space="preserve" text-anchor="start" x="1030.75" y="-308.5" font-family="Helvetica,sans-Serif" font-size="10.00">editeurpanovisu.Gestionnaire</text>
<text xml:space="preserve" text-anchor="middle" x="1093.75" y="-296.5" font-family="Helvetica,sans-Serif" font-size="10.00">PlanController.listePano</text>
</a>
</g>
</g>
<!-- Node6&#45;&gt;Node10 -->
<g id="edge15_Node000006_Node000010" class="edge">
<title>Node6&#45;&gt;Node10</title>
<g id="a_edge15_Node000006_Node000010"><a xlink:title=" ">
<path fill="none" stroke="#63b8ff" d="M961.93,-415.54C967.97,-413.07 973.82,-410.24 979.25,-407 999.23,-395.08 998.19,-384.82 1015.25,-369 1030.2,-355.14 1047.77,-340.72 1062.4,-329.18"/>
<polygon fill="#63b8ff" stroke="#63b8ff" points="1064.16,-332.24 1069.88,-323.33 1059.85,-326.73 1064.16,-332.24"/>
</a>
</g>
</g>
<!-- Node7&#45;&gt;Node6 -->
<g id="edge9_Node000007_Node000006" class="edge">
<title>Node7&#45;&gt;Node6</title>
<g id="a_edge9_Node000007_Node000006"><a xlink:title=" ">
<path fill="none" stroke="#63b8ff" d="M1036.48,-410.47C1022.17,-413.54 1006.33,-416.68 990.47,-419.62"/>
<polygon fill="#63b8ff" stroke="#63b8ff" points="990.21,-416.11 980.99,-421.34 991.46,-422.99 990.21,-416.11"/>
</a>
</g>
</g>
<!-- Node7&#45;&gt;Node8 -->
<g id="edge10_Node000007_Node000008" class="edge">
<title>Node7&#45;&gt;Node8</title>
<g id="a_edge10_Node000007_Node000008"><a xlink:title=" ">
<path fill="none" stroke="#63b8ff" d="M1116.33,-377.5C1132.18,-365.14 1154.03,-347.56 1172.25,-331 1210.27,-296.43 1251.54,-253.39 1276.39,-226.81"/>
<polygon fill="#63b8ff" stroke="#63b8ff" points="1278.88,-229.27 1283.13,-219.57 1273.75,-224.5 1278.88,-229.27"/>
</a>
</g>
</g>
<!-- Node9 -->
<g id="Node000009" class="node">
<title>Node9</title>
<g id="a_Node000009"><a xlink:href="classediteurpanovisu_1_1GestionnairePlanController.html#ae1523e38be18cc67cdfc275adff5dd18" target="_top" xlink:title=" ">
<polygon fill="white" stroke="#666666" points="1371.25,-372 1229.25,-372 1229.25,-340 1371.25,-340 1371.25,-372"/>
<text xml:space="preserve" text-anchor="start" x="1237.25" y="-358.5" font-family="Helvetica,sans-Serif" font-size="10.00">editeurpanovisu.Gestionnaire</text>
<text xml:space="preserve" text-anchor="middle" x="1300.25" y="-346.5" font-family="Helvetica,sans-Serif" font-size="10.00">PlanController.valideHsplan</text>
</a>
</g>
</g>
<!-- Node7&#45;&gt;Node9 -->
<g id="edge11_Node000007_Node000009" class="edge">
<title>Node7&#45;&gt;Node9</title>
<g id="a_edge11_Node000007_Node000009"><a xlink:title=" ">
<path fill="none" stroke="#63b8ff" d="M1165.13,-380.92C1182.09,-377.77 1200.36,-374.38 1217.78,-371.14"/>
<polygon fill="#63b8ff" stroke="#63b8ff" points="1218.41,-374.58 1227.6,-369.31 1217.13,-367.7 1218.41,-374.58"/>
</a>
</g>
</g>
<!-- Node9&#45;&gt;Node3 -->
<g id="edge12_Node000009_Node000003" class="edge">
<title>Node9&#45;&gt;Node3</title>
<g id="a_edge12_Node000009_Node000003"><a xlink:title=" ">
<path fill="none" stroke="#63b8ff" d="M1327.21,-372.31C1346.37,-385.06 1372.44,-403.92 1392.25,-424 1429.86,-462.13 1464.54,-514.35 1483.64,-545.19"/>
<polygon fill="#63b8ff" stroke="#63b8ff" points="1480.5,-546.78 1488.7,-553.49 1486.48,-543.13 1480.5,-546.78"/>
</a>
</g>
</g>
<!-- Node9&#45;&gt;Node5 -->
<g id="edge13_Node000009_Node000005" class="edge">
<title>Node9&#45;&gt;Node5</title>
<g id="a_edge13_Node000009_Node000005"><a xlink:title=" ">
<path fill="none" stroke="#63b8ff" d="M1341.39,-339.52C1357.33,-332.79 1375.77,-324.77 1392.25,-317 1421.16,-303.38 1453.72,-286.35 1475.19,-274.88"/>
<polygon fill="#63b8ff" stroke="#63b8ff" points="1476.85,-277.96 1484,-270.15 1473.54,-271.8 1476.85,-277.96"/>
</a>
</g>
</g>
<!-- Node10&#45;&gt;Node5 -->
<g id="edge16_Node000010_Node000005" class="edge">
<title>Node10&#45;&gt;Node5</title>
<g id="a_edge16_Node000010_Node000005"><a xlink:title=" ">
<path fill="none" stroke="#63b8ff" d="M1165.14,-299.5C1225.46,-293.79 1314.64,-285 1392.25,-276 1420.32,-272.74 1452.46,-268.45 1474.08,-265.48"/>
<polygon fill="#63b8ff" stroke="#63b8ff" points="1474.27,-268.99 1483.7,-264.15 1473.31,-262.06 1474.27,-268.99"/>
</a>
</g>
</g>
<!-- Node11&#45;&gt;Node3 -->
<g id="edge33_Node000011_Node000003" class="edge">
<title>Node11&#45;&gt;Node3</title>
<g id="a_edge33_Node000011_Node000003"><a xlink:title=" ">
<path fill="none" stroke="#63b8ff" d="M292.2,-419.14C353.79,-469.83 516.47,-590 674.88,-590 674.88,-590 674.88,-590 1094.75,-590 1206.2,-590 1334.73,-582.71 1416.4,-577.16"/>
<polygon fill="#63b8ff" stroke="#63b8ff" points="1416.6,-580.65 1426.34,-576.47 1416.12,-573.67 1416.6,-580.65"/>
</a>
</g>
</g>
<!-- Node11&#45;&gt;Node5 -->
<g id="edge34_Node000011_Node000005" class="edge">
<title>Node11&#45;&gt;Node5</title>
<g id="a_edge34_Node000011_Node000005"><a xlink:title=" ">
<path fill="none" stroke="#63b8ff" d="M279.58,-374.66C324.43,-301.23 480.06,-72 674.88,-72 674.88,-72 674.88,-72 1094.75,-72 1228.1,-72 1278.07,-42.11 1392.25,-111 1443.4,-141.86 1476.59,-207.63 1490.9,-241.26"/>
<polygon fill="#63b8ff" stroke="#63b8ff" points="1487.58,-242.37 1494.61,-250.3 1494.06,-239.72 1487.58,-242.37"/>
</a>
</g>
</g>
<!-- Node12 -->
<g id="Node000012" class="node">
<title>Node12</title>
<g id="a_Node000012"><a xlink:href="classediteurpanovisu_1_1GestionnairePlanController.html#a2e6f0187e7151e006c001659da532c6e" target="_top" xlink:title=" ">
<polygon fill="white" stroke="#666666" points="545.25,-413 403.25,-413 403.25,-381 545.25,-381 545.25,-413"/>
<text xml:space="preserve" text-anchor="start" x="411.25" y="-399.5" font-family="Helvetica,sans-Serif" font-size="10.00">editeurpanovisu.Gestionnaire</text>
<text xml:space="preserve" text-anchor="middle" x="474.25" y="-387.5" font-family="Helvetica,sans-Serif" font-size="10.00">PlanController.afficheHS</text>
</a>
</g>
</g>
<!-- Node11&#45;&gt;Node12 -->
<g id="edge18_Node000011_Node000012" class="edge">
<title>Node11&#45;&gt;Node12</title>
<g id="a_edge18_Node000011_Node000012"><a xlink:title=" ">
<path fill="none" stroke="#63b8ff" d="M353.28,-397C365.97,-397 379.01,-397 391.59,-397"/>
<polygon fill="#63b8ff" stroke="#63b8ff" points="391.48,-400.5 401.48,-397 391.48,-393.5 391.48,-400.5"/>
</a>
</g>
</g>
<!-- Node12&#45;&gt;Node3 -->
<g id="edge28_Node000012_Node000003" class="edge">
<title>Node12&#45;&gt;Node3</title>
<g id="a_edge28_Node000012_Node000003"><a xlink:title=" ">
<path fill="none" stroke="#63b8ff" d="M493.27,-413.33C515.53,-432.49 555.4,-463.6 595.5,-479 744.5,-536.23 1222.96,-560.48 1416.54,-568.12"/>
<polygon fill="#63b8ff" stroke="#63b8ff" points="1416.13,-571.61 1426.26,-568.5 1416.4,-564.61 1416.13,-571.61"/>
</a>
</g>
</g>
<!-- Node12&#45;&gt;Node5 -->
<g id="edge29_Node000012_Node000005" class="edge">
<title>Node12&#45;&gt;Node5</title>
<g id="a_edge29_Node000012_Node000005"><a xlink:title=" ">
<path fill="none" stroke="#63b8ff" d="M481.83,-380.73C496.79,-345.66 536.7,-262.38 595.5,-216 703,-131.21 747.83,-110 884.75,-110 884.75,-110 884.75,-110 1094.75,-110 1230.28,-110 1270.03,-118.42 1392.25,-177 1427.26,-193.78 1461.2,-223.92 1481.09,-243.43"/>
<polygon fill="#63b8ff" stroke="#63b8ff" points="1478.58,-245.87 1488.12,-250.49 1483.54,-240.93 1478.58,-245.87"/>
</a>
</g>
</g>
<!-- Node12&#45;&gt;Node6 -->
<g id="edge27_Node000012_Node000006" class="edge">
<title>Node12&#45;&gt;Node6</title>
<g id="a_edge27_Node000012_Node000006"><a xlink:title=" ">
<path fill="none" stroke="#63b8ff" d="M545.49,-400.65C602.39,-403.87 684.58,-409.12 756.25,-416 764.17,-416.76 772.36,-417.62 780.59,-418.53"/>
<polygon fill="#63b8ff" stroke="#63b8ff" points="779.99,-421.98 790.32,-419.63 780.78,-415.03 779.99,-421.98"/>
</a>
</g>
</g>
<!-- Node12&#45;&gt;Node8 -->
<g id="edge30_Node000012_Node000008" class="edge">
<title>Node12&#45;&gt;Node8</title>
<g id="a_edge30_Node000012_Node000008"><a xlink:title=" ">
<path fill="none" stroke="#63b8ff" d="M493.89,-380.69C540.3,-341.34 666.34,-241.9 792.25,-208 928.46,-171.32 1092.79,-178.21 1196.68,-188.5"/>
<polygon fill="#63b8ff" stroke="#63b8ff" points="1196.29,-191.97 1206.6,-189.51 1197.01,-185.01 1196.29,-191.97"/>
</a>
</g>
</g>
<!-- Node12&#45;&gt;Node9 -->
<g id="edge31_Node000012_Node000009" class="edge">
<title>Node12&#45;&gt;Node9</title>
<g id="a_edge31_Node000012_Node000009"><a xlink:title=" ">
<path fill="none" stroke="#63b8ff" d="M501.27,-413.36C524.85,-427.18 561.07,-445.98 595.5,-454 761.61,-492.71 809.49,-473.55 979.25,-457 1066.26,-448.52 1096.74,-463.07 1172.25,-419 1193.48,-406.61 1187.22,-389.73 1208.25,-377 1211.44,-375.07 1214.79,-373.31 1218.25,-371.72"/>
<polygon fill="#63b8ff" stroke="#63b8ff" points="1219.53,-374.98 1227.49,-367.98 1216.9,-368.49 1219.53,-374.98"/>
</a>
</g>
</g>
<!-- Node13 -->
<g id="Node000013" class="node">
<title>Node13</title>
<g id="a_Node000013"><a xlink:href="classediteurpanovisu_1_1GestionnairePlanController.html#a375ef7ea66bf40c2ad7d973e1a40c065" target="_top" xlink:title=" ">
<polygon fill="white" stroke="#666666" points="756.25,-366 595.5,-366 595.5,-322 756.25,-322 756.25,-366"/>
<text xml:space="preserve" text-anchor="start" x="603.5" y="-352.5" font-family="Helvetica,sans-Serif" font-size="10.00">editeurpanovisu.Gestionnaire</text>
<text xml:space="preserve" text-anchor="start" x="603.5" y="-340.5" font-family="Helvetica,sans-Serif" font-size="10.00">PlanController.afficherListePanos</text>
<text xml:space="preserve" text-anchor="middle" x="675.88" y="-328.5" font-family="Helvetica,sans-Serif" font-size="10.00">Vignettes</text>
</a>
</g>
</g>
<!-- Node12&#45;&gt;Node13 -->
<g id="edge19_Node000012_Node000013" class="edge">
<title>Node12&#45;&gt;Node13</title>
<g id="a_edge19_Node000012_Node000013"><a xlink:title=" ">
<path fill="none" stroke="#63b8ff" d="M537.32,-380.52C552.2,-376.57 568.39,-372.27 584.27,-368.06"/>
<polygon fill="#63b8ff" stroke="#63b8ff" points="584.96,-371.49 593.73,-365.54 583.16,-364.73 584.96,-371.49"/>
</a>
</g>
</g>
<!-- Node16 -->
<g id="Node000016" class="node">
<title>Node16</title>
<g id="a_Node000016"><a xlink:href="leaflet_8js.html#a873cae0273c5a7d9673544bbe0a6fe8b" target="_top" xlink:title=" ">
<polygon fill="white" stroke="#666666" points="690.27,-445 661.48,-445 661.48,-425 690.27,-425 690.27,-445"/>
<text xml:space="preserve" text-anchor="middle" x="675.88" y="-431.5" font-family="Helvetica,sans-Serif" font-size="10.00">Y</text>
</a>
</g>
</g>
<!-- Node12&#45;&gt;Node16 -->
<g id="edge32_Node000012_Node000016" class="edge">
<title>Node12&#45;&gt;Node16</title>
<g id="a_edge32_Node000012_Node000016"><a xlink:title=" ">
<path fill="none" stroke="#63b8ff" d="M545.63,-410.4C582.07,-417.33 624.25,-425.36 650.25,-430.31"/>
<polygon fill="#63b8ff" stroke="#63b8ff" points="649.33,-433.7 659.81,-432.13 650.64,-426.82 649.33,-433.7"/>
</a>
</g>
</g>
<!-- Node13&#45;&gt;Node3 -->
<g id="edge21_Node000013_Node000003" class="edge">
<title>Node13&#45;&gt;Node3</title>
<g id="a_edge21_Node000013_Node000003"><a xlink:title=" ">
<path fill="none" stroke="#63b8ff" d="M702.94,-366.31C718.77,-380.18 739.16,-398.63 756.25,-416 773.26,-433.29 770.88,-445.54 792.25,-457 1029.39,-584.16 1129.48,-480.07 1392.25,-538 1408.26,-541.53 1425.33,-546.32 1441.02,-551.16"/>
<polygon fill="#63b8ff" stroke="#63b8ff" points="1439.59,-554.39 1450.18,-554.05 1441.7,-547.71 1439.59,-554.39"/>
</a>
</g>
</g>
<!-- Node13&#45;&gt;Node5 -->
<g id="edge22_Node000013_Node000005" class="edge">
<title>Node13&#45;&gt;Node5</title>
<g id="a_edge22_Node000013_Node000005"><a xlink:title=" ">
<path fill="none" stroke="#63b8ff" d="M756.72,-325.75C824.98,-310.97 926.03,-291 1015.25,-281 1190.17,-261.39 1402.64,-261.15 1474.16,-261.71"/>
<polygon fill="#63b8ff" stroke="#63b8ff" points="1473.93,-265.21 1483.97,-261.8 1474,-258.21 1473.93,-265.21"/>
</a>
</g>
</g>
<!-- Node13&#45;&gt;Node6 -->
<g id="edge20_Node000013_Node000006" class="edge">
<title>Node13&#45;&gt;Node6</title>
<g id="a_edge20_Node000013_Node000006"><a xlink:title=" ">
<path fill="none" stroke="#63b8ff" d="M724.84,-366.3C735.33,-371.53 746.27,-377.25 756.25,-383 772.92,-392.59 774.74,-399.05 792.25,-407 795.95,-408.68 799.79,-410.27 803.7,-411.76"/>
<polygon fill="#63b8ff" stroke="#63b8ff" points="802.18,-414.94 812.78,-415.01 804.54,-408.34 802.18,-414.94"/>
</a>
</g>
</g>
<!-- Node13&#45;&gt;Node8 -->
<g id="edge24_Node000013_Node000008" class="edge">
<title>Node13&#45;&gt;Node8</title>
<g id="a_edge24_Node000013_Node000008"><a xlink:title=" ">
<path fill="none" stroke="#63b8ff" d="M694.54,-321.71C715.12,-297.56 751.55,-260.2 792.25,-243 862.72,-213.22 1070.06,-204.97 1196.71,-202.75"/>
<polygon fill="#63b8ff" stroke="#63b8ff" points="1196.49,-206.25 1206.43,-202.59 1196.38,-199.25 1196.49,-206.25"/>
</a>
</g>
</g>
<!-- Node13&#45;&gt;Node9 -->
<g id="edge26_Node000013_Node000009" class="edge">
<title>Node13&#45;&gt;Node9</title>
<g id="a_edge26_Node000013_Node000009"><a xlink:title=" ">
<path fill="none" stroke="#63b8ff" d="M756.65,-345.54C875.49,-347.83 1097.85,-352.12 1217.71,-354.43"/>
<polygon fill="#63b8ff" stroke="#63b8ff" points="1217.4,-357.92 1227.47,-354.62 1217.54,-350.92 1217.4,-357.92"/>
</a>
</g>
</g>
<!-- Node14 -->
<g id="Node000014" class="node">
<title>Node14</title>
<g id="a_Node000014"><a xlink:href="leaflet_8js.html#abf5830200d869e463ea38504a19985f6" target="_top" xlink:title=" ">
<polygon fill="white" stroke="#666666" points="900.5,-272 871,-272 871,-252 900.5,-252 900.5,-272"/>
<text xml:space="preserve" text-anchor="middle" x="885.75" y="-258.5" font-family="Helvetica,sans-Serif" font-size="10.00">me</text>
</a>
</g>
</g>
<!-- Node13&#45;&gt;Node14 -->
<g id="edge23_Node000013_Node000014" class="edge">
<title>Node13&#45;&gt;Node14</title>
<g id="a_edge23_Node000013_Node000014"><a xlink:title=" ">
<path fill="none" stroke="#63b8ff" d="M716.25,-321.59C738.12,-309.81 766.13,-295.83 792.25,-286 814.41,-277.66 840.62,-271.16 859.47,-267.04"/>
<polygon fill="#63b8ff" stroke="#63b8ff" points="860.13,-270.48 869.19,-264.99 858.69,-263.63 860.13,-270.48"/>
</a>
</g>
</g>
<!-- Node15 -->
<g id="Node000015" class="node">
<title>Node15</title>
<g id="a_Node000015"><a xlink:href="classediteurpanovisu_1_1GestionnairePlanController.html#a2f1b683e1be605730a62f963e130bdc2" target="_top" xlink:title=" ">
<polygon fill="white" stroke="#666666" points="977.38,-398 794.12,-398 794.12,-366 977.38,-366 977.38,-398"/>
<text xml:space="preserve" text-anchor="start" x="802.12" y="-384.5" font-family="Helvetica,sans-Serif" font-size="10.00">editeurpanovisu.Gestionnaire</text>
<text xml:space="preserve" text-anchor="middle" x="885.75" y="-372.5" font-family="Helvetica,sans-Serif" font-size="10.00">PlanController.setStrPlanListeVignette</text>
</a>
</g>
</g>
<!-- Node13&#45;&gt;Node15 -->
<g id="edge25_Node000013_Node000015" class="edge">
<title>Node13&#45;&gt;Node15</title>
<g id="a_edge25_Node000013_Node000015"><a xlink:title=" ">
<path fill="none" stroke="#63b8ff" d="M756.65,-358.58C765.52,-360.21 774.64,-361.87 783.74,-363.53"/>
<polygon fill="#63b8ff" stroke="#63b8ff" points="782.84,-366.93 793.3,-365.28 784.09,-360.04 782.84,-366.93"/>
</a>
</g>
</g>
<!-- Node18&#45;&gt;Node5 -->
<g id="edge39_Node000018_Node000005" class="edge">
<title>Node18&#45;&gt;Node5</title>
<g id="a_edge39_Node000018_Node000005"><a xlink:title=" ">
<path fill="none" stroke="#63b8ff" d="M559.95,-23.96C642.75,-25.71 772.41,-28 884.75,-28 884.75,-28 884.75,-28 1094.75,-28 1227.64,-28 1282.17,16.44 1392.25,-58 1457.05,-101.82 1485.16,-197.84 1494.81,-240.66"/>
<polygon fill="#63b8ff" stroke="#63b8ff" points="1491.33,-241.14 1496.83,-250.2 1498.18,-239.69 1491.33,-241.14"/>
</a>
</g>
</g>
</g>
</svg>
