<?xml version="1.0" encoding="UTF-8" standalone="no"?>
<!DOCTYPE svg PUBLIC "-//W3C//DTD SVG 1.1//EN"
 "http://www.w3.org/Graphics/SVG/1.1/DTD/svg11.dtd">
<!-- Generated by graphviz version 13.1.2 (20250808.2320)
 -->
<!-- Title: editeurpanovisu.MarkdownViewer.genererFontFaceCSS Pages: 1 -->
<svg width="665pt" height="40pt"
 viewBox="0.00 0.00 665.00 40.00" xmlns="http://www.w3.org/2000/svg" xmlns:xlink="http://www.w3.org/1999/xlink">
<g id="graph0" class="graph" transform="scale(1 1) rotate(0) translate(4 36)">
<title>editeurpanovisu.MarkdownViewer.genererFontFaceCSS</title>
<!-- Node1 -->
<g id="Node000001" class="node">
<title>Node1</title>
<g id="a_Node000001"><a xlink:title="Génère le CSS @font&#45;face pour charger Wingdings dans le WebView.">
<polygon fill="#999999" stroke="#666666" points="143.5,-32 0,-32 0,0 143.5,0 143.5,-32"/>
<text xml:space="preserve" text-anchor="start" x="8" y="-18.5" font-family="Helvetica,sans-Serif" font-size="10.00">editeurpanovisu.Markdown</text>
<text xml:space="preserve" text-anchor="middle" x="71.75" y="-6.5" font-family="Helvetica,sans-Serif" font-size="10.00">Viewer.genererFontFaceCSS</text>
</a>
</g>
</g>
<!-- Node2 -->
<g id="Node000002" class="node">
<title>Node2</title>
<g id="a_Node000002"><a xlink:href="classediteurpanovisu_1_1MarkdownViewer.html#a7dd9cb34e8163f5e8849b594d2e0d7ec" target="_top" xlink:title="Retourne l&#39;URL de la police Wingdings pour @font&#45;face CSS.">
<polygon fill="white" stroke="#666666" points="320,-32 179.5,-32 179.5,0 320,0 320,-32"/>
<text xml:space="preserve" text-anchor="start" x="187.5" y="-18.5" font-family="Helvetica,sans-Serif" font-size="10.00">editeurpanovisu.Markdown</text>
<text xml:space="preserve" text-anchor="middle" x="249.75" y="-6.5" font-family="Helvetica,sans-Serif" font-size="10.00">Viewer.getWingdingsFontUrl</text>
</a>
</g>
</g>
<!-- Node1&#45;&gt;Node2 -->
<g id="edge1_Node000001_Node000002" class="edge">
<title>Node1&#45;&gt;Node2</title>
<g id="a_edge1_Node000001_Node000002"><a xlink:title=" ">
<path fill="none" stroke="#63b8ff" d="M143.83,-16C151.74,-16 159.84,-16 167.86,-16"/>
<polygon fill="#63b8ff" stroke="#63b8ff" points="167.61,-19.5 177.61,-16 167.61,-12.5 167.61,-19.5"/>
</a>
</g>
</g>
<!-- Node3 -->
<g id="Node000003" class="node">
<title>Node3</title>
<g id="a_Node000003"><a xlink:href="classediteurpanovisu_1_1MarkdownViewer.html#a97cf5f887bf60ee77ea235722283e071" target="_top" xlink:title="Constructeur avec support des extensions GFM (GitHub Flavored Markdown)">
<polygon fill="white" stroke="#666666" points="488.25,-32 356,-32 356,0 488.25,0 488.25,-32"/>
<text xml:space="preserve" text-anchor="start" x="364" y="-18.5" font-family="Helvetica,sans-Serif" font-size="10.00">editeurpanovisu.Markdown</text>
<text xml:space="preserve" text-anchor="middle" x="422.12" y="-6.5" font-family="Helvetica,sans-Serif" font-size="10.00">Viewer.MarkdownViewer</text>
</a>
</g>
</g>
<!-- Node2&#45;&gt;Node3 -->
<g id="edge2_Node000002_Node000003" class="edge">
<title>Node2&#45;&gt;Node3</title>
<g id="a_edge2_Node000002_Node000003"><a xlink:title=" ">
<path fill="none" stroke="#63b8ff" d="M320.05,-16C328.06,-16 336.27,-16 344.38,-16"/>
<polygon fill="#63b8ff" stroke="#63b8ff" points="344.23,-19.5 354.23,-16 344.23,-12.5 344.23,-19.5"/>
</a>
</g>
</g>
<!-- Node4 -->
<g id="Node000004" class="node">
<title>Node4</title>
<g id="a_Node000004"><a xlink:href="classediteurpanovisu_1_1MarkdownViewer.html#a5823f5194e7e655cfdff1325fe7b59a9" target="_top" xlink:title="Charge les polices personnalisées pour le WebView Wingdings doit être chargée explicitement car WebVi...">
<polygon fill="white" stroke="#666666" points="656.5,-32 524.25,-32 524.25,0 656.5,0 656.5,-32"/>
<text xml:space="preserve" text-anchor="start" x="532.25" y="-18.5" font-family="Helvetica,sans-Serif" font-size="10.00">editeurpanovisu.Markdown</text>
<text xml:space="preserve" text-anchor="middle" x="590.38" y="-6.5" font-family="Helvetica,sans-Serif" font-size="10.00">Viewer.chargerFontes</text>
</a>
</g>
</g>
<!-- Node3&#45;&gt;Node4 -->
<g id="edge3_Node000003_Node000004" class="edge">
<title>Node3&#45;&gt;Node4</title>
<g id="a_edge3_Node000003_Node000004"><a xlink:title=" ">
<path fill="none" stroke="#63b8ff" d="M488.35,-9.39C496.27,-9.26 504.41,-9.22 512.47,-9.27"/>
<polygon fill="#63b8ff" stroke="#63b8ff" points="512.24,-12.76 522.27,-9.37 512.31,-5.76 512.24,-12.76"/>
</a>
</g>
</g>
<!-- Node4&#45;&gt;Node3 -->
<g id="edge4_Node000004_Node000003" class="edge">
<title>Node4&#45;&gt;Node3</title>
<g id="a_edge4_Node000004_Node000003"><a xlink:title=" ">
<path fill="none" stroke="#63b8ff" d="M523.79,-22.61C515.87,-22.74 507.72,-22.78 499.66,-22.73"/>
<polygon fill="#63b8ff" stroke="#63b8ff" points="499.9,-19.23 489.87,-22.63 499.83,-26.23 499.9,-19.23"/>
</a>
</g>
</g>
</g>
</svg>
