<?xml version="1.0" encoding="UTF-8" standalone="no"?>
<!DOCTYPE svg PUBLIC "-//W3C//DTD SVG 1.1//EN"
 "http://www.w3.org/Graphics/SVG/1.1/DTD/svg11.dtd">
<!-- Generated by graphviz version 13.1.2 (20250808.2320)
 -->
<!-- Title: editeurpanovisu.NavigateurPanoramique.affiche Pages: 1 -->
<svg width="484pt" height="454pt"
 viewBox="0.00 0.00 484.00 454.00" xmlns="http://www.w3.org/2000/svg" xmlns:xlink="http://www.w3.org/1999/xlink">
<g id="graph0" class="graph" transform="scale(1 1) rotate(0) translate(4 450)">
<title>editeurpanovisu.NavigateurPanoramique.affiche</title>
<!-- Node1 -->
<g id="Node000001" class="node">
<title>Node1</title>
<g id="a_Node000001"><a xlink:title=" ">
<polygon fill="#999999" stroke="#666666" points="134.5,-233 0,-233 0,-201 134.5,-201 134.5,-233"/>
<text xml:space="preserve" text-anchor="start" x="8" y="-219.5" font-family="Helvetica,sans-Serif" font-size="10.00">editeurpanovisu.Navigateur</text>
<text xml:space="preserve" text-anchor="middle" x="67.25" y="-207.5" font-family="Helvetica,sans-Serif" font-size="10.00">Panoramique.affiche</text>
</a>
</g>
</g>
<!-- Node2 -->
<g id="Node000002" class="node">
<title>Node2</title>
<g id="a_Node000002"><a xlink:href="classediteurpanovisu_1_1NavigateurPanoramique.html#a3fcaf465d4e16c3f8a43b953ac3ef3f0" target="_top" xlink:title=" ">
<polygon fill="white" stroke="#666666" points="305,-446 170.5,-446 170.5,-414 305,-414 305,-446"/>
<text xml:space="preserve" text-anchor="start" x="178.5" y="-432.5" font-family="Helvetica,sans-Serif" font-size="10.00">editeurpanovisu.Navigateur</text>
<text xml:space="preserve" text-anchor="middle" x="237.75" y="-420.5" font-family="Helvetica,sans-Serif" font-size="10.00">Panoramique.getFov</text>
</a>
</g>
</g>
<!-- Node1&#45;&gt;Node2 -->
<g id="edge1_Node000001_Node000002" class="edge">
<title>Node1&#45;&gt;Node2</title>
<g id="a_edge1_Node000001_Node000002"><a xlink:title=" ">
<path fill="none" stroke="#63b8ff" d="M72.83,-233.31C83.74,-269.33 114.62,-356.31 170.5,-405 171.43,-405.81 172.38,-406.59 173.36,-407.35"/>
<polygon fill="#63b8ff" stroke="#63b8ff" points="171.22,-410.13 181.5,-412.71 175.07,-404.28 171.22,-410.13"/>
</a>
</g>
</g>
<!-- Node3 -->
<g id="Node000003" class="node">
<title>Node3</title>
<g id="a_Node000003"><a xlink:href="classediteurpanovisu_1_1NavigateurPanoramique.html#a4cfe408fe4b8aed4fbbbf785703fa7db" target="_top" xlink:title=" ">
<polygon fill="white" stroke="#666666" points="305,-396 170.5,-396 170.5,-364 305,-364 305,-396"/>
<text xml:space="preserve" text-anchor="start" x="178.5" y="-382.5" font-family="Helvetica,sans-Serif" font-size="10.00">editeurpanovisu.Navigateur</text>
<text xml:space="preserve" text-anchor="middle" x="237.75" y="-370.5" font-family="Helvetica,sans-Serif" font-size="10.00">Panoramique.getLatitude</text>
</a>
</g>
</g>
<!-- Node1&#45;&gt;Node3 -->
<g id="edge2_Node000001_Node000003" class="edge">
<title>Node1&#45;&gt;Node3</title>
<g id="a_edge2_Node000001_Node000003"><a xlink:title=" ">
<path fill="none" stroke="#63b8ff" d="M76.35,-233.43C91.23,-262 125.53,-321.03 170.5,-355 171.85,-356.02 173.24,-357 174.68,-357.95"/>
<polygon fill="#63b8ff" stroke="#63b8ff" points="172.86,-360.94 183.27,-362.91 176.36,-354.88 172.86,-360.94"/>
</a>
</g>
</g>
<!-- Node4 -->
<g id="Node000004" class="node">
<title>Node4</title>
<g id="a_Node000004"><a xlink:href="classediteurpanovisu_1_1NavigateurPanoramique.html#a81fa70763085e924335d6f6353de896a" target="_top" xlink:title=" ">
<polygon fill="white" stroke="#666666" points="305,-346 170.5,-346 170.5,-314 305,-314 305,-346"/>
<text xml:space="preserve" text-anchor="start" x="178.5" y="-332.5" font-family="Helvetica,sans-Serif" font-size="10.00">editeurpanovisu.Navigateur</text>
<text xml:space="preserve" text-anchor="middle" x="237.75" y="-320.5" font-family="Helvetica,sans-Serif" font-size="10.00">Panoramique.getLongitude</text>
</a>
</g>
</g>
<!-- Node1&#45;&gt;Node4 -->
<g id="edge3_Node000001_Node000004" class="edge">
<title>Node1&#45;&gt;Node4</title>
<g id="a_edge3_Node000001_Node000004"><a xlink:title=" ">
<path fill="none" stroke="#63b8ff" d="M85.66,-233.49C105.21,-251.42 138.41,-280.17 170.5,-300 175.34,-302.99 180.54,-305.86 185.8,-308.56"/>
<polygon fill="#63b8ff" stroke="#63b8ff" points="184.08,-311.61 194.6,-312.85 187.15,-305.32 184.08,-311.61"/>
</a>
</g>
</g>
<!-- Node5 -->
<g id="Node000005" class="node">
<title>Node5</title>
<g id="a_Node000005"><a xlink:href="classediteurpanovisu_1_1NavigateurPanoramique.html#ad21961adb0b1d9ddaea56be891a99e3a" target="_top" xlink:title=" ">
<polygon fill="white" stroke="#666666" points="475.5,-280 341,-280 341,-248 475.5,-248 475.5,-280"/>
<text xml:space="preserve" text-anchor="start" x="349" y="-266.5" font-family="Helvetica,sans-Serif" font-size="10.00">editeurpanovisu.Navigateur</text>
<text xml:space="preserve" text-anchor="middle" x="408.25" y="-254.5" font-family="Helvetica,sans-Serif" font-size="10.00">Panoramique.getMaxFov</text>
</a>
</g>
</g>
<!-- Node1&#45;&gt;Node5 -->
<g id="edge4_Node000001_Node000005" class="edge">
<title>Node1&#45;&gt;Node5</title>
<g id="a_edge4_Node000001_Node000005"><a xlink:title=" ">
<path fill="none" stroke="#63b8ff" d="M93.51,-233.41C113.49,-245.36 142.58,-260.54 170.5,-267 222.48,-279.03 282.61,-278.09 329.27,-274.24"/>
<polygon fill="#63b8ff" stroke="#63b8ff" points="329.36,-277.74 339.01,-273.37 328.74,-270.77 329.36,-277.74"/>
</a>
</g>
</g>
<!-- Node6 -->
<g id="Node000006" class="node">
<title>Node6</title>
<g id="a_Node000006"><a xlink:href="classediteurpanovisu_1_1NavigateurPanoramique.html#a54d8f24c8bff3f701e5d5871b1a723b4" target="_top" xlink:title=" ">
<polygon fill="white" stroke="#666666" points="475.5,-189 341,-189 341,-157 475.5,-157 475.5,-189"/>
<text xml:space="preserve" text-anchor="start" x="349" y="-175.5" font-family="Helvetica,sans-Serif" font-size="10.00">editeurpanovisu.Navigateur</text>
<text xml:space="preserve" text-anchor="middle" x="408.25" y="-163.5" font-family="Helvetica,sans-Serif" font-size="10.00">Panoramique.getMinFov</text>
</a>
</g>
</g>
<!-- Node1&#45;&gt;Node6 -->
<g id="edge5_Node000001_Node000006" class="edge">
<title>Node1&#45;&gt;Node6</title>
<g id="a_edge5_Node000001_Node000006"><a xlink:title=" ">
<path fill="none" stroke="#63b8ff" d="M80.64,-200.79C98.02,-179.56 131.85,-143.34 170.5,-129 226.54,-108.2 246.45,-116.94 305,-129 326.62,-133.45 349.3,-142.69 367.79,-151.56"/>
<polygon fill="#63b8ff" stroke="#63b8ff" points="366.01,-154.58 376.52,-155.88 369.12,-148.31 366.01,-154.58"/>
</a>
</g>
</g>
<!-- Node7 -->
<g id="Node000007" class="node">
<title>Node7</title>
<g id="a_Node000007"><a xlink:href="classediteurpanovisu_1_1NavigateurPanoramique.html#a1ec65a09f4026d62f103575497a7d587" target="_top" xlink:title=" ">
<polygon fill="white" stroke="#666666" points="305,-208 170.5,-208 170.5,-176 305,-176 305,-208"/>
<text xml:space="preserve" text-anchor="start" x="178.5" y="-194.5" font-family="Helvetica,sans-Serif" font-size="10.00">editeurpanovisu.Navigateur</text>
<text xml:space="preserve" text-anchor="middle" x="237.75" y="-182.5" font-family="Helvetica,sans-Serif" font-size="10.00">Panoramique.getPositNord</text>
</a>
</g>
</g>
<!-- Node1&#45;&gt;Node7 -->
<g id="edge6_Node000001_Node000007" class="edge">
<title>Node1&#45;&gt;Node7</title>
<g id="a_edge6_Node000001_Node000007"><a xlink:title=" ">
<path fill="none" stroke="#63b8ff" d="M134.85,-207.12C142.72,-205.95 150.82,-204.75 158.83,-203.56"/>
<polygon fill="#63b8ff" stroke="#63b8ff" points="159.21,-207.04 168.59,-202.11 158.18,-200.12 159.21,-207.04"/>
</a>
</g>
</g>
<!-- Node8 -->
<g id="Node000008" class="node">
<title>Node8</title>
<g id="a_Node000008"><a xlink:href="leaflet_8js.html#a73aff07b65d7c0b09ccf6b4c4f1b7a9d" target="_top" xlink:title=" ">
<polygon fill="white" stroke="#666666" points="252.15,-158 223.35,-158 223.35,-138 252.15,-138 252.15,-158"/>
<text xml:space="preserve" text-anchor="middle" x="237.75" y="-144.5" font-family="Helvetica,sans-Serif" font-size="10.00">i</text>
</a>
</g>
</g>
<!-- Node1&#45;&gt;Node8 -->
<g id="edge7_Node000001_Node000008" class="edge">
<title>Node1&#45;&gt;Node8</title>
<g id="a_edge7_Node000001_Node000008"><a xlink:title=" ">
<path fill="none" stroke="#63b8ff" d="M98.05,-200.7C118.13,-190.15 145.42,-176.64 170.5,-167 183.96,-161.83 199.42,-157.31 212.03,-153.99"/>
<polygon fill="#63b8ff" stroke="#63b8ff" points="212.78,-157.41 221.61,-151.55 211.05,-150.62 212.78,-157.41"/>
</a>
</g>
</g>
<!-- Node9 -->
<g id="Node000009" class="node">
<title>Node9</title>
<g id="a_Node000009"><a xlink:href="classediteurpanovisu_1_1NavigateurPanoramique.html#a15ada4dcb8abe6b45fd6d9580d7e63a1" target="_top" xlink:title=" ">
<polygon fill="white" stroke="#666666" points="305,-258 170.5,-258 170.5,-226 305,-226 305,-258"/>
<text xml:space="preserve" text-anchor="start" x="178.5" y="-244.5" font-family="Helvetica,sans-Serif" font-size="10.00">editeurpanovisu.Navigateur</text>
<text xml:space="preserve" text-anchor="middle" x="237.75" y="-232.5" font-family="Helvetica,sans-Serif" font-size="10.00">Panoramique.setFov</text>
</a>
</g>
</g>
<!-- Node1&#45;&gt;Node9 -->
<g id="edge8_Node000001_Node000009" class="edge">
<title>Node1&#45;&gt;Node9</title>
<g id="a_edge8_Node000001_Node000009"><a xlink:title=" ">
<path fill="none" stroke="#63b8ff" d="M134.85,-226.88C142.72,-228.05 150.82,-229.25 158.83,-230.44"/>
<polygon fill="#63b8ff" stroke="#63b8ff" points="158.18,-233.88 168.59,-231.89 159.21,-226.96 158.18,-233.88"/>
</a>
</g>
</g>
<!-- Node10 -->
<g id="Node000010" class="node">
<title>Node10</title>
<g id="a_Node000010"><a xlink:href="classediteurpanovisu_1_1NavigateurPanoramique.html#a850d5027fc5c33767a982d5e45c019a7" target="_top" xlink:title=" ">
<polygon fill="white" stroke="#666666" points="305,-82 170.5,-82 170.5,-50 305,-50 305,-82"/>
<text xml:space="preserve" text-anchor="start" x="178.5" y="-68.5" font-family="Helvetica,sans-Serif" font-size="10.00">editeurpanovisu.Navigateur</text>
<text xml:space="preserve" text-anchor="middle" x="237.75" y="-56.5" font-family="Helvetica,sans-Serif" font-size="10.00">Panoramique.setLatitude</text>
</a>
</g>
</g>
<!-- Node1&#45;&gt;Node10 -->
<g id="edge11_Node000001_Node000010" class="edge">
<title>Node1&#45;&gt;Node10</title>
<g id="a_edge11_Node000001_Node000010"><a xlink:title=" ">
<path fill="none" stroke="#63b8ff" d="M78.38,-200.91C94.97,-175.67 130.13,-126.51 170.5,-96 174.46,-93.01 178.77,-90.23 183.22,-87.66"/>
<polygon fill="#63b8ff" stroke="#63b8ff" points="184.6,-90.89 191.79,-83.11 181.31,-84.71 184.6,-90.89"/>
</a>
</g>
</g>
<!-- Node11 -->
<g id="Node000011" class="node">
<title>Node11</title>
<g id="a_Node000011"><a xlink:href="classediteurpanovisu_1_1NavigateurPanoramique.html#a4c5bdde216bba18d216a8c90fc08d58b" target="_top" xlink:title=" ">
<polygon fill="white" stroke="#666666" points="305,-32 170.5,-32 170.5,0 305,0 305,-32"/>
<text xml:space="preserve" text-anchor="start" x="178.5" y="-18.5" font-family="Helvetica,sans-Serif" font-size="10.00">editeurpanovisu.Navigateur</text>
<text xml:space="preserve" text-anchor="middle" x="237.75" y="-6.5" font-family="Helvetica,sans-Serif" font-size="10.00">Panoramique.setLongitude</text>
</a>
</g>
</g>
<!-- Node1&#45;&gt;Node11 -->
<g id="edge12_Node000001_Node000011" class="edge">
<title>Node1&#45;&gt;Node11</title>
<g id="a_edge12_Node000001_Node000011"><a xlink:title=" ">
<path fill="none" stroke="#63b8ff" d="M73.48,-200.69C85.3,-166.37 117.24,-86.1 170.5,-41 171.58,-40.08 172.7,-39.2 173.85,-38.35"/>
<polygon fill="#63b8ff" stroke="#63b8ff" points="175.37,-41.53 181.92,-33.2 171.6,-35.63 175.37,-41.53"/>
</a>
</g>
</g>
<!-- Node9&#45;&gt;Node5 -->
<g id="edge9_Node000009_Node000005" class="edge">
<title>Node9&#45;&gt;Node5</title>
<g id="a_edge9_Node000009_Node000005"><a xlink:title=" ">
<path fill="none" stroke="#63b8ff" d="M305.35,-250.69C313.22,-251.72 321.32,-252.78 329.33,-253.83"/>
<polygon fill="#63b8ff" stroke="#63b8ff" points="328.72,-257.28 339.09,-255.1 329.62,-250.33 328.72,-257.28"/>
</a>
</g>
</g>
<!-- Node9&#45;&gt;Node6 -->
<g id="edge10_Node000009_Node000006" class="edge">
<title>Node9&#45;&gt;Node6</title>
<g id="a_edge10_Node000009_Node000006"><a xlink:title=" ">
<path fill="none" stroke="#63b8ff" d="M283.05,-225.6C290.4,-222.79 297.93,-219.85 305,-217 323.11,-209.69 342.85,-201.3 360.11,-193.82"/>
<polygon fill="#63b8ff" stroke="#63b8ff" points="361.34,-197.1 369.12,-189.9 358.55,-190.68 361.34,-197.1"/>
</a>
</g>
</g>
</g>
</svg>
