<?xml version="1.0" encoding="UTF-8" standalone="no"?>
<!DOCTYPE svg PUBLIC "-//W3C//DTD SVG 1.1//EN"
 "http://www.w3.org/Graphics/SVG/1.1/DTD/svg11.dtd">
<!-- Generated by graphviz version 13.1.2 (20250808.2320)
 -->
<!-- Title: editeurpanovisu.util.SvgIconLoader.loadSvgIcon Pages: 1 -->
<svg width="476pt" height="140pt"
 viewBox="0.00 0.00 476.00 140.00" xmlns="http://www.w3.org/2000/svg" xmlns:xlink="http://www.w3.org/1999/xlink">
<g id="graph0" class="graph" transform="scale(1 1) rotate(0) translate(4 136)">
<title>editeurpanovisu.util.SvgIconLoader.loadSvgIcon</title>
<!-- Node1 -->
<g id="Node000001" class="node">
<title>Node1</title>
<g id="a_Node000001"><a xlink:title="Charge une icône SVG et la convertit en ImageView avec dimensions personnalisées.">
<polygon fill="#999999" stroke="#666666" points="121,-82 0,-82 0,-50 121,-50 121,-82"/>
<text xml:space="preserve" text-anchor="start" x="8" y="-68.5" font-family="Helvetica,sans-Serif" font-size="10.00">editeurpanovisu.util.Svg</text>
<text xml:space="preserve" text-anchor="middle" x="60.5" y="-56.5" font-family="Helvetica,sans-Serif" font-size="10.00">IconLoader.loadSvgIcon</text>
</a>
</g>
</g>
<!-- Node2 -->
<g id="Node000002" class="node">
<title>Node2</title>
<g id="a_Node000002"><a xlink:href="classediteurpanovisu_1_1util_1_1SvgIconLoader.html#a8cf07e331f244b74d124210c1569d3b4" target="_top" xlink:title="Convertit un SVG en BufferedImage PNG avec Batik (dimensions personnalisées)">
<polygon fill="white" stroke="#666666" points="301.25,-132 157,-132 157,-100 301.25,-100 301.25,-132"/>
<text xml:space="preserve" text-anchor="start" x="165" y="-118.5" font-family="Helvetica,sans-Serif" font-size="10.00">editeurpanovisu.util.Svg</text>
<text xml:space="preserve" text-anchor="middle" x="229.12" y="-106.5" font-family="Helvetica,sans-Serif" font-size="10.00">IconLoader.convertSvgToPng</text>
</a>
</g>
</g>
<!-- Node1&#45;&gt;Node2 -->
<g id="edge1_Node000001_Node000002" class="edge">
<title>Node1&#45;&gt;Node2</title>
<g id="a_edge1_Node000001_Node000002"><a xlink:title=" ">
<path fill="none" stroke="#63b8ff" d="M116.06,-82.37C130.8,-86.8 146.91,-91.63 162.2,-96.22"/>
<polygon fill="#63b8ff" stroke="#63b8ff" points="161.12,-99.55 171.71,-99.07 163.14,-92.84 161.12,-99.55"/>
</a>
</g>
</g>
<!-- Node3 -->
<g id="Node000003" class="node">
<title>Node3</title>
<g id="a_Node000003"><a xlink:href="classediteurpanovisu_1_1util_1_1SvgIconLoader.html#af5cfc8e00f14b39cc7972184362e819c" target="_top" xlink:title="Détecte la couleur appropriée selon le thème actif (clair ou foncé) Fonctionne avec tous les thèmes :...">
<polygon fill="white" stroke="#666666" points="296,-82 162.25,-82 162.25,-50 296,-50 296,-82"/>
<text xml:space="preserve" text-anchor="start" x="170.25" y="-68.5" font-family="Helvetica,sans-Serif" font-size="10.00">editeurpanovisu.util.Svg</text>
<text xml:space="preserve" text-anchor="middle" x="229.12" y="-56.5" font-family="Helvetica,sans-Serif" font-size="10.00">IconLoader.getThemeColor</text>
</a>
</g>
</g>
<!-- Node1&#45;&gt;Node3 -->
<g id="edge2_Node000001_Node000003" class="edge">
<title>Node1&#45;&gt;Node3</title>
<g id="a_edge2_Node000001_Node000003"><a xlink:title=" ">
<path fill="none" stroke="#63b8ff" d="M121.18,-66C130.65,-66 140.56,-66 150.36,-66"/>
<polygon fill="#63b8ff" stroke="#63b8ff" points="150.28,-69.5 160.28,-66 150.28,-62.5 150.28,-69.5"/>
</a>
</g>
</g>
<!-- Node4 -->
<g id="Node000004" class="node">
<title>Node4</title>
<g id="a_Node000004"><a xlink:href="classediteurpanovisu_1_1util_1_1SvgIconLoader.html#ab9fdb534790cb51ab1b57c506d003289" target="_top" xlink:title="Fallback: charge l&#39;icône PNG si le SVG n&#39;est pas disponible.">
<polygon fill="white" stroke="#666666" points="298.62,-32 159.62,-32 159.62,0 298.62,0 298.62,-32"/>
<text xml:space="preserve" text-anchor="start" x="167.62" y="-18.5" font-family="Helvetica,sans-Serif" font-size="10.00">editeurpanovisu.util.Svg</text>
<text xml:space="preserve" text-anchor="middle" x="229.12" y="-6.5" font-family="Helvetica,sans-Serif" font-size="10.00">IconLoader.loadFallbackPng</text>
</a>
</g>
</g>
<!-- Node1&#45;&gt;Node4 -->
<g id="edge3_Node000001_Node000004" class="edge">
<title>Node1&#45;&gt;Node4</title>
<g id="a_edge3_Node000001_Node000004"><a xlink:title=" ">
<path fill="none" stroke="#63b8ff" d="M116.06,-49.63C130.8,-45.2 146.91,-40.37 162.2,-35.78"/>
<polygon fill="#63b8ff" stroke="#63b8ff" points="163.14,-39.16 171.71,-32.93 161.12,-32.45 163.14,-39.16"/>
</a>
</g>
</g>
<!-- Node5 -->
<g id="Node000005" class="node">
<title>Node5</title>
<g id="a_Node000005"><a xlink:href="classediteurpanovisu_1_1util_1_1SvgIconLoader.html#af546932dfbd067f7700bd0832d5efb64" target="_top" xlink:title="Mappe les noms de fichiers SVG vers les noms PNG existants.">
<polygon fill="white" stroke="#666666" points="468,-32 337.25,-32 337.25,0 468,0 468,-32"/>
<text xml:space="preserve" text-anchor="start" x="345.25" y="-18.5" font-family="Helvetica,sans-Serif" font-size="10.00">editeurpanovisu.util.Svg</text>
<text xml:space="preserve" text-anchor="middle" x="402.62" y="-6.5" font-family="Helvetica,sans-Serif" font-size="10.00">IconLoader.mapSvgToPng</text>
</a>
</g>
</g>
<!-- Node4&#45;&gt;Node5 -->
<g id="edge4_Node000004_Node000005" class="edge">
<title>Node4&#45;&gt;Node5</title>
<g id="a_edge4_Node000004_Node000005"><a xlink:title=" ">
<path fill="none" stroke="#63b8ff" d="M298.89,-16C307.74,-16 316.83,-16 325.79,-16"/>
<polygon fill="#63b8ff" stroke="#63b8ff" points="325.5,-19.5 335.5,-16 325.5,-12.5 325.5,-19.5"/>
</a>
</g>
</g>
</g>
</svg>
