<?xml version="1.0" encoding="UTF-8" standalone="no"?>
<!DOCTYPE svg PUBLIC "-//W3C//DTD SVG 1.1//EN"
 "http://www.w3.org/Graphics/SVG/1.1/DTD/svg11.dtd">
<!-- Generated by graphviz version 13.1.2 (20250808.2320)
 -->
<!-- Title: editeurpanovisu.GestionnaireInterfaceController.getStrFenetreTexteURL Pages: 1 -->
<!--zoomable 408 -->

<svg id="main" version="1.1" xmlns="http://www.w3.org/2000/svg" xmlns:xlink="http://www.w3.org/1999/xlink" xml:space="preserve" onload="init(evt)">

<style type="text/css"><![CDATA[
.node, .edge {opacity: 0.7;}
.node.selected, .edge.selected {opacity: 1;}
.edge:hover path { stroke: red; }
.edge:hover polygon { stroke: red; fill: red; }
]]></style>

<defs>
  <circle id="rim" cx="0" cy="0" r="7"/>
  <circle id="rim2" cx="0" cy="0" r="3.5"/>
  <g id="zoomPlus">
    <use xlink:href="#rim" fill="#404040"><set attributeName="fill" to="#808080" begin="zoomplus.mouseover" end="zoomplus.mouseout"/></use>
    <path d="M-4,0h8M0,-4v8" fill="none" stroke="white" stroke-width="1.5" pointer-events="none"/>
  </g>
  <g id="zoomMin">
    <use xlink:href="#rim" fill="#404040"><set attributeName="fill" to="#808080" begin="zoomminus.mouseover" end="zoomminus.mouseout"/></use>
    <path d="M-4,0h8" fill="none" stroke="white" stroke-width="1.5" pointer-events="none"/>
  </g>
  <g id="arrowUp" transform="translate(30 24)">
    <use xlink:href="#rim"/>
    <path pointer-events="none" fill="none" stroke="white" stroke-width="1.5" d="M0,-3.0v7 M-2.5,-0.5L0,-3.0L2.5,-0.5"/>
  </g>
  <g id="arrowRight" transform="rotate(90) translate(36 -43)">
    <use xlink:href="#rim"/>
    <path pointer-events="none" fill="none" stroke="white" stroke-width="1.5" d="M0,-3.0v7 M-2.5,-0.5L0,-3.0L2.5,-0.5"/>
  </g>
  <g id="arrowDown" transform="rotate(180) translate(-30 -48)">
    <use xlink:href="#rim"/>
    <path pointer-events="none" fill="none" stroke="white" stroke-width="1.5" d="M0,-3.0v7 M-2.5,-0.5L0,-3.0L2.5,-0.5"/>
  </g>
  <g id="arrowLeft" transform="rotate(270) translate(-36 17)">
    <use xlink:href="#rim"/>
    <path pointer-events="none" fill="none" stroke="white" stroke-width="1.5" d="M0,-3.0v7 M-2.5,-0.5L0,-3.0L2.5,-0.5"/>
  </g>
  <g id="resetDef">
    <use xlink:href="#rim2" fill="#404040"><set attributeName="fill" to="#808080" begin="reset.mouseover" end="reset.mouseout"/></use>
  </g>
</defs>
<script type="application/ecmascript">
var viewWidth = 2598;
var viewHeight = 408;
var sectionId = 'dynsection-157';
</script>
<script type="application/ecmascript" xlink:href="svg.min.js"/>
<svg id="graph" class="graph">
<g id="viewport">
<title>editeurpanovisu.GestionnaireInterfaceController.getStrFenetreTexteURL</title>
<!-- Node1 -->
<g id="Node000001" class="node">
<title>Node1</title>
<g id="a_Node000001"><a xlink:title=" ">
<polygon fill="#999999" stroke="#666666" points="2589.75,-230.02 2431.25,-230.02 2431.25,-186.02 2589.75,-186.02 2589.75,-230.02"/>
<text xml:space="preserve" text-anchor="start" x="2439.25" y="-216.52" font-family="Helvetica,sans-Serif" font-size="10.00">editeurpanovisu.Gestionnaire</text>
<text xml:space="preserve" text-anchor="start" x="2439.25" y="-204.52" font-family="Helvetica,sans-Serif" font-size="10.00">InterfaceController.getStrFenetre</text>
<text xml:space="preserve" text-anchor="middle" x="2510.5" y="-192.52" font-family="Helvetica,sans-Serif" font-size="10.00">TexteURL</text>
</a>
</g>
</g>
<!-- Node2 -->
<g id="Node000002" class="node">
<title>Node2</title>
<g id="a_Node000002"><a xlink:href="classediteurpanovisu_1_1GestionnaireInterfaceController.html#ad40d62c3d762b62606d73f8a15b05854" target="_top" xlink:title=" ">
<polygon fill="white" stroke="#666666" points="2395.25,-249.02 2218,-249.02 2218,-217.02 2395.25,-217.02 2395.25,-249.02"/>
<text xml:space="preserve" text-anchor="start" x="2226" y="-235.52" font-family="Helvetica,sans-Serif" font-size="10.00">editeurpanovisu.Gestionnaire</text>
<text xml:space="preserve" text-anchor="middle" x="2306.62" y="-223.52" font-family="Helvetica,sans-Serif" font-size="10.00">InterfaceController.afficheFenetreInfo</text>
</a>
</g>
</g>
<!-- Node1&#45;&gt;Node2 -->
<g id="edge1_Node000001_Node000002" class="edge">
<title>Node1&#45;&gt;Node2</title>
<g id="a_edge1_Node000001_Node000002"><a xlink:title=" ">
<path fill="none" stroke="#63b8ff" d="M2419.7,-219.14C2411.74,-220.13 2403.69,-221.13 2395.75,-222.11"/>
<polygon fill="#63b8ff" stroke="#63b8ff" points="2419.88,-222.65 2429.37,-217.95 2419.02,-215.7 2419.88,-222.65"/>
</a>
</g>
</g>
<!-- Node3 -->
<g id="Node000003" class="node">
<title>Node3</title>
<g id="a_Node000003"><a xlink:href="classediteurpanovisu_1_1GestionnaireInterfaceController.html#a55c8afda208674955a13d48d02be41b8" target="_top" xlink:title=" ">
<polygon fill="white" stroke="#666666" points="2182,-293.02 2014.5,-293.02 2014.5,-261.02 2182,-261.02 2182,-293.02"/>
<text xml:space="preserve" text-anchor="start" x="2022.5" y="-279.52" font-family="Helvetica,sans-Serif" font-size="10.00">editeurpanovisu.Gestionnaire</text>
<text xml:space="preserve" text-anchor="middle" x="2098.25" y="-267.52" font-family="Helvetica,sans-Serif" font-size="10.00">InterfaceController.afficheTemplate</text>
</a>
</g>
</g>
<!-- Node1&#45;&gt;Node3 -->
<g id="edge29_Node000001_Node000003" class="edge">
<title>Node1&#45;&gt;Node3</title>
<g id="a_edge29_Node000001_Node000003"><a xlink:title=" ">
<path fill="none" stroke="#63b8ff" d="M2457.6,-235.3C2438.5,-244.09 2416.37,-252.89 2395.25,-258.02 2324.82,-275.13 2242.36,-279.17 2182.39,-279.34"/>
<polygon fill="#63b8ff" stroke="#63b8ff" points="2458.96,-238.52 2466.5,-231.08 2455.97,-232.2 2458.96,-238.52"/>
</a>
</g>
</g>
<!-- Node11 -->
<g id="Node000011" class="node">
<title>Node11</title>
<g id="a_Node000011"><a xlink:href="classediteurpanovisu_1_1EditeurPanovisu.html#a94e36b9e9d09ab1a4c852b8a8cefa927" target="_top" xlink:title=" ">
<polygon fill="white" stroke="#666666" points="647.25,-133.02 456.5,-133.02 456.5,-101.02 647.25,-101.02 647.25,-133.02"/>
<text xml:space="preserve" text-anchor="start" x="464.5" y="-119.52" font-family="Helvetica,sans-Serif" font-size="10.00">editeurpanovisu.EditeurPanovisu.genere</text>
<text xml:space="preserve" text-anchor="middle" x="551.88" y="-107.52" font-family="Helvetica,sans-Serif" font-size="10.00">Visite</text>
</a>
</g>
</g>
<!-- Node1&#45;&gt;Node11 -->
<g id="edge30_Node000001_Node000011" class="edge">
<title>Node1&#45;&gt;Node11</title>
<g id="a_edge30_Node000001_Node000011"><a xlink:title=" ">
<path fill="none" stroke="#63b8ff" d="M2473.43,-178.87C2404.9,-126.52 2249.31,-22.02 2099.25,-22.02 2099.25,-22.02 2099.25,-22.02 1228.5,-22.02 984.75,-22.02 922.68,-35.33 683.25,-81.02 657.19,-86 628.73,-93.6 605.07,-100.53"/>
<polygon fill="#63b8ff" stroke="#63b8ff" points="2470.87,-181.32 2480.93,-184.66 2475.15,-175.78 2470.87,-181.32"/>
</a>
</g>
</g>
<!-- Node18 -->
<g id="Node000018" class="node">
<title>Node18</title>
<g id="a_Node000018"><a xlink:href="classediteurpanovisu_1_1GestionnaireInterfaceController.html#ab66509c63a85a8285a081b24049e8774" target="_top" xlink:title=" ">
<polygon fill="white" stroke="#666666" points="2389.62,-199.02 2223.62,-199.02 2223.62,-167.02 2389.62,-167.02 2389.62,-199.02"/>
<text xml:space="preserve" text-anchor="start" x="2231.62" y="-185.52" font-family="Helvetica,sans-Serif" font-size="10.00">editeurpanovisu.Gestionnaire</text>
<text xml:space="preserve" text-anchor="middle" x="2306.62" y="-173.52" font-family="Helvetica,sans-Serif" font-size="10.00">InterfaceController.strGetTemplate</text>
</a>
</g>
</g>
<!-- Node1&#45;&gt;Node18 -->
<g id="edge31_Node000001_Node000018" class="edge">
<title>Node1&#45;&gt;Node18</title>
<g id="a_edge31_Node000001_Node000018"><a xlink:title=" ">
<path fill="none" stroke="#63b8ff" d="M2419.46,-196.87C2409.67,-195.66 2399.73,-194.43 2390.04,-193.23"/>
<polygon fill="#63b8ff" stroke="#63b8ff" points="2419.02,-200.35 2429.37,-198.1 2419.88,-193.4 2419.02,-200.35"/>
</a>
</g>
</g>
<!-- Node2&#45;&gt;Node3 -->
<g id="edge2_Node000002_Node000003" class="edge">
<title>Node2&#45;&gt;Node3</title>
<g id="a_edge2_Node000002_Node000003"><a xlink:title=" ">
<path fill="none" stroke="#63b8ff" d="M2217.24,-251.87C2203.74,-254.75 2189.89,-257.7 2176.64,-260.52"/>
<polygon fill="#63b8ff" stroke="#63b8ff" points="2217.95,-255.29 2227,-249.79 2216.49,-248.45 2217.95,-255.29"/>
</a>
</g>
</g>
<!-- Node17 -->
<g id="Node000017" class="node">
<title>Node17</title>
<g id="a_Node000017"><a xlink:href="classediteurpanovisu_1_1GestionnaireInterfaceController.html#ac7fa988dc99d8684686127a2269cd66e" target="_top" xlink:title=" ">
<polygon fill="white" stroke="#666666" points="2176.38,-243.02 2020.12,-243.02 2020.12,-211.02 2176.38,-211.02 2176.38,-243.02"/>
<text xml:space="preserve" text-anchor="start" x="2028.12" y="-229.52" font-family="Helvetica,sans-Serif" font-size="10.00">editeurpanovisu.Gestionnaire</text>
<text xml:space="preserve" text-anchor="middle" x="2098.25" y="-217.52" font-family="Helvetica,sans-Serif" font-size="10.00">InterfaceController.creeInterface</text>
</a>
</g>
</g>
<!-- Node2&#45;&gt;Node17 -->
<g id="edge28_Node000002_Node000017" class="edge">
<title>Node2&#45;&gt;Node17</title>
<g id="a_edge28_Node000002_Node000017"><a xlink:title=" ">
<path fill="none" stroke="#63b8ff" d="M2206.3,-230.14C2196.34,-229.85 2186.33,-229.56 2176.65,-229.27"/>
<polygon fill="#63b8ff" stroke="#63b8ff" points="2205.89,-233.63 2215.99,-230.42 2206.1,-226.63 2205.89,-233.63"/>
</a>
</g>
</g>
<!-- Node4 -->
<g id="Node000004" class="node">
<title>Node4</title>
<g id="a_Node000004"><a xlink:href="classediteurpanovisu_1_1EditeurPanovisu.html#a87b29dc258cfc67370b1f27809e91b8e" target="_top" xlink:title=" ">
<polygon fill="white" stroke="#666666" points="1978.5,-293.02 1803.5,-293.02 1803.5,-261.02 1978.5,-261.02 1978.5,-293.02"/>
<text xml:space="preserve" text-anchor="start" x="1811.5" y="-279.52" font-family="Helvetica,sans-Serif" font-size="10.00">editeurpanovisu.EditeurPanovisu.tsk</text>
<text xml:space="preserve" text-anchor="middle" x="1891" y="-267.52" font-family="Helvetica,sans-Serif" font-size="10.00">AnalyseFichierPVU</text>
</a>
</g>
</g>
<!-- Node3&#45;&gt;Node4 -->
<g id="edge3_Node000003_Node000004" class="edge">
<title>Node3&#45;&gt;Node4</title>
<g id="a_edge3_Node000003_Node000004"><a xlink:title=" ">
<path fill="none" stroke="#63b8ff" d="M2002.6,-277.02C1994.73,-277.02 1986.79,-277.02 1978.98,-277.02"/>
<polygon fill="#63b8ff" stroke="#63b8ff" points="2002.55,-280.52 2012.55,-277.02 2002.55,-273.52 2002.55,-280.52"/>
</a>
</g>
</g>
<!-- Node5 -->
<g id="Node000005" class="node">
<title>Node5</title>
<g id="a_Node000005"><a xlink:href="classediteurpanovisu_1_1EditeurPanovisu.html#ab4beb1597b660a4a253befc6e76f1c54" target="_top" xlink:title=" ">
<polygon fill="white" stroke="#666666" points="1098.12,-372.02 912.62,-372.02 912.62,-340.02 1098.12,-340.02 1098.12,-372.02"/>
<text xml:space="preserve" text-anchor="start" x="920.62" y="-358.52" font-family="Helvetica,sans-Serif" font-size="10.00">editeurpanovisu.EditeurPanovisu.projet</text>
<text xml:space="preserve" text-anchor="middle" x="1005.38" y="-346.52" font-family="Helvetica,sans-Serif" font-size="10.00">Charge</text>
</a>
</g>
</g>
<!-- Node4&#45;&gt;Node5 -->
<g id="edge4_Node000004_Node000005" class="edge">
<title>Node4&#45;&gt;Node5</title>
<g id="a_edge4_Node000004_Node000005"><a xlink:title=" ">
<path fill="none" stroke="#63b8ff" d="M1806.16,-295.64C1793.26,-298.07 1780.06,-300.3 1767.5,-302.02 1527.48,-334.89 1241.98,-348.36 1098.45,-353.37"/>
<polygon fill="#63b8ff" stroke="#63b8ff" points="1806.76,-299.09 1815.91,-293.76 1805.43,-292.22 1806.76,-299.09"/>
</a>
</g>
</g>
<!-- Node8 -->
<g id="Node000008" class="node">
<title>Node8</title>
<g id="a_Node000008"><a xlink:href="classediteurpanovisu_1_1EditeurPanovisu.html#a6d19b4d885ee6fcec827b91956295732" target="_top" xlink:title=" ">
<polygon fill="white" stroke="#666666" points="1767.5,-293.02 1582,-293.02 1582,-261.02 1767.5,-261.02 1767.5,-293.02"/>
<text xml:space="preserve" text-anchor="start" x="1590" y="-279.52" font-family="Helvetica,sans-Serif" font-size="10.00">editeurpanovisu.EditeurPanovisu.projet</text>
<text xml:space="preserve" text-anchor="middle" x="1674.75" y="-267.52" font-family="Helvetica,sans-Serif" font-size="10.00">ChargeNom</text>
</a>
</g>
</g>
<!-- Node4&#45;&gt;Node8 -->
<g id="edge7_Node000004_Node000008" class="edge">
<title>Node4&#45;&gt;Node8</title>
<g id="a_edge7_Node000004_Node000008"><a xlink:title=" ">
<path fill="none" stroke="#63b8ff" d="M1791.66,-277.02C1783.76,-277.02 1775.8,-277.02 1767.95,-277.02"/>
<polygon fill="#63b8ff" stroke="#63b8ff" points="1791.65,-280.52 1801.65,-277.02 1791.65,-273.52 1791.65,-280.52"/>
</a>
</g>
</g>
<!-- Node6 -->
<g id="Node000006" class="node">
<title>Node6</title>
<g id="a_Node000006"><a xlink:href="classediteurpanovisu_1_1EditeurPanovisu.html#ac912b80c1f2ac97def60ff005c5c480b" target="_top" xlink:title=" ">
<polygon fill="white" stroke="#666666" points="420.5,-281.02 216.25,-281.02 216.25,-261.02 420.5,-261.02 420.5,-281.02"/>
<text xml:space="preserve" text-anchor="middle" x="318.38" y="-267.52" font-family="Helvetica,sans-Serif" font-size="10.00">editeurpanovisu.EditeurPanovisu.creeMenu</text>
</a>
</g>
</g>
<!-- Node5&#45;&gt;Node6 -->
<g id="edge5_Node000005_Node000006" class="edge">
<title>Node5&#45;&gt;Node6</title>
<g id="a_edge5_Node000005_Node000006"><a xlink:title=" ">
<path fill="none" stroke="#63b8ff" d="M901.15,-354C790.26,-350.21 609.34,-339.3 456.5,-308.02 420.99,-300.76 381.05,-289.64 353.47,-281.48"/>
<polygon fill="#63b8ff" stroke="#63b8ff" points="900.71,-357.49 910.82,-354.32 900.94,-350.5 900.71,-357.49"/>
</a>
</g>
</g>
<!-- Node7 -->
<g id="Node000007" class="node">
<title>Node7</title>
<g id="a_Node000007"><a xlink:href="classediteurpanovisu_1_1EditeurPanovisu.html#a86c393eee88f54c694db994ddd85b90d" target="_top" xlink:title=" ">
<polygon fill="white" stroke="#666666" points="180.25,-287.02 0,-287.02 0,-255.02 180.25,-255.02 180.25,-287.02"/>
<text xml:space="preserve" text-anchor="start" x="8" y="-273.52" font-family="Helvetica,sans-Serif" font-size="10.00">editeurpanovisu.EditeurPanovisu.cree</text>
<text xml:space="preserve" text-anchor="middle" x="90.12" y="-261.52" font-family="Helvetica,sans-Serif" font-size="10.00">Environnement</text>
</a>
</g>
</g>
<!-- Node6&#45;&gt;Node7 -->
<g id="edge6_Node000006_Node000007" class="edge">
<title>Node6&#45;&gt;Node7</title>
<g id="a_edge6_Node000006_Node000007"><a xlink:title=" ">
<path fill="none" stroke="#63b8ff" d="M204.51,-271.02C196.49,-271.02 188.46,-271.02 180.6,-271.02"/>
<polygon fill="#63b8ff" stroke="#63b8ff" points="204.32,-274.52 214.32,-271.02 204.32,-267.52 204.32,-274.52"/>
</a>
</g>
</g>
<!-- Node8&#45;&gt;Node6 -->
<g id="edge27_Node000008_Node000006" class="edge">
<title>Node8&#45;&gt;Node6</title>
<g id="a_edge27_Node000008_Node000006"><a xlink:title=" ">
<path fill="none" stroke="#63b8ff" d="M1610.21,-296.74C1492.38,-331.49 1231.5,-400.02 1006.38,-400.02 1006.38,-400.02 1006.38,-400.02 777.62,-400.02 632.1,-400.02 594.66,-381.76 456.5,-336.02 411.98,-321.29 363.08,-295.62 337.41,-281.35"/>
<polygon fill="#63b8ff" stroke="#63b8ff" points="1611.12,-300.12 1619.7,-293.92 1609.12,-293.41 1611.12,-300.12"/>
</a>
</g>
</g>
<!-- Node9 -->
<g id="Node000009" class="node">
<title>Node9</title>
<g id="a_Node000009"><a xlink:href="classediteurpanovisu_1_1EditeurPanovisu.html#af0d1c32bb78acbff561c822a0d15f760" target="_top" xlink:title=" ">
<polygon fill="white" stroke="#666666" points="1546,-293.02 1358.25,-293.02 1358.25,-261.02 1546,-261.02 1546,-293.02"/>
<text xml:space="preserve" text-anchor="start" x="1366.25" y="-279.52" font-family="Helvetica,sans-Serif" font-size="10.00">editeurpanovisu.EditeurPanovisu.ajoute</text>
<text xml:space="preserve" text-anchor="middle" x="1452.12" y="-267.52" font-family="Helvetica,sans-Serif" font-size="10.00">FichierHisto</text>
</a>
</g>
</g>
<!-- Node8&#45;&gt;Node9 -->
<g id="edge8_Node000008_Node000009" class="edge">
<title>Node8&#45;&gt;Node9</title>
<g id="a_edge8_Node000008_Node000009"><a xlink:title=" ">
<path fill="none" stroke="#63b8ff" d="M1570.47,-270.29C1562.42,-270.26 1554.33,-270.28 1546.36,-270.35"/>
<polygon fill="#63b8ff" stroke="#63b8ff" points="1570.25,-273.79 1580.27,-270.35 1570.29,-266.79 1570.25,-273.79"/>
</a>
</g>
</g>
<!-- Node9&#45;&gt;Node5 -->
<g id="edge9_Node000009_Node000005" class="edge">
<title>Node9&#45;&gt;Node5</title>
<g id="a_edge9_Node000009_Node000005"><a xlink:title=" ">
<path fill="none" stroke="#63b8ff" d="M1347.51,-295.43C1272.18,-308.81 1171.11,-326.76 1098.57,-339.65"/>
<polygon fill="#63b8ff" stroke="#63b8ff" points="1347.71,-298.95 1356.94,-293.75 1346.48,-292.06 1347.71,-298.95"/>
</a>
</g>
</g>
<!-- Node9&#45;&gt;Node8 -->
<g id="edge10_Node000009_Node000008" class="edge">
<title>Node9&#45;&gt;Node8</title>
<g id="a_edge10_Node000009_Node000008"><a xlink:title=" ">
<path fill="none" stroke="#63b8ff" d="M1557.69,-283.77C1565.74,-283.79 1573.83,-283.76 1581.78,-283.69"/>
<polygon fill="#63b8ff" stroke="#63b8ff" points="1557.9,-280.27 1547.88,-283.71 1557.86,-287.27 1557.9,-280.27"/>
</a>
</g>
</g>
<!-- Node10 -->
<g id="Node000010" class="node">
<title>Node10</title>
<g id="a_Node000010"><a xlink:href="classediteurpanovisu_1_1EditeurPanovisu.html#a9f3ea25b35d4884524508dab3dc4fd6a" target="_top" xlink:title=" ">
<polygon fill="white" stroke="#666666" points="1322.25,-249.02 1136.75,-249.02 1136.75,-217.02 1322.25,-217.02 1322.25,-249.02"/>
<text xml:space="preserve" text-anchor="start" x="1144.75" y="-235.52" font-family="Helvetica,sans-Serif" font-size="10.00">editeurpanovisu.EditeurPanovisu.projet</text>
<text xml:space="preserve" text-anchor="middle" x="1229.5" y="-223.52" font-family="Helvetica,sans-Serif" font-size="10.00">Sauve</text>
</a>
</g>
</g>
<!-- Node9&#45;&gt;Node10 -->
<g id="edge11_Node000009_Node000010" class="edge">
<title>Node9&#45;&gt;Node10</title>
<g id="a_edge11_Node000009_Node000010"><a xlink:title=" ">
<path fill="none" stroke="#63b8ff" d="M1357.51,-258.35C1342.79,-255.42 1327.68,-252.4 1313.23,-249.52"/>
<polygon fill="#63b8ff" stroke="#63b8ff" points="1356.68,-261.76 1367.17,-260.28 1358.05,-254.89 1356.68,-261.76"/>
</a>
</g>
</g>
<!-- Node16 -->
<g id="Node000016" class="node">
<title>Node16</title>
<g id="a_Node000016"><a xlink:href="classediteurpanovisu_1_1EditeurPanovisu.html#a7b2e25dc717eb52b62e23d54ec4c124a" target="_top" xlink:title=" ">
<polygon fill="white" stroke="#666666" points="1322.25,-199.02 1136.75,-199.02 1136.75,-167.02 1322.25,-167.02 1322.25,-199.02"/>
<text xml:space="preserve" text-anchor="start" x="1144.75" y="-185.52" font-family="Helvetica,sans-Serif" font-size="10.00">editeurpanovisu.EditeurPanovisu.projet</text>
<text xml:space="preserve" text-anchor="middle" x="1229.5" y="-173.52" font-family="Helvetica,sans-Serif" font-size="10.00">SauveSous</text>
</a>
</g>
</g>
<!-- Node9&#45;&gt;Node16 -->
<g id="edge25_Node000009_Node000016" class="edge">
<title>Node9&#45;&gt;Node16</title>
<g id="a_edge25_Node000009_Node000016"><a xlink:title=" ">
<path fill="none" stroke="#63b8ff" d="M1414.96,-254.81C1389.69,-240.01 1354.79,-220.97 1322.25,-208.02 1314.43,-204.91 1306.08,-202.05 1297.73,-199.45"/>
<polygon fill="#63b8ff" stroke="#63b8ff" points="1413.13,-257.8 1423.52,-259.89 1416.7,-251.78 1413.13,-257.8"/>
</a>
</g>
</g>
<!-- Node10&#45;&gt;Node5 -->
<g id="edge15_Node000010_Node000005" class="edge">
<title>Node10&#45;&gt;Node5</title>
<g id="a_edge15_Node000010_Node000005"><a xlink:title=" ">
<path fill="none" stroke="#63b8ff" d="M1185.86,-254.68C1169.78,-263.71 1151.76,-274.92 1136.75,-287.02 1118.39,-301.83 1120.65,-313.36 1100.75,-326.02 1092.34,-331.38 1082.89,-335.84 1073.31,-339.55"/>
<polygon fill="#63b8ff" stroke="#63b8ff" points="1187.16,-257.95 1194.25,-250.08 1183.8,-251.82 1187.16,-257.95"/>
</a>
</g>
</g>
<!-- Node10&#45;&gt;Node6 -->
<g id="edge12_Node000010_Node000006" class="edge">
<title>Node10&#45;&gt;Node6</title>
<g id="a_edge12_Node000010_Node000006"><a xlink:title=" ">
<path fill="none" stroke="#63b8ff" d="M1132.46,-251.15C1121.79,-252.69 1111.06,-254.04 1100.75,-255.02 857.63,-278.31 570.1,-276.76 420.8,-273.79"/>
<polygon fill="#63b8ff" stroke="#63b8ff" points="1132.67,-254.66 1142.03,-249.71 1131.62,-247.74 1132.67,-254.66"/>
</a>
</g>
</g>
<!-- Node10&#45;&gt;Node8 -->
<g id="edge16_Node000010_Node000008" class="edge">
<title>Node10&#45;&gt;Node8</title>
<g id="a_edge16_Node000010_Node000008"><a xlink:title=" ">
<path fill="none" stroke="#63b8ff" d="M1333.92,-235.78C1395.67,-238.29 1475.54,-243.05 1546,-252.02 1563.04,-254.19 1581.22,-257.28 1598.36,-260.55"/>
<polygon fill="#63b8ff" stroke="#63b8ff" points="1334.25,-232.29 1324.12,-235.4 1333.98,-239.29 1334.25,-232.29"/>
</a>
</g>
</g>
<!-- Node10&#45;&gt;Node11 -->
<g id="edge13_Node000010_Node000011" class="edge">
<title>Node10&#45;&gt;Node11</title>
<g id="a_edge13_Node000010_Node000011"><a xlink:title=" ">
<path fill="none" stroke="#63b8ff" d="M1139.58,-210.44C1138.61,-209.66 1137.67,-208.86 1136.75,-208.02 1103.58,-178.01 1137.61,-139.38 1100.75,-114.02 1029.73,-65.17 784.64,-87 647.56,-103.91"/>
<polygon fill="#63b8ff" stroke="#63b8ff" points="1137.34,-213.15 1147.57,-215.89 1141.28,-207.36 1137.34,-213.15"/>
</a>
</g>
</g>
<!-- Node12 -->
<g id="Node000012" class="node">
<title>Node12</title>
<g id="a_Node000012"><a xlink:href="classediteurpanovisu_1_1EditeurPanovisu.html#a9b46b222714af12c06ec33d410400773" target="_top" xlink:title=" ">
<polygon fill="white" stroke="#666666" points="874,-331.02 683.25,-331.02 683.25,-299.02 874,-299.02 874,-331.02"/>
<text xml:space="preserve" text-anchor="start" x="691.25" y="-317.52" font-family="Helvetica,sans-Serif" font-size="10.00">editeurpanovisu.EditeurPanovisu.projets</text>
<text xml:space="preserve" text-anchor="middle" x="778.62" y="-305.52" font-family="Helvetica,sans-Serif" font-size="10.00">Fermer</text>
</a>
</g>
</g>
<!-- Node10&#45;&gt;Node12 -->
<g id="edge17_Node000010_Node000012" class="edge">
<title>Node10&#45;&gt;Node12</title>
<g id="a_edge17_Node000010_Node000012"><a xlink:title=" ">
<path fill="none" stroke="#63b8ff" d="M1187.97,-254.48C1163.42,-266.45 1131.08,-280.43 1100.75,-288.02 1026.12,-306.7 939.02,-313.1 874.37,-315.03"/>
<polygon fill="#63b8ff" stroke="#63b8ff" points="1189.23,-257.76 1196.63,-250.17 1186.12,-251.49 1189.23,-257.76"/>
</a>
</g>
</g>
<!-- Node13 -->
<g id="Node000013" class="node">
<title>Node13</title>
<g id="a_Node000013"><a xlink:href="classediteurpanovisu_1_1EditeurPanovisu.html#ac9d449399ccd38843fa12e716f0c9611" target="_top" xlink:title=" ">
<polygon fill="white" stroke="#666666" points="1100.75,-246.02 910,-246.02 910,-214.02 1100.75,-214.02 1100.75,-246.02"/>
<text xml:space="preserve" text-anchor="start" x="918" y="-232.52" font-family="Helvetica,sans-Serif" font-size="10.00">editeurpanovisu.EditeurPanovisu.projets</text>
<text xml:space="preserve" text-anchor="middle" x="1005.38" y="-220.52" font-family="Helvetica,sans-Serif" font-size="10.00">Nouveau</text>
</a>
</g>
</g>
<!-- Node10&#45;&gt;Node13 -->
<g id="edge19_Node000010_Node000013" class="edge">
<title>Node10&#45;&gt;Node13</title>
<g id="a_edge19_Node000010_Node000013"><a xlink:title=" ">
<path fill="none" stroke="#63b8ff" d="M1125.24,-231.63C1117.2,-231.52 1109.11,-231.41 1101.13,-231.3"/>
<polygon fill="#63b8ff" stroke="#63b8ff" points="1124.99,-235.13 1135.04,-231.76 1125.08,-228.13 1124.99,-235.13"/>
</a>
</g>
</g>
<!-- Node14 -->
<g id="Node000014" class="node">
<title>Node14</title>
<g id="a_Node000014"><a xlink:href="classediteurpanovisu_1_1EditeurPanovisu.html#a2b3125ffe2e6291efacf19df6cb30a8d" target="_top" xlink:title=" ">
<polygon fill="white" stroke="#666666" points="869.12,-146.02 688.12,-146.02 688.12,-126.02 869.12,-126.02 869.12,-146.02"/>
<text xml:space="preserve" text-anchor="middle" x="778.62" y="-132.52" font-family="Helvetica,sans-Serif" font-size="10.00">editeurpanovisu.EditeurPanovisu.start</text>
</a>
</g>
</g>
<!-- Node10&#45;&gt;Node14 -->
<g id="edge24_Node000010_Node000014" class="edge">
<title>Node10&#45;&gt;Node14</title>
<g id="a_edge24_Node000010_Node000014"><a xlink:title=" ">
<path fill="none" stroke="#63b8ff" d="M1141.6,-211.24C1139.94,-210.22 1138.32,-209.15 1136.75,-208.02 1113.58,-191.48 1125.51,-169.09 1100.75,-155.02 1017.11,-107.51 900.64,-115.33 833.39,-125.54"/>
<polygon fill="#63b8ff" stroke="#63b8ff" points="1139.69,-214.19 1150.15,-215.87 1143.02,-208.03 1139.69,-214.19"/>
</a>
</g>
</g>
<!-- Node15 -->
<g id="Node000015" class="node">
<title>Node15</title>
<g id="a_Node000015"><a xlink:href="classediteurpanovisu_1_1EditeurPanovisu.html#aef8c9b28c3e88d6e27e3f62b9a901134" target="_top" xlink:title=" ">
<polygon fill="white" stroke="#666666" points="1099.25,-196.02 911.5,-196.02 911.5,-164.02 1099.25,-164.02 1099.25,-196.02"/>
<text xml:space="preserve" text-anchor="start" x="919.5" y="-182.52" font-family="Helvetica,sans-Serif" font-size="10.00">editeurpanovisu.EditeurPanovisu.sauve</text>
<text xml:space="preserve" text-anchor="middle" x="1005.38" y="-170.52" font-family="Helvetica,sans-Serif" font-size="10.00">Fichiers</text>
</a>
</g>
</g>
<!-- Node10&#45;&gt;Node15 -->
<g id="edge23_Node000010_Node000015" class="edge">
<title>Node10&#45;&gt;Node15</title>
<g id="a_edge23_Node000010_Node000015"><a xlink:title=" ">
<path fill="none" stroke="#63b8ff" d="M1148.27,-213.88C1124.41,-208.19 1098.48,-202 1075.4,-196.49"/>
<polygon fill="#63b8ff" stroke="#63b8ff" points="1147.42,-217.28 1157.96,-216.19 1149.05,-210.47 1147.42,-217.28"/>
</a>
</g>
</g>
<!-- Node11&#45;&gt;Node6 -->
<g id="edge14_Node000011_Node000006" class="edge">
<title>Node11&#45;&gt;Node6</title>
<g id="a_edge14_Node000011_Node000006"><a xlink:title=" ">
<path fill="none" stroke="#63b8ff" d="M516.82,-139.68C465.94,-173.52 372.09,-235.95 335.03,-260.61"/>
<polygon fill="#63b8ff" stroke="#63b8ff" points="518.45,-142.8 524.84,-134.34 514.58,-136.97 518.45,-142.8"/>
</a>
</g>
</g>
<!-- Node12&#45;&gt;Node6 -->
<g id="edge18_Node000012_Node000006" class="edge">
<title>Node12&#45;&gt;Node6</title>
<g id="a_edge18_Node000012_Node000006"><a xlink:title=" ">
<path fill="none" stroke="#63b8ff" d="M671.3,-305.32C608.74,-299.56 528.11,-292.02 456.5,-285.02 444.95,-283.9 432.85,-282.69 420.83,-281.48"/>
<polygon fill="#63b8ff" stroke="#63b8ff" points="670.97,-308.81 681.25,-306.24 671.61,-301.84 670.97,-308.81"/>
</a>
</g>
</g>
<!-- Node13&#45;&gt;Node6 -->
<g id="edge20_Node000013_Node000006" class="edge">
<title>Node13&#45;&gt;Node6</title>
<g id="a_edge20_Node000013_Node000006"><a xlink:title=" ">
<path fill="none" stroke="#63b8ff" d="M898.29,-233.6C787.84,-237.71 609.89,-245.42 456.5,-257.02 443.26,-258.03 429.31,-259.25 415.59,-260.56"/>
<polygon fill="#63b8ff" stroke="#63b8ff" points="898.38,-237.1 908.24,-233.23 898.12,-230.1 898.38,-237.1"/>
</a>
</g>
</g>
<!-- Node13&#45;&gt;Node14 -->
<g id="edge21_Node000013_Node000014" class="edge">
<title>Node13&#45;&gt;Node14</title>
<g id="a_edge21_Node000013_Node000014"><a xlink:title=" ">
<path fill="none" stroke="#63b8ff" d="M924.25,-210.17C919.39,-208.54 914.61,-206.83 910,-205.02 867.31,-188.33 820.58,-161.24 796.33,-146.46"/>
<polygon fill="#63b8ff" stroke="#63b8ff" points="922.95,-213.43 933.54,-213.13 925.07,-206.76 922.95,-213.43"/>
</a>
</g>
</g>
<!-- Node14&#45;&gt;Node11 -->
<g id="edge22_Node000014_Node000011" class="edge">
<title>Node14&#45;&gt;Node11</title>
<g id="a_edge22_Node000014_Node000011"><a xlink:title=" ">
<path fill="none" stroke="#63b8ff" d="M676.6,-127.48C666.98,-126.67 657.24,-125.85 647.68,-125.04"/>
<polygon fill="#63b8ff" stroke="#63b8ff" points="676.06,-130.95 686.32,-128.31 676.65,-123.98 676.06,-130.95"/>
</a>
</g>
</g>
<!-- Node16&#45;&gt;Node6 -->
<g id="edge26_Node000016_Node000006" class="edge">
<title>Node16&#45;&gt;Node6</title>
<g id="a_edge26_Node000016_Node000006"><a xlink:title=" ">
<path fill="none" stroke="#63b8ff" d="M1207.81,-158.56C1184.7,-133.33 1144.73,-95.55 1100.75,-80.02 830.69,15.28 710.15,40.93 456.5,-92.02 382.65,-130.73 336.76,-228.95 323.43,-260.85"/>
<polygon fill="#63b8ff" stroke="#63b8ff" points="1204.98,-160.65 1214.25,-165.78 1210.2,-155.99 1204.98,-160.65"/>
</a>
</g>
</g>
<!-- Node19 -->
<g id="Node000019" class="node">
<title>Node19</title>
<g id="a_Node000019"><a xlink:href="classediteurpanovisu_1_1EditeurPanovisu.html#aaee69ab54364f89b58458c744a4195c0" target="_top" xlink:title=" ">
<polygon fill="white" stroke="#666666" points="1546,-199.02 1358.25,-199.02 1358.25,-167.02 1546,-167.02 1546,-199.02"/>
<text xml:space="preserve" text-anchor="start" x="1366.25" y="-185.52" font-family="Helvetica,sans-Serif" font-size="10.00">editeurpanovisu.EditeurPanovisu.sauve</text>
<text xml:space="preserve" text-anchor="middle" x="1452.12" y="-173.52" font-family="Helvetica,sans-Serif" font-size="10.00">FichierProjet</text>
</a>
</g>
</g>
<!-- Node18&#45;&gt;Node19 -->
<g id="edge32_Node000018_Node000019" class="edge">
<title>Node18&#45;&gt;Node19</title>
<g id="a_edge32_Node000018_Node000019"><a xlink:title=" ">
<path fill="none" stroke="#63b8ff" d="M2211.99,-183.02C2047.88,-183.02 1710.24,-183.02 1546.4,-183.02"/>
<polygon fill="#63b8ff" stroke="#63b8ff" points="2211.98,-186.52 2221.98,-183.02 2211.98,-179.52 2211.98,-186.52"/>
</a>
</g>
</g>
<!-- Node19&#45;&gt;Node10 -->
<g id="edge33_Node000019_Node000010" class="edge">
<title>Node19&#45;&gt;Node10</title>
<g id="a_edge33_Node000019_Node000010"><a xlink:title=" ">
<path fill="none" stroke="#63b8ff" d="M1367.62,-201.95C1346.38,-206.76 1323.73,-211.89 1303.09,-216.57"/>
<polygon fill="#63b8ff" stroke="#63b8ff" points="1368.12,-205.42 1377.1,-199.8 1366.58,-198.6 1368.12,-205.42"/>
</a>
</g>
</g>
<!-- Node19&#45;&gt;Node16 -->
<g id="edge34_Node000019_Node000016" class="edge">
<title>Node19&#45;&gt;Node16</title>
<g id="a_edge34_Node000019_Node000016"><a xlink:title=" ">
<path fill="none" stroke="#63b8ff" d="M1346.63,-183.02C1338.64,-183.02 1330.61,-183.02 1322.71,-183.02"/>
<polygon fill="#63b8ff" stroke="#63b8ff" points="1346.37,-186.52 1356.37,-183.02 1346.37,-179.52 1346.37,-186.52"/>
</a>
</g>
</g>
</g>
</svg>

<g id="navigator" transform="translate(0 0)" fill="#404254">
  <rect fill="#f2f5e9" fill-opacity="0.5" stroke="#606060" stroke-width=".5" x="0" y="0" width="60" height="60"/>
  <use id="zoomplus" xlink:href="#zoomPlus" x="17" y="9" onmousedown="handleZoom(evt,'in')"/>
  <use id="zoomminus" xlink:href="#zoomMin" x="42" y="9" onmousedown="handleZoom(evt,'out')"/>
  <use id="reset" xlink:href="#resetDef" x="30" y="36" onmousedown="handleReset()"/>
   <use id="arrowup" xlink:href="#arrowUp" x="0" y="0" onmousedown="handlePan(0,-1)"/>
  <use id="arrowright" xlink:href="#arrowRight" x="0" y="0" onmousedown="handlePan(1,0)"/>
  <use id="arrowdown" xlink:href="#arrowDown" x="0" y="0" onmousedown="handlePan(0,1)"/>
  <use id="arrowleft" xlink:href="#arrowLeft" x="0" y="0" onmousedown="handlePan(-1,0)"/>
</g>
<svg viewBox="0 0 15 15" width="100%" height="30px" preserveAspectRatio="xMaxYMin meet">
 <g id="arrow_out" transform="scale(0.3 0.3)">
  <a xlink:href="classediteurpanovisu_1_1GestionnaireInterfaceController_a65ed7e02b11db04a2c523537509a9ba9_icgraph_org.svg" target="_base">
   <rect id="button" ry="5" rx="5" y="6" x="6" height="38" width="38"
        fill="#f2f5e9" fill-opacity="0.5" stroke="#606060" stroke-width="1.0"/>
   <path id="arrow"
     d="M 11.500037,31.436501 C 11.940474,20.09759 22.043105,11.32322 32.158766,21.979434 L 37.068811,17.246167 C 37.068811,17.246167 37.088388,32 37.088388,32 L 22.160133,31.978069 C 22.160133,31.978069 26.997745,27.140456 26.997745,27.140456 C 18.528582,18.264221 13.291696,25.230495 11.500037,31.436501 z"
     style="fill:#404040;"/>
  </a>
 </g>
</svg>

<style type='text/css'>
<![CDATA[
[data-mouse-over-selected='false'] { opacity: 0.7; }
[data-mouse-over-selected='true']  { opacity: 1.0; }
]]>
</style>
<script type="application/ecmascript"><![CDATA[
document.addEventListener('DOMContentLoaded', (event) => {
  highlightEdges();
  highlightAdjacentNodes();
});
]]></script>
</svg>
