<?xml version="1.0" encoding="UTF-8" standalone="no"?>
<!DOCTYPE svg PUBLIC "-//W3C//DTD SVG 1.1//EN"
 "http://www.w3.org/Graphics/SVG/1.1/DTD/svg11.dtd">
<!-- Generated by graphviz version 13.1.2 (20250808.2320)
 -->
<!-- Title: editeurpanovisu.GestionnaireInterfaceController.getStrCouleurLigneRadarCarte Pages: 1 -->
<!--zoomable 442 -->

<svg id="main" version="1.1" xmlns="http://www.w3.org/2000/svg" xmlns:xlink="http://www.w3.org/1999/xlink" xml:space="preserve" onload="init(evt)">

<style type="text/css"><![CDATA[
.node, .edge {opacity: 0.7;}
.node.selected, .edge.selected {opacity: 1;}
.edge:hover path { stroke: red; }
.edge:hover polygon { stroke: red; fill: red; }
]]></style>

<defs>
  <circle id="rim" cx="0" cy="0" r="7"/>
  <circle id="rim2" cx="0" cy="0" r="3.5"/>
  <g id="zoomPlus">
    <use xlink:href="#rim" fill="#404040"><set attributeName="fill" to="#808080" begin="zoomplus.mouseover" end="zoomplus.mouseout"/></use>
    <path d="M-4,0h8M0,-4v8" fill="none" stroke="white" stroke-width="1.5" pointer-events="none"/>
  </g>
  <g id="zoomMin">
    <use xlink:href="#rim" fill="#404040"><set attributeName="fill" to="#808080" begin="zoomminus.mouseover" end="zoomminus.mouseout"/></use>
    <path d="M-4,0h8" fill="none" stroke="white" stroke-width="1.5" pointer-events="none"/>
  </g>
  <g id="arrowUp" transform="translate(30 24)">
    <use xlink:href="#rim"/>
    <path pointer-events="none" fill="none" stroke="white" stroke-width="1.5" d="M0,-3.0v7 M-2.5,-0.5L0,-3.0L2.5,-0.5"/>
  </g>
  <g id="arrowRight" transform="rotate(90) translate(36 -43)">
    <use xlink:href="#rim"/>
    <path pointer-events="none" fill="none" stroke="white" stroke-width="1.5" d="M0,-3.0v7 M-2.5,-0.5L0,-3.0L2.5,-0.5"/>
  </g>
  <g id="arrowDown" transform="rotate(180) translate(-30 -48)">
    <use xlink:href="#rim"/>
    <path pointer-events="none" fill="none" stroke="white" stroke-width="1.5" d="M0,-3.0v7 M-2.5,-0.5L0,-3.0L2.5,-0.5"/>
  </g>
  <g id="arrowLeft" transform="rotate(270) translate(-36 17)">
    <use xlink:href="#rim"/>
    <path pointer-events="none" fill="none" stroke="white" stroke-width="1.5" d="M0,-3.0v7 M-2.5,-0.5L0,-3.0L2.5,-0.5"/>
  </g>
  <g id="resetDef">
    <use xlink:href="#rim2" fill="#404040"><set attributeName="fill" to="#808080" begin="reset.mouseover" end="reset.mouseout"/></use>
  </g>
</defs>
<script type="application/ecmascript">
var viewWidth = 2619;
var viewHeight = 442;
var sectionId = 'dynsection-146';
</script>
<script type="application/ecmascript" xlink:href="svg.min.js"/>
<svg id="graph" class="graph">
<g id="viewport">
<title>editeurpanovisu.GestionnaireInterfaceController.getStrCouleurLigneRadarCarte</title>
<!-- Node1 -->
<g id="Node000001" class="node">
<title>Node1</title>
<g id="a_Node000001"><a xlink:title=" ">
<polygon fill="#999999" stroke="#666666" points="2610.75,-137.72 2451.5,-137.72 2451.5,-93.72 2610.75,-93.72 2610.75,-137.72"/>
<text xml:space="preserve" text-anchor="start" x="2459.5" y="-124.22" font-family="Helvetica,sans-Serif" font-size="10.00">editeurpanovisu.Gestionnaire</text>
<text xml:space="preserve" text-anchor="start" x="2459.5" y="-112.22" font-family="Helvetica,sans-Serif" font-size="10.00">InterfaceController.getStrCouleur</text>
<text xml:space="preserve" text-anchor="middle" x="2531.12" y="-100.22" font-family="Helvetica,sans-Serif" font-size="10.00">LigneRadarCarte</text>
</a>
</g>
</g>
<!-- Node2 -->
<g id="Node000002" class="node">
<title>Node2</title>
<g id="a_Node000002"><a xlink:href="classediteurpanovisu_1_1GestionnaireInterfaceController.html#aac0a5ca6534a81893b2464d1102db5af" target="_top" xlink:title=" ">
<polygon fill="white" stroke="#666666" points="2408.38,-243.72 2256.62,-243.72 2256.62,-211.72 2408.38,-211.72 2408.38,-243.72"/>
<text xml:space="preserve" text-anchor="start" x="2264.62" y="-230.22" font-family="Helvetica,sans-Serif" font-size="10.00">editeurpanovisu.Gestionnaire</text>
<text xml:space="preserve" text-anchor="middle" x="2332.5" y="-218.22" font-family="Helvetica,sans-Serif" font-size="10.00">InterfaceController.afficheCarte</text>
</a>
</g>
</g>
<!-- Node1&#45;&gt;Node2 -->
<g id="edge1_Node000001_Node000002" class="edge">
<title>Node1&#45;&gt;Node2</title>
<g id="a_edge1_Node000001_Node000002"><a xlink:title=" ">
<path fill="none" stroke="#63b8ff" d="M2481.1,-143.64C2443.68,-164.96 2393.39,-193.61 2362.23,-211.36"/>
<polygon fill="#63b8ff" stroke="#63b8ff" points="2482.54,-146.86 2489.49,-138.87 2479.07,-140.77 2482.54,-146.86"/>
</a>
</g>
</g>
<!-- Node11 -->
<g id="Node000011" class="node">
<title>Node11</title>
<g id="a_Node000011"><a xlink:href="classediteurpanovisu_1_1EditeurPanovisu.html#a94e36b9e9d09ab1a4c852b8a8cefa927" target="_top" xlink:title=" ">
<polygon fill="white" stroke="#666666" points="647.25,-214.72 456.5,-214.72 456.5,-182.72 647.25,-182.72 647.25,-214.72"/>
<text xml:space="preserve" text-anchor="start" x="464.5" y="-201.22" font-family="Helvetica,sans-Serif" font-size="10.00">editeurpanovisu.EditeurPanovisu.genere</text>
<text xml:space="preserve" text-anchor="middle" x="551.88" y="-189.22" font-family="Helvetica,sans-Serif" font-size="10.00">Visite</text>
</a>
</g>
</g>
<!-- Node1&#45;&gt;Node11 -->
<g id="edge37_Node000001_Node000011" class="edge">
<title>Node1&#45;&gt;Node11</title>
<g id="a_edge37_Node000001_Node000011"><a xlink:title=" ">
<path fill="none" stroke="#63b8ff" d="M2467.39,-89.05C2389.81,-58.53 2252.99,-12.72 2130.75,-12.72 2130.75,-12.72 2130.75,-12.72 1260,-12.72 1002.42,-12.72 916.37,39.83 683.25,-69.72 628.5,-95.45 583.2,-154.05 563.49,-182.55"/>
<polygon fill="#63b8ff" stroke="#63b8ff" points="2465.95,-92.24 2476.53,-92.68 2468.54,-85.73 2465.95,-92.24"/>
</a>
</g>
</g>
<!-- Node22 -->
<g id="Node000022" class="node">
<title>Node22</title>
<g id="a_Node000022"><a xlink:href="classediteurpanovisu_1_1GestionnaireInterfaceController.html#ab66509c63a85a8285a081b24049e8774" target="_top" xlink:title=" ">
<polygon fill="white" stroke="#666666" points="2415.5,-131.72 2249.5,-131.72 2249.5,-99.72 2415.5,-99.72 2415.5,-131.72"/>
<text xml:space="preserve" text-anchor="start" x="2257.5" y="-118.22" font-family="Helvetica,sans-Serif" font-size="10.00">editeurpanovisu.Gestionnaire</text>
<text xml:space="preserve" text-anchor="middle" x="2332.5" y="-106.22" font-family="Helvetica,sans-Serif" font-size="10.00">InterfaceController.strGetTemplate</text>
</a>
</g>
</g>
<!-- Node1&#45;&gt;Node22 -->
<g id="edge38_Node000001_Node000022" class="edge">
<title>Node1&#45;&gt;Node22</title>
<g id="a_edge38_Node000001_Node000022"><a xlink:title=" ">
<path fill="none" stroke="#63b8ff" d="M2439.56,-115.72C2431.7,-115.72 2423.78,-115.72 2415.99,-115.72"/>
<polygon fill="#63b8ff" stroke="#63b8ff" points="2439.49,-119.22 2449.49,-115.72 2439.49,-112.22 2439.49,-119.22"/>
</a>
</g>
</g>
<!-- Node3 -->
<g id="Node000003" class="node">
<title>Node3</title>
<g id="a_Node000003"><a xlink:href="classediteurpanovisu_1_1GestionnaireInterfaceController.html#a55c8afda208674955a13d48d02be41b8" target="_top" xlink:title=" ">
<polygon fill="white" stroke="#666666" points="2213.5,-243.72 2046,-243.72 2046,-211.72 2213.5,-211.72 2213.5,-243.72"/>
<text xml:space="preserve" text-anchor="start" x="2054" y="-230.22" font-family="Helvetica,sans-Serif" font-size="10.00">editeurpanovisu.Gestionnaire</text>
<text xml:space="preserve" text-anchor="middle" x="2129.75" y="-218.22" font-family="Helvetica,sans-Serif" font-size="10.00">InterfaceController.afficheTemplate</text>
</a>
</g>
</g>
<!-- Node2&#45;&gt;Node3 -->
<g id="edge2_Node000002_Node000003" class="edge">
<title>Node2&#45;&gt;Node3</title>
<g id="a_edge2_Node000002_Node000003"><a xlink:title=" ">
<path fill="none" stroke="#63b8ff" d="M2244.73,-227.72C2234.5,-227.72 2224.08,-227.72 2213.9,-227.72"/>
<polygon fill="#63b8ff" stroke="#63b8ff" points="2244.66,-231.22 2254.66,-227.72 2244.66,-224.22 2244.66,-231.22"/>
</a>
</g>
</g>
<!-- Node17 -->
<g id="Node000017" class="node">
<title>Node17</title>
<g id="a_Node000017"><a xlink:href="classediteurpanovisu_1_1GestionnaireInterfaceController.html#a8c634f775c31c1a4db22d5ef0659f7e4" target="_top" xlink:title=" ">
<polygon fill="white" stroke="#666666" points="2203.38,-293.72 2056.12,-293.72 2056.12,-261.72 2203.38,-261.72 2203.38,-293.72"/>
<text xml:space="preserve" text-anchor="start" x="2064.12" y="-280.22" font-family="Helvetica,sans-Serif" font-size="10.00">editeurpanovisu.Gestionnaire</text>
<text xml:space="preserve" text-anchor="middle" x="2129.75" y="-268.22" font-family="Helvetica,sans-Serif" font-size="10.00">InterfaceController.afficheTitre</text>
</a>
</g>
</g>
<!-- Node2&#45;&gt;Node17 -->
<g id="edge28_Node000002_Node000017" class="edge">
<title>Node2&#45;&gt;Node17</title>
<g id="a_edge28_Node000002_Node000017"><a xlink:title=" ">
<path fill="none" stroke="#63b8ff" d="M2254.45,-246.91C2235.44,-251.65 2215.24,-256.68 2196.8,-261.27"/>
<polygon fill="#63b8ff" stroke="#63b8ff" points="2255.16,-250.34 2264.02,-244.53 2253.47,-243.55 2255.16,-250.34"/>
</a>
</g>
</g>
<!-- Node18 -->
<g id="Node000018" class="node">
<title>Node18</title>
<g id="a_Node000018"><a xlink:href="classediteurpanovisu_1_1GestionnaireInterfaceController.html#ac7fa988dc99d8684686127a2269cd66e" target="_top" xlink:title=" ">
<polygon fill="white" stroke="#666666" points="2000.62,-326.72 1844.38,-326.72 1844.38,-294.72 2000.62,-294.72 2000.62,-326.72"/>
<text xml:space="preserve" text-anchor="start" x="1852.38" y="-313.22" font-family="Helvetica,sans-Serif" font-size="10.00">editeurpanovisu.Gestionnaire</text>
<text xml:space="preserve" text-anchor="middle" x="1922.5" y="-301.22" font-family="Helvetica,sans-Serif" font-size="10.00">InterfaceController.creeInterface</text>
</a>
</g>
</g>
<!-- Node2&#45;&gt;Node18 -->
<g id="edge30_Node000002_Node000018" class="edge">
<title>Node2&#45;&gt;Node18</title>
<g id="a_edge30_Node000002_Node000018"><a xlink:title=" ">
<path fill="none" stroke="#63b8ff" d="M2304.4,-251.02C2281.77,-268.9 2247.77,-292.24 2213.5,-302.72 2143.9,-324.01 2060.48,-323.82 2001.01,-319.61"/>
<polygon fill="#63b8ff" stroke="#63b8ff" points="2306.34,-253.95 2311.9,-244.94 2301.93,-248.51 2306.34,-253.95"/>
</a>
</g>
</g>
<!-- Node19 -->
<g id="Node000019" class="node">
<title>Node19</title>
<g id="a_Node000019"><a xlink:href="classediteurpanovisu_1_1GestionnaireInterfaceController.html#a568c34e865fb653f63b8fa7a9a9cafc8" target="_top" xlink:title=" ">
<polygon fill="white" stroke="#666666" points="2200.75,-193.72 2058.75,-193.72 2058.75,-161.72 2200.75,-161.72 2200.75,-193.72"/>
<text xml:space="preserve" text-anchor="start" x="2066.75" y="-180.22" font-family="Helvetica,sans-Serif" font-size="10.00">editeurpanovisu.Gestionnaire</text>
<text xml:space="preserve" text-anchor="middle" x="2129.75" y="-168.22" font-family="Helvetica,sans-Serif" font-size="10.00">InterfaceController.rafraichit</text>
</a>
</g>
</g>
<!-- Node2&#45;&gt;Node19 -->
<g id="edge31_Node000002_Node000019" class="edge">
<title>Node2&#45;&gt;Node19</title>
<g id="a_edge31_Node000002_Node000019"><a xlink:title=" ">
<path fill="none" stroke="#63b8ff" d="M2254.45,-208.53C2235.44,-203.8 2215.24,-198.76 2196.8,-194.17"/>
<polygon fill="#63b8ff" stroke="#63b8ff" points="2253.47,-211.89 2264.02,-210.91 2255.16,-205.1 2253.47,-211.89"/>
</a>
</g>
</g>
<!-- Node4 -->
<g id="Node000004" class="node">
<title>Node4</title>
<g id="a_Node000004"><a xlink:href="classediteurpanovisu_1_1EditeurPanovisu.html#a87b29dc258cfc67370b1f27809e91b8e" target="_top" xlink:title=" ">
<polygon fill="white" stroke="#666666" points="2010,-254.72 1835,-254.72 1835,-222.72 2010,-222.72 2010,-254.72"/>
<text xml:space="preserve" text-anchor="start" x="1843" y="-241.22" font-family="Helvetica,sans-Serif" font-size="10.00">editeurpanovisu.EditeurPanovisu.tsk</text>
<text xml:space="preserve" text-anchor="middle" x="1922.5" y="-229.22" font-family="Helvetica,sans-Serif" font-size="10.00">AnalyseFichierPVU</text>
</a>
</g>
</g>
<!-- Node3&#45;&gt;Node4 -->
<g id="edge3_Node000003_Node000004" class="edge">
<title>Node3&#45;&gt;Node4</title>
<g id="a_edge3_Node000003_Node000004"><a xlink:title=" ">
<path fill="none" stroke="#63b8ff" d="M2034.1,-232.79C2026.23,-233.22 2018.29,-233.64 2010.48,-234.06"/>
<polygon fill="#63b8ff" stroke="#63b8ff" points="2034.25,-236.29 2044.05,-232.26 2033.88,-229.3 2034.25,-236.29"/>
</a>
</g>
</g>
<!-- Node5 -->
<g id="Node000005" class="node">
<title>Node5</title>
<g id="a_Node000005"><a xlink:href="classediteurpanovisu_1_1EditeurPanovisu.html#ab4beb1597b660a4a253befc6e76f1c54" target="_top" xlink:title=" ">
<polygon fill="white" stroke="#666666" points="1129.62,-400.72 944.12,-400.72 944.12,-368.72 1129.62,-368.72 1129.62,-400.72"/>
<text xml:space="preserve" text-anchor="start" x="952.12" y="-387.22" font-family="Helvetica,sans-Serif" font-size="10.00">editeurpanovisu.EditeurPanovisu.projet</text>
<text xml:space="preserve" text-anchor="middle" x="1036.88" y="-375.22" font-family="Helvetica,sans-Serif" font-size="10.00">Charge</text>
</a>
</g>
</g>
<!-- Node4&#45;&gt;Node5 -->
<g id="edge4_Node000004_Node000005" class="edge">
<title>Node4&#45;&gt;Node5</title>
<g id="a_edge4_Node000004_Node000005"><a xlink:title=" ">
<path fill="none" stroke="#63b8ff" d="M1858.77,-258.38C1839.71,-263.89 1818.61,-269.51 1799,-273.72 1560.07,-325.04 1273.8,-359.71 1129.96,-375.31"/>
<polygon fill="#63b8ff" stroke="#63b8ff" points="1859.67,-261.77 1868.28,-255.6 1857.7,-255.05 1859.67,-261.77"/>
</a>
</g>
</g>
<!-- Node8 -->
<g id="Node000008" class="node">
<title>Node8</title>
<g id="a_Node000008"><a xlink:href="classediteurpanovisu_1_1EditeurPanovisu.html#a6d19b4d885ee6fcec827b91956295732" target="_top" xlink:title=" ">
<polygon fill="white" stroke="#666666" points="1799,-264.72 1613.5,-264.72 1613.5,-232.72 1799,-232.72 1799,-264.72"/>
<text xml:space="preserve" text-anchor="start" x="1621.5" y="-251.22" font-family="Helvetica,sans-Serif" font-size="10.00">editeurpanovisu.EditeurPanovisu.projet</text>
<text xml:space="preserve" text-anchor="middle" x="1706.25" y="-239.22" font-family="Helvetica,sans-Serif" font-size="10.00">ChargeNom</text>
</a>
</g>
</g>
<!-- Node4&#45;&gt;Node8 -->
<g id="edge7_Node000004_Node000008" class="edge">
<title>Node4&#45;&gt;Node8</title>
<g id="a_edge7_Node000004_Node000008"><a xlink:title=" ">
<path fill="none" stroke="#63b8ff" d="M1823.44,-243.3C1815.45,-243.67 1807.39,-244.05 1799.45,-244.42"/>
<polygon fill="#63b8ff" stroke="#63b8ff" points="1823.33,-246.81 1833.15,-242.84 1823,-239.81 1823.33,-246.81"/>
</a>
</g>
</g>
<!-- Node6 -->
<g id="Node000006" class="node">
<title>Node6</title>
<g id="a_Node000006"><a xlink:href="classediteurpanovisu_1_1EditeurPanovisu.html#ac912b80c1f2ac97def60ff005c5c480b" target="_top" xlink:title=" ">
<polygon fill="white" stroke="#666666" points="420.5,-265.72 216.25,-265.72 216.25,-245.72 420.5,-245.72 420.5,-265.72"/>
<text xml:space="preserve" text-anchor="middle" x="318.38" y="-252.22" font-family="Helvetica,sans-Serif" font-size="10.00">editeurpanovisu.EditeurPanovisu.creeMenu</text>
</a>
</g>
</g>
<!-- Node5&#45;&gt;Node6 -->
<g id="edge5_Node000005_Node000006" class="edge">
<title>Node5&#45;&gt;Node6</title>
<g id="a_edge5_Node000005_Node000006"><a xlink:title=" ">
<path fill="none" stroke="#63b8ff" d="M932.51,-396.58C813.92,-406.32 615.38,-410.66 456.5,-354.72 401.94,-335.51 350.15,-287.24 329.17,-266.01"/>
<polygon fill="#63b8ff" stroke="#63b8ff" points="932.55,-400.09 942.22,-395.75 931.96,-393.11 932.55,-400.09"/>
</a>
</g>
</g>
<!-- Node7 -->
<g id="Node000007" class="node">
<title>Node7</title>
<g id="a_Node000007"><a xlink:href="classediteurpanovisu_1_1EditeurPanovisu.html#a86c393eee88f54c694db994ddd85b90d" target="_top" xlink:title=" ">
<polygon fill="white" stroke="#666666" points="180.25,-271.72 0,-271.72 0,-239.72 180.25,-239.72 180.25,-271.72"/>
<text xml:space="preserve" text-anchor="start" x="8" y="-258.22" font-family="Helvetica,sans-Serif" font-size="10.00">editeurpanovisu.EditeurPanovisu.cree</text>
<text xml:space="preserve" text-anchor="middle" x="90.12" y="-246.22" font-family="Helvetica,sans-Serif" font-size="10.00">Environnement</text>
</a>
</g>
</g>
<!-- Node6&#45;&gt;Node7 -->
<g id="edge6_Node000006_Node000007" class="edge">
<title>Node6&#45;&gt;Node7</title>
<g id="a_edge6_Node000006_Node000007"><a xlink:title=" ">
<path fill="none" stroke="#63b8ff" d="M204.51,-255.72C196.49,-255.72 188.46,-255.72 180.6,-255.72"/>
<polygon fill="#63b8ff" stroke="#63b8ff" points="204.32,-259.22 214.32,-255.72 204.32,-252.22 204.32,-259.22"/>
</a>
</g>
</g>
<!-- Node8&#45;&gt;Node6 -->
<g id="edge27_Node000008_Node000006" class="edge">
<title>Node8&#45;&gt;Node6</title>
<g id="a_edge27_Node000008_Node000006"><a xlink:title=" ">
<path fill="none" stroke="#63b8ff" d="M1660.01,-269.84C1553.85,-317.39 1279.49,-428.72 1037.88,-428.72 1037.88,-428.72 1037.88,-428.72 793.38,-428.72 642.6,-428.72 592.64,-453.51 456.5,-388.72 395.11,-359.51 344.11,-291.79 326.22,-265.98"/>
<polygon fill="#63b8ff" stroke="#63b8ff" points="1661.29,-273.1 1668.96,-265.79 1658.41,-266.72 1661.29,-273.1"/>
</a>
</g>
</g>
<!-- Node9 -->
<g id="Node000009" class="node">
<title>Node9</title>
<g id="a_Node000009"><a xlink:href="classediteurpanovisu_1_1EditeurPanovisu.html#af0d1c32bb78acbff561c822a0d15f760" target="_top" xlink:title=" ">
<polygon fill="white" stroke="#666666" points="1577.5,-264.72 1389.75,-264.72 1389.75,-232.72 1577.5,-232.72 1577.5,-264.72"/>
<text xml:space="preserve" text-anchor="start" x="1397.75" y="-251.22" font-family="Helvetica,sans-Serif" font-size="10.00">editeurpanovisu.EditeurPanovisu.ajoute</text>
<text xml:space="preserve" text-anchor="middle" x="1483.62" y="-239.22" font-family="Helvetica,sans-Serif" font-size="10.00">FichierHisto</text>
</a>
</g>
</g>
<!-- Node8&#45;&gt;Node9 -->
<g id="edge8_Node000008_Node000009" class="edge">
<title>Node8&#45;&gt;Node9</title>
<g id="a_edge8_Node000008_Node000009"><a xlink:title=" ">
<path fill="none" stroke="#63b8ff" d="M1601.97,-241.98C1593.92,-241.96 1585.83,-241.98 1577.86,-242.04"/>
<polygon fill="#63b8ff" stroke="#63b8ff" points="1601.75,-245.48 1611.77,-242.05 1601.79,-238.48 1601.75,-245.48"/>
</a>
</g>
</g>
<!-- Node9&#45;&gt;Node5 -->
<g id="edge9_Node000009_Node000005" class="edge">
<title>Node9&#45;&gt;Node5</title>
<g id="a_edge9_Node000009_Node000005"><a xlink:title=" ">
<path fill="none" stroke="#63b8ff" d="M1418.06,-268.46C1330,-295.39 1173.8,-343.16 1091.71,-368.26"/>
<polygon fill="#63b8ff" stroke="#63b8ff" points="1418.99,-271.84 1427.53,-265.57 1416.94,-265.15 1418.99,-271.84"/>
</a>
</g>
</g>
<!-- Node9&#45;&gt;Node8 -->
<g id="edge10_Node000009_Node000008" class="edge">
<title>Node9&#45;&gt;Node8</title>
<g id="a_edge10_Node000009_Node000008"><a xlink:title=" ">
<path fill="none" stroke="#63b8ff" d="M1589.19,-255.46C1597.24,-255.49 1605.33,-255.46 1613.28,-255.39"/>
<polygon fill="#63b8ff" stroke="#63b8ff" points="1589.4,-251.96 1579.38,-255.41 1589.36,-258.96 1589.4,-251.96"/>
</a>
</g>
</g>
<!-- Node10 -->
<g id="Node000010" class="node">
<title>Node10</title>
<g id="a_Node000010"><a xlink:href="classediteurpanovisu_1_1EditeurPanovisu.html#a9f3ea25b35d4884524508dab3dc4fd6a" target="_top" xlink:title=" ">
<polygon fill="white" stroke="#666666" points="1353.75,-273.72 1168.25,-273.72 1168.25,-241.72 1353.75,-241.72 1353.75,-273.72"/>
<text xml:space="preserve" text-anchor="start" x="1176.25" y="-260.22" font-family="Helvetica,sans-Serif" font-size="10.00">editeurpanovisu.EditeurPanovisu.projet</text>
<text xml:space="preserve" text-anchor="middle" x="1261" y="-248.22" font-family="Helvetica,sans-Serif" font-size="10.00">Sauve</text>
</a>
</g>
</g>
<!-- Node9&#45;&gt;Node10 -->
<g id="edge11_Node000009_Node000010" class="edge">
<title>Node9&#45;&gt;Node10</title>
<g id="a_edge11_Node000009_Node000010"><a xlink:title=" ">
<path fill="none" stroke="#63b8ff" d="M1378.13,-252.98C1370.14,-253.31 1362.11,-253.64 1354.21,-253.96"/>
<polygon fill="#63b8ff" stroke="#63b8ff" points="1378.02,-256.49 1387.87,-252.59 1377.73,-249.5 1378.02,-256.49"/>
</a>
</g>
</g>
<!-- Node16 -->
<g id="Node000016" class="node">
<title>Node16</title>
<g id="a_Node000016"><a xlink:href="classediteurpanovisu_1_1EditeurPanovisu.html#a7b2e25dc717eb52b62e23d54ec4c124a" target="_top" xlink:title=" ">
<polygon fill="white" stroke="#666666" points="1353.75,-113.72 1168.25,-113.72 1168.25,-81.72 1353.75,-81.72 1353.75,-113.72"/>
<text xml:space="preserve" text-anchor="start" x="1176.25" y="-100.22" font-family="Helvetica,sans-Serif" font-size="10.00">editeurpanovisu.EditeurPanovisu.projet</text>
<text xml:space="preserve" text-anchor="middle" x="1261" y="-88.22" font-family="Helvetica,sans-Serif" font-size="10.00">SauveSous</text>
</a>
</g>
</g>
<!-- Node9&#45;&gt;Node16 -->
<g id="edge25_Node000009_Node000016" class="edge">
<title>Node9&#45;&gt;Node16</title>
<g id="a_edge25_Node000009_Node000016"><a xlink:title=" ">
<path fill="none" stroke="#63b8ff" d="M1463.58,-223.56C1440.62,-194.95 1399.37,-148.85 1353.75,-122.72 1348.02,-119.44 1341.84,-116.57 1335.49,-114.07"/>
<polygon fill="#63b8ff" stroke="#63b8ff" points="1460.78,-225.65 1469.71,-231.34 1466.28,-221.32 1460.78,-225.65"/>
</a>
</g>
</g>
<!-- Node10&#45;&gt;Node5 -->
<g id="edge15_Node000010_Node000005" class="edge">
<title>Node10&#45;&gt;Node5</title>
<g id="a_edge15_Node000010_Node000005"><a xlink:title=" ">
<path fill="none" stroke="#63b8ff" d="M1218.01,-279.76C1201.72,-289.2 1183.39,-300.99 1168.25,-313.72 1149.69,-329.33 1152.55,-341.45 1132.25,-354.72 1124.05,-360.08 1114.82,-364.55 1105.43,-368.24"/>
<polygon fill="#63b8ff" stroke="#63b8ff" points="1219.54,-282.91 1226.52,-274.94 1216.09,-276.82 1219.54,-282.91"/>
</a>
</g>
</g>
<!-- Node10&#45;&gt;Node6 -->
<g id="edge12_Node000010_Node000006" class="edge">
<title>Node10&#45;&gt;Node6</title>
<g id="a_edge12_Node000010_Node000006"><a xlink:title=" ">
<path fill="none" stroke="#63b8ff" d="M1174.76,-276.29C1160.62,-278.83 1146.07,-281.11 1132.25,-282.72 833.82,-317.56 753.03,-350.13 456.5,-301.72 415.11,-294.96 369.37,-277.45 342.57,-266.08"/>
<polygon fill="#63b8ff" stroke="#63b8ff" points="1175.31,-279.75 1184.51,-274.48 1174.04,-272.86 1175.31,-279.75"/>
</a>
</g>
</g>
<!-- Node10&#45;&gt;Node8 -->
<g id="edge16_Node000010_Node000008" class="edge">
<title>Node10&#45;&gt;Node8</title>
<g id="a_edge16_Node000010_Node000008"><a xlink:title=" ">
<path fill="none" stroke="#63b8ff" d="M1365.26,-271.77C1373.54,-272.55 1381.77,-273.22 1389.75,-273.72 1473.03,-278.92 1494.44,-281.77 1577.5,-273.72 1595.95,-271.93 1615.68,-268.73 1633.99,-265.19"/>
<polygon fill="#63b8ff" stroke="#63b8ff" points="1365.79,-268.3 1355.49,-270.78 1365.08,-275.27 1365.79,-268.3"/>
</a>
</g>
</g>
<!-- Node10&#45;&gt;Node11 -->
<g id="edge13_Node000010_Node000011" class="edge">
<title>Node10&#45;&gt;Node11</title>
<g id="a_edge13_Node000010_Node000011"><a xlink:title=" ">
<path fill="none" stroke="#63b8ff" d="M1225.19,-235.48C1200.37,-220.98 1165.61,-203.39 1132.25,-195.72 965.11,-157.3 763.61,-171.39 647.65,-185.09"/>
<polygon fill="#63b8ff" stroke="#63b8ff" points="1223.18,-238.35 1233.56,-240.48 1226.77,-232.34 1223.18,-238.35"/>
</a>
</g>
</g>
<!-- Node12 -->
<g id="Node000012" class="node">
<title>Node12</title>
<g id="a_Node000012"><a xlink:href="classediteurpanovisu_1_1EditeurPanovisu.html#a9b46b222714af12c06ec33d410400773" target="_top" xlink:title=" ">
<polygon fill="white" stroke="#666666" points="647.25,-292.72 456.5,-292.72 456.5,-260.72 647.25,-260.72 647.25,-292.72"/>
<text xml:space="preserve" text-anchor="start" x="464.5" y="-279.22" font-family="Helvetica,sans-Serif" font-size="10.00">editeurpanovisu.EditeurPanovisu.projets</text>
<text xml:space="preserve" text-anchor="middle" x="551.88" y="-267.22" font-family="Helvetica,sans-Serif" font-size="10.00">Fermer</text>
</a>
</g>
</g>
<!-- Node10&#45;&gt;Node12 -->
<g id="edge17_Node000010_Node000012" class="edge">
<title>Node10&#45;&gt;Node12</title>
<g id="a_edge17_Node000010_Node000012"><a xlink:title=" ">
<path fill="none" stroke="#63b8ff" d="M1156.66,-264.58C1148.4,-265.01 1140.19,-265.4 1132.25,-265.72 961.49,-272.69 762.24,-275.25 647.5,-276.19"/>
<polygon fill="#63b8ff" stroke="#63b8ff" points="1156.61,-268.09 1166.41,-264.05 1156.23,-261.1 1156.61,-268.09"/>
</a>
</g>
</g>
<!-- Node13 -->
<g id="Node000013" class="node">
<title>Node13</title>
<g id="a_Node000013"><a xlink:href="classediteurpanovisu_1_1EditeurPanovisu.html#ac9d449399ccd38843fa12e716f0c9611" target="_top" xlink:title=" ">
<polygon fill="white" stroke="#666666" points="1132.25,-148.72 941.5,-148.72 941.5,-116.72 1132.25,-116.72 1132.25,-148.72"/>
<text xml:space="preserve" text-anchor="start" x="949.5" y="-135.22" font-family="Helvetica,sans-Serif" font-size="10.00">editeurpanovisu.EditeurPanovisu.projets</text>
<text xml:space="preserve" text-anchor="middle" x="1036.88" y="-123.22" font-family="Helvetica,sans-Serif" font-size="10.00">Nouveau</text>
</a>
</g>
</g>
<!-- Node10&#45;&gt;Node13 -->
<g id="edge19_Node000010_Node000013" class="edge">
<title>Node10&#45;&gt;Node13</title>
<g id="a_edge19_Node000010_Node000013"><a xlink:title=" ">
<path fill="none" stroke="#63b8ff" d="M1233.82,-234.14C1209.15,-212.95 1170.37,-182.26 1132.25,-162.72 1122.15,-157.55 1110.99,-153.04 1099.98,-149.21"/>
<polygon fill="#63b8ff" stroke="#63b8ff" points="1231.27,-236.55 1241.11,-240.48 1235.86,-231.27 1231.27,-236.55"/>
</a>
</g>
</g>
<!-- Node14 -->
<g id="Node000014" class="node">
<title>Node14</title>
<g id="a_Node000014"><a xlink:href="classediteurpanovisu_1_1EditeurPanovisu.html#a2b3125ffe2e6291efacf19df6cb30a8d" target="_top" xlink:title=" ">
<polygon fill="white" stroke="#666666" points="884.88,-224.72 703.88,-224.72 703.88,-204.72 884.88,-204.72 884.88,-224.72"/>
<text xml:space="preserve" text-anchor="middle" x="794.38" y="-211.22" font-family="Helvetica,sans-Serif" font-size="10.00">editeurpanovisu.EditeurPanovisu.start</text>
</a>
</g>
</g>
<!-- Node10&#45;&gt;Node14 -->
<g id="edge24_Node000010_Node000014" class="edge">
<title>Node10&#45;&gt;Node14</title>
<g id="a_edge24_Node000010_Node000014"><a xlink:title=" ">
<path fill="none" stroke="#63b8ff" d="M1156.58,-258.3C1094.09,-257.53 1012.97,-254.58 941.5,-245.72 905.34,-241.24 864.86,-232.34 835.69,-225.22"/>
<polygon fill="#63b8ff" stroke="#63b8ff" points="1156.47,-261.8 1166.51,-258.4 1156.55,-254.8 1156.47,-261.8"/>
</a>
</g>
</g>
<!-- Node15 -->
<g id="Node000015" class="node">
<title>Node15</title>
<g id="a_Node000015"><a xlink:href="classediteurpanovisu_1_1EditeurPanovisu.html#aef8c9b28c3e88d6e27e3f62b9a901134" target="_top" xlink:title=" ">
<polygon fill="white" stroke="#666666" points="1130.75,-236.72 943,-236.72 943,-204.72 1130.75,-204.72 1130.75,-236.72"/>
<text xml:space="preserve" text-anchor="start" x="951" y="-223.22" font-family="Helvetica,sans-Serif" font-size="10.00">editeurpanovisu.EditeurPanovisu.sauve</text>
<text xml:space="preserve" text-anchor="middle" x="1036.88" y="-211.22" font-family="Helvetica,sans-Serif" font-size="10.00">Fichiers</text>
</a>
</g>
</g>
<!-- Node10&#45;&gt;Node15 -->
<g id="edge23_Node000010_Node000015" class="edge">
<title>Node10&#45;&gt;Node15</title>
<g id="a_edge23_Node000010_Node000015"><a xlink:title=" ">
<path fill="none" stroke="#63b8ff" d="M1156.85,-240.54C1148.29,-239.11 1139.67,-237.68 1131.19,-236.26"/>
<polygon fill="#63b8ff" stroke="#63b8ff" points="1156.12,-243.97 1166.56,-242.16 1157.27,-237.06 1156.12,-243.97"/>
</a>
</g>
</g>
<!-- Node11&#45;&gt;Node6 -->
<g id="edge14_Node000011_Node000006" class="edge">
<title>Node11&#45;&gt;Node6</title>
<g id="a_edge14_Node000011_Node000006"><a xlink:title=" ">
<path fill="none" stroke="#63b8ff" d="M473.09,-217.87C435.9,-227.03 392.83,-237.63 361.76,-245.28"/>
<polygon fill="#63b8ff" stroke="#63b8ff" points="473.57,-221.36 482.45,-215.57 471.9,-214.56 473.57,-221.36"/>
</a>
</g>
</g>
<!-- Node12&#45;&gt;Node6 -->
<g id="edge18_Node000012_Node000006" class="edge">
<title>Node12&#45;&gt;Node6</title>
<g id="a_edge18_Node000012_Node000006"><a xlink:title=" ">
<path fill="none" stroke="#63b8ff" d="M444.81,-267.1C436.83,-266.38 428.78,-265.65 420.83,-264.92"/>
<polygon fill="#63b8ff" stroke="#63b8ff" points="444.26,-270.56 454.54,-267.98 444.9,-263.59 444.26,-270.56"/>
</a>
</g>
</g>
<!-- Node13&#45;&gt;Node6 -->
<g id="edge20_Node000013_Node000006" class="edge">
<title>Node13&#45;&gt;Node6</title>
<g id="a_edge20_Node000013_Node000006"><a xlink:title=" ">
<path fill="none" stroke="#63b8ff" d="M929.87,-125.71C811.57,-121.17 615.84,-123.59 456.5,-173.72 406.23,-189.54 355.04,-227.05 331.99,-245.33"/>
<polygon fill="#63b8ff" stroke="#63b8ff" points="929.42,-129.19 939.56,-126.1 929.71,-122.2 929.42,-129.19"/>
</a>
</g>
</g>
<!-- Node13&#45;&gt;Node14 -->
<g id="edge21_Node000013_Node000014" class="edge">
<title>Node13&#45;&gt;Node14</title>
<g id="a_edge21_Node000013_Node000014"><a xlink:title=" ">
<path fill="none" stroke="#63b8ff" d="M976.7,-152.9C929.05,-169.14 863.98,-191.33 826.14,-204.23"/>
<polygon fill="#63b8ff" stroke="#63b8ff" points="977.73,-156.24 986.06,-149.7 975.47,-149.62 977.73,-156.24"/>
</a>
</g>
</g>
<!-- Node14&#45;&gt;Node11 -->
<g id="edge22_Node000014_Node000011" class="edge">
<title>Node14&#45;&gt;Node11</title>
<g id="a_edge22_Node000014_Node000011"><a xlink:title=" ">
<path fill="none" stroke="#63b8ff" d="M692.23,-207.99C677.4,-207.01 662.18,-205.99 647.49,-205.02"/>
<polygon fill="#63b8ff" stroke="#63b8ff" points="691.76,-211.47 701.97,-208.64 692.22,-204.48 691.76,-211.47"/>
</a>
</g>
</g>
<!-- Node16&#45;&gt;Node6 -->
<g id="edge26_Node000016_Node000006" class="edge">
<title>Node16&#45;&gt;Node6</title>
<g id="a_edge26_Node000016_Node000006"><a xlink:title=" ">
<path fill="none" stroke="#63b8ff" d="M1199.25,-78.08C1058.97,-36.48 705.45,46.54 456.5,-82.72 384.39,-120.16 337.67,-214.23 323.74,-245.46"/>
<polygon fill="#63b8ff" stroke="#63b8ff" points="1198.14,-81.4 1208.72,-80.93 1200.16,-74.7 1198.14,-81.4"/>
</a>
</g>
</g>
<!-- Node17&#45;&gt;Node18 -->
<g id="edge29_Node000017_Node000018" class="edge">
<title>Node17&#45;&gt;Node18</title>
<g id="a_edge29_Node000017_Node000018"><a xlink:title=" ">
<path fill="none" stroke="#63b8ff" d="M2044.86,-291.21C2030.37,-293.54 2015.38,-295.95 2001.07,-298.25"/>
<polygon fill="#63b8ff" stroke="#63b8ff" points="2045,-294.73 2054.31,-289.69 2043.89,-287.82 2045,-294.73"/>
</a>
</g>
</g>
<!-- Node19&#45;&gt;Node4 -->
<g id="edge32_Node000019_Node000004" class="edge">
<title>Node19&#45;&gt;Node4</title>
<g id="a_edge32_Node000019_Node000004"><a xlink:title=" ">
<path fill="none" stroke="#63b8ff" d="M2062.56,-197.39C2035.54,-205.42 2004.66,-214.6 1978.87,-222.26"/>
<polygon fill="#63b8ff" stroke="#63b8ff" points="2063.44,-200.78 2072.03,-194.58 2061.44,-194.07 2063.44,-200.78"/>
</a>
</g>
</g>
<!-- Node20 -->
<g id="Node000020" class="node">
<title>Node20</title>
<g id="a_Node000020"><a xlink:href="classediteurpanovisu_1_1EditeurPanovisu.html#a53cccf6a6b2693c872947460b66ae8ee" target="_top" xlink:title=" ">
<polygon fill="white" stroke="#666666" points="1348.5,-163.72 1173.5,-163.72 1173.5,-131.72 1348.5,-131.72 1348.5,-163.72"/>
<text xml:space="preserve" text-anchor="start" x="1181.5" y="-150.22" font-family="Helvetica,sans-Serif" font-size="10.00">editeurpanovisu.EditeurPanovisu.tsk</text>
<text xml:space="preserve" text-anchor="middle" x="1261" y="-138.22" font-family="Helvetica,sans-Serif" font-size="10.00">ChargeListeFichiers</text>
</a>
</g>
</g>
<!-- Node19&#45;&gt;Node20 -->
<g id="edge33_Node000019_Node000020" class="edge">
<title>Node19&#45;&gt;Node20</title>
<g id="a_edge33_Node000019_Node000020"><a xlink:title=" ">
<path fill="none" stroke="#63b8ff" d="M2047.13,-174.9C1883.45,-169.23 1516.48,-156.53 1348.69,-150.72"/>
<polygon fill="#63b8ff" stroke="#63b8ff" points="2046.93,-178.39 2057.04,-175.24 2047.17,-171.4 2046.93,-178.39"/>
</a>
</g>
</g>
<!-- Node20&#45;&gt;Node13 -->
<g id="edge36_Node000020_Node000013" class="edge">
<title>Node20&#45;&gt;Node13</title>
<g id="a_edge36_Node000020_Node000013"><a xlink:title=" ">
<path fill="none" stroke="#63b8ff" d="M1161.88,-141.09C1152.2,-140.44 1142.38,-139.78 1132.73,-139.13"/>
<polygon fill="#63b8ff" stroke="#63b8ff" points="1161.44,-144.57 1171.66,-141.76 1161.91,-137.59 1161.44,-144.57"/>
</a>
</g>
</g>
<!-- Node21 -->
<g id="Node000021" class="node">
<title>Node21</title>
<g id="a_Node000021"><a xlink:href="classediteurpanovisu_1_1EditeurPanovisu.html#a924d3ccff3e4f402d2309cd2eade3237" target="_top" xlink:title=" ">
<polygon fill="white" stroke="#666666" points="905.5,-110.72 683.25,-110.72 683.25,-78.72 905.5,-78.72 905.5,-110.72"/>
<text xml:space="preserve" text-anchor="start" x="691.25" y="-97.22" font-family="Helvetica,sans-Serif" font-size="10.00">editeurpanovisu.EditeurPanovisu.panoramiques</text>
<text xml:space="preserve" text-anchor="middle" x="794.38" y="-85.22" font-family="Helvetica,sans-Serif" font-size="10.00">Ajouter</text>
</a>
</g>
</g>
<!-- Node20&#45;&gt;Node21 -->
<g id="edge34_Node000020_Node000021" class="edge">
<title>Node20&#45;&gt;Node21</title>
<g id="a_edge34_Node000020_Node000021"><a xlink:title=" ">
<path fill="none" stroke="#63b8ff" d="M1184.72,-128.05C1179.12,-126.33 1173.58,-124.55 1168.25,-122.72 1151.85,-117.1 1149.18,-111.45 1132.25,-107.72 1057.94,-91.36 972.23,-88.27 905.86,-89.18"/>
<polygon fill="#63b8ff" stroke="#63b8ff" points="1183.48,-131.34 1194.06,-130.85 1185.48,-124.63 1183.48,-131.34"/>
</a>
</g>
</g>
<!-- Node21&#45;&gt;Node6 -->
<g id="edge35_Node000021_Node000006" class="edge">
<title>Node21&#45;&gt;Node6</title>
<g id="a_edge35_Node000021_Node000006"><a xlink:title=" ">
<path fill="none" stroke="#63b8ff" d="M671.56,-86.44C605.25,-86.55 523.36,-94.41 456.5,-124.72 395.03,-152.59 344.08,-219.83 326.21,-245.51"/>
<polygon fill="#63b8ff" stroke="#63b8ff" points="671.37,-89.94 681.39,-86.49 671.41,-82.94 671.37,-89.94"/>
</a>
</g>
</g>
<!-- Node23 -->
<g id="Node000023" class="node">
<title>Node23</title>
<g id="a_Node000023"><a xlink:href="classediteurpanovisu_1_1EditeurPanovisu.html#aaee69ab54364f89b58458c744a4195c0" target="_top" xlink:title=" ">
<polygon fill="white" stroke="#666666" points="1577.5,-131.72 1389.75,-131.72 1389.75,-99.72 1577.5,-99.72 1577.5,-131.72"/>
<text xml:space="preserve" text-anchor="start" x="1397.75" y="-118.22" font-family="Helvetica,sans-Serif" font-size="10.00">editeurpanovisu.EditeurPanovisu.sauve</text>
<text xml:space="preserve" text-anchor="middle" x="1483.62" y="-106.22" font-family="Helvetica,sans-Serif" font-size="10.00">FichierProjet</text>
</a>
</g>
</g>
<!-- Node22&#45;&gt;Node23 -->
<g id="edge39_Node000022_Node000023" class="edge">
<title>Node22&#45;&gt;Node23</title>
<g id="a_edge39_Node000022_Node000023"><a xlink:title=" ">
<path fill="none" stroke="#63b8ff" d="M2237.7,-115.72C2074.54,-115.72 1740.4,-115.72 1577.73,-115.72"/>
<polygon fill="#63b8ff" stroke="#63b8ff" points="2237.63,-119.22 2247.63,-115.72 2237.63,-112.22 2237.63,-119.22"/>
</a>
</g>
</g>
<!-- Node23&#45;&gt;Node10 -->
<g id="edge40_Node000023_Node000010" class="edge">
<title>Node23&#45;&gt;Node10</title>
<g id="a_edge40_Node000023_Node000010"><a xlink:title=" ">
<path fill="none" stroke="#63b8ff" d="M1447.76,-138.16C1403.12,-166.89 1326.84,-215.99 1287.35,-241.4"/>
<polygon fill="#63b8ff" stroke="#63b8ff" points="1449.53,-141.18 1456.04,-132.83 1445.74,-135.3 1449.53,-141.18"/>
</a>
</g>
</g>
<!-- Node23&#45;&gt;Node16 -->
<g id="edge41_Node000023_Node000016" class="edge">
<title>Node23&#45;&gt;Node16</title>
<g id="a_edge41_Node000023_Node000016"><a xlink:title=" ">
<path fill="none" stroke="#63b8ff" d="M1378.13,-107.2C1370.14,-106.54 1362.11,-105.89 1354.21,-105.24"/>
<polygon fill="#63b8ff" stroke="#63b8ff" points="1377.62,-110.67 1387.87,-107.99 1378.19,-103.69 1377.62,-110.67"/>
</a>
</g>
</g>
</g>
</svg>

<g id="navigator" transform="translate(0 0)" fill="#404254">
  <rect fill="#f2f5e9" fill-opacity="0.5" stroke="#606060" stroke-width=".5" x="0" y="0" width="60" height="60"/>
  <use id="zoomplus" xlink:href="#zoomPlus" x="17" y="9" onmousedown="handleZoom(evt,'in')"/>
  <use id="zoomminus" xlink:href="#zoomMin" x="42" y="9" onmousedown="handleZoom(evt,'out')"/>
  <use id="reset" xlink:href="#resetDef" x="30" y="36" onmousedown="handleReset()"/>
   <use id="arrowup" xlink:href="#arrowUp" x="0" y="0" onmousedown="handlePan(0,-1)"/>
  <use id="arrowright" xlink:href="#arrowRight" x="0" y="0" onmousedown="handlePan(1,0)"/>
  <use id="arrowdown" xlink:href="#arrowDown" x="0" y="0" onmousedown="handlePan(0,1)"/>
  <use id="arrowleft" xlink:href="#arrowLeft" x="0" y="0" onmousedown="handlePan(-1,0)"/>
</g>
<svg viewBox="0 0 15 15" width="100%" height="30px" preserveAspectRatio="xMaxYMin meet">
 <g id="arrow_out" transform="scale(0.3 0.3)">
  <a xlink:href="classediteurpanovisu_1_1GestionnaireInterfaceController_ad7a31f393a284b67d32604898cd0732e_icgraph_org.svg" target="_base">
   <rect id="button" ry="5" rx="5" y="6" x="6" height="38" width="38"
        fill="#f2f5e9" fill-opacity="0.5" stroke="#606060" stroke-width="1.0"/>
   <path id="arrow"
     d="M 11.500037,31.436501 C 11.940474,20.09759 22.043105,11.32322 32.158766,21.979434 L 37.068811,17.246167 C 37.068811,17.246167 37.088388,32 37.088388,32 L 22.160133,31.978069 C 22.160133,31.978069 26.997745,27.140456 26.997745,27.140456 C 18.528582,18.264221 13.291696,25.230495 11.500037,31.436501 z"
     style="fill:#404040;"/>
  </a>
 </g>
</svg>

<style type='text/css'>
<![CDATA[
[data-mouse-over-selected='false'] { opacity: 0.7; }
[data-mouse-over-selected='true']  { opacity: 1.0; }
]]>
</style>
<script type="application/ecmascript"><![CDATA[
document.addEventListener('DOMContentLoaded', (event) => {
  highlightEdges();
  highlightAdjacentNodes();
});
]]></script>
</svg>
