<?xml version="1.0" encoding="UTF-8" standalone="no"?>
<!DOCTYPE svg PUBLIC "-//W3C//DTD SVG 1.1//EN"
 "http://www.w3.org/Graphics/SVG/1.1/DTD/svg11.dtd">
<!-- Generated by graphviz version 13.1.2 (20250808.2320)
 -->
<!-- Title: editeurpanovisu.PaneOutil.PaneOutil Pages: 1 -->
<svg width="533pt" height="128pt"
 viewBox="0.00 0.00 533.00 128.00" xmlns="http://www.w3.org/2000/svg" xmlns:xlink="http://www.w3.org/1999/xlink">
<g id="graph0" class="graph" transform="scale(1 1) rotate(0) translate(4 124)">
<title>editeurpanovisu.PaneOutil.PaneOutil</title>
<!-- Node1 -->
<g id="Node000001" class="node">
<title>Node1</title>
<g id="a_Node000001"><a xlink:title=" ">
<polygon fill="#999999" stroke="#666666" points="133,-70 0,-70 0,-38 133,-38 133,-70"/>
<text xml:space="preserve" text-anchor="start" x="8" y="-56.5" font-family="Helvetica,sans-Serif" font-size="10.00">editeurpanovisu.PaneOutil.</text>
<text xml:space="preserve" text-anchor="middle" x="66.5" y="-44.5" font-family="Helvetica,sans-Serif" font-size="10.00">PaneOutil</text>
</a>
</g>
</g>
<!-- Node2 -->
<g id="Node000002" class="node">
<title>Node2</title>
<g id="a_Node000002"><a xlink:href="classediteurpanovisu_1_1PaneOutil.html#a525d3ee0577d9dce98c7070c8c6fcd2b" target="_top" xlink:title=" ">
<polygon fill="white" stroke="#666666" points="330.5,-64 169,-64 169,-44 330.5,-44 330.5,-64"/>
<text xml:space="preserve" text-anchor="middle" x="249.75" y="-50.5" font-family="Helvetica,sans-Serif" font-size="10.00">editeurpanovisu.PaneOutil.affiche</text>
</a>
</g>
</g>
<!-- Node1&#45;&gt;Node2 -->
<g id="edge1_Node000001_Node000002" class="edge">
<title>Node1&#45;&gt;Node2</title>
<g id="a_edge1_Node000001_Node000002"><a xlink:title=" ">
<path fill="none" stroke="#63b8ff" d="M133.45,-54C141.22,-54 149.26,-54 157.3,-54"/>
<polygon fill="#63b8ff" stroke="#63b8ff" points="157.14,-57.5 167.14,-54 157.14,-50.5 157.14,-57.5"/>
</a>
</g>
</g>
<!-- Node3 -->
<g id="Node000003" class="node">
<title>Node3</title>
<g id="a_Node000003"><a xlink:href="classediteurpanovisu_1_1PaneOutil.html#ab1329e6891c20bdba55c279b44f72ff7" target="_top" xlink:title=" ">
<polygon fill="white" stroke="#666666" points="525,-120 366.5,-120 366.5,-88 525,-88 525,-120"/>
<text xml:space="preserve" text-anchor="start" x="374.5" y="-106.5" font-family="Helvetica,sans-Serif" font-size="10.00">editeurpanovisu.PaneOutil.deplie</text>
<text xml:space="preserve" text-anchor="middle" x="445.75" y="-94.5" font-family="Helvetica,sans-Serif" font-size="10.00">Replie</text>
</a>
</g>
</g>
<!-- Node2&#45;&gt;Node3 -->
<g id="edge2_Node000002_Node000003" class="edge">
<title>Node2&#45;&gt;Node3</title>
<g id="a_edge2_Node000002_Node000003"><a xlink:title=" ">
<path fill="none" stroke="#63b8ff" d="M291.42,-64.48C314.17,-70.35 343.25,-77.84 369.96,-84.72"/>
<polygon fill="#63b8ff" stroke="#63b8ff" points="368.82,-88.04 379.38,-87.15 370.57,-81.27 368.82,-88.04"/>
</a>
</g>
</g>
<!-- Node4 -->
<g id="Node000004" class="node">
<title>Node4</title>
<g id="a_Node000004"><a xlink:href="classediteurpanovisu_1_1PaneOutil.html#ae31c93e705e43ba0cca41edcff34e335" target="_top" xlink:title=" ">
<polygon fill="white" stroke="#666666" points="518.62,-70 372.88,-70 372.88,-38 518.62,-38 518.62,-70"/>
<text xml:space="preserve" text-anchor="start" x="380.88" y="-56.5" font-family="Helvetica,sans-Serif" font-size="10.00">editeurpanovisu.PaneOutil.isb</text>
<text xml:space="preserve" text-anchor="middle" x="445.75" y="-44.5" font-family="Helvetica,sans-Serif" font-size="10.00">Invariant</text>
</a>
</g>
</g>
<!-- Node2&#45;&gt;Node4 -->
<g id="edge3_Node000002_Node000004" class="edge">
<title>Node2&#45;&gt;Node4</title>
<g id="a_edge3_Node000002_Node000004"><a xlink:title=" ">
<path fill="none" stroke="#63b8ff" d="M330.78,-54C340.86,-54 351.2,-54 361.34,-54"/>
<polygon fill="#63b8ff" stroke="#63b8ff" points="361.16,-57.5 371.16,-54 361.16,-50.5 361.16,-57.5"/>
</a>
</g>
</g>
<!-- Node5 -->
<g id="Node000005" class="node">
<title>Node5</title>
<g id="a_Node000005"><a xlink:href="leaflet_8js.html#abf5830200d869e463ea38504a19985f6" target="_top" xlink:title=" ">
<polygon fill="white" stroke="#666666" points="460.5,-20 431,-20 431,0 460.5,0 460.5,-20"/>
<text xml:space="preserve" text-anchor="middle" x="445.75" y="-6.5" font-family="Helvetica,sans-Serif" font-size="10.00">me</text>
</a>
</g>
</g>
<!-- Node2&#45;&gt;Node5 -->
<g id="edge4_Node000002_Node000005" class="edge">
<title>Node2&#45;&gt;Node5</title>
<g id="a_edge4_Node000002_Node000005"><a xlink:title=" ">
<path fill="none" stroke="#63b8ff" d="M296.73,-43.57C335.11,-34.87 388.38,-22.78 419.45,-15.74"/>
<polygon fill="#63b8ff" stroke="#63b8ff" points="420.1,-19.18 429.08,-13.55 418.56,-12.35 420.1,-19.18"/>
</a>
</g>
</g>
</g>
</svg>
