<?xml version="1.0" encoding="UTF-8" standalone="no"?>
<!DOCTYPE svg PUBLIC "-//W3C//DTD SVG 1.1//EN"
 "http://www.w3.org/Graphics/SVG/1.1/DTD/svg11.dtd">
<!-- Generated by graphviz version 13.1.2 (20250808.2320)
 -->
<!-- Title: editeurpanovisu.EditeurPanovisu.getPlans Pages: 1 -->
<!--zoomable 500 -->

<svg id="main" version="1.1" xmlns="http://www.w3.org/2000/svg" xmlns:xlink="http://www.w3.org/1999/xlink" xml:space="preserve" onload="init(evt)">

<style type="text/css"><![CDATA[
.node, .edge {opacity: 0.7;}
.node.selected, .edge.selected {opacity: 1;}
.edge:hover path { stroke: red; }
.edge:hover polygon { stroke: red; fill: red; }
]]></style>

<defs>
  <circle id="rim" cx="0" cy="0" r="7"/>
  <circle id="rim2" cx="0" cy="0" r="3.5"/>
  <g id="zoomPlus">
    <use xlink:href="#rim" fill="#404040"><set attributeName="fill" to="#808080" begin="zoomplus.mouseover" end="zoomplus.mouseout"/></use>
    <path d="M-4,0h8M0,-4v8" fill="none" stroke="white" stroke-width="1.5" pointer-events="none"/>
  </g>
  <g id="zoomMin">
    <use xlink:href="#rim" fill="#404040"><set attributeName="fill" to="#808080" begin="zoomminus.mouseover" end="zoomminus.mouseout"/></use>
    <path d="M-4,0h8" fill="none" stroke="white" stroke-width="1.5" pointer-events="none"/>
  </g>
  <g id="arrowUp" transform="translate(30 24)">
    <use xlink:href="#rim"/>
    <path pointer-events="none" fill="none" stroke="white" stroke-width="1.5" d="M0,-3.0v7 M-2.5,-0.5L0,-3.0L2.5,-0.5"/>
  </g>
  <g id="arrowRight" transform="rotate(90) translate(36 -43)">
    <use xlink:href="#rim"/>
    <path pointer-events="none" fill="none" stroke="white" stroke-width="1.5" d="M0,-3.0v7 M-2.5,-0.5L0,-3.0L2.5,-0.5"/>
  </g>
  <g id="arrowDown" transform="rotate(180) translate(-30 -48)">
    <use xlink:href="#rim"/>
    <path pointer-events="none" fill="none" stroke="white" stroke-width="1.5" d="M0,-3.0v7 M-2.5,-0.5L0,-3.0L2.5,-0.5"/>
  </g>
  <g id="arrowLeft" transform="rotate(270) translate(-36 17)">
    <use xlink:href="#rim"/>
    <path pointer-events="none" fill="none" stroke="white" stroke-width="1.5" d="M0,-3.0v7 M-2.5,-0.5L0,-3.0L2.5,-0.5"/>
  </g>
  <g id="resetDef">
    <use xlink:href="#rim2" fill="#404040"><set attributeName="fill" to="#808080" begin="reset.mouseover" end="reset.mouseout"/></use>
  </g>
</defs>
<script type="application/ecmascript">
var viewWidth = 2192;
var viewHeight = 500;
var sectionId = 'dynsection-104';
</script>
<script type="application/ecmascript" xlink:href="svg.min.js"/>
<svg id="graph" class="graph">
<g id="viewport">
<title>editeurpanovisu.EditeurPanovisu.getPlans</title>
<!-- Node1 -->
<g id="Node000001" class="node">
<title>Node1</title>
<g id="a_Node000001"><a xlink:title=" ">
<polygon fill="#999999" stroke="#666666" points="2184.25,-363 2009.25,-363 2009.25,-331 2184.25,-331 2184.25,-363"/>
<text xml:space="preserve" text-anchor="start" x="2017.25" y="-349.5" font-family="Helvetica,sans-Serif" font-size="10.00">editeurpanovisu.EditeurPanovisu.get</text>
<text xml:space="preserve" text-anchor="middle" x="2096.75" y="-337.5" font-family="Helvetica,sans-Serif" font-size="10.00">Plans</text>
</a>
</g>
</g>
<!-- Node2 -->
<g id="Node000002" class="node">
<title>Node2</title>
<g id="a_Node000002"><a xlink:href="classediteurpanovisu_1_1EditeurPanovisu.html#a94e36b9e9d09ab1a4c852b8a8cefa927" target="_top" xlink:title=" ">
<polygon fill="white" stroke="#666666" points="647.25,-306 456.5,-306 456.5,-274 647.25,-274 647.25,-306"/>
<text xml:space="preserve" text-anchor="start" x="464.5" y="-292.5" font-family="Helvetica,sans-Serif" font-size="10.00">editeurpanovisu.EditeurPanovisu.genere</text>
<text xml:space="preserve" text-anchor="middle" x="551.88" y="-280.5" font-family="Helvetica,sans-Serif" font-size="10.00">Visite</text>
</a>
</g>
</g>
<!-- Node1&#45;&gt;Node2 -->
<g id="edge1_Node000001_Node000002" class="edge">
<title>Node1&#45;&gt;Node2</title>
<g id="a_edge1_Node000001_Node000002"><a xlink:title=" ">
<path fill="none" stroke="#63b8ff" d="M2035.49,-366.85C1953.76,-391.97 1802.76,-432 1670.5,-432 1670.5,-432 1670.5,-432 999.12,-432 856.47,-432 815.83,-427.67 683.25,-375 640.31,-357.94 596.56,-325.75 572.25,-306.25"/>
<polygon fill="#63b8ff" stroke="#63b8ff" points="2036.36,-370.25 2044.87,-363.94 2034.28,-363.56 2036.36,-370.25"/>
</a>
</g>
</g>
<!-- Node5 -->
<g id="Node000005" class="node">
<title>Node5</title>
<g id="a_Node000005"><a xlink:href="classediteurpanovisu_1_1EditeurPanovisu.html#af504270c500842e35c1a37bf1e6d3e8d" target="_top" xlink:title=" ">
<polygon fill="white" stroke="#666666" points="1759.25,-492 1579.75,-492 1579.75,-460 1759.25,-460 1759.25,-492"/>
<text xml:space="preserve" text-anchor="start" x="1587.75" y="-478.5" font-family="Helvetica,sans-Serif" font-size="10.00">editeurpanovisu.EditeurPanovisu.plan</text>
<text xml:space="preserve" text-anchor="middle" x="1669.5" y="-466.5" font-family="Helvetica,sans-Serif" font-size="10.00">Ajouter</text>
</a>
</g>
</g>
<!-- Node1&#45;&gt;Node5 -->
<g id="edge4_Node000001_Node000005" class="edge">
<title>Node1&#45;&gt;Node5</title>
<g id="a_edge4_Node000001_Node000005"><a xlink:title=" ">
<path fill="none" stroke="#63b8ff" d="M2073.82,-371.58C2051.19,-395.13 2013.58,-429.46 1973.25,-446 1905.2,-473.91 1821.61,-480.33 1759.51,-480.39"/>
<polygon fill="#63b8ff" stroke="#63b8ff" points="2076.13,-374.23 2080.42,-364.54 2071.03,-369.44 2076.13,-374.23"/>
</a>
</g>
</g>
<!-- Node6 -->
<g id="Node000006" class="node">
<title>Node6</title>
<g id="a_Node000006"><a xlink:href="classediteurpanovisu_1_1EditeurPanovisu.html#a271a81346c81fd5a9879db58130cd0cb" target="_top" xlink:title=" ">
<polygon fill="white" stroke="#666666" points="1538.5,-32 1355.25,-32 1355.25,0 1538.5,0 1538.5,-32"/>
<text xml:space="preserve" text-anchor="start" x="1363.25" y="-18.5" font-family="Helvetica,sans-Serif" font-size="10.00">editeurpanovisu.EditeurPanovisu.retire</text>
<text xml:space="preserve" text-anchor="middle" x="1446.88" y="-6.5" font-family="Helvetica,sans-Serif" font-size="10.00">PanoCourant</text>
</a>
</g>
</g>
<!-- Node1&#45;&gt;Node6 -->
<g id="edge6_Node000001_Node000006" class="edge">
<title>Node1&#45;&gt;Node6</title>
<g id="a_edge6_Node000001_Node000006"><a xlink:title=" ">
<path fill="none" stroke="#63b8ff" d="M2069.1,-323.22C2044.64,-301.68 2007.18,-269.39 1973.25,-243 1882.42,-172.37 1866.88,-140.87 1762.25,-93 1690.71,-60.27 1603.4,-40.31 1538.96,-28.94"/>
<polygon fill="#63b8ff" stroke="#63b8ff" points="2066.54,-325.63 2076.35,-329.63 2071.18,-320.39 2066.54,-325.63"/>
</a>
</g>
</g>
<!-- Node7 -->
<g id="Node000007" class="node">
<title>Node7</title>
<g id="a_Node000007"><a xlink:href="classediteurpanovisu_1_1EditeurPanovisu.html#a87b29dc258cfc67370b1f27809e91b8e" target="_top" xlink:title=" ">
<polygon fill="white" stroke="#666666" points="1973.25,-284 1798.25,-284 1798.25,-252 1973.25,-252 1973.25,-284"/>
<text xml:space="preserve" text-anchor="start" x="1806.25" y="-270.5" font-family="Helvetica,sans-Serif" font-size="10.00">editeurpanovisu.EditeurPanovisu.tsk</text>
<text xml:space="preserve" text-anchor="middle" x="1885.75" y="-258.5" font-family="Helvetica,sans-Serif" font-size="10.00">AnalyseFichierPVU</text>
</a>
</g>
</g>
<!-- Node1&#45;&gt;Node7 -->
<g id="edge8_Node000001_Node000007" class="edge">
<title>Node1&#45;&gt;Node7</title>
<g id="a_edge8_Node000001_Node000007"><a xlink:title=" ">
<path fill="none" stroke="#63b8ff" d="M2041.77,-326.6C2007.1,-313.49 1962.66,-296.69 1930.25,-284.44"/>
<polygon fill="#63b8ff" stroke="#63b8ff" points="2040.18,-329.74 2050.78,-330 2042.66,-323.19 2040.18,-329.74"/>
</a>
</g>
</g>
<!-- Node3 -->
<g id="Node000003" class="node">
<title>Node3</title>
<g id="a_Node000003"><a xlink:href="classediteurpanovisu_1_1EditeurPanovisu.html#ac912b80c1f2ac97def60ff005c5c480b" target="_top" xlink:title=" ">
<polygon fill="white" stroke="#666666" points="420.5,-240 216.25,-240 216.25,-220 420.5,-220 420.5,-240"/>
<text xml:space="preserve" text-anchor="middle" x="318.38" y="-226.5" font-family="Helvetica,sans-Serif" font-size="10.00">editeurpanovisu.EditeurPanovisu.creeMenu</text>
</a>
</g>
</g>
<!-- Node2&#45;&gt;Node3 -->
<g id="edge2_Node000002_Node000003" class="edge">
<title>Node2&#45;&gt;Node3</title>
<g id="a_edge2_Node000002_Node000003"><a xlink:title=" ">
<path fill="none" stroke="#63b8ff" d="M476.6,-270.75C437.88,-260.71 392.02,-248.83 359.86,-240.49"/>
<polygon fill="#63b8ff" stroke="#63b8ff" points="475.29,-274.02 485.85,-273.15 477.04,-267.25 475.29,-274.02"/>
</a>
</g>
</g>
<!-- Node4 -->
<g id="Node000004" class="node">
<title>Node4</title>
<g id="a_Node000004"><a xlink:href="classediteurpanovisu_1_1EditeurPanovisu.html#a86c393eee88f54c694db994ddd85b90d" target="_top" xlink:title=" ">
<polygon fill="white" stroke="#666666" points="180.25,-136 0,-136 0,-104 180.25,-104 180.25,-136"/>
<text xml:space="preserve" text-anchor="start" x="8" y="-122.5" font-family="Helvetica,sans-Serif" font-size="10.00">editeurpanovisu.EditeurPanovisu.cree</text>
<text xml:space="preserve" text-anchor="middle" x="90.12" y="-110.5" font-family="Helvetica,sans-Serif" font-size="10.00">Environnement</text>
</a>
</g>
</g>
<!-- Node3&#45;&gt;Node4 -->
<g id="edge3_Node000003_Node000004" class="edge">
<title>Node3&#45;&gt;Node4</title>
<g id="a_edge3_Node000003_Node000004"><a xlink:title=" ">
<path fill="none" stroke="#63b8ff" d="M285.8,-214.65C243.41,-194.04 168.4,-157.57 124.91,-136.43"/>
<polygon fill="#63b8ff" stroke="#63b8ff" points="284.2,-217.76 294.73,-218.99 287.27,-211.47 284.2,-217.76"/>
</a>
</g>
</g>
<!-- Node5&#45;&gt;Node3 -->
<g id="edge5_Node000005_Node000003" class="edge">
<title>Node5&#45;&gt;Node3</title>
<g id="a_edge5_Node000005_Node000003"><a xlink:title=" ">
<path fill="none" stroke="#63b8ff" d="M1568.08,-474.93C1478.25,-474.07 1342.96,-473 1225.25,-473 1225.25,-473 1225.25,-473 775,-473 628.02,-473 581.19,-461.81 456.5,-384 393.63,-344.77 342.78,-268.29 325.61,-240.45"/>
<polygon fill="#63b8ff" stroke="#63b8ff" points="1567.81,-478.43 1577.84,-475.03 1567.88,-471.43 1567.81,-478.43"/>
</a>
</g>
</g>
<!-- Node6&#45;&gt;Node4 -->
<g id="edge7_Node000006_Node000004" class="edge">
<title>Node6&#45;&gt;Node4</title>
<g id="a_edge7_Node000006_Node000004"><a xlink:title=" ">
<path fill="none" stroke="#63b8ff" d="M1343.85,-13.84C1253.71,-12.12 1118.68,-10 1001.12,-10 1001.12,-10 1001.12,-10 550.88,-10 392.07,-10 210.67,-72.85 131.56,-103.53"/>
<polygon fill="#63b8ff" stroke="#63b8ff" points="1343.58,-17.34 1353.65,-14.03 1343.72,-10.34 1343.58,-17.34"/>
</a>
</g>
</g>
<!-- Node8 -->
<g id="Node000008" class="node">
<title>Node8</title>
<g id="a_Node000008"><a xlink:href="classediteurpanovisu_1_1EditeurPanovisu.html#ab4beb1597b660a4a253befc6e76f1c54" target="_top" xlink:title=" ">
<polygon fill="white" stroke="#666666" points="1092.88,-70 907.38,-70 907.38,-38 1092.88,-38 1092.88,-70"/>
<text xml:space="preserve" text-anchor="start" x="915.38" y="-56.5" font-family="Helvetica,sans-Serif" font-size="10.00">editeurpanovisu.EditeurPanovisu.projet</text>
<text xml:space="preserve" text-anchor="middle" x="1000.12" y="-44.5" font-family="Helvetica,sans-Serif" font-size="10.00">Charge</text>
</a>
</g>
</g>
<!-- Node7&#45;&gt;Node8 -->
<g id="edge9_Node000007_Node000008" class="edge">
<title>Node7&#45;&gt;Node8</title>
<g id="a_edge9_Node000007_Node000008"><a xlink:title=" ">
<path fill="none" stroke="#63b8ff" d="M1813.89,-248.58C1706.69,-219.43 1496.72,-163.3 1317,-121 1238.15,-102.44 1147.67,-83.49 1083.82,-70.5"/>
<polygon fill="#63b8ff" stroke="#63b8ff" points="1812.85,-251.92 1823.42,-251.17 1814.69,-245.17 1812.85,-251.92"/>
</a>
</g>
</g>
<!-- Node9 -->
<g id="Node000009" class="node">
<title>Node9</title>
<g id="a_Node000009"><a xlink:href="classediteurpanovisu_1_1EditeurPanovisu.html#a6d19b4d885ee6fcec827b91956295732" target="_top" xlink:title=" ">
<polygon fill="white" stroke="#666666" points="1762.25,-284 1576.75,-284 1576.75,-252 1762.25,-252 1762.25,-284"/>
<text xml:space="preserve" text-anchor="start" x="1584.75" y="-270.5" font-family="Helvetica,sans-Serif" font-size="10.00">editeurpanovisu.EditeurPanovisu.projet</text>
<text xml:space="preserve" text-anchor="middle" x="1669.5" y="-258.5" font-family="Helvetica,sans-Serif" font-size="10.00">ChargeNom</text>
</a>
</g>
</g>
<!-- Node7&#45;&gt;Node9 -->
<g id="edge11_Node000007_Node000009" class="edge">
<title>Node7&#45;&gt;Node9</title>
<g id="a_edge11_Node000007_Node000009"><a xlink:title=" ">
<path fill="none" stroke="#63b8ff" d="M1786.41,-268C1778.51,-268 1770.55,-268 1762.7,-268"/>
<polygon fill="#63b8ff" stroke="#63b8ff" points="1786.4,-271.5 1796.4,-268 1786.4,-264.5 1786.4,-271.5"/>
</a>
</g>
</g>
<!-- Node8&#45;&gt;Node3 -->
<g id="edge10_Node000008_Node000003" class="edge">
<title>Node8&#45;&gt;Node3</title>
<g id="a_edge10_Node000008_Node000003"><a xlink:title=" ">
<path fill="none" stroke="#63b8ff" d="M895.83,-37.77C782.42,-24.8 597.68,-18.23 456.5,-84 390.94,-114.54 341.39,-191.84 325.11,-219.75"/>
<polygon fill="#63b8ff" stroke="#63b8ff" points="895.42,-41.25 905.76,-38.95 896.24,-34.3 895.42,-41.25"/>
</a>
</g>
</g>
<!-- Node9&#45;&gt;Node3 -->
<g id="edge30_Node000009_Node000003" class="edge">
<title>Node9&#45;&gt;Node3</title>
<g id="a_edge30_Node000009_Node000003"><a xlink:title=" ">
<path fill="none" stroke="#63b8ff" d="M1624.51,-289.31C1546.18,-325.25 1376.54,-394 1225.25,-394 1225.25,-394 1225.25,-394 775,-394 631.85,-394 586.87,-405.14 456.5,-346 399.42,-320.11 347.44,-263.36 327.74,-240.18"/>
<polygon fill="#63b8ff" stroke="#63b8ff" points="1625.97,-292.49 1633.57,-285.11 1623.03,-286.14 1625.97,-292.49"/>
</a>
</g>
</g>
<!-- Node10 -->
<g id="Node000010" class="node">
<title>Node10</title>
<g id="a_Node000010"><a xlink:href="classediteurpanovisu_1_1EditeurPanovisu.html#af0d1c32bb78acbff561c822a0d15f760" target="_top" xlink:title=" ">
<polygon fill="white" stroke="#666666" points="1540.75,-284 1353,-284 1353,-252 1540.75,-252 1540.75,-284"/>
<text xml:space="preserve" text-anchor="start" x="1361" y="-270.5" font-family="Helvetica,sans-Serif" font-size="10.00">editeurpanovisu.EditeurPanovisu.ajoute</text>
<text xml:space="preserve" text-anchor="middle" x="1446.88" y="-258.5" font-family="Helvetica,sans-Serif" font-size="10.00">FichierHisto</text>
</a>
</g>
</g>
<!-- Node9&#45;&gt;Node10 -->
<g id="edge12_Node000009_Node000010" class="edge">
<title>Node9&#45;&gt;Node10</title>
<g id="a_edge12_Node000009_Node000010"><a xlink:title=" ">
<path fill="none" stroke="#63b8ff" d="M1565.22,-261.26C1557.17,-261.23 1549.08,-261.25 1541.11,-261.32"/>
<polygon fill="#63b8ff" stroke="#63b8ff" points="1565,-264.76 1575.02,-261.32 1565.04,-257.76 1565,-264.76"/>
</a>
</g>
</g>
<!-- Node10&#45;&gt;Node8 -->
<g id="edge13_Node000010_Node000008" class="edge">
<title>Node10&#45;&gt;Node8</title>
<g id="a_edge13_Node000010_Node000008"><a xlink:title=" ">
<path fill="none" stroke="#63b8ff" d="M1407.15,-246.04C1381.81,-231.98 1347.81,-213.68 1317,-199 1236.27,-160.52 1205.39,-171.39 1131.5,-121 1112.55,-108.07 1115.02,-96.06 1095.5,-84 1086.87,-78.67 1077.21,-74.2 1067.44,-70.48"/>
<polygon fill="#63b8ff" stroke="#63b8ff" points="1405.34,-249.04 1415.78,-250.86 1408.75,-242.93 1405.34,-249.04"/>
</a>
</g>
</g>
<!-- Node10&#45;&gt;Node9 -->
<g id="edge14_Node000010_Node000009" class="edge">
<title>Node10&#45;&gt;Node9</title>
<g id="a_edge14_Node000010_Node000009"><a xlink:title=" ">
<path fill="none" stroke="#63b8ff" d="M1552.44,-274.74C1560.49,-274.76 1568.58,-274.74 1576.53,-274.67"/>
<polygon fill="#63b8ff" stroke="#63b8ff" points="1552.65,-271.24 1542.63,-274.69 1552.61,-278.24 1552.65,-271.24"/>
</a>
</g>
</g>
<!-- Node11 -->
<g id="Node000011" class="node">
<title>Node11</title>
<g id="a_Node000011"><a xlink:href="classediteurpanovisu_1_1EditeurPanovisu.html#a9f3ea25b35d4884524508dab3dc4fd6a" target="_top" xlink:title=" ">
<polygon fill="white" stroke="#666666" points="1317,-240 1131.5,-240 1131.5,-208 1317,-208 1317,-240"/>
<text xml:space="preserve" text-anchor="start" x="1139.5" y="-226.5" font-family="Helvetica,sans-Serif" font-size="10.00">editeurpanovisu.EditeurPanovisu.projet</text>
<text xml:space="preserve" text-anchor="middle" x="1224.25" y="-214.5" font-family="Helvetica,sans-Serif" font-size="10.00">Sauve</text>
</a>
</g>
</g>
<!-- Node10&#45;&gt;Node11 -->
<g id="edge15_Node000010_Node000011" class="edge">
<title>Node10&#45;&gt;Node11</title>
<g id="a_edge15_Node000010_Node000011"><a xlink:title=" ">
<path fill="none" stroke="#63b8ff" d="M1352.26,-249.33C1337.54,-246.4 1322.43,-243.38 1307.98,-240.5"/>
<polygon fill="#63b8ff" stroke="#63b8ff" points="1351.43,-252.73 1361.92,-251.26 1352.8,-245.87 1351.43,-252.73"/>
</a>
</g>
</g>
<!-- Node16 -->
<g id="Node000016" class="node">
<title>Node16</title>
<g id="a_Node000016"><a xlink:href="classediteurpanovisu_1_1EditeurPanovisu.html#a7b2e25dc717eb52b62e23d54ec4c124a" target="_top" xlink:title=" ">
<polygon fill="white" stroke="#666666" points="868.75,-366 683.25,-366 683.25,-334 868.75,-334 868.75,-366"/>
<text xml:space="preserve" text-anchor="start" x="691.25" y="-352.5" font-family="Helvetica,sans-Serif" font-size="10.00">editeurpanovisu.EditeurPanovisu.projet</text>
<text xml:space="preserve" text-anchor="middle" x="776" y="-340.5" font-family="Helvetica,sans-Serif" font-size="10.00">SauveSous</text>
</a>
</g>
</g>
<!-- Node10&#45;&gt;Node16 -->
<g id="edge28_Node000010_Node000016" class="edge">
<title>Node10&#45;&gt;Node16</title>
<g id="a_edge28_Node000010_Node000016"><a xlink:title=" ">
<path fill="none" stroke="#63b8ff" d="M1341.42,-280.81C1211.78,-296.7 992.74,-323.55 869.11,-338.71"/>
<polygon fill="#63b8ff" stroke="#63b8ff" points="1341.52,-284.32 1351.02,-279.63 1340.67,-277.37 1341.52,-284.32"/>
</a>
</g>
</g>
<!-- Node11&#45;&gt;Node2 -->
<g id="edge17_Node000011_Node000002" class="edge">
<title>Node11&#45;&gt;Node2</title>
<g id="a_edge17_Node000011_Node000002"><a xlink:title=" ">
<path fill="none" stroke="#63b8ff" d="M1181.1,-245.37C1156.74,-256.64 1125.13,-269.45 1095.5,-276 941.37,-310.06 756.64,-305.55 647.33,-298.35"/>
<polygon fill="#63b8ff" stroke="#63b8ff" points="1182.5,-248.58 1190.04,-241.15 1179.5,-242.26 1182.5,-248.58"/>
</a>
</g>
</g>
<!-- Node11&#45;&gt;Node3 -->
<g id="edge16_Node000011_Node000003" class="edge">
<title>Node11&#45;&gt;Node3</title>
<g id="a_edge16_Node000011_Node000003"><a xlink:title=" ">
<path fill="none" stroke="#63b8ff" d="M1172.63,-202.31C1158.33,-194.69 1143.43,-185.18 1131.5,-174 1109.64,-153.51 1121.74,-131.46 1095.5,-117 1004.7,-66.95 633.27,-109.78 456.5,-161 409.66,-174.57 359.71,-204 335.04,-219.68"/>
<polygon fill="#63b8ff" stroke="#63b8ff" points="1171.04,-205.43 1181.54,-206.84 1174.21,-199.19 1171.04,-205.43"/>
</a>
</g>
</g>
<!-- Node11&#45;&gt;Node8 -->
<g id="edge18_Node000011_Node000008" class="edge">
<title>Node11&#45;&gt;Node8</title>
<g id="a_edge18_Node000011_Node000008"><a xlink:title=" ">
<path fill="none" stroke="#63b8ff" d="M1158.92,-202.58C1148.81,-197.07 1139.18,-190.29 1131.5,-182 1099.98,-147.95 1129.03,-116.08 1095.5,-84 1089.79,-78.53 1083.08,-74.06 1075.92,-70.41"/>
<polygon fill="#63b8ff" stroke="#63b8ff" points="1157.28,-205.67 1167.79,-206.99 1160.4,-199.4 1157.28,-205.67"/>
</a>
</g>
</g>
<!-- Node11&#45;&gt;Node9 -->
<g id="edge19_Node000011_Node000009" class="edge">
<title>Node11&#45;&gt;Node9</title>
<g id="a_edge19_Node000011_Node000009"><a xlink:title=" ">
<path fill="none" stroke="#63b8ff" d="M1328.67,-226.76C1390.42,-229.27 1470.29,-234.02 1540.75,-243 1557.79,-245.17 1575.97,-248.26 1593.11,-251.52"/>
<polygon fill="#63b8ff" stroke="#63b8ff" points="1329,-223.27 1318.87,-226.37 1328.73,-230.26 1329,-223.27"/>
</a>
</g>
</g>
<!-- Node12 -->
<g id="Node000012" class="node">
<title>Node12</title>
<g id="a_Node000012"><a xlink:href="classediteurpanovisu_1_1EditeurPanovisu.html#a9b46b222714af12c06ec33d410400773" target="_top" xlink:title=" ">
<polygon fill="white" stroke="#666666" points="647.25,-202 456.5,-202 456.5,-170 647.25,-170 647.25,-202"/>
<text xml:space="preserve" text-anchor="start" x="464.5" y="-188.5" font-family="Helvetica,sans-Serif" font-size="10.00">editeurpanovisu.EditeurPanovisu.projets</text>
<text xml:space="preserve" text-anchor="middle" x="551.88" y="-176.5" font-family="Helvetica,sans-Serif" font-size="10.00">Fermer</text>
</a>
</g>
</g>
<!-- Node11&#45;&gt;Node12 -->
<g id="edge20_Node000011_Node000012" class="edge">
<title>Node11&#45;&gt;Node12</title>
<g id="a_edge20_Node000011_Node000012"><a xlink:title=" ">
<path fill="none" stroke="#63b8ff" d="M1120,-207.63C1111.73,-206.63 1103.48,-205.73 1095.5,-205 938.97,-190.67 756.13,-186.94 647.67,-186.09"/>
<polygon fill="#63b8ff" stroke="#63b8ff" points="1119.43,-211.09 1129.79,-208.87 1120.31,-204.14 1119.43,-211.09"/>
</a>
</g>
</g>
<!-- Node13 -->
<g id="Node000013" class="node">
<title>Node13</title>
<g id="a_Node000013"><a xlink:href="classediteurpanovisu_1_1EditeurPanovisu.html#ac9d449399ccd38843fa12e716f0c9611" target="_top" xlink:title=" ">
<polygon fill="white" stroke="#666666" points="1095.5,-246 904.75,-246 904.75,-214 1095.5,-214 1095.5,-246"/>
<text xml:space="preserve" text-anchor="start" x="912.75" y="-232.5" font-family="Helvetica,sans-Serif" font-size="10.00">editeurpanovisu.EditeurPanovisu.projets</text>
<text xml:space="preserve" text-anchor="middle" x="1000.12" y="-220.5" font-family="Helvetica,sans-Serif" font-size="10.00">Nouveau</text>
</a>
</g>
</g>
<!-- Node11&#45;&gt;Node13 -->
<g id="edge22_Node000011_Node000013" class="edge">
<title>Node11&#45;&gt;Node13</title>
<g id="a_edge22_Node000011_Node000013"><a xlink:title=" ">
<path fill="none" stroke="#63b8ff" d="M1119.99,-226.79C1111.95,-227.01 1103.86,-227.23 1095.88,-227.44"/>
<polygon fill="#63b8ff" stroke="#63b8ff" points="1119.89,-230.29 1129.79,-226.52 1119.7,-223.3 1119.89,-230.29"/>
</a>
</g>
</g>
<!-- Node14 -->
<g id="Node000014" class="node">
<title>Node14</title>
<g id="a_Node000014"><a xlink:href="classediteurpanovisu_1_1EditeurPanovisu.html#a2b3125ffe2e6291efacf19df6cb30a8d" target="_top" xlink:title=" ">
<polygon fill="white" stroke="#666666" points="866.5,-278 685.5,-278 685.5,-258 866.5,-258 866.5,-278"/>
<text xml:space="preserve" text-anchor="middle" x="776" y="-264.5" font-family="Helvetica,sans-Serif" font-size="10.00">editeurpanovisu.EditeurPanovisu.start</text>
</a>
</g>
</g>
<!-- Node11&#45;&gt;Node14 -->
<g id="edge27_Node000011_Node000014" class="edge">
<title>Node11&#45;&gt;Node14</title>
<g id="a_edge27_Node000011_Node000014"><a xlink:title=" ">
<path fill="none" stroke="#63b8ff" d="M1154.85,-243.23C1135.78,-247.87 1114.96,-252.27 1095.5,-255 1018.77,-265.77 930.71,-268.65 866.66,-269.04"/>
<polygon fill="#63b8ff" stroke="#63b8ff" points="1155.52,-246.67 1164.38,-240.85 1153.83,-239.88 1155.52,-246.67"/>
</a>
</g>
</g>
<!-- Node15 -->
<g id="Node000015" class="node">
<title>Node15</title>
<g id="a_Node000015"><a xlink:href="classediteurpanovisu_1_1EditeurPanovisu.html#aef8c9b28c3e88d6e27e3f62b9a901134" target="_top" xlink:title=" ">
<polygon fill="white" stroke="#666666" points="1094,-158 906.25,-158 906.25,-126 1094,-126 1094,-158"/>
<text xml:space="preserve" text-anchor="start" x="914.25" y="-144.5" font-family="Helvetica,sans-Serif" font-size="10.00">editeurpanovisu.EditeurPanovisu.sauve</text>
<text xml:space="preserve" text-anchor="middle" x="1000.12" y="-132.5" font-family="Helvetica,sans-Serif" font-size="10.00">Fichiers</text>
</a>
</g>
</g>
<!-- Node11&#45;&gt;Node15 -->
<g id="edge26_Node000011_Node000015" class="edge">
<title>Node11&#45;&gt;Node15</title>
<g id="a_edge26_Node000011_Node000015"><a xlink:title=" ">
<path fill="none" stroke="#63b8ff" d="M1174.5,-203.11C1150.83,-193.23 1121.86,-181.54 1095.5,-172 1082.57,-167.32 1068.5,-162.64 1055.27,-158.41"/>
<polygon fill="#63b8ff" stroke="#63b8ff" points="1173.01,-206.27 1183.59,-206.92 1175.72,-199.82 1173.01,-206.27"/>
</a>
</g>
</g>
<!-- Node12&#45;&gt;Node3 -->
<g id="edge21_Node000012_Node000003" class="edge">
<title>Node12&#45;&gt;Node3</title>
<g id="a_edge21_Node000012_Node000003"><a xlink:title=" ">
<path fill="none" stroke="#63b8ff" d="M453.32,-204.54C426.42,-209.65 398.18,-215.02 374.6,-219.5"/>
<polygon fill="#63b8ff" stroke="#63b8ff" points="453.69,-208.03 462.86,-202.73 452.38,-201.16 453.69,-208.03"/>
</a>
</g>
</g>
<!-- Node13&#45;&gt;Node3 -->
<g id="edge23_Node000013_Node000003" class="edge">
<title>Node13&#45;&gt;Node3</title>
<g id="a_edge23_Node000013_Node000003"><a xlink:title=" ">
<path fill="none" stroke="#63b8ff" d="M892.8,-230C763.7,-230 547.54,-230 420.73,-230"/>
<polygon fill="#63b8ff" stroke="#63b8ff" points="892.74,-233.5 902.74,-230 892.74,-226.5 892.74,-233.5"/>
</a>
</g>
</g>
<!-- Node13&#45;&gt;Node14 -->
<g id="edge24_Node000013_Node000014" class="edge">
<title>Node13&#45;&gt;Node14</title>
<g id="a_edge24_Node000013_Node000014"><a xlink:title=" ">
<path fill="none" stroke="#63b8ff" d="M892.93,-248.17C874.13,-251.38 855.14,-254.63 838.12,-257.54"/>
<polygon fill="#63b8ff" stroke="#63b8ff" points="893.52,-251.62 902.79,-246.48 892.34,-244.72 893.52,-251.62"/>
</a>
</g>
</g>
<!-- Node14&#45;&gt;Node2 -->
<g id="edge25_Node000014_Node000002" class="edge">
<title>Node14&#45;&gt;Node2</title>
<g id="a_edge25_Node000014_Node000002"><a xlink:title=" ">
<path fill="none" stroke="#63b8ff" d="M673.87,-278.02C665.14,-278.88 656.32,-279.75 647.63,-280.62"/>
<polygon fill="#63b8ff" stroke="#63b8ff" points="674.18,-281.5 683.79,-277.03 673.49,-274.54 674.18,-281.5"/>
</a>
</g>
</g>
<!-- Node16&#45;&gt;Node3 -->
<g id="edge29_Node000016_Node000003" class="edge">
<title>Node16&#45;&gt;Node3</title>
<g id="a_edge29_Node000016_Node000003"><a xlink:title=" ">
<path fill="none" stroke="#63b8ff" d="M671.83,-350.16C608.22,-347.48 525.83,-338.92 456.5,-315 405.93,-297.55 354.49,-258.83 331.63,-240.28"/>
<polygon fill="#63b8ff" stroke="#63b8ff" points="671.44,-353.65 681.57,-350.53 671.71,-346.66 671.44,-353.65"/>
</a>
</g>
</g>
</g>
</svg>

<g id="navigator" transform="translate(0 0)" fill="#404254">
  <rect fill="#f2f5e9" fill-opacity="0.5" stroke="#606060" stroke-width=".5" x="0" y="0" width="60" height="60"/>
  <use id="zoomplus" xlink:href="#zoomPlus" x="17" y="9" onmousedown="handleZoom(evt,'in')"/>
  <use id="zoomminus" xlink:href="#zoomMin" x="42" y="9" onmousedown="handleZoom(evt,'out')"/>
  <use id="reset" xlink:href="#resetDef" x="30" y="36" onmousedown="handleReset()"/>
   <use id="arrowup" xlink:href="#arrowUp" x="0" y="0" onmousedown="handlePan(0,-1)"/>
  <use id="arrowright" xlink:href="#arrowRight" x="0" y="0" onmousedown="handlePan(1,0)"/>
  <use id="arrowdown" xlink:href="#arrowDown" x="0" y="0" onmousedown="handlePan(0,1)"/>
  <use id="arrowleft" xlink:href="#arrowLeft" x="0" y="0" onmousedown="handlePan(-1,0)"/>
</g>
<svg viewBox="0 0 15 15" width="100%" height="30px" preserveAspectRatio="xMaxYMin meet">
 <g id="arrow_out" transform="scale(0.3 0.3)">
  <a xlink:href="classediteurpanovisu_1_1EditeurPanovisu_a7390817f6f7659fefd1a38e2f4c380d7_icgraph_org.svg" target="_base">
   <rect id="button" ry="5" rx="5" y="6" x="6" height="38" width="38"
        fill="#f2f5e9" fill-opacity="0.5" stroke="#606060" stroke-width="1.0"/>
   <path id="arrow"
     d="M 11.500037,31.436501 C 11.940474,20.09759 22.043105,11.32322 32.158766,21.979434 L 37.068811,17.246167 C 37.068811,17.246167 37.088388,32 37.088388,32 L 22.160133,31.978069 C 22.160133,31.978069 26.997745,27.140456 26.997745,27.140456 C 18.528582,18.264221 13.291696,25.230495 11.500037,31.436501 z"
     style="fill:#404040;"/>
  </a>
 </g>
</svg>

<style type='text/css'>
<![CDATA[
[data-mouse-over-selected='false'] { opacity: 0.7; }
[data-mouse-over-selected='true']  { opacity: 1.0; }
]]>
</style>
<script type="application/ecmascript"><![CDATA[
document.addEventListener('DOMContentLoaded', (event) => {
  highlightEdges();
  highlightAdjacentNodes();
});
]]></script>
</svg>
