<?xml version="1.0" encoding="UTF-8" standalone="no"?>
<!DOCTYPE svg PUBLIC "-//W3C//DTD SVG 1.1//EN"
 "http://www.w3.org/Graphics/SVG/1.1/DTD/svg11.dtd">
<!-- Generated by graphviz version 13.1.2 (20250808.2320)
 -->
<!-- Title: editeurpanovisu.HotSpot.getStrFichierImage Pages: 1 -->
<!--zoomable 428 -->

<svg id="main" version="1.1" xmlns="http://www.w3.org/2000/svg" xmlns:xlink="http://www.w3.org/1999/xlink" xml:space="preserve" onload="init(evt)">

<style type="text/css"><![CDATA[
.node, .edge {opacity: 0.7;}
.node.selected, .edge.selected {opacity: 1;}
.edge:hover path { stroke: red; }
.edge:hover polygon { stroke: red; fill: red; }
]]></style>

<defs>
  <circle id="rim" cx="0" cy="0" r="7"/>
  <circle id="rim2" cx="0" cy="0" r="3.5"/>
  <g id="zoomPlus">
    <use xlink:href="#rim" fill="#404040"><set attributeName="fill" to="#808080" begin="zoomplus.mouseover" end="zoomplus.mouseout"/></use>
    <path d="M-4,0h8M0,-4v8" fill="none" stroke="white" stroke-width="1.5" pointer-events="none"/>
  </g>
  <g id="zoomMin">
    <use xlink:href="#rim" fill="#404040"><set attributeName="fill" to="#808080" begin="zoomminus.mouseover" end="zoomminus.mouseout"/></use>
    <path d="M-4,0h8" fill="none" stroke="white" stroke-width="1.5" pointer-events="none"/>
  </g>
  <g id="arrowUp" transform="translate(30 24)">
    <use xlink:href="#rim"/>
    <path pointer-events="none" fill="none" stroke="white" stroke-width="1.5" d="M0,-3.0v7 M-2.5,-0.5L0,-3.0L2.5,-0.5"/>
  </g>
  <g id="arrowRight" transform="rotate(90) translate(36 -43)">
    <use xlink:href="#rim"/>
    <path pointer-events="none" fill="none" stroke="white" stroke-width="1.5" d="M0,-3.0v7 M-2.5,-0.5L0,-3.0L2.5,-0.5"/>
  </g>
  <g id="arrowDown" transform="rotate(180) translate(-30 -48)">
    <use xlink:href="#rim"/>
    <path pointer-events="none" fill="none" stroke="white" stroke-width="1.5" d="M0,-3.0v7 M-2.5,-0.5L0,-3.0L2.5,-0.5"/>
  </g>
  <g id="arrowLeft" transform="rotate(270) translate(-36 17)">
    <use xlink:href="#rim"/>
    <path pointer-events="none" fill="none" stroke="white" stroke-width="1.5" d="M0,-3.0v7 M-2.5,-0.5L0,-3.0L2.5,-0.5"/>
  </g>
  <g id="resetDef">
    <use xlink:href="#rim2" fill="#404040"><set attributeName="fill" to="#808080" begin="reset.mouseover" end="reset.mouseout"/></use>
  </g>
</defs>
<script type="application/ecmascript">
var viewWidth = 1908;
var viewHeight = 428;
var sectionId = 'dynsection-8';
</script>
<script type="application/ecmascript" xlink:href="svg.min.js"/>
<svg id="graph" class="graph">
<g id="viewport">
<title>editeurpanovisu.HotSpot.getStrFichierImage</title>
<!-- Node1 -->
<g id="Node000001" class="node">
<title>Node1</title>
<g id="a_Node000001"><a xlink:title=" ">
<polygon fill="#999999" stroke="#666666" points="1899.75,-117 1760,-117 1760,-85 1899.75,-85 1899.75,-117"/>
<text xml:space="preserve" text-anchor="start" x="1768" y="-103.5" font-family="Helvetica,sans-Serif" font-size="10.00">editeurpanovisu.HotSpot.get</text>
<text xml:space="preserve" text-anchor="middle" x="1829.88" y="-91.5" font-family="Helvetica,sans-Serif" font-size="10.00">StrFichierImage</text>
</a>
</g>
</g>
<!-- Node2 -->
<g id="Node000002" class="node">
<title>Node2</title>
<g id="a_Node000002"><a xlink:href="classediteurpanovisu_1_1GestionnairePlanController.html#a4fee5b2044276463a3fde41289924472" target="_top" xlink:title=" ">
<polygon fill="white" stroke="#666666" points="1724,-95 1582,-95 1582,-63 1724,-63 1724,-95"/>
<text xml:space="preserve" text-anchor="start" x="1590" y="-81.5" font-family="Helvetica,sans-Serif" font-size="10.00">editeurpanovisu.Gestionnaire</text>
<text xml:space="preserve" text-anchor="middle" x="1653" y="-69.5" font-family="Helvetica,sans-Serif" font-size="10.00">PlanController.getTemplate</text>
</a>
</g>
</g>
<!-- Node1&#45;&gt;Node2 -->
<g id="edge1_Node000001_Node000002" class="edge">
<title>Node1&#45;&gt;Node2</title>
<g id="a_edge1_Node000001_Node000002"><a xlink:title=" ">
<path fill="none" stroke="#63b8ff" d="M1748.31,-90.87C1740.34,-89.86 1732.29,-88.85 1724.43,-87.86"/>
<polygon fill="#63b8ff" stroke="#63b8ff" points="1747.65,-94.31 1758.01,-92.08 1748.52,-87.36 1747.65,-94.31"/>
</a>
</g>
</g>
<!-- Node3 -->
<g id="Node000003" class="node">
<title>Node3</title>
<g id="a_Node000003"><a xlink:href="classediteurpanovisu_1_1EditeurPanovisu.html#aaee69ab54364f89b58458c744a4195c0" target="_top" xlink:title=" ">
<polygon fill="white" stroke="#666666" points="1546,-117 1358.25,-117 1358.25,-85 1546,-85 1546,-117"/>
<text xml:space="preserve" text-anchor="start" x="1366.25" y="-103.5" font-family="Helvetica,sans-Serif" font-size="10.00">editeurpanovisu.EditeurPanovisu.sauve</text>
<text xml:space="preserve" text-anchor="middle" x="1452.12" y="-91.5" font-family="Helvetica,sans-Serif" font-size="10.00">FichierProjet</text>
</a>
</g>
</g>
<!-- Node1&#45;&gt;Node3 -->
<g id="edge27_Node000001_Node000003" class="edge">
<title>Node1&#45;&gt;Node3</title>
<g id="a_edge27_Node000001_Node000003"><a xlink:title=" ">
<path fill="none" stroke="#63b8ff" d="M1748.52,-103.53C1740.24,-103.72 1731.95,-103.89 1724,-104 1660.9,-104.9 1645.11,-104.73 1582,-104 1570.47,-103.87 1558.37,-103.66 1546.39,-103.43"/>
<polygon fill="#63b8ff" stroke="#63b8ff" points="1748.35,-107.04 1758.26,-103.29 1748.18,-100.04 1748.35,-107.04"/>
</a>
</g>
</g>
<!-- Node2&#45;&gt;Node3 -->
<g id="edge2_Node000002_Node000003" class="edge">
<title>Node2&#45;&gt;Node3</title>
<g id="a_edge2_Node000002_Node000003"><a xlink:title=" ">
<path fill="none" stroke="#63b8ff" d="M1570.23,-88.05C1562.37,-88.91 1554.37,-89.8 1546.41,-90.68"/>
<polygon fill="#63b8ff" stroke="#63b8ff" points="1570.55,-91.53 1580.1,-86.95 1569.78,-84.57 1570.55,-91.53"/>
</a>
</g>
</g>
<!-- Node4 -->
<g id="Node000004" class="node">
<title>Node4</title>
<g id="a_Node000004"><a xlink:href="classediteurpanovisu_1_1EditeurPanovisu.html#a9f3ea25b35d4884524508dab3dc4fd6a" target="_top" xlink:title=" ">
<polygon fill="white" stroke="#666666" points="1322.25,-219 1136.75,-219 1136.75,-187 1322.25,-187 1322.25,-219"/>
<text xml:space="preserve" text-anchor="start" x="1144.75" y="-205.5" font-family="Helvetica,sans-Serif" font-size="10.00">editeurpanovisu.EditeurPanovisu.projet</text>
<text xml:space="preserve" text-anchor="middle" x="1229.5" y="-193.5" font-family="Helvetica,sans-Serif" font-size="10.00">Sauve</text>
</a>
</g>
</g>
<!-- Node3&#45;&gt;Node4 -->
<g id="edge3_Node000003_Node000004" class="edge">
<title>Node3&#45;&gt;Node4</title>
<g id="a_edge3_Node000003_Node000004"><a xlink:title=" ">
<path fill="none" stroke="#63b8ff" d="M1405.31,-122.18C1363.86,-141.34 1303.7,-169.16 1265.86,-186.65"/>
<polygon fill="#63b8ff" stroke="#63b8ff" points="1406.7,-125.4 1414.3,-118.02 1403.76,-119.04 1406.7,-125.4"/>
</a>
</g>
</g>
<!-- Node11 -->
<g id="Node000011" class="node">
<title>Node11</title>
<g id="a_Node000011"><a xlink:href="classediteurpanovisu_1_1EditeurPanovisu.html#a7b2e25dc717eb52b62e23d54ec4c124a" target="_top" xlink:title=" ">
<polygon fill="white" stroke="#666666" points="644.62,-32 459.12,-32 459.12,0 644.62,0 644.62,-32"/>
<text xml:space="preserve" text-anchor="start" x="467.12" y="-18.5" font-family="Helvetica,sans-Serif" font-size="10.00">editeurpanovisu.EditeurPanovisu.projet</text>
<text xml:space="preserve" text-anchor="middle" x="551.88" y="-6.5" font-family="Helvetica,sans-Serif" font-size="10.00">SauveSous</text>
</a>
</g>
</g>
<!-- Node3&#45;&gt;Node11 -->
<g id="edge26_Node000003_Node000011" class="edge">
<title>Node3&#45;&gt;Node11</title>
<g id="a_edge26_Node000003_Node000011"><a xlink:title=" ">
<path fill="none" stroke="#63b8ff" d="M1363.94,-82.24C1293.33,-67.85 1191.1,-48.85 1100.75,-39 941.04,-21.6 753.83,-17.14 644.76,-16.13"/>
<polygon fill="#63b8ff" stroke="#63b8ff" points="1363.01,-85.62 1373.51,-84.2 1364.42,-78.77 1363.01,-85.62"/>
</a>
</g>
</g>
<!-- Node5 -->
<g id="Node000005" class="node">
<title>Node5</title>
<g id="a_Node000005"><a xlink:href="classediteurpanovisu_1_1EditeurPanovisu.html#ac912b80c1f2ac97def60ff005c5c480b" target="_top" xlink:title=" ">
<polygon fill="white" stroke="#666666" points="420.5,-219 216.25,-219 216.25,-199 420.5,-199 420.5,-219"/>
<text xml:space="preserve" text-anchor="middle" x="318.38" y="-205.5" font-family="Helvetica,sans-Serif" font-size="10.00">editeurpanovisu.EditeurPanovisu.creeMenu</text>
</a>
</g>
</g>
<!-- Node4&#45;&gt;Node5 -->
<g id="edge4_Node000004_Node000005" class="edge">
<title>Node4&#45;&gt;Node5</title>
<g id="a_edge4_Node000004_Node000005"><a xlink:title=" ">
<path fill="none" stroke="#63b8ff" d="M1213.92,-228.89C1193.53,-262.1 1153.08,-318.13 1100.75,-341 958.82,-403.02 536.42,-277.07 456.5,-256 417.44,-245.7 373.46,-229.84 346.08,-219.44"/>
<polygon fill="#63b8ff" stroke="#63b8ff" points="1216.7,-231.06 1218.81,-220.68 1210.68,-227.47 1216.7,-231.06"/>
</a>
</g>
</g>
<!-- Node7 -->
<g id="Node000007" class="node">
<title>Node7</title>
<g id="a_Node000007"><a xlink:href="classediteurpanovisu_1_1EditeurPanovisu.html#a94e36b9e9d09ab1a4c852b8a8cefa927" target="_top" xlink:title=" ">
<polygon fill="white" stroke="#666666" points="647.25,-225 456.5,-225 456.5,-193 647.25,-193 647.25,-225"/>
<text xml:space="preserve" text-anchor="start" x="464.5" y="-211.5" font-family="Helvetica,sans-Serif" font-size="10.00">editeurpanovisu.EditeurPanovisu.genere</text>
<text xml:space="preserve" text-anchor="middle" x="551.88" y="-199.5" font-family="Helvetica,sans-Serif" font-size="10.00">Visite</text>
</a>
</g>
</g>
<!-- Node4&#45;&gt;Node7 -->
<g id="edge6_Node000004_Node000007" class="edge">
<title>Node4&#45;&gt;Node7</title>
<g id="a_edge6_Node000004_Node000007"><a xlink:title=" ">
<path fill="none" stroke="#63b8ff" d="M1124.97,-201.58C1015.28,-200.42 837.03,-199.46 683.25,-203 671.7,-203.27 659.57,-203.66 647.56,-204.13"/>
<polygon fill="#63b8ff" stroke="#63b8ff" points="1124.8,-205.08 1134.84,-201.69 1124.88,-198.08 1124.8,-205.08"/>
</a>
</g>
</g>
<!-- Node8 -->
<g id="Node000008" class="node">
<title>Node8</title>
<g id="a_Node000008"><a xlink:href="classediteurpanovisu_1_1EditeurPanovisu.html#ab4beb1597b660a4a253befc6e76f1c54" target="_top" xlink:title=" ">
<polygon fill="white" stroke="#666666" points="644.62,-162 459.12,-162 459.12,-130 644.62,-130 644.62,-162"/>
<text xml:space="preserve" text-anchor="start" x="467.12" y="-148.5" font-family="Helvetica,sans-Serif" font-size="10.00">editeurpanovisu.EditeurPanovisu.projet</text>
<text xml:space="preserve" text-anchor="middle" x="551.88" y="-136.5" font-family="Helvetica,sans-Serif" font-size="10.00">Charge</text>
</a>
</g>
</g>
<!-- Node4&#45;&gt;Node8 -->
<g id="edge8_Node000004_Node000008" class="edge">
<title>Node4&#45;&gt;Node8</title>
<g id="a_edge8_Node000004_Node000008"><a xlink:title=" ">
<path fill="none" stroke="#63b8ff" d="M1125.11,-194.28C994.1,-183.22 770.31,-164.34 644.93,-153.77"/>
<polygon fill="#63b8ff" stroke="#63b8ff" points="1124.56,-197.74 1134.82,-195.1 1125.15,-190.77 1124.56,-197.74"/>
</a>
</g>
</g>
<!-- Node9 -->
<g id="Node000009" class="node">
<title>Node9</title>
<g id="a_Node000009"><a xlink:href="classediteurpanovisu_1_1EditeurPanovisu.html#a6d19b4d885ee6fcec827b91956295732" target="_top" xlink:title=" ">
<polygon fill="white" stroke="#666666" points="1098.12,-80 912.62,-80 912.62,-48 1098.12,-48 1098.12,-80"/>
<text xml:space="preserve" text-anchor="start" x="920.62" y="-66.5" font-family="Helvetica,sans-Serif" font-size="10.00">editeurpanovisu.EditeurPanovisu.projet</text>
<text xml:space="preserve" text-anchor="middle" x="1005.38" y="-54.5" font-family="Helvetica,sans-Serif" font-size="10.00">ChargeNom</text>
</a>
</g>
</g>
<!-- Node4&#45;&gt;Node9 -->
<g id="edge10_Node000004_Node000009" class="edge">
<title>Node4&#45;&gt;Node9</title>
<g id="a_edge10_Node000004_Node000009"><a xlink:title=" ">
<path fill="none" stroke="#63b8ff" d="M1205.74,-178.53C1181.74,-154.04 1141.79,-116.8 1100.75,-94 1091.28,-88.74 1080.76,-84.25 1070.27,-80.47"/>
<polygon fill="#63b8ff" stroke="#63b8ff" points="1203.03,-180.76 1212.49,-185.53 1208.07,-175.9 1203.03,-180.76"/>
</a>
</g>
</g>
<!-- Node12 -->
<g id="Node000012" class="node">
<title>Node12</title>
<g id="a_Node000012"><a xlink:href="classediteurpanovisu_1_1EditeurPanovisu.html#a9b46b222714af12c06ec33d410400773" target="_top" xlink:title=" ">
<polygon fill="white" stroke="#666666" points="874,-420 683.25,-420 683.25,-388 874,-388 874,-420"/>
<text xml:space="preserve" text-anchor="start" x="691.25" y="-406.5" font-family="Helvetica,sans-Serif" font-size="10.00">editeurpanovisu.EditeurPanovisu.projets</text>
<text xml:space="preserve" text-anchor="middle" x="778.62" y="-394.5" font-family="Helvetica,sans-Serif" font-size="10.00">Fermer</text>
</a>
</g>
</g>
<!-- Node4&#45;&gt;Node12 -->
<g id="edge18_Node000004_Node000012" class="edge">
<title>Node4&#45;&gt;Node12</title>
<g id="a_edge18_Node000004_Node000012"><a xlink:title=" ">
<path fill="none" stroke="#63b8ff" d="M1217.25,-229.65C1199.11,-268.89 1159.42,-341.1 1100.75,-374 1032.01,-412.55 941.79,-417.78 874.48,-414.68"/>
<polygon fill="#63b8ff" stroke="#63b8ff" points="1220.37,-231.23 1221.27,-220.67 1213.99,-228.37 1220.37,-231.23"/>
</a>
</g>
</g>
<!-- Node13 -->
<g id="Node000013" class="node">
<title>Node13</title>
<g id="a_Node000013"><a xlink:href="classediteurpanovisu_1_1EditeurPanovisu.html#ac9d449399ccd38843fa12e716f0c9611" target="_top" xlink:title=" ">
<polygon fill="white" stroke="#666666" points="1100.75,-282 910,-282 910,-250 1100.75,-250 1100.75,-282"/>
<text xml:space="preserve" text-anchor="start" x="918" y="-268.5" font-family="Helvetica,sans-Serif" font-size="10.00">editeurpanovisu.EditeurPanovisu.projets</text>
<text xml:space="preserve" text-anchor="middle" x="1005.38" y="-256.5" font-family="Helvetica,sans-Serif" font-size="10.00">Nouveau</text>
</a>
</g>
</g>
<!-- Node4&#45;&gt;Node13 -->
<g id="edge20_Node000004_Node000013" class="edge">
<title>Node4&#45;&gt;Node13</title>
<g id="a_edge20_Node000004_Node000013"><a xlink:title=" ">
<path fill="none" stroke="#63b8ff" d="M1159.45,-222.58C1128.99,-231.22 1093.58,-241.27 1064.49,-249.52"/>
<polygon fill="#63b8ff" stroke="#63b8ff" points="1160.31,-225.98 1168.97,-219.88 1158.4,-219.24 1160.31,-225.98"/>
</a>
</g>
</g>
<!-- Node14 -->
<g id="Node000014" class="node">
<title>Node14</title>
<g id="a_Node000014"><a xlink:href="classediteurpanovisu_1_1EditeurPanovisu.html#a2b3125ffe2e6291efacf19df6cb30a8d" target="_top" xlink:title=" ">
<polygon fill="white" stroke="#666666" points="869.12,-232 688.12,-232 688.12,-212 869.12,-212 869.12,-232"/>
<text xml:space="preserve" text-anchor="middle" x="778.62" y="-218.5" font-family="Helvetica,sans-Serif" font-size="10.00">editeurpanovisu.EditeurPanovisu.start</text>
</a>
</g>
</g>
<!-- Node4&#45;&gt;Node14 -->
<g id="edge25_Node000004_Node000014" class="edge">
<title>Node4&#45;&gt;Node14</title>
<g id="a_edge25_Node000004_Node000014"><a xlink:title=" ">
<path fill="none" stroke="#63b8ff" d="M1125.11,-207.38C1047.82,-210.65 943.2,-215.08 869.4,-218.2"/>
<polygon fill="#63b8ff" stroke="#63b8ff" points="1124.95,-210.89 1134.8,-206.97 1124.66,-203.89 1124.95,-210.89"/>
</a>
</g>
</g>
<!-- Node15 -->
<g id="Node000015" class="node">
<title>Node15</title>
<g id="a_Node000015"><a xlink:href="classediteurpanovisu_1_1EditeurPanovisu.html#aef8c9b28c3e88d6e27e3f62b9a901134" target="_top" xlink:title=" ">
<polygon fill="white" stroke="#666666" points="1099.25,-332 911.5,-332 911.5,-300 1099.25,-300 1099.25,-332"/>
<text xml:space="preserve" text-anchor="start" x="919.5" y="-318.5" font-family="Helvetica,sans-Serif" font-size="10.00">editeurpanovisu.EditeurPanovisu.sauve</text>
<text xml:space="preserve" text-anchor="middle" x="1005.38" y="-306.5" font-family="Helvetica,sans-Serif" font-size="10.00">Fichiers</text>
</a>
</g>
</g>
<!-- Node4&#45;&gt;Node15 -->
<g id="edge24_Node000004_Node000015" class="edge">
<title>Node4&#45;&gt;Node15</title>
<g id="a_edge24_Node000004_Node000015"><a xlink:title=" ">
<path fill="none" stroke="#63b8ff" d="M1200.61,-226.45C1175.82,-246.21 1137.85,-273.94 1100.75,-291 1093.82,-294.19 1086.41,-297.03 1078.9,-299.54"/>
<polygon fill="#63b8ff" stroke="#63b8ff" points="1202.69,-229.26 1208.26,-220.25 1198.29,-223.82 1202.69,-229.26"/>
</a>
</g>
</g>
<!-- Node6 -->
<g id="Node000006" class="node">
<title>Node6</title>
<g id="a_Node000006"><a xlink:href="classediteurpanovisu_1_1EditeurPanovisu.html#a86c393eee88f54c694db994ddd85b90d" target="_top" xlink:title=" ">
<polygon fill="white" stroke="#666666" points="180.25,-225 0,-225 0,-193 180.25,-193 180.25,-225"/>
<text xml:space="preserve" text-anchor="start" x="8" y="-211.5" font-family="Helvetica,sans-Serif" font-size="10.00">editeurpanovisu.EditeurPanovisu.cree</text>
<text xml:space="preserve" text-anchor="middle" x="90.12" y="-199.5" font-family="Helvetica,sans-Serif" font-size="10.00">Environnement</text>
</a>
</g>
</g>
<!-- Node5&#45;&gt;Node6 -->
<g id="edge5_Node000005_Node000006" class="edge">
<title>Node5&#45;&gt;Node6</title>
<g id="a_edge5_Node000005_Node000006"><a xlink:title=" ">
<path fill="none" stroke="#63b8ff" d="M204.51,-209C196.49,-209 188.46,-209 180.6,-209"/>
<polygon fill="#63b8ff" stroke="#63b8ff" points="204.32,-212.5 214.32,-209 204.32,-205.5 204.32,-212.5"/>
</a>
</g>
</g>
<!-- Node7&#45;&gt;Node5 -->
<g id="edge7_Node000007_Node000005" class="edge">
<title>Node7&#45;&gt;Node5</title>
<g id="a_edge7_Node000007_Node000005"><a xlink:title=" ">
<path fill="none" stroke="#63b8ff" d="M444.54,-209C436.64,-209 428.69,-209 420.83,-209"/>
<polygon fill="#63b8ff" stroke="#63b8ff" points="444.53,-212.5 454.53,-209 444.53,-205.5 444.53,-212.5"/>
</a>
</g>
</g>
<!-- Node8&#45;&gt;Node5 -->
<g id="edge9_Node000008_Node000005" class="edge">
<title>Node8&#45;&gt;Node5</title>
<g id="a_edge9_Node000008_Node000005"><a xlink:title=" ">
<path fill="none" stroke="#63b8ff" d="M479.28,-165.48C439.18,-176.4 390.76,-189.57 357.78,-198.55"/>
<polygon fill="#63b8ff" stroke="#63b8ff" points="480.16,-168.87 488.89,-162.87 478.32,-162.12 480.16,-168.87"/>
</a>
</g>
</g>
<!-- Node9&#45;&gt;Node5 -->
<g id="edge17_Node000009_Node000005" class="edge">
<title>Node9&#45;&gt;Node5</title>
<g id="a_edge17_Node000009_Node000005"><a xlink:title=" ">
<path fill="none" stroke="#63b8ff" d="M901.1,-58.23C787.87,-55.61 602.83,-62.37 456.5,-121 406.35,-141.1 354.7,-180.19 331.71,-198.75"/>
<polygon fill="#63b8ff" stroke="#63b8ff" points="900.9,-61.73 910.99,-58.49 901.09,-54.73 900.9,-61.73"/>
</a>
</g>
</g>
<!-- Node10 -->
<g id="Node000010" class="node">
<title>Node10</title>
<g id="a_Node000010"><a xlink:href="classediteurpanovisu_1_1EditeurPanovisu.html#af0d1c32bb78acbff561c822a0d15f760" target="_top" xlink:title=" ">
<polygon fill="white" stroke="#666666" points="872.5,-118 684.75,-118 684.75,-86 872.5,-86 872.5,-118"/>
<text xml:space="preserve" text-anchor="start" x="692.75" y="-104.5" font-family="Helvetica,sans-Serif" font-size="10.00">editeurpanovisu.EditeurPanovisu.ajoute</text>
<text xml:space="preserve" text-anchor="middle" x="778.62" y="-92.5" font-family="Helvetica,sans-Serif" font-size="10.00">FichierHisto</text>
</a>
</g>
</g>
<!-- Node9&#45;&gt;Node10 -->
<g id="edge11_Node000009_Node000010" class="edge">
<title>Node9&#45;&gt;Node10</title>
<g id="a_edge11_Node000009_Node000010"><a xlink:title=" ">
<path fill="none" stroke="#63b8ff" d="M900.98,-74.75C880.49,-78.13 859.59,-81.87 841.05,-85.52"/>
<polygon fill="#63b8ff" stroke="#63b8ff" points="901.51,-78.21 910.82,-73.16 900.39,-71.3 901.51,-78.21"/>
</a>
</g>
</g>
<!-- Node10&#45;&gt;Node4 -->
<g id="edge14_Node000010_Node000004" class="edge">
<title>Node10&#45;&gt;Node4</title>
<g id="a_edge14_Node000010_Node000004"><a xlink:title=" ">
<path fill="none" stroke="#63b8ff" d="M884.24,-100.95C948.07,-102.95 1030.61,-110.29 1100.75,-132 1140.26,-144.23 1181.25,-169.67 1205.81,-186.54"/>
<polygon fill="#63b8ff" stroke="#63b8ff" points="884.55,-97.46 874.46,-100.69 884.37,-104.46 884.55,-97.46"/>
</a>
</g>
</g>
<!-- Node10&#45;&gt;Node8 -->
<g id="edge12_Node000010_Node000008" class="edge">
<title>Node10&#45;&gt;Node8</title>
<g id="a_edge12_Node000010_Node000008"><a xlink:title=" ">
<path fill="none" stroke="#63b8ff" d="M682.7,-120.58C667.57,-123.55 652.01,-126.59 637.16,-129.5"/>
<polygon fill="#63b8ff" stroke="#63b8ff" points="682.99,-124.09 692.13,-118.74 681.65,-117.22 682.99,-124.09"/>
</a>
</g>
</g>
<!-- Node10&#45;&gt;Node9 -->
<g id="edge13_Node000010_Node000009" class="edge">
<title>Node10&#45;&gt;Node9</title>
<g id="a_edge13_Node000010_Node000009"><a xlink:title=" ">
<path fill="none" stroke="#63b8ff" d="M883.8,-91.12C904.04,-87.78 924.65,-84.08 942.96,-80.47"/>
<polygon fill="#63b8ff" stroke="#63b8ff" points="883.4,-87.64 874.09,-92.7 884.53,-94.55 883.4,-87.64"/>
</a>
</g>
</g>
<!-- Node10&#45;&gt;Node11 -->
<g id="edge15_Node000010_Node000011" class="edge">
<title>Node10&#45;&gt;Node11</title>
<g id="a_edge15_Node000010_Node000011"><a xlink:title=" ">
<path fill="none" stroke="#63b8ff" d="M723.87,-81.43C684.66,-66.43 632.22,-46.36 595.8,-32.42"/>
<polygon fill="#63b8ff" stroke="#63b8ff" points="722.55,-84.67 733.14,-84.98 725.05,-78.14 722.55,-84.67"/>
</a>
</g>
</g>
<!-- Node11&#45;&gt;Node5 -->
<g id="edge16_Node000011_Node000005" class="edge">
<title>Node11&#45;&gt;Node5</title>
<g id="a_edge16_Node000011_Node000005"><a xlink:title=" ">
<path fill="none" stroke="#63b8ff" d="M472.79,-36.85C467.09,-39.56 461.59,-42.59 456.5,-46 392.26,-88.97 341.52,-170.42 325.05,-198.88"/>
<polygon fill="#63b8ff" stroke="#63b8ff" points="474.05,-40.12 481.83,-32.93 471.26,-33.7 474.05,-40.12"/>
</a>
</g>
</g>
<!-- Node12&#45;&gt;Node5 -->
<g id="edge19_Node000012_Node000005" class="edge">
<title>Node12&#45;&gt;Node5</title>
<g id="a_edge19_Node000012_Node000005"><a xlink:title=" ">
<path fill="none" stroke="#63b8ff" d="M671.81,-413.94C606.24,-415.46 522.28,-408.69 456.5,-374 386.98,-337.34 338.91,-249.02 324.15,-219.1"/>
<polygon fill="#63b8ff" stroke="#63b8ff" points="671.6,-417.45 681.49,-413.65 671.39,-410.45 671.6,-417.45"/>
</a>
</g>
</g>
<!-- Node13&#45;&gt;Node5 -->
<g id="edge21_Node000013_Node000005" class="edge">
<title>Node13&#45;&gt;Node5</title>
<g id="a_edge21_Node000013_Node000005"><a xlink:title=" ">
<path fill="none" stroke="#63b8ff" d="M898.05,-263.63C787.41,-260.26 609.31,-252.32 456.5,-234 427.19,-230.49 394.67,-224.64 368.66,-219.49"/>
<polygon fill="#63b8ff" stroke="#63b8ff" points="897.92,-267.13 908.02,-263.92 898.13,-260.13 897.92,-267.13"/>
</a>
</g>
</g>
<!-- Node13&#45;&gt;Node14 -->
<g id="edge22_Node000013_Node000014" class="edge">
<title>Node13&#45;&gt;Node14</title>
<g id="a_edge22_Node000013_Node000014"><a xlink:title=" ">
<path fill="none" stroke="#63b8ff" d="M909.31,-247.39C883.31,-242.3 856.03,-236.96 833.24,-232.5"/>
<polygon fill="#63b8ff" stroke="#63b8ff" points="908.4,-250.78 918.88,-249.26 909.74,-243.91 908.4,-250.78"/>
</a>
</g>
</g>
<!-- Node14&#45;&gt;Node7 -->
<g id="edge23_Node000014_Node000007" class="edge">
<title>Node14&#45;&gt;Node7</title>
<g id="a_edge23_Node000014_Node000007"><a xlink:title=" ">
<path fill="none" stroke="#63b8ff" d="M676.6,-216.16C666.98,-215.6 657.24,-215.04 647.68,-214.48"/>
<polygon fill="#63b8ff" stroke="#63b8ff" points="676.13,-219.64 686.32,-216.72 676.54,-212.65 676.13,-219.64"/>
</a>
</g>
</g>
</g>
</svg>

<g id="navigator" transform="translate(0 0)" fill="#404254">
  <rect fill="#f2f5e9" fill-opacity="0.5" stroke="#606060" stroke-width=".5" x="0" y="0" width="60" height="60"/>
  <use id="zoomplus" xlink:href="#zoomPlus" x="17" y="9" onmousedown="handleZoom(evt,'in')"/>
  <use id="zoomminus" xlink:href="#zoomMin" x="42" y="9" onmousedown="handleZoom(evt,'out')"/>
  <use id="reset" xlink:href="#resetDef" x="30" y="36" onmousedown="handleReset()"/>
   <use id="arrowup" xlink:href="#arrowUp" x="0" y="0" onmousedown="handlePan(0,-1)"/>
  <use id="arrowright" xlink:href="#arrowRight" x="0" y="0" onmousedown="handlePan(1,0)"/>
  <use id="arrowdown" xlink:href="#arrowDown" x="0" y="0" onmousedown="handlePan(0,1)"/>
  <use id="arrowleft" xlink:href="#arrowLeft" x="0" y="0" onmousedown="handlePan(-1,0)"/>
</g>
<svg viewBox="0 0 15 15" width="100%" height="30px" preserveAspectRatio="xMaxYMin meet">
 <g id="arrow_out" transform="scale(0.3 0.3)">
  <a xlink:href="classediteurpanovisu_1_1HotSpot_a99ddded4ecf0e48de7c065874a810a11_icgraph_org.svg" target="_base">
   <rect id="button" ry="5" rx="5" y="6" x="6" height="38" width="38"
        fill="#f2f5e9" fill-opacity="0.5" stroke="#606060" stroke-width="1.0"/>
   <path id="arrow"
     d="M 11.500037,31.436501 C 11.940474,20.09759 22.043105,11.32322 32.158766,21.979434 L 37.068811,17.246167 C 37.068811,17.246167 37.088388,32 37.088388,32 L 22.160133,31.978069 C 22.160133,31.978069 26.997745,27.140456 26.997745,27.140456 C 18.528582,18.264221 13.291696,25.230495 11.500037,31.436501 z"
     style="fill:#404040;"/>
  </a>
 </g>
</svg>

<style type='text/css'>
<![CDATA[
[data-mouse-over-selected='false'] { opacity: 0.7; }
[data-mouse-over-selected='true']  { opacity: 1.0; }
]]>
</style>
<script type="application/ecmascript"><![CDATA[
document.addEventListener('DOMContentLoaded', (event) => {
  highlightEdges();
  highlightAdjacentNodes();
});
]]></script>
</svg>
