<?xml version="1.0" encoding="UTF-8" standalone="no"?>
<!DOCTYPE svg PUBLIC "-//W3C//DTD SVG 1.1//EN"
 "http://www.w3.org/Graphics/SVG/1.1/DTD/svg11.dtd">
<!-- Generated by graphviz version 13.1.2 (20250808.2320)
 -->
<!-- Title: editeurpanovisu.EditeurPanovisu.planAjouter Pages: 1 -->
<svg width="2042pt" height="832pt"
 viewBox="0.00 0.00 2042.00 832.00" xmlns="http://www.w3.org/2000/svg" xmlns:xlink="http://www.w3.org/1999/xlink">
<g id="graph0" class="graph" transform="scale(1 1) rotate(0) translate(4 827.7)">
<title>editeurpanovisu.EditeurPanovisu.planAjouter</title>
<!-- Node1 -->
<g id="Node000001" class="node">
<title>Node1</title>
<g id="a_Node000001"><a xlink:title=" ">
<polygon fill="#999999" stroke="#666666" points="179.5,-257 0,-257 0,-225 179.5,-225 179.5,-257"/>
<text xml:space="preserve" text-anchor="start" x="8" y="-243.5" font-family="Helvetica,sans-Serif" font-size="10.00">editeurpanovisu.EditeurPanovisu.plan</text>
<text xml:space="preserve" text-anchor="middle" x="89.75" y="-231.5" font-family="Helvetica,sans-Serif" font-size="10.00">Ajouter</text>
</a>
</g>
</g>
<!-- Node2 -->
<g id="Node000002" class="node">
<title>Node2</title>
<g id="a_Node000002"><a xlink:href="classediteurpanovisu_1_1GestionnairePlanController.html#a28463a3559d99394ecb23f3c74d14835" target="_top" xlink:title=" ">
<polygon fill="white" stroke="#666666" points="378.88,-482 236.88,-482 236.88,-450 378.88,-450 378.88,-482"/>
<text xml:space="preserve" text-anchor="start" x="244.88" y="-468.5" font-family="Helvetica,sans-Serif" font-size="10.00">editeurpanovisu.Gestionnaire</text>
<text xml:space="preserve" text-anchor="middle" x="307.88" y="-456.5" font-family="Helvetica,sans-Serif" font-size="10.00">PlanController.ajouterPlan</text>
</a>
</g>
</g>
<!-- Node1&#45;&gt;Node2 -->
<g id="edge1_Node000001_Node000002" class="edge">
<title>Node1&#45;&gt;Node2</title>
<g id="a_edge1_Node000001_Node000002"><a xlink:title=" ">
<path fill="none" stroke="#63b8ff" d="M96.21,-257.35C109.86,-295.65 149.2,-391.63 215.5,-441 218.86,-443.5 222.46,-445.76 226.22,-447.79"/>
<polygon fill="#63b8ff" stroke="#63b8ff" points="224.57,-450.88 235.1,-452 227.57,-444.55 224.57,-450.88"/>
</a>
</g>
</g>
<!-- Node23 -->
<g id="Node000023" class="node">
<title>Node23</title>
<g id="a_Node000023"><a xlink:href="classediteurpanovisu_1_1EditeurPanovisu.html#a8efc7dc7e69ecc141c1613ad5dc7c0aa" target="_top" xlink:title=" ">
<polygon fill="white" stroke="#666666" points="400.25,-432 215.5,-432 215.5,-400 400.25,-400 400.25,-432"/>
<text xml:space="preserve" text-anchor="start" x="223.5" y="-418.5" font-family="Helvetica,sans-Serif" font-size="10.00">editeurpanovisu.EditeurPanovisu.copie</text>
<text xml:space="preserve" text-anchor="middle" x="307.88" y="-406.5" font-family="Helvetica,sans-Serif" font-size="10.00">FichierRepertoire</text>
</a>
</g>
</g>
<!-- Node1&#45;&gt;Node23 -->
<g id="edge44_Node000001_Node000023" class="edge">
<title>Node1&#45;&gt;Node23</title>
<g id="a_edge44_Node000001_Node000023"><a xlink:title=" ">
<path fill="none" stroke="#63b8ff" d="M99.71,-257.35C117.54,-288.33 160.54,-355.61 215.5,-391 217.5,-392.29 219.56,-393.51 221.68,-394.67"/>
<polygon fill="#63b8ff" stroke="#63b8ff" points="220.02,-397.75 230.55,-398.99 223.09,-391.46 220.02,-397.75"/>
</a>
</g>
</g>
<!-- Node24 -->
<g id="Node000024" class="node">
<title>Node24</title>
<g id="a_Node000024"><a xlink:href="classediteurpanovisu_1_1EditeurPanovisu.html#ae2d8ac01055bf6d6ae6f4b03e5498c41" target="_top" xlink:title=" ">
<polygon fill="white" stroke="#666666" points="395.38,-382 220.38,-382 220.38,-350 395.38,-350 395.38,-382"/>
<text xml:space="preserve" text-anchor="start" x="228.38" y="-368.5" font-family="Helvetica,sans-Serif" font-size="10.00">editeurpanovisu.EditeurPanovisu.get</text>
<text xml:space="preserve" text-anchor="middle" x="307.88" y="-356.5" font-family="Helvetica,sans-Serif" font-size="10.00">GestionnairePlan</text>
</a>
</g>
</g>
<!-- Node1&#45;&gt;Node24 -->
<g id="edge45_Node000001_Node000024" class="edge">
<title>Node1&#45;&gt;Node24</title>
<g id="a_edge45_Node000001_Node000024"><a xlink:title=" ">
<path fill="none" stroke="#63b8ff" d="M106.55,-257.32C128.85,-279.43 171.73,-318.69 215.5,-341 218.55,-342.56 221.71,-344.02 224.94,-345.41"/>
<polygon fill="#63b8ff" stroke="#63b8ff" points="223.46,-348.58 234.05,-348.99 226.02,-342.07 223.46,-348.58"/>
</a>
</g>
</g>
<!-- Node25 -->
<g id="Node000025" class="node">
<title>Node25</title>
<g id="a_Node000025"><a xlink:href="classediteurpanovisu_1_1EditeurPanovisu.html#a1bcd1fd5597eaabf567424ac1a947d74" target="_top" xlink:title=" ">
<polygon fill="white" stroke="#666666" points="396.5,-332 219.25,-332 219.25,-300 396.5,-300 396.5,-332"/>
<text xml:space="preserve" text-anchor="start" x="227.25" y="-318.5" font-family="Helvetica,sans-Serif" font-size="10.00">editeurpanovisu.EditeurPanovisu.geti</text>
<text xml:space="preserve" text-anchor="middle" x="307.88" y="-306.5" font-family="Helvetica,sans-Serif" font-size="10.00">NombrePlans</text>
</a>
</g>
</g>
<!-- Node1&#45;&gt;Node25 -->
<g id="edge46_Node000001_Node000025" class="edge">
<title>Node1&#45;&gt;Node25</title>
<g id="a_edge46_Node000001_Node000025"><a xlink:title=" ">
<path fill="none" stroke="#63b8ff" d="M128.55,-257.46C153.07,-267.81 185.86,-281.04 215.5,-291 220.92,-292.82 226.54,-294.61 232.23,-296.33"/>
<polygon fill="#63b8ff" stroke="#63b8ff" points="231.15,-299.66 241.73,-299.15 233.14,-292.95 231.15,-299.66"/>
</a>
</g>
</g>
<!-- Node26 -->
<g id="Node000026" class="node">
<title>Node26</title>
<g id="a_Node000026"><a xlink:href="classediteurpanovisu_1_1EditeurPanovisu.html#a7390817f6f7659fefd1a38e2f4c380d7" target="_top" xlink:title=" ">
<polygon fill="white" stroke="#666666" points="395.38,-282 220.38,-282 220.38,-250 395.38,-250 395.38,-282"/>
<text xml:space="preserve" text-anchor="start" x="228.38" y="-268.5" font-family="Helvetica,sans-Serif" font-size="10.00">editeurpanovisu.EditeurPanovisu.get</text>
<text xml:space="preserve" text-anchor="middle" x="307.88" y="-256.5" font-family="Helvetica,sans-Serif" font-size="10.00">Plans</text>
</a>
</g>
</g>
<!-- Node1&#45;&gt;Node26 -->
<g id="edge47_Node000001_Node000026" class="edge">
<title>Node1&#45;&gt;Node26</title>
<g id="a_edge47_Node000001_Node000026"><a xlink:title=" ">
<path fill="none" stroke="#63b8ff" d="M179.9,-251.31C189.43,-252.41 199.16,-253.54 208.78,-254.65"/>
<polygon fill="#63b8ff" stroke="#63b8ff" points="208.18,-258.11 218.51,-255.78 208.98,-251.15 208.18,-258.11"/>
</a>
</g>
</g>
<!-- Node27 -->
<g id="Node000027" class="node">
<title>Node27</title>
<g id="a_Node000027"><a xlink:href="classediteurpanovisu_1_1EditeurPanovisu.html#adfb911b90e69db0dcb4332ab5832f2b5" target="_top" xlink:title=" ">
<polygon fill="white" stroke="#666666" points="395.38,-232 220.38,-232 220.38,-200 395.38,-200 395.38,-232"/>
<text xml:space="preserve" text-anchor="start" x="228.38" y="-218.5" font-family="Helvetica,sans-Serif" font-size="10.00">editeurpanovisu.EditeurPanovisu.get</text>
<text xml:space="preserve" text-anchor="middle" x="307.88" y="-206.5" font-family="Helvetica,sans-Serif" font-size="10.00">StrCurrentDir</text>
</a>
</g>
</g>
<!-- Node1&#45;&gt;Node27 -->
<g id="edge48_Node000001_Node000027" class="edge">
<title>Node1&#45;&gt;Node27</title>
<g id="a_edge48_Node000001_Node000027"><a xlink:title=" ">
<path fill="none" stroke="#63b8ff" d="M179.9,-230.69C189.43,-229.59 199.16,-228.46 208.78,-227.35"/>
<polygon fill="#63b8ff" stroke="#63b8ff" points="208.98,-230.85 218.51,-226.22 208.18,-223.89 208.98,-230.85"/>
</a>
</g>
</g>
<!-- Node28 -->
<g id="Node000028" class="node">
<title>Node28</title>
<g id="a_Node000028"><a xlink:href="classediteurpanovisu_1_1EditeurPanovisu.html#a948143344d7a90ae50f3d5001a69eef6" target="_top" xlink:title=" ">
<polygon fill="white" stroke="#666666" points="395.38,-182 220.38,-182 220.38,-150 395.38,-150 395.38,-182"/>
<text xml:space="preserve" text-anchor="start" x="228.38" y="-168.5" font-family="Helvetica,sans-Serif" font-size="10.00">editeurpanovisu.EditeurPanovisu.get</text>
<text xml:space="preserve" text-anchor="middle" x="307.88" y="-156.5" font-family="Helvetica,sans-Serif" font-size="10.00">StrRepertTemp</text>
</a>
</g>
</g>
<!-- Node1&#45;&gt;Node28 -->
<g id="edge49_Node000001_Node000028" class="edge">
<title>Node1&#45;&gt;Node28</title>
<g id="a_edge49_Node000001_Node000028"><a xlink:title=" ">
<path fill="none" stroke="#63b8ff" d="M128.55,-224.54C153.07,-214.19 185.86,-200.96 215.5,-191 220.92,-189.18 226.54,-187.39 232.23,-185.67"/>
<polygon fill="#63b8ff" stroke="#63b8ff" points="233.14,-189.05 241.73,-182.85 231.15,-182.34 233.14,-189.05"/>
</a>
</g>
</g>
<!-- Node29 -->
<g id="Node000029" class="node">
<title>Node29</title>
<g id="a_Node000029"><a xlink:href="classediteurpanovisu_1_1EditeurPanovisu.html#a8ea90d4194cbac57625ee94839e2f33a" target="_top" xlink:title=" ">
<polygon fill="white" stroke="#666666" points="396.5,-132 219.25,-132 219.25,-100 396.5,-100 396.5,-132"/>
<text xml:space="preserve" text-anchor="start" x="227.25" y="-118.5" font-family="Helvetica,sans-Serif" font-size="10.00">editeurpanovisu.EditeurPanovisu.seti</text>
<text xml:space="preserve" text-anchor="middle" x="307.88" y="-106.5" font-family="Helvetica,sans-Serif" font-size="10.00">NombrePlans</text>
</a>
</g>
</g>
<!-- Node1&#45;&gt;Node29 -->
<g id="edge50_Node000001_Node000029" class="edge">
<title>Node1&#45;&gt;Node29</title>
<g id="a_edge50_Node000001_Node000029"><a xlink:title=" ">
<path fill="none" stroke="#63b8ff" d="M106.55,-224.68C128.85,-202.57 171.73,-163.31 215.5,-141 218.55,-139.44 221.71,-137.98 224.94,-136.59"/>
<polygon fill="#63b8ff" stroke="#63b8ff" points="226.02,-139.93 234.05,-133.01 223.46,-133.42 226.02,-139.93"/>
</a>
</g>
</g>
<!-- Node30 -->
<g id="Node000030" class="node">
<title>Node30</title>
<g id="a_Node000030"><a xlink:href="classediteurpanovisu_1_1Plan.html#a1fa4274730673e0d0cbdc20f622ae8b7" target="_top" xlink:title=" ">
<polygon fill="white" stroke="#666666" points="369.5,-82 246.25,-82 246.25,-50 369.5,-50 369.5,-82"/>
<text xml:space="preserve" text-anchor="start" x="254.25" y="-68.5" font-family="Helvetica,sans-Serif" font-size="10.00">editeurpanovisu.Plan.set</text>
<text xml:space="preserve" text-anchor="middle" x="307.88" y="-56.5" font-family="Helvetica,sans-Serif" font-size="10.00">StrImagePlan</text>
</a>
</g>
</g>
<!-- Node1&#45;&gt;Node30 -->
<g id="edge51_Node000001_Node000030" class="edge">
<title>Node1&#45;&gt;Node30</title>
<g id="a_edge51_Node000001_Node000030"><a xlink:title=" ">
<path fill="none" stroke="#63b8ff" d="M99.71,-224.65C117.54,-193.67 160.54,-126.39 215.5,-91 221.72,-86.99 228.59,-83.62 235.67,-80.79"/>
<polygon fill="#63b8ff" stroke="#63b8ff" points="236.51,-84.2 244.73,-77.52 234.13,-77.62 236.51,-84.2"/>
</a>
</g>
</g>
<!-- Node31 -->
<g id="Node000031" class="node">
<title>Node31</title>
<g id="a_Node000031"><a xlink:href="classediteurpanovisu_1_1Plan.html#ae5aeab055cbc0f673b98f5cdf60f1237" target="_top" xlink:title=" ">
<polygon fill="white" stroke="#666666" points="369.5,-32 246.25,-32 246.25,0 369.5,0 369.5,-32"/>
<text xml:space="preserve" text-anchor="start" x="254.25" y="-18.5" font-family="Helvetica,sans-Serif" font-size="10.00">editeurpanovisu.Plan.set</text>
<text xml:space="preserve" text-anchor="middle" x="307.88" y="-6.5" font-family="Helvetica,sans-Serif" font-size="10.00">StrLienPlan</text>
</a>
</g>
</g>
<!-- Node1&#45;&gt;Node31 -->
<g id="edge52_Node000001_Node000031" class="edge">
<title>Node1&#45;&gt;Node31</title>
<g id="a_edge52_Node000001_Node000031"><a xlink:title=" ">
<path fill="none" stroke="#63b8ff" d="M96.21,-224.65C109.86,-186.35 149.2,-90.37 215.5,-41 221.53,-36.51 228.31,-32.83 235.39,-29.81"/>
<polygon fill="#63b8ff" stroke="#63b8ff" points="236.39,-33.17 244.51,-26.37 233.92,-26.62 236.39,-33.17"/>
</a>
</g>
</g>
<!-- Node3 -->
<g id="Node000003" class="node">
<title>Node3</title>
<g id="a_Node000003"><a xlink:href="classediteurpanovisu_1_1GestionnairePlanController.html#a0c00558611ee42fef942f5a53081d888" target="_top" xlink:title=" ">
<polygon fill="white" stroke="#666666" points="591.38,-507 449.38,-507 449.38,-475 591.38,-475 591.38,-507"/>
<text xml:space="preserve" text-anchor="start" x="457.38" y="-493.5" font-family="Helvetica,sans-Serif" font-size="10.00">editeurpanovisu.Gestionnaire</text>
<text xml:space="preserve" text-anchor="middle" x="520.38" y="-481.5" font-family="Helvetica,sans-Serif" font-size="10.00">PlanController.afficherPlan</text>
</a>
</g>
</g>
<!-- Node2&#45;&gt;Node3 -->
<g id="edge2_Node000002_Node000003" class="edge">
<title>Node2&#45;&gt;Node3</title>
<g id="a_edge2_Node000002_Node000003"><a xlink:title=" ">
<path fill="none" stroke="#63b8ff" d="M379.26,-474.36C398.04,-476.59 418.5,-479.02 437.83,-481.31"/>
<polygon fill="#63b8ff" stroke="#63b8ff" points="437.21,-484.77 447.55,-482.47 438.03,-477.81 437.21,-484.77"/>
</a>
</g>
</g>
<!-- Node22 -->
<g id="Node000022" class="node">
<title>Node22</title>
<g id="a_Node000022"><a xlink:href="classediteurpanovisu_1_1GestionnairePlanController.html#a65840fa5893e4727e7c1f03ee4adde9e" target="_top" xlink:title=" ">
<polygon fill="white" stroke="#666666" points="604.5,-457 436.25,-457 436.25,-425 604.5,-425 604.5,-457"/>
<text xml:space="preserve" text-anchor="start" x="444.25" y="-443.5" font-family="Helvetica,sans-Serif" font-size="10.00">editeurpanovisu.Gestionnaire</text>
<text xml:space="preserve" text-anchor="middle" x="520.38" y="-431.5" font-family="Helvetica,sans-Serif" font-size="10.00">PlanController.getLblDragDropPlan</text>
</a>
</g>
</g>
<!-- Node2&#45;&gt;Node22 -->
<g id="edge43_Node000002_Node000022" class="edge">
<title>Node2&#45;&gt;Node22</title>
<g id="a_edge43_Node000002_Node000022"><a xlink:title=" ">
<path fill="none" stroke="#63b8ff" d="M379.26,-457.64C393.88,-455.9 409.51,-454.05 424.83,-452.23"/>
<polygon fill="#63b8ff" stroke="#63b8ff" points="424.9,-455.75 434.42,-451.09 424.07,-448.79 424.9,-455.75"/>
</a>
</g>
</g>
<!-- Node4 -->
<g id="Node000004" class="node">
<title>Node4</title>
<g id="a_Node000004"><a xlink:href="classediteurpanovisu_1_1GestionnairePlanController.html#a3e391ad45897cea8e74ed724d7b0a08f" target="_top" xlink:title=" ">
<polygon fill="white" stroke="#666666" points="1837.5,-782 1688,-782 1688,-750 1837.5,-750 1837.5,-782"/>
<text xml:space="preserve" text-anchor="start" x="1696" y="-768.5" font-family="Helvetica,sans-Serif" font-size="10.00">editeurpanovisu.Gestionnaire</text>
<text xml:space="preserve" text-anchor="middle" x="1762.75" y="-756.5" font-family="Helvetica,sans-Serif" font-size="10.00">PlanController.afficheBoussole</text>
</a>
</g>
</g>
<!-- Node3&#45;&gt;Node4 -->
<g id="edge3_Node000003_Node000004" class="edge">
<title>Node3&#45;&gt;Node4</title>
<g id="a_edge3_Node000003_Node000004"><a xlink:title=" ">
<path fill="none" stroke="#63b8ff" d="M528.13,-507.49C543.16,-542.19 582.64,-623.23 640.5,-668 750.53,-753.14 796.63,-772 935.75,-772 935.75,-772 935.75,-772 1349.25,-772 1462.29,-772 1592.73,-769.72 1676.16,-767.97"/>
<polygon fill="#63b8ff" stroke="#63b8ff" points="1676.17,-771.47 1686.1,-767.76 1676.03,-764.47 1676.17,-771.47"/>
</a>
</g>
</g>
<!-- Node5 -->
<g id="Node000005" class="node">
<title>Node5</title>
<g id="a_Node000005"><a xlink:href="classediteurpanovisu_1_1GestionnairePlanController.html#a2edd566ca304172fcd4ab5559dd1738c" target="_top" xlink:title=" ">
<polygon fill="white" stroke="#666666" points="2034.25,-681 1890.75,-681 1890.75,-649 2034.25,-649 2034.25,-681"/>
<text xml:space="preserve" text-anchor="start" x="1898.75" y="-667.5" font-family="Helvetica,sans-Serif" font-size="10.00">editeurpanovisu.Gestionnaire</text>
<text xml:space="preserve" text-anchor="middle" x="1962.5" y="-655.5" font-family="Helvetica,sans-Serif" font-size="10.00">PlanController.getiPlanActuel</text>
</a>
</g>
</g>
<!-- Node3&#45;&gt;Node5 -->
<g id="edge38_Node000003_Node000005" class="edge">
<title>Node3&#45;&gt;Node5</title>
<g id="a_edge38_Node000003_Node000005"><a xlink:title=" ">
<path fill="none" stroke="#63b8ff" d="M524.74,-507.46C534.47,-550.73 566.74,-668.47 640.5,-729 745.68,-815.32 799.68,-810 935.75,-810 935.75,-810 935.75,-810 1557.25,-810 1689.74,-810 1736.38,-850.51 1854.75,-791 1898.06,-769.23 1930.72,-721.26 1947.91,-691.19"/>
<polygon fill="#63b8ff" stroke="#63b8ff" points="1950.83,-693.14 1952.61,-682.7 1944.71,-689.76 1950.83,-693.14"/>
</a>
</g>
</g>
<!-- Node6 -->
<g id="Node000006" class="node">
<title>Node6</title>
<g id="a_Node000006"><a xlink:href="classediteurpanovisu_1_1GestionnairePlanController.html#a3b110caac2b1cd6e082b90c98de22d91" target="_top" xlink:title=" ">
<polygon fill="white" stroke="#666666" points="1634.75,-744 1477.75,-744 1477.75,-712 1634.75,-712 1634.75,-744"/>
<text xml:space="preserve" text-anchor="start" x="1485.75" y="-730.5" font-family="Helvetica,sans-Serif" font-size="10.00">editeurpanovisu.Gestionnaire</text>
<text xml:space="preserve" text-anchor="middle" x="1556.25" y="-718.5" font-family="Helvetica,sans-Serif" font-size="10.00">PlanController.afficheConfigPlan</text>
</a>
</g>
</g>
<!-- Node3&#45;&gt;Node6 -->
<g id="edge5_Node000003_Node000006" class="edge">
<title>Node3&#45;&gt;Node6</title>
<g id="a_edge5_Node000003_Node000006"><a xlink:title=" ">
<path fill="none" stroke="#63b8ff" d="M536.54,-507.45C587.38,-560.72 758.53,-725 935.75,-725 935.75,-725 935.75,-725 1139.38,-725 1252.07,-725 1381.93,-726.12 1466.14,-726.99"/>
<polygon fill="#63b8ff" stroke="#63b8ff" points="1465.9,-730.48 1475.94,-727.09 1465.98,-723.48 1465.9,-730.48"/>
</a>
</g>
</g>
<!-- Node8 -->
<g id="Node000008" class="node">
<title>Node8</title>
<g id="a_Node000008"><a xlink:href="classediteurpanovisu_1_1GestionnairePlanController.html#ac6a814832aad8390d7157032c3f7f107" target="_top" xlink:title=" ">
<polygon fill="white" stroke="#666666" points="1441.75,-542 1254.75,-542 1254.75,-510 1441.75,-510 1441.75,-542"/>
<text xml:space="preserve" text-anchor="start" x="1262.75" y="-528.5" font-family="Helvetica,sans-Serif" font-size="10.00">editeurpanovisu.Gestionnaire</text>
<text xml:space="preserve" text-anchor="middle" x="1348.25" y="-516.5" font-family="Helvetica,sans-Serif" font-size="10.00">PlanController.ajouteAffichageHotspots</text>
</a>
</g>
</g>
<!-- Node3&#45;&gt;Node8 -->
<g id="edge9_Node000003_Node000008" class="edge">
<title>Node3&#45;&gt;Node8</title>
<g id="a_edge9_Node000003_Node000008"><a xlink:title=" ">
<path fill="none" stroke="#63b8ff" d="M575.47,-507.43C595.69,-512.94 618.98,-518.56 640.5,-522 894.54,-562.58 962.41,-569.78 1218.75,-548 1229.58,-547.08 1240.86,-545.73 1252.05,-544.15"/>
<polygon fill="#63b8ff" stroke="#63b8ff" points="1252.31,-547.65 1261.69,-542.72 1251.28,-540.72 1252.31,-547.65"/>
</a>
</g>
</g>
<!-- Node10 -->
<g id="Node000010" class="node">
<title>Node10</title>
<g id="a_Node000010"><a xlink:href="classediteurpanovisu_1_1GestionnairePlanController.html#ae85c33829adf0dab112e4120e0dd2df2" target="_top" xlink:title=" ">
<polygon fill="white" stroke="#666666" points="1854.75,-312 1670.75,-312 1670.75,-280 1854.75,-280 1854.75,-312"/>
<text xml:space="preserve" text-anchor="start" x="1678.75" y="-298.5" font-family="Helvetica,sans-Serif" font-size="10.00">editeurpanovisu.Gestionnaire</text>
<text xml:space="preserve" text-anchor="middle" x="1762.75" y="-286.5" font-family="Helvetica,sans-Serif" font-size="10.00">PlanController.retireAffichageHotSpots</text>
</a>
</g>
</g>
<!-- Node3&#45;&gt;Node10 -->
<g id="edge39_Node000003_Node000010" class="edge">
<title>Node3&#45;&gt;Node10</title>
<g id="a_edge39_Node000003_Node000010"><a xlink:title=" ">
<path fill="none" stroke="#63b8ff" d="M583.45,-474.61C590.67,-472.04 597.83,-469.17 604.5,-466 765.04,-389.76 758.03,-242 935.75,-242 935.75,-242 935.75,-242 1349.25,-242 1476.75,-242 1508.68,-250.97 1634.75,-270 1648.36,-272.05 1662.71,-274.61 1676.68,-277.31"/>
<polygon fill="#63b8ff" stroke="#63b8ff" points="1675.8,-280.71 1686.29,-279.21 1677.16,-273.84 1675.8,-280.71"/>
</a>
</g>
</g>
<!-- Node13 -->
<g id="Node000013" class="node">
<title>Node13</title>
<g id="a_Node000013"><a xlink:href="classediteurpanovisu_1_1GestionnairePlanController.html#a6ca25de825e710388268b0a3ced9d868" target="_top" xlink:title=" ">
<polygon fill="white" stroke="#666666" points="815.5,-513 640.5,-513 640.5,-469 815.5,-469 815.5,-513"/>
<text xml:space="preserve" text-anchor="start" x="648.5" y="-499.5" font-family="Helvetica,sans-Serif" font-size="10.00">editeurpanovisu.Gestionnaire</text>
<text xml:space="preserve" text-anchor="start" x="648.5" y="-487.5" font-family="Helvetica,sans-Serif" font-size="10.00">PlanController.ajouteAffichagePoints</text>
<text xml:space="preserve" text-anchor="middle" x="728" y="-475.5" font-family="Helvetica,sans-Serif" font-size="10.00">Hotspots</text>
</a>
</g>
</g>
<!-- Node3&#45;&gt;Node13 -->
<g id="edge19_Node000003_Node000013" class="edge">
<title>Node3&#45;&gt;Node13</title>
<g id="a_edge19_Node000003_Node000013"><a xlink:title=" ">
<path fill="none" stroke="#63b8ff" d="M591.85,-491C603.78,-491 616.35,-491 628.84,-491"/>
<polygon fill="#63b8ff" stroke="#63b8ff" points="628.74,-494.5 638.74,-491 628.74,-487.5 628.74,-494.5"/>
</a>
</g>
</g>
<!-- Node19 -->
<g id="Node000019" class="node">
<title>Node19</title>
<g id="a_Node000019"><a xlink:href="classediteurpanovisu_1_1GestionnairePlanController.html#a3ab3f1b67b50004fa4ecd51241317dcd" target="_top" xlink:title=" ">
<polygon fill="white" stroke="#666666" points="799,-176 657,-176 657,-144 799,-144 799,-176"/>
<text xml:space="preserve" text-anchor="start" x="665" y="-162.5" font-family="Helvetica,sans-Serif" font-size="10.00">editeurpanovisu.Gestionnaire</text>
<text xml:space="preserve" text-anchor="middle" x="728" y="-150.5" font-family="Helvetica,sans-Serif" font-size="10.00">PlanController.getApPlan</text>
</a>
</g>
</g>
<!-- Node3&#45;&gt;Node19 -->
<g id="edge37_Node000003_Node000019" class="edge">
<title>Node3&#45;&gt;Node19</title>
<g id="a_edge37_Node000003_Node000019"><a xlink:title=" ">
<path fill="none" stroke="#63b8ff" d="M591.87,-476.75C596.59,-473.79 600.89,-470.25 604.5,-466 684.59,-371.72 562.39,-285.93 640.5,-190 642.62,-187.4 644.97,-185.02 647.51,-182.85"/>
<polygon fill="#63b8ff" stroke="#63b8ff" points="649.44,-185.78 655.55,-177.12 645.38,-180.08 649.44,-185.78"/>
</a>
</g>
</g>
<!-- Node20 -->
<g id="Node000020" class="node">
<title>Node20</title>
<g id="a_Node000020"><a xlink:href="classediteurpanovisu_1_1GestionnairePlanController.html#aff1e9a3b2cfc2290d47ef88959714f88" target="_top" xlink:title=" ">
<polygon fill="white" stroke="#666666" points="1022,-138 851.5,-138 851.5,-94 1022,-94 1022,-138"/>
<text xml:space="preserve" text-anchor="start" x="859.5" y="-124.5" font-family="Helvetica,sans-Serif" font-size="10.00">editeurpanovisu.Gestionnaire</text>
<text xml:space="preserve" text-anchor="start" x="859.5" y="-112.5" font-family="Helvetica,sans-Serif" font-size="10.00">PlanController.retireAffichagePoints</text>
<text xml:space="preserve" text-anchor="middle" x="936.75" y="-100.5" font-family="Helvetica,sans-Serif" font-size="10.00">HotSpots</text>
</a>
</g>
</g>
<!-- Node3&#45;&gt;Node20 -->
<g id="edge40_Node000003_Node000020" class="edge">
<title>Node3&#45;&gt;Node20</title>
<g id="a_edge40_Node000003_Node000020"><a xlink:title=" ">
<path fill="none" stroke="#63b8ff" d="M591.77,-476.66C596.51,-473.73 600.85,-470.21 604.5,-466 674.59,-385.18 568.36,-307 640.5,-228 694.5,-168.85 744.89,-222.8 815.5,-185 834.64,-174.76 833.26,-163.77 851.5,-152 856.22,-148.95 861.25,-146.06 866.4,-143.34"/>
<polygon fill="#63b8ff" stroke="#63b8ff" points="867.7,-146.6 875.07,-139 864.57,-140.35 867.7,-146.6"/>
</a>
</g>
</g>
<!-- Node21 -->
<g id="Node000021" class="node">
<title>Node21</title>
<g id="a_Node000021"><a xlink:href="classediteurpanovisu_1_1GestionnairePlanController.html#a2f5a045c16dc044403025b9e0a3d7391" target="_top" xlink:title=" ">
<polygon fill="white" stroke="#666666" points="799.75,-126 656.25,-126 656.25,-94 799.75,-94 799.75,-126"/>
<text xml:space="preserve" text-anchor="start" x="664.25" y="-112.5" font-family="Helvetica,sans-Serif" font-size="10.00">editeurpanovisu.Gestionnaire</text>
<text xml:space="preserve" text-anchor="middle" x="728" y="-100.5" font-family="Helvetica,sans-Serif" font-size="10.00">PlanController.setiPlanActuel</text>
</a>
</g>
</g>
<!-- Node3&#45;&gt;Node21 -->
<g id="edge42_Node000003_Node000021" class="edge">
<title>Node3&#45;&gt;Node21</title>
<g id="a_edge42_Node000003_Node000021"><a xlink:title=" ">
<path fill="none" stroke="#63b8ff" d="M591.59,-477.07C596.43,-474.05 600.84,-470.4 604.5,-466 699.09,-352.2 545.3,-248.29 640.5,-135 642.39,-132.75 644.47,-130.69 646.71,-128.82"/>
<polygon fill="#63b8ff" stroke="#63b8ff" points="648.48,-131.84 654.74,-123.29 644.51,-126.08 648.48,-131.84"/>
</a>
</g>
</g>
<!-- Node4&#45;&gt;Node5 -->
<g id="edge4_Node000004_Node000005" class="edge">
<title>Node4&#45;&gt;Node5</title>
<g id="a_edge4_Node000004_Node000005"><a xlink:title=" ">
<path fill="none" stroke="#63b8ff" d="M1821.48,-749.57C1832.73,-745.64 1844.28,-741.09 1854.75,-736 1882.05,-722.72 1910.56,-703.44 1931.25,-688.32"/>
<polygon fill="#63b8ff" stroke="#63b8ff" points="1933.29,-691.16 1939.23,-682.39 1929.12,-685.54 1933.29,-691.16"/>
</a>
</g>
</g>
<!-- Node6&#45;&gt;Node4 -->
<g id="edge6_Node000006_Node000004" class="edge">
<title>Node6&#45;&gt;Node4</title>
<g id="a_edge6_Node000006_Node000004"><a xlink:title=" ">
<path fill="none" stroke="#63b8ff" d="M1635.15,-742.47C1648.77,-745.01 1663.01,-747.65 1676.82,-750.22"/>
<polygon fill="#63b8ff" stroke="#63b8ff" points="1675.82,-753.59 1686.29,-751.98 1677.1,-746.71 1675.82,-753.59"/>
</a>
</g>
</g>
<!-- Node6&#45;&gt;Node5 -->
<g id="edge7_Node000006_Node000005" class="edge">
<title>Node6&#45;&gt;Node5</title>
<g id="a_edge7_Node000006_Node000005"><a xlink:title=" ">
<path fill="none" stroke="#63b8ff" d="M1635.25,-724.39C1695.63,-720.58 1781.11,-712.94 1854.75,-698 1871.2,-694.66 1888.73,-689.81 1904.72,-684.85"/>
<polygon fill="#63b8ff" stroke="#63b8ff" points="1905.61,-688.24 1914.08,-681.87 1903.49,-681.57 1905.61,-688.24"/>
</a>
</g>
</g>
<!-- Node7 -->
<g id="Node000007" class="node">
<title>Node7</title>
<g id="a_Node000007"><a xlink:href="leaflet_8js.html#a73aff07b65d7c0b09ccf6b4c4f1b7a9d" target="_top" xlink:title=" ">
<polygon fill="white" stroke="#666666" points="1976.9,-366 1948.1,-366 1948.1,-346 1976.9,-346 1976.9,-366"/>
<text xml:space="preserve" text-anchor="middle" x="1962.5" y="-352.5" font-family="Helvetica,sans-Serif" font-size="10.00">i</text>
</a>
</g>
</g>
<!-- Node6&#45;&gt;Node7 -->
<g id="edge8_Node000006_Node000007" class="edge">
<title>Node6&#45;&gt;Node7</title>
<g id="a_edge8_Node000006_Node000007"><a xlink:title=" ">
<path fill="none" stroke="#63b8ff" d="M1578.28,-711.73C1628.13,-672.83 1756.63,-570.55 1854.75,-475 1889.15,-441.49 1925.82,-398.92 1945.97,-374.84"/>
<polygon fill="#63b8ff" stroke="#63b8ff" points="1948.41,-377.38 1952.11,-367.46 1943.03,-372.91 1948.41,-377.38"/>
</a>
</g>
</g>
<!-- Node8&#45;&gt;Node5 -->
<g id="edge16_Node000008_Node000005" class="edge">
<title>Node8&#45;&gt;Node5</title>
<g id="a_edge16_Node000008_Node000005"><a xlink:title=" ">
<path fill="none" stroke="#63b8ff" d="M1442.22,-526.1C1546,-529.01 1717.4,-542.25 1854.75,-594 1884.19,-605.09 1913.67,-625.58 1934.16,-641.71"/>
<polygon fill="#63b8ff" stroke="#63b8ff" points="1931.75,-644.26 1941.73,-647.81 1936.14,-638.81 1931.75,-644.26"/>
</a>
</g>
</g>
<!-- Node9 -->
<g id="Node000009" class="node">
<title>Node9</title>
<g id="a_Node000009"><a xlink:href="classediteurpanovisu_1_1GestionnairePlanController.html#ad4f72bd693b5b3bd93bee89bda000990" target="_top" xlink:title=" ">
<polygon fill="white" stroke="#666666" points="1627.25,-504 1485.25,-504 1485.25,-472 1627.25,-472 1627.25,-504"/>
<text xml:space="preserve" text-anchor="start" x="1493.25" y="-490.5" font-family="Helvetica,sans-Serif" font-size="10.00">editeurpanovisu.Gestionnaire</text>
<text xml:space="preserve" text-anchor="middle" x="1556.25" y="-478.5" font-family="Helvetica,sans-Serif" font-size="10.00">PlanController.affichageHS</text>
</a>
</g>
</g>
<!-- Node8&#45;&gt;Node9 -->
<g id="edge10_Node000008_Node000009" class="edge">
<title>Node8&#45;&gt;Node9</title>
<g id="a_edge10_Node000008_Node000009"><a xlink:title=" ">
<path fill="none" stroke="#63b8ff" d="M1405.54,-509.53C1426.63,-505 1451.03,-500.32 1473.94,-496.38"/>
<polygon fill="#63b8ff" stroke="#63b8ff" points="1474.27,-499.88 1483.55,-494.77 1473.11,-492.98 1474.27,-499.88"/>
</a>
</g>
</g>
<!-- Node12 -->
<g id="Node000012" class="node">
<title>Node12</title>
<g id="a_Node000012"><a xlink:href="classediteurpanovisu_1_1GestionnairePlanController.html#ace9c9d5683a0db9254026f3cb20cedd3" target="_top" xlink:title=" ">
<polygon fill="white" stroke="#666666" points="1627.25,-416 1485.25,-416 1485.25,-384 1627.25,-384 1627.25,-416"/>
<text xml:space="preserve" text-anchor="start" x="1493.25" y="-402.5" font-family="Helvetica,sans-Serif" font-size="10.00">editeurpanovisu.Gestionnaire</text>
<text xml:space="preserve" text-anchor="middle" x="1556.25" y="-390.5" font-family="Helvetica,sans-Serif" font-size="10.00">PlanController.listePano</text>
</a>
</g>
</g>
<!-- Node8&#45;&gt;Node12 -->
<g id="edge17_Node000008_Node000012" class="edge">
<title>Node8&#45;&gt;Node12</title>
<g id="a_edge17_Node000008_Node000012"><a xlink:title=" ">
<path fill="none" stroke="#63b8ff" d="M1424.43,-509.54C1430.47,-507.07 1436.32,-504.24 1441.75,-501 1461.73,-489.08 1460.69,-478.82 1477.75,-463 1492.7,-449.14 1510.27,-434.72 1524.9,-423.18"/>
<polygon fill="#63b8ff" stroke="#63b8ff" points="1526.66,-426.24 1532.38,-417.33 1522.35,-420.73 1526.66,-426.24"/>
</a>
</g>
</g>
<!-- Node9&#45;&gt;Node8 -->
<g id="edge11_Node000009_Node000008" class="edge">
<title>Node9&#45;&gt;Node8</title>
<g id="a_edge11_Node000009_Node000008"><a xlink:title=" ">
<path fill="none" stroke="#63b8ff" d="M1498.98,-504.47C1484.67,-507.54 1468.83,-510.68 1452.97,-513.62"/>
<polygon fill="#63b8ff" stroke="#63b8ff" points="1452.71,-510.11 1443.49,-515.34 1453.96,-516.99 1452.71,-510.11"/>
</a>
</g>
</g>
<!-- Node9&#45;&gt;Node10 -->
<g id="edge12_Node000009_Node000010" class="edge">
<title>Node9&#45;&gt;Node10</title>
<g id="a_edge12_Node000009_Node000010"><a xlink:title=" ">
<path fill="none" stroke="#63b8ff" d="M1578.83,-471.5C1594.68,-459.14 1616.53,-441.56 1634.75,-425 1672.77,-390.43 1714.04,-347.39 1738.89,-320.81"/>
<polygon fill="#63b8ff" stroke="#63b8ff" points="1741.38,-323.27 1745.63,-313.57 1736.25,-318.5 1741.38,-323.27"/>
</a>
</g>
</g>
<!-- Node11 -->
<g id="Node000011" class="node">
<title>Node11</title>
<g id="a_Node000011"><a xlink:href="classediteurpanovisu_1_1GestionnairePlanController.html#ae1523e38be18cc67cdfc275adff5dd18" target="_top" xlink:title=" ">
<polygon fill="white" stroke="#666666" points="1833.75,-466 1691.75,-466 1691.75,-434 1833.75,-434 1833.75,-466"/>
<text xml:space="preserve" text-anchor="start" x="1699.75" y="-452.5" font-family="Helvetica,sans-Serif" font-size="10.00">editeurpanovisu.Gestionnaire</text>
<text xml:space="preserve" text-anchor="middle" x="1762.75" y="-440.5" font-family="Helvetica,sans-Serif" font-size="10.00">PlanController.valideHsplan</text>
</a>
</g>
</g>
<!-- Node9&#45;&gt;Node11 -->
<g id="edge13_Node000009_Node000011" class="edge">
<title>Node9&#45;&gt;Node11</title>
<g id="a_edge13_Node000009_Node000011"><a xlink:title=" ">
<path fill="none" stroke="#63b8ff" d="M1627.63,-474.92C1644.59,-471.77 1662.86,-468.38 1680.28,-465.14"/>
<polygon fill="#63b8ff" stroke="#63b8ff" points="1680.91,-468.58 1690.1,-463.31 1679.63,-461.7 1680.91,-468.58"/>
</a>
</g>
</g>
<!-- Node11&#45;&gt;Node5 -->
<g id="edge14_Node000011_Node000005" class="edge">
<title>Node11&#45;&gt;Node5</title>
<g id="a_edge14_Node000011_Node000005"><a xlink:title=" ">
<path fill="none" stroke="#63b8ff" d="M1789.71,-466.31C1808.87,-479.06 1834.94,-497.92 1854.75,-518 1892.36,-556.13 1927.04,-608.35 1946.14,-639.19"/>
<polygon fill="#63b8ff" stroke="#63b8ff" points="1943,-640.78 1951.2,-647.49 1948.98,-637.13 1943,-640.78"/>
</a>
</g>
</g>
<!-- Node11&#45;&gt;Node7 -->
<g id="edge15_Node000011_Node000007" class="edge">
<title>Node11&#45;&gt;Node7</title>
<g id="a_edge15_Node000011_Node000007"><a xlink:title=" ">
<path fill="none" stroke="#63b8ff" d="M1803.89,-433.52C1819.83,-426.79 1838.27,-418.77 1854.75,-411 1883.66,-397.38 1916.22,-380.35 1937.69,-368.88"/>
<polygon fill="#63b8ff" stroke="#63b8ff" points="1939.35,-371.96 1946.5,-364.15 1936.04,-365.8 1939.35,-371.96"/>
</a>
</g>
</g>
<!-- Node12&#45;&gt;Node7 -->
<g id="edge18_Node000012_Node000007" class="edge">
<title>Node12&#45;&gt;Node7</title>
<g id="a_edge18_Node000012_Node000007"><a xlink:title=" ">
<path fill="none" stroke="#63b8ff" d="M1627.64,-393.5C1687.96,-387.79 1777.14,-379 1854.75,-370 1882.82,-366.74 1914.96,-362.45 1936.58,-359.48"/>
<polygon fill="#63b8ff" stroke="#63b8ff" points="1936.77,-362.99 1946.2,-358.15 1935.81,-356.06 1936.77,-362.99"/>
</a>
</g>
</g>
<!-- Node13&#45;&gt;Node5 -->
<g id="edge35_Node000013_Node000005" class="edge">
<title>Node13&#45;&gt;Node5</title>
<g id="a_edge35_Node000013_Node000005"><a xlink:title=" ">
<path fill="none" stroke="#63b8ff" d="M754.7,-513.14C816.29,-563.83 978.97,-684 1137.38,-684 1137.38,-684 1137.38,-684 1557.25,-684 1668.7,-684 1797.23,-676.71 1878.9,-671.16"/>
<polygon fill="#63b8ff" stroke="#63b8ff" points="1879.1,-674.65 1888.84,-670.47 1878.62,-667.67 1879.1,-674.65"/>
</a>
</g>
</g>
<!-- Node13&#45;&gt;Node7 -->
<g id="edge36_Node000013_Node000007" class="edge">
<title>Node13&#45;&gt;Node7</title>
<g id="a_edge36_Node000013_Node000007"><a xlink:title=" ">
<path fill="none" stroke="#63b8ff" d="M742.08,-468.66C786.93,-395.23 942.56,-166 1137.38,-166 1137.38,-166 1137.38,-166 1557.25,-166 1690.6,-166 1740.57,-136.11 1854.75,-205 1905.9,-235.86 1939.09,-301.63 1953.4,-335.26"/>
<polygon fill="#63b8ff" stroke="#63b8ff" points="1950.08,-336.37 1957.11,-344.3 1956.56,-333.72 1950.08,-336.37"/>
</a>
</g>
</g>
<!-- Node14 -->
<g id="Node000014" class="node">
<title>Node14</title>
<g id="a_Node000014"><a xlink:href="classediteurpanovisu_1_1GestionnairePlanController.html#a2e6f0187e7151e006c001659da532c6e" target="_top" xlink:title=" ">
<polygon fill="white" stroke="#666666" points="1007.75,-507 865.75,-507 865.75,-475 1007.75,-475 1007.75,-507"/>
<text xml:space="preserve" text-anchor="start" x="873.75" y="-493.5" font-family="Helvetica,sans-Serif" font-size="10.00">editeurpanovisu.Gestionnaire</text>
<text xml:space="preserve" text-anchor="middle" x="936.75" y="-481.5" font-family="Helvetica,sans-Serif" font-size="10.00">PlanController.afficheHS</text>
</a>
</g>
</g>
<!-- Node13&#45;&gt;Node14 -->
<g id="edge20_Node000013_Node000014" class="edge">
<title>Node13&#45;&gt;Node14</title>
<g id="a_edge20_Node000013_Node000014"><a xlink:title=" ">
<path fill="none" stroke="#63b8ff" d="M815.78,-491C828.47,-491 841.51,-491 854.09,-491"/>
<polygon fill="#63b8ff" stroke="#63b8ff" points="853.98,-494.5 863.98,-491 853.98,-487.5 853.98,-494.5"/>
</a>
</g>
</g>
<!-- Node14&#45;&gt;Node5 -->
<g id="edge30_Node000014_Node000005" class="edge">
<title>Node14&#45;&gt;Node5</title>
<g id="a_edge30_Node000014_Node000005"><a xlink:title=" ">
<path fill="none" stroke="#63b8ff" d="M955.77,-507.33C978.03,-526.49 1017.9,-557.6 1058,-573 1207,-630.23 1685.46,-654.48 1879.04,-662.12"/>
<polygon fill="#63b8ff" stroke="#63b8ff" points="1878.63,-665.61 1888.76,-662.5 1878.9,-658.61 1878.63,-665.61"/>
</a>
</g>
</g>
<!-- Node14&#45;&gt;Node7 -->
<g id="edge31_Node000014_Node000007" class="edge">
<title>Node14&#45;&gt;Node7</title>
<g id="a_edge31_Node000014_Node000007"><a xlink:title=" ">
<path fill="none" stroke="#63b8ff" d="M944.33,-474.73C959.29,-439.66 999.2,-356.38 1058,-310 1165.5,-225.21 1210.33,-204 1347.25,-204 1347.25,-204 1347.25,-204 1557.25,-204 1692.78,-204 1732.53,-212.42 1854.75,-271 1889.76,-287.78 1923.7,-317.92 1943.59,-337.43"/>
<polygon fill="#63b8ff" stroke="#63b8ff" points="1941.08,-339.87 1950.62,-344.49 1946.04,-334.93 1941.08,-339.87"/>
</a>
</g>
</g>
<!-- Node14&#45;&gt;Node8 -->
<g id="edge29_Node000014_Node000008" class="edge">
<title>Node14&#45;&gt;Node8</title>
<g id="a_edge29_Node000014_Node000008"><a xlink:title=" ">
<path fill="none" stroke="#63b8ff" d="M1007.99,-494.65C1064.89,-497.87 1147.08,-503.12 1218.75,-510 1226.67,-510.76 1234.86,-511.62 1243.09,-512.53"/>
<polygon fill="#63b8ff" stroke="#63b8ff" points="1242.49,-515.98 1252.82,-513.63 1243.28,-509.03 1242.49,-515.98"/>
</a>
</g>
</g>
<!-- Node14&#45;&gt;Node10 -->
<g id="edge32_Node000014_Node000010" class="edge">
<title>Node14&#45;&gt;Node10</title>
<g id="a_edge32_Node000014_Node000010"><a xlink:title=" ">
<path fill="none" stroke="#63b8ff" d="M956.39,-474.69C1002.8,-435.34 1128.84,-335.9 1254.75,-302 1390.96,-265.32 1555.29,-272.21 1659.18,-282.5"/>
<polygon fill="#63b8ff" stroke="#63b8ff" points="1658.79,-285.97 1669.1,-283.51 1659.51,-279.01 1658.79,-285.97"/>
</a>
</g>
</g>
<!-- Node14&#45;&gt;Node11 -->
<g id="edge33_Node000014_Node000011" class="edge">
<title>Node14&#45;&gt;Node11</title>
<g id="a_edge33_Node000014_Node000011"><a xlink:title=" ">
<path fill="none" stroke="#63b8ff" d="M963.77,-507.36C987.35,-521.18 1023.57,-539.98 1058,-548 1224.11,-586.71 1271.99,-567.55 1441.75,-551 1528.76,-542.52 1559.24,-557.07 1634.75,-513 1655.98,-500.61 1649.72,-483.73 1670.75,-471 1673.94,-469.07 1677.29,-467.31 1680.75,-465.72"/>
<polygon fill="#63b8ff" stroke="#63b8ff" points="1682.03,-468.98 1689.99,-461.98 1679.4,-462.49 1682.03,-468.98"/>
</a>
</g>
</g>
<!-- Node15 -->
<g id="Node000015" class="node">
<title>Node15</title>
<g id="a_Node000015"><a xlink:href="classediteurpanovisu_1_1GestionnairePlanController.html#a375ef7ea66bf40c2ad7d973e1a40c065" target="_top" xlink:title=" ">
<polygon fill="white" stroke="#666666" points="1218.75,-460 1058,-460 1058,-416 1218.75,-416 1218.75,-460"/>
<text xml:space="preserve" text-anchor="start" x="1066" y="-446.5" font-family="Helvetica,sans-Serif" font-size="10.00">editeurpanovisu.Gestionnaire</text>
<text xml:space="preserve" text-anchor="start" x="1066" y="-434.5" font-family="Helvetica,sans-Serif" font-size="10.00">PlanController.afficherListePanos</text>
<text xml:space="preserve" text-anchor="middle" x="1138.38" y="-422.5" font-family="Helvetica,sans-Serif" font-size="10.00">Vignettes</text>
</a>
</g>
</g>
<!-- Node14&#45;&gt;Node15 -->
<g id="edge21_Node000014_Node000015" class="edge">
<title>Node14&#45;&gt;Node15</title>
<g id="a_edge21_Node000014_Node000015"><a xlink:title=" ">
<path fill="none" stroke="#63b8ff" d="M999.82,-474.52C1014.7,-470.57 1030.89,-466.27 1046.77,-462.06"/>
<polygon fill="#63b8ff" stroke="#63b8ff" points="1047.46,-465.49 1056.23,-459.54 1045.66,-458.73 1047.46,-465.49"/>
</a>
</g>
</g>
<!-- Node18 -->
<g id="Node000018" class="node">
<title>Node18</title>
<g id="a_Node000018"><a xlink:href="leaflet_8js.html#a873cae0273c5a7d9673544bbe0a6fe8b" target="_top" xlink:title=" ">
<polygon fill="white" stroke="#666666" points="1152.78,-539 1123.97,-539 1123.97,-519 1152.78,-519 1152.78,-539"/>
<text xml:space="preserve" text-anchor="middle" x="1138.38" y="-525.5" font-family="Helvetica,sans-Serif" font-size="10.00">Y</text>
</a>
</g>
</g>
<!-- Node14&#45;&gt;Node18 -->
<g id="edge34_Node000014_Node000018" class="edge">
<title>Node14&#45;&gt;Node18</title>
<g id="a_edge34_Node000014_Node000018"><a xlink:title=" ">
<path fill="none" stroke="#63b8ff" d="M1008.13,-504.4C1044.57,-511.33 1086.75,-519.36 1112.75,-524.31"/>
<polygon fill="#63b8ff" stroke="#63b8ff" points="1111.83,-527.7 1122.31,-526.13 1113.14,-520.82 1111.83,-527.7"/>
</a>
</g>
</g>
<!-- Node15&#45;&gt;Node5 -->
<g id="edge23_Node000015_Node000005" class="edge">
<title>Node15&#45;&gt;Node5</title>
<g id="a_edge23_Node000015_Node000005"><a xlink:title=" ">
<path fill="none" stroke="#63b8ff" d="M1165.44,-460.31C1181.27,-474.18 1201.66,-492.63 1218.75,-510 1235.76,-527.29 1233.38,-539.54 1254.75,-551 1491.89,-678.16 1591.98,-574.07 1854.75,-632 1870.76,-635.53 1887.83,-640.32 1903.52,-645.16"/>
<polygon fill="#63b8ff" stroke="#63b8ff" points="1902.09,-648.39 1912.68,-648.05 1904.2,-641.71 1902.09,-648.39"/>
</a>
</g>
</g>
<!-- Node15&#45;&gt;Node7 -->
<g id="edge24_Node000015_Node000007" class="edge">
<title>Node15&#45;&gt;Node7</title>
<g id="a_edge24_Node000015_Node000007"><a xlink:title=" ">
<path fill="none" stroke="#63b8ff" d="M1219.22,-419.75C1287.48,-404.97 1388.53,-385 1477.75,-375 1652.67,-355.39 1865.14,-355.15 1936.66,-355.71"/>
<polygon fill="#63b8ff" stroke="#63b8ff" points="1936.43,-359.21 1946.47,-355.8 1936.5,-352.21 1936.43,-359.21"/>
</a>
</g>
</g>
<!-- Node15&#45;&gt;Node8 -->
<g id="edge22_Node000015_Node000008" class="edge">
<title>Node15&#45;&gt;Node8</title>
<g id="a_edge22_Node000015_Node000008"><a xlink:title=" ">
<path fill="none" stroke="#63b8ff" d="M1187.34,-460.3C1197.83,-465.53 1208.77,-471.25 1218.75,-477 1235.42,-486.59 1237.24,-493.05 1254.75,-501 1258.45,-502.68 1262.29,-504.27 1266.2,-505.76"/>
<polygon fill="#63b8ff" stroke="#63b8ff" points="1264.68,-508.94 1275.28,-509.01 1267.04,-502.34 1264.68,-508.94"/>
</a>
</g>
</g>
<!-- Node15&#45;&gt;Node10 -->
<g id="edge26_Node000015_Node000010" class="edge">
<title>Node15&#45;&gt;Node10</title>
<g id="a_edge26_Node000015_Node000010"><a xlink:title=" ">
<path fill="none" stroke="#63b8ff" d="M1157.04,-415.71C1177.62,-391.56 1214.05,-354.2 1254.75,-337 1325.22,-307.22 1532.56,-298.97 1659.21,-296.75"/>
<polygon fill="#63b8ff" stroke="#63b8ff" points="1658.99,-300.25 1668.93,-296.59 1658.88,-293.25 1658.99,-300.25"/>
</a>
</g>
</g>
<!-- Node15&#45;&gt;Node11 -->
<g id="edge28_Node000015_Node000011" class="edge">
<title>Node15&#45;&gt;Node11</title>
<g id="a_edge28_Node000015_Node000011"><a xlink:title=" ">
<path fill="none" stroke="#63b8ff" d="M1219.15,-439.54C1337.99,-441.83 1560.35,-446.12 1680.21,-448.43"/>
<polygon fill="#63b8ff" stroke="#63b8ff" points="1679.9,-451.92 1689.97,-448.62 1680.04,-444.92 1679.9,-451.92"/>
</a>
</g>
</g>
<!-- Node16 -->
<g id="Node000016" class="node">
<title>Node16</title>
<g id="a_Node000016"><a xlink:href="leaflet_8js.html#abf5830200d869e463ea38504a19985f6" target="_top" xlink:title=" ">
<polygon fill="white" stroke="#666666" points="1363,-366 1333.5,-366 1333.5,-346 1363,-346 1363,-366"/>
<text xml:space="preserve" text-anchor="middle" x="1348.25" y="-352.5" font-family="Helvetica,sans-Serif" font-size="10.00">me</text>
</a>
</g>
</g>
<!-- Node15&#45;&gt;Node16 -->
<g id="edge25_Node000015_Node000016" class="edge">
<title>Node15&#45;&gt;Node16</title>
<g id="a_edge25_Node000015_Node000016"><a xlink:title=" ">
<path fill="none" stroke="#63b8ff" d="M1178.75,-415.59C1200.62,-403.81 1228.63,-389.83 1254.75,-380 1276.91,-371.66 1303.12,-365.16 1321.97,-361.04"/>
<polygon fill="#63b8ff" stroke="#63b8ff" points="1322.63,-364.48 1331.69,-358.99 1321.19,-357.63 1322.63,-364.48"/>
</a>
</g>
</g>
<!-- Node17 -->
<g id="Node000017" class="node">
<title>Node17</title>
<g id="a_Node000017"><a xlink:href="classediteurpanovisu_1_1GestionnairePlanController.html#a2f1b683e1be605730a62f963e130bdc2" target="_top" xlink:title=" ">
<polygon fill="white" stroke="#666666" points="1439.88,-492 1256.62,-492 1256.62,-460 1439.88,-460 1439.88,-492"/>
<text xml:space="preserve" text-anchor="start" x="1264.62" y="-478.5" font-family="Helvetica,sans-Serif" font-size="10.00">editeurpanovisu.Gestionnaire</text>
<text xml:space="preserve" text-anchor="middle" x="1348.25" y="-466.5" font-family="Helvetica,sans-Serif" font-size="10.00">PlanController.setStrPlanListeVignette</text>
</a>
</g>
</g>
<!-- Node15&#45;&gt;Node17 -->
<g id="edge27_Node000015_Node000017" class="edge">
<title>Node15&#45;&gt;Node17</title>
<g id="a_edge27_Node000015_Node000017"><a xlink:title=" ">
<path fill="none" stroke="#63b8ff" d="M1219.15,-452.58C1228.02,-454.21 1237.14,-455.87 1246.24,-457.53"/>
<polygon fill="#63b8ff" stroke="#63b8ff" points="1245.34,-460.93 1255.8,-459.28 1246.59,-454.04 1245.34,-460.93"/>
</a>
</g>
</g>
<!-- Node20&#45;&gt;Node7 -->
<g id="edge41_Node000020_Node000007" class="edge">
<title>Node20&#45;&gt;Node7</title>
<g id="a_edge41_Node000020_Node000007"><a xlink:title=" ">
<path fill="none" stroke="#63b8ff" d="M1022.45,-117.96C1105.25,-119.71 1234.91,-122 1347.25,-122 1347.25,-122 1347.25,-122 1557.25,-122 1690.14,-122 1744.67,-77.56 1854.75,-152 1919.55,-195.82 1947.66,-291.84 1957.31,-334.66"/>
<polygon fill="#63b8ff" stroke="#63b8ff" points="1953.83,-335.14 1959.33,-344.2 1960.68,-333.69 1953.83,-335.14"/>
</a>
</g>
</g>
</g>
</svg>
