<?xml version="1.0" encoding="UTF-8" standalone="no"?>
<!DOCTYPE svg PUBLIC "-//W3C//DTD SVG 1.1//EN"
 "http://www.w3.org/Graphics/SVG/1.1/DTD/svg11.dtd">
<!-- Generated by graphviz version 13.1.2 (20250808.2320)
 -->
<!-- Title: editeurpanovisu.ZoneTelecommande.getStrTypeZone Pages: 1 -->
<svg width="1358pt" height="203pt"
 viewBox="0.00 0.00 1358.00 203.00" xmlns="http://www.w3.org/2000/svg" xmlns:xlink="http://www.w3.org/1999/xlink">
<g id="graph0" class="graph" transform="scale(1 1) rotate(0) translate(4 199)">
<title>editeurpanovisu.ZoneTelecommande.getStrTypeZone</title>
<!-- Node1 -->
<g id="Node000001" class="node">
<title>Node1</title>
<g id="a_Node000001"><a xlink:title=" ">
<polygon fill="#999999" stroke="#666666" points="1350,-111 1158.5,-111 1158.5,-79 1350,-79 1350,-111"/>
<text xml:space="preserve" text-anchor="start" x="1166.5" y="-97.5" font-family="Helvetica,sans-Serif" font-size="10.00">editeurpanovisu.ZoneTelecommande.get</text>
<text xml:space="preserve" text-anchor="middle" x="1254.25" y="-85.5" font-family="Helvetica,sans-Serif" font-size="10.00">StrTypeZone</text>
</a>
</g>
</g>
<!-- Node2 -->
<g id="Node000002" class="node">
<title>Node2</title>
<g id="a_Node000002"><a xlink:href="classediteurpanovisu_1_1EditeurPanovisu.html#a29d4d3ebbb92f066b5e8218cac9fb791" target="_top" xlink:title=" ">
<polygon fill="white" stroke="#666666" points="1122.12,-89 932.12,-89 932.12,-57 1122.12,-57 1122.12,-89"/>
<text xml:space="preserve" text-anchor="start" x="940.12" y="-75.5" font-family="Helvetica,sans-Serif" font-size="10.00">editeurpanovisu.EditeurPanovisu.affiche</text>
<text xml:space="preserve" text-anchor="middle" x="1027.12" y="-63.5" font-family="Helvetica,sans-Serif" font-size="10.00">BarrePersonnalisee</text>
</a>
</g>
</g>
<!-- Node1&#45;&gt;Node2 -->
<g id="edge1_Node000001_Node000002" class="edge">
<title>Node1&#45;&gt;Node2</title>
<g id="a_edge1_Node000001_Node000002"><a xlink:title=" ">
<path fill="none" stroke="#63b8ff" d="M1146.74,-84.59C1138.67,-83.8 1130.56,-83.01 1122.57,-82.23"/>
<polygon fill="#63b8ff" stroke="#63b8ff" points="1146.3,-88.07 1156.6,-85.55 1146.98,-81.1 1146.3,-88.07"/>
</a>
</g>
</g>
<!-- Node8 -->
<g id="Node000008" class="node">
<title>Node8</title>
<g id="a_Node000008"><a xlink:href="classediteurpanovisu_1_1EditeurPanovisu.html#a9dfe2ee4acc820595c5d1a6cd40ba0ae" target="_top" xlink:title=" ">
<polygon fill="white" stroke="#666666" points="892.75,-127 686.25,-127 686.25,-107 892.75,-107 892.75,-127"/>
<text xml:space="preserve" text-anchor="middle" x="789.5" y="-113.5" font-family="Helvetica,sans-Serif" font-size="10.00">editeurpanovisu.EditeurPanovisu.choixZone</text>
</a>
</g>
</g>
<!-- Node1&#45;&gt;Node8 -->
<g id="edge10_Node000001_Node000008" class="edge">
<title>Node1&#45;&gt;Node8</title>
<g id="a_edge10_Node000001_Node000008"><a xlink:title=" ">
<path fill="none" stroke="#63b8ff" d="M1147.15,-100.04C1070.85,-103.67 968.52,-108.54 893.05,-112.12"/>
<polygon fill="#63b8ff" stroke="#63b8ff" points="1146.87,-103.56 1156.7,-99.59 1146.54,-96.57 1146.87,-103.56"/>
</a>
</g>
</g>
<!-- Node9 -->
<g id="Node000009" class="node">
<title>Node9</title>
<g id="a_Node000009"><a xlink:href="classediteurpanovisu_1_1EditeurPanovisu.html#a94e36b9e9d09ab1a4c852b8a8cefa927" target="_top" xlink:title=" ">
<polygon fill="white" stroke="#666666" points="647.25,-32 456.5,-32 456.5,0 647.25,0 647.25,-32"/>
<text xml:space="preserve" text-anchor="start" x="464.5" y="-18.5" font-family="Helvetica,sans-Serif" font-size="10.00">editeurpanovisu.EditeurPanovisu.genere</text>
<text xml:space="preserve" text-anchor="middle" x="551.88" y="-6.5" font-family="Helvetica,sans-Serif" font-size="10.00">Visite</text>
</a>
</g>
</g>
<!-- Node1&#45;&gt;Node9 -->
<g id="edge11_Node000001_Node000009" class="edge">
<title>Node1&#45;&gt;Node9</title>
<g id="a_edge11_Node000001_Node000009"><a xlink:title=" ">
<path fill="none" stroke="#63b8ff" d="M1206.16,-74.34C1181.7,-64.57 1151.02,-53.8 1122.5,-48 957.98,-14.55 761.6,-11.36 647.68,-13.03"/>
<polygon fill="#63b8ff" stroke="#63b8ff" points="1204.61,-77.49 1215.19,-78.02 1207.25,-71 1204.61,-77.49"/>
</a>
</g>
</g>
<!-- Node10 -->
<g id="Node000010" class="node">
<title>Node10</title>
<g id="a_Node000010"><a xlink:href="classediteurpanovisu_1_1EditeurPanovisu.html#aacaed302ce38e3b0336bc9707a862399" target="_top" xlink:title=" ">
<polygon fill="white" stroke="#666666" points="1122.5,-177 931.75,-177 931.75,-145 1122.5,-145 1122.5,-177"/>
<text xml:space="preserve" text-anchor="start" x="939.75" y="-163.5" font-family="Helvetica,sans-Serif" font-size="10.00">editeurpanovisu.EditeurPanovisu.sauver</text>
<text xml:space="preserve" text-anchor="middle" x="1027.12" y="-151.5" font-family="Helvetica,sans-Serif" font-size="10.00">Barre</text>
</a>
</g>
</g>
<!-- Node1&#45;&gt;Node10 -->
<g id="edge13_Node000001_Node000010" class="edge">
<title>Node1&#45;&gt;Node10</title>
<g id="a_edge13_Node000001_Node000010"><a xlink:title=" ">
<path fill="none" stroke="#63b8ff" d="M1186.23,-114.65C1153.66,-124.2 1114.98,-135.54 1084.03,-144.61"/>
<polygon fill="#63b8ff" stroke="#63b8ff" points="1186.96,-118.08 1195.57,-111.91 1184.99,-111.36 1186.96,-118.08"/>
</a>
</g>
</g>
<!-- Node3 -->
<g id="Node000003" class="node">
<title>Node3</title>
<g id="a_Node000003"><a xlink:href="classediteurpanovisu_1_1EditeurPanovisu.html#a62659844e352ea62b111ae5f3d4d544f" target="_top" xlink:title=" ">
<polygon fill="white" stroke="#666666" points="895.75,-89 683.25,-89 683.25,-69 895.75,-69 895.75,-89"/>
<text xml:space="preserve" text-anchor="middle" x="789.5" y="-75.5" font-family="Helvetica,sans-Serif" font-size="10.00">editeurpanovisu.EditeurPanovisu.ajouterZone</text>
</a>
</g>
</g>
<!-- Node2&#45;&gt;Node3 -->
<g id="edge2_Node000002_Node000003" class="edge">
<title>Node2&#45;&gt;Node3</title>
<g id="a_edge2_Node000002_Node000003"><a xlink:title=" ">
<path fill="none" stroke="#63b8ff" d="M920.37,-75.69C912.34,-75.9 904.24,-76.1 896.22,-76.31"/>
<polygon fill="#63b8ff" stroke="#63b8ff" points="920.22,-79.2 930.13,-75.44 920.05,-72.2 920.22,-79.2"/>
</a>
</g>
</g>
<!-- Node4 -->
<g id="Node000004" class="node">
<title>Node4</title>
<g id="a_Node000004"><a xlink:href="classediteurpanovisu_1_1EditeurPanovisu.html#ac5533ea4201b09e116eb56a3477513c3" target="_top" xlink:title=" ">
<polygon fill="white" stroke="#666666" points="643.5,-88 460.25,-88 460.25,-56 643.5,-56 643.5,-88"/>
<text xml:space="preserve" text-anchor="start" x="468.25" y="-74.5" font-family="Helvetica,sans-Serif" font-size="10.00">editeurpanovisu.EditeurPanovisu.creer</text>
<text xml:space="preserve" text-anchor="middle" x="551.88" y="-62.5" font-family="Helvetica,sans-Serif" font-size="10.00">EditerBarre</text>
</a>
</g>
</g>
<!-- Node2&#45;&gt;Node4 -->
<g id="edge9_Node000002_Node000004" class="edge">
<title>Node2&#45;&gt;Node4</title>
<g id="a_edge9_Node000002_Node000004"><a xlink:title=" ">
<path fill="none" stroke="#63b8ff" d="M920.46,-61.57C912.11,-60.94 903.79,-60.4 895.75,-60 801.42,-55.31 777.6,-55.67 683.25,-60 670.53,-60.58 657.14,-61.49 643.98,-62.54"/>
<polygon fill="#63b8ff" stroke="#63b8ff" points="920.1,-65.05 930.35,-62.36 920.66,-58.07 920.1,-65.05"/>
</a>
</g>
</g>
<!-- Node2&#45;&gt;Node8 -->
<g id="edge7_Node000002_Node000008" class="edge">
<title>Node2&#45;&gt;Node8</title>
<g id="a_edge7_Node000002_Node000008"><a xlink:title=" ">
<path fill="none" stroke="#63b8ff" d="M920.7,-84.34C912.26,-85.91 903.86,-87.49 895.75,-89 866.36,-94.47 832.31,-100.57 811.08,-106.59"/>
<polygon fill="#63b8ff" stroke="#63b8ff" points="921.11,-87.83 930.31,-82.56 919.84,-80.94 921.11,-87.83"/>
</a>
</g>
</g>
<!-- Node3&#45;&gt;Node4 -->
<g id="edge3_Node000003_Node000004" class="edge">
<title>Node3&#45;&gt;Node4</title>
<g id="a_edge3_Node000003_Node000004"><a xlink:title=" ">
<path fill="none" stroke="#63b8ff" d="M671.69,-75.53C662.32,-75.25 652.94,-74.97 643.8,-74.7"/>
<polygon fill="#63b8ff" stroke="#63b8ff" points="671.48,-79.02 681.58,-75.82 671.69,-72.03 671.48,-79.02"/>
</a>
</g>
</g>
<!-- Node5 -->
<g id="Node000005" class="node">
<title>Node5</title>
<g id="a_Node000005"><a xlink:href="classediteurpanovisu_1_1GestionnaireInterfaceController.html#ac7fa988dc99d8684686127a2269cd66e" target="_top" xlink:title=" ">
<polygon fill="white" stroke="#666666" points="396.5,-88 240.25,-88 240.25,-56 396.5,-56 396.5,-88"/>
<text xml:space="preserve" text-anchor="start" x="248.25" y="-74.5" font-family="Helvetica,sans-Serif" font-size="10.00">editeurpanovisu.Gestionnaire</text>
<text xml:space="preserve" text-anchor="middle" x="318.38" y="-62.5" font-family="Helvetica,sans-Serif" font-size="10.00">InterfaceController.creeInterface</text>
</a>
</g>
</g>
<!-- Node4&#45;&gt;Node5 -->
<g id="edge4_Node000004_Node000005" class="edge">
<title>Node4&#45;&gt;Node5</title>
<g id="a_edge4_Node000004_Node000005"><a xlink:title=" ">
<path fill="none" stroke="#63b8ff" d="M448.68,-72C431.28,-72 413.46,-72 396.83,-72"/>
<polygon fill="#63b8ff" stroke="#63b8ff" points="448.53,-75.5 458.53,-72 448.53,-68.5 448.53,-75.5"/>
</a>
</g>
</g>
<!-- Node6 -->
<g id="Node000006" class="node">
<title>Node6</title>
<g id="a_Node000006"><a xlink:href="classediteurpanovisu_1_1EditeurPanovisu.html#ac912b80c1f2ac97def60ff005c5c480b" target="_top" xlink:title=" ">
<polygon fill="white" stroke="#666666" points="420.5,-35 216.25,-35 216.25,-15 420.5,-15 420.5,-35"/>
<text xml:space="preserve" text-anchor="middle" x="318.38" y="-21.5" font-family="Helvetica,sans-Serif" font-size="10.00">editeurpanovisu.EditeurPanovisu.creeMenu</text>
</a>
</g>
</g>
<!-- Node4&#45;&gt;Node6 -->
<g id="edge5_Node000004_Node000006" class="edge">
<title>Node4&#45;&gt;Node6</title>
<g id="a_edge5_Node000004_Node000006"><a xlink:title=" ">
<path fill="none" stroke="#63b8ff" d="M458.99,-53.35C429.06,-47.27 396.89,-40.74 370.99,-35.48"/>
<polygon fill="#63b8ff" stroke="#63b8ff" points="457.93,-56.7 468.42,-55.26 459.32,-49.84 457.93,-56.7"/>
</a>
</g>
</g>
<!-- Node7 -->
<g id="Node000007" class="node">
<title>Node7</title>
<g id="a_Node000007"><a xlink:href="classediteurpanovisu_1_1EditeurPanovisu.html#a86c393eee88f54c694db994ddd85b90d" target="_top" xlink:title=" ">
<polygon fill="white" stroke="#666666" points="180.25,-41 0,-41 0,-9 180.25,-9 180.25,-41"/>
<text xml:space="preserve" text-anchor="start" x="8" y="-27.5" font-family="Helvetica,sans-Serif" font-size="10.00">editeurpanovisu.EditeurPanovisu.cree</text>
<text xml:space="preserve" text-anchor="middle" x="90.12" y="-15.5" font-family="Helvetica,sans-Serif" font-size="10.00">Environnement</text>
</a>
</g>
</g>
<!-- Node6&#45;&gt;Node7 -->
<g id="edge6_Node000006_Node000007" class="edge">
<title>Node6&#45;&gt;Node7</title>
<g id="a_edge6_Node000006_Node000007"><a xlink:title=" ">
<path fill="none" stroke="#63b8ff" d="M204.51,-25C196.49,-25 188.46,-25 180.6,-25"/>
<polygon fill="#63b8ff" stroke="#63b8ff" points="204.32,-28.5 214.32,-25 204.32,-21.5 204.32,-28.5"/>
</a>
</g>
</g>
<!-- Node8&#45;&gt;Node2 -->
<g id="edge8_Node000008_Node000002" class="edge">
<title>Node8&#45;&gt;Node2</title>
<g id="a_edge8_Node000008_Node000002"><a xlink:title=" ">
<path fill="none" stroke="#63b8ff" d="M904.1,-105.44C932,-100.2 959.8,-94.75 982.09,-89.47"/>
<polygon fill="#63b8ff" stroke="#63b8ff" points="903.67,-101.96 894.49,-107.23 904.96,-108.84 903.67,-101.96"/>
</a>
</g>
</g>
<!-- Node9&#45;&gt;Node6 -->
<g id="edge12_Node000009_Node000006" class="edge">
<title>Node9&#45;&gt;Node6</title>
<g id="a_edge12_Node000009_Node000006"><a xlink:title=" ">
<path fill="none" stroke="#63b8ff" d="M444.81,-20.12C436.83,-20.43 428.78,-20.75 420.83,-21.06"/>
<polygon fill="#63b8ff" stroke="#63b8ff" points="444.68,-23.63 454.53,-19.75 444.41,-16.64 444.68,-23.63"/>
</a>
</g>
</g>
<!-- Node10&#45;&gt;Node4 -->
<g id="edge14_Node000010_Node000004" class="edge">
<title>Node10&#45;&gt;Node4</title>
<g id="a_edge14_Node000010_Node000004"><a xlink:title=" ">
<path fill="none" stroke="#63b8ff" d="M920.11,-163.64C851.46,-162.83 760.74,-156.99 683.25,-136 644.8,-125.58 604.15,-103.65 578.66,-88.38"/>
<polygon fill="#63b8ff" stroke="#63b8ff" points="919.83,-167.13 929.85,-163.71 919.88,-160.13 919.83,-167.13"/>
</a>
</g>
</g>
<!-- Node10&#45;&gt;Node10 -->
<g id="edge15_Node000010_Node000010" class="edge">
<title>Node10&#45;&gt;Node10</title>
<g id="a_edge15_Node000010_Node000010"><a xlink:title=" ">
<path fill="none" stroke="#63b8ff" d="M1065.24,-188.54C1059.02,-192.41 1046.32,-195 1027.12,-195 992.52,-195 979.01,-186.58 986.58,-177.44"/>
<polygon fill="#63b8ff" stroke="#63b8ff" points="1068.63,-189.44 1067.35,-178.92 1061.79,-187.94 1068.63,-189.44"/>
</a>
</g>
</g>
</g>
</svg>
