<?xml version="1.0" encoding="UTF-8" standalone="no"?>
<!DOCTYPE svg PUBLIC "-//W3C//DTD SVG 1.1//EN"
 "http://www.w3.org/Graphics/SVG/1.1/DTD/svg11.dtd">
<!-- Generated by graphviz version 13.1.2 (20250808.2320)
 -->
<!-- Title: editeurpanovisu.NavigateurOpenLayersSeul.valideBingApiKey Pages: 1 -->
<svg width="638pt" height="140pt"
 viewBox="0.00 0.00 638.00 140.00" xmlns="http://www.w3.org/2000/svg" xmlns:xlink="http://www.w3.org/1999/xlink">
<g id="graph0" class="graph" transform="scale(1 1) rotate(0) translate(4 136)">
<title>editeurpanovisu.NavigateurOpenLayersSeul.valideBingApiKey</title>
<!-- Node1 -->
<g id="Node000001" class="node">
<title>Node1</title>
<g id="a_Node000001"><a xlink:title=" ">
<polygon fill="#999999" stroke="#666666" points="167.5,-63 0,-63 0,-31 167.5,-31 167.5,-63"/>
<text xml:space="preserve" text-anchor="start" x="8" y="-49.5" font-family="Helvetica,sans-Serif" font-size="10.00">editeurpanovisu.Navigateur</text>
<text xml:space="preserve" text-anchor="middle" x="83.75" y="-37.5" font-family="Helvetica,sans-Serif" font-size="10.00">OpenLayersSeul.valideBingApiKey</text>
</a>
</g>
</g>
<!-- Node2 -->
<g id="Node000002" class="node">
<title>Node2</title>
<g id="a_Node000002"><a xlink:href="classediteurpanovisu_1_1NavigateurOpenLayersSeul.html#a6a948b85fe184214f9e5d7b774807b6a" target="_top" xlink:title=" ">
<polygon fill="white" stroke="#666666" points="396.5,-88 203.5,-88 203.5,-56 396.5,-56 396.5,-88"/>
<text xml:space="preserve" text-anchor="start" x="211.5" y="-74.5" font-family="Helvetica,sans-Serif" font-size="10.00">editeurpanovisu.Navigateur</text>
<text xml:space="preserve" text-anchor="middle" x="300" y="-62.5" font-family="Helvetica,sans-Serif" font-size="10.00">OpenLayersSeul.afficheCartesOpenlayer</text>
</a>
</g>
</g>
<!-- Node1&#45;&gt;Node2 -->
<g id="edge1_Node000001_Node000002" class="edge">
<title>Node1&#45;&gt;Node2</title>
<g id="a_edge1_Node000001_Node000002"><a xlink:title=" ">
<path fill="none" stroke="#63b8ff" d="M167.89,-56.7C175.73,-57.62 183.74,-58.55 191.76,-59.49"/>
<polygon fill="#63b8ff" stroke="#63b8ff" points="191.23,-62.95 201.57,-60.63 192.04,-56 191.23,-62.95"/>
</a>
</g>
</g>
<!-- Node6 -->
<g id="Node000006" class="node">
<title>Node6</title>
<g id="a_Node000006"><a xlink:href="classediteurpanovisu_1_1EditeurPanovisu.html#a35c5891ab1f55857083aa68114ddfa9c" target="_top" xlink:title=" ">
<polygon fill="white" stroke="#666666" points="387.5,-38 212.5,-38 212.5,-6 387.5,-6 387.5,-38"/>
<text xml:space="preserve" text-anchor="start" x="220.5" y="-24.5" font-family="Helvetica,sans-Serif" font-size="10.00">editeurpanovisu.EditeurPanovisu.get</text>
<text xml:space="preserve" text-anchor="middle" x="300" y="-12.5" font-family="Helvetica,sans-Serif" font-size="10.00">StrBingAPIKey</text>
</a>
</g>
</g>
<!-- Node1&#45;&gt;Node6 -->
<g id="edge5_Node000001_Node000006" class="edge">
<title>Node1&#45;&gt;Node6</title>
<g id="a_edge5_Node000001_Node000006"><a xlink:title=" ">
<path fill="none" stroke="#63b8ff" d="M167.89,-37.3C178.63,-36.05 189.71,-34.75 200.66,-33.47"/>
<polygon fill="#63b8ff" stroke="#63b8ff" points="200.98,-36.96 210.51,-32.33 200.17,-30.01 200.98,-36.96"/>
</a>
</g>
</g>
<!-- Node3 -->
<g id="Node000003" class="node">
<title>Node3</title>
<g id="a_Node000003"><a xlink:href="classediteurpanovisu_1_1NavigateurOpenLayersSeul.html#a1cb799707003704efddbfbba74024e7d" target="_top" xlink:title=" ">
<polygon fill="white" stroke="#666666" points="630,-132 432.5,-132 432.5,-100 630,-100 630,-132"/>
<text xml:space="preserve" text-anchor="start" x="440.5" y="-118.5" font-family="Helvetica,sans-Serif" font-size="10.00">editeurpanovisu.Navigateur</text>
<text xml:space="preserve" text-anchor="middle" x="531.25" y="-106.5" font-family="Helvetica,sans-Serif" font-size="10.00">OpenLayersSeul.getApChoixCartographie</text>
</a>
</g>
</g>
<!-- Node2&#45;&gt;Node3 -->
<g id="edge2_Node000002_Node000003" class="edge">
<title>Node2&#45;&gt;Node3</title>
<g id="a_edge2_Node000002_Node000003"><a xlink:title=" ">
<path fill="none" stroke="#63b8ff" d="M386.69,-88.45C401.84,-91.35 417.7,-94.4 433.14,-97.36"/>
<polygon fill="#63b8ff" stroke="#63b8ff" points="432.32,-100.77 442.8,-99.21 433.63,-93.89 432.32,-100.77"/>
</a>
</g>
</g>
<!-- Node4 -->
<g id="Node000004" class="node">
<title>Node4</title>
<g id="a_Node000004"><a xlink:href="leaflet_8js.html#a73aff07b65d7c0b09ccf6b4c4f1b7a9d" target="_top" xlink:title=" ">
<polygon fill="white" stroke="#666666" points="545.65,-82 516.85,-82 516.85,-62 545.65,-62 545.65,-82"/>
<text xml:space="preserve" text-anchor="middle" x="531.25" y="-68.5" font-family="Helvetica,sans-Serif" font-size="10.00">i</text>
</a>
</g>
</g>
<!-- Node2&#45;&gt;Node4 -->
<g id="edge3_Node000002_Node000004" class="edge">
<title>Node2&#45;&gt;Node4</title>
<g id="a_edge3_Node000002_Node000004"><a xlink:title=" ">
<path fill="none" stroke="#63b8ff" d="M396.89,-72C436.33,-72 478.81,-72 504.96,-72"/>
<polygon fill="#63b8ff" stroke="#63b8ff" points="504.9,-75.5 514.9,-72 504.9,-68.5 504.9,-75.5"/>
</a>
</g>
</g>
<!-- Node5 -->
<g id="Node000005" class="node">
<title>Node5</title>
<g id="a_Node000005"><a xlink:href="classediteurpanovisu_1_1NavigateurOpenLayersSeul.html#a0542cd5b68947ef0a0989c6855661ab7" target="_top" xlink:title=" ">
<polygon fill="white" stroke="#666666" points="625.88,-44 436.62,-44 436.62,0 625.88,0 625.88,-44"/>
<text xml:space="preserve" text-anchor="start" x="444.62" y="-30.5" font-family="Helvetica,sans-Serif" font-size="10.00">editeurpanovisu.Navigateur</text>
<text xml:space="preserve" text-anchor="start" x="444.62" y="-18.5" font-family="Helvetica,sans-Serif" font-size="10.00">OpenLayersSeul.recupereCartographies</text>
<text xml:space="preserve" text-anchor="middle" x="531.25" y="-6.5" font-family="Helvetica,sans-Serif" font-size="10.00">OpenLayers</text>
</a>
</g>
</g>
<!-- Node2&#45;&gt;Node5 -->
<g id="edge4_Node000002_Node000005" class="edge">
<title>Node2&#45;&gt;Node5</title>
<g id="a_edge4_Node000002_Node000005"><a xlink:title=" ">
<path fill="none" stroke="#63b8ff" d="M376.38,-55.56C392.12,-52.13 408.98,-48.45 425.56,-44.83"/>
<polygon fill="#63b8ff" stroke="#63b8ff" points="425.9,-48.34 434.92,-42.79 424.4,-41.5 425.9,-48.34"/>
</a>
</g>
</g>
</g>
</svg>
