<?xml version="1.0" encoding="UTF-8" standalone="no"?>
<!DOCTYPE svg PUBLIC "-//W3C//DTD SVG 1.1//EN"
 "http://www.w3.org/Graphics/SVG/1.1/DTD/svg11.dtd">
<!-- Generated by graphviz version 13.1.2 (20250808.2320)
 -->
<!-- Title: editeurpanovisu.NavigateurPanoramique.setImagePanoramique Pages: 1 -->
<svg width="414pt" height="90pt"
 viewBox="0.00 0.00 414.00 90.00" xmlns="http://www.w3.org/2000/svg" xmlns:xlink="http://www.w3.org/1999/xlink">
<g id="graph0" class="graph" transform="scale(1 1) rotate(0) translate(4 86)">
<title>editeurpanovisu.NavigateurPanoramique.setImagePanoramique</title>
<!-- Node1 -->
<g id="Node000001" class="node">
<title>Node1</title>
<g id="a_Node000001"><a xlink:title=" ">
<polygon fill="#999999" stroke="#666666" points="173.5,-57 0,-57 0,-25 173.5,-25 173.5,-57"/>
<text xml:space="preserve" text-anchor="start" x="8" y="-43.5" font-family="Helvetica,sans-Serif" font-size="10.00">editeurpanovisu.Navigateur</text>
<text xml:space="preserve" text-anchor="middle" x="86.75" y="-31.5" font-family="Helvetica,sans-Serif" font-size="10.00">Panoramique.setImagePanoramique</text>
</a>
</g>
</g>
<!-- Node2 -->
<g id="Node000002" class="node">
<title>Node2</title>
<g id="a_Node000002"><a xlink:href="classediteurpanovisu_1_1NavigateurPanoramique.html#af5088888a72767f70d7253c1bbad01c9" target="_top" xlink:title=" ">
<polygon fill="white" stroke="#666666" points="389.38,-82 226.38,-82 226.38,-50 389.38,-50 389.38,-82"/>
<text xml:space="preserve" text-anchor="start" x="234.38" y="-68.5" font-family="Helvetica,sans-Serif" font-size="10.00">editeurpanovisu.Navigateur</text>
<text xml:space="preserve" text-anchor="middle" x="307.88" y="-56.5" font-family="Helvetica,sans-Serif" font-size="10.00">Panoramique.setImgPanoramique</text>
</a>
</g>
</g>
<!-- Node1&#45;&gt;Node2 -->
<g id="edge1_Node000001_Node000002" class="edge">
<title>Node1&#45;&gt;Node2</title>
<g id="a_edge1_Node000001_Node000002"><a xlink:title=" ">
<path fill="none" stroke="#63b8ff" d="M173.73,-50.81C187.21,-52.35 201.2,-53.94 214.82,-55.5"/>
<polygon fill="#63b8ff" stroke="#63b8ff" points="214.32,-58.96 224.65,-56.62 215.11,-52.01 214.32,-58.96"/>
</a>
</g>
</g>
<!-- Node3 -->
<g id="Node000003" class="node">
<title>Node3</title>
<g id="a_Node000003"><a xlink:href="classediteurpanovisu_1_1NavigateurPanoramique.html#ac0c12faf96b617fb9bb0b7015c5a58a7" target="_top" xlink:title=" ">
<polygon fill="white" stroke="#666666" points="406.25,-32 209.5,-32 209.5,0 406.25,0 406.25,-32"/>
<text xml:space="preserve" text-anchor="start" x="217.5" y="-18.5" font-family="Helvetica,sans-Serif" font-size="10.00">editeurpanovisu.Navigateur</text>
<text xml:space="preserve" text-anchor="middle" x="307.88" y="-6.5" font-family="Helvetica,sans-Serif" font-size="10.00">Panoramique.setNomFichierPanoramique</text>
</a>
</g>
</g>
<!-- Node1&#45;&gt;Node3 -->
<g id="edge2_Node000001_Node000003" class="edge">
<title>Node1&#45;&gt;Node3</title>
<g id="a_edge2_Node000001_Node000003"><a xlink:title=" ">
<path fill="none" stroke="#63b8ff" d="M173.73,-31.19C181.63,-30.29 189.71,-29.37 197.78,-28.45"/>
<polygon fill="#63b8ff" stroke="#63b8ff" points="198.13,-31.93 207.67,-27.32 197.34,-24.97 198.13,-31.93"/>
</a>
</g>
</g>
</g>
</svg>
