<?xml version="1.0" encoding="UTF-8" standalone="no"?>
<!DOCTYPE svg PUBLIC "-//W3C//DTD SVG 1.1//EN"
 "http://www.w3.org/Graphics/SVG/1.1/DTD/svg11.dtd">
<!-- Generated by graphviz version 13.1.2 (20250808.2320)
 -->
<!-- Title: editeurpanovisu.EditeurHTML.afficheConfigImage Pages: 1 -->
<!--zoomable 303 -->

<svg id="main" version="1.1" xmlns="http://www.w3.org/2000/svg" xmlns:xlink="http://www.w3.org/1999/xlink" xml:space="preserve" onload="init(evt)">

<style type="text/css"><![CDATA[
.node, .edge {opacity: 0.7;}
.node.selected, .edge.selected {opacity: 1;}
.edge:hover path { stroke: red; }
.edge:hover polygon { stroke: red; fill: red; }
]]></style>

<defs>
  <circle id="rim" cx="0" cy="0" r="7"/>
  <circle id="rim2" cx="0" cy="0" r="3.5"/>
  <g id="zoomPlus">
    <use xlink:href="#rim" fill="#404040"><set attributeName="fill" to="#808080" begin="zoomplus.mouseover" end="zoomplus.mouseout"/></use>
    <path d="M-4,0h8M0,-4v8" fill="none" stroke="white" stroke-width="1.5" pointer-events="none"/>
  </g>
  <g id="zoomMin">
    <use xlink:href="#rim" fill="#404040"><set attributeName="fill" to="#808080" begin="zoomminus.mouseover" end="zoomminus.mouseout"/></use>
    <path d="M-4,0h8" fill="none" stroke="white" stroke-width="1.5" pointer-events="none"/>
  </g>
  <g id="arrowUp" transform="translate(30 24)">
    <use xlink:href="#rim"/>
    <path pointer-events="none" fill="none" stroke="white" stroke-width="1.5" d="M0,-3.0v7 M-2.5,-0.5L0,-3.0L2.5,-0.5"/>
  </g>
  <g id="arrowRight" transform="rotate(90) translate(36 -43)">
    <use xlink:href="#rim"/>
    <path pointer-events="none" fill="none" stroke="white" stroke-width="1.5" d="M0,-3.0v7 M-2.5,-0.5L0,-3.0L2.5,-0.5"/>
  </g>
  <g id="arrowDown" transform="rotate(180) translate(-30 -48)">
    <use xlink:href="#rim"/>
    <path pointer-events="none" fill="none" stroke="white" stroke-width="1.5" d="M0,-3.0v7 M-2.5,-0.5L0,-3.0L2.5,-0.5"/>
  </g>
  <g id="arrowLeft" transform="rotate(270) translate(-36 17)">
    <use xlink:href="#rim"/>
    <path pointer-events="none" fill="none" stroke="white" stroke-width="1.5" d="M0,-3.0v7 M-2.5,-0.5L0,-3.0L2.5,-0.5"/>
  </g>
  <g id="resetDef">
    <use xlink:href="#rim2" fill="#404040"><set attributeName="fill" to="#808080" begin="reset.mouseover" end="reset.mouseout"/></use>
  </g>
</defs>
<script type="application/ecmascript">
var viewWidth = 665;
var viewHeight = 303;
var sectionId = 'dynsection-4';
</script>
<script type="application/ecmascript" xlink:href="svg.min.js"/>
<svg id="graph" class="graph">
<g id="viewport">
<title>editeurpanovisu.EditeurHTML.afficheConfigImage</title>
<!-- Node1 -->
<g id="Node000001" class="node">
<title>Node1</title>
<g id="a_Node000001"><a xlink:title=" ">
<polygon fill="#999999" stroke="#666666" points="176.5,-157 0,-157 0,-125 176.5,-125 176.5,-157"/>
<text xml:space="preserve" text-anchor="start" x="8" y="-143.5" font-family="Helvetica,sans-Serif" font-size="10.00">editeurpanovisu.EditeurHTML.affiche</text>
<text xml:space="preserve" text-anchor="middle" x="88.25" y="-131.5" font-family="Helvetica,sans-Serif" font-size="10.00">ConfigImage</text>
</a>
</g>
</g>
<!-- Node2 -->
<g id="Node000002" class="node">
<title>Node2</title>
<g id="a_Node000002"><a xlink:href="classediteurpanovisu_1_1EditeurHTML.html#a71bb6dcb22a0aaffec7ead3c835b23e1" target="_top" xlink:title=" ">
<polygon fill="white" stroke="#666666" points="392,-282 212.5,-282 212.5,-250 392,-250 392,-282"/>
<text xml:space="preserve" text-anchor="start" x="220.5" y="-268.5" font-family="Helvetica,sans-Serif" font-size="10.00">editeurpanovisu.EditeurHTML.escape</text>
<text xml:space="preserve" text-anchor="middle" x="302.25" y="-256.5" font-family="Helvetica,sans-Serif" font-size="10.00">JavaStyleString</text>
</a>
</g>
</g>
<!-- Node1&#45;&gt;Node2 -->
<g id="edge1_Node000001_Node000002" class="edge">
<title>Node1&#45;&gt;Node2</title>
<g id="a_edge1_Node000001_Node000002"><a xlink:title=" ">
<path fill="none" stroke="#63b8ff" d="M104.85,-157.28C126.86,-179.35 169.2,-218.56 212.5,-241 215.53,-242.57 218.67,-244.05 221.88,-245.45"/>
<polygon fill="#63b8ff" stroke="#63b8ff" points="220.34,-248.6 230.92,-249.07 222.94,-242.1 220.34,-248.6"/>
</a>
</g>
</g>
<!-- Node5 -->
<g id="Node000005" class="node">
<title>Node5</title>
<g id="a_Node000005"><a xlink:href="classediteurpanovisu_1_1EditeurHTML.html#a0f31da3ecff133531fa99a2e0cc92249" target="_top" xlink:title=" ">
<polygon fill="white" stroke="#666666" points="383,-232 221.5,-232 221.5,-200 383,-200 383,-232"/>
<text xml:space="preserve" text-anchor="start" x="229.5" y="-218.5" font-family="Helvetica,sans-Serif" font-size="10.00">editeurpanovisu.EditeurHTML.get</text>
<text xml:space="preserve" text-anchor="middle" x="302.25" y="-206.5" font-family="Helvetica,sans-Serif" font-size="10.00">HsHTML</text>
</a>
</g>
</g>
<!-- Node1&#45;&gt;Node5 -->
<g id="edge5_Node000001_Node000005" class="edge">
<title>Node1&#45;&gt;Node5</title>
<g id="a_edge5_Node000001_Node000005"><a xlink:title=" ">
<path fill="none" stroke="#63b8ff" d="M126.6,-157.41C150.83,-167.74 183.23,-180.97 212.5,-191 217.76,-192.8 223.23,-194.57 228.75,-196.29"/>
<polygon fill="#63b8ff" stroke="#63b8ff" points="227.35,-199.53 237.94,-199.09 229.39,-192.83 227.35,-199.53"/>
</a>
</g>
</g>
<!-- Node6 -->
<g id="Node000006" class="node">
<title>Node6</title>
<g id="a_Node000006"><a xlink:href="classediteurpanovisu_1_1HotspotHTML.html#a69c25901cb3b08778f512e5a8122b3ab" target="_top" xlink:title=" ">
<polygon fill="white" stroke="#666666" points="386,-182 218.5,-182 218.5,-150 386,-150 386,-182"/>
<text xml:space="preserve" text-anchor="start" x="226.5" y="-168.5" font-family="Helvetica,sans-Serif" font-size="10.00">editeurpanovisu.HotspotHTML.geti</text>
<text xml:space="preserve" text-anchor="middle" x="302.25" y="-156.5" font-family="Helvetica,sans-Serif" font-size="10.00">NombreImages</text>
</a>
</g>
</g>
<!-- Node1&#45;&gt;Node6 -->
<g id="edge6_Node000001_Node000006" class="edge">
<title>Node1&#45;&gt;Node6</title>
<g id="a_edge6_Node000001_Node000006"><a xlink:title=" ">
<path fill="none" stroke="#63b8ff" d="M176.7,-151.31C186.65,-152.49 196.82,-153.68 206.85,-154.87"/>
<polygon fill="#63b8ff" stroke="#63b8ff" points="206.25,-158.32 216.59,-156.02 207.07,-151.37 206.25,-158.32"/>
</a>
</g>
</g>
<!-- Node7 -->
<g id="Node000007" class="node">
<title>Node7</title>
<g id="a_Node000007"><a xlink:href="classediteurpanovisu_1_1HotspotHTML.html#a221f55d0424591e6326727fc5cc6f8e0" target="_top" xlink:title=" ">
<polygon fill="white" stroke="#666666" points="386,-132 218.5,-132 218.5,-100 386,-100 386,-132"/>
<text xml:space="preserve" text-anchor="start" x="226.5" y="-118.5" font-family="Helvetica,sans-Serif" font-size="10.00">editeurpanovisu.HotspotHTML.seti</text>
<text xml:space="preserve" text-anchor="middle" x="302.25" y="-106.5" font-family="Helvetica,sans-Serif" font-size="10.00">NombreImages</text>
</a>
</g>
</g>
<!-- Node1&#45;&gt;Node7 -->
<g id="edge7_Node000001_Node000007" class="edge">
<title>Node1&#45;&gt;Node7</title>
<g id="a_edge7_Node000001_Node000007"><a xlink:title=" ">
<path fill="none" stroke="#63b8ff" d="M176.7,-130.69C186.65,-129.51 196.82,-128.32 206.85,-127.13"/>
<polygon fill="#63b8ff" stroke="#63b8ff" points="207.07,-130.63 216.59,-125.98 206.25,-123.68 207.07,-130.63"/>
</a>
</g>
</g>
<!-- Node8 -->
<g id="Node000008" class="node">
<title>Node8</title>
<g id="a_Node000008"><a xlink:href="classediteurpanovisu_1_1ImageEditeurHTML.html#a67a09b520fbbbce9985a8ee631991e36" target="_top" xlink:title=" ">
<polygon fill="white" stroke="#666666" points="374.75,-82 229.75,-82 229.75,-50 374.75,-50 374.75,-82"/>
<text xml:space="preserve" text-anchor="start" x="237.75" y="-68.5" font-family="Helvetica,sans-Serif" font-size="10.00">editeurpanovisu.ImageEditeur</text>
<text xml:space="preserve" text-anchor="middle" x="302.25" y="-56.5" font-family="Helvetica,sans-Serif" font-size="10.00">HTML.setStrImagePath</text>
</a>
</g>
</g>
<!-- Node1&#45;&gt;Node8 -->
<g id="edge8_Node000001_Node000008" class="edge">
<title>Node1&#45;&gt;Node8</title>
<g id="a_edge8_Node000001_Node000008"><a xlink:title=" ">
<path fill="none" stroke="#63b8ff" d="M126.6,-124.59C150.83,-114.26 183.23,-101.03 212.5,-91 217.76,-89.2 223.23,-87.43 228.75,-85.71"/>
<polygon fill="#63b8ff" stroke="#63b8ff" points="229.39,-89.17 237.94,-82.91 227.35,-82.47 229.39,-89.17"/>
</a>
</g>
</g>
<!-- Node9 -->
<g id="Node000009" class="node">
<title>Node9</title>
<g id="a_Node000009"><a xlink:href="classediteurpanovisu_1_1HotspotHTML.html#a463064a03eee60a92c24e98035bc484e" target="_top" xlink:title=" ">
<polygon fill="white" stroke="#666666" points="384.87,-32 219.62,-32 219.62,0 384.87,0 384.87,-32"/>
<text xml:space="preserve" text-anchor="start" x="227.62" y="-18.5" font-family="Helvetica,sans-Serif" font-size="10.00">editeurpanovisu.HotspotHTML.set</text>
<text xml:space="preserve" text-anchor="middle" x="302.25" y="-6.5" font-family="Helvetica,sans-Serif" font-size="10.00">StrTexteHTML</text>
</a>
</g>
</g>
<!-- Node1&#45;&gt;Node9 -->
<g id="edge9_Node000001_Node000009" class="edge">
<title>Node1&#45;&gt;Node9</title>
<g id="a_edge9_Node000001_Node000009"><a xlink:title=" ">
<path fill="none" stroke="#63b8ff" d="M104.85,-124.72C126.86,-102.65 169.2,-63.44 212.5,-41 215.53,-39.43 218.67,-37.95 221.88,-36.55"/>
<polygon fill="#63b8ff" stroke="#63b8ff" points="222.94,-39.9 230.92,-32.93 220.34,-33.4 222.94,-39.9"/>
</a>
</g>
</g>
<!-- Node3 -->
<g id="Node000003" class="node">
<title>Node3</title>
<g id="a_Node000003"><a xlink:href="classediteurpanovisu_1_1EditeurHTML.html#a2bc338efa2d1b9253a062e0097b2b942" target="_top" xlink:title=" ">
<polygon fill="white" stroke="#666666" points="591.75,-295 428,-295 428,-275 591.75,-275 591.75,-295"/>
<text xml:space="preserve" text-anchor="middle" x="509.87" y="-281.5" font-family="Helvetica,sans-Serif" font-size="10.00">editeurpanovisu.EditeurHTML.hex</text>
</a>
</g>
</g>
<!-- Node2&#45;&gt;Node3 -->
<g id="edge2_Node000002_Node000003" class="edge">
<title>Node2&#45;&gt;Node3</title>
<g id="a_edge2_Node000002_Node000003"><a xlink:title=" ">
<path fill="none" stroke="#63b8ff" d="M392.24,-274.22C400.21,-274.96 408.29,-275.71 416.29,-276.44"/>
<polygon fill="#63b8ff" stroke="#63b8ff" points="415.73,-279.91 426.01,-277.34 416.38,-272.94 415.73,-279.91"/>
</a>
</g>
</g>
<!-- Node4 -->
<g id="Node000004" class="node">
<title>Node4</title>
<g id="a_Node000004"><a xlink:href="leaflet_8js.html#a73aff07b65d7c0b09ccf6b4c4f1b7a9d" target="_top" xlink:title=" ">
<polygon fill="white" stroke="#666666" points="656.55,-276 627.75,-276 627.75,-256 656.55,-256 656.55,-276"/>
<text xml:space="preserve" text-anchor="middle" x="642.15" y="-262.5" font-family="Helvetica,sans-Serif" font-size="10.00">i</text>
</a>
</g>
</g>
<!-- Node2&#45;&gt;Node4 -->
<g id="edge4_Node000002_Node000004" class="edge">
<title>Node2&#45;&gt;Node4</title>
<g id="a_edge4_Node000002_Node000004"><a xlink:title=" ">
<path fill="none" stroke="#63b8ff" d="M392.47,-266C467.34,-266 569.31,-266 615.97,-266"/>
<polygon fill="#63b8ff" stroke="#63b8ff" points="615.83,-269.5 625.83,-266 615.83,-262.5 615.83,-269.5"/>
</a>
</g>
</g>
<!-- Node3&#45;&gt;Node4 -->
<g id="edge3_Node000003_Node000004" class="edge">
<title>Node3&#45;&gt;Node4</title>
<g id="a_edge3_Node000003_Node000004"><a xlink:title=" ">
<path fill="none" stroke="#63b8ff" d="M582.49,-274.56C594.63,-272.78 606.47,-271.06 616.29,-269.63"/>
<polygon fill="#63b8ff" stroke="#63b8ff" points="616.64,-273.11 626.03,-268.2 615.63,-266.18 616.64,-273.11"/>
</a>
</g>
</g>
</g>
</svg>

<g id="navigator" transform="translate(0 0)" fill="#404254">
  <rect fill="#f2f5e9" fill-opacity="0.5" stroke="#606060" stroke-width=".5" x="0" y="0" width="60" height="60"/>
  <use id="zoomplus" xlink:href="#zoomPlus" x="17" y="9" onmousedown="handleZoom(evt,'in')"/>
  <use id="zoomminus" xlink:href="#zoomMin" x="42" y="9" onmousedown="handleZoom(evt,'out')"/>
  <use id="reset" xlink:href="#resetDef" x="30" y="36" onmousedown="handleReset()"/>
   <use id="arrowup" xlink:href="#arrowUp" x="0" y="0" onmousedown="handlePan(0,-1)"/>
  <use id="arrowright" xlink:href="#arrowRight" x="0" y="0" onmousedown="handlePan(1,0)"/>
  <use id="arrowdown" xlink:href="#arrowDown" x="0" y="0" onmousedown="handlePan(0,1)"/>
  <use id="arrowleft" xlink:href="#arrowLeft" x="0" y="0" onmousedown="handlePan(-1,0)"/>
</g>
<svg viewBox="0 0 15 15" width="100%" height="30px" preserveAspectRatio="xMaxYMin meet">
 <g id="arrow_out" transform="scale(0.3 0.3)">
  <a xlink:href="classediteurpanovisu_1_1EditeurHTML_af81d6205915e559653682cbc97bc81aa_cgraph_org.svg" target="_base">
   <rect id="button" ry="5" rx="5" y="6" x="6" height="38" width="38"
        fill="#f2f5e9" fill-opacity="0.5" stroke="#606060" stroke-width="1.0"/>
   <path id="arrow"
     d="M 11.500037,31.436501 C 11.940474,20.09759 22.043105,11.32322 32.158766,21.979434 L 37.068811,17.246167 C 37.068811,17.246167 37.088388,32 37.088388,32 L 22.160133,31.978069 C 22.160133,31.978069 26.997745,27.140456 26.997745,27.140456 C 18.528582,18.264221 13.291696,25.230495 11.500037,31.436501 z"
     style="fill:#404040;"/>
  </a>
 </g>
</svg>

<style type='text/css'>
<![CDATA[
[data-mouse-over-selected='false'] { opacity: 0.7; }
[data-mouse-over-selected='true']  { opacity: 1.0; }
]]>
</style>
<script type="application/ecmascript"><![CDATA[
document.addEventListener('DOMContentLoaded', (event) => {
  highlightEdges();
  highlightAdjacentNodes();
});
]]></script>
</svg>
