<?xml version="1.0" encoding="UTF-8" standalone="no"?>
<!DOCTYPE svg PUBLIC "-//W3C//DTD SVG 1.1//EN"
 "http://www.w3.org/Graphics/SVG/1.1/DTD/svg11.dtd">
<!-- Generated by graphviz version 13.1.2 (20250808.2320)
 -->
<!-- Title: editeurpanovisu.EditeurPanovisu.AncreForme Pages: 1 -->
<svg width="214pt" height="204pt"
 viewBox="0.00 0.00 214.00 204.00" xmlns="http://www.w3.org/2000/svg" xmlns:xlink="http://www.w3.org/1999/xlink">
<g id="graph0" class="graph" transform="scale(1 1) rotate(0) translate(4 200)">
<title>editeurpanovisu.EditeurPanovisu.AncreForme</title>
<!-- Node1 -->
<g id="Node000001" class="node">
<title>Node1</title>
<g id="a_Node000001"><a xlink:title="définit les ancrages des formes (cercle, rectangle, polygone) pour les barres personnalisées">
<polygon fill="#999999" stroke="none" points="205.5,-108 0,-108 0,0 205.5,0 205.5,-108"/>
<text xml:space="preserve" text-anchor="start" x="30" y="-94.5" font-family="Helvetica,sans-Serif" font-size="10.00">editeurpanovisu.EditeurPanovisu.</text>
<text xml:space="preserve" text-anchor="start" x="76.12" y="-82.5" font-family="Helvetica,sans-Serif" font-size="10.00">AncreForme</text>
<text xml:space="preserve" text-anchor="start" x="5.5" y="-66.5" font-family="Helvetica,sans-Serif" font-size="10.00">&#45;</text>
<text xml:space="preserve" text-anchor="start" x="14" y="-66.5" font-family="Helvetica,sans-Serif" font-size="10.00">final DoubleProperty dpX</text>
<text xml:space="preserve" text-anchor="start" x="5.5" y="-50.5" font-family="Helvetica,sans-Serif" font-size="10.00">&#45;</text>
<text xml:space="preserve" text-anchor="start" x="14" y="-50.5" font-family="Helvetica,sans-Serif" font-size="10.00">final DoubleProperty dpY</text>
<text xml:space="preserve" text-anchor="start" x="4" y="-34.5" font-family="Helvetica,sans-Serif" font-size="10.00">~</text>
<text xml:space="preserve" text-anchor="start" x="14" y="-34.5" font-family="Helvetica,sans-Serif" font-size="10.00">AncreForme(Color color,</text>
<text xml:space="preserve" text-anchor="start" x="14" y="-22.5" font-family="Helvetica,sans-Serif" font-size="10.00"> DoubleProperty dpX, DoubleProperty dpY)</text>
<text xml:space="preserve" text-anchor="start" x="5.5" y="-6.5" font-family="Helvetica,sans-Serif" font-size="10.00">&#45;</text>
<text xml:space="preserve" text-anchor="start" x="14" y="-6.5" font-family="Helvetica,sans-Serif" font-size="10.00">void enableDrag()</text>
<polygon fill="#666666" stroke="#666666" points="0,-78 0,-78 205.5,-78 205.5,-78 0,-78"/>
<polygon fill="#666666" stroke="#666666" points="0,-46 0,-46 12,-46 12,-46 0,-46"/>
<polygon fill="#666666" stroke="#666666" points="12,-46 12,-46 205.5,-46 205.5,-46 12,-46"/>
<polygon fill="none" stroke="#666666" points="0,0 0,-108 205.5,-108 205.5,0 0,0"/>
</a>
</g>
</g>
<!-- Node2 -->
<g id="Node000002" class="node">
<title>Node2</title>
<g id="a_Node000002"><a xlink:title=" ">
<polygon fill="white" stroke="none" points="119.5,-196 86,-196 86,-144 119.5,-144 119.5,-196"/>
<text xml:space="preserve" text-anchor="start" x="90" y="-182.5" font-family="Helvetica,sans-Serif" font-size="10.00">Circle</text>
<text xml:space="preserve" text-anchor="start" x="101.25" y="-166.5" font-family="Helvetica,sans-Serif" font-size="10.00"> </text>
<text xml:space="preserve" text-anchor="start" x="101.25" y="-150.5" font-family="Helvetica,sans-Serif" font-size="10.00"> </text>
<polygon fill="#666666" stroke="#666666" points="86,-178 86,-178 119.5,-178 119.5,-178 86,-178"/>
<polygon fill="#666666" stroke="#666666" points="86,-162 86,-162 119.5,-162 119.5,-162 86,-162"/>
<polygon fill="none" stroke="#666666" points="86,-144 86,-196 119.5,-196 119.5,-144 86,-144"/>
</a>
</g>
</g>
<!-- Node2&#45;&gt;Node1 -->
<g id="edge1_Node000001_Node000002" class="edge">
<title>Node2&#45;&gt;Node1</title>
<g id="a_edge1_Node000001_Node000002"><a xlink:title=" ">
<path fill="none" stroke="#63b8ff" d="M102.75,-132.77C102.75,-124.81 102.75,-116.23 102.75,-107.77"/>
<polygon fill="none" stroke="#63b8ff" points="99.25,-132.75 102.75,-142.75 106.25,-132.75 99.25,-132.75"/>
</a>
</g>
</g>
</g>
</svg>
