<?xml version="1.0" encoding="UTF-8" standalone="no"?>
<!DOCTYPE svg PUBLIC "-//W3C//DTD SVG 1.1//EN"
 "http://www.w3.org/Graphics/SVG/1.1/DTD/svg11.dtd">
<!-- Generated by graphviz version 13.1.2 (20250808.2320)
 -->
<!-- Title: editeurpanovisu.GestionnaireInterfaceController.afficheReseauxSociaux Pages: 1 -->
<!--zoomable 598 -->

<svg id="main" version="1.1" xmlns="http://www.w3.org/2000/svg" xmlns:xlink="http://www.w3.org/1999/xlink" xml:space="preserve" onload="init(evt)">

<style type="text/css"><![CDATA[
.node, .edge {opacity: 0.7;}
.node.selected, .edge.selected {opacity: 1;}
.edge:hover path { stroke: red; }
.edge:hover polygon { stroke: red; fill: red; }
]]></style>

<defs>
  <circle id="rim" cx="0" cy="0" r="7"/>
  <circle id="rim2" cx="0" cy="0" r="3.5"/>
  <g id="zoomPlus">
    <use xlink:href="#rim" fill="#404040"><set attributeName="fill" to="#808080" begin="zoomplus.mouseover" end="zoomplus.mouseout"/></use>
    <path d="M-4,0h8M0,-4v8" fill="none" stroke="white" stroke-width="1.5" pointer-events="none"/>
  </g>
  <g id="zoomMin">
    <use xlink:href="#rim" fill="#404040"><set attributeName="fill" to="#808080" begin="zoomminus.mouseover" end="zoomminus.mouseout"/></use>
    <path d="M-4,0h8" fill="none" stroke="white" stroke-width="1.5" pointer-events="none"/>
  </g>
  <g id="arrowUp" transform="translate(30 24)">
    <use xlink:href="#rim"/>
    <path pointer-events="none" fill="none" stroke="white" stroke-width="1.5" d="M0,-3.0v7 M-2.5,-0.5L0,-3.0L2.5,-0.5"/>
  </g>
  <g id="arrowRight" transform="rotate(90) translate(36 -43)">
    <use xlink:href="#rim"/>
    <path pointer-events="none" fill="none" stroke="white" stroke-width="1.5" d="M0,-3.0v7 M-2.5,-0.5L0,-3.0L2.5,-0.5"/>
  </g>
  <g id="arrowDown" transform="rotate(180) translate(-30 -48)">
    <use xlink:href="#rim"/>
    <path pointer-events="none" fill="none" stroke="white" stroke-width="1.5" d="M0,-3.0v7 M-2.5,-0.5L0,-3.0L2.5,-0.5"/>
  </g>
  <g id="arrowLeft" transform="rotate(270) translate(-36 17)">
    <use xlink:href="#rim"/>
    <path pointer-events="none" fill="none" stroke="white" stroke-width="1.5" d="M0,-3.0v7 M-2.5,-0.5L0,-3.0L2.5,-0.5"/>
  </g>
  <g id="resetDef">
    <use xlink:href="#rim2" fill="#404040"><set attributeName="fill" to="#808080" begin="reset.mouseover" end="reset.mouseout"/></use>
  </g>
</defs>
<script type="application/ecmascript">
var viewWidth = 422;
var viewHeight = 598;
var sectionId = 'dynsection-26';
</script>
<script type="application/ecmascript" xlink:href="svg.min.js"/>
<svg id="graph" class="graph">
<g id="viewport">
<title>editeurpanovisu.GestionnaireInterfaceController.afficheReseauxSociaux</title>
<!-- Node1 -->
<g id="Node000001" class="node">
<title>Node1</title>
<g id="a_Node000001"><a xlink:title=" ">
<polygon fill="#999999" stroke="#666666" points="166.75,-311 0,-311 0,-267 166.75,-267 166.75,-311"/>
<text xml:space="preserve" text-anchor="start" x="8" y="-297.5" font-family="Helvetica,sans-Serif" font-size="10.00">editeurpanovisu.Gestionnaire</text>
<text xml:space="preserve" text-anchor="start" x="8" y="-285.5" font-family="Helvetica,sans-Serif" font-size="10.00">InterfaceController.afficheReseaux</text>
<text xml:space="preserve" text-anchor="middle" x="83.38" y="-273.5" font-family="Helvetica,sans-Serif" font-size="10.00">Sociaux</text>
</a>
</g>
</g>
<!-- Node2 -->
<g id="Node000002" class="node">
<title>Node2</title>
<g id="a_Node000002"><a xlink:href="classediteurpanovisu_1_1GestionnaireInterfaceController.html#a50d43fc15c4a7405ff1e52b8bc435511" target="_top" xlink:title=" ">
<polygon fill="white" stroke="#666666" points="390.12,-590 226.38,-590 226.38,-546 390.12,-546 390.12,-590"/>
<text xml:space="preserve" text-anchor="start" x="234.38" y="-576.5" font-family="Helvetica,sans-Serif" font-size="10.00">editeurpanovisu.Gestionnaire</text>
<text xml:space="preserve" text-anchor="start" x="234.38" y="-564.5" font-family="Helvetica,sans-Serif" font-size="10.00">InterfaceController.getdXReseaux</text>
<text xml:space="preserve" text-anchor="middle" x="308.25" y="-552.5" font-family="Helvetica,sans-Serif" font-size="10.00">Sociaux</text>
</a>
</g>
</g>
<!-- Node1&#45;&gt;Node2 -->
<g id="edge1_Node000001_Node000002" class="edge">
<title>Node1&#45;&gt;Node2</title>
<g id="a_edge1_Node000001_Node000002"><a xlink:title=" ">
<path fill="none" stroke="#63b8ff" d="M88.63,-311.24C99.07,-359.68 130.56,-475.34 202.75,-537 206.85,-540.5 211.33,-543.61 216.06,-546.37"/>
<polygon fill="#63b8ff" stroke="#63b8ff" points="214.24,-549.36 224.73,-550.85 217.45,-543.15 214.24,-549.36"/>
</a>
</g>
</g>
<!-- Node3 -->
<g id="Node000003" class="node">
<title>Node3</title>
<g id="a_Node000003"><a xlink:href="classediteurpanovisu_1_1GestionnaireInterfaceController.html#aaa802b77b06faad89258b26cb7674264" target="_top" xlink:title=" ">
<polygon fill="white" stroke="#666666" points="390.12,-528 226.38,-528 226.38,-484 390.12,-484 390.12,-528"/>
<text xml:space="preserve" text-anchor="start" x="234.38" y="-514.5" font-family="Helvetica,sans-Serif" font-size="10.00">editeurpanovisu.Gestionnaire</text>
<text xml:space="preserve" text-anchor="start" x="234.38" y="-502.5" font-family="Helvetica,sans-Serif" font-size="10.00">InterfaceController.getdYReseaux</text>
<text xml:space="preserve" text-anchor="middle" x="308.25" y="-490.5" font-family="Helvetica,sans-Serif" font-size="10.00">Sociaux</text>
</a>
</g>
</g>
<!-- Node1&#45;&gt;Node3 -->
<g id="edge2_Node000001_Node000003" class="edge">
<title>Node1&#45;&gt;Node3</title>
<g id="a_edge2_Node000001_Node000003"><a xlink:title=" ">
<path fill="none" stroke="#63b8ff" d="M92.47,-311.29C107.8,-350.39 144.84,-431.32 202.75,-475 206.81,-478.06 211.17,-480.83 215.72,-483.31"/>
<polygon fill="#63b8ff" stroke="#63b8ff" points="214.08,-486.41 224.6,-487.68 217.17,-480.12 214.08,-486.41"/>
</a>
</g>
</g>
<!-- Node4 -->
<g id="Node000004" class="node">
<title>Node4</title>
<g id="a_Node000004"><a xlink:href="classediteurpanovisu_1_1GestionnaireInterfaceController.html#a1fbc2347f474945e4bcf4d4c2d3f575c" target="_top" xlink:title=" ">
<polygon fill="white" stroke="#666666" points="401,-466 215.5,-466 215.5,-422 401,-422 401,-466"/>
<text xml:space="preserve" text-anchor="start" x="223.5" y="-452.5" font-family="Helvetica,sans-Serif" font-size="10.00">editeurpanovisu.Gestionnaire</text>
<text xml:space="preserve" text-anchor="start" x="223.5" y="-440.5" font-family="Helvetica,sans-Serif" font-size="10.00">InterfaceController.getOpaciteReseaux</text>
<text xml:space="preserve" text-anchor="middle" x="308.25" y="-428.5" font-family="Helvetica,sans-Serif" font-size="10.00">Sociaux</text>
</a>
</g>
</g>
<!-- Node1&#45;&gt;Node4 -->
<g id="edge3_Node000001_Node000004" class="edge">
<title>Node1&#45;&gt;Node4</title>
<g id="a_edge3_Node000001_Node000004"><a xlink:title=" ">
<path fill="none" stroke="#63b8ff" d="M99.78,-311.19C120.2,-338.96 158.81,-386.15 202.75,-413 204.77,-414.23 206.84,-415.42 208.95,-416.56"/>
<polygon fill="#63b8ff" stroke="#63b8ff" points="207.24,-419.62 217.75,-420.91 210.34,-413.34 207.24,-419.62"/>
</a>
</g>
</g>
<!-- Node5 -->
<g id="Node000005" class="node">
<title>Node5</title>
<g id="a_Node000005"><a xlink:href="classediteurpanovisu_1_1GestionnaireInterfaceController.html#ad0c4c0b75d3e5f7f35ee24e44fc87c67" target="_top" xlink:title=" ">
<polygon fill="white" stroke="#666666" points="388.62,-404 227.88,-404 227.88,-360 388.62,-360 388.62,-404"/>
<text xml:space="preserve" text-anchor="start" x="235.88" y="-390.5" font-family="Helvetica,sans-Serif" font-size="10.00">editeurpanovisu.Gestionnaire</text>
<text xml:space="preserve" text-anchor="start" x="235.88" y="-378.5" font-family="Helvetica,sans-Serif" font-size="10.00">InterfaceController.getStrPosition</text>
<text xml:space="preserve" text-anchor="middle" x="308.25" y="-366.5" font-family="Helvetica,sans-Serif" font-size="10.00">ReseauxSociaux</text>
</a>
</g>
</g>
<!-- Node1&#45;&gt;Node5 -->
<g id="edge4_Node000001_Node000005" class="edge">
<title>Node1&#45;&gt;Node5</title>
<g id="a_edge4_Node000001_Node000005"><a xlink:title=" ">
<path fill="none" stroke="#63b8ff" d="M122.66,-311.48C145.41,-324.21 175.13,-339.79 202.75,-351 207.31,-352.85 212.03,-354.65 216.81,-356.38"/>
<polygon fill="#63b8ff" stroke="#63b8ff" points="215.36,-359.58 225.95,-359.56 217.66,-352.97 215.36,-359.58"/>
</a>
</g>
</g>
<!-- Node6 -->
<g id="Node000006" class="node">
<title>Node6</title>
<g id="a_Node000006"><a xlink:href="classediteurpanovisu_1_1GestionnaireInterfaceController.html#a203a717c6783631a4716691ab1a7d097" target="_top" xlink:title=" ">
<polygon fill="white" stroke="#666666" points="395.38,-342 221.12,-342 221.12,-298 395.38,-298 395.38,-342"/>
<text xml:space="preserve" text-anchor="start" x="229.12" y="-328.5" font-family="Helvetica,sans-Serif" font-size="10.00">editeurpanovisu.Gestionnaire</text>
<text xml:space="preserve" text-anchor="start" x="229.12" y="-316.5" font-family="Helvetica,sans-Serif" font-size="10.00">InterfaceController.getTailleReseaux</text>
<text xml:space="preserve" text-anchor="middle" x="308.25" y="-304.5" font-family="Helvetica,sans-Serif" font-size="10.00">Sociaux</text>
</a>
</g>
</g>
<!-- Node1&#45;&gt;Node6 -->
<g id="edge5_Node000001_Node000006" class="edge">
<title>Node1&#45;&gt;Node6</title>
<g id="a_edge5_Node000001_Node000006"><a xlink:title=" ">
<path fill="none" stroke="#63b8ff" d="M167.05,-300.5C180.93,-302.43 195.45,-304.45 209.66,-306.43"/>
<polygon fill="#63b8ff" stroke="#63b8ff" points="209.09,-309.88 219.48,-307.79 210.06,-302.95 209.09,-309.88"/>
</a>
</g>
</g>
<!-- Node7 -->
<g id="Node000007" class="node">
<title>Node7</title>
<g id="a_Node000007"><a xlink:href="classediteurpanovisu_1_1GestionnaireInterfaceController.html#adcd7dcd008ebdfbbf9bfd8fe7eab8608" target="_top" xlink:title=" ">
<polygon fill="white" stroke="#666666" points="398.75,-280 217.75,-280 217.75,-236 398.75,-236 398.75,-280"/>
<text xml:space="preserve" text-anchor="start" x="225.75" y="-266.5" font-family="Helvetica,sans-Serif" font-size="10.00">editeurpanovisu.Gestionnaire</text>
<text xml:space="preserve" text-anchor="start" x="225.75" y="-254.5" font-family="Helvetica,sans-Serif" font-size="10.00">InterfaceController.isbAfficheReseaux</text>
<text xml:space="preserve" text-anchor="middle" x="308.25" y="-242.5" font-family="Helvetica,sans-Serif" font-size="10.00">Sociaux</text>
</a>
</g>
</g>
<!-- Node1&#45;&gt;Node7 -->
<g id="edge6_Node000001_Node000007" class="edge">
<title>Node1&#45;&gt;Node7</title>
<g id="a_edge6_Node000001_Node000007"><a xlink:title=" ">
<path fill="none" stroke="#63b8ff" d="M167.05,-277.5C179.92,-275.71 193.34,-273.84 206.56,-272"/>
<polygon fill="#63b8ff" stroke="#63b8ff" points="206.68,-275.52 216.1,-270.68 205.71,-268.59 206.68,-275.52"/>
</a>
</g>
</g>
<!-- Node8 -->
<g id="Node000008" class="node">
<title>Node8</title>
<g id="a_Node000008"><a xlink:href="classediteurpanovisu_1_1GestionnaireInterfaceController.html#a7b0e08cee56c94d083d6c4bc8301f4bb" target="_top" xlink:title=" ">
<polygon fill="white" stroke="#666666" points="413.75,-218 202.75,-218 202.75,-186 413.75,-186 413.75,-218"/>
<text xml:space="preserve" text-anchor="start" x="210.75" y="-204.5" font-family="Helvetica,sans-Serif" font-size="10.00">editeurpanovisu.Gestionnaire</text>
<text xml:space="preserve" text-anchor="middle" x="308.25" y="-192.5" font-family="Helvetica,sans-Serif" font-size="10.00">InterfaceController.isbReseauxSociauxEmail</text>
</a>
</g>
</g>
<!-- Node1&#45;&gt;Node8 -->
<g id="edge7_Node000001_Node000008" class="edge">
<title>Node1&#45;&gt;Node8</title>
<g id="a_edge7_Node000001_Node000008"><a xlink:title=" ">
<path fill="none" stroke="#63b8ff" d="M121.39,-266.57C144.19,-253.53 174.4,-237.63 202.75,-227 207.73,-225.13 212.89,-223.37 218.14,-221.72"/>
<polygon fill="#63b8ff" stroke="#63b8ff" points="218.97,-225.12 227.55,-218.9 216.97,-218.42 218.97,-225.12"/>
</a>
</g>
</g>
<!-- Node9 -->
<g id="Node000009" class="node">
<title>Node9</title>
<g id="a_Node000009"><a xlink:href="classediteurpanovisu_1_1GestionnaireInterfaceController.html#a3d6512d339e973f24925766eeffef56e" target="_top" xlink:title=" ">
<polygon fill="white" stroke="#666666" points="401.38,-168 215.12,-168 215.12,-124 401.38,-124 401.38,-168"/>
<text xml:space="preserve" text-anchor="start" x="223.12" y="-154.5" font-family="Helvetica,sans-Serif" font-size="10.00">editeurpanovisu.Gestionnaire</text>
<text xml:space="preserve" text-anchor="start" x="223.12" y="-142.5" font-family="Helvetica,sans-Serif" font-size="10.00">InterfaceController.isbReseauxSociaux</text>
<text xml:space="preserve" text-anchor="middle" x="308.25" y="-130.5" font-family="Helvetica,sans-Serif" font-size="10.00">Facebook</text>
</a>
</g>
</g>
<!-- Node1&#45;&gt;Node9 -->
<g id="edge8_Node000001_Node000009" class="edge">
<title>Node1&#45;&gt;Node9</title>
<g id="a_edge8_Node000001_Node000009"><a xlink:title=" ">
<path fill="none" stroke="#63b8ff" d="M102.13,-266.81C123.46,-241.56 161.57,-200.74 202.75,-177 204.95,-175.73 207.2,-174.51 209.5,-173.34"/>
<polygon fill="#63b8ff" stroke="#63b8ff" points="210.9,-176.55 218.46,-169.13 207.92,-170.22 210.9,-176.55"/>
</a>
</g>
</g>
<!-- Node10 -->
<g id="Node000010" class="node">
<title>Node10</title>
<g id="a_Node000010"><a xlink:href="classediteurpanovisu_1_1GestionnaireInterfaceController.html#ad358545750b364986aefc6ea4955c012" target="_top" xlink:title=" ">
<polygon fill="white" stroke="#666666" points="401.38,-106 215.12,-106 215.12,-62 401.38,-62 401.38,-106"/>
<text xml:space="preserve" text-anchor="start" x="223.12" y="-92.5" font-family="Helvetica,sans-Serif" font-size="10.00">editeurpanovisu.Gestionnaire</text>
<text xml:space="preserve" text-anchor="start" x="223.12" y="-80.5" font-family="Helvetica,sans-Serif" font-size="10.00">InterfaceController.isbReseauxSociaux</text>
<text xml:space="preserve" text-anchor="middle" x="308.25" y="-68.5" font-family="Helvetica,sans-Serif" font-size="10.00">Google</text>
</a>
</g>
</g>
<!-- Node1&#45;&gt;Node10 -->
<g id="edge9_Node000001_Node000010" class="edge">
<title>Node1&#45;&gt;Node10</title>
<g id="a_edge9_Node000001_Node000010"><a xlink:title=" ">
<path fill="none" stroke="#63b8ff" d="M93.51,-266.68C109.85,-229.57 147.58,-155.3 202.75,-115 204.11,-114.01 205.5,-113.04 206.92,-112.11"/>
<polygon fill="#63b8ff" stroke="#63b8ff" points="208.51,-115.24 215.36,-107.16 204.96,-109.2 208.51,-115.24"/>
</a>
</g>
</g>
<!-- Node11 -->
<g id="Node000011" class="node">
<title>Node11</title>
<g id="a_Node000011"><a xlink:href="classediteurpanovisu_1_1GestionnaireInterfaceController.html#ac834b92e0f01313ccf9b57d4f4d0d3e2" target="_top" xlink:title=" ">
<polygon fill="white" stroke="#666666" points="401.38,-44 215.12,-44 215.12,0 401.38,0 401.38,-44"/>
<text xml:space="preserve" text-anchor="start" x="223.12" y="-30.5" font-family="Helvetica,sans-Serif" font-size="10.00">editeurpanovisu.Gestionnaire</text>
<text xml:space="preserve" text-anchor="start" x="223.12" y="-18.5" font-family="Helvetica,sans-Serif" font-size="10.00">InterfaceController.isbReseauxSociaux</text>
<text xml:space="preserve" text-anchor="middle" x="308.25" y="-6.5" font-family="Helvetica,sans-Serif" font-size="10.00">Twitter</text>
</a>
</g>
</g>
<!-- Node1&#45;&gt;Node11 -->
<g id="edge10_Node000001_Node000011" class="edge">
<title>Node1&#45;&gt;Node11</title>
<g id="a_edge10_Node000001_Node000011"><a xlink:title=" ">
<path fill="none" stroke="#63b8ff" d="M89.22,-266.77C100.57,-220.03 133.34,-111.12 202.75,-53 203.69,-52.21 204.66,-51.44 205.64,-50.69"/>
<polygon fill="#63b8ff" stroke="#63b8ff" points="207.3,-53.79 213.64,-45.3 203.39,-47.98 207.3,-53.79"/>
</a>
</g>
</g>
</g>
</svg>

<g id="navigator" transform="translate(0 0)" fill="#404254">
  <rect fill="#f2f5e9" fill-opacity="0.5" stroke="#606060" stroke-width=".5" x="0" y="0" width="60" height="60"/>
  <use id="zoomplus" xlink:href="#zoomPlus" x="17" y="9" onmousedown="handleZoom(evt,'in')"/>
  <use id="zoomminus" xlink:href="#zoomMin" x="42" y="9" onmousedown="handleZoom(evt,'out')"/>
  <use id="reset" xlink:href="#resetDef" x="30" y="36" onmousedown="handleReset()"/>
   <use id="arrowup" xlink:href="#arrowUp" x="0" y="0" onmousedown="handlePan(0,-1)"/>
  <use id="arrowright" xlink:href="#arrowRight" x="0" y="0" onmousedown="handlePan(1,0)"/>
  <use id="arrowdown" xlink:href="#arrowDown" x="0" y="0" onmousedown="handlePan(0,1)"/>
  <use id="arrowleft" xlink:href="#arrowLeft" x="0" y="0" onmousedown="handlePan(-1,0)"/>
</g>
<svg viewBox="0 0 15 15" width="100%" height="30px" preserveAspectRatio="xMaxYMin meet">
 <g id="arrow_out" transform="scale(0.3 0.3)">
  <a xlink:href="classediteurpanovisu_1_1GestionnaireInterfaceController_a4893470c6f77bc7ea743edf301e95306_cgraph_org.svg" target="_base">
   <rect id="button" ry="5" rx="5" y="6" x="6" height="38" width="38"
        fill="#f2f5e9" fill-opacity="0.5" stroke="#606060" stroke-width="1.0"/>
   <path id="arrow"
     d="M 11.500037,31.436501 C 11.940474,20.09759 22.043105,11.32322 32.158766,21.979434 L 37.068811,17.246167 C 37.068811,17.246167 37.088388,32 37.088388,32 L 22.160133,31.978069 C 22.160133,31.978069 26.997745,27.140456 26.997745,27.140456 C 18.528582,18.264221 13.291696,25.230495 11.500037,31.436501 z"
     style="fill:#404040;"/>
  </a>
 </g>
</svg>

<style type='text/css'>
<![CDATA[
[data-mouse-over-selected='false'] { opacity: 0.7; }
[data-mouse-over-selected='true']  { opacity: 1.0; }
]]>
</style>
<script type="application/ecmascript"><![CDATA[
document.addEventListener('DOMContentLoaded', (event) => {
  highlightEdges();
  highlightAdjacentNodes();
});
]]></script>
</svg>
