<?xml version="1.0" encoding="UTF-8" standalone="no"?>
<!DOCTYPE svg PUBLIC "-//W3C//DTD SVG 1.1//EN"
 "http://www.w3.org/Graphics/SVG/1.1/DTD/svg11.dtd">
<!-- Generated by graphviz version 13.1.2 (20250808.2320)
 -->
<!-- Title: editeurpanovisu.OllamaService.geocodeReverse Pages: 1 -->
<svg width="867pt" height="40pt"
 viewBox="0.00 0.00 867.00 40.00" xmlns="http://www.w3.org/2000/svg" xmlns:xlink="http://www.w3.org/1999/xlink">
<g id="graph0" class="graph" transform="scale(1 1) rotate(0) translate(4 36)">
<title>editeurpanovisu.OllamaService.geocodeReverse</title>
<!-- Node1 -->
<g id="Node000001" class="node">
<title>Node1</title>
<g id="a_Node000001"><a xlink:title="Géocodage inverse : convertit des coordonnées GPS en adresse/lieu réel Utilise l&#39;API LocationIQ (5000...">
<polygon fill="#999999" stroke="#666666" points="859,-32 668.25,-32 668.25,0 859,0 859,-32"/>
<text xml:space="preserve" text-anchor="start" x="676.25" y="-18.5" font-family="Helvetica,sans-Serif" font-size="10.00">editeurpanovisu.OllamaService.geocode</text>
<text xml:space="preserve" text-anchor="middle" x="763.62" y="-6.5" font-family="Helvetica,sans-Serif" font-size="10.00">Reverse</text>
</a>
</g>
</g>
<!-- Node2 -->
<g id="Node000002" class="node">
<title>Node2</title>
<g id="a_Node000002"><a xlink:href="classediteurpanovisu_1_1OllamaService.html#af1a118f057c3cffef9ce91c7a428304e" target="_top" xlink:title="Génère une description géographique basée sur les informations disponibles IMPORTANT : Tient compte d...">
<polygon fill="white" stroke="#666666" points="632.25,-32 446,-32 446,0 632.25,0 632.25,-32"/>
<text xml:space="preserve" text-anchor="start" x="454" y="-18.5" font-family="Helvetica,sans-Serif" font-size="10.00">editeurpanovisu.OllamaService.generer</text>
<text xml:space="preserve" text-anchor="middle" x="539.12" y="-6.5" font-family="Helvetica,sans-Serif" font-size="10.00">Description</text>
</a>
</g>
</g>
<!-- Node1&#45;&gt;Node2 -->
<g id="edge1_Node000001_Node000002" class="edge">
<title>Node1&#45;&gt;Node2</title>
<g id="a_edge1_Node000001_Node000002"><a xlink:title=" ">
<path fill="none" stroke="#63b8ff" d="M656.63,-16C648.6,-16 640.53,-16 632.6,-16"/>
<polygon fill="#63b8ff" stroke="#63b8ff" points="656.43,-19.5 666.43,-16 656.43,-12.5 656.43,-19.5"/>
</a>
</g>
</g>
<!-- Node3 -->
<g id="Node000003" class="node">
<title>Node3</title>
<g id="a_Node000003"><a xlink:href="classediteurpanovisu_1_1EditeurPanovisu.html#a31698230ca6021fb284e21e7a35135d0" target="_top" xlink:title="Génère une description IA pour le panoramique courant.">
<polygon fill="white" stroke="#666666" points="410,-32 216.25,-32 216.25,0 410,0 410,-32"/>
<text xml:space="preserve" text-anchor="start" x="224.25" y="-18.5" font-family="Helvetica,sans-Serif" font-size="10.00">editeurpanovisu.EditeurPanovisu.generer</text>
<text xml:space="preserve" text-anchor="middle" x="313.12" y="-6.5" font-family="Helvetica,sans-Serif" font-size="10.00">DescriptionIA</text>
</a>
</g>
</g>
<!-- Node2&#45;&gt;Node3 -->
<g id="edge2_Node000002_Node000003" class="edge">
<title>Node2&#45;&gt;Node3</title>
<g id="a_edge2_Node000002_Node000003"><a xlink:title=" ">
<path fill="none" stroke="#63b8ff" d="M434.42,-16C426.38,-16 418.29,-16 410.3,-16"/>
<polygon fill="#63b8ff" stroke="#63b8ff" points="434.21,-19.5 444.21,-16 434.21,-12.5 434.21,-19.5"/>
</a>
</g>
</g>
<!-- Node4 -->
<g id="Node000004" class="node">
<title>Node4</title>
<g id="a_Node000004"><a xlink:href="classediteurpanovisu_1_1EditeurPanovisu.html#a86c393eee88f54c694db994ddd85b90d" target="_top" xlink:title=" ">
<polygon fill="white" stroke="#666666" points="180.25,-32 0,-32 0,0 180.25,0 180.25,-32"/>
<text xml:space="preserve" text-anchor="start" x="8" y="-18.5" font-family="Helvetica,sans-Serif" font-size="10.00">editeurpanovisu.EditeurPanovisu.cree</text>
<text xml:space="preserve" text-anchor="middle" x="90.12" y="-6.5" font-family="Helvetica,sans-Serif" font-size="10.00">Environnement</text>
</a>
</g>
</g>
<!-- Node3&#45;&gt;Node4 -->
<g id="edge3_Node000003_Node000004" class="edge">
<title>Node3&#45;&gt;Node4</title>
<g id="a_edge3_Node000003_Node000004"><a xlink:title=" ">
<path fill="none" stroke="#63b8ff" d="M204.5,-16C196.45,-16 188.39,-16 180.48,-16"/>
<polygon fill="#63b8ff" stroke="#63b8ff" points="204.32,-19.5 214.32,-16 204.32,-12.5 204.32,-19.5"/>
</a>
</g>
</g>
</g>
</svg>
