<?xml version="1.0" encoding="UTF-8" standalone="no"?>
<!DOCTYPE svg PUBLIC "-//W3C//DTD SVG 1.1//EN"
 "http://www.w3.org/Graphics/SVG/1.1/DTD/svg11.dtd">
<!-- Generated by graphviz version 13.1.2 (20250808.2320)
 -->
<!-- Title: editeurpanovisu.ThemeManager.applyTheme Pages: 1 -->
<!--zoomable 328 -->

<svg id="main" version="1.1" xmlns="http://www.w3.org/2000/svg" xmlns:xlink="http://www.w3.org/1999/xlink" xml:space="preserve" onload="init(evt)">

<style type="text/css"><![CDATA[
.node, .edge {opacity: 0.7;}
.node.selected, .edge.selected {opacity: 1;}
.edge:hover path { stroke: red; }
.edge:hover polygon { stroke: red; fill: red; }
]]></style>

<defs>
  <circle id="rim" cx="0" cy="0" r="7"/>
  <circle id="rim2" cx="0" cy="0" r="3.5"/>
  <g id="zoomPlus">
    <use xlink:href="#rim" fill="#404040"><set attributeName="fill" to="#808080" begin="zoomplus.mouseover" end="zoomplus.mouseout"/></use>
    <path d="M-4,0h8M0,-4v8" fill="none" stroke="white" stroke-width="1.5" pointer-events="none"/>
  </g>
  <g id="zoomMin">
    <use xlink:href="#rim" fill="#404040"><set attributeName="fill" to="#808080" begin="zoomminus.mouseover" end="zoomminus.mouseout"/></use>
    <path d="M-4,0h8" fill="none" stroke="white" stroke-width="1.5" pointer-events="none"/>
  </g>
  <g id="arrowUp" transform="translate(30 24)">
    <use xlink:href="#rim"/>
    <path pointer-events="none" fill="none" stroke="white" stroke-width="1.5" d="M0,-3.0v7 M-2.5,-0.5L0,-3.0L2.5,-0.5"/>
  </g>
  <g id="arrowRight" transform="rotate(90) translate(36 -43)">
    <use xlink:href="#rim"/>
    <path pointer-events="none" fill="none" stroke="white" stroke-width="1.5" d="M0,-3.0v7 M-2.5,-0.5L0,-3.0L2.5,-0.5"/>
  </g>
  <g id="arrowDown" transform="rotate(180) translate(-30 -48)">
    <use xlink:href="#rim"/>
    <path pointer-events="none" fill="none" stroke="white" stroke-width="1.5" d="M0,-3.0v7 M-2.5,-0.5L0,-3.0L2.5,-0.5"/>
  </g>
  <g id="arrowLeft" transform="rotate(270) translate(-36 17)">
    <use xlink:href="#rim"/>
    <path pointer-events="none" fill="none" stroke="white" stroke-width="1.5" d="M0,-3.0v7 M-2.5,-0.5L0,-3.0L2.5,-0.5"/>
  </g>
  <g id="resetDef">
    <use xlink:href="#rim2" fill="#404040"><set attributeName="fill" to="#808080" begin="reset.mouseover" end="reset.mouseout"/></use>
  </g>
</defs>
<script type="application/ecmascript">
var viewWidth = 623;
var viewHeight = 328;
var sectionId = 'dynsection-10';
</script>
<script type="application/ecmascript" xlink:href="svg.min.js"/>
<svg id="graph" class="graph">
<g id="viewport">
<title>editeurpanovisu.ThemeManager.applyTheme</title>
<!-- Node1 -->
<g id="Node000001" class="node">
<title>Node1</title>
<g id="a_Node000001"><a xlink:title="Applique un thème à une scène JavaFX.">
<polygon fill="#999999" stroke="#666666" points="181,-182 0,-182 0,-150 181,-150 181,-182"/>
<text xml:space="preserve" text-anchor="start" x="8" y="-168.5" font-family="Helvetica,sans-Serif" font-size="10.00">editeurpanovisu.ThemeManager.apply</text>
<text xml:space="preserve" text-anchor="middle" x="90.5" y="-156.5" font-family="Helvetica,sans-Serif" font-size="10.00">Theme</text>
</a>
</g>
</g>
<!-- Node2 -->
<g id="Node000002" class="node">
<title>Node2</title>
<g id="a_Node000002"><a xlink:href="classediteurpanovisu_1_1ThemeManager.html#afd4bdeb257d4dc5f4974ac2b7ea52ba7" target="_top" xlink:title="Ajoute des styles personnalisés complémentaires pour les composants spécifiques de l&#39;application.">
<polygon fill="white" stroke="#666666" points="394.25,-320 220.75,-320 220.75,-288 394.25,-288 394.25,-320"/>
<text xml:space="preserve" text-anchor="start" x="228.75" y="-306.5" font-family="Helvetica,sans-Serif" font-size="10.00">editeurpanovisu.ThemeManager.add</text>
<text xml:space="preserve" text-anchor="middle" x="307.5" y="-294.5" font-family="Helvetica,sans-Serif" font-size="10.00">CustomStyles</text>
</a>
</g>
</g>
<!-- Node1&#45;&gt;Node2 -->
<g id="edge1_Node000001_Node000002" class="edge">
<title>Node1&#45;&gt;Node2</title>
<g id="a_edge1_Node000001_Node000002"><a xlink:title=" ">
<path fill="none" stroke="#63b8ff" d="M106.22,-182.14C128.25,-205.42 172.02,-248.43 217,-274 223.08,-277.46 229.61,-280.59 236.29,-283.42"/>
<polygon fill="#63b8ff" stroke="#63b8ff" points="234.85,-286.62 245.44,-287.05 237.43,-280.11 234.85,-286.62"/>
</a>
</g>
</g>
<!-- Node3 -->
<g id="Node000003" class="node">
<title>Node3</title>
<g id="a_Node000003"><a xlink:href="classediteurpanovisu_1_1ThemeManager.html#a14f6bcaa7772dbe0a9895a52a392625f" target="_top" xlink:title="Applique un thème AtlantaFX.">
<polygon fill="white" stroke="#666666" points="615,-182 434,-182 434,-150 615,-150 615,-182"/>
<text xml:space="preserve" text-anchor="start" x="442" y="-168.5" font-family="Helvetica,sans-Serif" font-size="10.00">editeurpanovisu.ThemeManager.apply</text>
<text xml:space="preserve" text-anchor="middle" x="524.5" y="-156.5" font-family="Helvetica,sans-Serif" font-size="10.00">AtlantaFXTheme</text>
</a>
</g>
</g>
<!-- Node1&#45;&gt;Node3 -->
<g id="edge2_Node000001_Node000003" class="edge">
<title>Node1&#45;&gt;Node3</title>
<g id="a_edge2_Node000001_Node000003"><a xlink:title=" ">
<path fill="none" stroke="#63b8ff" d="M111.22,-182.47C134.69,-200.9 175.89,-229.65 217,-241 294.54,-262.41 320.46,-262.41 398,-241 434.29,-230.98 470.65,-207.4 494.83,-189.33"/>
<polygon fill="#63b8ff" stroke="#63b8ff" points="496.77,-192.25 502.58,-183.39 492.51,-186.7 496.77,-192.25"/>
</a>
</g>
</g>
<!-- Node4 -->
<g id="Node000004" class="node">
<title>Node4</title>
<g id="a_Node000004"><a xlink:href="classediteurpanovisu_1_1ThemeManager.html#a44ee3b09a7f6b1960fdcbef28902dc35" target="_top" xlink:title="Applique un thème personnalisé (CSS legacy)">
<polygon fill="white" stroke="#666666" points="398,-232 217,-232 217,-200 398,-200 398,-232"/>
<text xml:space="preserve" text-anchor="start" x="225" y="-218.5" font-family="Helvetica,sans-Serif" font-size="10.00">editeurpanovisu.ThemeManager.apply</text>
<text xml:space="preserve" text-anchor="middle" x="307.5" y="-206.5" font-family="Helvetica,sans-Serif" font-size="10.00">CustomTheme</text>
</a>
</g>
</g>
<!-- Node1&#45;&gt;Node4 -->
<g id="edge3_Node000001_Node000004" class="edge">
<title>Node1&#45;&gt;Node4</title>
<g id="a_edge3_Node000001_Node000004"><a xlink:title=" ">
<path fill="none" stroke="#63b8ff" d="M162.2,-182.44C182.22,-187.1 204.18,-192.2 224.8,-197"/>
<polygon fill="#63b8ff" stroke="#63b8ff" points="223.75,-200.35 234.29,-199.21 225.34,-193.53 223.75,-200.35"/>
</a>
</g>
</g>
<!-- Node5 -->
<g id="Node000005" class="node">
<title>Node5</title>
<g id="a_Node000005"><a xlink:href="classediteurpanovisu_1_1ThemeManager.html#ac773b6d34662ca4f15efee8230dd4fed" target="_top" xlink:title="Applique un thème FlatLaf.">
<polygon fill="white" stroke="#666666" points="398,-182 217,-182 217,-150 398,-150 398,-182"/>
<text xml:space="preserve" text-anchor="start" x="225" y="-168.5" font-family="Helvetica,sans-Serif" font-size="10.00">editeurpanovisu.ThemeManager.apply</text>
<text xml:space="preserve" text-anchor="middle" x="307.5" y="-156.5" font-family="Helvetica,sans-Serif" font-size="10.00">FlatLafTheme</text>
</a>
</g>
</g>
<!-- Node1&#45;&gt;Node5 -->
<g id="edge4_Node000001_Node000005" class="edge">
<title>Node1&#45;&gt;Node5</title>
<g id="a_edge4_Node000001_Node000005"><a xlink:title=" ">
<path fill="none" stroke="#63b8ff" d="M181.43,-166C189.24,-166 197.18,-166 205.07,-166"/>
<polygon fill="#63b8ff" stroke="#63b8ff" points="205.07,-169.5 215.07,-166 205.07,-162.5 205.07,-169.5"/>
</a>
</g>
</g>
<!-- Node6 -->
<g id="Node000006" class="node">
<title>Node6</title>
<g id="a_Node000006"><a xlink:href="classediteurpanovisu_1_1ThemeManager.html#a9d8b4213c67946a529741ac1e9362c55" target="_top" xlink:title="Applique un thème MaterialFX.">
<polygon fill="white" stroke="#666666" points="398,-132 217,-132 217,-100 398,-100 398,-132"/>
<text xml:space="preserve" text-anchor="start" x="225" y="-118.5" font-family="Helvetica,sans-Serif" font-size="10.00">editeurpanovisu.ThemeManager.apply</text>
<text xml:space="preserve" text-anchor="middle" x="307.5" y="-106.5" font-family="Helvetica,sans-Serif" font-size="10.00">MaterialFXTheme</text>
</a>
</g>
</g>
<!-- Node1&#45;&gt;Node6 -->
<g id="edge6_Node000001_Node000006" class="edge">
<title>Node1&#45;&gt;Node6</title>
<g id="a_edge6_Node000001_Node000006"><a xlink:title=" ">
<path fill="none" stroke="#63b8ff" d="M162.2,-149.56C182.22,-144.9 204.18,-139.8 224.8,-135"/>
<polygon fill="#63b8ff" stroke="#63b8ff" points="225.34,-138.47 234.29,-132.79 223.75,-131.65 225.34,-138.47"/>
</a>
</g>
</g>
<!-- Node7 -->
<g id="Node000007" class="node">
<title>Node7</title>
<g id="a_Node000007"><a xlink:href="classediteurpanovisu_1_1ThemeManager.html#af5771c5a56ec049ce335c9a9bb76b47d" target="_top" xlink:title="Nettoie toutes les classes CSS du root.">
<polygon fill="white" stroke="#666666" points="398,-82 217,-82 217,-50 398,-50 398,-82"/>
<text xml:space="preserve" text-anchor="start" x="225" y="-68.5" font-family="Helvetica,sans-Serif" font-size="10.00">editeurpanovisu.ThemeManager.clean</text>
<text xml:space="preserve" text-anchor="middle" x="307.5" y="-56.5" font-family="Helvetica,sans-Serif" font-size="10.00">RootClasses</text>
</a>
</g>
</g>
<!-- Node1&#45;&gt;Node7 -->
<g id="edge8_Node000001_Node000007" class="edge">
<title>Node1&#45;&gt;Node7</title>
<g id="a_edge8_Node000001_Node000007"><a xlink:title=" ">
<path fill="none" stroke="#63b8ff" d="M114.55,-149.65C139,-132.95 179.22,-107.22 217,-91 220.97,-89.29 225.09,-87.67 229.29,-86.13"/>
<polygon fill="#63b8ff" stroke="#63b8ff" points="230.09,-89.56 238.4,-82.98 227.8,-82.94 230.09,-89.56"/>
</a>
</g>
</g>
<!-- Node8 -->
<g id="Node000008" class="node">
<title>Node8</title>
<g id="a_Node000008"><a xlink:href="classediteurpanovisu_1_1ThemeManager.html#a539715f04c7d0e5411fb62afef4e6ba2" target="_top" xlink:title="Sauvegarde le thème dans les préférences.">
<polygon fill="white" stroke="#666666" points="396.88,-32 218.12,-32 218.12,0 396.88,0 396.88,-32"/>
<text xml:space="preserve" text-anchor="start" x="226.12" y="-18.5" font-family="Helvetica,sans-Serif" font-size="10.00">editeurpanovisu.ThemeManager.save</text>
<text xml:space="preserve" text-anchor="middle" x="307.5" y="-6.5" font-family="Helvetica,sans-Serif" font-size="10.00">ThemePreference</text>
</a>
</g>
</g>
<!-- Node1&#45;&gt;Node8 -->
<g id="edge9_Node000001_Node000008" class="edge">
<title>Node1&#45;&gt;Node8</title>
<g id="a_edge9_Node000001_Node000008"><a xlink:title=" ">
<path fill="none" stroke="#63b8ff" d="M103.44,-149.54C123.73,-122.74 167.59,-69.81 217,-41 219.35,-39.63 221.78,-38.33 224.27,-37.1"/>
<polygon fill="#63b8ff" stroke="#63b8ff" points="225.69,-40.3 233.4,-33.03 222.84,-33.91 225.69,-40.3"/>
</a>
</g>
</g>
<!-- Node5&#45;&gt;Node3 -->
<g id="edge5_Node000005_Node000003" class="edge">
<title>Node5&#45;&gt;Node3</title>
<g id="a_edge5_Node000005_Node000003"><a xlink:title=" ">
<path fill="none" stroke="#63b8ff" d="M398.43,-166C406.24,-166 414.18,-166 422.07,-166"/>
<polygon fill="#63b8ff" stroke="#63b8ff" points="422.07,-169.5 432.07,-166 422.07,-162.5 422.07,-169.5"/>
</a>
</g>
</g>
<!-- Node6&#45;&gt;Node3 -->
<g id="edge7_Node000006_Node000003" class="edge">
<title>Node6&#45;&gt;Node3</title>
<g id="a_edge7_Node000006_Node000003"><a xlink:title=" ">
<path fill="none" stroke="#63b8ff" d="M379.2,-132.44C399.22,-137.1 421.18,-142.2 441.8,-147"/>
<polygon fill="#63b8ff" stroke="#63b8ff" points="440.75,-150.35 451.29,-149.21 442.34,-143.53 440.75,-150.35"/>
</a>
</g>
</g>
</g>
</svg>

<g id="navigator" transform="translate(0 0)" fill="#404254">
  <rect fill="#f2f5e9" fill-opacity="0.5" stroke="#606060" stroke-width=".5" x="0" y="0" width="60" height="60"/>
  <use id="zoomplus" xlink:href="#zoomPlus" x="17" y="9" onmousedown="handleZoom(evt,'in')"/>
  <use id="zoomminus" xlink:href="#zoomMin" x="42" y="9" onmousedown="handleZoom(evt,'out')"/>
  <use id="reset" xlink:href="#resetDef" x="30" y="36" onmousedown="handleReset()"/>
   <use id="arrowup" xlink:href="#arrowUp" x="0" y="0" onmousedown="handlePan(0,-1)"/>
  <use id="arrowright" xlink:href="#arrowRight" x="0" y="0" onmousedown="handlePan(1,0)"/>
  <use id="arrowdown" xlink:href="#arrowDown" x="0" y="0" onmousedown="handlePan(0,1)"/>
  <use id="arrowleft" xlink:href="#arrowLeft" x="0" y="0" onmousedown="handlePan(-1,0)"/>
</g>
<svg viewBox="0 0 15 15" width="100%" height="30px" preserveAspectRatio="xMaxYMin meet">
 <g id="arrow_out" transform="scale(0.3 0.3)">
  <a xlink:href="classediteurpanovisu_1_1ThemeManager_a5e8923bdccce312cd3cad810c607135f_cgraph_org.svg" target="_base">
   <rect id="button" ry="5" rx="5" y="6" x="6" height="38" width="38"
        fill="#f2f5e9" fill-opacity="0.5" stroke="#606060" stroke-width="1.0"/>
   <path id="arrow"
     d="M 11.500037,31.436501 C 11.940474,20.09759 22.043105,11.32322 32.158766,21.979434 L 37.068811,17.246167 C 37.068811,17.246167 37.088388,32 37.088388,32 L 22.160133,31.978069 C 22.160133,31.978069 26.997745,27.140456 26.997745,27.140456 C 18.528582,18.264221 13.291696,25.230495 11.500037,31.436501 z"
     style="fill:#404040;"/>
  </a>
 </g>
</svg>

<style type='text/css'>
<![CDATA[
[data-mouse-over-selected='false'] { opacity: 0.7; }
[data-mouse-over-selected='true']  { opacity: 1.0; }
]]>
</style>
<script type="application/ecmascript"><![CDATA[
document.addEventListener('DOMContentLoaded', (event) => {
  highlightEdges();
  highlightAdjacentNodes();
});
]]></script>
</svg>
