<?xml version="1.0" encoding="UTF-8" standalone="no"?>
<!DOCTYPE svg PUBLIC "-//W3C//DTD SVG 1.1//EN"
 "http://www.w3.org/Graphics/SVG/1.1/DTD/svg11.dtd">
<!-- Generated by graphviz version 13.1.2 (20250808.2320)
 -->
<!-- Title: editeurpanovisu.TestAIClients.testHuggingFace Pages: 1 -->
<!--zoomable 180 -->

<svg id="main" version="1.1" xmlns="http://www.w3.org/2000/svg" xmlns:xlink="http://www.w3.org/1999/xlink" xml:space="preserve" onload="init(evt)">

<style type="text/css"><![CDATA[
.node, .edge {opacity: 0.7;}
.node.selected, .edge.selected {opacity: 1;}
.edge:hover path { stroke: red; }
.edge:hover polygon { stroke: red; fill: red; }
]]></style>

<defs>
  <circle id="rim" cx="0" cy="0" r="7"/>
  <circle id="rim2" cx="0" cy="0" r="3.5"/>
  <g id="zoomPlus">
    <use xlink:href="#rim" fill="#404040"><set attributeName="fill" to="#808080" begin="zoomplus.mouseover" end="zoomplus.mouseout"/></use>
    <path d="M-4,0h8M0,-4v8" fill="none" stroke="white" stroke-width="1.5" pointer-events="none"/>
  </g>
  <g id="zoomMin">
    <use xlink:href="#rim" fill="#404040"><set attributeName="fill" to="#808080" begin="zoomminus.mouseover" end="zoomminus.mouseout"/></use>
    <path d="M-4,0h8" fill="none" stroke="white" stroke-width="1.5" pointer-events="none"/>
  </g>
  <g id="arrowUp" transform="translate(30 24)">
    <use xlink:href="#rim"/>
    <path pointer-events="none" fill="none" stroke="white" stroke-width="1.5" d="M0,-3.0v7 M-2.5,-0.5L0,-3.0L2.5,-0.5"/>
  </g>
  <g id="arrowRight" transform="rotate(90) translate(36 -43)">
    <use xlink:href="#rim"/>
    <path pointer-events="none" fill="none" stroke="white" stroke-width="1.5" d="M0,-3.0v7 M-2.5,-0.5L0,-3.0L2.5,-0.5"/>
  </g>
  <g id="arrowDown" transform="rotate(180) translate(-30 -48)">
    <use xlink:href="#rim"/>
    <path pointer-events="none" fill="none" stroke="white" stroke-width="1.5" d="M0,-3.0v7 M-2.5,-0.5L0,-3.0L2.5,-0.5"/>
  </g>
  <g id="arrowLeft" transform="rotate(270) translate(-36 17)">
    <use xlink:href="#rim"/>
    <path pointer-events="none" fill="none" stroke="white" stroke-width="1.5" d="M0,-3.0v7 M-2.5,-0.5L0,-3.0L2.5,-0.5"/>
  </g>
  <g id="resetDef">
    <use xlink:href="#rim2" fill="#404040"><set attributeName="fill" to="#808080" begin="reset.mouseover" end="reset.mouseout"/></use>
  </g>
</defs>
<script type="application/ecmascript">
var viewWidth = 536;
var viewHeight = 180;
var sectionId = 'dynsection-2';
</script>
<script type="application/ecmascript" xlink:href="svg.min.js"/>
<svg id="graph" class="graph">
<g id="viewport">
<title>editeurpanovisu.TestAIClients.testHuggingFace</title>
<!-- Node1 -->
<g id="Node000001" class="node">
<title>Node1</title>
<g id="a_Node000001"><a xlink:title="Test du client Hugging Face.">
<polygon fill="#999999" stroke="#666666" points="166,-107 0,-107 0,-75 166,-75 166,-107"/>
<text xml:space="preserve" text-anchor="start" x="8" y="-93.5" font-family="Helvetica,sans-Serif" font-size="10.00">editeurpanovisu.TestAIClients.test</text>
<text xml:space="preserve" text-anchor="middle" x="83" y="-81.5" font-family="Helvetica,sans-Serif" font-size="10.00">HuggingFace</text>
</a>
</g>
</g>
<!-- Node2 -->
<g id="Node000002" class="node">
<title>Node2</title>
<g id="a_Node000002"><a xlink:href="classediteurpanovisu_1_1HuggingFaceClient.html#a4c0af2a214470600ed8821aa4038331f" target="_top" xlink:title="Génère du texte à partir d&#39;un prompt.">
<polygon fill="white" stroke="#666666" points="528,-154 383,-154 383,-122 528,-122 528,-154"/>
<text xml:space="preserve" text-anchor="start" x="391" y="-140.5" font-family="Helvetica,sans-Serif" font-size="10.00">editeurpanovisu.HuggingFace</text>
<text xml:space="preserve" text-anchor="middle" x="455.5" y="-128.5" font-family="Helvetica,sans-Serif" font-size="10.00">Client.generateText</text>
</a>
</g>
</g>
<!-- Node1&#45;&gt;Node2 -->
<g id="edge1_Node000001_Node000002" class="edge">
<title>Node1&#45;&gt;Node2</title>
<g id="a_edge1_Node000001_Node000002"><a xlink:title=" ">
<path fill="none" stroke="#63b8ff" d="M113.48,-107.43C136.73,-119.39 170.38,-134.58 202,-141 257.7,-152.31 321.75,-151.4 371.4,-147.74"/>
<polygon fill="#63b8ff" stroke="#63b8ff" points="371.53,-151.24 381.22,-146.96 370.97,-144.26 371.53,-151.24"/>
</a>
</g>
</g>
<!-- Node3 -->
<g id="Node000003" class="node">
<title>Node3</title>
<g id="a_Node000003"><a xlink:href="classediteurpanovisu_1_1HuggingFaceClient.html#a1bc40f824a65cb1221cbf1c7cae5e170" target="_top" xlink:title="Génère du texte de manière asynchrone.">
<polygon fill="white" stroke="#666666" points="347,-132 202,-132 202,-100 347,-100 347,-132"/>
<text xml:space="preserve" text-anchor="start" x="210" y="-118.5" font-family="Helvetica,sans-Serif" font-size="10.00">editeurpanovisu.HuggingFace</text>
<text xml:space="preserve" text-anchor="middle" x="274.5" y="-106.5" font-family="Helvetica,sans-Serif" font-size="10.00">Client.generateTextAsync</text>
</a>
</g>
</g>
<!-- Node1&#45;&gt;Node3 -->
<g id="edge3_Node000001_Node000003" class="edge">
<title>Node1&#45;&gt;Node3</title>
<g id="a_edge3_Node000001_Node000003"><a xlink:title=" ">
<path fill="none" stroke="#63b8ff" d="M166.29,-101.86C174.3,-102.91 182.43,-103.99 190.45,-105.04"/>
<polygon fill="#63b8ff" stroke="#63b8ff" points="189.82,-108.49 200.19,-106.33 190.73,-101.55 189.82,-108.49"/>
</a>
</g>
</g>
<!-- Node4 -->
<g id="Node000004" class="node">
<title>Node4</title>
<g id="a_Node000004"><a xlink:href="classediteurpanovisu_1_1HuggingFaceClient.html#adb750e8b85863fec36e617afdb9be775" target="_top" xlink:title="Récupère le nom du modèle utilisé">
<polygon fill="white" stroke="#666666" points="347,-82 202,-82 202,-50 347,-50 347,-82"/>
<text xml:space="preserve" text-anchor="start" x="210" y="-68.5" font-family="Helvetica,sans-Serif" font-size="10.00">editeurpanovisu.HuggingFace</text>
<text xml:space="preserve" text-anchor="middle" x="274.5" y="-56.5" font-family="Helvetica,sans-Serif" font-size="10.00">Client.getModelName</text>
</a>
</g>
</g>
<!-- Node1&#45;&gt;Node4 -->
<g id="edge5_Node000001_Node000004" class="edge">
<title>Node1&#45;&gt;Node4</title>
<g id="a_edge5_Node000001_Node000004"><a xlink:title=" ">
<path fill="none" stroke="#63b8ff" d="M166.29,-80.14C174.3,-79.09 182.43,-78.01 190.45,-76.96"/>
<polygon fill="#63b8ff" stroke="#63b8ff" points="190.73,-80.45 200.19,-75.67 189.82,-73.51 190.73,-80.45"/>
</a>
</g>
</g>
<!-- Node5 -->
<g id="Node000005" class="node">
<title>Node5</title>
<g id="a_Node000005"><a xlink:href="classediteurpanovisu_1_1HuggingFaceClient.html#a8ab14ad60a8c19d17407402ca93cbbce" target="_top" xlink:title="Vérifie si le client est configuré correctement.">
<polygon fill="white" stroke="#666666" points="347,-32 202,-32 202,0 347,0 347,-32"/>
<text xml:space="preserve" text-anchor="start" x="210" y="-18.5" font-family="Helvetica,sans-Serif" font-size="10.00">editeurpanovisu.HuggingFace</text>
<text xml:space="preserve" text-anchor="middle" x="274.5" y="-6.5" font-family="Helvetica,sans-Serif" font-size="10.00">Client.isConfigured</text>
</a>
</g>
</g>
<!-- Node1&#45;&gt;Node5 -->
<g id="edge6_Node000001_Node000005" class="edge">
<title>Node1&#45;&gt;Node5</title>
<g id="a_edge6_Node000001_Node000005"><a xlink:title=" ">
<path fill="none" stroke="#63b8ff" d="M121.22,-74.5C144.32,-64.45 174.71,-51.54 202,-41 206.09,-39.42 210.33,-37.83 214.61,-36.25"/>
<polygon fill="#63b8ff" stroke="#63b8ff" points="215.64,-39.6 223.85,-32.9 213.25,-33.02 215.64,-39.6"/>
</a>
</g>
</g>
<!-- Node2&#45;&gt;Node2 -->
<g id="edge2_Node000002_Node000002" class="edge">
<title>Node2&#45;&gt;Node2</title>
<g id="a_edge2_Node000002_Node000002"><a xlink:title=" ">
<path fill="none" stroke="#63b8ff" d="M423.19,-154.44C417.15,-163.58 427.93,-172 455.5,-172 470.58,-172 480.63,-169.48 485.66,-165.71"/>
<polygon fill="#63b8ff" stroke="#63b8ff" points="489.09,-166.41 487.53,-155.93 482.22,-165.1 489.09,-166.41"/>
</a>
</g>
</g>
<!-- Node3&#45;&gt;Node2 -->
<g id="edge4_Node000003_Node000002" class="edge">
<title>Node3&#45;&gt;Node2</title>
<g id="a_edge4_Node000003_Node000002"><a xlink:title=" ">
<path fill="none" stroke="#63b8ff" d="M347.27,-124.82C355.21,-125.8 363.33,-126.8 371.39,-127.79"/>
<polygon fill="#63b8ff" stroke="#63b8ff" points="370.85,-131.25 381.21,-128.99 371.71,-124.3 370.85,-131.25"/>
</a>
</g>
</g>
</g>
</svg>

<g id="navigator" transform="translate(0 0)" fill="#404254">
  <rect fill="#f2f5e9" fill-opacity="0.5" stroke="#606060" stroke-width=".5" x="0" y="0" width="60" height="60"/>
  <use id="zoomplus" xlink:href="#zoomPlus" x="17" y="9" onmousedown="handleZoom(evt,'in')"/>
  <use id="zoomminus" xlink:href="#zoomMin" x="42" y="9" onmousedown="handleZoom(evt,'out')"/>
  <use id="reset" xlink:href="#resetDef" x="30" y="36" onmousedown="handleReset()"/>
   <use id="arrowup" xlink:href="#arrowUp" x="0" y="0" onmousedown="handlePan(0,-1)"/>
  <use id="arrowright" xlink:href="#arrowRight" x="0" y="0" onmousedown="handlePan(1,0)"/>
  <use id="arrowdown" xlink:href="#arrowDown" x="0" y="0" onmousedown="handlePan(0,1)"/>
  <use id="arrowleft" xlink:href="#arrowLeft" x="0" y="0" onmousedown="handlePan(-1,0)"/>
</g>
<svg viewBox="0 0 15 15" width="100%" height="30px" preserveAspectRatio="xMaxYMin meet">
 <g id="arrow_out" transform="scale(0.3 0.3)">
  <a xlink:href="classediteurpanovisu_1_1TestAIClients_a55d1e3e95eea57dd03038092f607bff7_cgraph_org.svg" target="_base">
   <rect id="button" ry="5" rx="5" y="6" x="6" height="38" width="38"
        fill="#f2f5e9" fill-opacity="0.5" stroke="#606060" stroke-width="1.0"/>
   <path id="arrow"
     d="M 11.500037,31.436501 C 11.940474,20.09759 22.043105,11.32322 32.158766,21.979434 L 37.068811,17.246167 C 37.068811,17.246167 37.088388,32 37.088388,32 L 22.160133,31.978069 C 22.160133,31.978069 26.997745,27.140456 26.997745,27.140456 C 18.528582,18.264221 13.291696,25.230495 11.500037,31.436501 z"
     style="fill:#404040;"/>
  </a>
 </g>
</svg>

<style type='text/css'>
<![CDATA[
[data-mouse-over-selected='false'] { opacity: 0.7; }
[data-mouse-over-selected='true']  { opacity: 1.0; }
]]>
</style>
<script type="application/ecmascript"><![CDATA[
document.addEventListener('DOMContentLoaded', (event) => {
  highlightEdges();
  highlightAdjacentNodes();
});
]]></script>
</svg>
