<?xml version="1.0" encoding="UTF-8" standalone="no"?>
<!DOCTYPE svg PUBLIC "-//W3C//DTD SVG 1.1//EN"
 "http://www.w3.org/Graphics/SVG/1.1/DTD/svg11.dtd">
<!-- Generated by graphviz version 13.1.2 (20250808.2320)
 -->
<!-- Title: editeurpanovisu.GestionnaireInterfaceController.getStrLien2BarrePersonnalisee Pages: 1 -->
<!--zoomable 396 -->

<svg id="main" version="1.1" xmlns="http://www.w3.org/2000/svg" xmlns:xlink="http://www.w3.org/1999/xlink" xml:space="preserve" onload="init(evt)">

<style type="text/css"><![CDATA[
.node, .edge {opacity: 0.7;}
.node.selected, .edge.selected {opacity: 1;}
.edge:hover path { stroke: red; }
.edge:hover polygon { stroke: red; fill: red; }
]]></style>

<defs>
  <circle id="rim" cx="0" cy="0" r="7"/>
  <circle id="rim2" cx="0" cy="0" r="3.5"/>
  <g id="zoomPlus">
    <use xlink:href="#rim" fill="#404040"><set attributeName="fill" to="#808080" begin="zoomplus.mouseover" end="zoomplus.mouseout"/></use>
    <path d="M-4,0h8M0,-4v8" fill="none" stroke="white" stroke-width="1.5" pointer-events="none"/>
  </g>
  <g id="zoomMin">
    <use xlink:href="#rim" fill="#404040"><set attributeName="fill" to="#808080" begin="zoomminus.mouseover" end="zoomminus.mouseout"/></use>
    <path d="M-4,0h8" fill="none" stroke="white" stroke-width="1.5" pointer-events="none"/>
  </g>
  <g id="arrowUp" transform="translate(30 24)">
    <use xlink:href="#rim"/>
    <path pointer-events="none" fill="none" stroke="white" stroke-width="1.5" d="M0,-3.0v7 M-2.5,-0.5L0,-3.0L2.5,-0.5"/>
  </g>
  <g id="arrowRight" transform="rotate(90) translate(36 -43)">
    <use xlink:href="#rim"/>
    <path pointer-events="none" fill="none" stroke="white" stroke-width="1.5" d="M0,-3.0v7 M-2.5,-0.5L0,-3.0L2.5,-0.5"/>
  </g>
  <g id="arrowDown" transform="rotate(180) translate(-30 -48)">
    <use xlink:href="#rim"/>
    <path pointer-events="none" fill="none" stroke="white" stroke-width="1.5" d="M0,-3.0v7 M-2.5,-0.5L0,-3.0L2.5,-0.5"/>
  </g>
  <g id="arrowLeft" transform="rotate(270) translate(-36 17)">
    <use xlink:href="#rim"/>
    <path pointer-events="none" fill="none" stroke="white" stroke-width="1.5" d="M0,-3.0v7 M-2.5,-0.5L0,-3.0L2.5,-0.5"/>
  </g>
  <g id="resetDef">
    <use xlink:href="#rim2" fill="#404040"><set attributeName="fill" to="#808080" begin="reset.mouseover" end="reset.mouseout"/></use>
  </g>
</defs>
<script type="application/ecmascript">
var viewWidth = 2370;
var viewHeight = 396;
var sectionId = 'dynsection-169';
</script>
<script type="application/ecmascript" xlink:href="svg.min.js"/>
<svg id="graph" class="graph">
<g id="viewport">
<title>editeurpanovisu.GestionnaireInterfaceController.getStrLien2BarrePersonnalisee</title>
<!-- Node1 -->
<g id="Node000001" class="node">
<title>Node1</title>
<g id="a_Node000001"><a xlink:title=" ">
<polygon fill="#999999" stroke="#666666" points="2361.5,-145 2212.75,-145 2212.75,-101 2361.5,-101 2361.5,-145"/>
<text xml:space="preserve" text-anchor="start" x="2220.75" y="-131.5" font-family="Helvetica,sans-Serif" font-size="10.00">editeurpanovisu.Gestionnaire</text>
<text xml:space="preserve" text-anchor="start" x="2220.75" y="-119.5" font-family="Helvetica,sans-Serif" font-size="10.00">InterfaceController.getStrLien2</text>
<text xml:space="preserve" text-anchor="middle" x="2287.12" y="-107.5" font-family="Helvetica,sans-Serif" font-size="10.00">BarrePersonnalisee</text>
</a>
</g>
</g>
<!-- Node2 -->
<g id="Node000002" class="node">
<title>Node2</title>
<g id="a_Node000002"><a xlink:href="classediteurpanovisu_1_1GestionnaireInterfaceController.html#a55c8afda208674955a13d48d02be41b8" target="_top" xlink:title=" ">
<polygon fill="white" stroke="#666666" points="2176.75,-201 2009.25,-201 2009.25,-169 2176.75,-169 2176.75,-201"/>
<text xml:space="preserve" text-anchor="start" x="2017.25" y="-187.5" font-family="Helvetica,sans-Serif" font-size="10.00">editeurpanovisu.Gestionnaire</text>
<text xml:space="preserve" text-anchor="middle" x="2093" y="-175.5" font-family="Helvetica,sans-Serif" font-size="10.00">InterfaceController.afficheTemplate</text>
</a>
</g>
</g>
<!-- Node1&#45;&gt;Node2 -->
<g id="edge1_Node000001_Node000002" class="edge">
<title>Node1&#45;&gt;Node2</title>
<g id="a_edge1_Node000001_Node000002"><a xlink:title=" ">
<path fill="none" stroke="#63b8ff" d="M2205.56,-149C2185.06,-155.62 2163.59,-162.54 2145.03,-168.53"/>
<polygon fill="#63b8ff" stroke="#63b8ff" points="2206.61,-152.34 2215.05,-145.94 2204.46,-145.68 2206.61,-152.34"/>
</a>
</g>
</g>
<!-- Node10 -->
<g id="Node000010" class="node">
<title>Node10</title>
<g id="a_Node000010"><a xlink:href="classediteurpanovisu_1_1EditeurPanovisu.html#a94e36b9e9d09ab1a4c852b8a8cefa927" target="_top" xlink:title=" ">
<polygon fill="white" stroke="#666666" points="647.25,-161 456.5,-161 456.5,-129 647.25,-129 647.25,-161"/>
<text xml:space="preserve" text-anchor="start" x="464.5" y="-147.5" font-family="Helvetica,sans-Serif" font-size="10.00">editeurpanovisu.EditeurPanovisu.genere</text>
<text xml:space="preserve" text-anchor="middle" x="551.88" y="-135.5" font-family="Helvetica,sans-Serif" font-size="10.00">Visite</text>
</a>
</g>
</g>
<!-- Node1&#45;&gt;Node10 -->
<g id="edge27_Node000001_Node000010" class="edge">
<title>Node1&#45;&gt;Node10</title>
<g id="a_edge27_Node000001_Node000010"><a xlink:title=" ">
<path fill="none" stroke="#63b8ff" d="M2233.31,-95.63C2158.34,-59.39 2015.8,0 1886.75,0 1886.75,0 1886.75,0 1223.25,0 982.42,0 703.7,-90.5 597.27,-128.51"/>
<polygon fill="#63b8ff" stroke="#63b8ff" points="2231.55,-98.67 2242.07,-99.92 2234.63,-92.38 2231.55,-98.67"/>
</a>
</g>
</g>
<!-- Node3 -->
<g id="Node000003" class="node">
<title>Node3</title>
<g id="a_Node000003"><a xlink:href="classediteurpanovisu_1_1EditeurPanovisu.html#a87b29dc258cfc67370b1f27809e91b8e" target="_top" xlink:title=" ">
<polygon fill="white" stroke="#666666" points="1973.25,-262 1798.25,-262 1798.25,-230 1973.25,-230 1973.25,-262"/>
<text xml:space="preserve" text-anchor="start" x="1806.25" y="-248.5" font-family="Helvetica,sans-Serif" font-size="10.00">editeurpanovisu.EditeurPanovisu.tsk</text>
<text xml:space="preserve" text-anchor="middle" x="1885.75" y="-236.5" font-family="Helvetica,sans-Serif" font-size="10.00">AnalyseFichierPVU</text>
</a>
</g>
</g>
<!-- Node2&#45;&gt;Node3 -->
<g id="edge2_Node000002_Node000003" class="edge">
<title>Node2&#45;&gt;Node3</title>
<g id="a_edge2_Node000002_Node000003"><a xlink:title=" ">
<path fill="none" stroke="#63b8ff" d="M2025.81,-204.67C1998.79,-212.7 1967.91,-221.88 1942.12,-229.54"/>
<polygon fill="#63b8ff" stroke="#63b8ff" points="2026.69,-208.06 2035.28,-201.86 2024.69,-201.35 2026.69,-208.06"/>
</a>
</g>
</g>
<!-- Node4 -->
<g id="Node000004" class="node">
<title>Node4</title>
<g id="a_Node000004"><a xlink:href="classediteurpanovisu_1_1EditeurPanovisu.html#ab4beb1597b660a4a253befc6e76f1c54" target="_top" xlink:title=" ">
<polygon fill="white" stroke="#666666" points="1092.88,-388 907.38,-388 907.38,-356 1092.88,-356 1092.88,-388"/>
<text xml:space="preserve" text-anchor="start" x="915.38" y="-374.5" font-family="Helvetica,sans-Serif" font-size="10.00">editeurpanovisu.EditeurPanovisu.projet</text>
<text xml:space="preserve" text-anchor="middle" x="1000.12" y="-362.5" font-family="Helvetica,sans-Serif" font-size="10.00">Charge</text>
</a>
</g>
</g>
<!-- Node3&#45;&gt;Node4 -->
<g id="edge3_Node000003_Node000004" class="edge">
<title>Node3&#45;&gt;Node4</title>
<g id="a_edge3_Node000003_Node000004"><a xlink:title=" ">
<path fill="none" stroke="#63b8ff" d="M1818.24,-265.51C1712.99,-295.26 1501.09,-350.68 1317,-371 1242.05,-379.27 1156.49,-378.95 1093.33,-376.87"/>
<polygon fill="#63b8ff" stroke="#63b8ff" points="1818.89,-268.96 1827.55,-262.86 1816.97,-262.23 1818.89,-268.96"/>
</a>
</g>
</g>
<!-- Node7 -->
<g id="Node000007" class="node">
<title>Node7</title>
<g id="a_Node000007"><a xlink:href="classediteurpanovisu_1_1EditeurPanovisu.html#a6d19b4d885ee6fcec827b91956295732" target="_top" xlink:title=" ">
<polygon fill="white" stroke="#666666" points="1762.25,-262 1576.75,-262 1576.75,-230 1762.25,-230 1762.25,-262"/>
<text xml:space="preserve" text-anchor="start" x="1584.75" y="-248.5" font-family="Helvetica,sans-Serif" font-size="10.00">editeurpanovisu.EditeurPanovisu.projet</text>
<text xml:space="preserve" text-anchor="middle" x="1669.5" y="-236.5" font-family="Helvetica,sans-Serif" font-size="10.00">ChargeNom</text>
</a>
</g>
</g>
<!-- Node3&#45;&gt;Node7 -->
<g id="edge6_Node000003_Node000007" class="edge">
<title>Node3&#45;&gt;Node7</title>
<g id="a_edge6_Node000003_Node000007"><a xlink:title=" ">
<path fill="none" stroke="#63b8ff" d="M1786.41,-246C1778.51,-246 1770.55,-246 1762.7,-246"/>
<polygon fill="#63b8ff" stroke="#63b8ff" points="1786.4,-249.5 1796.4,-246 1786.4,-242.5 1786.4,-249.5"/>
</a>
</g>
</g>
<!-- Node5 -->
<g id="Node000005" class="node">
<title>Node5</title>
<g id="a_Node000005"><a xlink:href="classediteurpanovisu_1_1EditeurPanovisu.html#ac912b80c1f2ac97def60ff005c5c480b" target="_top" xlink:title=" ">
<polygon fill="white" stroke="#666666" points="420.5,-212 216.25,-212 216.25,-192 420.5,-192 420.5,-212"/>
<text xml:space="preserve" text-anchor="middle" x="318.38" y="-198.5" font-family="Helvetica,sans-Serif" font-size="10.00">editeurpanovisu.EditeurPanovisu.creeMenu</text>
</a>
</g>
</g>
<!-- Node4&#45;&gt;Node5 -->
<g id="edge4_Node000004_Node000005" class="edge">
<title>Node4&#45;&gt;Node5</title>
<g id="a_edge4_Node000004_Node000005"><a xlink:title=" ">
<path fill="none" stroke="#63b8ff" d="M895.69,-382.08C782.55,-388.77 598.42,-386.64 456.5,-322 398.35,-295.51 346.59,-236.11 327.34,-212.23"/>
<polygon fill="#63b8ff" stroke="#63b8ff" points="895.82,-385.58 905.58,-381.46 895.38,-378.6 895.82,-385.58"/>
</a>
</g>
</g>
<!-- Node6 -->
<g id="Node000006" class="node">
<title>Node6</title>
<g id="a_Node000006"><a xlink:href="classediteurpanovisu_1_1EditeurPanovisu.html#a86c393eee88f54c694db994ddd85b90d" target="_top" xlink:title=" ">
<polygon fill="white" stroke="#666666" points="180.25,-218 0,-218 0,-186 180.25,-186 180.25,-218"/>
<text xml:space="preserve" text-anchor="start" x="8" y="-204.5" font-family="Helvetica,sans-Serif" font-size="10.00">editeurpanovisu.EditeurPanovisu.cree</text>
<text xml:space="preserve" text-anchor="middle" x="90.12" y="-192.5" font-family="Helvetica,sans-Serif" font-size="10.00">Environnement</text>
</a>
</g>
</g>
<!-- Node5&#45;&gt;Node6 -->
<g id="edge5_Node000005_Node000006" class="edge">
<title>Node5&#45;&gt;Node6</title>
<g id="a_edge5_Node000005_Node000006"><a xlink:title=" ">
<path fill="none" stroke="#63b8ff" d="M204.51,-202C196.49,-202 188.46,-202 180.6,-202"/>
<polygon fill="#63b8ff" stroke="#63b8ff" points="204.32,-205.5 214.32,-202 204.32,-198.5 204.32,-205.5"/>
</a>
</g>
</g>
<!-- Node7&#45;&gt;Node5 -->
<g id="edge26_Node000007_Node000005" class="edge">
<title>Node7&#45;&gt;Node5</title>
<g id="a_edge26_Node000007_Node000005"><a xlink:title=" ">
<path fill="none" stroke="#63b8ff" d="M1621.8,-224.9C1525.72,-182.78 1297.91,-89.52 1095.5,-57 952.85,-34.08 506.2,-58.57 456.5,-79 396.46,-103.69 345.41,-166.56 326.85,-191.54"/>
<polygon fill="#63b8ff" stroke="#63b8ff" points="1620.37,-228.09 1630.93,-228.92 1623.19,-221.69 1620.37,-228.09"/>
</a>
</g>
</g>
<!-- Node8 -->
<g id="Node000008" class="node">
<title>Node8</title>
<g id="a_Node000008"><a xlink:href="classediteurpanovisu_1_1EditeurPanovisu.html#af0d1c32bb78acbff561c822a0d15f760" target="_top" xlink:title=" ">
<polygon fill="white" stroke="#666666" points="1540.75,-284 1353,-284 1353,-252 1540.75,-252 1540.75,-284"/>
<text xml:space="preserve" text-anchor="start" x="1361" y="-270.5" font-family="Helvetica,sans-Serif" font-size="10.00">editeurpanovisu.EditeurPanovisu.ajoute</text>
<text xml:space="preserve" text-anchor="middle" x="1446.88" y="-258.5" font-family="Helvetica,sans-Serif" font-size="10.00">FichierHisto</text>
</a>
</g>
</g>
<!-- Node7&#45;&gt;Node8 -->
<g id="edge7_Node000007_Node000008" class="edge">
<title>Node7&#45;&gt;Node8</title>
<g id="a_edge7_Node000007_Node000008"><a xlink:title=" ">
<path fill="none" stroke="#63b8ff" d="M1565.22,-249.56C1557.17,-250.34 1549.08,-251.16 1541.11,-252.02"/>
<polygon fill="#63b8ff" stroke="#63b8ff" points="1565.39,-253.06 1575.03,-248.65 1564.74,-246.09 1565.39,-253.06"/>
</a>
</g>
</g>
<!-- Node8&#45;&gt;Node4 -->
<g id="edge8_Node000008_Node000004" class="edge">
<title>Node8&#45;&gt;Node4</title>
<g id="a_edge8_Node000008_Node000004"><a xlink:title=" ">
<path fill="none" stroke="#63b8ff" d="M1415.1,-290.73C1390.04,-307.95 1353.03,-330.54 1317,-342 1244.03,-365.21 1157.18,-372.06 1093.03,-373.47"/>
<polygon fill="#63b8ff" stroke="#63b8ff" points="1417.01,-293.67 1423.18,-285.06 1412.99,-287.94 1417.01,-293.67"/>
</a>
</g>
</g>
<!-- Node8&#45;&gt;Node7 -->
<g id="edge9_Node000008_Node000007" class="edge">
<title>Node8&#45;&gt;Node7</title>
<g id="a_edge9_Node000008_Node000007"><a xlink:title=" ">
<path fill="none" stroke="#63b8ff" d="M1552.44,-264.31C1560.49,-263.54 1568.58,-262.7 1576.53,-261.84"/>
<polygon fill="#63b8ff" stroke="#63b8ff" points="1552.25,-260.82 1542.62,-265.24 1552.9,-267.79 1552.25,-260.82"/>
</a>
</g>
</g>
<!-- Node9 -->
<g id="Node000009" class="node">
<title>Node9</title>
<g id="a_Node000009"><a xlink:href="classediteurpanovisu_1_1EditeurPanovisu.html#a9f3ea25b35d4884524508dab3dc4fd6a" target="_top" xlink:title=" ">
<polygon fill="white" stroke="#666666" points="1317,-240 1131.5,-240 1131.5,-208 1317,-208 1317,-240"/>
<text xml:space="preserve" text-anchor="start" x="1139.5" y="-226.5" font-family="Helvetica,sans-Serif" font-size="10.00">editeurpanovisu.EditeurPanovisu.projet</text>
<text xml:space="preserve" text-anchor="middle" x="1224.25" y="-214.5" font-family="Helvetica,sans-Serif" font-size="10.00">Sauve</text>
</a>
</g>
</g>
<!-- Node8&#45;&gt;Node9 -->
<g id="edge10_Node000008_Node000009" class="edge">
<title>Node8&#45;&gt;Node9</title>
<g id="a_edge10_Node000008_Node000009"><a xlink:title=" ">
<path fill="none" stroke="#63b8ff" d="M1352.26,-249.33C1337.54,-246.4 1322.43,-243.38 1307.98,-240.5"/>
<polygon fill="#63b8ff" stroke="#63b8ff" points="1351.43,-252.73 1361.92,-251.26 1352.8,-245.87 1351.43,-252.73"/>
</a>
</g>
</g>
<!-- Node15 -->
<g id="Node000015" class="node">
<title>Node15</title>
<g id="a_Node000015"><a xlink:href="classediteurpanovisu_1_1EditeurPanovisu.html#a7b2e25dc717eb52b62e23d54ec4c124a" target="_top" xlink:title=" ">
<polygon fill="white" stroke="#666666" points="868.75,-344 683.25,-344 683.25,-312 868.75,-312 868.75,-344"/>
<text xml:space="preserve" text-anchor="start" x="691.25" y="-330.5" font-family="Helvetica,sans-Serif" font-size="10.00">editeurpanovisu.EditeurPanovisu.projet</text>
<text xml:space="preserve" text-anchor="middle" x="776" y="-318.5" font-family="Helvetica,sans-Serif" font-size="10.00">SauveSous</text>
</a>
</g>
</g>
<!-- Node8&#45;&gt;Node15 -->
<g id="edge24_Node000008_Node000015" class="edge">
<title>Node8&#45;&gt;Node15</title>
<g id="a_edge24_Node000008_Node000015"><a xlink:title=" ">
<path fill="none" stroke="#63b8ff" d="M1341.42,-277.37C1211.78,-289 992.74,-308.65 869.11,-319.74"/>
<polygon fill="#63b8ff" stroke="#63b8ff" points="1341.36,-280.89 1351.01,-276.51 1340.74,-273.92 1341.36,-280.89"/>
</a>
</g>
</g>
<!-- Node9&#45;&gt;Node4 -->
<g id="edge14_Node000009_Node000004" class="edge">
<title>Node9&#45;&gt;Node4</title>
<g id="a_edge14_Node000009_Node000004"><a xlink:title=" ">
<path fill="none" stroke="#63b8ff" d="M1189.28,-246.64C1144.21,-276.67 1065.7,-328.97 1025.86,-355.52"/>
<polygon fill="#63b8ff" stroke="#63b8ff" points="1190.99,-249.7 1197.37,-241.24 1187.11,-243.88 1190.99,-249.7"/>
</a>
</g>
</g>
<!-- Node9&#45;&gt;Node5 -->
<g id="edge11_Node000009_Node000005" class="edge">
<title>Node9&#45;&gt;Node5</title>
<g id="a_edge11_Node000009_Node000005"><a xlink:title=" ">
<path fill="none" stroke="#63b8ff" d="M1119.69,-221.48C945.01,-217.23 593.98,-208.68 420.78,-204.47"/>
<polygon fill="#63b8ff" stroke="#63b8ff" points="1119.59,-224.98 1129.67,-221.72 1119.76,-217.98 1119.59,-224.98"/>
</a>
</g>
</g>
<!-- Node9&#45;&gt;Node7 -->
<g id="edge15_Node000009_Node000007" class="edge">
<title>Node9&#45;&gt;Node7</title>
<g id="a_edge15_Node000009_Node000007"><a xlink:title=" ">
<path fill="none" stroke="#63b8ff" d="M1328.58,-229.13C1403.58,-232.85 1504.13,-237.84 1576.39,-241.43"/>
<polygon fill="#63b8ff" stroke="#63b8ff" points="1328.92,-225.64 1318.75,-228.64 1328.57,-232.63 1328.92,-225.64"/>
</a>
</g>
</g>
<!-- Node9&#45;&gt;Node10 -->
<g id="edge12_Node000009_Node000010" class="edge">
<title>Node9&#45;&gt;Node10</title>
<g id="a_edge12_Node000009_Node000010"><a xlink:title=" ">
<path fill="none" stroke="#63b8ff" d="M1162.4,-204.23C1141.41,-198.11 1117.61,-191.95 1095.5,-188 940.15,-160.23 756.56,-150.39 647.7,-146.91"/>
<polygon fill="#63b8ff" stroke="#63b8ff" points="1161.38,-207.58 1171.97,-207.08 1163.38,-200.87 1161.38,-207.58"/>
</a>
</g>
</g>
<!-- Node11 -->
<g id="Node000011" class="node">
<title>Node11</title>
<g id="a_Node000011"><a xlink:href="classediteurpanovisu_1_1EditeurPanovisu.html#a9b46b222714af12c06ec33d410400773" target="_top" xlink:title=" ">
<polygon fill="white" stroke="#666666" points="647.25,-281 456.5,-281 456.5,-249 647.25,-249 647.25,-281"/>
<text xml:space="preserve" text-anchor="start" x="464.5" y="-267.5" font-family="Helvetica,sans-Serif" font-size="10.00">editeurpanovisu.EditeurPanovisu.projets</text>
<text xml:space="preserve" text-anchor="middle" x="551.88" y="-255.5" font-family="Helvetica,sans-Serif" font-size="10.00">Fermer</text>
</a>
</g>
</g>
<!-- Node9&#45;&gt;Node11 -->
<g id="edge16_Node000009_Node000011" class="edge">
<title>Node9&#45;&gt;Node11</title>
<g id="a_edge16_Node000009_Node000011"><a xlink:title=" ">
<path fill="none" stroke="#63b8ff" d="M1178.38,-244.93C1154.36,-254.98 1123.95,-265.93 1095.5,-271 940.37,-298.63 756.33,-287.6 647.37,-276.63"/>
<polygon fill="#63b8ff" stroke="#63b8ff" points="1179.74,-248.15 1187.54,-240.99 1176.97,-241.72 1179.74,-248.15"/>
</a>
</g>
</g>
<!-- Node12 -->
<g id="Node000012" class="node">
<title>Node12</title>
<g id="a_Node000012"><a xlink:href="classediteurpanovisu_1_1EditeurPanovisu.html#ac9d449399ccd38843fa12e716f0c9611" target="_top" xlink:title=" ">
<polygon fill="white" stroke="#666666" points="1095.5,-98 904.75,-98 904.75,-66 1095.5,-66 1095.5,-98"/>
<text xml:space="preserve" text-anchor="start" x="912.75" y="-84.5" font-family="Helvetica,sans-Serif" font-size="10.00">editeurpanovisu.EditeurPanovisu.projets</text>
<text xml:space="preserve" text-anchor="middle" x="1000.12" y="-72.5" font-family="Helvetica,sans-Serif" font-size="10.00">Nouveau</text>
</a>
</g>
</g>
<!-- Node9&#45;&gt;Node12 -->
<g id="edge18_Node000009_Node000012" class="edge">
<title>Node9&#45;&gt;Node12</title>
<g id="a_edge18_Node000009_Node000012"><a xlink:title=" ">
<path fill="none" stroke="#63b8ff" d="M1201.02,-199.24C1177.17,-174.05 1137.09,-135.47 1095.5,-112 1086.07,-106.68 1075.56,-102.16 1065.08,-98.37"/>
<polygon fill="#63b8ff" stroke="#63b8ff" points="1198.34,-201.51 1207.72,-206.44 1203.47,-196.74 1198.34,-201.51"/>
</a>
</g>
</g>
<!-- Node13 -->
<g id="Node000013" class="node">
<title>Node13</title>
<g id="a_Node000013"><a xlink:href="classediteurpanovisu_1_1EditeurPanovisu.html#a2b3125ffe2e6291efacf19df6cb30a8d" target="_top" xlink:title=" ">
<polygon fill="white" stroke="#666666" points="866.5,-136 685.5,-136 685.5,-116 866.5,-116 866.5,-136"/>
<text xml:space="preserve" text-anchor="middle" x="776" y="-122.5" font-family="Helvetica,sans-Serif" font-size="10.00">editeurpanovisu.EditeurPanovisu.start</text>
</a>
</g>
</g>
<!-- Node9&#45;&gt;Node13 -->
<g id="edge23_Node000009_Node000013" class="edge">
<title>Node9&#45;&gt;Node13</title>
<g id="a_edge23_Node000009_Node000013"><a xlink:title=" ">
<path fill="none" stroke="#63b8ff" d="M1192.84,-201.08C1168.05,-183.75 1131.38,-161.1 1095.5,-150 1020.81,-126.89 931.77,-121.95 866.85,-122.18"/>
<polygon fill="#63b8ff" stroke="#63b8ff" points="1190.65,-203.81 1200.82,-206.78 1194.72,-198.12 1190.65,-203.81"/>
</a>
</g>
</g>
<!-- Node14 -->
<g id="Node000014" class="node">
<title>Node14</title>
<g id="a_Node000014"><a xlink:href="classediteurpanovisu_1_1EditeurPanovisu.html#aef8c9b28c3e88d6e27e3f62b9a901134" target="_top" xlink:title=" ">
<polygon fill="white" stroke="#666666" points="1094,-262 906.25,-262 906.25,-230 1094,-230 1094,-262"/>
<text xml:space="preserve" text-anchor="start" x="914.25" y="-248.5" font-family="Helvetica,sans-Serif" font-size="10.00">editeurpanovisu.EditeurPanovisu.sauve</text>
<text xml:space="preserve" text-anchor="middle" x="1000.12" y="-236.5" font-family="Helvetica,sans-Serif" font-size="10.00">Fichiers</text>
</a>
</g>
</g>
<!-- Node9&#45;&gt;Node14 -->
<g id="edge22_Node000009_Node000014" class="edge">
<title>Node9&#45;&gt;Node14</title>
<g id="a_edge22_Node000009_Node000014"><a xlink:title=" ">
<path fill="none" stroke="#63b8ff" d="M1120.1,-234.22C1111.54,-235.06 1102.92,-235.92 1094.44,-236.76"/>
<polygon fill="#63b8ff" stroke="#63b8ff" points="1120.19,-237.72 1129.79,-233.26 1119.5,-230.76 1120.19,-237.72"/>
</a>
</g>
</g>
<!-- Node10&#45;&gt;Node5 -->
<g id="edge13_Node000010_Node000005" class="edge">
<title>Node10&#45;&gt;Node5</title>
<g id="a_edge13_Node000010_Node000005"><a xlink:title=" ">
<path fill="none" stroke="#63b8ff" d="M473.09,-164.15C435.9,-173.31 392.83,-183.91 361.76,-191.56"/>
<polygon fill="#63b8ff" stroke="#63b8ff" points="473.57,-167.64 482.45,-161.85 471.9,-160.84 473.57,-167.64"/>
</a>
</g>
</g>
<!-- Node11&#45;&gt;Node5 -->
<g id="edge17_Node000011_Node000005" class="edge">
<title>Node11&#45;&gt;Node5</title>
<g id="a_edge17_Node000011_Node000005"><a xlink:title=" ">
<path fill="none" stroke="#63b8ff" d="M479.28,-245.52C439.18,-234.6 390.76,-221.43 357.78,-212.45"/>
<polygon fill="#63b8ff" stroke="#63b8ff" points="478.32,-248.88 488.89,-248.13 480.16,-242.13 478.32,-248.88"/>
</a>
</g>
</g>
<!-- Node12&#45;&gt;Node5 -->
<g id="edge19_Node000012_Node000005" class="edge">
<title>Node12&#45;&gt;Node5</title>
<g id="a_edge19_Node000012_Node000005"><a xlink:title=" ">
<path fill="none" stroke="#63b8ff" d="M893.28,-75.09C781.91,-71.09 602.83,-74.02 456.5,-120 406.22,-135.8 355.04,-173.31 331.99,-191.61"/>
<polygon fill="#63b8ff" stroke="#63b8ff" points="892.87,-78.58 902.99,-75.47 893.14,-71.58 892.87,-78.58"/>
</a>
</g>
</g>
<!-- Node12&#45;&gt;Node13 -->
<g id="edge20_Node000012_Node000013" class="edge">
<title>Node12&#45;&gt;Node13</title>
<g id="a_edge20_Node000012_Node000013"><a xlink:title=" ">
<path fill="none" stroke="#63b8ff" d="M904.83,-100.68C879.23,-105.75 852.41,-111.06 829.99,-115.5"/>
<polygon fill="#63b8ff" stroke="#63b8ff" points="905.48,-104.12 914.61,-98.74 904.12,-97.25 905.48,-104.12"/>
</a>
</g>
</g>
<!-- Node13&#45;&gt;Node10 -->
<g id="edge21_Node000013_Node000010" class="edge">
<title>Node13&#45;&gt;Node10</title>
<g id="a_edge21_Node000013_Node000010"><a xlink:title=" ">
<path fill="none" stroke="#63b8ff" d="M673.87,-134.65C665.14,-135.4 656.32,-136.15 647.63,-136.89"/>
<polygon fill="#63b8ff" stroke="#63b8ff" points="674.12,-138.14 683.79,-133.8 673.52,-131.17 674.12,-138.14"/>
</a>
</g>
</g>
<!-- Node15&#45;&gt;Node5 -->
<g id="edge25_Node000015_Node000005" class="edge">
<title>Node15&#45;&gt;Node5</title>
<g id="a_edge25_Node000015_Node000005"><a xlink:title=" ">
<path fill="none" stroke="#63b8ff" d="M671.67,-327.36C607.99,-324.14 525.6,-314.8 456.5,-290 405.38,-271.65 353.81,-231.33 331.22,-212.31"/>
<polygon fill="#63b8ff" stroke="#63b8ff" points="671.27,-330.84 681.42,-327.81 671.59,-323.85 671.27,-330.84"/>
</a>
</g>
</g>
</g>
</svg>

<g id="navigator" transform="translate(0 0)" fill="#404254">
  <rect fill="#f2f5e9" fill-opacity="0.5" stroke="#606060" stroke-width=".5" x="0" y="0" width="60" height="60"/>
  <use id="zoomplus" xlink:href="#zoomPlus" x="17" y="9" onmousedown="handleZoom(evt,'in')"/>
  <use id="zoomminus" xlink:href="#zoomMin" x="42" y="9" onmousedown="handleZoom(evt,'out')"/>
  <use id="reset" xlink:href="#resetDef" x="30" y="36" onmousedown="handleReset()"/>
   <use id="arrowup" xlink:href="#arrowUp" x="0" y="0" onmousedown="handlePan(0,-1)"/>
  <use id="arrowright" xlink:href="#arrowRight" x="0" y="0" onmousedown="handlePan(1,0)"/>
  <use id="arrowdown" xlink:href="#arrowDown" x="0" y="0" onmousedown="handlePan(0,1)"/>
  <use id="arrowleft" xlink:href="#arrowLeft" x="0" y="0" onmousedown="handlePan(-1,0)"/>
</g>
<svg viewBox="0 0 15 15" width="100%" height="30px" preserveAspectRatio="xMaxYMin meet">
 <g id="arrow_out" transform="scale(0.3 0.3)">
  <a xlink:href="classediteurpanovisu_1_1GestionnaireInterfaceController_a8b325a3f4e7313bd870691ec3c90a9f6_icgraph_org.svg" target="_base">
   <rect id="button" ry="5" rx="5" y="6" x="6" height="38" width="38"
        fill="#f2f5e9" fill-opacity="0.5" stroke="#606060" stroke-width="1.0"/>
   <path id="arrow"
     d="M 11.500037,31.436501 C 11.940474,20.09759 22.043105,11.32322 32.158766,21.979434 L 37.068811,17.246167 C 37.068811,17.246167 37.088388,32 37.088388,32 L 22.160133,31.978069 C 22.160133,31.978069 26.997745,27.140456 26.997745,27.140456 C 18.528582,18.264221 13.291696,25.230495 11.500037,31.436501 z"
     style="fill:#404040;"/>
  </a>
 </g>
</svg>

<style type='text/css'>
<![CDATA[
[data-mouse-over-selected='false'] { opacity: 0.7; }
[data-mouse-over-selected='true']  { opacity: 1.0; }
]]>
</style>
<script type="application/ecmascript"><![CDATA[
document.addEventListener('DOMContentLoaded', (event) => {
  highlightEdges();
  highlightAdjacentNodes();
});
]]></script>
</svg>
