<?xml version="1.0" encoding="UTF-8" standalone="no"?>
<!DOCTYPE svg PUBLIC "-//W3C//DTD SVG 1.1//EN"
 "http://www.w3.org/Graphics/SVG/1.1/DTD/svg11.dtd">
<!-- Generated by graphviz version 13.1.2 (20250808.2320)
 -->
<!-- Title: editeurpanovisu.MarkdownViewer.main Pages: 1 -->
<svg width="509pt" height="90pt"
 viewBox="0.00 0.00 509.00 90.00" xmlns="http://www.w3.org/2000/svg" xmlns:xlink="http://www.w3.org/1999/xlink">
<g id="graph0" class="graph" transform="scale(1 1) rotate(0) translate(4 86)">
<title>editeurpanovisu.MarkdownViewer.main</title>
<!-- Node1 -->
<g id="Node000001" class="node">
<title>Node1</title>
<g id="a_Node000001"><a xlink:title="Exemple d&#39;utilisation.">
<polygon fill="#999999" stroke="#666666" points="132.25,-57 0,-57 0,-25 132.25,-25 132.25,-57"/>
<text xml:space="preserve" text-anchor="start" x="8" y="-43.5" font-family="Helvetica,sans-Serif" font-size="10.00">editeurpanovisu.Markdown</text>
<text xml:space="preserve" text-anchor="middle" x="66.12" y="-31.5" font-family="Helvetica,sans-Serif" font-size="10.00">Viewer.main</text>
</a>
</g>
</g>
<!-- Node2 -->
<g id="Node000002" class="node">
<title>Node2</title>
<g id="a_Node000002"><a xlink:href="classediteurpanovisu_1_1MarkdownViewer.html#a93aeaf0c671032f2da3d4a18d9fcf752" target="_top" xlink:title="Convertit du Markdown en HTML.">
<polygon fill="white" stroke="#666666" points="332.75,-82 168.25,-82 168.25,-50 332.75,-50 332.75,-82"/>
<text xml:space="preserve" text-anchor="start" x="176.25" y="-68.5" font-family="Helvetica,sans-Serif" font-size="10.00">editeurpanovisu.Markdown</text>
<text xml:space="preserve" text-anchor="middle" x="250.5" y="-56.5" font-family="Helvetica,sans-Serif" font-size="10.00">Viewer.convertirMarkdownEnHtml</text>
</a>
</g>
</g>
<!-- Node1&#45;&gt;Node2 -->
<g id="edge1_Node000001_Node000002" class="edge">
<title>Node1&#45;&gt;Node2</title>
<g id="a_edge1_Node000001_Node000002"><a xlink:title=" ">
<path fill="none" stroke="#63b8ff" d="M132.71,-49.99C140.48,-51.06 148.53,-52.16 156.59,-53.26"/>
<polygon fill="#63b8ff" stroke="#63b8ff" points="156.09,-56.73 166.47,-54.62 157.04,-49.79 156.09,-56.73"/>
</a>
</g>
</g>
<!-- Node4 -->
<g id="Node000004" class="node">
<title>Node4</title>
<g id="a_Node000004"><a xlink:href="classediteurpanovisu_1_1MarkdownViewer.html#a97cf5f887bf60ee77ea235722283e071" target="_top" xlink:title="Constructeur avec support des extensions GFM (GitHub Flavored Markdown)">
<polygon fill="white" stroke="#666666" points="316.62,-32 184.38,-32 184.38,0 316.62,0 316.62,-32"/>
<text xml:space="preserve" text-anchor="start" x="192.38" y="-18.5" font-family="Helvetica,sans-Serif" font-size="10.00">editeurpanovisu.Markdown</text>
<text xml:space="preserve" text-anchor="middle" x="250.5" y="-6.5" font-family="Helvetica,sans-Serif" font-size="10.00">Viewer.MarkdownViewer</text>
</a>
</g>
</g>
<!-- Node1&#45;&gt;Node4 -->
<g id="edge3_Node000001_Node000004" class="edge">
<title>Node1&#45;&gt;Node4</title>
<g id="a_edge3_Node000001_Node000004"><a xlink:title=" ">
<path fill="none" stroke="#63b8ff" d="M132.71,-32.01C145.71,-30.23 159.47,-28.34 172.81,-26.51"/>
<polygon fill="#63b8ff" stroke="#63b8ff" points="172.95,-30.03 182.39,-25.2 172,-23.09 172.95,-30.03"/>
</a>
</g>
</g>
<!-- Node3 -->
<g id="Node000003" class="node">
<title>Node3</title>
<g id="a_Node000003"><a xlink:href="classediteurpanovisu_1_1MarkdownViewer.html#a861f2a104621e752b0eee2e71ee2c071" target="_top" xlink:title="Remplace les émojis courants par des badges visuels stylisés Affiche uniquement l&#39;icône,...">
<polygon fill="white" stroke="#666666" points="501,-82 368.75,-82 368.75,-50 501,-50 501,-82"/>
<text xml:space="preserve" text-anchor="start" x="376.75" y="-68.5" font-family="Helvetica,sans-Serif" font-size="10.00">editeurpanovisu.Markdown</text>
<text xml:space="preserve" text-anchor="middle" x="434.88" y="-56.5" font-family="Helvetica,sans-Serif" font-size="10.00">Viewer.remplacerEmojis</text>
</a>
</g>
</g>
<!-- Node2&#45;&gt;Node3 -->
<g id="edge2_Node000002_Node000003" class="edge">
<title>Node2&#45;&gt;Node3</title>
<g id="a_edge2_Node000002_Node000003"><a xlink:title=" ">
<path fill="none" stroke="#63b8ff" d="M333.09,-66C341.05,-66 349.11,-66 357.03,-66"/>
<polygon fill="#63b8ff" stroke="#63b8ff" points="356.98,-69.5 366.98,-66 356.98,-62.5 356.98,-69.5"/>
</a>
</g>
</g>
<!-- Node5 -->
<g id="Node000005" class="node">
<title>Node5</title>
<g id="a_Node000005"><a xlink:href="classediteurpanovisu_1_1MarkdownViewer.html#a5823f5194e7e655cfdff1325fe7b59a9" target="_top" xlink:title="Charge les polices personnalisées pour le WebView Wingdings doit être chargée explicitement car WebVi...">
<polygon fill="white" stroke="#666666" points="501,-32 368.75,-32 368.75,0 501,0 501,-32"/>
<text xml:space="preserve" text-anchor="start" x="376.75" y="-18.5" font-family="Helvetica,sans-Serif" font-size="10.00">editeurpanovisu.Markdown</text>
<text xml:space="preserve" text-anchor="middle" x="434.88" y="-6.5" font-family="Helvetica,sans-Serif" font-size="10.00">Viewer.chargerFontes</text>
</a>
</g>
</g>
<!-- Node4&#45;&gt;Node5 -->
<g id="edge4_Node000004_Node000005" class="edge">
<title>Node4&#45;&gt;Node5</title>
<g id="a_edge4_Node000004_Node000005"><a xlink:title=" ">
<path fill="none" stroke="#63b8ff" d="M317.08,-9.49C329.96,-9.24 343.57,-9.19 356.78,-9.32"/>
<polygon fill="#63b8ff" stroke="#63b8ff" points="356.7,-12.82 366.75,-9.47 356.8,-5.82 356.7,-12.82"/>
</a>
</g>
</g>
<!-- Node5&#45;&gt;Node4 -->
<g id="edge5_Node000005_Node000004" class="edge">
<title>Node5&#45;&gt;Node4</title>
<g id="a_edge5_Node000005_Node000004"><a xlink:title=" ">
<path fill="none" stroke="#63b8ff" d="M368.26,-22.51C355.39,-22.76 341.77,-22.81 328.56,-22.68"/>
<polygon fill="#63b8ff" stroke="#63b8ff" points="328.65,-19.18 318.6,-22.53 328.54,-26.18 328.65,-19.18"/>
</a>
</g>
</g>
</g>
</svg>
