<?xml version="1.0" encoding="UTF-8" standalone="no"?>
<!DOCTYPE svg PUBLIC "-//W3C//DTD SVG 1.1//EN"
 "http://www.w3.org/Graphics/SVG/1.1/DTD/svg11.dtd">
<!-- Generated by graphviz version 13.1.2 (20250808.2320)
 -->
<!-- Title: editeurpanovisu.VisualiseurImagesPanoramiques.getFov Pages: 1 -->
<!--zoomable 128 -->

<svg id="main" version="1.1" xmlns="http://www.w3.org/2000/svg" xmlns:xlink="http://www.w3.org/1999/xlink" xml:space="preserve" onload="init(evt)">

<style type="text/css"><![CDATA[
.node, .edge {opacity: 0.7;}
.node.selected, .edge.selected {opacity: 1;}
.edge:hover path { stroke: red; }
.edge:hover polygon { stroke: red; fill: red; }
]]></style>

<defs>
  <circle id="rim" cx="0" cy="0" r="7"/>
  <circle id="rim2" cx="0" cy="0" r="3.5"/>
  <g id="zoomPlus">
    <use xlink:href="#rim" fill="#404040"><set attributeName="fill" to="#808080" begin="zoomplus.mouseover" end="zoomplus.mouseout"/></use>
    <path d="M-4,0h8M0,-4v8" fill="none" stroke="white" stroke-width="1.5" pointer-events="none"/>
  </g>
  <g id="zoomMin">
    <use xlink:href="#rim" fill="#404040"><set attributeName="fill" to="#808080" begin="zoomminus.mouseover" end="zoomminus.mouseout"/></use>
    <path d="M-4,0h8" fill="none" stroke="white" stroke-width="1.5" pointer-events="none"/>
  </g>
  <g id="arrowUp" transform="translate(30 24)">
    <use xlink:href="#rim"/>
    <path pointer-events="none" fill="none" stroke="white" stroke-width="1.5" d="M0,-3.0v7 M-2.5,-0.5L0,-3.0L2.5,-0.5"/>
  </g>
  <g id="arrowRight" transform="rotate(90) translate(36 -43)">
    <use xlink:href="#rim"/>
    <path pointer-events="none" fill="none" stroke="white" stroke-width="1.5" d="M0,-3.0v7 M-2.5,-0.5L0,-3.0L2.5,-0.5"/>
  </g>
  <g id="arrowDown" transform="rotate(180) translate(-30 -48)">
    <use xlink:href="#rim"/>
    <path pointer-events="none" fill="none" stroke="white" stroke-width="1.5" d="M0,-3.0v7 M-2.5,-0.5L0,-3.0L2.5,-0.5"/>
  </g>
  <g id="arrowLeft" transform="rotate(270) translate(-36 17)">
    <use xlink:href="#rim"/>
    <path pointer-events="none" fill="none" stroke="white" stroke-width="1.5" d="M0,-3.0v7 M-2.5,-0.5L0,-3.0L2.5,-0.5"/>
  </g>
  <g id="resetDef">
    <use xlink:href="#rim2" fill="#404040"><set attributeName="fill" to="#808080" begin="reset.mouseover" end="reset.mouseout"/></use>
  </g>
</defs>
<script type="application/ecmascript">
var viewWidth = 741;
var viewHeight = 128;
var sectionId = 'dynsection-8';
</script>
<script type="application/ecmascript" xlink:href="svg.min.js"/>
<svg id="graph" class="graph">
<g id="viewport">
<title>editeurpanovisu.VisualiseurImagesPanoramiques.getFov</title>
<!-- Node1 -->
<g id="Node000001" class="node">
<title>Node1</title>
<g id="a_Node000001"><a xlink:title=" ">
<polygon fill="#999999" stroke="#666666" points="733,-76 589.5,-76 589.5,-44 733,-44 733,-76"/>
<text xml:space="preserve" text-anchor="start" x="597.5" y="-62.5" font-family="Helvetica,sans-Serif" font-size="10.00">editeurpanovisu.Visualiseur</text>
<text xml:space="preserve" text-anchor="middle" x="661.25" y="-50.5" font-family="Helvetica,sans-Serif" font-size="10.00">ImagesPanoramiques.getFov</text>
</a>
</g>
</g>
<!-- Node2 -->
<g id="Node000002" class="node">
<title>Node2</title>
<g id="a_Node000002"><a xlink:href="classediteurpanovisu_1_1VisualiseurImagesPanoramiques.html#ae8973d3b3335139032ad3e2991dcfeba" target="_top" xlink:title=" ">
<polygon fill="white" stroke="#666666" points="553.5,-120 389.75,-120 389.75,-88 553.5,-88 553.5,-120"/>
<text xml:space="preserve" text-anchor="start" x="397.75" y="-106.5" font-family="Helvetica,sans-Serif" font-size="10.00">editeurpanovisu.Visualiseur</text>
<text xml:space="preserve" text-anchor="middle" x="471.62" y="-94.5" font-family="Helvetica,sans-Serif" font-size="10.00">ImagesPanoramiques.addCamera</text>
</a>
</g>
</g>
<!-- Node1&#45;&gt;Node2 -->
<g id="edge1_Node000001_Node000002" class="edge">
<title>Node1&#45;&gt;Node2</title>
<g id="a_edge1_Node000001_Node000002"><a xlink:title=" ">
<path fill="none" stroke="#63b8ff" d="M579.16,-79.02C567.12,-81.84 554.78,-84.73 542.98,-87.5"/>
<polygon fill="#63b8ff" stroke="#63b8ff" points="579.71,-82.48 588.64,-76.79 578.11,-75.67 579.71,-82.48"/>
</a>
</g>
</g>
<!-- Node3 -->
<g id="Node000003" class="node">
<title>Node3</title>
<g id="a_Node000003"><a xlink:href="classediteurpanovisu_1_1VisualiseurImagesPanoramiques.html#af8054a76c76eed1ef022005db88148c1" target="_top" xlink:title=" ">
<polygon fill="white" stroke="#666666" points="353.75,-76 203.5,-76 203.5,-44 353.75,-44 353.75,-76"/>
<text xml:space="preserve" text-anchor="start" x="211.5" y="-62.5" font-family="Helvetica,sans-Serif" font-size="10.00">editeurpanovisu.Visualiseur</text>
<text xml:space="preserve" text-anchor="middle" x="278.62" y="-50.5" font-family="Helvetica,sans-Serif" font-size="10.00">ImagesPanoramiques.reaffiche</text>
</a>
</g>
</g>
<!-- Node1&#45;&gt;Node3 -->
<g id="edge7_Node000001_Node000003" class="edge">
<title>Node1&#45;&gt;Node3</title>
<g id="a_edge7_Node000001_Node000003"><a xlink:title=" ">
<path fill="none" stroke="#63b8ff" d="M577.82,-60C511.23,-60 418.33,-60 354,-60"/>
<polygon fill="#63b8ff" stroke="#63b8ff" points="577.59,-63.5 587.59,-60 577.59,-56.5 577.59,-63.5"/>
</a>
</g>
</g>
<!-- Node6 -->
<g id="Node000006" class="node">
<title>Node6</title>
<g id="a_Node000006"><a xlink:href="classediteurpanovisu_1_1VisualiseurImagesPanoramiques.html#ac38446a4ab5c61c1dfd273f9d50c69c8" target="_top" xlink:title=" ">
<polygon fill="white" stroke="#666666" points="542.62,-32 400.62,-32 400.62,0 542.62,0 542.62,-32"/>
<text xml:space="preserve" text-anchor="start" x="408.62" y="-18.5" font-family="Helvetica,sans-Serif" font-size="10.00">editeurpanovisu.Visualiseur</text>
<text xml:space="preserve" text-anchor="middle" x="471.62" y="-6.5" font-family="Helvetica,sans-Serif" font-size="10.00">ImagesPanoramiques.affiche</text>
</a>
</g>
</g>
<!-- Node1&#45;&gt;Node6 -->
<g id="edge5_Node000001_Node000006" class="edge">
<title>Node1&#45;&gt;Node6</title>
<g id="a_edge5_Node000001_Node000006"><a xlink:title=" ">
<path fill="none" stroke="#63b8ff" d="M579.16,-40.98C567.12,-38.16 554.78,-35.27 542.98,-32.5"/>
<polygon fill="#63b8ff" stroke="#63b8ff" points="578.11,-44.33 588.64,-43.21 579.71,-37.52 578.11,-44.33"/>
</a>
</g>
</g>
<!-- Node2&#45;&gt;Node3 -->
<g id="edge2_Node000002_Node000003" class="edge">
<title>Node2&#45;&gt;Node3</title>
<g id="a_edge2_Node000002_Node000003"><a xlink:title=" ">
<path fill="none" stroke="#63b8ff" d="M388.08,-84.98C375.81,-82.16 363.26,-79.27 351.25,-76.5"/>
<polygon fill="#63b8ff" stroke="#63b8ff" points="387.23,-88.38 397.76,-87.21 388.8,-81.56 387.23,-88.38"/>
</a>
</g>
</g>
<!-- Node4 -->
<g id="Node000004" class="node">
<title>Node4</title>
<g id="a_Node000004"><a xlink:href="classediteurpanovisu_1_1VisualiseurImagesPanoramiques.html#ae11a24d852acc18c1ad74844be5f5061" target="_top" xlink:title=" ">
<polygon fill="white" stroke="#666666" points="166,-101 1.5,-101 1.5,-69 166,-69 166,-101"/>
<text xml:space="preserve" text-anchor="start" x="9.5" y="-87.5" font-family="Helvetica,sans-Serif" font-size="10.00">editeurpanovisu.Visualiseur</text>
<text xml:space="preserve" text-anchor="middle" x="83.75" y="-75.5" font-family="Helvetica,sans-Serif" font-size="10.00">ImagesPanoramiques.affichePano</text>
</a>
</g>
</g>
<!-- Node3&#45;&gt;Node4 -->
<g id="edge3_Node000003_Node000004" class="edge">
<title>Node3&#45;&gt;Node4</title>
<g id="a_edge3_Node000003_Node000004"><a xlink:title=" ">
<path fill="none" stroke="#63b8ff" d="M191.71,-71.14C183.32,-72.22 174.83,-73.32 166.49,-74.41"/>
<polygon fill="#63b8ff" stroke="#63b8ff" points="192.09,-74.62 201.55,-69.86 191.19,-67.67 192.09,-74.62"/>
</a>
</g>
</g>
<!-- Node5 -->
<g id="Node000005" class="node">
<title>Node5</title>
<g id="a_Node000005"><a xlink:href="classediteurpanovisu_1_1VisualiseurImagesPanoramiques.html#aed1e4d51da4f14c268b1ee2a70f96738" target="_top" xlink:title=" ">
<polygon fill="white" stroke="#666666" points="167.5,-51 0,-51 0,-19 167.5,-19 167.5,-51"/>
<text xml:space="preserve" text-anchor="start" x="8" y="-37.5" font-family="Helvetica,sans-Serif" font-size="10.00">editeurpanovisu.Visualiseur</text>
<text xml:space="preserve" text-anchor="middle" x="83.75" y="-25.5" font-family="Helvetica,sans-Serif" font-size="10.00">ImagesPanoramiques.changeTaille</text>
</a>
</g>
</g>
<!-- Node3&#45;&gt;Node5 -->
<g id="edge4_Node000003_Node000005" class="edge">
<title>Node3&#45;&gt;Node5</title>
<g id="a_edge4_Node000003_Node000005"><a xlink:title=" ">
<path fill="none" stroke="#63b8ff" d="M191.84,-48.88C183.84,-47.84 175.75,-46.79 167.78,-45.76"/>
<polygon fill="#63b8ff" stroke="#63b8ff" points="191.19,-52.33 201.55,-50.14 192.09,-45.38 191.19,-52.33"/>
</a>
</g>
</g>
<!-- Node6&#45;&gt;Node3 -->
<g id="edge6_Node000006_Node000003" class="edge">
<title>Node6&#45;&gt;Node3</title>
<g id="a_edge6_Node000006_Node000003"><a xlink:title=" ">
<path fill="none" stroke="#63b8ff" d="M389.27,-34.74C376.56,-37.67 363.52,-40.67 351.06,-43.54"/>
<polygon fill="#63b8ff" stroke="#63b8ff" points="389.88,-38.19 398.84,-32.54 388.31,-31.37 389.88,-38.19"/>
</a>
</g>
</g>
</g>
</svg>

<g id="navigator" transform="translate(0 0)" fill="#404254">
  <rect fill="#f2f5e9" fill-opacity="0.5" stroke="#606060" stroke-width=".5" x="0" y="0" width="60" height="60"/>
  <use id="zoomplus" xlink:href="#zoomPlus" x="17" y="9" onmousedown="handleZoom(evt,'in')"/>
  <use id="zoomminus" xlink:href="#zoomMin" x="42" y="9" onmousedown="handleZoom(evt,'out')"/>
  <use id="reset" xlink:href="#resetDef" x="30" y="36" onmousedown="handleReset()"/>
   <use id="arrowup" xlink:href="#arrowUp" x="0" y="0" onmousedown="handlePan(0,-1)"/>
  <use id="arrowright" xlink:href="#arrowRight" x="0" y="0" onmousedown="handlePan(1,0)"/>
  <use id="arrowdown" xlink:href="#arrowDown" x="0" y="0" onmousedown="handlePan(0,1)"/>
  <use id="arrowleft" xlink:href="#arrowLeft" x="0" y="0" onmousedown="handlePan(-1,0)"/>
</g>
<svg viewBox="0 0 15 15" width="100%" height="30px" preserveAspectRatio="xMaxYMin meet">
 <g id="arrow_out" transform="scale(0.3 0.3)">
  <a xlink:href="classediteurpanovisu_1_1VisualiseurImagesPanoramiques_aa95ab25a985dad8304937c37beabb783_icgraph_org.svg" target="_base">
   <rect id="button" ry="5" rx="5" y="6" x="6" height="38" width="38"
        fill="#f2f5e9" fill-opacity="0.5" stroke="#606060" stroke-width="1.0"/>
   <path id="arrow"
     d="M 11.500037,31.436501 C 11.940474,20.09759 22.043105,11.32322 32.158766,21.979434 L 37.068811,17.246167 C 37.068811,17.246167 37.088388,32 37.088388,32 L 22.160133,31.978069 C 22.160133,31.978069 26.997745,27.140456 26.997745,27.140456 C 18.528582,18.264221 13.291696,25.230495 11.500037,31.436501 z"
     style="fill:#404040;"/>
  </a>
 </g>
</svg>

<style type='text/css'>
<![CDATA[
[data-mouse-over-selected='false'] { opacity: 0.7; }
[data-mouse-over-selected='true']  { opacity: 1.0; }
]]>
</style>
<script type="application/ecmascript"><![CDATA[
document.addEventListener('DOMContentLoaded', (event) => {
  highlightEdges();
  highlightAdjacentNodes();
});
]]></script>
</svg>
