<?xml version="1.0" encoding="UTF-8" standalone="no"?>
<!DOCTYPE svg PUBLIC "-//W3C//DTD SVG 1.1//EN"
 "http://www.w3.org/Graphics/SVG/1.1/DTD/svg11.dtd">
<!-- Generated by graphviz version 13.1.2 (20250808.2320)
 -->
<!-- Title: editeurpanovisu.GestionnairePlanController.afficheConfigPlan Pages: 1 -->
<svg width="530pt" height="116pt"
 viewBox="0.00 0.00 530.00 116.00" xmlns="http://www.w3.org/2000/svg" xmlns:xlink="http://www.w3.org/1999/xlink">
<g id="graph0" class="graph" transform="scale(1 1) rotate(0) translate(4 112)">
<title>editeurpanovisu.GestionnairePlanController.afficheConfigPlan</title>
<!-- Node1 -->
<g id="Node000001" class="node">
<title>Node1</title>
<g id="a_Node000001"><a xlink:title=" ">
<polygon fill="#999999" stroke="#666666" points="157,-64 0,-64 0,-32 157,-32 157,-64"/>
<text xml:space="preserve" text-anchor="start" x="8" y="-50.5" font-family="Helvetica,sans-Serif" font-size="10.00">editeurpanovisu.Gestionnaire</text>
<text xml:space="preserve" text-anchor="middle" x="78.5" y="-38.5" font-family="Helvetica,sans-Serif" font-size="10.00">PlanController.afficheConfigPlan</text>
</a>
</g>
</g>
<!-- Node2 -->
<g id="Node000002" class="node">
<title>Node2</title>
<g id="a_Node000002"><a xlink:href="classediteurpanovisu_1_1GestionnairePlanController.html#a3e391ad45897cea8e74ed724d7b0a08f" target="_top" xlink:title=" ">
<polygon fill="white" stroke="#666666" points="342.5,-108 193,-108 193,-76 342.5,-76 342.5,-108"/>
<text xml:space="preserve" text-anchor="start" x="201" y="-94.5" font-family="Helvetica,sans-Serif" font-size="10.00">editeurpanovisu.Gestionnaire</text>
<text xml:space="preserve" text-anchor="middle" x="267.75" y="-82.5" font-family="Helvetica,sans-Serif" font-size="10.00">PlanController.afficheBoussole</text>
</a>
</g>
</g>
<!-- Node1&#45;&gt;Node2 -->
<g id="edge1_Node000001_Node000002" class="edge">
<title>Node1&#45;&gt;Node2</title>
<g id="a_edge1_Node000001_Node000002"><a xlink:title=" ">
<path fill="none" stroke="#63b8ff" d="M149.49,-64.45C161.26,-67.21 173.57,-70.1 185.59,-72.93"/>
<polygon fill="#63b8ff" stroke="#63b8ff" points="184.52,-76.27 195.06,-75.15 186.12,-69.46 184.52,-76.27"/>
</a>
</g>
</g>
<!-- Node3 -->
<g id="Node000003" class="node">
<title>Node3</title>
<g id="a_Node000003"><a xlink:href="classediteurpanovisu_1_1GestionnairePlanController.html#a2edd566ca304172fcd4ab5559dd1738c" target="_top" xlink:title=" ">
<polygon fill="white" stroke="#666666" points="522,-86 378.5,-86 378.5,-54 522,-54 522,-86"/>
<text xml:space="preserve" text-anchor="start" x="386.5" y="-72.5" font-family="Helvetica,sans-Serif" font-size="10.00">editeurpanovisu.Gestionnaire</text>
<text xml:space="preserve" text-anchor="middle" x="450.25" y="-60.5" font-family="Helvetica,sans-Serif" font-size="10.00">PlanController.getiPlanActuel</text>
</a>
</g>
</g>
<!-- Node1&#45;&gt;Node3 -->
<g id="edge3_Node000001_Node000003" class="edge">
<title>Node1&#45;&gt;Node3</title>
<g id="a_edge3_Node000001_Node000003"><a xlink:title=" ">
<path fill="none" stroke="#63b8ff" d="M157.46,-52.64C218.9,-56.29 304.33,-61.38 366.87,-65.1"/>
<polygon fill="#63b8ff" stroke="#63b8ff" points="366.58,-68.59 376.77,-65.69 366.99,-61.6 366.58,-68.59"/>
</a>
</g>
</g>
<!-- Node4 -->
<g id="Node000004" class="node">
<title>Node4</title>
<g id="a_Node000004"><a xlink:href="leaflet_8js.html#a73aff07b65d7c0b09ccf6b4c4f1b7a9d" target="_top" xlink:title=" ">
<polygon fill="white" stroke="#666666" points="282.15,-20 253.35,-20 253.35,0 282.15,0 282.15,-20"/>
<text xml:space="preserve" text-anchor="middle" x="267.75" y="-6.5" font-family="Helvetica,sans-Serif" font-size="10.00">i</text>
</a>
</g>
</g>
<!-- Node1&#45;&gt;Node4 -->
<g id="edge4_Node000001_Node000004" class="edge">
<title>Node1&#45;&gt;Node4</title>
<g id="a_edge4_Node000001_Node000004"><a xlink:title=" ">
<path fill="none" stroke="#63b8ff" d="M157.28,-32.21C187.66,-26.05 220.34,-19.42 242,-15.02"/>
<polygon fill="#63b8ff" stroke="#63b8ff" points="242.51,-18.49 251.62,-13.07 241.12,-11.63 242.51,-18.49"/>
</a>
</g>
</g>
<!-- Node2&#45;&gt;Node3 -->
<g id="edge2_Node000002_Node000003" class="edge">
<title>Node2&#45;&gt;Node3</title>
<g id="a_edge2_Node000002_Node000003"><a xlink:title=" ">
<path fill="none" stroke="#63b8ff" d="M342.95,-82.96C350.88,-81.99 358.98,-81 367,-80.03"/>
<polygon fill="#63b8ff" stroke="#63b8ff" points="367.24,-83.52 376.75,-78.84 366.4,-76.57 367.24,-83.52"/>
</a>
</g>
</g>
</g>
</svg>
