<?xml version="1.0" encoding="UTF-8" standalone="no"?>
<!DOCTYPE svg PUBLIC "-//W3C//DTD SVG 1.1//EN"
 "http://www.w3.org/Graphics/SVG/1.1/DTD/svg11.dtd">
<!-- Generated by graphviz version 13.1.2 (20250808.2320)
 -->
<!-- Title: editeurpanovisu.util.SvgIconLoader.loadSvgIcon Pages: 1 -->
<!--zoomable 306 -->

<svg id="main" version="1.1" xmlns="http://www.w3.org/2000/svg" xmlns:xlink="http://www.w3.org/1999/xlink" xml:space="preserve" onload="init(evt)">

<style type="text/css"><![CDATA[
.node, .edge {opacity: 0.7;}
.node.selected, .edge.selected {opacity: 1;}
.edge:hover path { stroke: red; }
.edge:hover polygon { stroke: red; fill: red; }
]]></style>

<defs>
  <circle id="rim" cx="0" cy="0" r="7"/>
  <circle id="rim2" cx="0" cy="0" r="3.5"/>
  <g id="zoomPlus">
    <use xlink:href="#rim" fill="#404040"><set attributeName="fill" to="#808080" begin="zoomplus.mouseover" end="zoomplus.mouseout"/></use>
    <path d="M-4,0h8M0,-4v8" fill="none" stroke="white" stroke-width="1.5" pointer-events="none"/>
  </g>
  <g id="zoomMin">
    <use xlink:href="#rim" fill="#404040"><set attributeName="fill" to="#808080" begin="zoomminus.mouseover" end="zoomminus.mouseout"/></use>
    <path d="M-4,0h8" fill="none" stroke="white" stroke-width="1.5" pointer-events="none"/>
  </g>
  <g id="arrowUp" transform="translate(30 24)">
    <use xlink:href="#rim"/>
    <path pointer-events="none" fill="none" stroke="white" stroke-width="1.5" d="M0,-3.0v7 M-2.5,-0.5L0,-3.0L2.5,-0.5"/>
  </g>
  <g id="arrowRight" transform="rotate(90) translate(36 -43)">
    <use xlink:href="#rim"/>
    <path pointer-events="none" fill="none" stroke="white" stroke-width="1.5" d="M0,-3.0v7 M-2.5,-0.5L0,-3.0L2.5,-0.5"/>
  </g>
  <g id="arrowDown" transform="rotate(180) translate(-30 -48)">
    <use xlink:href="#rim"/>
    <path pointer-events="none" fill="none" stroke="white" stroke-width="1.5" d="M0,-3.0v7 M-2.5,-0.5L0,-3.0L2.5,-0.5"/>
  </g>
  <g id="arrowLeft" transform="rotate(270) translate(-36 17)">
    <use xlink:href="#rim"/>
    <path pointer-events="none" fill="none" stroke="white" stroke-width="1.5" d="M0,-3.0v7 M-2.5,-0.5L0,-3.0L2.5,-0.5"/>
  </g>
  <g id="resetDef">
    <use xlink:href="#rim2" fill="#404040"><set attributeName="fill" to="#808080" begin="reset.mouseover" end="reset.mouseout"/></use>
  </g>
</defs>
<script type="application/ecmascript">
var viewWidth = 1246;
var viewHeight = 306;
var sectionId = 'dynsection-10';
</script>
<script type="application/ecmascript" xlink:href="svg.min.js"/>
<svg id="graph" class="graph">
<g id="viewport">
<title>editeurpanovisu.util.SvgIconLoader.loadSvgIcon</title>
<!-- Node1 -->
<g id="Node000001" class="node">
<title>Node1</title>
<g id="a_Node000001"><a xlink:title="Charge une icône SVG et la convertit en ImageView avec dimensions personnalisées.">
<polygon fill="#999999" stroke="#666666" points="1238.25,-157 1117.25,-157 1117.25,-125 1238.25,-125 1238.25,-157"/>
<text xml:space="preserve" text-anchor="start" x="1125.25" y="-143.5" font-family="Helvetica,sans-Serif" font-size="10.00">editeurpanovisu.util.Svg</text>
<text xml:space="preserve" text-anchor="middle" x="1177.75" y="-131.5" font-family="Helvetica,sans-Serif" font-size="10.00">IconLoader.loadSvgIcon</text>
</a>
</g>
</g>
<!-- Node2 -->
<g id="Node000002" class="node">
<title>Node2</title>
<g id="a_Node000002"><a xlink:href="classediteurpanovisu_1_1EditeurPanovisu.html#a786c8cb886a5b0d7bef0bc311876a62e" target="_top" xlink:title="Charge une icône SVG avec la taille spécifiée.">
<polygon fill="white" stroke="#666666" points="1081.25,-282 901.75,-282 901.75,-250 1081.25,-250 1081.25,-282"/>
<text xml:space="preserve" text-anchor="start" x="909.75" y="-268.5" font-family="Helvetica,sans-Serif" font-size="10.00">editeurpanovisu.EditeurPanovisu.load</text>
<text xml:space="preserve" text-anchor="middle" x="991.5" y="-256.5" font-family="Helvetica,sans-Serif" font-size="10.00">SvgIcon</text>
</a>
</g>
</g>
<!-- Node1&#45;&gt;Node2 -->
<g id="edge1_Node000001_Node000002" class="edge">
<title>Node1&#45;&gt;Node2</title>
<g id="a_edge1_Node000001_Node000002"><a xlink:title=" ">
<path fill="none" stroke="#63b8ff" d="M1158.73,-166.51C1141.37,-189.26 1113.11,-221.84 1081.25,-241 1075.76,-244.3 1069.82,-247.18 1063.71,-249.69"/>
<polygon fill="#63b8ff" stroke="#63b8ff" points="1161.42,-168.76 1164.58,-158.65 1155.8,-164.59 1161.42,-168.76"/>
</a>
</g>
</g>
<!-- Node8 -->
<g id="Node000008" class="node">
<title>Node8</title>
<g id="a_Node000008"><a xlink:href="classediteurpanovisu_1_1EditeurPanovisu.html#a10e4a731076e3375369e0572372ae29b" target="_top" xlink:title="Charge une icône SVG avec couleur personnalisée.">
<polygon fill="white" stroke="#666666" points="1081.25,-232 901.75,-232 901.75,-200 1081.25,-200 1081.25,-232"/>
<text xml:space="preserve" text-anchor="start" x="909.75" y="-218.5" font-family="Helvetica,sans-Serif" font-size="10.00">editeurpanovisu.EditeurPanovisu.load</text>
<text xml:space="preserve" text-anchor="middle" x="991.5" y="-206.5" font-family="Helvetica,sans-Serif" font-size="10.00">SvgIcon</text>
</a>
</g>
</g>
<!-- Node1&#45;&gt;Node8 -->
<g id="edge8_Node000001_Node000008" class="edge">
<title>Node1&#45;&gt;Node8</title>
<g id="a_edge8_Node000001_Node000008"><a xlink:title=" ">
<path fill="none" stroke="#63b8ff" d="M1139.35,-162.89C1122.07,-172.4 1101.02,-183.14 1081.25,-191 1073.52,-194.08 1065.26,-196.93 1057.02,-199.53"/>
<polygon fill="#63b8ff" stroke="#63b8ff" points="1140.72,-166.13 1147.74,-158.2 1137.3,-160.02 1140.72,-166.13"/>
</a>
</g>
</g>
<!-- Node9 -->
<g id="Node000009" class="node">
<title>Node9</title>
<g id="a_Node000009"><a xlink:href="classediteurpanovisu_1_1EditeurPanovisu.html#a1e06faaf545b6d7ac786a250dc638406" target="_top" xlink:title="Charge une icône SVG avec dimensions rectangulaires.">
<polygon fill="white" stroke="#666666" points="1081.25,-182 901.75,-182 901.75,-150 1081.25,-150 1081.25,-182"/>
<text xml:space="preserve" text-anchor="start" x="909.75" y="-168.5" font-family="Helvetica,sans-Serif" font-size="10.00">editeurpanovisu.EditeurPanovisu.load</text>
<text xml:space="preserve" text-anchor="middle" x="991.5" y="-156.5" font-family="Helvetica,sans-Serif" font-size="10.00">SvgIcon</text>
</a>
</g>
</g>
<!-- Node1&#45;&gt;Node9 -->
<g id="edge9_Node000001_Node000009" class="edge">
<title>Node1&#45;&gt;Node9</title>
<g id="a_edge9_Node000001_Node000009"><a xlink:title=" ">
<path fill="none" stroke="#63b8ff" d="M1105.55,-150.66C1097.65,-151.73 1089.54,-152.83 1081.46,-153.93"/>
<polygon fill="#63b8ff" stroke="#63b8ff" points="1105.99,-154.13 1115.43,-149.32 1105.05,-147.2 1105.99,-154.13"/>
</a>
</g>
</g>
<!-- Node10 -->
<g id="Node000010" class="node">
<title>Node10</title>
<g id="a_Node000010"><a xlink:href="classediteurpanovisu_1_1util_1_1SvgIconLoader.html#a613449af7000fc565e48cb0c25aafcc6" target="_top" xlink:title="Charge une icône SVG avec la couleur par défaut.">
<polygon fill="white" stroke="#666666" points="1052,-132 931,-132 931,-100 1052,-100 1052,-132"/>
<text xml:space="preserve" text-anchor="start" x="939" y="-118.5" font-family="Helvetica,sans-Serif" font-size="10.00">editeurpanovisu.util.Svg</text>
<text xml:space="preserve" text-anchor="middle" x="991.5" y="-106.5" font-family="Helvetica,sans-Serif" font-size="10.00">IconLoader.loadSvgIcon</text>
</a>
</g>
</g>
<!-- Node1&#45;&gt;Node10 -->
<g id="edge10_Node000001_Node000010" class="edge">
<title>Node1&#45;&gt;Node10</title>
<g id="a_edge10_Node000001_Node000010"><a xlink:title=" ">
<path fill="none" stroke="#63b8ff" d="M1105.56,-131.34C1087.97,-128.95 1069.32,-126.42 1052.34,-124.12"/>
<polygon fill="#63b8ff" stroke="#63b8ff" points="1105.05,-134.8 1115.43,-132.68 1105.99,-127.87 1105.05,-134.8"/>
</a>
</g>
</g>
<!-- Node11 -->
<g id="Node000011" class="node">
<title>Node11</title>
<g id="a_Node000011"><a xlink:href="classediteurpanovisu_1_1util_1_1SvgIconLoader.html#a25b0a4ec1f9c84559d94725278288b57" target="_top" xlink:title="Charge une icône SVG et la convertit en ImageView (version carrée)">
<polygon fill="white" stroke="#666666" points="1052,-82 931,-82 931,-50 1052,-50 1052,-82"/>
<text xml:space="preserve" text-anchor="start" x="939" y="-68.5" font-family="Helvetica,sans-Serif" font-size="10.00">editeurpanovisu.util.Svg</text>
<text xml:space="preserve" text-anchor="middle" x="991.5" y="-56.5" font-family="Helvetica,sans-Serif" font-size="10.00">IconLoader.loadSvgIcon</text>
</a>
</g>
</g>
<!-- Node1&#45;&gt;Node11 -->
<g id="edge11_Node000001_Node000011" class="edge">
<title>Node1&#45;&gt;Node11</title>
<g id="a_edge11_Node000001_Node000011"><a xlink:title=" ">
<path fill="none" stroke="#63b8ff" d="M1139.35,-119.11C1122.07,-109.6 1101.02,-98.86 1081.25,-91 1072.03,-87.33 1062.07,-83.98 1052.27,-80.99"/>
<polygon fill="#63b8ff" stroke="#63b8ff" points="1137.3,-121.98 1147.74,-123.8 1140.72,-115.87 1137.3,-121.98"/>
</a>
</g>
</g>
<!-- Node12 -->
<g id="Node000012" class="node">
<title>Node12</title>
<g id="a_Node000012"><a xlink:href="classediteurpanovisu_1_1util_1_1SvgIconLoader.html#ad0c3d77e889a0209dc4319b05b2e0e72" target="_top" xlink:title="Crée un ImageView avec couleur adaptée au thème.">
<polygon fill="white" stroke="#666666" points="1061,-32 922,-32 922,0 1061,0 1061,-32"/>
<text xml:space="preserve" text-anchor="start" x="930" y="-18.5" font-family="Helvetica,sans-Serif" font-size="10.00">editeurpanovisu.util.Svg</text>
<text xml:space="preserve" text-anchor="middle" x="991.5" y="-6.5" font-family="Helvetica,sans-Serif" font-size="10.00">IconLoader.loadThemedIcon</text>
</a>
</g>
</g>
<!-- Node1&#45;&gt;Node12 -->
<g id="edge12_Node000001_Node000012" class="edge">
<title>Node1&#45;&gt;Node12</title>
<g id="a_edge12_Node000001_Node000012"><a xlink:title=" ">
<path fill="none" stroke="#63b8ff" d="M1158.73,-115.49C1141.37,-92.74 1113.11,-60.16 1081.25,-41 1075.08,-37.29 1068.33,-34.11 1061.41,-31.39"/>
<polygon fill="#63b8ff" stroke="#63b8ff" points="1155.8,-117.41 1164.58,-123.35 1161.42,-113.24 1155.8,-117.41"/>
</a>
</g>
</g>
<!-- Node3 -->
<g id="Node000003" class="node">
<title>Node3</title>
<g id="a_Node000003"><a xlink:href="classediteurpanovisu_1_1EditeurPanovisu.html#ac912b80c1f2ac97def60ff005c5c480b" target="_top" xlink:title=" ">
<polygon fill="white" stroke="#666666" points="627.75,-298 423.5,-298 423.5,-278 627.75,-278 627.75,-298"/>
<text xml:space="preserve" text-anchor="middle" x="525.62" y="-284.5" font-family="Helvetica,sans-Serif" font-size="10.00">editeurpanovisu.EditeurPanovisu.creeMenu</text>
</a>
</g>
</g>
<!-- Node2&#45;&gt;Node3 -->
<g id="edge2_Node000002_Node000003" class="edge">
<title>Node2&#45;&gt;Node3</title>
<g id="a_edge2_Node000002_Node000003"><a xlink:title=" ">
<path fill="none" stroke="#63b8ff" d="M890.12,-270.76C812.6,-274.44 705.78,-279.5 628.01,-283.19"/>
<polygon fill="#63b8ff" stroke="#63b8ff" points="890,-274.27 899.82,-270.3 889.67,-267.28 890,-274.27"/>
</a>
</g>
</g>
<!-- Node5 -->
<g id="Node000005" class="node">
<title>Node5</title>
<g id="a_Node000005"><a xlink:href="classediteurpanovisu_1_1EditeurPanovisu.html#a43450ddf111546a6b22ad25c6ee0121e" target="_top" xlink:title="Recharge toutes les icônes SVG de la barre d&#39;outils Appelé lors du changement de thème pour mettre à ...">
<polygon fill="white" stroke="#666666" points="865.75,-260 663.75,-260 663.75,-228 865.75,-228 865.75,-260"/>
<text xml:space="preserve" text-anchor="start" x="671.75" y="-246.5" font-family="Helvetica,sans-Serif" font-size="10.00">editeurpanovisu.EditeurPanovisu.recharger</text>
<text xml:space="preserve" text-anchor="middle" x="764.75" y="-234.5" font-family="Helvetica,sans-Serif" font-size="10.00">Icones</text>
</a>
</g>
</g>
<!-- Node2&#45;&gt;Node5 -->
<g id="edge4_Node000002_Node000005" class="edge">
<title>Node2&#45;&gt;Node5</title>
<g id="a_edge4_Node000002_Node000005"><a xlink:title=" ">
<path fill="none" stroke="#63b8ff" d="M890.07,-256.17C882.04,-255.38 873.93,-254.59 865.91,-253.8"/>
<polygon fill="#63b8ff" stroke="#63b8ff" points="889.55,-259.64 899.84,-257.13 890.23,-252.67 889.55,-259.64"/>
</a>
</g>
</g>
<!-- Node4 -->
<g id="Node000004" class="node">
<title>Node4</title>
<g id="a_Node000004"><a xlink:href="classediteurpanovisu_1_1EditeurPanovisu.html#a86c393eee88f54c694db994ddd85b90d" target="_top" xlink:title=" ">
<polygon fill="white" stroke="#666666" points="180.25,-282 0,-282 0,-250 180.25,-250 180.25,-282"/>
<text xml:space="preserve" text-anchor="start" x="8" y="-268.5" font-family="Helvetica,sans-Serif" font-size="10.00">editeurpanovisu.EditeurPanovisu.cree</text>
<text xml:space="preserve" text-anchor="middle" x="90.12" y="-256.5" font-family="Helvetica,sans-Serif" font-size="10.00">Environnement</text>
</a>
</g>
</g>
<!-- Node3&#45;&gt;Node4 -->
<g id="edge3_Node000003_Node000004" class="edge">
<title>Node3&#45;&gt;Node4</title>
<g id="a_edge3_Node000003_Node000004"><a xlink:title=" ">
<path fill="none" stroke="#63b8ff" d="M411.87,-282.28C339.76,-278.62 247.52,-273.94 180.48,-270.53"/>
<polygon fill="#63b8ff" stroke="#63b8ff" points="411.59,-285.77 421.75,-282.78 411.94,-278.78 411.59,-285.77"/>
</a>
</g>
</g>
<!-- Node6 -->
<g id="Node000006" class="node">
<title>Node6</title>
<g id="a_Node000006"><a xlink:href="classediteurpanovisu_1_1EditeurPanovisu.html#ac7f9fc08f7517cc58ad3ee2ffc463c41" target="_top" xlink:title=" ">
<polygon fill="white" stroke="#666666" points="613.12,-260 438.12,-260 438.12,-228 613.12,-228 613.12,-260"/>
<text xml:space="preserve" text-anchor="start" x="446.12" y="-246.5" font-family="Helvetica,sans-Serif" font-size="10.00">editeurpanovisu.EditeurPanovisu.set</text>
<text xml:space="preserve" text-anchor="middle" x="525.62" y="-234.5" font-family="Helvetica,sans-Serif" font-size="10.00">StrStyleCSS</text>
</a>
</g>
</g>
<!-- Node5&#45;&gt;Node6 -->
<g id="edge5_Node000005_Node000006" class="edge">
<title>Node5&#45;&gt;Node6</title>
<g id="a_edge5_Node000005_Node000006"><a xlink:title=" ">
<path fill="none" stroke="#63b8ff" d="M652.13,-244C639.11,-244 625.97,-244 613.35,-244"/>
<polygon fill="#63b8ff" stroke="#63b8ff" points="652.02,-247.5 662.02,-244 652.02,-240.5 652.02,-247.5"/>
</a>
</g>
</g>
<!-- Node7 -->
<g id="Node000007" class="node">
<title>Node7</title>
<g id="a_Node000007"><a xlink:href="classediteurpanovisu_1_1EditeurPanovisu.html#adf3136c7d8546e073ebf626494bd9b58" target="_top" xlink:title=" ">
<polygon fill="white" stroke="#666666" points="387.5,-260 216.25,-260 216.25,-228 387.5,-228 387.5,-260"/>
<text xml:space="preserve" text-anchor="start" x="224.25" y="-246.5" font-family="Helvetica,sans-Serif" font-size="10.00">editeurpanovisu.EditeurPanovisu.lis</text>
<text xml:space="preserve" text-anchor="middle" x="301.88" y="-234.5" font-family="Helvetica,sans-Serif" font-size="10.00">FichierConfig</text>
</a>
</g>
</g>
<!-- Node6&#45;&gt;Node7 -->
<g id="edge6_Node000006_Node000007" class="edge">
<title>Node6&#45;&gt;Node7</title>
<g id="a_edge6_Node000006_Node000007"><a xlink:title=" ">
<path fill="none" stroke="#63b8ff" d="M426.61,-244C413.63,-244 400.41,-244 387.68,-244"/>
<polygon fill="#63b8ff" stroke="#63b8ff" points="426.42,-247.5 436.42,-244 426.42,-240.5 426.42,-247.5"/>
</a>
</g>
</g>
<!-- Node7&#45;&gt;Node4 -->
<g id="edge7_Node000007_Node000004" class="edge">
<title>Node7&#45;&gt;Node4</title>
<g id="a_edge7_Node000007_Node000004"><a xlink:title=" ">
<path fill="none" stroke="#63b8ff" d="M204.65,-254.09C196.67,-254.93 188.63,-255.77 180.7,-256.6"/>
<polygon fill="#63b8ff" stroke="#63b8ff" points="204.78,-257.6 214.36,-253.07 204.05,-250.64 204.78,-257.6"/>
</a>
</g>
</g>
</g>
</svg>

<g id="navigator" transform="translate(0 0)" fill="#404254">
  <rect fill="#f2f5e9" fill-opacity="0.5" stroke="#606060" stroke-width=".5" x="0" y="0" width="60" height="60"/>
  <use id="zoomplus" xlink:href="#zoomPlus" x="17" y="9" onmousedown="handleZoom(evt,'in')"/>
  <use id="zoomminus" xlink:href="#zoomMin" x="42" y="9" onmousedown="handleZoom(evt,'out')"/>
  <use id="reset" xlink:href="#resetDef" x="30" y="36" onmousedown="handleReset()"/>
   <use id="arrowup" xlink:href="#arrowUp" x="0" y="0" onmousedown="handlePan(0,-1)"/>
  <use id="arrowright" xlink:href="#arrowRight" x="0" y="0" onmousedown="handlePan(1,0)"/>
  <use id="arrowdown" xlink:href="#arrowDown" x="0" y="0" onmousedown="handlePan(0,1)"/>
  <use id="arrowleft" xlink:href="#arrowLeft" x="0" y="0" onmousedown="handlePan(-1,0)"/>
</g>
<svg viewBox="0 0 15 15" width="100%" height="30px" preserveAspectRatio="xMaxYMin meet">
 <g id="arrow_out" transform="scale(0.3 0.3)">
  <a xlink:href="classediteurpanovisu_1_1util_1_1SvgIconLoader_ab0e96e5ebb4dce78ea938d9adca21ce2_icgraph_org.svg" target="_base">
   <rect id="button" ry="5" rx="5" y="6" x="6" height="38" width="38"
        fill="#f2f5e9" fill-opacity="0.5" stroke="#606060" stroke-width="1.0"/>
   <path id="arrow"
     d="M 11.500037,31.436501 C 11.940474,20.09759 22.043105,11.32322 32.158766,21.979434 L 37.068811,17.246167 C 37.068811,17.246167 37.088388,32 37.088388,32 L 22.160133,31.978069 C 22.160133,31.978069 26.997745,27.140456 26.997745,27.140456 C 18.528582,18.264221 13.291696,25.230495 11.500037,31.436501 z"
     style="fill:#404040;"/>
  </a>
 </g>
</svg>

<style type='text/css'>
<![CDATA[
[data-mouse-over-selected='false'] { opacity: 0.7; }
[data-mouse-over-selected='true']  { opacity: 1.0; }
]]>
</style>
<script type="application/ecmascript"><![CDATA[
document.addEventListener('DOMContentLoaded', (event) => {
  highlightEdges();
  highlightAdjacentNodes();
});
]]></script>
</svg>
