<?xml version="1.0" encoding="UTF-8" standalone="no"?>
<!DOCTYPE svg PUBLIC "-//W3C//DTD SVG 1.1//EN"
 "http://www.w3.org/Graphics/SVG/1.1/DTD/svg11.dtd">
<!-- Generated by graphviz version 13.1.2 (20250808.2320)
 -->
<!-- Title: editeurpanovisu.ImageEditeurHTML.getStrImagePath Pages: 1 -->
<!--zoomable 446 -->

<svg id="main" version="1.1" xmlns="http://www.w3.org/2000/svg" xmlns:xlink="http://www.w3.org/1999/xlink" xml:space="preserve" onload="init(evt)">

<style type="text/css"><![CDATA[
.node, .edge {opacity: 0.7;}
.node.selected, .edge.selected {opacity: 1;}
.edge:hover path { stroke: red; }
.edge:hover polygon { stroke: red; fill: red; }
]]></style>

<defs>
  <circle id="rim" cx="0" cy="0" r="7"/>
  <circle id="rim2" cx="0" cy="0" r="3.5"/>
  <g id="zoomPlus">
    <use xlink:href="#rim" fill="#404040"><set attributeName="fill" to="#808080" begin="zoomplus.mouseover" end="zoomplus.mouseout"/></use>
    <path d="M-4,0h8M0,-4v8" fill="none" stroke="white" stroke-width="1.5" pointer-events="none"/>
  </g>
  <g id="zoomMin">
    <use xlink:href="#rim" fill="#404040"><set attributeName="fill" to="#808080" begin="zoomminus.mouseover" end="zoomminus.mouseout"/></use>
    <path d="M-4,0h8" fill="none" stroke="white" stroke-width="1.5" pointer-events="none"/>
  </g>
  <g id="arrowUp" transform="translate(30 24)">
    <use xlink:href="#rim"/>
    <path pointer-events="none" fill="none" stroke="white" stroke-width="1.5" d="M0,-3.0v7 M-2.5,-0.5L0,-3.0L2.5,-0.5"/>
  </g>
  <g id="arrowRight" transform="rotate(90) translate(36 -43)">
    <use xlink:href="#rim"/>
    <path pointer-events="none" fill="none" stroke="white" stroke-width="1.5" d="M0,-3.0v7 M-2.5,-0.5L0,-3.0L2.5,-0.5"/>
  </g>
  <g id="arrowDown" transform="rotate(180) translate(-30 -48)">
    <use xlink:href="#rim"/>
    <path pointer-events="none" fill="none" stroke="white" stroke-width="1.5" d="M0,-3.0v7 M-2.5,-0.5L0,-3.0L2.5,-0.5"/>
  </g>
  <g id="arrowLeft" transform="rotate(270) translate(-36 17)">
    <use xlink:href="#rim"/>
    <path pointer-events="none" fill="none" stroke="white" stroke-width="1.5" d="M0,-3.0v7 M-2.5,-0.5L0,-3.0L2.5,-0.5"/>
  </g>
  <g id="resetDef">
    <use xlink:href="#rim2" fill="#404040"><set attributeName="fill" to="#808080" begin="reset.mouseover" end="reset.mouseout"/></use>
  </g>
</defs>
<script type="application/ecmascript">
var viewWidth = 1747;
var viewHeight = 446;
var sectionId = 'dynsection-1';
</script>
<script type="application/ecmascript" xlink:href="svg.min.js"/>
<svg id="graph" class="graph">
<g id="viewport">
<title>editeurpanovisu.ImageEditeurHTML.getStrImagePath</title>
<!-- Node1 -->
<g id="Node000001" class="node">
<title>Node1</title>
<g id="a_Node000001"><a xlink:title=" ">
<polygon fill="#999999" stroke="#666666" points="1739,-248.75 1594,-248.75 1594,-216.75 1739,-216.75 1739,-248.75"/>
<text xml:space="preserve" text-anchor="start" x="1602" y="-235.25" font-family="Helvetica,sans-Serif" font-size="10.00">editeurpanovisu.ImageEditeur</text>
<text xml:space="preserve" text-anchor="middle" x="1666.5" y="-223.25" font-family="Helvetica,sans-Serif" font-size="10.00">HTML.getStrImagePath</text>
</a>
</g>
</g>
<!-- Node2 -->
<g id="Node000002" class="node">
<title>Node2</title>
<g id="a_Node000002"><a xlink:href="classediteurpanovisu_1_1HotspotHTML.html#a7a0f04a7ae186360a245ebc94836109a" target="_top" xlink:title=" ">
<polygon fill="white" stroke="#666666" points="1334.25,-349.75 1136.75,-349.75 1136.75,-329.75 1334.25,-329.75 1334.25,-349.75"/>
<text xml:space="preserve" text-anchor="middle" x="1235.5" y="-336.25" font-family="Helvetica,sans-Serif" font-size="10.00">editeurpanovisu.HotspotHTML.creeHTML</text>
</a>
</g>
</g>
<!-- Node1&#45;&gt;Node2 -->
<g id="edge1_Node000001_Node000002" class="edge">
<title>Node1&#45;&gt;Node2</title>
<g id="a_edge1_Node000001_Node000002"><a xlink:title=" ">
<path fill="none" stroke="#63b8ff" d="M1588.35,-252C1497.54,-274.65 1350.05,-311.43 1278.32,-329.32"/>
<polygon fill="#63b8ff" stroke="#63b8ff" points="1589.08,-255.42 1597.94,-249.6 1587.39,-248.63 1589.08,-255.42"/>
</a>
</g>
</g>
<!-- Node6 -->
<g id="Node000006" class="node">
<title>Node6</title>
<g id="a_Node000006"><a xlink:href="classediteurpanovisu_1_1EditeurPanovisu.html#aaee69ab54364f89b58458c744a4195c0" target="_top" xlink:title=" ">
<polygon fill="white" stroke="#666666" points="1558,-226.75 1370.25,-226.75 1370.25,-194.75 1558,-194.75 1558,-226.75"/>
<text xml:space="preserve" text-anchor="start" x="1378.25" y="-213.25" font-family="Helvetica,sans-Serif" font-size="10.00">editeurpanovisu.EditeurPanovisu.sauve</text>
<text xml:space="preserve" text-anchor="middle" x="1464.12" y="-201.25" font-family="Helvetica,sans-Serif" font-size="10.00">FichierProjet</text>
</a>
</g>
</g>
<!-- Node1&#45;&gt;Node6 -->
<g id="edge5_Node000001_Node000006" class="edge">
<title>Node1&#45;&gt;Node6</title>
<g id="a_edge5_Node000001_Node000006"><a xlink:title=" ">
<path fill="none" stroke="#63b8ff" d="M1582.3,-223.62C1574.41,-222.75 1566.38,-221.87 1558.41,-221"/>
<polygon fill="#63b8ff" stroke="#63b8ff" points="1581.9,-227.1 1592.22,-224.71 1582.66,-220.14 1581.9,-227.1"/>
</a>
</g>
</g>
<!-- Node3 -->
<g id="Node000003" class="node">
<title>Node3</title>
<g id="a_Node000003"><a xlink:href="classediteurpanovisu_1_1EditeurPanovisu.html#a94e36b9e9d09ab1a4c852b8a8cefa927" target="_top" xlink:title=" ">
<polygon fill="white" stroke="#666666" points="647.25,-337.75 456.5,-337.75 456.5,-305.75 647.25,-305.75 647.25,-337.75"/>
<text xml:space="preserve" text-anchor="start" x="464.5" y="-324.25" font-family="Helvetica,sans-Serif" font-size="10.00">editeurpanovisu.EditeurPanovisu.genere</text>
<text xml:space="preserve" text-anchor="middle" x="551.88" y="-312.25" font-family="Helvetica,sans-Serif" font-size="10.00">Visite</text>
</a>
</g>
</g>
<!-- Node2&#45;&gt;Node3 -->
<g id="edge2_Node000002_Node000003" class="edge">
<title>Node2&#45;&gt;Node3</title>
<g id="a_edge2_Node000002_Node000003"><a xlink:title=" ">
<path fill="none" stroke="#63b8ff" d="M1202.09,-354.69C1175.46,-366.27 1136.45,-381.66 1100.75,-389.75 919.58,-430.81 860.89,-464.1 683.25,-409.75 637.29,-395.69 592.9,-359.37 569.65,-338.05"/>
<polygon fill="#63b8ff" stroke="#63b8ff" points="1203.24,-358.01 1210.97,-350.77 1200.41,-351.61 1203.24,-358.01"/>
</a>
</g>
</g>
<!-- Node4 -->
<g id="Node000004" class="node">
<title>Node4</title>
<g id="a_Node000004"><a xlink:href="classediteurpanovisu_1_1EditeurPanovisu.html#ac912b80c1f2ac97def60ff005c5c480b" target="_top" xlink:title=" ">
<polygon fill="white" stroke="#666666" points="420.5,-157.75 216.25,-157.75 216.25,-137.75 420.5,-137.75 420.5,-157.75"/>
<text xml:space="preserve" text-anchor="middle" x="318.38" y="-144.25" font-family="Helvetica,sans-Serif" font-size="10.00">editeurpanovisu.EditeurPanovisu.creeMenu</text>
</a>
</g>
</g>
<!-- Node3&#45;&gt;Node4 -->
<g id="edge3_Node000003_Node000004" class="edge">
<title>Node3&#45;&gt;Node4</title>
<g id="a_edge3_Node000003_Node000004"><a xlink:title=" ">
<path fill="none" stroke="#63b8ff" d="M520.2,-298.7C469.4,-260.52 369.76,-185.63 333.23,-158.17"/>
<polygon fill="#63b8ff" stroke="#63b8ff" points="517.79,-301.26 527.89,-304.48 522,-295.67 517.79,-301.26"/>
</a>
</g>
</g>
<!-- Node5 -->
<g id="Node000005" class="node">
<title>Node5</title>
<g id="a_Node000005"><a xlink:href="classediteurpanovisu_1_1EditeurPanovisu.html#a86c393eee88f54c694db994ddd85b90d" target="_top" xlink:title=" ">
<polygon fill="white" stroke="#666666" points="180.25,-163.75 0,-163.75 0,-131.75 180.25,-131.75 180.25,-163.75"/>
<text xml:space="preserve" text-anchor="start" x="8" y="-150.25" font-family="Helvetica,sans-Serif" font-size="10.00">editeurpanovisu.EditeurPanovisu.cree</text>
<text xml:space="preserve" text-anchor="middle" x="90.12" y="-138.25" font-family="Helvetica,sans-Serif" font-size="10.00">Environnement</text>
</a>
</g>
</g>
<!-- Node4&#45;&gt;Node5 -->
<g id="edge4_Node000004_Node000005" class="edge">
<title>Node4&#45;&gt;Node5</title>
<g id="a_edge4_Node000004_Node000005"><a xlink:title=" ">
<path fill="none" stroke="#63b8ff" d="M204.51,-147.75C196.49,-147.75 188.46,-147.75 180.6,-147.75"/>
<polygon fill="#63b8ff" stroke="#63b8ff" points="204.32,-151.25 214.32,-147.75 204.32,-144.25 204.32,-151.25"/>
</a>
</g>
</g>
<!-- Node7 -->
<g id="Node000007" class="node">
<title>Node7</title>
<g id="a_Node000007"><a xlink:href="classediteurpanovisu_1_1EditeurPanovisu.html#a9f3ea25b35d4884524508dab3dc4fd6a" target="_top" xlink:title=" ">
<polygon fill="white" stroke="#666666" points="1328.25,-226.75 1142.75,-226.75 1142.75,-194.75 1328.25,-194.75 1328.25,-226.75"/>
<text xml:space="preserve" text-anchor="start" x="1150.75" y="-213.25" font-family="Helvetica,sans-Serif" font-size="10.00">editeurpanovisu.EditeurPanovisu.projet</text>
<text xml:space="preserve" text-anchor="middle" x="1235.5" y="-201.25" font-family="Helvetica,sans-Serif" font-size="10.00">Sauve</text>
</a>
</g>
</g>
<!-- Node6&#45;&gt;Node7 -->
<g id="edge6_Node000006_Node000007" class="edge">
<title>Node6&#45;&gt;Node7</title>
<g id="a_edge6_Node000006_Node000007"><a xlink:title=" ">
<path fill="none" stroke="#63b8ff" d="M1358.68,-210.75C1348.63,-210.75 1338.48,-210.75 1328.56,-210.75"/>
<polygon fill="#63b8ff" stroke="#63b8ff" points="1358.45,-214.25 1368.45,-210.75 1358.45,-207.25 1358.45,-214.25"/>
</a>
</g>
</g>
<!-- Node11 -->
<g id="Node000011" class="node">
<title>Node11</title>
<g id="a_Node000011"><a xlink:href="classediteurpanovisu_1_1EditeurPanovisu.html#a7b2e25dc717eb52b62e23d54ec4c124a" target="_top" xlink:title=" ">
<polygon fill="white" stroke="#666666" points="644.62,-56.75 459.12,-56.75 459.12,-24.75 644.62,-24.75 644.62,-56.75"/>
<text xml:space="preserve" text-anchor="start" x="467.12" y="-43.25" font-family="Helvetica,sans-Serif" font-size="10.00">editeurpanovisu.EditeurPanovisu.projet</text>
<text xml:space="preserve" text-anchor="middle" x="551.88" y="-31.25" font-family="Helvetica,sans-Serif" font-size="10.00">SauveSous</text>
</a>
</g>
</g>
<!-- Node6&#45;&gt;Node11 -->
<g id="edge27_Node000006_Node000011" class="edge">
<title>Node6&#45;&gt;Node11</title>
<g id="a_edge27_Node000006_Node000011"><a xlink:title=" ">
<path fill="none" stroke="#63b8ff" d="M1424.49,-189.14C1359.85,-154.27 1224.64,-86.77 1100.75,-59.75 943.37,-25.43 754.61,-28.19 644.76,-34"/>
<polygon fill="#63b8ff" stroke="#63b8ff" points="1422.46,-192.02 1432.92,-193.73 1425.8,-185.87 1422.46,-192.02"/>
</a>
</g>
</g>
<!-- Node7&#45;&gt;Node3 -->
<g id="edge8_Node000007_Node000003" class="edge">
<title>Node7&#45;&gt;Node3</title>
<g id="a_edge8_Node000007_Node000003"><a xlink:title=" ">
<path fill="none" stroke="#63b8ff" d="M1211.54,-235.19C1186.84,-259.63 1145.08,-295.8 1100.75,-311.75 949.47,-366.19 759.16,-353.11 647.28,-337.94"/>
<polygon fill="#63b8ff" stroke="#63b8ff" points="1213.94,-237.74 1218.48,-228.17 1208.97,-232.82 1213.94,-237.74"/>
</a>
</g>
</g>
<!-- Node7&#45;&gt;Node4 -->
<g id="edge7_Node000007_Node000004" class="edge">
<title>Node7&#45;&gt;Node4</title>
<g id="a_edge7_Node000007_Node000004"><a xlink:title=" ">
<path fill="none" stroke="#63b8ff" d="M1220.1,-184.82C1199.01,-149.64 1156.13,-87.98 1100.75,-59.75 920.33,32.19 849.52,-25.54 647.25,-15.75 562.57,-11.66 535.13,15.94 456.5,-15.75 393.37,-41.2 343.05,-111.17 325.8,-137.53"/>
<polygon fill="#63b8ff" stroke="#63b8ff" points="1216.87,-186.23 1224.94,-193.09 1222.91,-182.69 1216.87,-186.23"/>
</a>
</g>
</g>
<!-- Node8 -->
<g id="Node000008" class="node">
<title>Node8</title>
<g id="a_Node000008"><a xlink:href="classediteurpanovisu_1_1EditeurPanovisu.html#ab4beb1597b660a4a253befc6e76f1c54" target="_top" xlink:title=" ">
<polygon fill="white" stroke="#666666" points="644.62,-163.75 459.12,-163.75 459.12,-131.75 644.62,-131.75 644.62,-163.75"/>
<text xml:space="preserve" text-anchor="start" x="467.12" y="-150.25" font-family="Helvetica,sans-Serif" font-size="10.00">editeurpanovisu.EditeurPanovisu.projet</text>
<text xml:space="preserve" text-anchor="middle" x="551.88" y="-138.25" font-family="Helvetica,sans-Serif" font-size="10.00">Charge</text>
</a>
</g>
</g>
<!-- Node7&#45;&gt;Node8 -->
<g id="edge9_Node000007_Node000008" class="edge">
<title>Node7&#45;&gt;Node8</title>
<g id="a_edge9_Node000007_Node000008"><a xlink:title=" ">
<path fill="none" stroke="#63b8ff" d="M1143.9,-192.36C1129.51,-189.86 1114.75,-187.54 1100.75,-185.75 941.15,-165.37 753.9,-155.35 644.8,-150.88"/>
<polygon fill="#63b8ff" stroke="#63b8ff" points="1142.87,-195.73 1153.33,-194.03 1144.1,-188.84 1142.87,-195.73"/>
</a>
</g>
</g>
<!-- Node9 -->
<g id="Node000009" class="node">
<title>Node9</title>
<g id="a_Node000009"><a xlink:href="classediteurpanovisu_1_1EditeurPanovisu.html#a6d19b4d885ee6fcec827b91956295732" target="_top" xlink:title=" ">
<polygon fill="white" stroke="#666666" points="1098.12,-100.75 912.62,-100.75 912.62,-68.75 1098.12,-68.75 1098.12,-100.75"/>
<text xml:space="preserve" text-anchor="start" x="920.62" y="-87.25" font-family="Helvetica,sans-Serif" font-size="10.00">editeurpanovisu.EditeurPanovisu.projet</text>
<text xml:space="preserve" text-anchor="middle" x="1005.38" y="-75.25" font-family="Helvetica,sans-Serif" font-size="10.00">ChargeNom</text>
</a>
</g>
</g>
<!-- Node7&#45;&gt;Node9 -->
<g id="edge11_Node000007_Node000009" class="edge">
<title>Node7&#45;&gt;Node9</title>
<g id="a_edge11_Node000007_Node000009"><a xlink:title=" ">
<path fill="none" stroke="#63b8ff" d="M1207.29,-187.26C1181.37,-165.89 1140.51,-134.71 1100.75,-114.75 1090.45,-109.59 1079.08,-105.07 1067.91,-101.22"/>
<polygon fill="#63b8ff" stroke="#63b8ff" points="1204.72,-189.69 1214.64,-193.41 1209.21,-184.31 1204.72,-189.69"/>
</a>
</g>
</g>
<!-- Node12 -->
<g id="Node000012" class="node">
<title>Node12</title>
<g id="a_Node000012"><a xlink:href="classediteurpanovisu_1_1EditeurPanovisu.html#a9b46b222714af12c06ec33d410400773" target="_top" xlink:title=" ">
<polygon fill="white" stroke="#666666" points="874,-400.75 683.25,-400.75 683.25,-368.75 874,-368.75 874,-400.75"/>
<text xml:space="preserve" text-anchor="start" x="691.25" y="-387.25" font-family="Helvetica,sans-Serif" font-size="10.00">editeurpanovisu.EditeurPanovisu.projets</text>
<text xml:space="preserve" text-anchor="middle" x="778.62" y="-375.25" font-family="Helvetica,sans-Serif" font-size="10.00">Fermer</text>
</a>
</g>
</g>
<!-- Node7&#45;&gt;Node12 -->
<g id="edge19_Node000007_Node000012" class="edge">
<title>Node7&#45;&gt;Node12</title>
<g id="a_edge19_Node000007_Node000012"><a xlink:title=" ">
<path fill="none" stroke="#63b8ff" d="M1212.62,-235.56C1176.58,-276.28 1107.99,-353.19 1100.75,-356.75 1030.48,-391.4 941.03,-396.53 874.39,-394.06"/>
<polygon fill="#63b8ff" stroke="#63b8ff" points="1215.19,-237.93 1219.19,-228.12 1209.95,-233.3 1215.19,-237.93"/>
</a>
</g>
</g>
<!-- Node13 -->
<g id="Node000013" class="node">
<title>Node13</title>
<g id="a_Node000013"><a xlink:href="classediteurpanovisu_1_1EditeurPanovisu.html#ac9d449399ccd38843fa12e716f0c9611" target="_top" xlink:title=" ">
<polygon fill="white" stroke="#666666" points="1100.75,-226.75 910,-226.75 910,-194.75 1100.75,-194.75 1100.75,-226.75"/>
<text xml:space="preserve" text-anchor="start" x="918" y="-213.25" font-family="Helvetica,sans-Serif" font-size="10.00">editeurpanovisu.EditeurPanovisu.projets</text>
<text xml:space="preserve" text-anchor="middle" x="1005.38" y="-201.25" font-family="Helvetica,sans-Serif" font-size="10.00">Nouveau</text>
</a>
</g>
</g>
<!-- Node7&#45;&gt;Node13 -->
<g id="edge21_Node000007_Node000013" class="edge">
<title>Node7&#45;&gt;Node13</title>
<g id="a_edge21_Node000007_Node000013"><a xlink:title=" ">
<path fill="none" stroke="#63b8ff" d="M1131.13,-210.75C1121.12,-210.75 1111,-210.75 1101.08,-210.75"/>
<polygon fill="#63b8ff" stroke="#63b8ff" points="1130.86,-214.25 1140.86,-210.75 1130.86,-207.25 1130.86,-214.25"/>
</a>
</g>
</g>
<!-- Node14 -->
<g id="Node000014" class="node">
<title>Node14</title>
<g id="a_Node000014"><a xlink:href="classediteurpanovisu_1_1EditeurPanovisu.html#a2b3125ffe2e6291efacf19df6cb30a8d" target="_top" xlink:title=" ">
<polygon fill="white" stroke="#666666" points="869.12,-312.75 688.12,-312.75 688.12,-292.75 869.12,-292.75 869.12,-312.75"/>
<text xml:space="preserve" text-anchor="middle" x="778.62" y="-299.25" font-family="Helvetica,sans-Serif" font-size="10.00">editeurpanovisu.EditeurPanovisu.start</text>
</a>
</g>
</g>
<!-- Node7&#45;&gt;Node14 -->
<g id="edge26_Node000007_Node000014" class="edge">
<title>Node7&#45;&gt;Node14</title>
<g id="a_edge26_Node000007_Node000014"><a xlink:title=" ">
<path fill="none" stroke="#63b8ff" d="M1203.42,-233.65C1177.43,-251.41 1138.62,-274.78 1100.75,-285.75 1024.87,-307.74 934.77,-310.61 869.34,-308.79"/>
<polygon fill="#63b8ff" stroke="#63b8ff" points="1205.29,-236.62 1211.49,-228.03 1201.28,-230.88 1205.29,-236.62"/>
</a>
</g>
</g>
<!-- Node15 -->
<g id="Node000015" class="node">
<title>Node15</title>
<g id="a_Node000015"><a xlink:href="classediteurpanovisu_1_1EditeurPanovisu.html#aef8c9b28c3e88d6e27e3f62b9a901134" target="_top" xlink:title=" ">
<polygon fill="white" stroke="#666666" points="1099.25,-276.75 911.5,-276.75 911.5,-244.75 1099.25,-244.75 1099.25,-276.75"/>
<text xml:space="preserve" text-anchor="start" x="919.5" y="-263.25" font-family="Helvetica,sans-Serif" font-size="10.00">editeurpanovisu.EditeurPanovisu.sauve</text>
<text xml:space="preserve" text-anchor="middle" x="1005.38" y="-251.25" font-family="Helvetica,sans-Serif" font-size="10.00">Fichiers</text>
</a>
</g>
</g>
<!-- Node7&#45;&gt;Node15 -->
<g id="edge25_Node000007_Node000015" class="edge">
<title>Node7&#45;&gt;Node15</title>
<g id="a_edge25_Node000007_Node000015"><a xlink:title=" ">
<path fill="none" stroke="#63b8ff" d="M1148.46,-229.61C1126.41,-234.44 1102.88,-239.6 1081.43,-244.3"/>
<polygon fill="#63b8ff" stroke="#63b8ff" points="1148.99,-233.08 1158.01,-227.52 1147.49,-226.24 1148.99,-233.08"/>
</a>
</g>
</g>
<!-- Node8&#45;&gt;Node4 -->
<g id="edge10_Node000008_Node000004" class="edge">
<title>Node8&#45;&gt;Node4</title>
<g id="a_edge10_Node000008_Node000004"><a xlink:title=" ">
<path fill="none" stroke="#63b8ff" d="M447.22,-147.75C438.41,-147.75 429.52,-147.75 420.73,-147.75"/>
<polygon fill="#63b8ff" stroke="#63b8ff" points="447.2,-151.25 457.2,-147.75 447.2,-144.25 447.2,-151.25"/>
</a>
</g>
</g>
<!-- Node9&#45;&gt;Node4 -->
<g id="edge18_Node000009_Node000004" class="edge">
<title>Node9&#45;&gt;Node4</title>
<g id="a_edge18_Node000009_Node000004"><a xlink:title=" ">
<path fill="none" stroke="#63b8ff" d="M901.09,-87.12C838.08,-89.01 755.95,-92.28 683.25,-97.75 582.15,-105.36 556.82,-108.1 456.5,-122.75 428.48,-126.85 397.43,-132.42 371.98,-137.27"/>
<polygon fill="#63b8ff" stroke="#63b8ff" points="900.82,-90.63 910.71,-86.83 900.62,-83.63 900.82,-90.63"/>
</a>
</g>
</g>
<!-- Node10 -->
<g id="Node000010" class="node">
<title>Node10</title>
<g id="a_Node000010"><a xlink:href="classediteurpanovisu_1_1EditeurPanovisu.html#af0d1c32bb78acbff561c822a0d15f760" target="_top" xlink:title=" ">
<polygon fill="white" stroke="#666666" points="872.5,-138.75 684.75,-138.75 684.75,-106.75 872.5,-106.75 872.5,-138.75"/>
<text xml:space="preserve" text-anchor="start" x="692.75" y="-125.25" font-family="Helvetica,sans-Serif" font-size="10.00">editeurpanovisu.EditeurPanovisu.ajoute</text>
<text xml:space="preserve" text-anchor="middle" x="778.62" y="-113.25" font-family="Helvetica,sans-Serif" font-size="10.00">FichierHisto</text>
</a>
</g>
</g>
<!-- Node9&#45;&gt;Node10 -->
<g id="edge12_Node000009_Node000010" class="edge">
<title>Node9&#45;&gt;Node10</title>
<g id="a_edge12_Node000009_Node000010"><a xlink:title=" ">
<path fill="none" stroke="#63b8ff" d="M900.98,-95.5C880.49,-98.88 859.59,-102.63 841.05,-106.28"/>
<polygon fill="#63b8ff" stroke="#63b8ff" points="901.51,-98.97 910.82,-93.91 900.39,-92.06 901.51,-98.97"/>
</a>
</g>
</g>
<!-- Node10&#45;&gt;Node7 -->
<g id="edge15_Node000010_Node000007" class="edge">
<title>Node10&#45;&gt;Node7</title>
<g id="a_edge15_Node000010_Node000007"><a xlink:title=" ">
<path fill="none" stroke="#63b8ff" d="M883.88,-124.19C947.41,-127.11 1029.76,-134.54 1100.75,-152.75 1137.77,-162.25 1177.65,-180.72 1204.14,-194.28"/>
<polygon fill="#63b8ff" stroke="#63b8ff" points="884.3,-120.71 874.16,-123.78 884,-127.7 884.3,-120.71"/>
</a>
</g>
</g>
<!-- Node10&#45;&gt;Node8 -->
<g id="edge13_Node000010_Node000008" class="edge">
<title>Node10&#45;&gt;Node8</title>
<g id="a_edge13_Node000010_Node000008"><a xlink:title=" ">
<path fill="none" stroke="#63b8ff" d="M672.9,-134.4C663.54,-135.44 654.1,-136.49 644.86,-137.52"/>
<polygon fill="#63b8ff" stroke="#63b8ff" points="673.21,-137.89 682.76,-133.31 672.43,-130.93 673.21,-137.89"/>
</a>
</g>
</g>
<!-- Node10&#45;&gt;Node9 -->
<g id="edge14_Node000010_Node000009" class="edge">
<title>Node10&#45;&gt;Node9</title>
<g id="a_edge14_Node000010_Node000009"><a xlink:title=" ">
<path fill="none" stroke="#63b8ff" d="M883.8,-111.88C904.04,-108.53 924.65,-104.83 942.96,-101.23"/>
<polygon fill="#63b8ff" stroke="#63b8ff" points="883.4,-108.39 874.09,-113.45 884.53,-115.3 883.4,-108.39"/>
</a>
</g>
</g>
<!-- Node10&#45;&gt;Node11 -->
<g id="edge16_Node000010_Node000011" class="edge">
<title>Node10&#45;&gt;Node11</title>
<g id="a_edge16_Node000010_Node000011"><a xlink:title=" ">
<path fill="none" stroke="#63b8ff" d="M721.98,-102.45C683.78,-88.51 633.73,-70.25 598.01,-57.22"/>
<polygon fill="#63b8ff" stroke="#63b8ff" points="720.4,-105.6 730.99,-105.74 722.8,-99.02 720.4,-105.6"/>
</a>
</g>
</g>
<!-- Node11&#45;&gt;Node4 -->
<g id="edge17_Node000011_Node000004" class="edge">
<title>Node11&#45;&gt;Node4</title>
<g id="a_edge17_Node000011_Node000004"><a xlink:title=" ">
<path fill="none" stroke="#63b8ff" d="M482.17,-60.78C473.43,-63.85 464.68,-67.2 456.5,-70.75 410.67,-90.66 360.29,-121.45 335.29,-137.4"/>
<polygon fill="#63b8ff" stroke="#63b8ff" points="483.02,-64.18 491.36,-57.65 480.77,-57.56 483.02,-64.18"/>
</a>
</g>
</g>
<!-- Node12&#45;&gt;Node4 -->
<g id="edge20_Node000012_Node000004" class="edge">
<title>Node12&#45;&gt;Node4</title>
<g id="a_edge20_Node000012_Node000004"><a xlink:title=" ">
<path fill="none" stroke="#63b8ff" d="M671.53,-393.56C605.28,-394.13 520.69,-385.46 456.5,-346.75 379.25,-300.17 335.04,-191.47 322.86,-157.85"/>
<polygon fill="#63b8ff" stroke="#63b8ff" points="671.38,-397.07 681.32,-393.4 671.27,-390.07 671.38,-397.07"/>
</a>
</g>
</g>
<!-- Node13&#45;&gt;Node4 -->
<g id="edge22_Node000013_Node000004" class="edge">
<title>Node13&#45;&gt;Node4</title>
<g id="a_edge22_Node000013_Node000004"><a xlink:title=" ">
<path fill="none" stroke="#63b8ff" d="M898.05,-206.88C787.42,-202.03 609.32,-191.92 456.5,-172.75 427.45,-169.11 395.22,-163.33 369.32,-158.24"/>
<polygon fill="#63b8ff" stroke="#63b8ff" points="897.89,-210.38 908.03,-207.31 898.19,-203.38 897.89,-210.38"/>
</a>
</g>
</g>
<!-- Node13&#45;&gt;Node14 -->
<g id="edge23_Node000013_Node000014" class="edge">
<title>Node13&#45;&gt;Node14</title>
<g id="a_edge23_Node000013_Node000014"><a xlink:title=" ">
<path fill="none" stroke="#63b8ff" d="M924.42,-230.63C919.51,-232.25 914.67,-233.96 910,-235.75 867.72,-252 821.2,-278.05 796.78,-292.41"/>
<polygon fill="#63b8ff" stroke="#63b8ff" points="925.34,-234.01 933.82,-227.66 923.23,-227.33 925.34,-234.01"/>
</a>
</g>
</g>
<!-- Node14&#45;&gt;Node3 -->
<g id="edge24_Node000014_Node000003" class="edge">
<title>Node14&#45;&gt;Node3</title>
<g id="a_edge24_Node000014_Node000003"><a xlink:title=" ">
<path fill="none" stroke="#63b8ff" d="M676.6,-311.29C666.98,-312.11 657.24,-312.93 647.68,-313.74"/>
<polygon fill="#63b8ff" stroke="#63b8ff" points="676.65,-314.8 686.32,-310.47 676.06,-307.83 676.65,-314.8"/>
</a>
</g>
</g>
</g>
</svg>

<g id="navigator" transform="translate(0 0)" fill="#404254">
  <rect fill="#f2f5e9" fill-opacity="0.5" stroke="#606060" stroke-width=".5" x="0" y="0" width="60" height="60"/>
  <use id="zoomplus" xlink:href="#zoomPlus" x="17" y="9" onmousedown="handleZoom(evt,'in')"/>
  <use id="zoomminus" xlink:href="#zoomMin" x="42" y="9" onmousedown="handleZoom(evt,'out')"/>
  <use id="reset" xlink:href="#resetDef" x="30" y="36" onmousedown="handleReset()"/>
   <use id="arrowup" xlink:href="#arrowUp" x="0" y="0" onmousedown="handlePan(0,-1)"/>
  <use id="arrowright" xlink:href="#arrowRight" x="0" y="0" onmousedown="handlePan(1,0)"/>
  <use id="arrowdown" xlink:href="#arrowDown" x="0" y="0" onmousedown="handlePan(0,1)"/>
  <use id="arrowleft" xlink:href="#arrowLeft" x="0" y="0" onmousedown="handlePan(-1,0)"/>
</g>
<svg viewBox="0 0 15 15" width="100%" height="30px" preserveAspectRatio="xMaxYMin meet">
 <g id="arrow_out" transform="scale(0.3 0.3)">
  <a xlink:href="classediteurpanovisu_1_1ImageEditeurHTML_ac5a2cb097e8ab585f6ba88a54d50de29_icgraph_org.svg" target="_base">
   <rect id="button" ry="5" rx="5" y="6" x="6" height="38" width="38"
        fill="#f2f5e9" fill-opacity="0.5" stroke="#606060" stroke-width="1.0"/>
   <path id="arrow"
     d="M 11.500037,31.436501 C 11.940474,20.09759 22.043105,11.32322 32.158766,21.979434 L 37.068811,17.246167 C 37.068811,17.246167 37.088388,32 37.088388,32 L 22.160133,31.978069 C 22.160133,31.978069 26.997745,27.140456 26.997745,27.140456 C 18.528582,18.264221 13.291696,25.230495 11.500037,31.436501 z"
     style="fill:#404040;"/>
  </a>
 </g>
</svg>

<style type='text/css'>
<![CDATA[
[data-mouse-over-selected='false'] { opacity: 0.7; }
[data-mouse-over-selected='true']  { opacity: 1.0; }
]]>
</style>
<script type="application/ecmascript"><![CDATA[
document.addEventListener('DOMContentLoaded', (event) => {
  highlightEdges();
  highlightAdjacentNodes();
});
]]></script>
</svg>
