<?xml version="1.0" encoding="UTF-8" standalone="no"?>
<!DOCTYPE svg PUBLIC "-//W3C//DTD SVG 1.1//EN"
 "http://www.w3.org/Graphics/SVG/1.1/DTD/svg11.dtd">
<!-- Generated by graphviz version 13.1.2 (20250808.2320)
 -->
<!-- Title: editeurpanovisu.EditeurPanovisu.getStrBingAPIKey Pages: 1 -->
<svg width="866pt" height="180pt"
 viewBox="0.00 0.00 866.00 180.00" xmlns="http://www.w3.org/2000/svg" xmlns:xlink="http://www.w3.org/1999/xlink">
<g id="graph0" class="graph" transform="scale(1 1) rotate(0) translate(4 175.8)">
<title>editeurpanovisu.EditeurPanovisu.getStrBingAPIKey</title>
<!-- Node1 -->
<g id="Node000001" class="node">
<title>Node1</title>
<g id="a_Node000001"><a xlink:title=" ">
<polygon fill="#999999" stroke="#666666" points="858.25,-117 683.25,-117 683.25,-85 858.25,-85 858.25,-117"/>
<text xml:space="preserve" text-anchor="start" x="691.25" y="-103.5" font-family="Helvetica,sans-Serif" font-size="10.00">editeurpanovisu.EditeurPanovisu.get</text>
<text xml:space="preserve" text-anchor="middle" x="770.75" y="-91.5" font-family="Helvetica,sans-Serif" font-size="10.00">StrBingAPIKey</text>
</a>
</g>
</g>
<!-- Node2 -->
<g id="Node000002" class="node">
<title>Node2</title>
<g id="a_Node000002"><a xlink:href="classediteurpanovisu_1_1EditeurPanovisu.html#a86c393eee88f54c694db994ddd85b90d" target="_top" xlink:title=" ">
<polygon fill="white" stroke="#666666" points="180.25,-165 0,-165 0,-133 180.25,-133 180.25,-165"/>
<text xml:space="preserve" text-anchor="start" x="8" y="-151.5" font-family="Helvetica,sans-Serif" font-size="10.00">editeurpanovisu.EditeurPanovisu.cree</text>
<text xml:space="preserve" text-anchor="middle" x="90.12" y="-139.5" font-family="Helvetica,sans-Serif" font-size="10.00">Environnement</text>
</a>
</g>
</g>
<!-- Node1&#45;&gt;Node2 -->
<g id="edge1_Node000001_Node000002" class="edge">
<title>Node1&#45;&gt;Node2</title>
<g id="a_edge1_Node000001_Node000002"><a xlink:title=" ">
<path fill="none" stroke="#63b8ff" d="M728.89,-122.34C705.65,-133.28 675.59,-145.44 647.25,-151 485,-182.84 290.96,-171.18 180.27,-159.98"/>
<polygon fill="#63b8ff" stroke="#63b8ff" points="730.22,-125.59 737.7,-118.09 727.17,-119.29 730.22,-125.59"/>
</a>
</g>
</g>
<!-- Node3 -->
<g id="Node000003" class="node">
<title>Node3</title>
<g id="a_Node000003"><a xlink:href="classediteurpanovisu_1_1EditeurPanovisu.html#a94e36b9e9d09ab1a4c852b8a8cefa927" target="_top" xlink:title=" ">
<polygon fill="white" stroke="#666666" points="647.25,-142 456.5,-142 456.5,-110 647.25,-110 647.25,-142"/>
<text xml:space="preserve" text-anchor="start" x="464.5" y="-128.5" font-family="Helvetica,sans-Serif" font-size="10.00">editeurpanovisu.EditeurPanovisu.genere</text>
<text xml:space="preserve" text-anchor="middle" x="551.88" y="-116.5" font-family="Helvetica,sans-Serif" font-size="10.00">Visite</text>
</a>
</g>
</g>
<!-- Node1&#45;&gt;Node3 -->
<g id="edge2_Node000001_Node000003" class="edge">
<title>Node1&#45;&gt;Node3</title>
<g id="a_edge2_Node000001_Node000003"><a xlink:title=" ">
<path fill="none" stroke="#63b8ff" d="M671.6,-112.31C663.65,-113.23 655.61,-114.16 647.68,-115.07"/>
<polygon fill="#63b8ff" stroke="#63b8ff" points="671.75,-115.82 681.28,-111.2 670.95,-108.87 671.75,-115.82"/>
</a>
</g>
</g>
<!-- Node5 -->
<g id="Node000005" class="node">
<title>Node5</title>
<g id="a_Node000005"><a xlink:href="classediteurpanovisu_1_1NavigateurOpenLayers.html#a3a6dc2db0ee3eacba379c83d31c17903" target="_top" xlink:title=" ">
<polygon fill="white" stroke="#666666" points="625.88,-92 477.88,-92 477.88,-60 625.88,-60 625.88,-92"/>
<text xml:space="preserve" text-anchor="start" x="485.88" y="-78.5" font-family="Helvetica,sans-Serif" font-size="10.00">editeurpanovisu.Navigateur</text>
<text xml:space="preserve" text-anchor="middle" x="551.88" y="-66.5" font-family="Helvetica,sans-Serif" font-size="10.00">OpenLayers.valideBingApiKey</text>
</a>
</g>
</g>
<!-- Node1&#45;&gt;Node5 -->
<g id="edge5_Node000001_Node000005" class="edge">
<title>Node1&#45;&gt;Node5</title>
<g id="a_edge5_Node000001_Node000005"><a xlink:title=" ">
<path fill="none" stroke="#63b8ff" d="M671.73,-89.7C656.44,-87.94 640.88,-86.14 626.26,-84.46"/>
<polygon fill="#63b8ff" stroke="#63b8ff" points="670.95,-93.13 681.28,-90.8 671.75,-86.18 670.95,-93.13"/>
</a>
</g>
</g>
<!-- Node7 -->
<g id="Node000007" class="node">
<title>Node7</title>
<g id="a_Node000007"><a xlink:href="classediteurpanovisu_1_1NavigateurOpenLayersSeul.html#a90af8f534bb74bfb718faa9c50193d76" target="_top" xlink:title=" ">
<polygon fill="white" stroke="#666666" points="635.62,-41 468.12,-41 468.12,-9 635.62,-9 635.62,-41"/>
<text xml:space="preserve" text-anchor="start" x="476.12" y="-27.5" font-family="Helvetica,sans-Serif" font-size="10.00">editeurpanovisu.Navigateur</text>
<text xml:space="preserve" text-anchor="middle" x="551.88" y="-15.5" font-family="Helvetica,sans-Serif" font-size="10.00">OpenLayersSeul.valideBingApiKey</text>
</a>
</g>
</g>
<!-- Node1&#45;&gt;Node7 -->
<g id="edge7_Node000001_Node000007" class="edge">
<title>Node1&#45;&gt;Node7</title>
<g id="a_edge7_Node000001_Node000007"><a xlink:title=" ">
<path fill="none" stroke="#63b8ff" d="M722.36,-80.12C699.84,-70.6 672.4,-59.56 647.25,-51 637.44,-47.66 626.94,-44.43 616.65,-41.46"/>
<polygon fill="#63b8ff" stroke="#63b8ff" points="720.69,-83.22 731.26,-83.92 723.44,-76.78 720.69,-83.22"/>
</a>
</g>
</g>
<!-- Node4 -->
<g id="Node000004" class="node">
<title>Node4</title>
<g id="a_Node000004"><a xlink:href="classediteurpanovisu_1_1EditeurPanovisu.html#ac912b80c1f2ac97def60ff005c5c480b" target="_top" xlink:title=" ">
<polygon fill="white" stroke="#666666" points="420.5,-139 216.25,-139 216.25,-119 420.5,-119 420.5,-139"/>
<text xml:space="preserve" text-anchor="middle" x="318.38" y="-125.5" font-family="Helvetica,sans-Serif" font-size="10.00">editeurpanovisu.EditeurPanovisu.creeMenu</text>
</a>
</g>
</g>
<!-- Node3&#45;&gt;Node4 -->
<g id="edge3_Node000003_Node000004" class="edge">
<title>Node3&#45;&gt;Node4</title>
<g id="a_edge3_Node000003_Node000004"><a xlink:title=" ">
<path fill="none" stroke="#63b8ff" d="M444.54,-127.38C436.64,-127.48 428.69,-127.58 420.83,-127.69"/>
<polygon fill="#63b8ff" stroke="#63b8ff" points="444.58,-130.88 454.53,-127.25 444.49,-123.88 444.58,-130.88"/>
</a>
</g>
</g>
<!-- Node4&#45;&gt;Node2 -->
<g id="edge4_Node000004_Node000002" class="edge">
<title>Node4&#45;&gt;Node2</title>
<g id="a_edge4_Node000004_Node000002"><a xlink:title=" ">
<path fill="none" stroke="#63b8ff" d="M204.51,-138.98C196.49,-139.69 188.46,-140.4 180.6,-141.09"/>
<polygon fill="#63b8ff" stroke="#63b8ff" points="204.67,-142.48 214.32,-138.11 204.05,-135.5 204.67,-142.48"/>
</a>
</g>
</g>
<!-- Node6 -->
<g id="Node000006" class="node">
<title>Node6</title>
<g id="a_Node000006"><a xlink:href="classediteurpanovisu_1_1NavigateurOpenLayers.html#af404b0c40f1be6ee0fa9f05525606813" target="_top" xlink:title=" ">
<polygon fill="white" stroke="#666666" points="415.62,-94 221.12,-94 221.12,-62 415.62,-62 415.62,-94"/>
<text xml:space="preserve" text-anchor="start" x="229.12" y="-80.5" font-family="Helvetica,sans-Serif" font-size="10.00">editeurpanovisu.Navigateur</text>
<text xml:space="preserve" text-anchor="middle" x="318.38" y="-68.5" font-family="Helvetica,sans-Serif" font-size="10.00">OpenLayers.afficheNavigateurOpenLayer</text>
</a>
</g>
</g>
<!-- Node5&#45;&gt;Node6 -->
<g id="edge6_Node000005_Node000006" class="edge">
<title>Node5&#45;&gt;Node6</title>
<g id="a_edge6_Node000005_Node000006"><a xlink:title=" ">
<path fill="none" stroke="#63b8ff" d="M466.42,-76.73C449.99,-76.87 432.66,-77.02 415.88,-77.17"/>
<polygon fill="#63b8ff" stroke="#63b8ff" points="466.14,-80.23 476.11,-76.65 466.08,-73.23 466.14,-80.23"/>
</a>
</g>
</g>
<!-- Node8 -->
<g id="Node000008" class="node">
<title>Node8</title>
<g id="a_Node000008"><a xlink:href="classediteurpanovisu_1_1NavigateurOpenLayersSeul.html#a86413462bed95fc61c68740e91499c5c" target="_top" xlink:title=" ">
<polygon fill="white" stroke="#666666" points="401.75,-44 235,-44 235,0 401.75,0 401.75,-44"/>
<text xml:space="preserve" text-anchor="start" x="243" y="-30.5" font-family="Helvetica,sans-Serif" font-size="10.00">editeurpanovisu.Navigateur</text>
<text xml:space="preserve" text-anchor="start" x="243" y="-18.5" font-family="Helvetica,sans-Serif" font-size="10.00">OpenLayersSeul.afficheNavigateur</text>
<text xml:space="preserve" text-anchor="middle" x="318.38" y="-6.5" font-family="Helvetica,sans-Serif" font-size="10.00">OpenLayer</text>
</a>
</g>
</g>
<!-- Node7&#45;&gt;Node8 -->
<g id="edge8_Node000007_Node000008" class="edge">
<title>Node7&#45;&gt;Node8</title>
<g id="a_edge8_Node000007_Node000008"><a xlink:title=" ">
<path fill="none" stroke="#63b8ff" d="M456.21,-23.77C438.2,-23.54 419.48,-23.3 401.89,-23.07"/>
<polygon fill="#63b8ff" stroke="#63b8ff" points="456.07,-27.27 466.11,-23.9 456.16,-20.27 456.07,-27.27"/>
</a>
</g>
</g>
</g>
</svg>
