<?xml version="1.0" encoding="UTF-8" standalone="no"?>
<!DOCTYPE svg PUBLIC "-//W3C//DTD SVG 1.1//EN"
 "http://www.w3.org/Graphics/SVG/1.1/DTD/svg11.dtd">
<!-- Generated by graphviz version 13.1.2 (20250808.2320)
 -->
<!-- Title: editeurpanovisu.VisualiseurImagesPanoramiques.affiche Pages: 1 -->
<svg width="357pt" height="378pt"
 viewBox="0.00 0.00 357.00 378.00" xmlns="http://www.w3.org/2000/svg" xmlns:xlink="http://www.w3.org/1999/xlink">

<svg id="main" version="1.1" xmlns="http://www.w3.org/2000/svg" xmlns:xlink="http://www.w3.org/1999/xlink" xml:space="preserve">

<style type="text/css"><![CDATA[
.node, .edge {opacity: 0.7;}
.node.selected, .edge.selected {opacity: 1;}
.edge:hover path { stroke: red; }
.edge:hover polygon { stroke: red; fill: red; }
]]></style>
<script type="application/ecmascript" xlink:href="svg.min.js"/>
<svg id="graph" class="graph">
<g id="graph0" class="graph" transform="scale(1 1) rotate(0) translate(4 374)">
<title>editeurpanovisu.VisualiseurImagesPanoramiques.affiche</title>
<!-- Node1 -->
<g id="Node000001" class="node">
<title>Node1</title>
<g id="a_Node000001"><a xlink:title=" ">
<polygon fill="#999999" stroke="#666666" points="142,-198 0,-198 0,-166 142,-166 142,-198"/>
<text xml:space="preserve" text-anchor="start" x="8" y="-184.5" font-family="Helvetica,sans-Serif" font-size="10.00">editeurpanovisu.Visualiseur</text>
<text xml:space="preserve" text-anchor="middle" x="71" y="-172.5" font-family="Helvetica,sans-Serif" font-size="10.00">ImagesPanoramiques.affiche</text>
</a>
</g>
</g>
<!-- Node2 -->
<g id="Node000002" class="node">
<title>Node2</title>
<g id="a_Node000002"><a xlink:href="classediteurpanovisu_1_1VisualiseurImagesPanoramiques.html#aa95ab25a985dad8304937c37beabb783" target="_top" xlink:title=" ">
<polygon fill="white" stroke="#666666" points="335,-370 191.5,-370 191.5,-338 335,-338 335,-370"/>
<text xml:space="preserve" text-anchor="start" x="199.5" y="-356.5" font-family="Helvetica,sans-Serif" font-size="10.00">editeurpanovisu.Visualiseur</text>
<text xml:space="preserve" text-anchor="middle" x="263.25" y="-344.5" font-family="Helvetica,sans-Serif" font-size="10.00">ImagesPanoramiques.getFov</text>
</a>
</g>
</g>
<!-- Node1&#45;&gt;Node2 -->
<g id="edge1_Node000001_Node000002" class="edge">
<title>Node1&#45;&gt;Node2</title>
<g id="a_edge1_Node000001_Node000002"><a xlink:title=" ">
<path fill="none" stroke="#63b8ff" d="M79.33,-198.41C93.74,-228.83 128.74,-294.03 178,-329 179.58,-330.12 181.22,-331.2 182.89,-332.22"/>
<polygon fill="#63b8ff" stroke="#63b8ff" points="181.08,-335.22 191.54,-336.87 184.39,-329.06 181.08,-335.22"/>
</a>
</g>
</g>
<!-- Node3 -->
<g id="Node000003" class="node">
<title>Node3</title>
<g id="a_Node000003"><a xlink:href="classediteurpanovisu_1_1VisualiseurImagesPanoramiques.html#a6c1acd11c080458742050411512348eb" target="_top" xlink:title=" ">
<polygon fill="white" stroke="#666666" points="344,-320 182.5,-320 182.5,-288 344,-288 344,-320"/>
<text xml:space="preserve" text-anchor="start" x="190.5" y="-306.5" font-family="Helvetica,sans-Serif" font-size="10.00">editeurpanovisu.Visualiseur</text>
<text xml:space="preserve" text-anchor="middle" x="263.25" y="-294.5" font-family="Helvetica,sans-Serif" font-size="10.00">ImagesPanoramiques.getLatitude</text>
</a>
</g>
</g>
<!-- Node1&#45;&gt;Node3 -->
<g id="edge2_Node000001_Node000003" class="edge">
<title>Node1&#45;&gt;Node3</title>
<g id="a_edge2_Node000001_Node000003"><a xlink:title=" ">
<path fill="none" stroke="#63b8ff" d="M85.39,-198.16C104.01,-219.64 139.79,-257.38 178,-279 180.5,-280.41 183.08,-281.75 185.73,-283.02"/>
<polygon fill="#63b8ff" stroke="#63b8ff" points="184.24,-286.19 194.8,-286.98 187.04,-279.78 184.24,-286.19"/>
</a>
</g>
</g>
<!-- Node4 -->
<g id="Node000004" class="node">
<title>Node4</title>
<g id="a_Node000004"><a xlink:href="classediteurpanovisu_1_1VisualiseurImagesPanoramiques.html#adfe67f1c122d4d9f5a103eb72024a4b1" target="_top" xlink:title=" ">
<polygon fill="white" stroke="#666666" points="347.75,-270 178.75,-270 178.75,-238 347.75,-238 347.75,-270"/>
<text xml:space="preserve" text-anchor="start" x="186.75" y="-256.5" font-family="Helvetica,sans-Serif" font-size="10.00">editeurpanovisu.Visualiseur</text>
<text xml:space="preserve" text-anchor="middle" x="263.25" y="-244.5" font-family="Helvetica,sans-Serif" font-size="10.00">ImagesPanoramiques.getLongitude</text>
</a>
</g>
</g>
<!-- Node1&#45;&gt;Node4 -->
<g id="edge3_Node000001_Node000004" class="edge">
<title>Node1&#45;&gt;Node4</title>
<g id="a_edge3_Node000001_Node000004"><a xlink:title=" ">
<path fill="none" stroke="#63b8ff" d="M105.91,-198.38C126.49,-207.98 153.44,-219.96 178,-229 182.72,-230.74 187.62,-232.44 192.57,-234.09"/>
<polygon fill="#63b8ff" stroke="#63b8ff" points="191.43,-237.4 202.02,-237.15 193.59,-230.74 191.43,-237.4"/>
</a>
</g>
</g>
<!-- Node5 -->
<g id="Node000005" class="node">
<title>Node5</title>
<g id="a_Node000005"><a xlink:href="classediteurpanovisu_1_1VisualiseurImagesPanoramiques.html#aeb16c431c90e4ca28c1cb3e78bb2b660" target="_top" xlink:title=" ">
<polygon fill="white" stroke="#666666" points="348.5,-220 178,-220 178,-188 348.5,-188 348.5,-220"/>
<text xml:space="preserve" text-anchor="start" x="186" y="-206.5" font-family="Helvetica,sans-Serif" font-size="10.00">editeurpanovisu.Visualiseur</text>
<text xml:space="preserve" text-anchor="middle" x="263.25" y="-194.5" font-family="Helvetica,sans-Serif" font-size="10.00">ImagesPanoramiques.getPositNord</text>
</a>
</g>
</g>
<!-- Node1&#45;&gt;Node5 -->
<g id="edge4_Node000001_Node000005" class="edge">
<title>Node1&#45;&gt;Node5</title>
<g id="a_edge4_Node000001_Node000005"><a xlink:title=" ">
<path fill="none" stroke="#63b8ff" d="M142.3,-190.13C150.14,-191.04 158.23,-191.97 166.32,-192.91"/>
<polygon fill="#63b8ff" stroke="#63b8ff" points="165.9,-196.38 176.24,-194.05 166.7,-189.43 165.9,-196.38"/>
</a>
</g>
</g>
<!-- Node6 -->
<g id="Node000006" class="node">
<title>Node6</title>
<g id="a_Node000006"><a xlink:href="leaflet_8js.html#a73aff07b65d7c0b09ccf6b4c4f1b7a9d" target="_top" xlink:title=" ">
<polygon fill="white" stroke="#666666" points="277.65,-170 248.85,-170 248.85,-150 277.65,-150 277.65,-170"/>
<text xml:space="preserve" text-anchor="middle" x="263.25" y="-156.5" font-family="Helvetica,sans-Serif" font-size="10.00">i</text>
</a>
</g>
</g>
<!-- Node1&#45;&gt;Node6 -->
<g id="edge5_Node000001_Node000006" class="edge">
<title>Node1&#45;&gt;Node6</title>
<g id="a_edge5_Node000001_Node000006"><a xlink:title=" ">
<path fill="none" stroke="#63b8ff" d="M142.3,-173.87C175.47,-170.03 212.97,-165.7 237.08,-162.91"/>
<polygon fill="#63b8ff" stroke="#63b8ff" points="237.33,-166.4 246.86,-161.78 236.53,-159.45 237.33,-166.4"/>
</a>
</g>
</g>
<!-- Node7 -->
<g id="Node000007" class="node">
<title>Node7</title>
<g id="a_Node000007"><a xlink:href="classediteurpanovisu_1_1VisualiseurImagesPanoramiques.html#a5c6a218b15a3592d9b52f42f4882558b" target="_top" xlink:title=" ">
<polygon fill="white" stroke="#666666" points="335,-132 191.5,-132 191.5,-100 335,-100 335,-132"/>
<text xml:space="preserve" text-anchor="start" x="199.5" y="-118.5" font-family="Helvetica,sans-Serif" font-size="10.00">editeurpanovisu.Visualiseur</text>
<text xml:space="preserve" text-anchor="middle" x="263.25" y="-106.5" font-family="Helvetica,sans-Serif" font-size="10.00">ImagesPanoramiques.setFov</text>
</a>
</g>
</g>
<!-- Node1&#45;&gt;Node7 -->
<g id="edge6_Node000001_Node000007" class="edge">
<title>Node1&#45;&gt;Node7</title>
<g id="a_edge6_Node000001_Node000007"><a xlink:title=" ">
<path fill="none" stroke="#63b8ff" d="M112.24,-165.56C131.93,-157.74 156.06,-148.49 178,-141 183.06,-139.27 188.31,-137.55 193.61,-135.87"/>
<polygon fill="#63b8ff" stroke="#63b8ff" points="194.55,-139.24 203.05,-132.92 192.46,-132.56 194.55,-139.24"/>
</a>
</g>
</g>
<!-- Node8 -->
<g id="Node000008" class="node">
<title>Node8</title>
<g id="a_Node000008"><a xlink:href="classediteurpanovisu_1_1VisualiseurImagesPanoramiques.html#ab4e2810835b113765e326dfee46ddf34" target="_top" xlink:title=" ">
<polygon fill="white" stroke="#666666" points="344,-82 182.5,-82 182.5,-50 344,-50 344,-82"/>
<text xml:space="preserve" text-anchor="start" x="190.5" y="-68.5" font-family="Helvetica,sans-Serif" font-size="10.00">editeurpanovisu.Visualiseur</text>
<text xml:space="preserve" text-anchor="middle" x="263.25" y="-56.5" font-family="Helvetica,sans-Serif" font-size="10.00">ImagesPanoramiques.setLatitude</text>
</a>
</g>
</g>
<!-- Node1&#45;&gt;Node8 -->
<g id="edge7_Node000001_Node000008" class="edge">
<title>Node1&#45;&gt;Node8</title>
<g id="a_edge7_Node000001_Node000008"><a xlink:title=" ">
<path fill="none" stroke="#63b8ff" d="M86.58,-165.84C105.7,-145.58 141.16,-111.08 178,-91 180.67,-89.54 183.44,-88.16 186.27,-86.86"/>
<polygon fill="#63b8ff" stroke="#63b8ff" points="187.5,-90.14 195.34,-83.02 184.77,-83.69 187.5,-90.14"/>
</a>
</g>
</g>
<!-- Node9 -->
<g id="Node000009" class="node">
<title>Node9</title>
<g id="a_Node000009"><a xlink:href="classediteurpanovisu_1_1VisualiseurImagesPanoramiques.html#a4288d1a78e4aa8b02a5cf2f684d7cab6" target="_top" xlink:title=" ">
<polygon fill="white" stroke="#666666" points="347.75,-32 178.75,-32 178.75,0 347.75,0 347.75,-32"/>
<text xml:space="preserve" text-anchor="start" x="186.75" y="-18.5" font-family="Helvetica,sans-Serif" font-size="10.00">editeurpanovisu.Visualiseur</text>
<text xml:space="preserve" text-anchor="middle" x="263.25" y="-6.5" font-family="Helvetica,sans-Serif" font-size="10.00">ImagesPanoramiques.setLongitude</text>
</a>
</g>
</g>
<!-- Node1&#45;&gt;Node9 -->
<g id="edge8_Node000001_Node000009" class="edge">
<title>Node1&#45;&gt;Node9</title>
<g id="a_edge8_Node000001_Node000009"><a xlink:title=" ">
<path fill="none" stroke="#63b8ff" d="M79.74,-165.8C94.6,-136.44 129.97,-74.38 178,-41 179.79,-39.76 181.63,-38.58 183.53,-37.46"/>
<polygon fill="#63b8ff" stroke="#63b8ff" points="184.79,-40.75 192.03,-33.01 181.55,-34.54 184.79,-40.75"/>
</a>
</g>
</g>
</g>
</svg>
</svg>

<style type='text/css'>
<![CDATA[
[data-mouse-over-selected='false'] { opacity: 0.7; }
[data-mouse-over-selected='true']  { opacity: 1.0; }
]]>
</style>
<script type="application/ecmascript"><![CDATA[
document.addEventListener('DOMContentLoaded', (event) => {
  highlightEdges();
  highlightAdjacentNodes();
});
]]></script>
</svg>
