<?xml version="1.0" encoding="UTF-8" standalone="no"?>
<!DOCTYPE svg PUBLIC "-//W3C//DTD SVG 1.1//EN"
 "http://www.w3.org/Graphics/SVG/1.1/DTD/svg11.dtd">
<!-- Generated by graphviz version 13.1.2 (20250808.2320)
 -->
<!-- Title: editeurpanovisu.EditeurPanovisu.setAfficheLoupe Pages: 1 -->
<svg width="1791pt" height="200pt"
 viewBox="0.00 0.00 1791.00 200.00" xmlns="http://www.w3.org/2000/svg" xmlns:xlink="http://www.w3.org/1999/xlink">
<g id="graph0" class="graph" transform="scale(1 1) rotate(0) translate(4 196)">
<title>editeurpanovisu.EditeurPanovisu.setAfficheLoupe</title>
<!-- Node1 -->
<g id="Node000001" class="node">
<title>Node1</title>
<g id="a_Node000001"><a xlink:title=" ">
<polygon fill="#999999" stroke="#666666" points="1782.5,-164 1607.5,-164 1607.5,-132 1782.5,-132 1782.5,-164"/>
<text xml:space="preserve" text-anchor="start" x="1615.5" y="-150.5" font-family="Helvetica,sans-Serif" font-size="10.00">editeurpanovisu.EditeurPanovisu.set</text>
<text xml:space="preserve" text-anchor="middle" x="1695" y="-138.5" font-family="Helvetica,sans-Serif" font-size="10.00">AfficheLoupe</text>
</a>
</g>
</g>
<!-- Node2 -->
<g id="Node000002" class="node">
<title>Node2</title>
<g id="a_Node000002"><a xlink:href="classediteurpanovisu_1_1EditeurPanovisu.html#ac912b80c1f2ac97def60ff005c5c480b" target="_top" xlink:title=" ">
<polygon fill="white" stroke="#666666" points="420.5,-92 216.25,-92 216.25,-72 420.5,-72 420.5,-92"/>
<text xml:space="preserve" text-anchor="middle" x="318.38" y="-78.5" font-family="Helvetica,sans-Serif" font-size="10.00">editeurpanovisu.EditeurPanovisu.creeMenu</text>
</a>
</g>
</g>
<!-- Node1&#45;&gt;Node2 -->
<g id="edge1_Node000001_Node000002" class="edge">
<title>Node1&#45;&gt;Node2</title>
<g id="a_edge1_Node000001_Node000002"><a xlink:title=" ">
<path fill="none" stroke="#63b8ff" d="M1595.79,-163.57C1507.36,-176.23 1373.7,-192 1256.75,-192 1256.75,-192 1256.75,-192 793.38,-192 618.29,-192 416.03,-119.91 345.35,-92.45"/>
<polygon fill="#63b8ff" stroke="#63b8ff" points="1596.26,-167.04 1605.65,-162.14 1595.25,-160.11 1596.26,-167.04"/>
</a>
</g>
</g>
<!-- Node4 -->
<g id="Node000004" class="node">
<title>Node4</title>
<g id="a_Node000004"><a xlink:href="classediteurpanovisu_1_1EditeurPanovisu.html#ac1d46d9722513b0aa795855d9c077a2b" target="_top" xlink:title=" ">
<polygon fill="white" stroke="#666666" points="1571.5,-120 1379.25,-120 1379.25,-88 1571.5,-88 1571.5,-120"/>
<text xml:space="preserve" text-anchor="start" x="1387.25" y="-106.5" font-family="Helvetica,sans-Serif" font-size="10.00">editeurpanovisu.EditeurPanovisu.installe</text>
<text xml:space="preserve" text-anchor="middle" x="1475.38" y="-94.5" font-family="Helvetica,sans-Serif" font-size="10.00">Evenements</text>
</a>
</g>
</g>
<!-- Node1&#45;&gt;Node4 -->
<g id="edge3_Node000001_Node000004" class="edge">
<title>Node1&#45;&gt;Node4</title>
<g id="a_edge3_Node000001_Node000004"><a xlink:title=" ">
<path fill="none" stroke="#63b8ff" d="M1601.65,-129.33C1587.14,-126.4 1572.23,-123.38 1557.98,-120.5"/>
<polygon fill="#63b8ff" stroke="#63b8ff" points="1600.68,-132.7 1611.17,-131.25 1602.06,-125.84 1600.68,-132.7"/>
</a>
</g>
</g>
<!-- Node10 -->
<g id="Node000010" class="node">
<title>Node10</title>
<g id="a_Node000010"><a xlink:href="classediteurpanovisu_1_1EditeurPanovisu.html#a6d5fd7170b4fe9e54f3606c9ce90a56a" target="_top" xlink:title=" ">
<polygon fill="white" stroke="#666666" points="1341.38,-164 1170.12,-164 1170.12,-132 1341.38,-132 1341.38,-164"/>
<text xml:space="preserve" text-anchor="start" x="1178.12" y="-150.5" font-family="Helvetica,sans-Serif" font-size="10.00">editeurpanovisu.EditeurPanovisu.lis</text>
<text xml:space="preserve" text-anchor="middle" x="1255.75" y="-138.5" font-family="Helvetica,sans-Serif" font-size="10.00">Preferences</text>
</a>
</g>
</g>
<!-- Node1&#45;&gt;Node10 -->
<g id="edge13_Node000001_Node000010" class="edge">
<title>Node1&#45;&gt;Node10</title>
<g id="a_edge13_Node000001_Node000010"><a xlink:title=" ">
<path fill="none" stroke="#63b8ff" d="M1596.03,-148C1519.6,-148 1414.52,-148 1341.63,-148"/>
<polygon fill="#63b8ff" stroke="#63b8ff" points="1595.58,-151.5 1605.58,-148 1595.58,-144.5 1595.58,-151.5"/>
</a>
</g>
</g>
<!-- Node3 -->
<g id="Node000003" class="node">
<title>Node3</title>
<g id="a_Node000003"><a xlink:href="classediteurpanovisu_1_1EditeurPanovisu.html#a86c393eee88f54c694db994ddd85b90d" target="_top" xlink:title=" ">
<polygon fill="white" stroke="#666666" points="180.25,-98 0,-98 0,-66 180.25,-66 180.25,-98"/>
<text xml:space="preserve" text-anchor="start" x="8" y="-84.5" font-family="Helvetica,sans-Serif" font-size="10.00">editeurpanovisu.EditeurPanovisu.cree</text>
<text xml:space="preserve" text-anchor="middle" x="90.12" y="-72.5" font-family="Helvetica,sans-Serif" font-size="10.00">Environnement</text>
</a>
</g>
</g>
<!-- Node2&#45;&gt;Node3 -->
<g id="edge2_Node000002_Node000003" class="edge">
<title>Node2&#45;&gt;Node3</title>
<g id="a_edge2_Node000002_Node000003"><a xlink:title=" ">
<path fill="none" stroke="#63b8ff" d="M204.51,-82C196.49,-82 188.46,-82 180.6,-82"/>
<polygon fill="#63b8ff" stroke="#63b8ff" points="204.32,-85.5 214.32,-82 204.32,-78.5 204.32,-85.5"/>
</a>
</g>
</g>
<!-- Node5 -->
<g id="Node000005" class="node">
<title>Node5</title>
<g id="a_Node000005"><a xlink:href="classediteurpanovisu_1_1EditeurPanovisu.html#a2b3125ffe2e6291efacf19df6cb30a8d" target="_top" xlink:title=" ">
<polygon fill="white" stroke="#666666" points="884.88,-114 703.88,-114 703.88,-94 884.88,-94 884.88,-114"/>
<text xml:space="preserve" text-anchor="middle" x="794.38" y="-100.5" font-family="Helvetica,sans-Serif" font-size="10.00">editeurpanovisu.EditeurPanovisu.start</text>
</a>
</g>
</g>
<!-- Node4&#45;&gt;Node5 -->
<g id="edge4_Node000004_Node000005" class="edge">
<title>Node4&#45;&gt;Node5</title>
<g id="a_edge4_Node000004_Node000005"><a xlink:title=" ">
<path fill="none" stroke="#63b8ff" d="M1367.5,-104C1234.48,-104 1009.68,-104 885.16,-104"/>
<polygon fill="#63b8ff" stroke="#63b8ff" points="1367.38,-107.5 1377.38,-104 1367.38,-100.5 1367.38,-107.5"/>
</a>
</g>
</g>
<!-- Node7 -->
<g id="Node000007" class="node">
<title>Node7</title>
<g id="a_Node000007"><a xlink:href="classediteurpanovisu_1_1EditeurPanovisu.html#a53cccf6a6b2693c872947460b66ae8ee" target="_top" xlink:title=" ">
<polygon fill="white" stroke="#666666" points="1343.25,-76 1168.25,-76 1168.25,-44 1343.25,-44 1343.25,-76"/>
<text xml:space="preserve" text-anchor="start" x="1176.25" y="-62.5" font-family="Helvetica,sans-Serif" font-size="10.00">editeurpanovisu.EditeurPanovisu.tsk</text>
<text xml:space="preserve" text-anchor="middle" x="1255.75" y="-50.5" font-family="Helvetica,sans-Serif" font-size="10.00">ChargeListeFichiers</text>
</a>
</g>
</g>
<!-- Node4&#45;&gt;Node7 -->
<g id="edge7_Node000004_Node000007" class="edge">
<title>Node4&#45;&gt;Node7</title>
<g id="a_edge7_Node000004_Node000007"><a xlink:title=" ">
<path fill="none" stroke="#63b8ff" d="M1382.03,-85.33C1367.52,-82.4 1352.61,-79.38 1338.36,-76.5"/>
<polygon fill="#63b8ff" stroke="#63b8ff" points="1381.05,-88.7 1391.55,-87.25 1382.44,-81.84 1381.05,-88.7"/>
</a>
</g>
</g>
<!-- Node6 -->
<g id="Node000006" class="node">
<title>Node6</title>
<g id="a_Node000006"><a xlink:href="classediteurpanovisu_1_1EditeurPanovisu.html#a94e36b9e9d09ab1a4c852b8a8cefa927" target="_top" xlink:title=" ">
<polygon fill="white" stroke="#666666" points="647.25,-120 456.5,-120 456.5,-88 647.25,-88 647.25,-120"/>
<text xml:space="preserve" text-anchor="start" x="464.5" y="-106.5" font-family="Helvetica,sans-Serif" font-size="10.00">editeurpanovisu.EditeurPanovisu.genere</text>
<text xml:space="preserve" text-anchor="middle" x="551.88" y="-94.5" font-family="Helvetica,sans-Serif" font-size="10.00">Visite</text>
</a>
</g>
</g>
<!-- Node5&#45;&gt;Node6 -->
<g id="edge5_Node000005_Node000006" class="edge">
<title>Node5&#45;&gt;Node6</title>
<g id="a_edge5_Node000005_Node000006"><a xlink:title=" ">
<path fill="none" stroke="#63b8ff" d="M692.23,-104C677.4,-104 662.18,-104 647.49,-104"/>
<polygon fill="#63b8ff" stroke="#63b8ff" points="691.97,-107.5 701.97,-104 691.97,-100.5 691.97,-107.5"/>
</a>
</g>
</g>
<!-- Node6&#45;&gt;Node2 -->
<g id="edge6_Node000006_Node000002" class="edge">
<title>Node6&#45;&gt;Node2</title>
<g id="a_edge6_Node000006_Node000002"><a xlink:title=" ">
<path fill="none" stroke="#63b8ff" d="M444.81,-93.92C436.83,-93.16 428.78,-92.4 420.83,-91.64"/>
<polygon fill="#63b8ff" stroke="#63b8ff" points="444.25,-97.38 454.54,-94.85 444.92,-90.41 444.25,-97.38"/>
</a>
</g>
</g>
<!-- Node8 -->
<g id="Node000008" class="node">
<title>Node8</title>
<g id="a_Node000008"><a xlink:href="classediteurpanovisu_1_1EditeurPanovisu.html#a924d3ccff3e4f402d2309cd2eade3237" target="_top" xlink:title=" ">
<polygon fill="white" stroke="#666666" points="905.5,-32 683.25,-32 683.25,0 905.5,0 905.5,-32"/>
<text xml:space="preserve" text-anchor="start" x="691.25" y="-18.5" font-family="Helvetica,sans-Serif" font-size="10.00">editeurpanovisu.EditeurPanovisu.panoramiques</text>
<text xml:space="preserve" text-anchor="middle" x="794.38" y="-6.5" font-family="Helvetica,sans-Serif" font-size="10.00">Ajouter</text>
</a>
</g>
</g>
<!-- Node7&#45;&gt;Node8 -->
<g id="edge8_Node000007_Node000008" class="edge">
<title>Node7&#45;&gt;Node8</title>
<g id="a_edge8_Node000007_Node000008"><a xlink:title=" ">
<path fill="none" stroke="#63b8ff" d="M1171.84,-41.39C1158.65,-38.92 1145.12,-36.67 1132.25,-35 1057.02,-25.25 971.7,-20.51 905.74,-18.19"/>
<polygon fill="#63b8ff" stroke="#63b8ff" points="1170.85,-44.76 1181.33,-43.22 1172.18,-37.89 1170.85,-44.76"/>
</a>
</g>
</g>
<!-- Node9 -->
<g id="Node000009" class="node">
<title>Node9</title>
<g id="a_Node000009"><a xlink:href="classediteurpanovisu_1_1EditeurPanovisu.html#ac9d449399ccd38843fa12e716f0c9611" target="_top" xlink:title=" ">
<polygon fill="white" stroke="#666666" points="1132.25,-76 941.5,-76 941.5,-44 1132.25,-44 1132.25,-76"/>
<text xml:space="preserve" text-anchor="start" x="949.5" y="-62.5" font-family="Helvetica,sans-Serif" font-size="10.00">editeurpanovisu.EditeurPanovisu.projets</text>
<text xml:space="preserve" text-anchor="middle" x="1036.88" y="-50.5" font-family="Helvetica,sans-Serif" font-size="10.00">Nouveau</text>
</a>
</g>
</g>
<!-- Node7&#45;&gt;Node9 -->
<g id="edge10_Node000007_Node000009" class="edge">
<title>Node7&#45;&gt;Node9</title>
<g id="a_edge10_Node000007_Node000009"><a xlink:title=" ">
<path fill="none" stroke="#63b8ff" d="M1156.33,-60C1148.46,-60 1140.52,-60 1132.68,-60"/>
<polygon fill="#63b8ff" stroke="#63b8ff" points="1156.27,-63.5 1166.27,-60 1156.27,-56.5 1156.27,-63.5"/>
</a>
</g>
</g>
<!-- Node8&#45;&gt;Node2 -->
<g id="edge9_Node000008_Node000002" class="edge">
<title>Node8&#45;&gt;Node2</title>
<g id="a_edge9_Node000008_Node000002"><a xlink:title=" ">
<path fill="none" stroke="#63b8ff" d="M671.37,-21.91C607.1,-26.27 527.16,-33.67 456.5,-46 420.61,-52.26 380.39,-63.32 352.84,-71.53"/>
<polygon fill="#63b8ff" stroke="#63b8ff" points="671.51,-25.41 681.26,-21.26 671.05,-18.43 671.51,-25.41"/>
</a>
</g>
</g>
<!-- Node9&#45;&gt;Node2 -->
<g id="edge11_Node000009_Node000002" class="edge">
<title>Node9&#45;&gt;Node2</title>
<g id="a_edge11_Node000009_Node000002"><a xlink:title=" ">
<path fill="none" stroke="#63b8ff" d="M929.78,-63.26C792.67,-67.47 555.61,-74.75 420.82,-78.89"/>
<polygon fill="#63b8ff" stroke="#63b8ff" points="929.7,-66.76 939.59,-62.96 929.48,-59.77 929.7,-66.76"/>
</a>
</g>
</g>
<!-- Node9&#45;&gt;Node5 -->
<g id="edge12_Node000009_Node000005" class="edge">
<title>Node9&#45;&gt;Node5</title>
<g id="a_edge12_Node000009_Node000005"><a xlink:title=" ">
<path fill="none" stroke="#63b8ff" d="M934.9,-78.47C906.84,-83.61 877.35,-89 852.75,-93.5"/>
<polygon fill="#63b8ff" stroke="#63b8ff" points="935.28,-81.96 944.49,-76.72 934.02,-75.08 935.28,-81.96"/>
</a>
</g>
</g>
<!-- Node10&#45;&gt;Node5 -->
<g id="edge14_Node000010_Node000005" class="edge">
<title>Node10&#45;&gt;Node5</title>
<g id="a_edge14_Node000010_Node000005"><a xlink:title=" ">
<path fill="none" stroke="#63b8ff" d="M1158.34,-138.77C1096.39,-132.84 1014.2,-124.96 941.5,-118 923.23,-116.25 903.68,-114.38 885.02,-112.59"/>
<polygon fill="#63b8ff" stroke="#63b8ff" points="1157.87,-142.24 1168.15,-139.71 1158.53,-135.27 1157.87,-142.24"/>
</a>
</g>
</g>
</g>
</svg>
