<?xml version="1.0" encoding="UTF-8" standalone="no"?>
<!DOCTYPE svg PUBLIC "-//W3C//DTD SVG 1.1//EN"
 "http://www.w3.org/Graphics/SVG/1.1/DTD/svg11.dtd">
<!-- Generated by graphviz version 13.1.2 (20250808.2320)
 -->
<!-- Title: editeurpanovisu.GestionnaireInterfaceController.getOffsetXBoussole Pages: 1 -->
<!--zoomable 466 -->

<svg id="main" version="1.1" xmlns="http://www.w3.org/2000/svg" xmlns:xlink="http://www.w3.org/1999/xlink" xml:space="preserve" onload="init(evt)">

<style type="text/css"><![CDATA[
.node, .edge {opacity: 0.7;}
.node.selected, .edge.selected {opacity: 1;}
.edge:hover path { stroke: red; }
.edge:hover polygon { stroke: red; fill: red; }
]]></style>

<defs>
  <circle id="rim" cx="0" cy="0" r="7"/>
  <circle id="rim2" cx="0" cy="0" r="3.5"/>
  <g id="zoomPlus">
    <use xlink:href="#rim" fill="#404040"><set attributeName="fill" to="#808080" begin="zoomplus.mouseover" end="zoomplus.mouseout"/></use>
    <path d="M-4,0h8M0,-4v8" fill="none" stroke="white" stroke-width="1.5" pointer-events="none"/>
  </g>
  <g id="zoomMin">
    <use xlink:href="#rim" fill="#404040"><set attributeName="fill" to="#808080" begin="zoomminus.mouseover" end="zoomminus.mouseout"/></use>
    <path d="M-4,0h8" fill="none" stroke="white" stroke-width="1.5" pointer-events="none"/>
  </g>
  <g id="arrowUp" transform="translate(30 24)">
    <use xlink:href="#rim"/>
    <path pointer-events="none" fill="none" stroke="white" stroke-width="1.5" d="M0,-3.0v7 M-2.5,-0.5L0,-3.0L2.5,-0.5"/>
  </g>
  <g id="arrowRight" transform="rotate(90) translate(36 -43)">
    <use xlink:href="#rim"/>
    <path pointer-events="none" fill="none" stroke="white" stroke-width="1.5" d="M0,-3.0v7 M-2.5,-0.5L0,-3.0L2.5,-0.5"/>
  </g>
  <g id="arrowDown" transform="rotate(180) translate(-30 -48)">
    <use xlink:href="#rim"/>
    <path pointer-events="none" fill="none" stroke="white" stroke-width="1.5" d="M0,-3.0v7 M-2.5,-0.5L0,-3.0L2.5,-0.5"/>
  </g>
  <g id="arrowLeft" transform="rotate(270) translate(-36 17)">
    <use xlink:href="#rim"/>
    <path pointer-events="none" fill="none" stroke="white" stroke-width="1.5" d="M0,-3.0v7 M-2.5,-0.5L0,-3.0L2.5,-0.5"/>
  </g>
  <g id="resetDef">
    <use xlink:href="#rim2" fill="#404040"><set attributeName="fill" to="#808080" begin="reset.mouseover" end="reset.mouseout"/></use>
  </g>
</defs>
<script type="application/ecmascript">
var viewWidth = 2649;
var viewHeight = 466;
var sectionId = 'dynsection-115';
</script>
<script type="application/ecmascript" xlink:href="svg.min.js"/>
<svg id="graph" class="graph">
<g id="viewport">
<title>editeurpanovisu.GestionnaireInterfaceController.getOffsetXBoussole</title>
<!-- Node1 -->
<g id="Node000001" class="node">
<title>Node1</title>
<g id="a_Node000001"><a xlink:title=" ">
<polygon fill="#999999" stroke="#666666" points="2640.75,-300.53 2454.5,-300.53 2454.5,-268.53 2640.75,-268.53 2640.75,-300.53"/>
<text xml:space="preserve" text-anchor="start" x="2462.5" y="-287.03" font-family="Helvetica,sans-Serif" font-size="10.00">editeurpanovisu.Gestionnaire</text>
<text xml:space="preserve" text-anchor="middle" x="2547.62" y="-275.03" font-family="Helvetica,sans-Serif" font-size="10.00">InterfaceController.getOffsetXBoussole</text>
</a>
</g>
</g>
<!-- Node2 -->
<g id="Node000002" class="node">
<title>Node2</title>
<g id="a_Node000002"><a xlink:href="classediteurpanovisu_1_1GestionnaireInterfaceController.html#a9bf72cbe87a4abaa71efdaeb48723261" target="_top" xlink:title=" ">
<polygon fill="white" stroke="#666666" points="2418.12,-300.53 2249.88,-300.53 2249.88,-268.53 2418.12,-268.53 2418.12,-300.53"/>
<text xml:space="preserve" text-anchor="start" x="2257.88" y="-287.03" font-family="Helvetica,sans-Serif" font-size="10.00">editeurpanovisu.Gestionnaire</text>
<text xml:space="preserve" text-anchor="middle" x="2334" y="-275.03" font-family="Helvetica,sans-Serif" font-size="10.00">InterfaceController.afficheBoussole</text>
</a>
</g>
</g>
<!-- Node1&#45;&gt;Node2 -->
<g id="edge1_Node000001_Node000002" class="edge">
<title>Node1&#45;&gt;Node2</title>
<g id="a_edge1_Node000001_Node000002"><a xlink:title=" ">
<path fill="none" stroke="#63b8ff" d="M2442.63,-284.53C2434.48,-284.53 2426.32,-284.53 2418.34,-284.53"/>
<polygon fill="#63b8ff" stroke="#63b8ff" points="2442.6,-288.03 2452.6,-284.53 2442.6,-281.03 2442.6,-288.03"/>
</a>
</g>
</g>
<!-- Node3 -->
<g id="Node000003" class="node">
<title>Node3</title>
<g id="a_Node000003"><a xlink:href="classediteurpanovisu_1_1GestionnaireInterfaceController.html#a55c8afda208674955a13d48d02be41b8" target="_top" xlink:title=" ">
<polygon fill="white" stroke="#666666" points="2213.5,-348.53 2046,-348.53 2046,-316.53 2213.5,-316.53 2213.5,-348.53"/>
<text xml:space="preserve" text-anchor="start" x="2054" y="-335.03" font-family="Helvetica,sans-Serif" font-size="10.00">editeurpanovisu.Gestionnaire</text>
<text xml:space="preserve" text-anchor="middle" x="2129.75" y="-323.03" font-family="Helvetica,sans-Serif" font-size="10.00">InterfaceController.afficheTemplate</text>
</a>
</g>
</g>
<!-- Node1&#45;&gt;Node3 -->
<g id="edge35_Node000001_Node000003" class="edge">
<title>Node1&#45;&gt;Node3</title>
<g id="a_edge35_Node000001_Node000003"><a xlink:title=" ">
<path fill="none" stroke="#63b8ff" d="M2458.49,-303.08C2445.13,-305.5 2431.48,-307.75 2418.5,-309.53 2349.86,-318.94 2271.43,-324.89 2213.81,-328.38"/>
<polygon fill="#63b8ff" stroke="#63b8ff" points="2458.94,-306.55 2468.13,-301.29 2457.66,-299.67 2458.94,-306.55"/>
</a>
</g>
</g>
<!-- Node11 -->
<g id="Node000011" class="node">
<title>Node11</title>
<g id="a_Node000011"><a xlink:href="classediteurpanovisu_1_1EditeurPanovisu.html#a94e36b9e9d09ab1a4c852b8a8cefa927" target="_top" xlink:title=" ">
<polygon fill="white" stroke="#666666" points="663,-221.53 472.25,-221.53 472.25,-189.53 663,-189.53 663,-221.53"/>
<text xml:space="preserve" text-anchor="start" x="480.25" y="-208.03" font-family="Helvetica,sans-Serif" font-size="10.00">editeurpanovisu.EditeurPanovisu.genere</text>
<text xml:space="preserve" text-anchor="middle" x="567.62" y="-196.03" font-family="Helvetica,sans-Serif" font-size="10.00">Visite</text>
</a>
</g>
</g>
<!-- Node1&#45;&gt;Node11 -->
<g id="edge42_Node000001_Node000011" class="edge">
<title>Node1&#45;&gt;Node11</title>
<g id="a_edge42_Node000001_Node000011"><a xlink:title=" ">
<path fill="none" stroke="#63b8ff" d="M2515.87,-307.3C2449.31,-354.27 2285.41,-457.53 2130.75,-457.53 2130.75,-457.53 2130.75,-457.53 1260,-457.53 1116.2,-457.53 1077.57,-447.05 941.5,-400.53 802.22,-352.9 651.18,-259.44 593.19,-221.8"/>
<polygon fill="#63b8ff" stroke="#63b8ff" points="2517.64,-310.34 2523.74,-301.68 2513.57,-304.65 2517.64,-310.34"/>
</a>
</g>
</g>
<!-- Node21 -->
<g id="Node000021" class="node">
<title>Node21</title>
<g id="a_Node000021"><a xlink:href="classediteurpanovisu_1_1GestionnaireInterfaceController.html#a5bdd1505c1ad1eee506c2618c9368994" target="_top" xlink:title=" ">
<polygon fill="white" stroke="#666666" points="2418.5,-250.53 2249.5,-250.53 2249.5,-218.53 2418.5,-218.53 2418.5,-250.53"/>
<text xml:space="preserve" text-anchor="start" x="2257.5" y="-237.03" font-family="Helvetica,sans-Serif" font-size="10.00">editeurpanovisu.Gestionnaire</text>
<text xml:space="preserve" text-anchor="middle" x="2334" y="-225.03" font-family="Helvetica,sans-Serif" font-size="10.00">InterfaceController.afficheVignettes</text>
</a>
</g>
</g>
<!-- Node1&#45;&gt;Node21 -->
<g id="edge36_Node000001_Node000021" class="edge">
<title>Node1&#45;&gt;Node21</title>
<g id="a_edge36_Node000001_Node000021"><a xlink:title=" ">
<path fill="none" stroke="#63b8ff" d="M2465.97,-265.47C2445.76,-260.69 2424.25,-255.61 2404.63,-250.98"/>
<polygon fill="#63b8ff" stroke="#63b8ff" points="2465.03,-268.84 2475.56,-267.74 2466.64,-262.03 2465.03,-268.84"/>
</a>
</g>
</g>
<!-- Node23 -->
<g id="Node000023" class="node">
<title>Node23</title>
<g id="a_Node000023"><a xlink:href="classediteurpanovisu_1_1GestionnaireInterfaceController.html#ab66509c63a85a8285a081b24049e8774" target="_top" xlink:title=" ">
<polygon fill="white" stroke="#666666" points="2417,-164.53 2251,-164.53 2251,-132.53 2417,-132.53 2417,-164.53"/>
<text xml:space="preserve" text-anchor="start" x="2259" y="-151.03" font-family="Helvetica,sans-Serif" font-size="10.00">editeurpanovisu.Gestionnaire</text>
<text xml:space="preserve" text-anchor="middle" x="2334" y="-139.03" font-family="Helvetica,sans-Serif" font-size="10.00">InterfaceController.strGetTemplate</text>
</a>
</g>
</g>
<!-- Node1&#45;&gt;Node23 -->
<g id="edge43_Node000001_Node000023" class="edge">
<title>Node1&#45;&gt;Node23</title>
<g id="a_edge43_Node000001_Node000023"><a xlink:title=" ">
<path fill="none" stroke="#63b8ff" d="M2511.44,-261.91C2468.9,-234.57 2398.33,-189.22 2360.62,-164.99"/>
<polygon fill="#63b8ff" stroke="#63b8ff" points="2509.52,-264.84 2519.82,-267.3 2513.3,-258.95 2509.52,-264.84"/>
</a>
</g>
</g>
<!-- Node2&#45;&gt;Node3 -->
<g id="edge2_Node000002_Node000003" class="edge">
<title>Node2&#45;&gt;Node3</title>
<g id="a_edge2_Node000002_Node000003"><a xlink:title=" ">
<path fill="none" stroke="#63b8ff" d="M2252.91,-303.53C2235.41,-307.69 2217.02,-312.05 2199.98,-316.1"/>
<polygon fill="#63b8ff" stroke="#63b8ff" points="2253.29,-307.04 2262.21,-301.33 2251.67,-300.23 2253.29,-307.04"/>
</a>
</g>
</g>
<!-- Node17 -->
<g id="Node000017" class="node">
<title>Node17</title>
<g id="a_Node000017"><a xlink:href="classediteurpanovisu_1_1GestionnaireInterfaceController.html#ac7fa988dc99d8684686127a2269cd66e" target="_top" xlink:title=" ">
<polygon fill="white" stroke="#666666" points="2000.62,-216.53 1844.38,-216.53 1844.38,-184.53 2000.62,-184.53 2000.62,-216.53"/>
<text xml:space="preserve" text-anchor="start" x="1852.38" y="-203.03" font-family="Helvetica,sans-Serif" font-size="10.00">editeurpanovisu.Gestionnaire</text>
<text xml:space="preserve" text-anchor="middle" x="1922.5" y="-191.03" font-family="Helvetica,sans-Serif" font-size="10.00">InterfaceController.creeInterface</text>
</a>
</g>
</g>
<!-- Node2&#45;&gt;Node17 -->
<g id="edge28_Node000002_Node000017" class="edge">
<title>Node2&#45;&gt;Node17</title>
<g id="a_edge28_Node000002_Node000017"><a xlink:title=" ">
<path fill="none" stroke="#63b8ff" d="M2250.79,-265.63C2238.31,-262.86 2225.57,-260.08 2213.5,-257.53 2203.04,-255.32 2083.16,-231.8 2000.85,-215.67"/>
<polygon fill="#63b8ff" stroke="#63b8ff" points="2249.67,-268.97 2260.19,-267.73 2251.19,-262.14 2249.67,-268.97"/>
</a>
</g>
</g>
<!-- Node18 -->
<g id="Node000018" class="node">
<title>Node18</title>
<g id="a_Node000018"><a xlink:href="classediteurpanovisu_1_1GestionnaireInterfaceController.html#a568c34e865fb653f63b8fa7a9a9cafc8" target="_top" xlink:title=" ">
<polygon fill="white" stroke="#666666" points="2200.75,-298.53 2058.75,-298.53 2058.75,-266.53 2200.75,-266.53 2200.75,-298.53"/>
<text xml:space="preserve" text-anchor="start" x="2066.75" y="-285.03" font-family="Helvetica,sans-Serif" font-size="10.00">editeurpanovisu.Gestionnaire</text>
<text xml:space="preserve" text-anchor="middle" x="2129.75" y="-273.03" font-family="Helvetica,sans-Serif" font-size="10.00">InterfaceController.rafraichit</text>
</a>
</g>
</g>
<!-- Node2&#45;&gt;Node18 -->
<g id="edge29_Node000002_Node000018" class="edge">
<title>Node2&#45;&gt;Node18</title>
<g id="a_edge29_Node000002_Node000018"><a xlink:title=" ">
<path fill="none" stroke="#63b8ff" d="M2238.17,-283.59C2225.69,-283.47 2213.08,-283.34 2201.11,-283.22"/>
<polygon fill="#63b8ff" stroke="#63b8ff" points="2238.02,-287.09 2248.06,-283.69 2238.09,-280.09 2238.02,-287.09"/>
</a>
</g>
</g>
<!-- Node4 -->
<g id="Node000004" class="node">
<title>Node4</title>
<g id="a_Node000004"><a xlink:href="classediteurpanovisu_1_1EditeurPanovisu.html#a87b29dc258cfc67370b1f27809e91b8e" target="_top" xlink:title=" ">
<polygon fill="white" stroke="#666666" points="2010,-348.53 1835,-348.53 1835,-316.53 2010,-316.53 2010,-348.53"/>
<text xml:space="preserve" text-anchor="start" x="1843" y="-335.03" font-family="Helvetica,sans-Serif" font-size="10.00">editeurpanovisu.EditeurPanovisu.tsk</text>
<text xml:space="preserve" text-anchor="middle" x="1922.5" y="-323.03" font-family="Helvetica,sans-Serif" font-size="10.00">AnalyseFichierPVU</text>
</a>
</g>
</g>
<!-- Node3&#45;&gt;Node4 -->
<g id="edge3_Node000003_Node000004" class="edge">
<title>Node3&#45;&gt;Node4</title>
<g id="a_edge3_Node000003_Node000004"><a xlink:title=" ">
<path fill="none" stroke="#63b8ff" d="M2034.1,-332.53C2026.23,-332.53 2018.29,-332.53 2010.48,-332.53"/>
<polygon fill="#63b8ff" stroke="#63b8ff" points="2034.05,-336.03 2044.05,-332.53 2034.05,-329.03 2034.05,-336.03"/>
</a>
</g>
</g>
<!-- Node5 -->
<g id="Node000005" class="node">
<title>Node5</title>
<g id="a_Node000005"><a xlink:href="classediteurpanovisu_1_1EditeurPanovisu.html#ab4beb1597b660a4a253befc6e76f1c54" target="_top" xlink:title=" ">
<polygon fill="white" stroke="#666666" points="1129.62,-391.53 944.12,-391.53 944.12,-359.53 1129.62,-359.53 1129.62,-391.53"/>
<text xml:space="preserve" text-anchor="start" x="952.12" y="-378.03" font-family="Helvetica,sans-Serif" font-size="10.00">editeurpanovisu.EditeurPanovisu.projet</text>
<text xml:space="preserve" text-anchor="middle" x="1036.88" y="-366.03" font-family="Helvetica,sans-Serif" font-size="10.00">Charge</text>
</a>
</g>
</g>
<!-- Node4&#45;&gt;Node5 -->
<g id="edge4_Node000004_Node000005" class="edge">
<title>Node4&#45;&gt;Node5</title>
<g id="a_edge4_Node000004_Node000005"><a xlink:title=" ">
<path fill="none" stroke="#63b8ff" d="M1840.86,-351.1C1826.96,-353.69 1812.62,-355.99 1799,-357.53 1558.81,-384.66 1273.38,-382.21 1129.91,-378.6"/>
<polygon fill="#63b8ff" stroke="#63b8ff" points="1841.24,-354.59 1850.39,-349.25 1839.91,-347.72 1841.24,-354.59"/>
</a>
</g>
</g>
<!-- Node8 -->
<g id="Node000008" class="node">
<title>Node8</title>
<g id="a_Node000008"><a xlink:href="classediteurpanovisu_1_1EditeurPanovisu.html#a6d19b4d885ee6fcec827b91956295732" target="_top" xlink:title=" ">
<polygon fill="white" stroke="#666666" points="1799,-348.53 1613.5,-348.53 1613.5,-316.53 1799,-316.53 1799,-348.53"/>
<text xml:space="preserve" text-anchor="start" x="1621.5" y="-335.03" font-family="Helvetica,sans-Serif" font-size="10.00">editeurpanovisu.EditeurPanovisu.projet</text>
<text xml:space="preserve" text-anchor="middle" x="1706.25" y="-323.03" font-family="Helvetica,sans-Serif" font-size="10.00">ChargeNom</text>
</a>
</g>
</g>
<!-- Node4&#45;&gt;Node8 -->
<g id="edge7_Node000004_Node000008" class="edge">
<title>Node4&#45;&gt;Node8</title>
<g id="a_edge7_Node000004_Node000008"><a xlink:title=" ">
<path fill="none" stroke="#63b8ff" d="M1823.16,-332.53C1815.26,-332.53 1807.3,-332.53 1799.45,-332.53"/>
<polygon fill="#63b8ff" stroke="#63b8ff" points="1823.15,-336.03 1833.15,-332.53 1823.15,-329.03 1823.15,-336.03"/>
</a>
</g>
</g>
<!-- Node6 -->
<g id="Node000006" class="node">
<title>Node6</title>
<g id="a_Node000006"><a xlink:href="classediteurpanovisu_1_1EditeurPanovisu.html#ac912b80c1f2ac97def60ff005c5c480b" target="_top" xlink:title=" ">
<polygon fill="white" stroke="#666666" points="420.5,-237.53 216.25,-237.53 216.25,-217.53 420.5,-217.53 420.5,-237.53"/>
<text xml:space="preserve" text-anchor="middle" x="318.38" y="-224.03" font-family="Helvetica,sans-Serif" font-size="10.00">editeurpanovisu.EditeurPanovisu.creeMenu</text>
</a>
</g>
</g>
<!-- Node5&#45;&gt;Node6 -->
<g id="edge5_Node000005_Node000006" class="edge">
<title>Node5&#45;&gt;Node6</title>
<g id="a_edge5_Node000005_Node000006"><a xlink:title=" ">
<path fill="none" stroke="#63b8ff" d="M932.37,-389.73C813.03,-401.75 613.19,-408.32 456.5,-345.53 397.61,-321.93 346.28,-262.1 327.24,-237.91"/>
<polygon fill="#63b8ff" stroke="#63b8ff" points="932.58,-393.23 942.16,-388.71 931.85,-386.27 932.58,-393.23"/>
</a>
</g>
</g>
<!-- Node7 -->
<g id="Node000007" class="node">
<title>Node7</title>
<g id="a_Node000007"><a xlink:href="classediteurpanovisu_1_1EditeurPanovisu.html#a86c393eee88f54c694db994ddd85b90d" target="_top" xlink:title=" ">
<polygon fill="white" stroke="#666666" points="180.25,-243.53 0,-243.53 0,-211.53 180.25,-211.53 180.25,-243.53"/>
<text xml:space="preserve" text-anchor="start" x="8" y="-230.03" font-family="Helvetica,sans-Serif" font-size="10.00">editeurpanovisu.EditeurPanovisu.cree</text>
<text xml:space="preserve" text-anchor="middle" x="90.12" y="-218.03" font-family="Helvetica,sans-Serif" font-size="10.00">Environnement</text>
</a>
</g>
</g>
<!-- Node6&#45;&gt;Node7 -->
<g id="edge6_Node000006_Node000007" class="edge">
<title>Node6&#45;&gt;Node7</title>
<g id="a_edge6_Node000006_Node000007"><a xlink:title=" ">
<path fill="none" stroke="#63b8ff" d="M204.51,-227.53C196.49,-227.53 188.46,-227.53 180.6,-227.53"/>
<polygon fill="#63b8ff" stroke="#63b8ff" points="204.32,-231.03 214.32,-227.53 204.32,-224.03 204.32,-231.03"/>
</a>
</g>
</g>
<!-- Node8&#45;&gt;Node6 -->
<g id="edge27_Node000008_Node000006" class="edge">
<title>Node8&#45;&gt;Node6</title>
<g id="a_edge27_Node000008_Node000006"><a xlink:title=" ">
<path fill="none" stroke="#63b8ff" d="M1602.03,-347.81C1487.52,-364.05 1297.14,-388.95 1132.25,-400.53 1031.7,-407.59 1006.3,-404.42 905.5,-405.53 820.73,-406.46 799.45,-409.13 714.75,-405.53 599.66,-400.63 559.34,-435.42 456.5,-383.53 389.22,-349.57 340.4,-267.08 324.74,-237.94"/>
<polygon fill="#63b8ff" stroke="#63b8ff" points="1602.31,-351.3 1611.71,-346.43 1601.32,-344.37 1602.31,-351.3"/>
</a>
</g>
</g>
<!-- Node9 -->
<g id="Node000009" class="node">
<title>Node9</title>
<g id="a_Node000009"><a xlink:href="classediteurpanovisu_1_1EditeurPanovisu.html#af0d1c32bb78acbff561c822a0d15f760" target="_top" xlink:title=" ">
<polygon fill="white" stroke="#666666" points="1577.5,-304.53 1389.75,-304.53 1389.75,-272.53 1577.5,-272.53 1577.5,-304.53"/>
<text xml:space="preserve" text-anchor="start" x="1397.75" y="-291.03" font-family="Helvetica,sans-Serif" font-size="10.00">editeurpanovisu.EditeurPanovisu.ajoute</text>
<text xml:space="preserve" text-anchor="middle" x="1483.62" y="-279.03" font-family="Helvetica,sans-Serif" font-size="10.00">FichierHisto</text>
</a>
</g>
</g>
<!-- Node8&#45;&gt;Node9 -->
<g id="edge8_Node000008_Node000009" class="edge">
<title>Node8&#45;&gt;Node9</title>
<g id="a_edge8_Node000008_Node000009"><a xlink:title=" ">
<path fill="none" stroke="#63b8ff" d="M1641.09,-313.54C1621.31,-309.09 1599.12,-304.5 1577.8,-300.43"/>
<polygon fill="#63b8ff" stroke="#63b8ff" points="1640.12,-316.9 1650.65,-315.73 1641.68,-310.08 1640.12,-316.9"/>
</a>
</g>
</g>
<!-- Node9&#45;&gt;Node5 -->
<g id="edge9_Node000009_Node000005" class="edge">
<title>Node9&#45;&gt;Node5</title>
<g id="a_edge9_Node000009_Node000005"><a xlink:title=" ">
<path fill="none" stroke="#63b8ff" d="M1387.55,-307.13C1308.73,-322.54 1197.74,-344.26 1122.09,-359.05"/>
<polygon fill="#63b8ff" stroke="#63b8ff" points="1387.82,-310.64 1396.96,-305.28 1386.48,-303.77 1387.82,-310.64"/>
</a>
</g>
</g>
<!-- Node9&#45;&gt;Node8 -->
<g id="edge10_Node000009_Node000008" class="edge">
<title>Node9&#45;&gt;Node8</title>
<g id="a_edge10_Node000009_Node000008"><a xlink:title=" ">
<path fill="none" stroke="#63b8ff" d="M1548.89,-307.54C1569.02,-312.07 1591.64,-316.73 1613.28,-320.85"/>
<polygon fill="#63b8ff" stroke="#63b8ff" points="1549.68,-304.13 1539.15,-305.31 1548.12,-310.95 1549.68,-304.13"/>
</a>
</g>
</g>
<!-- Node10 -->
<g id="Node000010" class="node">
<title>Node10</title>
<g id="a_Node000010"><a xlink:href="classediteurpanovisu_1_1EditeurPanovisu.html#a9f3ea25b35d4884524508dab3dc4fd6a" target="_top" xlink:title=" ">
<polygon fill="white" stroke="#666666" points="1353.75,-270.53 1168.25,-270.53 1168.25,-238.53 1353.75,-238.53 1353.75,-270.53"/>
<text xml:space="preserve" text-anchor="start" x="1176.25" y="-257.03" font-family="Helvetica,sans-Serif" font-size="10.00">editeurpanovisu.EditeurPanovisu.projet</text>
<text xml:space="preserve" text-anchor="middle" x="1261" y="-245.03" font-family="Helvetica,sans-Serif" font-size="10.00">Sauve</text>
</a>
</g>
</g>
<!-- Node9&#45;&gt;Node10 -->
<g id="edge11_Node000009_Node000010" class="edge">
<title>Node9&#45;&gt;Node10</title>
<g id="a_edge11_Node000009_Node000010"><a xlink:title=" ">
<path fill="none" stroke="#63b8ff" d="M1378.13,-272.42C1370.14,-271.19 1362.11,-269.95 1354.21,-268.74"/>
<polygon fill="#63b8ff" stroke="#63b8ff" points="1377.47,-275.86 1387.88,-273.93 1378.53,-268.94 1377.47,-275.86"/>
</a>
</g>
</g>
<!-- Node16 -->
<g id="Node000016" class="node">
<title>Node16</title>
<g id="a_Node000016"><a xlink:href="classediteurpanovisu_1_1EditeurPanovisu.html#a7b2e25dc717eb52b62e23d54ec4c124a" target="_top" xlink:title=" ">
<polygon fill="white" stroke="#666666" points="1353.75,-114.53 1168.25,-114.53 1168.25,-82.53 1353.75,-82.53 1353.75,-114.53"/>
<text xml:space="preserve" text-anchor="start" x="1176.25" y="-101.03" font-family="Helvetica,sans-Serif" font-size="10.00">editeurpanovisu.EditeurPanovisu.projet</text>
<text xml:space="preserve" text-anchor="middle" x="1261" y="-89.03" font-family="Helvetica,sans-Serif" font-size="10.00">SauveSous</text>
</a>
</g>
</g>
<!-- Node9&#45;&gt;Node16 -->
<g id="edge25_Node000009_Node000016" class="edge">
<title>Node9&#45;&gt;Node16</title>
<g id="a_edge25_Node000009_Node000016"><a xlink:title=" ">
<path fill="none" stroke="#63b8ff" d="M1469.16,-262.13C1449.07,-225.42 1407.74,-159.43 1353.75,-123.53 1348.8,-120.24 1343.43,-117.38 1337.85,-114.89"/>
<polygon fill="#63b8ff" stroke="#63b8ff" points="1465.97,-263.58 1473.77,-270.75 1472.14,-260.28 1465.97,-263.58"/>
</a>
</g>
</g>
<!-- Node10&#45;&gt;Node5 -->
<g id="edge15_Node000010_Node000005" class="edge">
<title>Node10&#45;&gt;Node5</title>
<g id="a_edge15_Node000010_Node000005"><a xlink:title=" ">
<path fill="none" stroke="#63b8ff" d="M1191.3,-275.58C1183.05,-279.77 1175.12,-284.71 1168.25,-290.53 1144.51,-310.61 1157.11,-331.84 1132.25,-350.53 1127.91,-353.79 1123.19,-356.62 1118.24,-359.09"/>
<polygon fill="#63b8ff" stroke="#63b8ff" points="1192.51,-278.87 1200.1,-271.48 1189.56,-272.53 1192.51,-278.87"/>
</a>
</g>
</g>
<!-- Node10&#45;&gt;Node6 -->
<g id="edge12_Node000010_Node000006" class="edge">
<title>Node10&#45;&gt;Node6</title>
<g id="a_edge12_Node000010_Node000006"><a xlink:title=" ">
<path fill="none" stroke="#63b8ff" d="M1156.68,-264.75C1148.42,-265.41 1140.2,-266.01 1132.25,-266.53 832.48,-285.88 754.26,-292.26 456.5,-252.53 427.84,-248.7 396.05,-243 370.31,-238.01"/>
<polygon fill="#63b8ff" stroke="#63b8ff" points="1156.76,-268.26 1166.43,-263.95 1156.18,-261.28 1156.76,-268.26"/>
</a>
</g>
</g>
<!-- Node10&#45;&gt;Node8 -->
<g id="edge16_Node000010_Node000008" class="edge">
<title>Node10&#45;&gt;Node8</title>
<g id="a_edge16_Node000010_Node000008"><a xlink:title=" ">
<path fill="none" stroke="#63b8ff" d="M1299.34,-276.29C1324.11,-289.57 1357.82,-305.5 1389.75,-313.53 1463.32,-332.03 1549.44,-336.09 1613.1,-335.91"/>
<polygon fill="#63b8ff" stroke="#63b8ff" points="1301.08,-273.25 1290.63,-271.52 1297.72,-279.39 1301.08,-273.25"/>
</a>
</g>
</g>
<!-- Node10&#45;&gt;Node11 -->
<g id="edge13_Node000010_Node000011" class="edge">
<title>Node10&#45;&gt;Node11</title>
<g id="a_edge13_Node000010_Node000011"><a xlink:title=" ">
<path fill="none" stroke="#63b8ff" d="M1156.75,-245.02C1086.06,-238.7 990.15,-230.49 905.5,-224.53 823.84,-218.77 730.95,-213.64 663.42,-210.16"/>
<polygon fill="#63b8ff" stroke="#63b8ff" points="1156.09,-248.47 1166.36,-245.88 1156.72,-241.5 1156.09,-248.47"/>
</a>
</g>
</g>
<!-- Node12 -->
<g id="Node000012" class="node">
<title>Node12</title>
<g id="a_Node000012"><a xlink:href="classediteurpanovisu_1_1EditeurPanovisu.html#a9b46b222714af12c06ec33d410400773" target="_top" xlink:title=" ">
<polygon fill="white" stroke="#666666" points="905.5,-265.53 714.75,-265.53 714.75,-233.53 905.5,-233.53 905.5,-265.53"/>
<text xml:space="preserve" text-anchor="start" x="722.75" y="-252.03" font-family="Helvetica,sans-Serif" font-size="10.00">editeurpanovisu.EditeurPanovisu.projets</text>
<text xml:space="preserve" text-anchor="middle" x="810.12" y="-240.03" font-family="Helvetica,sans-Serif" font-size="10.00">Fermer</text>
</a>
</g>
</g>
<!-- Node10&#45;&gt;Node12 -->
<g id="edge17_Node000010_Node000012" class="edge">
<title>Node10&#45;&gt;Node12</title>
<g id="a_edge17_Node000010_Node000012"><a xlink:title=" ">
<path fill="none" stroke="#63b8ff" d="M1156.39,-253.37C1080.85,-252.53 979.3,-251.4 905.9,-250.58"/>
<polygon fill="#63b8ff" stroke="#63b8ff" points="1156.26,-256.87 1166.3,-253.48 1156.33,-249.87 1156.26,-256.87"/>
</a>
</g>
</g>
<!-- Node13 -->
<g id="Node000013" class="node">
<title>Node13</title>
<g id="a_Node000013"><a xlink:href="classediteurpanovisu_1_1EditeurPanovisu.html#ac9d449399ccd38843fa12e716f0c9611" target="_top" xlink:title=" ">
<polygon fill="white" stroke="#666666" points="1132.25,-139.53 941.5,-139.53 941.5,-107.53 1132.25,-107.53 1132.25,-139.53"/>
<text xml:space="preserve" text-anchor="start" x="949.5" y="-126.03" font-family="Helvetica,sans-Serif" font-size="10.00">editeurpanovisu.EditeurPanovisu.projets</text>
<text xml:space="preserve" text-anchor="middle" x="1036.88" y="-114.03" font-family="Helvetica,sans-Serif" font-size="10.00">Nouveau</text>
</a>
</g>
</g>
<!-- Node10&#45;&gt;Node13 -->
<g id="edge19_Node000010_Node000013" class="edge">
<title>Node10&#45;&gt;Node13</title>
<g id="a_edge19_Node000010_Node000013"><a xlink:title=" ">
<path fill="none" stroke="#63b8ff" d="M1235.35,-230.52C1210.94,-207.89 1171.61,-174.44 1132.25,-153.53 1122.38,-148.28 1111.44,-143.77 1100.61,-139.95"/>
<polygon fill="#63b8ff" stroke="#63b8ff" points="1232.85,-232.98 1242.53,-237.28 1237.65,-227.88 1232.85,-232.98"/>
</a>
</g>
</g>
<!-- Node14 -->
<g id="Node000014" class="node">
<title>Node14</title>
<g id="a_Node000014"><a xlink:href="classediteurpanovisu_1_1EditeurPanovisu.html#a2b3125ffe2e6291efacf19df6cb30a8d" target="_top" xlink:title=" ">
<polygon fill="white" stroke="#666666" points="900.62,-177.53 719.62,-177.53 719.62,-157.53 900.62,-157.53 900.62,-177.53"/>
<text xml:space="preserve" text-anchor="middle" x="810.12" y="-164.03" font-family="Helvetica,sans-Serif" font-size="10.00">editeurpanovisu.EditeurPanovisu.start</text>
</a>
</g>
</g>
<!-- Node10&#45;&gt;Node14 -->
<g id="edge24_Node000010_Node000014" class="edge">
<title>Node10&#45;&gt;Node14</title>
<g id="a_edge24_Node000010_Node000014"><a xlink:title=" ">
<path fill="none" stroke="#63b8ff" d="M1224.57,-232.43C1199.72,-218.11 1165.17,-200.51 1132.25,-191.53 1056.07,-170.74 966.19,-165.58 900.93,-165.14"/>
<polygon fill="#63b8ff" stroke="#63b8ff" points="1222.57,-235.31 1232.96,-237.37 1226.12,-229.28 1222.57,-235.31"/>
</a>
</g>
</g>
<!-- Node15 -->
<g id="Node000015" class="node">
<title>Node15</title>
<g id="a_Node000015"><a xlink:href="classediteurpanovisu_1_1EditeurPanovisu.html#aef8c9b28c3e88d6e27e3f62b9a901134" target="_top" xlink:title=" ">
<polygon fill="white" stroke="#666666" points="1130.75,-341.53 943,-341.53 943,-309.53 1130.75,-309.53 1130.75,-341.53"/>
<text xml:space="preserve" text-anchor="start" x="951" y="-328.03" font-family="Helvetica,sans-Serif" font-size="10.00">editeurpanovisu.EditeurPanovisu.sauve</text>
<text xml:space="preserve" text-anchor="middle" x="1036.88" y="-316.03" font-family="Helvetica,sans-Serif" font-size="10.00">Fichiers</text>
</a>
</g>
</g>
<!-- Node10&#45;&gt;Node15 -->
<g id="edge23_Node000010_Node000015" class="edge">
<title>Node10&#45;&gt;Node15</title>
<g id="a_edge23_Node000010_Node000015"><a xlink:title=" ">
<path fill="none" stroke="#63b8ff" d="M1197.77,-274.54C1176.94,-281.22 1153.6,-288.71 1132.25,-295.53 1118.49,-299.92 1103.6,-304.66 1089.8,-309.05"/>
<polygon fill="#63b8ff" stroke="#63b8ff" points="1198.84,-277.87 1207.29,-271.48 1196.7,-271.21 1198.84,-277.87"/>
</a>
</g>
</g>
<!-- Node11&#45;&gt;Node6 -->
<g id="edge14_Node000011_Node000006" class="edge">
<title>Node11&#45;&gt;Node6</title>
<g id="a_edge14_Node000011_Node000006"><a xlink:title=" ">
<path fill="none" stroke="#63b8ff" d="M460.99,-214.93C447.68,-216.11 434.09,-217.32 420.85,-218.5"/>
<polygon fill="#63b8ff" stroke="#63b8ff" points="460.93,-218.44 470.58,-214.07 460.31,-211.47 460.93,-218.44"/>
</a>
</g>
</g>
<!-- Node12&#45;&gt;Node6 -->
<g id="edge18_Node000012_Node000006" class="edge">
<title>Node12&#45;&gt;Node6</title>
<g id="a_edge18_Node000012_Node000006"><a xlink:title=" ">
<path fill="none" stroke="#63b8ff" d="M703.08,-244.76C619.42,-241.01 503.48,-235.8 420.99,-232.09"/>
<polygon fill="#63b8ff" stroke="#63b8ff" points="702.75,-248.25 712.89,-245.2 703.06,-241.26 702.75,-248.25"/>
</a>
</g>
</g>
<!-- Node13&#45;&gt;Node6 -->
<g id="edge20_Node000013_Node000006" class="edge">
<title>Node13&#45;&gt;Node6</title>
<g id="a_edge20_Node000013_Node000006"><a xlink:title=" ">
<path fill="none" stroke="#63b8ff" d="M929.65,-125.81C812.44,-130.21 618.89,-143.06 456.5,-180.53 416.53,-189.75 371.87,-206.28 344.69,-217.08"/>
<polygon fill="#63b8ff" stroke="#63b8ff" points="929.72,-129.31 939.59,-125.45 929.47,-122.32 929.72,-129.31"/>
</a>
</g>
</g>
<!-- Node13&#45;&gt;Node14 -->
<g id="edge21_Node000013_Node000014" class="edge">
<title>Node13&#45;&gt;Node14</title>
<g id="a_edge21_Node000013_Node000014"><a xlink:title=" ">
<path fill="none" stroke="#63b8ff" d="M940.81,-142.14C914.81,-147.23 887.53,-152.57 864.74,-157.03"/>
<polygon fill="#63b8ff" stroke="#63b8ff" points="941.24,-145.62 950.38,-140.26 939.9,-138.75 941.24,-145.62"/>
</a>
</g>
</g>
<!-- Node14&#45;&gt;Node11 -->
<g id="edge22_Node000014_Node000011" class="edge">
<title>Node14&#45;&gt;Node11</title>
<g id="a_edge22_Node000014_Node000011"><a xlink:title=" ">
<path fill="none" stroke="#63b8ff" d="M731.58,-179.78C709.77,-183.23 685.8,-187.01 663.12,-190.6"/>
<polygon fill="#63b8ff" stroke="#63b8ff" points="731.94,-183.27 741.28,-178.25 730.85,-176.35 731.94,-183.27"/>
</a>
</g>
</g>
<!-- Node16&#45;&gt;Node6 -->
<g id="edge26_Node000016_Node000006" class="edge">
<title>Node16&#45;&gt;Node6</title>
<g id="a_edge26_Node000016_Node000006"><a xlink:title=" ">
<path fill="none" stroke="#63b8ff" d="M1204.27,-78.64C1068.33,-33.66 712.15,62.78 456.5,-60.53 385.2,-94.91 338.28,-186.07 323.99,-217.05"/>
<polygon fill="#63b8ff" stroke="#63b8ff" points="1202.79,-81.84 1213.39,-81.7 1205.02,-75.2 1202.79,-81.84"/>
</a>
</g>
</g>
<!-- Node18&#45;&gt;Node4 -->
<g id="edge30_Node000018_Node000004" class="edge">
<title>Node18&#45;&gt;Node4</title>
<g id="a_edge30_Node000018_Node000004"><a xlink:title=" ">
<path fill="none" stroke="#63b8ff" d="M2050.25,-301.65C2030.73,-306.41 2009.97,-311.46 1991.03,-316.08"/>
<polygon fill="#63b8ff" stroke="#63b8ff" points="2050.9,-305.09 2059.79,-299.33 2049.24,-298.29 2050.9,-305.09"/>
</a>
</g>
</g>
<!-- Node19 -->
<g id="Node000019" class="node">
<title>Node19</title>
<g id="a_Node000019"><a xlink:href="classediteurpanovisu_1_1EditeurPanovisu.html#a53cccf6a6b2693c872947460b66ae8ee" target="_top" xlink:title=" ">
<polygon fill="white" stroke="#666666" points="1348.5,-164.53 1173.5,-164.53 1173.5,-132.53 1348.5,-132.53 1348.5,-164.53"/>
<text xml:space="preserve" text-anchor="start" x="1181.5" y="-151.03" font-family="Helvetica,sans-Serif" font-size="10.00">editeurpanovisu.EditeurPanovisu.tsk</text>
<text xml:space="preserve" text-anchor="middle" x="1261" y="-139.03" font-family="Helvetica,sans-Serif" font-size="10.00">ChargeListeFichiers</text>
</a>
</g>
</g>
<!-- Node18&#45;&gt;Node19 -->
<g id="edge31_Node000018_Node000019" class="edge">
<title>Node18&#45;&gt;Node19</title>
<g id="a_edge31_Node000018_Node000019"><a xlink:title=" ">
<path fill="none" stroke="#63b8ff" d="M2047.62,-269.98C1884.18,-244.72 1516.64,-187.89 1348.69,-161.93"/>
<polygon fill="#63b8ff" stroke="#63b8ff" points="2046.64,-273.37 2057.06,-271.44 2047.71,-266.46 2046.64,-273.37"/>
</a>
</g>
</g>
<!-- Node19&#45;&gt;Node13 -->
<g id="edge34_Node000019_Node000013" class="edge">
<title>Node19&#45;&gt;Node13</title>
<g id="a_edge34_Node000019_Node000013"><a xlink:title=" ">
<path fill="none" stroke="#63b8ff" d="M1161.88,-137.48C1152.2,-136.39 1142.38,-135.29 1132.73,-134.2"/>
<polygon fill="#63b8ff" stroke="#63b8ff" points="1161.33,-140.94 1171.66,-138.58 1162.12,-133.99 1161.33,-140.94"/>
</a>
</g>
</g>
<!-- Node20 -->
<g id="Node000020" class="node">
<title>Node20</title>
<g id="a_Node000020"><a xlink:href="classediteurpanovisu_1_1EditeurPanovisu.html#a924d3ccff3e4f402d2309cd2eade3237" target="_top" xlink:title=" ">
<polygon fill="white" stroke="#666666" points="678.75,-101.53 456.5,-101.53 456.5,-69.53 678.75,-69.53 678.75,-101.53"/>
<text xml:space="preserve" text-anchor="start" x="464.5" y="-88.03" font-family="Helvetica,sans-Serif" font-size="10.00">editeurpanovisu.EditeurPanovisu.panoramiques</text>
<text xml:space="preserve" text-anchor="middle" x="567.62" y="-76.03" font-family="Helvetica,sans-Serif" font-size="10.00">Ajouter</text>
</a>
</g>
</g>
<!-- Node19&#45;&gt;Node20 -->
<g id="edge32_Node000019_Node000020" class="edge">
<title>Node19&#45;&gt;Node20</title>
<g id="a_edge32_Node000019_Node000020"><a xlink:title=" ">
<path fill="none" stroke="#63b8ff" d="M1179.23,-128.22C1175.48,-126.75 1171.8,-125.18 1168.25,-123.53 1150.6,-115.29 1150.77,-104.56 1132.25,-98.53 981.14,-49.28 794.97,-57.28 679.01,-69.71"/>
<polygon fill="#63b8ff" stroke="#63b8ff" points="1177.95,-131.48 1188.54,-131.62 1180.35,-124.9 1177.95,-131.48"/>
</a>
</g>
</g>
<!-- Node20&#45;&gt;Node6 -->
<g id="edge33_Node000020_Node000006" class="edge">
<title>Node20&#45;&gt;Node6</title>
<g id="a_edge33_Node000020_Node000006"><a xlink:title=" ">
<path fill="none" stroke="#63b8ff" d="M479.1,-105.69C471.29,-108.58 463.65,-111.85 456.5,-115.53 402.39,-143.38 349.95,-195.15 328.97,-217.17"/>
<polygon fill="#63b8ff" stroke="#63b8ff" points="480.09,-109.05 488.39,-102.47 477.79,-102.44 480.09,-109.05"/>
</a>
</g>
</g>
<!-- Node21&#45;&gt;Node3 -->
<g id="edge37_Node000021_Node000003" class="edge">
<title>Node21&#45;&gt;Node3</title>
<g id="a_edge37_Node000021_Node000003"><a xlink:title=" ">
<path fill="none" stroke="#63b8ff" d="M2254.98,-256C2253.1,-257.12 2251.27,-258.29 2249.5,-259.53 2227.63,-274.78 2235.35,-292.24 2213.5,-307.53 2208.83,-310.8 2203.72,-313.64 2198.4,-316.13"/>
<polygon fill="#63b8ff" stroke="#63b8ff" points="2256.17,-259.33 2263.39,-251.58 2252.91,-253.13 2256.17,-259.33"/>
</a>
</g>
</g>
<!-- Node21&#45;&gt;Node17 -->
<g id="edge40_Node000021_Node000017" class="edge">
<title>Node21&#45;&gt;Node17</title>
<g id="a_edge40_Node000021_Node000017"><a xlink:title=" ">
<path fill="none" stroke="#63b8ff" d="M2237.87,-226.56C2229.63,-225.87 2221.42,-225.19 2213.5,-224.53 2141.51,-218.54 2059.46,-211.75 2001.05,-206.93"/>
<polygon fill="#63b8ff" stroke="#63b8ff" points="2237.34,-230.03 2247.6,-227.37 2237.92,-223.05 2237.34,-230.03"/>
</a>
</g>
</g>
<!-- Node21&#45;&gt;Node18 -->
<g id="edge41_Node000021_Node000018" class="edge">
<title>Node21&#45;&gt;Node18</title>
<g id="a_edge41_Node000021_Node000018"><a xlink:title=" ">
<path fill="none" stroke="#63b8ff" d="M2252.91,-253.53C2235.41,-257.69 2217.02,-262.05 2199.98,-266.1"/>
<polygon fill="#63b8ff" stroke="#63b8ff" points="2253.29,-257.04 2262.21,-251.33 2251.67,-250.23 2253.29,-257.04"/>
</a>
</g>
</g>
<!-- Node22 -->
<g id="Node000022" class="node">
<title>Node22</title>
<g id="a_Node000022"><a xlink:href="classediteurpanovisu_1_1GestionnaireInterfaceController.html#a8c634f775c31c1a4db22d5ef0659f7e4" target="_top" xlink:title=" ">
<polygon fill="white" stroke="#666666" points="2203.38,-172.53 2056.12,-172.53 2056.12,-140.53 2203.38,-140.53 2203.38,-172.53"/>
<text xml:space="preserve" text-anchor="start" x="2064.12" y="-159.03" font-family="Helvetica,sans-Serif" font-size="10.00">editeurpanovisu.Gestionnaire</text>
<text xml:space="preserve" text-anchor="middle" x="2129.75" y="-147.03" font-family="Helvetica,sans-Serif" font-size="10.00">InterfaceController.afficheTitre</text>
</a>
</g>
</g>
<!-- Node21&#45;&gt;Node22 -->
<g id="edge38_Node000021_Node000022" class="edge">
<title>Node21&#45;&gt;Node22</title>
<g id="a_edge38_Node000021_Node000022"><a xlink:title=" ">
<path fill="none" stroke="#63b8ff" d="M2282.61,-213.84C2261.34,-205.23 2236.28,-195.23 2213.5,-186.53 2201.65,-182 2188.79,-177.26 2176.81,-172.91"/>
<polygon fill="#63b8ff" stroke="#63b8ff" points="2281.04,-216.98 2291.63,-217.51 2283.68,-210.5 2281.04,-216.98"/>
</a>
</g>
</g>
<!-- Node22&#45;&gt;Node17 -->
<g id="edge39_Node000022_Node000017" class="edge">
<title>Node22&#45;&gt;Node17</title>
<g id="a_edge39_Node000022_Node000017"><a xlink:title=" ">
<path fill="none" stroke="#63b8ff" d="M2044.71,-174.54C2030.04,-177.69 2014.84,-180.95 2000.37,-184.05"/>
<polygon fill="#63b8ff" stroke="#63b8ff" points="2045.28,-178 2054.33,-172.48 2043.82,-171.15 2045.28,-178"/>
</a>
</g>
</g>
<!-- Node24 -->
<g id="Node000024" class="node">
<title>Node24</title>
<g id="a_Node000024"><a xlink:href="classediteurpanovisu_1_1EditeurPanovisu.html#aaee69ab54364f89b58458c744a4195c0" target="_top" xlink:title=" ">
<polygon fill="white" stroke="#666666" points="1577.5,-128.53 1389.75,-128.53 1389.75,-96.53 1577.5,-96.53 1577.5,-128.53"/>
<text xml:space="preserve" text-anchor="start" x="1397.75" y="-115.03" font-family="Helvetica,sans-Serif" font-size="10.00">editeurpanovisu.EditeurPanovisu.sauve</text>
<text xml:space="preserve" text-anchor="middle" x="1483.62" y="-103.03" font-family="Helvetica,sans-Serif" font-size="10.00">FichierProjet</text>
</a>
</g>
</g>
<!-- Node23&#45;&gt;Node24 -->
<g id="edge44_Node000023_Node000024" class="edge">
<title>Node23&#45;&gt;Node24</title>
<g id="a_edge44_Node000023_Node000024"><a xlink:title=" ">
<path fill="none" stroke="#63b8ff" d="M2239.17,-134.14C2230.5,-133.12 2221.85,-132.23 2213.5,-131.53 1985.66,-112.41 1716.48,-110.81 1577.72,-111.53"/>
<polygon fill="#63b8ff" stroke="#63b8ff" points="2238.68,-137.6 2249.03,-135.35 2239.53,-130.66 2238.68,-137.6"/>
</a>
</g>
</g>
<!-- Node24&#45;&gt;Node10 -->
<g id="edge45_Node000024_Node000010" class="edge">
<title>Node24&#45;&gt;Node10</title>
<g id="a_edge45_Node000024_Node000010"><a xlink:title=" ">
<path fill="none" stroke="#63b8ff" d="M1447.76,-134.97C1403.12,-163.7 1326.84,-212.79 1287.35,-238.21"/>
<polygon fill="#63b8ff" stroke="#63b8ff" points="1449.53,-137.99 1456.04,-129.64 1445.74,-132.1 1449.53,-137.99"/>
</a>
</g>
</g>
<!-- Node24&#45;&gt;Node16 -->
<g id="edge46_Node000024_Node000016" class="edge">
<title>Node24&#45;&gt;Node16</title>
<g id="a_edge46_Node000024_Node000016"><a xlink:title=" ">
<path fill="none" stroke="#63b8ff" d="M1378.13,-105.9C1370.14,-105.39 1362.11,-104.88 1354.21,-104.38"/>
<polygon fill="#63b8ff" stroke="#63b8ff" points="1377.67,-109.37 1387.87,-106.51 1378.11,-102.39 1377.67,-109.37"/>
</a>
</g>
</g>
</g>
</svg>

<g id="navigator" transform="translate(0 0)" fill="#404254">
  <rect fill="#f2f5e9" fill-opacity="0.5" stroke="#606060" stroke-width=".5" x="0" y="0" width="60" height="60"/>
  <use id="zoomplus" xlink:href="#zoomPlus" x="17" y="9" onmousedown="handleZoom(evt,'in')"/>
  <use id="zoomminus" xlink:href="#zoomMin" x="42" y="9" onmousedown="handleZoom(evt,'out')"/>
  <use id="reset" xlink:href="#resetDef" x="30" y="36" onmousedown="handleReset()"/>
   <use id="arrowup" xlink:href="#arrowUp" x="0" y="0" onmousedown="handlePan(0,-1)"/>
  <use id="arrowright" xlink:href="#arrowRight" x="0" y="0" onmousedown="handlePan(1,0)"/>
  <use id="arrowdown" xlink:href="#arrowDown" x="0" y="0" onmousedown="handlePan(0,1)"/>
  <use id="arrowleft" xlink:href="#arrowLeft" x="0" y="0" onmousedown="handlePan(-1,0)"/>
</g>
<svg viewBox="0 0 15 15" width="100%" height="30px" preserveAspectRatio="xMaxYMin meet">
 <g id="arrow_out" transform="scale(0.3 0.3)">
  <a xlink:href="classediteurpanovisu_1_1GestionnaireInterfaceController_a4b91452936c46c593b35d261360382b0_icgraph_org.svg" target="_base">
   <rect id="button" ry="5" rx="5" y="6" x="6" height="38" width="38"
        fill="#f2f5e9" fill-opacity="0.5" stroke="#606060" stroke-width="1.0"/>
   <path id="arrow"
     d="M 11.500037,31.436501 C 11.940474,20.09759 22.043105,11.32322 32.158766,21.979434 L 37.068811,17.246167 C 37.068811,17.246167 37.088388,32 37.088388,32 L 22.160133,31.978069 C 22.160133,31.978069 26.997745,27.140456 26.997745,27.140456 C 18.528582,18.264221 13.291696,25.230495 11.500037,31.436501 z"
     style="fill:#404040;"/>
  </a>
 </g>
</svg>

<style type='text/css'>
<![CDATA[
[data-mouse-over-selected='false'] { opacity: 0.7; }
[data-mouse-over-selected='true']  { opacity: 1.0; }
]]>
</style>
<script type="application/ecmascript"><![CDATA[
document.addEventListener('DOMContentLoaded', (event) => {
  highlightEdges();
  highlightAdjacentNodes();
});
]]></script>
</svg>
