<?xml version="1.0" encoding="UTF-8" standalone="no"?>
<!DOCTYPE svg PUBLIC "-//W3C//DTD SVG 1.1//EN"
 "http://www.w3.org/Graphics/SVG/1.1/DTD/svg11.dtd">
<!-- Generated by graphviz version 13.1.2 (20250808.2320)
 -->
<!-- Title: editeurpanovisu.OrdrePanoramique.rafraichitListe Pages: 1 -->
<svg width="433pt" height="228pt"
 viewBox="0.00 0.00 433.00 228.00" xmlns="http://www.w3.org/2000/svg" xmlns:xlink="http://www.w3.org/1999/xlink">

<svg id="main" version="1.1" xmlns="http://www.w3.org/2000/svg" xmlns:xlink="http://www.w3.org/1999/xlink" xml:space="preserve">

<style type="text/css"><![CDATA[
.node, .edge {opacity: 0.7;}
.node.selected, .edge.selected {opacity: 1;}
.edge:hover path { stroke: red; }
.edge:hover polygon { stroke: red; fill: red; }
]]></style>
<script type="application/ecmascript" xlink:href="svg.min.js"/>
<svg id="graph" class="graph">
<g id="graph0" class="graph" transform="scale(1 1) rotate(0) translate(4 224)">
<title>editeurpanovisu.OrdrePanoramique.rafraichitListe</title>
<!-- Node1 -->
<g id="Node000001" class="node">
<title>Node1</title>
<g id="a_Node000001"><a xlink:title=" ">
<polygon fill="#999999" stroke="#666666" points="208.75,-132 0,-132 0,-100 208.75,-100 208.75,-132"/>
<text xml:space="preserve" text-anchor="start" x="8" y="-118.5" font-family="Helvetica,sans-Serif" font-size="10.00">editeurpanovisu.OrdrePanoramique.rafraichit</text>
<text xml:space="preserve" text-anchor="middle" x="104.38" y="-106.5" font-family="Helvetica,sans-Serif" font-size="10.00">Liste</text>
</a>
</g>
</g>
<!-- Node2 -->
<g id="Node000002" class="node">
<title>Node2</title>
<g id="a_Node000002"><a xlink:href="leaflet_8js.html#a73aff07b65d7c0b09ccf6b4c4f1b7a9d" target="_top" xlink:title=" ">
<polygon fill="white" stroke="#666666" points="349.27,-220 320.48,-220 320.48,-200 349.27,-200 349.27,-220"/>
<text xml:space="preserve" text-anchor="middle" x="334.88" y="-206.5" font-family="Helvetica,sans-Serif" font-size="10.00">i</text>
</a>
</g>
</g>
<!-- Node1&#45;&gt;Node2 -->
<g id="edge1_Node000001_Node000002" class="edge">
<title>Node1&#45;&gt;Node2</title>
<g id="a_edge1_Node000001_Node000002"><a xlink:title=" ">
<path fill="none" stroke="#63b8ff" d="M130.55,-132.39C157.7,-149.38 202.7,-175.56 244.75,-191 265.75,-198.71 290.73,-203.7 308.9,-206.62"/>
<polygon fill="#63b8ff" stroke="#63b8ff" points="308.35,-210.08 318.76,-208.1 309.39,-203.15 308.35,-210.08"/>
</a>
</g>
</g>
<!-- Node3 -->
<g id="Node000003" class="node">
<title>Node3</title>
<g id="a_Node000003"><a xlink:href="classediteurpanovisu_1_1PanoramiqueCellule.html#a5197a61ac2c8a575a88a7205a3827788" target="_top" xlink:title=" ">
<polygon fill="white" stroke="#666666" points="407,-182 262.75,-182 262.75,-150 407,-150 407,-182"/>
<text xml:space="preserve" text-anchor="start" x="270.75" y="-168.5" font-family="Helvetica,sans-Serif" font-size="10.00">editeurpanovisu.Panoramique</text>
<text xml:space="preserve" text-anchor="middle" x="334.88" y="-156.5" font-family="Helvetica,sans-Serif" font-size="10.00">Cellule.setImgPanoramique</text>
</a>
</g>
</g>
<!-- Node1&#45;&gt;Node3 -->
<g id="edge2_Node000001_Node000003" class="edge">
<title>Node1&#45;&gt;Node3</title>
<g id="a_edge2_Node000001_Node000003"><a xlink:title=" ">
<path fill="none" stroke="#63b8ff" d="M180.51,-132.44C203.2,-137.41 228.24,-142.88 251.38,-147.95"/>
<polygon fill="#63b8ff" stroke="#63b8ff" points="250.58,-151.36 261.09,-150.07 252.07,-144.52 250.58,-151.36"/>
</a>
</g>
</g>
<!-- Node4 -->
<g id="Node000004" class="node">
<title>Node4</title>
<g id="a_Node000004"><a xlink:href="classediteurpanovisu_1_1PanoramiqueCellule.html#a66dca565b3713687c8d34f97013ef83a" target="_top" xlink:title=" ">
<polygon fill="white" stroke="#666666" points="407,-132 262.75,-132 262.75,-100 407,-100 407,-132"/>
<text xml:space="preserve" text-anchor="start" x="270.75" y="-118.5" font-family="Helvetica,sans-Serif" font-size="10.00">editeurpanovisu.Panoramique</text>
<text xml:space="preserve" text-anchor="middle" x="334.88" y="-106.5" font-family="Helvetica,sans-Serif" font-size="10.00">Cellule.setiNumPano</text>
</a>
</g>
</g>
<!-- Node1&#45;&gt;Node4 -->
<g id="edge3_Node000001_Node000004" class="edge">
<title>Node1&#45;&gt;Node4</title>
<g id="a_edge3_Node000001_Node000004"><a xlink:title=" ">
<path fill="none" stroke="#63b8ff" d="M208.93,-116C223.04,-116 237.38,-116 251.06,-116"/>
<polygon fill="#63b8ff" stroke="#63b8ff" points="250.87,-119.5 260.87,-116 250.87,-112.5 250.87,-119.5"/>
</a>
</g>
</g>
<!-- Node5 -->
<g id="Node000005" class="node">
<title>Node5</title>
<g id="a_Node000005"><a xlink:href="classediteurpanovisu_1_1PanoramiqueCellule.html#ad9195089981021670fbc734ad202a8dc" target="_top" xlink:title=" ">
<polygon fill="white" stroke="#666666" points="410.75,-82 259,-82 259,-50 410.75,-50 410.75,-82"/>
<text xml:space="preserve" text-anchor="start" x="267" y="-68.5" font-family="Helvetica,sans-Serif" font-size="10.00">editeurpanovisu.Panoramique</text>
<text xml:space="preserve" text-anchor="middle" x="334.88" y="-56.5" font-family="Helvetica,sans-Serif" font-size="10.00">Cellule.setStrTitrePanoramique</text>
</a>
</g>
</g>
<!-- Node1&#45;&gt;Node5 -->
<g id="edge4_Node000001_Node000005" class="edge">
<title>Node1&#45;&gt;Node5</title>
<g id="a_edge4_Node000001_Node000005"><a xlink:title=" ">
<path fill="none" stroke="#63b8ff" d="M180.51,-99.56C201.99,-94.86 225.56,-89.7 247.65,-84.87"/>
<polygon fill="#63b8ff" stroke="#63b8ff" points="248.19,-88.33 257.22,-82.77 246.7,-81.49 248.19,-88.33"/>
</a>
</g>
</g>
<!-- Node6 -->
<g id="Node000006" class="node">
<title>Node6</title>
<g id="a_Node000006"><a xlink:href="classediteurpanovisu_1_1PanoramiqueCellule.html#a9399b6003010f4a490aba9b6dbbde7e2" target="_top" xlink:title=" ">
<polygon fill="white" stroke="#666666" points="425,-32 244.75,-32 244.75,0 425,0 425,-32"/>
<text xml:space="preserve" text-anchor="start" x="252.75" y="-18.5" font-family="Helvetica,sans-Serif" font-size="10.00">editeurpanovisu.Panoramique</text>
<text xml:space="preserve" text-anchor="middle" x="334.88" y="-6.5" font-family="Helvetica,sans-Serif" font-size="10.00">Cellule.setStrTitrePanoramiqueLigne2</text>
</a>
</g>
</g>
<!-- Node1&#45;&gt;Node6 -->
<g id="edge5_Node000001_Node000006" class="edge">
<title>Node1&#45;&gt;Node6</title>
<g id="a_edge5_Node000001_Node000006"><a xlink:title=" ">
<path fill="none" stroke="#63b8ff" d="M131.76,-99.52C159.18,-82.95 203.73,-57.56 244.75,-41 249.11,-39.24 253.64,-37.56 258.23,-35.96"/>
<polygon fill="#63b8ff" stroke="#63b8ff" points="259.22,-39.31 267.61,-32.84 257.02,-32.67 259.22,-39.31"/>
</a>
</g>
</g>
</g>
</svg>
</svg>

<style type='text/css'>
<![CDATA[
[data-mouse-over-selected='false'] { opacity: 0.7; }
[data-mouse-over-selected='true']  { opacity: 1.0; }
]]>
</style>
<script type="application/ecmascript"><![CDATA[
document.addEventListener('DOMContentLoaded', (event) => {
  highlightEdges();
  highlightAdjacentNodes();
});
]]></script>
</svg>
