<?xml version="1.0" encoding="UTF-8" standalone="no"?>
<!DOCTYPE svg PUBLIC "-//W3C//DTD SVG 1.1//EN"
 "http://www.w3.org/Graphics/SVG/1.1/DTD/svg11.dtd">
<!-- Generated by graphviz version 13.1.2 (20250808.2320)
 -->
<!-- Title: editeurpanovisu.HotspotImage.getOpacite Pages: 1 -->
<!--zoomable 445 -->

<svg id="main" version="1.1" xmlns="http://www.w3.org/2000/svg" xmlns:xlink="http://www.w3.org/1999/xlink" xml:space="preserve" onload="init(evt)">

<style type="text/css"><![CDATA[
.node, .edge {opacity: 0.7;}
.node.selected, .edge.selected {opacity: 1;}
.edge:hover path { stroke: red; }
.edge:hover polygon { stroke: red; fill: red; }
]]></style>

<defs>
  <circle id="rim" cx="0" cy="0" r="7"/>
  <circle id="rim2" cx="0" cy="0" r="3.5"/>
  <g id="zoomPlus">
    <use xlink:href="#rim" fill="#404040"><set attributeName="fill" to="#808080" begin="zoomplus.mouseover" end="zoomplus.mouseout"/></use>
    <path d="M-4,0h8M0,-4v8" fill="none" stroke="white" stroke-width="1.5" pointer-events="none"/>
  </g>
  <g id="zoomMin">
    <use xlink:href="#rim" fill="#404040"><set attributeName="fill" to="#808080" begin="zoomminus.mouseover" end="zoomminus.mouseout"/></use>
    <path d="M-4,0h8" fill="none" stroke="white" stroke-width="1.5" pointer-events="none"/>
  </g>
  <g id="arrowUp" transform="translate(30 24)">
    <use xlink:href="#rim"/>
    <path pointer-events="none" fill="none" stroke="white" stroke-width="1.5" d="M0,-3.0v7 M-2.5,-0.5L0,-3.0L2.5,-0.5"/>
  </g>
  <g id="arrowRight" transform="rotate(90) translate(36 -43)">
    <use xlink:href="#rim"/>
    <path pointer-events="none" fill="none" stroke="white" stroke-width="1.5" d="M0,-3.0v7 M-2.5,-0.5L0,-3.0L2.5,-0.5"/>
  </g>
  <g id="arrowDown" transform="rotate(180) translate(-30 -48)">
    <use xlink:href="#rim"/>
    <path pointer-events="none" fill="none" stroke="white" stroke-width="1.5" d="M0,-3.0v7 M-2.5,-0.5L0,-3.0L2.5,-0.5"/>
  </g>
  <g id="arrowLeft" transform="rotate(270) translate(-36 17)">
    <use xlink:href="#rim"/>
    <path pointer-events="none" fill="none" stroke="white" stroke-width="1.5" d="M0,-3.0v7 M-2.5,-0.5L0,-3.0L2.5,-0.5"/>
  </g>
  <g id="resetDef">
    <use xlink:href="#rim2" fill="#404040"><set attributeName="fill" to="#808080" begin="reset.mouseover" end="reset.mouseout"/></use>
  </g>
</defs>
<script type="application/ecmascript">
var viewWidth = 1755;
var viewHeight = 445;
var sectionId = 'dynsection-3';
</script>
<script type="application/ecmascript" xlink:href="svg.min.js"/>
<svg id="graph" class="graph">
<g id="viewport">
<title>editeurpanovisu.HotspotImage.getOpacite</title>
<!-- Node1 -->
<g id="Node000001" class="node">
<title>Node1</title>
<g id="a_Node000001"><a xlink:title=" ">
<polygon fill="#999999" stroke="#666666" points="1747.25,-333.75 1582,-333.75 1582,-301.75 1747.25,-301.75 1747.25,-333.75"/>
<text xml:space="preserve" text-anchor="start" x="1590" y="-320.25" font-family="Helvetica,sans-Serif" font-size="10.00">editeurpanovisu.HotspotImage.get</text>
<text xml:space="preserve" text-anchor="middle" x="1664.62" y="-308.25" font-family="Helvetica,sans-Serif" font-size="10.00">Opacite</text>
</a>
</g>
</g>
<!-- Node2 -->
<g id="Node000002" class="node">
<title>Node2</title>
<g id="a_Node000002"><a xlink:href="classediteurpanovisu_1_1EditeurPanovisu.html#a94e36b9e9d09ab1a4c852b8a8cefa927" target="_top" xlink:title=" ">
<polygon fill="white" stroke="#666666" points="647.25,-337.75 456.5,-337.75 456.5,-305.75 647.25,-305.75 647.25,-337.75"/>
<text xml:space="preserve" text-anchor="start" x="464.5" y="-324.25" font-family="Helvetica,sans-Serif" font-size="10.00">editeurpanovisu.EditeurPanovisu.genere</text>
<text xml:space="preserve" text-anchor="middle" x="551.88" y="-312.25" font-family="Helvetica,sans-Serif" font-size="10.00">Visite</text>
</a>
</g>
</g>
<!-- Node1&#45;&gt;Node2 -->
<g id="edge1_Node000001_Node000002" class="edge">
<title>Node1&#45;&gt;Node2</title>
<g id="a_edge1_Node000001_Node000002"><a xlink:title=" ">
<path fill="none" stroke="#63b8ff" d="M1615.36,-338.61C1536.43,-370.76 1374.14,-428.75 1230.5,-428.75 1230.5,-428.75 1230.5,-428.75 1004.38,-428.75 861.4,-428.75 818.67,-455.6 683.25,-409.75 637.98,-394.43 593.68,-358.93 570.18,-338.01"/>
<polygon fill="#63b8ff" stroke="#63b8ff" points="1616.62,-341.87 1624.53,-334.83 1613.95,-335.4 1616.62,-341.87"/>
</a>
</g>
</g>
<!-- Node5 -->
<g id="Node000005" class="node">
<title>Node5</title>
<g id="a_Node000005"><a xlink:href="classediteurpanovisu_1_1EditeurPanovisu.html#aaee69ab54364f89b58458c744a4195c0" target="_top" xlink:title=" ">
<polygon fill="white" stroke="#666666" points="1546,-226.75 1358.25,-226.75 1358.25,-194.75 1546,-194.75 1546,-226.75"/>
<text xml:space="preserve" text-anchor="start" x="1366.25" y="-213.25" font-family="Helvetica,sans-Serif" font-size="10.00">editeurpanovisu.EditeurPanovisu.sauve</text>
<text xml:space="preserve" text-anchor="middle" x="1452.12" y="-201.25" font-family="Helvetica,sans-Serif" font-size="10.00">FichierProjet</text>
</a>
</g>
</g>
<!-- Node1&#45;&gt;Node5 -->
<g id="edge4_Node000001_Node000005" class="edge">
<title>Node1&#45;&gt;Node5</title>
<g id="a_edge4_Node000001_Node000005"><a xlink:title=" ">
<path fill="none" stroke="#63b8ff" d="M1621.17,-296.17C1581.01,-275.76 1521.61,-245.57 1485.25,-227.08"/>
<polygon fill="#63b8ff" stroke="#63b8ff" points="1619.35,-299.17 1629.85,-300.58 1622.52,-292.93 1619.35,-299.17"/>
</a>
</g>
</g>
<!-- Node3 -->
<g id="Node000003" class="node">
<title>Node3</title>
<g id="a_Node000003"><a xlink:href="classediteurpanovisu_1_1EditeurPanovisu.html#ac912b80c1f2ac97def60ff005c5c480b" target="_top" xlink:title=" ">
<polygon fill="white" stroke="#666666" points="420.5,-157.75 216.25,-157.75 216.25,-137.75 420.5,-137.75 420.5,-157.75"/>
<text xml:space="preserve" text-anchor="middle" x="318.38" y="-144.25" font-family="Helvetica,sans-Serif" font-size="10.00">editeurpanovisu.EditeurPanovisu.creeMenu</text>
</a>
</g>
</g>
<!-- Node2&#45;&gt;Node3 -->
<g id="edge2_Node000002_Node000003" class="edge">
<title>Node2&#45;&gt;Node3</title>
<g id="a_edge2_Node000002_Node000003"><a xlink:title=" ">
<path fill="none" stroke="#63b8ff" d="M520.2,-298.7C469.4,-260.52 369.76,-185.63 333.23,-158.17"/>
<polygon fill="#63b8ff" stroke="#63b8ff" points="517.79,-301.26 527.89,-304.48 522,-295.67 517.79,-301.26"/>
</a>
</g>
</g>
<!-- Node4 -->
<g id="Node000004" class="node">
<title>Node4</title>
<g id="a_Node000004"><a xlink:href="classediteurpanovisu_1_1EditeurPanovisu.html#a86c393eee88f54c694db994ddd85b90d" target="_top" xlink:title=" ">
<polygon fill="white" stroke="#666666" points="180.25,-163.75 0,-163.75 0,-131.75 180.25,-131.75 180.25,-163.75"/>
<text xml:space="preserve" text-anchor="start" x="8" y="-150.25" font-family="Helvetica,sans-Serif" font-size="10.00">editeurpanovisu.EditeurPanovisu.cree</text>
<text xml:space="preserve" text-anchor="middle" x="90.12" y="-138.25" font-family="Helvetica,sans-Serif" font-size="10.00">Environnement</text>
</a>
</g>
</g>
<!-- Node3&#45;&gt;Node4 -->
<g id="edge3_Node000003_Node000004" class="edge">
<title>Node3&#45;&gt;Node4</title>
<g id="a_edge3_Node000003_Node000004"><a xlink:title=" ">
<path fill="none" stroke="#63b8ff" d="M204.51,-147.75C196.49,-147.75 188.46,-147.75 180.6,-147.75"/>
<polygon fill="#63b8ff" stroke="#63b8ff" points="204.32,-151.25 214.32,-147.75 204.32,-144.25 204.32,-151.25"/>
</a>
</g>
</g>
<!-- Node6 -->
<g id="Node000006" class="node">
<title>Node6</title>
<g id="a_Node000006"><a xlink:href="classediteurpanovisu_1_1EditeurPanovisu.html#a9f3ea25b35d4884524508dab3dc4fd6a" target="_top" xlink:title=" ">
<polygon fill="white" stroke="#666666" points="1322.25,-226.75 1136.75,-226.75 1136.75,-194.75 1322.25,-194.75 1322.25,-226.75"/>
<text xml:space="preserve" text-anchor="start" x="1144.75" y="-213.25" font-family="Helvetica,sans-Serif" font-size="10.00">editeurpanovisu.EditeurPanovisu.projet</text>
<text xml:space="preserve" text-anchor="middle" x="1229.5" y="-201.25" font-family="Helvetica,sans-Serif" font-size="10.00">Sauve</text>
</a>
</g>
</g>
<!-- Node5&#45;&gt;Node6 -->
<g id="edge5_Node000005_Node000006" class="edge">
<title>Node5&#45;&gt;Node6</title>
<g id="a_edge5_Node000005_Node000006"><a xlink:title=" ">
<path fill="none" stroke="#63b8ff" d="M1346.63,-210.75C1338.64,-210.75 1330.61,-210.75 1322.71,-210.75"/>
<polygon fill="#63b8ff" stroke="#63b8ff" points="1346.37,-214.25 1356.37,-210.75 1346.37,-207.25 1346.37,-214.25"/>
</a>
</g>
</g>
<!-- Node10 -->
<g id="Node000010" class="node">
<title>Node10</title>
<g id="a_Node000010"><a xlink:href="classediteurpanovisu_1_1EditeurPanovisu.html#a7b2e25dc717eb52b62e23d54ec4c124a" target="_top" xlink:title=" ">
<polygon fill="white" stroke="#666666" points="644.62,-56.75 459.12,-56.75 459.12,-24.75 644.62,-24.75 644.62,-56.75"/>
<text xml:space="preserve" text-anchor="start" x="467.12" y="-43.25" font-family="Helvetica,sans-Serif" font-size="10.00">editeurpanovisu.EditeurPanovisu.projet</text>
<text xml:space="preserve" text-anchor="middle" x="551.88" y="-31.25" font-family="Helvetica,sans-Serif" font-size="10.00">SauveSous</text>
</a>
</g>
</g>
<!-- Node5&#45;&gt;Node10 -->
<g id="edge26_Node000005_Node000010" class="edge">
<title>Node5&#45;&gt;Node10</title>
<g id="a_edge26_Node000005_Node000010"><a xlink:title=" ">
<path fill="none" stroke="#63b8ff" d="M1413.49,-188.92C1350.98,-153.98 1220.74,-86.69 1100.75,-59.75 943.58,-24.48 754.75,-27.54 644.83,-33.67"/>
<polygon fill="#63b8ff" stroke="#63b8ff" points="1411.53,-191.84 1421.96,-193.7 1414.97,-185.74 1411.53,-191.84"/>
</a>
</g>
</g>
<!-- Node6&#45;&gt;Node2 -->
<g id="edge7_Node000006_Node000002" class="edge">
<title>Node6&#45;&gt;Node2</title>
<g id="a_edge7_Node000006_Node000002"><a xlink:title=" ">
<path fill="none" stroke="#63b8ff" d="M1206.8,-235.18C1183.38,-259.61 1143.65,-295.78 1100.75,-311.75 949.19,-368.2 757.32,-354.09 645.51,-338.24"/>
<polygon fill="#63b8ff" stroke="#63b8ff" points="1209.07,-237.88 1213.34,-228.19 1203.96,-233.1 1209.07,-237.88"/>
</a>
</g>
</g>
<!-- Node6&#45;&gt;Node3 -->
<g id="edge6_Node000006_Node000003" class="edge">
<title>Node6&#45;&gt;Node3</title>
<g id="a_edge6_Node000006_Node000003"><a xlink:title=" ">
<path fill="none" stroke="#63b8ff" d="M1214.8,-184.38C1194.92,-149.15 1154.5,-87.92 1100.75,-59.75 921.38,34.24 849.52,-25.54 647.25,-15.75 562.57,-11.66 535.13,15.94 456.5,-15.75 393.37,-41.2 343.05,-111.17 325.8,-137.53"/>
<polygon fill="#63b8ff" stroke="#63b8ff" points="1211.69,-186 1219.57,-193.09 1217.83,-182.64 1211.69,-186"/>
</a>
</g>
</g>
<!-- Node7 -->
<g id="Node000007" class="node">
<title>Node7</title>
<g id="a_Node000007"><a xlink:href="classediteurpanovisu_1_1EditeurPanovisu.html#ab4beb1597b660a4a253befc6e76f1c54" target="_top" xlink:title=" ">
<polygon fill="white" stroke="#666666" points="644.62,-163.75 459.12,-163.75 459.12,-131.75 644.62,-131.75 644.62,-163.75"/>
<text xml:space="preserve" text-anchor="start" x="467.12" y="-150.25" font-family="Helvetica,sans-Serif" font-size="10.00">editeurpanovisu.EditeurPanovisu.projet</text>
<text xml:space="preserve" text-anchor="middle" x="551.88" y="-138.25" font-family="Helvetica,sans-Serif" font-size="10.00">Charge</text>
</a>
</g>
</g>
<!-- Node6&#45;&gt;Node7 -->
<g id="edge8_Node000006_Node000007" class="edge">
<title>Node6&#45;&gt;Node7</title>
<g id="a_edge8_Node000006_Node000007"><a xlink:title=" ">
<path fill="none" stroke="#63b8ff" d="M1141.18,-192.17C1127.69,-189.74 1113.88,-187.49 1100.75,-185.75 941.24,-164.7 753.96,-154.89 644.83,-150.65"/>
<polygon fill="#63b8ff" stroke="#63b8ff" points="1140.46,-195.6 1150.93,-193.98 1141.74,-188.72 1140.46,-195.6"/>
</a>
</g>
</g>
<!-- Node8 -->
<g id="Node000008" class="node">
<title>Node8</title>
<g id="a_Node000008"><a xlink:href="classediteurpanovisu_1_1EditeurPanovisu.html#a6d19b4d885ee6fcec827b91956295732" target="_top" xlink:title=" ">
<polygon fill="white" stroke="#666666" points="1098.12,-100.75 912.62,-100.75 912.62,-68.75 1098.12,-68.75 1098.12,-100.75"/>
<text xml:space="preserve" text-anchor="start" x="920.62" y="-87.25" font-family="Helvetica,sans-Serif" font-size="10.00">editeurpanovisu.EditeurPanovisu.projet</text>
<text xml:space="preserve" text-anchor="middle" x="1005.38" y="-75.25" font-family="Helvetica,sans-Serif" font-size="10.00">ChargeNom</text>
</a>
</g>
</g>
<!-- Node6&#45;&gt;Node8 -->
<g id="edge10_Node000006_Node000008" class="edge">
<title>Node6&#45;&gt;Node8</title>
<g id="a_edge10_Node000006_Node000008"><a xlink:title=" ">
<path fill="none" stroke="#63b8ff" d="M1202.37,-186.91C1177.72,-165.49 1138.96,-134.46 1100.75,-114.75 1090.66,-109.55 1079.51,-105.04 1068.5,-101.21"/>
<polygon fill="#63b8ff" stroke="#63b8ff" points="1199.83,-189.34 1209.65,-193.32 1204.46,-184.09 1199.83,-189.34"/>
</a>
</g>
</g>
<!-- Node11 -->
<g id="Node000011" class="node">
<title>Node11</title>
<g id="a_Node000011"><a xlink:href="classediteurpanovisu_1_1EditeurPanovisu.html#a9b46b222714af12c06ec33d410400773" target="_top" xlink:title=" ">
<polygon fill="white" stroke="#666666" points="874,-400.75 683.25,-400.75 683.25,-368.75 874,-368.75 874,-400.75"/>
<text xml:space="preserve" text-anchor="start" x="691.25" y="-387.25" font-family="Helvetica,sans-Serif" font-size="10.00">editeurpanovisu.EditeurPanovisu.projets</text>
<text xml:space="preserve" text-anchor="middle" x="778.62" y="-375.25" font-family="Helvetica,sans-Serif" font-size="10.00">Fermer</text>
</a>
</g>
</g>
<!-- Node6&#45;&gt;Node11 -->
<g id="edge18_Node000006_Node000011" class="edge">
<title>Node6&#45;&gt;Node11</title>
<g id="a_edge18_Node000006_Node000011"><a xlink:title=" ">
<path fill="none" stroke="#63b8ff" d="M1214.29,-236.87C1194.09,-271.11 1153.56,-329.96 1100.75,-356.75 1030.75,-392.26 941.07,-397.27 874.28,-394.54"/>
<polygon fill="#63b8ff" stroke="#63b8ff" points="1217.21,-238.82 1219.15,-228.41 1211.14,-235.34 1217.21,-238.82"/>
</a>
</g>
</g>
<!-- Node12 -->
<g id="Node000012" class="node">
<title>Node12</title>
<g id="a_Node000012"><a xlink:href="classediteurpanovisu_1_1EditeurPanovisu.html#ac9d449399ccd38843fa12e716f0c9611" target="_top" xlink:title=" ">
<polygon fill="white" stroke="#666666" points="1100.75,-226.75 910,-226.75 910,-194.75 1100.75,-194.75 1100.75,-226.75"/>
<text xml:space="preserve" text-anchor="start" x="918" y="-213.25" font-family="Helvetica,sans-Serif" font-size="10.00">editeurpanovisu.EditeurPanovisu.projets</text>
<text xml:space="preserve" text-anchor="middle" x="1005.38" y="-201.25" font-family="Helvetica,sans-Serif" font-size="10.00">Nouveau</text>
</a>
</g>
</g>
<!-- Node6&#45;&gt;Node12 -->
<g id="edge20_Node000006_Node000012" class="edge">
<title>Node6&#45;&gt;Node12</title>
<g id="a_edge20_Node000006_Node000012"><a xlink:title=" ">
<path fill="none" stroke="#63b8ff" d="M1125.24,-210.75C1117.2,-210.75 1109.11,-210.75 1101.13,-210.75"/>
<polygon fill="#63b8ff" stroke="#63b8ff" points="1125.04,-214.25 1135.04,-210.75 1125.04,-207.25 1125.04,-214.25"/>
</a>
</g>
</g>
<!-- Node13 -->
<g id="Node000013" class="node">
<title>Node13</title>
<g id="a_Node000013"><a xlink:href="classediteurpanovisu_1_1EditeurPanovisu.html#a2b3125ffe2e6291efacf19df6cb30a8d" target="_top" xlink:title=" ">
<polygon fill="white" stroke="#666666" points="869.12,-312.75 688.12,-312.75 688.12,-292.75 869.12,-292.75 869.12,-312.75"/>
<text xml:space="preserve" text-anchor="middle" x="778.62" y="-299.25" font-family="Helvetica,sans-Serif" font-size="10.00">editeurpanovisu.EditeurPanovisu.start</text>
</a>
</g>
</g>
<!-- Node6&#45;&gt;Node13 -->
<g id="edge25_Node000006_Node000013" class="edge">
<title>Node6&#45;&gt;Node13</title>
<g id="a_edge25_Node000006_Node000013"><a xlink:title=" ">
<path fill="none" stroke="#63b8ff" d="M1198.65,-233.89C1173.92,-251.63 1137.06,-274.84 1100.75,-285.75 1025.09,-308.49 934.96,-311.28 869.48,-309.24"/>
<polygon fill="#63b8ff" stroke="#63b8ff" points="1200.61,-236.79 1206.61,-228.06 1196.47,-231.15 1200.61,-236.79"/>
</a>
</g>
</g>
<!-- Node14 -->
<g id="Node000014" class="node">
<title>Node14</title>
<g id="a_Node000014"><a xlink:href="classediteurpanovisu_1_1EditeurPanovisu.html#aef8c9b28c3e88d6e27e3f62b9a901134" target="_top" xlink:title=" ">
<polygon fill="white" stroke="#666666" points="1099.25,-276.75 911.5,-276.75 911.5,-244.75 1099.25,-244.75 1099.25,-276.75"/>
<text xml:space="preserve" text-anchor="start" x="919.5" y="-263.25" font-family="Helvetica,sans-Serif" font-size="10.00">editeurpanovisu.EditeurPanovisu.sauve</text>
<text xml:space="preserve" text-anchor="middle" x="1005.38" y="-251.25" font-family="Helvetica,sans-Serif" font-size="10.00">Fichiers</text>
</a>
</g>
</g>
<!-- Node6&#45;&gt;Node14 -->
<g id="edge24_Node000006_Node000014" class="edge">
<title>Node6&#45;&gt;Node14</title>
<g id="a_edge24_Node000006_Node000014"><a xlink:title=" ">
<path fill="none" stroke="#63b8ff" d="M1144.43,-229.68C1123.05,-234.49 1100.24,-239.62 1079.46,-244.3"/>
<polygon fill="#63b8ff" stroke="#63b8ff" points="1145,-233.14 1153.98,-227.53 1143.46,-226.31 1145,-233.14"/>
</a>
</g>
</g>
<!-- Node7&#45;&gt;Node3 -->
<g id="edge9_Node000007_Node000003" class="edge">
<title>Node7&#45;&gt;Node3</title>
<g id="a_edge9_Node000007_Node000003"><a xlink:title=" ">
<path fill="none" stroke="#63b8ff" d="M447.22,-147.75C438.41,-147.75 429.52,-147.75 420.73,-147.75"/>
<polygon fill="#63b8ff" stroke="#63b8ff" points="447.2,-151.25 457.2,-147.75 447.2,-144.25 447.2,-151.25"/>
</a>
</g>
</g>
<!-- Node8&#45;&gt;Node3 -->
<g id="edge17_Node000008_Node000003" class="edge">
<title>Node8&#45;&gt;Node3</title>
<g id="a_edge17_Node000008_Node000003"><a xlink:title=" ">
<path fill="none" stroke="#63b8ff" d="M901.09,-87.12C838.08,-89.01 755.95,-92.28 683.25,-97.75 582.15,-105.36 556.82,-108.1 456.5,-122.75 428.48,-126.85 397.43,-132.42 371.98,-137.27"/>
<polygon fill="#63b8ff" stroke="#63b8ff" points="900.82,-90.63 910.71,-86.83 900.62,-83.63 900.82,-90.63"/>
</a>
</g>
</g>
<!-- Node9 -->
<g id="Node000009" class="node">
<title>Node9</title>
<g id="a_Node000009"><a xlink:href="classediteurpanovisu_1_1EditeurPanovisu.html#af0d1c32bb78acbff561c822a0d15f760" target="_top" xlink:title=" ">
<polygon fill="white" stroke="#666666" points="872.5,-138.75 684.75,-138.75 684.75,-106.75 872.5,-106.75 872.5,-138.75"/>
<text xml:space="preserve" text-anchor="start" x="692.75" y="-125.25" font-family="Helvetica,sans-Serif" font-size="10.00">editeurpanovisu.EditeurPanovisu.ajoute</text>
<text xml:space="preserve" text-anchor="middle" x="778.62" y="-113.25" font-family="Helvetica,sans-Serif" font-size="10.00">FichierHisto</text>
</a>
</g>
</g>
<!-- Node8&#45;&gt;Node9 -->
<g id="edge11_Node000008_Node000009" class="edge">
<title>Node8&#45;&gt;Node9</title>
<g id="a_edge11_Node000008_Node000009"><a xlink:title=" ">
<path fill="none" stroke="#63b8ff" d="M900.98,-95.5C880.49,-98.88 859.59,-102.63 841.05,-106.28"/>
<polygon fill="#63b8ff" stroke="#63b8ff" points="901.51,-98.97 910.82,-93.91 900.39,-92.06 901.51,-98.97"/>
</a>
</g>
</g>
<!-- Node9&#45;&gt;Node6 -->
<g id="edge14_Node000009_Node000006" class="edge">
<title>Node9&#45;&gt;Node6</title>
<g id="a_edge14_Node000009_Node000006"><a xlink:title=" ">
<path fill="none" stroke="#63b8ff" d="M884,-123.76C947.57,-126.52 1029.92,-133.94 1100.75,-152.75 1136.41,-162.23 1174.61,-180.8 1199.85,-194.39"/>
<polygon fill="#63b8ff" stroke="#63b8ff" points="884.4,-120.28 874.27,-123.38 884.12,-127.27 884.4,-120.28"/>
</a>
</g>
</g>
<!-- Node9&#45;&gt;Node7 -->
<g id="edge12_Node000009_Node000007" class="edge">
<title>Node9&#45;&gt;Node7</title>
<g id="a_edge12_Node000009_Node000007"><a xlink:title=" ">
<path fill="none" stroke="#63b8ff" d="M672.9,-134.4C663.54,-135.44 654.1,-136.49 644.86,-137.52"/>
<polygon fill="#63b8ff" stroke="#63b8ff" points="673.21,-137.89 682.76,-133.31 672.43,-130.93 673.21,-137.89"/>
</a>
</g>
</g>
<!-- Node9&#45;&gt;Node8 -->
<g id="edge13_Node000009_Node000008" class="edge">
<title>Node9&#45;&gt;Node8</title>
<g id="a_edge13_Node000009_Node000008"><a xlink:title=" ">
<path fill="none" stroke="#63b8ff" d="M883.8,-111.88C904.04,-108.53 924.65,-104.83 942.96,-101.23"/>
<polygon fill="#63b8ff" stroke="#63b8ff" points="883.4,-108.39 874.09,-113.45 884.53,-115.3 883.4,-108.39"/>
</a>
</g>
</g>
<!-- Node9&#45;&gt;Node10 -->
<g id="edge15_Node000009_Node000010" class="edge">
<title>Node9&#45;&gt;Node10</title>
<g id="a_edge15_Node000009_Node000010"><a xlink:title=" ">
<path fill="none" stroke="#63b8ff" d="M721.98,-102.45C683.78,-88.51 633.73,-70.25 598.01,-57.22"/>
<polygon fill="#63b8ff" stroke="#63b8ff" points="720.4,-105.6 730.99,-105.74 722.8,-99.02 720.4,-105.6"/>
</a>
</g>
</g>
<!-- Node10&#45;&gt;Node3 -->
<g id="edge16_Node000010_Node000003" class="edge">
<title>Node10&#45;&gt;Node3</title>
<g id="a_edge16_Node000010_Node000003"><a xlink:title=" ">
<path fill="none" stroke="#63b8ff" d="M482.17,-60.78C473.43,-63.85 464.68,-67.2 456.5,-70.75 410.67,-90.66 360.29,-121.45 335.29,-137.4"/>
<polygon fill="#63b8ff" stroke="#63b8ff" points="483.02,-64.18 491.36,-57.65 480.77,-57.56 483.02,-64.18"/>
</a>
</g>
</g>
<!-- Node11&#45;&gt;Node3 -->
<g id="edge19_Node000011_Node000003" class="edge">
<title>Node11&#45;&gt;Node3</title>
<g id="a_edge19_Node000011_Node000003"><a xlink:title=" ">
<path fill="none" stroke="#63b8ff" d="M671.53,-393.56C605.28,-394.13 520.69,-385.46 456.5,-346.75 379.25,-300.17 335.04,-191.47 322.86,-157.85"/>
<polygon fill="#63b8ff" stroke="#63b8ff" points="671.38,-397.07 681.32,-393.4 671.27,-390.07 671.38,-397.07"/>
</a>
</g>
</g>
<!-- Node12&#45;&gt;Node3 -->
<g id="edge21_Node000012_Node000003" class="edge">
<title>Node12&#45;&gt;Node3</title>
<g id="a_edge21_Node000012_Node000003"><a xlink:title=" ">
<path fill="none" stroke="#63b8ff" d="M898.05,-206.88C787.42,-202.03 609.32,-191.92 456.5,-172.75 427.45,-169.11 395.22,-163.33 369.32,-158.24"/>
<polygon fill="#63b8ff" stroke="#63b8ff" points="897.89,-210.38 908.03,-207.31 898.19,-203.38 897.89,-210.38"/>
</a>
</g>
</g>
<!-- Node12&#45;&gt;Node13 -->
<g id="edge22_Node000012_Node000013" class="edge">
<title>Node12&#45;&gt;Node13</title>
<g id="a_edge22_Node000012_Node000013"><a xlink:title=" ">
<path fill="none" stroke="#63b8ff" d="M924.42,-230.63C919.51,-232.25 914.67,-233.96 910,-235.75 867.72,-252 821.2,-278.05 796.78,-292.41"/>
<polygon fill="#63b8ff" stroke="#63b8ff" points="925.34,-234.01 933.82,-227.66 923.23,-227.33 925.34,-234.01"/>
</a>
</g>
</g>
<!-- Node13&#45;&gt;Node2 -->
<g id="edge23_Node000013_Node000002" class="edge">
<title>Node13&#45;&gt;Node2</title>
<g id="a_edge23_Node000013_Node000002"><a xlink:title=" ">
<path fill="none" stroke="#63b8ff" d="M676.6,-311.29C666.98,-312.11 657.24,-312.93 647.68,-313.74"/>
<polygon fill="#63b8ff" stroke="#63b8ff" points="676.65,-314.8 686.32,-310.47 676.06,-307.83 676.65,-314.8"/>
</a>
</g>
</g>
</g>
</svg>

<g id="navigator" transform="translate(0 0)" fill="#404254">
  <rect fill="#f2f5e9" fill-opacity="0.5" stroke="#606060" stroke-width=".5" x="0" y="0" width="60" height="60"/>
  <use id="zoomplus" xlink:href="#zoomPlus" x="17" y="9" onmousedown="handleZoom(evt,'in')"/>
  <use id="zoomminus" xlink:href="#zoomMin" x="42" y="9" onmousedown="handleZoom(evt,'out')"/>
  <use id="reset" xlink:href="#resetDef" x="30" y="36" onmousedown="handleReset()"/>
   <use id="arrowup" xlink:href="#arrowUp" x="0" y="0" onmousedown="handlePan(0,-1)"/>
  <use id="arrowright" xlink:href="#arrowRight" x="0" y="0" onmousedown="handlePan(1,0)"/>
  <use id="arrowdown" xlink:href="#arrowDown" x="0" y="0" onmousedown="handlePan(0,1)"/>
  <use id="arrowleft" xlink:href="#arrowLeft" x="0" y="0" onmousedown="handlePan(-1,0)"/>
</g>
<svg viewBox="0 0 15 15" width="100%" height="30px" preserveAspectRatio="xMaxYMin meet">
 <g id="arrow_out" transform="scale(0.3 0.3)">
  <a xlink:href="classediteurpanovisu_1_1HotspotImage_a4cd4e94cc8091edad7982531711c615f_icgraph_org.svg" target="_base">
   <rect id="button" ry="5" rx="5" y="6" x="6" height="38" width="38"
        fill="#f2f5e9" fill-opacity="0.5" stroke="#606060" stroke-width="1.0"/>
   <path id="arrow"
     d="M 11.500037,31.436501 C 11.940474,20.09759 22.043105,11.32322 32.158766,21.979434 L 37.068811,17.246167 C 37.068811,17.246167 37.088388,32 37.088388,32 L 22.160133,31.978069 C 22.160133,31.978069 26.997745,27.140456 26.997745,27.140456 C 18.528582,18.264221 13.291696,25.230495 11.500037,31.436501 z"
     style="fill:#404040;"/>
  </a>
 </g>
</svg>

<style type='text/css'>
<![CDATA[
[data-mouse-over-selected='false'] { opacity: 0.7; }
[data-mouse-over-selected='true']  { opacity: 1.0; }
]]>
</style>
<script type="application/ecmascript"><![CDATA[
document.addEventListener('DOMContentLoaded', (event) => {
  highlightEdges();
  highlightAdjacentNodes();
});
]]></script>
</svg>
