<?xml version="1.0" encoding="UTF-8" standalone="no"?>
<!DOCTYPE svg PUBLIC "-//W3C//DTD SVG 1.1//EN"
 "http://www.w3.org/Graphics/SVG/1.1/DTD/svg11.dtd">
<!-- Generated by graphviz version 13.1.2 (20250808.2320)
 -->
<!-- Title: editeurpanovisu.GestionnaireInterfaceController.getStrOutilsBarreClassique Pages: 1 -->
<!--zoomable 446 -->

<svg id="main" version="1.1" xmlns="http://www.w3.org/2000/svg" xmlns:xlink="http://www.w3.org/1999/xlink" xml:space="preserve" onload="init(evt)">

<style type="text/css"><![CDATA[
.node, .edge {opacity: 0.7;}
.node.selected, .edge.selected {opacity: 1;}
.edge:hover path { stroke: red; }
.edge:hover polygon { stroke: red; fill: red; }
]]></style>

<defs>
  <circle id="rim" cx="0" cy="0" r="7"/>
  <circle id="rim2" cx="0" cy="0" r="3.5"/>
  <g id="zoomPlus">
    <use xlink:href="#rim" fill="#404040"><set attributeName="fill" to="#808080" begin="zoomplus.mouseover" end="zoomplus.mouseout"/></use>
    <path d="M-4,0h8M0,-4v8" fill="none" stroke="white" stroke-width="1.5" pointer-events="none"/>
  </g>
  <g id="zoomMin">
    <use xlink:href="#rim" fill="#404040"><set attributeName="fill" to="#808080" begin="zoomminus.mouseover" end="zoomminus.mouseout"/></use>
    <path d="M-4,0h8" fill="none" stroke="white" stroke-width="1.5" pointer-events="none"/>
  </g>
  <g id="arrowUp" transform="translate(30 24)">
    <use xlink:href="#rim"/>
    <path pointer-events="none" fill="none" stroke="white" stroke-width="1.5" d="M0,-3.0v7 M-2.5,-0.5L0,-3.0L2.5,-0.5"/>
  </g>
  <g id="arrowRight" transform="rotate(90) translate(36 -43)">
    <use xlink:href="#rim"/>
    <path pointer-events="none" fill="none" stroke="white" stroke-width="1.5" d="M0,-3.0v7 M-2.5,-0.5L0,-3.0L2.5,-0.5"/>
  </g>
  <g id="arrowDown" transform="rotate(180) translate(-30 -48)">
    <use xlink:href="#rim"/>
    <path pointer-events="none" fill="none" stroke="white" stroke-width="1.5" d="M0,-3.0v7 M-2.5,-0.5L0,-3.0L2.5,-0.5"/>
  </g>
  <g id="arrowLeft" transform="rotate(270) translate(-36 17)">
    <use xlink:href="#rim"/>
    <path pointer-events="none" fill="none" stroke="white" stroke-width="1.5" d="M0,-3.0v7 M-2.5,-0.5L0,-3.0L2.5,-0.5"/>
  </g>
  <g id="resetDef">
    <use xlink:href="#rim2" fill="#404040"><set attributeName="fill" to="#808080" begin="reset.mouseover" end="reset.mouseout"/></use>
  </g>
</defs>
<script type="application/ecmascript">
var viewWidth = 2816;
var viewHeight = 446;
var sectionId = 'dynsection-173';
</script>
<script type="application/ecmascript" xlink:href="svg.min.js"/>
<svg id="graph" class="graph">
<g id="viewport">
<title>editeurpanovisu.GestionnaireInterfaceController.getStrOutilsBarreClassique</title>
<!-- Node1 -->
<g id="Node000001" class="node">
<title>Node1</title>
<g id="a_Node000001"><a xlink:title=" ">
<polygon fill="#999999" stroke="#666666" points="2807.5,-117 2656.5,-117 2656.5,-73 2807.5,-73 2807.5,-117"/>
<text xml:space="preserve" text-anchor="start" x="2664.5" y="-103.5" font-family="Helvetica,sans-Serif" font-size="10.00">editeurpanovisu.Gestionnaire</text>
<text xml:space="preserve" text-anchor="start" x="2664.5" y="-91.5" font-family="Helvetica,sans-Serif" font-size="10.00">InterfaceController.getStrOutils</text>
<text xml:space="preserve" text-anchor="middle" x="2732" y="-79.5" font-family="Helvetica,sans-Serif" font-size="10.00">BarreClassique</text>
</a>
</g>
</g>
<!-- Node2 -->
<g id="Node000002" class="node">
<title>Node2</title>
<g id="a_Node000002"><a xlink:href="classediteurpanovisu_1_1GestionnaireInterfaceController.html#af7f1e67219c75f044a231abc76bcf790" target="_top" xlink:title=" ">
<polygon fill="white" stroke="#666666" points="2613,-267 2462,-267 2462,-223 2613,-223 2613,-267"/>
<text xml:space="preserve" text-anchor="start" x="2470" y="-253.5" font-family="Helvetica,sans-Serif" font-size="10.00">editeurpanovisu.Gestionnaire</text>
<text xml:space="preserve" text-anchor="start" x="2470" y="-241.5" font-family="Helvetica,sans-Serif" font-size="10.00">InterfaceController.afficheBarre</text>
<text xml:space="preserve" text-anchor="middle" x="2537.5" y="-229.5" font-family="Helvetica,sans-Serif" font-size="10.00">Classique</text>
</a>
</g>
</g>
<!-- Node1&#45;&gt;Node2 -->
<g id="edge1_Node000001_Node000002" class="edge">
<title>Node1&#45;&gt;Node2</title>
<g id="a_edge1_Node000001_Node000002"><a xlink:title=" ">
<path fill="none" stroke="#63b8ff" d="M2693.2,-124.45C2656.22,-153.27 2600.7,-196.53 2567.2,-222.64"/>
<polygon fill="#63b8ff" stroke="#63b8ff" points="2695.25,-127.29 2700.99,-118.39 2690.95,-121.77 2695.25,-127.29"/>
</a>
</g>
</g>
<!-- Node4 -->
<g id="Node000004" class="node">
<title>Node4</title>
<g id="a_Node000004"><a xlink:href="classediteurpanovisu_1_1GestionnaireInterfaceController.html#a55c8afda208674955a13d48d02be41b8" target="_top" xlink:title=" ">
<polygon fill="white" stroke="#666666" points="2213.5,-186 2046,-186 2046,-154 2213.5,-154 2213.5,-186"/>
<text xml:space="preserve" text-anchor="start" x="2054" y="-172.5" font-family="Helvetica,sans-Serif" font-size="10.00">editeurpanovisu.Gestionnaire</text>
<text xml:space="preserve" text-anchor="middle" x="2129.75" y="-160.5" font-family="Helvetica,sans-Serif" font-size="10.00">InterfaceController.afficheTemplate</text>
</a>
</g>
</g>
<!-- Node1&#45;&gt;Node4 -->
<g id="edge42_Node000001_Node000004" class="edge">
<title>Node1&#45;&gt;Node4</title>
<g id="a_edge42_Node000001_Node000004"><a xlink:title=" ">
<path fill="none" stroke="#63b8ff" d="M2644.99,-105.75C2529.93,-120.12 2327.25,-145.45 2213.74,-159.63"/>
<polygon fill="#63b8ff" stroke="#63b8ff" points="2645.2,-109.25 2654.69,-104.53 2644.33,-102.3 2645.2,-109.25"/>
</a>
</g>
</g>
<!-- Node12 -->
<g id="Node000012" class="node">
<title>Node12</title>
<g id="a_Node000012"><a xlink:href="classediteurpanovisu_1_1EditeurPanovisu.html#a94e36b9e9d09ab1a4c852b8a8cefa927" target="_top" xlink:title=" ">
<polygon fill="white" stroke="#666666" points="663,-274 472.25,-274 472.25,-242 663,-242 663,-274"/>
<text xml:space="preserve" text-anchor="start" x="480.25" y="-260.5" font-family="Helvetica,sans-Serif" font-size="10.00">editeurpanovisu.EditeurPanovisu.genere</text>
<text xml:space="preserve" text-anchor="middle" x="567.62" y="-248.5" font-family="Helvetica,sans-Serif" font-size="10.00">Visite</text>
</a>
</g>
</g>
<!-- Node1&#45;&gt;Node12 -->
<g id="edge43_Node000001_Node000012" class="edge">
<title>Node1&#45;&gt;Node12</title>
<g id="a_edge43_Node000001_Node000012"><a xlink:title=" ">
<path fill="none" stroke="#63b8ff" d="M2644.73,-84.92C2432.59,-60.47 1889.53,0 1707.25,0 1707.25,0 1707.25,0 1260,0 1116.2,0 1077.28,-9.62 941.5,-57 800.89,-106.07 649.42,-203.27 592.25,-241.76"/>
<polygon fill="#63b8ff" stroke="#63b8ff" points="2644.26,-88.39 2654.6,-86.06 2645.07,-81.44 2644.26,-88.39"/>
</a>
</g>
</g>
<!-- Node24 -->
<g id="Node000024" class="node">
<title>Node24</title>
<g id="a_Node000024"><a xlink:href="classediteurpanovisu_1_1GestionnaireInterfaceController.html#ab66509c63a85a8285a081b24049e8774" target="_top" xlink:title=" ">
<polygon fill="white" stroke="#666666" points="2620.5,-48 2454.5,-48 2454.5,-16 2620.5,-16 2620.5,-48"/>
<text xml:space="preserve" text-anchor="start" x="2462.5" y="-34.5" font-family="Helvetica,sans-Serif" font-size="10.00">editeurpanovisu.Gestionnaire</text>
<text xml:space="preserve" text-anchor="middle" x="2537.5" y="-22.5" font-family="Helvetica,sans-Serif" font-size="10.00">InterfaceController.strGetTemplate</text>
</a>
</g>
</g>
<!-- Node1&#45;&gt;Node24 -->
<g id="edge44_Node000001_Node000024" class="edge">
<title>Node1&#45;&gt;Node24</title>
<g id="a_edge44_Node000001_Node000024"><a xlink:title=" ">
<path fill="none" stroke="#63b8ff" d="M2651.65,-69.03C2630.35,-62.06 2607.92,-54.72 2588.7,-48.43"/>
<polygon fill="#63b8ff" stroke="#63b8ff" points="2650.29,-72.27 2660.88,-72.05 2652.46,-65.61 2650.29,-72.27"/>
</a>
</g>
</g>
<!-- Node3 -->
<g id="Node000003" class="node">
<title>Node3</title>
<g id="a_Node000003"><a xlink:href="classediteurpanovisu_1_1GestionnaireInterfaceController.html#a7c5cff6934d95be9a4babb6426a5ac26" target="_top" xlink:title=" ">
<polygon fill="white" stroke="#666666" points="2414,-242 2254,-242 2254,-198 2414,-198 2414,-242"/>
<text xml:space="preserve" text-anchor="start" x="2262" y="-228.5" font-family="Helvetica,sans-Serif" font-size="10.00">editeurpanovisu.Gestionnaire</text>
<text xml:space="preserve" text-anchor="start" x="2262" y="-216.5" font-family="Helvetica,sans-Serif" font-size="10.00">InterfaceController.afficheImages</text>
<text xml:space="preserve" text-anchor="middle" x="2334" y="-204.5" font-family="Helvetica,sans-Serif" font-size="10.00">FondInterface</text>
</a>
</g>
</g>
<!-- Node2&#45;&gt;Node3 -->
<g id="edge2_Node000002_Node000003" class="edge">
<title>Node2&#45;&gt;Node3</title>
<g id="a_edge2_Node000002_Node000003"><a xlink:title=" ">
<path fill="none" stroke="#63b8ff" d="M2450.39,-234.32C2438.43,-232.83 2426.18,-231.31 2414.35,-229.85"/>
<polygon fill="#63b8ff" stroke="#63b8ff" points="2449.9,-237.78 2460.25,-235.54 2450.76,-230.84 2449.9,-237.78"/>
</a>
</g>
</g>
<!-- Node2&#45;&gt;Node4 -->
<g id="edge3_Node000002_Node000004" class="edge">
<title>Node2&#45;&gt;Node4</title>
<g id="a_edge3_Node000002_Node000004"><a xlink:title=" ">
<path fill="none" stroke="#63b8ff" d="M2488.94,-217.39C2468.02,-206.59 2442.73,-195.3 2418.5,-189 2351.15,-171.48 2272.11,-167.38 2213.92,-167.3"/>
<polygon fill="#63b8ff" stroke="#63b8ff" points="2487.02,-220.33 2497.49,-221.92 2490.29,-214.14 2487.02,-220.33"/>
</a>
</g>
</g>
<!-- Node18 -->
<g id="Node000018" class="node">
<title>Node18</title>
<g id="a_Node000018"><a xlink:href="classediteurpanovisu_1_1GestionnaireInterfaceController.html#a5bdd1505c1ad1eee506c2618c9368994" target="_top" xlink:title=" ">
<polygon fill="white" stroke="#666666" points="2418.5,-330 2249.5,-330 2249.5,-298 2418.5,-298 2418.5,-330"/>
<text xml:space="preserve" text-anchor="start" x="2257.5" y="-316.5" font-family="Helvetica,sans-Serif" font-size="10.00">editeurpanovisu.Gestionnaire</text>
<text xml:space="preserve" text-anchor="middle" x="2334" y="-304.5" font-family="Helvetica,sans-Serif" font-size="10.00">InterfaceController.afficheVignettes</text>
</a>
</g>
</g>
<!-- Node2&#45;&gt;Node18 -->
<g id="edge29_Node000002_Node000018" class="edge">
<title>Node2&#45;&gt;Node18</title>
<g id="a_edge29_Node000002_Node000018"><a xlink:title=" ">
<path fill="none" stroke="#63b8ff" d="M2460.24,-271.11C2434.33,-279.99 2406.12,-289.65 2383.05,-297.55"/>
<polygon fill="#63b8ff" stroke="#63b8ff" points="2461.04,-274.54 2469.37,-267.99 2458.77,-267.92 2461.04,-274.54"/>
</a>
</g>
</g>
<!-- Node20 -->
<g id="Node000020" class="node">
<title>Node20</title>
<g id="a_Node000020"><a xlink:href="classediteurpanovisu_1_1GestionnaireInterfaceController.html#ac7fa988dc99d8684686127a2269cd66e" target="_top" xlink:title=" ">
<polygon fill="white" stroke="#666666" points="2000.62,-418 1844.38,-418 1844.38,-386 2000.62,-386 2000.62,-418"/>
<text xml:space="preserve" text-anchor="start" x="1852.38" y="-404.5" font-family="Helvetica,sans-Serif" font-size="10.00">editeurpanovisu.Gestionnaire</text>
<text xml:space="preserve" text-anchor="middle" x="1922.5" y="-392.5" font-family="Helvetica,sans-Serif" font-size="10.00">InterfaceController.creeInterface</text>
</a>
</g>
</g>
<!-- Node2&#45;&gt;Node20 -->
<g id="edge40_Node000002_Node000020" class="edge">
<title>Node2&#45;&gt;Node20</title>
<g id="a_edge40_Node000002_Node000020"><a xlink:title=" ">
<path fill="none" stroke="#63b8ff" d="M2507.23,-275.24C2484.92,-296.45 2452.34,-323.66 2418.5,-339 2281.21,-401.24 2101.87,-407.98 2001.07,-405.91"/>
<polygon fill="#63b8ff" stroke="#63b8ff" points="2509.44,-277.97 2514.18,-268.5 2504.57,-272.95 2509.44,-277.97"/>
</a>
</g>
</g>
<!-- Node21 -->
<g id="Node000021" class="node">
<title>Node21</title>
<g id="a_Node000021"><a xlink:href="classediteurpanovisu_1_1GestionnaireInterfaceController.html#a568c34e865fb653f63b8fa7a9a9cafc8" target="_top" xlink:title=" ">
<polygon fill="white" stroke="#666666" points="2200.75,-286 2058.75,-286 2058.75,-254 2200.75,-254 2200.75,-286"/>
<text xml:space="preserve" text-anchor="start" x="2066.75" y="-272.5" font-family="Helvetica,sans-Serif" font-size="10.00">editeurpanovisu.Gestionnaire</text>
<text xml:space="preserve" text-anchor="middle" x="2129.75" y="-260.5" font-family="Helvetica,sans-Serif" font-size="10.00">InterfaceController.rafraichit</text>
</a>
</g>
</g>
<!-- Node2&#45;&gt;Node21 -->
<g id="edge41_Node000002_Node000021" class="edge">
<title>Node2&#45;&gt;Node21</title>
<g id="a_edge41_Node000002_Node000021"><a xlink:title=" ">
<path fill="none" stroke="#63b8ff" d="M2450.44,-250.3C2376.22,-254.88 2270.38,-261.4 2201.13,-265.66"/>
<polygon fill="#63b8ff" stroke="#63b8ff" points="2450.33,-253.82 2460.1,-249.71 2449.9,-246.83 2450.33,-253.82"/>
</a>
</g>
</g>
<!-- Node5 -->
<g id="Node000005" class="node">
<title>Node5</title>
<g id="a_Node000005"><a xlink:href="classediteurpanovisu_1_1EditeurPanovisu.html#a87b29dc258cfc67370b1f27809e91b8e" target="_top" xlink:title=" ">
<polygon fill="white" stroke="#666666" points="2010,-186 1835,-186 1835,-154 2010,-154 2010,-186"/>
<text xml:space="preserve" text-anchor="start" x="1843" y="-172.5" font-family="Helvetica,sans-Serif" font-size="10.00">editeurpanovisu.EditeurPanovisu.tsk</text>
<text xml:space="preserve" text-anchor="middle" x="1922.5" y="-160.5" font-family="Helvetica,sans-Serif" font-size="10.00">AnalyseFichierPVU</text>
</a>
</g>
</g>
<!-- Node4&#45;&gt;Node5 -->
<g id="edge4_Node000004_Node000005" class="edge">
<title>Node4&#45;&gt;Node5</title>
<g id="a_edge4_Node000004_Node000005"><a xlink:title=" ">
<path fill="none" stroke="#63b8ff" d="M2034.1,-170C2026.23,-170 2018.29,-170 2010.48,-170"/>
<polygon fill="#63b8ff" stroke="#63b8ff" points="2034.05,-173.5 2044.05,-170 2034.05,-166.5 2034.05,-173.5"/>
</a>
</g>
</g>
<!-- Node6 -->
<g id="Node000006" class="node">
<title>Node6</title>
<g id="a_Node000006"><a xlink:href="classediteurpanovisu_1_1EditeurPanovisu.html#ab4beb1597b660a4a253befc6e76f1c54" target="_top" xlink:title=" ">
<polygon fill="white" stroke="#666666" points="1129.62,-98 944.12,-98 944.12,-66 1129.62,-66 1129.62,-98"/>
<text xml:space="preserve" text-anchor="start" x="952.12" y="-84.5" font-family="Helvetica,sans-Serif" font-size="10.00">editeurpanovisu.EditeurPanovisu.projet</text>
<text xml:space="preserve" text-anchor="middle" x="1036.88" y="-72.5" font-family="Helvetica,sans-Serif" font-size="10.00">Charge</text>
</a>
</g>
</g>
<!-- Node5&#45;&gt;Node6 -->
<g id="edge5_Node000005_Node000006" class="edge">
<title>Node5&#45;&gt;Node6</title>
<g id="a_edge5_Node000005_Node000006"><a xlink:title=" ">
<path fill="none" stroke="#63b8ff" d="M1831.83,-151.36C1820.78,-149.17 1809.64,-147 1799,-145 1700.83,-126.57 1676.8,-117.78 1577.5,-107 1420.86,-90 1237.41,-84.55 1129.8,-82.81"/>
<polygon fill="#63b8ff" stroke="#63b8ff" points="1830.85,-154.74 1841.34,-153.27 1832.22,-147.87 1830.85,-154.74"/>
</a>
</g>
</g>
<!-- Node9 -->
<g id="Node000009" class="node">
<title>Node9</title>
<g id="a_Node000009"><a xlink:href="classediteurpanovisu_1_1EditeurPanovisu.html#a6d19b4d885ee6fcec827b91956295732" target="_top" xlink:title=" ">
<polygon fill="white" stroke="#666666" points="1799,-186 1613.5,-186 1613.5,-154 1799,-154 1799,-186"/>
<text xml:space="preserve" text-anchor="start" x="1621.5" y="-172.5" font-family="Helvetica,sans-Serif" font-size="10.00">editeurpanovisu.EditeurPanovisu.projet</text>
<text xml:space="preserve" text-anchor="middle" x="1706.25" y="-160.5" font-family="Helvetica,sans-Serif" font-size="10.00">ChargeNom</text>
</a>
</g>
</g>
<!-- Node5&#45;&gt;Node9 -->
<g id="edge8_Node000005_Node000009" class="edge">
<title>Node5&#45;&gt;Node9</title>
<g id="a_edge8_Node000005_Node000009"><a xlink:title=" ">
<path fill="none" stroke="#63b8ff" d="M1823.16,-170C1815.26,-170 1807.3,-170 1799.45,-170"/>
<polygon fill="#63b8ff" stroke="#63b8ff" points="1823.15,-173.5 1833.15,-170 1823.15,-166.5 1823.15,-173.5"/>
</a>
</g>
</g>
<!-- Node7 -->
<g id="Node000007" class="node">
<title>Node7</title>
<g id="a_Node000007"><a xlink:href="classediteurpanovisu_1_1EditeurPanovisu.html#ac912b80c1f2ac97def60ff005c5c480b" target="_top" xlink:title=" ">
<polygon fill="white" stroke="#666666" points="420.5,-246 216.25,-246 216.25,-226 420.5,-226 420.5,-246"/>
<text xml:space="preserve" text-anchor="middle" x="318.38" y="-232.5" font-family="Helvetica,sans-Serif" font-size="10.00">editeurpanovisu.EditeurPanovisu.creeMenu</text>
</a>
</g>
</g>
<!-- Node6&#45;&gt;Node7 -->
<g id="edge6_Node000006_Node000007" class="edge">
<title>Node6&#45;&gt;Node7</title>
<g id="a_edge6_Node000006_Node000007"><a xlink:title=" ">
<path fill="none" stroke="#63b8ff" d="M932.6,-82.86C814.51,-86.63 616.83,-101.52 456.5,-156 407.44,-172.67 356.48,-208 332.88,-225.59"/>
<polygon fill="#63b8ff" stroke="#63b8ff" points="932.37,-86.37 942.26,-82.57 932.16,-79.37 932.37,-86.37"/>
</a>
</g>
</g>
<!-- Node8 -->
<g id="Node000008" class="node">
<title>Node8</title>
<g id="a_Node000008"><a xlink:href="classediteurpanovisu_1_1EditeurPanovisu.html#a86c393eee88f54c694db994ddd85b90d" target="_top" xlink:title=" ">
<polygon fill="white" stroke="#666666" points="180.25,-252 0,-252 0,-220 180.25,-220 180.25,-252"/>
<text xml:space="preserve" text-anchor="start" x="8" y="-238.5" font-family="Helvetica,sans-Serif" font-size="10.00">editeurpanovisu.EditeurPanovisu.cree</text>
<text xml:space="preserve" text-anchor="middle" x="90.12" y="-226.5" font-family="Helvetica,sans-Serif" font-size="10.00">Environnement</text>
</a>
</g>
</g>
<!-- Node7&#45;&gt;Node8 -->
<g id="edge7_Node000007_Node000008" class="edge">
<title>Node7&#45;&gt;Node8</title>
<g id="a_edge7_Node000007_Node000008"><a xlink:title=" ">
<path fill="none" stroke="#63b8ff" d="M204.51,-236C196.49,-236 188.46,-236 180.6,-236"/>
<polygon fill="#63b8ff" stroke="#63b8ff" points="204.32,-239.5 214.32,-236 204.32,-232.5 204.32,-239.5"/>
</a>
</g>
</g>
<!-- Node9&#45;&gt;Node7 -->
<g id="edge28_Node000009_Node000007" class="edge">
<title>Node9&#45;&gt;Node7</title>
<g id="a_edge28_Node000009_Node000007"><a xlink:title=" ">
<path fill="none" stroke="#63b8ff" d="M1627.04,-189.28C1520.88,-216.65 1326.3,-271.06 1168.25,-339 1151.43,-346.23 1149.97,-354.41 1132.25,-359 986.56,-396.75 599.79,-360.01 456.5,-314 407.47,-298.26 356.5,-263.57 332.88,-246.25"/>
<polygon fill="#63b8ff" stroke="#63b8ff" points="1627.69,-192.73 1636.5,-186.86 1625.95,-185.95 1627.69,-192.73"/>
</a>
</g>
</g>
<!-- Node10 -->
<g id="Node000010" class="node">
<title>Node10</title>
<g id="a_Node000010"><a xlink:href="classediteurpanovisu_1_1EditeurPanovisu.html#af0d1c32bb78acbff561c822a0d15f760" target="_top" xlink:title=" ">
<polygon fill="white" stroke="#666666" points="1577.5,-148 1389.75,-148 1389.75,-116 1577.5,-116 1577.5,-148"/>
<text xml:space="preserve" text-anchor="start" x="1397.75" y="-134.5" font-family="Helvetica,sans-Serif" font-size="10.00">editeurpanovisu.EditeurPanovisu.ajoute</text>
<text xml:space="preserve" text-anchor="middle" x="1483.62" y="-122.5" font-family="Helvetica,sans-Serif" font-size="10.00">FichierHisto</text>
</a>
</g>
</g>
<!-- Node9&#45;&gt;Node10 -->
<g id="edge9_Node000009_Node000010" class="edge">
<title>Node9&#45;&gt;Node10</title>
<g id="a_edge9_Node000009_Node000010"><a xlink:title=" ">
<path fill="none" stroke="#63b8ff" d="M1633.81,-151.33C1616.01,-147.9 1596.67,-144.46 1577.99,-141.4"/>
<polygon fill="#63b8ff" stroke="#63b8ff" points="1632.99,-154.74 1643.48,-153.23 1634.34,-147.87 1632.99,-154.74"/>
</a>
</g>
</g>
<!-- Node10&#45;&gt;Node6 -->
<g id="edge10_Node000010_Node000006" class="edge">
<title>Node10&#45;&gt;Node6</title>
<g id="a_edge10_Node000010_Node000006"><a xlink:title=" ">
<path fill="none" stroke="#63b8ff" d="M1378.05,-123.53C1316.81,-118.19 1238.04,-110.68 1168.25,-102 1155.87,-100.46 1142.84,-98.67 1130.02,-96.81"/>
<polygon fill="#63b8ff" stroke="#63b8ff" points="1377.5,-126.99 1387.77,-124.37 1378.11,-120.02 1377.5,-126.99"/>
</a>
</g>
</g>
<!-- Node10&#45;&gt;Node9 -->
<g id="edge11_Node000010_Node000009" class="edge">
<title>Node10&#45;&gt;Node9</title>
<g id="a_edge11_Node000010_Node000009"><a xlink:title=" ">
<path fill="none" stroke="#63b8ff" d="M1556.11,-150.68C1574.34,-154.19 1594.19,-157.71 1613.28,-160.83"/>
<polygon fill="#63b8ff" stroke="#63b8ff" points="1556.97,-147.28 1546.48,-148.78 1555.62,-154.15 1556.97,-147.28"/>
</a>
</g>
</g>
<!-- Node11 -->
<g id="Node000011" class="node">
<title>Node11</title>
<g id="a_Node000011"><a xlink:href="classediteurpanovisu_1_1EditeurPanovisu.html#a9f3ea25b35d4884524508dab3dc4fd6a" target="_top" xlink:title=" ">
<polygon fill="white" stroke="#666666" points="1353.75,-192 1168.25,-192 1168.25,-160 1353.75,-160 1353.75,-192"/>
<text xml:space="preserve" text-anchor="start" x="1176.25" y="-178.5" font-family="Helvetica,sans-Serif" font-size="10.00">editeurpanovisu.EditeurPanovisu.projet</text>
<text xml:space="preserve" text-anchor="middle" x="1261" y="-166.5" font-family="Helvetica,sans-Serif" font-size="10.00">Sauve</text>
</a>
</g>
</g>
<!-- Node10&#45;&gt;Node11 -->
<g id="edge12_Node000010_Node000011" class="edge">
<title>Node10&#45;&gt;Node11</title>
<g id="a_edge12_Node000010_Node000011"><a xlink:title=" ">
<path fill="none" stroke="#63b8ff" d="M1389.01,-150.67C1374.29,-153.6 1359.18,-156.62 1344.73,-159.5"/>
<polygon fill="#63b8ff" stroke="#63b8ff" points="1389.55,-154.13 1398.67,-148.74 1388.18,-147.27 1389.55,-154.13"/>
</a>
</g>
</g>
<!-- Node17 -->
<g id="Node000017" class="node">
<title>Node17</title>
<g id="a_Node000017"><a xlink:href="classediteurpanovisu_1_1EditeurPanovisu.html#a7b2e25dc717eb52b62e23d54ec4c124a" target="_top" xlink:title=" ">
<polygon fill="white" stroke="#666666" points="1353.75,-60 1168.25,-60 1168.25,-28 1353.75,-28 1353.75,-60"/>
<text xml:space="preserve" text-anchor="start" x="1176.25" y="-46.5" font-family="Helvetica,sans-Serif" font-size="10.00">editeurpanovisu.EditeurPanovisu.projet</text>
<text xml:space="preserve" text-anchor="middle" x="1261" y="-34.5" font-family="Helvetica,sans-Serif" font-size="10.00">SauveSous</text>
</a>
</g>
</g>
<!-- Node10&#45;&gt;Node17 -->
<g id="edge26_Node000010_Node000017" class="edge">
<title>Node10&#45;&gt;Node17</title>
<g id="a_edge26_Node000010_Node000017"><a xlink:title=" ">
<path fill="none" stroke="#63b8ff" d="M1430.78,-111.32C1391.8,-95.77 1339.11,-74.76 1303.04,-60.37"/>
<polygon fill="#63b8ff" stroke="#63b8ff" points="1429.39,-114.54 1439.98,-114.99 1431.99,-108.03 1429.39,-114.54"/>
</a>
</g>
</g>
<!-- Node11&#45;&gt;Node6 -->
<g id="edge16_Node000011_Node000006" class="edge">
<title>Node11&#45;&gt;Node6</title>
<g id="a_edge16_Node000011_Node000006"><a xlink:title=" ">
<path fill="none" stroke="#63b8ff" d="M1191.91,-155.37C1183.67,-151.77 1175.59,-147.65 1168.25,-143 1149.14,-130.88 1151.86,-118.29 1132.25,-107 1126.52,-103.7 1120.35,-100.83 1114,-98.33"/>
<polygon fill="#63b8ff" stroke="#63b8ff" points="1190.39,-158.54 1200.97,-159.09 1193.05,-152.06 1190.39,-158.54"/>
</a>
</g>
</g>
<!-- Node11&#45;&gt;Node7 -->
<g id="edge13_Node000011_Node000007" class="edge">
<title>Node11&#45;&gt;Node7</title>
<g id="a_edge13_Node000011_Node000007"><a xlink:title=" ">
<path fill="none" stroke="#63b8ff" d="M1156.38,-176C1046.61,-176.57 868.3,-179.16 714.75,-189 599.58,-196.38 571.01,-201.67 456.5,-216 433.94,-218.82 409.35,-222.29 387.3,-225.53"/>
<polygon fill="#63b8ff" stroke="#63b8ff" points="1156.27,-179.5 1166.25,-175.95 1156.24,-172.5 1156.27,-179.5"/>
</a>
</g>
</g>
<!-- Node11&#45;&gt;Node9 -->
<g id="edge17_Node000011_Node000009" class="edge">
<title>Node11&#45;&gt;Node9</title>
<g id="a_edge17_Node000011_Node000009"><a xlink:title=" ">
<path fill="none" stroke="#63b8ff" d="M1365.33,-174.6C1440.33,-173.59 1540.88,-172.22 1613.14,-171.25"/>
<polygon fill="#63b8ff" stroke="#63b8ff" points="1365.46,-171.1 1355.51,-174.73 1365.55,-178.1 1365.46,-171.1"/>
</a>
</g>
</g>
<!-- Node11&#45;&gt;Node12 -->
<g id="edge14_Node000011_Node000012" class="edge">
<title>Node11&#45;&gt;Node12</title>
<g id="a_edge14_Node000011_Node000012"><a xlink:title=" ">
<path fill="none" stroke="#63b8ff" d="M1195.7,-195.57C1175.53,-201.18 1153.09,-206.88 1132.25,-211 969.46,-243.18 775.97,-253.35 663.26,-256.55"/>
<polygon fill="#63b8ff" stroke="#63b8ff" points="1196.52,-198.97 1205.19,-192.88 1194.61,-192.24 1196.52,-198.97"/>
</a>
</g>
</g>
<!-- Node13 -->
<g id="Node000013" class="node">
<title>Node13</title>
<g id="a_Node000013"><a xlink:href="classediteurpanovisu_1_1EditeurPanovisu.html#a9b46b222714af12c06ec33d410400773" target="_top" xlink:title=" ">
<polygon fill="white" stroke="#666666" points="905.5,-230 714.75,-230 714.75,-198 905.5,-198 905.5,-230"/>
<text xml:space="preserve" text-anchor="start" x="722.75" y="-216.5" font-family="Helvetica,sans-Serif" font-size="10.00">editeurpanovisu.EditeurPanovisu.projets</text>
<text xml:space="preserve" text-anchor="middle" x="810.12" y="-204.5" font-family="Helvetica,sans-Serif" font-size="10.00">Fermer</text>
</a>
</g>
</g>
<!-- Node11&#45;&gt;Node13 -->
<g id="edge18_Node000011_Node000013" class="edge">
<title>Node11&#45;&gt;Node13</title>
<g id="a_edge18_Node000011_Node000013"><a xlink:title=" ">
<path fill="none" stroke="#63b8ff" d="M1156.67,-187.63C1148.41,-188.47 1140.19,-189.27 1132.25,-190 1056.12,-197.01 969.69,-203.38 905.69,-207.79"/>
<polygon fill="#63b8ff" stroke="#63b8ff" points="1156.84,-191.13 1166.42,-186.63 1156.12,-184.17 1156.84,-191.13"/>
</a>
</g>
</g>
<!-- Node14 -->
<g id="Node000014" class="node">
<title>Node14</title>
<g id="a_Node000014"><a xlink:href="classediteurpanovisu_1_1EditeurPanovisu.html#ac9d449399ccd38843fa12e716f0c9611" target="_top" xlink:title=" ">
<polygon fill="white" stroke="#666666" points="1132.25,-350 941.5,-350 941.5,-318 1132.25,-318 1132.25,-350"/>
<text xml:space="preserve" text-anchor="start" x="949.5" y="-336.5" font-family="Helvetica,sans-Serif" font-size="10.00">editeurpanovisu.EditeurPanovisu.projets</text>
<text xml:space="preserve" text-anchor="middle" x="1036.88" y="-324.5" font-family="Helvetica,sans-Serif" font-size="10.00">Nouveau</text>
</a>
</g>
</g>
<!-- Node11&#45;&gt;Node14 -->
<g id="edge20_Node000011_Node000014" class="edge">
<title>Node11&#45;&gt;Node14</title>
<g id="a_edge20_Node000011_Node000014"><a xlink:title=" ">
<path fill="none" stroke="#63b8ff" d="M1241.06,-201.25C1218.24,-230.01 1177.3,-276.56 1132.25,-304 1123.44,-309.37 1113.58,-313.86 1103.63,-317.61"/>
<polygon fill="#63b8ff" stroke="#63b8ff" points="1243.77,-203.46 1247.16,-193.42 1238.25,-199.16 1243.77,-203.46"/>
</a>
</g>
</g>
<!-- Node15 -->
<g id="Node000015" class="node">
<title>Node15</title>
<g id="a_Node000015"><a xlink:href="classediteurpanovisu_1_1EditeurPanovisu.html#a2b3125ffe2e6291efacf19df6cb30a8d" target="_top" xlink:title=" ">
<polygon fill="white" stroke="#666666" points="900.62,-306 719.62,-306 719.62,-286 900.62,-286 900.62,-306"/>
<text xml:space="preserve" text-anchor="middle" x="810.12" y="-292.5" font-family="Helvetica,sans-Serif" font-size="10.00">editeurpanovisu.EditeurPanovisu.start</text>
</a>
</g>
</g>
<!-- Node11&#45;&gt;Node15 -->
<g id="edge25_Node000011_Node000015" class="edge">
<title>Node11&#45;&gt;Node15</title>
<g id="a_edge25_Node000011_Node000015"><a xlink:title=" ">
<path fill="none" stroke="#63b8ff" d="M1234.86,-199.82C1210.64,-221.19 1171.92,-251.36 1132.25,-266 1057.65,-293.52 967.01,-299.74 901.07,-299.82"/>
<polygon fill="#63b8ff" stroke="#63b8ff" points="1236.89,-202.7 1241.98,-193.41 1232.21,-197.5 1236.89,-202.7"/>
</a>
</g>
</g>
<!-- Node16 -->
<g id="Node000016" class="node">
<title>Node16</title>
<g id="a_Node000016"><a xlink:href="classediteurpanovisu_1_1EditeurPanovisu.html#aef8c9b28c3e88d6e27e3f62b9a901134" target="_top" xlink:title=" ">
<polygon fill="white" stroke="#666666" points="1130.75,-148 943,-148 943,-116 1130.75,-116 1130.75,-148"/>
<text xml:space="preserve" text-anchor="start" x="951" y="-134.5" font-family="Helvetica,sans-Serif" font-size="10.00">editeurpanovisu.EditeurPanovisu.sauve</text>
<text xml:space="preserve" text-anchor="middle" x="1036.88" y="-122.5" font-family="Helvetica,sans-Serif" font-size="10.00">Fichiers</text>
</a>
</g>
</g>
<!-- Node11&#45;&gt;Node16 -->
<g id="edge24_Node000011_Node000016" class="edge">
<title>Node11&#45;&gt;Node16</title>
<g id="a_edge24_Node000011_Node000016"><a xlink:title=" ">
<path fill="none" stroke="#63b8ff" d="M1165.74,-157.33C1150.93,-154.4 1135.71,-151.38 1121.17,-148.5"/>
<polygon fill="#63b8ff" stroke="#63b8ff" points="1165,-160.75 1175.49,-159.26 1166.36,-153.88 1165,-160.75"/>
</a>
</g>
</g>
<!-- Node12&#45;&gt;Node7 -->
<g id="edge15_Node000012_Node000007" class="edge">
<title>Node12&#45;&gt;Node7</title>
<g id="a_edge15_Node000012_Node000007"><a xlink:title=" ">
<path fill="none" stroke="#63b8ff" d="M460.99,-248.6C447.68,-247.42 434.09,-246.21 420.85,-245.03"/>
<polygon fill="#63b8ff" stroke="#63b8ff" points="460.31,-252.05 470.58,-249.45 460.93,-245.08 460.31,-252.05"/>
</a>
</g>
</g>
<!-- Node13&#45;&gt;Node7 -->
<g id="edge19_Node000013_Node000007" class="edge">
<title>Node13&#45;&gt;Node7</title>
<g id="a_edge19_Node000013_Node000007"><a xlink:title=" ">
<path fill="none" stroke="#63b8ff" d="M703.08,-218.76C619.42,-222.52 503.48,-227.73 420.99,-231.44"/>
<polygon fill="#63b8ff" stroke="#63b8ff" points="703.06,-222.27 712.89,-218.32 702.75,-215.28 703.06,-222.27"/>
</a>
</g>
</g>
<!-- Node14&#45;&gt;Node7 -->
<g id="edge21_Node000014_Node000007" class="edge">
<title>Node14&#45;&gt;Node7</title>
<g id="a_edge21_Node000014_Node000007"><a xlink:title=" ">
<path fill="none" stroke="#63b8ff" d="M929.59,-333.44C812.33,-330.8 618.73,-320.43 456.5,-283 416.53,-273.78 371.87,-257.25 344.69,-246.45"/>
<polygon fill="#63b8ff" stroke="#63b8ff" points="929.46,-336.94 939.53,-333.65 929.61,-329.94 929.46,-336.94"/>
</a>
</g>
</g>
<!-- Node14&#45;&gt;Node15 -->
<g id="edge22_Node000014_Node000015" class="edge">
<title>Node14&#45;&gt;Node15</title>
<g id="a_edge22_Node000014_Node000015"><a xlink:title=" ">
<path fill="none" stroke="#63b8ff" d="M930.08,-316.11C910.55,-312.81 890.75,-309.46 873.06,-306.47"/>
<polygon fill="#63b8ff" stroke="#63b8ff" points="929.28,-319.53 939.72,-317.74 930.44,-312.62 929.28,-319.53"/>
</a>
</g>
</g>
<!-- Node15&#45;&gt;Node12 -->
<g id="edge23_Node000015_Node000012" class="edge">
<title>Node15&#45;&gt;Node12</title>
<g id="a_edge23_Node000015_Node000012"><a xlink:title=" ">
<path fill="none" stroke="#63b8ff" d="M731.58,-283.75C709.77,-280.3 685.8,-276.51 663.12,-272.93"/>
<polygon fill="#63b8ff" stroke="#63b8ff" points="730.85,-287.18 741.28,-285.28 731.94,-280.26 730.85,-287.18"/>
</a>
</g>
</g>
<!-- Node17&#45;&gt;Node7 -->
<g id="edge27_Node000017_Node000007" class="edge">
<title>Node17&#45;&gt;Node7</title>
<g id="a_edge27_Node000017_Node000007"><a xlink:title=" ">
<path fill="none" stroke="#63b8ff" d="M1156.64,-29.35C997.92,-11.6 688.27,3.95 456.5,-103 394.77,-131.49 343.97,-199.64 326.18,-225.66"/>
<polygon fill="#63b8ff" stroke="#63b8ff" points="1155.96,-32.79 1166.3,-30.45 1156.76,-25.84 1155.96,-32.79"/>
</a>
</g>
</g>
<!-- Node18&#45;&gt;Node4 -->
<g id="edge30_Node000018_Node000004" class="edge">
<title>Node18&#45;&gt;Node4</title>
<g id="a_edge30_Node000018_Node000004"><a xlink:title=" ">
<path fill="none" stroke="#63b8ff" d="M2300.92,-291.16C2259.9,-261.96 2189.89,-212.11 2153.78,-186.4"/>
<polygon fill="#63b8ff" stroke="#63b8ff" points="2298.78,-293.93 2308.96,-296.88 2302.84,-288.23 2298.78,-293.93"/>
</a>
</g>
</g>
<!-- Node19 -->
<g id="Node000019" class="node">
<title>Node19</title>
<g id="a_Node000019"><a xlink:href="classediteurpanovisu_1_1GestionnaireInterfaceController.html#a8c634f775c31c1a4db22d5ef0659f7e4" target="_top" xlink:title=" ">
<polygon fill="white" stroke="#666666" points="2203.38,-336 2056.12,-336 2056.12,-304 2203.38,-304 2203.38,-336"/>
<text xml:space="preserve" text-anchor="start" x="2064.12" y="-322.5" font-family="Helvetica,sans-Serif" font-size="10.00">editeurpanovisu.Gestionnaire</text>
<text xml:space="preserve" text-anchor="middle" x="2129.75" y="-310.5" font-family="Helvetica,sans-Serif" font-size="10.00">InterfaceController.afficheTitre</text>
</a>
</g>
</g>
<!-- Node18&#45;&gt;Node19 -->
<g id="edge31_Node000018_Node000019" class="edge">
<title>Node18&#45;&gt;Node19</title>
<g id="a_edge31_Node000018_Node000019"><a xlink:title=" ">
<path fill="none" stroke="#63b8ff" d="M2237.87,-316.82C2226.41,-317.16 2214.84,-317.51 2203.76,-317.83"/>
<polygon fill="#63b8ff" stroke="#63b8ff" points="2237.87,-320.32 2247.76,-316.53 2237.66,-313.33 2237.87,-320.32"/>
</a>
</g>
</g>
<!-- Node18&#45;&gt;Node20 -->
<g id="edge33_Node000018_Node000020" class="edge">
<title>Node18&#45;&gt;Node20</title>
<g id="a_edge33_Node000018_Node000020"><a xlink:title=" ">
<path fill="none" stroke="#63b8ff" d="M2261.61,-333.26C2245.81,-337.32 2229.12,-341.44 2213.5,-345 2141.83,-361.32 2059.57,-377.23 2001,-388.07"/>
<polygon fill="#63b8ff" stroke="#63b8ff" points="2262.11,-336.75 2270.91,-330.85 2260.36,-329.97 2262.11,-336.75"/>
</a>
</g>
</g>
<!-- Node18&#45;&gt;Node21 -->
<g id="edge34_Node000018_Node000021" class="edge">
<title>Node18&#45;&gt;Node21</title>
<g id="a_edge34_Node000018_Node000021"><a xlink:title=" ">
<path fill="none" stroke="#63b8ff" d="M2246.5,-295.18C2231.4,-291.9 2215.85,-288.51 2201.24,-285.34"/>
<polygon fill="#63b8ff" stroke="#63b8ff" points="2245.41,-298.53 2255.92,-297.23 2246.9,-291.69 2245.41,-298.53"/>
</a>
</g>
</g>
<!-- Node19&#45;&gt;Node20 -->
<g id="edge32_Node000019_Node000020" class="edge">
<title>Node19&#45;&gt;Node20</title>
<g id="a_edge32_Node000019_Node000020"><a xlink:title=" ">
<path fill="none" stroke="#63b8ff" d="M2067.49,-340.63C2060.16,-343.56 2052.85,-346.71 2046,-350 2029.1,-358.13 2026.96,-363.99 2010,-372 1999.51,-376.95 1987.97,-381.52 1976.83,-385.52"/>
<polygon fill="#63b8ff" stroke="#63b8ff" points="2068.72,-343.91 2076.79,-337.04 2066.2,-337.38 2068.72,-343.91"/>
</a>
</g>
</g>
<!-- Node21&#45;&gt;Node5 -->
<g id="edge35_Node000021_Node000005" class="edge">
<title>Node21&#45;&gt;Node5</title>
<g id="a_edge35_Node000021_Node000005"><a xlink:title=" ">
<path fill="none" stroke="#63b8ff" d="M2085.01,-248.69C2046.81,-230.08 1992.17,-203.46 1957.26,-186.45"/>
<polygon fill="#63b8ff" stroke="#63b8ff" points="2083.43,-251.81 2093.96,-253.05 2086.5,-245.52 2083.43,-251.81"/>
</a>
</g>
</g>
<!-- Node22 -->
<g id="Node000022" class="node">
<title>Node22</title>
<g id="a_Node000022"><a xlink:href="classediteurpanovisu_1_1EditeurPanovisu.html#a53cccf6a6b2693c872947460b66ae8ee" target="_top" xlink:title=" ">
<polygon fill="white" stroke="#666666" points="1348.5,-380 1173.5,-380 1173.5,-348 1348.5,-348 1348.5,-380"/>
<text xml:space="preserve" text-anchor="start" x="1181.5" y="-366.5" font-family="Helvetica,sans-Serif" font-size="10.00">editeurpanovisu.EditeurPanovisu.tsk</text>
<text xml:space="preserve" text-anchor="middle" x="1261" y="-354.5" font-family="Helvetica,sans-Serif" font-size="10.00">ChargeListeFichiers</text>
</a>
</g>
</g>
<!-- Node21&#45;&gt;Node22 -->
<g id="edge36_Node000021_Node000022" class="edge">
<title>Node21&#45;&gt;Node22</title>
<g id="a_edge36_Node000021_Node000022"><a xlink:title=" ">
<path fill="none" stroke="#63b8ff" d="M2046.91,-280.04C1939.31,-293.12 1744.36,-316.38 1577.5,-334 1500.21,-342.16 1412.16,-350.45 1348.76,-356.24"/>
<polygon fill="#63b8ff" stroke="#63b8ff" points="2047.31,-283.52 2056.81,-278.83 2046.47,-276.57 2047.31,-283.52"/>
</a>
</g>
</g>
<!-- Node22&#45;&gt;Node14 -->
<g id="edge39_Node000022_Node000014" class="edge">
<title>Node22&#45;&gt;Node14</title>
<g id="a_edge39_Node000022_Node000014"><a xlink:title=" ">
<path fill="none" stroke="#63b8ff" d="M1161.88,-350.75C1152.2,-349.44 1142.38,-348.11 1132.73,-346.81"/>
<polygon fill="#63b8ff" stroke="#63b8ff" points="1161.29,-354.2 1171.67,-352.07 1162.22,-347.26 1161.29,-354.2"/>
</a>
</g>
</g>
<!-- Node23 -->
<g id="Node000023" class="node">
<title>Node23</title>
<g id="a_Node000023"><a xlink:href="classediteurpanovisu_1_1EditeurPanovisu.html#a924d3ccff3e4f402d2309cd2eade3237" target="_top" xlink:title=" ">
<polygon fill="white" stroke="#666666" points="678.75,-438 456.5,-438 456.5,-406 678.75,-406 678.75,-438"/>
<text xml:space="preserve" text-anchor="start" x="464.5" y="-424.5" font-family="Helvetica,sans-Serif" font-size="10.00">editeurpanovisu.EditeurPanovisu.panoramiques</text>
<text xml:space="preserve" text-anchor="middle" x="567.62" y="-412.5" font-family="Helvetica,sans-Serif" font-size="10.00">Ajouter</text>
</a>
</g>
</g>
<!-- Node22&#45;&gt;Node23 -->
<g id="edge37_Node000022_Node000023" class="edge">
<title>Node22&#45;&gt;Node23</title>
<g id="a_edge37_Node000022_Node000023"><a xlink:title=" ">
<path fill="none" stroke="#63b8ff" d="M1183.79,-382.83C1166.91,-386.4 1149.05,-389.73 1132.25,-392 975.79,-413.17 793.01,-419.57 679.02,-421.41"/>
<polygon fill="#63b8ff" stroke="#63b8ff" points="1184.21,-386.32 1193.24,-380.77 1182.72,-379.47 1184.21,-386.32"/>
</a>
</g>
</g>
<!-- Node23&#45;&gt;Node7 -->
<g id="edge38_Node000023_Node000007" class="edge">
<title>Node23&#45;&gt;Node7</title>
<g id="a_edge38_Node000023_Node000007"><a xlink:title=" ">
<path fill="none" stroke="#63b8ff" d="M474.32,-401.32C468.11,-398.59 462.1,-395.49 456.5,-392 392.87,-352.3 342.11,-274.13 325.32,-246.21"/>
<polygon fill="#63b8ff" stroke="#63b8ff" points="472.95,-404.55 483.54,-405.04 475.57,-398.05 472.95,-404.55"/>
</a>
</g>
</g>
<!-- Node25 -->
<g id="Node000025" class="node">
<title>Node25</title>
<g id="a_Node000025"><a xlink:href="classediteurpanovisu_1_1EditeurPanovisu.html#aaee69ab54364f89b58458c744a4195c0" target="_top" xlink:title=" ">
<polygon fill="white" stroke="#666666" points="1577.5,-60 1389.75,-60 1389.75,-28 1577.5,-28 1577.5,-60"/>
<text xml:space="preserve" text-anchor="start" x="1397.75" y="-46.5" font-family="Helvetica,sans-Serif" font-size="10.00">editeurpanovisu.EditeurPanovisu.sauve</text>
<text xml:space="preserve" text-anchor="middle" x="1483.62" y="-34.5" font-family="Helvetica,sans-Serif" font-size="10.00">FichierProjet</text>
</a>
</g>
</g>
<!-- Node24&#45;&gt;Node25 -->
<g id="edge45_Node000024_Node000025" class="edge">
<title>Node24&#45;&gt;Node25</title>
<g id="a_edge45_Node000024_Node000025"><a xlink:title=" ">
<path fill="none" stroke="#63b8ff" d="M2442.8,-34.17C2360.57,-35.89 2237.73,-38 2130.75,-38 2130.75,-38 2130.75,-38 1921.5,-38 1802.98,-38 1666.39,-40.24 1577.94,-41.98"/>
<polygon fill="#63b8ff" stroke="#63b8ff" points="2442.69,-37.67 2452.62,-33.96 2442.55,-30.68 2442.69,-37.67"/>
</a>
</g>
</g>
<!-- Node25&#45;&gt;Node11 -->
<g id="edge46_Node000025_Node000011" class="edge">
<title>Node25&#45;&gt;Node11</title>
<g id="a_edge46_Node000025_Node000011"><a xlink:title=" ">
<path fill="none" stroke="#63b8ff" d="M1445.36,-66.29C1401.25,-92.69 1328.82,-136.02 1289.5,-159.55"/>
<polygon fill="#63b8ff" stroke="#63b8ff" points="1447.05,-69.37 1453.83,-61.23 1443.45,-63.36 1447.05,-69.37"/>
</a>
</g>
</g>
<!-- Node25&#45;&gt;Node17 -->
<g id="edge47_Node000025_Node000017" class="edge">
<title>Node25&#45;&gt;Node17</title>
<g id="a_edge47_Node000025_Node000017"><a xlink:title=" ">
<path fill="none" stroke="#63b8ff" d="M1378.13,-44C1370.14,-44 1362.11,-44 1354.21,-44"/>
<polygon fill="#63b8ff" stroke="#63b8ff" points="1377.87,-47.5 1387.87,-44 1377.87,-40.5 1377.87,-47.5"/>
</a>
</g>
</g>
</g>
</svg>

<g id="navigator" transform="translate(0 0)" fill="#404254">
  <rect fill="#f2f5e9" fill-opacity="0.5" stroke="#606060" stroke-width=".5" x="0" y="0" width="60" height="60"/>
  <use id="zoomplus" xlink:href="#zoomPlus" x="17" y="9" onmousedown="handleZoom(evt,'in')"/>
  <use id="zoomminus" xlink:href="#zoomMin" x="42" y="9" onmousedown="handleZoom(evt,'out')"/>
  <use id="reset" xlink:href="#resetDef" x="30" y="36" onmousedown="handleReset()"/>
   <use id="arrowup" xlink:href="#arrowUp" x="0" y="0" onmousedown="handlePan(0,-1)"/>
  <use id="arrowright" xlink:href="#arrowRight" x="0" y="0" onmousedown="handlePan(1,0)"/>
  <use id="arrowdown" xlink:href="#arrowDown" x="0" y="0" onmousedown="handlePan(0,1)"/>
  <use id="arrowleft" xlink:href="#arrowLeft" x="0" y="0" onmousedown="handlePan(-1,0)"/>
</g>
<svg viewBox="0 0 15 15" width="100%" height="30px" preserveAspectRatio="xMaxYMin meet">
 <g id="arrow_out" transform="scale(0.3 0.3)">
  <a xlink:href="classediteurpanovisu_1_1GestionnaireInterfaceController_a6dfc7ea6f731583f56742859137a8516_icgraph_org.svg" target="_base">
   <rect id="button" ry="5" rx="5" y="6" x="6" height="38" width="38"
        fill="#f2f5e9" fill-opacity="0.5" stroke="#606060" stroke-width="1.0"/>
   <path id="arrow"
     d="M 11.500037,31.436501 C 11.940474,20.09759 22.043105,11.32322 32.158766,21.979434 L 37.068811,17.246167 C 37.068811,17.246167 37.088388,32 37.088388,32 L 22.160133,31.978069 C 22.160133,31.978069 26.997745,27.140456 26.997745,27.140456 C 18.528582,18.264221 13.291696,25.230495 11.500037,31.436501 z"
     style="fill:#404040;"/>
  </a>
 </g>
</svg>

<style type='text/css'>
<![CDATA[
[data-mouse-over-selected='false'] { opacity: 0.7; }
[data-mouse-over-selected='true']  { opacity: 1.0; }
]]>
</style>
<script type="application/ecmascript"><![CDATA[
document.addEventListener('DOMContentLoaded', (event) => {
  highlightEdges();
  highlightAdjacentNodes();
});
]]></script>
</svg>
