<?xml version="1.0" encoding="UTF-8" standalone="no"?>
<!DOCTYPE svg PUBLIC "-//W3C//DTD SVG 1.1//EN"
 "http://www.w3.org/Graphics/SVG/1.1/DTD/svg11.dtd">
<!-- Generated by graphviz version 13.1.2 (20250808.2320)
 -->
<!-- Title: editeurpanovisu.GestionnaireInterfaceController.isbAfficheVignettes Pages: 1 -->
<!--zoomable 757 -->

<svg id="main" version="1.1" xmlns="http://www.w3.org/2000/svg" xmlns:xlink="http://www.w3.org/1999/xlink" xml:space="preserve" onload="init(evt)">

<style type="text/css"><![CDATA[
.node, .edge {opacity: 0.7;}
.node.selected, .edge.selected {opacity: 1;}
.edge:hover path { stroke: red; }
.edge:hover polygon { stroke: red; fill: red; }
]]></style>

<defs>
  <circle id="rim" cx="0" cy="0" r="7"/>
  <circle id="rim2" cx="0" cy="0" r="3.5"/>
  <g id="zoomPlus">
    <use xlink:href="#rim" fill="#404040"><set attributeName="fill" to="#808080" begin="zoomplus.mouseover" end="zoomplus.mouseout"/></use>
    <path d="M-4,0h8M0,-4v8" fill="none" stroke="white" stroke-width="1.5" pointer-events="none"/>
  </g>
  <g id="zoomMin">
    <use xlink:href="#rim" fill="#404040"><set attributeName="fill" to="#808080" begin="zoomminus.mouseover" end="zoomminus.mouseout"/></use>
    <path d="M-4,0h8" fill="none" stroke="white" stroke-width="1.5" pointer-events="none"/>
  </g>
  <g id="arrowUp" transform="translate(30 24)">
    <use xlink:href="#rim"/>
    <path pointer-events="none" fill="none" stroke="white" stroke-width="1.5" d="M0,-3.0v7 M-2.5,-0.5L0,-3.0L2.5,-0.5"/>
  </g>
  <g id="arrowRight" transform="rotate(90) translate(36 -43)">
    <use xlink:href="#rim"/>
    <path pointer-events="none" fill="none" stroke="white" stroke-width="1.5" d="M0,-3.0v7 M-2.5,-0.5L0,-3.0L2.5,-0.5"/>
  </g>
  <g id="arrowDown" transform="rotate(180) translate(-30 -48)">
    <use xlink:href="#rim"/>
    <path pointer-events="none" fill="none" stroke="white" stroke-width="1.5" d="M0,-3.0v7 M-2.5,-0.5L0,-3.0L2.5,-0.5"/>
  </g>
  <g id="arrowLeft" transform="rotate(270) translate(-36 17)">
    <use xlink:href="#rim"/>
    <path pointer-events="none" fill="none" stroke="white" stroke-width="1.5" d="M0,-3.0v7 M-2.5,-0.5L0,-3.0L2.5,-0.5"/>
  </g>
  <g id="resetDef">
    <use xlink:href="#rim2" fill="#404040"><set attributeName="fill" to="#808080" begin="reset.mouseover" end="reset.mouseout"/></use>
  </g>
</defs>
<script type="application/ecmascript">
var viewWidth = 2888;
var viewHeight = 757;
var sectionId = 'dynsection-241';
</script>
<script type="application/ecmascript" xlink:href="svg.min.js"/>
<svg id="graph" class="graph">
<g id="viewport">
<title>editeurpanovisu.GestionnaireInterfaceController.isbAfficheVignettes</title>
<!-- Node1 -->
<g id="Node000001" class="node">
<title>Node1</title>
<g id="a_Node000001"><a xlink:title=" ">
<polygon fill="#999999" stroke="#666666" points="2879.5,-494.04 2696.25,-494.04 2696.25,-462.04 2879.5,-462.04 2879.5,-494.04"/>
<text xml:space="preserve" text-anchor="start" x="2704.25" y="-480.54" font-family="Helvetica,sans-Serif" font-size="10.00">editeurpanovisu.Gestionnaire</text>
<text xml:space="preserve" text-anchor="middle" x="2787.88" y="-468.54" font-family="Helvetica,sans-Serif" font-size="10.00">InterfaceController.isbAfficheVignettes</text>
</a>
</g>
</g>
<!-- Node2 -->
<g id="Node000002" class="node">
<title>Node2</title>
<g id="a_Node000002"><a xlink:href="classediteurpanovisu_1_1GestionnaireInterfaceController.html#af7f1e67219c75f044a231abc76bcf790" target="_top" xlink:title=" ">
<polygon fill="white" stroke="#666666" points="2652.75,-500.04 2501.75,-500.04 2501.75,-456.04 2652.75,-456.04 2652.75,-500.04"/>
<text xml:space="preserve" text-anchor="start" x="2509.75" y="-486.54" font-family="Helvetica,sans-Serif" font-size="10.00">editeurpanovisu.Gestionnaire</text>
<text xml:space="preserve" text-anchor="start" x="2509.75" y="-474.54" font-family="Helvetica,sans-Serif" font-size="10.00">InterfaceController.afficheBarre</text>
<text xml:space="preserve" text-anchor="middle" x="2577.25" y="-462.54" font-family="Helvetica,sans-Serif" font-size="10.00">Classique</text>
</a>
</g>
</g>
<!-- Node1&#45;&gt;Node2 -->
<g id="edge1_Node000001_Node000002" class="edge">
<title>Node1&#45;&gt;Node2</title>
<g id="a_edge1_Node000001_Node000002"><a xlink:title=" ">
<path fill="none" stroke="#63b8ff" d="M2684.55,-478.04C2673.99,-478.04 2663.4,-478.04 2653.22,-478.04"/>
<polygon fill="#63b8ff" stroke="#63b8ff" points="2684.46,-481.54 2694.46,-478.04 2684.46,-474.54 2684.46,-481.54"/>
</a>
</g>
</g>
<!-- Node4 -->
<g id="Node000004" class="node">
<title>Node4</title>
<g id="a_Node000004"><a xlink:href="classediteurpanovisu_1_1GestionnaireInterfaceController.html#a55c8afda208674955a13d48d02be41b8" target="_top" xlink:title=" ">
<polygon fill="white" stroke="#666666" points="2233.38,-341.04 2065.88,-341.04 2065.88,-309.04 2233.38,-309.04 2233.38,-341.04"/>
<text xml:space="preserve" text-anchor="start" x="2073.88" y="-327.54" font-family="Helvetica,sans-Serif" font-size="10.00">editeurpanovisu.Gestionnaire</text>
<text xml:space="preserve" text-anchor="middle" x="2149.62" y="-315.54" font-family="Helvetica,sans-Serif" font-size="10.00">InterfaceController.afficheTemplate</text>
</a>
</g>
</g>
<!-- Node1&#45;&gt;Node4 -->
<g id="edge49_Node000001_Node000004" class="edge">
<title>Node1&#45;&gt;Node4</title>
<g id="a_edge49_Node000001_Node000004"><a xlink:title=" ">
<path fill="none" stroke="#63b8ff" d="M2755.52,-455.05C2699.36,-415.48 2576.41,-335.94 2458.25,-307.04 2380.17,-287.94 2287.78,-297.46 2224.77,-308.58"/>
<polygon fill="#63b8ff" stroke="#63b8ff" points="2753.49,-457.9 2763.66,-460.85 2757.55,-452.2 2753.49,-457.9"/>
</a>
</g>
</g>
<!-- Node12 -->
<g id="Node000012" class="node">
<title>Node12</title>
<g id="a_Node000012"><a xlink:href="classediteurpanovisu_1_1EditeurPanovisu.html#a94e36b9e9d09ab1a4c852b8a8cefa927" target="_top" xlink:title=" ">
<polygon fill="white" stroke="#666666" points="647.25,-290.04 456.5,-290.04 456.5,-258.04 647.25,-258.04 647.25,-290.04"/>
<text xml:space="preserve" text-anchor="start" x="464.5" y="-276.54" font-family="Helvetica,sans-Serif" font-size="10.00">editeurpanovisu.EditeurPanovisu.genere</text>
<text xml:space="preserve" text-anchor="middle" x="551.88" y="-264.54" font-family="Helvetica,sans-Serif" font-size="10.00">Visite</text>
</a>
</g>
</g>
<!-- Node1&#45;&gt;Node12 -->
<g id="edge52_Node000001_Node000012" class="edge">
<title>Node1&#45;&gt;Node12</title>
<g id="a_edge52_Node000001_Node000012"><a xlink:title=" ">
<path fill="none" stroke="#63b8ff" d="M2774.67,-451.38C2755.93,-413.85 2716.27,-346.51 2660.25,-315.04 2581.47,-270.78 2548.44,-297.54 2458.25,-292.04 1670.8,-244.01 1472.07,-289.45 683.25,-277.04 671.7,-276.86 659.59,-276.63 647.58,-276.38"/>
<polygon fill="#63b8ff" stroke="#63b8ff" points="2771.43,-452.73 2778.94,-460.2 2777.73,-449.68 2771.43,-452.73"/>
</a>
</g>
</g>
<!-- Node18 -->
<g id="Node000018" class="node">
<title>Node18</title>
<g id="a_Node000018"><a xlink:href="classediteurpanovisu_1_1GestionnaireInterfaceController.html#a5bdd1505c1ad1eee506c2618c9368994" target="_top" xlink:title=" ">
<polygon fill="white" stroke="#666666" points="2458.25,-585.04 2289.25,-585.04 2289.25,-553.04 2458.25,-553.04 2458.25,-585.04"/>
<text xml:space="preserve" text-anchor="start" x="2297.25" y="-571.54" font-family="Helvetica,sans-Serif" font-size="10.00">editeurpanovisu.Gestionnaire</text>
<text xml:space="preserve" text-anchor="middle" x="2373.75" y="-559.54" font-family="Helvetica,sans-Serif" font-size="10.00">InterfaceController.afficheVignettes</text>
</a>
</g>
</g>
<!-- Node1&#45;&gt;Node18 -->
<g id="edge50_Node000001_Node000018" class="edge">
<title>Node1&#45;&gt;Node18</title>
<g id="a_edge50_Node000001_Node000018"><a xlink:title=" ">
<path fill="none" stroke="#63b8ff" d="M2710.8,-497.09C2694.16,-501.14 2676.63,-505.31 2660.25,-509.04 2591.85,-524.59 2513.89,-540.88 2456.74,-552.55"/>
<polygon fill="#63b8ff" stroke="#63b8ff" points="2711.22,-500.59 2720.11,-494.82 2709.56,-493.79 2711.22,-500.59"/>
</a>
</g>
</g>
<!-- Node20 -->
<g id="Node000020" class="node">
<title>Node20</title>
<g id="a_Node000020"><a xlink:href="classediteurpanovisu_1_1GestionnaireInterfaceController.html#ac7fa988dc99d8684686127a2269cd66e" target="_top" xlink:title=" ">
<polygon fill="white" stroke="#666666" points="2000.62,-648.04 1844.38,-648.04 1844.38,-616.04 2000.62,-616.04 2000.62,-648.04"/>
<text xml:space="preserve" text-anchor="start" x="1852.38" y="-634.54" font-family="Helvetica,sans-Serif" font-size="10.00">editeurpanovisu.Gestionnaire</text>
<text xml:space="preserve" text-anchor="middle" x="1922.5" y="-622.54" font-family="Helvetica,sans-Serif" font-size="10.00">InterfaceController.creeInterface</text>
</a>
</g>
</g>
<!-- Node1&#45;&gt;Node20 -->
<g id="edge51_Node000001_Node000020" class="edge">
<title>Node1&#45;&gt;Node20</title>
<g id="a_edge51_Node000001_Node000020"><a xlink:title=" ">
<path fill="none" stroke="#63b8ff" d="M2767.8,-503.16C2744.89,-531.91 2704.04,-578.92 2660.25,-609.04 2579.85,-664.33 2552.5,-669.77 2458.25,-695.04 2280.95,-742.57 2220.73,-776.29 2046,-720.04 2002.13,-705.91 1960.68,-669.62 1939.06,-648.31"/>
<polygon fill="#63b8ff" stroke="#63b8ff" points="2770.51,-505.37 2773.92,-495.34 2765,-501.05 2770.51,-505.37"/>
</a>
</g>
</g>
<!-- Node24 -->
<g id="Node000024" class="node">
<title>Node24</title>
<g id="a_Node000024"><a xlink:href="classediteurpanovisu_1_1GestionnaireInterfaceController.html#a3f85cb5c53dc115280ee2e1290a532f3" target="_top" xlink:title=" ">
<polygon fill="white" stroke="#666666" points="2652.75,-600.04 2501.75,-600.04 2501.75,-556.04 2652.75,-556.04 2652.75,-600.04"/>
<text xml:space="preserve" text-anchor="start" x="2509.75" y="-586.54" font-family="Helvetica,sans-Serif" font-size="10.00">editeurpanovisu.Gestionnaire</text>
<text xml:space="preserve" text-anchor="start" x="2509.75" y="-574.54" font-family="Helvetica,sans-Serif" font-size="10.00">InterfaceController.afficheBarre</text>
<text xml:space="preserve" text-anchor="middle" x="2577.25" y="-562.54" font-family="Helvetica,sans-Serif" font-size="10.00">Personnalisee</text>
</a>
</g>
</g>
<!-- Node1&#45;&gt;Node24 -->
<g id="edge42_Node000001_Node000024" class="edge">
<title>Node1&#45;&gt;Node24</title>
<g id="a_edge42_Node000001_Node000024"><a xlink:title=" ">
<path fill="none" stroke="#63b8ff" d="M2745.56,-499.63C2720.95,-512.32 2689,-528.47 2660.25,-542.04 2650.69,-546.55 2640.42,-551.2 2630.5,-555.61"/>
<polygon fill="#63b8ff" stroke="#63b8ff" points="2747.01,-502.82 2754.28,-495.12 2743.79,-496.61 2747.01,-502.82"/>
</a>
</g>
</g>
<!-- Node27 -->
<g id="Node000027" class="node">
<title>Node27</title>
<g id="a_Node000027"><a xlink:href="classediteurpanovisu_1_1GestionnaireInterfaceController.html#ab66509c63a85a8285a081b24049e8774" target="_top" xlink:title=" ">
<polygon fill="white" stroke="#666666" points="2660.25,-164.04 2494.25,-164.04 2494.25,-132.04 2660.25,-132.04 2660.25,-164.04"/>
<text xml:space="preserve" text-anchor="start" x="2502.25" y="-150.54" font-family="Helvetica,sans-Serif" font-size="10.00">editeurpanovisu.Gestionnaire</text>
<text xml:space="preserve" text-anchor="middle" x="2577.25" y="-138.54" font-family="Helvetica,sans-Serif" font-size="10.00">InterfaceController.strGetTemplate</text>
</a>
</g>
</g>
<!-- Node1&#45;&gt;Node27 -->
<g id="edge53_Node000001_Node000027" class="edge">
<title>Node1&#45;&gt;Node27</title>
<g id="a_edge53_Node000001_Node000027"><a xlink:title=" ">
<path fill="none" stroke="#63b8ff" d="M2775.93,-451.48C2756.29,-405.29 2712.2,-308.1 2660.25,-235.04 2641.13,-208.14 2614.13,-181.09 2596.41,-164.46"/>
<polygon fill="#63b8ff" stroke="#63b8ff" points="2772.59,-452.57 2779.7,-460.43 2779.05,-449.85 2772.59,-452.57"/>
</a>
</g>
</g>
<!-- Node3 -->
<g id="Node000003" class="node">
<title>Node3</title>
<g id="a_Node000003"><a xlink:href="classediteurpanovisu_1_1GestionnaireInterfaceController.html#a7c5cff6934d95be9a4babb6426a5ac26" target="_top" xlink:title=" ">
<polygon fill="white" stroke="#666666" points="2453.75,-397.04 2293.75,-397.04 2293.75,-353.04 2453.75,-353.04 2453.75,-397.04"/>
<text xml:space="preserve" text-anchor="start" x="2301.75" y="-383.54" font-family="Helvetica,sans-Serif" font-size="10.00">editeurpanovisu.Gestionnaire</text>
<text xml:space="preserve" text-anchor="start" x="2301.75" y="-371.54" font-family="Helvetica,sans-Serif" font-size="10.00">InterfaceController.afficheImages</text>
<text xml:space="preserve" text-anchor="middle" x="2373.75" y="-359.54" font-family="Helvetica,sans-Serif" font-size="10.00">FondInterface</text>
</a>
</g>
</g>
<!-- Node2&#45;&gt;Node3 -->
<g id="edge2_Node000002_Node000003" class="edge">
<title>Node2&#45;&gt;Node3</title>
<g id="a_edge2_Node000002_Node000003"><a xlink:title=" ">
<path fill="none" stroke="#63b8ff" d="M2534.02,-449.54C2512,-435.39 2484.3,-418.67 2458.25,-406.04 2452.13,-403.07 2445.64,-400.2 2439.1,-397.5"/>
<polygon fill="#63b8ff" stroke="#63b8ff" points="2531.83,-452.29 2542.12,-454.8 2535.64,-446.42 2531.83,-452.29"/>
</a>
</g>
</g>
<!-- Node2&#45;&gt;Node4 -->
<g id="edge3_Node000002_Node000004" class="edge">
<title>Node2&#45;&gt;Node4</title>
<g id="a_edge3_Node000002_Node000004"><a xlink:title=" ">
<path fill="none" stroke="#63b8ff" d="M2558.27,-445.75C2538.42,-413.63 2503.22,-366.05 2458.25,-344.04 2388.2,-309.75 2298.2,-308.34 2233.67,-313.49"/>
<polygon fill="#63b8ff" stroke="#63b8ff" points="2555.25,-447.51 2563.39,-454.29 2561.25,-443.91 2555.25,-447.51"/>
</a>
</g>
</g>
<!-- Node2&#45;&gt;Node18 -->
<g id="edge29_Node000002_Node000018" class="edge">
<title>Node2&#45;&gt;Node18</title>
<g id="a_edge29_Node000002_Node000018"><a xlink:title=" ">
<path fill="none" stroke="#63b8ff" d="M2510.95,-505.32C2505.23,-508.12 2499.59,-511.05 2494.25,-514.04 2477.25,-523.55 2475.56,-530.11 2458.25,-539.04 2448.39,-544.12 2437.47,-548.72 2426.87,-552.7"/>
<polygon fill="#63b8ff" stroke="#63b8ff" points="2512.38,-508.51 2519.91,-501.06 2509.38,-502.19 2512.38,-508.51"/>
</a>
</g>
</g>
<!-- Node2&#45;&gt;Node20 -->
<g id="edge40_Node000002_Node000020" class="edge">
<title>Node2&#45;&gt;Node20</title>
<g id="a_edge40_Node000002_Node000020"><a xlink:title=" ">
<path fill="none" stroke="#63b8ff" d="M2490.11,-488.49C2341.25,-506.58 2051.13,-542.03 2046,-544.04 2003.58,-560.66 1962.23,-595.34 1940.1,-615.85"/>
<polygon fill="#63b8ff" stroke="#63b8ff" points="2490.45,-491.97 2499.95,-487.29 2489.6,-485.02 2490.45,-491.97"/>
</a>
</g>
</g>
<!-- Node21 -->
<g id="Node000021" class="node">
<title>Node21</title>
<g id="a_Node000021"><a xlink:href="classediteurpanovisu_1_1GestionnaireInterfaceController.html#a568c34e865fb653f63b8fa7a9a9cafc8" target="_top" xlink:title=" ">
<polygon fill="white" stroke="#666666" points="2220.62,-493.04 2078.62,-493.04 2078.62,-461.04 2220.62,-461.04 2220.62,-493.04"/>
<text xml:space="preserve" text-anchor="start" x="2086.62" y="-479.54" font-family="Helvetica,sans-Serif" font-size="10.00">editeurpanovisu.Gestionnaire</text>
<text xml:space="preserve" text-anchor="middle" x="2149.62" y="-467.54" font-family="Helvetica,sans-Serif" font-size="10.00">InterfaceController.rafraichit</text>
</a>
</g>
</g>
<!-- Node2&#45;&gt;Node21 -->
<g id="edge41_Node000002_Node000021" class="edge">
<title>Node2&#45;&gt;Node21</title>
<g id="a_edge41_Node000002_Node000021"><a xlink:title=" ">
<path fill="none" stroke="#63b8ff" d="M2490.21,-477.84C2410.94,-477.65 2294.75,-477.38 2220.92,-477.2"/>
<polygon fill="#63b8ff" stroke="#63b8ff" points="2490.1,-481.33 2500.11,-477.86 2490.12,-474.33 2490.1,-481.33"/>
</a>
</g>
</g>
<!-- Node5 -->
<g id="Node000005" class="node">
<title>Node5</title>
<g id="a_Node000005"><a xlink:href="classediteurpanovisu_1_1EditeurPanovisu.html#a87b29dc258cfc67370b1f27809e91b8e" target="_top" xlink:title=" ">
<polygon fill="white" stroke="#666666" points="2010,-243.04 1835,-243.04 1835,-211.04 2010,-211.04 2010,-243.04"/>
<text xml:space="preserve" text-anchor="start" x="1843" y="-229.54" font-family="Helvetica,sans-Serif" font-size="10.00">editeurpanovisu.EditeurPanovisu.tsk</text>
<text xml:space="preserve" text-anchor="middle" x="1922.5" y="-217.54" font-family="Helvetica,sans-Serif" font-size="10.00">AnalyseFichierPVU</text>
</a>
</g>
</g>
<!-- Node4&#45;&gt;Node5 -->
<g id="edge4_Node000004_Node000005" class="edge">
<title>Node4&#45;&gt;Node5</title>
<g id="a_edge4_Node000004_Node000005"><a xlink:title=" ">
<path fill="none" stroke="#63b8ff" d="M2100.51,-304.09C2058.9,-285.98 1999.58,-260.16 1961.3,-243.49"/>
<polygon fill="#63b8ff" stroke="#63b8ff" points="2098.99,-307.25 2109.56,-308.03 2101.78,-300.83 2098.99,-307.25"/>
</a>
</g>
</g>
<!-- Node6 -->
<g id="Node000006" class="node">
<title>Node6</title>
<g id="a_Node000006"><a xlink:href="classediteurpanovisu_1_1EditeurPanovisu.html#ab4beb1597b660a4a253befc6e76f1c54" target="_top" xlink:title=" ">
<polygon fill="white" stroke="#666666" points="1129.62,-104.04 944.12,-104.04 944.12,-72.04 1129.62,-72.04 1129.62,-104.04"/>
<text xml:space="preserve" text-anchor="start" x="952.12" y="-90.54" font-family="Helvetica,sans-Serif" font-size="10.00">editeurpanovisu.EditeurPanovisu.projet</text>
<text xml:space="preserve" text-anchor="middle" x="1036.88" y="-78.54" font-family="Helvetica,sans-Serif" font-size="10.00">Charge</text>
</a>
</g>
</g>
<!-- Node5&#45;&gt;Node6 -->
<g id="edge5_Node000005_Node000006" class="edge">
<title>Node5&#45;&gt;Node6</title>
<g id="a_edge5_Node000005_Node000006"><a xlink:title=" ">
<path fill="none" stroke="#63b8ff" d="M1829.87,-208.28C1819.46,-206.17 1809,-204.05 1799,-202.04 1700.61,-182.22 1676.7,-173.31 1577.5,-158.04 1396.65,-130.19 1349.19,-140.29 1168.25,-113.04 1152.07,-110.6 1134.84,-107.59 1118.38,-104.52"/>
<polygon fill="#63b8ff" stroke="#63b8ff" points="1829.14,-211.71 1839.64,-210.27 1830.54,-204.85 1829.14,-211.71"/>
</a>
</g>
</g>
<!-- Node9 -->
<g id="Node000009" class="node">
<title>Node9</title>
<g id="a_Node000009"><a xlink:href="classediteurpanovisu_1_1EditeurPanovisu.html#a6d19b4d885ee6fcec827b91956295732" target="_top" xlink:title=" ">
<polygon fill="white" stroke="#666666" points="1799,-243.04 1613.5,-243.04 1613.5,-211.04 1799,-211.04 1799,-243.04"/>
<text xml:space="preserve" text-anchor="start" x="1621.5" y="-229.54" font-family="Helvetica,sans-Serif" font-size="10.00">editeurpanovisu.EditeurPanovisu.projet</text>
<text xml:space="preserve" text-anchor="middle" x="1706.25" y="-217.54" font-family="Helvetica,sans-Serif" font-size="10.00">ChargeNom</text>
</a>
</g>
</g>
<!-- Node5&#45;&gt;Node9 -->
<g id="edge8_Node000005_Node000009" class="edge">
<title>Node5&#45;&gt;Node9</title>
<g id="a_edge8_Node000005_Node000009"><a xlink:title=" ">
<path fill="none" stroke="#63b8ff" d="M1823.16,-227.04C1815.26,-227.04 1807.3,-227.04 1799.45,-227.04"/>
<polygon fill="#63b8ff" stroke="#63b8ff" points="1823.15,-230.54 1833.15,-227.04 1823.15,-223.54 1823.15,-230.54"/>
</a>
</g>
</g>
<!-- Node7 -->
<g id="Node000007" class="node">
<title>Node7</title>
<g id="a_Node000007"><a xlink:href="classediteurpanovisu_1_1EditeurPanovisu.html#ac912b80c1f2ac97def60ff005c5c480b" target="_top" xlink:title=" ">
<polygon fill="white" stroke="#666666" points="420.5,-322.04 216.25,-322.04 216.25,-302.04 420.5,-302.04 420.5,-322.04"/>
<text xml:space="preserve" text-anchor="middle" x="318.38" y="-308.54" font-family="Helvetica,sans-Serif" font-size="10.00">editeurpanovisu.EditeurPanovisu.creeMenu</text>
</a>
</g>
</g>
<!-- Node6&#45;&gt;Node7 -->
<g id="edge6_Node000006_Node000007" class="edge">
<title>Node6&#45;&gt;Node7</title>
<g id="a_edge6_Node000006_Node000007"><a xlink:title=" ">
<path fill="none" stroke="#63b8ff" d="M932.5,-75.66C811.06,-66.04 607.05,-65.6 456.5,-146.04 386.93,-183.21 338.89,-271.88 324.15,-301.9"/>
<polygon fill="#63b8ff" stroke="#63b8ff" points="931.87,-79.12 942.13,-76.46 932.45,-72.14 931.87,-79.12"/>
</a>
</g>
</g>
<!-- Node8 -->
<g id="Node000008" class="node">
<title>Node8</title>
<g id="a_Node000008"><a xlink:href="classediteurpanovisu_1_1EditeurPanovisu.html#a86c393eee88f54c694db994ddd85b90d" target="_top" xlink:title=" ">
<polygon fill="white" stroke="#666666" points="180.25,-328.04 0,-328.04 0,-296.04 180.25,-296.04 180.25,-328.04"/>
<text xml:space="preserve" text-anchor="start" x="8" y="-314.54" font-family="Helvetica,sans-Serif" font-size="10.00">editeurpanovisu.EditeurPanovisu.cree</text>
<text xml:space="preserve" text-anchor="middle" x="90.12" y="-302.54" font-family="Helvetica,sans-Serif" font-size="10.00">Environnement</text>
</a>
</g>
</g>
<!-- Node7&#45;&gt;Node8 -->
<g id="edge7_Node000007_Node000008" class="edge">
<title>Node7&#45;&gt;Node8</title>
<g id="a_edge7_Node000007_Node000008"><a xlink:title=" ">
<path fill="none" stroke="#63b8ff" d="M204.51,-312.04C196.49,-312.04 188.46,-312.04 180.6,-312.04"/>
<polygon fill="#63b8ff" stroke="#63b8ff" points="204.32,-315.54 214.32,-312.04 204.32,-308.54 204.32,-315.54"/>
</a>
</g>
</g>
<!-- Node9&#45;&gt;Node7 -->
<g id="edge28_Node000009_Node000007" class="edge">
<title>Node9&#45;&gt;Node7</title>
<g id="a_edge28_Node000009_Node000007"><a xlink:title=" ">
<path fill="none" stroke="#63b8ff" d="M1676.11,-250.14C1607.94,-301.77 1431.02,-422.04 1262,-422.04 1262,-422.04 1262,-422.04 793.38,-422.04 642.01,-422.04 601.97,-413.85 456.5,-372.04 412.79,-359.47 364.76,-336.05 338.75,-322.48"/>
<polygon fill="#63b8ff" stroke="#63b8ff" points="1677.98,-253.11 1683.79,-244.25 1673.73,-247.55 1677.98,-253.11"/>
</a>
</g>
</g>
<!-- Node10 -->
<g id="Node000010" class="node">
<title>Node10</title>
<g id="a_Node000010"><a xlink:href="classediteurpanovisu_1_1EditeurPanovisu.html#af0d1c32bb78acbff561c822a0d15f760" target="_top" xlink:title=" ">
<polygon fill="white" stroke="#666666" points="1577.5,-199.04 1389.75,-199.04 1389.75,-167.04 1577.5,-167.04 1577.5,-199.04"/>
<text xml:space="preserve" text-anchor="start" x="1397.75" y="-185.54" font-family="Helvetica,sans-Serif" font-size="10.00">editeurpanovisu.EditeurPanovisu.ajoute</text>
<text xml:space="preserve" text-anchor="middle" x="1483.62" y="-173.54" font-family="Helvetica,sans-Serif" font-size="10.00">FichierHisto</text>
</a>
</g>
</g>
<!-- Node9&#45;&gt;Node10 -->
<g id="edge9_Node000009_Node000010" class="edge">
<title>Node9&#45;&gt;Node10</title>
<g id="a_edge9_Node000009_Node000010"><a xlink:title=" ">
<path fill="none" stroke="#63b8ff" d="M1641.09,-208.05C1621.31,-203.6 1599.12,-199.01 1577.8,-194.94"/>
<polygon fill="#63b8ff" stroke="#63b8ff" points="1640.12,-211.42 1650.65,-210.24 1641.68,-204.59 1640.12,-211.42"/>
</a>
</g>
</g>
<!-- Node10&#45;&gt;Node6 -->
<g id="edge10_Node000010_Node000006" class="edge">
<title>Node10&#45;&gt;Node6</title>
<g id="a_edge10_Node000010_Node000006"><a xlink:title=" ">
<path fill="none" stroke="#63b8ff" d="M1378.45,-184.72C1315.49,-182.38 1234.81,-173.33 1168.25,-146.04 1149.5,-138.35 1150.19,-127.48 1132.25,-118.04 1122.36,-112.83 1111.41,-108.34 1100.57,-104.53"/>
<polygon fill="#63b8ff" stroke="#63b8ff" points="1377.97,-188.2 1388.08,-185.02 1378.19,-181.21 1377.97,-188.2"/>
</a>
</g>
</g>
<!-- Node10&#45;&gt;Node9 -->
<g id="edge11_Node000010_Node000009" class="edge">
<title>Node10&#45;&gt;Node9</title>
<g id="a_edge11_Node000010_Node000009"><a xlink:title=" ">
<path fill="none" stroke="#63b8ff" d="M1548.89,-202.05C1569.02,-206.58 1591.64,-211.24 1613.28,-215.36"/>
<polygon fill="#63b8ff" stroke="#63b8ff" points="1549.68,-198.64 1539.15,-199.82 1548.12,-205.47 1549.68,-198.64"/>
</a>
</g>
</g>
<!-- Node11 -->
<g id="Node000011" class="node">
<title>Node11</title>
<g id="a_Node000011"><a xlink:href="classediteurpanovisu_1_1EditeurPanovisu.html#a9f3ea25b35d4884524508dab3dc4fd6a" target="_top" xlink:title=" ">
<polygon fill="white" stroke="#666666" points="1353.75,-230.04 1168.25,-230.04 1168.25,-198.04 1353.75,-198.04 1353.75,-230.04"/>
<text xml:space="preserve" text-anchor="start" x="1176.25" y="-216.54" font-family="Helvetica,sans-Serif" font-size="10.00">editeurpanovisu.EditeurPanovisu.projet</text>
<text xml:space="preserve" text-anchor="middle" x="1261" y="-204.54" font-family="Helvetica,sans-Serif" font-size="10.00">Sauve</text>
</a>
</g>
</g>
<!-- Node10&#45;&gt;Node11 -->
<g id="edge12_Node000010_Node000011" class="edge">
<title>Node10&#45;&gt;Node11</title>
<g id="a_edge12_Node000010_Node000011"><a xlink:title=" ">
<path fill="none" stroke="#63b8ff" d="M1378.13,-197.72C1370.14,-198.84 1362.11,-199.97 1354.21,-201.08"/>
<polygon fill="#63b8ff" stroke="#63b8ff" points="1378.47,-201.21 1387.88,-196.35 1377.49,-194.28 1378.47,-201.21"/>
</a>
</g>
</g>
<!-- Node17 -->
<g id="Node000017" class="node">
<title>Node17</title>
<g id="a_Node000017"><a xlink:href="classediteurpanovisu_1_1EditeurPanovisu.html#a7b2e25dc717eb52b62e23d54ec4c124a" target="_top" xlink:title=" ">
<polygon fill="white" stroke="#666666" points="1353.75,-104.04 1168.25,-104.04 1168.25,-72.04 1353.75,-72.04 1353.75,-104.04"/>
<text xml:space="preserve" text-anchor="start" x="1176.25" y="-90.54" font-family="Helvetica,sans-Serif" font-size="10.00">editeurpanovisu.EditeurPanovisu.projet</text>
<text xml:space="preserve" text-anchor="middle" x="1261" y="-78.54" font-family="Helvetica,sans-Serif" font-size="10.00">SauveSous</text>
</a>
</g>
</g>
<!-- Node10&#45;&gt;Node17 -->
<g id="edge26_Node000010_Node000017" class="edge">
<title>Node10&#45;&gt;Node17</title>
<g id="a_edge26_Node000010_Node000017"><a xlink:title=" ">
<path fill="none" stroke="#63b8ff" d="M1434.05,-162.12C1393.73,-144.76 1337.18,-120.41 1300.08,-104.43"/>
<polygon fill="#63b8ff" stroke="#63b8ff" points="1432.49,-165.26 1443.06,-166 1435.26,-158.83 1432.49,-165.26"/>
</a>
</g>
</g>
<!-- Node11&#45;&gt;Node6 -->
<g id="edge16_Node000011_Node000006" class="edge">
<title>Node11&#45;&gt;Node6</title>
<g id="a_edge16_Node000011_Node000006"><a xlink:title=" ">
<path fill="none" stroke="#63b8ff" d="M1180.19,-192.35C1175.97,-189.87 1171.95,-187.11 1168.25,-184.04 1142.56,-162.67 1158.03,-139.3 1132.25,-118.04 1125.62,-112.57 1117.98,-108.09 1109.97,-104.43"/>
<polygon fill="#63b8ff" stroke="#63b8ff" points="1178.54,-195.44 1189.02,-196.95 1181.77,-189.23 1178.54,-195.44"/>
</a>
</g>
</g>
<!-- Node11&#45;&gt;Node7 -->
<g id="edge13_Node000011_Node000007" class="edge">
<title>Node11&#45;&gt;Node7</title>
<g id="a_edge13_Node000011_Node000007"><a xlink:title=" ">
<path fill="none" stroke="#63b8ff" d="M1225.13,-236.16C1200.28,-250.67 1165.51,-268.48 1132.25,-277.04 882.93,-341.16 576.61,-331.72 420.82,-320.96"/>
<polygon fill="#63b8ff" stroke="#63b8ff" points="1226.71,-239.29 1233.51,-231.16 1223.13,-233.28 1226.71,-239.29"/>
</a>
</g>
</g>
<!-- Node11&#45;&gt;Node9 -->
<g id="edge17_Node000011_Node000009" class="edge">
<title>Node11&#45;&gt;Node9</title>
<g id="a_edge17_Node000011_Node000009"><a xlink:title=" ">
<path fill="none" stroke="#63b8ff" d="M1365.33,-217.07C1440.33,-219.27 1540.88,-222.22 1613.14,-224.34"/>
<polygon fill="#63b8ff" stroke="#63b8ff" points="1365.6,-213.57 1355.51,-216.78 1365.4,-220.57 1365.6,-213.57"/>
</a>
</g>
</g>
<!-- Node11&#45;&gt;Node12 -->
<g id="edge14_Node000011_Node000012" class="edge">
<title>Node11&#45;&gt;Node12</title>
<g id="a_edge14_Node000011_Node000012"><a xlink:title=" ">
<path fill="none" stroke="#63b8ff" d="M1156.64,-210.53C1148.39,-210.33 1140.18,-210.16 1132.25,-210.04 932.3,-206.91 879.73,-201.85 683.25,-239.04 657.92,-243.83 630.29,-250.97 607.01,-257.55"/>
<polygon fill="#63b8ff" stroke="#63b8ff" points="1156.3,-214.02 1166.39,-210.77 1156.48,-207.02 1156.3,-214.02"/>
</a>
</g>
</g>
<!-- Node13 -->
<g id="Node000013" class="node">
<title>Node13</title>
<g id="a_Node000013"><a xlink:href="classediteurpanovisu_1_1EditeurPanovisu.html#a9b46b222714af12c06ec33d410400773" target="_top" xlink:title=" ">
<polygon fill="white" stroke="#666666" points="647.25,-187.04 456.5,-187.04 456.5,-155.04 647.25,-155.04 647.25,-187.04"/>
<text xml:space="preserve" text-anchor="start" x="464.5" y="-173.54" font-family="Helvetica,sans-Serif" font-size="10.00">editeurpanovisu.EditeurPanovisu.projets</text>
<text xml:space="preserve" text-anchor="middle" x="551.88" y="-161.54" font-family="Helvetica,sans-Serif" font-size="10.00">Fermer</text>
</a>
</g>
</g>
<!-- Node11&#45;&gt;Node13 -->
<g id="edge18_Node000011_Node000013" class="edge">
<title>Node11&#45;&gt;Node13</title>
<g id="a_edge18_Node000011_Node000013"><a xlink:title=" ">
<path fill="none" stroke="#63b8ff" d="M1201.08,-193.61C1190,-189.19 1178.64,-184.27 1168.25,-179.04 1151.29,-170.5 1150.47,-161.36 1132.25,-156.04 957.92,-105.1 741.39,-133.45 628.84,-154.6"/>
<polygon fill="#63b8ff" stroke="#63b8ff" points="1199.58,-196.78 1210.17,-197.13 1202.11,-190.25 1199.58,-196.78"/>
</a>
</g>
</g>
<!-- Node14 -->
<g id="Node000014" class="node">
<title>Node14</title>
<g id="a_Node000014"><a xlink:href="classediteurpanovisu_1_1EditeurPanovisu.html#ac9d449399ccd38843fa12e716f0c9611" target="_top" xlink:title=" ">
<polygon fill="white" stroke="#666666" points="1132.25,-394.04 941.5,-394.04 941.5,-362.04 1132.25,-362.04 1132.25,-394.04"/>
<text xml:space="preserve" text-anchor="start" x="949.5" y="-380.54" font-family="Helvetica,sans-Serif" font-size="10.00">editeurpanovisu.EditeurPanovisu.projets</text>
<text xml:space="preserve" text-anchor="middle" x="1036.88" y="-368.54" font-family="Helvetica,sans-Serif" font-size="10.00">Nouveau</text>
</a>
</g>
</g>
<!-- Node11&#45;&gt;Node14 -->
<g id="edge20_Node000011_Node000014" class="edge">
<title>Node11&#45;&gt;Node14</title>
<g id="a_edge20_Node000011_Node000014"><a xlink:title=" ">
<path fill="none" stroke="#63b8ff" d="M1242.34,-239.15C1219.98,-269.17 1178.74,-318.99 1132.25,-348.04 1123.65,-353.41 1114,-357.9 1104.24,-361.63"/>
<polygon fill="#63b8ff" stroke="#63b8ff" points="1244.95,-241.51 1248.02,-231.38 1239.3,-237.38 1244.95,-241.51"/>
</a>
</g>
</g>
<!-- Node15 -->
<g id="Node000015" class="node">
<title>Node15</title>
<g id="a_Node000015"><a xlink:href="classediteurpanovisu_1_1EditeurPanovisu.html#a2b3125ffe2e6291efacf19df6cb30a8d" target="_top" xlink:title=" ">
<polygon fill="white" stroke="#666666" points="884.88,-268.04 703.88,-268.04 703.88,-248.04 884.88,-248.04 884.88,-268.04"/>
<text xml:space="preserve" text-anchor="middle" x="794.38" y="-254.54" font-family="Helvetica,sans-Serif" font-size="10.00">editeurpanovisu.EditeurPanovisu.start</text>
</a>
</g>
</g>
<!-- Node11&#45;&gt;Node15 -->
<g id="edge25_Node000011_Node000015" class="edge">
<title>Node11&#45;&gt;Node15</title>
<g id="a_edge25_Node000011_Node000015"><a xlink:title=" ">
<path fill="none" stroke="#63b8ff" d="M1156.57,-213.87C1094.09,-214.85 1012.96,-218.06 941.5,-227.04 905.35,-231.58 864.86,-240.47 835.69,-247.57"/>
<polygon fill="#63b8ff" stroke="#63b8ff" points="1156.56,-217.37 1166.51,-213.73 1156.46,-210.37 1156.56,-217.37"/>
</a>
</g>
</g>
<!-- Node16 -->
<g id="Node000016" class="node">
<title>Node16</title>
<g id="a_Node000016"><a xlink:href="classediteurpanovisu_1_1EditeurPanovisu.html#aef8c9b28c3e88d6e27e3f62b9a901134" target="_top" xlink:title=" ">
<polygon fill="white" stroke="#666666" points="1130.75,-268.04 943,-268.04 943,-236.04 1130.75,-236.04 1130.75,-268.04"/>
<text xml:space="preserve" text-anchor="start" x="951" y="-254.54" font-family="Helvetica,sans-Serif" font-size="10.00">editeurpanovisu.EditeurPanovisu.sauve</text>
<text xml:space="preserve" text-anchor="middle" x="1036.88" y="-242.54" font-family="Helvetica,sans-Serif" font-size="10.00">Fichiers</text>
</a>
</g>
</g>
<!-- Node11&#45;&gt;Node16 -->
<g id="edge24_Node000011_Node000016" class="edge">
<title>Node11&#45;&gt;Node16</title>
<g id="a_edge24_Node000011_Node000016"><a xlink:title=" ">
<path fill="none" stroke="#63b8ff" d="M1156.85,-231.68C1148.29,-233.15 1139.67,-234.62 1131.19,-236.07"/>
<polygon fill="#63b8ff" stroke="#63b8ff" points="1157.29,-235.16 1166.56,-230.02 1156.11,-228.26 1157.29,-235.16"/>
</a>
</g>
</g>
<!-- Node12&#45;&gt;Node7 -->
<g id="edge15_Node000012_Node000007" class="edge">
<title>Node12&#45;&gt;Node7</title>
<g id="a_edge15_Node000012_Node000007"><a xlink:title=" ">
<path fill="none" stroke="#63b8ff" d="M444.79,-291.45C423.8,-294.9 402.38,-298.41 383.33,-301.54"/>
<polygon fill="#63b8ff" stroke="#63b8ff" points="445.25,-294.92 454.55,-289.85 444.12,-288.01 445.25,-294.92"/>
</a>
</g>
</g>
<!-- Node13&#45;&gt;Node7 -->
<g id="edge19_Node000013_Node000007" class="edge">
<title>Node13&#45;&gt;Node7</title>
<g id="a_edge19_Node000013_Node000007"><a xlink:title=" ">
<path fill="none" stroke="#63b8ff" d="M514.26,-193.34C463.48,-224.27 373.73,-278.93 336.4,-301.67"/>
<polygon fill="#63b8ff" stroke="#63b8ff" points="515.85,-196.47 522.57,-188.28 512.21,-190.49 515.85,-196.47"/>
</a>
</g>
</g>
<!-- Node14&#45;&gt;Node7 -->
<g id="edge21_Node000014_Node000007" class="edge">
<title>Node14&#45;&gt;Node7</title>
<g id="a_edge21_Node000014_Node000007"><a xlink:title=" ">
<path fill="none" stroke="#63b8ff" d="M929.79,-379.04C813.09,-378.63 620.36,-373.51 456.5,-348.04 420.02,-342.37 379.21,-330.98 351.67,-322.53"/>
<polygon fill="#63b8ff" stroke="#63b8ff" points="929.67,-382.54 939.67,-379.06 929.68,-375.54 929.67,-382.54"/>
</a>
</g>
</g>
<!-- Node14&#45;&gt;Node15 -->
<g id="edge22_Node000014_Node000015" class="edge">
<title>Node14&#45;&gt;Node15</title>
<g id="a_edge22_Node000014_Node000015"><a xlink:title=" ">
<path fill="none" stroke="#63b8ff" d="M992.69,-356.49C940.67,-330.53 855.42,-288 816.25,-268.45"/>
<polygon fill="#63b8ff" stroke="#63b8ff" points="991.07,-359.59 1001.58,-360.93 994.2,-353.33 991.07,-359.59"/>
</a>
</g>
</g>
<!-- Node15&#45;&gt;Node12 -->
<g id="edge23_Node000015_Node000012" class="edge">
<title>Node15&#45;&gt;Node12</title>
<g id="a_edge23_Node000015_Node000012"><a xlink:title=" ">
<path fill="none" stroke="#63b8ff" d="M692.23,-264.77C677.4,-265.75 662.18,-266.77 647.49,-267.74"/>
<polygon fill="#63b8ff" stroke="#63b8ff" points="692.22,-268.27 701.97,-264.12 691.76,-261.29 692.22,-268.27"/>
</a>
</g>
</g>
<!-- Node17&#45;&gt;Node7 -->
<g id="edge27_Node000017_Node000007" class="edge">
<title>Node17&#45;&gt;Node7</title>
<g id="a_edge27_Node000017_Node000007"><a xlink:title=" ">
<path fill="none" stroke="#63b8ff" d="M1201.49,-68.2C1060.86,-24.35 697.69,65.71 456.5,-82.04 370.28,-134.85 331.58,-263.95 321.9,-301.58"/>
<polygon fill="#63b8ff" stroke="#63b8ff" points="1200.39,-71.52 1210.98,-71.19 1202.5,-64.84 1200.39,-71.52"/>
</a>
</g>
</g>
<!-- Node18&#45;&gt;Node4 -->
<g id="edge30_Node000018_Node000004" class="edge">
<title>Node18&#45;&gt;Node4</title>
<g id="a_edge30_Node000018_Node000004"><a xlink:title=" ">
<path fill="none" stroke="#63b8ff" d="M2350.3,-544.37C2304.96,-494.58 2203.58,-383.21 2165.48,-341.35"/>
<polygon fill="#63b8ff" stroke="#63b8ff" points="2347.49,-546.49 2356.81,-551.53 2352.67,-541.78 2347.49,-546.49"/>
</a>
</g>
</g>
<!-- Node19 -->
<g id="Node000019" class="node">
<title>Node19</title>
<g id="a_Node000019"><a xlink:href="classediteurpanovisu_1_1GestionnaireInterfaceController.html#a8c634f775c31c1a4db22d5ef0659f7e4" target="_top" xlink:title=" ">
<polygon fill="white" stroke="#666666" points="2223.25,-585.04 2076,-585.04 2076,-553.04 2223.25,-553.04 2223.25,-585.04"/>
<text xml:space="preserve" text-anchor="start" x="2084" y="-571.54" font-family="Helvetica,sans-Serif" font-size="10.00">editeurpanovisu.Gestionnaire</text>
<text xml:space="preserve" text-anchor="middle" x="2149.62" y="-559.54" font-family="Helvetica,sans-Serif" font-size="10.00">InterfaceController.afficheTitre</text>
</a>
</g>
</g>
<!-- Node18&#45;&gt;Node19 -->
<g id="edge31_Node000018_Node000019" class="edge">
<title>Node18&#45;&gt;Node19</title>
<g id="a_edge31_Node000018_Node000019"><a xlink:title=" ">
<path fill="none" stroke="#63b8ff" d="M2277.32,-569.04C2259.27,-569.04 2240.66,-569.04 2223.45,-569.04"/>
<polygon fill="#63b8ff" stroke="#63b8ff" points="2277.26,-572.54 2287.26,-569.04 2277.26,-565.54 2277.26,-572.54"/>
</a>
</g>
</g>
<!-- Node18&#45;&gt;Node20 -->
<g id="edge33_Node000018_Node000020" class="edge">
<title>Node18&#45;&gt;Node20</title>
<g id="a_edge33_Node000018_Node000020"><a xlink:title=" ">
<path fill="none" stroke="#63b8ff" d="M2288.18,-587.73C2276.48,-590.02 2264.59,-592.2 2253.25,-594.04 2167.35,-607.94 2068.06,-618.66 2001.06,-625.12"/>
<polygon fill="#63b8ff" stroke="#63b8ff" points="2288.72,-591.19 2297.84,-585.8 2287.34,-584.33 2288.72,-591.19"/>
</a>
</g>
</g>
<!-- Node18&#45;&gt;Node21 -->
<g id="edge34_Node000018_Node000021" class="edge">
<title>Node18&#45;&gt;Node21</title>
<g id="a_edge34_Node000018_Node000021"><a xlink:title=" ">
<path fill="none" stroke="#63b8ff" d="M2322.45,-548.2C2282.46,-531.64 2227.3,-508.79 2190.37,-493.5"/>
<polygon fill="#63b8ff" stroke="#63b8ff" points="2321.06,-551.42 2331.64,-552.01 2323.74,-544.95 2321.06,-551.42"/>
</a>
</g>
</g>
<!-- Node19&#45;&gt;Node20 -->
<g id="edge32_Node000019_Node000020" class="edge">
<title>Node19&#45;&gt;Node20</title>
<g id="a_edge32_Node000019_Node000020"><a xlink:title=" ">
<path fill="none" stroke="#63b8ff" d="M2079.05,-588.51C2048.08,-597.17 2012.01,-607.27 1982.4,-615.55"/>
<polygon fill="#63b8ff" stroke="#63b8ff" points="2079.63,-591.98 2088.31,-585.92 2077.74,-585.24 2079.63,-591.98"/>
</a>
</g>
</g>
<!-- Node21&#45;&gt;Node5 -->
<g id="edge35_Node000021_Node000005" class="edge">
<title>Node21&#45;&gt;Node5</title>
<g id="a_edge35_Node000021_Node000005"><a xlink:title=" ">
<path fill="none" stroke="#63b8ff" d="M2126.25,-452.19C2080.4,-401.27 1976.87,-286.3 1938.33,-243.5"/>
<polygon fill="#63b8ff" stroke="#63b8ff" points="2123.55,-454.42 2132.84,-459.51 2128.75,-449.74 2123.55,-454.42"/>
</a>
</g>
</g>
<!-- Node22 -->
<g id="Node000022" class="node">
<title>Node22</title>
<g id="a_Node000022"><a xlink:href="classediteurpanovisu_1_1EditeurPanovisu.html#a53cccf6a6b2693c872947460b66ae8ee" target="_top" xlink:title=" ">
<polygon fill="white" stroke="#666666" points="1348.5,-482.04 1173.5,-482.04 1173.5,-450.04 1348.5,-450.04 1348.5,-482.04"/>
<text xml:space="preserve" text-anchor="start" x="1181.5" y="-468.54" font-family="Helvetica,sans-Serif" font-size="10.00">editeurpanovisu.EditeurPanovisu.tsk</text>
<text xml:space="preserve" text-anchor="middle" x="1261" y="-456.54" font-family="Helvetica,sans-Serif" font-size="10.00">ChargeListeFichiers</text>
</a>
</g>
</g>
<!-- Node21&#45;&gt;Node22 -->
<g id="edge36_Node000021_Node000022" class="edge">
<title>Node21&#45;&gt;Node22</title>
<g id="a_edge36_Node000021_Node000022"><a xlink:title=" ">
<path fill="none" stroke="#63b8ff" d="M2066.89,-476.02C1899.7,-473.95 1520.02,-469.24 1348.71,-467.11"/>
<polygon fill="#63b8ff" stroke="#63b8ff" points="2066.76,-479.52 2076.8,-476.15 2066.84,-472.52 2066.76,-479.52"/>
</a>
</g>
</g>
<!-- Node22&#45;&gt;Node14 -->
<g id="edge39_Node000022_Node000014" class="edge">
<title>Node22&#45;&gt;Node14</title>
<g id="a_edge39_Node000022_Node000014"><a xlink:title=" ">
<path fill="none" stroke="#63b8ff" d="M1207.8,-445.36C1168.55,-429.81 1115.51,-408.8 1079.19,-394.41"/>
<polygon fill="#63b8ff" stroke="#63b8ff" points="1206.49,-448.6 1217.07,-449.03 1209.07,-442.09 1206.49,-448.6"/>
</a>
</g>
</g>
<!-- Node23 -->
<g id="Node000023" class="node">
<title>Node23</title>
<g id="a_Node000023"><a xlink:href="classediteurpanovisu_1_1EditeurPanovisu.html#a924d3ccff3e4f402d2309cd2eade3237" target="_top" xlink:title=" ">
<polygon fill="white" stroke="#666666" points="905.5,-482.04 683.25,-482.04 683.25,-450.04 905.5,-450.04 905.5,-482.04"/>
<text xml:space="preserve" text-anchor="start" x="691.25" y="-468.54" font-family="Helvetica,sans-Serif" font-size="10.00">editeurpanovisu.EditeurPanovisu.panoramiques</text>
<text xml:space="preserve" text-anchor="middle" x="794.38" y="-456.54" font-family="Helvetica,sans-Serif" font-size="10.00">Ajouter</text>
</a>
</g>
</g>
<!-- Node22&#45;&gt;Node23 -->
<g id="edge37_Node000022_Node000023" class="edge">
<title>Node22&#45;&gt;Node23</title>
<g id="a_edge37_Node000022_Node000023"><a xlink:title=" ">
<path fill="none" stroke="#63b8ff" d="M1161.83,-466.04C1086.83,-466.04 983.44,-466.04 905.6,-466.04"/>
<polygon fill="#63b8ff" stroke="#63b8ff" points="1161.64,-469.54 1171.64,-466.04 1161.64,-462.54 1161.64,-469.54"/>
</a>
</g>
</g>
<!-- Node23&#45;&gt;Node7 -->
<g id="edge38_Node000023_Node000007" class="edge">
<title>Node23&#45;&gt;Node7</title>
<g id="a_edge38_Node000023_Node000007"><a xlink:title=" ">
<path fill="none" stroke="#63b8ff" d="M671.5,-473.6C605.36,-473.24 523.64,-465.38 456.5,-436.04 396.8,-409.95 345.55,-347.26 326.9,-322.43"/>
<polygon fill="#63b8ff" stroke="#63b8ff" points="671.31,-477.1 681.31,-473.59 671.3,-470.1 671.31,-477.1"/>
</a>
</g>
</g>
<!-- Node24&#45;&gt;Node18 -->
<g id="edge43_Node000024_Node000018" class="edge">
<title>Node24&#45;&gt;Node18</title>
<g id="a_edge43_Node000024_Node000018"><a xlink:title=" ">
<path fill="none" stroke="#63b8ff" d="M2490.22,-574.19C2479.72,-573.73 2469,-573.25 2458.53,-572.78"/>
<polygon fill="#63b8ff" stroke="#63b8ff" points="2489.85,-577.68 2499.99,-574.63 2490.16,-570.69 2489.85,-577.68"/>
</a>
</g>
</g>
<!-- Node24&#45;&gt;Node20 -->
<g id="edge48_Node000024_Node000020" class="edge">
<title>Node24&#45;&gt;Node20</title>
<g id="a_edge48_Node000024_Node000020"><a xlink:title=" ">
<path fill="none" stroke="#63b8ff" d="M2490.2,-589.74C2479.44,-591.2 2468.59,-592.66 2458.25,-594.04 2367.16,-606.21 2344.84,-613.5 2253.25,-621.04 2167.05,-628.13 2067.81,-630.69 2000.91,-631.59"/>
<polygon fill="#63b8ff" stroke="#63b8ff" points="2490.41,-593.25 2499.85,-588.44 2489.47,-586.31 2490.41,-593.25"/>
</a>
</g>
</g>
<!-- Node25 -->
<g id="Node000025" class="node">
<title>Node25</title>
<g id="a_Node000025"><a xlink:href="classediteurpanovisu_1_1GestionnaireInterfaceController.html#a6c3ac6b8d3a669f9952954530cc27e52" target="_top" xlink:title=" ">
<polygon fill="white" stroke="#666666" points="2449.62,-459.04 2297.88,-459.04 2297.88,-415.04 2449.62,-415.04 2449.62,-459.04"/>
<text xml:space="preserve" text-anchor="start" x="2305.88" y="-445.54" font-family="Helvetica,sans-Serif" font-size="10.00">editeurpanovisu.Gestionnaire</text>
<text xml:space="preserve" text-anchor="start" x="2305.88" y="-433.54" font-family="Helvetica,sans-Serif" font-size="10.00">InterfaceController.chargeBarre</text>
<text xml:space="preserve" text-anchor="middle" x="2373.75" y="-421.54" font-family="Helvetica,sans-Serif" font-size="10.00">Personnalisee</text>
</a>
</g>
</g>
<!-- Node24&#45;&gt;Node25 -->
<g id="edge44_Node000024_Node000025" class="edge">
<title>Node24&#45;&gt;Node25</title>
<g id="a_edge44_Node000024_Node000025"><a xlink:title=" ">
<path fill="none" stroke="#63b8ff" d="M2535.08,-549.23C2497.14,-522.68 2441.62,-483.83 2406.86,-459.51"/>
<polygon fill="#63b8ff" stroke="#63b8ff" points="2532.88,-551.96 2543.08,-554.83 2536.9,-546.23 2532.88,-551.96"/>
</a>
</g>
</g>
<!-- Node26 -->
<g id="Node000026" class="node">
<title>Node26</title>
<g id="a_Node000026"><a xlink:href="classediteurpanovisu_1_1GestionnaireInterfaceController.html#af830b49c8951d0b3c694aeba5f49d518" target="_top" xlink:title=" ">
<polygon fill="white" stroke="#666666" points="2253.25,-711.04 2046,-711.04 2046,-679.04 2253.25,-679.04 2253.25,-711.04"/>
<text xml:space="preserve" text-anchor="start" x="2054" y="-697.54" font-family="Helvetica,sans-Serif" font-size="10.00">editeurpanovisu.Gestionnaire</text>
<text xml:space="preserve" text-anchor="middle" x="2149.62" y="-685.54" font-family="Helvetica,sans-Serif" font-size="10.00">InterfaceController.choixBarrePersonnalisee</text>
</a>
</g>
</g>
<!-- Node24&#45;&gt;Node26 -->
<g id="edge46_Node000024_Node000026" class="edge">
<title>Node24&#45;&gt;Node26</title>
<g id="a_edge46_Node000024_Node000026"><a xlink:title=" ">
<path fill="none" stroke="#63b8ff" d="M2545.77,-607.8C2523.45,-627.64 2491.4,-652.32 2458.25,-665.04 2393.12,-690.02 2314.81,-697.37 2253.5,-698.55"/>
<polygon fill="#63b8ff" stroke="#63b8ff" points="2547.96,-610.53 2553,-601.21 2543.25,-605.36 2547.96,-610.53"/>
</a>
</g>
</g>
<!-- Node25&#45;&gt;Node4 -->
<g id="edge45_Node000025_Node000004" class="edge">
<title>Node25&#45;&gt;Node4</title>
<g id="a_edge45_Node000025_Node000004"><a xlink:title=" ">
<path fill="none" stroke="#63b8ff" d="M2298.3,-410.16C2295.23,-408.81 2292.2,-407.43 2289.25,-406.04 2248.06,-386.54 2202.94,-358.91 2175.71,-341.48"/>
<polygon fill="#63b8ff" stroke="#63b8ff" points="2296.93,-413.38 2307.51,-414.05 2299.66,-406.93 2296.93,-413.38"/>
</a>
</g>
</g>
<!-- Node26&#45;&gt;Node20 -->
<g id="edge47_Node000026_Node000020" class="edge">
<title>Node26&#45;&gt;Node20</title>
<g id="a_edge47_Node000026_Node000020"><a xlink:title=" ">
<path fill="none" stroke="#63b8ff" d="M2079.05,-675.57C2048.08,-666.9 2012.01,-656.81 1982.4,-648.52"/>
<polygon fill="#63b8ff" stroke="#63b8ff" points="2077.74,-678.83 2088.31,-678.16 2079.63,-672.09 2077.74,-678.83"/>
</a>
</g>
</g>
<!-- Node28 -->
<g id="Node000028" class="node">
<title>Node28</title>
<g id="a_Node000028"><a xlink:href="classediteurpanovisu_1_1EditeurPanovisu.html#aaee69ab54364f89b58458c744a4195c0" target="_top" xlink:title=" ">
<polygon fill="white" stroke="#666666" points="1577.5,-104.04 1389.75,-104.04 1389.75,-72.04 1577.5,-72.04 1577.5,-104.04"/>
<text xml:space="preserve" text-anchor="start" x="1397.75" y="-90.54" font-family="Helvetica,sans-Serif" font-size="10.00">editeurpanovisu.EditeurPanovisu.sauve</text>
<text xml:space="preserve" text-anchor="middle" x="1483.62" y="-78.54" font-family="Helvetica,sans-Serif" font-size="10.00">FichierProjet</text>
</a>
</g>
</g>
<!-- Node27&#45;&gt;Node28 -->
<g id="edge54_Node000027_Node000028" class="edge">
<title>Node27&#45;&gt;Node28</title>
<g id="a_edge54_Node000027_Node000028"><a xlink:title=" ">
<path fill="none" stroke="#63b8ff" d="M2488.52,-129.35C2402.79,-112.73 2268.35,-91.04 2150.62,-91.04 2150.62,-91.04 2150.62,-91.04 1921.5,-91.04 1802.99,-91.04 1666.39,-89.92 1577.94,-89.05"/>
<polygon fill="#63b8ff" stroke="#63b8ff" points="2487.8,-132.77 2498.29,-131.26 2489.15,-125.9 2487.8,-132.77"/>
</a>
</g>
</g>
<!-- Node28&#45;&gt;Node11 -->
<g id="edge55_Node000028_Node000011" class="edge">
<title>Node28&#45;&gt;Node11</title>
<g id="a_edge55_Node000028_Node000011"><a xlink:title=" ">
<path fill="none" stroke="#63b8ff" d="M1443.8,-110.21C1400.07,-135.19 1330,-175.2 1290.85,-197.56"/>
<polygon fill="#63b8ff" stroke="#63b8ff" points="1445.52,-113.26 1452.47,-105.26 1442.05,-107.18 1445.52,-113.26"/>
</a>
</g>
</g>
<!-- Node28&#45;&gt;Node17 -->
<g id="edge56_Node000028_Node000017" class="edge">
<title>Node28&#45;&gt;Node17</title>
<g id="a_edge56_Node000028_Node000017"><a xlink:title=" ">
<path fill="none" stroke="#63b8ff" d="M1378.13,-88.04C1370.14,-88.04 1362.11,-88.04 1354.21,-88.04"/>
<polygon fill="#63b8ff" stroke="#63b8ff" points="1377.87,-91.54 1387.87,-88.04 1377.87,-84.54 1377.87,-91.54"/>
</a>
</g>
</g>
</g>
</svg>

<g id="navigator" transform="translate(0 0)" fill="#404254">
  <rect fill="#f2f5e9" fill-opacity="0.5" stroke="#606060" stroke-width=".5" x="0" y="0" width="60" height="60"/>
  <use id="zoomplus" xlink:href="#zoomPlus" x="17" y="9" onmousedown="handleZoom(evt,'in')"/>
  <use id="zoomminus" xlink:href="#zoomMin" x="42" y="9" onmousedown="handleZoom(evt,'out')"/>
  <use id="reset" xlink:href="#resetDef" x="30" y="36" onmousedown="handleReset()"/>
   <use id="arrowup" xlink:href="#arrowUp" x="0" y="0" onmousedown="handlePan(0,-1)"/>
  <use id="arrowright" xlink:href="#arrowRight" x="0" y="0" onmousedown="handlePan(1,0)"/>
  <use id="arrowdown" xlink:href="#arrowDown" x="0" y="0" onmousedown="handlePan(0,1)"/>
  <use id="arrowleft" xlink:href="#arrowLeft" x="0" y="0" onmousedown="handlePan(-1,0)"/>
</g>
<svg viewBox="0 0 15 15" width="100%" height="30px" preserveAspectRatio="xMaxYMin meet">
 <g id="arrow_out" transform="scale(0.3 0.3)">
  <a xlink:href="classediteurpanovisu_1_1GestionnaireInterfaceController_a3c94ef30b179b71bceb9669655fdc909_icgraph_org.svg" target="_base">
   <rect id="button" ry="5" rx="5" y="6" x="6" height="38" width="38"
        fill="#f2f5e9" fill-opacity="0.5" stroke="#606060" stroke-width="1.0"/>
   <path id="arrow"
     d="M 11.500037,31.436501 C 11.940474,20.09759 22.043105,11.32322 32.158766,21.979434 L 37.068811,17.246167 C 37.068811,17.246167 37.088388,32 37.088388,32 L 22.160133,31.978069 C 22.160133,31.978069 26.997745,27.140456 26.997745,27.140456 C 18.528582,18.264221 13.291696,25.230495 11.500037,31.436501 z"
     style="fill:#404040;"/>
  </a>
 </g>
</svg>

<style type='text/css'>
<![CDATA[
[data-mouse-over-selected='false'] { opacity: 0.7; }
[data-mouse-over-selected='true']  { opacity: 1.0; }
]]>
</style>
<script type="application/ecmascript"><![CDATA[
document.addEventListener('DOMContentLoaded', (event) => {
  highlightEdges();
  highlightAdjacentNodes();
});
]]></script>
</svg>
