<?xml version="1.0" encoding="UTF-8" standalone="no"?>
<!DOCTYPE svg PUBLIC "-//W3C//DTD SVG 1.1//EN"
 "http://www.w3.org/Graphics/SVG/1.1/DTD/svg11.dtd">
<!-- Generated by graphviz version 13.1.2 (20250808.2320)
 -->
<!-- Title: editeurpanovisu.GestionnairePlanController.planMouseClic Pages: 1 -->
<svg width="1150pt" height="516pt"
 viewBox="0.00 0.00 1150.00 516.00" xmlns="http://www.w3.org/2000/svg" xmlns:xlink="http://www.w3.org/1999/xlink">
<g id="graph0" class="graph" transform="scale(1 1) rotate(0) translate(4 512.13)">
<title>editeurpanovisu.GestionnairePlanController.planMouseClic</title>
<!-- Node1 -->
<g id="Node000001" class="node">
<title>Node1</title>
<g id="a_Node000001"><a xlink:title=" ">
<polygon fill="#999999" stroke="#666666" points="145,-192 0,-192 0,-160 145,-160 145,-192"/>
<text xml:space="preserve" text-anchor="start" x="8" y="-178.5" font-family="Helvetica,sans-Serif" font-size="10.00">editeurpanovisu.Gestionnaire</text>
<text xml:space="preserve" text-anchor="middle" x="72.5" y="-166.5" font-family="Helvetica,sans-Serif" font-size="10.00">PlanController.planMouseClic</text>
</a>
</g>
</g>
<!-- Node2 -->
<g id="Node000002" class="node">
<title>Node2</title>
<g id="a_Node000002"><a xlink:href="classediteurpanovisu_1_1GestionnairePlanController.html#a375ef7ea66bf40c2ad7d973e1a40c065" target="_top" xlink:title=" ">
<polygon fill="white" stroke="#666666" points="341.75,-334 181,-334 181,-290 341.75,-290 341.75,-334"/>
<text xml:space="preserve" text-anchor="start" x="189" y="-320.5" font-family="Helvetica,sans-Serif" font-size="10.00">editeurpanovisu.Gestionnaire</text>
<text xml:space="preserve" text-anchor="start" x="189" y="-308.5" font-family="Helvetica,sans-Serif" font-size="10.00">PlanController.afficherListePanos</text>
<text xml:space="preserve" text-anchor="middle" x="261.38" y="-296.5" font-family="Helvetica,sans-Serif" font-size="10.00">Vignettes</text>
</a>
</g>
</g>
<!-- Node1&#45;&gt;Node2 -->
<g id="edge1_Node000001_Node000002" class="edge">
<title>Node1&#45;&gt;Node2</title>
<g id="a_edge1_Node000001_Node000002"><a xlink:title=" ">
<path fill="none" stroke="#63b8ff" d="M91,-192.28C111.68,-211.11 147.51,-242.54 181,-266 189.81,-272.17 199.5,-278.29 208.98,-283.95"/>
<polygon fill="#63b8ff" stroke="#63b8ff" points="207.05,-286.87 217.45,-288.9 210.58,-280.83 207.05,-286.87"/>
</a>
</g>
</g>
<!-- Node3 -->
<g id="Node000003" class="node">
<title>Node3</title>
<g id="a_Node000003"><a xlink:href="classediteurpanovisu_1_1GestionnairePlanController.html#ac6a814832aad8390d7157032c3f7f107" target="_top" xlink:title=" ">
<polygon fill="white" stroke="#666666" points="564.75,-303 377.75,-303 377.75,-271 564.75,-271 564.75,-303"/>
<text xml:space="preserve" text-anchor="start" x="385.75" y="-289.5" font-family="Helvetica,sans-Serif" font-size="10.00">editeurpanovisu.Gestionnaire</text>
<text xml:space="preserve" text-anchor="middle" x="471.25" y="-277.5" font-family="Helvetica,sans-Serif" font-size="10.00">PlanController.ajouteAffichageHotspots</text>
</a>
</g>
</g>
<!-- Node1&#45;&gt;Node3 -->
<g id="edge18_Node000001_Node000003" class="edge">
<title>Node1&#45;&gt;Node3</title>
<g id="a_edge18_Node000001_Node000003"><a xlink:title=" ">
<path fill="none" stroke="#63b8ff" d="M110.32,-192.32C130.85,-201.01 157.04,-211.44 181,-219 244.41,-239.01 317.31,-256.11 374.05,-268.16"/>
<polygon fill="#63b8ff" stroke="#63b8ff" points="373.19,-271.55 383.7,-270.19 374.63,-264.7 373.19,-271.55"/>
</a>
</g>
</g>
<!-- Node5 -->
<g id="Node000005" class="node">
<title>Node5</title>
<g id="a_Node000005"><a xlink:href="classediteurpanovisu_1_1GestionnairePlanController.html#ae85c33829adf0dab112e4120e0dd2df2" target="_top" xlink:title=" ">
<polygon fill="white" stroke="#666666" points="962.75,-259 778.75,-259 778.75,-227 962.75,-227 962.75,-259"/>
<text xml:space="preserve" text-anchor="start" x="786.75" y="-245.5" font-family="Helvetica,sans-Serif" font-size="10.00">editeurpanovisu.Gestionnaire</text>
<text xml:space="preserve" text-anchor="middle" x="870.75" y="-233.5" font-family="Helvetica,sans-Serif" font-size="10.00">PlanController.retireAffichageHotSpots</text>
</a>
</g>
</g>
<!-- Node1&#45;&gt;Node5 -->
<g id="edge20_Node000001_Node000005" class="edge">
<title>Node1&#45;&gt;Node5</title>
<g id="a_edge20_Node000001_Node000005"><a xlink:title=" ">
<path fill="none" stroke="#63b8ff" d="M145.35,-181.29C267.95,-190.43 525.39,-210.11 742.75,-230 750.72,-230.73 758.96,-231.51 767.25,-232.32"/>
<polygon fill="#63b8ff" stroke="#63b8ff" points="766.75,-235.78 777.04,-233.28 767.43,-228.82 766.75,-235.78"/>
</a>
</g>
</g>
<!-- Node6 -->
<g id="Node000006" class="node">
<title>Node6</title>
<g id="a_Node000006"><a xlink:href="classediteurpanovisu_1_1GestionnairePlanController.html#ae1523e38be18cc67cdfc275adff5dd18" target="_top" xlink:title=" ">
<polygon fill="white" stroke="#666666" points="941.75,-435 799.75,-435 799.75,-403 941.75,-403 941.75,-435"/>
<text xml:space="preserve" text-anchor="start" x="807.75" y="-421.5" font-family="Helvetica,sans-Serif" font-size="10.00">editeurpanovisu.Gestionnaire</text>
<text xml:space="preserve" text-anchor="middle" x="870.75" y="-409.5" font-family="Helvetica,sans-Serif" font-size="10.00">PlanController.valideHsplan</text>
</a>
</g>
</g>
<!-- Node1&#45;&gt;Node6 -->
<g id="edge23_Node000001_Node000006" class="edge">
<title>Node1&#45;&gt;Node6</title>
<g id="a_edge23_Node000001_Node000006"><a xlink:title=" ">
<path fill="none" stroke="#63b8ff" d="M80.62,-192.02C95.45,-223.98 132.36,-296.58 181,-343 254.11,-412.77 280.15,-430.77 377.75,-457 525.38,-496.68 706.24,-462.58 802.28,-438.28"/>
<polygon fill="#63b8ff" stroke="#63b8ff" points="803,-441.71 811.81,-435.82 801.26,-434.93 803,-441.71"/>
</a>
</g>
</g>
<!-- Node7 -->
<g id="Node000007" class="node">
<title>Node7</title>
<g id="a_Node000007"><a xlink:href="classediteurpanovisu_1_1GestionnairePlanController.html#a2edd566ca304172fcd4ab5559dd1738c" target="_top" xlink:title=" ">
<polygon fill="white" stroke="#666666" points="1142.25,-265 998.75,-265 998.75,-233 1142.25,-233 1142.25,-265"/>
<text xml:space="preserve" text-anchor="start" x="1006.75" y="-251.5" font-family="Helvetica,sans-Serif" font-size="10.00">editeurpanovisu.Gestionnaire</text>
<text xml:space="preserve" text-anchor="middle" x="1070.5" y="-239.5" font-family="Helvetica,sans-Serif" font-size="10.00">PlanController.getiPlanActuel</text>
</a>
</g>
</g>
<!-- Node1&#45;&gt;Node7 -->
<g id="edge19_Node000001_Node000007" class="edge">
<title>Node1&#45;&gt;Node7</title>
<g id="a_edge19_Node000001_Node000007"><a xlink:title=" ">
<path fill="none" stroke="#63b8ff" d="M145.41,-164.33C299.16,-142.09 669.7,-103.01 962.75,-188 990.23,-195.97 1018.21,-212.32 1038.62,-226.09"/>
<polygon fill="#63b8ff" stroke="#63b8ff" points="1036.54,-228.91 1046.76,-231.73 1040.53,-223.16 1036.54,-228.91"/>
</a>
</g>
</g>
<!-- Node12 -->
<g id="Node000012" class="node">
<title>Node12</title>
<g id="a_Node000012"><a xlink:href="classediteurpanovisu_1_1HotSpot.html#a688b1fcf82d9c6c7ab73f48c3c502bee" target="_top" xlink:title=" ">
<polygon fill="white" stroke="#666666" points="331.25,-120 191.5,-120 191.5,-88 331.25,-88 331.25,-120"/>
<text xml:space="preserve" text-anchor="start" x="199.5" y="-106.5" font-family="Helvetica,sans-Serif" font-size="10.00">editeurpanovisu.HotSpot.set</text>
<text xml:space="preserve" text-anchor="middle" x="261.38" y="-94.5" font-family="Helvetica,sans-Serif" font-size="10.00">Latitude</text>
</a>
</g>
</g>
<!-- Node1&#45;&gt;Node12 -->
<g id="edge21_Node000001_Node000012" class="edge">
<title>Node1&#45;&gt;Node12</title>
<g id="a_edge21_Node000001_Node000012"><a xlink:title=" ">
<path fill="none" stroke="#63b8ff" d="M115.32,-159.54C135.2,-151.74 159.3,-142.34 181,-134 189.12,-130.88 197.72,-127.6 206.15,-124.4"/>
<polygon fill="#63b8ff" stroke="#63b8ff" points="207.14,-127.77 215.26,-120.95 204.67,-121.22 207.14,-127.77"/>
</a>
</g>
</g>
<!-- Node13 -->
<g id="Node000013" class="node">
<title>Node13</title>
<g id="a_Node000013"><a xlink:href="classediteurpanovisu_1_1HotSpot.html#a16d81a8366d079918544013cd4561dc4" target="_top" xlink:title=" ">
<polygon fill="white" stroke="#666666" points="331.25,-70 191.5,-70 191.5,-38 331.25,-38 331.25,-70"/>
<text xml:space="preserve" text-anchor="start" x="199.5" y="-56.5" font-family="Helvetica,sans-Serif" font-size="10.00">editeurpanovisu.HotSpot.set</text>
<text xml:space="preserve" text-anchor="middle" x="261.38" y="-44.5" font-family="Helvetica,sans-Serif" font-size="10.00">Longitude</text>
</a>
</g>
</g>
<!-- Node1&#45;&gt;Node13 -->
<g id="edge22_Node000001_Node000013" class="edge">
<title>Node1&#45;&gt;Node13</title>
<g id="a_edge22_Node000001_Node000013"><a xlink:title=" ">
<path fill="none" stroke="#63b8ff" d="M87.51,-159.57C106.6,-138.15 142.82,-100.84 181,-79 183.47,-77.59 186.03,-76.24 188.65,-74.97"/>
<polygon fill="#63b8ff" stroke="#63b8ff" points="189.89,-78.25 197.61,-70.99 187.05,-71.85 189.89,-78.25"/>
</a>
</g>
</g>
<!-- Node14 -->
<g id="Node000014" class="node">
<title>Node14</title>
<g id="a_Node000014"><a xlink:href="leaflet_8js.html#a873cae0273c5a7d9673544bbe0a6fe8b" target="_top" xlink:title=" ">
<polygon fill="white" stroke="#666666" points="275.77,-20 246.97,-20 246.97,0 275.77,0 275.77,-20"/>
<text xml:space="preserve" text-anchor="middle" x="261.38" y="-6.5" font-family="Helvetica,sans-Serif" font-size="10.00">Y</text>
</a>
</g>
</g>
<!-- Node1&#45;&gt;Node14 -->
<g id="edge24_Node000001_Node000014" class="edge">
<title>Node1&#45;&gt;Node14</title>
<g id="a_edge24_Node000001_Node000014"><a xlink:title=" ">
<path fill="none" stroke="#63b8ff" d="M80.6,-159.82C94.9,-129.19 130.2,-62.81 181,-29 197.23,-18.2 218.95,-13.52 235.56,-11.5"/>
<polygon fill="#63b8ff" stroke="#63b8ff" points="235.47,-15.03 245.1,-10.6 234.81,-8.06 235.47,-15.03"/>
</a>
</g>
</g>
<!-- Node2&#45;&gt;Node3 -->
<g id="edge2_Node000002_Node000003" class="edge">
<title>Node2&#45;&gt;Node3</title>
<g id="a_edge2_Node000002_Node000003"><a xlink:title=" ">
<path fill="none" stroke="#63b8ff" d="M342.15,-302.41C350.01,-301.46 358.07,-300.49 366.12,-299.52"/>
<polygon fill="#63b8ff" stroke="#63b8ff" points="366.48,-303.01 375.99,-298.34 365.64,-296.06 366.48,-303.01"/>
</a>
</g>
</g>
<!-- Node2&#45;&gt;Node5 -->
<g id="edge15_Node000002_Node000005" class="edge">
<title>Node2&#45;&gt;Node5</title>
<g id="a_edge15_Node000002_Node000005"><a xlink:title=" ">
<path fill="none" stroke="#63b8ff" d="M303.84,-289.58C325.26,-279.16 352.21,-267.81 377.75,-262 509.77,-231.95 666.77,-231.82 767.3,-236.08"/>
<polygon fill="#63b8ff" stroke="#63b8ff" points="767.01,-239.57 777.16,-236.52 767.32,-232.57 767.01,-239.57"/>
</a>
</g>
</g>
<!-- Node2&#45;&gt;Node6 -->
<g id="edge17_Node000002_Node000006" class="edge">
<title>Node2&#45;&gt;Node6</title>
<g id="a_edge17_Node000002_Node000006"><a xlink:title=" ">
<path fill="none" stroke="#63b8ff" d="M326.72,-334.42C343.25,-339.85 361.08,-345.4 377.75,-350 475.66,-377.03 500.25,-385.27 600.75,-400 663.22,-409.16 734.52,-413.94 788.01,-416.41"/>
<polygon fill="#63b8ff" stroke="#63b8ff" points="787.83,-419.91 797.98,-416.86 788.14,-412.92 787.83,-419.91"/>
</a>
</g>
</g>
<!-- Node2&#45;&gt;Node7 -->
<g id="edge12_Node000002_Node000007" class="edge">
<title>Node2&#45;&gt;Node7</title>
<g id="a_edge12_Node000002_Node000007"><a xlink:title=" ">
<path fill="none" stroke="#63b8ff" d="M286.74,-289.52C308.7,-270.81 342.83,-245.46 377.75,-234 624.87,-152.88 705.25,-181.37 962.75,-218 979.21,-220.34 996.67,-224.62 1012.6,-229.26"/>
<polygon fill="#63b8ff" stroke="#63b8ff" points="1011.33,-232.53 1021.91,-232.07 1013.35,-225.83 1011.33,-232.53"/>
</a>
</g>
</g>
<!-- Node8 -->
<g id="Node000008" class="node">
<title>Node8</title>
<g id="a_Node000008"><a xlink:href="leaflet_8js.html#a73aff07b65d7c0b09ccf6b4c4f1b7a9d" target="_top" xlink:title=" ">
<polygon fill="white" stroke="#666666" points="1084.9,-429 1056.1,-429 1056.1,-409 1084.9,-409 1084.9,-429"/>
<text xml:space="preserve" text-anchor="middle" x="1070.5" y="-415.5" font-family="Helvetica,sans-Serif" font-size="10.00">i</text>
</a>
</g>
</g>
<!-- Node2&#45;&gt;Node8 -->
<g id="edge13_Node000002_Node000008" class="edge">
<title>Node2&#45;&gt;Node8</title>
<g id="a_edge13_Node000002_Node000008"><a xlink:title=" ">
<path fill="none" stroke="#63b8ff" d="M272.23,-334.41C288.55,-368.32 324.72,-431.43 377.75,-457 614.9,-571.37 952.28,-462.36 1045.07,-428.37"/>
<polygon fill="#63b8ff" stroke="#63b8ff" points="1046.27,-431.66 1054.42,-424.88 1043.83,-425.1 1046.27,-431.66"/>
</a>
</g>
</g>
<!-- Node10 -->
<g id="Node000010" class="node">
<title>Node10</title>
<g id="a_Node000010"><a xlink:href="leaflet_8js.html#abf5830200d869e463ea38504a19985f6" target="_top" xlink:title=" ">
<polygon fill="white" stroke="#666666" points="486,-341 456.5,-341 456.5,-321 486,-321 486,-341"/>
<text xml:space="preserve" text-anchor="middle" x="471.25" y="-327.5" font-family="Helvetica,sans-Serif" font-size="10.00">me</text>
</a>
</g>
</g>
<!-- Node2&#45;&gt;Node10 -->
<g id="edge14_Node000002_Node000010" class="edge">
<title>Node2&#45;&gt;Node10</title>
<g id="a_edge14_Node000002_Node000010"><a xlink:title=" ">
<path fill="none" stroke="#63b8ff" d="M342.15,-319.29C378.75,-322.64 419.59,-326.37 445.1,-328.7"/>
<polygon fill="#63b8ff" stroke="#63b8ff" points="444.52,-332.16 454.8,-329.59 445.16,-325.19 444.52,-332.16"/>
</a>
</g>
</g>
<!-- Node11 -->
<g id="Node000011" class="node">
<title>Node11</title>
<g id="a_Node000011"><a xlink:href="classediteurpanovisu_1_1GestionnairePlanController.html#a2f1b683e1be605730a62f963e130bdc2" target="_top" xlink:title=" ">
<polygon fill="white" stroke="#666666" points="562.88,-448 379.62,-448 379.62,-416 562.88,-416 562.88,-448"/>
<text xml:space="preserve" text-anchor="start" x="387.62" y="-434.5" font-family="Helvetica,sans-Serif" font-size="10.00">editeurpanovisu.Gestionnaire</text>
<text xml:space="preserve" text-anchor="middle" x="471.25" y="-422.5" font-family="Helvetica,sans-Serif" font-size="10.00">PlanController.setStrPlanListeVignette</text>
</a>
</g>
</g>
<!-- Node2&#45;&gt;Node11 -->
<g id="edge16_Node000002_Node000011" class="edge">
<title>Node2&#45;&gt;Node11</title>
<g id="a_edge16_Node000002_Node000011"><a xlink:title=" ">
<path fill="none" stroke="#63b8ff" d="M285.84,-334.35C308.01,-354.44 342.97,-383.54 377.75,-402 384.36,-405.51 391.46,-408.7 398.67,-411.59"/>
<polygon fill="#63b8ff" stroke="#63b8ff" points="397.28,-414.8 407.87,-415.05 399.75,-408.25 397.28,-414.8"/>
</a>
</g>
</g>
<!-- Node4 -->
<g id="Node000004" class="node">
<title>Node4</title>
<g id="a_Node000004"><a xlink:href="classediteurpanovisu_1_1GestionnairePlanController.html#ad4f72bd693b5b3bd93bee89bda000990" target="_top" xlink:title=" ">
<polygon fill="white" stroke="#666666" points="742.75,-303 600.75,-303 600.75,-271 742.75,-271 742.75,-303"/>
<text xml:space="preserve" text-anchor="start" x="608.75" y="-289.5" font-family="Helvetica,sans-Serif" font-size="10.00">editeurpanovisu.Gestionnaire</text>
<text xml:space="preserve" text-anchor="middle" x="671.75" y="-277.5" font-family="Helvetica,sans-Serif" font-size="10.00">PlanController.affichageHS</text>
</a>
</g>
</g>
<!-- Node3&#45;&gt;Node4 -->
<g id="edge3_Node000003_Node000004" class="edge">
<title>Node3&#45;&gt;Node4</title>
<g id="a_edge3_Node000003_Node000004"><a xlink:title=" ">
<path fill="none" stroke="#63b8ff" d="M565.11,-280.26C573.11,-280.23 581.16,-280.26 589.06,-280.34"/>
<polygon fill="#63b8ff" stroke="#63b8ff" points="588.94,-283.84 598.99,-280.49 589.05,-276.84 588.94,-283.84"/>
</a>
</g>
</g>
<!-- Node3&#45;&gt;Node7 -->
<g id="edge9_Node000003_Node000007" class="edge">
<title>Node3&#45;&gt;Node7</title>
<g id="a_edge9_Node000003_Node000007"><a xlink:title=" ">
<path fill="none" stroke="#63b8ff" d="M543.93,-303.47C562.35,-307 582.2,-310.21 600.75,-312 743.35,-325.74 909.31,-291.49 1000.55,-268.28"/>
<polygon fill="#63b8ff" stroke="#63b8ff" points="1001.29,-271.7 1010.1,-265.82 999.54,-264.92 1001.29,-271.7"/>
</a>
</g>
</g>
<!-- Node9 -->
<g id="Node000009" class="node">
<title>Node9</title>
<g id="a_Node000009"><a xlink:href="classediteurpanovisu_1_1GestionnairePlanController.html#ace9c9d5683a0db9254026f3cb20cedd3" target="_top" xlink:title=" ">
<polygon fill="white" stroke="#666666" points="742.75,-391 600.75,-391 600.75,-359 742.75,-359 742.75,-391"/>
<text xml:space="preserve" text-anchor="start" x="608.75" y="-377.5" font-family="Helvetica,sans-Serif" font-size="10.00">editeurpanovisu.Gestionnaire</text>
<text xml:space="preserve" text-anchor="middle" x="671.75" y="-365.5" font-family="Helvetica,sans-Serif" font-size="10.00">PlanController.listePano</text>
</a>
</g>
</g>
<!-- Node3&#45;&gt;Node9 -->
<g id="edge10_Node000003_Node000009" class="edge">
<title>Node3&#45;&gt;Node9</title>
<g id="a_edge10_Node000003_Node000009"><a xlink:title=" ">
<path fill="none" stroke="#63b8ff" d="M545.75,-303.33C552.34,-305.84 558.77,-308.71 564.75,-312 583.77,-322.46 582.52,-333.22 600.75,-345 605.56,-348.1 610.74,-351.01 616.03,-353.71"/>
<polygon fill="#63b8ff" stroke="#63b8ff" points="614.38,-356.8 624.91,-357.97 617.4,-350.49 614.38,-356.8"/>
</a>
</g>
</g>
<!-- Node4&#45;&gt;Node3 -->
<g id="edge4_Node000004_Node000003" class="edge">
<title>Node4&#45;&gt;Node3</title>
<g id="a_edge4_Node000004_Node000003"><a xlink:title=" ">
<path fill="none" stroke="#63b8ff" d="M600.51,-293.49C592.71,-293.63 584.66,-293.72 576.56,-293.74"/>
<polygon fill="#63b8ff" stroke="#63b8ff" points="576.62,-290.24 566.62,-293.74 576.62,-297.24 576.62,-290.24"/>
</a>
</g>
</g>
<!-- Node4&#45;&gt;Node5 -->
<g id="edge5_Node000004_Node000005" class="edge">
<title>Node4&#45;&gt;Node5</title>
<g id="a_edge5_Node000004_Node000005"><a xlink:title=" ">
<path fill="none" stroke="#63b8ff" d="M743.04,-271.3C756.64,-268.26 771.02,-265.05 785.03,-261.92"/>
<polygon fill="#63b8ff" stroke="#63b8ff" points="785.69,-265.36 794.68,-259.77 784.16,-258.53 785.69,-265.36"/>
</a>
</g>
</g>
<!-- Node4&#45;&gt;Node6 -->
<g id="edge6_Node000004_Node000006" class="edge">
<title>Node4&#45;&gt;Node6</title>
<g id="a_edge6_Node000004_Node000006"><a xlink:title=" ">
<path fill="none" stroke="#63b8ff" d="M697.3,-303.45C732.2,-326.83 796.28,-369.77 835.73,-396.21"/>
<polygon fill="#63b8ff" stroke="#63b8ff" points="833.69,-399.05 843.94,-401.71 837.58,-393.23 833.69,-399.05"/>
</a>
</g>
</g>
<!-- Node6&#45;&gt;Node7 -->
<g id="edge7_Node000006_Node000007" class="edge">
<title>Node6&#45;&gt;Node7</title>
<g id="a_edge7_Node000006_Node000007"><a xlink:title=" ">
<path fill="none" stroke="#63b8ff" d="M892.59,-402.54C911.19,-387.73 939.07,-365.25 962.75,-345 990.88,-320.94 1022.31,-292.48 1043.73,-272.83"/>
<polygon fill="#63b8ff" stroke="#63b8ff" points="1045.88,-275.61 1050.87,-266.26 1041.14,-270.46 1045.88,-275.61"/>
</a>
</g>
</g>
<!-- Node6&#45;&gt;Node8 -->
<g id="edge8_Node000006_Node000008" class="edge">
<title>Node6&#45;&gt;Node8</title>
<g id="a_edge8_Node000006_Node000008"><a xlink:title=" ">
<path fill="none" stroke="#63b8ff" d="M942.03,-419C977.71,-419 1018.82,-419 1044.49,-419"/>
<polygon fill="#63b8ff" stroke="#63b8ff" points="1044.25,-422.5 1054.25,-419 1044.25,-415.5 1044.25,-422.5"/>
</a>
</g>
</g>
<!-- Node9&#45;&gt;Node8 -->
<g id="edge11_Node000009_Node000008" class="edge">
<title>Node9&#45;&gt;Node8</title>
<g id="a_edge11_Node000009_Node000008"><a xlink:title=" ">
<path fill="none" stroke="#63b8ff" d="M743.12,-376.37C802.06,-378.3 888.27,-382.92 962.75,-394 991.21,-398.24 1023.28,-406.19 1044.78,-411.99"/>
<polygon fill="#63b8ff" stroke="#63b8ff" points="1043.79,-415.35 1054.36,-414.63 1045.65,-408.6 1043.79,-415.35"/>
</a>
</g>
</g>
</g>
</svg>
