<?xml version="1.0" encoding="UTF-8" standalone="no"?>
<!DOCTYPE svg PUBLIC "-//W3C//DTD SVG 1.1//EN"
 "http://www.w3.org/Graphics/SVG/1.1/DTD/svg11.dtd">
<!-- Generated by graphviz version 13.1.2 (20250808.2320)
 -->
<!-- Title: editeurpanovisu.HotSpot.getStrFichierXML Pages: 1 -->
<!--zoomable 444 -->

<svg id="main" version="1.1" xmlns="http://www.w3.org/2000/svg" xmlns:xlink="http://www.w3.org/1999/xlink" xml:space="preserve" onload="init(evt)">

<style type="text/css"><![CDATA[
.node, .edge {opacity: 0.7;}
.node.selected, .edge.selected {opacity: 1;}
.edge:hover path { stroke: red; }
.edge:hover polygon { stroke: red; fill: red; }
]]></style>

<defs>
  <circle id="rim" cx="0" cy="0" r="7"/>
  <circle id="rim2" cx="0" cy="0" r="3.5"/>
  <g id="zoomPlus">
    <use xlink:href="#rim" fill="#404040"><set attributeName="fill" to="#808080" begin="zoomplus.mouseover" end="zoomplus.mouseout"/></use>
    <path d="M-4,0h8M0,-4v8" fill="none" stroke="white" stroke-width="1.5" pointer-events="none"/>
  </g>
  <g id="zoomMin">
    <use xlink:href="#rim" fill="#404040"><set attributeName="fill" to="#808080" begin="zoomminus.mouseover" end="zoomminus.mouseout"/></use>
    <path d="M-4,0h8" fill="none" stroke="white" stroke-width="1.5" pointer-events="none"/>
  </g>
  <g id="arrowUp" transform="translate(30 24)">
    <use xlink:href="#rim"/>
    <path pointer-events="none" fill="none" stroke="white" stroke-width="1.5" d="M0,-3.0v7 M-2.5,-0.5L0,-3.0L2.5,-0.5"/>
  </g>
  <g id="arrowRight" transform="rotate(90) translate(36 -43)">
    <use xlink:href="#rim"/>
    <path pointer-events="none" fill="none" stroke="white" stroke-width="1.5" d="M0,-3.0v7 M-2.5,-0.5L0,-3.0L2.5,-0.5"/>
  </g>
  <g id="arrowDown" transform="rotate(180) translate(-30 -48)">
    <use xlink:href="#rim"/>
    <path pointer-events="none" fill="none" stroke="white" stroke-width="1.5" d="M0,-3.0v7 M-2.5,-0.5L0,-3.0L2.5,-0.5"/>
  </g>
  <g id="arrowLeft" transform="rotate(270) translate(-36 17)">
    <use xlink:href="#rim"/>
    <path pointer-events="none" fill="none" stroke="white" stroke-width="1.5" d="M0,-3.0v7 M-2.5,-0.5L0,-3.0L2.5,-0.5"/>
  </g>
  <g id="resetDef">
    <use xlink:href="#rim2" fill="#404040"><set attributeName="fill" to="#808080" begin="reset.mouseover" end="reset.mouseout"/></use>
  </g>
</defs>
<script type="application/ecmascript">
var viewWidth = 1908;
var viewHeight = 444;
var sectionId = 'dynsection-9';
</script>
<script type="application/ecmascript" xlink:href="svg.min.js"/>
<svg id="graph" class="graph">
<g id="viewport">
<title>editeurpanovisu.HotSpot.getStrFichierXML</title>
<!-- Node1 -->
<g id="Node000001" class="node">
<title>Node1</title>
<g id="a_Node000001"><a xlink:title=" ">
<polygon fill="#999999" stroke="#666666" points="1899.75,-122.68 1760,-122.68 1760,-90.68 1899.75,-90.68 1899.75,-122.68"/>
<text xml:space="preserve" text-anchor="start" x="1768" y="-109.18" font-family="Helvetica,sans-Serif" font-size="10.00">editeurpanovisu.HotSpot.get</text>
<text xml:space="preserve" text-anchor="middle" x="1829.88" y="-97.18" font-family="Helvetica,sans-Serif" font-size="10.00">StrFichierXML</text>
</a>
</g>
</g>
<!-- Node2 -->
<g id="Node000002" class="node">
<title>Node2</title>
<g id="a_Node000002"><a xlink:href="classediteurpanovisu_1_1GestionnairePlanController.html#a4fee5b2044276463a3fde41289924472" target="_top" xlink:title=" ">
<polygon fill="white" stroke="#666666" points="1724,-166.68 1582,-166.68 1582,-134.68 1724,-134.68 1724,-166.68"/>
<text xml:space="preserve" text-anchor="start" x="1590" y="-153.18" font-family="Helvetica,sans-Serif" font-size="10.00">editeurpanovisu.Gestionnaire</text>
<text xml:space="preserve" text-anchor="middle" x="1653" y="-141.18" font-family="Helvetica,sans-Serif" font-size="10.00">PlanController.getTemplate</text>
</a>
</g>
</g>
<!-- Node1&#45;&gt;Node2 -->
<g id="edge1_Node000001_Node000002" class="edge">
<title>Node1&#45;&gt;Node2</title>
<g id="a_edge1_Node000001_Node000002"><a xlink:title=" ">
<path fill="none" stroke="#63b8ff" d="M1752.77,-125.83C1741.67,-128.62 1730.33,-131.47 1719.46,-134.21"/>
<polygon fill="#63b8ff" stroke="#63b8ff" points="1753.45,-129.27 1762.29,-123.43 1751.74,-122.48 1753.45,-129.27"/>
</a>
</g>
</g>
<!-- Node3 -->
<g id="Node000003" class="node">
<title>Node3</title>
<g id="a_Node000003"><a xlink:href="classediteurpanovisu_1_1EditeurPanovisu.html#aaee69ab54364f89b58458c744a4195c0" target="_top" xlink:title=" ">
<polygon fill="white" stroke="#666666" points="1546,-147.68 1358.25,-147.68 1358.25,-115.68 1546,-115.68 1546,-147.68"/>
<text xml:space="preserve" text-anchor="start" x="1366.25" y="-134.18" font-family="Helvetica,sans-Serif" font-size="10.00">editeurpanovisu.EditeurPanovisu.sauve</text>
<text xml:space="preserve" text-anchor="middle" x="1452.12" y="-122.18" font-family="Helvetica,sans-Serif" font-size="10.00">FichierProjet</text>
</a>
</g>
</g>
<!-- Node1&#45;&gt;Node3 -->
<g id="edge27_Node000001_Node000003" class="edge">
<title>Node1&#45;&gt;Node3</title>
<g id="a_edge27_Node000001_Node000003"><a xlink:title=" ">
<path fill="none" stroke="#63b8ff" d="M1748.33,-112.04C1689.02,-115.98 1608.23,-121.36 1546.16,-125.49"/>
<polygon fill="#63b8ff" stroke="#63b8ff" points="1748.26,-115.55 1758.01,-111.39 1747.8,-108.56 1748.26,-115.55"/>
</a>
</g>
</g>
<!-- Node16 -->
<g id="Node000016" class="node">
<title>Node16</title>
<g id="a_Node000016"><a xlink:href="classediteurpanovisu_1_1EditeurPanovisu.html#a87b29dc258cfc67370b1f27809e91b8e" target="_top" xlink:title=" ">
<polygon fill="white" stroke="#666666" points="1317,-84.68 1142,-84.68 1142,-52.68 1317,-52.68 1317,-84.68"/>
<text xml:space="preserve" text-anchor="start" x="1150" y="-71.18" font-family="Helvetica,sans-Serif" font-size="10.00">editeurpanovisu.EditeurPanovisu.tsk</text>
<text xml:space="preserve" text-anchor="middle" x="1229.5" y="-59.18" font-family="Helvetica,sans-Serif" font-size="10.00">AnalyseFichierPVU</text>
</a>
</g>
</g>
<!-- Node1&#45;&gt;Node16 -->
<g id="edge28_Node000001_Node000016" class="edge">
<title>Node1&#45;&gt;Node16</title>
<g id="a_edge28_Node000001_Node000016"><a xlink:title=" ">
<path fill="none" stroke="#63b8ff" d="M1748.4,-101.57C1636.09,-94.43 1433.12,-81.54 1317.43,-74.2"/>
<polygon fill="#63b8ff" stroke="#63b8ff" points="1747.94,-105.04 1758.14,-102.19 1748.38,-98.06 1747.94,-105.04"/>
</a>
</g>
</g>
<!-- Node2&#45;&gt;Node3 -->
<g id="edge2_Node000002_Node000003" class="edge">
<title>Node2&#45;&gt;Node3</title>
<g id="a_edge2_Node000002_Node000003"><a xlink:title=" ">
<path fill="none" stroke="#63b8ff" d="M1570.23,-142.87C1562.37,-142.12 1554.37,-141.35 1546.41,-140.59"/>
<polygon fill="#63b8ff" stroke="#63b8ff" points="1569.81,-146.34 1580.1,-143.81 1570.48,-139.37 1569.81,-146.34"/>
</a>
</g>
</g>
<!-- Node4 -->
<g id="Node000004" class="node">
<title>Node4</title>
<g id="a_Node000004"><a xlink:href="classediteurpanovisu_1_1EditeurPanovisu.html#a9f3ea25b35d4884524508dab3dc4fd6a" target="_top" xlink:title=" ">
<polygon fill="white" stroke="#666666" points="1322.25,-251.68 1136.75,-251.68 1136.75,-219.68 1322.25,-219.68 1322.25,-251.68"/>
<text xml:space="preserve" text-anchor="start" x="1144.75" y="-238.18" font-family="Helvetica,sans-Serif" font-size="10.00">editeurpanovisu.EditeurPanovisu.projet</text>
<text xml:space="preserve" text-anchor="middle" x="1229.5" y="-226.18" font-family="Helvetica,sans-Serif" font-size="10.00">Sauve</text>
</a>
</g>
</g>
<!-- Node3&#45;&gt;Node4 -->
<g id="edge3_Node000003_Node000004" class="edge">
<title>Node3&#45;&gt;Node4</title>
<g id="a_edge3_Node000003_Node000004"><a xlink:title=" ">
<path fill="none" stroke="#63b8ff" d="M1406.02,-152.94C1364.35,-172.58 1303.31,-201.35 1265.3,-219.28"/>
<polygon fill="#63b8ff" stroke="#63b8ff" points="1407.24,-156.23 1414.8,-148.8 1404.26,-149.9 1407.24,-156.23"/>
</a>
</g>
</g>
<!-- Node11 -->
<g id="Node000011" class="node">
<title>Node11</title>
<g id="a_Node000011"><a xlink:href="classediteurpanovisu_1_1EditeurPanovisu.html#a7b2e25dc717eb52b62e23d54ec4c124a" target="_top" xlink:title=" ">
<polygon fill="white" stroke="#666666" points="644.62,-100.68 459.12,-100.68 459.12,-68.68 644.62,-68.68 644.62,-100.68"/>
<text xml:space="preserve" text-anchor="start" x="467.12" y="-87.18" font-family="Helvetica,sans-Serif" font-size="10.00">editeurpanovisu.EditeurPanovisu.projet</text>
<text xml:space="preserve" text-anchor="middle" x="551.88" y="-75.18" font-family="Helvetica,sans-Serif" font-size="10.00">SauveSous</text>
</a>
</g>
</g>
<!-- Node3&#45;&gt;Node11 -->
<g id="edge26_Node000003_Node000011" class="edge">
<title>Node3&#45;&gt;Node11</title>
<g id="a_edge26_Node000003_Node000011"><a xlink:title=" ">
<path fill="none" stroke="#63b8ff" d="M1424.86,-107.81C1400.27,-87 1361.53,-57.97 1322.25,-43.68 1067.09,49.19 732.81,-31.01 605.34,-68.19"/>
<polygon fill="#63b8ff" stroke="#63b8ff" points="1422.56,-110.45 1432.42,-114.35 1427.14,-105.16 1422.56,-110.45"/>
</a>
</g>
</g>
<!-- Node5 -->
<g id="Node000005" class="node">
<title>Node5</title>
<g id="a_Node000005"><a xlink:href="classediteurpanovisu_1_1EditeurPanovisu.html#ac912b80c1f2ac97def60ff005c5c480b" target="_top" xlink:title=" ">
<polygon fill="white" stroke="#666666" points="420.5,-262.68 216.25,-262.68 216.25,-242.68 420.5,-242.68 420.5,-262.68"/>
<text xml:space="preserve" text-anchor="middle" x="318.38" y="-249.18" font-family="Helvetica,sans-Serif" font-size="10.00">editeurpanovisu.EditeurPanovisu.creeMenu</text>
</a>
</g>
</g>
<!-- Node4&#45;&gt;Node5 -->
<g id="edge4_Node000004_Node000005" class="edge">
<title>Node4&#45;&gt;Node5</title>
<g id="a_edge4_Node000004_Node000005"><a xlink:title=" ">
<path fill="none" stroke="#63b8ff" d="M1125.02,-237.61C949.36,-240.9 595,-247.52 420.78,-250.78"/>
<polygon fill="#63b8ff" stroke="#63b8ff" points="1124.88,-241.12 1134.81,-237.43 1124.75,-234.12 1124.88,-241.12"/>
</a>
</g>
</g>
<!-- Node7 -->
<g id="Node000007" class="node">
<title>Node7</title>
<g id="a_Node000007"><a xlink:href="classediteurpanovisu_1_1EditeurPanovisu.html#a94e36b9e9d09ab1a4c852b8a8cefa927" target="_top" xlink:title=" ">
<polygon fill="white" stroke="#666666" points="647.25,-356.68 456.5,-356.68 456.5,-324.68 647.25,-324.68 647.25,-356.68"/>
<text xml:space="preserve" text-anchor="start" x="464.5" y="-343.18" font-family="Helvetica,sans-Serif" font-size="10.00">editeurpanovisu.EditeurPanovisu.genere</text>
<text xml:space="preserve" text-anchor="middle" x="551.88" y="-331.18" font-family="Helvetica,sans-Serif" font-size="10.00">Visite</text>
</a>
</g>
</g>
<!-- Node4&#45;&gt;Node7 -->
<g id="edge6_Node000004_Node000007" class="edge">
<title>Node4&#45;&gt;Node7</title>
<g id="a_edge6_Node000004_Node000007"><a xlink:title=" ">
<path fill="none" stroke="#63b8ff" d="M1189.23,-257.27C1164.54,-269.89 1131.62,-284.98 1100.75,-293.68 946.14,-337.22 758.11,-343.83 647.36,-343.24"/>
<polygon fill="#63b8ff" stroke="#63b8ff" points="1190.67,-260.47 1197.93,-252.75 1187.44,-254.26 1190.67,-260.47"/>
</a>
</g>
</g>
<!-- Node8 -->
<g id="Node000008" class="node">
<title>Node8</title>
<g id="a_Node000008"><a xlink:href="classediteurpanovisu_1_1EditeurPanovisu.html#ab4beb1597b660a4a253befc6e76f1c54" target="_top" xlink:title=" ">
<polygon fill="white" stroke="#666666" points="644.62,-187.68 459.12,-187.68 459.12,-155.68 644.62,-155.68 644.62,-187.68"/>
<text xml:space="preserve" text-anchor="start" x="467.12" y="-174.18" font-family="Helvetica,sans-Serif" font-size="10.00">editeurpanovisu.EditeurPanovisu.projet</text>
<text xml:space="preserve" text-anchor="middle" x="551.88" y="-162.18" font-family="Helvetica,sans-Serif" font-size="10.00">Charge</text>
</a>
</g>
</g>
<!-- Node4&#45;&gt;Node8 -->
<g id="edge8_Node000004_Node000008" class="edge">
<title>Node4&#45;&gt;Node8</title>
<g id="a_edge8_Node000004_Node000008"><a xlink:title=" ">
<path fill="none" stroke="#63b8ff" d="M1125.11,-225.88C994.1,-213.47 770.31,-192.27 644.93,-180.4"/>
<polygon fill="#63b8ff" stroke="#63b8ff" points="1124.53,-229.34 1134.82,-226.8 1125.19,-222.38 1124.53,-229.34"/>
</a>
</g>
</g>
<!-- Node9 -->
<g id="Node000009" class="node">
<title>Node9</title>
<g id="a_Node000009"><a xlink:href="classediteurpanovisu_1_1EditeurPanovisu.html#a6d19b4d885ee6fcec827b91956295732" target="_top" xlink:title=" ">
<polygon fill="white" stroke="#666666" points="1098.12,-62.68 912.62,-62.68 912.62,-30.68 1098.12,-30.68 1098.12,-62.68"/>
<text xml:space="preserve" text-anchor="start" x="920.62" y="-49.18" font-family="Helvetica,sans-Serif" font-size="10.00">editeurpanovisu.EditeurPanovisu.projet</text>
<text xml:space="preserve" text-anchor="middle" x="1005.38" y="-37.18" font-family="Helvetica,sans-Serif" font-size="10.00">ChargeNom</text>
</a>
</g>
</g>
<!-- Node4&#45;&gt;Node9 -->
<g id="edge10_Node000004_Node000009" class="edge">
<title>Node4&#45;&gt;Node9</title>
<g id="a_edge10_Node000004_Node000009"><a xlink:title=" ">
<path fill="none" stroke="#63b8ff" d="M1204.77,-211.35C1179.76,-186.16 1138.81,-146.17 1100.75,-114.68 1078.04,-95.88 1050.53,-76.41 1031.09,-63.14"/>
<polygon fill="#63b8ff" stroke="#63b8ff" points="1202.03,-213.55 1211.54,-218.21 1207.01,-208.63 1202.03,-213.55"/>
</a>
</g>
</g>
<!-- Node12 -->
<g id="Node000012" class="node">
<title>Node12</title>
<g id="a_Node000012"><a xlink:href="classediteurpanovisu_1_1EditeurPanovisu.html#a9b46b222714af12c06ec33d410400773" target="_top" xlink:title=" ">
<polygon fill="white" stroke="#666666" points="874,-312.68 683.25,-312.68 683.25,-280.68 874,-280.68 874,-312.68"/>
<text xml:space="preserve" text-anchor="start" x="691.25" y="-299.18" font-family="Helvetica,sans-Serif" font-size="10.00">editeurpanovisu.EditeurPanovisu.projets</text>
<text xml:space="preserve" text-anchor="middle" x="778.62" y="-287.18" font-family="Helvetica,sans-Serif" font-size="10.00">Fermer</text>
</a>
</g>
</g>
<!-- Node4&#45;&gt;Node12 -->
<g id="edge18_Node000004_Node000012" class="edge">
<title>Node4&#45;&gt;Node12</title>
<g id="a_edge18_Node000004_Node000012"><a xlink:title=" ">
<path fill="none" stroke="#63b8ff" d="M1162,-255.08C1142.42,-260.19 1120.85,-265.23 1100.75,-268.68 1025.19,-281.64 938.53,-288.75 874.3,-292.55"/>
<polygon fill="#63b8ff" stroke="#63b8ff" points="1162.74,-258.51 1171.51,-252.55 1160.94,-251.74 1162.74,-258.51"/>
</a>
</g>
</g>
<!-- Node13 -->
<g id="Node000013" class="node">
<title>Node13</title>
<g id="a_Node000013"><a xlink:href="classediteurpanovisu_1_1EditeurPanovisu.html#ac9d449399ccd38843fa12e716f0c9611" target="_top" xlink:title=" ">
<polygon fill="white" stroke="#666666" points="1100.75,-435.68 910,-435.68 910,-403.68 1100.75,-403.68 1100.75,-435.68"/>
<text xml:space="preserve" text-anchor="start" x="918" y="-422.18" font-family="Helvetica,sans-Serif" font-size="10.00">editeurpanovisu.EditeurPanovisu.projets</text>
<text xml:space="preserve" text-anchor="middle" x="1005.38" y="-410.18" font-family="Helvetica,sans-Serif" font-size="10.00">Nouveau</text>
</a>
</g>
</g>
<!-- Node4&#45;&gt;Node13 -->
<g id="edge20_Node000004_Node000013" class="edge">
<title>Node4&#45;&gt;Node13</title>
<g id="a_edge20_Node000004_Node000013"><a xlink:title=" ">
<path fill="none" stroke="#63b8ff" d="M1213.66,-261.49C1192.73,-295.66 1151.39,-355.54 1100.75,-389.68 1092.77,-395.06 1083.76,-399.52 1074.56,-403.21"/>
<polygon fill="#63b8ff" stroke="#63b8ff" points="1216.57,-263.45 1218.71,-253.07 1210.56,-259.85 1216.57,-263.45"/>
</a>
</g>
</g>
<!-- Node14 -->
<g id="Node000014" class="node">
<title>Node14</title>
<g id="a_Node000014"><a xlink:href="classediteurpanovisu_1_1EditeurPanovisu.html#a2b3125ffe2e6291efacf19df6cb30a8d" target="_top" xlink:title=" ">
<polygon fill="white" stroke="#666666" points="869.12,-388.68 688.12,-388.68 688.12,-368.68 869.12,-368.68 869.12,-388.68"/>
<text xml:space="preserve" text-anchor="middle" x="778.62" y="-375.18" font-family="Helvetica,sans-Serif" font-size="10.00">editeurpanovisu.EditeurPanovisu.start</text>
</a>
</g>
</g>
<!-- Node4&#45;&gt;Node14 -->
<g id="edge25_Node000004_Node000014" class="edge">
<title>Node4&#45;&gt;Node14</title>
<g id="a_edge25_Node000004_Node000014"><a xlink:title=" ">
<path fill="none" stroke="#63b8ff" d="M1209.59,-260.7C1187.06,-288.37 1146.65,-331.7 1100.75,-351.68 1027.52,-383.55 936.11,-388.28 869.56,-386.22"/>
<polygon fill="#63b8ff" stroke="#63b8ff" points="1212.11,-263.16 1215.59,-253.15 1206.63,-258.8 1212.11,-263.16"/>
</a>
</g>
</g>
<!-- Node15 -->
<g id="Node000015" class="node">
<title>Node15</title>
<g id="a_Node000015"><a xlink:href="classediteurpanovisu_1_1EditeurPanovisu.html#aef8c9b28c3e88d6e27e3f62b9a901134" target="_top" xlink:title=" ">
<polygon fill="white" stroke="#666666" points="1099.25,-188.68 911.5,-188.68 911.5,-156.68 1099.25,-156.68 1099.25,-188.68"/>
<text xml:space="preserve" text-anchor="start" x="919.5" y="-175.18" font-family="Helvetica,sans-Serif" font-size="10.00">editeurpanovisu.EditeurPanovisu.sauve</text>
<text xml:space="preserve" text-anchor="middle" x="1005.38" y="-163.18" font-family="Helvetica,sans-Serif" font-size="10.00">Fichiers</text>
</a>
</g>
</g>
<!-- Node4&#45;&gt;Node15 -->
<g id="edge24_Node000004_Node000015" class="edge">
<title>Node4&#45;&gt;Node15</title>
<g id="a_edge24_Node000004_Node000015"><a xlink:title=" ">
<path fill="none" stroke="#63b8ff" d="M1159.45,-216.09C1128.99,-207.45 1093.58,-197.41 1064.49,-189.16"/>
<polygon fill="#63b8ff" stroke="#63b8ff" points="1158.4,-219.43 1168.97,-218.79 1160.31,-212.7 1158.4,-219.43"/>
</a>
</g>
</g>
<!-- Node6 -->
<g id="Node000006" class="node">
<title>Node6</title>
<g id="a_Node000006"><a xlink:href="classediteurpanovisu_1_1EditeurPanovisu.html#a86c393eee88f54c694db994ddd85b90d" target="_top" xlink:title=" ">
<polygon fill="white" stroke="#666666" points="180.25,-268.68 0,-268.68 0,-236.68 180.25,-236.68 180.25,-268.68"/>
<text xml:space="preserve" text-anchor="start" x="8" y="-255.18" font-family="Helvetica,sans-Serif" font-size="10.00">editeurpanovisu.EditeurPanovisu.cree</text>
<text xml:space="preserve" text-anchor="middle" x="90.12" y="-243.18" font-family="Helvetica,sans-Serif" font-size="10.00">Environnement</text>
</a>
</g>
</g>
<!-- Node5&#45;&gt;Node6 -->
<g id="edge5_Node000005_Node000006" class="edge">
<title>Node5&#45;&gt;Node6</title>
<g id="a_edge5_Node000005_Node000006"><a xlink:title=" ">
<path fill="none" stroke="#63b8ff" d="M204.51,-252.68C196.49,-252.68 188.46,-252.68 180.6,-252.68"/>
<polygon fill="#63b8ff" stroke="#63b8ff" points="204.32,-256.18 214.32,-252.68 204.32,-249.18 204.32,-256.18"/>
</a>
</g>
</g>
<!-- Node7&#45;&gt;Node5 -->
<g id="edge7_Node000007_Node000005" class="edge">
<title>Node7&#45;&gt;Node5</title>
<g id="a_edge7_Node000007_Node000005"><a xlink:title=" ">
<path fill="none" stroke="#63b8ff" d="M492.05,-320.57C480.24,-316.4 467.95,-311.97 456.5,-307.68 417.11,-292.9 371.92,-274.49 344.52,-263.16"/>
<polygon fill="#63b8ff" stroke="#63b8ff" points="490.69,-323.8 501.28,-323.81 493.01,-317.19 490.69,-323.8"/>
</a>
</g>
</g>
<!-- Node8&#45;&gt;Node5 -->
<g id="edge9_Node000008_Node000005" class="edge">
<title>Node8&#45;&gt;Node5</title>
<g id="a_edge9_Node000008_Node000005"><a xlink:title=" ">
<path fill="none" stroke="#63b8ff" d="M493.09,-191.9C447.38,-207.89 385.41,-229.57 349.17,-242.25"/>
<polygon fill="#63b8ff" stroke="#63b8ff" points="494.04,-195.27 502.32,-188.67 491.73,-188.67 494.04,-195.27"/>
</a>
</g>
</g>
<!-- Node9&#45;&gt;Node5 -->
<g id="edge17_Node000009_Node000005" class="edge">
<title>Node9&#45;&gt;Node5</title>
<g id="a_edge17_Node000009_Node000005"><a xlink:title=" ">
<path fill="none" stroke="#63b8ff" d="M926.95,-27.94C815.62,-5.35 607.18,20.38 456.5,-59.68 378.46,-101.14 334.78,-209.09 322.79,-242.6"/>
<polygon fill="#63b8ff" stroke="#63b8ff" points="926.08,-31.33 936.59,-29.94 927.51,-24.48 926.08,-31.33"/>
</a>
</g>
</g>
<!-- Node10 -->
<g id="Node000010" class="node">
<title>Node10</title>
<g id="a_Node000010"><a xlink:href="classediteurpanovisu_1_1EditeurPanovisu.html#af0d1c32bb78acbff561c822a0d15f760" target="_top" xlink:title=" ">
<polygon fill="white" stroke="#666666" points="872.5,-100.68 684.75,-100.68 684.75,-68.68 872.5,-68.68 872.5,-100.68"/>
<text xml:space="preserve" text-anchor="start" x="692.75" y="-87.18" font-family="Helvetica,sans-Serif" font-size="10.00">editeurpanovisu.EditeurPanovisu.ajoute</text>
<text xml:space="preserve" text-anchor="middle" x="778.62" y="-75.18" font-family="Helvetica,sans-Serif" font-size="10.00">FichierHisto</text>
</a>
</g>
</g>
<!-- Node9&#45;&gt;Node10 -->
<g id="edge11_Node000009_Node000010" class="edge">
<title>Node9&#45;&gt;Node10</title>
<g id="a_edge11_Node000009_Node000010"><a xlink:title=" ">
<path fill="none" stroke="#63b8ff" d="M900.98,-57.43C880.49,-60.81 859.59,-64.55 841.05,-68.2"/>
<polygon fill="#63b8ff" stroke="#63b8ff" points="901.51,-60.89 910.82,-55.83 900.39,-53.98 901.51,-60.89"/>
</a>
</g>
</g>
<!-- Node10&#45;&gt;Node4 -->
<g id="edge14_Node000010_Node000004" class="edge">
<title>Node10&#45;&gt;Node4</title>
<g id="a_edge14_Node000010_Node000004"><a xlink:title=" ">
<path fill="none" stroke="#63b8ff" d="M884.26,-94.25C948.62,-102.78 1031.72,-118.62 1100.75,-147.68 1143.44,-165.65 1186.44,-199.2 1210.05,-219.28"/>
<polygon fill="#63b8ff" stroke="#63b8ff" points="884.74,-90.79 874.37,-92.99 883.85,-97.73 884.74,-90.79"/>
</a>
</g>
</g>
<!-- Node10&#45;&gt;Node8 -->
<g id="edge12_Node000010_Node000008" class="edge">
<title>Node10&#45;&gt;Node8</title>
<g id="a_edge12_Node000010_Node000008"><a xlink:title=" ">
<path fill="none" stroke="#63b8ff" d="M711.66,-104.68C702.08,-107.86 692.37,-111.25 683.25,-114.68 650.42,-127.03 613.9,-143.22 587.88,-155.19"/>
<polygon fill="#63b8ff" stroke="#63b8ff" points="712.54,-108.07 720.96,-101.64 710.37,-101.42 712.54,-108.07"/>
</a>
</g>
</g>
<!-- Node10&#45;&gt;Node9 -->
<g id="edge13_Node000010_Node000009" class="edge">
<title>Node10&#45;&gt;Node9</title>
<g id="a_edge13_Node000010_Node000009"><a xlink:title=" ">
<path fill="none" stroke="#63b8ff" d="M883.8,-73.8C904.04,-70.45 924.65,-66.76 942.96,-63.15"/>
<polygon fill="#63b8ff" stroke="#63b8ff" points="883.4,-70.32 874.09,-75.37 884.53,-77.23 883.4,-70.32"/>
</a>
</g>
</g>
<!-- Node10&#45;&gt;Node11 -->
<g id="edge15_Node000010_Node000011" class="edge">
<title>Node10&#45;&gt;Node11</title>
<g id="a_edge15_Node000010_Node000011"><a xlink:title=" ">
<path fill="none" stroke="#63b8ff" d="M672.9,-84.68C663.54,-84.68 654.1,-84.68 644.86,-84.68"/>
<polygon fill="#63b8ff" stroke="#63b8ff" points="672.75,-88.18 682.75,-84.68 672.75,-81.18 672.75,-88.18"/>
</a>
</g>
</g>
<!-- Node11&#45;&gt;Node5 -->
<g id="edge16_Node000011_Node000005" class="edge">
<title>Node11&#45;&gt;Node5</title>
<g id="a_edge16_Node000011_Node000005"><a xlink:title=" ">
<path fill="none" stroke="#63b8ff" d="M515.4,-107.07C497.52,-118.58 475.62,-133.04 456.5,-146.68 409.47,-180.23 355.85,-223.08 331.98,-242.41"/>
<polygon fill="#63b8ff" stroke="#63b8ff" points="517.07,-110.15 523.61,-101.81 513.3,-104.26 517.07,-110.15"/>
</a>
</g>
</g>
<!-- Node12&#45;&gt;Node5 -->
<g id="edge19_Node000012_Node000005" class="edge">
<title>Node12&#45;&gt;Node5</title>
<g id="a_edge19_Node000012_Node000005"><a xlink:title=" ">
<path fill="none" stroke="#63b8ff" d="M671.3,-286.98C608.74,-281.21 528.11,-273.68 456.5,-266.68 444.95,-265.55 432.85,-264.34 420.83,-263.14"/>
<polygon fill="#63b8ff" stroke="#63b8ff" points="670.97,-290.46 681.25,-287.89 671.61,-283.49 670.97,-290.46"/>
</a>
</g>
</g>
<!-- Node13&#45;&gt;Node5 -->
<g id="edge21_Node000013_Node000005" class="edge">
<title>Node13&#45;&gt;Node5</title>
<g id="a_edge21_Node000013_Node000005"><a xlink:title=" ">
<path fill="none" stroke="#63b8ff" d="M898.37,-428.25C784.27,-433.23 599.89,-428.8 456.5,-365.68 400.03,-340.82 348.1,-285.83 328.08,-262.97"/>
<polygon fill="#63b8ff" stroke="#63b8ff" points="898.19,-431.76 908.02,-427.79 897.86,-424.77 898.19,-431.76"/>
</a>
</g>
</g>
<!-- Node13&#45;&gt;Node14 -->
<g id="edge22_Node000013_Node000014" class="edge">
<title>Node13&#45;&gt;Node14</title>
<g id="a_edge22_Node000013_Node000014"><a xlink:title=" ">
<path fill="none" stroke="#63b8ff" d="M902.89,-401.16C880.27,-397.04 857.05,-392.8 836.96,-389.14"/>
<polygon fill="#63b8ff" stroke="#63b8ff" points="901.98,-404.56 912.44,-402.91 903.23,-397.67 901.98,-404.56"/>
</a>
</g>
</g>
<!-- Node14&#45;&gt;Node7 -->
<g id="edge23_Node000014_Node000007" class="edge">
<title>Node14&#45;&gt;Node7</title>
<g id="a_edge23_Node000014_Node000007"><a xlink:title=" ">
<path fill="none" stroke="#63b8ff" d="M704.52,-366.32C686.34,-363.24 666.59,-359.9 647.54,-356.68"/>
<polygon fill="#63b8ff" stroke="#63b8ff" points="703.68,-369.72 714.12,-367.94 704.85,-362.82 703.68,-369.72"/>
</a>
</g>
</g>
<!-- Node16&#45;&gt;Node8 -->
<g id="edge29_Node000016_Node000008" class="edge">
<title>Node16&#45;&gt;Node8</title>
<g id="a_edge29_Node000016_Node000008"><a xlink:title=" ">
<path fill="none" stroke="#63b8ff" d="M1130.43,-83.63C1000.22,-103.48 771.96,-138.28 644.89,-157.65"/>
<polygon fill="#63b8ff" stroke="#63b8ff" points="1130.7,-87.13 1140.06,-82.16 1129.65,-80.21 1130.7,-87.13"/>
</a>
</g>
</g>
<!-- Node16&#45;&gt;Node9 -->
<g id="edge30_Node000016_Node000009" class="edge">
<title>Node16&#45;&gt;Node9</title>
<g id="a_edge30_Node000016_Node000009"><a xlink:title=" ">
<path fill="none" stroke="#63b8ff" d="M1130.22,-58.94C1119.6,-57.89 1108.82,-56.82 1098.28,-55.78"/>
<polygon fill="#63b8ff" stroke="#63b8ff" points="1129.86,-62.43 1140.16,-59.93 1130.55,-55.46 1129.86,-62.43"/>
</a>
</g>
</g>
</g>
</svg>

<g id="navigator" transform="translate(0 0)" fill="#404254">
  <rect fill="#f2f5e9" fill-opacity="0.5" stroke="#606060" stroke-width=".5" x="0" y="0" width="60" height="60"/>
  <use id="zoomplus" xlink:href="#zoomPlus" x="17" y="9" onmousedown="handleZoom(evt,'in')"/>
  <use id="zoomminus" xlink:href="#zoomMin" x="42" y="9" onmousedown="handleZoom(evt,'out')"/>
  <use id="reset" xlink:href="#resetDef" x="30" y="36" onmousedown="handleReset()"/>
   <use id="arrowup" xlink:href="#arrowUp" x="0" y="0" onmousedown="handlePan(0,-1)"/>
  <use id="arrowright" xlink:href="#arrowRight" x="0" y="0" onmousedown="handlePan(1,0)"/>
  <use id="arrowdown" xlink:href="#arrowDown" x="0" y="0" onmousedown="handlePan(0,1)"/>
  <use id="arrowleft" xlink:href="#arrowLeft" x="0" y="0" onmousedown="handlePan(-1,0)"/>
</g>
<svg viewBox="0 0 15 15" width="100%" height="30px" preserveAspectRatio="xMaxYMin meet">
 <g id="arrow_out" transform="scale(0.3 0.3)">
  <a xlink:href="classediteurpanovisu_1_1HotSpot_ab01097260b0771e8dec113040188ce8c_icgraph_org.svg" target="_base">
   <rect id="button" ry="5" rx="5" y="6" x="6" height="38" width="38"
        fill="#f2f5e9" fill-opacity="0.5" stroke="#606060" stroke-width="1.0"/>
   <path id="arrow"
     d="M 11.500037,31.436501 C 11.940474,20.09759 22.043105,11.32322 32.158766,21.979434 L 37.068811,17.246167 C 37.068811,17.246167 37.088388,32 37.088388,32 L 22.160133,31.978069 C 22.160133,31.978069 26.997745,27.140456 26.997745,27.140456 C 18.528582,18.264221 13.291696,25.230495 11.500037,31.436501 z"
     style="fill:#404040;"/>
  </a>
 </g>
</svg>

<style type='text/css'>
<![CDATA[
[data-mouse-over-selected='false'] { opacity: 0.7; }
[data-mouse-over-selected='true']  { opacity: 1.0; }
]]>
</style>
<script type="application/ecmascript"><![CDATA[
document.addEventListener('DOMContentLoaded', (event) => {
  highlightEdges();
  highlightAdjacentNodes();
});
]]></script>
</svg>
