<?xml version="1.0" encoding="UTF-8" standalone="no"?>
<!DOCTYPE svg PUBLIC "-//W3C//DTD SVG 1.1//EN"
 "http://www.w3.org/Graphics/SVG/1.1/DTD/svg11.dtd">
<!-- Generated by graphviz version 13.1.2 (20250808.2320)
 -->
<!-- Title: editeurpanovisu.GestionnaireInterfaceController.isbAfficheMasque Pages: 1 -->
<!--zoomable 452 -->

<svg id="main" version="1.1" xmlns="http://www.w3.org/2000/svg" xmlns:xlink="http://www.w3.org/1999/xlink" xml:space="preserve" onload="init(evt)">

<style type="text/css"><![CDATA[
.node, .edge {opacity: 0.7;}
.node.selected, .edge.selected {opacity: 1;}
.edge:hover path { stroke: red; }
.edge:hover polygon { stroke: red; fill: red; }
]]></style>

<defs>
  <circle id="rim" cx="0" cy="0" r="7"/>
  <circle id="rim2" cx="0" cy="0" r="3.5"/>
  <g id="zoomPlus">
    <use xlink:href="#rim" fill="#404040"><set attributeName="fill" to="#808080" begin="zoomplus.mouseover" end="zoomplus.mouseout"/></use>
    <path d="M-4,0h8M0,-4v8" fill="none" stroke="white" stroke-width="1.5" pointer-events="none"/>
  </g>
  <g id="zoomMin">
    <use xlink:href="#rim" fill="#404040"><set attributeName="fill" to="#808080" begin="zoomminus.mouseover" end="zoomminus.mouseout"/></use>
    <path d="M-4,0h8" fill="none" stroke="white" stroke-width="1.5" pointer-events="none"/>
  </g>
  <g id="arrowUp" transform="translate(30 24)">
    <use xlink:href="#rim"/>
    <path pointer-events="none" fill="none" stroke="white" stroke-width="1.5" d="M0,-3.0v7 M-2.5,-0.5L0,-3.0L2.5,-0.5"/>
  </g>
  <g id="arrowRight" transform="rotate(90) translate(36 -43)">
    <use xlink:href="#rim"/>
    <path pointer-events="none" fill="none" stroke="white" stroke-width="1.5" d="M0,-3.0v7 M-2.5,-0.5L0,-3.0L2.5,-0.5"/>
  </g>
  <g id="arrowDown" transform="rotate(180) translate(-30 -48)">
    <use xlink:href="#rim"/>
    <path pointer-events="none" fill="none" stroke="white" stroke-width="1.5" d="M0,-3.0v7 M-2.5,-0.5L0,-3.0L2.5,-0.5"/>
  </g>
  <g id="arrowLeft" transform="rotate(270) translate(-36 17)">
    <use xlink:href="#rim"/>
    <path pointer-events="none" fill="none" stroke="white" stroke-width="1.5" d="M0,-3.0v7 M-2.5,-0.5L0,-3.0L2.5,-0.5"/>
  </g>
  <g id="resetDef">
    <use xlink:href="#rim2" fill="#404040"><set attributeName="fill" to="#808080" begin="reset.mouseover" end="reset.mouseout"/></use>
  </g>
</defs>
<script type="application/ecmascript">
var viewWidth = 3028;
var viewHeight = 452;
var sectionId = 'dynsection-230';
</script>
<script type="application/ecmascript" xlink:href="svg.min.js"/>
<svg id="graph" class="graph">
<g id="viewport">
<title>editeurpanovisu.GestionnaireInterfaceController.isbAfficheMasque</title>
<!-- Node1 -->
<g id="Node000001" class="node">
<title>Node1</title>
<g id="a_Node000001"><a xlink:title=" ">
<polygon fill="#999999" stroke="#666666" points="3020,-123.61 2843.5,-123.61 2843.5,-91.61 3020,-91.61 3020,-123.61"/>
<text xml:space="preserve" text-anchor="start" x="2851.5" y="-110.11" font-family="Helvetica,sans-Serif" font-size="10.00">editeurpanovisu.Gestionnaire</text>
<text xml:space="preserve" text-anchor="middle" x="2931.75" y="-98.11" font-family="Helvetica,sans-Serif" font-size="10.00">InterfaceController.isbAfficheMasque</text>
</a>
</g>
</g>
<!-- Node2 -->
<g id="Node000002" class="node">
<title>Node2</title>
<g id="a_Node000002"><a xlink:href="classediteurpanovisu_1_1GestionnaireInterfaceController.html#a9ef193bbfdfd64f14e46d337445406ec" target="_top" xlink:title=" ">
<polygon fill="white" stroke="#666666" points="2805.62,-199.61 2643.38,-199.61 2643.38,-167.61 2805.62,-167.61 2805.62,-199.61"/>
<text xml:space="preserve" text-anchor="start" x="2651.38" y="-186.11" font-family="Helvetica,sans-Serif" font-size="10.00">editeurpanovisu.Gestionnaire</text>
<text xml:space="preserve" text-anchor="middle" x="2724.5" y="-174.11" font-family="Helvetica,sans-Serif" font-size="10.00">InterfaceController.afficheMasque</text>
</a>
</g>
</g>
<!-- Node1&#45;&gt;Node2 -->
<g id="edge1_Node000001_Node000002" class="edge">
<title>Node1&#45;&gt;Node2</title>
<g id="a_edge1_Node000001_Node000002"><a xlink:title=" ">
<path fill="none" stroke="#63b8ff" d="M2875.78,-127.97C2842.65,-140.24 2800.99,-155.66 2769.95,-167.16"/>
<polygon fill="#63b8ff" stroke="#63b8ff" points="2876.63,-131.39 2884.79,-124.63 2874.2,-124.82 2876.63,-131.39"/>
</a>
</g>
</g>
<!-- Node5 -->
<g id="Node000005" class="node">
<title>Node5</title>
<g id="a_Node000005"><a xlink:href="classediteurpanovisu_1_1GestionnaireInterfaceController.html#a55c8afda208674955a13d48d02be41b8" target="_top" xlink:title=" ">
<polygon fill="white" stroke="#666666" points="2213.5,-431.61 2046,-431.61 2046,-399.61 2213.5,-399.61 2213.5,-431.61"/>
<text xml:space="preserve" text-anchor="start" x="2054" y="-418.11" font-family="Helvetica,sans-Serif" font-size="10.00">editeurpanovisu.Gestionnaire</text>
<text xml:space="preserve" text-anchor="middle" x="2129.75" y="-406.11" font-family="Helvetica,sans-Serif" font-size="10.00">InterfaceController.afficheTemplate</text>
</a>
</g>
</g>
<!-- Node1&#45;&gt;Node5 -->
<g id="edge46_Node000001_Node000005" class="edge">
<title>Node1&#45;&gt;Node5</title>
<g id="a_edge46_Node000001_Node000005"><a xlink:title=" ">
<path fill="none" stroke="#63b8ff" d="M2908.33,-132.17C2858.79,-185.03 2734.14,-310.39 2605.5,-379.61 2464.46,-455.52 2409.11,-448.96 2249.5,-435.61 2237.94,-434.65 2225.81,-433.16 2213.9,-431.42"/>
<polygon fill="#63b8ff" stroke="#63b8ff" points="2910.62,-134.86 2914.87,-125.15 2905.49,-130.09 2910.62,-134.86"/>
</a>
</g>
</g>
<!-- Node13 -->
<g id="Node000013" class="node">
<title>Node13</title>
<g id="a_Node000013"><a xlink:href="classediteurpanovisu_1_1EditeurPanovisu.html#a94e36b9e9d09ab1a4c852b8a8cefa927" target="_top" xlink:title=" ">
<polygon fill="white" stroke="#666666" points="663,-231.61 472.25,-231.61 472.25,-199.61 663,-199.61 663,-231.61"/>
<text xml:space="preserve" text-anchor="start" x="480.25" y="-218.11" font-family="Helvetica,sans-Serif" font-size="10.00">editeurpanovisu.EditeurPanovisu.genere</text>
<text xml:space="preserve" text-anchor="middle" x="567.62" y="-206.11" font-family="Helvetica,sans-Serif" font-size="10.00">Visite</text>
</a>
</g>
</g>
<!-- Node1&#45;&gt;Node13 -->
<g id="edge48_Node000001_Node000013" class="edge">
<title>Node1&#45;&gt;Node13</title>
<g id="a_edge48_Node000001_Node000013"><a xlink:title=" ">
<path fill="none" stroke="#63b8ff" d="M2899.24,-84.79C2875.33,-68.81 2840.96,-48.58 2807.5,-38.61 2689.45,-3.45 2654.18,-19.61 2531,-19.61 2531,-19.61 2531,-19.61 1260,-19.61 997.38,-19.61 699.19,-152.13 601.49,-199.24"/>
<polygon fill="#63b8ff" stroke="#63b8ff" points="2897.02,-87.52 2907.25,-90.27 2900.97,-81.74 2897.02,-87.52"/>
</a>
</g>
</g>
<!-- Node21 -->
<g id="Node000021" class="node">
<title>Node21</title>
<g id="a_Node000021"><a xlink:href="classediteurpanovisu_1_1GestionnaireInterfaceController.html#ac7fa988dc99d8684686127a2269cd66e" target="_top" xlink:title=" ">
<polygon fill="white" stroke="#666666" points="2000.62,-268.61 1844.38,-268.61 1844.38,-236.61 2000.62,-236.61 2000.62,-268.61"/>
<text xml:space="preserve" text-anchor="start" x="1852.38" y="-255.11" font-family="Helvetica,sans-Serif" font-size="10.00">editeurpanovisu.Gestionnaire</text>
<text xml:space="preserve" text-anchor="middle" x="1922.5" y="-243.11" font-family="Helvetica,sans-Serif" font-size="10.00">InterfaceController.creeInterface</text>
</a>
</g>
</g>
<!-- Node1&#45;&gt;Node21 -->
<g id="edge47_Node000001_Node000021" class="edge">
<title>Node1&#45;&gt;Node21</title>
<g id="a_edge47_Node000001_Node000021"><a xlink:title=" ">
<path fill="none" stroke="#63b8ff" d="M2831.85,-107.61C2750.95,-107.61 2633.57,-107.61 2531,-107.61 2531,-107.61 2531,-107.61 2333,-107.61 2204.39,-107.61 2163.15,-91.54 2046,-144.61 1998.74,-166.03 1956.45,-212.01 1936.17,-236.5"/>
<polygon fill="#63b8ff" stroke="#63b8ff" points="2831.51,-111.11 2841.51,-107.61 2831.51,-104.11 2831.51,-111.11"/>
</a>
</g>
</g>
<!-- Node25 -->
<g id="Node000025" class="node">
<title>Node25</title>
<g id="a_Node000025"><a xlink:href="classediteurpanovisu_1_1GestionnaireInterfaceController.html#ab66509c63a85a8285a081b24049e8774" target="_top" xlink:title=" ">
<polygon fill="white" stroke="#666666" points="2807.5,-79.61 2641.5,-79.61 2641.5,-47.61 2807.5,-47.61 2807.5,-79.61"/>
<text xml:space="preserve" text-anchor="start" x="2649.5" y="-66.11" font-family="Helvetica,sans-Serif" font-size="10.00">editeurpanovisu.Gestionnaire</text>
<text xml:space="preserve" text-anchor="middle" x="2724.5" y="-54.11" font-family="Helvetica,sans-Serif" font-size="10.00">InterfaceController.strGetTemplate</text>
</a>
</g>
</g>
<!-- Node1&#45;&gt;Node25 -->
<g id="edge49_Node000001_Node000025" class="edge">
<title>Node1&#45;&gt;Node25</title>
<g id="a_edge49_Node000001_Node000025"><a xlink:title=" ">
<path fill="none" stroke="#63b8ff" d="M2842.85,-88.77C2829.42,-85.89 2815.64,-82.94 2802.47,-80.11"/>
<polygon fill="#63b8ff" stroke="#63b8ff" points="2842.04,-92.18 2852.55,-90.85 2843.51,-85.33 2842.04,-92.18"/>
</a>
</g>
</g>
<!-- Node3 -->
<g id="Node000003" class="node">
<title>Node3</title>
<g id="a_Node000003"><a xlink:href="classediteurpanovisu_1_1GestionnaireInterfaceController.html#af7f1e67219c75f044a231abc76bcf790" target="_top" xlink:title=" ">
<polygon fill="white" stroke="#666666" points="2605.5,-315.61 2454.5,-315.61 2454.5,-271.61 2605.5,-271.61 2605.5,-315.61"/>
<text xml:space="preserve" text-anchor="start" x="2462.5" y="-302.11" font-family="Helvetica,sans-Serif" font-size="10.00">editeurpanovisu.Gestionnaire</text>
<text xml:space="preserve" text-anchor="start" x="2462.5" y="-290.11" font-family="Helvetica,sans-Serif" font-size="10.00">InterfaceController.afficheBarre</text>
<text xml:space="preserve" text-anchor="middle" x="2530" y="-278.11" font-family="Helvetica,sans-Serif" font-size="10.00">Classique</text>
</a>
</g>
</g>
<!-- Node2&#45;&gt;Node3 -->
<g id="edge2_Node000002_Node000003" class="edge">
<title>Node2&#45;&gt;Node3</title>
<g id="a_edge2_Node000002_Node000003"><a xlink:title=" ">
<path fill="none" stroke="#63b8ff" d="M2684.83,-205.71C2651.46,-224.78 2603.49,-252.19 2570.02,-271.31"/>
<polygon fill="#63b8ff" stroke="#63b8ff" points="2686.42,-208.83 2693.37,-200.83 2682.95,-202.76 2686.42,-208.83"/>
</a>
</g>
</g>
<!-- Node2&#45;&gt;Node5 -->
<g id="edge43_Node000002_Node000005" class="edge">
<title>Node2&#45;&gt;Node5</title>
<g id="a_edge43_Node000002_Node000005"><a xlink:title=" ">
<path fill="none" stroke="#63b8ff" d="M2706.9,-209.45C2686.17,-240.1 2648.21,-291.24 2605.5,-324.61 2532.68,-381.53 2508.57,-394.86 2418.5,-415.61 2350.83,-431.2 2271.82,-429.86 2213.72,-425.38"/>
<polygon fill="#63b8ff" stroke="#63b8ff" points="2709.79,-211.42 2712.41,-201.16 2703.96,-207.55 2709.79,-211.42"/>
</a>
</g>
</g>
<!-- Node2&#45;&gt;Node21 -->
<g id="edge44_Node000002_Node000021" class="edge">
<title>Node2&#45;&gt;Node21</title>
<g id="a_edge44_Node000002_Node000021"><a xlink:title=" ">
<path fill="none" stroke="#63b8ff" d="M2631.84,-166.86C2499.57,-146.24 2248.83,-120.45 2046,-177.61 2005.68,-188.98 1965.52,-217.73 1942.68,-236.15"/>
<polygon fill="#63b8ff" stroke="#63b8ff" points="2631.17,-170.3 2641.6,-168.42 2632.27,-163.39 2631.17,-170.3"/>
</a>
</g>
</g>
<!-- Node22 -->
<g id="Node000022" class="node">
<title>Node22</title>
<g id="a_Node000022"><a xlink:href="classediteurpanovisu_1_1GestionnaireInterfaceController.html#a568c34e865fb653f63b8fa7a9a9cafc8" target="_top" xlink:title=" ">
<polygon fill="white" stroke="#666666" points="2200.75,-218.61 2058.75,-218.61 2058.75,-186.61 2200.75,-186.61 2200.75,-218.61"/>
<text xml:space="preserve" text-anchor="start" x="2066.75" y="-205.11" font-family="Helvetica,sans-Serif" font-size="10.00">editeurpanovisu.Gestionnaire</text>
<text xml:space="preserve" text-anchor="middle" x="2129.75" y="-193.11" font-family="Helvetica,sans-Serif" font-size="10.00">InterfaceController.rafraichit</text>
</a>
</g>
</g>
<!-- Node2&#45;&gt;Node22 -->
<g id="edge45_Node000002_Node000022" class="edge">
<title>Node2&#45;&gt;Node22</title>
<g id="a_edge45_Node000002_Node000022"><a xlink:title=" ">
<path fill="none" stroke="#63b8ff" d="M2631.71,-186.56C2512.83,-190.37 2308.2,-196.93 2200.96,-200.36"/>
<polygon fill="#63b8ff" stroke="#63b8ff" points="2631.55,-190.06 2641.43,-186.24 2631.32,-183.07 2631.55,-190.06"/>
</a>
</g>
</g>
<!-- Node4 -->
<g id="Node000004" class="node">
<title>Node4</title>
<g id="a_Node000004"><a xlink:href="classediteurpanovisu_1_1GestionnaireInterfaceController.html#a7c5cff6934d95be9a4babb6426a5ac26" target="_top" xlink:title=" ">
<polygon fill="white" stroke="#666666" points="2414,-343.61 2254,-343.61 2254,-299.61 2414,-299.61 2414,-343.61"/>
<text xml:space="preserve" text-anchor="start" x="2262" y="-330.11" font-family="Helvetica,sans-Serif" font-size="10.00">editeurpanovisu.Gestionnaire</text>
<text xml:space="preserve" text-anchor="start" x="2262" y="-318.11" font-family="Helvetica,sans-Serif" font-size="10.00">InterfaceController.afficheImages</text>
<text xml:space="preserve" text-anchor="middle" x="2334" y="-306.11" font-family="Helvetica,sans-Serif" font-size="10.00">FondInterface</text>
</a>
</g>
</g>
<!-- Node3&#45;&gt;Node4 -->
<g id="edge3_Node000003_Node000004" class="edge">
<title>Node3&#45;&gt;Node4</title>
<g id="a_edge3_Node000003_Node000004"><a xlink:title=" ">
<path fill="none" stroke="#63b8ff" d="M2443.08,-306.01C2433.47,-307.4 2423.71,-308.81 2414.19,-310.18"/>
<polygon fill="#63b8ff" stroke="#63b8ff" points="2443.38,-309.51 2452.77,-304.62 2442.38,-302.58 2443.38,-309.51"/>
</a>
</g>
</g>
<!-- Node3&#45;&gt;Node5 -->
<g id="edge4_Node000003_Node000005" class="edge">
<title>Node3&#45;&gt;Node5</title>
<g id="a_edge4_Node000003_Node000005"><a xlink:title=" ">
<path fill="none" stroke="#63b8ff" d="M2502.27,-323.84C2481.64,-344.99 2451.19,-371.83 2418.5,-385.61 2353.48,-413.04 2273.15,-419.39 2213.91,-419.55"/>
<polygon fill="#63b8ff" stroke="#63b8ff" points="2504.55,-326.52 2508.9,-316.86 2499.47,-321.7 2504.55,-326.52"/>
</a>
</g>
</g>
<!-- Node19 -->
<g id="Node000019" class="node">
<title>Node19</title>
<g id="a_Node000019"><a xlink:href="classediteurpanovisu_1_1GestionnaireInterfaceController.html#a5bdd1505c1ad1eee506c2618c9368994" target="_top" xlink:title=" ">
<polygon fill="white" stroke="#666666" points="2418.5,-281.61 2249.5,-281.61 2249.5,-249.61 2418.5,-249.61 2418.5,-281.61"/>
<text xml:space="preserve" text-anchor="start" x="2257.5" y="-268.11" font-family="Helvetica,sans-Serif" font-size="10.00">editeurpanovisu.Gestionnaire</text>
<text xml:space="preserve" text-anchor="middle" x="2334" y="-256.11" font-family="Helvetica,sans-Serif" font-size="10.00">InterfaceController.afficheVignettes</text>
</a>
</g>
</g>
<!-- Node3&#45;&gt;Node19 -->
<g id="edge30_Node000003_Node000019" class="edge">
<title>Node3&#45;&gt;Node19</title>
<g id="a_edge30_Node000003_Node000019"><a xlink:title=" ">
<path fill="none" stroke="#63b8ff" d="M2442.98,-281.2C2434.92,-280.04 2426.77,-278.86 2418.73,-277.7"/>
<polygon fill="#63b8ff" stroke="#63b8ff" points="2442.38,-284.65 2452.77,-282.61 2443.38,-277.72 2442.38,-284.65"/>
</a>
</g>
</g>
<!-- Node3&#45;&gt;Node21 -->
<g id="edge41_Node000003_Node000021" class="edge">
<title>Node3&#45;&gt;Node21</title>
<g id="a_edge41_Node000003_Node000021"><a xlink:title=" ">
<path fill="none" stroke="#63b8ff" d="M2487.7,-321.92C2467.73,-333.91 2442.86,-346.52 2418.5,-352.61 2245.63,-395.87 2035.24,-307.41 1955.87,-269.11"/>
<polygon fill="#63b8ff" stroke="#63b8ff" points="2489.42,-324.96 2496.08,-316.72 2485.74,-319.01 2489.42,-324.96"/>
</a>
</g>
</g>
<!-- Node3&#45;&gt;Node22 -->
<g id="edge42_Node000003_Node000022" class="edge">
<title>Node3&#45;&gt;Node22</title>
<g id="a_edge42_Node000003_Node000022"><a xlink:title=" ">
<path fill="none" stroke="#63b8ff" d="M2480.01,-266.01C2461.29,-256.57 2439.41,-246.84 2418.5,-240.61 2346.3,-219.13 2260.29,-209.78 2201.23,-205.72"/>
<polygon fill="#63b8ff" stroke="#63b8ff" points="2478.23,-269.03 2488.72,-270.51 2481.44,-262.81 2478.23,-269.03"/>
</a>
</g>
</g>
<!-- Node6 -->
<g id="Node000006" class="node">
<title>Node6</title>
<g id="a_Node000006"><a xlink:href="classediteurpanovisu_1_1EditeurPanovisu.html#a87b29dc258cfc67370b1f27809e91b8e" target="_top" xlink:title=" ">
<polygon fill="white" stroke="#666666" points="2010,-372.61 1835,-372.61 1835,-340.61 2010,-340.61 2010,-372.61"/>
<text xml:space="preserve" text-anchor="start" x="1843" y="-359.11" font-family="Helvetica,sans-Serif" font-size="10.00">editeurpanovisu.EditeurPanovisu.tsk</text>
<text xml:space="preserve" text-anchor="middle" x="1922.5" y="-347.11" font-family="Helvetica,sans-Serif" font-size="10.00">AnalyseFichierPVU</text>
</a>
</g>
</g>
<!-- Node5&#45;&gt;Node6 -->
<g id="edge5_Node000005_Node000006" class="edge">
<title>Node5&#45;&gt;Node6</title>
<g id="a_edge5_Node000005_Node000006"><a xlink:title=" ">
<path fill="none" stroke="#63b8ff" d="M2060.7,-396.05C2034.78,-388.6 2005.53,-380.2 1980.72,-373.06"/>
<polygon fill="#63b8ff" stroke="#63b8ff" points="2059.54,-399.36 2070.12,-398.76 2061.48,-392.63 2059.54,-399.36"/>
</a>
</g>
</g>
<!-- Node7 -->
<g id="Node000007" class="node">
<title>Node7</title>
<g id="a_Node000007"><a xlink:href="classediteurpanovisu_1_1EditeurPanovisu.html#ab4beb1597b660a4a253befc6e76f1c54" target="_top" xlink:title=" ">
<polygon fill="white" stroke="#666666" points="1129.62,-407.61 944.12,-407.61 944.12,-375.61 1129.62,-375.61 1129.62,-407.61"/>
<text xml:space="preserve" text-anchor="start" x="952.12" y="-394.11" font-family="Helvetica,sans-Serif" font-size="10.00">editeurpanovisu.EditeurPanovisu.projet</text>
<text xml:space="preserve" text-anchor="middle" x="1036.88" y="-382.11" font-family="Helvetica,sans-Serif" font-size="10.00">Charge</text>
</a>
</g>
</g>
<!-- Node6&#45;&gt;Node7 -->
<g id="edge6_Node000006_Node000007" class="edge">
<title>Node6&#45;&gt;Node7</title>
<g id="a_edge6_Node000006_Node000007"><a xlink:title=" ">
<path fill="none" stroke="#63b8ff" d="M1823.45,-360.5C1651.48,-367.31 1297.83,-381.32 1130.08,-387.96"/>
<polygon fill="#63b8ff" stroke="#63b8ff" points="1823.4,-364 1833.25,-360.11 1823.12,-357.01 1823.4,-364"/>
</a>
</g>
</g>
<!-- Node10 -->
<g id="Node000010" class="node">
<title>Node10</title>
<g id="a_Node000010"><a xlink:href="classediteurpanovisu_1_1EditeurPanovisu.html#a6d19b4d885ee6fcec827b91956295732" target="_top" xlink:title=" ">
<polygon fill="white" stroke="#666666" points="1799,-331.61 1613.5,-331.61 1613.5,-299.61 1799,-299.61 1799,-331.61"/>
<text xml:space="preserve" text-anchor="start" x="1621.5" y="-318.11" font-family="Helvetica,sans-Serif" font-size="10.00">editeurpanovisu.EditeurPanovisu.projet</text>
<text xml:space="preserve" text-anchor="middle" x="1706.25" y="-306.11" font-family="Helvetica,sans-Serif" font-size="10.00">ChargeNom</text>
</a>
</g>
</g>
<!-- Node6&#45;&gt;Node10 -->
<g id="edge9_Node000006_Node000010" class="edge">
<title>Node6&#45;&gt;Node10</title>
<g id="a_edge9_Node000006_Node000010"><a xlink:title=" ">
<path fill="none" stroke="#63b8ff" d="M1824.17,-337.99C1813.87,-336.02 1803.45,-334.02 1793.29,-332.08"/>
<polygon fill="#63b8ff" stroke="#63b8ff" points="1823.32,-341.39 1833.8,-339.83 1824.63,-334.51 1823.32,-341.39"/>
</a>
</g>
</g>
<!-- Node8 -->
<g id="Node000008" class="node">
<title>Node8</title>
<g id="a_Node000008"><a xlink:href="classediteurpanovisu_1_1EditeurPanovisu.html#ac912b80c1f2ac97def60ff005c5c480b" target="_top" xlink:title=" ">
<polygon fill="white" stroke="#666666" points="420.5,-285.61 216.25,-285.61 216.25,-265.61 420.5,-265.61 420.5,-285.61"/>
<text xml:space="preserve" text-anchor="middle" x="318.38" y="-272.11" font-family="Helvetica,sans-Serif" font-size="10.00">editeurpanovisu.EditeurPanovisu.creeMenu</text>
</a>
</g>
</g>
<!-- Node7&#45;&gt;Node8 -->
<g id="edge7_Node000007_Node000008" class="edge">
<title>Node7&#45;&gt;Node8</title>
<g id="a_edge7_Node000007_Node000008"><a xlink:title=" ">
<path fill="none" stroke="#63b8ff" d="M932.62,-401.63C814.55,-409.61 616.88,-412.27 456.5,-361.61 405.05,-345.36 353.64,-305.11 331.15,-286"/>
<polygon fill="#63b8ff" stroke="#63b8ff" points="932.55,-405.14 942.28,-400.95 932.06,-398.16 932.55,-405.14"/>
</a>
</g>
</g>
<!-- Node9 -->
<g id="Node000009" class="node">
<title>Node9</title>
<g id="a_Node000009"><a xlink:href="classediteurpanovisu_1_1EditeurPanovisu.html#a86c393eee88f54c694db994ddd85b90d" target="_top" xlink:title=" ">
<polygon fill="white" stroke="#666666" points="180.25,-291.61 0,-291.61 0,-259.61 180.25,-259.61 180.25,-291.61"/>
<text xml:space="preserve" text-anchor="start" x="8" y="-278.11" font-family="Helvetica,sans-Serif" font-size="10.00">editeurpanovisu.EditeurPanovisu.cree</text>
<text xml:space="preserve" text-anchor="middle" x="90.12" y="-266.11" font-family="Helvetica,sans-Serif" font-size="10.00">Environnement</text>
</a>
</g>
</g>
<!-- Node8&#45;&gt;Node9 -->
<g id="edge8_Node000008_Node000009" class="edge">
<title>Node8&#45;&gt;Node9</title>
<g id="a_edge8_Node000008_Node000009"><a xlink:title=" ">
<path fill="none" stroke="#63b8ff" d="M204.51,-275.61C196.49,-275.61 188.46,-275.61 180.6,-275.61"/>
<polygon fill="#63b8ff" stroke="#63b8ff" points="204.32,-279.11 214.32,-275.61 204.32,-272.11 204.32,-279.11"/>
</a>
</g>
</g>
<!-- Node10&#45;&gt;Node8 -->
<g id="edge29_Node000010_Node000008" class="edge">
<title>Node10&#45;&gt;Node8</title>
<g id="a_edge29_Node000010_Node000008"><a xlink:title=" ">
<path fill="none" stroke="#63b8ff" d="M1640.32,-335.24C1521.8,-369.26 1261.97,-435.61 1037.88,-435.61 1037.88,-435.61 1037.88,-435.61 809.12,-435.61 651.35,-435.61 600.87,-458.26 456.5,-394.61 398.24,-368.93 346.54,-309.69 327.33,-285.84"/>
<polygon fill="#63b8ff" stroke="#63b8ff" points="1641.25,-338.61 1649.89,-332.47 1639.31,-331.89 1641.25,-338.61"/>
</a>
</g>
</g>
<!-- Node11 -->
<g id="Node000011" class="node">
<title>Node11</title>
<g id="a_Node000011"><a xlink:href="classediteurpanovisu_1_1EditeurPanovisu.html#af0d1c32bb78acbff561c822a0d15f760" target="_top" xlink:title=" ">
<polygon fill="white" stroke="#666666" points="1577.5,-331.61 1389.75,-331.61 1389.75,-299.61 1577.5,-299.61 1577.5,-331.61"/>
<text xml:space="preserve" text-anchor="start" x="1397.75" y="-318.11" font-family="Helvetica,sans-Serif" font-size="10.00">editeurpanovisu.EditeurPanovisu.ajoute</text>
<text xml:space="preserve" text-anchor="middle" x="1483.62" y="-306.11" font-family="Helvetica,sans-Serif" font-size="10.00">FichierHisto</text>
</a>
</g>
</g>
<!-- Node10&#45;&gt;Node11 -->
<g id="edge10_Node000010_Node000011" class="edge">
<title>Node10&#45;&gt;Node11</title>
<g id="a_edge10_Node000010_Node000011"><a xlink:title=" ">
<path fill="none" stroke="#63b8ff" d="M1601.97,-308.88C1593.92,-308.85 1585.83,-308.87 1577.86,-308.94"/>
<polygon fill="#63b8ff" stroke="#63b8ff" points="1601.75,-312.37 1611.77,-308.94 1601.79,-305.38 1601.75,-312.37"/>
</a>
</g>
</g>
<!-- Node11&#45;&gt;Node7 -->
<g id="edge11_Node000011_Node000007" class="edge">
<title>Node11&#45;&gt;Node7</title>
<g id="a_edge11_Node000011_Node000007"><a xlink:title=" ">
<path fill="none" stroke="#63b8ff" d="M1378.46,-333.41C1303.11,-346.29 1202.22,-363.53 1129.84,-375.9"/>
<polygon fill="#63b8ff" stroke="#63b8ff" points="1378.63,-336.94 1387.9,-331.8 1377.45,-330.04 1378.63,-336.94"/>
</a>
</g>
</g>
<!-- Node11&#45;&gt;Node10 -->
<g id="edge12_Node000011_Node000010" class="edge">
<title>Node11&#45;&gt;Node10</title>
<g id="a_edge12_Node000011_Node000010"><a xlink:title=" ">
<path fill="none" stroke="#63b8ff" d="M1589.19,-322.36C1597.24,-322.38 1605.33,-322.35 1613.28,-322.28"/>
<polygon fill="#63b8ff" stroke="#63b8ff" points="1589.4,-318.86 1579.38,-322.3 1589.36,-325.86 1589.4,-318.86"/>
</a>
</g>
</g>
<!-- Node12 -->
<g id="Node000012" class="node">
<title>Node12</title>
<g id="a_Node000012"><a xlink:href="classediteurpanovisu_1_1EditeurPanovisu.html#a9f3ea25b35d4884524508dab3dc4fd6a" target="_top" xlink:title=" ">
<polygon fill="white" stroke="#666666" points="1353.75,-287.61 1168.25,-287.61 1168.25,-255.61 1353.75,-255.61 1353.75,-287.61"/>
<text xml:space="preserve" text-anchor="start" x="1176.25" y="-274.11" font-family="Helvetica,sans-Serif" font-size="10.00">editeurpanovisu.EditeurPanovisu.projet</text>
<text xml:space="preserve" text-anchor="middle" x="1261" y="-262.11" font-family="Helvetica,sans-Serif" font-size="10.00">Sauve</text>
</a>
</g>
</g>
<!-- Node11&#45;&gt;Node12 -->
<g id="edge13_Node000011_Node000012" class="edge">
<title>Node11&#45;&gt;Node12</title>
<g id="a_edge13_Node000011_Node000012"><a xlink:title=" ">
<path fill="none" stroke="#63b8ff" d="M1389.01,-296.94C1374.29,-294.01 1359.18,-290.99 1344.73,-288.11"/>
<polygon fill="#63b8ff" stroke="#63b8ff" points="1388.18,-300.35 1398.67,-298.87 1389.55,-293.48 1388.18,-300.35"/>
</a>
</g>
</g>
<!-- Node18 -->
<g id="Node000018" class="node">
<title>Node18</title>
<g id="a_Node000018"><a xlink:href="classediteurpanovisu_1_1EditeurPanovisu.html#a7b2e25dc717eb52b62e23d54ec4c124a" target="_top" xlink:title=" ">
<polygon fill="white" stroke="#666666" points="1353.75,-94.61 1168.25,-94.61 1168.25,-62.61 1353.75,-62.61 1353.75,-94.61"/>
<text xml:space="preserve" text-anchor="start" x="1176.25" y="-81.11" font-family="Helvetica,sans-Serif" font-size="10.00">editeurpanovisu.EditeurPanovisu.projet</text>
<text xml:space="preserve" text-anchor="middle" x="1261" y="-69.11" font-family="Helvetica,sans-Serif" font-size="10.00">SauveSous</text>
</a>
</g>
</g>
<!-- Node11&#45;&gt;Node18 -->
<g id="edge27_Node000011_Node000018" class="edge">
<title>Node11&#45;&gt;Node18</title>
<g id="a_edge27_Node000011_Node000018"><a xlink:title=" ">
<path fill="none" stroke="#63b8ff" d="M1471.94,-288.74C1453.75,-246.19 1412.89,-163.16 1353.75,-114.61 1343.83,-106.47 1331.85,-100.01 1319.86,-94.94"/>
<polygon fill="#63b8ff" stroke="#63b8ff" points="1468.71,-290.09 1475.79,-297.97 1475.17,-287.39 1468.71,-290.09"/>
</a>
</g>
</g>
<!-- Node12&#45;&gt;Node7 -->
<g id="edge17_Node000012_Node000007" class="edge">
<title>Node12&#45;&gt;Node7</title>
<g id="a_edge17_Node000012_Node000007"><a xlink:title=" ">
<path fill="none" stroke="#63b8ff" d="M1215.79,-293.21C1200.13,-301.74 1182.8,-312.23 1168.25,-323.61 1149.93,-337.95 1151.96,-349.25 1132.25,-361.61 1123.66,-367 1114.01,-371.5 1104.26,-375.23"/>
<polygon fill="#63b8ff" stroke="#63b8ff" points="1217.27,-296.39 1224.46,-288.61 1213.99,-290.21 1217.27,-296.39"/>
</a>
</g>
</g>
<!-- Node12&#45;&gt;Node8 -->
<g id="edge14_Node000012_Node000008" class="edge">
<title>Node12&#45;&gt;Node8</title>
<g id="a_edge14_Node000012_Node000008"><a xlink:title=" ">
<path fill="none" stroke="#63b8ff" d="M1194.89,-291.08C1174.94,-296.47 1152.82,-301.86 1132.25,-305.61 836.8,-359.56 753.51,-348.19 456.5,-303.61 425.62,-298.98 391.19,-291.94 364.56,-286.08"/>
<polygon fill="#63b8ff" stroke="#63b8ff" points="1195.55,-294.53 1204.27,-288.5 1193.7,-287.78 1195.55,-294.53"/>
</a>
</g>
</g>
<!-- Node12&#45;&gt;Node10 -->
<g id="edge18_Node000012_Node000010" class="edge">
<title>Node12&#45;&gt;Node10</title>
<g id="a_edge18_Node000012_Node000010"><a xlink:title=" ">
<path fill="none" stroke="#63b8ff" d="M1365.42,-274.37C1427.17,-276.88 1507.04,-281.64 1577.5,-290.61 1594.54,-292.78 1612.72,-295.87 1629.86,-299.14"/>
<polygon fill="#63b8ff" stroke="#63b8ff" points="1365.75,-270.88 1355.62,-273.99 1365.48,-277.88 1365.75,-270.88"/>
</a>
</g>
</g>
<!-- Node12&#45;&gt;Node13 -->
<g id="edge15_Node000012_Node000013" class="edge">
<title>Node12&#45;&gt;Node13</title>
<g id="a_edge15_Node000012_Node000013"><a xlink:title=" ">
<path fill="none" stroke="#63b8ff" d="M1156.53,-266.47C1094.19,-263.12 1013.24,-258.31 941.5,-252.61 846.66,-245.08 738.49,-234.08 663.17,-226.03"/>
<polygon fill="#63b8ff" stroke="#63b8ff" points="1156.26,-269.96 1166.43,-267 1156.63,-262.97 1156.26,-269.96"/>
</a>
</g>
</g>
<!-- Node14 -->
<g id="Node000014" class="node">
<title>Node14</title>
<g id="a_Node000014"><a xlink:href="classediteurpanovisu_1_1EditeurPanovisu.html#a9b46b222714af12c06ec33d410400773" target="_top" xlink:title=" ">
<polygon fill="white" stroke="#666666" points="905.5,-319.61 714.75,-319.61 714.75,-287.61 905.5,-287.61 905.5,-319.61"/>
<text xml:space="preserve" text-anchor="start" x="722.75" y="-306.11" font-family="Helvetica,sans-Serif" font-size="10.00">editeurpanovisu.EditeurPanovisu.projets</text>
<text xml:space="preserve" text-anchor="middle" x="810.12" y="-294.11" font-family="Helvetica,sans-Serif" font-size="10.00">Fermer</text>
</a>
</g>
</g>
<!-- Node12&#45;&gt;Node14 -->
<g id="edge19_Node000012_Node000014" class="edge">
<title>Node12&#45;&gt;Node14</title>
<g id="a_edge19_Node000012_Node000014"><a xlink:title=" ">
<path fill="none" stroke="#63b8ff" d="M1156.68,-283.41C1148.42,-284.21 1140.2,-284.96 1132.25,-285.61 1056.15,-291.91 969.72,-296.62 905.71,-299.64"/>
<polygon fill="#63b8ff" stroke="#63b8ff" points="1156.84,-286.91 1166.44,-282.44 1156.15,-279.95 1156.84,-286.91"/>
</a>
</g>
</g>
<!-- Node15 -->
<g id="Node000015" class="node">
<title>Node15</title>
<g id="a_Node000015"><a xlink:href="classediteurpanovisu_1_1EditeurPanovisu.html#ac9d449399ccd38843fa12e716f0c9611" target="_top" xlink:title=" ">
<polygon fill="white" stroke="#666666" points="1132.25,-155.61 941.5,-155.61 941.5,-123.61 1132.25,-123.61 1132.25,-155.61"/>
<text xml:space="preserve" text-anchor="start" x="949.5" y="-142.11" font-family="Helvetica,sans-Serif" font-size="10.00">editeurpanovisu.EditeurPanovisu.projets</text>
<text xml:space="preserve" text-anchor="middle" x="1036.88" y="-130.11" font-family="Helvetica,sans-Serif" font-size="10.00">Nouveau</text>
</a>
</g>
</g>
<!-- Node12&#45;&gt;Node15 -->
<g id="edge21_Node000012_Node000015" class="edge">
<title>Node12&#45;&gt;Node15</title>
<g id="a_edge21_Node000012_Node000015"><a xlink:title=" ">
<path fill="none" stroke="#63b8ff" d="M1235.39,-247.35C1211.01,-224.5 1171.71,-190.7 1132.25,-169.61 1122.39,-164.35 1111.46,-159.82 1100.63,-156"/>
<polygon fill="#63b8ff" stroke="#63b8ff" points="1232.92,-249.83 1242.57,-254.19 1237.74,-244.76 1232.92,-249.83"/>
</a>
</g>
</g>
<!-- Node16 -->
<g id="Node000016" class="node">
<title>Node16</title>
<g id="a_Node000016"><a xlink:href="classediteurpanovisu_1_1EditeurPanovisu.html#a2b3125ffe2e6291efacf19df6cb30a8d" target="_top" xlink:title=" ">
<polygon fill="white" stroke="#666666" points="900.62,-193.61 719.62,-193.61 719.62,-173.61 900.62,-173.61 900.62,-193.61"/>
<text xml:space="preserve" text-anchor="middle" x="810.12" y="-180.11" font-family="Helvetica,sans-Serif" font-size="10.00">editeurpanovisu.EditeurPanovisu.start</text>
</a>
</g>
</g>
<!-- Node12&#45;&gt;Node16 -->
<g id="edge26_Node000012_Node000016" class="edge">
<title>Node12&#45;&gt;Node16</title>
<g id="a_edge26_Node000012_Node000016"><a xlink:title=" ">
<path fill="none" stroke="#63b8ff" d="M1228.03,-249.22C1203.17,-233.11 1167.14,-212.54 1132.25,-202.61 1056.37,-181.03 966.47,-177.48 901.11,-178.63"/>
<polygon fill="#63b8ff" stroke="#63b8ff" points="1225.78,-251.93 1236.06,-254.53 1229.65,-246.09 1225.78,-251.93"/>
</a>
</g>
</g>
<!-- Node17 -->
<g id="Node000017" class="node">
<title>Node17</title>
<g id="a_Node000017"><a xlink:href="classediteurpanovisu_1_1EditeurPanovisu.html#aef8c9b28c3e88d6e27e3f62b9a901134" target="_top" xlink:title=" ">
<polygon fill="white" stroke="#666666" points="1130.75,-243.61 943,-243.61 943,-211.61 1130.75,-211.61 1130.75,-243.61"/>
<text xml:space="preserve" text-anchor="start" x="951" y="-230.11" font-family="Helvetica,sans-Serif" font-size="10.00">editeurpanovisu.EditeurPanovisu.sauve</text>
<text xml:space="preserve" text-anchor="middle" x="1036.88" y="-218.11" font-family="Helvetica,sans-Serif" font-size="10.00">Fichiers</text>
</a>
</g>
</g>
<!-- Node12&#45;&gt;Node17 -->
<g id="edge25_Node000012_Node000017" class="edge">
<title>Node12&#45;&gt;Node17</title>
<g id="a_edge25_Node000012_Node000017"><a xlink:title=" ">
<path fill="none" stroke="#63b8ff" d="M1165.74,-252.94C1150.93,-250.01 1135.71,-246.99 1121.17,-244.11"/>
<polygon fill="#63b8ff" stroke="#63b8ff" points="1165,-256.36 1175.49,-254.87 1166.36,-249.5 1165,-256.36"/>
</a>
</g>
</g>
<!-- Node13&#45;&gt;Node8 -->
<g id="edge16_Node000013_Node000008" class="edge">
<title>Node13&#45;&gt;Node8</title>
<g id="a_edge16_Node000013_Node000008"><a xlink:title=" ">
<path fill="none" stroke="#63b8ff" d="M487.56,-234.8C446.15,-244.85 397.04,-256.77 362.61,-265.12"/>
<polygon fill="#63b8ff" stroke="#63b8ff" points="488.37,-238.21 497.26,-232.45 486.72,-231.4 488.37,-238.21"/>
</a>
</g>
</g>
<!-- Node14&#45;&gt;Node8 -->
<g id="edge20_Node000014_Node000008" class="edge">
<title>Node14&#45;&gt;Node8</title>
<g id="a_edge20_Node000014_Node000008"><a xlink:title=" ">
<path fill="none" stroke="#63b8ff" d="M703.08,-297.55C619.42,-292.77 503.48,-286.14 420.99,-281.42"/>
<polygon fill="#63b8ff" stroke="#63b8ff" points="702.71,-301.04 712.89,-298.11 703.11,-294.05 702.71,-301.04"/>
</a>
</g>
</g>
<!-- Node15&#45;&gt;Node8 -->
<g id="edge22_Node000015_Node000008" class="edge">
<title>Node15&#45;&gt;Node8</title>
<g id="a_edge22_Node000015_Node000008"><a xlink:title=" ">
<path fill="none" stroke="#63b8ff" d="M930.03,-134.09C811.46,-131.25 615.11,-136.71 456.5,-190.61 405.85,-207.83 354.45,-246.67 331.61,-265.29"/>
<polygon fill="#63b8ff" stroke="#63b8ff" points="929.65,-137.58 939.74,-134.35 929.84,-130.58 929.65,-137.58"/>
</a>
</g>
</g>
<!-- Node15&#45;&gt;Node16 -->
<g id="edge23_Node000015_Node000016" class="edge">
<title>Node15&#45;&gt;Node16</title>
<g id="a_edge23_Node000015_Node000016"><a xlink:title=" ">
<path fill="none" stroke="#63b8ff" d="M940.81,-158.22C914.81,-163.32 887.53,-168.66 864.74,-173.12"/>
<polygon fill="#63b8ff" stroke="#63b8ff" points="941.24,-161.71 950.38,-156.35 939.9,-154.84 941.24,-161.71"/>
</a>
</g>
</g>
<!-- Node16&#45;&gt;Node13 -->
<g id="edge24_Node000016_Node000013" class="edge">
<title>Node16&#45;&gt;Node13</title>
<g id="a_edge24_Node000016_Node000013"><a xlink:title=" ">
<path fill="none" stroke="#63b8ff" d="M719.2,-195.58C701.01,-198 681.83,-200.55 663.48,-202.99"/>
<polygon fill="#63b8ff" stroke="#63b8ff" points="719.43,-199.08 728.88,-194.29 718.5,-192.14 719.43,-199.08"/>
</a>
</g>
</g>
<!-- Node18&#45;&gt;Node8 -->
<g id="edge28_Node000018_Node000008" class="edge">
<title>Node18&#45;&gt;Node8</title>
<g id="a_edge28_Node000018_Node000008"><a xlink:title=" ">
<path fill="none" stroke="#63b8ff" d="M1196.43,-59.13C1054.06,-19.36 702.78,56.87 456.5,-73.61 375.6,-116.48 333.6,-230.82 322.45,-265.5"/>
<polygon fill="#63b8ff" stroke="#63b8ff" points="1195.09,-62.39 1205.67,-61.75 1197,-55.65 1195.09,-62.39"/>
</a>
</g>
</g>
<!-- Node19&#45;&gt;Node5 -->
<g id="edge31_Node000019_Node000005" class="edge">
<title>Node19&#45;&gt;Node5</title>
<g id="a_edge31_Node000019_Node000005"><a xlink:title=" ">
<path fill="none" stroke="#63b8ff" d="M2256.15,-286.85C2253.87,-288.04 2251.65,-289.29 2249.5,-290.61 2202.06,-319.76 2160.87,-372.54 2141.89,-399.23"/>
<polygon fill="#63b8ff" stroke="#63b8ff" points="2257.49,-290.09 2265.05,-282.67 2254.52,-283.75 2257.49,-290.09"/>
</a>
</g>
</g>
<!-- Node20 -->
<g id="Node000020" class="node">
<title>Node20</title>
<g id="a_Node000020"><a xlink:href="classediteurpanovisu_1_1GestionnaireInterfaceController.html#a8c634f775c31c1a4db22d5ef0659f7e4" target="_top" xlink:title=" ">
<polygon fill="white" stroke="#666666" points="2203.38,-268.61 2056.12,-268.61 2056.12,-236.61 2203.38,-236.61 2203.38,-268.61"/>
<text xml:space="preserve" text-anchor="start" x="2064.12" y="-255.11" font-family="Helvetica,sans-Serif" font-size="10.00">editeurpanovisu.Gestionnaire</text>
<text xml:space="preserve" text-anchor="middle" x="2129.75" y="-243.11" font-family="Helvetica,sans-Serif" font-size="10.00">InterfaceController.afficheTitre</text>
</a>
</g>
</g>
<!-- Node19&#45;&gt;Node20 -->
<g id="edge32_Node000019_Node000020" class="edge">
<title>Node19&#45;&gt;Node20</title>
<g id="a_edge32_Node000019_Node000020"><a xlink:title=" ">
<path fill="none" stroke="#63b8ff" d="M2237.87,-259.5C2226.41,-258.76 2214.84,-258.02 2203.76,-257.31"/>
<polygon fill="#63b8ff" stroke="#63b8ff" points="2237.56,-262.99 2247.77,-260.14 2238.01,-256 2237.56,-262.99"/>
</a>
</g>
</g>
<!-- Node19&#45;&gt;Node21 -->
<g id="edge34_Node000019_Node000021" class="edge">
<title>Node19&#45;&gt;Node21</title>
<g id="a_edge34_Node000019_Node000021"><a xlink:title=" ">
<path fill="none" stroke="#63b8ff" d="M2237.97,-276.36C2181.98,-281 2109.83,-284.06 2046,-277.61 2028.29,-275.83 2009.36,-272.62 1991.8,-269.08"/>
<polygon fill="#63b8ff" stroke="#63b8ff" points="2238.13,-279.86 2247.79,-275.51 2237.53,-272.88 2238.13,-279.86"/>
</a>
</g>
</g>
<!-- Node19&#45;&gt;Node22 -->
<g id="edge35_Node000019_Node000022" class="edge">
<title>Node19&#45;&gt;Node22</title>
<g id="a_edge35_Node000019_Node000022"><a xlink:title=" ">
<path fill="none" stroke="#63b8ff" d="M2270.94,-245.69C2252.48,-239.82 2232.19,-233.41 2213.5,-227.61 2204.47,-224.81 2194.87,-221.88 2185.53,-219.04"/>
<polygon fill="#63b8ff" stroke="#63b8ff" points="2269.84,-249.02 2280.44,-248.72 2271.97,-242.35 2269.84,-249.02"/>
</a>
</g>
</g>
<!-- Node20&#45;&gt;Node21 -->
<g id="edge33_Node000020_Node000021" class="edge">
<title>Node20&#45;&gt;Node21</title>
<g id="a_edge33_Node000020_Node000021"><a xlink:title=" ">
<path fill="none" stroke="#63b8ff" d="M2044.43,-252.61C2030.08,-252.61 2015.24,-252.61 2001.07,-252.61"/>
<polygon fill="#63b8ff" stroke="#63b8ff" points="2044.3,-256.11 2054.3,-252.61 2044.3,-249.11 2044.3,-256.11"/>
</a>
</g>
</g>
<!-- Node22&#45;&gt;Node6 -->
<g id="edge36_Node000022_Node000006" class="edge">
<title>Node22&#45;&gt;Node6</title>
<g id="a_edge36_Node000022_Node000006"><a xlink:title=" ">
<path fill="none" stroke="#63b8ff" d="M2050.8,-224.43C2049.16,-225.44 2047.55,-226.51 2046,-227.61 2023.71,-243.53 2028.21,-257.16 2010,-277.61 1989.18,-301.01 1962.1,-324.84 1943.84,-340.13"/>
<polygon fill="#63b8ff" stroke="#63b8ff" points="2052.15,-227.68 2059.28,-219.84 2048.82,-221.52 2052.15,-227.68"/>
</a>
</g>
</g>
<!-- Node23 -->
<g id="Node000023" class="node">
<title>Node23</title>
<g id="a_Node000023"><a xlink:href="classediteurpanovisu_1_1EditeurPanovisu.html#a53cccf6a6b2693c872947460b66ae8ee" target="_top" xlink:title=" ">
<polygon fill="white" stroke="#666666" points="1348.5,-155.61 1173.5,-155.61 1173.5,-123.61 1348.5,-123.61 1348.5,-155.61"/>
<text xml:space="preserve" text-anchor="start" x="1181.5" y="-142.11" font-family="Helvetica,sans-Serif" font-size="10.00">editeurpanovisu.EditeurPanovisu.tsk</text>
<text xml:space="preserve" text-anchor="middle" x="1261" y="-130.11" font-family="Helvetica,sans-Serif" font-size="10.00">ChargeListeFichiers</text>
</a>
</g>
</g>
<!-- Node22&#45;&gt;Node23 -->
<g id="edge37_Node000022_Node000023" class="edge">
<title>Node22&#45;&gt;Node23</title>
<g id="a_edge37_Node000022_Node000023"><a xlink:title=" ">
<path fill="none" stroke="#63b8ff" d="M2047.13,-196.68C1883.45,-184.78 1516.48,-158.11 1348.69,-145.92"/>
<polygon fill="#63b8ff" stroke="#63b8ff" points="2046.82,-200.17 2057.04,-197.4 2047.32,-193.19 2046.82,-200.17"/>
</a>
</g>
</g>
<!-- Node23&#45;&gt;Node15 -->
<g id="edge40_Node000023_Node000015" class="edge">
<title>Node23&#45;&gt;Node15</title>
<g id="a_edge40_Node000023_Node000015"><a xlink:title=" ">
<path fill="none" stroke="#63b8ff" d="M1161.88,-139.61C1152.2,-139.61 1142.38,-139.61 1132.73,-139.61"/>
<polygon fill="#63b8ff" stroke="#63b8ff" points="1161.65,-143.11 1171.65,-139.61 1161.65,-136.11 1161.65,-143.11"/>
</a>
</g>
</g>
<!-- Node24 -->
<g id="Node000024" class="node">
<title>Node24</title>
<g id="a_Node000024"><a xlink:href="classediteurpanovisu_1_1EditeurPanovisu.html#a924d3ccff3e4f402d2309cd2eade3237" target="_top" xlink:title=" ">
<polygon fill="white" stroke="#666666" points="678.75,-114.61 456.5,-114.61 456.5,-82.61 678.75,-82.61 678.75,-114.61"/>
<text xml:space="preserve" text-anchor="start" x="464.5" y="-101.11" font-family="Helvetica,sans-Serif" font-size="10.00">editeurpanovisu.EditeurPanovisu.panoramiques</text>
<text xml:space="preserve" text-anchor="middle" x="567.62" y="-89.11" font-family="Helvetica,sans-Serif" font-size="10.00">Ajouter</text>
</a>
</g>
</g>
<!-- Node23&#45;&gt;Node24 -->
<g id="edge38_Node000023_Node000024" class="edge">
<title>Node23&#45;&gt;Node24</title>
<g id="a_edge38_Node000023_Node000024"><a xlink:title=" ">
<path fill="none" stroke="#63b8ff" d="M1175.75,-121.09C1161.3,-118.5 1146.39,-116.19 1132.25,-114.61 975.61,-97.18 793.07,-95.35 679.16,-96.39"/>
<polygon fill="#63b8ff" stroke="#63b8ff" points="1174.73,-124.46 1185.2,-122.84 1176,-117.58 1174.73,-124.46"/>
</a>
</g>
</g>
<!-- Node24&#45;&gt;Node8 -->
<g id="edge39_Node000024_Node000008" class="edge">
<title>Node24&#45;&gt;Node8</title>
<g id="a_edge39_Node000024_Node000008"><a xlink:title=" ">
<path fill="none" stroke="#63b8ff" d="M477.26,-119.18C470.02,-122.21 463,-125.67 456.5,-129.61 395.26,-166.79 343.79,-238.67 326.02,-265.34"/>
<polygon fill="#63b8ff" stroke="#63b8ff" points="478.51,-122.45 486.58,-115.58 475.99,-115.92 478.51,-122.45"/>
</a>
</g>
</g>
<!-- Node26 -->
<g id="Node000026" class="node">
<title>Node26</title>
<g id="a_Node000026"><a xlink:href="classediteurpanovisu_1_1EditeurPanovisu.html#aaee69ab54364f89b58458c744a4195c0" target="_top" xlink:title=" ">
<polygon fill="white" stroke="#666666" points="1577.5,-94.61 1389.75,-94.61 1389.75,-62.61 1577.5,-62.61 1577.5,-94.61"/>
<text xml:space="preserve" text-anchor="start" x="1397.75" y="-81.11" font-family="Helvetica,sans-Serif" font-size="10.00">editeurpanovisu.EditeurPanovisu.sauve</text>
<text xml:space="preserve" text-anchor="middle" x="1483.62" y="-69.11" font-family="Helvetica,sans-Serif" font-size="10.00">FichierProjet</text>
</a>
</g>
</g>
<!-- Node25&#45;&gt;Node26 -->
<g id="edge50_Node000025_Node000026" class="edge">
<title>Node25&#45;&gt;Node26</title>
<g id="a_edge50_Node000025_Node000026"><a xlink:title=" ">
<path fill="none" stroke="#63b8ff" d="M2629.93,-64.74C2551.24,-65.59 2435.77,-66.61 2335,-66.61 2335,-66.61 2335,-66.61 1921.5,-66.61 1802.95,-66.61 1666.36,-71.08 1577.92,-74.57"/>
<polygon fill="#63b8ff" stroke="#63b8ff" points="2629.8,-68.24 2639.76,-64.63 2629.72,-61.24 2629.8,-68.24"/>
</a>
</g>
</g>
<!-- Node26&#45;&gt;Node12 -->
<g id="edge51_Node000026_Node000012" class="edge">
<title>Node26&#45;&gt;Node12</title>
<g id="a_edge51_Node000026_Node000012"><a xlink:title=" ">
<path fill="none" stroke="#63b8ff" d="M1455.35,-102.48C1409.89,-142.24 1319.8,-221.05 1280.76,-255.2"/>
<polygon fill="#63b8ff" stroke="#63b8ff" points="1457.45,-105.28 1462.68,-96.07 1452.84,-100.02 1457.45,-105.28"/>
</a>
</g>
</g>
<!-- Node26&#45;&gt;Node18 -->
<g id="edge52_Node000026_Node000018" class="edge">
<title>Node26&#45;&gt;Node18</title>
<g id="a_edge52_Node000026_Node000018"><a xlink:title=" ">
<path fill="none" stroke="#63b8ff" d="M1378.13,-78.61C1370.14,-78.61 1362.11,-78.61 1354.21,-78.61"/>
<polygon fill="#63b8ff" stroke="#63b8ff" points="1377.87,-82.11 1387.87,-78.61 1377.87,-75.11 1377.87,-82.11"/>
</a>
</g>
</g>
</g>
</svg>

<g id="navigator" transform="translate(0 0)" fill="#404254">
  <rect fill="#f2f5e9" fill-opacity="0.5" stroke="#606060" stroke-width=".5" x="0" y="0" width="60" height="60"/>
  <use id="zoomplus" xlink:href="#zoomPlus" x="17" y="9" onmousedown="handleZoom(evt,'in')"/>
  <use id="zoomminus" xlink:href="#zoomMin" x="42" y="9" onmousedown="handleZoom(evt,'out')"/>
  <use id="reset" xlink:href="#resetDef" x="30" y="36" onmousedown="handleReset()"/>
   <use id="arrowup" xlink:href="#arrowUp" x="0" y="0" onmousedown="handlePan(0,-1)"/>
  <use id="arrowright" xlink:href="#arrowRight" x="0" y="0" onmousedown="handlePan(1,0)"/>
  <use id="arrowdown" xlink:href="#arrowDown" x="0" y="0" onmousedown="handlePan(0,1)"/>
  <use id="arrowleft" xlink:href="#arrowLeft" x="0" y="0" onmousedown="handlePan(-1,0)"/>
</g>
<svg viewBox="0 0 15 15" width="100%" height="30px" preserveAspectRatio="xMaxYMin meet">
 <g id="arrow_out" transform="scale(0.3 0.3)">
  <a xlink:href="classediteurpanovisu_1_1GestionnaireInterfaceController_aa73f44c4e326aed41cd81430f5a3756d_icgraph_org.svg" target="_base">
   <rect id="button" ry="5" rx="5" y="6" x="6" height="38" width="38"
        fill="#f2f5e9" fill-opacity="0.5" stroke="#606060" stroke-width="1.0"/>
   <path id="arrow"
     d="M 11.500037,31.436501 C 11.940474,20.09759 22.043105,11.32322 32.158766,21.979434 L 37.068811,17.246167 C 37.068811,17.246167 37.088388,32 37.088388,32 L 22.160133,31.978069 C 22.160133,31.978069 26.997745,27.140456 26.997745,27.140456 C 18.528582,18.264221 13.291696,25.230495 11.500037,31.436501 z"
     style="fill:#404040;"/>
  </a>
 </g>
</svg>

<style type='text/css'>
<![CDATA[
[data-mouse-over-selected='false'] { opacity: 0.7; }
[data-mouse-over-selected='true']  { opacity: 1.0; }
]]>
</style>
<script type="application/ecmascript"><![CDATA[
document.addEventListener('DOMContentLoaded', (event) => {
  highlightEdges();
  highlightAdjacentNodes();
});
]]></script>
</svg>
