<?xml version="1.0" encoding="UTF-8" standalone="no"?>
<!DOCTYPE svg PUBLIC "-//W3C//DTD SVG 1.1//EN"
 "http://www.w3.org/Graphics/SVG/1.1/DTD/svg11.dtd">
<!-- Generated by graphviz version 13.1.2 (20250808.2320)
 -->
<!-- Title: editeurpanovisu.EquiCubeDialogController.tskTraitement Pages: 1 -->
<!--zoomable 462 -->

<svg id="main" version="1.1" xmlns="http://www.w3.org/2000/svg" xmlns:xlink="http://www.w3.org/1999/xlink" xml:space="preserve" onload="init(evt)">

<style type="text/css"><![CDATA[
.node, .edge {opacity: 0.7;}
.node.selected, .edge.selected {opacity: 1;}
.edge:hover path { stroke: red; }
.edge:hover polygon { stroke: red; fill: red; }
]]></style>

<defs>
  <circle id="rim" cx="0" cy="0" r="7"/>
  <circle id="rim2" cx="0" cy="0" r="3.5"/>
  <g id="zoomPlus">
    <use xlink:href="#rim" fill="#404040"><set attributeName="fill" to="#808080" begin="zoomplus.mouseover" end="zoomplus.mouseout"/></use>
    <path d="M-4,0h8M0,-4v8" fill="none" stroke="white" stroke-width="1.5" pointer-events="none"/>
  </g>
  <g id="zoomMin">
    <use xlink:href="#rim" fill="#404040"><set attributeName="fill" to="#808080" begin="zoomminus.mouseover" end="zoomminus.mouseout"/></use>
    <path d="M-4,0h8" fill="none" stroke="white" stroke-width="1.5" pointer-events="none"/>
  </g>
  <g id="arrowUp" transform="translate(30 24)">
    <use xlink:href="#rim"/>
    <path pointer-events="none" fill="none" stroke="white" stroke-width="1.5" d="M0,-3.0v7 M-2.5,-0.5L0,-3.0L2.5,-0.5"/>
  </g>
  <g id="arrowRight" transform="rotate(90) translate(36 -43)">
    <use xlink:href="#rim"/>
    <path pointer-events="none" fill="none" stroke="white" stroke-width="1.5" d="M0,-3.0v7 M-2.5,-0.5L0,-3.0L2.5,-0.5"/>
  </g>
  <g id="arrowDown" transform="rotate(180) translate(-30 -48)">
    <use xlink:href="#rim"/>
    <path pointer-events="none" fill="none" stroke="white" stroke-width="1.5" d="M0,-3.0v7 M-2.5,-0.5L0,-3.0L2.5,-0.5"/>
  </g>
  <g id="arrowLeft" transform="rotate(270) translate(-36 17)">
    <use xlink:href="#rim"/>
    <path pointer-events="none" fill="none" stroke="white" stroke-width="1.5" d="M0,-3.0v7 M-2.5,-0.5L0,-3.0L2.5,-0.5"/>
  </g>
  <g id="resetDef">
    <use xlink:href="#rim2" fill="#404040"><set attributeName="fill" to="#808080" begin="reset.mouseover" end="reset.mouseout"/></use>
  </g>
</defs>
<script type="application/ecmascript">
var viewWidth = 784;
var viewHeight = 462;
var sectionId = 'dynsection-8';
</script>
<script type="application/ecmascript" xlink:href="svg.min.js"/>
<svg id="graph" class="graph">
<g id="viewport">
<title>editeurpanovisu.EquiCubeDialogController.tskTraitement</title>
<!-- Node1 -->
<g id="Node000001" class="node">
<title>Node1</title>
<g id="a_Node000001"><a xlink:title=" ">
<polygon fill="#999999" stroke="#666666" points="148.75,-254 0,-254 0,-222 148.75,-222 148.75,-254"/>
<text xml:space="preserve" text-anchor="start" x="8" y="-240.5" font-family="Helvetica,sans-Serif" font-size="10.00">editeurpanovisu.EquiCube</text>
<text xml:space="preserve" text-anchor="middle" x="74.38" y="-228.5" font-family="Helvetica,sans-Serif" font-size="10.00">DialogController.tskTraitement</text>
</a>
</g>
</g>
<!-- Node2 -->
<g id="Node000002" class="node">
<title>Node2</title>
<g id="a_Node000002"><a xlink:href="leaflet_8js.html#a2ab7046ae25351b998b61260f82cabe8" target="_top" xlink:title=" ">
<polygon fill="white" stroke="#666666" points="269.02,-270 240.22,-270 240.22,-250 269.02,-250 269.02,-270"/>
<text xml:space="preserve" text-anchor="middle" x="254.62" y="-256.5" font-family="Helvetica,sans-Serif" font-size="10.00">ii</text>
</a>
</g>
</g>
<!-- Node1&#45;&gt;Node2 -->
<g id="edge1_Node000001_Node000002" class="edge">
<title>Node1&#45;&gt;Node2</title>
<g id="a_edge1_Node000001_Node000002"><a xlink:title=" ">
<path fill="none" stroke="#63b8ff" d="M149.16,-247.11C177.53,-250.61 208.04,-254.37 228.72,-256.93"/>
<polygon fill="#63b8ff" stroke="#63b8ff" points="228.08,-260.37 238.44,-258.13 228.94,-253.43 228.08,-260.37"/>
</a>
</g>
</g>
<!-- Node3 -->
<g id="Node000003" class="node">
<title>Node3</title>
<g id="a_Node000003"><a xlink:href="classediteurpanovisu_1_1EquiCubeDialogController.html#a859d7bcbdb37f828495100df8fa4f397" target="_top" xlink:title=" ">
<polygon fill="white" stroke="#666666" points="324.5,-232 184.75,-232 184.75,-200 324.5,-200 324.5,-232"/>
<text xml:space="preserve" text-anchor="start" x="192.75" y="-218.5" font-family="Helvetica,sans-Serif" font-size="10.00">editeurpanovisu.EquiCube</text>
<text xml:space="preserve" text-anchor="middle" x="254.62" y="-206.5" font-family="Helvetica,sans-Serif" font-size="10.00">DialogController.traiteFichier</text>
</a>
</g>
</g>
<!-- Node1&#45;&gt;Node3 -->
<g id="edge2_Node000001_Node000003" class="edge">
<title>Node1&#45;&gt;Node3</title>
<g id="a_edge2_Node000001_Node000003"><a xlink:title=" ">
<path fill="none" stroke="#63b8ff" d="M149.16,-228.89C157.1,-227.91 165.21,-226.91 173.23,-225.92"/>
<polygon fill="#63b8ff" stroke="#63b8ff" points="173.47,-229.42 182.97,-224.72 172.61,-222.47 173.47,-229.42"/>
</a>
</g>
</g>
<!-- Node4 -->
<g id="Node000004" class="node">
<title>Node4</title>
<g id="a_Node000004"><a xlink:href="classediteurpanovisu_1_1TransformationsPanoramique.html#a1996d35a9e7dcf6f2802baad590febb5" target="_top" xlink:title=" ">
<polygon fill="white" stroke="#666666" points="526.88,-320 369.12,-320 369.12,-288 526.88,-288 526.88,-320"/>
<text xml:space="preserve" text-anchor="start" x="377.12" y="-306.5" font-family="Helvetica,sans-Serif" font-size="10.00">editeurpanovisu.Transformations</text>
<text xml:space="preserve" text-anchor="middle" x="448" y="-294.5" font-family="Helvetica,sans-Serif" font-size="10.00">Panoramique.cube2rect</text>
</a>
</g>
</g>
<!-- Node3&#45;&gt;Node4 -->
<g id="edge3_Node000003_Node000004" class="edge">
<title>Node3&#45;&gt;Node4</title>
<g id="a_edge3_Node000003_Node000004"><a xlink:title=" ">
<path fill="none" stroke="#63b8ff" d="M307.8,-232.42C313.59,-234.98 319.28,-237.83 324.5,-241 343.06,-252.25 341.86,-262.88 360.5,-274 366.18,-277.39 372.31,-280.47 378.58,-283.26"/>
<polygon fill="#63b8ff" stroke="#63b8ff" points="377.24,-286.49 387.82,-287.08 379.92,-280.02 377.24,-286.49"/>
</a>
</g>
</g>
<!-- Node5 -->
<g id="Node000005" class="node">
<title>Node5</title>
<g id="a_Node000005"><a xlink:href="leaflet_8js.html#a73aff07b65d7c0b09ccf6b4c4f1b7a9d" target="_top" xlink:title=" ">
<polygon fill="white" stroke="#666666" points="776.05,-289 747.25,-289 747.25,-269 776.05,-269 776.05,-289"/>
<text xml:space="preserve" text-anchor="middle" x="761.65" y="-275.5" font-family="Helvetica,sans-Serif" font-size="10.00">i</text>
</a>
</g>
</g>
<!-- Node3&#45;&gt;Node5 -->
<g id="edge12_Node000003_Node000005" class="edge">
<title>Node3&#45;&gt;Node5</title>
<g id="a_edge12_Node000003_Node000005"><a xlink:title=" ">
<path fill="none" stroke="#63b8ff" d="M318.28,-232.44C332.11,-235.65 346.74,-238.72 360.5,-241 501.23,-264.34 672.35,-274.63 735.6,-277.84"/>
<polygon fill="#63b8ff" stroke="#63b8ff" points="735.42,-281.33 745.58,-278.32 735.76,-274.34 735.42,-281.33"/>
</a>
</g>
</g>
<!-- Node6 -->
<g id="Node000006" class="node">
<title>Node6</title>
<g id="a_Node000006"><a xlink:href="leaflet_8js.html#afa3c32d9f7f168b0e59ddc33ec31bb84" target="_top" xlink:title=" ">
<polygon fill="white" stroke="#666666" points="655.77,-346 626.98,-346 626.98,-326 655.77,-326 655.77,-346"/>
<text xml:space="preserve" text-anchor="middle" x="641.38" y="-332.5" font-family="Helvetica,sans-Serif" font-size="10.00">j</text>
</a>
</g>
</g>
<!-- Node3&#45;&gt;Node6 -->
<g id="edge13_Node000003_Node000006" class="edge">
<title>Node3&#45;&gt;Node6</title>
<g id="a_edge13_Node000003_Node000006"><a xlink:title=" ">
<path fill="none" stroke="#63b8ff" d="M313.15,-232.43C317.25,-234.9 321.11,-237.74 324.5,-241 354.97,-270.27 325.71,-305.01 360.5,-329 439.57,-383.53 563.33,-358.05 615.67,-343.58"/>
<polygon fill="#63b8ff" stroke="#63b8ff" points="616.46,-347 625.1,-340.87 614.52,-340.27 616.46,-347"/>
</a>
</g>
</g>
<!-- Node8 -->
<g id="Node000008" class="node">
<title>Node8</title>
<g id="a_Node000008"><a xlink:href="classediteurpanovisu_1_1TransformationsPanoramique.html#a0cc52e5ea8c62bf993d60216992d1993" target="_top" xlink:title=" ">
<polygon fill="white" stroke="#666666" points="526.88,-408 369.12,-408 369.12,-376 526.88,-376 526.88,-408"/>
<text xml:space="preserve" text-anchor="start" x="377.12" y="-394.5" font-family="Helvetica,sans-Serif" font-size="10.00">editeurpanovisu.Transformations</text>
<text xml:space="preserve" text-anchor="middle" x="448" y="-382.5" font-family="Helvetica,sans-Serif" font-size="10.00">Panoramique.equi2cube</text>
</a>
</g>
</g>
<!-- Node3&#45;&gt;Node8 -->
<g id="edge7_Node000003_Node000008" class="edge">
<title>Node3&#45;&gt;Node8</title>
<g id="a_edge7_Node000003_Node000008"><a xlink:title=" ">
<path fill="none" stroke="#63b8ff" d="M314.16,-232.48C317.94,-234.94 321.45,-237.76 324.5,-241 362.99,-281.83 321.72,-321.45 360.5,-362 363.22,-364.84 366.22,-367.42 369.43,-369.75"/>
<polygon fill="#63b8ff" stroke="#63b8ff" points="367.31,-372.55 377.64,-374.89 371.02,-366.62 367.31,-372.55"/>
</a>
</g>
</g>
<!-- Node10 -->
<g id="Node000010" class="node">
<title>Node10</title>
<g id="a_Node000010"><a xlink:href="classediteurpanovisu_1_1ReadWriteImage.html#ac16a47fd8d8c27b8be3304abb86b5f05" target="_top" xlink:title=" ">
<polygon fill="white" stroke="#666666" points="514.5,-132 381.5,-132 381.5,-100 514.5,-100 514.5,-132"/>
<text xml:space="preserve" text-anchor="start" x="389.5" y="-118.5" font-family="Helvetica,sans-Serif" font-size="10.00">editeurpanovisu.ReadWrite</text>
<text xml:space="preserve" text-anchor="middle" x="448" y="-106.5" font-family="Helvetica,sans-Serif" font-size="10.00">Image.readTiff</text>
</a>
</g>
</g>
<!-- Node3&#45;&gt;Node10 -->
<g id="edge14_Node000003_Node000010" class="edge">
<title>Node3&#45;&gt;Node10</title>
<g id="a_edge14_Node000003_Node000010"><a xlink:title=" ">
<path fill="none" stroke="#63b8ff" d="M274.09,-199.79C294.12,-182.96 327.66,-156.91 360.5,-141 363.81,-139.4 367.23,-137.88 370.73,-136.44"/>
<polygon fill="#63b8ff" stroke="#63b8ff" points="371.89,-139.75 379.98,-132.92 369.39,-133.21 371.89,-139.75"/>
</a>
</g>
</g>
<!-- Node11 -->
<g id="Node000011" class="node">
<title>Node11</title>
<g id="a_Node000011"><a xlink:href="classediteurpanovisu_1_1EditeurPanovisu.html#a54bb4a3d5ddcc81d0a59f84bda4830cf" target="_top" xlink:title=" ">
<polygon fill="white" stroke="#666666" points="535.5,-82 360.5,-82 360.5,-50 535.5,-50 535.5,-82"/>
<text xml:space="preserve" text-anchor="start" x="368.5" y="-68.5" font-family="Helvetica,sans-Serif" font-size="10.00">editeurpanovisu.EditeurPanovisu.set</text>
<text xml:space="preserve" text-anchor="middle" x="448" y="-56.5" font-family="Helvetica,sans-Serif" font-size="10.00">StrTypeFichierTransf</text>
</a>
</g>
</g>
<!-- Node3&#45;&gt;Node11 -->
<g id="edge15_Node000003_Node000011" class="edge">
<title>Node3&#45;&gt;Node11</title>
<g id="a_edge15_Node000003_Node000011"><a xlink:title=" ">
<path fill="none" stroke="#63b8ff" d="M264.96,-199.52C280.99,-172.71 316.34,-119.74 360.5,-91 362.37,-89.78 364.29,-88.63 366.27,-87.53"/>
<polygon fill="#63b8ff" stroke="#63b8ff" points="367.72,-90.71 375.13,-83.13 364.61,-84.44 367.72,-90.71"/>
</a>
</g>
</g>
<!-- Node12 -->
<g id="Node000012" class="node">
<title>Node12</title>
<g id="a_Node000012"><a xlink:href="classediteurpanovisu_1_1ReadWriteImage.html#a7b400a8c48ae7235834aacc7e1729893" target="_top" xlink:title=" ">
<polygon fill="white" stroke="#666666" points="514.5,-182 381.5,-182 381.5,-150 514.5,-150 514.5,-182"/>
<text xml:space="preserve" text-anchor="start" x="389.5" y="-168.5" font-family="Helvetica,sans-Serif" font-size="10.00">editeurpanovisu.ReadWrite</text>
<text xml:space="preserve" text-anchor="middle" x="448" y="-156.5" font-family="Helvetica,sans-Serif" font-size="10.00">Image.writeBMP</text>
</a>
</g>
</g>
<!-- Node3&#45;&gt;Node12 -->
<g id="edge16_Node000003_Node000012" class="edge">
<title>Node3&#45;&gt;Node12</title>
<g id="a_edge16_Node000003_Node000012"><a xlink:title=" ">
<path fill="none" stroke="#63b8ff" d="M318.55,-199.56C335.97,-195.01 355.02,-190.03 373,-185.33"/>
<polygon fill="#63b8ff" stroke="#63b8ff" points="373.78,-188.75 382.57,-182.83 372.01,-181.98 373.78,-188.75"/>
</a>
</g>
</g>
<!-- Node14 -->
<g id="Node000014" class="node">
<title>Node14</title>
<g id="a_Node000014"><a xlink:href="classediteurpanovisu_1_1ReadWriteImage.html#ac875b8819ddfbadc3482dab5e043f16b" target="_top" xlink:title=" ">
<polygon fill="white" stroke="#666666" points="514.5,-232 381.5,-232 381.5,-200 514.5,-200 514.5,-232"/>
<text xml:space="preserve" text-anchor="start" x="389.5" y="-218.5" font-family="Helvetica,sans-Serif" font-size="10.00">editeurpanovisu.ReadWrite</text>
<text xml:space="preserve" text-anchor="middle" x="448" y="-206.5" font-family="Helvetica,sans-Serif" font-size="10.00">Image.writeJpeg</text>
</a>
</g>
</g>
<!-- Node3&#45;&gt;Node14 -->
<g id="edge19_Node000003_Node000014" class="edge">
<title>Node3&#45;&gt;Node14</title>
<g id="a_edge19_Node000003_Node000014"><a xlink:title=" ">
<path fill="none" stroke="#63b8ff" d="M324.99,-216C339.56,-216 355.02,-216 369.86,-216"/>
<polygon fill="#63b8ff" stroke="#63b8ff" points="369.55,-219.5 379.55,-216 369.55,-212.5 369.55,-219.5"/>
</a>
</g>
</g>
<!-- Node15 -->
<g id="Node000015" class="node">
<title>Node15</title>
<g id="a_Node000015"><a xlink:href="classediteurpanovisu_1_1ReadWriteImage.html#a51b638334cf7682f0af306be38141133" target="_top" xlink:title=" ">
<polygon fill="white" stroke="#666666" points="514.5,-32 381.5,-32 381.5,0 514.5,0 514.5,-32"/>
<text xml:space="preserve" text-anchor="start" x="389.5" y="-18.5" font-family="Helvetica,sans-Serif" font-size="10.00">editeurpanovisu.ReadWrite</text>
<text xml:space="preserve" text-anchor="middle" x="448" y="-6.5" font-family="Helvetica,sans-Serif" font-size="10.00">Image.writeTiff</text>
</a>
</g>
</g>
<!-- Node3&#45;&gt;Node15 -->
<g id="edge21_Node000003_Node000015" class="edge">
<title>Node3&#45;&gt;Node15</title>
<g id="a_edge21_Node000003_Node000015"><a xlink:title=" ">
<path fill="none" stroke="#63b8ff" d="M260.78,-199.71C272.58,-165.07 304.93,-83.78 360.5,-41 363.79,-38.47 367.33,-36.19 371.03,-34.14"/>
<polygon fill="#63b8ff" stroke="#63b8ff" points="372.3,-37.42 379.78,-29.91 369.25,-31.12 372.3,-37.42"/>
</a>
</g>
</g>
<!-- Node4&#45;&gt;Node5 -->
<g id="edge4_Node000004_Node000005" class="edge">
<title>Node4&#45;&gt;Node5</title>
<g id="a_edge4_Node000004_Node000005"><a xlink:title=" ">
<path fill="none" stroke="#63b8ff" d="M527.24,-297.72C595.66,-292.24 690.86,-284.6 735.57,-281.01"/>
<polygon fill="#63b8ff" stroke="#63b8ff" points="735.82,-284.5 745.51,-280.21 735.26,-277.53 735.82,-284.5"/>
</a>
</g>
</g>
<!-- Node4&#45;&gt;Node6 -->
<g id="edge5_Node000004_Node000006" class="edge">
<title>Node4&#45;&gt;Node6</title>
<g id="a_edge5_Node000004_Node000006"><a xlink:title=" ">
<path fill="none" stroke="#63b8ff" d="M527.12,-317.06C558.68,-322.34 592.89,-328.06 615.36,-331.82"/>
<polygon fill="#63b8ff" stroke="#63b8ff" points="614.61,-335.24 625.05,-333.44 615.76,-328.34 614.61,-335.24"/>
</a>
</g>
</g>
<!-- Node7 -->
<g id="Node000007" class="node">
<title>Node7</title>
<g id="a_Node000007"><a xlink:href="leaflet_8js.html#a873cae0273c5a7d9673544bbe0a6fe8b" target="_top" xlink:title=" ">
<polygon fill="white" stroke="#666666" points="655.77,-384 626.98,-384 626.98,-364 655.77,-364 655.77,-384"/>
<text xml:space="preserve" text-anchor="middle" x="641.38" y="-370.5" font-family="Helvetica,sans-Serif" font-size="10.00">Y</text>
</a>
</g>
</g>
<!-- Node4&#45;&gt;Node7 -->
<g id="edge6_Node000004_Node000007" class="edge">
<title>Node4&#45;&gt;Node7</title>
<g id="a_edge6_Node000004_Node000007"><a xlink:title=" ">
<path fill="none" stroke="#63b8ff" d="M484.99,-320.38C509.16,-331.04 541.88,-344.79 571.5,-355 585.87,-359.95 602.25,-364.51 615.44,-367.93"/>
<polygon fill="#63b8ff" stroke="#63b8ff" points="614.48,-371.29 625.03,-370.35 616.19,-364.51 614.48,-371.29"/>
</a>
</g>
</g>
<!-- Node8&#45;&gt;Node5 -->
<g id="edge8_Node000008_Node000005" class="edge">
<title>Node8&#45;&gt;Node5</title>
<g id="a_edge8_Node000008_Node000005"><a xlink:title=" ">
<path fill="none" stroke="#63b8ff" d="M477.79,-408.47C529.73,-435.78 640.31,-482.54 711.25,-431 752.65,-400.92 760.04,-335.29 760.93,-300.94"/>
<polygon fill="#63b8ff" stroke="#63b8ff" points="764.43,-300.99 761.01,-290.96 757.43,-300.94 764.43,-300.99"/>
</a>
</g>
</g>
<!-- Node8&#45;&gt;Node6 -->
<g id="edge9_Node000008_Node000006" class="edge">
<title>Node8&#45;&gt;Node6</title>
<g id="a_edge9_Node000008_Node000006"><a xlink:title=" ">
<path fill="none" stroke="#63b8ff" d="M502.58,-375.51C523.99,-369 548.88,-361.54 571.5,-355 586.1,-350.78 602.5,-346.25 615.63,-342.67"/>
<polygon fill="#63b8ff" stroke="#63b8ff" points="616.43,-346.08 625.17,-340.08 614.6,-339.32 616.43,-346.08"/>
</a>
</g>
</g>
<!-- Node8&#45;&gt;Node7 -->
<g id="edge10_Node000008_Node000007" class="edge">
<title>Node8&#45;&gt;Node7</title>
<g id="a_edge10_Node000008_Node000007"><a xlink:title=" ">
<path fill="none" stroke="#63b8ff" d="M527.12,-384.65C558.68,-381.68 592.89,-378.47 615.36,-376.35"/>
<polygon fill="#63b8ff" stroke="#63b8ff" points="615.41,-379.86 625.03,-375.44 614.75,-372.89 615.41,-379.86"/>
</a>
</g>
</g>
<!-- Node9 -->
<g id="Node000009" class="node">
<title>Node9</title>
<g id="a_Node000009"><a xlink:href="leaflet_8js.html#a225602860fb21629c65836853697cc39" target="_top" xlink:title=" ">
<polygon fill="white" stroke="#666666" points="655.77,-422 626.98,-422 626.98,-402 655.77,-402 655.77,-422"/>
<text xml:space="preserve" text-anchor="middle" x="641.38" y="-408.5" font-family="Helvetica,sans-Serif" font-size="10.00">Z</text>
</a>
</g>
</g>
<!-- Node8&#45;&gt;Node9 -->
<g id="edge11_Node000008_Node000009" class="edge">
<title>Node8&#45;&gt;Node9</title>
<g id="a_edge11_Node000008_Node000009"><a xlink:title=" ">
<path fill="none" stroke="#63b8ff" d="M527.12,-400.16C558.68,-403.46 592.89,-407.04 615.36,-409.39"/>
<polygon fill="#63b8ff" stroke="#63b8ff" points="614.73,-412.84 625.04,-410.4 615.45,-405.88 614.73,-412.84"/>
</a>
</g>
</g>
<!-- Node13 -->
<g id="Node000013" class="node">
<title>Node13</title>
<g id="a_Node000013"><a xlink:href="classediteurpanovisu_1_1ReadWriteImage.html#ae93614e117cb7a4718f4ac3d5fd33c4e" target="_top" xlink:title=" ">
<polygon fill="white" stroke="#666666" points="711.25,-232 571.5,-232 571.5,-200 711.25,-200 711.25,-232"/>
<text xml:space="preserve" text-anchor="start" x="579.5" y="-218.5" font-family="Helvetica,sans-Serif" font-size="10.00">editeurpanovisu.ReadWrite</text>
<text xml:space="preserve" text-anchor="middle" x="641.38" y="-206.5" font-family="Helvetica,sans-Serif" font-size="10.00">Image.calculeSharpenMatrix</text>
</a>
</g>
</g>
<!-- Node12&#45;&gt;Node13 -->
<g id="edge17_Node000012_Node000013" class="edge">
<title>Node12&#45;&gt;Node13</title>
<g id="a_edge17_Node000012_Node000013"><a xlink:title=" ">
<path fill="none" stroke="#63b8ff" d="M511.93,-182.44C529.34,-186.99 548.4,-191.97 566.38,-196.67"/>
<polygon fill="#63b8ff" stroke="#63b8ff" points="565.38,-200.02 575.94,-199.17 567.15,-193.25 565.38,-200.02"/>
</a>
</g>
</g>
<!-- Node13&#45;&gt;Node5 -->
<g id="edge18_Node000013_Node000005" class="edge">
<title>Node13&#45;&gt;Node5</title>
<g id="a_edge18_Node000013_Node000005"><a xlink:title=" ">
<path fill="none" stroke="#63b8ff" d="M683.38,-232.43C692.69,-236.55 702.44,-241.19 711.25,-246 720.13,-250.85 729.46,-256.83 737.59,-262.36"/>
<polygon fill="#63b8ff" stroke="#63b8ff" points="735.35,-265.07 745.56,-267.91 739.36,-259.32 735.35,-265.07"/>
</a>
</g>
</g>
<!-- Node14&#45;&gt;Node13 -->
<g id="edge20_Node000014_Node000013" class="edge">
<title>Node14&#45;&gt;Node13</title>
<g id="a_edge20_Node000014_Node000013"><a xlink:title=" ">
<path fill="none" stroke="#63b8ff" d="M514.86,-216C529.34,-216 544.82,-216 559.8,-216"/>
<polygon fill="#63b8ff" stroke="#63b8ff" points="559.62,-219.5 569.62,-216 559.62,-212.5 559.62,-219.5"/>
</a>
</g>
</g>
</g>
</svg>

<g id="navigator" transform="translate(0 0)" fill="#404254">
  <rect fill="#f2f5e9" fill-opacity="0.5" stroke="#606060" stroke-width=".5" x="0" y="0" width="60" height="60"/>
  <use id="zoomplus" xlink:href="#zoomPlus" x="17" y="9" onmousedown="handleZoom(evt,'in')"/>
  <use id="zoomminus" xlink:href="#zoomMin" x="42" y="9" onmousedown="handleZoom(evt,'out')"/>
  <use id="reset" xlink:href="#resetDef" x="30" y="36" onmousedown="handleReset()"/>
   <use id="arrowup" xlink:href="#arrowUp" x="0" y="0" onmousedown="handlePan(0,-1)"/>
  <use id="arrowright" xlink:href="#arrowRight" x="0" y="0" onmousedown="handlePan(1,0)"/>
  <use id="arrowdown" xlink:href="#arrowDown" x="0" y="0" onmousedown="handlePan(0,1)"/>
  <use id="arrowleft" xlink:href="#arrowLeft" x="0" y="0" onmousedown="handlePan(-1,0)"/>
</g>
<svg viewBox="0 0 15 15" width="100%" height="30px" preserveAspectRatio="xMaxYMin meet">
 <g id="arrow_out" transform="scale(0.3 0.3)">
  <a xlink:href="classediteurpanovisu_1_1EquiCubeDialogController_a01c288eacc25996544414cc5e9ceb0a1_cgraph_org.svg" target="_base">
   <rect id="button" ry="5" rx="5" y="6" x="6" height="38" width="38"
        fill="#f2f5e9" fill-opacity="0.5" stroke="#606060" stroke-width="1.0"/>
   <path id="arrow"
     d="M 11.500037,31.436501 C 11.940474,20.09759 22.043105,11.32322 32.158766,21.979434 L 37.068811,17.246167 C 37.068811,17.246167 37.088388,32 37.088388,32 L 22.160133,31.978069 C 22.160133,31.978069 26.997745,27.140456 26.997745,27.140456 C 18.528582,18.264221 13.291696,25.230495 11.500037,31.436501 z"
     style="fill:#404040;"/>
  </a>
 </g>
</svg>

<style type='text/css'>
<![CDATA[
[data-mouse-over-selected='false'] { opacity: 0.7; }
[data-mouse-over-selected='true']  { opacity: 1.0; }
]]>
</style>
<script type="application/ecmascript"><![CDATA[
document.addEventListener('DOMContentLoaded', (event) => {
  highlightEdges();
  highlightAdjacentNodes();
});
]]></script>
</svg>
