<?xml version="1.0" encoding="UTF-8" standalone="no"?>
<!DOCTYPE svg PUBLIC "-//W3C//DTD SVG 1.1//EN"
 "http://www.w3.org/Graphics/SVG/1.1/DTD/svg11.dtd">
<!-- Generated by graphviz version 13.1.2 (20250808.2320)
 -->
<!-- Title: editeurpanovisu.EditeurPanovisu.tskChargeListeFichiers Pages: 1 -->
<!--zoomable 128 -->

<svg id="main" version="1.1" xmlns="http://www.w3.org/2000/svg" xmlns:xlink="http://www.w3.org/1999/xlink" xml:space="preserve" onload="init(evt)">

<style type="text/css"><![CDATA[
.node, .edge {opacity: 0.7;}
.node.selected, .edge.selected {opacity: 1;}
.edge:hover path { stroke: red; }
.edge:hover polygon { stroke: red; fill: red; }
]]></style>

<defs>
  <circle id="rim" cx="0" cy="0" r="7"/>
  <circle id="rim2" cx="0" cy="0" r="3.5"/>
  <g id="zoomPlus">
    <use xlink:href="#rim" fill="#404040"><set attributeName="fill" to="#808080" begin="zoomplus.mouseover" end="zoomplus.mouseout"/></use>
    <path d="M-4,0h8M0,-4v8" fill="none" stroke="white" stroke-width="1.5" pointer-events="none"/>
  </g>
  <g id="zoomMin">
    <use xlink:href="#rim" fill="#404040"><set attributeName="fill" to="#808080" begin="zoomminus.mouseover" end="zoomminus.mouseout"/></use>
    <path d="M-4,0h8" fill="none" stroke="white" stroke-width="1.5" pointer-events="none"/>
  </g>
  <g id="arrowUp" transform="translate(30 24)">
    <use xlink:href="#rim"/>
    <path pointer-events="none" fill="none" stroke="white" stroke-width="1.5" d="M0,-3.0v7 M-2.5,-0.5L0,-3.0L2.5,-0.5"/>
  </g>
  <g id="arrowRight" transform="rotate(90) translate(36 -43)">
    <use xlink:href="#rim"/>
    <path pointer-events="none" fill="none" stroke="white" stroke-width="1.5" d="M0,-3.0v7 M-2.5,-0.5L0,-3.0L2.5,-0.5"/>
  </g>
  <g id="arrowDown" transform="rotate(180) translate(-30 -48)">
    <use xlink:href="#rim"/>
    <path pointer-events="none" fill="none" stroke="white" stroke-width="1.5" d="M0,-3.0v7 M-2.5,-0.5L0,-3.0L2.5,-0.5"/>
  </g>
  <g id="arrowLeft" transform="rotate(270) translate(-36 17)">
    <use xlink:href="#rim"/>
    <path pointer-events="none" fill="none" stroke="white" stroke-width="1.5" d="M0,-3.0v7 M-2.5,-0.5L0,-3.0L2.5,-0.5"/>
  </g>
  <g id="resetDef">
    <use xlink:href="#rim2" fill="#404040"><set attributeName="fill" to="#808080" begin="reset.mouseover" end="reset.mouseout"/></use>
  </g>
</defs>
<script type="application/ecmascript">
var viewWidth = 1351;
var viewHeight = 128;
var sectionId = 'dynsection-292';
</script>
<script type="application/ecmascript" xlink:href="svg.min.js"/>
<svg id="graph" class="graph">
<g id="viewport">
<title>editeurpanovisu.EditeurPanovisu.tskChargeListeFichiers</title>
<!-- Node1 -->
<g id="Node000001" class="node">
<title>Node1</title>
<g id="a_Node000001"><a xlink:title=" ">
<polygon fill="#999999" stroke="#666666" points="1343.25,-98 1168.25,-98 1168.25,-66 1343.25,-66 1343.25,-98"/>
<text xml:space="preserve" text-anchor="start" x="1176.25" y="-84.5" font-family="Helvetica,sans-Serif" font-size="10.00">editeurpanovisu.EditeurPanovisu.tsk</text>
<text xml:space="preserve" text-anchor="middle" x="1255.75" y="-72.5" font-family="Helvetica,sans-Serif" font-size="10.00">ChargeListeFichiers</text>
</a>
</g>
</g>
<!-- Node2 -->
<g id="Node000002" class="node">
<title>Node2</title>
<g id="a_Node000002"><a xlink:href="classediteurpanovisu_1_1EditeurPanovisu.html#a924d3ccff3e4f402d2309cd2eade3237" target="_top" xlink:title=" ">
<polygon fill="white" stroke="#666666" points="905.5,-120 683.25,-120 683.25,-88 905.5,-88 905.5,-120"/>
<text xml:space="preserve" text-anchor="start" x="691.25" y="-106.5" font-family="Helvetica,sans-Serif" font-size="10.00">editeurpanovisu.EditeurPanovisu.panoramiques</text>
<text xml:space="preserve" text-anchor="middle" x="794.38" y="-94.5" font-family="Helvetica,sans-Serif" font-size="10.00">Ajouter</text>
</a>
</g>
</g>
<!-- Node1&#45;&gt;Node2 -->
<g id="edge1_Node000001_Node000002" class="edge">
<title>Node1&#45;&gt;Node2</title>
<g id="a_edge1_Node000001_Node000002"><a xlink:title=" ">
<path fill="none" stroke="#63b8ff" d="M1156.7,-86.7C1083.13,-90.22 982.37,-95.04 905.95,-98.7"/>
<polygon fill="#63b8ff" stroke="#63b8ff" points="1156.47,-90.21 1166.29,-86.24 1156.14,-83.22 1156.47,-90.21"/>
</a>
</g>
</g>
<!-- Node5 -->
<g id="Node000005" class="node">
<title>Node5</title>
<g id="a_Node000005"><a xlink:href="classediteurpanovisu_1_1EditeurPanovisu.html#ac9d449399ccd38843fa12e716f0c9611" target="_top" xlink:title=" ">
<polygon fill="white" stroke="#666666" points="1132.25,-76 941.5,-76 941.5,-44 1132.25,-44 1132.25,-76"/>
<text xml:space="preserve" text-anchor="start" x="949.5" y="-62.5" font-family="Helvetica,sans-Serif" font-size="10.00">editeurpanovisu.EditeurPanovisu.projets</text>
<text xml:space="preserve" text-anchor="middle" x="1036.88" y="-50.5" font-family="Helvetica,sans-Serif" font-size="10.00">Nouveau</text>
</a>
</g>
</g>
<!-- Node1&#45;&gt;Node5 -->
<g id="edge4_Node000001_Node000005" class="edge">
<title>Node1&#45;&gt;Node5</title>
<g id="a_edge4_Node000001_Node000005"><a xlink:title=" ">
<path fill="none" stroke="#63b8ff" d="M1156.6,-72.04C1148.65,-71.24 1140.61,-70.42 1132.68,-69.62"/>
<polygon fill="#63b8ff" stroke="#63b8ff" points="1155.98,-75.5 1166.28,-73.03 1156.69,-68.53 1155.98,-75.5"/>
</a>
</g>
</g>
<!-- Node3 -->
<g id="Node000003" class="node">
<title>Node3</title>
<g id="a_Node000003"><a xlink:href="classediteurpanovisu_1_1EditeurPanovisu.html#ac912b80c1f2ac97def60ff005c5c480b" target="_top" xlink:title=" ">
<polygon fill="white" stroke="#666666" points="420.5,-70 216.25,-70 216.25,-50 420.5,-50 420.5,-70"/>
<text xml:space="preserve" text-anchor="middle" x="318.38" y="-56.5" font-family="Helvetica,sans-Serif" font-size="10.00">editeurpanovisu.EditeurPanovisu.creeMenu</text>
</a>
</g>
</g>
<!-- Node2&#45;&gt;Node3 -->
<g id="edge2_Node000002_Node000003" class="edge">
<title>Node2&#45;&gt;Node3</title>
<g id="a_edge2_Node000002_Node000003"><a xlink:title=" ">
<path fill="none" stroke="#63b8ff" d="M671.6,-93.54C607.57,-87.94 527.77,-80.81 456.5,-74 444.83,-72.88 432.6,-71.68 420.46,-70.47"/>
<polygon fill="#63b8ff" stroke="#63b8ff" points="671.19,-97.02 681.46,-94.4 671.8,-90.04 671.19,-97.02"/>
</a>
</g>
</g>
<!-- Node4 -->
<g id="Node000004" class="node">
<title>Node4</title>
<g id="a_Node000004"><a xlink:href="classediteurpanovisu_1_1EditeurPanovisu.html#a86c393eee88f54c694db994ddd85b90d" target="_top" xlink:title=" ">
<polygon fill="white" stroke="#666666" points="180.25,-76 0,-76 0,-44 180.25,-44 180.25,-76"/>
<text xml:space="preserve" text-anchor="start" x="8" y="-62.5" font-family="Helvetica,sans-Serif" font-size="10.00">editeurpanovisu.EditeurPanovisu.cree</text>
<text xml:space="preserve" text-anchor="middle" x="90.12" y="-50.5" font-family="Helvetica,sans-Serif" font-size="10.00">Environnement</text>
</a>
</g>
</g>
<!-- Node3&#45;&gt;Node4 -->
<g id="edge3_Node000003_Node000004" class="edge">
<title>Node3&#45;&gt;Node4</title>
<g id="a_edge3_Node000003_Node000004"><a xlink:title=" ">
<path fill="none" stroke="#63b8ff" d="M204.51,-60C196.49,-60 188.46,-60 180.6,-60"/>
<polygon fill="#63b8ff" stroke="#63b8ff" points="204.32,-63.5 214.32,-60 204.32,-56.5 204.32,-63.5"/>
</a>
</g>
</g>
<!-- Node5&#45;&gt;Node3 -->
<g id="edge5_Node000005_Node000003" class="edge">
<title>Node5&#45;&gt;Node3</title>
<g id="a_edge5_Node000005_Node000003"><a xlink:title=" ">
<path fill="none" stroke="#63b8ff" d="M929.78,-60C792.67,-60 555.61,-60 420.82,-60"/>
<polygon fill="#63b8ff" stroke="#63b8ff" points="929.59,-63.5 939.59,-60 929.59,-56.5 929.59,-63.5"/>
</a>
</g>
</g>
<!-- Node6 -->
<g id="Node000006" class="node">
<title>Node6</title>
<g id="a_Node000006"><a xlink:href="classediteurpanovisu_1_1EditeurPanovisu.html#a2b3125ffe2e6291efacf19df6cb30a8d" target="_top" xlink:title=" ">
<polygon fill="white" stroke="#666666" points="884.88,-29 703.88,-29 703.88,-9 884.88,-9 884.88,-29"/>
<text xml:space="preserve" text-anchor="middle" x="794.38" y="-15.5" font-family="Helvetica,sans-Serif" font-size="10.00">editeurpanovisu.EditeurPanovisu.start</text>
</a>
</g>
</g>
<!-- Node5&#45;&gt;Node6 -->
<g id="edge6_Node000005_Node000006" class="edge">
<title>Node5&#45;&gt;Node6</title>
<g id="a_edge6_Node000005_Node000006"><a xlink:title=" ">
<path fill="none" stroke="#63b8ff" d="M930.1,-41.97C905.02,-37.69 879.09,-33.27 856.75,-29.46"/>
<polygon fill="#63b8ff" stroke="#63b8ff" points="929.23,-45.37 939.68,-43.6 930.41,-38.47 929.23,-45.37"/>
</a>
</g>
</g>
<!-- Node7 -->
<g id="Node000007" class="node">
<title>Node7</title>
<g id="a_Node000007"><a xlink:href="classediteurpanovisu_1_1EditeurPanovisu.html#a94e36b9e9d09ab1a4c852b8a8cefa927" target="_top" xlink:title=" ">
<polygon fill="white" stroke="#666666" points="647.25,-32 456.5,-32 456.5,0 647.25,0 647.25,-32"/>
<text xml:space="preserve" text-anchor="start" x="464.5" y="-18.5" font-family="Helvetica,sans-Serif" font-size="10.00">editeurpanovisu.EditeurPanovisu.genere</text>
<text xml:space="preserve" text-anchor="middle" x="551.88" y="-6.5" font-family="Helvetica,sans-Serif" font-size="10.00">Visite</text>
</a>
</g>
</g>
<!-- Node6&#45;&gt;Node7 -->
<g id="edge7_Node000006_Node000007" class="edge">
<title>Node6&#45;&gt;Node7</title>
<g id="a_edge7_Node000006_Node000007"><a xlink:title=" ">
<path fill="none" stroke="#63b8ff" d="M692.23,-17.74C677.4,-17.55 662.18,-17.36 647.49,-17.18"/>
<polygon fill="#63b8ff" stroke="#63b8ff" points="691.92,-21.23 701.97,-17.86 692.01,-14.24 691.92,-21.23"/>
</a>
</g>
</g>
<!-- Node7&#45;&gt;Node3 -->
<g id="edge8_Node000007_Node000003" class="edge">
<title>Node7&#45;&gt;Node3</title>
<g id="a_edge8_Node000007_Node000003"><a xlink:title=" ">
<path fill="none" stroke="#63b8ff" d="M453.32,-34.54C426.42,-39.65 398.18,-45.02 374.6,-49.5"/>
<polygon fill="#63b8ff" stroke="#63b8ff" points="453.69,-38.03 462.86,-32.73 452.38,-31.16 453.69,-38.03"/>
</a>
</g>
</g>
</g>
</svg>

<g id="navigator" transform="translate(0 0)" fill="#404254">
  <rect fill="#f2f5e9" fill-opacity="0.5" stroke="#606060" stroke-width=".5" x="0" y="0" width="60" height="60"/>
  <use id="zoomplus" xlink:href="#zoomPlus" x="17" y="9" onmousedown="handleZoom(evt,'in')"/>
  <use id="zoomminus" xlink:href="#zoomMin" x="42" y="9" onmousedown="handleZoom(evt,'out')"/>
  <use id="reset" xlink:href="#resetDef" x="30" y="36" onmousedown="handleReset()"/>
   <use id="arrowup" xlink:href="#arrowUp" x="0" y="0" onmousedown="handlePan(0,-1)"/>
  <use id="arrowright" xlink:href="#arrowRight" x="0" y="0" onmousedown="handlePan(1,0)"/>
  <use id="arrowdown" xlink:href="#arrowDown" x="0" y="0" onmousedown="handlePan(0,1)"/>
  <use id="arrowleft" xlink:href="#arrowLeft" x="0" y="0" onmousedown="handlePan(-1,0)"/>
</g>
<svg viewBox="0 0 15 15" width="100%" height="30px" preserveAspectRatio="xMaxYMin meet">
 <g id="arrow_out" transform="scale(0.3 0.3)">
  <a xlink:href="classediteurpanovisu_1_1EditeurPanovisu_a53cccf6a6b2693c872947460b66ae8ee_icgraph_org.svg" target="_base">
   <rect id="button" ry="5" rx="5" y="6" x="6" height="38" width="38"
        fill="#f2f5e9" fill-opacity="0.5" stroke="#606060" stroke-width="1.0"/>
   <path id="arrow"
     d="M 11.500037,31.436501 C 11.940474,20.09759 22.043105,11.32322 32.158766,21.979434 L 37.068811,17.246167 C 37.068811,17.246167 37.088388,32 37.088388,32 L 22.160133,31.978069 C 22.160133,31.978069 26.997745,27.140456 26.997745,27.140456 C 18.528582,18.264221 13.291696,25.230495 11.500037,31.436501 z"
     style="fill:#404040;"/>
  </a>
 </g>
</svg>

<style type='text/css'>
<![CDATA[
[data-mouse-over-selected='false'] { opacity: 0.7; }
[data-mouse-over-selected='true']  { opacity: 1.0; }
]]>
</style>
<script type="application/ecmascript"><![CDATA[
document.addEventListener('DOMContentLoaded', (event) => {
  highlightEdges();
  highlightAdjacentNodes();
});
]]></script>
</svg>
