<?xml version="1.0" encoding="UTF-8" standalone="no"?>
<!DOCTYPE svg PUBLIC "-//W3C//DTD SVG 1.1//EN"
 "http://www.w3.org/Graphics/SVG/1.1/DTD/svg11.dtd">
<!-- Generated by graphviz version 13.1.2 (20250808.2320)
 -->
<!-- Title: editeurpanovisu.GestionnaireDiaporamaController.reInit Pages: 1 -->
<svg width="560pt" height="666pt"
 viewBox="0.00 0.00 560.00 666.00" xmlns="http://www.w3.org/2000/svg" xmlns:xlink="http://www.w3.org/1999/xlink">
<g id="graph0" class="graph" transform="scale(1 1) rotate(0) translate(4 662)">
<title>editeurpanovisu.GestionnaireDiaporamaController.reInit</title>
<!-- Node1 -->
<g id="Node000001" class="node">
<title>Node1</title>
<g id="a_Node000001"><a xlink:title=" ">
<polygon fill="#999999" stroke="#666666" points="142,-357 0,-357 0,-325 142,-325 142,-357"/>
<text xml:space="preserve" text-anchor="start" x="8" y="-343.5" font-family="Helvetica,sans-Serif" font-size="10.00">editeurpanovisu.Gestionnaire</text>
<text xml:space="preserve" text-anchor="middle" x="71" y="-331.5" font-family="Helvetica,sans-Serif" font-size="10.00">DiaporamaController.reInit</text>
</a>
</g>
</g>
<!-- Node2 -->
<g id="Node000002" class="node">
<title>Node2</title>
<g id="a_Node000002"><a xlink:href="classediteurpanovisu_1_1Diaporama.html#a4a87e12d12a24ff7a4930f0c980c9c37" target="_top" xlink:title=" ">
<polygon fill="white" stroke="#666666" points="342.88,-395 182.12,-395 182.12,-375 342.88,-375 342.88,-395"/>
<text xml:space="preserve" text-anchor="middle" x="262.5" y="-381.5" font-family="Helvetica,sans-Serif" font-size="10.00">editeurpanovisu.Diaporama.clone</text>
</a>
</g>
</g>
<!-- Node1&#45;&gt;Node2 -->
<g id="edge1_Node000001_Node000002" class="edge">
<title>Node1&#45;&gt;Node2</title>
<g id="a_edge1_Node000001_Node000002"><a xlink:title=" ">
<path fill="none" stroke="#63b8ff" d="M141.54,-357.48C153.69,-360.34 166.21,-363.27 178,-366 186.45,-367.96 195.39,-370.01 204.15,-372.01"/>
<polygon fill="#63b8ff" stroke="#63b8ff" points="203.11,-375.36 213.63,-374.18 204.66,-368.54 203.11,-375.36"/>
</a>
</g>
</g>
<!-- Node3 -->
<g id="Node000003" class="node">
<title>Node3</title>
<g id="a_Node000003"><a xlink:href="classediteurpanovisu_1_1GestionnaireDiaporamaController.html#ae05b9285b2f87ad3a870c65e0571401b" target="_top" xlink:title=" ">
<polygon fill="white" stroke="#666666" points="346.62,-357 178.38,-357 178.38,-325 346.62,-325 346.62,-357"/>
<text xml:space="preserve" text-anchor="start" x="186.38" y="-343.5" font-family="Helvetica,sans-Serif" font-size="10.00">editeurpanovisu.Gestionnaire</text>
<text xml:space="preserve" text-anchor="middle" x="262.5" y="-331.5" font-family="Helvetica,sans-Serif" font-size="10.00">DiaporamaController.initDiaporama</text>
</a>
</g>
</g>
<!-- Node1&#45;&gt;Node3 -->
<g id="edge2_Node000001_Node000003" class="edge">
<title>Node1&#45;&gt;Node3</title>
<g id="a_edge2_Node000001_Node000003"><a xlink:title=" ">
<path fill="none" stroke="#63b8ff" d="M142.29,-341C150.33,-341 158.62,-341 166.91,-341"/>
<polygon fill="#63b8ff" stroke="#63b8ff" points="166.67,-344.5 176.67,-341 166.67,-337.5 166.67,-344.5"/>
</a>
</g>
</g>
<!-- Node18 -->
<g id="Node000018" class="node">
<title>Node18</title>
<g id="a_Node000018"><a xlink:href="classediteurpanovisu_1_1GestionnaireDiaporamaController.html#a388a313ccf4f48fcdb999eebe20e741b" target="_top" xlink:title=" ">
<polygon fill="white" stroke="#666666" points="347,-307 178,-307 178,-275 347,-275 347,-307"/>
<text xml:space="preserve" text-anchor="start" x="186" y="-293.5" font-family="Helvetica,sans-Serif" font-size="10.00">editeurpanovisu.Gestionnaire</text>
<text xml:space="preserve" text-anchor="middle" x="262.5" y="-281.5" font-family="Helvetica,sans-Serif" font-size="10.00">DiaporamaController.setDiaporama</text>
</a>
</g>
</g>
<!-- Node1&#45;&gt;Node18 -->
<g id="edge17_Node000001_Node000018" class="edge">
<title>Node1&#45;&gt;Node18</title>
<g id="a_edge17_Node000001_Node000018"><a xlink:title=" ">
<path fill="none" stroke="#63b8ff" d="M134.31,-324.56C151.55,-320.01 170.42,-315.03 188.23,-310.33"/>
<polygon fill="#63b8ff" stroke="#63b8ff" points="188.91,-313.77 197.69,-307.84 187.13,-307 188.91,-313.77"/>
</a>
</g>
</g>
<!-- Node4 -->
<g id="Node000004" class="node">
<title>Node4</title>
<g id="a_Node000004"><a xlink:href="classediteurpanovisu_1_1GestionnaireDiaporamaController.html#a4e194804ba3846af066a18b58ba76899" target="_top" xlink:title=" ">
<polygon fill="white" stroke="#666666" points="552,-658 383,-658 383,-626 552,-626 552,-658"/>
<text xml:space="preserve" text-anchor="start" x="391" y="-644.5" font-family="Helvetica,sans-Serif" font-size="10.00">editeurpanovisu.Gestionnaire</text>
<text xml:space="preserve" text-anchor="middle" x="467.5" y="-632.5" font-family="Helvetica,sans-Serif" font-size="10.00">DiaporamaController.getDiaporama</text>
</a>
</g>
</g>
<!-- Node3&#45;&gt;Node4 -->
<g id="edge3_Node000003_Node000004" class="edge">
<title>Node3&#45;&gt;Node4</title>
<g id="a_edge3_Node000003_Node000004"><a xlink:title=" ">
<path fill="none" stroke="#63b8ff" d="M337.27,-357.27C340.85,-359.78 344.14,-362.68 347,-366 420.56,-451.38 309.44,-531.62 383,-617 383.36,-617.42 383.72,-617.82 384.09,-618.23"/>
<polygon fill="#63b8ff" stroke="#63b8ff" points="381.74,-620.82 391.59,-624.74 386.33,-615.54 381.74,-620.82"/>
</a>
</g>
</g>
<!-- Node5 -->
<g id="Node000005" class="node">
<title>Node5</title>
<g id="a_Node000005"><a xlink:href="classediteurpanovisu_1_1Diaporama.html#a4f194556e806da57bc913012a2fec132" target="_top" xlink:title=" ">
<polygon fill="white" stroke="#666666" points="544.12,-608 390.88,-608 390.88,-576 544.12,-576 544.12,-608"/>
<text xml:space="preserve" text-anchor="start" x="398.88" y="-594.5" font-family="Helvetica,sans-Serif" font-size="10.00">editeurpanovisu.Diaporama.geti</text>
<text xml:space="preserve" text-anchor="middle" x="467.5" y="-582.5" font-family="Helvetica,sans-Serif" font-size="10.00">NombreImages</text>
</a>
</g>
</g>
<!-- Node3&#45;&gt;Node5 -->
<g id="edge4_Node000003_Node000005" class="edge">
<title>Node3&#45;&gt;Node5</title>
<g id="a_edge4_Node000003_Node000005"><a xlink:title=" ">
<path fill="none" stroke="#63b8ff" d="M337.14,-357.39C340.75,-359.87 344.08,-362.73 347,-366 407.42,-433.72 322.58,-499.28 383,-567 383.37,-567.41 383.74,-567.81 384.11,-568.21"/>
<polygon fill="#63b8ff" stroke="#63b8ff" points="381.81,-570.85 391.71,-574.64 386.34,-565.5 381.81,-570.85"/>
</a>
</g>
</g>
<!-- Node6 -->
<g id="Node000006" class="node">
<title>Node6</title>
<g id="a_Node000006"><a xlink:href="leaflet_8js.html#a73aff07b65d7c0b09ccf6b4c4f1b7a9d" target="_top" xlink:title=" ">
<polygon fill="white" stroke="#666666" points="481.9,-558 453.1,-558 453.1,-538 481.9,-538 481.9,-558"/>
<text xml:space="preserve" text-anchor="middle" x="467.5" y="-544.5" font-family="Helvetica,sans-Serif" font-size="10.00">i</text>
</a>
</g>
</g>
<!-- Node3&#45;&gt;Node6 -->
<g id="edge5_Node000003_Node000006" class="edge">
<title>Node3&#45;&gt;Node6</title>
<g id="a_edge5_Node000003_Node000006"><a xlink:title=" ">
<path fill="none" stroke="#63b8ff" d="M336.6,-357.27C340.4,-359.78 343.91,-362.67 347,-366 397.5,-420.35 330.71,-476.37 383,-529 398.14,-544.24 422.8,-548.33 441.4,-549"/>
<polygon fill="#63b8ff" stroke="#63b8ff" points="441.33,-552.5 451.34,-549.02 441.34,-545.5 441.33,-552.5"/>
</a>
</g>
</g>
<!-- Node7 -->
<g id="Node000007" class="node">
<title>Node7</title>
<g id="a_Node000007"><a xlink:href="classediteurpanovisu_1_1GestionnaireDiaporamaController.html#a69aa24b60ec648a27dc0fd70f6e716eb" target="_top" xlink:title=" ">
<polygon fill="white" stroke="#666666" points="547.12,-520 387.88,-520 387.88,-488 547.12,-488 547.12,-520"/>
<text xml:space="preserve" text-anchor="start" x="395.88" y="-506.5" font-family="Helvetica,sans-Serif" font-size="10.00">editeurpanovisu.Gestionnaire</text>
<text xml:space="preserve" text-anchor="middle" x="467.5" y="-494.5" font-family="Helvetica,sans-Serif" font-size="10.00">DiaporamaController.isbDisabled</text>
</a>
</g>
</g>
<!-- Node3&#45;&gt;Node7 -->
<g id="edge6_Node000003_Node000007" class="edge">
<title>Node3&#45;&gt;Node7</title>
<g id="a_edge6_Node000003_Node000007"><a xlink:title=" ">
<path fill="none" stroke="#63b8ff" d="M335.87,-357.37C339.89,-359.85 343.65,-362.71 347,-366 384.6,-402.94 345.4,-442.06 383,-479 383.63,-479.62 384.27,-480.22 384.92,-480.8"/>
<polygon fill="#63b8ff" stroke="#63b8ff" points="382.8,-483.58 392.91,-486.73 386.97,-477.96 382.8,-483.58"/>
</a>
</g>
</g>
<!-- Node8 -->
<g id="Node000008" class="node">
<title>Node8</title>
<g id="a_Node000008"><a xlink:href="leaflet_8js.html#abf5830200d869e463ea38504a19985f6" target="_top" xlink:title=" ">
<polygon fill="white" stroke="#666666" points="482.25,-470 452.75,-470 452.75,-450 482.25,-450 482.25,-470"/>
<text xml:space="preserve" text-anchor="middle" x="467.5" y="-456.5" font-family="Helvetica,sans-Serif" font-size="10.00">me</text>
</a>
</g>
</g>
<!-- Node3&#45;&gt;Node8 -->
<g id="edge7_Node000003_Node000008" class="edge">
<title>Node3&#45;&gt;Node8</title>
<g id="a_edge7_Node000003_Node000008"><a xlink:title=" ">
<path fill="none" stroke="#63b8ff" d="M334.55,-357.48C339,-359.93 343.2,-362.76 347,-366 375.11,-390.02 354.1,-417.94 383,-441 399.43,-454.11 423.18,-458.53 441.15,-459.87"/>
<polygon fill="#63b8ff" stroke="#63b8ff" points="440.85,-463.36 451,-460.3 441.16,-456.37 440.85,-463.36"/>
</a>
</g>
</g>
<!-- Node9 -->
<g id="Node000009" class="node">
<title>Node9</title>
<g id="a_Node000009"><a xlink:href="classediteurpanovisu_1_1BigDecimalField.html#a2ddb75ec2e1d79bb0a984366df7f3f43" target="_top" xlink:title="Obtient la propriété du nombre.">
<polygon fill="white" stroke="#666666" points="536.25,-432 398.75,-432 398.75,-400 536.25,-400 536.25,-432"/>
<text xml:space="preserve" text-anchor="start" x="406.75" y="-418.5" font-family="Helvetica,sans-Serif" font-size="10.00">editeurpanovisu.BigDecimal</text>
<text xml:space="preserve" text-anchor="middle" x="467.5" y="-406.5" font-family="Helvetica,sans-Serif" font-size="10.00">Field.numberProperty</text>
</a>
</g>
</g>
<!-- Node3&#45;&gt;Node9 -->
<g id="edge8_Node000003_Node000009" class="edge">
<title>Node3&#45;&gt;Node9</title>
<g id="a_edge8_Node000003_Node000009"><a xlink:title=" ">
<path fill="none" stroke="#63b8ff" d="M326.33,-357.45C333.43,-360 340.46,-362.85 347,-366 364.55,-374.45 365.45,-382.55 383,-391 386.27,-392.58 389.66,-394.08 393.13,-395.5"/>
<polygon fill="#63b8ff" stroke="#63b8ff" points="391.66,-398.69 402.25,-399.01 394.17,-392.15 391.66,-398.69"/>
</a>
</g>
</g>
<!-- Node10 -->
<g id="Node000010" class="node">
<title>Node10</title>
<g id="a_Node000010"><a xlink:href="classediteurpanovisu_1_1Diaporama.html#a7be609880a2af991670add24d218cd72" target="_top" xlink:title=" ">
<polygon fill="white" stroke="#666666" points="543,-382 392,-382 392,-350 543,-350 543,-382"/>
<text xml:space="preserve" text-anchor="start" x="400" y="-368.5" font-family="Helvetica,sans-Serif" font-size="10.00">editeurpanovisu.Diaporama.set</text>
<text xml:space="preserve" text-anchor="middle" x="467.5" y="-356.5" font-family="Helvetica,sans-Serif" font-size="10.00">DelaiDiaporama</text>
</a>
</g>
</g>
<!-- Node3&#45;&gt;Node10 -->
<g id="edge9_Node000003_Node000010" class="edge">
<title>Node3&#45;&gt;Node10</title>
<g id="a_edge9_Node000003_Node000010"><a xlink:title=" ">
<path fill="none" stroke="#63b8ff" d="M346.95,-351.28C357.9,-352.63 369.15,-354.01 380.15,-355.37"/>
<polygon fill="#63b8ff" stroke="#63b8ff" points="379.66,-358.83 390.01,-356.58 380.51,-351.88 379.66,-358.83"/>
</a>
</g>
</g>
<!-- Node11 -->
<g id="Node000011" class="node">
<title>Node11</title>
<g id="a_Node000011"><a xlink:href="classediteurpanovisu_1_1Diaporama.html#ac4935db8198282a699f95a8de3e60976" target="_top" xlink:title=" ">
<polygon fill="white" stroke="#666666" points="544.12,-332 390.88,-332 390.88,-300 544.12,-300 544.12,-332"/>
<text xml:space="preserve" text-anchor="start" x="398.88" y="-318.5" font-family="Helvetica,sans-Serif" font-size="10.00">editeurpanovisu.Diaporama.seti</text>
<text xml:space="preserve" text-anchor="middle" x="467.5" y="-306.5" font-family="Helvetica,sans-Serif" font-size="10.00">NombreImages</text>
</a>
</g>
</g>
<!-- Node3&#45;&gt;Node11 -->
<g id="edge10_Node000003_Node000011" class="edge">
<title>Node3&#45;&gt;Node11</title>
<g id="a_edge10_Node000003_Node000011"><a xlink:title=" ">
<path fill="none" stroke="#63b8ff" d="M346.95,-330.72C357.66,-329.4 368.65,-328.05 379.42,-326.72"/>
<polygon fill="#63b8ff" stroke="#63b8ff" points="379.54,-330.24 389.04,-325.54 378.69,-323.29 379.54,-330.24"/>
</a>
</g>
</g>
<!-- Node12 -->
<g id="Node000012" class="node">
<title>Node12</title>
<g id="a_Node000012"><a xlink:href="classediteurpanovisu_1_1BigDecimalField.html#adc2700ac44fad89e58019ce2b13206c9" target="_top" xlink:title="Définit la valeur BigDecimal.">
<polygon fill="white" stroke="#666666" points="536.25,-282 398.75,-282 398.75,-250 536.25,-250 536.25,-282"/>
<text xml:space="preserve" text-anchor="start" x="406.75" y="-268.5" font-family="Helvetica,sans-Serif" font-size="10.00">editeurpanovisu.BigDecimal</text>
<text xml:space="preserve" text-anchor="middle" x="467.5" y="-256.5" font-family="Helvetica,sans-Serif" font-size="10.00">Field.setNumber</text>
</a>
</g>
</g>
<!-- Node3&#45;&gt;Node12 -->
<g id="edge11_Node000003_Node000012" class="edge">
<title>Node3&#45;&gt;Node12</title>
<g id="a_edge11_Node000003_Node000012"><a xlink:title=" ">
<path fill="none" stroke="#63b8ff" d="M326.33,-324.55C333.43,-322 340.46,-319.15 347,-316 364.55,-307.55 365.45,-299.45 383,-291 386.27,-289.42 389.66,-287.92 393.13,-286.5"/>
<polygon fill="#63b8ff" stroke="#63b8ff" points="394.17,-289.85 402.25,-282.99 391.66,-283.31 394.17,-289.85"/>
</a>
</g>
</g>
<!-- Node13 -->
<g id="Node000013" class="node">
<title>Node13</title>
<g id="a_Node000013"><a xlink:href="classediteurpanovisu_1_1Diaporama.html#ae1c21fcc3a2624c22fb8ebca4bd678ac" target="_top" xlink:title=" ">
<polygon fill="white" stroke="#666666" points="543,-232 392,-232 392,-200 543,-200 543,-232"/>
<text xml:space="preserve" text-anchor="start" x="400" y="-218.5" font-family="Helvetica,sans-Serif" font-size="10.00">editeurpanovisu.Diaporama.set</text>
<text xml:space="preserve" text-anchor="middle" x="467.5" y="-206.5" font-family="Helvetica,sans-Serif" font-size="10.00">OpaciteDiaporama</text>
</a>
</g>
</g>
<!-- Node3&#45;&gt;Node13 -->
<g id="edge12_Node000003_Node000013" class="edge">
<title>Node3&#45;&gt;Node13</title>
<g id="a_edge12_Node000003_Node000013"><a xlink:title=" ">
<path fill="none" stroke="#63b8ff" d="M334.55,-324.52C339,-322.07 343.2,-319.24 347,-316 375.11,-291.98 354.89,-265.02 383,-241 383.95,-240.19 384.92,-239.4 385.92,-238.65"/>
<polygon fill="#63b8ff" stroke="#63b8ff" points="387.69,-241.67 394.18,-233.3 383.88,-235.8 387.69,-241.67"/>
</a>
</g>
</g>
<!-- Node14 -->
<g id="Node000014" class="node">
<title>Node14</title>
<g id="a_Node000014"><a xlink:href="classediteurpanovisu_1_1Diaporama.html#a4080ce2ce59c7875e6dee4c0974a6332" target="_top" xlink:title=" ">
<polygon fill="white" stroke="#666666" points="543,-182 392,-182 392,-150 543,-150 543,-182"/>
<text xml:space="preserve" text-anchor="start" x="400" y="-168.5" font-family="Helvetica,sans-Serif" font-size="10.00">editeurpanovisu.Diaporama.set</text>
<text xml:space="preserve" text-anchor="middle" x="467.5" y="-156.5" font-family="Helvetica,sans-Serif" font-size="10.00">StrCouleurFondDiaporama</text>
</a>
</g>
</g>
<!-- Node3&#45;&gt;Node14 -->
<g id="edge13_Node000003_Node000014" class="edge">
<title>Node3&#45;&gt;Node14</title>
<g id="a_edge13_Node000003_Node000014"><a xlink:title=" ">
<path fill="none" stroke="#63b8ff" d="M335.98,-324.74C339.98,-322.23 343.7,-319.33 347,-316 387.67,-274.91 342.33,-232.09 383,-191 383.62,-190.37 384.25,-189.77 384.9,-189.17"/>
<polygon fill="#63b8ff" stroke="#63b8ff" points="386.96,-192 392.82,-183.18 382.73,-186.42 386.96,-192"/>
</a>
</g>
</g>
<!-- Node15 -->
<g id="Node000015" class="node">
<title>Node15</title>
<g id="a_Node000015"><a xlink:href="classediteurpanovisu_1_1Diaporama.html#ab07d44144b22518b0c3569444f5a1ab2" target="_top" xlink:title=" ">
<polygon fill="white" stroke="#666666" points="543,-132 392,-132 392,-100 543,-100 543,-132"/>
<text xml:space="preserve" text-anchor="start" x="400" y="-118.5" font-family="Helvetica,sans-Serif" font-size="10.00">editeurpanovisu.Diaporama.set</text>
<text xml:space="preserve" text-anchor="middle" x="467.5" y="-106.5" font-family="Helvetica,sans-Serif" font-size="10.00">StrFichiers</text>
</a>
</g>
</g>
<!-- Node3&#45;&gt;Node15 -->
<g id="edge14_Node000003_Node000015" class="edge">
<title>Node3&#45;&gt;Node15</title>
<g id="a_edge14_Node000003_Node000015"><a xlink:title=" ">
<path fill="none" stroke="#63b8ff" d="M337.04,-324.52C340.67,-322.06 344.04,-319.24 347,-316 400.62,-257.44 329.38,-199.56 383,-141 383.37,-140.6 383.75,-140.2 384.13,-139.81"/>
<polygon fill="#63b8ff" stroke="#63b8ff" points="386.34,-142.52 391.8,-133.44 381.87,-137.14 386.34,-142.52"/>
</a>
</g>
</g>
<!-- Node16 -->
<g id="Node000016" class="node">
<title>Node16</title>
<g id="a_Node000016"><a xlink:href="classediteurpanovisu_1_1Diaporama.html#a08cc1de302348877469f8c123cb57f14" target="_top" xlink:title=" ">
<polygon fill="white" stroke="#666666" points="543,-82 392,-82 392,-50 543,-50 543,-82"/>
<text xml:space="preserve" text-anchor="start" x="400" y="-68.5" font-family="Helvetica,sans-Serif" font-size="10.00">editeurpanovisu.Diaporama.set</text>
<text xml:space="preserve" text-anchor="middle" x="467.5" y="-56.5" font-family="Helvetica,sans-Serif" font-size="10.00">StrFichiersImage</text>
</a>
</g>
</g>
<!-- Node3&#45;&gt;Node16 -->
<g id="edge15_Node000003_Node000016" class="edge">
<title>Node3&#45;&gt;Node16</title>
<g id="a_edge15_Node000003_Node000016"><a xlink:title=" ">
<path fill="none" stroke="#63b8ff" d="M337.21,-324.68C340.8,-322.18 344.11,-319.3 347,-316 413.72,-239.81 316.28,-167.19 383,-91 383.36,-90.59 383.73,-90.18 384.1,-89.78"/>
<polygon fill="#63b8ff" stroke="#63b8ff" points="386.34,-92.48 391.64,-83.31 381.78,-87.17 386.34,-92.48"/>
</a>
</g>
</g>
<!-- Node17 -->
<g id="Node000017" class="node">
<title>Node17</title>
<g id="a_Node000017"><a xlink:href="classediteurpanovisu_1_1Diaporama.html#a92471ddae41d8fdb9a63eeb665b8f0ae" target="_top" xlink:title=" ">
<polygon fill="white" stroke="#666666" points="543,-32 392,-32 392,0 543,0 543,-32"/>
<text xml:space="preserve" text-anchor="start" x="400" y="-18.5" font-family="Helvetica,sans-Serif" font-size="10.00">editeurpanovisu.Diaporama.set</text>
<text xml:space="preserve" text-anchor="middle" x="467.5" y="-6.5" font-family="Helvetica,sans-Serif" font-size="10.00">StrLibellesImages</text>
</a>
</g>
</g>
<!-- Node3&#45;&gt;Node17 -->
<g id="edge16_Node000003_Node000017" class="edge">
<title>Node3&#45;&gt;Node17</title>
<g id="a_edge16_Node000003_Node000017"><a xlink:title=" ">
<path fill="none" stroke="#63b8ff" d="M337.69,-324.51C341.11,-322.05 344.25,-319.23 347,-316 426.88,-222.12 303.12,-134.88 383,-41 383.26,-40.7 383.52,-40.4 383.78,-40.1"/>
<polygon fill="#63b8ff" stroke="#63b8ff" points="386.05,-42.77 391.18,-33.5 381.39,-37.55 386.05,-42.77"/>
</a>
</g>
</g>
</g>
</svg>
