<?xml version="1.0" encoding="UTF-8" standalone="no"?>
<!DOCTYPE svg PUBLIC "-//W3C//DTD SVG 1.1//EN"
 "http://www.w3.org/Graphics/SVG/1.1/DTD/svg11.dtd">
<!-- Generated by graphviz version 13.1.2 (20250808.2320)
 -->
<!-- Title: editeurpanovisu.OpenRouterClient.OpenRouterClient Pages: 1 -->
<!--zoomable 99 -->

<svg id="main" version="1.1" xmlns="http://www.w3.org/2000/svg" xmlns:xlink="http://www.w3.org/1999/xlink" xml:space="preserve" onload="init(evt)">

<style type="text/css"><![CDATA[
.node, .edge {opacity: 0.7;}
.node.selected, .edge.selected {opacity: 1;}
.edge:hover path { stroke: red; }
.edge:hover polygon { stroke: red; fill: red; }
]]></style>

<defs>
  <circle id="rim" cx="0" cy="0" r="7"/>
  <circle id="rim2" cx="0" cy="0" r="3.5"/>
  <g id="zoomPlus">
    <use xlink:href="#rim" fill="#404040"><set attributeName="fill" to="#808080" begin="zoomplus.mouseover" end="zoomplus.mouseout"/></use>
    <path d="M-4,0h8M0,-4v8" fill="none" stroke="white" stroke-width="1.5" pointer-events="none"/>
  </g>
  <g id="zoomMin">
    <use xlink:href="#rim" fill="#404040"><set attributeName="fill" to="#808080" begin="zoomminus.mouseover" end="zoomminus.mouseout"/></use>
    <path d="M-4,0h8" fill="none" stroke="white" stroke-width="1.5" pointer-events="none"/>
  </g>
  <g id="arrowUp" transform="translate(30 24)">
    <use xlink:href="#rim"/>
    <path pointer-events="none" fill="none" stroke="white" stroke-width="1.5" d="M0,-3.0v7 M-2.5,-0.5L0,-3.0L2.5,-0.5"/>
  </g>
  <g id="arrowRight" transform="rotate(90) translate(36 -43)">
    <use xlink:href="#rim"/>
    <path pointer-events="none" fill="none" stroke="white" stroke-width="1.5" d="M0,-3.0v7 M-2.5,-0.5L0,-3.0L2.5,-0.5"/>
  </g>
  <g id="arrowDown" transform="rotate(180) translate(-30 -48)">
    <use xlink:href="#rim"/>
    <path pointer-events="none" fill="none" stroke="white" stroke-width="1.5" d="M0,-3.0v7 M-2.5,-0.5L0,-3.0L2.5,-0.5"/>
  </g>
  <g id="arrowLeft" transform="rotate(270) translate(-36 17)">
    <use xlink:href="#rim"/>
    <path pointer-events="none" fill="none" stroke="white" stroke-width="1.5" d="M0,-3.0v7 M-2.5,-0.5L0,-3.0L2.5,-0.5"/>
  </g>
  <g id="resetDef">
    <use xlink:href="#rim2" fill="#404040"><set attributeName="fill" to="#808080" begin="reset.mouseover" end="reset.mouseout"/></use>
  </g>
</defs>
<script type="application/ecmascript">
var viewWidth = 770;
var viewHeight = 99;
var sectionId = 'dynsection-1';
</script>
<script type="application/ecmascript" xlink:href="svg.min.js"/>
<svg id="graph" class="graph">
<g id="viewport">
<title>editeurpanovisu.OpenRouterClient.OpenRouterClient</title>
<!-- Node1 -->
<g id="Node000001" class="node">
<title>Node1</title>
<g id="a_Node000001"><a xlink:title="Constructeur avec configuration automatique depuis ApiKeysConfig.">
<polygon fill="#999999" stroke="#666666" points="139.75,-76 0,-76 0,-44 139.75,-44 139.75,-76"/>
<text xml:space="preserve" text-anchor="start" x="8" y="-62.5" font-family="Helvetica,sans-Serif" font-size="10.00">editeurpanovisu.OpenRouter</text>
<text xml:space="preserve" text-anchor="middle" x="69.88" y="-50.5" font-family="Helvetica,sans-Serif" font-size="10.00">Client.OpenRouterClient</text>
</a>
</g>
</g>
<!-- Node2 -->
<g id="Node000002" class="node">
<title>Node2</title>
<g id="a_Node000002"><a xlink:href="classediteurpanovisu_1_1ApiKeysConfig.html#af9241a594f0e5419b8d0f8b338e38ae9" target="_top" xlink:title="Récupère la clé API OpenRouter.">
<polygon fill="white" stroke="#666666" points="552,-82 383,-82 383,-50 552,-50 552,-82"/>
<text xml:space="preserve" text-anchor="start" x="391" y="-68.5" font-family="Helvetica,sans-Serif" font-size="10.00">editeurpanovisu.ApiKeysConfig.get</text>
<text xml:space="preserve" text-anchor="middle" x="467.5" y="-56.5" font-family="Helvetica,sans-Serif" font-size="10.00">OpenRouterApiKey</text>
</a>
</g>
</g>
<!-- Node1&#45;&gt;Node2 -->
<g id="edge1_Node000001_Node000002" class="edge">
<title>Node1&#45;&gt;Node2</title>
<g id="a_edge1_Node000001_Node000002"><a xlink:title=" ">
<path fill="none" stroke="#63b8ff" d="M129.24,-76.46C144.27,-80 160.51,-83.21 175.75,-85 251.34,-93.89 271.13,-90.99 347,-85 354.99,-84.37 363.25,-83.5 371.53,-82.49"/>
<polygon fill="#63b8ff" stroke="#63b8ff" points="371.84,-85.98 381.3,-81.21 370.93,-79.04 371.84,-85.98"/>
</a>
</g>
</g>
<!-- Node4 -->
<g id="Node000004" class="node">
<title>Node4</title>
<g id="a_Node000004"><a xlink:href="classediteurpanovisu_1_1ApiKeysConfig.html#a07437012271cfa9737d8b07351e80c2a" target="_top" xlink:title="Récupère le modèle OpenRouter configuré">
<polygon fill="white" stroke="#666666" points="552,-32 383,-32 383,0 552,0 552,-32"/>
<text xml:space="preserve" text-anchor="start" x="391" y="-18.5" font-family="Helvetica,sans-Serif" font-size="10.00">editeurpanovisu.ApiKeysConfig.get</text>
<text xml:space="preserve" text-anchor="middle" x="467.5" y="-6.5" font-family="Helvetica,sans-Serif" font-size="10.00">OpenRouterModel</text>
</a>
</g>
</g>
<!-- Node1&#45;&gt;Node4 -->
<g id="edge3_Node000001_Node000004" class="edge">
<title>Node1&#45;&gt;Node4</title>
<g id="a_edge3_Node000001_Node000004"><a xlink:title=" ">
<path fill="none" stroke="#63b8ff" d="M132.37,-43.51C146.53,-40.23 161.59,-37.13 175.75,-35 240.7,-25.21 314.56,-20.46 371.58,-18.16"/>
<polygon fill="#63b8ff" stroke="#63b8ff" points="371.39,-21.67 381.24,-17.79 371.12,-14.68 371.39,-21.67"/>
</a>
</g>
</g>
<!-- Node5 -->
<g id="Node000005" class="node">
<title>Node5</title>
<g id="a_Node000005"><a xlink:href="classediteurpanovisu_1_1ApiKeysConfig.html#afa2de8aa5827534e73f956a567462ea8" target="_top" xlink:title="Vérifie si une clé API OpenRouter est configurée.">
<polygon fill="white" stroke="#666666" points="347,-76 175.75,-76 175.75,-44 347,-44 347,-76"/>
<text xml:space="preserve" text-anchor="start" x="183.75" y="-62.5" font-family="Helvetica,sans-Serif" font-size="10.00">editeurpanovisu.ApiKeysConfig.has</text>
<text xml:space="preserve" text-anchor="middle" x="261.38" y="-50.5" font-family="Helvetica,sans-Serif" font-size="10.00">OpenRouterApiKey</text>
</a>
</g>
</g>
<!-- Node1&#45;&gt;Node5 -->
<g id="edge5_Node000001_Node000005" class="edge">
<title>Node1&#45;&gt;Node5</title>
<g id="a_edge5_Node000001_Node000005"><a xlink:title=" ">
<path fill="none" stroke="#63b8ff" d="M140.09,-60C147.93,-60 156.01,-60 164.11,-60"/>
<polygon fill="#63b8ff" stroke="#63b8ff" points="164.03,-63.5 174.03,-60 164.03,-56.5 164.03,-63.5"/>
</a>
</g>
</g>
<!-- Node3 -->
<g id="Node000003" class="node">
<title>Node3</title>
<g id="a_Node000003"><a xlink:href="classediteurpanovisu_1_1ApiKeysConfig.html#a7babcdd2b84a59ec6088d85c66d00551" target="_top" xlink:title="Charge le fichier de configuration des clés API.">
<polygon fill="white" stroke="#666666" points="761.5,-57 588,-57 588,-25 761.5,-25 761.5,-57"/>
<text xml:space="preserve" text-anchor="start" x="596" y="-43.5" font-family="Helvetica,sans-Serif" font-size="10.00">editeurpanovisu.ApiKeysConfig.load</text>
<text xml:space="preserve" text-anchor="middle" x="674.75" y="-31.5" font-family="Helvetica,sans-Serif" font-size="10.00">Properties</text>
</a>
</g>
</g>
<!-- Node2&#45;&gt;Node3 -->
<g id="edge2_Node000002_Node000003" class="edge">
<title>Node2&#45;&gt;Node3</title>
<g id="a_edge2_Node000002_Node000003"><a xlink:title=" ">
<path fill="none" stroke="#63b8ff" d="M552.28,-55.8C560.19,-54.83 568.26,-53.85 576.28,-52.87"/>
<polygon fill="#63b8ff" stroke="#63b8ff" points="576.57,-56.36 586.07,-51.68 575.72,-49.41 576.57,-56.36"/>
</a>
</g>
</g>
<!-- Node4&#45;&gt;Node3 -->
<g id="edge4_Node000004_Node000003" class="edge">
<title>Node4&#45;&gt;Node3</title>
<g id="a_edge4_Node000004_Node000003"><a xlink:title=" ">
<path fill="none" stroke="#63b8ff" d="M552.28,-26.2C560.19,-27.17 568.26,-28.15 576.28,-29.13"/>
<polygon fill="#63b8ff" stroke="#63b8ff" points="575.72,-32.59 586.07,-30.32 576.57,-25.64 575.72,-32.59"/>
</a>
</g>
</g>
<!-- Node5&#45;&gt;Node2 -->
<g id="edge6_Node000005_Node000002" class="edge">
<title>Node5&#45;&gt;Node2</title>
<g id="a_edge6_Node000005_Node000002"><a xlink:title=" ">
<path fill="none" stroke="#63b8ff" d="M347.46,-62.5C355.26,-62.73 363.18,-62.96 371.06,-63.19"/>
<polygon fill="#63b8ff" stroke="#63b8ff" points="370.92,-66.69 381.02,-63.49 371.13,-59.7 370.92,-66.69"/>
</a>
</g>
</g>
</g>
</svg>

<g id="navigator" transform="translate(0 0)" fill="#404254">
  <rect fill="#f2f5e9" fill-opacity="0.5" stroke="#606060" stroke-width=".5" x="0" y="0" width="60" height="60"/>
  <use id="zoomplus" xlink:href="#zoomPlus" x="17" y="9" onmousedown="handleZoom(evt,'in')"/>
  <use id="zoomminus" xlink:href="#zoomMin" x="42" y="9" onmousedown="handleZoom(evt,'out')"/>
  <use id="reset" xlink:href="#resetDef" x="30" y="36" onmousedown="handleReset()"/>
   <use id="arrowup" xlink:href="#arrowUp" x="0" y="0" onmousedown="handlePan(0,-1)"/>
  <use id="arrowright" xlink:href="#arrowRight" x="0" y="0" onmousedown="handlePan(1,0)"/>
  <use id="arrowdown" xlink:href="#arrowDown" x="0" y="0" onmousedown="handlePan(0,1)"/>
  <use id="arrowleft" xlink:href="#arrowLeft" x="0" y="0" onmousedown="handlePan(-1,0)"/>
</g>
<svg viewBox="0 0 15 15" width="100%" height="30px" preserveAspectRatio="xMaxYMin meet">
 <g id="arrow_out" transform="scale(0.3 0.3)">
  <a xlink:href="classediteurpanovisu_1_1OpenRouterClient_ac1e3fb7991baac81be8ab3cd7116f2a7_cgraph_org.svg" target="_base">
   <rect id="button" ry="5" rx="5" y="6" x="6" height="38" width="38"
        fill="#f2f5e9" fill-opacity="0.5" stroke="#606060" stroke-width="1.0"/>
   <path id="arrow"
     d="M 11.500037,31.436501 C 11.940474,20.09759 22.043105,11.32322 32.158766,21.979434 L 37.068811,17.246167 C 37.068811,17.246167 37.088388,32 37.088388,32 L 22.160133,31.978069 C 22.160133,31.978069 26.997745,27.140456 26.997745,27.140456 C 18.528582,18.264221 13.291696,25.230495 11.500037,31.436501 z"
     style="fill:#404040;"/>
  </a>
 </g>
</svg>

<style type='text/css'>
<![CDATA[
[data-mouse-over-selected='false'] { opacity: 0.7; }
[data-mouse-over-selected='true']  { opacity: 1.0; }
]]>
</style>
<script type="application/ecmascript"><![CDATA[
document.addEventListener('DOMContentLoaded', (event) => {
  highlightEdges();
  highlightAdjacentNodes();
});
]]></script>
</svg>
