<?xml version="1.0" encoding="UTF-8" standalone="no"?>
<!DOCTYPE svg PUBLIC "-//W3C//DTD SVG 1.1//EN"
 "http://www.w3.org/Graphics/SVG/1.1/DTD/svg11.dtd">
<!-- Generated by graphviz version 13.1.2 (20250808.2320)
 -->
<!-- Title: editeurpanovisu.GestionnaireInterfaceController.afficheFenetreInfo Pages: 1 -->
<svg width="411pt" height="624pt"
 viewBox="0.00 0.00 411.00 624.00" xmlns="http://www.w3.org/2000/svg" xmlns:xlink="http://www.w3.org/1999/xlink">
<g id="graph0" class="graph" transform="scale(1 1) rotate(0) translate(4 620)">
<title>editeurpanovisu.GestionnaireInterfaceController.afficheFenetreInfo</title>
<!-- Node1 -->
<g id="Node000001" class="node">
<title>Node1</title>
<g id="a_Node000001"><a xlink:title=" ">
<polygon fill="#999999" stroke="#666666" points="177.25,-330 0,-330 0,-298 177.25,-298 177.25,-330"/>
<text xml:space="preserve" text-anchor="start" x="8" y="-316.5" font-family="Helvetica,sans-Serif" font-size="10.00">editeurpanovisu.Gestionnaire</text>
<text xml:space="preserve" text-anchor="middle" x="88.62" y="-304.5" font-family="Helvetica,sans-Serif" font-size="10.00">InterfaceController.afficheFenetreInfo</text>
</a>
</g>
</g>
<!-- Node2 -->
<g id="Node000002" class="node">
<title>Node2</title>
<g id="a_Node000002"><a xlink:href="classediteurpanovisu_1_1GestionnaireInterfaceController.html#a1728eae2ff7a3e9e1bcc79df0649d7a7" target="_top" xlink:title=" ">
<polygon fill="white" stroke="#666666" points="389.38,-616 227.12,-616 227.12,-572 389.38,-572 389.38,-616"/>
<text xml:space="preserve" text-anchor="start" x="235.12" y="-602.5" font-family="Helvetica,sans-Serif" font-size="10.00">editeurpanovisu.Gestionnaire</text>
<text xml:space="preserve" text-anchor="start" x="235.12" y="-590.5" font-family="Helvetica,sans-Serif" font-size="10.00">InterfaceController.getFenetreInfo</text>
<text xml:space="preserve" text-anchor="middle" x="308.25" y="-578.5" font-family="Helvetica,sans-Serif" font-size="10.00">Opacite</text>
</a>
</g>
</g>
<!-- Node1&#45;&gt;Node2 -->
<g id="edge1_Node000001_Node000002" class="edge">
<title>Node1&#45;&gt;Node2</title>
<g id="a_edge1_Node000001_Node000002"><a xlink:title=" ">
<path fill="none" stroke="#63b8ff" d="M93.11,-330.36C103.36,-374.55 137.58,-497.4 213.25,-563 214.55,-564.13 215.89,-565.21 217.27,-566.26"/>
<polygon fill="#63b8ff" stroke="#63b8ff" points="215.3,-569.15 225.57,-571.77 219.17,-563.32 215.3,-569.15"/>
</a>
</g>
</g>
<!-- Node3 -->
<g id="Node000003" class="node">
<title>Node3</title>
<g id="a_Node000003"><a xlink:href="classediteurpanovisu_1_1GestionnaireInterfaceController.html#ae05e346ae672d61111dbf5c857397e4e" target="_top" xlink:title=" ">
<polygon fill="white" stroke="#666666" points="401.38,-554 215.12,-554 215.12,-522 401.38,-522 401.38,-554"/>
<text xml:space="preserve" text-anchor="start" x="223.12" y="-540.5" font-family="Helvetica,sans-Serif" font-size="10.00">editeurpanovisu.Gestionnaire</text>
<text xml:space="preserve" text-anchor="middle" x="308.25" y="-528.5" font-family="Helvetica,sans-Serif" font-size="10.00">InterfaceController.getFenetreInfoPosX</text>
</a>
</g>
</g>
<!-- Node1&#45;&gt;Node3 -->
<g id="edge2_Node000001_Node000003" class="edge">
<title>Node1&#45;&gt;Node3</title>
<g id="a_edge2_Node000001_Node000003"><a xlink:title=" ">
<path fill="none" stroke="#63b8ff" d="M94.99,-330.3C108.42,-368.47 147.22,-464.11 213.25,-513 214.79,-514.14 216.38,-515.23 218.01,-516.27"/>
<polygon fill="#63b8ff" stroke="#63b8ff" points="215.97,-519.14 226.41,-520.95 219.38,-513.02 215.97,-519.14"/>
</a>
</g>
</g>
<!-- Node4 -->
<g id="Node000004" class="node">
<title>Node4</title>
<g id="a_Node000004"><a xlink:href="classediteurpanovisu_1_1GestionnaireInterfaceController.html#ae69bca560d06fa54535f29dc402b9677" target="_top" xlink:title=" ">
<polygon fill="white" stroke="#666666" points="401.38,-504 215.12,-504 215.12,-472 401.38,-472 401.38,-504"/>
<text xml:space="preserve" text-anchor="start" x="223.12" y="-490.5" font-family="Helvetica,sans-Serif" font-size="10.00">editeurpanovisu.Gestionnaire</text>
<text xml:space="preserve" text-anchor="middle" x="308.25" y="-478.5" font-family="Helvetica,sans-Serif" font-size="10.00">InterfaceController.getFenetreInfoPosY</text>
</a>
</g>
</g>
<!-- Node1&#45;&gt;Node4 -->
<g id="edge3_Node000001_Node000004" class="edge">
<title>Node1&#45;&gt;Node4</title>
<g id="a_edge3_Node000001_Node000004"><a xlink:title=" ">
<path fill="none" stroke="#63b8ff" d="M98.47,-330.28C116.09,-361.11 158.6,-428.04 213.25,-463 215.25,-464.28 217.31,-465.49 219.43,-466.65"/>
<polygon fill="#63b8ff" stroke="#63b8ff" points="217.76,-469.73 228.29,-470.94 220.82,-463.43 217.76,-469.73"/>
</a>
</g>
</g>
<!-- Node5 -->
<g id="Node000005" class="node">
<title>Node5</title>
<g id="a_Node000005"><a xlink:href="classediteurpanovisu_1_1GestionnaireInterfaceController.html#a0c615f1d82590ada2b3502399fbdd99e" target="_top" xlink:title=" ">
<polygon fill="white" stroke="#666666" points="389.38,-454 227.12,-454 227.12,-410 389.38,-410 389.38,-454"/>
<text xml:space="preserve" text-anchor="start" x="235.12" y="-440.5" font-family="Helvetica,sans-Serif" font-size="10.00">editeurpanovisu.Gestionnaire</text>
<text xml:space="preserve" text-anchor="start" x="235.12" y="-428.5" font-family="Helvetica,sans-Serif" font-size="10.00">InterfaceController.getFenetreInfo</text>
<text xml:space="preserve" text-anchor="middle" x="308.25" y="-416.5" font-family="Helvetica,sans-Serif" font-size="10.00">Taille</text>
</a>
</g>
</g>
<!-- Node1&#45;&gt;Node5 -->
<g id="edge4_Node000001_Node000005" class="edge">
<title>Node1&#45;&gt;Node5</title>
<g id="a_edge4_Node000001_Node000005"><a xlink:title=" ">
<path fill="none" stroke="#63b8ff" d="M109.02,-330.41C132.44,-349.54 173.62,-381.08 213.25,-401 216.13,-402.45 219.09,-403.85 222.11,-405.2"/>
<polygon fill="#63b8ff" stroke="#63b8ff" points="220.57,-408.35 231.14,-409.04 223.3,-401.91 220.57,-408.35"/>
</a>
</g>
</g>
<!-- Node6 -->
<g id="Node000006" class="node">
<title>Node6</title>
<g id="a_Node000006"><a xlink:href="classediteurpanovisu_1_1GestionnaireInterfaceController.html#a4a55990259bcb3f042a76cf34f62ca80" target="_top" xlink:title=" ">
<polygon fill="white" stroke="#666666" points="394.62,-392 221.88,-392 221.88,-348 394.62,-348 394.62,-392"/>
<text xml:space="preserve" text-anchor="start" x="229.88" y="-378.5" font-family="Helvetica,sans-Serif" font-size="10.00">editeurpanovisu.Gestionnaire</text>
<text xml:space="preserve" text-anchor="start" x="229.88" y="-366.5" font-family="Helvetica,sans-Serif" font-size="10.00">InterfaceController.getFenetrePolice</text>
<text xml:space="preserve" text-anchor="middle" x="308.25" y="-354.5" font-family="Helvetica,sans-Serif" font-size="10.00">Taille</text>
</a>
</g>
</g>
<!-- Node1&#45;&gt;Node6 -->
<g id="edge5_Node000001_Node000006" class="edge">
<title>Node1&#45;&gt;Node6</title>
<g id="a_edge5_Node000001_Node000006"><a xlink:title=" ">
<path fill="none" stroke="#63b8ff" d="M153.74,-330.5C171.54,-335.08 191.26,-340.15 210.48,-345.1"/>
<polygon fill="#63b8ff" stroke="#63b8ff" points="209.38,-348.43 219.94,-347.53 211.13,-341.65 209.38,-348.43"/>
</a>
</g>
</g>
<!-- Node7 -->
<g id="Node000007" class="node">
<title>Node7</title>
<g id="a_Node000007"><a xlink:href="classediteurpanovisu_1_1GestionnaireInterfaceController.html#a5bd33fa6bb8a431b8829c7b88a813e90" target="_top" xlink:title=" ">
<polygon fill="white" stroke="#666666" points="403.25,-330 213.25,-330 213.25,-298 403.25,-298 403.25,-330"/>
<text xml:space="preserve" text-anchor="start" x="221.25" y="-316.5" font-family="Helvetica,sans-Serif" font-size="10.00">editeurpanovisu.Gestionnaire</text>
<text xml:space="preserve" text-anchor="middle" x="308.25" y="-304.5" font-family="Helvetica,sans-Serif" font-size="10.00">InterfaceController.getFenetreURLPosX</text>
</a>
</g>
</g>
<!-- Node1&#45;&gt;Node7 -->
<g id="edge6_Node000001_Node000007" class="edge">
<title>Node1&#45;&gt;Node7</title>
<g id="a_edge6_Node000001_Node000007"><a xlink:title=" ">
<path fill="none" stroke="#63b8ff" d="M177.51,-314C185.45,-314 193.54,-314 201.61,-314"/>
<polygon fill="#63b8ff" stroke="#63b8ff" points="201.47,-317.5 211.47,-314 201.47,-310.5 201.47,-317.5"/>
</a>
</g>
</g>
<!-- Node8 -->
<g id="Node000008" class="node">
<title>Node8</title>
<g id="a_Node000008"><a xlink:href="classediteurpanovisu_1_1GestionnaireInterfaceController.html#a39a5ffa849ab6c02cb5eaf0a100e6ca1" target="_top" xlink:title=" ">
<polygon fill="white" stroke="#666666" points="403.25,-280 213.25,-280 213.25,-248 403.25,-248 403.25,-280"/>
<text xml:space="preserve" text-anchor="start" x="221.25" y="-266.5" font-family="Helvetica,sans-Serif" font-size="10.00">editeurpanovisu.Gestionnaire</text>
<text xml:space="preserve" text-anchor="middle" x="308.25" y="-254.5" font-family="Helvetica,sans-Serif" font-size="10.00">InterfaceController.getFenetreURLPosY</text>
</a>
</g>
</g>
<!-- Node1&#45;&gt;Node8 -->
<g id="edge7_Node000001_Node000008" class="edge">
<title>Node1&#45;&gt;Node8</title>
<g id="a_edge7_Node000001_Node000008"><a xlink:title=" ">
<path fill="none" stroke="#63b8ff" d="M161.18,-297.56C181.45,-292.9 203.68,-287.8 224.55,-283"/>
<polygon fill="#63b8ff" stroke="#63b8ff" points="225.21,-286.44 234.17,-280.79 223.64,-279.62 225.21,-286.44"/>
</a>
</g>
</g>
<!-- Node9 -->
<g id="Node000009" class="node">
<title>Node9</title>
<g id="a_Node000009"><a xlink:href="classediteurpanovisu_1_1GestionnaireInterfaceController.html#a38e6be4e091aeb361dc33fb395ff711b" target="_top" xlink:title=" ">
<polygon fill="white" stroke="#666666" points="387.5,-230 229,-230 229,-186 387.5,-186 387.5,-230"/>
<text xml:space="preserve" text-anchor="start" x="237" y="-216.5" font-family="Helvetica,sans-Serif" font-size="10.00">editeurpanovisu.Gestionnaire</text>
<text xml:space="preserve" text-anchor="start" x="237" y="-204.5" font-family="Helvetica,sans-Serif" font-size="10.00">InterfaceController.getStrFenetre</text>
<text xml:space="preserve" text-anchor="middle" x="308.25" y="-192.5" font-family="Helvetica,sans-Serif" font-size="10.00">InfoImage</text>
</a>
</g>
</g>
<!-- Node1&#45;&gt;Node9 -->
<g id="edge8_Node000001_Node000009" class="edge">
<title>Node1&#45;&gt;Node9</title>
<g id="a_edge8_Node000001_Node000009"><a xlink:title=" ">
<path fill="none" stroke="#63b8ff" d="M112.9,-297.67C137.11,-281.22 176.55,-255.92 213.25,-239 216.53,-237.49 219.9,-236.02 223.33,-234.59"/>
<polygon fill="#63b8ff" stroke="#63b8ff" points="224.35,-237.95 232.34,-231 221.76,-231.45 224.35,-237.95"/>
</a>
</g>
</g>
<!-- Node10 -->
<g id="Node000010" class="node">
<title>Node10</title>
<g id="a_Node000010"><a xlink:href="classediteurpanovisu_1_1GestionnaireInterfaceController.html#a65ed7e02b11db04a2c523537509a9ba9" target="_top" xlink:title=" ">
<polygon fill="white" stroke="#666666" points="387.5,-168 229,-168 229,-124 387.5,-124 387.5,-168"/>
<text xml:space="preserve" text-anchor="start" x="237" y="-154.5" font-family="Helvetica,sans-Serif" font-size="10.00">editeurpanovisu.Gestionnaire</text>
<text xml:space="preserve" text-anchor="start" x="237" y="-142.5" font-family="Helvetica,sans-Serif" font-size="10.00">InterfaceController.getStrFenetre</text>
<text xml:space="preserve" text-anchor="middle" x="308.25" y="-130.5" font-family="Helvetica,sans-Serif" font-size="10.00">TexteURL</text>
</a>
</g>
</g>
<!-- Node1&#45;&gt;Node10 -->
<g id="edge9_Node000001_Node000010" class="edge">
<title>Node1&#45;&gt;Node10</title>
<g id="a_edge9_Node000001_Node000010"><a xlink:title=" ">
<path fill="none" stroke="#63b8ff" d="M100.17,-297.55C119.31,-268.98 162.52,-210.06 213.25,-177 215.09,-175.8 216.97,-174.65 218.9,-173.54"/>
<polygon fill="#63b8ff" stroke="#63b8ff" points="220.27,-176.77 227.49,-169.01 217.01,-170.58 220.27,-176.77"/>
</a>
</g>
</g>
<!-- Node11 -->
<g id="Node000011" class="node">
<title>Node11</title>
<g id="a_Node000011"><a xlink:href="classediteurpanovisu_1_1GestionnaireInterfaceController.html#a2e806a32149c4a7483f4ce9bcd3bc87c" target="_top" xlink:title=" ">
<polygon fill="white" stroke="#666666" points="387.5,-106 229,-106 229,-62 387.5,-62 387.5,-106"/>
<text xml:space="preserve" text-anchor="start" x="237" y="-92.5" font-family="Helvetica,sans-Serif" font-size="10.00">editeurpanovisu.Gestionnaire</text>
<text xml:space="preserve" text-anchor="start" x="237" y="-80.5" font-family="Helvetica,sans-Serif" font-size="10.00">InterfaceController.getStrFenetre</text>
<text xml:space="preserve" text-anchor="middle" x="308.25" y="-68.5" font-family="Helvetica,sans-Serif" font-size="10.00">URLCouleur</text>
</a>
</g>
</g>
<!-- Node1&#45;&gt;Node11 -->
<g id="edge10_Node000001_Node000011" class="edge">
<title>Node1&#45;&gt;Node11</title>
<g id="a_edge10_Node000001_Node000011"><a xlink:title=" ">
<path fill="none" stroke="#63b8ff" d="M95.29,-297.67C109.24,-259.87 148.85,-165.68 213.25,-115 215.02,-113.61 216.86,-112.27 218.75,-111"/>
<polygon fill="#63b8ff" stroke="#63b8ff" points="220.52,-114.02 227.31,-105.88 216.93,-108.01 220.52,-114.02"/>
</a>
</g>
</g>
<!-- Node12 -->
<g id="Node000012" class="node">
<title>Node12</title>
<g id="a_Node000012"><a xlink:href="classediteurpanovisu_1_1GestionnaireInterfaceController.html#a03a16977c8b59d8bca8f28cdb41cb78d" target="_top" xlink:title=" ">
<polygon fill="white" stroke="#666666" points="389,-44 227.5,-44 227.5,0 389,0 389,-44"/>
<text xml:space="preserve" text-anchor="start" x="235.5" y="-30.5" font-family="Helvetica,sans-Serif" font-size="10.00">editeurpanovisu.Gestionnaire</text>
<text xml:space="preserve" text-anchor="start" x="235.5" y="-18.5" font-family="Helvetica,sans-Serif" font-size="10.00">InterfaceController.isbFenetreInfo</text>
<text xml:space="preserve" text-anchor="middle" x="308.25" y="-6.5" font-family="Helvetica,sans-Serif" font-size="10.00">Personnalise</text>
</a>
</g>
</g>
<!-- Node1&#45;&gt;Node12 -->
<g id="edge11_Node000001_Node000012" class="edge">
<title>Node1&#45;&gt;Node12</title>
<g id="a_edge11_Node000001_Node000012"><a xlink:title=" ">
<path fill="none" stroke="#63b8ff" d="M92.72,-297.53C102.17,-251.81 134.9,-122.21 213.25,-53 214.71,-51.71 216.23,-50.47 217.79,-49.29"/>
<polygon fill="#63b8ff" stroke="#63b8ff" points="219.55,-52.32 225.95,-43.88 215.68,-46.49 219.55,-52.32"/>
</a>
</g>
</g>
</g>
</svg>
