<?xml version="1.0" encoding="UTF-8" standalone="no"?>
<!DOCTYPE svg PUBLIC "-//W3C//DTD SVG 1.1//EN"
 "http://www.w3.org/Graphics/SVG/1.1/DTD/svg11.dtd">
<!-- Generated by graphviz version 13.1.2 (20250808.2320)
 -->
<!-- Title: editeurpanovisu.EditeurPanovisu.valideHS Pages: 1 -->
<!--zoomable 1028 -->

<svg id="main" version="1.1" xmlns="http://www.w3.org/2000/svg" xmlns:xlink="http://www.w3.org/1999/xlink" xml:space="preserve" onload="init(evt)">

<style type="text/css"><![CDATA[
.node, .edge {opacity: 0.7;}
.node.selected, .edge.selected {opacity: 1;}
.edge:hover path { stroke: red; }
.edge:hover polygon { stroke: red; fill: red; }
]]></style>

<defs>
  <circle id="rim" cx="0" cy="0" r="7"/>
  <circle id="rim2" cx="0" cy="0" r="3.5"/>
  <g id="zoomPlus">
    <use xlink:href="#rim" fill="#404040"><set attributeName="fill" to="#808080" begin="zoomplus.mouseover" end="zoomplus.mouseout"/></use>
    <path d="M-4,0h8M0,-4v8" fill="none" stroke="white" stroke-width="1.5" pointer-events="none"/>
  </g>
  <g id="zoomMin">
    <use xlink:href="#rim" fill="#404040"><set attributeName="fill" to="#808080" begin="zoomminus.mouseover" end="zoomminus.mouseout"/></use>
    <path d="M-4,0h8" fill="none" stroke="white" stroke-width="1.5" pointer-events="none"/>
  </g>
  <g id="arrowUp" transform="translate(30 24)">
    <use xlink:href="#rim"/>
    <path pointer-events="none" fill="none" stroke="white" stroke-width="1.5" d="M0,-3.0v7 M-2.5,-0.5L0,-3.0L2.5,-0.5"/>
  </g>
  <g id="arrowRight" transform="rotate(90) translate(36 -43)">
    <use xlink:href="#rim"/>
    <path pointer-events="none" fill="none" stroke="white" stroke-width="1.5" d="M0,-3.0v7 M-2.5,-0.5L0,-3.0L2.5,-0.5"/>
  </g>
  <g id="arrowDown" transform="rotate(180) translate(-30 -48)">
    <use xlink:href="#rim"/>
    <path pointer-events="none" fill="none" stroke="white" stroke-width="1.5" d="M0,-3.0v7 M-2.5,-0.5L0,-3.0L2.5,-0.5"/>
  </g>
  <g id="arrowLeft" transform="rotate(270) translate(-36 17)">
    <use xlink:href="#rim"/>
    <path pointer-events="none" fill="none" stroke="white" stroke-width="1.5" d="M0,-3.0v7 M-2.5,-0.5L0,-3.0L2.5,-0.5"/>
  </g>
  <g id="resetDef">
    <use xlink:href="#rim2" fill="#404040"><set attributeName="fill" to="#808080" begin="reset.mouseover" end="reset.mouseout"/></use>
  </g>
</defs>
<script type="application/ecmascript">
var viewWidth = 501;
var viewHeight = 1028;
var sectionId = 'dynsection-293';
</script>
<script type="application/ecmascript" xlink:href="svg.min.js"/>
<svg id="graph" class="graph">
<g id="viewport">
<title>editeurpanovisu.EditeurPanovisu.valideHS</title>
<!-- Node1 -->
<g id="Node000001" class="node">
<title>Node1</title>
<g id="a_Node000001"><a xlink:title=" ">
<polygon fill="#999999" stroke="#666666" points="201.25,-526 0,-526 0,-506 201.25,-506 201.25,-526"/>
<text xml:space="preserve" text-anchor="middle" x="100.62" y="-512.5" font-family="Helvetica,sans-Serif" font-size="10.00">editeurpanovisu.EditeurPanovisu.valideHS</text>
</a>
</g>
</g>
<!-- Node2 -->
<g id="Node000002" class="node">
<title>Node2</title>
<g id="a_Node000002"><a xlink:href="classediteurpanovisu_1_1Panoramique.html#ab34130d2e38e5d05e9eab0acf1b0c0d1" target="_top" xlink:title=" ">
<polygon fill="white" stroke="#666666" points="413,-1020 252.25,-1020 252.25,-988 413,-988 413,-1020"/>
<text xml:space="preserve" text-anchor="start" x="260.25" y="-1006.5" font-family="Helvetica,sans-Serif" font-size="10.00">editeurpanovisu.Panoramique.get</text>
<text xml:space="preserve" text-anchor="middle" x="332.62" y="-994.5" font-family="Helvetica,sans-Serif" font-size="10.00">Hotspot</text>
</a>
</g>
</g>
<!-- Node1&#45;&gt;Node2 -->
<g id="edge1_Node000001_Node000002" class="edge">
<title>Node1&#45;&gt;Node2</title>
<g id="a_edge1_Node000001_Node000002"><a xlink:title=" ">
<path fill="none" stroke="#63b8ff" d="M101.39,-526.39C100.72,-581.17 104.89,-838.98 237.25,-974 240.04,-976.85 243.1,-979.43 246.36,-981.76"/>
<polygon fill="#63b8ff" stroke="#63b8ff" points="244.37,-984.65 254.72,-986.92 248.05,-978.69 244.37,-984.65"/>
</a>
</g>
</g>
<!-- Node3 -->
<g id="Node000003" class="node">
<title>Node3</title>
<g id="a_Node000003"><a xlink:href="leaflet_8js.html#a73aff07b65d7c0b09ccf6b4c4f1b7a9d" target="_top" xlink:title=" ">
<polygon fill="white" stroke="#666666" points="492.8,-926 464,-926 464,-906 492.8,-906 492.8,-926"/>
<text xml:space="preserve" text-anchor="middle" x="478.4" y="-912.5" font-family="Helvetica,sans-Serif" font-size="10.00">i</text>
</a>
</g>
</g>
<!-- Node1&#45;&gt;Node3 -->
<g id="edge15_Node000001_Node000003" class="edge">
<title>Node1&#45;&gt;Node3</title>
<g id="a_edge15_Node000001_Node000003"><a xlink:title=" ">
<path fill="none" stroke="#63b8ff" d="M103.25,-526.24C112.94,-585.96 165.17,-888.34 237.25,-941 305.71,-991.01 345.54,-960.68 428,-941 436.87,-938.88 445.95,-934.9 453.87,-930.73"/>
<polygon fill="#63b8ff" stroke="#63b8ff" points="455.53,-933.81 462.5,-925.82 452.07,-927.72 455.53,-933.81"/>
</a>
</g>
</g>
<!-- Node4 -->
<g id="Node000004" class="node">
<title>Node4</title>
<g id="a_Node000004"><a xlink:href="classediteurpanovisu_1_1Panoramique.html#a5ea40964d5a8c00e59cd57decce7d456" target="_top" xlink:title=" ">
<polygon fill="white" stroke="#666666" points="413,-932 252.25,-932 252.25,-900 413,-900 413,-932"/>
<text xml:space="preserve" text-anchor="start" x="260.25" y="-918.5" font-family="Helvetica,sans-Serif" font-size="10.00">editeurpanovisu.Panoramique.get</text>
<text xml:space="preserve" text-anchor="middle" x="332.62" y="-906.5" font-family="Helvetica,sans-Serif" font-size="10.00">HotspotDiapo</text>
</a>
</g>
</g>
<!-- Node1&#45;&gt;Node4 -->
<g id="edge3_Node000001_Node000004" class="edge">
<title>Node1&#45;&gt;Node4</title>
<g id="a_edge3_Node000001_Node000004"><a xlink:title=" ">
<path fill="none" stroke="#63b8ff" d="M102.04,-526.21C104.58,-574.91 122.11,-785.58 237.25,-891 238.89,-892.5 240.61,-893.92 242.4,-895.25"/>
<polygon fill="#63b8ff" stroke="#63b8ff" points="240.24,-898.02 250.56,-900.42 243.99,-892.11 240.24,-898.02"/>
</a>
</g>
</g>
<!-- Node5 -->
<g id="Node000005" class="node">
<title>Node5</title>
<g id="a_Node000005"><a xlink:href="classediteurpanovisu_1_1Panoramique.html#a3e92b036b3d27ca36b40e2b14bd77489" target="_top" xlink:title=" ">
<polygon fill="white" stroke="#666666" points="413,-882 252.25,-882 252.25,-850 413,-850 413,-882"/>
<text xml:space="preserve" text-anchor="start" x="260.25" y="-868.5" font-family="Helvetica,sans-Serif" font-size="10.00">editeurpanovisu.Panoramique.get</text>
<text xml:space="preserve" text-anchor="middle" x="332.62" y="-856.5" font-family="Helvetica,sans-Serif" font-size="10.00">HotspotHTML</text>
</a>
</g>
</g>
<!-- Node1&#45;&gt;Node5 -->
<g id="edge5_Node000001_Node000005" class="edge">
<title>Node1&#45;&gt;Node5</title>
<g id="a_edge5_Node000001_Node000005"><a xlink:title=" ">
<path fill="none" stroke="#63b8ff" d="M102.68,-526.34C107.85,-571.28 134.5,-751.39 237.25,-841 238.93,-842.46 240.68,-843.84 242.5,-845.14"/>
<polygon fill="#63b8ff" stroke="#63b8ff" points="240.41,-847.96 250.76,-850.2 244.06,-841.99 240.41,-847.96"/>
</a>
</g>
</g>
<!-- Node6 -->
<g id="Node000006" class="node">
<title>Node6</title>
<g id="a_Node000006"><a xlink:href="classediteurpanovisu_1_1Panoramique.html#a1361cd34e199c524859957e11a0196e2" target="_top" xlink:title=" ">
<polygon fill="white" stroke="#666666" points="413,-832 252.25,-832 252.25,-800 413,-800 413,-832"/>
<text xml:space="preserve" text-anchor="start" x="260.25" y="-818.5" font-family="Helvetica,sans-Serif" font-size="10.00">editeurpanovisu.Panoramique.get</text>
<text xml:space="preserve" text-anchor="middle" x="332.62" y="-806.5" font-family="Helvetica,sans-Serif" font-size="10.00">HotspotImage</text>
</a>
</g>
</g>
<!-- Node1&#45;&gt;Node6 -->
<g id="edge7_Node000001_Node000006" class="edge">
<title>Node1&#45;&gt;Node6</title>
<g id="a_edge7_Node000001_Node000006"><a xlink:title=" ">
<path fill="none" stroke="#63b8ff" d="M103.54,-526.39C111.6,-567.05 146.61,-716.83 237.25,-791 238.78,-792.25 240.37,-793.45 242.01,-794.58"/>
<polygon fill="#63b8ff" stroke="#63b8ff" points="240.18,-797.56 250.56,-799.67 243.76,-791.55 240.18,-797.56"/>
</a>
</g>
</g>
<!-- Node7 -->
<g id="Node000007" class="node">
<title>Node7</title>
<g id="a_Node000007"><a xlink:href="classediteurpanovisu_1_1Panoramique.html#ac22931e45fcc01ba55819ac2c29032a9" target="_top" xlink:title=" ">
<polygon fill="white" stroke="#666666" points="414.12,-782 251.12,-782 251.12,-750 414.12,-750 414.12,-782"/>
<text xml:space="preserve" text-anchor="start" x="259.12" y="-768.5" font-family="Helvetica,sans-Serif" font-size="10.00">editeurpanovisu.Panoramique.geti</text>
<text xml:space="preserve" text-anchor="middle" x="332.62" y="-756.5" font-family="Helvetica,sans-Serif" font-size="10.00">NombreHotspotDiapo</text>
</a>
</g>
</g>
<!-- Node1&#45;&gt;Node7 -->
<g id="edge9_Node000001_Node000007" class="edge">
<title>Node1&#45;&gt;Node7</title>
<g id="a_edge9_Node000001_Node000007"><a xlink:title=" ">
<path fill="none" stroke="#63b8ff" d="M104.75,-526.43C116.07,-562.34 158.44,-681.88 237.25,-741 238.61,-742.02 240,-742.99 241.43,-743.93"/>
<polygon fill="#63b8ff" stroke="#63b8ff" points="239.54,-746.88 249.96,-748.8 243.01,-740.8 239.54,-746.88"/>
</a>
</g>
</g>
<!-- Node8 -->
<g id="Node000008" class="node">
<title>Node8</title>
<g id="a_Node000008"><a xlink:href="classediteurpanovisu_1_1EditeurPanovisu.html#af28f960b49fa3c90fdf1550b88acca3d" target="_top" xlink:title=" ">
<polygon fill="white" stroke="#666666" points="421.25,-732 244,-732 244,-700 421.25,-700 421.25,-732"/>
<text xml:space="preserve" text-anchor="start" x="252" y="-718.5" font-family="Helvetica,sans-Serif" font-size="10.00">editeurpanovisu.EditeurPanovisu.geti</text>
<text xml:space="preserve" text-anchor="middle" x="332.62" y="-706.5" font-family="Helvetica,sans-Serif" font-size="10.00">PanoActuel</text>
</a>
</g>
</g>
<!-- Node1&#45;&gt;Node8 -->
<g id="edge10_Node000001_Node000008" class="edge">
<title>Node1&#45;&gt;Node8</title>
<g id="a_edge10_Node000001_Node000008"><a xlink:title=" ">
<path fill="none" stroke="#63b8ff" d="M106.46,-526.17C121.35,-556.37 169.64,-646.2 237.25,-691 239.1,-692.23 241.02,-693.4 242.98,-694.51"/>
<polygon fill="#63b8ff" stroke="#63b8ff" points="241.26,-697.56 251.76,-698.92 244.4,-691.31 241.26,-697.56"/>
</a>
</g>
</g>
<!-- Node9 -->
<g id="Node000009" class="node">
<title>Node9</title>
<g id="a_Node000009"><a xlink:href="classediteurpanovisu_1_1Panoramique.html#abc36228b7220894bf3bac39f2b2de308" target="_top" xlink:title=" ">
<polygon fill="white" stroke="#666666" points="413,-682 252.25,-682 252.25,-650 413,-650 413,-682"/>
<text xml:space="preserve" text-anchor="start" x="260.25" y="-668.5" font-family="Helvetica,sans-Serif" font-size="10.00">editeurpanovisu.Panoramique.get</text>
<text xml:space="preserve" text-anchor="middle" x="332.62" y="-656.5" font-family="Helvetica,sans-Serif" font-size="10.00">NombreHotspotHTML</text>
</a>
</g>
</g>
<!-- Node1&#45;&gt;Node9 -->
<g id="edge11_Node000001_Node000009" class="edge">
<title>Node1&#45;&gt;Node9</title>
<g id="a_edge11_Node000001_Node000009"><a xlink:title=" ">
<path fill="none" stroke="#63b8ff" d="M109.61,-526.19C128.88,-550.05 180.54,-609.89 237.25,-641 239.94,-642.48 242.73,-643.87 245.58,-645.19"/>
<polygon fill="#63b8ff" stroke="#63b8ff" points="244.17,-648.39 254.74,-649.02 246.87,-641.93 244.17,-648.39"/>
</a>
</g>
</g>
<!-- Node10 -->
<g id="Node000010" class="node">
<title>Node10</title>
<g id="a_Node000010"><a xlink:href="classediteurpanovisu_1_1Panoramique.html#a922d548ac5f022ce7928dacb1abcdcec" target="_top" xlink:title=" ">
<polygon fill="white" stroke="#666666" points="413,-632 252.25,-632 252.25,-600 413,-600 413,-632"/>
<text xml:space="preserve" text-anchor="start" x="260.25" y="-618.5" font-family="Helvetica,sans-Serif" font-size="10.00">editeurpanovisu.Panoramique.get</text>
<text xml:space="preserve" text-anchor="middle" x="332.62" y="-606.5" font-family="Helvetica,sans-Serif" font-size="10.00">NombreHotspotImage</text>
</a>
</g>
</g>
<!-- Node1&#45;&gt;Node10 -->
<g id="edge12_Node000001_Node000010" class="edge">
<title>Node1&#45;&gt;Node10</title>
<g id="a_edge12_Node000001_Node000010"><a xlink:title=" ">
<path fill="none" stroke="#63b8ff" d="M117.27,-526.34C141.89,-542.21 191.56,-572.64 237.25,-591 241.63,-592.76 246.17,-594.43 250.79,-596.02"/>
<polygon fill="#63b8ff" stroke="#63b8ff" points="249.64,-599.32 260.23,-599.08 251.8,-592.66 249.64,-599.32"/>
</a>
</g>
</g>
<!-- Node11 -->
<g id="Node000011" class="node">
<title>Node11</title>
<g id="a_Node000011"><a xlink:href="classediteurpanovisu_1_1Panoramique.html#a10fc372ca29d83635a36fac8b2953108" target="_top" xlink:title=" ">
<polygon fill="white" stroke="#666666" points="413,-582 252.25,-582 252.25,-550 413,-550 413,-582"/>
<text xml:space="preserve" text-anchor="start" x="260.25" y="-568.5" font-family="Helvetica,sans-Serif" font-size="10.00">editeurpanovisu.Panoramique.get</text>
<text xml:space="preserve" text-anchor="middle" x="332.62" y="-556.5" font-family="Helvetica,sans-Serif" font-size="10.00">NombreHotspots</text>
</a>
</g>
</g>
<!-- Node1&#45;&gt;Node11 -->
<g id="edge13_Node000001_Node000011" class="edge">
<title>Node1&#45;&gt;Node11</title>
<g id="a_edge13_Node000001_Node000011"><a xlink:title=" ">
<path fill="none" stroke="#63b8ff" d="M149.84,-526.48C177.3,-532.45 212.52,-540.11 244.64,-547.09"/>
<polygon fill="#63b8ff" stroke="#63b8ff" points="243.86,-550.5 254.38,-549.21 245.35,-543.66 243.86,-550.5"/>
</a>
</g>
</g>
<!-- Node12 -->
<g id="Node000012" class="node">
<title>Node12</title>
<g id="a_Node000012"><a xlink:href="classediteurpanovisu_1_1EditeurPanovisu.html#a95e78d275440537393c4e23b1d0c42bb" target="_top" xlink:title=" ">
<polygon fill="white" stroke="#666666" points="420.12,-532 245.12,-532 245.12,-500 420.12,-500 420.12,-532"/>
<text xml:space="preserve" text-anchor="start" x="253.12" y="-518.5" font-family="Helvetica,sans-Serif" font-size="10.00">editeurpanovisu.EditeurPanovisu.get</text>
<text xml:space="preserve" text-anchor="middle" x="332.62" y="-506.5" font-family="Helvetica,sans-Serif" font-size="10.00">PanoramiquesProjet</text>
</a>
</g>
</g>
<!-- Node1&#45;&gt;Node12 -->
<g id="edge14_Node000001_Node000012" class="edge">
<title>Node1&#45;&gt;Node12</title>
<g id="a_edge14_Node000001_Node000012"><a xlink:title=" ">
<path fill="none" stroke="#63b8ff" d="M201.5,-516C212.1,-516 222.87,-516 233.44,-516"/>
<polygon fill="#63b8ff" stroke="#63b8ff" points="233.31,-519.5 243.31,-516 233.31,-512.5 233.31,-519.5"/>
</a>
</g>
</g>
<!-- Node13 -->
<g id="Node000013" class="node">
<title>Node13</title>
<g id="a_Node000013"><a xlink:href="classediteurpanovisu_1_1HotSpot.html#a0a178fa0a5daa966634345c657c601eb" target="_top" xlink:title=" ">
<polygon fill="white" stroke="#666666" points="402.5,-482 262.75,-482 262.75,-450 402.5,-450 402.5,-482"/>
<text xml:space="preserve" text-anchor="start" x="270.75" y="-468.5" font-family="Helvetica,sans-Serif" font-size="10.00">editeurpanovisu.HotSpot.set</text>
<text xml:space="preserve" text-anchor="middle" x="332.62" y="-456.5" font-family="Helvetica,sans-Serif" font-size="10.00">Anime</text>
</a>
</g>
</g>
<!-- Node1&#45;&gt;Node13 -->
<g id="edge16_Node000001_Node000013" class="edge">
<title>Node1&#45;&gt;Node13</title>
<g id="a_edge16_Node000001_Node000013"><a xlink:title=" ">
<path fill="none" stroke="#63b8ff" d="M149.84,-505.52C179.32,-499.11 217.75,-490.75 251.69,-483.38"/>
<polygon fill="#63b8ff" stroke="#63b8ff" points="252.02,-486.89 261.05,-481.34 250.54,-480.05 252.02,-486.89"/>
</a>
</g>
</g>
<!-- Node14 -->
<g id="Node000014" class="node">
<title>Node14</title>
<g id="a_Node000014"><a xlink:href="classediteurpanovisu_1_1HotspotHTML.html#ac46264063c8bcc35d30b8c7640120fa6" target="_top" xlink:title=" ">
<polygon fill="white" stroke="#666666" points="415.25,-432 250,-432 250,-400 415.25,-400 415.25,-432"/>
<text xml:space="preserve" text-anchor="start" x="258" y="-418.5" font-family="Helvetica,sans-Serif" font-size="10.00">editeurpanovisu.HotspotHTML.set</text>
<text xml:space="preserve" text-anchor="middle" x="332.62" y="-406.5" font-family="Helvetica,sans-Serif" font-size="10.00">Anime</text>
</a>
</g>
</g>
<!-- Node1&#45;&gt;Node14 -->
<g id="edge17_Node000001_Node000014" class="edge">
<title>Node1&#45;&gt;Node14</title>
<g id="a_edge17_Node000001_Node000014"><a xlink:title=" ">
<path fill="none" stroke="#63b8ff" d="M117.27,-505.66C141.89,-489.79 191.56,-459.36 237.25,-441 241.63,-439.24 246.17,-437.57 250.79,-435.98"/>
<polygon fill="#63b8ff" stroke="#63b8ff" points="251.8,-439.34 260.23,-432.92 249.64,-432.68 251.8,-439.34"/>
</a>
</g>
</g>
<!-- Node15 -->
<g id="Node000015" class="node">
<title>Node15</title>
<g id="a_Node000015"><a xlink:href="classediteurpanovisu_1_1HotspotImage.html#a2e252419753e6341e9ba8dc8777c627a" target="_top" xlink:title=" ">
<polygon fill="white" stroke="#666666" points="415.25,-382 250,-382 250,-350 415.25,-350 415.25,-382"/>
<text xml:space="preserve" text-anchor="start" x="258" y="-368.5" font-family="Helvetica,sans-Serif" font-size="10.00">editeurpanovisu.HotspotImage.set</text>
<text xml:space="preserve" text-anchor="middle" x="332.62" y="-356.5" font-family="Helvetica,sans-Serif" font-size="10.00">Anime</text>
</a>
</g>
</g>
<!-- Node1&#45;&gt;Node15 -->
<g id="edge18_Node000001_Node000015" class="edge">
<title>Node1&#45;&gt;Node15</title>
<g id="a_edge18_Node000001_Node000015"><a xlink:title=" ">
<path fill="none" stroke="#63b8ff" d="M109.61,-505.81C128.88,-481.95 180.54,-422.11 237.25,-391 239.94,-389.52 242.73,-388.13 245.58,-386.81"/>
<polygon fill="#63b8ff" stroke="#63b8ff" points="246.87,-390.07 254.74,-382.98 244.17,-383.61 246.87,-390.07"/>
</a>
</g>
</g>
<!-- Node16 -->
<g id="Node000016" class="node">
<title>Node16</title>
<g id="a_Node000016"><a xlink:href="classediteurpanovisu_1_1HotspotDiaporama.html#a8d5812fd290adb1cb28e6db80b59ec16" target="_top" xlink:title=" ">
<polygon fill="white" stroke="#666666" points="428,-332 237.25,-332 237.25,-300 428,-300 428,-332"/>
<text xml:space="preserve" text-anchor="start" x="245.25" y="-318.5" font-family="Helvetica,sans-Serif" font-size="10.00">editeurpanovisu.HotspotDiaporama.setb</text>
<text xml:space="preserve" text-anchor="middle" x="332.62" y="-306.5" font-family="Helvetica,sans-Serif" font-size="10.00">Anime</text>
</a>
</g>
</g>
<!-- Node1&#45;&gt;Node16 -->
<g id="edge19_Node000001_Node000016" class="edge">
<title>Node1&#45;&gt;Node16</title>
<g id="a_edge19_Node000001_Node000016"><a xlink:title=" ">
<path fill="none" stroke="#63b8ff" d="M106.46,-505.83C121.35,-475.63 169.64,-385.8 237.25,-341 239.1,-339.77 241.02,-338.6 242.98,-337.49"/>
<polygon fill="#63b8ff" stroke="#63b8ff" points="244.4,-340.69 251.76,-333.08 241.26,-334.44 244.4,-340.69"/>
</a>
</g>
</g>
<!-- Node17 -->
<g id="Node000017" class="node">
<title>Node17</title>
<g id="a_Node000017"><a xlink:href="classediteurpanovisu_1_1HotSpot.html#ad84fe33882bfb96229ceafd7de85cb6b" target="_top" xlink:title=" ">
<polygon fill="white" stroke="#666666" points="402.5,-282 262.75,-282 262.75,-250 402.5,-250 402.5,-282"/>
<text xml:space="preserve" text-anchor="start" x="270.75" y="-268.5" font-family="Helvetica,sans-Serif" font-size="10.00">editeurpanovisu.HotSpot.set</text>
<text xml:space="preserve" text-anchor="middle" x="332.62" y="-256.5" font-family="Helvetica,sans-Serif" font-size="10.00">NumeroPano</text>
</a>
</g>
</g>
<!-- Node1&#45;&gt;Node17 -->
<g id="edge20_Node000001_Node000017" class="edge">
<title>Node1&#45;&gt;Node17</title>
<g id="a_edge20_Node000001_Node000017"><a xlink:title=" ">
<path fill="none" stroke="#63b8ff" d="M104.75,-505.57C116.07,-469.66 158.44,-350.12 237.25,-291 241.88,-287.53 246.95,-284.54 252.26,-281.96"/>
<polygon fill="#63b8ff" stroke="#63b8ff" points="253.5,-285.24 261.33,-278.1 250.76,-278.8 253.5,-285.24"/>
</a>
</g>
</g>
<!-- Node18 -->
<g id="Node000018" class="node">
<title>Node18</title>
<g id="a_Node000018"><a xlink:href="classediteurpanovisu_1_1HotSpot.html#a7d0ef1b2737836dbc294fd6422a8e473" target="_top" xlink:title=" ">
<polygon fill="white" stroke="#666666" points="402.5,-232 262.75,-232 262.75,-200 402.5,-200 402.5,-232"/>
<text xml:space="preserve" text-anchor="start" x="270.75" y="-218.5" font-family="Helvetica,sans-Serif" font-size="10.00">editeurpanovisu.HotSpot.set</text>
<text xml:space="preserve" text-anchor="middle" x="332.62" y="-206.5" font-family="Helvetica,sans-Serif" font-size="10.00">StrFichierXML</text>
</a>
</g>
</g>
<!-- Node1&#45;&gt;Node18 -->
<g id="edge21_Node000001_Node000018" class="edge">
<title>Node1&#45;&gt;Node18</title>
<g id="a_edge21_Node000001_Node000018"><a xlink:title=" ">
<path fill="none" stroke="#63b8ff" d="M103.54,-505.61C111.6,-464.95 146.61,-315.17 237.25,-241 241.73,-237.34 246.69,-234.21 251.92,-231.53"/>
<polygon fill="#63b8ff" stroke="#63b8ff" points="253.17,-234.8 260.89,-227.54 250.33,-228.41 253.17,-234.8"/>
</a>
</g>
</g>
<!-- Node19 -->
<g id="Node000019" class="node">
<title>Node19</title>
<g id="a_Node000019"><a xlink:href="classediteurpanovisu_1_1HotSpot.html#ac6b0378e16ddd21654a4f967cd607b7c" target="_top" xlink:title=" ">
<polygon fill="white" stroke="#666666" points="402.5,-182 262.75,-182 262.75,-150 402.5,-150 402.5,-182"/>
<text xml:space="preserve" text-anchor="start" x="270.75" y="-168.5" font-family="Helvetica,sans-Serif" font-size="10.00">editeurpanovisu.HotSpot.set</text>
<text xml:space="preserve" text-anchor="middle" x="332.62" y="-156.5" font-family="Helvetica,sans-Serif" font-size="10.00">StrInfo</text>
</a>
</g>
</g>
<!-- Node1&#45;&gt;Node19 -->
<g id="edge22_Node000001_Node000019" class="edge">
<title>Node1&#45;&gt;Node19</title>
<g id="a_edge22_Node000001_Node000019"><a xlink:title=" ">
<path fill="none" stroke="#63b8ff" d="M102.68,-505.66C107.85,-460.72 134.5,-280.61 237.25,-191 241.69,-187.13 246.66,-183.85 251.93,-181.07"/>
<polygon fill="#63b8ff" stroke="#63b8ff" points="253.36,-184.27 261.02,-176.95 250.47,-177.89 253.36,-184.27"/>
</a>
</g>
</g>
<!-- Node20 -->
<g id="Node000020" class="node">
<title>Node20</title>
<g id="a_Node000020"><a xlink:href="classediteurpanovisu_1_1HotspotDiaporama.html#a163e6c260d6e6c9e9ec342c3a6214520" target="_top" xlink:title=" ">
<polygon fill="white" stroke="#666666" points="425.38,-132 239.88,-132 239.88,-100 425.38,-100 425.38,-132"/>
<text xml:space="preserve" text-anchor="start" x="247.88" y="-118.5" font-family="Helvetica,sans-Serif" font-size="10.00">editeurpanovisu.HotspotDiaporama.set</text>
<text xml:space="preserve" text-anchor="middle" x="332.62" y="-106.5" font-family="Helvetica,sans-Serif" font-size="10.00">StrInfo</text>
</a>
</g>
</g>
<!-- Node1&#45;&gt;Node20 -->
<g id="edge23_Node000001_Node000020" class="edge">
<title>Node1&#45;&gt;Node20</title>
<g id="a_edge23_Node000001_Node000020"><a xlink:title=" ">
<path fill="none" stroke="#63b8ff" d="M102.04,-505.79C104.58,-457.09 122.11,-246.42 237.25,-141 238.16,-140.17 239.09,-139.37 240.04,-138.59"/>
<polygon fill="#63b8ff" stroke="#63b8ff" points="241.68,-141.71 247.92,-133.14 237.7,-135.95 241.68,-141.71"/>
</a>
</g>
</g>
<!-- Node21 -->
<g id="Node000021" class="node">
<title>Node21</title>
<g id="a_Node000021"><a xlink:href="classediteurpanovisu_1_1HotspotHTML.html#aae881d342994e6f6eb3e463625bf5ad9" target="_top" xlink:title=" ">
<polygon fill="white" stroke="#666666" points="415.25,-82 250,-82 250,-50 415.25,-50 415.25,-82"/>
<text xml:space="preserve" text-anchor="start" x="258" y="-68.5" font-family="Helvetica,sans-Serif" font-size="10.00">editeurpanovisu.HotspotHTML.set</text>
<text xml:space="preserve" text-anchor="middle" x="332.62" y="-56.5" font-family="Helvetica,sans-Serif" font-size="10.00">StrInfo</text>
</a>
</g>
</g>
<!-- Node1&#45;&gt;Node21 -->
<g id="edge24_Node000001_Node000021" class="edge">
<title>Node1&#45;&gt;Node21</title>
<g id="a_edge24_Node000001_Node000021"><a xlink:title=" ">
<path fill="none" stroke="#63b8ff" d="M101.55,-505.54C101.75,-452.62 109.87,-212.18 237.25,-91 238.32,-89.98 239.43,-89 240.57,-88.06"/>
<polygon fill="#63b8ff" stroke="#63b8ff" points="242.42,-91.04 248.65,-82.46 238.43,-85.28 242.42,-91.04"/>
</a>
</g>
</g>
<!-- Node22 -->
<g id="Node000022" class="node">
<title>Node22</title>
<g id="a_Node000022"><a xlink:href="classediteurpanovisu_1_1HotspotImage.html#a182973cc6d740cd63b554d231f2085ec" target="_top" xlink:title=" ">
<polygon fill="white" stroke="#666666" points="415.25,-32 250,-32 250,0 415.25,0 415.25,-32"/>
<text xml:space="preserve" text-anchor="start" x="258" y="-18.5" font-family="Helvetica,sans-Serif" font-size="10.00">editeurpanovisu.HotspotImage.set</text>
<text xml:space="preserve" text-anchor="middle" x="332.62" y="-6.5" font-family="Helvetica,sans-Serif" font-size="10.00">StrInfo</text>
</a>
</g>
</g>
<!-- Node1&#45;&gt;Node22 -->
<g id="edge25_Node000001_Node000022" class="edge">
<title>Node1&#45;&gt;Node22</title>
<g id="a_edge25_Node000001_Node000022"><a xlink:title=" ">
<path fill="none" stroke="#63b8ff" d="M101.15,-505.85C99.15,-450.1 97.05,-178.53 237.25,-41 238.3,-39.97 239.4,-38.97 240.52,-38.02"/>
<polygon fill="#63b8ff" stroke="#63b8ff" points="242.4,-40.98 248.52,-32.34 238.34,-35.27 242.4,-40.98"/>
</a>
</g>
</g>
<!-- Node2&#45;&gt;Node3 -->
<g id="edge2_Node000002_Node000003" class="edge">
<title>Node2&#45;&gt;Node3</title>
<g id="a_edge2_Node000002_Node000003"><a xlink:title=" ">
<path fill="none" stroke="#63b8ff" d="M401.25,-987.63C410.63,-983.92 419.84,-979.42 428,-974 443.12,-963.95 456.24,-948 465.14,-935.36"/>
<polygon fill="#63b8ff" stroke="#63b8ff" points="467.84,-937.63 470.5,-927.38 462.02,-933.73 467.84,-937.63"/>
</a>
</g>
</g>
<!-- Node4&#45;&gt;Node3 -->
<g id="edge4_Node000004_Node000003" class="edge">
<title>Node4&#45;&gt;Node3</title>
<g id="a_edge4_Node000004_Node000003"><a xlink:title=" ">
<path fill="none" stroke="#63b8ff" d="M413.08,-916C427.43,-916 441.36,-916 452.58,-916"/>
<polygon fill="#63b8ff" stroke="#63b8ff" points="452.44,-919.5 462.44,-916 452.44,-912.5 452.44,-919.5"/>
</a>
</g>
</g>
<!-- Node5&#45;&gt;Node3 -->
<g id="edge6_Node000005_Node000003" class="edge">
<title>Node5&#45;&gt;Node3</title>
<g id="a_edge6_Node000005_Node000003"><a xlink:title=" ">
<path fill="none" stroke="#63b8ff" d="M402.46,-882.43C411.15,-885.03 419.84,-887.89 428,-891 436.65,-894.29 445.77,-898.64 453.8,-902.79"/>
<polygon fill="#63b8ff" stroke="#63b8ff" points="452.11,-905.85 462.58,-907.49 455.41,-899.68 452.11,-905.85"/>
</a>
</g>
</g>
<!-- Node6&#45;&gt;Node3 -->
<g id="edge8_Node000006_Node000003" class="edge">
<title>Node6&#45;&gt;Node3</title>
<g id="a_edge8_Node000006_Node000003"><a xlink:title=" ">
<path fill="none" stroke="#63b8ff" d="M413.36,-832.42C418.52,-834.89 423.46,-837.73 428,-841 447.1,-854.74 460.85,-878.35 468.92,-895.42"/>
<polygon fill="#63b8ff" stroke="#63b8ff" points="465.53,-896.41 472.79,-904.13 471.93,-893.57 465.53,-896.41"/>
</a>
</g>
</g>
</g>
</svg>

<g id="navigator" transform="translate(0 0)" fill="#404254">
  <rect fill="#f2f5e9" fill-opacity="0.5" stroke="#606060" stroke-width=".5" x="0" y="0" width="60" height="60"/>
  <use id="zoomplus" xlink:href="#zoomPlus" x="17" y="9" onmousedown="handleZoom(evt,'in')"/>
  <use id="zoomminus" xlink:href="#zoomMin" x="42" y="9" onmousedown="handleZoom(evt,'out')"/>
  <use id="reset" xlink:href="#resetDef" x="30" y="36" onmousedown="handleReset()"/>
   <use id="arrowup" xlink:href="#arrowUp" x="0" y="0" onmousedown="handlePan(0,-1)"/>
  <use id="arrowright" xlink:href="#arrowRight" x="0" y="0" onmousedown="handlePan(1,0)"/>
  <use id="arrowdown" xlink:href="#arrowDown" x="0" y="0" onmousedown="handlePan(0,1)"/>
  <use id="arrowleft" xlink:href="#arrowLeft" x="0" y="0" onmousedown="handlePan(-1,0)"/>
</g>
<svg viewBox="0 0 15 15" width="100%" height="30px" preserveAspectRatio="xMaxYMin meet">
 <g id="arrow_out" transform="scale(0.3 0.3)">
  <a xlink:href="classediteurpanovisu_1_1EditeurPanovisu_ab9a9d7fc579bb3b193fb504efde2c717_cgraph_org.svg" target="_base">
   <rect id="button" ry="5" rx="5" y="6" x="6" height="38" width="38"
        fill="#f2f5e9" fill-opacity="0.5" stroke="#606060" stroke-width="1.0"/>
   <path id="arrow"
     d="M 11.500037,31.436501 C 11.940474,20.09759 22.043105,11.32322 32.158766,21.979434 L 37.068811,17.246167 C 37.068811,17.246167 37.088388,32 37.088388,32 L 22.160133,31.978069 C 22.160133,31.978069 26.997745,27.140456 26.997745,27.140456 C 18.528582,18.264221 13.291696,25.230495 11.500037,31.436501 z"
     style="fill:#404040;"/>
  </a>
 </g>
</svg>

<style type='text/css'>
<![CDATA[
[data-mouse-over-selected='false'] { opacity: 0.7; }
[data-mouse-over-selected='true']  { opacity: 1.0; }
]]>
</style>
<script type="application/ecmascript"><![CDATA[
document.addEventListener('DOMContentLoaded', (event) => {
  highlightEdges();
  highlightAdjacentNodes();
});
]]></script>
</svg>
