<?xml version="1.0" encoding="UTF-8" standalone="no"?>
<!DOCTYPE svg PUBLIC "-//W3C//DTD SVG 1.1//EN"
 "http://www.w3.org/Graphics/SVG/1.1/DTD/svg11.dtd">
<!-- Generated by graphviz version 13.1.2 (20250808.2320)
 -->
<!-- Title: editeurpanovisu.NavigateurCarteGluon.initializeMap Pages: 1 -->
<!--zoomable 290 -->

<svg id="main" version="1.1" xmlns="http://www.w3.org/2000/svg" xmlns:xlink="http://www.w3.org/1999/xlink" xml:space="preserve" onload="init(evt)">

<style type="text/css"><![CDATA[
.node, .edge {opacity: 0.7;}
.node.selected, .edge.selected {opacity: 1;}
.edge:hover path { stroke: red; }
.edge:hover polygon { stroke: red; fill: red; }
]]></style>

<defs>
  <circle id="rim" cx="0" cy="0" r="7"/>
  <circle id="rim2" cx="0" cy="0" r="3.5"/>
  <g id="zoomPlus">
    <use xlink:href="#rim" fill="#404040"><set attributeName="fill" to="#808080" begin="zoomplus.mouseover" end="zoomplus.mouseout"/></use>
    <path d="M-4,0h8M0,-4v8" fill="none" stroke="white" stroke-width="1.5" pointer-events="none"/>
  </g>
  <g id="zoomMin">
    <use xlink:href="#rim" fill="#404040"><set attributeName="fill" to="#808080" begin="zoomminus.mouseover" end="zoomminus.mouseout"/></use>
    <path d="M-4,0h8" fill="none" stroke="white" stroke-width="1.5" pointer-events="none"/>
  </g>
  <g id="arrowUp" transform="translate(30 24)">
    <use xlink:href="#rim"/>
    <path pointer-events="none" fill="none" stroke="white" stroke-width="1.5" d="M0,-3.0v7 M-2.5,-0.5L0,-3.0L2.5,-0.5"/>
  </g>
  <g id="arrowRight" transform="rotate(90) translate(36 -43)">
    <use xlink:href="#rim"/>
    <path pointer-events="none" fill="none" stroke="white" stroke-width="1.5" d="M0,-3.0v7 M-2.5,-0.5L0,-3.0L2.5,-0.5"/>
  </g>
  <g id="arrowDown" transform="rotate(180) translate(-30 -48)">
    <use xlink:href="#rim"/>
    <path pointer-events="none" fill="none" stroke="white" stroke-width="1.5" d="M0,-3.0v7 M-2.5,-0.5L0,-3.0L2.5,-0.5"/>
  </g>
  <g id="arrowLeft" transform="rotate(270) translate(-36 17)">
    <use xlink:href="#rim"/>
    <path pointer-events="none" fill="none" stroke="white" stroke-width="1.5" d="M0,-3.0v7 M-2.5,-0.5L0,-3.0L2.5,-0.5"/>
  </g>
  <g id="resetDef">
    <use xlink:href="#rim2" fill="#404040"><set attributeName="fill" to="#808080" begin="reset.mouseover" end="reset.mouseout"/></use>
  </g>
</defs>
<script type="application/ecmascript">
var viewWidth = 541;
var viewHeight = 290;
var sectionId = 'dynsection-12';
</script>
<script type="application/ecmascript" xlink:href="svg.min.js"/>
<svg id="graph" class="graph">
<g id="viewport">
<title>editeurpanovisu.NavigateurCarteGluon.initializeMap</title>
<!-- Node1 -->
<g id="Node000001" class="node">
<title>Node1</title>
<g id="a_Node000001"><a xlink:title="Initialise réellement le JMapViewer (appelé la première fois qu&#39;on affiche la carte)">
<polygon fill="#999999" stroke="#666666" points="532.5,-157 398,-157 398,-125 532.5,-125 532.5,-157"/>
<text xml:space="preserve" text-anchor="start" x="406" y="-143.5" font-family="Helvetica,sans-Serif" font-size="10.00">editeurpanovisu.Navigateur</text>
<text xml:space="preserve" text-anchor="middle" x="465.25" y="-131.5" font-family="Helvetica,sans-Serif" font-size="10.00">CarteGluon.initializeMap</text>
</a>
</g>
</g>
<!-- Node2 -->
<g id="Node000002" class="node">
<title>Node2</title>
<g id="a_Node000002"><a xlink:href="classediteurpanovisu_1_1NavigateurCarteGluon.html#acb3121dbc21cded5498fd1578b0865e0" target="_top" xlink:title="Affiche le navigateur de carte.">
<polygon fill="white" stroke="#666666" points="362,-282 170.5,-282 170.5,-250 362,-250 362,-282"/>
<text xml:space="preserve" text-anchor="start" x="178.5" y="-268.5" font-family="Helvetica,sans-Serif" font-size="10.00">editeurpanovisu.Navigateur</text>
<text xml:space="preserve" text-anchor="middle" x="266.25" y="-256.5" font-family="Helvetica,sans-Serif" font-size="10.00">CarteGluon.afficheNavigateurOpenLayer</text>
</a>
</g>
</g>
<!-- Node1&#45;&gt;Node2 -->
<g id="edge1_Node000001_Node000002" class="edge">
<title>Node1&#45;&gt;Node2</title>
<g id="a_edge1_Node000001_Node000002"><a xlink:title=" ">
<path fill="none" stroke="#63b8ff" d="M444.9,-166.3C426.12,-189.11 395.6,-221.94 362,-241 356.23,-244.27 350.02,-247.13 343.63,-249.62"/>
<polygon fill="#63b8ff" stroke="#63b8ff" points="447.49,-168.66 451.02,-158.67 442.03,-164.28 447.49,-168.66"/>
</a>
</g>
</g>
<!-- Node3 -->
<g id="Node000003" class="node">
<title>Node3</title>
<g id="a_Node000003"><a xlink:href="classediteurpanovisu_1_1NavigateurCarteGluon.html#a4a6e606145fb4686d0bf387e0ac24c57" target="_top" xlink:title="Ajoute un marqueur à la carte avec CoordonneesGeographiques.">
<polygon fill="white" stroke="#666666" points="333.88,-232 198.62,-232 198.62,-200 333.88,-200 333.88,-232"/>
<text xml:space="preserve" text-anchor="start" x="206.62" y="-218.5" font-family="Helvetica,sans-Serif" font-size="10.00">editeurpanovisu.Navigateur</text>
<text xml:space="preserve" text-anchor="middle" x="266.25" y="-206.5" font-family="Helvetica,sans-Serif" font-size="10.00">CarteGluon.ajouteMarqueur</text>
</a>
</g>
</g>
<!-- Node1&#45;&gt;Node3 -->
<g id="edge2_Node000001_Node000003" class="edge">
<title>Node1&#45;&gt;Node3</title>
<g id="a_edge2_Node000001_Node000003"><a xlink:title=" ">
<path fill="none" stroke="#63b8ff" d="M424.36,-162.78C405.78,-172.32 383.15,-183.13 362,-191 353.15,-194.29 343.69,-197.34 334.29,-200.08"/>
<polygon fill="#63b8ff" stroke="#63b8ff" points="425.93,-165.91 433.17,-158.18 422.69,-159.7 425.93,-165.91"/>
</a>
</g>
</g>
<!-- Node4 -->
<g id="Node000004" class="node">
<title>Node4</title>
<g id="a_Node000004"><a xlink:href="classediteurpanovisu_1_1NavigateurCarteGluon.html#afff3d7140d138311deb7ec3b54b2a071" target="_top" xlink:title="Ajoute un marqueur à la carte.">
<polygon fill="white" stroke="#666666" points="333.88,-182 198.62,-182 198.62,-150 333.88,-150 333.88,-182"/>
<text xml:space="preserve" text-anchor="start" x="206.62" y="-168.5" font-family="Helvetica,sans-Serif" font-size="10.00">editeurpanovisu.Navigateur</text>
<text xml:space="preserve" text-anchor="middle" x="266.25" y="-156.5" font-family="Helvetica,sans-Serif" font-size="10.00">CarteGluon.ajouteMarqueur</text>
</a>
</g>
</g>
<!-- Node1&#45;&gt;Node4 -->
<g id="edge3_Node000001_Node000004" class="edge">
<title>Node1&#45;&gt;Node4</title>
<g id="a_edge3_Node000001_Node000004"><a xlink:title=" ">
<path fill="none" stroke="#63b8ff" d="M386.37,-150.88C369.12,-153.07 350.98,-155.37 334.21,-157.5"/>
<polygon fill="#63b8ff" stroke="#63b8ff" points="386.57,-154.39 396.05,-149.65 385.69,-147.44 386.57,-154.39"/>
</a>
</g>
</g>
<!-- Node5 -->
<g id="Node000005" class="node">
<title>Node5</title>
<g id="a_Node000005"><a xlink:href="classediteurpanovisu_1_1NavigateurCarteGluon.html#add28d3b2d57dcf144e2e818c9eb5c97b" target="_top" xlink:title="Centre la carte sur des coordonnées géographiques avec zoom.">
<polygon fill="white" stroke="#666666" points="338.38,-132 194.12,-132 194.12,-100 338.38,-100 338.38,-132"/>
<text xml:space="preserve" text-anchor="start" x="202.12" y="-118.5" font-family="Helvetica,sans-Serif" font-size="10.00">editeurpanovisu.Navigateur</text>
<text xml:space="preserve" text-anchor="middle" x="266.25" y="-106.5" font-family="Helvetica,sans-Serif" font-size="10.00">CarteGluon.allerCoordonnees</text>
</a>
</g>
</g>
<!-- Node1&#45;&gt;Node5 -->
<g id="edge4_Node000001_Node000005" class="edge">
<title>Node1&#45;&gt;Node5</title>
<g id="a_edge4_Node000001_Node000005"><a xlink:title=" ">
<path fill="none" stroke="#63b8ff" d="M386.26,-131.1C370.53,-129.11 354.08,-127.02 338.6,-125.05"/>
<polygon fill="#63b8ff" stroke="#63b8ff" points="385.69,-134.56 396.05,-132.35 386.57,-127.61 385.69,-134.56"/>
</a>
</g>
</g>
<!-- Node6 -->
<g id="Node000006" class="node">
<title>Node6</title>
<g id="a_Node000006"><a xlink:href="classediteurpanovisu_1_1NavigateurCarteGluon.html#a72b2a64cef1c0fde6e1c61c6ba62b013" target="_top" xlink:title="Centre la carte sur des coordonnées géographiques.">
<polygon fill="white" stroke="#666666" points="338.38,-82 194.12,-82 194.12,-50 338.38,-50 338.38,-82"/>
<text xml:space="preserve" text-anchor="start" x="202.12" y="-68.5" font-family="Helvetica,sans-Serif" font-size="10.00">editeurpanovisu.Navigateur</text>
<text xml:space="preserve" text-anchor="middle" x="266.25" y="-56.5" font-family="Helvetica,sans-Serif" font-size="10.00">CarteGluon.allerCoordonnees</text>
</a>
</g>
</g>
<!-- Node1&#45;&gt;Node6 -->
<g id="edge5_Node000001_Node000006" class="edge">
<title>Node1&#45;&gt;Node6</title>
<g id="a_edge5_Node000001_Node000006"><a xlink:title=" ">
<path fill="none" stroke="#63b8ff" d="M424.36,-119.22C405.78,-109.68 383.15,-98.87 362,-91 353.71,-87.91 344.88,-85.05 336.07,-82.44"/>
<polygon fill="#63b8ff" stroke="#63b8ff" points="422.69,-122.3 433.17,-123.82 425.93,-116.09 422.69,-122.3"/>
</a>
</g>
</g>
<!-- Node9 -->
<g id="Node000009" class="node">
<title>Node9</title>
<g id="a_Node000009"><a xlink:href="classediteurpanovisu_1_1NavigateurCarteGluon.html#af18d8e43c743ad0f9cd2dbc190ee5341" target="_top" xlink:title="Définit le niveau de zoom.">
<polygon fill="white" stroke="#666666" points="333.5,-32 199,-32 199,0 333.5,0 333.5,-32"/>
<text xml:space="preserve" text-anchor="start" x="207" y="-18.5" font-family="Helvetica,sans-Serif" font-size="10.00">editeurpanovisu.Navigateur</text>
<text xml:space="preserve" text-anchor="middle" x="266.25" y="-6.5" font-family="Helvetica,sans-Serif" font-size="10.00">CarteGluon.choixZoom</text>
</a>
</g>
</g>
<!-- Node1&#45;&gt;Node9 -->
<g id="edge8_Node000001_Node000009" class="edge">
<title>Node1&#45;&gt;Node9</title>
<g id="a_edge8_Node000001_Node000009"><a xlink:title=" ">
<path fill="none" stroke="#63b8ff" d="M444.9,-115.7C426.12,-92.89 395.6,-60.06 362,-41 353.27,-36.05 343.53,-32.05 333.71,-28.83"/>
<polygon fill="#63b8ff" stroke="#63b8ff" points="442.03,-117.72 451.02,-123.33 447.49,-113.34 442.03,-117.72"/>
</a>
</g>
</g>
<!-- Node7 -->
<g id="Node000007" class="node">
<title>Node7</title>
<g id="a_Node000007"><a xlink:href="classediteurpanovisu_1_1NavigateurCarteGluon.html#a4aba6d55431480109c8e9f12582703ac" target="_top" xlink:title="Géocode une adresse et centre la carte dessus.">
<polygon fill="white" stroke="#666666" points="134.5,-107 0,-107 0,-75 134.5,-75 134.5,-107"/>
<text xml:space="preserve" text-anchor="start" x="8" y="-93.5" font-family="Helvetica,sans-Serif" font-size="10.00">editeurpanovisu.Navigateur</text>
<text xml:space="preserve" text-anchor="middle" x="67.25" y="-81.5" font-family="Helvetica,sans-Serif" font-size="10.00">CarteGluon.allerAdresse</text>
</a>
</g>
</g>
<!-- Node6&#45;&gt;Node7 -->
<g id="edge6_Node000006_Node000007" class="edge">
<title>Node6&#45;&gt;Node7</title>
<g id="a_edge6_Node000006_Node000007"><a xlink:title=" ">
<path fill="none" stroke="#63b8ff" d="M182.87,-76.45C166.85,-78.49 150.25,-80.59 134.82,-82.55"/>
<polygon fill="#63b8ff" stroke="#63b8ff" points="182.87,-79.98 192.35,-75.25 181.99,-73.04 182.87,-79.98"/>
</a>
</g>
</g>
<!-- Node8 -->
<g id="Node000008" class="node">
<title>Node8</title>
<g id="a_Node000008"><a xlink:href="classediteurpanovisu_1_1NavigateurCarteGluon.html#a1534bbf9a4b0d10d59d040f586a4f267" target="_top" xlink:title="Géocode une adresse avec zoom personnalisé">
<polygon fill="white" stroke="#666666" points="134.5,-57 0,-57 0,-25 134.5,-25 134.5,-57"/>
<text xml:space="preserve" text-anchor="start" x="8" y="-43.5" font-family="Helvetica,sans-Serif" font-size="10.00">editeurpanovisu.Navigateur</text>
<text xml:space="preserve" text-anchor="middle" x="67.25" y="-31.5" font-family="Helvetica,sans-Serif" font-size="10.00">CarteGluon.allerAdresse</text>
</a>
</g>
</g>
<!-- Node6&#45;&gt;Node8 -->
<g id="edge7_Node000006_Node000008" class="edge">
<title>Node6&#45;&gt;Node8</title>
<g id="a_edge7_Node000006_Node000008"><a xlink:title=" ">
<path fill="none" stroke="#63b8ff" d="M182.87,-55.55C166.85,-53.51 150.25,-51.41 134.82,-49.45"/>
<polygon fill="#63b8ff" stroke="#63b8ff" points="181.99,-58.96 192.35,-56.75 182.87,-52.02 181.99,-58.96"/>
</a>
</g>
</g>
</g>
</svg>

<g id="navigator" transform="translate(0 0)" fill="#404254">
  <rect fill="#f2f5e9" fill-opacity="0.5" stroke="#606060" stroke-width=".5" x="0" y="0" width="60" height="60"/>
  <use id="zoomplus" xlink:href="#zoomPlus" x="17" y="9" onmousedown="handleZoom(evt,'in')"/>
  <use id="zoomminus" xlink:href="#zoomMin" x="42" y="9" onmousedown="handleZoom(evt,'out')"/>
  <use id="reset" xlink:href="#resetDef" x="30" y="36" onmousedown="handleReset()"/>
   <use id="arrowup" xlink:href="#arrowUp" x="0" y="0" onmousedown="handlePan(0,-1)"/>
  <use id="arrowright" xlink:href="#arrowRight" x="0" y="0" onmousedown="handlePan(1,0)"/>
  <use id="arrowdown" xlink:href="#arrowDown" x="0" y="0" onmousedown="handlePan(0,1)"/>
  <use id="arrowleft" xlink:href="#arrowLeft" x="0" y="0" onmousedown="handlePan(-1,0)"/>
</g>
<svg viewBox="0 0 15 15" width="100%" height="30px" preserveAspectRatio="xMaxYMin meet">
 <g id="arrow_out" transform="scale(0.3 0.3)">
  <a xlink:href="classediteurpanovisu_1_1NavigateurCarteGluon_a550a7fc12fb8b19e05c58a529f134dd9_icgraph_org.svg" target="_base">
   <rect id="button" ry="5" rx="5" y="6" x="6" height="38" width="38"
        fill="#f2f5e9" fill-opacity="0.5" stroke="#606060" stroke-width="1.0"/>
   <path id="arrow"
     d="M 11.500037,31.436501 C 11.940474,20.09759 22.043105,11.32322 32.158766,21.979434 L 37.068811,17.246167 C 37.068811,17.246167 37.088388,32 37.088388,32 L 22.160133,31.978069 C 22.160133,31.978069 26.997745,27.140456 26.997745,27.140456 C 18.528582,18.264221 13.291696,25.230495 11.500037,31.436501 z"
     style="fill:#404040;"/>
  </a>
 </g>
</svg>

<style type='text/css'>
<![CDATA[
[data-mouse-over-selected='false'] { opacity: 0.7; }
[data-mouse-over-selected='true']  { opacity: 1.0; }
]]>
</style>
<script type="application/ecmascript"><![CDATA[
document.addEventListener('DOMContentLoaded', (event) => {
  highlightEdges();
  highlightAdjacentNodes();
});
]]></script>
</svg>
