<?xml version="1.0" encoding="UTF-8" standalone="no"?>
<!DOCTYPE svg PUBLIC "-//W3C//DTD SVG 1.1//EN"
 "http://www.w3.org/Graphics/SVG/1.1/DTD/svg11.dtd">
<!-- Generated by graphviz version 13.1.2 (20250808.2320)
 -->
<!-- Title: editeurpanovisu.EditeurPanovisu.setStrDernierRepertoireVisite Pages: 1 -->
<svg width="1291pt" height="62pt"
 viewBox="0.00 0.00 1291.00 62.00" xmlns="http://www.w3.org/2000/svg" xmlns:xlink="http://www.w3.org/1999/xlink">
<g id="graph0" class="graph" transform="scale(1 1) rotate(0) translate(4 58)">
<title>editeurpanovisu.EditeurPanovisu.setStrDernierRepertoireVisite</title>
<!-- Node1 -->
<g id="Node000001" class="node">
<title>Node1</title>
<g id="a_Node000001"><a xlink:title=" ">
<polygon fill="#999999" stroke="#666666" points="1282.5,-54 1107.5,-54 1107.5,-22 1282.5,-22 1282.5,-54"/>
<text xml:space="preserve" text-anchor="start" x="1115.5" y="-40.5" font-family="Helvetica,sans-Serif" font-size="10.00">editeurpanovisu.EditeurPanovisu.set</text>
<text xml:space="preserve" text-anchor="middle" x="1195" y="-28.5" font-family="Helvetica,sans-Serif" font-size="10.00">StrDernierRepertoireVisite</text>
</a>
</g>
</g>
<!-- Node2 -->
<g id="Node000002" class="node">
<title>Node2</title>
<g id="a_Node000002"><a xlink:href="classediteurpanovisu_1_1EditeurPanovisu.html#a94e36b9e9d09ab1a4c852b8a8cefa927" target="_top" xlink:title=" ">
<polygon fill="white" stroke="#666666" points="647.25,-54 456.5,-54 456.5,-22 647.25,-22 647.25,-54"/>
<text xml:space="preserve" text-anchor="start" x="464.5" y="-40.5" font-family="Helvetica,sans-Serif" font-size="10.00">editeurpanovisu.EditeurPanovisu.genere</text>
<text xml:space="preserve" text-anchor="middle" x="551.88" y="-28.5" font-family="Helvetica,sans-Serif" font-size="10.00">Visite</text>
</a>
</g>
</g>
<!-- Node1&#45;&gt;Node2 -->
<g id="edge1_Node000001_Node000002" class="edge">
<title>Node1&#45;&gt;Node2</title>
<g id="a_edge1_Node000001_Node000002"><a xlink:title=" ">
<path fill="none" stroke="#63b8ff" d="M1095.52,-40.62C1087.39,-40.77 1079.31,-40.9 1071.5,-41 923.39,-42.81 751.48,-41.06 647.52,-39.57"/>
<polygon fill="#63b8ff" stroke="#63b8ff" points="1095.57,-44.12 1105.5,-40.42 1095.43,-37.12 1095.57,-44.12"/>
</a>
</g>
</g>
<!-- Node5 -->
<g id="Node000005" class="node">
<title>Node5</title>
<g id="a_Node000005"><a xlink:href="classediteurpanovisu_1_1EditeurPanovisu.html#a6d5fd7170b4fe9e54f3606c9ce90a56a" target="_top" xlink:title=" ">
<polygon fill="white" stroke="#666666" points="1071.5,-32 900.25,-32 900.25,0 1071.5,0 1071.5,-32"/>
<text xml:space="preserve" text-anchor="start" x="908.25" y="-18.5" font-family="Helvetica,sans-Serif" font-size="10.00">editeurpanovisu.EditeurPanovisu.lis</text>
<text xml:space="preserve" text-anchor="middle" x="985.88" y="-6.5" font-family="Helvetica,sans-Serif" font-size="10.00">Preferences</text>
</a>
</g>
</g>
<!-- Node1&#45;&gt;Node5 -->
<g id="edge4_Node000001_Node000005" class="edge">
<title>Node1&#45;&gt;Node5</title>
<g id="a_edge4_Node000001_Node000005"><a xlink:title=" ">
<path fill="none" stroke="#63b8ff" d="M1095.82,-27.57C1087.84,-26.72 1079.81,-25.87 1071.93,-25.03"/>
<polygon fill="#63b8ff" stroke="#63b8ff" points="1095.24,-31.03 1105.56,-28.61 1095.98,-24.07 1095.24,-31.03"/>
</a>
</g>
</g>
<!-- Node3 -->
<g id="Node000003" class="node">
<title>Node3</title>
<g id="a_Node000003"><a xlink:href="classediteurpanovisu_1_1EditeurPanovisu.html#ac912b80c1f2ac97def60ff005c5c480b" target="_top" xlink:title=" ">
<polygon fill="white" stroke="#666666" points="420.5,-48 216.25,-48 216.25,-28 420.5,-28 420.5,-48"/>
<text xml:space="preserve" text-anchor="middle" x="318.38" y="-34.5" font-family="Helvetica,sans-Serif" font-size="10.00">editeurpanovisu.EditeurPanovisu.creeMenu</text>
</a>
</g>
</g>
<!-- Node2&#45;&gt;Node3 -->
<g id="edge2_Node000002_Node000003" class="edge">
<title>Node2&#45;&gt;Node3</title>
<g id="a_edge2_Node000002_Node000003"><a xlink:title=" ">
<path fill="none" stroke="#63b8ff" d="M444.54,-38C436.64,-38 428.69,-38 420.83,-38"/>
<polygon fill="#63b8ff" stroke="#63b8ff" points="444.53,-41.5 454.53,-38 444.53,-34.5 444.53,-41.5"/>
</a>
</g>
</g>
<!-- Node4 -->
<g id="Node000004" class="node">
<title>Node4</title>
<g id="a_Node000004"><a xlink:href="classediteurpanovisu_1_1EditeurPanovisu.html#a86c393eee88f54c694db994ddd85b90d" target="_top" xlink:title=" ">
<polygon fill="white" stroke="#666666" points="180.25,-54 0,-54 0,-22 180.25,-22 180.25,-54"/>
<text xml:space="preserve" text-anchor="start" x="8" y="-40.5" font-family="Helvetica,sans-Serif" font-size="10.00">editeurpanovisu.EditeurPanovisu.cree</text>
<text xml:space="preserve" text-anchor="middle" x="90.12" y="-28.5" font-family="Helvetica,sans-Serif" font-size="10.00">Environnement</text>
</a>
</g>
</g>
<!-- Node3&#45;&gt;Node4 -->
<g id="edge3_Node000003_Node000004" class="edge">
<title>Node3&#45;&gt;Node4</title>
<g id="a_edge3_Node000003_Node000004"><a xlink:title=" ">
<path fill="none" stroke="#63b8ff" d="M204.51,-38C196.49,-38 188.46,-38 180.6,-38"/>
<polygon fill="#63b8ff" stroke="#63b8ff" points="204.32,-41.5 214.32,-38 204.32,-34.5 204.32,-41.5"/>
</a>
</g>
</g>
<!-- Node6 -->
<g id="Node000006" class="node">
<title>Node6</title>
<g id="a_Node000006"><a xlink:href="classediteurpanovisu_1_1EditeurPanovisu.html#a2b3125ffe2e6291efacf19df6cb30a8d" target="_top" xlink:title=" ">
<polygon fill="white" stroke="#666666" points="864.25,-29 683.25,-29 683.25,-9 864.25,-9 864.25,-29"/>
<text xml:space="preserve" text-anchor="middle" x="773.75" y="-15.5" font-family="Helvetica,sans-Serif" font-size="10.00">editeurpanovisu.EditeurPanovisu.start</text>
</a>
</g>
</g>
<!-- Node5&#45;&gt;Node6 -->
<g id="edge5_Node000005_Node000006" class="edge">
<title>Node5&#45;&gt;Node6</title>
<g id="a_edge5_Node000005_Node000006"><a xlink:title=" ">
<path fill="none" stroke="#63b8ff" d="M888.76,-17.37C880.76,-17.49 872.69,-17.6 864.73,-17.72"/>
<polygon fill="#63b8ff" stroke="#63b8ff" points="888.55,-20.88 898.5,-17.23 888.45,-13.88 888.55,-20.88"/>
</a>
</g>
</g>
<!-- Node6&#45;&gt;Node2 -->
<g id="edge6_Node000006_Node000002" class="edge">
<title>Node6&#45;&gt;Node2</title>
<g id="a_edge6_Node000006_Node000002"><a xlink:title=" ">
<path fill="none" stroke="#63b8ff" d="M671.74,-27.73C663.73,-28.42 655.66,-29.12 647.7,-29.81"/>
<polygon fill="#63b8ff" stroke="#63b8ff" points="671.83,-31.23 681.49,-26.89 671.23,-24.26 671.83,-31.23"/>
</a>
</g>
</g>
</g>
</svg>
