<?xml version="1.0" encoding="UTF-8" standalone="no"?>
<!DOCTYPE svg PUBLIC "-//W3C//DTD SVG 1.1//EN"
 "http://www.w3.org/Graphics/SVG/1.1/DTD/svg11.dtd">
<!-- Generated by graphviz version 13.1.2 (20250808.2320)
 -->
<!-- Title: editeurpanovisu.GestionnaireInterfaceController.afficheFenetreAide Pages: 1 -->
<svg width="414pt" height="338pt"
 viewBox="0.00 0.00 414.00 338.00" xmlns="http://www.w3.org/2000/svg" xmlns:xlink="http://www.w3.org/1999/xlink">
<g id="graph0" class="graph" transform="scale(1 1) rotate(0) translate(4 334)">
<title>editeurpanovisu.GestionnaireInterfaceController.afficheFenetreAide</title>
<!-- Node1 -->
<g id="Node000001" class="node">
<title>Node1</title>
<g id="a_Node000001"><a xlink:title=" ">
<polygon fill="#999999" stroke="#666666" points="180.25,-190 0,-190 0,-158 180.25,-158 180.25,-190"/>
<text xml:space="preserve" text-anchor="start" x="8" y="-176.5" font-family="Helvetica,sans-Serif" font-size="10.00">editeurpanovisu.Gestionnaire</text>
<text xml:space="preserve" text-anchor="middle" x="90.12" y="-164.5" font-family="Helvetica,sans-Serif" font-size="10.00">InterfaceController.afficheFenetreAide</text>
</a>
</g>
</g>
<!-- Node2 -->
<g id="Node000002" class="node">
<title>Node2</title>
<g id="a_Node000002"><a xlink:href="classediteurpanovisu_1_1GestionnaireInterfaceController.html#a31e1d921184e3ac8f57645617785e5a9" target="_top" xlink:title=" ">
<polygon fill="white" stroke="#666666" points="393.5,-330 228.25,-330 228.25,-286 393.5,-286 393.5,-330"/>
<text xml:space="preserve" text-anchor="start" x="236.25" y="-316.5" font-family="Helvetica,sans-Serif" font-size="10.00">editeurpanovisu.Gestionnaire</text>
<text xml:space="preserve" text-anchor="start" x="236.25" y="-304.5" font-family="Helvetica,sans-Serif" font-size="10.00">InterfaceController.getFenetreAide</text>
<text xml:space="preserve" text-anchor="middle" x="310.88" y="-292.5" font-family="Helvetica,sans-Serif" font-size="10.00">Opacite</text>
</a>
</g>
</g>
<!-- Node1&#45;&gt;Node2 -->
<g id="edge1_Node000001_Node000002" class="edge">
<title>Node1&#45;&gt;Node2</title>
<g id="a_edge1_Node000001_Node000002"><a xlink:title=" ">
<path fill="none" stroke="#63b8ff" d="M107.06,-190.5C129.52,-212.91 172.65,-252.94 216.25,-277 218.74,-278.38 221.31,-279.7 223.92,-280.98"/>
<polygon fill="#63b8ff" stroke="#63b8ff" points="222.29,-284.09 232.84,-285.06 225.2,-277.72 222.29,-284.09"/>
</a>
</g>
</g>
<!-- Node3 -->
<g id="Node000003" class="node">
<title>Node3</title>
<g id="a_Node000003"><a xlink:href="classediteurpanovisu_1_1GestionnaireInterfaceController.html#ace92104fe3e416c4800fe1389072844c" target="_top" xlink:title=" ">
<polygon fill="white" stroke="#666666" points="405.5,-268 216.25,-268 216.25,-236 405.5,-236 405.5,-268"/>
<text xml:space="preserve" text-anchor="start" x="224.25" y="-254.5" font-family="Helvetica,sans-Serif" font-size="10.00">editeurpanovisu.Gestionnaire</text>
<text xml:space="preserve" text-anchor="middle" x="310.88" y="-242.5" font-family="Helvetica,sans-Serif" font-size="10.00">InterfaceController.getFenetreAidePosX</text>
</a>
</g>
</g>
<!-- Node1&#45;&gt;Node3 -->
<g id="edge2_Node000001_Node000003" class="edge">
<title>Node1&#45;&gt;Node3</title>
<g id="a_edge2_Node000001_Node000003"><a xlink:title=" ">
<path fill="none" stroke="#63b8ff" d="M126.21,-190.42C151.01,-201.64 185.24,-216.35 216.25,-227 221.58,-228.83 227.12,-230.61 232.73,-232.32"/>
<polygon fill="#63b8ff" stroke="#63b8ff" points="231.51,-235.61 242.09,-235.09 233.5,-228.9 231.51,-235.61"/>
</a>
</g>
</g>
<!-- Node4 -->
<g id="Node000004" class="node">
<title>Node4</title>
<g id="a_Node000004"><a xlink:href="classediteurpanovisu_1_1GestionnaireInterfaceController.html#a5435e48e4cd4f887b727e93c78b2fdc7" target="_top" xlink:title=" ">
<polygon fill="white" stroke="#666666" points="405.5,-218 216.25,-218 216.25,-186 405.5,-186 405.5,-218"/>
<text xml:space="preserve" text-anchor="start" x="224.25" y="-204.5" font-family="Helvetica,sans-Serif" font-size="10.00">editeurpanovisu.Gestionnaire</text>
<text xml:space="preserve" text-anchor="middle" x="310.88" y="-192.5" font-family="Helvetica,sans-Serif" font-size="10.00">InterfaceController.getFenetreAidePosY</text>
</a>
</g>
</g>
<!-- Node1&#45;&gt;Node4 -->
<g id="edge3_Node000001_Node000004" class="edge">
<title>Node1&#45;&gt;Node4</title>
<g id="a_edge3_Node000001_Node000004"><a xlink:title=" ">
<path fill="none" stroke="#63b8ff" d="M180.73,-185.47C188.59,-186.48 196.59,-187.5 204.56,-188.52"/>
<polygon fill="#63b8ff" stroke="#63b8ff" points="203.93,-191.97 214.29,-189.77 204.82,-185.02 203.93,-191.97"/>
</a>
</g>
</g>
<!-- Node5 -->
<g id="Node000005" class="node">
<title>Node5</title>
<g id="a_Node000005"><a xlink:href="classediteurpanovisu_1_1GestionnaireInterfaceController.html#aabbdd6a57567323654d852580dbd20ce" target="_top" xlink:title=" ">
<polygon fill="white" stroke="#666666" points="393.5,-168 228.25,-168 228.25,-124 393.5,-124 393.5,-168"/>
<text xml:space="preserve" text-anchor="start" x="236.25" y="-154.5" font-family="Helvetica,sans-Serif" font-size="10.00">editeurpanovisu.Gestionnaire</text>
<text xml:space="preserve" text-anchor="start" x="236.25" y="-142.5" font-family="Helvetica,sans-Serif" font-size="10.00">InterfaceController.getFenetreAide</text>
<text xml:space="preserve" text-anchor="middle" x="310.88" y="-130.5" font-family="Helvetica,sans-Serif" font-size="10.00">Taille</text>
</a>
</g>
</g>
<!-- Node1&#45;&gt;Node5 -->
<g id="edge4_Node000001_Node000005" class="edge">
<title>Node1&#45;&gt;Node5</title>
<g id="a_edge4_Node000001_Node000005"><a xlink:title=" ">
<path fill="none" stroke="#63b8ff" d="M180.73,-162.53C192.53,-161.02 204.65,-159.47 216.52,-157.95"/>
<polygon fill="#63b8ff" stroke="#63b8ff" points="216.82,-161.44 226.29,-156.7 215.93,-154.5 216.82,-161.44"/>
</a>
</g>
</g>
<!-- Node6 -->
<g id="Node000006" class="node">
<title>Node6</title>
<g id="a_Node000006"><a xlink:href="classediteurpanovisu_1_1GestionnaireInterfaceController.html#ab0b94455f451332ad6adf9569c940b8f" target="_top" xlink:title=" ">
<polygon fill="white" stroke="#666666" points="390.12,-106 231.62,-106 231.62,-62 390.12,-62 390.12,-106"/>
<text xml:space="preserve" text-anchor="start" x="239.62" y="-92.5" font-family="Helvetica,sans-Serif" font-size="10.00">editeurpanovisu.Gestionnaire</text>
<text xml:space="preserve" text-anchor="start" x="239.62" y="-80.5" font-family="Helvetica,sans-Serif" font-size="10.00">InterfaceController.getStrFenetre</text>
<text xml:space="preserve" text-anchor="middle" x="310.88" y="-68.5" font-family="Helvetica,sans-Serif" font-size="10.00">AideImage</text>
</a>
</g>
</g>
<!-- Node1&#45;&gt;Node6 -->
<g id="edge5_Node000001_Node000006" class="edge">
<title>Node1&#45;&gt;Node6</title>
<g id="a_edge5_Node000001_Node000006"><a xlink:title=" ">
<path fill="none" stroke="#63b8ff" d="M123.32,-157.5C148.31,-145.02 184.02,-127.88 216.25,-115 220.14,-113.45 224.13,-111.91 228.18,-110.4"/>
<polygon fill="#63b8ff" stroke="#63b8ff" points="229.38,-113.69 237.57,-106.97 226.98,-107.11 229.38,-113.69"/>
</a>
</g>
</g>
<!-- Node7 -->
<g id="Node000007" class="node">
<title>Node7</title>
<g id="a_Node000007"><a xlink:href="classediteurpanovisu_1_1GestionnaireInterfaceController.html#adef37e432b051aaa4111655694f0b140" target="_top" xlink:title=" ">
<polygon fill="white" stroke="#666666" points="393.12,-44 228.62,-44 228.62,0 393.12,0 393.12,-44"/>
<text xml:space="preserve" text-anchor="start" x="236.62" y="-30.5" font-family="Helvetica,sans-Serif" font-size="10.00">editeurpanovisu.Gestionnaire</text>
<text xml:space="preserve" text-anchor="start" x="236.62" y="-18.5" font-family="Helvetica,sans-Serif" font-size="10.00">InterfaceController.isbFenetreAide</text>
<text xml:space="preserve" text-anchor="middle" x="310.88" y="-6.5" font-family="Helvetica,sans-Serif" font-size="10.00">Personnalise</text>
</a>
</g>
</g>
<!-- Node1&#45;&gt;Node7 -->
<g id="edge6_Node000001_Node000007" class="edge">
<title>Node1&#45;&gt;Node7</title>
<g id="a_edge6_Node000001_Node000007"><a xlink:title=" ">
<path fill="none" stroke="#63b8ff" d="M103.96,-157.5C124.85,-131.7 168.68,-81.79 216.25,-53 218.25,-51.79 220.31,-50.62 222.41,-49.49"/>
<polygon fill="#63b8ff" stroke="#63b8ff" points="223.73,-52.74 231.13,-45.16 220.62,-46.47 223.73,-52.74"/>
</a>
</g>
</g>
</g>
</svg>
