<?xml version="1.0" encoding="UTF-8" standalone="no"?>
<!DOCTYPE svg PUBLIC "-//W3C//DTD SVG 1.1//EN"
 "http://www.w3.org/Graphics/SVG/1.1/DTD/svg11.dtd">
<!-- Generated by graphviz version 13.1.2 (20250808.2320)
 -->
<!-- Title: editeurpanovisu.EditeurPanovisu.genererDescriptionIA Pages: 1 -->
<svg width="1103pt" height="828pt"
 viewBox="0.00 0.00 1103.00 828.00" xmlns="http://www.w3.org/2000/svg" xmlns:xlink="http://www.w3.org/1999/xlink">
<g id="graph0" class="graph" transform="scale(1 1) rotate(0) translate(4 824)">
<title>editeurpanovisu.EditeurPanovisu.genererDescriptionIA</title>
<!-- Node1 -->
<g id="Node000001" class="node">
<title>Node1</title>
<g id="a_Node000001"><a xlink:title="Génère une description IA pour le panoramique courant.">
<polygon fill="#999999" stroke="#666666" points="193.75,-282 0,-282 0,-250 193.75,-250 193.75,-282"/>
<text xml:space="preserve" text-anchor="start" x="8" y="-268.5" font-family="Helvetica,sans-Serif" font-size="10.00">editeurpanovisu.EditeurPanovisu.generer</text>
<text xml:space="preserve" text-anchor="middle" x="96.88" y="-256.5" font-family="Helvetica,sans-Serif" font-size="10.00">DescriptionIA</text>
</a>
</g>
</g>
<!-- Node2 -->
<g id="Node000002" class="node">
<title>Node2</title>
<g id="a_Node000002"><a xlink:href="classediteurpanovisu_1_1OllamaService.html#af1a118f057c3cffef9ce91c7a428304e" target="_top" xlink:title="Génère une description géographique basée sur les informations disponibles IMPORTANT : Tient compte d...">
<polygon fill="white" stroke="#666666" points="416,-520 229.75,-520 229.75,-488 416,-488 416,-520"/>
<text xml:space="preserve" text-anchor="start" x="237.75" y="-506.5" font-family="Helvetica,sans-Serif" font-size="10.00">editeurpanovisu.OllamaService.generer</text>
<text xml:space="preserve" text-anchor="middle" x="322.88" y="-494.5" font-family="Helvetica,sans-Serif" font-size="10.00">Description</text>
</a>
</g>
</g>
<!-- Node1&#45;&gt;Node2 -->
<g id="edge1_Node000001_Node000002" class="edge">
<title>Node1&#45;&gt;Node2</title>
<g id="a_edge1_Node000001_Node000002"><a xlink:title=" ">
<path fill="none" stroke="#63b8ff" d="M103.79,-282.5C118.65,-321.66 161.36,-420.9 229.75,-474 233.93,-477.25 238.48,-480.15 243.23,-482.74"/>
<polygon fill="#63b8ff" stroke="#63b8ff" points="241.36,-485.72 251.88,-486.97 244.44,-479.44 241.36,-485.72"/>
</a>
</g>
</g>
<!-- Node17 -->
<g id="Node000017" class="node">
<title>Node17</title>
<g id="a_Node000017"><a xlink:href="classediteurpanovisu_1_1OllamaService.html#a5a3b422fe4f3c35957c5768ef48e6e29" target="_top" xlink:title="Retourne le nom du service actuellement utilisé">
<polygon fill="white" stroke="#666666" points="634.12,-445 466.62,-445 466.62,-413 634.12,-413 634.12,-445"/>
<text xml:space="preserve" text-anchor="start" x="474.62" y="-431.5" font-family="Helvetica,sans-Serif" font-size="10.00">editeurpanovisu.OllamaService.get</text>
<text xml:space="preserve" text-anchor="middle" x="550.38" y="-419.5" font-family="Helvetica,sans-Serif" font-size="10.00">ServiceName</text>
</a>
</g>
</g>
<!-- Node1&#45;&gt;Node17 -->
<g id="edge22_Node000001_Node000017" class="edge">
<title>Node1&#45;&gt;Node17</title>
<g id="a_edge22_Node000001_Node000017"><a xlink:title=" ">
<path fill="none" stroke="#63b8ff" d="M104.16,-282.31C119.26,-318.9 161.49,-406.97 229.75,-441 267.9,-460.02 375.25,-451.91 455.08,-442.37"/>
<polygon fill="#63b8ff" stroke="#63b8ff" points="455.14,-445.89 464.64,-441.2 454.29,-438.94 455.14,-445.89"/>
</a>
</g>
</g>
<!-- Node18 -->
<g id="Node000018" class="node">
<title>Node18</title>
<g id="a_Node000018"><a xlink:href="classediteurpanovisu_1_1EditeurPanovisu.html#af28f960b49fa3c90fdf1550b88acca3d" target="_top" xlink:title=" ">
<polygon fill="white" stroke="#666666" points="411.5,-432 234.25,-432 234.25,-400 411.5,-400 411.5,-432"/>
<text xml:space="preserve" text-anchor="start" x="242.25" y="-418.5" font-family="Helvetica,sans-Serif" font-size="10.00">editeurpanovisu.EditeurPanovisu.geti</text>
<text xml:space="preserve" text-anchor="middle" x="322.88" y="-406.5" font-family="Helvetica,sans-Serif" font-size="10.00">PanoActuel</text>
</a>
</g>
</g>
<!-- Node1&#45;&gt;Node18 -->
<g id="edge17_Node000001_Node000018" class="edge">
<title>Node1&#45;&gt;Node18</title>
<g id="a_edge17_Node000001_Node000018"><a xlink:title=" ">
<path fill="none" stroke="#63b8ff" d="M110.59,-282.48C132.16,-309.3 178.59,-362.26 229.75,-391 232.28,-392.42 234.89,-393.76 237.57,-395.03"/>
<polygon fill="#63b8ff" stroke="#63b8ff" points="236.18,-398.25 246.75,-398.98 238.94,-391.81 236.18,-398.25"/>
</a>
</g>
</g>
<!-- Node19 -->
<g id="Node000019" class="node">
<title>Node19</title>
<g id="a_Node000019"><a xlink:href="classediteurpanovisu_1_1CoordonneesGeographiques.html#af33141f53510962ac8c8bf3973ce8ed9" target="_top" xlink:title=" ">
<polygon fill="white" stroke="#666666" points="395.38,-382 250.38,-382 250.38,-350 395.38,-350 395.38,-382"/>
<text xml:space="preserve" text-anchor="start" x="258.38" y="-368.5" font-family="Helvetica,sans-Serif" font-size="10.00">editeurpanovisu.Coordonnees</text>
<text xml:space="preserve" text-anchor="middle" x="322.88" y="-356.5" font-family="Helvetica,sans-Serif" font-size="10.00">Geographiques.getLatitude</text>
</a>
</g>
</g>
<!-- Node1&#45;&gt;Node19 -->
<g id="edge18_Node000001_Node000019" class="edge">
<title>Node1&#45;&gt;Node19</title>
<g id="a_edge18_Node000001_Node000019"><a xlink:title=" ">
<path fill="none" stroke="#63b8ff" d="M122.2,-282.33C147.97,-299.02 190.3,-324.74 229.75,-341 234.06,-342.78 238.53,-344.46 243.08,-346.06"/>
<polygon fill="#63b8ff" stroke="#63b8ff" points="241.77,-349.31 252.37,-349.15 243.98,-342.67 241.77,-349.31"/>
</a>
</g>
</g>
<!-- Node20 -->
<g id="Node000020" class="node">
<title>Node20</title>
<g id="a_Node000020"><a xlink:href="classediteurpanovisu_1_1EditeurPanovisu.html#a8f545a8c9a8741859f1c67e68217bc62" target="_top" xlink:title=" ">
<polygon fill="white" stroke="#666666" points="410.38,-332 235.38,-332 235.38,-300 410.38,-300 410.38,-332"/>
<text xml:space="preserve" text-anchor="start" x="243.38" y="-318.5" font-family="Helvetica,sans-Serif" font-size="10.00">editeurpanovisu.EditeurPanovisu.get</text>
<text xml:space="preserve" text-anchor="middle" x="322.88" y="-306.5" font-family="Helvetica,sans-Serif" font-size="10.00">Locale</text>
</a>
</g>
</g>
<!-- Node1&#45;&gt;Node20 -->
<g id="edge19_Node000001_Node000020" class="edge">
<title>Node1&#45;&gt;Node20</title>
<g id="a_edge19_Node000001_Node000020"><a xlink:title=" ">
<path fill="none" stroke="#63b8ff" d="M171.53,-282.44C192.49,-287.12 215.48,-292.25 237.05,-297.07"/>
<polygon fill="#63b8ff" stroke="#63b8ff" points="236.17,-300.46 246.7,-299.22 237.7,-293.62 236.17,-300.46"/>
</a>
</g>
</g>
<!-- Node21 -->
<g id="Node000021" class="node">
<title>Node21</title>
<g id="a_Node000021"><a xlink:href="classediteurpanovisu_1_1CoordonneesGeographiques.html#a7f94a4bb132e0a244fccb8f29ff4688a" target="_top" xlink:title=" ">
<polygon fill="white" stroke="#666666" points="395.38,-282 250.38,-282 250.38,-250 395.38,-250 395.38,-282"/>
<text xml:space="preserve" text-anchor="start" x="258.38" y="-268.5" font-family="Helvetica,sans-Serif" font-size="10.00">editeurpanovisu.Coordonnees</text>
<text xml:space="preserve" text-anchor="middle" x="322.88" y="-256.5" font-family="Helvetica,sans-Serif" font-size="10.00">Geographiques.getLongitude</text>
</a>
</g>
</g>
<!-- Node1&#45;&gt;Node21 -->
<g id="edge20_Node000001_Node000021" class="edge">
<title>Node1&#45;&gt;Node21</title>
<g id="a_edge20_Node000001_Node000021"><a xlink:title=" ">
<path fill="none" stroke="#63b8ff" d="M194.17,-266C208.95,-266 224.11,-266 238.58,-266"/>
<polygon fill="#63b8ff" stroke="#63b8ff" points="238.5,-269.5 248.5,-266 238.5,-262.5 238.5,-269.5"/>
</a>
</g>
</g>
<!-- Node22 -->
<g id="Node000022" class="node">
<title>Node22</title>
<g id="a_Node000022"><a xlink:href="classediteurpanovisu_1_1EditeurPanovisu.html#a95e78d275440537393c4e23b1d0c42bb" target="_top" xlink:title=" ">
<polygon fill="white" stroke="#666666" points="410.38,-232 235.38,-232 235.38,-200 410.38,-200 410.38,-232"/>
<text xml:space="preserve" text-anchor="start" x="243.38" y="-218.5" font-family="Helvetica,sans-Serif" font-size="10.00">editeurpanovisu.EditeurPanovisu.get</text>
<text xml:space="preserve" text-anchor="middle" x="322.88" y="-206.5" font-family="Helvetica,sans-Serif" font-size="10.00">PanoramiquesProjet</text>
</a>
</g>
</g>
<!-- Node1&#45;&gt;Node22 -->
<g id="edge21_Node000001_Node000022" class="edge">
<title>Node1&#45;&gt;Node22</title>
<g id="a_edge21_Node000001_Node000022"><a xlink:title=" ">
<path fill="none" stroke="#63b8ff" d="M171.53,-249.56C192.49,-244.88 215.48,-239.75 237.05,-234.93"/>
<polygon fill="#63b8ff" stroke="#63b8ff" points="237.7,-238.38 246.7,-232.78 236.17,-231.54 237.7,-238.38"/>
</a>
</g>
</g>
<!-- Node23 -->
<g id="Node000023" class="node">
<title>Node23</title>
<g id="a_Node000023"><a xlink:href="classediteurpanovisu_1_1EditeurPanovisu.html#acf3c0ed89979b5a30e1b6e215cc87c07" target="_top" xlink:title=" ">
<polygon fill="white" stroke="#666666" points="410.38,-182 235.38,-182 235.38,-150 410.38,-150 410.38,-182"/>
<text xml:space="preserve" text-anchor="start" x="243.38" y="-168.5" font-family="Helvetica,sans-Serif" font-size="10.00">editeurpanovisu.EditeurPanovisu.get</text>
<text xml:space="preserve" text-anchor="middle" x="322.88" y="-156.5" font-family="Helvetica,sans-Serif" font-size="10.00">StPrincipal</text>
</a>
</g>
</g>
<!-- Node1&#45;&gt;Node23 -->
<g id="edge23_Node000001_Node000023" class="edge">
<title>Node1&#45;&gt;Node23</title>
<g id="a_edge23_Node000001_Node000023"><a xlink:title=" ">
<path fill="none" stroke="#63b8ff" d="M122.2,-249.67C147.97,-232.98 190.3,-207.26 229.75,-191 234.06,-189.22 238.53,-187.54 243.08,-185.94"/>
<polygon fill="#63b8ff" stroke="#63b8ff" points="243.98,-189.33 252.37,-182.85 241.77,-182.69 243.98,-189.33"/>
</a>
</g>
</g>
<!-- Node24 -->
<g id="Node000024" class="node">
<title>Node24</title>
<g id="a_Node000024"><a xlink:href="classediteurpanovisu_1_1EditeurPanovisu.html#a5240bc810eeff97f8c7271615c42ec44" target="_top" xlink:title=" ">
<polygon fill="white" stroke="#666666" points="410.38,-132 235.38,-132 235.38,-100 410.38,-100 410.38,-132"/>
<text xml:space="preserve" text-anchor="start" x="243.38" y="-118.5" font-family="Helvetica,sans-Serif" font-size="10.00">editeurpanovisu.EditeurPanovisu.get</text>
<text xml:space="preserve" text-anchor="middle" x="322.88" y="-106.5" font-family="Helvetica,sans-Serif" font-size="10.00">VbChoixPanoramique</text>
</a>
</g>
</g>
<!-- Node1&#45;&gt;Node24 -->
<g id="edge24_Node000001_Node000024" class="edge">
<title>Node1&#45;&gt;Node24</title>
<g id="a_edge24_Node000001_Node000024"><a xlink:title=" ">
<path fill="none" stroke="#63b8ff" d="M110.59,-249.52C132.16,-222.7 178.59,-169.74 229.75,-141 232.28,-139.58 234.89,-138.24 237.57,-136.97"/>
<polygon fill="#63b8ff" stroke="#63b8ff" points="238.94,-140.19 246.75,-133.02 236.18,-133.75 238.94,-140.19"/>
</a>
</g>
</g>
<!-- Node25 -->
<g id="Node000025" class="node">
<title>Node25</title>
<g id="a_Node000025"><a xlink:href="classediteurpanovisu_1_1OllamaService.html#a5a02f105166a354700bea7dd4ccfbe9c" target="_top" xlink:title="Vérifie si un service IA est disponible (Ollama ou Hugging Face)">
<polygon fill="white" stroke="#666666" points="403.62,-82 242.12,-82 242.12,-50 403.62,-50 403.62,-82"/>
<text xml:space="preserve" text-anchor="start" x="250.12" y="-68.5" font-family="Helvetica,sans-Serif" font-size="10.00">editeurpanovisu.OllamaService.is</text>
<text xml:space="preserve" text-anchor="middle" x="322.88" y="-56.5" font-family="Helvetica,sans-Serif" font-size="10.00">OllamaAvailable</text>
</a>
</g>
</g>
<!-- Node1&#45;&gt;Node25 -->
<g id="edge25_Node000001_Node000025" class="edge">
<title>Node1&#45;&gt;Node25</title>
<g id="a_edge25_Node000001_Node000025"><a xlink:title=" ">
<path fill="none" stroke="#63b8ff" d="M105.51,-249.62C122.6,-214.82 167.37,-133.22 229.75,-91 231.55,-89.78 233.41,-88.62 235.32,-87.52"/>
<polygon fill="#63b8ff" stroke="#63b8ff" points="236.54,-90.82 243.84,-83.15 233.34,-84.6 236.54,-90.82"/>
</a>
</g>
</g>
<!-- Node27 -->
<g id="Node000027" class="node">
<title>Node27</title>
<g id="a_Node000027"><a xlink:href="classediteurpanovisu_1_1EditeurPanovisu.html#a614d21e43616547c2cc7b804c4265dc8" target="_top" xlink:title=" ">
<polygon fill="white" stroke="#666666" points="413,-32 232.75,-32 232.75,0 413,0 413,-32"/>
<text xml:space="preserve" text-anchor="start" x="240.75" y="-18.5" font-family="Helvetica,sans-Serif" font-size="10.00">editeurpanovisu.EditeurPanovisu.setb</text>
<text xml:space="preserve" text-anchor="middle" x="322.88" y="-6.5" font-family="Helvetica,sans-Serif" font-size="10.00">DejaSauve</text>
</a>
</g>
</g>
<!-- Node1&#45;&gt;Node27 -->
<g id="edge28_Node000001_Node000027" class="edge">
<title>Node1&#45;&gt;Node27</title>
<g id="a_edge28_Node000001_Node000027"><a xlink:title=" ">
<path fill="none" stroke="#63b8ff" d="M102.62,-249.79C115.61,-208.28 155.84,-97.52 229.75,-41 231.11,-39.96 232.51,-38.97 233.94,-38.01"/>
<polygon fill="#63b8ff" stroke="#63b8ff" points="235.62,-41.09 242.53,-33.06 232.12,-35.02 235.62,-41.09"/>
</a>
</g>
</g>
<!-- Node3 -->
<g id="Node000003" class="node">
<title>Node3</title>
<g id="a_Node000003"><a xlink:href="classediteurpanovisu_1_1OllamaService.html#a95326db045c9dc203b3283e491ac844a" target="_top" xlink:title="Appelle l&#39;API appropriée (Ollama ou Hugging Face) pour générer le texte.">
<polygon fill="white" stroke="#666666" points="644.25,-545 456.5,-545 456.5,-513 644.25,-513 644.25,-545"/>
<text xml:space="preserve" text-anchor="start" x="464.5" y="-531.5" font-family="Helvetica,sans-Serif" font-size="10.00">editeurpanovisu.OllamaService.appeller</text>
<text xml:space="preserve" text-anchor="middle" x="550.38" y="-519.5" font-family="Helvetica,sans-Serif" font-size="10.00">Ollama</text>
</a>
</g>
</g>
<!-- Node2&#45;&gt;Node3 -->
<g id="edge2_Node000002_Node000003" class="edge">
<title>Node2&#45;&gt;Node3</title>
<g id="a_edge2_Node000002_Node000003"><a xlink:title=" ">
<path fill="none" stroke="#63b8ff" d="M416.25,-514.24C425.69,-515.29 435.33,-516.36 444.88,-517.42"/>
<polygon fill="#63b8ff" stroke="#63b8ff" points="444.22,-520.86 454.55,-518.49 445,-513.91 444.22,-520.86"/>
</a>
</g>
</g>
<!-- Node7 -->
<g id="Node000007" class="node">
<title>Node7</title>
<g id="a_Node000007"><a xlink:href="classediteurpanovisu_1_1OllamaService.html#a21849cc172a155f57c0ea097a4f3b6e9" target="_top" xlink:title="Construit le prompt pour Ollama selon les données disponibles et la langue Utilise le géocodage inver...">
<polygon fill="white" stroke="#666666" points="648.75,-495 452,-495 452,-463 648.75,-463 648.75,-495"/>
<text xml:space="preserve" text-anchor="start" x="460" y="-481.5" font-family="Helvetica,sans-Serif" font-size="10.00">editeurpanovisu.OllamaService.construire</text>
<text xml:space="preserve" text-anchor="middle" x="550.38" y="-469.5" font-family="Helvetica,sans-Serif" font-size="10.00">Prompt</text>
</a>
</g>
</g>
<!-- Node2&#45;&gt;Node7 -->
<g id="edge6_Node000002_Node000007" class="edge">
<title>Node2&#45;&gt;Node7</title>
<g id="a_edge6_Node000002_Node000007"><a xlink:title=" ">
<path fill="none" stroke="#63b8ff" d="M416.25,-493.76C424.18,-492.88 432.26,-491.98 440.31,-491.09"/>
<polygon fill="#63b8ff" stroke="#63b8ff" points="440.6,-494.58 450.15,-490 439.83,-487.62 440.6,-494.58"/>
</a>
</g>
</g>
<!-- Node9 -->
<g id="Node000009" class="node">
<title>Node9</title>
<g id="a_Node000009"><a xlink:href="classediteurpanovisu_1_1OllamaService.html#a024a97abb9fbff8d815dffbfe2acb1a3" target="_top" xlink:title="Géocodage inverse : convertit des coordonnées GPS en adresse/lieu réel Utilise l&#39;API LocationIQ (5000...">
<polygon fill="white" stroke="#666666" points="645.75,-620 455,-620 455,-588 645.75,-588 645.75,-620"/>
<text xml:space="preserve" text-anchor="start" x="463" y="-606.5" font-family="Helvetica,sans-Serif" font-size="10.00">editeurpanovisu.OllamaService.geocode</text>
<text xml:space="preserve" text-anchor="middle" x="550.38" y="-594.5" font-family="Helvetica,sans-Serif" font-size="10.00">Reverse</text>
</a>
</g>
</g>
<!-- Node2&#45;&gt;Node9 -->
<g id="edge8_Node000002_Node000009" class="edge">
<title>Node2&#45;&gt;Node9</title>
<g id="a_edge8_Node000002_Node000009"><a xlink:title=" ">
<path fill="none" stroke="#63b8ff" d="M360.86,-520.4C399.45,-537.51 460.07,-564.4 502.11,-583.04"/>
<polygon fill="#63b8ff" stroke="#63b8ff" points="500.43,-586.12 510.99,-586.98 503.26,-579.72 500.43,-586.12"/>
</a>
</g>
</g>
<!-- Node2&#45;&gt;Node17 -->
<g id="edge16_Node000002_Node000017" class="edge">
<title>Node2&#45;&gt;Node17</title>
<g id="a_edge16_Node000002_Node000017"><a xlink:title=" ">
<path fill="none" stroke="#63b8ff" d="M380.05,-487.61C392.08,-483.58 404.59,-478.97 416,-474 432.78,-466.69 435,-460.78 452,-454 456.55,-452.19 461.26,-450.47 466.06,-448.86"/>
<polygon fill="#63b8ff" stroke="#63b8ff" points="466.76,-452.31 475.22,-445.93 464.63,-445.64 466.76,-452.31"/>
</a>
</g>
</g>
<!-- Node4 -->
<g id="Node000004" class="node">
<title>Node4</title>
<g id="a_Node000004"><a xlink:href="classediteurpanovisu_1_1OllamaService.html#a1caed1d4412230dcd4e64455198fe5ce" target="_top" xlink:title="Appelle l&#39;API Ollama locale pour générer le texte.">
<polygon fill="white" stroke="#666666" points="872.5,-545 684.75,-545 684.75,-513 872.5,-513 872.5,-545"/>
<text xml:space="preserve" text-anchor="start" x="692.75" y="-531.5" font-family="Helvetica,sans-Serif" font-size="10.00">editeurpanovisu.OllamaService.appeller</text>
<text xml:space="preserve" text-anchor="middle" x="778.62" y="-519.5" font-family="Helvetica,sans-Serif" font-size="10.00">OllamaLocal</text>
</a>
</g>
</g>
<!-- Node3&#45;&gt;Node4 -->
<g id="edge3_Node000003_Node000004" class="edge">
<title>Node3&#45;&gt;Node4</title>
<g id="a_edge3_Node000003_Node000004"><a xlink:title=" ">
<path fill="none" stroke="#63b8ff" d="M644.71,-529C654.05,-529 663.58,-529 673.04,-529"/>
<polygon fill="#63b8ff" stroke="#63b8ff" points="673,-532.5 683,-529 673,-525.5 673,-532.5"/>
</a>
</g>
</g>
<!-- Node6 -->
<g id="Node000006" class="node">
<title>Node6</title>
<g id="a_Node000006"><a xlink:href="classediteurpanovisu_1_1OllamaService.html#ad46cd20a1434f44192b570bbbf272f2c" target="_top" xlink:title="Appelle OpenRouter API (accès unifié à GPT&#45;4, Claude, Gemini, etc.) Documentation: https://openrouter...">
<polygon fill="white" stroke="#666666" points="872.5,-495 684.75,-495 684.75,-463 872.5,-463 872.5,-495"/>
<text xml:space="preserve" text-anchor="start" x="692.75" y="-481.5" font-family="Helvetica,sans-Serif" font-size="10.00">editeurpanovisu.OllamaService.appeller</text>
<text xml:space="preserve" text-anchor="middle" x="778.62" y="-469.5" font-family="Helvetica,sans-Serif" font-size="10.00">OpenRouter</text>
</a>
</g>
</g>
<!-- Node3&#45;&gt;Node6 -->
<g id="edge5_Node000003_Node000006" class="edge">
<title>Node3&#45;&gt;Node6</title>
<g id="a_edge5_Node000003_Node000006"><a xlink:title=" ">
<path fill="none" stroke="#63b8ff" d="M625.77,-512.56C646.94,-507.88 670.16,-502.75 691.94,-497.93"/>
<polygon fill="#63b8ff" stroke="#63b8ff" points="692.7,-501.35 701.71,-495.78 691.19,-494.52 692.7,-501.35"/>
</a>
</g>
</g>
<!-- Node5 -->
<g id="Node000005" class="node">
<title>Node5</title>
<g id="a_Node000005"><a xlink:href="classediteurpanovisu_1_1OllamaService.html#a368a60df70b43652f89aaf8ffa1ec3fc" target="_top" xlink:title="Extrait la réponse du JSON retourné par Ollama.">
<polygon fill="white" stroke="#666666" points="1094.75,-520 908.5,-520 908.5,-488 1094.75,-488 1094.75,-520"/>
<text xml:space="preserve" text-anchor="start" x="916.5" y="-506.5" font-family="Helvetica,sans-Serif" font-size="10.00">editeurpanovisu.OllamaService.extraire</text>
<text xml:space="preserve" text-anchor="middle" x="1001.62" y="-494.5" font-family="Helvetica,sans-Serif" font-size="10.00">Reponse</text>
</a>
</g>
</g>
<!-- Node4&#45;&gt;Node5 -->
<g id="edge4_Node000004_Node000005" class="edge">
<title>Node4&#45;&gt;Node5</title>
<g id="a_edge4_Node000004_Node000005"><a xlink:title=" ">
<path fill="none" stroke="#63b8ff" d="M872.71,-518.47C880.65,-517.57 888.71,-516.66 896.72,-515.75"/>
<polygon fill="#63b8ff" stroke="#63b8ff" points="896.96,-519.25 906.5,-514.65 896.17,-512.29 896.96,-519.25"/>
</a>
</g>
</g>
<!-- Node8 -->
<g id="Node000008" class="node">
<title>Node8</title>
<g id="a_Node000008"><a xlink:href="leaflet_8js.html#a73aff07b65d7c0b09ccf6b4c4f1b7a9d" target="_top" xlink:title=" ">
<polygon fill="white" stroke="#666666" points="793.02,-345 764.23,-345 764.23,-325 793.02,-325 793.02,-345"/>
<text xml:space="preserve" text-anchor="middle" x="778.62" y="-331.5" font-family="Helvetica,sans-Serif" font-size="10.00">i</text>
</a>
</g>
</g>
<!-- Node7&#45;&gt;Node8 -->
<g id="edge7_Node000007_Node000008" class="edge">
<title>Node7&#45;&gt;Node8</title>
<g id="a_edge7_Node000007_Node000008"><a xlink:title=" ">
<path fill="none" stroke="#63b8ff" d="M629.77,-462.58C636.35,-460.1 642.77,-457.25 648.75,-454 696.4,-428.07 740.13,-380.61 762.33,-354.14"/>
<polygon fill="#63b8ff" stroke="#63b8ff" points="764.89,-356.53 768.54,-346.58 759.49,-352.08 764.89,-356.53"/>
</a>
</g>
</g>
<!-- Node10 -->
<g id="Node000010" class="node">
<title>Node10</title>
<g id="a_Node000010"><a xlink:href="classediteurpanovisu_1_1OllamaService.html#a57941e092d111027f496e6e9c39bfd9b" target="_top" xlink:title="Parse la réponse JSON de LocationIQ et construit une description structurée pour que l&#39;IA comprenne p...">
<polygon fill="white" stroke="#666666" points="869.12,-670 688.12,-670 688.12,-638 869.12,-638 869.12,-670"/>
<text xml:space="preserve" text-anchor="start" x="696.12" y="-656.5" font-family="Helvetica,sans-Serif" font-size="10.00">editeurpanovisu.OllamaService.parser</text>
<text xml:space="preserve" text-anchor="middle" x="778.62" y="-644.5" font-family="Helvetica,sans-Serif" font-size="10.00">LocationIQ</text>
</a>
</g>
</g>
<!-- Node9&#45;&gt;Node10 -->
<g id="edge9_Node000009_Node000010" class="edge">
<title>Node9&#45;&gt;Node10</title>
<g id="a_edge9_Node000009_Node000010"><a xlink:title=" ">
<path fill="none" stroke="#63b8ff" d="M625.77,-620.44C646.94,-625.12 670.16,-630.25 691.94,-635.07"/>
<polygon fill="#63b8ff" stroke="#63b8ff" points="691.19,-638.48 701.71,-637.22 692.7,-631.65 691.19,-638.48"/>
</a>
</g>
</g>
<!-- Node11 -->
<g id="Node000011" class="node">
<title>Node11</title>
<g id="a_Node000011"><a xlink:href="classediteurpanovisu_1_1OllamaService.html#a9d1bfef6a21fd06e94ebc7fe05ef063a" target="_top" xlink:title="Extrait un champ d&#39;un JSON simple (sans bibliothèque)">
<polygon fill="white" stroke="#666666" points="1094.75,-770 908.5,-770 908.5,-738 1094.75,-738 1094.75,-770"/>
<text xml:space="preserve" text-anchor="start" x="916.5" y="-756.5" font-family="Helvetica,sans-Serif" font-size="10.00">editeurpanovisu.OllamaService.extraire</text>
<text xml:space="preserve" text-anchor="middle" x="1001.62" y="-744.5" font-family="Helvetica,sans-Serif" font-size="10.00">Champ</text>
</a>
</g>
</g>
<!-- Node10&#45;&gt;Node11 -->
<g id="edge10_Node000010_Node000011" class="edge">
<title>Node10&#45;&gt;Node11</title>
<g id="a_edge10_Node000010_Node000011"><a xlink:title=" ">
<path fill="none" stroke="#63b8ff" d="M803.34,-670.37C828.48,-687.09 869.81,-712.82 908.5,-729 912.6,-730.71 916.85,-732.34 921.17,-733.88"/>
<polygon fill="#63b8ff" stroke="#63b8ff" points="920,-737.18 930.59,-737.06 922.23,-730.55 920,-737.18"/>
</a>
</g>
</g>
<!-- Node12 -->
<g id="Node000012" class="node">
<title>Node12</title>
<g id="a_Node000012"><a xlink:href="classediteurpanovisu_1_1OllamaService.html#aae59c2bcef5290e5fd738b6a32df0deb" target="_top" xlink:title="Traduit les types de loisirs OpenStreetMap en français explicite.">
<polygon fill="white" stroke="#666666" points="1086.88,-720 916.38,-720 916.38,-688 1086.88,-688 1086.88,-720"/>
<text xml:space="preserve" text-anchor="start" x="924.38" y="-706.5" font-family="Helvetica,sans-Serif" font-size="10.00">editeurpanovisu.OllamaService.trad</text>
<text xml:space="preserve" text-anchor="middle" x="1001.62" y="-694.5" font-family="Helvetica,sans-Serif" font-size="10.00">TypeEau</text>
</a>
</g>
</g>
<!-- Node10&#45;&gt;Node12 -->
<g id="edge11_Node000010_Node000012" class="edge">
<title>Node10&#45;&gt;Node12</title>
<g id="a_edge11_Node000010_Node000012"><a xlink:title=" ">
<path fill="none" stroke="#63b8ff" d="M852.29,-670.44C872.97,-675.12 895.66,-680.25 916.93,-685.07"/>
<polygon fill="#63b8ff" stroke="#63b8ff" points="915.91,-688.42 926.44,-687.21 917.45,-681.59 915.91,-688.42"/>
</a>
</g>
</g>
<!-- Node13 -->
<g id="Node000013" class="node">
<title>Node13</title>
<g id="a_Node000013"><a xlink:href="classediteurpanovisu_1_1OllamaService.html#a3d34a2f19068dcc51d9feac8b9254d27" target="_top" xlink:title="Traduit les types historiques OpenStreetMap en français explicite.">
<polygon fill="white" stroke="#666666" points="1086.88,-670 916.38,-670 916.38,-638 1086.88,-638 1086.88,-670"/>
<text xml:space="preserve" text-anchor="start" x="924.38" y="-656.5" font-family="Helvetica,sans-Serif" font-size="10.00">editeurpanovisu.OllamaService.trad</text>
<text xml:space="preserve" text-anchor="middle" x="1001.62" y="-644.5" font-family="Helvetica,sans-Serif" font-size="10.00">TypeHistorique</text>
</a>
</g>
</g>
<!-- Node10&#45;&gt;Node13 -->
<g id="edge12_Node000010_Node000013" class="edge">
<title>Node10&#45;&gt;Node13</title>
<g id="a_edge12_Node000010_Node000013"><a xlink:title=" ">
<path fill="none" stroke="#63b8ff" d="M869.51,-654C881.2,-654 893.2,-654 904.97,-654"/>
<polygon fill="#63b8ff" stroke="#63b8ff" points="904.65,-657.5 914.65,-654 904.65,-650.5 904.65,-657.5"/>
</a>
</g>
</g>
<!-- Node14 -->
<g id="Node000014" class="node">
<title>Node14</title>
<g id="a_Node000014"><a xlink:href="classediteurpanovisu_1_1OllamaService.html#a19776a7be81e39cdd5656dc7136e9831" target="_top" xlink:title="Traduit les types de loisirs OpenStreetMap en français explicite.">
<polygon fill="white" stroke="#666666" points="1086.88,-620 916.38,-620 916.38,-588 1086.88,-588 1086.88,-620"/>
<text xml:space="preserve" text-anchor="start" x="924.38" y="-606.5" font-family="Helvetica,sans-Serif" font-size="10.00">editeurpanovisu.OllamaService.trad</text>
<text xml:space="preserve" text-anchor="middle" x="1001.62" y="-594.5" font-family="Helvetica,sans-Serif" font-size="10.00">TypeLoisir</text>
</a>
</g>
</g>
<!-- Node10&#45;&gt;Node14 -->
<g id="edge13_Node000010_Node000014" class="edge">
<title>Node10&#45;&gt;Node14</title>
<g id="a_edge13_Node000010_Node000014"><a xlink:title=" ">
<path fill="none" stroke="#63b8ff" d="M852.29,-637.56C872.97,-632.88 895.66,-627.75 916.93,-622.93"/>
<polygon fill="#63b8ff" stroke="#63b8ff" points="917.45,-626.41 926.44,-620.79 915.91,-619.58 917.45,-626.41"/>
</a>
</g>
</g>
<!-- Node15 -->
<g id="Node000015" class="node">
<title>Node15</title>
<g id="a_Node000015"><a xlink:href="classediteurpanovisu_1_1OllamaService.html#ab0951b52de12ed6761a3e5bb505a2721" target="_top" xlink:title="Traduit les types naturels OpenStreetMap en français explicite.">
<polygon fill="white" stroke="#666666" points="1086.88,-570 916.38,-570 916.38,-538 1086.88,-538 1086.88,-570"/>
<text xml:space="preserve" text-anchor="start" x="924.38" y="-556.5" font-family="Helvetica,sans-Serif" font-size="10.00">editeurpanovisu.OllamaService.trad</text>
<text xml:space="preserve" text-anchor="middle" x="1001.62" y="-544.5" font-family="Helvetica,sans-Serif" font-size="10.00">TypeNaturel</text>
</a>
</g>
</g>
<!-- Node10&#45;&gt;Node15 -->
<g id="edge14_Node000010_Node000015" class="edge">
<title>Node10&#45;&gt;Node15</title>
<g id="a_edge14_Node000010_Node000015"><a xlink:title=" ">
<path fill="none" stroke="#63b8ff" d="M803.34,-637.63C828.48,-620.91 869.81,-595.18 908.5,-579 912.6,-577.29 916.85,-575.66 921.17,-574.12"/>
<polygon fill="#63b8ff" stroke="#63b8ff" points="922.23,-577.45 930.59,-570.94 920,-570.82 922.23,-577.45"/>
</a>
</g>
</g>
<!-- Node16 -->
<g id="Node000016" class="node">
<title>Node16</title>
<g id="a_Node000016"><a xlink:href="classediteurpanovisu_1_1OllamaService.html#ad4f002f4d6ccc1eaac2280eec8f3b250" target="_top" xlink:title="Traduit les types de tourisme OpenStreetMap en français explicite.">
<polygon fill="white" stroke="#666666" points="1086.88,-820 916.38,-820 916.38,-788 1086.88,-788 1086.88,-820"/>
<text xml:space="preserve" text-anchor="start" x="924.38" y="-806.5" font-family="Helvetica,sans-Serif" font-size="10.00">editeurpanovisu.OllamaService.trad</text>
<text xml:space="preserve" text-anchor="middle" x="1001.62" y="-794.5" font-family="Helvetica,sans-Serif" font-size="10.00">TypeTourisme</text>
</a>
</g>
</g>
<!-- Node10&#45;&gt;Node16 -->
<g id="edge15_Node000010_Node000016" class="edge">
<title>Node10&#45;&gt;Node16</title>
<g id="a_edge15_Node000010_Node000016"><a xlink:title=" ">
<path fill="none" stroke="#63b8ff" d="M791.96,-670.49C812.91,-697.33 858.12,-750.32 908.5,-779 911.02,-780.43 913.63,-781.79 916.3,-783.07"/>
<polygon fill="#63b8ff" stroke="#63b8ff" points="914.89,-786.28 925.46,-787.04 917.68,-779.85 914.89,-786.28"/>
</a>
</g>
</g>
<!-- Node26 -->
<g id="Node000026" class="node">
<title>Node26</title>
<g id="a_Node000026"><a xlink:href="classediteurpanovisu_1_1OllamaService.html#a3c02edbb2bc9e72804627518163b544a" target="_top" xlink:title="Détecte automatiquement le meilleur modèle Ollama installé Priorise les modèles les plus fiables pour...">
<polygon fill="white" stroke="#666666" points="645,-251 455.75,-251 455.75,-219 645,-219 645,-251"/>
<text xml:space="preserve" text-anchor="start" x="463.75" y="-237.5" font-family="Helvetica,sans-Serif" font-size="10.00">editeurpanovisu.OllamaService.detecter</text>
<text xml:space="preserve" text-anchor="middle" x="550.38" y="-225.5" font-family="Helvetica,sans-Serif" font-size="10.00">ModeleOllama</text>
</a>
</g>
</g>
<!-- Node25&#45;&gt;Node26 -->
<g id="edge26_Node000025_Node000026" class="edge">
<title>Node25&#45;&gt;Node26</title>
<g id="a_edge26_Node000025_Node000026"><a xlink:title=" ">
<path fill="none" stroke="#63b8ff" d="M398.79,-82.42C404.79,-84.89 410.61,-87.74 416,-91 466.72,-121.7 510.11,-177.19 532.7,-209.59"/>
<polygon fill="#63b8ff" stroke="#63b8ff" points="529.64,-211.32 538.18,-217.6 535.42,-207.37 529.64,-211.32"/>
</a>
</g>
</g>
<!-- Node26&#45;&gt;Node8 -->
<g id="edge27_Node000026_Node000008" class="edge">
<title>Node26&#45;&gt;Node8</title>
<g id="a_edge27_Node000026_Node000008"><a xlink:title=" ">
<path fill="none" stroke="#63b8ff" d="M588.48,-251.4C635.26,-272.08 714.33,-307.02 753.76,-324.45"/>
<polygon fill="#63b8ff" stroke="#63b8ff" points="752.27,-327.62 762.83,-328.46 755.1,-321.22 752.27,-327.62"/>
</a>
</g>
</g>
</g>
</svg>
