<?xml version="1.0" encoding="UTF-8" standalone="no"?>
<!DOCTYPE svg PUBLIC "-//W3C//DTD SVG 1.1//EN"
 "http://www.w3.org/Graphics/SVG/1.1/DTD/svg11.dtd">
<!-- Generated by graphviz version 13.1.2 (20250808.2320)
 -->
<!-- Title: editeurpanovisu.ThemeManager.toggleDarkMode Pages: 1 -->
<svg width="843pt" height="328pt"
 viewBox="0.00 0.00 843.00 328.00" xmlns="http://www.w3.org/2000/svg" xmlns:xlink="http://www.w3.org/1999/xlink">
<g id="graph0" class="graph" transform="scale(1 1) rotate(0) translate(4 324)">
<title>editeurpanovisu.ThemeManager.toggleDarkMode</title>
<!-- Node1 -->
<g id="Node000001" class="node">
<title>Node1</title>
<g id="a_Node000001"><a xlink:title="Bascule entre thème clair et sombre (utilise les thèmes Primer par défaut)">
<polygon fill="#999999" stroke="#666666" points="184,-182 0,-182 0,-150 184,-150 184,-182"/>
<text xml:space="preserve" text-anchor="start" x="8" y="-168.5" font-family="Helvetica,sans-Serif" font-size="10.00">editeurpanovisu.ThemeManager.toggle</text>
<text xml:space="preserve" text-anchor="middle" x="92" y="-156.5" font-family="Helvetica,sans-Serif" font-size="10.00">DarkMode</text>
</a>
</g>
</g>
<!-- Node2 -->
<g id="Node000002" class="node">
<title>Node2</title>
<g id="a_Node000002"><a xlink:href="classediteurpanovisu_1_1ThemeManager.html#a5e8923bdccce312cd3cad810c607135f" target="_top" xlink:title="Applique un thème à une scène JavaFX.">
<polygon fill="white" stroke="#666666" points="401,-182 220,-182 220,-150 401,-150 401,-182"/>
<text xml:space="preserve" text-anchor="start" x="228" y="-168.5" font-family="Helvetica,sans-Serif" font-size="10.00">editeurpanovisu.ThemeManager.apply</text>
<text xml:space="preserve" text-anchor="middle" x="310.5" y="-156.5" font-family="Helvetica,sans-Serif" font-size="10.00">Theme</text>
</a>
</g>
</g>
<!-- Node1&#45;&gt;Node2 -->
<g id="edge1_Node000001_Node000002" class="edge">
<title>Node1&#45;&gt;Node2</title>
<g id="a_edge1_Node000001_Node000002"><a xlink:title=" ">
<path fill="none" stroke="#63b8ff" d="M184.19,-166C192.2,-166 200.34,-166 208.43,-166"/>
<polygon fill="#63b8ff" stroke="#63b8ff" points="208.29,-169.5 218.29,-166 208.29,-162.5 208.29,-169.5"/>
</a>
</g>
</g>
<!-- Node3 -->
<g id="Node000003" class="node">
<title>Node3</title>
<g id="a_Node000003"><a xlink:href="classediteurpanovisu_1_1ThemeManager.html#afd4bdeb257d4dc5f4974ac2b7ea52ba7" target="_top" xlink:title="Ajoute des styles personnalisés complémentaires pour les composants spécifiques de l&#39;application.">
<polygon fill="white" stroke="#666666" points="614.25,-320 440.75,-320 440.75,-288 614.25,-288 614.25,-320"/>
<text xml:space="preserve" text-anchor="start" x="448.75" y="-306.5" font-family="Helvetica,sans-Serif" font-size="10.00">editeurpanovisu.ThemeManager.add</text>
<text xml:space="preserve" text-anchor="middle" x="527.5" y="-294.5" font-family="Helvetica,sans-Serif" font-size="10.00">CustomStyles</text>
</a>
</g>
</g>
<!-- Node2&#45;&gt;Node3 -->
<g id="edge2_Node000002_Node000003" class="edge">
<title>Node2&#45;&gt;Node3</title>
<g id="a_edge2_Node000002_Node000003"><a xlink:title=" ">
<path fill="none" stroke="#63b8ff" d="M326.22,-182.14C348.25,-205.42 392.02,-248.43 437,-274 443.08,-277.46 449.61,-280.59 456.29,-283.42"/>
<polygon fill="#63b8ff" stroke="#63b8ff" points="454.85,-286.62 465.44,-287.05 457.43,-280.11 454.85,-286.62"/>
</a>
</g>
</g>
<!-- Node4 -->
<g id="Node000004" class="node">
<title>Node4</title>
<g id="a_Node000004"><a xlink:href="classediteurpanovisu_1_1ThemeManager.html#a14f6bcaa7772dbe0a9895a52a392625f" target="_top" xlink:title="Applique un thème AtlantaFX.">
<polygon fill="white" stroke="#666666" points="835,-182 654,-182 654,-150 835,-150 835,-182"/>
<text xml:space="preserve" text-anchor="start" x="662" y="-168.5" font-family="Helvetica,sans-Serif" font-size="10.00">editeurpanovisu.ThemeManager.apply</text>
<text xml:space="preserve" text-anchor="middle" x="744.5" y="-156.5" font-family="Helvetica,sans-Serif" font-size="10.00">AtlantaFXTheme</text>
</a>
</g>
</g>
<!-- Node2&#45;&gt;Node4 -->
<g id="edge3_Node000002_Node000004" class="edge">
<title>Node2&#45;&gt;Node4</title>
<g id="a_edge3_Node000002_Node000004"><a xlink:title=" ">
<path fill="none" stroke="#63b8ff" d="M331.22,-182.47C354.69,-200.9 395.89,-229.65 437,-241 514.54,-262.41 540.46,-262.41 618,-241 654.29,-230.98 690.65,-207.4 714.83,-189.33"/>
<polygon fill="#63b8ff" stroke="#63b8ff" points="716.77,-192.25 722.58,-183.39 712.51,-186.7 716.77,-192.25"/>
</a>
</g>
</g>
<!-- Node5 -->
<g id="Node000005" class="node">
<title>Node5</title>
<g id="a_Node000005"><a xlink:href="classediteurpanovisu_1_1ThemeManager.html#a44ee3b09a7f6b1960fdcbef28902dc35" target="_top" xlink:title="Applique un thème personnalisé (CSS legacy)">
<polygon fill="white" stroke="#666666" points="618,-232 437,-232 437,-200 618,-200 618,-232"/>
<text xml:space="preserve" text-anchor="start" x="445" y="-218.5" font-family="Helvetica,sans-Serif" font-size="10.00">editeurpanovisu.ThemeManager.apply</text>
<text xml:space="preserve" text-anchor="middle" x="527.5" y="-206.5" font-family="Helvetica,sans-Serif" font-size="10.00">CustomTheme</text>
</a>
</g>
</g>
<!-- Node2&#45;&gt;Node5 -->
<g id="edge4_Node000002_Node000005" class="edge">
<title>Node2&#45;&gt;Node5</title>
<g id="a_edge4_Node000002_Node000005"><a xlink:title=" ">
<path fill="none" stroke="#63b8ff" d="M382.2,-182.44C402.22,-187.1 424.18,-192.2 444.8,-197"/>
<polygon fill="#63b8ff" stroke="#63b8ff" points="443.75,-200.35 454.29,-199.21 445.34,-193.53 443.75,-200.35"/>
</a>
</g>
</g>
<!-- Node6 -->
<g id="Node000006" class="node">
<title>Node6</title>
<g id="a_Node000006"><a xlink:href="classediteurpanovisu_1_1ThemeManager.html#ac773b6d34662ca4f15efee8230dd4fed" target="_top" xlink:title="Applique un thème FlatLaf.">
<polygon fill="white" stroke="#666666" points="618,-182 437,-182 437,-150 618,-150 618,-182"/>
<text xml:space="preserve" text-anchor="start" x="445" y="-168.5" font-family="Helvetica,sans-Serif" font-size="10.00">editeurpanovisu.ThemeManager.apply</text>
<text xml:space="preserve" text-anchor="middle" x="527.5" y="-156.5" font-family="Helvetica,sans-Serif" font-size="10.00">FlatLafTheme</text>
</a>
</g>
</g>
<!-- Node2&#45;&gt;Node6 -->
<g id="edge5_Node000002_Node000006" class="edge">
<title>Node2&#45;&gt;Node6</title>
<g id="a_edge5_Node000002_Node000006"><a xlink:title=" ">
<path fill="none" stroke="#63b8ff" d="M401.43,-166C409.24,-166 417.18,-166 425.07,-166"/>
<polygon fill="#63b8ff" stroke="#63b8ff" points="425.07,-169.5 435.07,-166 425.07,-162.5 425.07,-169.5"/>
</a>
</g>
</g>
<!-- Node7 -->
<g id="Node000007" class="node">
<title>Node7</title>
<g id="a_Node000007"><a xlink:href="classediteurpanovisu_1_1ThemeManager.html#a9d8b4213c67946a529741ac1e9362c55" target="_top" xlink:title="Applique un thème MaterialFX.">
<polygon fill="white" stroke="#666666" points="618,-132 437,-132 437,-100 618,-100 618,-132"/>
<text xml:space="preserve" text-anchor="start" x="445" y="-118.5" font-family="Helvetica,sans-Serif" font-size="10.00">editeurpanovisu.ThemeManager.apply</text>
<text xml:space="preserve" text-anchor="middle" x="527.5" y="-106.5" font-family="Helvetica,sans-Serif" font-size="10.00">MaterialFXTheme</text>
</a>
</g>
</g>
<!-- Node2&#45;&gt;Node7 -->
<g id="edge7_Node000002_Node000007" class="edge">
<title>Node2&#45;&gt;Node7</title>
<g id="a_edge7_Node000002_Node000007"><a xlink:title=" ">
<path fill="none" stroke="#63b8ff" d="M382.2,-149.56C402.22,-144.9 424.18,-139.8 444.8,-135"/>
<polygon fill="#63b8ff" stroke="#63b8ff" points="445.34,-138.47 454.29,-132.79 443.75,-131.65 445.34,-138.47"/>
</a>
</g>
</g>
<!-- Node8 -->
<g id="Node000008" class="node">
<title>Node8</title>
<g id="a_Node000008"><a xlink:href="classediteurpanovisu_1_1ThemeManager.html#af5771c5a56ec049ce335c9a9bb76b47d" target="_top" xlink:title="Nettoie toutes les classes CSS du root.">
<polygon fill="white" stroke="#666666" points="618,-82 437,-82 437,-50 618,-50 618,-82"/>
<text xml:space="preserve" text-anchor="start" x="445" y="-68.5" font-family="Helvetica,sans-Serif" font-size="10.00">editeurpanovisu.ThemeManager.clean</text>
<text xml:space="preserve" text-anchor="middle" x="527.5" y="-56.5" font-family="Helvetica,sans-Serif" font-size="10.00">RootClasses</text>
</a>
</g>
</g>
<!-- Node2&#45;&gt;Node8 -->
<g id="edge9_Node000002_Node000008" class="edge">
<title>Node2&#45;&gt;Node8</title>
<g id="a_edge9_Node000002_Node000008"><a xlink:title=" ">
<path fill="none" stroke="#63b8ff" d="M334.55,-149.65C359,-132.95 399.22,-107.22 437,-91 440.97,-89.29 445.09,-87.67 449.29,-86.13"/>
<polygon fill="#63b8ff" stroke="#63b8ff" points="450.09,-89.56 458.4,-82.98 447.8,-82.94 450.09,-89.56"/>
</a>
</g>
</g>
<!-- Node9 -->
<g id="Node000009" class="node">
<title>Node9</title>
<g id="a_Node000009"><a xlink:href="classediteurpanovisu_1_1ThemeManager.html#a539715f04c7d0e5411fb62afef4e6ba2" target="_top" xlink:title="Sauvegarde le thème dans les préférences.">
<polygon fill="white" stroke="#666666" points="616.88,-32 438.12,-32 438.12,0 616.88,0 616.88,-32"/>
<text xml:space="preserve" text-anchor="start" x="446.12" y="-18.5" font-family="Helvetica,sans-Serif" font-size="10.00">editeurpanovisu.ThemeManager.save</text>
<text xml:space="preserve" text-anchor="middle" x="527.5" y="-6.5" font-family="Helvetica,sans-Serif" font-size="10.00">ThemePreference</text>
</a>
</g>
</g>
<!-- Node2&#45;&gt;Node9 -->
<g id="edge10_Node000002_Node000009" class="edge">
<title>Node2&#45;&gt;Node9</title>
<g id="a_edge10_Node000002_Node000009"><a xlink:title=" ">
<path fill="none" stroke="#63b8ff" d="M323.44,-149.54C343.73,-122.74 387.59,-69.81 437,-41 439.35,-39.63 441.78,-38.33 444.27,-37.1"/>
<polygon fill="#63b8ff" stroke="#63b8ff" points="445.69,-40.3 453.4,-33.03 442.84,-33.91 445.69,-40.3"/>
</a>
</g>
</g>
<!-- Node6&#45;&gt;Node4 -->
<g id="edge6_Node000006_Node000004" class="edge">
<title>Node6&#45;&gt;Node4</title>
<g id="a_edge6_Node000006_Node000004"><a xlink:title=" ">
<path fill="none" stroke="#63b8ff" d="M618.43,-166C626.24,-166 634.18,-166 642.07,-166"/>
<polygon fill="#63b8ff" stroke="#63b8ff" points="642.07,-169.5 652.07,-166 642.07,-162.5 642.07,-169.5"/>
</a>
</g>
</g>
<!-- Node7&#45;&gt;Node4 -->
<g id="edge8_Node000007_Node000004" class="edge">
<title>Node7&#45;&gt;Node4</title>
<g id="a_edge8_Node000007_Node000004"><a xlink:title=" ">
<path fill="none" stroke="#63b8ff" d="M599.2,-132.44C619.22,-137.1 641.18,-142.2 661.8,-147"/>
<polygon fill="#63b8ff" stroke="#63b8ff" points="660.75,-150.35 671.29,-149.21 662.34,-143.53 660.75,-150.35"/>
</a>
</g>
</g>
</g>
</svg>
