<?xml version="1.0" encoding="UTF-8" standalone="no"?>
<!DOCTYPE svg PUBLIC "-//W3C//DTD SVG 1.1//EN"
 "http://www.w3.org/Graphics/SVG/1.1/DTD/svg11.dtd">
<!-- Generated by graphviz version 13.1.2 (20250808.2320)
 -->
<!-- Title: editeurpanovisu.EditeurPanovisu.setiNombrePlans Pages: 1 -->
<!--zoomable 404 -->

<svg id="main" version="1.1" xmlns="http://www.w3.org/2000/svg" xmlns:xlink="http://www.w3.org/1999/xlink" xml:space="preserve" onload="init(evt)">

<style type="text/css"><![CDATA[
.node, .edge {opacity: 0.7;}
.node.selected, .edge.selected {opacity: 1;}
.edge:hover path { stroke: red; }
.edge:hover polygon { stroke: red; fill: red; }
]]></style>

<defs>
  <circle id="rim" cx="0" cy="0" r="7"/>
  <circle id="rim2" cx="0" cy="0" r="3.5"/>
  <g id="zoomPlus">
    <use xlink:href="#rim" fill="#404040"><set attributeName="fill" to="#808080" begin="zoomplus.mouseover" end="zoomplus.mouseout"/></use>
    <path d="M-4,0h8M0,-4v8" fill="none" stroke="white" stroke-width="1.5" pointer-events="none"/>
  </g>
  <g id="zoomMin">
    <use xlink:href="#rim" fill="#404040"><set attributeName="fill" to="#808080" begin="zoomminus.mouseover" end="zoomminus.mouseout"/></use>
    <path d="M-4,0h8" fill="none" stroke="white" stroke-width="1.5" pointer-events="none"/>
  </g>
  <g id="arrowUp" transform="translate(30 24)">
    <use xlink:href="#rim"/>
    <path pointer-events="none" fill="none" stroke="white" stroke-width="1.5" d="M0,-3.0v7 M-2.5,-0.5L0,-3.0L2.5,-0.5"/>
  </g>
  <g id="arrowRight" transform="rotate(90) translate(36 -43)">
    <use xlink:href="#rim"/>
    <path pointer-events="none" fill="none" stroke="white" stroke-width="1.5" d="M0,-3.0v7 M-2.5,-0.5L0,-3.0L2.5,-0.5"/>
  </g>
  <g id="arrowDown" transform="rotate(180) translate(-30 -48)">
    <use xlink:href="#rim"/>
    <path pointer-events="none" fill="none" stroke="white" stroke-width="1.5" d="M0,-3.0v7 M-2.5,-0.5L0,-3.0L2.5,-0.5"/>
  </g>
  <g id="arrowLeft" transform="rotate(270) translate(-36 17)">
    <use xlink:href="#rim"/>
    <path pointer-events="none" fill="none" stroke="white" stroke-width="1.5" d="M0,-3.0v7 M-2.5,-0.5L0,-3.0L2.5,-0.5"/>
  </g>
  <g id="resetDef">
    <use xlink:href="#rim2" fill="#404040"><set attributeName="fill" to="#808080" begin="reset.mouseover" end="reset.mouseout"/></use>
  </g>
</defs>
<script type="application/ecmascript">
var viewWidth = 2195;
var viewHeight = 404;
var sectionId = 'dynsection-239';
</script>
<script type="application/ecmascript" xlink:href="svg.min.js"/>
<svg id="graph" class="graph">
<g id="viewport">
<title>editeurpanovisu.EditeurPanovisu.setiNombrePlans</title>
<!-- Node1 -->
<g id="Node000001" class="node">
<title>Node1</title>
<g id="a_Node000001"><a xlink:title=" ">
<polygon fill="#999999" stroke="#666666" points="2186.5,-351.7 2009.25,-351.7 2009.25,-319.7 2186.5,-319.7 2186.5,-351.7"/>
<text xml:space="preserve" text-anchor="start" x="2017.25" y="-338.2" font-family="Helvetica,sans-Serif" font-size="10.00">editeurpanovisu.EditeurPanovisu.seti</text>
<text xml:space="preserve" text-anchor="middle" x="2097.88" y="-326.2" font-family="Helvetica,sans-Serif" font-size="10.00">NombrePlans</text>
</a>
</g>
</g>
<!-- Node2 -->
<g id="Node000002" class="node">
<title>Node2</title>
<g id="a_Node000002"><a xlink:href="classediteurpanovisu_1_1EditeurPanovisu.html#af504270c500842e35c1a37bf1e6d3e8d" target="_top" xlink:title=" ">
<polygon fill="white" stroke="#666666" points="1759.25,-395.7 1579.75,-395.7 1579.75,-363.7 1759.25,-363.7 1759.25,-395.7"/>
<text xml:space="preserve" text-anchor="start" x="1587.75" y="-382.2" font-family="Helvetica,sans-Serif" font-size="10.00">editeurpanovisu.EditeurPanovisu.plan</text>
<text xml:space="preserve" text-anchor="middle" x="1669.5" y="-370.2" font-family="Helvetica,sans-Serif" font-size="10.00">Ajouter</text>
</a>
</g>
</g>
<!-- Node1&#45;&gt;Node2 -->
<g id="edge1_Node000001_Node000002" class="edge">
<title>Node1&#45;&gt;Node2</title>
<g id="a_edge1_Node000001_Node000002"><a xlink:title=" ">
<path fill="none" stroke="#63b8ff" d="M1997.55,-347.08C1989.33,-347.98 1981.15,-348.87 1973.25,-349.7 1901.42,-357.33 1819.95,-365.37 1759.62,-371.2"/>
<polygon fill="#63b8ff" stroke="#63b8ff" points="1997.7,-350.58 2007.26,-346 1996.93,-343.62 1997.7,-350.58"/>
</a>
</g>
</g>
<!-- Node5 -->
<g id="Node000005" class="node">
<title>Node5</title>
<g id="a_Node000005"><a xlink:href="classediteurpanovisu_1_1EditeurPanovisu.html#ac9d449399ccd38843fa12e716f0c9611" target="_top" xlink:title=" ">
<polygon fill="white" stroke="#666666" points="1095.5,-351.7 904.75,-351.7 904.75,-319.7 1095.5,-319.7 1095.5,-351.7"/>
<text xml:space="preserve" text-anchor="start" x="912.75" y="-338.2" font-family="Helvetica,sans-Serif" font-size="10.00">editeurpanovisu.EditeurPanovisu.projets</text>
<text xml:space="preserve" text-anchor="middle" x="1000.12" y="-326.2" font-family="Helvetica,sans-Serif" font-size="10.00">Nouveau</text>
</a>
</g>
</g>
<!-- Node1&#45;&gt;Node5 -->
<g id="edge4_Node000001_Node000005" class="edge">
<title>Node1&#45;&gt;Node5</title>
<g id="a_edge4_Node000001_Node000005"><a xlink:title=" ">
<path fill="none" stroke="#63b8ff" d="M1997.71,-335.7C1911.3,-335.7 1782.61,-335.7 1670.5,-335.7 1670.5,-335.7 1670.5,-335.7 1445.88,-335.7 1325.04,-335.7 1185.73,-335.7 1095.69,-335.7"/>
<polygon fill="#63b8ff" stroke="#63b8ff" points="1997.58,-339.21 2007.58,-335.7 1997.58,-332.21 1997.58,-339.21"/>
</a>
</g>
</g>
<!-- Node8 -->
<g id="Node000008" class="node">
<title>Node8</title>
<g id="a_Node000008"><a xlink:href="classediteurpanovisu_1_1EditeurPanovisu.html#a87b29dc258cfc67370b1f27809e91b8e" target="_top" xlink:title=" ">
<polygon fill="white" stroke="#666666" points="1973.25,-164.7 1798.25,-164.7 1798.25,-132.7 1973.25,-132.7 1973.25,-164.7"/>
<text xml:space="preserve" text-anchor="start" x="1806.25" y="-151.2" font-family="Helvetica,sans-Serif" font-size="10.00">editeurpanovisu.EditeurPanovisu.tsk</text>
<text xml:space="preserve" text-anchor="middle" x="1885.75" y="-139.2" font-family="Helvetica,sans-Serif" font-size="10.00">AnalyseFichierPVU</text>
</a>
</g>
</g>
<!-- Node1&#45;&gt;Node8 -->
<g id="edge9_Node000001_Node000008" class="edge">
<title>Node1&#45;&gt;Node8</title>
<g id="a_edge9_Node000001_Node000008"><a xlink:title=" ">
<path fill="none" stroke="#63b8ff" d="M2070.27,-312.02C2026.98,-273.5 1942.41,-198.24 1905.14,-165.07"/>
<polygon fill="#63b8ff" stroke="#63b8ff" points="2067.67,-314.4 2077.46,-318.43 2072.32,-309.17 2067.67,-314.4"/>
</a>
</g>
</g>
<!-- Node3 -->
<g id="Node000003" class="node">
<title>Node3</title>
<g id="a_Node000003"><a xlink:href="classediteurpanovisu_1_1EditeurPanovisu.html#ac912b80c1f2ac97def60ff005c5c480b" target="_top" xlink:title=" ">
<polygon fill="white" stroke="#666666" points="420.5,-203.7 216.25,-203.7 216.25,-183.7 420.5,-183.7 420.5,-203.7"/>
<text xml:space="preserve" text-anchor="middle" x="318.38" y="-190.2" font-family="Helvetica,sans-Serif" font-size="10.00">editeurpanovisu.EditeurPanovisu.creeMenu</text>
</a>
</g>
</g>
<!-- Node2&#45;&gt;Node3 -->
<g id="edge2_Node000002_Node000003" class="edge">
<title>Node2&#45;&gt;Node3</title>
<g id="a_edge2_Node000002_Node000003"><a xlink:title=" ">
<path fill="none" stroke="#63b8ff" d="M1568.08,-379.7C1478.24,-379.7 1342.96,-379.7 1225.25,-379.7 1225.25,-379.7 1225.25,-379.7 775,-379.7 631.04,-379.7 585.17,-385.28 456.5,-320.7 397.63,-291.16 345.9,-228.61 327,-203.98"/>
<polygon fill="#63b8ff" stroke="#63b8ff" points="1567.84,-383.21 1577.84,-379.7 1567.84,-376.21 1567.84,-383.21"/>
</a>
</g>
</g>
<!-- Node4 -->
<g id="Node000004" class="node">
<title>Node4</title>
<g id="a_Node000004"><a xlink:href="classediteurpanovisu_1_1EditeurPanovisu.html#a86c393eee88f54c694db994ddd85b90d" target="_top" xlink:title=" ">
<polygon fill="white" stroke="#666666" points="180.25,-209.7 0,-209.7 0,-177.7 180.25,-177.7 180.25,-209.7"/>
<text xml:space="preserve" text-anchor="start" x="8" y="-196.2" font-family="Helvetica,sans-Serif" font-size="10.00">editeurpanovisu.EditeurPanovisu.cree</text>
<text xml:space="preserve" text-anchor="middle" x="90.12" y="-184.2" font-family="Helvetica,sans-Serif" font-size="10.00">Environnement</text>
</a>
</g>
</g>
<!-- Node3&#45;&gt;Node4 -->
<g id="edge3_Node000003_Node000004" class="edge">
<title>Node3&#45;&gt;Node4</title>
<g id="a_edge3_Node000003_Node000004"><a xlink:title=" ">
<path fill="none" stroke="#63b8ff" d="M204.51,-193.7C196.49,-193.7 188.46,-193.7 180.6,-193.7"/>
<polygon fill="#63b8ff" stroke="#63b8ff" points="204.32,-197.21 214.32,-193.7 204.32,-190.21 204.32,-197.21"/>
</a>
</g>
</g>
<!-- Node5&#45;&gt;Node3 -->
<g id="edge5_Node000005_Node000003" class="edge">
<title>Node5&#45;&gt;Node3</title>
<g id="a_edge5_Node000005_Node000003"><a xlink:title=" ">
<path fill="none" stroke="#63b8ff" d="M892.99,-341.36C781.01,-343.78 601.08,-337.49 456.5,-284.7 404.7,-265.79 353.07,-223.68 330.79,-204.09"/>
<polygon fill="#63b8ff" stroke="#63b8ff" points="892.86,-344.86 902.77,-341.12 892.68,-337.87 892.86,-344.86"/>
</a>
</g>
</g>
<!-- Node6 -->
<g id="Node000006" class="node">
<title>Node6</title>
<g id="a_Node000006"><a xlink:href="classediteurpanovisu_1_1EditeurPanovisu.html#a2b3125ffe2e6291efacf19df6cb30a8d" target="_top" xlink:title=" ">
<polygon fill="white" stroke="#666666" points="866.5,-301.7 685.5,-301.7 685.5,-281.7 866.5,-281.7 866.5,-301.7"/>
<text xml:space="preserve" text-anchor="middle" x="776" y="-288.2" font-family="Helvetica,sans-Serif" font-size="10.00">editeurpanovisu.EditeurPanovisu.start</text>
</a>
</g>
</g>
<!-- Node5&#45;&gt;Node6 -->
<g id="edge6_Node000005_Node000006" class="edge">
<title>Node5&#45;&gt;Node6</title>
<g id="a_edge6_Node000005_Node000006"><a xlink:title=" ">
<path fill="none" stroke="#63b8ff" d="M904.83,-317.03C879.23,-311.96 852.41,-306.64 829.99,-302.2"/>
<polygon fill="#63b8ff" stroke="#63b8ff" points="904.12,-320.45 914.61,-318.96 905.48,-313.59 904.12,-320.45"/>
</a>
</g>
</g>
<!-- Node7 -->
<g id="Node000007" class="node">
<title>Node7</title>
<g id="a_Node000007"><a xlink:href="classediteurpanovisu_1_1EditeurPanovisu.html#a94e36b9e9d09ab1a4c852b8a8cefa927" target="_top" xlink:title=" ">
<polygon fill="white" stroke="#666666" points="647.25,-275.7 456.5,-275.7 456.5,-243.7 647.25,-243.7 647.25,-275.7"/>
<text xml:space="preserve" text-anchor="start" x="464.5" y="-262.2" font-family="Helvetica,sans-Serif" font-size="10.00">editeurpanovisu.EditeurPanovisu.genere</text>
<text xml:space="preserve" text-anchor="middle" x="551.88" y="-250.2" font-family="Helvetica,sans-Serif" font-size="10.00">Visite</text>
</a>
</g>
</g>
<!-- Node6&#45;&gt;Node7 -->
<g id="edge7_Node000006_Node000007" class="edge">
<title>Node6&#45;&gt;Node7</title>
<g id="a_edge7_Node000006_Node000007"><a xlink:title=" ">
<path fill="none" stroke="#63b8ff" d="M691.05,-279.61C676.86,-277.57 662.05,-275.43 647.61,-273.35"/>
<polygon fill="#63b8ff" stroke="#63b8ff" points="690.37,-283.05 700.77,-281.01 691.37,-276.12 690.37,-283.05"/>
</a>
</g>
</g>
<!-- Node7&#45;&gt;Node3 -->
<g id="edge8_Node000007_Node000003" class="edge">
<title>Node7&#45;&gt;Node3</title>
<g id="a_edge8_Node000007_Node000003"><a xlink:title=" ">
<path fill="none" stroke="#63b8ff" d="M482.2,-240.13C440.79,-228.32 389.69,-213.75 355.9,-204.12"/>
<polygon fill="#63b8ff" stroke="#63b8ff" points="481.02,-243.43 491.6,-242.81 482.94,-236.7 481.02,-243.43"/>
</a>
</g>
</g>
<!-- Node9 -->
<g id="Node000009" class="node">
<title>Node9</title>
<g id="a_Node000009"><a xlink:href="classediteurpanovisu_1_1EditeurPanovisu.html#ab4beb1597b660a4a253befc6e76f1c54" target="_top" xlink:title=" ">
<polygon fill="white" stroke="#666666" points="1092.88,-99.7 907.38,-99.7 907.38,-67.7 1092.88,-67.7 1092.88,-99.7"/>
<text xml:space="preserve" text-anchor="start" x="915.38" y="-86.2" font-family="Helvetica,sans-Serif" font-size="10.00">editeurpanovisu.EditeurPanovisu.projet</text>
<text xml:space="preserve" text-anchor="middle" x="1000.12" y="-74.2" font-family="Helvetica,sans-Serif" font-size="10.00">Charge</text>
</a>
</g>
</g>
<!-- Node8&#45;&gt;Node9 -->
<g id="edge10_Node000008_Node000009" class="edge">
<title>Node8&#45;&gt;Node9</title>
<g id="a_edge10_Node000008_Node000009"><a xlink:title=" ">
<path fill="none" stroke="#63b8ff" d="M1786.7,-141.49C1614.73,-128.84 1261.08,-102.83 1093.33,-90.49"/>
<polygon fill="#63b8ff" stroke="#63b8ff" points="1786.27,-144.97 1796.5,-142.21 1786.79,-137.99 1786.27,-144.97"/>
</a>
</g>
</g>
<!-- Node10 -->
<g id="Node000010" class="node">
<title>Node10</title>
<g id="a_Node000010"><a xlink:href="classediteurpanovisu_1_1EditeurPanovisu.html#a6d19b4d885ee6fcec827b91956295732" target="_top" xlink:title=" ">
<polygon fill="white" stroke="#666666" points="1762.25,-82.7 1576.75,-82.7 1576.75,-50.7 1762.25,-50.7 1762.25,-82.7"/>
<text xml:space="preserve" text-anchor="start" x="1584.75" y="-69.2" font-family="Helvetica,sans-Serif" font-size="10.00">editeurpanovisu.EditeurPanovisu.projet</text>
<text xml:space="preserve" text-anchor="middle" x="1669.5" y="-57.2" font-family="Helvetica,sans-Serif" font-size="10.00">ChargeNom</text>
</a>
</g>
</g>
<!-- Node8&#45;&gt;Node10 -->
<g id="edge12_Node000008_Node000010" class="edge">
<title>Node8&#45;&gt;Node10</title>
<g id="a_edge12_Node000008_Node000010"><a xlink:title=" ">
<path fill="none" stroke="#63b8ff" d="M1831.23,-128.22C1794.88,-114.31 1747.43,-96.15 1713.53,-83.17"/>
<polygon fill="#63b8ff" stroke="#63b8ff" points="1829.65,-131.36 1840.24,-131.67 1832.15,-124.83 1829.65,-131.36"/>
</a>
</g>
</g>
<!-- Node9&#45;&gt;Node3 -->
<g id="edge11_Node000009_Node000003" class="edge">
<title>Node9&#45;&gt;Node3</title>
<g id="a_edge11_Node000009_Node000003"><a xlink:title=" ">
<path fill="none" stroke="#63b8ff" d="M895.48,-89.11C785.46,-96.39 607.02,-112.59 456.5,-146.7 416.37,-155.8 371.57,-172.45 344.43,-183.29"/>
<polygon fill="#63b8ff" stroke="#63b8ff" points="895.64,-92.61 905.39,-88.47 895.19,-85.62 895.64,-92.61"/>
</a>
</g>
</g>
<!-- Node10&#45;&gt;Node3 -->
<g id="edge28_Node000010_Node000003" class="edge">
<title>Node10&#45;&gt;Node3</title>
<g id="a_edge28_Node000010_Node000003"><a xlink:title=" ">
<path fill="none" stroke="#63b8ff" d="M1588.47,-47.8C1500.1,-28.61 1353.35,-1.7 1225.25,-1.7 1225.25,-1.7 1225.25,-1.7 775,-1.7 631.64,-1.7 583.72,13.37 456.5,-52.7 394.08,-85.13 343.32,-156.67 325.88,-183.38"/>
<polygon fill="#63b8ff" stroke="#63b8ff" points="1587.48,-51.17 1598,-49.89 1588.98,-44.33 1587.48,-51.17"/>
</a>
</g>
</g>
<!-- Node11 -->
<g id="Node000011" class="node">
<title>Node11</title>
<g id="a_Node000011"><a xlink:href="classediteurpanovisu_1_1EditeurPanovisu.html#af0d1c32bb78acbff561c822a0d15f760" target="_top" xlink:title=" ">
<polygon fill="white" stroke="#666666" points="1540.75,-82.7 1353,-82.7 1353,-50.7 1540.75,-50.7 1540.75,-82.7"/>
<text xml:space="preserve" text-anchor="start" x="1361" y="-69.2" font-family="Helvetica,sans-Serif" font-size="10.00">editeurpanovisu.EditeurPanovisu.ajoute</text>
<text xml:space="preserve" text-anchor="middle" x="1446.88" y="-57.2" font-family="Helvetica,sans-Serif" font-size="10.00">FichierHisto</text>
</a>
</g>
</g>
<!-- Node10&#45;&gt;Node11 -->
<g id="edge13_Node000010_Node000011" class="edge">
<title>Node10&#45;&gt;Node11</title>
<g id="a_edge13_Node000010_Node000011"><a xlink:title=" ">
<path fill="none" stroke="#63b8ff" d="M1565.22,-59.97C1557.17,-59.94 1549.08,-59.96 1541.11,-60.03"/>
<polygon fill="#63b8ff" stroke="#63b8ff" points="1565,-63.47 1575.02,-60.03 1565.04,-56.47 1565,-63.47"/>
</a>
</g>
</g>
<!-- Node11&#45;&gt;Node9 -->
<g id="edge14_Node000011_Node000009" class="edge">
<title>Node11&#45;&gt;Node9</title>
<g id="a_edge14_Node000011_Node000009"><a xlink:title=" ">
<path fill="none" stroke="#63b8ff" d="M1341.25,-70.7C1265.95,-73.58 1165.33,-77.43 1093.09,-80.19"/>
<polygon fill="#63b8ff" stroke="#63b8ff" points="1341.27,-74.21 1351.13,-70.33 1341,-67.21 1341.27,-74.21"/>
</a>
</g>
</g>
<!-- Node11&#45;&gt;Node10 -->
<g id="edge15_Node000011_Node000010" class="edge">
<title>Node11&#45;&gt;Node10</title>
<g id="a_edge15_Node000011_Node000010"><a xlink:title=" ">
<path fill="none" stroke="#63b8ff" d="M1552.44,-73.45C1560.49,-73.47 1568.58,-73.44 1576.53,-73.37"/>
<polygon fill="#63b8ff" stroke="#63b8ff" points="1552.65,-69.95 1542.63,-73.39 1552.61,-76.95 1552.65,-69.95"/>
</a>
</g>
</g>
<!-- Node12 -->
<g id="Node000012" class="node">
<title>Node12</title>
<g id="a_Node000012"><a xlink:href="classediteurpanovisu_1_1EditeurPanovisu.html#a9f3ea25b35d4884524508dab3dc4fd6a" target="_top" xlink:title=" ">
<polygon fill="white" stroke="#666666" points="1317,-208.7 1131.5,-208.7 1131.5,-176.7 1317,-176.7 1317,-208.7"/>
<text xml:space="preserve" text-anchor="start" x="1139.5" y="-195.2" font-family="Helvetica,sans-Serif" font-size="10.00">editeurpanovisu.EditeurPanovisu.projet</text>
<text xml:space="preserve" text-anchor="middle" x="1224.25" y="-183.2" font-family="Helvetica,sans-Serif" font-size="10.00">Sauve</text>
</a>
</g>
</g>
<!-- Node11&#45;&gt;Node12 -->
<g id="edge16_Node000011_Node000012" class="edge">
<title>Node11&#45;&gt;Node12</title>
<g id="a_edge16_Node000011_Node000012"><a xlink:title=" ">
<path fill="none" stroke="#63b8ff" d="M1374.66,-86.99C1367.2,-89.91 1359.85,-93.15 1353,-96.7 1310.15,-118.93 1266.53,-155.29 1242.98,-176.31"/>
<polygon fill="#63b8ff" stroke="#63b8ff" points="1375.66,-90.35 1383.82,-83.6 1373.22,-83.79 1375.66,-90.35"/>
</a>
</g>
</g>
<!-- Node15 -->
<g id="Node000015" class="node">
<title>Node15</title>
<g id="a_Node000015"><a xlink:href="classediteurpanovisu_1_1EditeurPanovisu.html#a7b2e25dc717eb52b62e23d54ec4c124a" target="_top" xlink:title=" ">
<polygon fill="white" stroke="#666666" points="868.75,-71.7 683.25,-71.7 683.25,-39.7 868.75,-39.7 868.75,-71.7"/>
<text xml:space="preserve" text-anchor="start" x="691.25" y="-58.2" font-family="Helvetica,sans-Serif" font-size="10.00">editeurpanovisu.EditeurPanovisu.projet</text>
<text xml:space="preserve" text-anchor="middle" x="776" y="-46.2" font-family="Helvetica,sans-Serif" font-size="10.00">SauveSous</text>
</a>
</g>
</g>
<!-- Node11&#45;&gt;Node15 -->
<g id="edge26_Node000011_Node000015" class="edge">
<title>Node11&#45;&gt;Node15</title>
<g id="a_edge26_Node000011_Node000015"><a xlink:title=" ">
<path fill="none" stroke="#63b8ff" d="M1341.16,-63.95C1271.53,-62.2 1178.05,-60.04 1095.5,-58.7 1019.2,-57.47 932.61,-56.7 868.99,-56.25"/>
<polygon fill="#63b8ff" stroke="#63b8ff" points="1340.96,-67.44 1351.05,-64.2 1341.14,-60.45 1340.96,-67.44"/>
</a>
</g>
</g>
<!-- Node12&#45;&gt;Node3 -->
<g id="edge17_Node000012_Node000003" class="edge">
<title>Node12&#45;&gt;Node3</title>
<g id="a_edge17_Node000012_Node000003"><a xlink:title=" ">
<path fill="none" stroke="#63b8ff" d="M1119.91,-198.85C1111.65,-199.19 1103.44,-199.49 1095.5,-199.7 992.91,-202.51 598.82,-198.74 456.5,-196.7 444.95,-196.54 432.86,-196.33 420.84,-196.1"/>
<polygon fill="#63b8ff" stroke="#63b8ff" points="1119.82,-202.36 1129.65,-198.42 1119.51,-195.37 1119.82,-202.36"/>
</a>
</g>
</g>
<!-- Node12&#45;&gt;Node5 -->
<g id="edge23_Node000012_Node000005" class="edge">
<title>Node12&#45;&gt;Node5</title>
<g id="a_edge23_Node000012_Node000005"><a xlink:title=" ">
<path fill="none" stroke="#63b8ff" d="M1201.46,-217.27C1177.7,-242.69 1137.43,-281.92 1095.5,-305.7 1086.08,-311.05 1075.58,-315.58 1065.1,-319.37"/>
<polygon fill="#63b8ff" stroke="#63b8ff" points="1203.93,-219.75 1208.12,-210.02 1198.78,-215.01 1203.93,-219.75"/>
</a>
</g>
</g>
<!-- Node12&#45;&gt;Node6 -->
<g id="edge25_Node000012_Node000006" class="edge">
<title>Node12&#45;&gt;Node6</title>
<g id="a_edge25_Node000012_Node000006"><a xlink:title=" ">
<path fill="none" stroke="#63b8ff" d="M1193.33,-215.63C1168.56,-233.23 1131.69,-256.39 1095.5,-267.7 1020.88,-291.04 931.83,-295.95 866.9,-295.65"/>
<polygon fill="#63b8ff" stroke="#63b8ff" points="1195.27,-218.55 1201.3,-209.84 1191.16,-212.88 1195.27,-218.55"/>
</a>
</g>
</g>
<!-- Node12&#45;&gt;Node7 -->
<g id="edge18_Node000012_Node000007" class="edge">
<title>Node12&#45;&gt;Node7</title>
<g id="a_edge18_Node000012_Node000007"><a xlink:title=" ">
<path fill="none" stroke="#63b8ff" d="M1164.96,-212.6C1143.39,-219.16 1118.57,-225.78 1095.5,-229.7 940.17,-256.14 756.58,-260.85 647.7,-260.93"/>
<polygon fill="#63b8ff" stroke="#63b8ff" points="1165.97,-215.96 1174.48,-209.64 1163.89,-209.27 1165.97,-215.96"/>
</a>
</g>
</g>
<!-- Node12&#45;&gt;Node9 -->
<g id="edge19_Node000012_Node000009" class="edge">
<title>Node12&#45;&gt;Node9</title>
<g id="a_edge19_Node000012_Node000009"><a xlink:title=" ">
<path fill="none" stroke="#63b8ff" d="M1145.28,-171.46C1140.43,-168.86 1135.78,-165.95 1131.5,-162.7 1108.53,-145.26 1118.96,-125.49 1095.5,-108.7 1090.95,-105.45 1086.01,-102.62 1080.84,-100.16"/>
<polygon fill="#63b8ff" stroke="#63b8ff" points="1143.59,-174.53 1154.12,-175.71 1146.63,-168.22 1143.59,-174.53"/>
</a>
</g>
</g>
<!-- Node12&#45;&gt;Node10 -->
<g id="edge20_Node000012_Node000010" class="edge">
<title>Node12&#45;&gt;Node10</title>
<g id="a_edge20_Node000012_Node000010"><a xlink:title=" ">
<path fill="none" stroke="#63b8ff" d="M1294.02,-173.16C1380.96,-148.44 1529.09,-106.33 1610.55,-83.18"/>
<polygon fill="#63b8ff" stroke="#63b8ff" points="1293.33,-169.71 1284.67,-175.81 1295.24,-176.45 1293.33,-169.71"/>
</a>
</g>
</g>
<!-- Node13 -->
<g id="Node000013" class="node">
<title>Node13</title>
<g id="a_Node000013"><a xlink:href="classediteurpanovisu_1_1EditeurPanovisu.html#a9b46b222714af12c06ec33d410400773" target="_top" xlink:title=" ">
<polygon fill="white" stroke="#666666" points="647.25,-187.7 456.5,-187.7 456.5,-155.7 647.25,-155.7 647.25,-187.7"/>
<text xml:space="preserve" text-anchor="start" x="464.5" y="-174.2" font-family="Helvetica,sans-Serif" font-size="10.00">editeurpanovisu.EditeurPanovisu.projets</text>
<text xml:space="preserve" text-anchor="middle" x="551.88" y="-162.2" font-family="Helvetica,sans-Serif" font-size="10.00">Fermer</text>
</a>
</g>
</g>
<!-- Node12&#45;&gt;Node13 -->
<g id="edge21_Node000012_Node000013" class="edge">
<title>Node12&#45;&gt;Node13</title>
<g id="a_edge21_Node000012_Node000013"><a xlink:title=" ">
<path fill="none" stroke="#63b8ff" d="M1119.66,-189.46C990.68,-185.42 772.18,-178.57 647.51,-174.67"/>
<polygon fill="#63b8ff" stroke="#63b8ff" points="1119.47,-192.96 1129.58,-189.77 1119.69,-185.96 1119.47,-192.96"/>
</a>
</g>
</g>
<!-- Node14 -->
<g id="Node000014" class="node">
<title>Node14</title>
<g id="a_Node000014"><a xlink:href="classediteurpanovisu_1_1EditeurPanovisu.html#aef8c9b28c3e88d6e27e3f62b9a901134" target="_top" xlink:title=" ">
<polygon fill="white" stroke="#666666" points="1094,-149.7 906.25,-149.7 906.25,-117.7 1094,-117.7 1094,-149.7"/>
<text xml:space="preserve" text-anchor="start" x="914.25" y="-136.2" font-family="Helvetica,sans-Serif" font-size="10.00">editeurpanovisu.EditeurPanovisu.sauve</text>
<text xml:space="preserve" text-anchor="middle" x="1000.12" y="-124.2" font-family="Helvetica,sans-Serif" font-size="10.00">Fichiers</text>
</a>
</g>
</g>
<!-- Node12&#45;&gt;Node14 -->
<g id="edge24_Node000012_Node000014" class="edge">
<title>Node12&#45;&gt;Node14</title>
<g id="a_edge24_Node000012_Node000014"><a xlink:title=" ">
<path fill="none" stroke="#63b8ff" d="M1150.35,-173.34C1122.12,-165.84 1090.14,-157.35 1063.05,-150.15"/>
<polygon fill="#63b8ff" stroke="#63b8ff" points="1149.35,-176.7 1159.91,-175.88 1151.15,-169.93 1149.35,-176.7"/>
</a>
</g>
</g>
<!-- Node13&#45;&gt;Node3 -->
<g id="edge22_Node000013_Node000003" class="edge">
<title>Node13&#45;&gt;Node3</title>
<g id="a_edge22_Node000013_Node000003"><a xlink:title=" ">
<path fill="none" stroke="#63b8ff" d="M444.81,-181.78C436.83,-182.54 428.78,-183.31 420.83,-184.06"/>
<polygon fill="#63b8ff" stroke="#63b8ff" points="444.92,-185.29 454.54,-180.86 444.25,-178.32 444.92,-185.29"/>
</a>
</g>
</g>
<!-- Node15&#45;&gt;Node3 -->
<g id="edge27_Node000015_Node000003" class="edge">
<title>Node15&#45;&gt;Node3</title>
<g id="a_edge27_Node000015_Node000003"><a xlink:title=" ">
<path fill="none" stroke="#63b8ff" d="M671.5,-55.4C607.59,-58.33 525,-67.85 456.5,-94.7 402.92,-115.71 351,-162.58 329.61,-183.4"/>
<polygon fill="#63b8ff" stroke="#63b8ff" points="671.44,-58.9 681.29,-55 671.16,-51.91 671.44,-58.9"/>
</a>
</g>
</g>
</g>
</svg>

<g id="navigator" transform="translate(0 0)" fill="#404254">
  <rect fill="#f2f5e9" fill-opacity="0.5" stroke="#606060" stroke-width=".5" x="0" y="0" width="60" height="60"/>
  <use id="zoomplus" xlink:href="#zoomPlus" x="17" y="9" onmousedown="handleZoom(evt,'in')"/>
  <use id="zoomminus" xlink:href="#zoomMin" x="42" y="9" onmousedown="handleZoom(evt,'out')"/>
  <use id="reset" xlink:href="#resetDef" x="30" y="36" onmousedown="handleReset()"/>
   <use id="arrowup" xlink:href="#arrowUp" x="0" y="0" onmousedown="handlePan(0,-1)"/>
  <use id="arrowright" xlink:href="#arrowRight" x="0" y="0" onmousedown="handlePan(1,0)"/>
  <use id="arrowdown" xlink:href="#arrowDown" x="0" y="0" onmousedown="handlePan(0,1)"/>
  <use id="arrowleft" xlink:href="#arrowLeft" x="0" y="0" onmousedown="handlePan(-1,0)"/>
</g>
<svg viewBox="0 0 15 15" width="100%" height="30px" preserveAspectRatio="xMaxYMin meet">
 <g id="arrow_out" transform="scale(0.3 0.3)">
  <a xlink:href="classediteurpanovisu_1_1EditeurPanovisu_a8ea90d4194cbac57625ee94839e2f33a_icgraph_org.svg" target="_base">
   <rect id="button" ry="5" rx="5" y="6" x="6" height="38" width="38"
        fill="#f2f5e9" fill-opacity="0.5" stroke="#606060" stroke-width="1.0"/>
   <path id="arrow"
     d="M 11.500037,31.436501 C 11.940474,20.09759 22.043105,11.32322 32.158766,21.979434 L 37.068811,17.246167 C 37.068811,17.246167 37.088388,32 37.088388,32 L 22.160133,31.978069 C 22.160133,31.978069 26.997745,27.140456 26.997745,27.140456 C 18.528582,18.264221 13.291696,25.230495 11.500037,31.436501 z"
     style="fill:#404040;"/>
  </a>
 </g>
</svg>

<style type='text/css'>
<![CDATA[
[data-mouse-over-selected='false'] { opacity: 0.7; }
[data-mouse-over-selected='true']  { opacity: 1.0; }
]]>
</style>
<script type="application/ecmascript"><![CDATA[
document.addEventListener('DOMContentLoaded', (event) => {
  highlightEdges();
  highlightAdjacentNodes();
});
]]></script>
</svg>
