<?xml version="1.0" encoding="UTF-8" standalone="no"?>
<!DOCTYPE svg PUBLIC "-//W3C//DTD SVG 1.1//EN"
 "http://www.w3.org/Graphics/SVG/1.1/DTD/svg11.dtd">
<!-- Generated by graphviz version 13.1.2 (20250808.2320)
 -->
<!-- Title: editeurpanovisu.BigDecimalField.numberProperty Pages: 1 -->
<svg width="528pt" height="102pt"
 viewBox="0.00 0.00 528.00 102.00" xmlns="http://www.w3.org/2000/svg" xmlns:xlink="http://www.w3.org/1999/xlink">
<g id="graph0" class="graph" transform="scale(1 1) rotate(0) translate(4 98)">
<title>editeurpanovisu.BigDecimalField.numberProperty</title>
<!-- Node1 -->
<g id="Node000001" class="node">
<title>Node1</title>
<g id="a_Node000001"><a xlink:title="Obtient la propriété du nombre.">
<polygon fill="#999999" stroke="#666666" points="519.75,-60 382.25,-60 382.25,-28 519.75,-28 519.75,-60"/>
<text xml:space="preserve" text-anchor="start" x="390.25" y="-46.5" font-family="Helvetica,sans-Serif" font-size="10.00">editeurpanovisu.BigDecimal</text>
<text xml:space="preserve" text-anchor="middle" x="451" y="-34.5" font-family="Helvetica,sans-Serif" font-size="10.00">Field.numberProperty</text>
</a>
</g>
</g>
<!-- Node2 -->
<g id="Node000002" class="node">
<title>Node2</title>
<g id="a_Node000002"><a xlink:href="classediteurpanovisu_1_1GestionnaireInterfaceController.html#a7c5cff6934d95be9a4babb6426a5ac26" target="_top" xlink:title=" ">
<polygon fill="white" stroke="#666666" points="342.12,-94 182.12,-94 182.12,-50 342.12,-50 342.12,-94"/>
<text xml:space="preserve" text-anchor="start" x="190.12" y="-80.5" font-family="Helvetica,sans-Serif" font-size="10.00">editeurpanovisu.Gestionnaire</text>
<text xml:space="preserve" text-anchor="start" x="190.12" y="-68.5" font-family="Helvetica,sans-Serif" font-size="10.00">InterfaceController.afficheImages</text>
<text xml:space="preserve" text-anchor="middle" x="262.12" y="-56.5" font-family="Helvetica,sans-Serif" font-size="10.00">FondInterface</text>
</a>
</g>
</g>
<!-- Node1&#45;&gt;Node2 -->
<g id="edge1_Node000001_Node000002" class="edge">
<title>Node1&#45;&gt;Node2</title>
<g id="a_edge1_Node000001_Node000002"><a xlink:title=" ">
<path fill="none" stroke="#63b8ff" d="M370.73,-55.88C361.38,-57.28 351.84,-58.71 342.49,-60.11"/>
<polygon fill="#63b8ff" stroke="#63b8ff" points="371.14,-59.36 380.51,-54.41 370.1,-52.43 371.14,-59.36"/>
</a>
</g>
</g>
<!-- Node3 -->
<g id="Node000003" class="node">
<title>Node3</title>
<g id="a_Node000003"><a xlink:href="classediteurpanovisu_1_1GestionnaireDiaporamaController.html#ae05b9285b2f87ad3a870c65e0571401b" target="_top" xlink:title=" ">
<polygon fill="white" stroke="#666666" points="346.25,-32 178,-32 178,0 346.25,0 346.25,-32"/>
<text xml:space="preserve" text-anchor="start" x="186" y="-18.5" font-family="Helvetica,sans-Serif" font-size="10.00">editeurpanovisu.Gestionnaire</text>
<text xml:space="preserve" text-anchor="middle" x="262.12" y="-6.5" font-family="Helvetica,sans-Serif" font-size="10.00">DiaporamaController.initDiaporama</text>
</a>
</g>
</g>
<!-- Node1&#45;&gt;Node3 -->
<g id="edge2_Node000001_Node000003" class="edge">
<title>Node1&#45;&gt;Node3</title>
<g id="a_edge2_Node000001_Node000003"><a xlink:title=" ">
<path fill="none" stroke="#63b8ff" d="M370.83,-32.14C362.84,-30.94 354.71,-29.72 346.67,-28.52"/>
<polygon fill="#63b8ff" stroke="#63b8ff" points="370.1,-35.57 380.51,-33.59 371.14,-28.64 370.1,-35.57"/>
</a>
</g>
</g>
<!-- Node4 -->
<g id="Node000004" class="node">
<title>Node4</title>
<g id="a_Node000004"><a xlink:href="classediteurpanovisu_1_1GestionnaireDiaporamaController.html#ac5731a825a950a1b47f5d54087d1fe3f" target="_top" xlink:title=" ">
<polygon fill="white" stroke="#666666" points="142,-32 0,-32 0,0 142,0 142,-32"/>
<text xml:space="preserve" text-anchor="start" x="8" y="-18.5" font-family="Helvetica,sans-Serif" font-size="10.00">editeurpanovisu.Gestionnaire</text>
<text xml:space="preserve" text-anchor="middle" x="71" y="-6.5" font-family="Helvetica,sans-Serif" font-size="10.00">DiaporamaController.reInit</text>
</a>
</g>
</g>
<!-- Node3&#45;&gt;Node4 -->
<g id="edge3_Node000003_Node000004" class="edge">
<title>Node3&#45;&gt;Node4</title>
<g id="a_edge3_Node000003_Node000004"><a xlink:title=" ">
<path fill="none" stroke="#63b8ff" d="M166.26,-16C158.21,-16 150.16,-16 142.34,-16"/>
<polygon fill="#63b8ff" stroke="#63b8ff" points="166.11,-19.5 176.11,-16 166.11,-12.5 166.11,-19.5"/>
</a>
</g>
</g>
</g>
</svg>
