<?xml version="1.0" encoding="UTF-8" standalone="no"?>
<!DOCTYPE svg PUBLIC "-//W3C//DTD SVG 1.1//EN"
 "http://www.w3.org/Graphics/SVG/1.1/DTD/svg11.dtd">
<!-- Generated by graphviz version 13.1.2 (20250808.2320)
 -->
<!-- Title: editeurpanovisu.EditeurPanovisu.setStrStyleCSS Pages: 1 -->
<!--zoomable 165 -->

<svg id="main" version="1.1" xmlns="http://www.w3.org/2000/svg" xmlns:xlink="http://www.w3.org/1999/xlink" xml:space="preserve" onload="init(evt)">

<style type="text/css"><![CDATA[
.node, .edge {opacity: 0.7;}
.node.selected, .edge.selected {opacity: 1;}
.edge:hover path { stroke: red; }
.edge:hover polygon { stroke: red; fill: red; }
]]></style>

<defs>
  <circle id="rim" cx="0" cy="0" r="7"/>
  <circle id="rim2" cx="0" cy="0" r="3.5"/>
  <g id="zoomPlus">
    <use xlink:href="#rim" fill="#404040"><set attributeName="fill" to="#808080" begin="zoomplus.mouseover" end="zoomplus.mouseout"/></use>
    <path d="M-4,0h8M0,-4v8" fill="none" stroke="white" stroke-width="1.5" pointer-events="none"/>
  </g>
  <g id="zoomMin">
    <use xlink:href="#rim" fill="#404040"><set attributeName="fill" to="#808080" begin="zoomminus.mouseover" end="zoomminus.mouseout"/></use>
    <path d="M-4,0h8" fill="none" stroke="white" stroke-width="1.5" pointer-events="none"/>
  </g>
  <g id="arrowUp" transform="translate(30 24)">
    <use xlink:href="#rim"/>
    <path pointer-events="none" fill="none" stroke="white" stroke-width="1.5" d="M0,-3.0v7 M-2.5,-0.5L0,-3.0L2.5,-0.5"/>
  </g>
  <g id="arrowRight" transform="rotate(90) translate(36 -43)">
    <use xlink:href="#rim"/>
    <path pointer-events="none" fill="none" stroke="white" stroke-width="1.5" d="M0,-3.0v7 M-2.5,-0.5L0,-3.0L2.5,-0.5"/>
  </g>
  <g id="arrowDown" transform="rotate(180) translate(-30 -48)">
    <use xlink:href="#rim"/>
    <path pointer-events="none" fill="none" stroke="white" stroke-width="1.5" d="M0,-3.0v7 M-2.5,-0.5L0,-3.0L2.5,-0.5"/>
  </g>
  <g id="arrowLeft" transform="rotate(270) translate(-36 17)">
    <use xlink:href="#rim"/>
    <path pointer-events="none" fill="none" stroke="white" stroke-width="1.5" d="M0,-3.0v7 M-2.5,-0.5L0,-3.0L2.5,-0.5"/>
  </g>
  <g id="resetDef">
    <use xlink:href="#rim2" fill="#404040"><set attributeName="fill" to="#808080" begin="reset.mouseover" end="reset.mouseout"/></use>
  </g>
</defs>
<script type="application/ecmascript">
var viewWidth = 1195;
var viewHeight = 165;
var sectionId = 'dynsection-267';
</script>
<script type="application/ecmascript" xlink:href="svg.min.js"/>
<svg id="graph" class="graph">
<g id="viewport">
<title>editeurpanovisu.EditeurPanovisu.setStrStyleCSS</title>
<!-- Node1 -->
<g id="Node000001" class="node">
<title>Node1</title>
<g id="a_Node000001"><a xlink:title=" ">
<polygon fill="#999999" stroke="#666666" points="175,-132 0,-132 0,-100 175,-100 175,-132"/>
<text xml:space="preserve" text-anchor="start" x="8" y="-118.5" font-family="Helvetica,sans-Serif" font-size="10.00">editeurpanovisu.EditeurPanovisu.set</text>
<text xml:space="preserve" text-anchor="middle" x="87.5" y="-106.5" font-family="Helvetica,sans-Serif" font-size="10.00">StrStyleCSS</text>
</a>
</g>
</g>
<!-- Node2 -->
<g id="Node000002" class="node">
<title>Node2</title>
<g id="a_Node000002"><a xlink:href="classediteurpanovisu_1_1util_1_1SvgIconLoader.html#abfbfc1ff4bf72f51b52559dbb8e18867" target="_top" xlink:title="Vide le cache des icônes (utile lors d&#39;un changement de thème)">
<polygon fill="white" stroke="#666666" points="372.12,-157 251.88,-157 251.88,-125 372.12,-125 372.12,-157"/>
<text xml:space="preserve" text-anchor="start" x="259.88" y="-143.5" font-family="Helvetica,sans-Serif" font-size="10.00">editeurpanovisu.util.Svg</text>
<text xml:space="preserve" text-anchor="middle" x="312" y="-131.5" font-family="Helvetica,sans-Serif" font-size="10.00">IconLoader.clearCache</text>
</a>
</g>
</g>
<!-- Node1&#45;&gt;Node2 -->
<g id="edge1_Node000001_Node000002" class="edge">
<title>Node1&#45;&gt;Node2</title>
<g id="a_edge1_Node000001_Node000002"><a xlink:title=" ">
<path fill="none" stroke="#63b8ff" d="M175.48,-125.77C196.97,-128.19 219.74,-130.75 240.35,-133.06"/>
<polygon fill="#63b8ff" stroke="#63b8ff" points="239.72,-136.51 250.05,-134.15 240.5,-129.56 239.72,-136.51"/>
</a>
</g>
</g>
<!-- Node3 -->
<g id="Node000003" class="node">
<title>Node3</title>
<g id="a_Node000003"><a xlink:href="classediteurpanovisu_1_1EditeurPanovisu.html#a43450ddf111546a6b22ad25c6ee0121e" target="_top" xlink:title="Recharge toutes les icônes SVG de la barre d&#39;outils Appelé lors du changement de thème pour mettre à ...">
<polygon fill="white" stroke="#666666" points="413,-107 211,-107 211,-75 413,-75 413,-107"/>
<text xml:space="preserve" text-anchor="start" x="219" y="-93.5" font-family="Helvetica,sans-Serif" font-size="10.00">editeurpanovisu.EditeurPanovisu.recharger</text>
<text xml:space="preserve" text-anchor="middle" x="312" y="-81.5" font-family="Helvetica,sans-Serif" font-size="10.00">Icones</text>
</a>
</g>
</g>
<!-- Node1&#45;&gt;Node3 -->
<g id="edge2_Node000001_Node000003" class="edge">
<title>Node1&#45;&gt;Node3</title>
<g id="a_edge2_Node000001_Node000003"><a xlink:title=" ">
<path fill="none" stroke="#63b8ff" d="M175.48,-106.23C183.35,-105.34 191.39,-104.44 199.43,-103.54"/>
<polygon fill="#63b8ff" stroke="#63b8ff" points="199.74,-107.02 209.28,-102.43 198.96,-100.07 199.74,-107.02"/>
</a>
</g>
</g>
<!-- Node4 -->
<g id="Node000004" class="node">
<title>Node4</title>
<g id="a_Node000004"><a xlink:href="classediteurpanovisu_1_1EditeurPanovisu.html#a4e67885ed592d9bc0bfab8426d0c2ebd" target="_top" xlink:title=" ">
<polygon fill="white" stroke="#666666" points="626.25,-132 451.25,-132 451.25,-100 626.25,-100 626.25,-132"/>
<text xml:space="preserve" text-anchor="start" x="459.25" y="-118.5" font-family="Helvetica,sans-Serif" font-size="10.00">editeurpanovisu.EditeurPanovisu.get</text>
<text xml:space="preserve" text-anchor="middle" x="538.75" y="-106.5" font-family="Helvetica,sans-Serif" font-size="10.00">IvAjouterPlan</text>
</a>
</g>
</g>
<!-- Node3&#45;&gt;Node4 -->
<g id="edge3_Node000003_Node000004" class="edge">
<title>Node3&#45;&gt;Node4</title>
<g id="a_edge3_Node000003_Node000004"><a xlink:title=" ">
<path fill="none" stroke="#63b8ff" d="M413.21,-102.15C421.92,-103.12 430.73,-104.1 439.42,-105.06"/>
<polygon fill="#63b8ff" stroke="#63b8ff" points="438.94,-108.53 449.27,-106.16 439.71,-101.57 438.94,-108.53"/>
</a>
</g>
</g>
<!-- Node5 -->
<g id="Node000005" class="node">
<title>Node5</title>
<g id="a_Node000005"><a xlink:href="classediteurpanovisu_1_1EditeurPanovisu.html#a786c8cb886a5b0d7bef0bc311876a62e" target="_top" xlink:title="Charge une icône SVG avec la taille spécifiée.">
<polygon fill="white" stroke="#666666" points="628.5,-82 449,-82 449,-50 628.5,-50 628.5,-82"/>
<text xml:space="preserve" text-anchor="start" x="457" y="-68.5" font-family="Helvetica,sans-Serif" font-size="10.00">editeurpanovisu.EditeurPanovisu.load</text>
<text xml:space="preserve" text-anchor="middle" x="538.75" y="-56.5" font-family="Helvetica,sans-Serif" font-size="10.00">SvgIcon</text>
</a>
</g>
</g>
<!-- Node3&#45;&gt;Node5 -->
<g id="edge4_Node000003_Node000005" class="edge">
<title>Node3&#45;&gt;Node5</title>
<g id="a_edge4_Node000003_Node000005"><a xlink:title=" ">
<path fill="none" stroke="#63b8ff" d="M413.21,-79.85C421.25,-78.96 429.37,-78.06 437.41,-77.16"/>
<polygon fill="#63b8ff" stroke="#63b8ff" points="437.64,-80.66 447.19,-76.07 436.87,-73.7 437.64,-80.66"/>
</a>
</g>
</g>
<!-- Node6 -->
<g id="Node000006" class="node">
<title>Node6</title>
<g id="a_Node000006"><a xlink:href="classediteurpanovisu_1_1EditeurPanovisu.html#ae9640dc5eb2933e07534464d6477d96c" target="_top" xlink:title=" ">
<polygon fill="white" stroke="#666666" points="839.5,-132 664.5,-132 664.5,-100 839.5,-100 839.5,-132"/>
<text xml:space="preserve" text-anchor="start" x="672.5" y="-118.5" font-family="Helvetica,sans-Serif" font-size="10.00">editeurpanovisu.EditeurPanovisu.get</text>
<text xml:space="preserve" text-anchor="middle" x="752" y="-106.5" font-family="Helvetica,sans-Serif" font-size="10.00">StrRepertAppli</text>
</a>
</g>
</g>
<!-- Node5&#45;&gt;Node6 -->
<g id="edge5_Node000005_Node000006" class="edge">
<title>Node5&#45;&gt;Node6</title>
<g id="a_edge5_Node000005_Node000006"><a xlink:title=" ">
<path fill="none" stroke="#63b8ff" d="M609.21,-82.44C628.8,-87.08 650.27,-92.16 670.44,-96.93"/>
<polygon fill="#63b8ff" stroke="#63b8ff" points="669.48,-100.3 680.02,-99.2 671.1,-93.49 669.48,-100.3"/>
</a>
</g>
</g>
<!-- Node7 -->
<g id="Node000007" class="node">
<title>Node7</title>
<g id="a_Node000007"><a xlink:href="classediteurpanovisu_1_1util_1_1SvgIconLoader.html#ab0e96e5ebb4dce78ea938d9adca21ce2" target="_top" xlink:title="Charge une icône SVG et la convertit en ImageView avec dimensions personnalisées.">
<polygon fill="white" stroke="#666666" points="812.5,-82 691.5,-82 691.5,-50 812.5,-50 812.5,-82"/>
<text xml:space="preserve" text-anchor="start" x="699.5" y="-68.5" font-family="Helvetica,sans-Serif" font-size="10.00">editeurpanovisu.util.Svg</text>
<text xml:space="preserve" text-anchor="middle" x="752" y="-56.5" font-family="Helvetica,sans-Serif" font-size="10.00">IconLoader.loadSvgIcon</text>
</a>
</g>
</g>
<!-- Node5&#45;&gt;Node7 -->
<g id="edge6_Node000005_Node000007" class="edge">
<title>Node5&#45;&gt;Node7</title>
<g id="a_edge6_Node000005_Node000007"><a xlink:title=" ">
<path fill="none" stroke="#63b8ff" d="M628.73,-66C645.86,-66 663.59,-66 680.06,-66"/>
<polygon fill="#63b8ff" stroke="#63b8ff" points="679.72,-69.5 689.72,-66 679.72,-62.5 679.72,-69.5"/>
</a>
</g>
</g>
<!-- Node12 -->
<g id="Node000012" class="node">
<title>Node12</title>
<g id="a_Node000012"><a xlink:href="classediteurpanovisu_1_1util_1_1SvgIconLoader.html#a10cd814eb1151190717a3b14b61172be" target="_top" xlink:title="Définit le chemin de base de l&#39;application.">
<polygon fill="white" stroke="#666666" points="822.25,-32 681.75,-32 681.75,0 822.25,0 822.25,-32"/>
<text xml:space="preserve" text-anchor="start" x="689.75" y="-18.5" font-family="Helvetica,sans-Serif" font-size="10.00">editeurpanovisu.util.Svg</text>
<text xml:space="preserve" text-anchor="middle" x="752" y="-6.5" font-family="Helvetica,sans-Serif" font-size="10.00">IconLoader.setBaseAppPath</text>
</a>
</g>
</g>
<!-- Node5&#45;&gt;Node12 -->
<g id="edge11_Node000005_Node000012" class="edge">
<title>Node5&#45;&gt;Node12</title>
<g id="a_edge11_Node000005_Node000012"><a xlink:title=" ">
<path fill="none" stroke="#63b8ff" d="M609.21,-49.56C628.8,-44.92 650.27,-39.84 670.44,-35.07"/>
<polygon fill="#63b8ff" stroke="#63b8ff" points="671.1,-38.51 680.02,-32.8 669.48,-31.7 671.1,-38.51"/>
</a>
</g>
</g>
<!-- Node8 -->
<g id="Node000008" class="node">
<title>Node8</title>
<g id="a_Node000008"><a xlink:href="classediteurpanovisu_1_1util_1_1SvgIconLoader.html#a8cf07e331f244b74d124210c1569d3b4" target="_top" xlink:title="Convertit un SVG en BufferedImage PNG avec Batik (dimensions personnalisées)">
<polygon fill="white" stroke="#666666" points="1019.75,-132 875.5,-132 875.5,-100 1019.75,-100 1019.75,-132"/>
<text xml:space="preserve" text-anchor="start" x="883.5" y="-118.5" font-family="Helvetica,sans-Serif" font-size="10.00">editeurpanovisu.util.Svg</text>
<text xml:space="preserve" text-anchor="middle" x="947.62" y="-106.5" font-family="Helvetica,sans-Serif" font-size="10.00">IconLoader.convertSvgToPng</text>
</a>
</g>
</g>
<!-- Node7&#45;&gt;Node8 -->
<g id="edge7_Node000007_Node000008" class="edge">
<title>Node7&#45;&gt;Node8</title>
<g id="a_edge7_Node000007_Node000008"><a xlink:title=" ">
<path fill="none" stroke="#63b8ff" d="M812.94,-81.48C831.59,-86.3 852.4,-91.67 871.93,-96.71"/>
<polygon fill="#63b8ff" stroke="#63b8ff" points="870.92,-100.07 881.48,-99.18 872.67,-93.29 870.92,-100.07"/>
</a>
</g>
</g>
<!-- Node9 -->
<g id="Node000009" class="node">
<title>Node9</title>
<g id="a_Node000009"><a xlink:href="classediteurpanovisu_1_1util_1_1SvgIconLoader.html#af5cfc8e00f14b39cc7972184362e819c" target="_top" xlink:title="Détecte la couleur appropriée selon le thème actif (clair ou foncé) Fonctionne avec tous les thèmes :...">
<polygon fill="white" stroke="#666666" points="1014.5,-82 880.75,-82 880.75,-50 1014.5,-50 1014.5,-82"/>
<text xml:space="preserve" text-anchor="start" x="888.75" y="-68.5" font-family="Helvetica,sans-Serif" font-size="10.00">editeurpanovisu.util.Svg</text>
<text xml:space="preserve" text-anchor="middle" x="947.62" y="-56.5" font-family="Helvetica,sans-Serif" font-size="10.00">IconLoader.getThemeColor</text>
</a>
</g>
</g>
<!-- Node7&#45;&gt;Node9 -->
<g id="edge8_Node000007_Node000009" class="edge">
<title>Node7&#45;&gt;Node9</title>
<g id="a_edge8_Node000007_Node000009"><a xlink:title=" ">
<path fill="none" stroke="#63b8ff" d="M812.94,-66C830.69,-66 850.39,-66 869.08,-66"/>
<polygon fill="#63b8ff" stroke="#63b8ff" points="869.05,-69.5 879.05,-66 869.05,-62.5 869.05,-69.5"/>
</a>
</g>
</g>
<!-- Node10 -->
<g id="Node000010" class="node">
<title>Node10</title>
<g id="a_Node000010"><a xlink:href="classediteurpanovisu_1_1util_1_1SvgIconLoader.html#ab9fdb534790cb51ab1b57c506d003289" target="_top" xlink:title="Fallback: charge l&#39;icône PNG si le SVG n&#39;est pas disponible.">
<polygon fill="white" stroke="#666666" points="1017.12,-32 878.12,-32 878.12,0 1017.12,0 1017.12,-32"/>
<text xml:space="preserve" text-anchor="start" x="886.12" y="-18.5" font-family="Helvetica,sans-Serif" font-size="10.00">editeurpanovisu.util.Svg</text>
<text xml:space="preserve" text-anchor="middle" x="947.62" y="-6.5" font-family="Helvetica,sans-Serif" font-size="10.00">IconLoader.loadFallbackPng</text>
</a>
</g>
</g>
<!-- Node7&#45;&gt;Node10 -->
<g id="edge9_Node000007_Node000010" class="edge">
<title>Node7&#45;&gt;Node10</title>
<g id="a_edge9_Node000007_Node000010"><a xlink:title=" ">
<path fill="none" stroke="#63b8ff" d="M812.94,-50.52C831.59,-45.7 852.4,-40.33 871.93,-35.29"/>
<polygon fill="#63b8ff" stroke="#63b8ff" points="872.67,-38.71 881.48,-32.82 870.92,-31.93 872.67,-38.71"/>
</a>
</g>
</g>
<!-- Node11 -->
<g id="Node000011" class="node">
<title>Node11</title>
<g id="a_Node000011"><a xlink:href="classediteurpanovisu_1_1util_1_1SvgIconLoader.html#af546932dfbd067f7700bd0832d5efb64" target="_top" xlink:title="Mappe les noms de fichiers SVG vers les noms PNG existants.">
<polygon fill="white" stroke="#666666" points="1186.5,-32 1055.75,-32 1055.75,0 1186.5,0 1186.5,-32"/>
<text xml:space="preserve" text-anchor="start" x="1063.75" y="-18.5" font-family="Helvetica,sans-Serif" font-size="10.00">editeurpanovisu.util.Svg</text>
<text xml:space="preserve" text-anchor="middle" x="1121.12" y="-6.5" font-family="Helvetica,sans-Serif" font-size="10.00">IconLoader.mapSvgToPng</text>
</a>
</g>
</g>
<!-- Node10&#45;&gt;Node11 -->
<g id="edge10_Node000010_Node000011" class="edge">
<title>Node10&#45;&gt;Node11</title>
<g id="a_edge10_Node000010_Node000011"><a xlink:title=" ">
<path fill="none" stroke="#63b8ff" d="M1017.39,-16C1026.24,-16 1035.33,-16 1044.29,-16"/>
<polygon fill="#63b8ff" stroke="#63b8ff" points="1044,-19.5 1054,-16 1044,-12.5 1044,-19.5"/>
</a>
</g>
</g>
</g>
</svg>

<g id="navigator" transform="translate(0 0)" fill="#404254">
  <rect fill="#f2f5e9" fill-opacity="0.5" stroke="#606060" stroke-width=".5" x="0" y="0" width="60" height="60"/>
  <use id="zoomplus" xlink:href="#zoomPlus" x="17" y="9" onmousedown="handleZoom(evt,'in')"/>
  <use id="zoomminus" xlink:href="#zoomMin" x="42" y="9" onmousedown="handleZoom(evt,'out')"/>
  <use id="reset" xlink:href="#resetDef" x="30" y="36" onmousedown="handleReset()"/>
   <use id="arrowup" xlink:href="#arrowUp" x="0" y="0" onmousedown="handlePan(0,-1)"/>
  <use id="arrowright" xlink:href="#arrowRight" x="0" y="0" onmousedown="handlePan(1,0)"/>
  <use id="arrowdown" xlink:href="#arrowDown" x="0" y="0" onmousedown="handlePan(0,1)"/>
  <use id="arrowleft" xlink:href="#arrowLeft" x="0" y="0" onmousedown="handlePan(-1,0)"/>
</g>
<svg viewBox="0 0 15 15" width="100%" height="30px" preserveAspectRatio="xMaxYMin meet">
 <g id="arrow_out" transform="scale(0.3 0.3)">
  <a xlink:href="classediteurpanovisu_1_1EditeurPanovisu_ac7f9fc08f7517cc58ad3ee2ffc463c41_cgraph_org.svg" target="_base">
   <rect id="button" ry="5" rx="5" y="6" x="6" height="38" width="38"
        fill="#f2f5e9" fill-opacity="0.5" stroke="#606060" stroke-width="1.0"/>
   <path id="arrow"
     d="M 11.500037,31.436501 C 11.940474,20.09759 22.043105,11.32322 32.158766,21.979434 L 37.068811,17.246167 C 37.068811,17.246167 37.088388,32 37.088388,32 L 22.160133,31.978069 C 22.160133,31.978069 26.997745,27.140456 26.997745,27.140456 C 18.528582,18.264221 13.291696,25.230495 11.500037,31.436501 z"
     style="fill:#404040;"/>
  </a>
 </g>
</svg>

<style type='text/css'>
<![CDATA[
[data-mouse-over-selected='false'] { opacity: 0.7; }
[data-mouse-over-selected='true']  { opacity: 1.0; }
]]>
</style>
<script type="application/ecmascript"><![CDATA[
document.addEventListener('DOMContentLoaded', (event) => {
  highlightEdges();
  highlightAdjacentNodes();
});
]]></script>
</svg>
