<?xml version="1.0" encoding="UTF-8" standalone="no"?>
<!DOCTYPE svg PUBLIC "-//W3C//DTD SVG 1.1//EN"
 "http://www.w3.org/Graphics/SVG/1.1/DTD/svg11.dtd">
<!-- Generated by graphviz version 13.1.2 (20250808.2320)
 -->
<!-- Title: editeurpanovisu.GestionnairePlanController.valideHsplan Pages: 1 -->
<!--zoomable 408 -->

<svg id="main" version="1.1" xmlns="http://www.w3.org/2000/svg" xmlns:xlink="http://www.w3.org/1999/xlink" xml:space="preserve" onload="init(evt)">

<style type="text/css"><![CDATA[
.node, .edge {opacity: 0.7;}
.node.selected, .edge.selected {opacity: 1;}
.edge:hover path { stroke: red; }
.edge:hover polygon { stroke: red; fill: red; }
]]></style>

<defs>
  <circle id="rim" cx="0" cy="0" r="7"/>
  <circle id="rim2" cx="0" cy="0" r="3.5"/>
  <g id="zoomPlus">
    <use xlink:href="#rim" fill="#404040"><set attributeName="fill" to="#808080" begin="zoomplus.mouseover" end="zoomplus.mouseout"/></use>
    <path d="M-4,0h8M0,-4v8" fill="none" stroke="white" stroke-width="1.5" pointer-events="none"/>
  </g>
  <g id="zoomMin">
    <use xlink:href="#rim" fill="#404040"><set attributeName="fill" to="#808080" begin="zoomminus.mouseover" end="zoomminus.mouseout"/></use>
    <path d="M-4,0h8" fill="none" stroke="white" stroke-width="1.5" pointer-events="none"/>
  </g>
  <g id="arrowUp" transform="translate(30 24)">
    <use xlink:href="#rim"/>
    <path pointer-events="none" fill="none" stroke="white" stroke-width="1.5" d="M0,-3.0v7 M-2.5,-0.5L0,-3.0L2.5,-0.5"/>
  </g>
  <g id="arrowRight" transform="rotate(90) translate(36 -43)">
    <use xlink:href="#rim"/>
    <path pointer-events="none" fill="none" stroke="white" stroke-width="1.5" d="M0,-3.0v7 M-2.5,-0.5L0,-3.0L2.5,-0.5"/>
  </g>
  <g id="arrowDown" transform="rotate(180) translate(-30 -48)">
    <use xlink:href="#rim"/>
    <path pointer-events="none" fill="none" stroke="white" stroke-width="1.5" d="M0,-3.0v7 M-2.5,-0.5L0,-3.0L2.5,-0.5"/>
  </g>
  <g id="arrowLeft" transform="rotate(270) translate(-36 17)">
    <use xlink:href="#rim"/>
    <path pointer-events="none" fill="none" stroke="white" stroke-width="1.5" d="M0,-3.0v7 M-2.5,-0.5L0,-3.0L2.5,-0.5"/>
  </g>
  <g id="resetDef">
    <use xlink:href="#rim2" fill="#404040"><set attributeName="fill" to="#808080" begin="reset.mouseover" end="reset.mouseout"/></use>
  </g>
</defs>
<script type="application/ecmascript">
var viewWidth = 3524;
var viewHeight = 408;
var sectionId = 'dynsection-48';
</script>
<script type="application/ecmascript" xlink:href="svg.min.js"/>
<svg id="graph" class="graph">
<g id="viewport">
<title>editeurpanovisu.GestionnairePlanController.valideHsplan</title>
<!-- Node1 -->
<g id="Node000001" class="node">
<title>Node1</title>
<g id="a_Node000001"><a xlink:title=" ">
<polygon fill="#999999" stroke="#666666" points="3515.75,-150.56 3373.75,-150.56 3373.75,-118.56 3515.75,-118.56 3515.75,-150.56"/>
<text xml:space="preserve" text-anchor="start" x="3381.75" y="-137.06" font-family="Helvetica,sans-Serif" font-size="10.00">editeurpanovisu.Gestionnaire</text>
<text xml:space="preserve" text-anchor="middle" x="3444.75" y="-125.06" font-family="Helvetica,sans-Serif" font-size="10.00">PlanController.valideHsplan</text>
</a>
</g>
</g>
<!-- Node2 -->
<g id="Node000002" class="node">
<title>Node2</title>
<g id="a_Node000002"><a xlink:href="classediteurpanovisu_1_1GestionnairePlanController.html#ad4f72bd693b5b3bd93bee89bda000990" target="_top" xlink:title=" ">
<polygon fill="white" stroke="#666666" points="3337.75,-125.56 3195.75,-125.56 3195.75,-93.56 3337.75,-93.56 3337.75,-125.56"/>
<text xml:space="preserve" text-anchor="start" x="3203.75" y="-112.06" font-family="Helvetica,sans-Serif" font-size="10.00">editeurpanovisu.Gestionnaire</text>
<text xml:space="preserve" text-anchor="middle" x="3266.75" y="-100.06" font-family="Helvetica,sans-Serif" font-size="10.00">PlanController.affichageHS</text>
</a>
</g>
</g>
<!-- Node1&#45;&gt;Node2 -->
<g id="edge1_Node000001_Node000002" class="edge">
<title>Node1&#45;&gt;Node2</title>
<g id="a_edge1_Node000001_Node000002"><a xlink:title=" ">
<path fill="none" stroke="#63b8ff" d="M3362.2,-122.98C3354.19,-121.84 3346.12,-120.69 3338.24,-119.57"/>
<polygon fill="#63b8ff" stroke="#63b8ff" points="3361.54,-126.42 3371.93,-124.36 3362.52,-119.49 3361.54,-126.42"/>
</a>
</g>
</g>
<!-- Node4 -->
<g id="Node000004" class="node">
<title>Node4</title>
<g id="a_Node000004"><a xlink:href="classediteurpanovisu_1_1GestionnairePlanController.html#a2e6f0187e7151e006c001659da532c6e" target="_top" xlink:title=" ">
<polygon fill="white" stroke="#666666" points="2738.5,-96.56 2596.5,-96.56 2596.5,-64.56 2738.5,-64.56 2738.5,-96.56"/>
<text xml:space="preserve" text-anchor="start" x="2604.5" y="-83.06" font-family="Helvetica,sans-Serif" font-size="10.00">editeurpanovisu.Gestionnaire</text>
<text xml:space="preserve" text-anchor="middle" x="2667.5" y="-71.06" font-family="Helvetica,sans-Serif" font-size="10.00">PlanController.afficheHS</text>
</a>
</g>
</g>
<!-- Node1&#45;&gt;Node4 -->
<g id="edge46_Node000001_Node000004" class="edge">
<title>Node1&#45;&gt;Node4</title>
<g id="a_edge46_Node000001_Node000004"><a xlink:title=" ">
<path fill="none" stroke="#63b8ff" d="M3407.64,-112.72C3387.77,-101.97 3362.25,-90.14 3337.75,-84.56 3123.92,-35.82 2861.59,-56.78 2738.52,-71.15"/>
<polygon fill="#63b8ff" stroke="#63b8ff" points="3405.71,-115.66 3416.15,-117.47 3409.12,-109.54 3405.71,-115.66"/>
</a>
</g>
</g>
<!-- Node24 -->
<g id="Node000024" class="node">
<title>Node24</title>
<g id="a_Node000024"><a xlink:href="classediteurpanovisu_1_1GestionnairePlanController.html#a375ef7ea66bf40c2ad7d973e1a40c065" target="_top" xlink:title=" ">
<polygon fill="white" stroke="#666666" points="2936.75,-181.56 2776,-181.56 2776,-137.56 2936.75,-137.56 2936.75,-181.56"/>
<text xml:space="preserve" text-anchor="start" x="2784" y="-168.06" font-family="Helvetica,sans-Serif" font-size="10.00">editeurpanovisu.Gestionnaire</text>
<text xml:space="preserve" text-anchor="start" x="2784" y="-156.06" font-family="Helvetica,sans-Serif" font-size="10.00">PlanController.afficherListePanos</text>
<text xml:space="preserve" text-anchor="middle" x="2856.38" y="-144.06" font-family="Helvetica,sans-Serif" font-size="10.00">Vignettes</text>
</a>
</g>
</g>
<!-- Node1&#45;&gt;Node24 -->
<g id="edge47_Node000001_Node000024" class="edge">
<title>Node1&#45;&gt;Node24</title>
<g id="a_edge47_Node000001_Node000024"><a xlink:title=" ">
<path fill="none" stroke="#63b8ff" d="M3362.04,-138.04C3249.52,-142.84 3048.2,-151.42 2936.87,-156.17"/>
<polygon fill="#63b8ff" stroke="#63b8ff" points="3361.96,-141.55 3371.8,-137.63 3361.66,-134.56 3361.96,-141.55"/>
</a>
</g>
</g>
<!-- Node25 -->
<g id="Node000025" class="node">
<title>Node25</title>
<g id="a_Node000025"><a xlink:href="classediteurpanovisu_1_1GestionnairePlanController.html#af59de56896ae00bb1d75f97b68e565a3" target="_top" xlink:title=" ">
<polygon fill="white" stroke="#666666" points="2740,-172.56 2595,-172.56 2595,-140.56 2740,-140.56 2740,-172.56"/>
<text xml:space="preserve" text-anchor="start" x="2603" y="-159.06" font-family="Helvetica,sans-Serif" font-size="10.00">editeurpanovisu.Gestionnaire</text>
<text xml:space="preserve" text-anchor="middle" x="2667.5" y="-147.06" font-family="Helvetica,sans-Serif" font-size="10.00">PlanController.planMouseClic</text>
</a>
</g>
</g>
<!-- Node1&#45;&gt;Node25 -->
<g id="edge48_Node000001_Node000025" class="edge">
<title>Node1&#45;&gt;Node25</title>
<g id="a_edge48_Node000001_Node000025"><a xlink:title=" ">
<path fill="none" stroke="#63b8ff" d="M3363.6,-153.45C3237.82,-180.37 2986.66,-223.08 2776,-190.56 2753.75,-187.13 2729.8,-179.92 2710.16,-173.02"/>
<polygon fill="#63b8ff" stroke="#63b8ff" points="3364.13,-156.92 3373.17,-151.38 3362.65,-150.07 3364.13,-156.92"/>
</a>
</g>
</g>
<!-- Node3 -->
<g id="Node000003" class="node">
<title>Node3</title>
<g id="a_Node000003"><a xlink:href="classediteurpanovisu_1_1GestionnairePlanController.html#ac6a814832aad8390d7157032c3f7f107" target="_top" xlink:title=" ">
<polygon fill="white" stroke="#666666" points="3159.75,-125.56 2972.75,-125.56 2972.75,-93.56 3159.75,-93.56 3159.75,-125.56"/>
<text xml:space="preserve" text-anchor="start" x="2980.75" y="-112.06" font-family="Helvetica,sans-Serif" font-size="10.00">editeurpanovisu.Gestionnaire</text>
<text xml:space="preserve" text-anchor="middle" x="3066.25" y="-100.06" font-family="Helvetica,sans-Serif" font-size="10.00">PlanController.ajouteAffichageHotspots</text>
</a>
</g>
</g>
<!-- Node2&#45;&gt;Node3 -->
<g id="edge2_Node000002_Node000003" class="edge">
<title>Node2&#45;&gt;Node3</title>
<g id="a_edge2_Node000002_Node000003"><a xlink:title=" ">
<path fill="none" stroke="#63b8ff" d="M3184.02,-102.9C3176.1,-102.82 3168.03,-102.79 3160.01,-102.82"/>
<polygon fill="#63b8ff" stroke="#63b8ff" points="3183.92,-106.4 3193.97,-103.05 3184.03,-99.4 3183.92,-106.4"/>
</a>
</g>
</g>
<!-- Node3&#45;&gt;Node2 -->
<g id="edge3_Node000003_Node000002" class="edge">
<title>Node3&#45;&gt;Node2</title>
<g id="a_edge3_Node000003_Node000002"><a xlink:title=" ">
<path fill="none" stroke="#63b8ff" d="M3171.49,-116.3C3179.61,-116.28 3187.68,-116.19 3195.49,-116.05"/>
<polygon fill="#63b8ff" stroke="#63b8ff" points="3171.53,-112.8 3161.53,-116.3 3171.53,-119.8 3171.53,-112.8"/>
</a>
</g>
</g>
<!-- Node3&#45;&gt;Node4 -->
<g id="edge4_Node000003_Node000004" class="edge">
<title>Node3&#45;&gt;Node4</title>
<g id="a_edge4_Node000003_Node000004"><a xlink:title=" ">
<path fill="none" stroke="#63b8ff" d="M2961.08,-97.74C2952.86,-96.95 2944.67,-96.21 2936.75,-95.56 2869.69,-90.04 2793.04,-85.97 2738.89,-83.48"/>
<polygon fill="#63b8ff" stroke="#63b8ff" points="2960.51,-101.2 2970.8,-98.7 2961.19,-94.24 2960.51,-101.2"/>
</a>
</g>
</g>
<!-- Node6 -->
<g id="Node000006" class="node">
<title>Node6</title>
<g id="a_Node000006"><a xlink:href="classediteurpanovisu_1_1GestionnairePlanController.html#a0c00558611ee42fef942f5a53081d888" target="_top" xlink:title=" ">
<polygon fill="white" stroke="#666666" points="2345.75,-99.56 2203.75,-99.56 2203.75,-67.56 2345.75,-67.56 2345.75,-99.56"/>
<text xml:space="preserve" text-anchor="start" x="2211.75" y="-86.06" font-family="Helvetica,sans-Serif" font-size="10.00">editeurpanovisu.Gestionnaire</text>
<text xml:space="preserve" text-anchor="middle" x="2274.75" y="-74.06" font-family="Helvetica,sans-Serif" font-size="10.00">PlanController.afficherPlan</text>
</a>
</g>
</g>
<!-- Node3&#45;&gt;Node6 -->
<g id="edge44_Node000003_Node000006" class="edge">
<title>Node3&#45;&gt;Node6</title>
<g id="a_edge44_Node000003_Node000006"><a xlink:title=" ">
<path fill="none" stroke="#63b8ff" d="M2983.6,-90.7C2968.09,-87.42 2951.95,-84.22 2936.75,-81.56 2694.42,-39.22 2627.62,-18.36 2384,-52.56 2363.48,-55.44 2341.39,-61.25 2322.56,-67.07"/>
<polygon fill="#63b8ff" stroke="#63b8ff" points="2982.77,-94.1 2993.28,-92.78 2984.24,-87.26 2982.77,-94.1"/>
</a>
</g>
</g>
<!-- Node3&#45;&gt;Node24 -->
<g id="edge39_Node000003_Node000024" class="edge">
<title>Node3&#45;&gt;Node24</title>
<g id="a_edge39_Node000003_Node000024"><a xlink:title=" ">
<path fill="none" stroke="#63b8ff" d="M2985.94,-128.64C2969.89,-132.5 2953.01,-136.56 2936.96,-140.42"/>
<polygon fill="#63b8ff" stroke="#63b8ff" points="2986.52,-132.1 2995.42,-126.36 2984.88,-125.29 2986.52,-132.1"/>
</a>
</g>
</g>
<!-- Node3&#45;&gt;Node25 -->
<g id="edge45_Node000003_Node000025" class="edge">
<title>Node3&#45;&gt;Node25</title>
<g id="a_edge45_Node000003_Node000025"><a xlink:title=" ">
<path fill="none" stroke="#63b8ff" d="M2961.04,-111.65C2905.77,-113.95 2836.89,-118.72 2776,-128.56 2758.77,-131.34 2740.29,-135.66 2723.59,-140.07"/>
<polygon fill="#63b8ff" stroke="#63b8ff" points="2960.89,-115.15 2970.75,-111.26 2960.62,-108.16 2960.89,-115.15"/>
</a>
</g>
</g>
<!-- Node5 -->
<g id="Node000005" class="node">
<title>Node5</title>
<g id="a_Node000005"><a xlink:href="classediteurpanovisu_1_1GestionnairePlanController.html#a6ca25de825e710388268b0a3ced9d868" target="_top" xlink:title=" ">
<polygon fill="white" stroke="#666666" points="2559,-105.56 2384,-105.56 2384,-61.56 2559,-61.56 2559,-105.56"/>
<text xml:space="preserve" text-anchor="start" x="2392" y="-92.06" font-family="Helvetica,sans-Serif" font-size="10.00">editeurpanovisu.Gestionnaire</text>
<text xml:space="preserve" text-anchor="start" x="2392" y="-80.06" font-family="Helvetica,sans-Serif" font-size="10.00">PlanController.ajouteAffichagePoints</text>
<text xml:space="preserve" text-anchor="middle" x="2471.5" y="-68.06" font-family="Helvetica,sans-Serif" font-size="10.00">Hotspots</text>
</a>
</g>
</g>
<!-- Node4&#45;&gt;Node5 -->
<g id="edge5_Node000004_Node000005" class="edge">
<title>Node4&#45;&gt;Node5</title>
<g id="a_edge5_Node000004_Node000005"><a xlink:title=" ">
<path fill="none" stroke="#63b8ff" d="M2584.86,-81.82C2576.46,-81.95 2567.91,-82.08 2559.45,-82.22"/>
<polygon fill="#63b8ff" stroke="#63b8ff" points="2584.73,-85.32 2594.67,-81.67 2584.62,-78.33 2584.73,-85.32"/>
</a>
</g>
</g>
<!-- Node5&#45;&gt;Node6 -->
<g id="edge6_Node000005_Node000006" class="edge">
<title>Node5&#45;&gt;Node6</title>
<g id="a_edge6_Node000005_Node000006"><a xlink:title=" ">
<path fill="none" stroke="#63b8ff" d="M2372.42,-83.56C2363.53,-83.56 2354.65,-83.56 2346.07,-83.56"/>
<polygon fill="#63b8ff" stroke="#63b8ff" points="2372.15,-87.06 2382.15,-83.56 2372.15,-80.06 2372.15,-87.06"/>
</a>
</g>
</g>
<!-- Node7 -->
<g id="Node000007" class="node">
<title>Node7</title>
<g id="a_Node000007"><a xlink:href="classediteurpanovisu_1_1GestionnairePlanController.html#a28463a3559d99394ecb23f3c74d14835" target="_top" xlink:title=" ">
<polygon fill="white" stroke="#666666" points="2158.38,-313.56 2016.38,-313.56 2016.38,-281.56 2158.38,-281.56 2158.38,-313.56"/>
<text xml:space="preserve" text-anchor="start" x="2024.38" y="-300.06" font-family="Helvetica,sans-Serif" font-size="10.00">editeurpanovisu.Gestionnaire</text>
<text xml:space="preserve" text-anchor="middle" x="2087.38" y="-288.06" font-family="Helvetica,sans-Serif" font-size="10.00">PlanController.ajouterPlan</text>
</a>
</g>
</g>
<!-- Node6&#45;&gt;Node7 -->
<g id="edge7_Node000006_Node000007" class="edge">
<title>Node6&#45;&gt;Node7</title>
<g id="a_edge7_Node000006_Node000007"><a xlink:title=" ">
<path fill="none" stroke="#63b8ff" d="M2216.92,-105.52C2211.42,-108.79 2206.16,-112.47 2201.5,-116.56 2146.49,-164.84 2109.03,-246.35 2094.78,-281.09"/>
<polygon fill="#63b8ff" stroke="#63b8ff" points="2218.55,-108.62 2225.67,-100.77 2215.21,-102.46 2218.55,-108.62"/>
</a>
</g>
</g>
<!-- Node22 -->
<g id="Node000022" class="node">
<title>Node22</title>
<g id="a_Node000022"><a xlink:href="classediteurpanovisu_1_1GestionnairePlanController.html#a5cee5137d1f749e8a23a38ecb3bf38cb" target="_top" xlink:title=" ">
<polygon fill="white" stroke="#666666" points="1956.75,-79.56 1814.75,-79.56 1814.75,-47.56 1956.75,-47.56 1956.75,-79.56"/>
<text xml:space="preserve" text-anchor="start" x="1822.75" y="-66.06" font-family="Helvetica,sans-Serif" font-size="10.00">editeurpanovisu.Gestionnaire</text>
<text xml:space="preserve" text-anchor="middle" x="1885.75" y="-54.06" font-family="Helvetica,sans-Serif" font-size="10.00">PlanController.creeInterface</text>
</a>
</g>
</g>
<!-- Node6&#45;&gt;Node22 -->
<g id="edge35_Node000006_Node000022" class="edge">
<title>Node6&#45;&gt;Node22</title>
<g id="a_edge35_Node000006_Node000022"><a xlink:title=" ">
<path fill="none" stroke="#63b8ff" d="M2192.31,-79.35C2122.58,-75.75 2023.24,-70.61 1956.96,-67.19"/>
<polygon fill="#63b8ff" stroke="#63b8ff" points="2191.99,-82.84 2202.16,-79.86 2192.35,-75.85 2191.99,-82.84"/>
</a>
</g>
</g>
<!-- Node23 -->
<g id="Node000023" class="node">
<title>Node23</title>
<g id="a_Node000023"><a xlink:href="classediteurpanovisu_1_1GestionnairePlanController.html#a06b6b5ee31b551123cfa45faa50b52b9" target="_top" xlink:title=" ">
<polygon fill="white" stroke="#666666" points="2165.5,-57.56 2009.25,-57.56 2009.25,-25.56 2165.5,-25.56 2165.5,-57.56"/>
<text xml:space="preserve" text-anchor="start" x="2017.25" y="-44.06" font-family="Helvetica,sans-Serif" font-size="10.00">editeurpanovisu.Gestionnaire</text>
<text xml:space="preserve" text-anchor="middle" x="2087.38" y="-32.06" font-family="Helvetica,sans-Serif" font-size="10.00">PlanController.retirePlanCourant</text>
</a>
</g>
</g>
<!-- Node6&#45;&gt;Node23 -->
<g id="edge37_Node000006_Node000023" class="edge">
<title>Node6&#45;&gt;Node23</title>
<g id="a_edge37_Node000006_Node000023"><a xlink:title=" ">
<path fill="none" stroke="#63b8ff" d="M2192.26,-65.1C2181.9,-62.75 2171.35,-60.36 2161.14,-58.05"/>
<polygon fill="#63b8ff" stroke="#63b8ff" points="2191.4,-68.49 2201.93,-67.29 2192.95,-61.66 2191.4,-68.49"/>
</a>
</g>
</g>
<!-- Node8 -->
<g id="Node000008" class="node">
<title>Node8</title>
<g id="a_Node000008"><a xlink:href="classediteurpanovisu_1_1EditeurPanovisu.html#af504270c500842e35c1a37bf1e6d3e8d" target="_top" xlink:title=" ">
<polygon fill="white" stroke="#666666" points="1759.25,-399.56 1579.75,-399.56 1579.75,-367.56 1759.25,-367.56 1759.25,-399.56"/>
<text xml:space="preserve" text-anchor="start" x="1587.75" y="-386.06" font-family="Helvetica,sans-Serif" font-size="10.00">editeurpanovisu.EditeurPanovisu.plan</text>
<text xml:space="preserve" text-anchor="middle" x="1669.5" y="-374.06" font-family="Helvetica,sans-Serif" font-size="10.00">Ajouter</text>
</a>
</g>
</g>
<!-- Node7&#45;&gt;Node8 -->
<g id="edge8_Node000007_Node000008" class="edge">
<title>Node7&#45;&gt;Node8</title>
<g id="a_edge8_Node000007_Node000008"><a xlink:title=" ">
<path fill="none" stroke="#63b8ff" d="M2005.05,-315.72C1994.36,-318.05 1983.55,-320.38 1973.25,-322.56 1899.41,-338.16 1815.25,-355.04 1754.44,-367.08"/>
<polygon fill="#63b8ff" stroke="#63b8ff" points="2005.62,-319.18 2014.64,-313.62 2004.12,-312.34 2005.62,-319.18"/>
</a>
</g>
</g>
<!-- Node11 -->
<g id="Node000011" class="node">
<title>Node11</title>
<g id="a_Node000011"><a xlink:href="classediteurpanovisu_1_1EditeurPanovisu.html#a87b29dc258cfc67370b1f27809e91b8e" target="_top" xlink:title=" ">
<polygon fill="white" stroke="#666666" points="1973.25,-313.56 1798.25,-313.56 1798.25,-281.56 1973.25,-281.56 1973.25,-313.56"/>
<text xml:space="preserve" text-anchor="start" x="1806.25" y="-300.06" font-family="Helvetica,sans-Serif" font-size="10.00">editeurpanovisu.EditeurPanovisu.tsk</text>
<text xml:space="preserve" text-anchor="middle" x="1885.75" y="-288.06" font-family="Helvetica,sans-Serif" font-size="10.00">AnalyseFichierPVU</text>
</a>
</g>
</g>
<!-- Node7&#45;&gt;Node11 -->
<g id="edge11_Node000007_Node000011" class="edge">
<title>Node7&#45;&gt;Node11</title>
<g id="a_edge11_Node000007_Node000011"><a xlink:title=" ">
<path fill="none" stroke="#63b8ff" d="M2004.6,-297.56C1994.39,-297.56 1983.92,-297.56 1973.64,-297.56"/>
<polygon fill="#63b8ff" stroke="#63b8ff" points="2004.48,-301.06 2014.48,-297.56 2004.48,-294.06 2004.48,-301.06"/>
</a>
</g>
</g>
<!-- Node9 -->
<g id="Node000009" class="node">
<title>Node9</title>
<g id="a_Node000009"><a xlink:href="classediteurpanovisu_1_1EditeurPanovisu.html#ac912b80c1f2ac97def60ff005c5c480b" target="_top" xlink:title=" ">
<polygon fill="white" stroke="#666666" points="420.5,-195.56 216.25,-195.56 216.25,-175.56 420.5,-175.56 420.5,-195.56"/>
<text xml:space="preserve" text-anchor="middle" x="318.38" y="-182.06" font-family="Helvetica,sans-Serif" font-size="10.00">editeurpanovisu.EditeurPanovisu.creeMenu</text>
</a>
</g>
</g>
<!-- Node8&#45;&gt;Node9 -->
<g id="edge9_Node000008_Node000009" class="edge">
<title>Node8&#45;&gt;Node9</title>
<g id="a_edge9_Node000008_Node000009"><a xlink:title=" ">
<path fill="none" stroke="#63b8ff" d="M1568.08,-383.56C1478.24,-383.56 1342.96,-383.56 1225.25,-383.56 1225.25,-383.56 1225.25,-383.56 775,-383.56 629.57,-383.56 585.41,-375.87 456.5,-308.56 399.52,-278.81 347.48,-219.95 327.75,-196.03"/>
<polygon fill="#63b8ff" stroke="#63b8ff" points="1567.84,-387.06 1577.84,-383.56 1567.84,-380.06 1567.84,-387.06"/>
</a>
</g>
</g>
<!-- Node10 -->
<g id="Node000010" class="node">
<title>Node10</title>
<g id="a_Node000010"><a xlink:href="classediteurpanovisu_1_1EditeurPanovisu.html#a86c393eee88f54c694db994ddd85b90d" target="_top" xlink:title=" ">
<polygon fill="white" stroke="#666666" points="180.25,-201.56 0,-201.56 0,-169.56 180.25,-169.56 180.25,-201.56"/>
<text xml:space="preserve" text-anchor="start" x="8" y="-188.06" font-family="Helvetica,sans-Serif" font-size="10.00">editeurpanovisu.EditeurPanovisu.cree</text>
<text xml:space="preserve" text-anchor="middle" x="90.12" y="-176.06" font-family="Helvetica,sans-Serif" font-size="10.00">Environnement</text>
</a>
</g>
</g>
<!-- Node9&#45;&gt;Node10 -->
<g id="edge10_Node000009_Node000010" class="edge">
<title>Node9&#45;&gt;Node10</title>
<g id="a_edge10_Node000009_Node000010"><a xlink:title=" ">
<path fill="none" stroke="#63b8ff" d="M204.51,-185.56C196.49,-185.56 188.46,-185.56 180.6,-185.56"/>
<polygon fill="#63b8ff" stroke="#63b8ff" points="204.32,-189.06 214.32,-185.56 204.32,-182.06 204.32,-189.06"/>
</a>
</g>
</g>
<!-- Node12 -->
<g id="Node000012" class="node">
<title>Node12</title>
<g id="a_Node000012"><a xlink:href="classediteurpanovisu_1_1EditeurPanovisu.html#ab4beb1597b660a4a253befc6e76f1c54" target="_top" xlink:title=" ">
<polygon fill="white" stroke="#666666" points="1092.88,-317.56 907.38,-317.56 907.38,-285.56 1092.88,-285.56 1092.88,-317.56"/>
<text xml:space="preserve" text-anchor="start" x="915.38" y="-304.06" font-family="Helvetica,sans-Serif" font-size="10.00">editeurpanovisu.EditeurPanovisu.projet</text>
<text xml:space="preserve" text-anchor="middle" x="1000.12" y="-292.06" font-family="Helvetica,sans-Serif" font-size="10.00">Charge</text>
</a>
</g>
</g>
<!-- Node11&#45;&gt;Node12 -->
<g id="edge12_Node000011_Node000012" class="edge">
<title>Node11&#45;&gt;Node12</title>
<g id="a_edge12_Node000011_Node000012"><a xlink:title=" ">
<path fill="none" stroke="#63b8ff" d="M1786.7,-298C1614.73,-298.78 1261.08,-300.38 1093.33,-301.14"/>
<polygon fill="#63b8ff" stroke="#63b8ff" points="1786.51,-301.5 1796.5,-297.96 1786.48,-294.5 1786.51,-301.5"/>
</a>
</g>
</g>
<!-- Node13 -->
<g id="Node000013" class="node">
<title>Node13</title>
<g id="a_Node000013"><a xlink:href="classediteurpanovisu_1_1EditeurPanovisu.html#a6d19b4d885ee6fcec827b91956295732" target="_top" xlink:title=" ">
<polygon fill="white" stroke="#666666" points="1762.25,-272.56 1576.75,-272.56 1576.75,-240.56 1762.25,-240.56 1762.25,-272.56"/>
<text xml:space="preserve" text-anchor="start" x="1584.75" y="-259.06" font-family="Helvetica,sans-Serif" font-size="10.00">editeurpanovisu.EditeurPanovisu.projet</text>
<text xml:space="preserve" text-anchor="middle" x="1669.5" y="-247.06" font-family="Helvetica,sans-Serif" font-size="10.00">ChargeNom</text>
</a>
</g>
</g>
<!-- Node11&#45;&gt;Node13 -->
<g id="edge14_Node000011_Node000013" class="edge">
<title>Node11&#45;&gt;Node13</title>
<g id="a_edge14_Node000011_Node000013"><a xlink:title=" ">
<path fill="none" stroke="#63b8ff" d="M1787.42,-278.93C1777.12,-276.96 1766.7,-274.97 1756.54,-273.03"/>
<polygon fill="#63b8ff" stroke="#63b8ff" points="1786.57,-282.33 1797.05,-280.78 1787.88,-275.46 1786.57,-282.33"/>
</a>
</g>
</g>
<!-- Node12&#45;&gt;Node9 -->
<g id="edge13_Node000012_Node000009" class="edge">
<title>Node12&#45;&gt;Node9</title>
<g id="a_edge13_Node000012_Node000009"><a xlink:title=" ">
<path fill="none" stroke="#63b8ff" d="M895.52,-289.74C785.88,-276.42 608.11,-252.54 456.5,-221.56 421.65,-214.44 382.46,-203.89 354.92,-196.05"/>
<polygon fill="#63b8ff" stroke="#63b8ff" points="895.05,-293.21 905.39,-290.93 895.89,-286.26 895.05,-293.21"/>
</a>
</g>
</g>
<!-- Node13&#45;&gt;Node9 -->
<g id="edge34_Node000013_Node000009" class="edge">
<title>Node13&#45;&gt;Node9</title>
<g id="a_edge34_Node000013_Node000009"><a xlink:title=" ">
<path fill="none" stroke="#63b8ff" d="M1645.49,-231.85C1583.93,-168.56 1407.69,-5.56 1225.25,-5.56 1225.25,-5.56 1225.25,-5.56 775,-5.56 632.44,-5.56 584.19,19.83 456.5,-43.56 392.96,-75.11 342.52,-148.48 325.54,-175.41"/>
<polygon fill="#63b8ff" stroke="#63b8ff" points="1642.91,-234.21 1652.36,-239 1647.96,-229.36 1642.91,-234.21"/>
</a>
</g>
</g>
<!-- Node14 -->
<g id="Node000014" class="node">
<title>Node14</title>
<g id="a_Node000014"><a xlink:href="classediteurpanovisu_1_1EditeurPanovisu.html#af0d1c32bb78acbff561c822a0d15f760" target="_top" xlink:title=" ">
<polygon fill="white" stroke="#666666" points="1540.75,-272.56 1353,-272.56 1353,-240.56 1540.75,-240.56 1540.75,-272.56"/>
<text xml:space="preserve" text-anchor="start" x="1361" y="-259.06" font-family="Helvetica,sans-Serif" font-size="10.00">editeurpanovisu.EditeurPanovisu.ajoute</text>
<text xml:space="preserve" text-anchor="middle" x="1446.88" y="-247.06" font-family="Helvetica,sans-Serif" font-size="10.00">FichierHisto</text>
</a>
</g>
</g>
<!-- Node13&#45;&gt;Node14 -->
<g id="edge15_Node000013_Node000014" class="edge">
<title>Node13&#45;&gt;Node14</title>
<g id="a_edge15_Node000013_Node000014"><a xlink:title=" ">
<path fill="none" stroke="#63b8ff" d="M1565.22,-249.82C1557.17,-249.79 1549.08,-249.81 1541.11,-249.88"/>
<polygon fill="#63b8ff" stroke="#63b8ff" points="1565,-253.32 1575.02,-249.88 1565.04,-246.32 1565,-253.32"/>
</a>
</g>
</g>
<!-- Node14&#45;&gt;Node12 -->
<g id="edge16_Node000014_Node000012" class="edge">
<title>Node14&#45;&gt;Node12</title>
<g id="a_edge16_Node000014_Node000012"><a xlink:title=" ">
<path fill="none" stroke="#63b8ff" d="M1341.44,-266.63C1280.25,-272.59 1201.48,-280.35 1131.5,-287.56 1119.16,-288.83 1106.16,-290.2 1093.35,-291.56"/>
<polygon fill="#63b8ff" stroke="#63b8ff" points="1341.54,-270.14 1351.15,-265.68 1340.86,-263.17 1341.54,-270.14"/>
</a>
</g>
</g>
<!-- Node14&#45;&gt;Node13 -->
<g id="edge17_Node000014_Node000013" class="edge">
<title>Node14&#45;&gt;Node13</title>
<g id="a_edge17_Node000014_Node000013"><a xlink:title=" ">
<path fill="none" stroke="#63b8ff" d="M1552.44,-263.3C1560.49,-263.32 1568.58,-263.3 1576.53,-263.23"/>
<polygon fill="#63b8ff" stroke="#63b8ff" points="1552.65,-259.8 1542.63,-263.25 1552.61,-266.8 1552.65,-259.8"/>
</a>
</g>
</g>
<!-- Node15 -->
<g id="Node000015" class="node">
<title>Node15</title>
<g id="a_Node000015"><a xlink:href="classediteurpanovisu_1_1EditeurPanovisu.html#a9f3ea25b35d4884524508dab3dc4fd6a" target="_top" xlink:title=" ">
<polygon fill="white" stroke="#666666" points="1317,-223.56 1131.5,-223.56 1131.5,-191.56 1317,-191.56 1317,-223.56"/>
<text xml:space="preserve" text-anchor="start" x="1139.5" y="-210.06" font-family="Helvetica,sans-Serif" font-size="10.00">editeurpanovisu.EditeurPanovisu.projet</text>
<text xml:space="preserve" text-anchor="middle" x="1224.25" y="-198.06" font-family="Helvetica,sans-Serif" font-size="10.00">Sauve</text>
</a>
</g>
</g>
<!-- Node14&#45;&gt;Node15 -->
<g id="edge18_Node000014_Node000015" class="edge">
<title>Node14&#45;&gt;Node15</title>
<g id="a_edge18_Node000014_Node000015"><a xlink:title=" ">
<path fill="none" stroke="#63b8ff" d="M1360.72,-237.65C1340.54,-233.16 1319.17,-228.42 1299.51,-224.05"/>
<polygon fill="#63b8ff" stroke="#63b8ff" points="1359.8,-241.03 1370.32,-239.78 1361.32,-234.19 1359.8,-241.03"/>
</a>
</g>
</g>
<!-- Node21 -->
<g id="Node000021" class="node">
<title>Node21</title>
<g id="a_Node000021"><a xlink:href="classediteurpanovisu_1_1EditeurPanovisu.html#a7b2e25dc717eb52b62e23d54ec4c124a" target="_top" xlink:title=" ">
<polygon fill="white" stroke="#666666" points="868.75,-343.56 683.25,-343.56 683.25,-311.56 868.75,-311.56 868.75,-343.56"/>
<text xml:space="preserve" text-anchor="start" x="691.25" y="-330.06" font-family="Helvetica,sans-Serif" font-size="10.00">editeurpanovisu.EditeurPanovisu.projet</text>
<text xml:space="preserve" text-anchor="middle" x="776" y="-318.06" font-family="Helvetica,sans-Serif" font-size="10.00">SauveSous</text>
</a>
</g>
</g>
<!-- Node14&#45;&gt;Node21 -->
<g id="edge32_Node000014_Node000021" class="edge">
<title>Node14&#45;&gt;Node21</title>
<g id="a_edge32_Node000014_Node000021"><a xlink:title=" ">
<path fill="none" stroke="#63b8ff" d="M1369.64,-275.72C1352.38,-279.83 1334.1,-284 1317,-287.56 1219.14,-307.93 1195.07,-317.7 1095.5,-326.56 1019.49,-333.32 932.88,-333.08 869.18,-331.43"/>
<polygon fill="#63b8ff" stroke="#63b8ff" points="1370.44,-279.13 1379.35,-273.39 1368.81,-272.32 1370.44,-279.13"/>
</a>
</g>
</g>
<!-- Node15&#45;&gt;Node9 -->
<g id="edge19_Node000015_Node000009" class="edge">
<title>Node15&#45;&gt;Node9</title>
<g id="a_edge19_Node000015_Node000009"><a xlink:title=" ">
<path fill="none" stroke="#63b8ff" d="M1119.69,-205.04C945.01,-200.79 593.98,-192.24 420.78,-188.03"/>
<polygon fill="#63b8ff" stroke="#63b8ff" points="1119.59,-208.54 1129.67,-205.28 1119.76,-201.54 1119.59,-208.54"/>
</a>
</g>
</g>
<!-- Node15&#45;&gt;Node12 -->
<g id="edge22_Node000015_Node000012" class="edge">
<title>Node15&#45;&gt;Node12</title>
<g id="a_edge22_Node000015_Node000012"><a xlink:title=" ">
<path fill="none" stroke="#63b8ff" d="M1170.74,-228.42C1157.61,-234.33 1143.78,-241.19 1131.5,-248.56 1114.12,-258.99 1113.66,-267.56 1095.5,-276.56 1088.97,-279.8 1081.97,-282.65 1074.84,-285.16"/>
<polygon fill="#63b8ff" stroke="#63b8ff" points="1171.94,-231.71 1179.69,-224.49 1169.13,-225.3 1171.94,-231.71"/>
</a>
</g>
</g>
<!-- Node15&#45;&gt;Node13 -->
<g id="edge23_Node000015_Node000013" class="edge">
<title>Node15&#45;&gt;Node13</title>
<g id="a_edge23_Node000015_Node000013"><a xlink:title=" ">
<path fill="none" stroke="#63b8ff" d="M1328.67,-212.36C1390.42,-215.99 1470.29,-222.02 1540.75,-231.56 1557.43,-233.82 1575.23,-236.88 1592.07,-240.09"/>
<polygon fill="#63b8ff" stroke="#63b8ff" points="1329.05,-208.88 1318.87,-211.8 1328.65,-215.87 1329.05,-208.88"/>
</a>
</g>
</g>
<!-- Node16 -->
<g id="Node000016" class="node">
<title>Node16</title>
<g id="a_Node000016"><a xlink:href="classediteurpanovisu_1_1EditeurPanovisu.html#a94e36b9e9d09ab1a4c852b8a8cefa927" target="_top" xlink:title=" ">
<polygon fill="white" stroke="#666666" points="647.25,-129.56 456.5,-129.56 456.5,-97.56 647.25,-97.56 647.25,-129.56"/>
<text xml:space="preserve" text-anchor="start" x="464.5" y="-116.06" font-family="Helvetica,sans-Serif" font-size="10.00">editeurpanovisu.EditeurPanovisu.genere</text>
<text xml:space="preserve" text-anchor="middle" x="551.88" y="-104.06" font-family="Helvetica,sans-Serif" font-size="10.00">Visite</text>
</a>
</g>
</g>
<!-- Node15&#45;&gt;Node16 -->
<g id="edge20_Node000015_Node000016" class="edge">
<title>Node15&#45;&gt;Node16</title>
<g id="a_edge20_Node000015_Node000016"><a xlink:title=" ">
<path fill="none" stroke="#63b8ff" d="M1151.11,-188.42C1133.05,-184.08 1113.64,-179.8 1095.5,-176.56 939.59,-148.7 756.18,-130.38 647.49,-121.01"/>
<polygon fill="#63b8ff" stroke="#63b8ff" points="1150.15,-191.79 1160.7,-190.77 1151.81,-184.99 1150.15,-191.79"/>
</a>
</g>
</g>
<!-- Node17 -->
<g id="Node000017" class="node">
<title>Node17</title>
<g id="a_Node000017"><a xlink:href="classediteurpanovisu_1_1EditeurPanovisu.html#a9b46b222714af12c06ec33d410400773" target="_top" xlink:title=" ">
<polygon fill="white" stroke="#666666" points="647.25,-179.56 456.5,-179.56 456.5,-147.56 647.25,-147.56 647.25,-179.56"/>
<text xml:space="preserve" text-anchor="start" x="464.5" y="-166.06" font-family="Helvetica,sans-Serif" font-size="10.00">editeurpanovisu.EditeurPanovisu.projets</text>
<text xml:space="preserve" text-anchor="middle" x="551.88" y="-154.06" font-family="Helvetica,sans-Serif" font-size="10.00">Fermer</text>
</a>
</g>
</g>
<!-- Node15&#45;&gt;Node17 -->
<g id="edge24_Node000015_Node000017" class="edge">
<title>Node15&#45;&gt;Node17</title>
<g id="a_edge24_Node000015_Node000017"><a xlink:title=" ">
<path fill="none" stroke="#63b8ff" d="M1119.93,-195.76C1111.67,-194.96 1103.45,-194.21 1095.5,-193.56 938.7,-180.64 755.95,-171.83 647.57,-167.25"/>
<polygon fill="#63b8ff" stroke="#63b8ff" points="1119.4,-199.22 1129.69,-196.72 1120.09,-192.26 1119.4,-199.22"/>
</a>
</g>
</g>
<!-- Node18 -->
<g id="Node000018" class="node">
<title>Node18</title>
<g id="a_Node000018"><a xlink:href="classediteurpanovisu_1_1EditeurPanovisu.html#ac9d449399ccd38843fa12e716f0c9611" target="_top" xlink:title=" ">
<polygon fill="white" stroke="#666666" points="1095.5,-65.56 904.75,-65.56 904.75,-33.56 1095.5,-33.56 1095.5,-65.56"/>
<text xml:space="preserve" text-anchor="start" x="912.75" y="-52.06" font-family="Helvetica,sans-Serif" font-size="10.00">editeurpanovisu.EditeurPanovisu.projets</text>
<text xml:space="preserve" text-anchor="middle" x="1000.12" y="-40.06" font-family="Helvetica,sans-Serif" font-size="10.00">Nouveau</text>
</a>
</g>
</g>
<!-- Node15&#45;&gt;Node18 -->
<g id="edge26_Node000015_Node000018" class="edge">
<title>Node15&#45;&gt;Node18</title>
<g id="a_edge26_Node000015_Node000018"><a xlink:title=" ">
<path fill="none" stroke="#63b8ff" d="M1204.31,-182.31C1181.49,-153.55 1140.55,-107 1095.5,-79.56 1086.69,-74.19 1076.83,-69.7 1066.88,-65.95"/>
<polygon fill="#63b8ff" stroke="#63b8ff" points="1201.5,-184.4 1210.41,-190.14 1207.02,-180.1 1201.5,-184.4"/>
</a>
</g>
</g>
<!-- Node19 -->
<g id="Node000019" class="node">
<title>Node19</title>
<g id="a_Node000019"><a xlink:href="classediteurpanovisu_1_1EditeurPanovisu.html#a2b3125ffe2e6291efacf19df6cb30a8d" target="_top" xlink:title=" ">
<polygon fill="white" stroke="#666666" points="866.5,-103.56 685.5,-103.56 685.5,-83.56 866.5,-83.56 866.5,-103.56"/>
<text xml:space="preserve" text-anchor="middle" x="776" y="-90.06" font-family="Helvetica,sans-Serif" font-size="10.00">editeurpanovisu.EditeurPanovisu.start</text>
</a>
</g>
</g>
<!-- Node15&#45;&gt;Node19 -->
<g id="edge31_Node000015_Node000019" class="edge">
<title>Node15&#45;&gt;Node19</title>
<g id="a_edge31_Node000015_Node000019"><a xlink:title=" ">
<path fill="none" stroke="#63b8ff" d="M1198.58,-183.94C1174.43,-162.44 1135.53,-131.92 1095.5,-117.56 1021.65,-91.06 932.13,-86.52 866.83,-87.77"/>
<polygon fill="#63b8ff" stroke="#63b8ff" points="1195.92,-186.25 1205.67,-190.39 1200.63,-181.07 1195.92,-186.25"/>
</a>
</g>
</g>
<!-- Node20 -->
<g id="Node000020" class="node">
<title>Node20</title>
<g id="a_Node000020"><a xlink:href="classediteurpanovisu_1_1EditeurPanovisu.html#aef8c9b28c3e88d6e27e3f62b9a901134" target="_top" xlink:title=" ">
<polygon fill="white" stroke="#666666" points="1094,-267.56 906.25,-267.56 906.25,-235.56 1094,-235.56 1094,-267.56"/>
<text xml:space="preserve" text-anchor="start" x="914.25" y="-254.06" font-family="Helvetica,sans-Serif" font-size="10.00">editeurpanovisu.EditeurPanovisu.sauve</text>
<text xml:space="preserve" text-anchor="middle" x="1000.12" y="-242.06" font-family="Helvetica,sans-Serif" font-size="10.00">Fichiers</text>
</a>
</g>
</g>
<!-- Node15&#45;&gt;Node20 -->
<g id="edge30_Node000015_Node000020" class="edge">
<title>Node15&#45;&gt;Node20</title>
<g id="a_edge30_Node000015_Node000020"><a xlink:title=" ">
<path fill="none" stroke="#63b8ff" d="M1128.99,-226.23C1114.18,-229.16 1098.96,-232.18 1084.42,-235.06"/>
<polygon fill="#63b8ff" stroke="#63b8ff" points="1129.61,-229.68 1138.74,-224.3 1128.25,-222.81 1129.61,-229.68"/>
</a>
</g>
</g>
<!-- Node16&#45;&gt;Node9 -->
<g id="edge21_Node000016_Node000009" class="edge">
<title>Node16&#45;&gt;Node9</title>
<g id="a_edge21_Node000016_Node000009"><a xlink:title=" ">
<path fill="none" stroke="#63b8ff" d="M475.43,-133.03C469.01,-134.84 462.63,-136.7 456.5,-138.56 418.57,-150.07 375.41,-165.21 347.81,-175.15"/>
<polygon fill="#63b8ff" stroke="#63b8ff" points="476.07,-136.49 484.77,-130.44 474.2,-129.74 476.07,-136.49"/>
</a>
</g>
</g>
<!-- Node17&#45;&gt;Node9 -->
<g id="edge25_Node000017_Node000009" class="edge">
<title>Node17&#45;&gt;Node9</title>
<g id="a_edge25_Node000017_Node000009"><a xlink:title=" ">
<path fill="none" stroke="#63b8ff" d="M444.81,-173.64C436.83,-174.4 428.78,-175.16 420.83,-175.92"/>
<polygon fill="#63b8ff" stroke="#63b8ff" points="444.92,-177.15 454.54,-172.71 444.25,-170.18 444.92,-177.15"/>
</a>
</g>
</g>
<!-- Node18&#45;&gt;Node9 -->
<g id="edge27_Node000018_Node000009" class="edge">
<title>Node18&#45;&gt;Node9</title>
<g id="a_edge27_Node000018_Node000009"><a xlink:title=" ">
<path fill="none" stroke="#63b8ff" d="M893.01,-40.69C781.05,-35.06 601.15,-36.79 456.5,-88.56 402.69,-107.82 350.9,-154.45 329.57,-175.25"/>
<polygon fill="#63b8ff" stroke="#63b8ff" points="892.62,-44.17 902.79,-41.21 892.99,-37.18 892.62,-44.17"/>
</a>
</g>
</g>
<!-- Node18&#45;&gt;Node19 -->
<g id="edge28_Node000018_Node000019" class="edge">
<title>Node18&#45;&gt;Node19</title>
<g id="a_edge28_Node000018_Node000019"><a xlink:title=" ">
<path fill="none" stroke="#63b8ff" d="M904.83,-68.24C879.23,-73.31 852.41,-78.62 829.99,-83.06"/>
<polygon fill="#63b8ff" stroke="#63b8ff" points="905.48,-71.68 914.61,-66.3 904.12,-64.81 905.48,-71.68"/>
</a>
</g>
</g>
<!-- Node19&#45;&gt;Node16 -->
<g id="edge29_Node000019_Node000016" class="edge">
<title>Node19&#45;&gt;Node16</title>
<g id="a_edge29_Node000019_Node000016"><a xlink:title=" ">
<path fill="none" stroke="#63b8ff" d="M673.87,-102.67C665.14,-103.45 656.32,-104.25 647.63,-105.03"/>
<polygon fill="#63b8ff" stroke="#63b8ff" points="674.14,-106.16 683.79,-101.77 673.51,-99.18 674.14,-106.16"/>
</a>
</g>
</g>
<!-- Node21&#45;&gt;Node9 -->
<g id="edge33_Node000021_Node000009" class="edge">
<title>Node21&#45;&gt;Node9</title>
<g id="a_edge33_Node000021_Node000009"><a xlink:title=" ">
<path fill="none" stroke="#63b8ff" d="M671.61,-320.09C607.92,-312.97 525.52,-299.19 456.5,-272.56 406.26,-253.18 354.66,-214.29 331.69,-195.79"/>
<polygon fill="#63b8ff" stroke="#63b8ff" points="671.06,-323.55 681.37,-321.13 671.8,-316.59 671.06,-323.55"/>
</a>
</g>
</g>
<!-- Node22&#45;&gt;Node18 -->
<g id="edge36_Node000022_Node000018" class="edge">
<title>Node22&#45;&gt;Node18</title>
<g id="a_edge36_Node000022_Node000018"><a xlink:title=" ">
<path fill="none" stroke="#63b8ff" d="M1802.84,-62.26C1638.69,-59.66 1270.25,-53.82 1095.96,-51.06"/>
<polygon fill="#63b8ff" stroke="#63b8ff" points="1802.74,-65.76 1812.79,-62.42 1802.85,-58.76 1802.74,-65.76"/>
</a>
</g>
</g>
<!-- Node23&#45;&gt;Node22 -->
<g id="edge38_Node000023_Node000022" class="edge">
<title>Node23&#45;&gt;Node22</title>
<g id="a_edge38_Node000023_Node000022"><a xlink:title=" ">
<path fill="none" stroke="#63b8ff" d="M1997.58,-51.35C1983.99,-52.84 1970.12,-54.37 1957,-55.82"/>
<polygon fill="#63b8ff" stroke="#63b8ff" points="1997.85,-54.84 2007.4,-50.26 1997.08,-47.88 1997.85,-54.84"/>
</a>
</g>
</g>
<!-- Node24&#45;&gt;Node4 -->
<g id="edge40_Node000024_Node000004" class="edge">
<title>Node24&#45;&gt;Node4</title>
<g id="a_edge40_Node000024_Node000004"><a xlink:title=" ">
<path fill="none" stroke="#63b8ff" d="M2791.81,-132.69C2763.81,-120.85 2731.8,-107.32 2707.42,-97.01"/>
<polygon fill="#63b8ff" stroke="#63b8ff" points="2790.36,-135.87 2800.93,-136.54 2793.08,-129.43 2790.36,-135.87"/>
</a>
</g>
</g>
<!-- Node24&#45;&gt;Node25 -->
<g id="edge41_Node000024_Node000025" class="edge">
<title>Node24&#45;&gt;Node25</title>
<g id="a_edge41_Node000024_Node000025"><a xlink:title=" ">
<path fill="none" stroke="#63b8ff" d="M2764.27,-158.1C2756.24,-157.97 2748.18,-157.84 2740.34,-157.71"/>
<polygon fill="#63b8ff" stroke="#63b8ff" points="2764.01,-161.59 2774.07,-158.25 2764.13,-154.59 2764.01,-161.59"/>
</a>
</g>
</g>
<!-- Node26 -->
<g id="Node000026" class="node">
<title>Node26</title>
<g id="a_Node000026"><a xlink:href="classediteurpanovisu_1_1GestionnairePlanController.html#a1eafa34c648e53e136ec2470af9633ce" target="_top" xlink:title=" ">
<polygon fill="white" stroke="#666666" points="2348,-157.56 2201.5,-157.56 2201.5,-125.56 2348,-125.56 2348,-157.56"/>
<text xml:space="preserve" text-anchor="start" x="2209.5" y="-144.06" font-family="Helvetica,sans-Serif" font-size="10.00">editeurpanovisu.Gestionnaire</text>
<text xml:space="preserve" text-anchor="middle" x="2274.75" y="-132.06" font-family="Helvetica,sans-Serif" font-size="10.00">PlanController.gereSourisPlan</text>
</a>
</g>
</g>
<!-- Node25&#45;&gt;Node26 -->
<g id="edge42_Node000025_Node000026" class="edge">
<title>Node25&#45;&gt;Node26</title>
<g id="a_edge42_Node000025_Node000026"><a xlink:title=" ">
<path fill="none" stroke="#63b8ff" d="M2583.46,-153.37C2513.67,-150.69 2414.94,-146.9 2348.29,-144.34"/>
<polygon fill="#63b8ff" stroke="#63b8ff" points="2583.19,-156.86 2593.32,-153.75 2583.46,-149.87 2583.19,-156.86"/>
</a>
</g>
</g>
<!-- Node26&#45;&gt;Node22 -->
<g id="edge43_Node000026_Node000022" class="edge">
<title>Node26&#45;&gt;Node22</title>
<g id="a_edge43_Node000026_Node000022"><a xlink:title=" ">
<path fill="none" stroke="#63b8ff" d="M2190.5,-124.78C2120.92,-110.76 2022.81,-90.98 1957.1,-77.74"/>
<polygon fill="#63b8ff" stroke="#63b8ff" points="2189.43,-128.14 2199.93,-126.68 2190.82,-121.27 2189.43,-128.14"/>
</a>
</g>
</g>
</g>
</svg>

<g id="navigator" transform="translate(0 0)" fill="#404254">
  <rect fill="#f2f5e9" fill-opacity="0.5" stroke="#606060" stroke-width=".5" x="0" y="0" width="60" height="60"/>
  <use id="zoomplus" xlink:href="#zoomPlus" x="17" y="9" onmousedown="handleZoom(evt,'in')"/>
  <use id="zoomminus" xlink:href="#zoomMin" x="42" y="9" onmousedown="handleZoom(evt,'out')"/>
  <use id="reset" xlink:href="#resetDef" x="30" y="36" onmousedown="handleReset()"/>
   <use id="arrowup" xlink:href="#arrowUp" x="0" y="0" onmousedown="handlePan(0,-1)"/>
  <use id="arrowright" xlink:href="#arrowRight" x="0" y="0" onmousedown="handlePan(1,0)"/>
  <use id="arrowdown" xlink:href="#arrowDown" x="0" y="0" onmousedown="handlePan(0,1)"/>
  <use id="arrowleft" xlink:href="#arrowLeft" x="0" y="0" onmousedown="handlePan(-1,0)"/>
</g>
<svg viewBox="0 0 15 15" width="100%" height="30px" preserveAspectRatio="xMaxYMin meet">
 <g id="arrow_out" transform="scale(0.3 0.3)">
  <a xlink:href="classediteurpanovisu_1_1GestionnairePlanController_ae1523e38be18cc67cdfc275adff5dd18_icgraph_org.svg" target="_base">
   <rect id="button" ry="5" rx="5" y="6" x="6" height="38" width="38"
        fill="#f2f5e9" fill-opacity="0.5" stroke="#606060" stroke-width="1.0"/>
   <path id="arrow"
     d="M 11.500037,31.436501 C 11.940474,20.09759 22.043105,11.32322 32.158766,21.979434 L 37.068811,17.246167 C 37.068811,17.246167 37.088388,32 37.088388,32 L 22.160133,31.978069 C 22.160133,31.978069 26.997745,27.140456 26.997745,27.140456 C 18.528582,18.264221 13.291696,25.230495 11.500037,31.436501 z"
     style="fill:#404040;"/>
  </a>
 </g>
</svg>

<style type='text/css'>
<![CDATA[
[data-mouse-over-selected='false'] { opacity: 0.7; }
[data-mouse-over-selected='true']  { opacity: 1.0; }
]]>
</style>
<script type="application/ecmascript"><![CDATA[
document.addEventListener('DOMContentLoaded', (event) => {
  highlightEdges();
  highlightAdjacentNodes();
});
]]></script>
</svg>
