<?xml version="1.0" encoding="UTF-8" standalone="no"?>
<!DOCTYPE svg PUBLIC "-//W3C//DTD SVG 1.1//EN"
 "http://www.w3.org/Graphics/SVG/1.1/DTD/svg11.dtd">
<!-- Generated by graphviz version 13.1.2 (20250808.2320)
 -->
<!-- Title: editeurpanovisu.HotspotImage.HotSpot Pages: 1 -->
<svg width="361pt" height="240pt"
 viewBox="0.00 0.00 361.00 240.00" xmlns="http://www.w3.org/2000/svg" xmlns:xlink="http://www.w3.org/1999/xlink">
<g id="graph0" class="graph" transform="scale(1 1) rotate(0) translate(4 236)">
<title>editeurpanovisu.HotspotImage.HotSpot</title>
<!-- Node1 -->
<g id="Node000001" class="node">
<title>Node1</title>
<g id="a_Node000001"><a xlink:title=" ">
<polygon fill="#999999" stroke="#666666" points="151.75,-132 0,-132 0,-100 151.75,-100 151.75,-132"/>
<text xml:space="preserve" text-anchor="start" x="8" y="-118.5" font-family="Helvetica,sans-Serif" font-size="10.00">editeurpanovisu.HotspotImage.</text>
<text xml:space="preserve" text-anchor="middle" x="75.88" y="-106.5" font-family="Helvetica,sans-Serif" font-size="10.00">HotSpot</text>
</a>
</g>
</g>
<!-- Node2 -->
<g id="Node000002" class="node">
<title>Node2</title>
<g id="a_Node000002"><a xlink:href="classediteurpanovisu_1_1HotspotImage.html#a2e252419753e6341e9ba8dc8777c627a" target="_top" xlink:title=" ">
<polygon fill="white" stroke="#666666" points="353,-232 187.75,-232 187.75,-200 353,-200 353,-232"/>
<text xml:space="preserve" text-anchor="start" x="195.75" y="-218.5" font-family="Helvetica,sans-Serif" font-size="10.00">editeurpanovisu.HotspotImage.set</text>
<text xml:space="preserve" text-anchor="middle" x="270.38" y="-206.5" font-family="Helvetica,sans-Serif" font-size="10.00">Anime</text>
</a>
</g>
</g>
<!-- Node1&#45;&gt;Node2 -->
<g id="edge1_Node000001_Node000002" class="edge">
<title>Node1&#45;&gt;Node2</title>
<g id="a_edge1_Node000001_Node000002"><a xlink:title=" ">
<path fill="none" stroke="#63b8ff" d="M97.01,-132.34C118.41,-149.04 153.78,-174.76 187.75,-191 191.03,-192.57 194.42,-194.06 197.89,-195.49"/>
<polygon fill="#63b8ff" stroke="#63b8ff" points="196.43,-198.67 207.02,-199 198.94,-192.14 196.43,-198.67"/>
</a>
</g>
</g>
<!-- Node3 -->
<g id="Node000003" class="node">
<title>Node3</title>
<g id="a_Node000003"><a xlink:href="classediteurpanovisu_1_1HotspotImage.html#ab5c37f343846a752dbc488719ef4a756" target="_top" xlink:title=" ">
<polygon fill="white" stroke="#666666" points="353,-182 187.75,-182 187.75,-150 353,-150 353,-182"/>
<text xml:space="preserve" text-anchor="start" x="195.75" y="-168.5" font-family="Helvetica,sans-Serif" font-size="10.00">editeurpanovisu.HotspotImage.set</text>
<text xml:space="preserve" text-anchor="middle" x="270.38" y="-156.5" font-family="Helvetica,sans-Serif" font-size="10.00">Latitude</text>
</a>
</g>
</g>
<!-- Node1&#45;&gt;Node3 -->
<g id="edge2_Node000001_Node000003" class="edge">
<title>Node1&#45;&gt;Node3</title>
<g id="a_edge2_Node000001_Node000003"><a xlink:title=" ">
<path fill="none" stroke="#63b8ff" d="M140.17,-132.44C157.69,-136.99 176.86,-141.97 194.94,-146.67"/>
<polygon fill="#63b8ff" stroke="#63b8ff" points="194.01,-150.04 204.57,-149.17 195.77,-143.27 194.01,-150.04"/>
</a>
</g>
</g>
<!-- Node4 -->
<g id="Node000004" class="node">
<title>Node4</title>
<g id="a_Node000004"><a xlink:href="classediteurpanovisu_1_1HotspotImage.html#abd744e6d68fcb53b9d1449139d44c51e" target="_top" xlink:title=" ">
<polygon fill="white" stroke="#666666" points="353,-132 187.75,-132 187.75,-100 353,-100 353,-132"/>
<text xml:space="preserve" text-anchor="start" x="195.75" y="-118.5" font-family="Helvetica,sans-Serif" font-size="10.00">editeurpanovisu.HotspotImage.set</text>
<text xml:space="preserve" text-anchor="middle" x="270.38" y="-106.5" font-family="Helvetica,sans-Serif" font-size="10.00">Longitude</text>
</a>
</g>
</g>
<!-- Node1&#45;&gt;Node4 -->
<g id="edge3_Node000001_Node000004" class="edge">
<title>Node1&#45;&gt;Node4</title>
<g id="a_edge3_Node000001_Node000004"><a xlink:title=" ">
<path fill="none" stroke="#63b8ff" d="M152.13,-116C160.01,-116 168.09,-116 176.15,-116"/>
<polygon fill="#63b8ff" stroke="#63b8ff" points="175.98,-119.5 185.98,-116 175.98,-112.5 175.98,-119.5"/>
</a>
</g>
</g>
<!-- Node5 -->
<g id="Node000005" class="node">
<title>Node5</title>
<g id="a_Node000005"><a xlink:href="classediteurpanovisu_1_1HotspotImage.html#a182973cc6d740cd63b554d231f2085ec" target="_top" xlink:title=" ">
<polygon fill="white" stroke="#666666" points="353,-82 187.75,-82 187.75,-50 353,-50 353,-82"/>
<text xml:space="preserve" text-anchor="start" x="195.75" y="-68.5" font-family="Helvetica,sans-Serif" font-size="10.00">editeurpanovisu.HotspotImage.set</text>
<text xml:space="preserve" text-anchor="middle" x="270.38" y="-56.5" font-family="Helvetica,sans-Serif" font-size="10.00">StrInfo</text>
</a>
</g>
</g>
<!-- Node1&#45;&gt;Node5 -->
<g id="edge4_Node000001_Node000005" class="edge">
<title>Node1&#45;&gt;Node5</title>
<g id="a_edge4_Node000001_Node000005"><a xlink:title=" ">
<path fill="none" stroke="#63b8ff" d="M140.17,-99.56C157.69,-95.01 176.86,-90.03 194.94,-85.33"/>
<polygon fill="#63b8ff" stroke="#63b8ff" points="195.77,-88.73 204.57,-82.83 194.01,-81.96 195.77,-88.73"/>
</a>
</g>
</g>
<!-- Node6 -->
<g id="Node000006" class="node">
<title>Node6</title>
<g id="a_Node000006"><a xlink:href="classediteurpanovisu_1_1HotspotImage.html#a852fa4e989e75b74fad4315f246e202b" target="_top" xlink:title=" ">
<polygon fill="white" stroke="#666666" points="353,-32 187.75,-32 187.75,0 353,0 353,-32"/>
<text xml:space="preserve" text-anchor="start" x="195.75" y="-18.5" font-family="Helvetica,sans-Serif" font-size="10.00">editeurpanovisu.HotspotImage.set</text>
<text xml:space="preserve" text-anchor="middle" x="270.38" y="-6.5" font-family="Helvetica,sans-Serif" font-size="10.00">StrLienImg</text>
</a>
</g>
</g>
<!-- Node1&#45;&gt;Node6 -->
<g id="edge5_Node000001_Node000006" class="edge">
<title>Node1&#45;&gt;Node6</title>
<g id="a_edge5_Node000001_Node000006"><a xlink:title=" ">
<path fill="none" stroke="#63b8ff" d="M97.01,-99.66C118.41,-82.96 153.78,-57.24 187.75,-41 191.03,-39.43 194.42,-37.94 197.89,-36.51"/>
<polygon fill="#63b8ff" stroke="#63b8ff" points="198.94,-39.86 207.02,-33 196.43,-33.33 198.94,-39.86"/>
</a>
</g>
</g>
</g>
</svg>
