<?xml version="1.0" encoding="UTF-8" standalone="no"?>
<!DOCTYPE svg PUBLIC "-//W3C//DTD SVG 1.1//EN"
 "http://www.w3.org/Graphics/SVG/1.1/DTD/svg11.dtd">
<!-- Generated by graphviz version 13.1.2 (20250808.2320)
 -->
<!-- Title: editeurpanovisu.PanoramiqueCellule.setStrTitrePanoramiqueLigne2 Pages: 1 -->
<svg width="438pt" height="240pt"
 viewBox="0.00 0.00 438.00 240.00" xmlns="http://www.w3.org/2000/svg" xmlns:xlink="http://www.w3.org/1999/xlink">

<svg id="main" version="1.1" xmlns="http://www.w3.org/2000/svg" xmlns:xlink="http://www.w3.org/1999/xlink" xml:space="preserve">

<style type="text/css"><![CDATA[
.node, .edge {opacity: 0.7;}
.node.selected, .edge.selected {opacity: 1;}
.edge:hover path { stroke: red; }
.edge:hover polygon { stroke: red; fill: red; }
]]></style>
<script type="application/ecmascript" xlink:href="svg.min.js"/>
<svg id="graph" class="graph">
<g id="graph0" class="graph" transform="scale(1 1) rotate(0) translate(4 236)">
<title>editeurpanovisu.PanoramiqueCellule.setStrTitrePanoramiqueLigne2</title>
<!-- Node1 -->
<g id="Node000001" class="node">
<title>Node1</title>
<g id="a_Node000001"><a xlink:title=" ">
<polygon fill="#999999" stroke="#666666" points="430.25,-132 250,-132 250,-100 430.25,-100 430.25,-132"/>
<text xml:space="preserve" text-anchor="start" x="258" y="-118.5" font-family="Helvetica,sans-Serif" font-size="10.00">editeurpanovisu.Panoramique</text>
<text xml:space="preserve" text-anchor="middle" x="340.12" y="-106.5" font-family="Helvetica,sans-Serif" font-size="10.00">Cellule.setStrTitrePanoramiqueLigne2</text>
</a>
</g>
</g>
<!-- Node2 -->
<g id="Node000002" class="node">
<title>Node2</title>
<g id="a_Node000002"><a xlink:href="classediteurpanovisu_1_1OrdrePanoramique.html#aacf086bba9125322a4ad6bf0d51a0de5" target="_top" xlink:title=" ">
<polygon fill="white" stroke="#666666" points="205.75,-232 8.25,-232 8.25,-200 205.75,-200 205.75,-232"/>
<text xml:space="preserve" text-anchor="start" x="16.25" y="-218.5" font-family="Helvetica,sans-Serif" font-size="10.00">editeurpanovisu.OrdrePanoramique.ajoute</text>
<text xml:space="preserve" text-anchor="middle" x="107" y="-206.5" font-family="Helvetica,sans-Serif" font-size="10.00">NouveauxPanos</text>
</a>
</g>
</g>
<!-- Node1&#45;&gt;Node2 -->
<g id="edge1_Node000001_Node000002" class="edge">
<title>Node1&#45;&gt;Node2</title>
<g id="a_edge1_Node000001_Node000002"><a xlink:title=" ">
<path fill="none" stroke="#63b8ff" d="M307.26,-138.88C282.79,-155.49 247.62,-177.35 214,-191 206.12,-194.2 197.73,-197.05 189.26,-199.57"/>
<polygon fill="#63b8ff" stroke="#63b8ff" points="309.23,-141.77 315.48,-133.21 305.26,-136.01 309.23,-141.77"/>
</a>
</g>
</g>
<!-- Node3 -->
<g id="Node000003" class="node">
<title>Node3</title>
<g id="a_Node000003"><a xlink:href="classediteurpanovisu_1_1OrdrePanoramique.html#a66eaf606657e7014da6dbc0f6b018b11" target="_top" xlink:title=" ">
<polygon fill="white" stroke="#666666" points="202,-182 12,-182 12,-150 202,-150 202,-182"/>
<text xml:space="preserve" text-anchor="start" x="20" y="-168.5" font-family="Helvetica,sans-Serif" font-size="10.00">editeurpanovisu.OrdrePanoramique.cree</text>
<text xml:space="preserve" text-anchor="middle" x="107" y="-156.5" font-family="Helvetica,sans-Serif" font-size="10.00">Liste</text>
</a>
</g>
</g>
<!-- Node1&#45;&gt;Node3 -->
<g id="edge2_Node000001_Node000003" class="edge">
<title>Node1&#45;&gt;Node3</title>
<g id="a_edge2_Node000001_Node000003"><a xlink:title=" ">
<path fill="none" stroke="#63b8ff" d="M251.95,-134.86C229.62,-139.69 205.77,-144.85 184.04,-149.55"/>
<polygon fill="#63b8ff" stroke="#63b8ff" points="252.61,-138.3 261.65,-132.76 251.13,-131.45 252.61,-138.3"/>
</a>
</g>
</g>
<!-- Node4 -->
<g id="Node000004" class="node">
<title>Node4</title>
<g id="a_Node000004"><a xlink:href="classediteurpanovisu_1_1OrdrePanoramique.html#ab88daca005dd5867f68bffc3f7ceefdb" target="_top" xlink:title=" ">
<polygon fill="white" stroke="#666666" points="202,-132 12,-132 12,-100 202,-100 202,-132"/>
<text xml:space="preserve" text-anchor="start" x="20" y="-118.5" font-family="Helvetica,sans-Serif" font-size="10.00">editeurpanovisu.OrdrePanoramique.cree</text>
<text xml:space="preserve" text-anchor="middle" x="107" y="-106.5" font-family="Helvetica,sans-Serif" font-size="10.00">Liste</text>
</a>
</g>
</g>
<!-- Node1&#45;&gt;Node4 -->
<g id="edge3_Node000001_Node000004" class="edge">
<title>Node1&#45;&gt;Node4</title>
<g id="a_edge3_Node000001_Node000004"><a xlink:title=" ">
<path fill="none" stroke="#63b8ff" d="M238.41,-116C226.47,-116 214.32,-116 202.48,-116"/>
<polygon fill="#63b8ff" stroke="#63b8ff" points="238.25,-119.5 248.25,-116 238.25,-112.5 238.25,-119.5"/>
</a>
</g>
</g>
<!-- Node5 -->
<g id="Node000005" class="node">
<title>Node5</title>
<g id="a_Node000005"><a xlink:href="classediteurpanovisu_1_1OrdrePanoramique.html#ae8fafd1296c813f171f919ad0186c3aa" target="_top" xlink:title=" ">
<polygon fill="white" stroke="#666666" points="211.38,-82 2.62,-82 2.62,-50 211.38,-50 211.38,-82"/>
<text xml:space="preserve" text-anchor="start" x="10.62" y="-68.5" font-family="Helvetica,sans-Serif" font-size="10.00">editeurpanovisu.OrdrePanoramique.rafraichit</text>
<text xml:space="preserve" text-anchor="middle" x="107" y="-56.5" font-family="Helvetica,sans-Serif" font-size="10.00">Liste</text>
</a>
</g>
</g>
<!-- Node1&#45;&gt;Node5 -->
<g id="edge4_Node000001_Node000005" class="edge">
<title>Node1&#45;&gt;Node5</title>
<g id="a_edge4_Node000001_Node000005"><a xlink:title=" ">
<path fill="none" stroke="#63b8ff" d="M251.95,-97.14C229.62,-92.31 205.77,-87.15 184.04,-82.45"/>
<polygon fill="#63b8ff" stroke="#63b8ff" points="251.13,-100.55 261.65,-99.24 252.61,-93.7 251.13,-100.55"/>
</a>
</g>
</g>
<!-- Node6 -->
<g id="Node000006" class="node">
<title>Node6</title>
<g id="a_Node000006"><a xlink:href="classediteurpanovisu_1_1OrdrePanoramique.html#ae12a73729ee80be64c37a3ebf0e573ba" target="_top" xlink:title=" ">
<polygon fill="white" stroke="#666666" points="214,-32 0,-32 0,0 214,0 214,-32"/>
<text xml:space="preserve" text-anchor="start" x="8" y="-18.5" font-family="Helvetica,sans-Serif" font-size="10.00">editeurpanovisu.OrdrePanoramique.supprimer</text>
<text xml:space="preserve" text-anchor="middle" x="107" y="-6.5" font-family="Helvetica,sans-Serif" font-size="10.00">Element</text>
</a>
</g>
</g>
<!-- Node1&#45;&gt;Node6 -->
<g id="edge5_Node000001_Node000006" class="edge">
<title>Node1&#45;&gt;Node6</title>
<g id="a_edge5_Node000001_Node000006"><a xlink:title=" ">
<path fill="none" stroke="#63b8ff" d="M307.26,-93.12C282.79,-76.51 247.62,-54.65 214,-41 206.12,-37.8 197.73,-34.95 189.26,-32.43"/>
<polygon fill="#63b8ff" stroke="#63b8ff" points="305.26,-95.99 315.48,-98.79 309.23,-90.23 305.26,-95.99"/>
</a>
</g>
</g>
</g>
</svg>
</svg>

<style type='text/css'>
<![CDATA[
[data-mouse-over-selected='false'] { opacity: 0.7; }
[data-mouse-over-selected='true']  { opacity: 1.0; }
]]>
</style>
<script type="application/ecmascript"><![CDATA[
document.addEventListener('DOMContentLoaded', (event) => {
  highlightEdges();
  highlightAdjacentNodes();
});
]]></script>
</svg>
