<?xml version="1.0" encoding="UTF-8" standalone="no"?>
<!DOCTYPE svg PUBLIC "-//W3C//DTD SVG 1.1//EN"
 "http://www.w3.org/Graphics/SVG/1.1/DTD/svg11.dtd">
<!-- Generated by graphviz version 13.1.2 (20250808.2320)
 -->
<!-- Title: editeurpanovisu.GestionnaireInterfaceController.getZonesBarrePersonnalisee Pages: 1 -->
<!--zoomable 570 -->

<svg id="main" version="1.1" xmlns="http://www.w3.org/2000/svg" xmlns:xlink="http://www.w3.org/1999/xlink" xml:space="preserve" onload="init(evt)">

<style type="text/css"><![CDATA[
.node, .edge {opacity: 0.7;}
.node.selected, .edge.selected {opacity: 1;}
.edge:hover path { stroke: red; }
.edge:hover polygon { stroke: red; fill: red; }
]]></style>

<defs>
  <circle id="rim" cx="0" cy="0" r="7"/>
  <circle id="rim2" cx="0" cy="0" r="3.5"/>
  <g id="zoomPlus">
    <use xlink:href="#rim" fill="#404040"><set attributeName="fill" to="#808080" begin="zoomplus.mouseover" end="zoomplus.mouseout"/></use>
    <path d="M-4,0h8M0,-4v8" fill="none" stroke="white" stroke-width="1.5" pointer-events="none"/>
  </g>
  <g id="zoomMin">
    <use xlink:href="#rim" fill="#404040"><set attributeName="fill" to="#808080" begin="zoomminus.mouseover" end="zoomminus.mouseout"/></use>
    <path d="M-4,0h8" fill="none" stroke="white" stroke-width="1.5" pointer-events="none"/>
  </g>
  <g id="arrowUp" transform="translate(30 24)">
    <use xlink:href="#rim"/>
    <path pointer-events="none" fill="none" stroke="white" stroke-width="1.5" d="M0,-3.0v7 M-2.5,-0.5L0,-3.0L2.5,-0.5"/>
  </g>
  <g id="arrowRight" transform="rotate(90) translate(36 -43)">
    <use xlink:href="#rim"/>
    <path pointer-events="none" fill="none" stroke="white" stroke-width="1.5" d="M0,-3.0v7 M-2.5,-0.5L0,-3.0L2.5,-0.5"/>
  </g>
  <g id="arrowDown" transform="rotate(180) translate(-30 -48)">
    <use xlink:href="#rim"/>
    <path pointer-events="none" fill="none" stroke="white" stroke-width="1.5" d="M0,-3.0v7 M-2.5,-0.5L0,-3.0L2.5,-0.5"/>
  </g>
  <g id="arrowLeft" transform="rotate(270) translate(-36 17)">
    <use xlink:href="#rim"/>
    <path pointer-events="none" fill="none" stroke="white" stroke-width="1.5" d="M0,-3.0v7 M-2.5,-0.5L0,-3.0L2.5,-0.5"/>
  </g>
  <g id="resetDef">
    <use xlink:href="#rim2" fill="#404040"><set attributeName="fill" to="#808080" begin="reset.mouseover" end="reset.mouseout"/></use>
  </g>
</defs>
<script type="application/ecmascript">
var viewWidth = 3042;
var viewHeight = 570;
var sectionId = 'dynsection-223';
</script>
<script type="application/ecmascript" xlink:href="svg.min.js"/>
<svg id="graph" class="graph">
<g id="viewport">
<title>editeurpanovisu.GestionnaireInterfaceController.getZonesBarrePersonnalisee</title>
<!-- Node1 -->
<g id="Node000001" class="node">
<title>Node1</title>
<g id="a_Node000001"><a xlink:title=" ">
<polygon fill="#999999" stroke="#666666" points="3034.25,-212 2871.25,-212 2871.25,-168 3034.25,-168 3034.25,-212"/>
<text xml:space="preserve" text-anchor="start" x="2879.25" y="-198.5" font-family="Helvetica,sans-Serif" font-size="10.00">editeurpanovisu.Gestionnaire</text>
<text xml:space="preserve" text-anchor="start" x="2879.25" y="-186.5" font-family="Helvetica,sans-Serif" font-size="10.00">InterfaceController.getZonesBarre</text>
<text xml:space="preserve" text-anchor="middle" x="2952.75" y="-174.5" font-family="Helvetica,sans-Serif" font-size="10.00">Personnalisee</text>
</a>
</g>
</g>
<!-- Node2 -->
<g id="Node000002" class="node">
<title>Node2</title>
<g id="a_Node000002"><a xlink:href="classediteurpanovisu_1_1GestionnaireInterfaceController.html#a3f85cb5c53dc115280ee2e1290a532f3" target="_top" xlink:title=" ">
<polygon fill="white" stroke="#666666" points="2643.75,-168 2492.75,-168 2492.75,-124 2643.75,-124 2643.75,-168"/>
<text xml:space="preserve" text-anchor="start" x="2500.75" y="-154.5" font-family="Helvetica,sans-Serif" font-size="10.00">editeurpanovisu.Gestionnaire</text>
<text xml:space="preserve" text-anchor="start" x="2500.75" y="-142.5" font-family="Helvetica,sans-Serif" font-size="10.00">InterfaceController.afficheBarre</text>
<text xml:space="preserve" text-anchor="middle" x="2568.25" y="-130.5" font-family="Helvetica,sans-Serif" font-size="10.00">Personnalisee</text>
</a>
</g>
</g>
<!-- Node1&#45;&gt;Node2 -->
<g id="edge1_Node000001_Node000002" class="edge">
<title>Node1&#45;&gt;Node2</title>
<g id="a_edge1_Node000001_Node000002"><a xlink:title=" ">
<path fill="none" stroke="#63b8ff" d="M2859.38,-187.05C2806.57,-184.49 2739.2,-179.75 2679.75,-171 2668.17,-169.3 2656.01,-167.03 2644.15,-164.56"/>
<polygon fill="#63b8ff" stroke="#63b8ff" points="2859.1,-190.54 2869.26,-187.51 2859.43,-183.55 2859.1,-190.54"/>
</a>
</g>
</g>
<!-- Node12 -->
<g id="Node000012" class="node">
<title>Node12</title>
<g id="a_Node000012"><a xlink:href="classediteurpanovisu_1_1EditeurPanovisu.html#a94e36b9e9d09ab1a4c852b8a8cefa927" target="_top" xlink:title=" ">
<polygon fill="white" stroke="#666666" points="647.25,-323 456.5,-323 456.5,-291 647.25,-291 647.25,-323"/>
<text xml:space="preserve" text-anchor="start" x="464.5" y="-309.5" font-family="Helvetica,sans-Serif" font-size="10.00">editeurpanovisu.EditeurPanovisu.genere</text>
<text xml:space="preserve" text-anchor="middle" x="551.88" y="-297.5" font-family="Helvetica,sans-Serif" font-size="10.00">Visite</text>
</a>
</g>
</g>
<!-- Node1&#45;&gt;Node12 -->
<g id="edge47_Node000001_Node000012" class="edge">
<title>Node1&#45;&gt;Node12</title>
<g id="a_edge47_Node000001_Node000012"><a xlink:title=" ">
<path fill="none" stroke="#63b8ff" d="M2859.97,-206.53C2782.7,-219.01 2669.12,-234 2569.25,-234 2569.25,-234 2569.25,-234 1035.88,-234 878.93,-234 836.3,-218.25 683.25,-253 647.89,-261.03 609.84,-277.82 584.03,-290.56"/>
<polygon fill="#63b8ff" stroke="#63b8ff" points="2860.3,-210.03 2869.6,-204.96 2859.17,-203.12 2860.3,-210.03"/>
</a>
</g>
</g>
<!-- Node23 -->
<g id="Node000023" class="node">
<title>Node23</title>
<g id="a_Node000023"><a xlink:href="classediteurpanovisu_1_1GestionnaireInterfaceController.html#a6c3ac6b8d3a669f9952954530cc27e52" target="_top" xlink:title=" ">
<polygon fill="white" stroke="#666666" points="2429,-306 2277.25,-306 2277.25,-262 2429,-262 2429,-306"/>
<text xml:space="preserve" text-anchor="start" x="2285.25" y="-292.5" font-family="Helvetica,sans-Serif" font-size="10.00">editeurpanovisu.Gestionnaire</text>
<text xml:space="preserve" text-anchor="start" x="2285.25" y="-280.5" font-family="Helvetica,sans-Serif" font-size="10.00">InterfaceController.chargeBarre</text>
<text xml:space="preserve" text-anchor="middle" x="2353.12" y="-268.5" font-family="Helvetica,sans-Serif" font-size="10.00">Personnalisee</text>
</a>
</g>
</g>
<!-- Node1&#45;&gt;Node23 -->
<g id="edge43_Node000001_Node000023" class="edge">
<title>Node1&#45;&gt;Node23</title>
<g id="a_edge43_Node000001_Node000023"><a xlink:title=" ">
<path fill="none" stroke="#63b8ff" d="M2906.12,-217.87C2885.26,-229.23 2859.78,-241.26 2835.25,-248 2695.73,-286.36 2525.42,-289.34 2429.41,-287.22"/>
<polygon fill="#63b8ff" stroke="#63b8ff" points="2907.61,-221.04 2914.64,-213.11 2904.2,-214.93 2907.61,-221.04"/>
</a>
</g>
</g>
<!-- Node24 -->
<g id="Node000024" class="node">
<title>Node24</title>
<g id="a_Node000024"><a xlink:href="classediteurpanovisu_1_1GestionnaireInterfaceController.html#af830b49c8951d0b3c694aeba5f49d518" target="_top" xlink:title=" ">
<polygon fill="white" stroke="#666666" points="2456.75,-32 2249.5,-32 2249.5,0 2456.75,0 2456.75,-32"/>
<text xml:space="preserve" text-anchor="start" x="2257.5" y="-18.5" font-family="Helvetica,sans-Serif" font-size="10.00">editeurpanovisu.Gestionnaire</text>
<text xml:space="preserve" text-anchor="middle" x="2353.12" y="-6.5" font-family="Helvetica,sans-Serif" font-size="10.00">InterfaceController.choixBarrePersonnalisee</text>
</a>
</g>
</g>
<!-- Node1&#45;&gt;Node24 -->
<g id="edge46_Node000001_Node000024" class="edge">
<title>Node1&#45;&gt;Node24</title>
<g id="a_edge46_Node000001_Node000024"><a xlink:title=" ">
<path fill="none" stroke="#63b8ff" d="M2911.03,-161.5C2889.38,-147.5 2861.81,-131.45 2835.25,-121 2709.74,-71.63 2556.22,-43.23 2456.87,-28.71"/>
<polygon fill="#63b8ff" stroke="#63b8ff" points="2908.99,-164.35 2919.27,-166.93 2912.84,-158.5 2908.99,-164.35"/>
</a>
</g>
</g>
<!-- Node25 -->
<g id="Node000025" class="node">
<title>Node25</title>
<g id="a_Node000025"><a xlink:href="classediteurpanovisu_1_1GestionnaireInterfaceController.html#a456a8e41f8025891190ff155226fea19" target="_top" xlink:title=" ">
<polygon fill="white" stroke="#666666" points="2835.25,-162 2679.75,-162 2679.75,-130 2835.25,-130 2835.25,-162"/>
<text xml:space="preserve" text-anchor="start" x="2687.75" y="-148.5" font-family="Helvetica,sans-Serif" font-size="10.00">editeurpanovisu.Gestionnaire</text>
<text xml:space="preserve" text-anchor="middle" x="2757.5" y="-136.5" font-family="Helvetica,sans-Serif" font-size="10.00">InterfaceController.chercheZone</text>
</a>
</g>
</g>
<!-- Node1&#45;&gt;Node25 -->
<g id="edge44_Node000001_Node000025" class="edge">
<title>Node1&#45;&gt;Node25</title>
<g id="a_edge44_Node000001_Node000025"><a xlink:title=" ">
<path fill="none" stroke="#63b8ff" d="M2859.9,-169.09C2850.1,-166.86 2840.23,-164.61 2830.7,-162.44"/>
<polygon fill="#63b8ff" stroke="#63b8ff" points="2858.91,-172.45 2869.44,-171.26 2860.47,-165.63 2858.91,-172.45"/>
</a>
</g>
</g>
<!-- Node3 -->
<g id="Node000003" class="node">
<title>Node3</title>
<g id="a_Node000003"><a xlink:href="classediteurpanovisu_1_1GestionnaireInterfaceController.html#a5bdd1505c1ad1eee506c2618c9368994" target="_top" xlink:title=" ">
<polygon fill="white" stroke="#666666" points="2437.62,-162 2268.62,-162 2268.62,-130 2437.62,-130 2437.62,-162"/>
<text xml:space="preserve" text-anchor="start" x="2276.62" y="-148.5" font-family="Helvetica,sans-Serif" font-size="10.00">editeurpanovisu.Gestionnaire</text>
<text xml:space="preserve" text-anchor="middle" x="2353.12" y="-136.5" font-family="Helvetica,sans-Serif" font-size="10.00">InterfaceController.afficheVignettes</text>
</a>
</g>
</g>
<!-- Node2&#45;&gt;Node3 -->
<g id="edge2_Node000002_Node000003" class="edge">
<title>Node2&#45;&gt;Node3</title>
<g id="a_edge2_Node000002_Node000003"><a xlink:title=" ">
<path fill="none" stroke="#63b8ff" d="M2481.1,-146C2466.84,-146 2452.08,-146 2437.88,-146"/>
<polygon fill="#63b8ff" stroke="#63b8ff" points="2480.9,-149.5 2490.9,-146 2480.9,-142.5 2480.9,-149.5"/>
</a>
</g>
</g>
<!-- Node19 -->
<g id="Node000019" class="node">
<title>Node19</title>
<g id="a_Node000019"><a xlink:href="classediteurpanovisu_1_1GestionnaireInterfaceController.html#ac7fa988dc99d8684686127a2269cd66e" target="_top" xlink:title=" ">
<polygon fill="white" stroke="#666666" points="2000.62,-93 1844.38,-93 1844.38,-61 2000.62,-61 2000.62,-93"/>
<text xml:space="preserve" text-anchor="start" x="1852.38" y="-79.5" font-family="Helvetica,sans-Serif" font-size="10.00">editeurpanovisu.Gestionnaire</text>
<text xml:space="preserve" text-anchor="middle" x="1922.5" y="-67.5" font-family="Helvetica,sans-Serif" font-size="10.00">InterfaceController.creeInterface</text>
</a>
</g>
</g>
<!-- Node2&#45;&gt;Node19 -->
<g id="edge42_Node000002_Node000019" class="edge">
<title>Node2&#45;&gt;Node19</title>
<g id="a_edge42_Node000002_Node000019"><a xlink:title=" ">
<path fill="none" stroke="#63b8ff" d="M2481.28,-125.82C2473.01,-124.1 2464.73,-122.46 2456.75,-121 2349.37,-101.38 2322.25,-96.45 2213.5,-87 2141.61,-80.75 2059.37,-78.37 2000.87,-77.48"/>
<polygon fill="#63b8ff" stroke="#63b8ff" points="2480.54,-129.24 2491.05,-127.89 2481.99,-122.39 2480.54,-129.24"/>
</a>
</g>
</g>
<!-- Node2&#45;&gt;Node23 -->
<g id="edge38_Node000002_Node000023" class="edge">
<title>Node2&#45;&gt;Node23</title>
<g id="a_edge38_Node000002_Node000023"><a xlink:title=" ">
<path fill="none" stroke="#63b8ff" d="M2523.07,-174.61C2483.23,-200.41 2425.43,-237.83 2388.83,-261.53"/>
<polygon fill="#63b8ff" stroke="#63b8ff" points="2524.77,-177.67 2531.26,-169.3 2520.97,-171.8 2524.77,-177.67"/>
</a>
</g>
</g>
<!-- Node2&#45;&gt;Node24 -->
<g id="edge40_Node000002_Node000024" class="edge">
<title>Node2&#45;&gt;Node24</title>
<g id="a_edge40_Node000002_Node000024"><a xlink:title=" ">
<path fill="none" stroke="#63b8ff" d="M2540.55,-115.31C2519.74,-93.15 2489.04,-64.06 2456.75,-46 2447.19,-40.65 2436.59,-36.18 2425.93,-32.46"/>
<polygon fill="#63b8ff" stroke="#63b8ff" points="2537.92,-117.63 2547.27,-122.62 2543.07,-112.89 2537.92,-117.63"/>
</a>
</g>
</g>
<!-- Node4 -->
<g id="Node000004" class="node">
<title>Node4</title>
<g id="a_Node000004"><a xlink:href="classediteurpanovisu_1_1GestionnaireInterfaceController.html#a55c8afda208674955a13d48d02be41b8" target="_top" xlink:title=" ">
<polygon fill="white" stroke="#666666" points="2213.5,-300 2046,-300 2046,-268 2213.5,-268 2213.5,-300"/>
<text xml:space="preserve" text-anchor="start" x="2054" y="-286.5" font-family="Helvetica,sans-Serif" font-size="10.00">editeurpanovisu.Gestionnaire</text>
<text xml:space="preserve" text-anchor="middle" x="2129.75" y="-274.5" font-family="Helvetica,sans-Serif" font-size="10.00">InterfaceController.afficheTemplate</text>
</a>
</g>
</g>
<!-- Node3&#45;&gt;Node4 -->
<g id="edge3_Node000003_Node000004" class="edge">
<title>Node3&#45;&gt;Node4</title>
<g id="a_edge3_Node000003_Node000004"><a xlink:title=" ">
<path fill="none" stroke="#63b8ff" d="M2316.29,-168.34C2271.69,-196.14 2196.57,-242.97 2156.98,-267.65"/>
<polygon fill="#63b8ff" stroke="#63b8ff" points="2317.94,-171.43 2324.58,-163.17 2314.24,-165.49 2317.94,-171.43"/>
</a>
</g>
</g>
<!-- Node18 -->
<g id="Node000018" class="node">
<title>Node18</title>
<g id="a_Node000018"><a xlink:href="classediteurpanovisu_1_1GestionnaireInterfaceController.html#a8c634f775c31c1a4db22d5ef0659f7e4" target="_top" xlink:title=" ">
<polygon fill="white" stroke="#666666" points="2203.38,-156 2056.12,-156 2056.12,-124 2203.38,-124 2203.38,-156"/>
<text xml:space="preserve" text-anchor="start" x="2064.12" y="-142.5" font-family="Helvetica,sans-Serif" font-size="10.00">editeurpanovisu.Gestionnaire</text>
<text xml:space="preserve" text-anchor="middle" x="2129.75" y="-130.5" font-family="Helvetica,sans-Serif" font-size="10.00">InterfaceController.afficheTitre</text>
</a>
</g>
</g>
<!-- Node3&#45;&gt;Node18 -->
<g id="edge29_Node000003_Node000018" class="edge">
<title>Node3&#45;&gt;Node18</title>
<g id="a_edge29_Node000003_Node000018"><a xlink:title=" ">
<path fill="none" stroke="#63b8ff" d="M2257.08,-143.42C2239.2,-142.94 2220.76,-142.44 2203.68,-141.98"/>
<polygon fill="#63b8ff" stroke="#63b8ff" points="2256.83,-146.92 2266.92,-143.69 2257.02,-139.92 2256.83,-146.92"/>
</a>
</g>
</g>
<!-- Node3&#45;&gt;Node19 -->
<g id="edge31_Node000003_Node000019" class="edge">
<title>Node3&#45;&gt;Node19</title>
<g id="a_edge31_Node000003_Node000019"><a xlink:title=" ">
<path fill="none" stroke="#63b8ff" d="M2273.35,-127.1C2253.86,-122.78 2232.98,-118.45 2213.5,-115 2141.87,-102.32 2059.6,-91.94 2001.03,-85.24"/>
<polygon fill="#63b8ff" stroke="#63b8ff" points="2272.33,-130.46 2282.85,-129.23 2273.86,-123.63 2272.33,-130.46"/>
</a>
</g>
</g>
<!-- Node20 -->
<g id="Node000020" class="node">
<title>Node20</title>
<g id="a_Node000020"><a xlink:href="classediteurpanovisu_1_1GestionnaireInterfaceController.html#a568c34e865fb653f63b8fa7a9a9cafc8" target="_top" xlink:title=" ">
<polygon fill="white" stroke="#666666" points="2200.75,-206 2058.75,-206 2058.75,-174 2200.75,-174 2200.75,-206"/>
<text xml:space="preserve" text-anchor="start" x="2066.75" y="-192.5" font-family="Helvetica,sans-Serif" font-size="10.00">editeurpanovisu.Gestionnaire</text>
<text xml:space="preserve" text-anchor="middle" x="2129.75" y="-180.5" font-family="Helvetica,sans-Serif" font-size="10.00">InterfaceController.rafraichit</text>
</a>
</g>
</g>
<!-- Node3&#45;&gt;Node20 -->
<g id="edge32_Node000003_Node000020" class="edge">
<title>Node3&#45;&gt;Node20</title>
<g id="a_edge32_Node000003_Node000020"><a xlink:title=" ">
<path fill="none" stroke="#63b8ff" d="M2258.2,-164.67C2239.05,-168.47 2219.22,-172.42 2201.07,-176.02"/>
<polygon fill="#63b8ff" stroke="#63b8ff" points="2258.77,-168.12 2267.89,-162.74 2257.4,-161.26 2258.77,-168.12"/>
</a>
</g>
</g>
<!-- Node5 -->
<g id="Node000005" class="node">
<title>Node5</title>
<g id="a_Node000005"><a xlink:href="classediteurpanovisu_1_1EditeurPanovisu.html#a87b29dc258cfc67370b1f27809e91b8e" target="_top" xlink:title=" ">
<polygon fill="white" stroke="#666666" points="2010,-387 1835,-387 1835,-355 2010,-355 2010,-387"/>
<text xml:space="preserve" text-anchor="start" x="1843" y="-373.5" font-family="Helvetica,sans-Serif" font-size="10.00">editeurpanovisu.EditeurPanovisu.tsk</text>
<text xml:space="preserve" text-anchor="middle" x="1922.5" y="-361.5" font-family="Helvetica,sans-Serif" font-size="10.00">AnalyseFichierPVU</text>
</a>
</g>
</g>
<!-- Node4&#45;&gt;Node5 -->
<g id="edge4_Node000004_Node000005" class="edge">
<title>Node4&#45;&gt;Node5</title>
<g id="a_edge4_Node000004_Node000005"><a xlink:title=" ">
<path fill="none" stroke="#63b8ff" d="M2079.87,-304.72C2043.89,-319.97 1995.63,-340.43 1962.28,-354.56"/>
<polygon fill="#63b8ff" stroke="#63b8ff" points="2080.91,-308.08 2088.75,-300.95 2078.18,-301.63 2080.91,-308.08"/>
</a>
</g>
</g>
<!-- Node6 -->
<g id="Node000006" class="node">
<title>Node6</title>
<g id="a_Node000006"><a xlink:href="classediteurpanovisu_1_1EditeurPanovisu.html#ab4beb1597b660a4a253befc6e76f1c54" target="_top" xlink:title=" ">
<polygon fill="white" stroke="#666666" points="1129.62,-534 944.12,-534 944.12,-502 1129.62,-502 1129.62,-534"/>
<text xml:space="preserve" text-anchor="start" x="952.12" y="-520.5" font-family="Helvetica,sans-Serif" font-size="10.00">editeurpanovisu.EditeurPanovisu.projet</text>
<text xml:space="preserve" text-anchor="middle" x="1036.88" y="-508.5" font-family="Helvetica,sans-Serif" font-size="10.00">Charge</text>
</a>
</g>
</g>
<!-- Node5&#45;&gt;Node6 -->
<g id="edge5_Node000005_Node000006" class="edge">
<title>Node5&#45;&gt;Node6</title>
<g id="a_edge5_Node000005_Node000006"><a xlink:title=" ">
<path fill="none" stroke="#63b8ff" d="M1902.83,-396.07C1881.2,-422.94 1842.85,-464.26 1799,-483 1574.44,-579 1277.91,-554.73 1130.01,-533.74"/>
<polygon fill="#63b8ff" stroke="#63b8ff" points="1905.42,-398.45 1908.84,-388.42 1899.91,-394.13 1905.42,-398.45"/>
</a>
</g>
</g>
<!-- Node9 -->
<g id="Node000009" class="node">
<title>Node9</title>
<g id="a_Node000009"><a xlink:href="classediteurpanovisu_1_1EditeurPanovisu.html#a6d19b4d885ee6fcec827b91956295732" target="_top" xlink:title=" ">
<polygon fill="white" stroke="#666666" points="1799,-474 1613.5,-474 1613.5,-442 1799,-442 1799,-474"/>
<text xml:space="preserve" text-anchor="start" x="1621.5" y="-460.5" font-family="Helvetica,sans-Serif" font-size="10.00">editeurpanovisu.EditeurPanovisu.projet</text>
<text xml:space="preserve" text-anchor="middle" x="1706.25" y="-448.5" font-family="Helvetica,sans-Serif" font-size="10.00">ChargeNom</text>
</a>
</g>
</g>
<!-- Node5&#45;&gt;Node9 -->
<g id="edge8_Node000005_Node000009" class="edge">
<title>Node5&#45;&gt;Node9</title>
<g id="a_edge8_Node000005_Node000009"><a xlink:title=" ">
<path fill="none" stroke="#63b8ff" d="M1870.71,-391.63C1833.09,-406.9 1782.52,-427.44 1747.63,-441.6"/>
<polygon fill="#63b8ff" stroke="#63b8ff" points="1871.6,-395.04 1879.55,-388.04 1868.96,-388.56 1871.6,-395.04"/>
</a>
</g>
</g>
<!-- Node7 -->
<g id="Node000007" class="node">
<title>Node7</title>
<g id="a_Node000007"><a xlink:href="classediteurpanovisu_1_1EditeurPanovisu.html#ac912b80c1f2ac97def60ff005c5c480b" target="_top" xlink:title=" ">
<polygon fill="white" stroke="#666666" points="420.5,-424 216.25,-424 216.25,-404 420.5,-404 420.5,-424"/>
<text xml:space="preserve" text-anchor="middle" x="318.38" y="-410.5" font-family="Helvetica,sans-Serif" font-size="10.00">editeurpanovisu.EditeurPanovisu.creeMenu</text>
</a>
</g>
</g>
<!-- Node6&#45;&gt;Node7 -->
<g id="edge6_Node000006_Node000007" class="edge">
<title>Node6&#45;&gt;Node7</title>
<g id="a_edge6_Node000006_Node000007"><a xlink:title=" ">
<path fill="none" stroke="#63b8ff" d="M932.37,-522.63C814.77,-525.09 618.2,-520.63 456.5,-475 412.37,-462.55 364.1,-438.38 338.25,-424.5"/>
<polygon fill="#63b8ff" stroke="#63b8ff" points="932.43,-526.13 942.34,-522.4 932.26,-519.13 932.43,-526.13"/>
</a>
</g>
</g>
<!-- Node8 -->
<g id="Node000008" class="node">
<title>Node8</title>
<g id="a_Node000008"><a xlink:href="classediteurpanovisu_1_1EditeurPanovisu.html#a86c393eee88f54c694db994ddd85b90d" target="_top" xlink:title=" ">
<polygon fill="white" stroke="#666666" points="180.25,-430 0,-430 0,-398 180.25,-398 180.25,-430"/>
<text xml:space="preserve" text-anchor="start" x="8" y="-416.5" font-family="Helvetica,sans-Serif" font-size="10.00">editeurpanovisu.EditeurPanovisu.cree</text>
<text xml:space="preserve" text-anchor="middle" x="90.12" y="-404.5" font-family="Helvetica,sans-Serif" font-size="10.00">Environnement</text>
</a>
</g>
</g>
<!-- Node7&#45;&gt;Node8 -->
<g id="edge7_Node000007_Node000008" class="edge">
<title>Node7&#45;&gt;Node8</title>
<g id="a_edge7_Node000007_Node000008"><a xlink:title=" ">
<path fill="none" stroke="#63b8ff" d="M204.51,-414C196.49,-414 188.46,-414 180.6,-414"/>
<polygon fill="#63b8ff" stroke="#63b8ff" points="204.32,-417.5 214.32,-414 204.32,-410.5 204.32,-417.5"/>
</a>
</g>
</g>
<!-- Node9&#45;&gt;Node7 -->
<g id="edge28_Node000009_Node000007" class="edge">
<title>Node9&#45;&gt;Node7</title>
<g id="a_edge28_Node000009_Node000007"><a xlink:title=" ">
<path fill="none" stroke="#63b8ff" d="M1621.98,-477.03C1619.12,-477.7 1616.29,-478.35 1613.5,-479 1457.15,-515.35 1422.52,-562 1262,-562 1262,-562 1262,-562 793.38,-562 641.67,-562 597.44,-563.11 456.5,-507 404.92,-486.46 353.18,-444.03 330.83,-424.39"/>
<polygon fill="#63b8ff" stroke="#63b8ff" points="1622.69,-480.46 1631.64,-474.8 1621.11,-473.64 1622.69,-480.46"/>
</a>
</g>
</g>
<!-- Node10 -->
<g id="Node000010" class="node">
<title>Node10</title>
<g id="a_Node000010"><a xlink:href="classediteurpanovisu_1_1EditeurPanovisu.html#af0d1c32bb78acbff561c822a0d15f760" target="_top" xlink:title=" ">
<polygon fill="white" stroke="#666666" points="1577.5,-474 1389.75,-474 1389.75,-442 1577.5,-442 1577.5,-474"/>
<text xml:space="preserve" text-anchor="start" x="1397.75" y="-460.5" font-family="Helvetica,sans-Serif" font-size="10.00">editeurpanovisu.EditeurPanovisu.ajoute</text>
<text xml:space="preserve" text-anchor="middle" x="1483.62" y="-448.5" font-family="Helvetica,sans-Serif" font-size="10.00">FichierHisto</text>
</a>
</g>
</g>
<!-- Node9&#45;&gt;Node10 -->
<g id="edge9_Node000009_Node000010" class="edge">
<title>Node9&#45;&gt;Node10</title>
<g id="a_edge9_Node000009_Node000010"><a xlink:title=" ">
<path fill="none" stroke="#63b8ff" d="M1601.97,-451.26C1593.92,-451.23 1585.83,-451.25 1577.86,-451.32"/>
<polygon fill="#63b8ff" stroke="#63b8ff" points="1601.75,-454.76 1611.77,-451.32 1601.79,-447.76 1601.75,-454.76"/>
</a>
</g>
</g>
<!-- Node10&#45;&gt;Node6 -->
<g id="edge10_Node000010_Node000006" class="edge">
<title>Node10&#45;&gt;Node6</title>
<g id="a_edge10_Node000010_Node000006"><a xlink:title=" ">
<path fill="none" stroke="#63b8ff" d="M1408.74,-476.99C1390.83,-481.09 1371.68,-485.08 1353.75,-488 1278.86,-500.22 1193.11,-507.97 1129.86,-512.53"/>
<polygon fill="#63b8ff" stroke="#63b8ff" points="1409.29,-480.45 1418.23,-474.77 1407.7,-473.64 1409.29,-480.45"/>
</a>
</g>
</g>
<!-- Node10&#45;&gt;Node9 -->
<g id="edge11_Node000010_Node000009" class="edge">
<title>Node10&#45;&gt;Node9</title>
<g id="a_edge11_Node000010_Node000009"><a xlink:title=" ">
<path fill="none" stroke="#63b8ff" d="M1589.19,-464.74C1597.24,-464.76 1605.33,-464.74 1613.28,-464.67"/>
<polygon fill="#63b8ff" stroke="#63b8ff" points="1589.4,-461.24 1579.38,-464.69 1589.36,-468.24 1589.4,-461.24"/>
</a>
</g>
</g>
<!-- Node11 -->
<g id="Node000011" class="node">
<title>Node11</title>
<g id="a_Node000011"><a xlink:href="classediteurpanovisu_1_1EditeurPanovisu.html#a9f3ea25b35d4884524508dab3dc4fd6a" target="_top" xlink:title=" ">
<polygon fill="white" stroke="#666666" points="1353.75,-414 1168.25,-414 1168.25,-382 1353.75,-382 1353.75,-414"/>
<text xml:space="preserve" text-anchor="start" x="1176.25" y="-400.5" font-family="Helvetica,sans-Serif" font-size="10.00">editeurpanovisu.EditeurPanovisu.projet</text>
<text xml:space="preserve" text-anchor="middle" x="1261" y="-388.5" font-family="Helvetica,sans-Serif" font-size="10.00">Sauve</text>
</a>
</g>
</g>
<!-- Node10&#45;&gt;Node11 -->
<g id="edge12_Node000010_Node000011" class="edge">
<title>Node10&#45;&gt;Node11</title>
<g id="a_edge12_Node000010_Node000011"><a xlink:title=" ">
<path fill="none" stroke="#63b8ff" d="M1411.28,-438.6C1382.61,-430.8 1349.91,-421.91 1322.44,-414.44"/>
<polygon fill="#63b8ff" stroke="#63b8ff" points="1410.02,-441.88 1420.59,-441.13 1411.85,-435.13 1410.02,-441.88"/>
</a>
</g>
</g>
<!-- Node17 -->
<g id="Node000017" class="node">
<title>Node17</title>
<g id="a_Node000017"><a xlink:href="classediteurpanovisu_1_1EditeurPanovisu.html#a7b2e25dc717eb52b62e23d54ec4c124a" target="_top" xlink:title=" ">
<polygon fill="white" stroke="#666666" points="887.12,-496 701.62,-496 701.62,-464 887.12,-464 887.12,-496"/>
<text xml:space="preserve" text-anchor="start" x="709.62" y="-482.5" font-family="Helvetica,sans-Serif" font-size="10.00">editeurpanovisu.EditeurPanovisu.projet</text>
<text xml:space="preserve" text-anchor="middle" x="794.38" y="-470.5" font-family="Helvetica,sans-Serif" font-size="10.00">SauveSous</text>
</a>
</g>
</g>
<!-- Node10&#45;&gt;Node17 -->
<g id="edge26_Node000010_Node000017" class="edge">
<title>Node10&#45;&gt;Node17</title>
<g id="a_edge26_Node000010_Node000017"><a xlink:title=" ">
<path fill="none" stroke="#63b8ff" d="M1378.14,-461.34C1244.48,-465.62 1015.05,-472.97 887.58,-477.05"/>
<polygon fill="#63b8ff" stroke="#63b8ff" points="1378.19,-464.85 1388.07,-461.03 1377.96,-457.85 1378.19,-464.85"/>
</a>
</g>
</g>
<!-- Node11&#45;&gt;Node6 -->
<g id="edge16_Node000011_Node000006" class="edge">
<title>Node11&#45;&gt;Node6</title>
<g id="a_edge16_Node000011_Node000006"><a xlink:title=" ">
<path fill="none" stroke="#63b8ff" d="M1219.6,-419.83C1176,-443.38 1107.55,-480.36 1068.28,-501.57"/>
<polygon fill="#63b8ff" stroke="#63b8ff" points="1221.11,-422.99 1228.25,-415.15 1217.79,-416.83 1221.11,-422.99"/>
</a>
</g>
</g>
<!-- Node11&#45;&gt;Node7 -->
<g id="edge13_Node000011_Node000007" class="edge">
<title>Node11&#45;&gt;Node7</title>
<g id="a_edge13_Node000011_Node000007"><a xlink:title=" ">
<path fill="none" stroke="#63b8ff" d="M1156.69,-408.41C1148.42,-409.03 1140.2,-409.57 1132.25,-410 832.34,-426.22 756.83,-420.28 456.5,-417 444.95,-416.87 432.86,-416.69 420.84,-416.47"/>
<polygon fill="#63b8ff" stroke="#63b8ff" points="1156.75,-411.91 1166.45,-407.64 1156.2,-404.94 1156.75,-411.91"/>
</a>
</g>
</g>
<!-- Node11&#45;&gt;Node9 -->
<g id="edge17_Node000011_Node000009" class="edge">
<title>Node11&#45;&gt;Node9</title>
<g id="a_edge17_Node000011_Node000009"><a xlink:title=" ">
<path fill="none" stroke="#63b8ff" d="M1365.38,-407.29C1427.12,-413.38 1506.98,-422.21 1577.5,-433 1593.36,-435.43 1610.25,-438.43 1626.38,-441.51"/>
<polygon fill="#63b8ff" stroke="#63b8ff" points="1365.87,-403.82 1355.58,-406.33 1365.19,-410.79 1365.87,-403.82"/>
</a>
</g>
</g>
<!-- Node11&#45;&gt;Node12 -->
<g id="edge14_Node000011_Node000012" class="edge">
<title>Node11&#45;&gt;Node12</title>
<g id="a_edge14_Node000011_Node000012"><a xlink:title=" ">
<path fill="none" stroke="#63b8ff" d="M1156.62,-384.7C1019.72,-367.08 780.18,-336.25 647.71,-319.2"/>
<polygon fill="#63b8ff" stroke="#63b8ff" points="1156.05,-388.15 1166.42,-385.96 1156.95,-381.21 1156.05,-388.15"/>
</a>
</g>
</g>
<!-- Node13 -->
<g id="Node000013" class="node">
<title>Node13</title>
<g id="a_Node000013"><a xlink:href="classediteurpanovisu_1_1EditeurPanovisu.html#a9b46b222714af12c06ec33d410400773" target="_top" xlink:title=" ">
<polygon fill="white" stroke="#666666" points="647.25,-408 456.5,-408 456.5,-376 647.25,-376 647.25,-408"/>
<text xml:space="preserve" text-anchor="start" x="464.5" y="-394.5" font-family="Helvetica,sans-Serif" font-size="10.00">editeurpanovisu.EditeurPanovisu.projets</text>
<text xml:space="preserve" text-anchor="middle" x="551.88" y="-382.5" font-family="Helvetica,sans-Serif" font-size="10.00">Fermer</text>
</a>
</g>
</g>
<!-- Node11&#45;&gt;Node13 -->
<g id="edge18_Node000011_Node000013" class="edge">
<title>Node11&#45;&gt;Node13</title>
<g id="a_edge18_Node000011_Node000013"><a xlink:title=" ">
<path fill="none" stroke="#63b8ff" d="M1156.62,-397.12C1019.72,-395.96 780.18,-393.93 647.71,-392.8"/>
<polygon fill="#63b8ff" stroke="#63b8ff" points="1156.38,-400.62 1166.41,-397.21 1156.44,-393.62 1156.38,-400.62"/>
</a>
</g>
</g>
<!-- Node14 -->
<g id="Node000014" class="node">
<title>Node14</title>
<g id="a_Node000014"><a xlink:href="classediteurpanovisu_1_1EditeurPanovisu.html#ac9d449399ccd38843fa12e716f0c9611" target="_top" xlink:title=" ">
<polygon fill="white" stroke="#666666" points="1132.25,-206 941.5,-206 941.5,-174 1132.25,-174 1132.25,-206"/>
<text xml:space="preserve" text-anchor="start" x="949.5" y="-192.5" font-family="Helvetica,sans-Serif" font-size="10.00">editeurpanovisu.EditeurPanovisu.projets</text>
<text xml:space="preserve" text-anchor="middle" x="1036.88" y="-180.5" font-family="Helvetica,sans-Serif" font-size="10.00">Nouveau</text>
</a>
</g>
</g>
<!-- Node11&#45;&gt;Node14 -->
<g id="edge20_Node000011_Node000014" class="edge">
<title>Node11&#45;&gt;Node14</title>
<g id="a_edge20_Node000011_Node000014"><a xlink:title=" ">
<path fill="none" stroke="#63b8ff" d="M1240.04,-373.16C1216.01,-344 1173.71,-294.93 1132.25,-258 1110.39,-238.52 1083.01,-219.29 1063.39,-206.28"/>
<polygon fill="#63b8ff" stroke="#63b8ff" points="1237.18,-375.19 1246.22,-380.72 1242.6,-370.76 1237.18,-375.19"/>
</a>
</g>
</g>
<!-- Node15 -->
<g id="Node000015" class="node">
<title>Node15</title>
<g id="a_Node000015"><a xlink:href="classediteurpanovisu_1_1EditeurPanovisu.html#a2b3125ffe2e6291efacf19df6cb30a8d" target="_top" xlink:title=" ">
<polygon fill="white" stroke="#666666" points="884.88,-282 703.88,-282 703.88,-262 884.88,-262 884.88,-282"/>
<text xml:space="preserve" text-anchor="middle" x="794.38" y="-268.5" font-family="Helvetica,sans-Serif" font-size="10.00">editeurpanovisu.EditeurPanovisu.start</text>
</a>
</g>
</g>
<!-- Node11&#45;&gt;Node15 -->
<g id="edge25_Node000011_Node000015" class="edge">
<title>Node11&#45;&gt;Node15</title>
<g id="a_edge25_Node000011_Node000015"><a xlink:title=" ">
<path fill="none" stroke="#63b8ff" d="M1239.33,-373.1C1216.24,-347.32 1176.29,-308.43 1132.25,-291 1053,-259.64 955.01,-257.79 885.19,-262.04"/>
<polygon fill="#63b8ff" stroke="#63b8ff" points="1236.56,-375.25 1245.77,-380.47 1241.83,-370.64 1236.56,-375.25"/>
</a>
</g>
</g>
<!-- Node16 -->
<g id="Node000016" class="node">
<title>Node16</title>
<g id="a_Node000016"><a xlink:href="classediteurpanovisu_1_1EditeurPanovisu.html#aef8c9b28c3e88d6e27e3f62b9a901134" target="_top" xlink:title=" ">
<polygon fill="white" stroke="#666666" points="1130.75,-332 943,-332 943,-300 1130.75,-300 1130.75,-332"/>
<text xml:space="preserve" text-anchor="start" x="951" y="-318.5" font-family="Helvetica,sans-Serif" font-size="10.00">editeurpanovisu.EditeurPanovisu.sauve</text>
<text xml:space="preserve" text-anchor="middle" x="1036.88" y="-306.5" font-family="Helvetica,sans-Serif" font-size="10.00">Fichiers</text>
</a>
</g>
</g>
<!-- Node11&#45;&gt;Node16 -->
<g id="edge24_Node000011_Node000016" class="edge">
<title>Node11&#45;&gt;Node16</title>
<g id="a_edge24_Node000011_Node000016"><a xlink:title=" ">
<path fill="none" stroke="#63b8ff" d="M1211.25,-377.11C1187.58,-367.23 1158.61,-355.54 1132.25,-346 1119.32,-341.32 1105.25,-336.64 1092.02,-332.41"/>
<polygon fill="#63b8ff" stroke="#63b8ff" points="1209.76,-380.27 1220.34,-380.92 1212.47,-373.82 1209.76,-380.27"/>
</a>
</g>
</g>
<!-- Node12&#45;&gt;Node7 -->
<g id="edge15_Node000012_Node000007" class="edge">
<title>Node12&#45;&gt;Node7</title>
<g id="a_edge15_Node000012_Node000007"><a xlink:title=" ">
<path fill="none" stroke="#63b8ff" d="M504.81,-328.29C455.5,-351.08 379.29,-386.31 341.79,-403.64"/>
<polygon fill="#63b8ff" stroke="#63b8ff" points="506.23,-331.49 513.84,-324.12 503.29,-325.14 506.23,-331.49"/>
</a>
</g>
</g>
<!-- Node13&#45;&gt;Node7 -->
<g id="edge19_Node000013_Node000007" class="edge">
<title>Node13&#45;&gt;Node7</title>
<g id="a_edge19_Node000013_Node000007"><a xlink:title=" ">
<path fill="none" stroke="#63b8ff" d="M444.81,-402.08C436.83,-402.84 428.78,-403.6 420.83,-404.36"/>
<polygon fill="#63b8ff" stroke="#63b8ff" points="444.92,-405.59 454.54,-401.15 444.25,-398.62 444.92,-405.59"/>
</a>
</g>
</g>
<!-- Node14&#45;&gt;Node7 -->
<g id="edge21_Node000014_Node000007" class="edge">
<title>Node14&#45;&gt;Node7</title>
<g id="a_edge21_Node000014_Node000007"><a xlink:title=" ">
<path fill="none" stroke="#63b8ff" d="M930.04,-185.18C808.02,-184.29 605.17,-197.54 456.5,-282 398.17,-315.13 346.13,-378.72 327.07,-403.63"/>
<polygon fill="#63b8ff" stroke="#63b8ff" points="929.68,-188.67 939.72,-185.28 929.76,-181.67 929.68,-188.67"/>
</a>
</g>
</g>
<!-- Node14&#45;&gt;Node15 -->
<g id="edge22_Node000014_Node000015" class="edge">
<title>Node14&#45;&gt;Node15</title>
<g id="a_edge22_Node000014_Node000015"><a xlink:title=" ">
<path fill="none" stroke="#63b8ff" d="M976.7,-210.18C929.05,-226.42 863.98,-248.61 826.14,-261.51"/>
<polygon fill="#63b8ff" stroke="#63b8ff" points="977.73,-213.52 986.06,-206.98 975.47,-206.9 977.73,-213.52"/>
</a>
</g>
</g>
<!-- Node15&#45;&gt;Node12 -->
<g id="edge23_Node000015_Node000012" class="edge">
<title>Node15&#45;&gt;Node12</title>
<g id="a_edge23_Node000015_Node000012"><a xlink:title=" ">
<path fill="none" stroke="#63b8ff" d="M710.17,-284.11C689.95,-287.05 668.19,-290.22 647.49,-293.23"/>
<polygon fill="#63b8ff" stroke="#63b8ff" points="710.65,-287.58 720.05,-282.67 709.65,-280.65 710.65,-287.58"/>
</a>
</g>
</g>
<!-- Node17&#45;&gt;Node7 -->
<g id="edge27_Node000017_Node000007" class="edge">
<title>Node17&#45;&gt;Node7</title>
<g id="a_edge27_Node000017_Node000007"><a xlink:title=" ">
<path fill="none" stroke="#63b8ff" d="M689.93,-475.29C622.99,-471.14 534.14,-463.55 456.5,-450 420.61,-443.74 380.39,-432.68 352.84,-424.47"/>
<polygon fill="#63b8ff" stroke="#63b8ff" points="689.62,-478.78 699.81,-475.89 690.04,-471.79 689.62,-478.78"/>
</a>
</g>
</g>
<!-- Node18&#45;&gt;Node19 -->
<g id="edge30_Node000018_Node000019" class="edge">
<title>Node18&#45;&gt;Node19</title>
<g id="a_edge30_Node000018_Node000019"><a xlink:title=" ">
<path fill="none" stroke="#63b8ff" d="M2064.2,-120.19C2036.22,-111.6 2003.84,-101.66 1977.2,-93.48"/>
<polygon fill="#63b8ff" stroke="#63b8ff" points="2063.06,-123.5 2073.64,-123.09 2065.11,-116.81 2063.06,-123.5"/>
</a>
</g>
</g>
<!-- Node20&#45;&gt;Node5 -->
<g id="edge33_Node000020_Node000005" class="edge">
<title>Node20&#45;&gt;Node5</title>
<g id="a_edge33_Node000020_Node000005"><a xlink:title=" ">
<path fill="none" stroke="#63b8ff" d="M2099.58,-213.77C2083.61,-226.93 2063.55,-243.68 2046,-259 2007.8,-292.36 1964.22,-332.79 1940.72,-354.8"/>
<polygon fill="#63b8ff" stroke="#63b8ff" points="2101.79,-216.49 2107.3,-207.44 2097.35,-211.08 2101.79,-216.49"/>
</a>
</g>
</g>
<!-- Node21 -->
<g id="Node000021" class="node">
<title>Node21</title>
<g id="a_Node000021"><a xlink:href="classediteurpanovisu_1_1EditeurPanovisu.html#a53cccf6a6b2693c872947460b66ae8ee" target="_top" xlink:title=" ">
<polygon fill="white" stroke="#666666" points="1348.5,-206 1173.5,-206 1173.5,-174 1348.5,-174 1348.5,-206"/>
<text xml:space="preserve" text-anchor="start" x="1181.5" y="-192.5" font-family="Helvetica,sans-Serif" font-size="10.00">editeurpanovisu.EditeurPanovisu.tsk</text>
<text xml:space="preserve" text-anchor="middle" x="1261" y="-180.5" font-family="Helvetica,sans-Serif" font-size="10.00">ChargeListeFichiers</text>
</a>
</g>
</g>
<!-- Node20&#45;&gt;Node21 -->
<g id="edge34_Node000020_Node000021" class="edge">
<title>Node20&#45;&gt;Node21</title>
<g id="a_edge34_Node000020_Node000021"><a xlink:title=" ">
<path fill="none" stroke="#63b8ff" d="M2047.13,-190C1883.45,-190 1516.48,-190 1348.69,-190"/>
<polygon fill="#63b8ff" stroke="#63b8ff" points="2047.04,-193.5 2057.04,-190 2047.04,-186.5 2047.04,-193.5"/>
</a>
</g>
</g>
<!-- Node21&#45;&gt;Node14 -->
<g id="edge37_Node000021_Node000014" class="edge">
<title>Node21&#45;&gt;Node14</title>
<g id="a_edge37_Node000021_Node000014"><a xlink:title=" ">
<path fill="none" stroke="#63b8ff" d="M1161.88,-190C1152.2,-190 1142.38,-190 1132.73,-190"/>
<polygon fill="#63b8ff" stroke="#63b8ff" points="1161.65,-193.5 1171.65,-190 1161.65,-186.5 1161.65,-193.5"/>
</a>
</g>
</g>
<!-- Node22 -->
<g id="Node000022" class="node">
<title>Node22</title>
<g id="a_Node000022"><a xlink:href="classediteurpanovisu_1_1EditeurPanovisu.html#a924d3ccff3e4f402d2309cd2eade3237" target="_top" xlink:title=" ">
<polygon fill="white" stroke="#666666" points="905.5,-164 683.25,-164 683.25,-132 905.5,-132 905.5,-164"/>
<text xml:space="preserve" text-anchor="start" x="691.25" y="-150.5" font-family="Helvetica,sans-Serif" font-size="10.00">editeurpanovisu.EditeurPanovisu.panoramiques</text>
<text xml:space="preserve" text-anchor="middle" x="794.38" y="-138.5" font-family="Helvetica,sans-Serif" font-size="10.00">Ajouter</text>
</a>
</g>
</g>
<!-- Node21&#45;&gt;Node22 -->
<g id="edge35_Node000021_Node000022" class="edge">
<title>Node21&#45;&gt;Node22</title>
<g id="a_edge35_Node000021_Node000022"><a xlink:title=" ">
<path fill="none" stroke="#63b8ff" d="M1174.2,-171.47C1160.23,-168.95 1145.88,-166.67 1132.25,-165 1056.98,-155.78 971.66,-151.54 905.71,-149.6"/>
<polygon fill="#63b8ff" stroke="#63b8ff" points="1173.35,-174.87 1183.82,-173.25 1174.62,-167.99 1173.35,-174.87"/>
</a>
</g>
</g>
<!-- Node22&#45;&gt;Node7 -->
<g id="edge36_Node000022_Node000007" class="edge">
<title>Node22&#45;&gt;Node7</title>
<g id="a_edge36_Node000022_Node000007"><a xlink:title=" ">
<path fill="none" stroke="#63b8ff" d="M671.54,-133.18C603.35,-130.93 519.61,-138.8 456.5,-179 369.65,-234.32 331.28,-365.84 321.8,-403.66"/>
<polygon fill="#63b8ff" stroke="#63b8ff" points="671.13,-136.66 681.27,-133.58 671.42,-129.67 671.13,-136.66"/>
</a>
</g>
</g>
<!-- Node23&#45;&gt;Node4 -->
<g id="edge39_Node000023_Node000004" class="edge">
<title>Node23&#45;&gt;Node4</title>
<g id="a_edge39_Node000023_Node000004"><a xlink:title=" ">
<path fill="none" stroke="#63b8ff" d="M2265.77,-284C2248.67,-284 2230.76,-284 2213.77,-284"/>
<polygon fill="#63b8ff" stroke="#63b8ff" points="2265.36,-287.5 2275.36,-284 2265.36,-280.5 2265.36,-287.5"/>
</a>
</g>
</g>
<!-- Node24&#45;&gt;Node19 -->
<g id="edge41_Node000024_Node000019" class="edge">
<title>Node24&#45;&gt;Node19</title>
<g id="a_edge41_Node000024_Node000019"><a xlink:title=" ">
<path fill="none" stroke="#63b8ff" d="M2237.77,-21.78C2179.97,-25.88 2108.92,-32.73 2046,-44 2023.02,-48.11 1998.07,-54.48 1976.72,-60.53"/>
<polygon fill="#63b8ff" stroke="#63b8ff" points="2237.9,-25.28 2247.63,-21.1 2237.42,-18.29 2237.9,-25.28"/>
</a>
</g>
</g>
<!-- Node25&#45;&gt;Node2 -->
<g id="edge45_Node000025_Node000002" class="edge">
<title>Node25&#45;&gt;Node2</title>
<g id="a_edge45_Node000025_Node000002"><a xlink:title=" ">
<path fill="none" stroke="#63b8ff" d="M2667.77,-146C2659.88,-146 2651.96,-146 2644.2,-146"/>
<polygon fill="#63b8ff" stroke="#63b8ff" points="2667.74,-149.5 2677.74,-146 2667.74,-142.5 2667.74,-149.5"/>
</a>
</g>
</g>
</g>
</svg>

<g id="navigator" transform="translate(0 0)" fill="#404254">
  <rect fill="#f2f5e9" fill-opacity="0.5" stroke="#606060" stroke-width=".5" x="0" y="0" width="60" height="60"/>
  <use id="zoomplus" xlink:href="#zoomPlus" x="17" y="9" onmousedown="handleZoom(evt,'in')"/>
  <use id="zoomminus" xlink:href="#zoomMin" x="42" y="9" onmousedown="handleZoom(evt,'out')"/>
  <use id="reset" xlink:href="#resetDef" x="30" y="36" onmousedown="handleReset()"/>
   <use id="arrowup" xlink:href="#arrowUp" x="0" y="0" onmousedown="handlePan(0,-1)"/>
  <use id="arrowright" xlink:href="#arrowRight" x="0" y="0" onmousedown="handlePan(1,0)"/>
  <use id="arrowdown" xlink:href="#arrowDown" x="0" y="0" onmousedown="handlePan(0,1)"/>
  <use id="arrowleft" xlink:href="#arrowLeft" x="0" y="0" onmousedown="handlePan(-1,0)"/>
</g>
<svg viewBox="0 0 15 15" width="100%" height="30px" preserveAspectRatio="xMaxYMin meet">
 <g id="arrow_out" transform="scale(0.3 0.3)">
  <a xlink:href="classediteurpanovisu_1_1GestionnaireInterfaceController_a772989932b75e9e5a035e42b31d84bd5_icgraph_org.svg" target="_base">
   <rect id="button" ry="5" rx="5" y="6" x="6" height="38" width="38"
        fill="#f2f5e9" fill-opacity="0.5" stroke="#606060" stroke-width="1.0"/>
   <path id="arrow"
     d="M 11.500037,31.436501 C 11.940474,20.09759 22.043105,11.32322 32.158766,21.979434 L 37.068811,17.246167 C 37.068811,17.246167 37.088388,32 37.088388,32 L 22.160133,31.978069 C 22.160133,31.978069 26.997745,27.140456 26.997745,27.140456 C 18.528582,18.264221 13.291696,25.230495 11.500037,31.436501 z"
     style="fill:#404040;"/>
  </a>
 </g>
</svg>

<style type='text/css'>
<![CDATA[
[data-mouse-over-selected='false'] { opacity: 0.7; }
[data-mouse-over-selected='true']  { opacity: 1.0; }
]]>
</style>
<script type="application/ecmascript"><![CDATA[
document.addEventListener('DOMContentLoaded', (event) => {
  highlightEdges();
  highlightAdjacentNodes();
});
]]></script>
</svg>
