<?xml version="1.0" encoding="UTF-8" standalone="no"?>
<!DOCTYPE svg PUBLIC "-//W3C//DTD SVG 1.1//EN"
 "http://www.w3.org/Graphics/SVG/1.1/DTD/svg11.dtd">
<!-- Generated by graphviz version 13.1.2 (20250808.2320)
 -->
<!-- Title: editeurpanovisu.GestionnaireInterfaceController.reOrdonneElementsCalque Pages: 1 -->
<!--zoomable 852 -->

<svg id="main" version="1.1" xmlns="http://www.w3.org/2000/svg" xmlns:xlink="http://www.w3.org/1999/xlink" xml:space="preserve" onload="init(evt)">

<style type="text/css"><![CDATA[
.node, .edge {opacity: 0.7;}
.node.selected, .edge.selected {opacity: 1;}
.edge:hover path { stroke: red; }
.edge:hover polygon { stroke: red; fill: red; }
]]></style>

<defs>
  <circle id="rim" cx="0" cy="0" r="7"/>
  <circle id="rim2" cx="0" cy="0" r="3.5"/>
  <g id="zoomPlus">
    <use xlink:href="#rim" fill="#404040"><set attributeName="fill" to="#808080" begin="zoomplus.mouseover" end="zoomplus.mouseout"/></use>
    <path d="M-4,0h8M0,-4v8" fill="none" stroke="white" stroke-width="1.5" pointer-events="none"/>
  </g>
  <g id="zoomMin">
    <use xlink:href="#rim" fill="#404040"><set attributeName="fill" to="#808080" begin="zoomminus.mouseover" end="zoomminus.mouseout"/></use>
    <path d="M-4,0h8" fill="none" stroke="white" stroke-width="1.5" pointer-events="none"/>
  </g>
  <g id="arrowUp" transform="translate(30 24)">
    <use xlink:href="#rim"/>
    <path pointer-events="none" fill="none" stroke="white" stroke-width="1.5" d="M0,-3.0v7 M-2.5,-0.5L0,-3.0L2.5,-0.5"/>
  </g>
  <g id="arrowRight" transform="rotate(90) translate(36 -43)">
    <use xlink:href="#rim"/>
    <path pointer-events="none" fill="none" stroke="white" stroke-width="1.5" d="M0,-3.0v7 M-2.5,-0.5L0,-3.0L2.5,-0.5"/>
  </g>
  <g id="arrowDown" transform="rotate(180) translate(-30 -48)">
    <use xlink:href="#rim"/>
    <path pointer-events="none" fill="none" stroke="white" stroke-width="1.5" d="M0,-3.0v7 M-2.5,-0.5L0,-3.0L2.5,-0.5"/>
  </g>
  <g id="arrowLeft" transform="rotate(270) translate(-36 17)">
    <use xlink:href="#rim"/>
    <path pointer-events="none" fill="none" stroke="white" stroke-width="1.5" d="M0,-3.0v7 M-2.5,-0.5L0,-3.0L2.5,-0.5"/>
  </g>
  <g id="resetDef">
    <use xlink:href="#rim2" fill="#404040"><set attributeName="fill" to="#808080" begin="reset.mouseover" end="reset.mouseout"/></use>
  </g>
</defs>
<script type="application/ecmascript">
var viewWidth = 433;
var viewHeight = 852;
var sectionId = 'dynsection-271';
</script>
<script type="application/ecmascript" xlink:href="svg.min.js"/>
<svg id="graph" class="graph">
<g id="viewport">
<title>editeurpanovisu.GestionnaireInterfaceController.reOrdonneElementsCalque</title>
<!-- Node1 -->
<g id="Node000001" class="node">
<title>Node1</title>
<g id="a_Node000001"><a xlink:title="Réaffiche les éléments dans l&#39;ordre des plans.">
<polygon fill="#999999" stroke="#666666" points="185.5,-414 0,-414 0,-370 185.5,-370 185.5,-414"/>
<text xml:space="preserve" text-anchor="start" x="8" y="-400.5" font-family="Helvetica,sans-Serif" font-size="10.00">editeurpanovisu.Gestionnaire</text>
<text xml:space="preserve" text-anchor="start" x="8" y="-388.5" font-family="Helvetica,sans-Serif" font-size="10.00">InterfaceController.reOrdonneElements</text>
<text xml:space="preserve" text-anchor="middle" x="92.75" y="-376.5" font-family="Helvetica,sans-Serif" font-size="10.00">Calque</text>
</a>
</g>
</g>
<!-- Node2 -->
<g id="Node000002" class="node">
<title>Node2</title>
<g id="a_Node000002"><a xlink:href="classediteurpanovisu_1_1GestionnaireInterfaceController.html#a6bb7b57880cc7f5f512b09b4130f254a" target="_top" xlink:title=" ">
<polygon fill="white" stroke="#666666" points="407.75,-844 238.75,-844 238.75,-800 407.75,-800 407.75,-844"/>
<text xml:space="preserve" text-anchor="start" x="246.75" y="-830.5" font-family="Helvetica,sans-Serif" font-size="10.00">editeurpanovisu.Gestionnaire</text>
<text xml:space="preserve" text-anchor="start" x="246.75" y="-818.5" font-family="Helvetica,sans-Serif" font-size="10.00">InterfaceController.getiCalqueBarre</text>
<text xml:space="preserve" text-anchor="middle" x="323.25" y="-806.5" font-family="Helvetica,sans-Serif" font-size="10.00">Classique</text>
</a>
</g>
</g>
<!-- Node1&#45;&gt;Node2 -->
<g id="edge1_Node000001_Node000002" class="edge">
<title>Node1&#45;&gt;Node2</title>
<g id="a_edge1_Node000001_Node000002"><a xlink:title=" ">
<path fill="none" stroke="#63b8ff" d="M94.07,-414.17C96.27,-481.06 112.11,-682.84 221.5,-791 223.74,-793.22 226.14,-795.27 228.65,-797.18"/>
<polygon fill="#63b8ff" stroke="#63b8ff" points="226.71,-800.1 236.99,-802.65 230.55,-794.24 226.71,-800.1"/>
</a>
</g>
</g>
<!-- Node3 -->
<g id="Node000003" class="node">
<title>Node3</title>
<g id="a_Node000003"><a xlink:href="classediteurpanovisu_1_1GestionnaireInterfaceController.html#af9d8e6d4af8eda132e74c762ab4f1220" target="_top" xlink:title=" ">
<polygon fill="white" stroke="#666666" points="407.75,-782 238.75,-782 238.75,-738 407.75,-738 407.75,-782"/>
<text xml:space="preserve" text-anchor="start" x="246.75" y="-768.5" font-family="Helvetica,sans-Serif" font-size="10.00">editeurpanovisu.Gestionnaire</text>
<text xml:space="preserve" text-anchor="start" x="246.75" y="-756.5" font-family="Helvetica,sans-Serif" font-size="10.00">InterfaceController.getiCalqueBarre</text>
<text xml:space="preserve" text-anchor="middle" x="323.25" y="-744.5" font-family="Helvetica,sans-Serif" font-size="10.00">Personnalisee</text>
</a>
</g>
</g>
<!-- Node1&#45;&gt;Node3 -->
<g id="edge2_Node000001_Node000003" class="edge">
<title>Node1&#45;&gt;Node3</title>
<g id="a_edge2_Node000001_Node000003"><a xlink:title=" ">
<path fill="none" stroke="#63b8ff" d="M95.57,-414.14C101.69,-473.94 126.81,-640.17 221.5,-729 223.88,-731.23 226.41,-733.3 229.07,-735.22"/>
<polygon fill="#63b8ff" stroke="#63b8ff" points="226.93,-738.01 237.25,-740.39 230.67,-732.09 226.93,-738.01"/>
</a>
</g>
</g>
<!-- Node4 -->
<g id="Node000004" class="node">
<title>Node4</title>
<g id="a_Node000004"><a xlink:href="classediteurpanovisu_1_1GestionnaireInterfaceController.html#a6dedcad8739f7ad0245454822e8356df" target="_top" xlink:title=" ">
<polygon fill="white" stroke="#666666" points="416.38,-720 230.12,-720 230.12,-688 416.38,-688 416.38,-720"/>
<text xml:space="preserve" text-anchor="start" x="238.12" y="-706.5" font-family="Helvetica,sans-Serif" font-size="10.00">editeurpanovisu.Gestionnaire</text>
<text xml:space="preserve" text-anchor="middle" x="323.25" y="-694.5" font-family="Helvetica,sans-Serif" font-size="10.00">InterfaceController.getiCalqueBoussole</text>
</a>
</g>
</g>
<!-- Node1&#45;&gt;Node4 -->
<g id="edge3_Node000001_Node000004" class="edge">
<title>Node1&#45;&gt;Node4</title>
<g id="a_edge3_Node000001_Node000004"><a xlink:title=" ">
<path fill="none" stroke="#63b8ff" d="M96.93,-414.26C105.89,-468.4 136.44,-607.7 221.5,-679 222.47,-679.81 223.46,-680.6 224.47,-681.36"/>
<polygon fill="#63b8ff" stroke="#63b8ff" points="222.48,-684.24 232.78,-686.72 226.28,-678.36 222.48,-684.24"/>
</a>
</g>
</g>
<!-- Node5 -->
<g id="Node000005" class="node">
<title>Node5</title>
<g id="a_Node000005"><a xlink:href="classediteurpanovisu_1_1GestionnaireInterfaceController.html#a8193ee98626eccb9c24467d77d3ed2e0" target="_top" xlink:title=" ">
<polygon fill="white" stroke="#666666" points="408.12,-670 238.38,-670 238.38,-638 408.12,-638 408.12,-670"/>
<text xml:space="preserve" text-anchor="start" x="246.38" y="-656.5" font-family="Helvetica,sans-Serif" font-size="10.00">editeurpanovisu.Gestionnaire</text>
<text xml:space="preserve" text-anchor="middle" x="323.25" y="-644.5" font-family="Helvetica,sans-Serif" font-size="10.00">InterfaceController.getiCalqueCarte</text>
</a>
</g>
</g>
<!-- Node1&#45;&gt;Node5 -->
<g id="edge4_Node000001_Node000005" class="edge">
<title>Node1&#45;&gt;Node5</title>
<g id="a_edge4_Node000001_Node000005"><a xlink:title=" ">
<path fill="none" stroke="#63b8ff" d="M99.19,-414.25C111.94,-461.52 148.38,-572.27 221.5,-629 223.66,-630.68 225.92,-632.24 228.26,-633.71"/>
<polygon fill="#63b8ff" stroke="#63b8ff" points="226.49,-636.73 236.94,-638.43 229.83,-630.58 226.49,-636.73"/>
</a>
</g>
</g>
<!-- Node6 -->
<g id="Node000006" class="node">
<title>Node6</title>
<g id="a_Node000006"><a xlink:href="classediteurpanovisu_1_1ImageFond.html#adf317b83e09f8d955fd03bf541c35a32" target="_top" xlink:title=" ">
<polygon fill="white" stroke="#666666" points="400.62,-620 245.88,-620 245.88,-588 400.62,-588 400.62,-620"/>
<text xml:space="preserve" text-anchor="start" x="253.88" y="-606.5" font-family="Helvetica,sans-Serif" font-size="10.00">editeurpanovisu.ImageFond.geti</text>
<text xml:space="preserve" text-anchor="middle" x="323.25" y="-594.5" font-family="Helvetica,sans-Serif" font-size="10.00">CalqueImage</text>
</a>
</g>
</g>
<!-- Node1&#45;&gt;Node6 -->
<g id="edge5_Node000001_Node000006" class="edge">
<title>Node1&#45;&gt;Node6</title>
<g id="a_edge5_Node000001_Node000006"><a xlink:title=" ">
<path fill="none" stroke="#63b8ff" d="M102.61,-414.38C119.5,-454.01 160.16,-536.37 221.5,-579 225.69,-581.91 230.19,-584.49 234.88,-586.76"/>
<polygon fill="#63b8ff" stroke="#63b8ff" points="233.42,-589.95 243.99,-590.68 236.19,-583.52 233.42,-589.95"/>
</a>
</g>
</g>
<!-- Node7 -->
<g id="Node000007" class="node">
<title>Node7</title>
<g id="a_Node000007"><a xlink:href="classediteurpanovisu_1_1GestionnaireInterfaceController.html#ad47465b6dd24c98c481660b65d40cc98" target="_top" xlink:title=" ">
<polygon fill="white" stroke="#666666" points="418.62,-570 227.88,-570 227.88,-538 418.62,-538 418.62,-570"/>
<text xml:space="preserve" text-anchor="start" x="235.88" y="-556.5" font-family="Helvetica,sans-Serif" font-size="10.00">editeurpanovisu.Gestionnaire</text>
<text xml:space="preserve" text-anchor="middle" x="323.25" y="-544.5" font-family="Helvetica,sans-Serif" font-size="10.00">InterfaceController.getiCalqueMasquage</text>
</a>
</g>
</g>
<!-- Node1&#45;&gt;Node7 -->
<g id="edge6_Node000001_Node000007" class="edge">
<title>Node1&#45;&gt;Node7</title>
<g id="a_edge6_Node000001_Node000007"><a xlink:title=" ">
<path fill="none" stroke="#63b8ff" d="M108.38,-414.49C129.57,-445.19 171.75,-499.73 221.5,-529 223.83,-530.37 226.23,-531.66 228.68,-532.89"/>
<polygon fill="#63b8ff" stroke="#63b8ff" points="227.11,-536.02 237.67,-536.91 229.97,-529.63 227.11,-536.02"/>
</a>
</g>
</g>
<!-- Node8 -->
<g id="Node000008" class="node">
<title>Node8</title>
<g id="a_Node000008"><a xlink:href="classediteurpanovisu_1_1GestionnaireInterfaceController.html#ac6f8d140cba49c056639f294d77b65a9" target="_top" xlink:title=" ">
<polygon fill="white" stroke="#666666" points="408.12,-520 238.38,-520 238.38,-476 408.12,-476 408.12,-520"/>
<text xml:space="preserve" text-anchor="start" x="246.38" y="-506.5" font-family="Helvetica,sans-Serif" font-size="10.00">editeurpanovisu.Gestionnaire</text>
<text xml:space="preserve" text-anchor="start" x="246.38" y="-494.5" font-family="Helvetica,sans-Serif" font-size="10.00">InterfaceController.getiCalqueMenu</text>
<text xml:space="preserve" text-anchor="middle" x="323.25" y="-482.5" font-family="Helvetica,sans-Serif" font-size="10.00">Panoramiques</text>
</a>
</g>
</g>
<!-- Node1&#45;&gt;Node8 -->
<g id="edge7_Node000001_Node000008" class="edge">
<title>Node1&#45;&gt;Node8</title>
<g id="a_edge7_Node000001_Node000008"><a xlink:title=" ">
<path fill="none" stroke="#63b8ff" d="M127.04,-414.45C152.17,-430.67 187.96,-452.23 221.5,-467 225.04,-468.56 228.68,-470.07 232.39,-471.54"/>
<polygon fill="#63b8ff" stroke="#63b8ff" points="230.95,-474.73 241.54,-474.99 233.42,-468.18 230.95,-474.73"/>
</a>
</g>
</g>
<!-- Node9 -->
<g id="Node000009" class="node">
<title>Node9</title>
<g id="a_Node000009"><a xlink:href="classediteurpanovisu_1_1GestionnaireInterfaceController.html#a8082e12af30ac9730aa2cd9c9633ac8f" target="_top" xlink:title=" ">
<polygon fill="white" stroke="#666666" points="413,-458 233.5,-458 233.5,-426 413,-426 413,-458"/>
<text xml:space="preserve" text-anchor="start" x="241.5" y="-444.5" font-family="Helvetica,sans-Serif" font-size="10.00">editeurpanovisu.Gestionnaire</text>
<text xml:space="preserve" text-anchor="middle" x="323.25" y="-432.5" font-family="Helvetica,sans-Serif" font-size="10.00">InterfaceController.getiCalquePartage</text>
</a>
</g>
</g>
<!-- Node1&#45;&gt;Node9 -->
<g id="edge8_Node000001_Node000009" class="edge">
<title>Node1&#45;&gt;Node9</title>
<g id="a_edge8_Node000001_Node000009"><a xlink:title=" ">
<path fill="none" stroke="#63b8ff" d="M185.7,-412.12C202.23,-415.74 219.4,-419.49 235.76,-423.07"/>
<polygon fill="#63b8ff" stroke="#63b8ff" points="234.95,-426.48 245.46,-425.2 236.44,-419.64 234.95,-426.48"/>
</a>
</g>
</g>
<!-- Node10 -->
<g id="Node000010" class="node">
<title>Node10</title>
<g id="a_Node000010"><a xlink:href="classediteurpanovisu_1_1GestionnaireInterfaceController.html#accd110de308186b12698b08ce9eb6a5d" target="_top" xlink:title=" ">
<polygon fill="white" stroke="#666666" points="405.88,-408 240.62,-408 240.62,-376 405.88,-376 405.88,-408"/>
<text xml:space="preserve" text-anchor="start" x="248.62" y="-394.5" font-family="Helvetica,sans-Serif" font-size="10.00">editeurpanovisu.Gestionnaire</text>
<text xml:space="preserve" text-anchor="middle" x="323.25" y="-382.5" font-family="Helvetica,sans-Serif" font-size="10.00">InterfaceController.getiCalquePlan</text>
</a>
</g>
</g>
<!-- Node1&#45;&gt;Node10 -->
<g id="edge9_Node000001_Node000010" class="edge">
<title>Node1&#45;&gt;Node10</title>
<g id="a_edge9_Node000001_Node000010"><a xlink:title=" ">
<path fill="none" stroke="#63b8ff" d="M185.7,-392C199.99,-392 214.76,-392 229.07,-392"/>
<polygon fill="#63b8ff" stroke="#63b8ff" points="228.92,-395.5 238.92,-392 228.92,-388.5 228.92,-395.5"/>
</a>
</g>
</g>
<!-- Node11 -->
<g id="Node000011" class="node">
<title>Node11</title>
<g id="a_Node000011"><a xlink:href="classediteurpanovisu_1_1GestionnaireInterfaceController.html#abc727fe73c02ad7104b8a3741c66645c" target="_top" xlink:title=" ">
<polygon fill="white" stroke="#666666" points="416,-358 230.5,-358 230.5,-326 416,-326 416,-358"/>
<text xml:space="preserve" text-anchor="start" x="238.5" y="-344.5" font-family="Helvetica,sans-Serif" font-size="10.00">editeurpanovisu.Gestionnaire</text>
<text xml:space="preserve" text-anchor="middle" x="323.25" y="-332.5" font-family="Helvetica,sans-Serif" font-size="10.00">InterfaceController.getiCalqueSuivPrec</text>
</a>
</g>
</g>
<!-- Node1&#45;&gt;Node11 -->
<g id="edge10_Node000001_Node000011" class="edge">
<title>Node1&#45;&gt;Node11</title>
<g id="a_edge10_Node000001_Node000011"><a xlink:title=" ">
<path fill="none" stroke="#63b8ff" d="M185.7,-371.88C202.23,-368.26 219.4,-364.51 235.76,-360.93"/>
<polygon fill="#63b8ff" stroke="#63b8ff" points="236.44,-364.36 245.46,-358.8 234.95,-357.52 236.44,-364.36"/>
</a>
</g>
</g>
<!-- Node12 -->
<g id="Node000012" class="node">
<title>Node12</title>
<g id="a_Node000012"><a xlink:href="classediteurpanovisu_1_1GestionnaireInterfaceController.html#a549bfb9f821044843722c049e0635abd" target="_top" xlink:title=" ">
<polygon fill="white" stroke="#666666" points="405.88,-308 240.62,-308 240.62,-276 405.88,-276 405.88,-308"/>
<text xml:space="preserve" text-anchor="start" x="248.62" y="-294.5" font-family="Helvetica,sans-Serif" font-size="10.00">editeurpanovisu.Gestionnaire</text>
<text xml:space="preserve" text-anchor="middle" x="323.25" y="-282.5" font-family="Helvetica,sans-Serif" font-size="10.00">InterfaceController.getiCalqueTitre</text>
</a>
</g>
</g>
<!-- Node1&#45;&gt;Node12 -->
<g id="edge11_Node000001_Node000012" class="edge">
<title>Node1&#45;&gt;Node12</title>
<g id="a_edge11_Node000001_Node000012"><a xlink:title=" ">
<path fill="none" stroke="#63b8ff" d="M126.02,-369.52C151.07,-352.96 187.2,-330.98 221.5,-317 225.87,-315.22 230.39,-313.54 235,-311.97"/>
<polygon fill="#63b8ff" stroke="#63b8ff" points="235.97,-315.33 244.42,-308.93 233.82,-308.67 235.97,-315.33"/>
</a>
</g>
</g>
<!-- Node13 -->
<g id="Node000013" class="node">
<title>Node13</title>
<g id="a_Node000013"><a xlink:href="classediteurpanovisu_1_1GestionnaireInterfaceController.html#aba4a79d6544bf312a6f3a329ad6e4233" target="_top" xlink:title=" ">
<polygon fill="white" stroke="#666666" points="416.75,-258 229.75,-258 229.75,-226 416.75,-226 416.75,-258"/>
<text xml:space="preserve" text-anchor="start" x="237.75" y="-244.5" font-family="Helvetica,sans-Serif" font-size="10.00">editeurpanovisu.Gestionnaire</text>
<text xml:space="preserve" text-anchor="middle" x="323.25" y="-232.5" font-family="Helvetica,sans-Serif" font-size="10.00">InterfaceController.getiCalqueVignettes</text>
</a>
</g>
</g>
<!-- Node1&#45;&gt;Node13 -->
<g id="edge12_Node000001_Node000013" class="edge">
<title>Node1&#45;&gt;Node13</title>
<g id="a_edge12_Node000001_Node000013"><a xlink:title=" ">
<path fill="none" stroke="#63b8ff" d="M110.16,-369.84C132.28,-341.6 174.35,-293.3 221.5,-267 224.14,-265.53 226.86,-264.14 229.65,-262.84"/>
<polygon fill="#63b8ff" stroke="#63b8ff" points="230.76,-266.17 238.6,-259.04 228.02,-259.72 230.76,-266.17"/>
</a>
</g>
</g>
<!-- Node14 -->
<g id="Node000014" class="node">
<title>Node14</title>
<g id="a_Node000014"><a xlink:href="classediteurpanovisu_1_1GestionnaireInterfaceController.html#a3fdcd82d7db9396d4e89f8cce1fef7cb" target="_top" xlink:title=" ">
<polygon fill="white" stroke="#666666" points="418.62,-208 227.88,-208 227.88,-176 418.62,-176 418.62,-208"/>
<text xml:space="preserve" text-anchor="start" x="235.88" y="-194.5" font-family="Helvetica,sans-Serif" font-size="10.00">editeurpanovisu.Gestionnaire</text>
<text xml:space="preserve" text-anchor="middle" x="323.25" y="-182.5" font-family="Helvetica,sans-Serif" font-size="10.00">InterfaceController.getiCalqueVisiteAuto</text>
</a>
</g>
</g>
<!-- Node1&#45;&gt;Node14 -->
<g id="edge13_Node000001_Node000014" class="edge">
<title>Node1&#45;&gt;Node14</title>
<g id="a_edge13_Node000001_Node000014"><a xlink:title=" ">
<path fill="none" stroke="#63b8ff" d="M103.72,-369.57C121.64,-331.93 162.96,-256.34 221.5,-217 223.32,-215.77 225.2,-214.61 227.12,-213.5"/>
<polygon fill="#63b8ff" stroke="#63b8ff" points="228.41,-216.77 235.73,-209.11 225.23,-210.54 228.41,-216.77"/>
</a>
</g>
</g>
<!-- Node15 -->
<g id="Node000015" class="node">
<title>Node15</title>
<g id="a_Node000015"><a xlink:href="classediteurpanovisu_1_1GestionnaireInterfaceController.html#a81fc8be3be405d5f63ce263dec29d665" target="_top" xlink:title=" ">
<polygon fill="white" stroke="#666666" points="406.62,-158 239.88,-158 239.88,-126 406.62,-126 406.62,-158"/>
<text xml:space="preserve" text-anchor="start" x="247.88" y="-144.5" font-family="Helvetica,sans-Serif" font-size="10.00">editeurpanovisu.Gestionnaire</text>
<text xml:space="preserve" text-anchor="middle" x="323.25" y="-132.5" font-family="Helvetica,sans-Serif" font-size="10.00">InterfaceController.getImagesFond</text>
</a>
</g>
</g>
<!-- Node1&#45;&gt;Node15 -->
<g id="edge14_Node000001_Node000015" class="edge">
<title>Node1&#45;&gt;Node15</title>
<g id="a_edge14_Node000001_Node000015"><a xlink:title=" ">
<path fill="none" stroke="#63b8ff" d="M99.85,-369.83C113.54,-324.36 151.17,-220.33 221.5,-167 224.09,-165.03 226.82,-163.22 229.65,-161.55"/>
<polygon fill="#63b8ff" stroke="#63b8ff" points="231,-164.79 238.28,-157.09 227.79,-158.57 231,-164.79"/>
</a>
</g>
</g>
<!-- Node16 -->
<g id="Node000016" class="node">
<title>Node16</title>
<g id="a_Node000016"><a xlink:href="classediteurpanovisu_1_1GestionnaireInterfaceController.html#a7b2d1d574b7036451a7d0189bf3af83d" target="_top" xlink:title=" ">
<polygon fill="white" stroke="#666666" points="425,-108 221.5,-108 221.5,-76 425,-76 425,-108"/>
<text xml:space="preserve" text-anchor="start" x="229.5" y="-94.5" font-family="Helvetica,sans-Serif" font-size="10.00">editeurpanovisu.Gestionnaire</text>
<text xml:space="preserve" text-anchor="middle" x="323.25" y="-82.5" font-family="Helvetica,sans-Serif" font-size="10.00">InterfaceController.getiNombreImagesFond</text>
</a>
</g>
</g>
<!-- Node1&#45;&gt;Node16 -->
<g id="edge15_Node000001_Node000016" class="edge">
<title>Node1&#45;&gt;Node16</title>
<g id="a_edge15_Node000001_Node000016"><a xlink:title=" ">
<path fill="none" stroke="#63b8ff" d="M97.38,-369.87C107.19,-317.42 139.25,-184.82 221.5,-117 222.63,-116.06 223.8,-115.16 224.99,-114.3"/>
<polygon fill="#63b8ff" stroke="#63b8ff" points="226.7,-117.35 233.31,-109.07 222.98,-111.42 226.7,-117.35"/>
</a>
</g>
</g>
<!-- Node17 -->
<g id="Node000017" class="node">
<title>Node17</title>
<g id="a_Node000017"><a xlink:href="leaflet_8js.html#a73aff07b65d7c0b09ccf6b4c4f1b7a9d" target="_top" xlink:title=" ">
<polygon fill="white" stroke="#666666" points="337.65,-58 308.85,-58 308.85,-38 337.65,-38 337.65,-58"/>
<text xml:space="preserve" text-anchor="middle" x="323.25" y="-44.5" font-family="Helvetica,sans-Serif" font-size="10.00">i</text>
</a>
</g>
</g>
<!-- Node1&#45;&gt;Node17 -->
<g id="edge16_Node000001_Node000017" class="edge">
<title>Node1&#45;&gt;Node17</title>
<g id="a_edge16_Node000001_Node000017"><a xlink:title=" ">
<path fill="none" stroke="#63b8ff" d="M95.37,-369.63C100.96,-310.12 124.82,-147.01 221.5,-67 242.67,-49.48 274.96,-46.18 297.25,-46.32"/>
<polygon fill="#63b8ff" stroke="#63b8ff" points="296.85,-49.81 306.95,-46.64 297.07,-42.82 296.85,-49.81"/>
</a>
</g>
</g>
<!-- Node18 -->
<g id="Node000018" class="node">
<title>Node18</title>
<g id="a_Node000018"><a xlink:href="leaflet_8js.html#a2ab7046ae25351b998b61260f82cabe8" target="_top" xlink:title=" ">
<polygon fill="white" stroke="#666666" points="337.65,-20 308.85,-20 308.85,0 337.65,0 337.65,-20"/>
<text xml:space="preserve" text-anchor="middle" x="323.25" y="-6.5" font-family="Helvetica,sans-Serif" font-size="10.00">ii</text>
</a>
</g>
</g>
<!-- Node1&#45;&gt;Node18 -->
<g id="edge17_Node000001_Node000018" class="edge">
<title>Node1&#45;&gt;Node18</title>
<g id="a_edge17_Node000001_Node000018"><a xlink:title=" ">
<path fill="none" stroke="#63b8ff" d="M94.33,-369.9C97.28,-306.11 115.05,-120.39 221.5,-29 242.35,-11.1 274.7,-7.88 297.09,-8.14"/>
<polygon fill="#63b8ff" stroke="#63b8ff" points="296.73,-11.63 306.86,-8.52 297,-4.64 296.73,-11.63"/>
</a>
</g>
</g>
</g>
</svg>

<g id="navigator" transform="translate(0 0)" fill="#404254">
  <rect fill="#f2f5e9" fill-opacity="0.5" stroke="#606060" stroke-width=".5" x="0" y="0" width="60" height="60"/>
  <use id="zoomplus" xlink:href="#zoomPlus" x="17" y="9" onmousedown="handleZoom(evt,'in')"/>
  <use id="zoomminus" xlink:href="#zoomMin" x="42" y="9" onmousedown="handleZoom(evt,'out')"/>
  <use id="reset" xlink:href="#resetDef" x="30" y="36" onmousedown="handleReset()"/>
   <use id="arrowup" xlink:href="#arrowUp" x="0" y="0" onmousedown="handlePan(0,-1)"/>
  <use id="arrowright" xlink:href="#arrowRight" x="0" y="0" onmousedown="handlePan(1,0)"/>
  <use id="arrowdown" xlink:href="#arrowDown" x="0" y="0" onmousedown="handlePan(0,1)"/>
  <use id="arrowleft" xlink:href="#arrowLeft" x="0" y="0" onmousedown="handlePan(-1,0)"/>
</g>
<svg viewBox="0 0 15 15" width="100%" height="30px" preserveAspectRatio="xMaxYMin meet">
 <g id="arrow_out" transform="scale(0.3 0.3)">
  <a xlink:href="classediteurpanovisu_1_1GestionnaireInterfaceController_a6841b5ee320549f9685bf881b97271f6_cgraph_org.svg" target="_base">
   <rect id="button" ry="5" rx="5" y="6" x="6" height="38" width="38"
        fill="#f2f5e9" fill-opacity="0.5" stroke="#606060" stroke-width="1.0"/>
   <path id="arrow"
     d="M 11.500037,31.436501 C 11.940474,20.09759 22.043105,11.32322 32.158766,21.979434 L 37.068811,17.246167 C 37.068811,17.246167 37.088388,32 37.088388,32 L 22.160133,31.978069 C 22.160133,31.978069 26.997745,27.140456 26.997745,27.140456 C 18.528582,18.264221 13.291696,25.230495 11.500037,31.436501 z"
     style="fill:#404040;"/>
  </a>
 </g>
</svg>

<style type='text/css'>
<![CDATA[
[data-mouse-over-selected='false'] { opacity: 0.7; }
[data-mouse-over-selected='true']  { opacity: 1.0; }
]]>
</style>
<script type="application/ecmascript"><![CDATA[
document.addEventListener('DOMContentLoaded', (event) => {
  highlightEdges();
  highlightAdjacentNodes();
});
]]></script>
</svg>
