<?xml version="1.0" encoding="UTF-8" standalone="no"?>
<!DOCTYPE svg PUBLIC "-//W3C//DTD SVG 1.1//EN"
 "http://www.w3.org/Graphics/SVG/1.1/DTD/svg11.dtd">
<!-- Generated by graphviz version 13.1.2 (20250808.2320)
 -->
<!-- Title: editeurpanovisu.DocumentationDialog.afficher Pages: 1 -->
<!--zoomable 134 -->

<svg id="main" version="1.1" xmlns="http://www.w3.org/2000/svg" xmlns:xlink="http://www.w3.org/1999/xlink" xml:space="preserve" onload="init(evt)">

<style type="text/css"><![CDATA[
.node, .edge {opacity: 0.7;}
.node.selected, .edge.selected {opacity: 1;}
.edge:hover path { stroke: red; }
.edge:hover polygon { stroke: red; fill: red; }
]]></style>

<defs>
  <circle id="rim" cx="0" cy="0" r="7"/>
  <circle id="rim2" cx="0" cy="0" r="3.5"/>
  <g id="zoomPlus">
    <use xlink:href="#rim" fill="#404040"><set attributeName="fill" to="#808080" begin="zoomplus.mouseover" end="zoomplus.mouseout"/></use>
    <path d="M-4,0h8M0,-4v8" fill="none" stroke="white" stroke-width="1.5" pointer-events="none"/>
  </g>
  <g id="zoomMin">
    <use xlink:href="#rim" fill="#404040"><set attributeName="fill" to="#808080" begin="zoomminus.mouseover" end="zoomminus.mouseout"/></use>
    <path d="M-4,0h8" fill="none" stroke="white" stroke-width="1.5" pointer-events="none"/>
  </g>
  <g id="arrowUp" transform="translate(30 24)">
    <use xlink:href="#rim"/>
    <path pointer-events="none" fill="none" stroke="white" stroke-width="1.5" d="M0,-3.0v7 M-2.5,-0.5L0,-3.0L2.5,-0.5"/>
  </g>
  <g id="arrowRight" transform="rotate(90) translate(36 -43)">
    <use xlink:href="#rim"/>
    <path pointer-events="none" fill="none" stroke="white" stroke-width="1.5" d="M0,-3.0v7 M-2.5,-0.5L0,-3.0L2.5,-0.5"/>
  </g>
  <g id="arrowDown" transform="rotate(180) translate(-30 -48)">
    <use xlink:href="#rim"/>
    <path pointer-events="none" fill="none" stroke="white" stroke-width="1.5" d="M0,-3.0v7 M-2.5,-0.5L0,-3.0L2.5,-0.5"/>
  </g>
  <g id="arrowLeft" transform="rotate(270) translate(-36 17)">
    <use xlink:href="#rim"/>
    <path pointer-events="none" fill="none" stroke="white" stroke-width="1.5" d="M0,-3.0v7 M-2.5,-0.5L0,-3.0L2.5,-0.5"/>
  </g>
  <g id="resetDef">
    <use xlink:href="#rim2" fill="#404040"><set attributeName="fill" to="#808080" begin="reset.mouseover" end="reset.mouseout"/></use>
  </g>
</defs>
<script type="application/ecmascript">
var viewWidth = 950;
var viewHeight = 134;
var sectionId = 'dynsection-6';
</script>
<script type="application/ecmascript" xlink:href="svg.min.js"/>
<svg id="graph" class="graph">
<g id="viewport">
<title>editeurpanovisu.DocumentationDialog.afficher</title>
<!-- Node1 -->
<g id="Node000001" class="node">
<title>Node1</title>
<g id="a_Node000001"><a xlink:title="Méthode statique pour afficher un document spécifique.">
<polygon fill="#999999" stroke="#666666" points="153.25,-104 0,-104 0,-72 153.25,-72 153.25,-104"/>
<text xml:space="preserve" text-anchor="start" x="8" y="-90.5" font-family="Helvetica,sans-Serif" font-size="10.00">editeurpanovisu.Documentation</text>
<text xml:space="preserve" text-anchor="middle" x="76.62" y="-78.5" font-family="Helvetica,sans-Serif" font-size="10.00">Dialog.afficher</text>
</a>
</g>
</g>
<!-- Node2 -->
<g id="Node000002" class="node">
<title>Node2</title>
<g id="a_Node000002"><a xlink:href="classediteurpanovisu_1_1DocumentationDialog.html#a27fb5370868a2c048a5135e642d3b997" target="_top" xlink:title="Charge un document Markdown.">
<polygon fill="white" stroke="#666666" points="742.75,-126 589.5,-126 589.5,-94 742.75,-94 742.75,-126"/>
<text xml:space="preserve" text-anchor="start" x="597.5" y="-112.5" font-family="Helvetica,sans-Serif" font-size="10.00">editeurpanovisu.Documentation</text>
<text xml:space="preserve" text-anchor="middle" x="666.12" y="-100.5" font-family="Helvetica,sans-Serif" font-size="10.00">Dialog.chargerDocument</text>
</a>
</g>
</g>
<!-- Node1&#45;&gt;Node2 -->
<g id="edge1_Node000001_Node000002" class="edge">
<title>Node1&#45;&gt;Node2</title>
<g id="a_edge1_Node000001_Node000002"><a xlink:title=" ">
<path fill="none" stroke="#63b8ff" d="M153.53,-90.84C262.65,-94.93 463.34,-102.44 578.25,-106.75"/>
<polygon fill="#63b8ff" stroke="#63b8ff" points="577.8,-110.23 587.92,-107.11 578.06,-103.24 577.8,-110.23"/>
</a>
</g>
</g>
<!-- Node5 -->
<g id="Node000005" class="node">
<title>Node5</title>
<g id="a_Node000005"><a xlink:href="classediteurpanovisu_1_1DocumentationDialog.html#aa0f8323beb35114ad3307da310a5c2c1" target="_top" xlink:title="Constructeur.">
<polygon fill="white" stroke="#666666" points="342.5,-82 189.25,-82 189.25,-50 342.5,-50 342.5,-82"/>
<text xml:space="preserve" text-anchor="start" x="197.25" y="-68.5" font-family="Helvetica,sans-Serif" font-size="10.00">editeurpanovisu.Documentation</text>
<text xml:space="preserve" text-anchor="middle" x="265.88" y="-56.5" font-family="Helvetica,sans-Serif" font-size="10.00">Dialog.DocumentationDialog</text>
</a>
</g>
</g>
<!-- Node1&#45;&gt;Node5 -->
<g id="edge4_Node000001_Node000005" class="edge">
<title>Node1&#45;&gt;Node5</title>
<g id="a_edge4_Node000001_Node000005"><a xlink:title=" ">
<path fill="none" stroke="#63b8ff" d="M153.52,-79.08C161.44,-78.15 169.54,-77.2 177.58,-76.26"/>
<polygon fill="#63b8ff" stroke="#63b8ff" points="177.85,-79.75 187.37,-75.11 177.03,-72.8 177.85,-79.75"/>
</a>
</g>
</g>
<!-- Node3 -->
<g id="Node000003" class="node">
<title>Node3</title>
<g id="a_Node000003"><a xlink:href="classediteurpanovisu_1_1DocumentationDialog.html#af05cb292b0268f3867b7e5d84f016a27" target="_top" xlink:title="Affiche un message d&#39;erreur dans la WebView.">
<polygon fill="white" stroke="#666666" points="936.88,-54 783.62,-54 783.62,-22 936.88,-22 936.88,-54"/>
<text xml:space="preserve" text-anchor="start" x="791.62" y="-40.5" font-family="Helvetica,sans-Serif" font-size="10.00">editeurpanovisu.Documentation</text>
<text xml:space="preserve" text-anchor="middle" x="860.25" y="-28.5" font-family="Helvetica,sans-Serif" font-size="10.00">Dialog.afficherErreur</text>
</a>
</g>
</g>
<!-- Node2&#45;&gt;Node3 -->
<g id="edge2_Node000002_Node000003" class="edge">
<title>Node2&#45;&gt;Node3</title>
<g id="a_edge2_Node000002_Node000003"><a xlink:title=" ">
<path fill="none" stroke="#63b8ff" d="M718.13,-93.64C726.39,-90.84 734.83,-87.9 742.75,-85 764.98,-76.85 789.31,-67.16 809.96,-58.7"/>
<polygon fill="#63b8ff" stroke="#63b8ff" points="811.08,-62.02 818.99,-54.98 808.41,-55.55 811.08,-62.02"/>
</a>
</g>
</g>
<!-- Node4 -->
<g id="Node000004" class="node">
<title>Node4</title>
<g id="a_Node000004"><a xlink:href="enumediteurpanovisu_1_1DocumentationDialog_1_1DocumentType.html#a073cf6874d89ef94b06a4d69f303c7f0" target="_top" xlink:title=" ">
<polygon fill="white" stroke="#666666" points="941.75,-126 778.75,-126 778.75,-94 941.75,-94 941.75,-126"/>
<text xml:space="preserve" text-anchor="start" x="786.75" y="-112.5" font-family="Helvetica,sans-Serif" font-size="10.00">editeurpanovisu.Documentation</text>
<text xml:space="preserve" text-anchor="middle" x="860.25" y="-100.5" font-family="Helvetica,sans-Serif" font-size="10.00">Dialog.DocumentType.getChemin</text>
</a>
</g>
</g>
<!-- Node2&#45;&gt;Node4 -->
<g id="edge3_Node000002_Node000004" class="edge">
<title>Node2&#45;&gt;Node4</title>
<g id="a_edge3_Node000002_Node000004"><a xlink:title=" ">
<path fill="none" stroke="#63b8ff" d="M743.06,-110C750.97,-110 759.08,-110 767.14,-110"/>
<polygon fill="#63b8ff" stroke="#63b8ff" points="766.98,-113.5 776.98,-110 766.98,-106.5 766.98,-113.5"/>
</a>
</g>
</g>
<!-- Node6 -->
<g id="Node000006" class="node">
<title>Node6</title>
<g id="a_Node000006"><a xlink:href="classediteurpanovisu_1_1DocumentationDialog.html#a63eba557cc6f0e6e9a203792a785b215" target="_top" xlink:title="Charge le document sélectionné dans le ComboBox.">
<polygon fill="white" stroke="#666666" points="553.5,-82 378.5,-82 378.5,-50 553.5,-50 553.5,-82"/>
<text xml:space="preserve" text-anchor="start" x="386.5" y="-68.5" font-family="Helvetica,sans-Serif" font-size="10.00">editeurpanovisu.Documentation</text>
<text xml:space="preserve" text-anchor="middle" x="466" y="-56.5" font-family="Helvetica,sans-Serif" font-size="10.00">Dialog.chargerDocumentSelectionne</text>
</a>
</g>
</g>
<!-- Node5&#45;&gt;Node6 -->
<g id="edge5_Node000005_Node000006" class="edge">
<title>Node5&#45;&gt;Node6</title>
<g id="a_edge5_Node000005_Node000006"><a xlink:title=" ">
<path fill="none" stroke="#63b8ff" d="M342.91,-66C350.77,-66 358.84,-66 366.9,-66"/>
<polygon fill="#63b8ff" stroke="#63b8ff" points="366.75,-69.5 376.75,-66 366.75,-62.5 366.75,-69.5"/>
</a>
</g>
</g>
<!-- Node8 -->
<g id="Node000008" class="node">
<title>Node8</title>
<g id="a_Node000008"><a xlink:href="classediteurpanovisu_1_1DocumentationDialog.html#ac1870b3fbef3d6aa08f8ddbd316e157b" target="_top" xlink:title="Ouvre un dialogue pour sélectionner un fichier Markdown.">
<polygon fill="white" stroke="#666666" points="542.62,-32 389.38,-32 389.38,0 542.62,0 542.62,-32"/>
<text xml:space="preserve" text-anchor="start" x="397.38" y="-18.5" font-family="Helvetica,sans-Serif" font-size="10.00">editeurpanovisu.Documentation</text>
<text xml:space="preserve" text-anchor="middle" x="466" y="-6.5" font-family="Helvetica,sans-Serif" font-size="10.00">Dialog.ouvrirFichierMarkdown</text>
</a>
</g>
</g>
<!-- Node5&#45;&gt;Node8 -->
<g id="edge8_Node000005_Node000008" class="edge">
<title>Node5&#45;&gt;Node8</title>
<g id="a_edge8_Node000005_Node000008"><a xlink:title=" ">
<path fill="none" stroke="#63b8ff" d="M332.02,-49.56C350.13,-44.99 369.97,-39.98 388.66,-35.27"/>
<polygon fill="#63b8ff" stroke="#63b8ff" points="389.51,-38.66 398.35,-32.82 387.79,-31.87 389.51,-38.66"/>
</a>
</g>
</g>
<!-- Node6&#45;&gt;Node2 -->
<g id="edge6_Node000006_Node000002" class="edge">
<title>Node6&#45;&gt;Node2</title>
<g id="a_edge6_Node000006_Node000002"><a xlink:title=" ">
<path fill="none" stroke="#63b8ff" d="M541.06,-82.45C553.64,-85.24 566.79,-88.16 579.64,-91.02"/>
<polygon fill="#63b8ff" stroke="#63b8ff" points="578.83,-94.42 589.35,-93.17 580.35,-87.59 578.83,-94.42"/>
</a>
</g>
</g>
<!-- Node7 -->
<g id="Node000007" class="node">
<title>Node7</title>
<g id="a_Node000007"><a xlink:href="classediteurpanovisu_1_1DocumentationDialog_1_1DocumentItem.html#a0ed1c037fa26bcdca198e0d8cb88b8d7" target="_top" xlink:title=" ">
<polygon fill="white" stroke="#666666" points="742.75,-76 589.5,-76 589.5,-44 742.75,-44 742.75,-76"/>
<text xml:space="preserve" text-anchor="start" x="597.5" y="-62.5" font-family="Helvetica,sans-Serif" font-size="10.00">editeurpanovisu.Documentation</text>
<text xml:space="preserve" text-anchor="middle" x="666.12" y="-50.5" font-family="Helvetica,sans-Serif" font-size="10.00">Dialog.DocumentItem.getType</text>
</a>
</g>
</g>
<!-- Node6&#45;&gt;Node7 -->
<g id="edge7_Node000006_Node000007" class="edge">
<title>Node6&#45;&gt;Node7</title>
<g id="a_edge7_Node000006_Node000007"><a xlink:title=" ">
<path fill="none" stroke="#63b8ff" d="M553.9,-63.37C561.79,-63.13 569.79,-62.89 577.69,-62.65"/>
<polygon fill="#63b8ff" stroke="#63b8ff" points="577.77,-66.15 587.65,-62.35 577.55,-59.15 577.77,-66.15"/>
</a>
</g>
</g>
<!-- Node8&#45;&gt;Node3 -->
<g id="edge9_Node000008_Node000003" class="edge">
<title>Node8&#45;&gt;Node3</title>
<g id="a_edge9_Node000008_Node000003"><a xlink:title=" ">
<path fill="none" stroke="#63b8ff" d="M543.09,-20.27C608.73,-23.95 703.5,-29.26 772.15,-33.12"/>
<polygon fill="#63b8ff" stroke="#63b8ff" points="771.68,-36.59 781.86,-33.66 772.07,-29.6 771.68,-36.59"/>
</a>
</g>
</g>
</g>
</svg>

<g id="navigator" transform="translate(0 0)" fill="#404254">
  <rect fill="#f2f5e9" fill-opacity="0.5" stroke="#606060" stroke-width=".5" x="0" y="0" width="60" height="60"/>
  <use id="zoomplus" xlink:href="#zoomPlus" x="17" y="9" onmousedown="handleZoom(evt,'in')"/>
  <use id="zoomminus" xlink:href="#zoomMin" x="42" y="9" onmousedown="handleZoom(evt,'out')"/>
  <use id="reset" xlink:href="#resetDef" x="30" y="36" onmousedown="handleReset()"/>
   <use id="arrowup" xlink:href="#arrowUp" x="0" y="0" onmousedown="handlePan(0,-1)"/>
  <use id="arrowright" xlink:href="#arrowRight" x="0" y="0" onmousedown="handlePan(1,0)"/>
  <use id="arrowdown" xlink:href="#arrowDown" x="0" y="0" onmousedown="handlePan(0,1)"/>
  <use id="arrowleft" xlink:href="#arrowLeft" x="0" y="0" onmousedown="handlePan(-1,0)"/>
</g>
<svg viewBox="0 0 15 15" width="100%" height="30px" preserveAspectRatio="xMaxYMin meet">
 <g id="arrow_out" transform="scale(0.3 0.3)">
  <a xlink:href="classediteurpanovisu_1_1DocumentationDialog_a489c12395d83ec72f6550ba924b65a25_cgraph_org.svg" target="_base">
   <rect id="button" ry="5" rx="5" y="6" x="6" height="38" width="38"
        fill="#f2f5e9" fill-opacity="0.5" stroke="#606060" stroke-width="1.0"/>
   <path id="arrow"
     d="M 11.500037,31.436501 C 11.940474,20.09759 22.043105,11.32322 32.158766,21.979434 L 37.068811,17.246167 C 37.068811,17.246167 37.088388,32 37.088388,32 L 22.160133,31.978069 C 22.160133,31.978069 26.997745,27.140456 26.997745,27.140456 C 18.528582,18.264221 13.291696,25.230495 11.500037,31.436501 z"
     style="fill:#404040;"/>
  </a>
 </g>
</svg>

<style type='text/css'>
<![CDATA[
[data-mouse-over-selected='false'] { opacity: 0.7; }
[data-mouse-over-selected='true']  { opacity: 1.0; }
]]>
</style>
<script type="application/ecmascript"><![CDATA[
document.addEventListener('DOMContentLoaded', (event) => {
  highlightEdges();
  highlightAdjacentNodes();
});
]]></script>
</svg>
