<?xml version="1.0" encoding="UTF-8" standalone="no"?>
<!DOCTYPE svg PUBLIC "-//W3C//DTD SVG 1.1//EN"
 "http://www.w3.org/Graphics/SVG/1.1/DTD/svg11.dtd">
<!-- Generated by graphviz version 13.1.2 (20250808.2320)
 -->
<!-- Title: editeurpanovisu.util.SvgIconLoader.setBaseAppPath Pages: 1 -->
<!--zoomable 156 -->

<svg id="main" version="1.1" xmlns="http://www.w3.org/2000/svg" xmlns:xlink="http://www.w3.org/1999/xlink" xml:space="preserve" onload="init(evt)">

<style type="text/css"><![CDATA[
.node, .edge {opacity: 0.7;}
.node.selected, .edge.selected {opacity: 1;}
.edge:hover path { stroke: red; }
.edge:hover polygon { stroke: red; fill: red; }
]]></style>

<defs>
  <circle id="rim" cx="0" cy="0" r="7"/>
  <circle id="rim2" cx="0" cy="0" r="3.5"/>
  <g id="zoomPlus">
    <use xlink:href="#rim" fill="#404040"><set attributeName="fill" to="#808080" begin="zoomplus.mouseover" end="zoomplus.mouseout"/></use>
    <path d="M-4,0h8M0,-4v8" fill="none" stroke="white" stroke-width="1.5" pointer-events="none"/>
  </g>
  <g id="zoomMin">
    <use xlink:href="#rim" fill="#404040"><set attributeName="fill" to="#808080" begin="zoomminus.mouseover" end="zoomminus.mouseout"/></use>
    <path d="M-4,0h8" fill="none" stroke="white" stroke-width="1.5" pointer-events="none"/>
  </g>
  <g id="arrowUp" transform="translate(30 24)">
    <use xlink:href="#rim"/>
    <path pointer-events="none" fill="none" stroke="white" stroke-width="1.5" d="M0,-3.0v7 M-2.5,-0.5L0,-3.0L2.5,-0.5"/>
  </g>
  <g id="arrowRight" transform="rotate(90) translate(36 -43)">
    <use xlink:href="#rim"/>
    <path pointer-events="none" fill="none" stroke="white" stroke-width="1.5" d="M0,-3.0v7 M-2.5,-0.5L0,-3.0L2.5,-0.5"/>
  </g>
  <g id="arrowDown" transform="rotate(180) translate(-30 -48)">
    <use xlink:href="#rim"/>
    <path pointer-events="none" fill="none" stroke="white" stroke-width="1.5" d="M0,-3.0v7 M-2.5,-0.5L0,-3.0L2.5,-0.5"/>
  </g>
  <g id="arrowLeft" transform="rotate(270) translate(-36 17)">
    <use xlink:href="#rim"/>
    <path pointer-events="none" fill="none" stroke="white" stroke-width="1.5" d="M0,-3.0v7 M-2.5,-0.5L0,-3.0L2.5,-0.5"/>
  </g>
  <g id="resetDef">
    <use xlink:href="#rim2" fill="#404040"><set attributeName="fill" to="#808080" begin="reset.mouseover" end="reset.mouseout"/></use>
  </g>
</defs>
<script type="application/ecmascript">
var viewWidth = 1266;
var viewHeight = 156;
var sectionId = 'dynsection-13';
</script>
<script type="application/ecmascript" xlink:href="svg.min.js"/>
<svg id="graph" class="graph">
<g id="viewport">
<title>editeurpanovisu.util.SvgIconLoader.setBaseAppPath</title>
<!-- Node1 -->
<g id="Node000001" class="node">
<title>Node1</title>
<g id="a_Node000001"><a xlink:title="Définit le chemin de base de l&#39;application.">
<polygon fill="#999999" stroke="#666666" points="1257.75,-82 1117.25,-82 1117.25,-50 1257.75,-50 1257.75,-82"/>
<text xml:space="preserve" text-anchor="start" x="1125.25" y="-68.5" font-family="Helvetica,sans-Serif" font-size="10.00">editeurpanovisu.util.Svg</text>
<text xml:space="preserve" text-anchor="middle" x="1187.5" y="-56.5" font-family="Helvetica,sans-Serif" font-size="10.00">IconLoader.setBaseAppPath</text>
</a>
</g>
</g>
<!-- Node2 -->
<g id="Node000002" class="node">
<title>Node2</title>
<g id="a_Node000002"><a xlink:href="classediteurpanovisu_1_1EditeurPanovisu.html#a786c8cb886a5b0d7bef0bc311876a62e" target="_top" xlink:title="Charge une icône SVG avec la taille spécifiée.">
<polygon fill="white" stroke="#666666" points="1081.25,-132 901.75,-132 901.75,-100 1081.25,-100 1081.25,-132"/>
<text xml:space="preserve" text-anchor="start" x="909.75" y="-118.5" font-family="Helvetica,sans-Serif" font-size="10.00">editeurpanovisu.EditeurPanovisu.load</text>
<text xml:space="preserve" text-anchor="middle" x="991.5" y="-106.5" font-family="Helvetica,sans-Serif" font-size="10.00">SvgIcon</text>
</a>
</g>
</g>
<!-- Node1&#45;&gt;Node2 -->
<g id="edge1_Node000001_Node000002" class="edge">
<title>Node1&#45;&gt;Node2</title>
<g id="a_edge1_Node000001_Node000002"><a xlink:title=" ">
<path fill="none" stroke="#63b8ff" d="M1111.79,-85.26C1093.49,-89.97 1074.07,-94.98 1056.33,-99.55"/>
<polygon fill="#63b8ff" stroke="#63b8ff" points="1112.43,-88.7 1121.24,-82.82 1110.69,-81.93 1112.43,-88.7"/>
</a>
</g>
</g>
<!-- Node8 -->
<g id="Node000008" class="node">
<title>Node8</title>
<g id="a_Node000008"><a xlink:href="classediteurpanovisu_1_1EditeurPanovisu.html#a10e4a731076e3375369e0572372ae29b" target="_top" xlink:title="Charge une icône SVG avec couleur personnalisée.">
<polygon fill="white" stroke="#666666" points="1081.25,-82 901.75,-82 901.75,-50 1081.25,-50 1081.25,-82"/>
<text xml:space="preserve" text-anchor="start" x="909.75" y="-68.5" font-family="Helvetica,sans-Serif" font-size="10.00">editeurpanovisu.EditeurPanovisu.load</text>
<text xml:space="preserve" text-anchor="middle" x="991.5" y="-56.5" font-family="Helvetica,sans-Serif" font-size="10.00">SvgIcon</text>
</a>
</g>
</g>
<!-- Node1&#45;&gt;Node8 -->
<g id="edge8_Node000001_Node000008" class="edge">
<title>Node1&#45;&gt;Node8</title>
<g id="a_edge8_Node000001_Node000008"><a xlink:title=" ">
<path fill="none" stroke="#63b8ff" d="M1105.51,-66C1097.57,-66 1089.48,-66 1081.47,-66"/>
<polygon fill="#63b8ff" stroke="#63b8ff" points="1105.5,-69.5 1115.5,-66 1105.5,-62.5 1105.5,-69.5"/>
</a>
</g>
</g>
<!-- Node9 -->
<g id="Node000009" class="node">
<title>Node9</title>
<g id="a_Node000009"><a xlink:href="classediteurpanovisu_1_1EditeurPanovisu.html#a1e06faaf545b6d7ac786a250dc638406" target="_top" xlink:title="Charge une icône SVG avec dimensions rectangulaires.">
<polygon fill="white" stroke="#666666" points="1081.25,-32 901.75,-32 901.75,0 1081.25,0 1081.25,-32"/>
<text xml:space="preserve" text-anchor="start" x="909.75" y="-18.5" font-family="Helvetica,sans-Serif" font-size="10.00">editeurpanovisu.EditeurPanovisu.load</text>
<text xml:space="preserve" text-anchor="middle" x="991.5" y="-6.5" font-family="Helvetica,sans-Serif" font-size="10.00">SvgIcon</text>
</a>
</g>
</g>
<!-- Node1&#45;&gt;Node9 -->
<g id="edge9_Node000001_Node000009" class="edge">
<title>Node1&#45;&gt;Node9</title>
<g id="a_edge9_Node000001_Node000009"><a xlink:title=" ">
<path fill="none" stroke="#63b8ff" d="M1111.79,-46.74C1093.49,-42.03 1074.07,-37.02 1056.33,-32.45"/>
<polygon fill="#63b8ff" stroke="#63b8ff" points="1110.69,-50.07 1121.24,-49.18 1112.43,-43.3 1110.69,-50.07"/>
</a>
</g>
</g>
<!-- Node3 -->
<g id="Node000003" class="node">
<title>Node3</title>
<g id="a_Node000003"><a xlink:href="classediteurpanovisu_1_1EditeurPanovisu.html#ac912b80c1f2ac97def60ff005c5c480b" target="_top" xlink:title=" ">
<polygon fill="white" stroke="#666666" points="627.75,-148 423.5,-148 423.5,-128 627.75,-128 627.75,-148"/>
<text xml:space="preserve" text-anchor="middle" x="525.62" y="-134.5" font-family="Helvetica,sans-Serif" font-size="10.00">editeurpanovisu.EditeurPanovisu.creeMenu</text>
</a>
</g>
</g>
<!-- Node2&#45;&gt;Node3 -->
<g id="edge2_Node000002_Node000003" class="edge">
<title>Node2&#45;&gt;Node3</title>
<g id="a_edge2_Node000002_Node000003"><a xlink:title=" ">
<path fill="none" stroke="#63b8ff" d="M890.12,-120.76C812.6,-124.44 705.78,-129.5 628.01,-133.19"/>
<polygon fill="#63b8ff" stroke="#63b8ff" points="890,-124.27 899.82,-120.3 889.67,-117.28 890,-124.27"/>
</a>
</g>
</g>
<!-- Node5 -->
<g id="Node000005" class="node">
<title>Node5</title>
<g id="a_Node000005"><a xlink:href="classediteurpanovisu_1_1EditeurPanovisu.html#a43450ddf111546a6b22ad25c6ee0121e" target="_top" xlink:title="Recharge toutes les icônes SVG de la barre d&#39;outils Appelé lors du changement de thème pour mettre à ...">
<polygon fill="white" stroke="#666666" points="865.75,-110 663.75,-110 663.75,-78 865.75,-78 865.75,-110"/>
<text xml:space="preserve" text-anchor="start" x="671.75" y="-96.5" font-family="Helvetica,sans-Serif" font-size="10.00">editeurpanovisu.EditeurPanovisu.recharger</text>
<text xml:space="preserve" text-anchor="middle" x="764.75" y="-84.5" font-family="Helvetica,sans-Serif" font-size="10.00">Icones</text>
</a>
</g>
</g>
<!-- Node2&#45;&gt;Node5 -->
<g id="edge4_Node000002_Node000005" class="edge">
<title>Node2&#45;&gt;Node5</title>
<g id="a_edge4_Node000002_Node000005"><a xlink:title=" ">
<path fill="none" stroke="#63b8ff" d="M890.07,-106.17C882.04,-105.38 873.93,-104.59 865.91,-103.8"/>
<polygon fill="#63b8ff" stroke="#63b8ff" points="889.55,-109.64 899.84,-107.13 890.23,-102.67 889.55,-109.64"/>
</a>
</g>
</g>
<!-- Node4 -->
<g id="Node000004" class="node">
<title>Node4</title>
<g id="a_Node000004"><a xlink:href="classediteurpanovisu_1_1EditeurPanovisu.html#a86c393eee88f54c694db994ddd85b90d" target="_top" xlink:title=" ">
<polygon fill="white" stroke="#666666" points="180.25,-132 0,-132 0,-100 180.25,-100 180.25,-132"/>
<text xml:space="preserve" text-anchor="start" x="8" y="-118.5" font-family="Helvetica,sans-Serif" font-size="10.00">editeurpanovisu.EditeurPanovisu.cree</text>
<text xml:space="preserve" text-anchor="middle" x="90.12" y="-106.5" font-family="Helvetica,sans-Serif" font-size="10.00">Environnement</text>
</a>
</g>
</g>
<!-- Node3&#45;&gt;Node4 -->
<g id="edge3_Node000003_Node000004" class="edge">
<title>Node3&#45;&gt;Node4</title>
<g id="a_edge3_Node000003_Node000004"><a xlink:title=" ">
<path fill="none" stroke="#63b8ff" d="M411.87,-132.28C339.76,-128.62 247.52,-123.94 180.48,-120.53"/>
<polygon fill="#63b8ff" stroke="#63b8ff" points="411.59,-135.77 421.75,-132.78 411.94,-128.78 411.59,-135.77"/>
</a>
</g>
</g>
<!-- Node6 -->
<g id="Node000006" class="node">
<title>Node6</title>
<g id="a_Node000006"><a xlink:href="classediteurpanovisu_1_1EditeurPanovisu.html#ac7f9fc08f7517cc58ad3ee2ffc463c41" target="_top" xlink:title=" ">
<polygon fill="white" stroke="#666666" points="613.12,-110 438.12,-110 438.12,-78 613.12,-78 613.12,-110"/>
<text xml:space="preserve" text-anchor="start" x="446.12" y="-96.5" font-family="Helvetica,sans-Serif" font-size="10.00">editeurpanovisu.EditeurPanovisu.set</text>
<text xml:space="preserve" text-anchor="middle" x="525.62" y="-84.5" font-family="Helvetica,sans-Serif" font-size="10.00">StrStyleCSS</text>
</a>
</g>
</g>
<!-- Node5&#45;&gt;Node6 -->
<g id="edge5_Node000005_Node000006" class="edge">
<title>Node5&#45;&gt;Node6</title>
<g id="a_edge5_Node000005_Node000006"><a xlink:title=" ">
<path fill="none" stroke="#63b8ff" d="M652.13,-94C639.11,-94 625.97,-94 613.35,-94"/>
<polygon fill="#63b8ff" stroke="#63b8ff" points="652.02,-97.5 662.02,-94 652.02,-90.5 652.02,-97.5"/>
</a>
</g>
</g>
<!-- Node7 -->
<g id="Node000007" class="node">
<title>Node7</title>
<g id="a_Node000007"><a xlink:href="classediteurpanovisu_1_1EditeurPanovisu.html#adf3136c7d8546e073ebf626494bd9b58" target="_top" xlink:title=" ">
<polygon fill="white" stroke="#666666" points="387.5,-110 216.25,-110 216.25,-78 387.5,-78 387.5,-110"/>
<text xml:space="preserve" text-anchor="start" x="224.25" y="-96.5" font-family="Helvetica,sans-Serif" font-size="10.00">editeurpanovisu.EditeurPanovisu.lis</text>
<text xml:space="preserve" text-anchor="middle" x="301.88" y="-84.5" font-family="Helvetica,sans-Serif" font-size="10.00">FichierConfig</text>
</a>
</g>
</g>
<!-- Node6&#45;&gt;Node7 -->
<g id="edge6_Node000006_Node000007" class="edge">
<title>Node6&#45;&gt;Node7</title>
<g id="a_edge6_Node000006_Node000007"><a xlink:title=" ">
<path fill="none" stroke="#63b8ff" d="M426.61,-94C413.63,-94 400.41,-94 387.68,-94"/>
<polygon fill="#63b8ff" stroke="#63b8ff" points="426.42,-97.5 436.42,-94 426.42,-90.5 426.42,-97.5"/>
</a>
</g>
</g>
<!-- Node7&#45;&gt;Node4 -->
<g id="edge7_Node000007_Node000004" class="edge">
<title>Node7&#45;&gt;Node4</title>
<g id="a_edge7_Node000007_Node000004"><a xlink:title=" ">
<path fill="none" stroke="#63b8ff" d="M204.65,-104.09C196.67,-104.93 188.63,-105.77 180.7,-106.6"/>
<polygon fill="#63b8ff" stroke="#63b8ff" points="204.78,-107.6 214.36,-103.07 204.05,-100.64 204.78,-107.6"/>
</a>
</g>
</g>
</g>
</svg>

<g id="navigator" transform="translate(0 0)" fill="#404254">
  <rect fill="#f2f5e9" fill-opacity="0.5" stroke="#606060" stroke-width=".5" x="0" y="0" width="60" height="60"/>
  <use id="zoomplus" xlink:href="#zoomPlus" x="17" y="9" onmousedown="handleZoom(evt,'in')"/>
  <use id="zoomminus" xlink:href="#zoomMin" x="42" y="9" onmousedown="handleZoom(evt,'out')"/>
  <use id="reset" xlink:href="#resetDef" x="30" y="36" onmousedown="handleReset()"/>
   <use id="arrowup" xlink:href="#arrowUp" x="0" y="0" onmousedown="handlePan(0,-1)"/>
  <use id="arrowright" xlink:href="#arrowRight" x="0" y="0" onmousedown="handlePan(1,0)"/>
  <use id="arrowdown" xlink:href="#arrowDown" x="0" y="0" onmousedown="handlePan(0,1)"/>
  <use id="arrowleft" xlink:href="#arrowLeft" x="0" y="0" onmousedown="handlePan(-1,0)"/>
</g>
<svg viewBox="0 0 15 15" width="100%" height="30px" preserveAspectRatio="xMaxYMin meet">
 <g id="arrow_out" transform="scale(0.3 0.3)">
  <a xlink:href="classediteurpanovisu_1_1util_1_1SvgIconLoader_a10cd814eb1151190717a3b14b61172be_icgraph_org.svg" target="_base">
   <rect id="button" ry="5" rx="5" y="6" x="6" height="38" width="38"
        fill="#f2f5e9" fill-opacity="0.5" stroke="#606060" stroke-width="1.0"/>
   <path id="arrow"
     d="M 11.500037,31.436501 C 11.940474,20.09759 22.043105,11.32322 32.158766,21.979434 L 37.068811,17.246167 C 37.068811,17.246167 37.088388,32 37.088388,32 L 22.160133,31.978069 C 22.160133,31.978069 26.997745,27.140456 26.997745,27.140456 C 18.528582,18.264221 13.291696,25.230495 11.500037,31.436501 z"
     style="fill:#404040;"/>
  </a>
 </g>
</svg>

<style type='text/css'>
<![CDATA[
[data-mouse-over-selected='false'] { opacity: 0.7; }
[data-mouse-over-selected='true']  { opacity: 1.0; }
]]>
</style>
<script type="application/ecmascript"><![CDATA[
document.addEventListener('DOMContentLoaded', (event) => {
  highlightEdges();
  highlightAdjacentNodes();
});
]]></script>
</svg>
