<?xml version="1.0" encoding="UTF-8" standalone="no"?>
<!DOCTYPE svg PUBLIC "-//W3C//DTD SVG 1.1//EN"
 "http://www.w3.org/Graphics/SVG/1.1/DTD/svg11.dtd">
<!-- Generated by graphviz version 13.1.2 (20250808.2320)
 -->
<!-- Title: editeurpanovisu.GestionnaireInterfaceController.afficheBoussole Pages: 1 -->
<svg width="399pt" height="426pt"
 viewBox="0.00 0.00 399.00 426.00" xmlns="http://www.w3.org/2000/svg" xmlns:xlink="http://www.w3.org/1999/xlink">

<svg id="main" version="1.1" xmlns="http://www.w3.org/2000/svg" xmlns:xlink="http://www.w3.org/1999/xlink" xml:space="preserve">

<style type="text/css"><![CDATA[
.node, .edge {opacity: 0.7;}
.node.selected, .edge.selected {opacity: 1;}
.edge:hover path { stroke: red; }
.edge:hover polygon { stroke: red; fill: red; }
]]></style>
<script type="application/ecmascript" xlink:href="svg.min.js"/>
<svg id="graph" class="graph">
<g id="graph0" class="graph" transform="scale(1 1) rotate(0) translate(4 422)">
<title>editeurpanovisu.GestionnaireInterfaceController.afficheBoussole</title>
<!-- Node1 -->
<g id="Node000001" class="node">
<title>Node1</title>
<g id="a_Node000001"><a xlink:title=" ">
<polygon fill="#999999" stroke="#666666" points="168.25,-231 0,-231 0,-199 168.25,-199 168.25,-231"/>
<text xml:space="preserve" text-anchor="start" x="8" y="-217.5" font-family="Helvetica,sans-Serif" font-size="10.00">editeurpanovisu.Gestionnaire</text>
<text xml:space="preserve" text-anchor="middle" x="84.12" y="-205.5" font-family="Helvetica,sans-Serif" font-size="10.00">InterfaceController.afficheBoussole</text>
</a>
</g>
</g>
<!-- Node2 -->
<g id="Node000002" class="node">
<title>Node2</title>
<g id="a_Node000002"><a xlink:href="classediteurpanovisu_1_1GestionnaireInterfaceController.html#a4b91452936c46c593b35d261360382b0" target="_top" xlink:title=" ">
<polygon fill="white" stroke="#666666" points="390.88,-418 204.62,-418 204.62,-386 390.88,-386 390.88,-418"/>
<text xml:space="preserve" text-anchor="start" x="212.62" y="-404.5" font-family="Helvetica,sans-Serif" font-size="10.00">editeurpanovisu.Gestionnaire</text>
<text xml:space="preserve" text-anchor="middle" x="297.75" y="-392.5" font-family="Helvetica,sans-Serif" font-size="10.00">InterfaceController.getOffsetXBoussole</text>
</a>
</g>
</g>
<!-- Node1&#45;&gt;Node2 -->
<g id="edge1_Node000001_Node000002" class="edge">
<title>Node1&#45;&gt;Node2</title>
<g id="a_edge1_Node000001_Node000002"><a xlink:title=" ">
<path fill="none" stroke="#63b8ff" d="M92.5,-231.41C108.16,-264.3 147.93,-338.44 204.25,-377 206.05,-378.23 207.91,-379.41 209.82,-380.52"/>
<polygon fill="#63b8ff" stroke="#63b8ff" points="207.87,-383.45 218.36,-384.93 211.08,-377.23 207.87,-383.45"/>
</a>
</g>
</g>
<!-- Node3 -->
<g id="Node000003" class="node">
<title>Node3</title>
<g id="a_Node000003"><a xlink:href="classediteurpanovisu_1_1GestionnaireInterfaceController.html#acea8ea135cd5407267fc558353d2e88a" target="_top" xlink:title=" ">
<polygon fill="white" stroke="#666666" points="390.88,-368 204.62,-368 204.62,-336 390.88,-336 390.88,-368"/>
<text xml:space="preserve" text-anchor="start" x="212.62" y="-354.5" font-family="Helvetica,sans-Serif" font-size="10.00">editeurpanovisu.Gestionnaire</text>
<text xml:space="preserve" text-anchor="middle" x="297.75" y="-342.5" font-family="Helvetica,sans-Serif" font-size="10.00">InterfaceController.getOffsetYBoussole</text>
</a>
</g>
</g>
<!-- Node1&#45;&gt;Node3 -->
<g id="edge2_Node000001_Node000003" class="edge">
<title>Node1&#45;&gt;Node3</title>
<g id="a_edge2_Node000001_Node000003"><a xlink:title=" ">
<path fill="none" stroke="#63b8ff" d="M97.92,-231.35C117.96,-255.83 159.14,-301.81 204.25,-327 206.88,-328.47 209.61,-329.86 212.39,-331.17"/>
<polygon fill="#63b8ff" stroke="#63b8ff" points="210.76,-334.28 221.33,-334.98 213.51,-327.84 210.76,-334.28"/>
</a>
</g>
</g>
<!-- Node4 -->
<g id="Node000004" class="node">
<title>Node4</title>
<g id="a_Node000004"><a xlink:href="classediteurpanovisu_1_1GestionnaireInterfaceController.html#a9c35f152ebe023b5949ad5813c70db2d" target="_top" xlink:title=" ">
<polygon fill="white" stroke="#666666" points="391.25,-318 204.25,-318 204.25,-286 391.25,-286 391.25,-318"/>
<text xml:space="preserve" text-anchor="start" x="212.25" y="-304.5" font-family="Helvetica,sans-Serif" font-size="10.00">editeurpanovisu.Gestionnaire</text>
<text xml:space="preserve" text-anchor="middle" x="297.75" y="-292.5" font-family="Helvetica,sans-Serif" font-size="10.00">InterfaceController.getOpaciteBoussole</text>
</a>
</g>
</g>
<!-- Node1&#45;&gt;Node4 -->
<g id="edge3_Node000001_Node000004" class="edge">
<title>Node1&#45;&gt;Node4</title>
<g id="a_edge3_Node000001_Node000004"><a xlink:title=" ">
<path fill="none" stroke="#63b8ff" d="M112.25,-231.28C135.9,-244.93 171.45,-264.21 204.25,-277 208.82,-278.78 213.56,-280.49 218.38,-282.1"/>
<polygon fill="#63b8ff" stroke="#63b8ff" points="216.97,-285.33 227.56,-285.05 219.11,-278.66 216.97,-285.33"/>
</a>
</g>
</g>
<!-- Node5 -->
<g id="Node000005" class="node">
<title>Node5</title>
<g id="a_Node000005"><a xlink:href="classediteurpanovisu_1_1GestionnaireInterfaceController.html#a5a71408068b7d9d4399d9feabfafacd2" target="_top" xlink:title=" ">
<polygon fill="white" stroke="#666666" points="374,-268 221.5,-268 221.5,-224 374,-224 374,-268"/>
<text xml:space="preserve" text-anchor="start" x="229.5" y="-254.5" font-family="Helvetica,sans-Serif" font-size="10.00">editeurpanovisu.Gestionnaire</text>
<text xml:space="preserve" text-anchor="start" x="229.5" y="-242.5" font-family="Helvetica,sans-Serif" font-size="10.00">InterfaceController.getStrImage</text>
<text xml:space="preserve" text-anchor="middle" x="297.75" y="-230.5" font-family="Helvetica,sans-Serif" font-size="10.00">Boussole</text>
</a>
</g>
</g>
<!-- Node1&#45;&gt;Node5 -->
<g id="edge4_Node000001_Node000005" class="edge">
<title>Node1&#45;&gt;Node5</title>
<g id="a_edge4_Node000001_Node000005"><a xlink:title=" ">
<path fill="none" stroke="#63b8ff" d="M168.46,-227.21C182.02,-229.19 196.09,-231.25 209.73,-233.25"/>
<polygon fill="#63b8ff" stroke="#63b8ff" points="209.16,-236.71 219.56,-234.69 210.18,-229.78 209.16,-236.71"/>
</a>
</g>
</g>
<!-- Node6 -->
<g id="Node000006" class="node">
<title>Node6</title>
<g id="a_Node000006"><a xlink:href="classediteurpanovisu_1_1GestionnaireInterfaceController.html#af26fc5b565b6c001a751b2265d85c9c9" target="_top" xlink:title=" ">
<polygon fill="white" stroke="#666666" points="378.12,-206 217.38,-206 217.38,-162 378.12,-162 378.12,-206"/>
<text xml:space="preserve" text-anchor="start" x="225.38" y="-192.5" font-family="Helvetica,sans-Serif" font-size="10.00">editeurpanovisu.Gestionnaire</text>
<text xml:space="preserve" text-anchor="start" x="225.38" y="-180.5" font-family="Helvetica,sans-Serif" font-size="10.00">InterfaceController.getStrPosition</text>
<text xml:space="preserve" text-anchor="middle" x="297.75" y="-168.5" font-family="Helvetica,sans-Serif" font-size="10.00">Boussole</text>
</a>
</g>
</g>
<!-- Node1&#45;&gt;Node6 -->
<g id="edge5_Node000001_Node000006" class="edge">
<title>Node1&#45;&gt;Node6</title>
<g id="a_edge5_Node000001_Node000006"><a xlink:title=" ">
<path fill="none" stroke="#63b8ff" d="M168.46,-202.79C180.68,-201 193.32,-199.15 205.69,-197.34"/>
<polygon fill="#63b8ff" stroke="#63b8ff" points="206.06,-200.82 215.45,-195.91 205.05,-193.9 206.06,-200.82"/>
</a>
</g>
</g>
<!-- Node7 -->
<g id="Node000007" class="node">
<title>Node7</title>
<g id="a_Node000007"><a xlink:href="classediteurpanovisu_1_1GestionnaireInterfaceController.html#aad213d32e70a9615a44560a36da5c799" target="_top" xlink:title=" ">
<polygon fill="white" stroke="#666666" points="378.12,-144 217.38,-144 217.38,-100 378.12,-100 378.12,-144"/>
<text xml:space="preserve" text-anchor="start" x="225.38" y="-130.5" font-family="Helvetica,sans-Serif" font-size="10.00">editeurpanovisu.Gestionnaire</text>
<text xml:space="preserve" text-anchor="start" x="225.38" y="-118.5" font-family="Helvetica,sans-Serif" font-size="10.00">InterfaceController.getStrPosition</text>
<text xml:space="preserve" text-anchor="middle" x="297.75" y="-106.5" font-family="Helvetica,sans-Serif" font-size="10.00">Vignettes</text>
</a>
</g>
</g>
<!-- Node1&#45;&gt;Node7 -->
<g id="edge6_Node000001_Node000007" class="edge">
<title>Node1&#45;&gt;Node7</title>
<g id="a_edge6_Node000001_Node000007"><a xlink:title=" ">
<path fill="none" stroke="#63b8ff" d="M113.4,-198.68C137.17,-185.36 172.28,-166.58 204.25,-153 207.87,-151.46 211.59,-149.95 215.37,-148.47"/>
<polygon fill="#63b8ff" stroke="#63b8ff" points="216.59,-151.75 224.7,-144.93 214.11,-145.2 216.59,-151.75"/>
</a>
</g>
</g>
<!-- Node8 -->
<g id="Node000008" class="node">
<title>Node8</title>
<g id="a_Node000008"><a xlink:href="classediteurpanovisu_1_1GestionnaireInterfaceController.html#abde2c903b28e1e998ad337007594034a" target="_top" xlink:title=" ">
<polygon fill="white" stroke="#666666" points="385.62,-82 209.88,-82 209.88,-50 385.62,-50 385.62,-82"/>
<text xml:space="preserve" text-anchor="start" x="217.88" y="-68.5" font-family="Helvetica,sans-Serif" font-size="10.00">editeurpanovisu.Gestionnaire</text>
<text xml:space="preserve" text-anchor="middle" x="297.75" y="-56.5" font-family="Helvetica,sans-Serif" font-size="10.00">InterfaceController.getTailleBoussole</text>
</a>
</g>
</g>
<!-- Node1&#45;&gt;Node8 -->
<g id="edge7_Node000001_Node000008" class="edge">
<title>Node1&#45;&gt;Node8</title>
<g id="a_edge7_Node000001_Node000008"><a xlink:title=" ">
<path fill="none" stroke="#63b8ff" d="M96.26,-198.6C115.24,-171.93 156.47,-119.3 204.25,-91 206.69,-89.55 209.22,-88.19 211.81,-86.9"/>
<polygon fill="#63b8ff" stroke="#63b8ff" points="212.99,-90.21 220.69,-82.93 210.13,-83.82 212.99,-90.21"/>
</a>
</g>
</g>
<!-- Node9 -->
<g id="Node000009" class="node">
<title>Node9</title>
<g id="a_Node000009"><a xlink:href="classediteurpanovisu_1_1GestionnaireInterfaceController.html#a16a97236ba786316c2265d2cab22b0b0" target="_top" xlink:title=" ">
<polygon fill="white" stroke="#666666" points="389,-32 206.5,-32 206.5,0 389,0 389,-32"/>
<text xml:space="preserve" text-anchor="start" x="214.5" y="-18.5" font-family="Helvetica,sans-Serif" font-size="10.00">editeurpanovisu.Gestionnaire</text>
<text xml:space="preserve" text-anchor="middle" x="297.75" y="-6.5" font-family="Helvetica,sans-Serif" font-size="10.00">InterfaceController.isbAfficheBoussole</text>
</a>
</g>
</g>
<!-- Node1&#45;&gt;Node9 -->
<g id="edge8_Node000001_Node000009" class="edge">
<title>Node1&#45;&gt;Node9</title>
<g id="a_edge8_Node000001_Node000009"><a xlink:title=" ">
<path fill="none" stroke="#63b8ff" d="M91.6,-198.71C106.2,-164.1 145.14,-82.95 204.25,-41 205.84,-39.87 207.47,-38.8 209.14,-37.77"/>
<polygon fill="#63b8ff" stroke="#63b8ff" points="210.64,-40.95 217.78,-33.13 207.32,-34.78 210.64,-40.95"/>
</a>
</g>
</g>
</g>
</svg>
</svg>

<style type='text/css'>
<![CDATA[
[data-mouse-over-selected='false'] { opacity: 0.7; }
[data-mouse-over-selected='true']  { opacity: 1.0; }
]]>
</style>
<script type="application/ecmascript"><![CDATA[
document.addEventListener('DOMContentLoaded', (event) => {
  highlightEdges();
  highlightAdjacentNodes();
});
]]></script>
</svg>
