<?xml version="1.0" encoding="UTF-8" standalone="no"?>
<!DOCTYPE svg PUBLIC "-//W3C//DTD SVG 1.1//EN"
 "http://www.w3.org/Graphics/SVG/1.1/DTD/svg11.dtd">
<!-- Generated by graphviz version 13.1.2 (20250808.2320)
 -->
<!-- Title: editeurpanovisu.EditeurPanovisu.creeDiaporamaHTML Pages: 1 -->
<!--zoomable 434 -->

<svg id="main" version="1.1" xmlns="http://www.w3.org/2000/svg" xmlns:xlink="http://www.w3.org/1999/xlink" xml:space="preserve" onload="init(evt)">

<style type="text/css"><![CDATA[
.node, .edge {opacity: 0.7;}
.node.selected, .edge.selected {opacity: 1;}
.edge:hover path { stroke: red; }
.edge:hover polygon { stroke: red; fill: red; }
]]></style>

<defs>
  <circle id="rim" cx="0" cy="0" r="7"/>
  <circle id="rim2" cx="0" cy="0" r="3.5"/>
  <g id="zoomPlus">
    <use xlink:href="#rim" fill="#404040"><set attributeName="fill" to="#808080" begin="zoomplus.mouseover" end="zoomplus.mouseout"/></use>
    <path d="M-4,0h8M0,-4v8" fill="none" stroke="white" stroke-width="1.5" pointer-events="none"/>
  </g>
  <g id="zoomMin">
    <use xlink:href="#rim" fill="#404040"><set attributeName="fill" to="#808080" begin="zoomminus.mouseover" end="zoomminus.mouseout"/></use>
    <path d="M-4,0h8" fill="none" stroke="white" stroke-width="1.5" pointer-events="none"/>
  </g>
  <g id="arrowUp" transform="translate(30 24)">
    <use xlink:href="#rim"/>
    <path pointer-events="none" fill="none" stroke="white" stroke-width="1.5" d="M0,-3.0v7 M-2.5,-0.5L0,-3.0L2.5,-0.5"/>
  </g>
  <g id="arrowRight" transform="rotate(90) translate(36 -43)">
    <use xlink:href="#rim"/>
    <path pointer-events="none" fill="none" stroke="white" stroke-width="1.5" d="M0,-3.0v7 M-2.5,-0.5L0,-3.0L2.5,-0.5"/>
  </g>
  <g id="arrowDown" transform="rotate(180) translate(-30 -48)">
    <use xlink:href="#rim"/>
    <path pointer-events="none" fill="none" stroke="white" stroke-width="1.5" d="M0,-3.0v7 M-2.5,-0.5L0,-3.0L2.5,-0.5"/>
  </g>
  <g id="arrowLeft" transform="rotate(270) translate(-36 17)">
    <use xlink:href="#rim"/>
    <path pointer-events="none" fill="none" stroke="white" stroke-width="1.5" d="M0,-3.0v7 M-2.5,-0.5L0,-3.0L2.5,-0.5"/>
  </g>
  <g id="resetDef">
    <use xlink:href="#rim2" fill="#404040"><set attributeName="fill" to="#808080" begin="reset.mouseover" end="reset.mouseout"/></use>
  </g>
</defs>
<script type="application/ecmascript">
var viewWidth = 2198;
var viewHeight = 434;
var sectionId = 'dynsection-52';
</script>
<script type="application/ecmascript" xlink:href="svg.min.js"/>
<svg id="graph" class="graph">
<g id="viewport">
<title>editeurpanovisu.EditeurPanovisu.creeDiaporamaHTML</title>
<!-- Node1 -->
<g id="Node000001" class="node">
<title>Node1</title>
<g id="a_Node000001"><a xlink:title=" ">
<polygon fill="#999999" stroke="#666666" points="2189.5,-404.31 2009.25,-404.31 2009.25,-372.31 2189.5,-372.31 2189.5,-404.31"/>
<text xml:space="preserve" text-anchor="start" x="2017.25" y="-390.81" font-family="Helvetica,sans-Serif" font-size="10.00">editeurpanovisu.EditeurPanovisu.cree</text>
<text xml:space="preserve" text-anchor="middle" x="2099.38" y="-378.81" font-family="Helvetica,sans-Serif" font-size="10.00">DiaporamaHTML</text>
</a>
</g>
</g>
<!-- Node2 -->
<g id="Node000002" class="node">
<title>Node2</title>
<g id="a_Node000002"><a xlink:href="classediteurpanovisu_1_1EditeurPanovisu.html#ae208a607a250f668b0a39d102deb542b" target="_top" xlink:title=" ">
<polygon fill="white" stroke="#666666" points="1761.12,-426.31 1577.88,-426.31 1577.88,-394.31 1761.12,-394.31 1761.12,-426.31"/>
<text xml:space="preserve" text-anchor="start" x="1585.88" y="-412.81" font-family="Helvetica,sans-Serif" font-size="10.00">editeurpanovisu.EditeurPanovisu.creer</text>
<text xml:space="preserve" text-anchor="middle" x="1669.5" y="-400.81" font-family="Helvetica,sans-Serif" font-size="10.00">EditerDiaporama</text>
</a>
</g>
</g>
<!-- Node1&#45;&gt;Node2 -->
<g id="edge1_Node000001_Node000002" class="edge">
<title>Node1&#45;&gt;Node2</title>
<g id="a_edge1_Node000001_Node000002"><a xlink:title=" ">
<path fill="none" stroke="#63b8ff" d="M1997.65,-393.49C1926.02,-397.17 1830.59,-402.08 1761.29,-405.64"/>
<polygon fill="#63b8ff" stroke="#63b8ff" points="1997.62,-396.99 2007.43,-392.99 1997.26,-390 1997.62,-396.99"/>
</a>
</g>
</g>
<!-- Node5 -->
<g id="Node000005" class="node">
<title>Node5</title>
<g id="a_Node000005"><a xlink:href="classediteurpanovisu_1_1EditeurPanovisu.html#a87b29dc258cfc67370b1f27809e91b8e" target="_top" xlink:title=" ">
<polygon fill="white" stroke="#666666" points="1973.25,-382.31 1798.25,-382.31 1798.25,-350.31 1973.25,-350.31 1973.25,-382.31"/>
<text xml:space="preserve" text-anchor="start" x="1806.25" y="-368.81" font-family="Helvetica,sans-Serif" font-size="10.00">editeurpanovisu.EditeurPanovisu.tsk</text>
<text xml:space="preserve" text-anchor="middle" x="1885.75" y="-356.81" font-family="Helvetica,sans-Serif" font-size="10.00">AnalyseFichierPVU</text>
</a>
</g>
</g>
<!-- Node1&#45;&gt;Node5 -->
<g id="edge4_Node000001_Node000005" class="edge">
<title>Node1&#45;&gt;Node5</title>
<g id="a_edge4_Node000001_Node000005"><a xlink:title=" ">
<path fill="none" stroke="#63b8ff" d="M1997.59,-377.83C1989.54,-377 1981.45,-376.15 1973.51,-375.33"/>
<polygon fill="#63b8ff" stroke="#63b8ff" points="1997.12,-381.3 2007.43,-378.85 1997.84,-374.34 1997.12,-381.3"/>
</a>
</g>
</g>
<!-- Node3 -->
<g id="Node000003" class="node">
<title>Node3</title>
<g id="a_Node000003"><a xlink:href="classediteurpanovisu_1_1EditeurPanovisu.html#ac912b80c1f2ac97def60ff005c5c480b" target="_top" xlink:title=" ">
<polygon fill="white" stroke="#666666" points="420.5,-205.31 216.25,-205.31 216.25,-185.31 420.5,-185.31 420.5,-205.31"/>
<text xml:space="preserve" text-anchor="middle" x="318.38" y="-191.81" font-family="Helvetica,sans-Serif" font-size="10.00">editeurpanovisu.EditeurPanovisu.creeMenu</text>
</a>
</g>
</g>
<!-- Node2&#45;&gt;Node3 -->
<g id="edge2_Node000002_Node000003" class="edge">
<title>Node2&#45;&gt;Node3</title>
<g id="a_edge2_Node000002_Node000003"><a xlink:title=" ">
<path fill="none" stroke="#63b8ff" d="M1566.39,-409.23C1476.55,-408.37 1342.22,-407.31 1225.25,-407.31 1225.25,-407.31 1225.25,-407.31 775,-407.31 625.67,-407.31 588.34,-370.43 456.5,-300.31 404.88,-272.85 352.34,-226.3 330.23,-205.68"/>
<polygon fill="#63b8ff" stroke="#63b8ff" points="1566.12,-412.72 1576.15,-409.32 1566.19,-405.72 1566.12,-412.72"/>
</a>
</g>
</g>
<!-- Node4 -->
<g id="Node000004" class="node">
<title>Node4</title>
<g id="a_Node000004"><a xlink:href="classediteurpanovisu_1_1EditeurPanovisu.html#a86c393eee88f54c694db994ddd85b90d" target="_top" xlink:title=" ">
<polygon fill="white" stroke="#666666" points="180.25,-211.31 0,-211.31 0,-179.31 180.25,-179.31 180.25,-211.31"/>
<text xml:space="preserve" text-anchor="start" x="8" y="-197.81" font-family="Helvetica,sans-Serif" font-size="10.00">editeurpanovisu.EditeurPanovisu.cree</text>
<text xml:space="preserve" text-anchor="middle" x="90.12" y="-185.81" font-family="Helvetica,sans-Serif" font-size="10.00">Environnement</text>
</a>
</g>
</g>
<!-- Node3&#45;&gt;Node4 -->
<g id="edge3_Node000003_Node000004" class="edge">
<title>Node3&#45;&gt;Node4</title>
<g id="a_edge3_Node000003_Node000004"><a xlink:title=" ">
<path fill="none" stroke="#63b8ff" d="M204.51,-195.31C196.49,-195.31 188.46,-195.31 180.6,-195.31"/>
<polygon fill="#63b8ff" stroke="#63b8ff" points="204.32,-198.81 214.32,-195.31 204.32,-191.81 204.32,-198.81"/>
</a>
</g>
</g>
<!-- Node6 -->
<g id="Node000006" class="node">
<title>Node6</title>
<g id="a_Node000006"><a xlink:href="classediteurpanovisu_1_1EditeurPanovisu.html#ab4beb1597b660a4a253befc6e76f1c54" target="_top" xlink:title=" ">
<polygon fill="white" stroke="#666666" points="1092.88,-365.31 907.38,-365.31 907.38,-333.31 1092.88,-333.31 1092.88,-365.31"/>
<text xml:space="preserve" text-anchor="start" x="915.38" y="-351.81" font-family="Helvetica,sans-Serif" font-size="10.00">editeurpanovisu.EditeurPanovisu.projet</text>
<text xml:space="preserve" text-anchor="middle" x="1000.12" y="-339.81" font-family="Helvetica,sans-Serif" font-size="10.00">Charge</text>
</a>
</g>
</g>
<!-- Node5&#45;&gt;Node6 -->
<g id="edge5_Node000005_Node000006" class="edge">
<title>Node5&#45;&gt;Node6</title>
<g id="a_edge5_Node000005_Node000006"><a xlink:title=" ">
<path fill="none" stroke="#63b8ff" d="M1786.7,-364.42C1614.73,-361.11 1261.08,-354.31 1093.33,-351.08"/>
<polygon fill="#63b8ff" stroke="#63b8ff" points="1786.43,-367.92 1796.5,-364.61 1786.57,-360.92 1786.43,-367.92"/>
</a>
</g>
</g>
<!-- Node7 -->
<g id="Node000007" class="node">
<title>Node7</title>
<g id="a_Node000007"><a xlink:href="classediteurpanovisu_1_1EditeurPanovisu.html#a6d19b4d885ee6fcec827b91956295732" target="_top" xlink:title=" ">
<polygon fill="white" stroke="#666666" points="1762.25,-299.31 1576.75,-299.31 1576.75,-267.31 1762.25,-267.31 1762.25,-299.31"/>
<text xml:space="preserve" text-anchor="start" x="1584.75" y="-285.81" font-family="Helvetica,sans-Serif" font-size="10.00">editeurpanovisu.EditeurPanovisu.projet</text>
<text xml:space="preserve" text-anchor="middle" x="1669.5" y="-273.81" font-family="Helvetica,sans-Serif" font-size="10.00">ChargeNom</text>
</a>
</g>
</g>
<!-- Node5&#45;&gt;Node7 -->
<g id="edge7_Node000005_Node000007" class="edge">
<title>Node5&#45;&gt;Node7</title>
<g id="a_edge7_Node000005_Node000007"><a xlink:title=" ">
<path fill="none" stroke="#63b8ff" d="M1831.68,-345.75C1795.09,-331.57 1747.08,-312.98 1713,-299.78"/>
<polygon fill="#63b8ff" stroke="#63b8ff" points="1830.16,-348.92 1840.75,-349.27 1832.69,-342.39 1830.16,-348.92"/>
</a>
</g>
</g>
<!-- Node6&#45;&gt;Node3 -->
<g id="edge6_Node000006_Node000003" class="edge">
<title>Node6&#45;&gt;Node3</title>
<g id="a_edge6_Node000006_Node000003"><a xlink:title=" ">
<path fill="none" stroke="#63b8ff" d="M895.91,-343.11C784.87,-334.07 604.33,-312.5 456.5,-262.31 411.59,-247.06 362.44,-220.38 336.94,-205.71"/>
<polygon fill="#63b8ff" stroke="#63b8ff" points="895.35,-346.57 905.59,-343.87 895.9,-339.6 895.35,-346.57"/>
</a>
</g>
</g>
<!-- Node7&#45;&gt;Node3 -->
<g id="edge27_Node000007_Node000003" class="edge">
<title>Node7&#45;&gt;Node3</title>
<g id="a_edge27_Node000007_Node000003"><a xlink:title=" ">
<path fill="none" stroke="#63b8ff" d="M1647.45,-258.72C1588.27,-192.49 1412.43,-15.31 1225.25,-15.31 1225.25,-15.31 1225.25,-15.31 775,-15.31 633.19,-15.31 583.41,28.96 456.5,-34.31 387.5,-68.71 339.43,-155.01 324.38,-184.91"/>
<polygon fill="#63b8ff" stroke="#63b8ff" points="1644.47,-260.63 1653.71,-265.81 1649.72,-256 1644.47,-260.63"/>
</a>
</g>
</g>
<!-- Node8 -->
<g id="Node000008" class="node">
<title>Node8</title>
<g id="a_Node000008"><a xlink:href="classediteurpanovisu_1_1EditeurPanovisu.html#af0d1c32bb78acbff561c822a0d15f760" target="_top" xlink:title=" ">
<polygon fill="white" stroke="#666666" points="1540.75,-299.31 1353,-299.31 1353,-267.31 1540.75,-267.31 1540.75,-299.31"/>
<text xml:space="preserve" text-anchor="start" x="1361" y="-285.81" font-family="Helvetica,sans-Serif" font-size="10.00">editeurpanovisu.EditeurPanovisu.ajoute</text>
<text xml:space="preserve" text-anchor="middle" x="1446.88" y="-273.81" font-family="Helvetica,sans-Serif" font-size="10.00">FichierHisto</text>
</a>
</g>
</g>
<!-- Node7&#45;&gt;Node8 -->
<g id="edge8_Node000007_Node000008" class="edge">
<title>Node7&#45;&gt;Node8</title>
<g id="a_edge8_Node000007_Node000008"><a xlink:title=" ">
<path fill="none" stroke="#63b8ff" d="M1565.22,-276.57C1557.17,-276.54 1549.08,-276.56 1541.11,-276.63"/>
<polygon fill="#63b8ff" stroke="#63b8ff" points="1565,-280.07 1575.02,-276.63 1565.04,-273.07 1565,-280.07"/>
</a>
</g>
</g>
<!-- Node8&#45;&gt;Node6 -->
<g id="edge9_Node000008_Node000006" class="edge">
<title>Node8&#45;&gt;Node6</title>
<g id="a_edge9_Node000008_Node000006"><a xlink:title=" ">
<path fill="none" stroke="#63b8ff" d="M1341.39,-300.52C1333.14,-301.82 1324.93,-303.1 1317,-304.31 1241.71,-315.81 1156.17,-327.93 1093.11,-336.7"/>
<polygon fill="#63b8ff" stroke="#63b8ff" points="1341.82,-303.99 1351.15,-298.97 1340.72,-297.08 1341.82,-303.99"/>
</a>
</g>
</g>
<!-- Node8&#45;&gt;Node7 -->
<g id="edge10_Node000008_Node000007" class="edge">
<title>Node8&#45;&gt;Node7</title>
<g id="a_edge10_Node000008_Node000007"><a xlink:title=" ">
<path fill="none" stroke="#63b8ff" d="M1552.44,-290.05C1560.49,-290.07 1568.58,-290.05 1576.53,-289.98"/>
<polygon fill="#63b8ff" stroke="#63b8ff" points="1552.65,-286.55 1542.63,-290 1552.61,-293.55 1552.65,-286.55"/>
</a>
</g>
</g>
<!-- Node9 -->
<g id="Node000009" class="node">
<title>Node9</title>
<g id="a_Node000009"><a xlink:href="classediteurpanovisu_1_1EditeurPanovisu.html#a9f3ea25b35d4884524508dab3dc4fd6a" target="_top" xlink:title=" ">
<polygon fill="white" stroke="#666666" points="1317,-233.31 1131.5,-233.31 1131.5,-201.31 1317,-201.31 1317,-233.31"/>
<text xml:space="preserve" text-anchor="start" x="1139.5" y="-219.81" font-family="Helvetica,sans-Serif" font-size="10.00">editeurpanovisu.EditeurPanovisu.projet</text>
<text xml:space="preserve" text-anchor="middle" x="1224.25" y="-207.81" font-family="Helvetica,sans-Serif" font-size="10.00">Sauve</text>
</a>
</g>
</g>
<!-- Node8&#45;&gt;Node9 -->
<g id="edge11_Node000008_Node000009" class="edge">
<title>Node8&#45;&gt;Node9</title>
<g id="a_edge11_Node000008_Node000009"><a xlink:title=" ">
<path fill="none" stroke="#63b8ff" d="M1379.78,-263.54C1347.95,-254.02 1310.24,-242.73 1280.03,-233.7"/>
<polygon fill="#63b8ff" stroke="#63b8ff" points="1378.74,-266.88 1389.32,-266.39 1380.74,-260.17 1378.74,-266.88"/>
</a>
</g>
</g>
<!-- Node15 -->
<g id="Node000015" class="node">
<title>Node15</title>
<g id="a_Node000015"><a xlink:href="classediteurpanovisu_1_1EditeurPanovisu.html#a7b2e25dc717eb52b62e23d54ec4c124a" target="_top" xlink:title=" ">
<polygon fill="white" stroke="#666666" points="868.75,-299.31 683.25,-299.31 683.25,-267.31 868.75,-267.31 868.75,-299.31"/>
<text xml:space="preserve" text-anchor="start" x="691.25" y="-285.81" font-family="Helvetica,sans-Serif" font-size="10.00">editeurpanovisu.EditeurPanovisu.projet</text>
<text xml:space="preserve" text-anchor="middle" x="776" y="-273.81" font-family="Helvetica,sans-Serif" font-size="10.00">SauveSous</text>
</a>
</g>
</g>
<!-- Node8&#45;&gt;Node15 -->
<g id="edge25_Node000008_Node000015" class="edge">
<title>Node8&#45;&gt;Node15</title>
<g id="a_edge25_Node000008_Node000015"><a xlink:title=" ">
<path fill="none" stroke="#63b8ff" d="M1341.19,-284.96C1232.19,-286.43 1056.49,-288.09 904.75,-286.31 893.21,-286.17 881.09,-285.97 869.1,-285.73"/>
<polygon fill="#63b8ff" stroke="#63b8ff" points="1341.05,-288.46 1351,-284.83 1340.95,-281.46 1341.05,-288.46"/>
</a>
</g>
</g>
<!-- Node9&#45;&gt;Node3 -->
<g id="edge12_Node000009_Node000003" class="edge">
<title>Node9&#45;&gt;Node3</title>
<g id="a_edge12_Node000009_Node000003"><a xlink:title=" ">
<path fill="none" stroke="#63b8ff" d="M1119.69,-214.79C945.01,-210.54 593.98,-201.99 420.78,-197.78"/>
<polygon fill="#63b8ff" stroke="#63b8ff" points="1119.59,-218.29 1129.67,-215.03 1119.76,-211.29 1119.59,-218.29"/>
</a>
</g>
</g>
<!-- Node9&#45;&gt;Node6 -->
<g id="edge15_Node000009_Node000006" class="edge">
<title>Node9&#45;&gt;Node6</title>
<g id="a_edge15_Node000009_Node000006"><a xlink:title=" ">
<path fill="none" stroke="#63b8ff" d="M1185.74,-239.6C1141.32,-266 1068.4,-309.33 1028.81,-332.86"/>
<polygon fill="#63b8ff" stroke="#63b8ff" points="1187.46,-242.65 1194.27,-234.53 1183.88,-236.63 1187.46,-242.65"/>
</a>
</g>
</g>
<!-- Node9&#45;&gt;Node7 -->
<g id="edge16_Node000009_Node000007" class="edge">
<title>Node9&#45;&gt;Node7</title>
<g id="a_edge16_Node000009_Node000007"><a xlink:title=" ">
<path fill="none" stroke="#63b8ff" d="M1328.59,-229.05C1390.31,-236.48 1470.18,-246.83 1540.75,-258.31 1556.25,-260.83 1572.75,-263.83 1588.57,-266.85"/>
<polygon fill="#63b8ff" stroke="#63b8ff" points="1329.13,-225.59 1318.79,-227.87 1328.3,-232.54 1329.13,-225.59"/>
</a>
</g>
</g>
<!-- Node10 -->
<g id="Node000010" class="node">
<title>Node10</title>
<g id="a_Node000010"><a xlink:href="classediteurpanovisu_1_1EditeurPanovisu.html#a94e36b9e9d09ab1a4c852b8a8cefa927" target="_top" xlink:title=" ">
<polygon fill="white" stroke="#666666" points="647.25,-189.31 456.5,-189.31 456.5,-157.31 647.25,-157.31 647.25,-189.31"/>
<text xml:space="preserve" text-anchor="start" x="464.5" y="-175.81" font-family="Helvetica,sans-Serif" font-size="10.00">editeurpanovisu.EditeurPanovisu.genere</text>
<text xml:space="preserve" text-anchor="middle" x="551.88" y="-163.81" font-family="Helvetica,sans-Serif" font-size="10.00">Visite</text>
</a>
</g>
</g>
<!-- Node9&#45;&gt;Node10 -->
<g id="edge13_Node000009_Node000010" class="edge">
<title>Node9&#45;&gt;Node10</title>
<g id="a_edge13_Node000009_Node000010"><a xlink:title=" ">
<path fill="none" stroke="#63b8ff" d="M1119.93,-205.51C1111.67,-204.71 1103.45,-203.96 1095.5,-203.31 938.7,-190.39 755.95,-181.57 647.57,-177"/>
<polygon fill="#63b8ff" stroke="#63b8ff" points="1119.4,-208.97 1129.69,-206.47 1120.09,-202 1119.4,-208.97"/>
</a>
</g>
</g>
<!-- Node11 -->
<g id="Node000011" class="node">
<title>Node11</title>
<g id="a_Node000011"><a xlink:href="classediteurpanovisu_1_1EditeurPanovisu.html#a9b46b222714af12c06ec33d410400773" target="_top" xlink:title=" ">
<polygon fill="white" stroke="#666666" points="647.25,-75.31 456.5,-75.31 456.5,-43.31 647.25,-43.31 647.25,-75.31"/>
<text xml:space="preserve" text-anchor="start" x="464.5" y="-61.81" font-family="Helvetica,sans-Serif" font-size="10.00">editeurpanovisu.EditeurPanovisu.projets</text>
<text xml:space="preserve" text-anchor="middle" x="551.88" y="-49.81" font-family="Helvetica,sans-Serif" font-size="10.00">Fermer</text>
</a>
</g>
</g>
<!-- Node9&#45;&gt;Node11 -->
<g id="edge17_Node000009_Node000011" class="edge">
<title>Node9&#45;&gt;Node11</title>
<g id="a_edge17_Node000009_Node000011"><a xlink:title=" ">
<path fill="none" stroke="#63b8ff" d="M1209.54,-191.41C1189.66,-156.92 1149.24,-97.36 1095.5,-72.31 1018.63,-36.47 781.6,-44.6 647.63,-52.59"/>
<polygon fill="#63b8ff" stroke="#63b8ff" points="1206.37,-192.91 1214.31,-199.92 1212.48,-189.49 1206.37,-192.91"/>
</a>
</g>
</g>
<!-- Node12 -->
<g id="Node000012" class="node">
<title>Node12</title>
<g id="a_Node000012"><a xlink:href="classediteurpanovisu_1_1EditeurPanovisu.html#ac9d449399ccd38843fa12e716f0c9611" target="_top" xlink:title=" ">
<polygon fill="white" stroke="#666666" points="1095.5,-113.31 904.75,-113.31 904.75,-81.31 1095.5,-81.31 1095.5,-113.31"/>
<text xml:space="preserve" text-anchor="start" x="912.75" y="-99.81" font-family="Helvetica,sans-Serif" font-size="10.00">editeurpanovisu.EditeurPanovisu.projets</text>
<text xml:space="preserve" text-anchor="middle" x="1000.12" y="-87.81" font-family="Helvetica,sans-Serif" font-size="10.00">Nouveau</text>
</a>
</g>
</g>
<!-- Node9&#45;&gt;Node12 -->
<g id="edge19_Node000009_Node000012" class="edge">
<title>Node9&#45;&gt;Node12</title>
<g id="a_edge19_Node000009_Node000012"><a xlink:title=" ">
<path fill="none" stroke="#63b8ff" d="M1195.24,-193.75C1170.36,-173.8 1132.35,-145.6 1095.5,-127.31 1085.11,-122.15 1073.63,-117.63 1062.37,-113.76"/>
<polygon fill="#63b8ff" stroke="#63b8ff" points="1192.95,-196.41 1202.92,-200 1197.37,-190.97 1192.95,-196.41"/>
</a>
</g>
</g>
<!-- Node13 -->
<g id="Node000013" class="node">
<title>Node13</title>
<g id="a_Node000013"><a xlink:href="classediteurpanovisu_1_1EditeurPanovisu.html#a2b3125ffe2e6291efacf19df6cb30a8d" target="_top" xlink:title=" ">
<polygon fill="white" stroke="#666666" points="866.5,-151.31 685.5,-151.31 685.5,-131.31 866.5,-131.31 866.5,-151.31"/>
<text xml:space="preserve" text-anchor="middle" x="776" y="-137.81" font-family="Helvetica,sans-Serif" font-size="10.00">editeurpanovisu.EditeurPanovisu.start</text>
</a>
</g>
</g>
<!-- Node9&#45;&gt;Node13 -->
<g id="edge24_Node000009_Node000013" class="edge">
<title>Node9&#45;&gt;Node13</title>
<g id="a_edge24_Node000009_Node000013"><a xlink:title=" ">
<path fill="none" stroke="#63b8ff" d="M1180.53,-196.01C1156.21,-184.89 1124.84,-172.21 1095.5,-165.31 1019.66,-147.48 931.13,-141.99 866.68,-140.67"/>
<polygon fill="#63b8ff" stroke="#63b8ff" points="1178.91,-199.12 1189.46,-200.18 1181.87,-192.77 1178.91,-199.12"/>
</a>
</g>
</g>
<!-- Node14 -->
<g id="Node000014" class="node">
<title>Node14</title>
<g id="a_Node000014"><a xlink:href="classediteurpanovisu_1_1EditeurPanovisu.html#aef8c9b28c3e88d6e27e3f62b9a901134" target="_top" xlink:title=" ">
<polygon fill="white" stroke="#666666" points="1094,-277.31 906.25,-277.31 906.25,-245.31 1094,-245.31 1094,-277.31"/>
<text xml:space="preserve" text-anchor="start" x="914.25" y="-263.81" font-family="Helvetica,sans-Serif" font-size="10.00">editeurpanovisu.EditeurPanovisu.sauve</text>
<text xml:space="preserve" text-anchor="middle" x="1000.12" y="-251.81" font-family="Helvetica,sans-Serif" font-size="10.00">Fichiers</text>
</a>
</g>
</g>
<!-- Node9&#45;&gt;Node14 -->
<g id="edge23_Node000009_Node000014" class="edge">
<title>Node9&#45;&gt;Node14</title>
<g id="a_edge23_Node000009_Node000014"><a xlink:title=" ">
<path fill="none" stroke="#63b8ff" d="M1128.99,-235.98C1114.18,-238.91 1098.96,-241.93 1084.42,-244.81"/>
<polygon fill="#63b8ff" stroke="#63b8ff" points="1129.61,-239.43 1138.74,-234.05 1128.25,-232.56 1129.61,-239.43"/>
</a>
</g>
</g>
<!-- Node10&#45;&gt;Node3 -->
<g id="edge14_Node000010_Node000003" class="edge">
<title>Node10&#45;&gt;Node3</title>
<g id="a_edge14_Node000010_Node000003"><a xlink:title=" ">
<path fill="none" stroke="#63b8ff" d="M444.81,-183.39C436.83,-184.15 428.78,-184.91 420.83,-185.67"/>
<polygon fill="#63b8ff" stroke="#63b8ff" points="444.92,-186.89 454.54,-182.46 444.25,-179.93 444.92,-186.89"/>
</a>
</g>
</g>
<!-- Node11&#45;&gt;Node3 -->
<g id="edge18_Node000011_Node000003" class="edge">
<title>Node11&#45;&gt;Node3</title>
<g id="a_edge18_Node000011_Node000003"><a xlink:title=" ">
<path fill="none" stroke="#63b8ff" d="M477.69,-79.73C470.39,-82.6 463.2,-85.8 456.5,-89.31 404.27,-116.7 351.64,-164.28 329.83,-185.08"/>
<polygon fill="#63b8ff" stroke="#63b8ff" points="478.87,-83.02 487.02,-76.26 476.43,-76.46 478.87,-83.02"/>
</a>
</g>
</g>
<!-- Node12&#45;&gt;Node3 -->
<g id="edge20_Node000012_Node000003" class="edge">
<title>Node12&#45;&gt;Node3</title>
<g id="a_edge20_Node000012_Node000003"><a xlink:title=" ">
<path fill="none" stroke="#63b8ff" d="M892.89,-99.26C782.57,-103.15 605.59,-114.63 456.5,-148.31 416.37,-157.38 371.56,-174.03 344.43,-184.89"/>
<polygon fill="#63b8ff" stroke="#63b8ff" points="892.96,-102.76 902.84,-98.93 892.73,-95.76 892.96,-102.76"/>
</a>
</g>
</g>
<!-- Node12&#45;&gt;Node13 -->
<g id="edge21_Node000012_Node000013" class="edge">
<title>Node12&#45;&gt;Node13</title>
<g id="a_edge21_Node000012_Node000013"><a xlink:title=" ">
<path fill="none" stroke="#63b8ff" d="M904.83,-115.99C879.23,-121.06 852.41,-126.37 829.99,-130.81"/>
<polygon fill="#63b8ff" stroke="#63b8ff" points="905.48,-119.43 914.61,-114.05 904.12,-112.56 905.48,-119.43"/>
</a>
</g>
</g>
<!-- Node13&#45;&gt;Node10 -->
<g id="edge22_Node000013_Node000010" class="edge">
<title>Node13&#45;&gt;Node10</title>
<g id="a_edge22_Node000013_Node000010"><a xlink:title=" ">
<path fill="none" stroke="#63b8ff" d="M691.05,-153.4C676.86,-155.45 662.05,-157.58 647.61,-159.66"/>
<polygon fill="#63b8ff" stroke="#63b8ff" points="691.37,-156.89 700.77,-152 690.37,-149.97 691.37,-156.89"/>
</a>
</g>
</g>
<!-- Node15&#45;&gt;Node3 -->
<g id="edge26_Node000015_Node000003" class="edge">
<title>Node15&#45;&gt;Node3</title>
<g id="a_edge26_Node000015_Node000003"><a xlink:title=" ">
<path fill="none" stroke="#63b8ff" d="M671.86,-269.01C609.29,-259.7 527.98,-246.49 456.5,-231.31 421.95,-223.97 383.05,-213.55 355.53,-205.8"/>
<polygon fill="#63b8ff" stroke="#63b8ff" points="671.03,-272.42 681.43,-270.42 672.05,-265.5 671.03,-272.42"/>
</a>
</g>
</g>
</g>
</svg>

<g id="navigator" transform="translate(0 0)" fill="#404254">
  <rect fill="#f2f5e9" fill-opacity="0.5" stroke="#606060" stroke-width=".5" x="0" y="0" width="60" height="60"/>
  <use id="zoomplus" xlink:href="#zoomPlus" x="17" y="9" onmousedown="handleZoom(evt,'in')"/>
  <use id="zoomminus" xlink:href="#zoomMin" x="42" y="9" onmousedown="handleZoom(evt,'out')"/>
  <use id="reset" xlink:href="#resetDef" x="30" y="36" onmousedown="handleReset()"/>
   <use id="arrowup" xlink:href="#arrowUp" x="0" y="0" onmousedown="handlePan(0,-1)"/>
  <use id="arrowright" xlink:href="#arrowRight" x="0" y="0" onmousedown="handlePan(1,0)"/>
  <use id="arrowdown" xlink:href="#arrowDown" x="0" y="0" onmousedown="handlePan(0,1)"/>
  <use id="arrowleft" xlink:href="#arrowLeft" x="0" y="0" onmousedown="handlePan(-1,0)"/>
</g>
<svg viewBox="0 0 15 15" width="100%" height="30px" preserveAspectRatio="xMaxYMin meet">
 <g id="arrow_out" transform="scale(0.3 0.3)">
  <a xlink:href="classediteurpanovisu_1_1EditeurPanovisu_af3511d92da408708b09df9a4410de2ca_icgraph_org.svg" target="_base">
   <rect id="button" ry="5" rx="5" y="6" x="6" height="38" width="38"
        fill="#f2f5e9" fill-opacity="0.5" stroke="#606060" stroke-width="1.0"/>
   <path id="arrow"
     d="M 11.500037,31.436501 C 11.940474,20.09759 22.043105,11.32322 32.158766,21.979434 L 37.068811,17.246167 C 37.068811,17.246167 37.088388,32 37.088388,32 L 22.160133,31.978069 C 22.160133,31.978069 26.997745,27.140456 26.997745,27.140456 C 18.528582,18.264221 13.291696,25.230495 11.500037,31.436501 z"
     style="fill:#404040;"/>
  </a>
 </g>
</svg>

<style type='text/css'>
<![CDATA[
[data-mouse-over-selected='false'] { opacity: 0.7; }
[data-mouse-over-selected='true']  { opacity: 1.0; }
]]>
</style>
<script type="application/ecmascript"><![CDATA[
document.addEventListener('DOMContentLoaded', (event) => {
  highlightEdges();
  highlightAdjacentNodes();
});
]]></script>
</svg>
