<?xml version="1.0" encoding="UTF-8" standalone="no"?>
<!DOCTYPE svg PUBLIC "-//W3C//DTD SVG 1.1//EN"
 "http://www.w3.org/Graphics/SVG/1.1/DTD/svg11.dtd">
<!-- Generated by graphviz version 13.1.2 (20250808.2320)
 -->
<!-- Title: editeurpanovisu.EditeurPanovisu.deleteDirectory Pages: 1 -->
<!--zoomable 484 -->

<svg id="main" version="1.1" xmlns="http://www.w3.org/2000/svg" xmlns:xlink="http://www.w3.org/1999/xlink" xml:space="preserve" onload="init(evt)">

<style type="text/css"><![CDATA[
.node, .edge {opacity: 0.7;}
.node.selected, .edge.selected {opacity: 1;}
.edge:hover path { stroke: red; }
.edge:hover polygon { stroke: red; fill: red; }
]]></style>

<defs>
  <circle id="rim" cx="0" cy="0" r="7"/>
  <circle id="rim2" cx="0" cy="0" r="3.5"/>
  <g id="zoomPlus">
    <use xlink:href="#rim" fill="#404040"><set attributeName="fill" to="#808080" begin="zoomplus.mouseover" end="zoomplus.mouseout"/></use>
    <path d="M-4,0h8M0,-4v8" fill="none" stroke="white" stroke-width="1.5" pointer-events="none"/>
  </g>
  <g id="zoomMin">
    <use xlink:href="#rim" fill="#404040"><set attributeName="fill" to="#808080" begin="zoomminus.mouseover" end="zoomminus.mouseout"/></use>
    <path d="M-4,0h8" fill="none" stroke="white" stroke-width="1.5" pointer-events="none"/>
  </g>
  <g id="arrowUp" transform="translate(30 24)">
    <use xlink:href="#rim"/>
    <path pointer-events="none" fill="none" stroke="white" stroke-width="1.5" d="M0,-3.0v7 M-2.5,-0.5L0,-3.0L2.5,-0.5"/>
  </g>
  <g id="arrowRight" transform="rotate(90) translate(36 -43)">
    <use xlink:href="#rim"/>
    <path pointer-events="none" fill="none" stroke="white" stroke-width="1.5" d="M0,-3.0v7 M-2.5,-0.5L0,-3.0L2.5,-0.5"/>
  </g>
  <g id="arrowDown" transform="rotate(180) translate(-30 -48)">
    <use xlink:href="#rim"/>
    <path pointer-events="none" fill="none" stroke="white" stroke-width="1.5" d="M0,-3.0v7 M-2.5,-0.5L0,-3.0L2.5,-0.5"/>
  </g>
  <g id="arrowLeft" transform="rotate(270) translate(-36 17)">
    <use xlink:href="#rim"/>
    <path pointer-events="none" fill="none" stroke="white" stroke-width="1.5" d="M0,-3.0v7 M-2.5,-0.5L0,-3.0L2.5,-0.5"/>
  </g>
  <g id="resetDef">
    <use xlink:href="#rim2" fill="#404040"><set attributeName="fill" to="#808080" begin="reset.mouseover" end="reset.mouseout"/></use>
  </g>
</defs>
<script type="application/ecmascript">
var viewWidth = 1994;
var viewHeight = 484;
var sectionId = 'dynsection-66';
</script>
<script type="application/ecmascript" xlink:href="svg.min.js"/>
<svg id="graph" class="graph">
<g id="viewport">
<title>editeurpanovisu.EditeurPanovisu.deleteDirectory</title>
<!-- Node1 -->
<g id="Node000001" class="node">
<title>Node1</title>
<g id="a_Node000001"><a xlink:title=" ">
<polygon fill="#999999" stroke="#666666" points="1986,-141.28 1798.25,-141.28 1798.25,-109.28 1986,-109.28 1986,-141.28"/>
<text xml:space="preserve" text-anchor="start" x="1806.25" y="-127.78" font-family="Helvetica,sans-Serif" font-size="10.00">editeurpanovisu.EditeurPanovisu.delete</text>
<text xml:space="preserve" text-anchor="middle" x="1892.12" y="-115.78" font-family="Helvetica,sans-Serif" font-size="10.00">Directory</text>
</a>
</g>
</g>
<!-- Node1&#45;&gt;Node1 -->
<g id="edge1_Node000001_Node000001" class="edge">
<title>Node1&#45;&gt;Node1</title>
<g id="a_edge1_Node000001_Node000001"><a xlink:title=" ">
<path fill="none" stroke="#63b8ff" d="M1929.49,-152.83C1923.39,-156.69 1910.94,-159.28 1892.12,-159.28 1858.21,-159.28 1844.96,-150.86 1852.38,-141.72"/>
<polygon fill="#63b8ff" stroke="#63b8ff" points="1932.87,-153.72 1931.55,-143.2 1926.03,-152.25 1932.87,-153.72"/>
</a>
</g>
</g>
<!-- Node2 -->
<g id="Node000002" class="node">
<title>Node2</title>
<g id="a_Node000002"><a xlink:href="classediteurpanovisu_1_1EditeurPanovisu.html#a94e36b9e9d09ab1a4c852b8a8cefa927" target="_top" xlink:title=" ">
<polygon fill="white" stroke="#666666" points="647.25,-163.28 456.5,-163.28 456.5,-131.28 647.25,-131.28 647.25,-163.28"/>
<text xml:space="preserve" text-anchor="start" x="464.5" y="-149.78" font-family="Helvetica,sans-Serif" font-size="10.00">editeurpanovisu.EditeurPanovisu.genere</text>
<text xml:space="preserve" text-anchor="middle" x="551.88" y="-137.78" font-family="Helvetica,sans-Serif" font-size="10.00">Visite</text>
</a>
</g>
</g>
<!-- Node1&#45;&gt;Node2 -->
<g id="edge2_Node000001_Node000002" class="edge">
<title>Node1&#45;&gt;Node2</title>
<g id="a_edge2_Node000001_Node000002"><a xlink:title=" ">
<path fill="none" stroke="#63b8ff" d="M1804.74,-106.58C1715.75,-88.97 1572.8,-65.28 1447.88,-65.28 1447.88,-65.28 1447.88,-65.28 999.12,-65.28 855.56,-65.28 690.24,-106.84 606.9,-130.79"/>
<polygon fill="#63b8ff" stroke="#63b8ff" points="1803.88,-109.98 1814.38,-108.51 1805.26,-103.12 1803.88,-109.98"/>
</a>
</g>
</g>
<!-- Node5 -->
<g id="Node000005" class="node">
<title>Node5</title>
<g id="a_Node000005"><a xlink:href="classediteurpanovisu_1_1EditeurPanovisu.html#ab4beb1597b660a4a253befc6e76f1c54" target="_top" xlink:title=" ">
<polygon fill="white" stroke="#666666" points="1092.88,-415.28 907.38,-415.28 907.38,-383.28 1092.88,-383.28 1092.88,-415.28"/>
<text xml:space="preserve" text-anchor="start" x="915.38" y="-401.78" font-family="Helvetica,sans-Serif" font-size="10.00">editeurpanovisu.EditeurPanovisu.projet</text>
<text xml:space="preserve" text-anchor="middle" x="1000.12" y="-389.78" font-family="Helvetica,sans-Serif" font-size="10.00">Charge</text>
</a>
</g>
</g>
<!-- Node1&#45;&gt;Node5 -->
<g id="edge5_Node000001_Node000005" class="edge">
<title>Node1&#45;&gt;Node5</title>
<g id="a_edge5_Node000001_Node000005"><a xlink:title=" ">
<path fill="none" stroke="#63b8ff" d="M1885.58,-152.75C1873.35,-205.78 1838.85,-322.12 1762.25,-380.28 1544.34,-545.75 1181.19,-456.05 1050.15,-415.65"/>
<polygon fill="#63b8ff" stroke="#63b8ff" points="1888.98,-153.57 1887.71,-143.05 1882.14,-152.06 1888.98,-153.57"/>
</a>
</g>
</g>
<!-- Node6 -->
<g id="Node000006" class="node">
<title>Node6</title>
<g id="a_Node000006"><a xlink:href="classediteurpanovisu_1_1EditeurPanovisu.html#a6d19b4d885ee6fcec827b91956295732" target="_top" xlink:title=" ">
<polygon fill="white" stroke="#666666" points="1762.25,-371.28 1576.75,-371.28 1576.75,-339.28 1762.25,-339.28 1762.25,-371.28"/>
<text xml:space="preserve" text-anchor="start" x="1584.75" y="-357.78" font-family="Helvetica,sans-Serif" font-size="10.00">editeurpanovisu.EditeurPanovisu.projet</text>
<text xml:space="preserve" text-anchor="middle" x="1669.5" y="-345.78" font-family="Helvetica,sans-Serif" font-size="10.00">ChargeNom</text>
</a>
</g>
</g>
<!-- Node1&#45;&gt;Node6 -->
<g id="edge7_Node000001_Node000006" class="edge">
<title>Node1&#45;&gt;Node6</title>
<g id="a_edge7_Node000001_Node000006"><a xlink:title=" ">
<path fill="none" stroke="#63b8ff" d="M1867.84,-149.56C1822.75,-196.56 1724.63,-298.86 1686.29,-338.82"/>
<polygon fill="#63b8ff" stroke="#63b8ff" points="1870.17,-152.19 1874.56,-142.55 1865.12,-147.34 1870.17,-152.19"/>
</a>
</g>
</g>
<!-- Node9 -->
<g id="Node000009" class="node">
<title>Node9</title>
<g id="a_Node000009"><a xlink:href="classediteurpanovisu_1_1EditeurPanovisu.html#a9b46b222714af12c06ec33d410400773" target="_top" xlink:title=" ">
<polygon fill="white" stroke="#666666" points="1095.5,-37.28 904.75,-37.28 904.75,-5.28 1095.5,-5.28 1095.5,-37.28"/>
<text xml:space="preserve" text-anchor="start" x="912.75" y="-23.78" font-family="Helvetica,sans-Serif" font-size="10.00">editeurpanovisu.EditeurPanovisu.projets</text>
<text xml:space="preserve" text-anchor="middle" x="1000.12" y="-11.78" font-family="Helvetica,sans-Serif" font-size="10.00">Fermer</text>
</a>
</g>
</g>
<!-- Node1&#45;&gt;Node9 -->
<g id="edge27_Node000001_Node000009" class="edge">
<title>Node1&#45;&gt;Node9</title>
<g id="a_edge27_Node000001_Node000009"><a xlink:title=" ">
<path fill="none" stroke="#63b8ff" d="M1860.97,-102.32C1836,-84.75 1798.8,-61.81 1762.25,-51.28 1530.33,15.49 1242.26,2.3 1095.97,-10.77"/>
<polygon fill="#63b8ff" stroke="#63b8ff" points="1858.85,-105.11 1869.01,-108.11 1862.94,-99.42 1858.85,-105.11"/>
</a>
</g>
</g>
<!-- Node10 -->
<g id="Node000010" class="node">
<title>Node10</title>
<g id="a_Node000010"><a xlink:href="classediteurpanovisu_1_1EditeurPanovisu.html#ac9d449399ccd38843fa12e716f0c9611" target="_top" xlink:title=" ">
<polygon fill="white" stroke="#666666" points="1095.5,-163.28 904.75,-163.28 904.75,-131.28 1095.5,-131.28 1095.5,-163.28"/>
<text xml:space="preserve" text-anchor="start" x="912.75" y="-149.78" font-family="Helvetica,sans-Serif" font-size="10.00">editeurpanovisu.EditeurPanovisu.projets</text>
<text xml:space="preserve" text-anchor="middle" x="1000.12" y="-137.78" font-family="Helvetica,sans-Serif" font-size="10.00">Nouveau</text>
</a>
</g>
</g>
<!-- Node1&#45;&gt;Node10 -->
<g id="edge28_Node000001_Node000010" class="edge">
<title>Node1&#45;&gt;Node10</title>
<g id="a_edge28_Node000001_Node000010"><a xlink:title=" ">
<path fill="none" stroke="#63b8ff" d="M1786.48,-127.87C1611.85,-132.19 1263.69,-140.79 1095.88,-144.94"/>
<polygon fill="#63b8ff" stroke="#63b8ff" points="1786.56,-131.37 1796.47,-127.62 1786.38,-124.37 1786.56,-131.37"/>
</a>
</g>
</g>
<!-- Node11 -->
<g id="Node000011" class="node">
<title>Node11</title>
<g id="a_Node000011"><a xlink:href="classediteurpanovisu_1_1EditeurPanovisu.html#a2b3125ffe2e6291efacf19df6cb30a8d" target="_top" xlink:title=" ">
<polygon fill="white" stroke="#666666" points="866.5,-157.28 685.5,-157.28 685.5,-137.28 866.5,-137.28 866.5,-157.28"/>
<text xml:space="preserve" text-anchor="middle" x="776" y="-143.78" font-family="Helvetica,sans-Serif" font-size="10.00">editeurpanovisu.EditeurPanovisu.start</text>
</a>
</g>
</g>
<!-- Node1&#45;&gt;Node11 -->
<g id="edge29_Node000001_Node000011" class="edge">
<title>Node1&#45;&gt;Node11</title>
<g id="a_edge29_Node000001_Node000011"><a xlink:title=" ">
<path fill="none" stroke="#63b8ff" d="M1786.52,-117.16C1696.75,-110.89 1563.88,-103.28 1447.88,-103.28 1447.88,-103.28 1447.88,-103.28 1223.25,-103.28 1081.44,-103.28 1045.43,-104.4 904.75,-122.28 877.29,-125.77 846.85,-131.65 822.58,-136.82"/>
<polygon fill="#63b8ff" stroke="#63b8ff" points="1786.07,-120.64 1796.29,-117.85 1786.56,-113.65 1786.07,-120.64"/>
</a>
</g>
</g>
<!-- Node3 -->
<g id="Node000003" class="node">
<title>Node3</title>
<g id="a_Node000003"><a xlink:href="classediteurpanovisu_1_1EditeurPanovisu.html#ac912b80c1f2ac97def60ff005c5c480b" target="_top" xlink:title=" ">
<polygon fill="white" stroke="#666666" points="420.5,-277.28 216.25,-277.28 216.25,-257.28 420.5,-257.28 420.5,-277.28"/>
<text xml:space="preserve" text-anchor="middle" x="318.38" y="-263.78" font-family="Helvetica,sans-Serif" font-size="10.00">editeurpanovisu.EditeurPanovisu.creeMenu</text>
</a>
</g>
</g>
<!-- Node2&#45;&gt;Node3 -->
<g id="edge3_Node000002_Node000003" class="edge">
<title>Node2&#45;&gt;Node3</title>
<g id="a_edge3_Node000002_Node000003"><a xlink:title=" ">
<path fill="none" stroke="#63b8ff" d="M479.68,-167.59C471.74,-170.54 463.86,-173.78 456.5,-177.28 407.65,-200.54 355.78,-238.85 332.28,-257.06"/>
<polygon fill="#63b8ff" stroke="#63b8ff" points="480.83,-170.9 489.09,-164.26 478.5,-164.3 480.83,-170.9"/>
</a>
</g>
</g>
<!-- Node4 -->
<g id="Node000004" class="node">
<title>Node4</title>
<g id="a_Node000004"><a xlink:href="classediteurpanovisu_1_1EditeurPanovisu.html#a86c393eee88f54c694db994ddd85b90d" target="_top" xlink:title=" ">
<polygon fill="white" stroke="#666666" points="180.25,-283.28 0,-283.28 0,-251.28 180.25,-251.28 180.25,-283.28"/>
<text xml:space="preserve" text-anchor="start" x="8" y="-269.78" font-family="Helvetica,sans-Serif" font-size="10.00">editeurpanovisu.EditeurPanovisu.cree</text>
<text xml:space="preserve" text-anchor="middle" x="90.12" y="-257.78" font-family="Helvetica,sans-Serif" font-size="10.00">Environnement</text>
</a>
</g>
</g>
<!-- Node3&#45;&gt;Node4 -->
<g id="edge4_Node000003_Node000004" class="edge">
<title>Node3&#45;&gt;Node4</title>
<g id="a_edge4_Node000003_Node000004"><a xlink:title=" ">
<path fill="none" stroke="#63b8ff" d="M204.51,-267.28C196.49,-267.28 188.46,-267.28 180.6,-267.28"/>
<polygon fill="#63b8ff" stroke="#63b8ff" points="204.32,-270.78 214.32,-267.28 204.32,-263.78 204.32,-270.78"/>
</a>
</g>
</g>
<!-- Node5&#45;&gt;Node3 -->
<g id="edge6_Node000005_Node000003" class="edge">
<title>Node5&#45;&gt;Node3</title>
<g id="a_edge6_Node000005_Node000003"><a xlink:title=" ">
<path fill="none" stroke="#63b8ff" d="M895.86,-410.84C784.02,-419.45 602.09,-422 456.5,-369.28 401.26,-349.28 349.44,-299.2 328.8,-277.54"/>
<polygon fill="#63b8ff" stroke="#63b8ff" points="895.93,-414.34 905.62,-410.05 895.37,-407.36 895.93,-414.34"/>
</a>
</g>
</g>
<!-- Node6&#45;&gt;Node3 -->
<g id="edge26_Node000006_Node000003" class="edge">
<title>Node6&#45;&gt;Node3</title>
<g id="a_edge26_Node000006_Node000003"><a xlink:title=" ">
<path fill="none" stroke="#63b8ff" d="M1565.11,-355.28C1475.28,-355.28 1341.66,-355.28 1225.25,-355.28 1225.25,-355.28 1225.25,-355.28 775,-355.28 613.07,-355.28 424.54,-301.03 351.01,-277.72"/>
<polygon fill="#63b8ff" stroke="#63b8ff" points="1564.88,-358.78 1574.88,-355.28 1564.88,-351.78 1564.88,-358.78"/>
</a>
</g>
</g>
<!-- Node7 -->
<g id="Node000007" class="node">
<title>Node7</title>
<g id="a_Node000007"><a xlink:href="classediteurpanovisu_1_1EditeurPanovisu.html#af0d1c32bb78acbff561c822a0d15f760" target="_top" xlink:title=" ">
<polygon fill="white" stroke="#666666" points="1540.75,-415.28 1353,-415.28 1353,-383.28 1540.75,-383.28 1540.75,-415.28"/>
<text xml:space="preserve" text-anchor="start" x="1361" y="-401.78" font-family="Helvetica,sans-Serif" font-size="10.00">editeurpanovisu.EditeurPanovisu.ajoute</text>
<text xml:space="preserve" text-anchor="middle" x="1446.88" y="-389.78" font-family="Helvetica,sans-Serif" font-size="10.00">FichierHisto</text>
</a>
</g>
</g>
<!-- Node6&#45;&gt;Node7 -->
<g id="edge8_Node000006_Node000007" class="edge">
<title>Node6&#45;&gt;Node7</title>
<g id="a_edge8_Node000006_Node000007"><a xlink:title=" ">
<path fill="none" stroke="#63b8ff" d="M1565.29,-369.13C1543,-373.49 1520.33,-378.31 1500.93,-382.84"/>
<polygon fill="#63b8ff" stroke="#63b8ff" points="1565.89,-372.58 1575.05,-367.24 1564.56,-365.7 1565.89,-372.58"/>
</a>
</g>
</g>
<!-- Node7&#45;&gt;Node5 -->
<g id="edge9_Node000007_Node000005" class="edge">
<title>Node7&#45;&gt;Node5</title>
<g id="a_edge9_Node000007_Node000005"><a xlink:title=" ">
<path fill="none" stroke="#63b8ff" d="M1341.25,-399.28C1265.95,-399.28 1165.33,-399.28 1093.09,-399.28"/>
<polygon fill="#63b8ff" stroke="#63b8ff" points="1341.13,-402.78 1351.13,-399.28 1341.13,-395.78 1341.13,-402.78"/>
</a>
</g>
</g>
<!-- Node7&#45;&gt;Node6 -->
<g id="edge10_Node000007_Node000006" class="edge">
<title>Node7&#45;&gt;Node6</title>
<g id="a_edge10_Node000007_Node000006"><a xlink:title=" ">
<path fill="none" stroke="#63b8ff" d="M1552.11,-385.23C1574.04,-380.93 1596.29,-376.2 1615.37,-371.75"/>
<polygon fill="#63b8ff" stroke="#63b8ff" points="1551.68,-381.75 1542.53,-387.09 1553.01,-388.62 1551.68,-381.75"/>
</a>
</g>
</g>
<!-- Node8 -->
<g id="Node000008" class="node">
<title>Node8</title>
<g id="a_Node000008"><a xlink:href="classediteurpanovisu_1_1EditeurPanovisu.html#a9f3ea25b35d4884524508dab3dc4fd6a" target="_top" xlink:title=" ">
<polygon fill="white" stroke="#666666" points="1317,-283.28 1131.5,-283.28 1131.5,-251.28 1317,-251.28 1317,-283.28"/>
<text xml:space="preserve" text-anchor="start" x="1139.5" y="-269.78" font-family="Helvetica,sans-Serif" font-size="10.00">editeurpanovisu.EditeurPanovisu.projet</text>
<text xml:space="preserve" text-anchor="middle" x="1224.25" y="-257.78" font-family="Helvetica,sans-Serif" font-size="10.00">Sauve</text>
</a>
</g>
</g>
<!-- Node7&#45;&gt;Node8 -->
<g id="edge11_Node000007_Node000008" class="edge">
<title>Node7&#45;&gt;Node8</title>
<g id="a_edge11_Node000007_Node000008"><a xlink:title=" ">
<path fill="none" stroke="#63b8ff" d="M1408.61,-376.99C1364.5,-350.6 1292.07,-307.26 1252.75,-283.73"/>
<polygon fill="#63b8ff" stroke="#63b8ff" points="1406.7,-379.92 1417.08,-382.05 1410.3,-373.92 1406.7,-379.92"/>
</a>
</g>
</g>
<!-- Node13 -->
<g id="Node000013" class="node">
<title>Node13</title>
<g id="a_Node000013"><a xlink:href="classediteurpanovisu_1_1EditeurPanovisu.html#a7b2e25dc717eb52b62e23d54ec4c124a" target="_top" xlink:title=" ">
<polygon fill="white" stroke="#666666" points="868.75,-457.28 683.25,-457.28 683.25,-425.28 868.75,-425.28 868.75,-457.28"/>
<text xml:space="preserve" text-anchor="start" x="691.25" y="-443.78" font-family="Helvetica,sans-Serif" font-size="10.00">editeurpanovisu.EditeurPanovisu.projet</text>
<text xml:space="preserve" text-anchor="middle" x="776" y="-431.78" font-family="Helvetica,sans-Serif" font-size="10.00">SauveSous</text>
</a>
</g>
</g>
<!-- Node7&#45;&gt;Node13 -->
<g id="edge24_Node000007_Node000013" class="edge">
<title>Node7&#45;&gt;Node13</title>
<g id="a_edge24_Node000007_Node000013"><a xlink:title=" ">
<path fill="none" stroke="#63b8ff" d="M1341.41,-411.13C1333.15,-411.92 1324.94,-412.64 1317,-413.28 1159.79,-425.89 976.36,-434.01 868.83,-438.1"/>
<polygon fill="#63b8ff" stroke="#63b8ff" points="1341.55,-414.64 1351.16,-410.18 1340.87,-407.67 1341.55,-414.64"/>
</a>
</g>
</g>
<!-- Node8&#45;&gt;Node2 -->
<g id="edge13_Node000008_Node000002" class="edge">
<title>Node8&#45;&gt;Node2</title>
<g id="a_edge13_Node000008_Node000002"><a xlink:title=" ">
<path fill="none" stroke="#63b8ff" d="M1119.97,-248.79C990.09,-225.55 769.1,-185.99 644.81,-163.74"/>
<polygon fill="#63b8ff" stroke="#63b8ff" points="1119.14,-252.2 1129.6,-250.52 1120.38,-245.31 1119.14,-252.2"/>
</a>
</g>
</g>
<!-- Node8&#45;&gt;Node3 -->
<g id="edge12_Node000008_Node000003" class="edge">
<title>Node8&#45;&gt;Node3</title>
<g id="a_edge12_Node000008_Node000003"><a xlink:title=" ">
<path fill="none" stroke="#63b8ff" d="M1119.69,-267.28C945.01,-267.28 593.98,-267.28 420.78,-267.28"/>
<polygon fill="#63b8ff" stroke="#63b8ff" points="1119.67,-270.78 1129.67,-267.28 1119.67,-263.78 1119.67,-270.78"/>
</a>
</g>
</g>
<!-- Node8&#45;&gt;Node5 -->
<g id="edge14_Node000008_Node000005" class="edge">
<title>Node8&#45;&gt;Node5</title>
<g id="a_edge14_Node000008_Node000005"><a xlink:title=" ">
<path fill="none" stroke="#63b8ff" d="M1185.74,-289.57C1141.32,-315.97 1068.4,-359.3 1028.81,-382.83"/>
<polygon fill="#63b8ff" stroke="#63b8ff" points="1187.46,-292.62 1194.27,-284.51 1183.88,-286.61 1187.46,-292.62"/>
</a>
</g>
</g>
<!-- Node8&#45;&gt;Node6 -->
<g id="edge15_Node000008_Node000006" class="edge">
<title>Node8&#45;&gt;Node6</title>
<g id="a_edge15_Node000008_Node000006"><a xlink:title=" ">
<path fill="none" stroke="#63b8ff" d="M1318.99,-285.89C1397.98,-301.57 1509.9,-323.8 1585.65,-338.83"/>
<polygon fill="#63b8ff" stroke="#63b8ff" points="1320.05,-282.53 1309.56,-284.02 1318.68,-289.4 1320.05,-282.53"/>
</a>
</g>
</g>
<!-- Node8&#45;&gt;Node9 -->
<g id="edge16_Node000008_Node000009" class="edge">
<title>Node8&#45;&gt;Node9</title>
<g id="a_edge16_Node000008_Node000009"><a xlink:title=" ">
<path fill="none" stroke="#63b8ff" d="M1201.69,-242.37C1176.47,-213.33 1133.34,-163.98 1095.5,-122.28 1068.09,-92.07 1035.46,-57.44 1016.64,-37.59"/>
<polygon fill="#63b8ff" stroke="#63b8ff" points="1199.04,-244.65 1208.23,-249.91 1204.32,-240.06 1199.04,-244.65"/>
</a>
</g>
</g>
<!-- Node8&#45;&gt;Node10 -->
<g id="edge18_Node000008_Node000010" class="edge">
<title>Node8&#45;&gt;Node10</title>
<g id="a_edge18_Node000008_Node000010"><a xlink:title=" ">
<path fill="none" stroke="#63b8ff" d="M1195.24,-243.72C1170.36,-223.77 1132.35,-195.57 1095.5,-177.28 1085.11,-172.12 1073.63,-167.6 1062.37,-163.73"/>
<polygon fill="#63b8ff" stroke="#63b8ff" points="1192.95,-246.38 1202.92,-249.97 1197.37,-240.95 1192.95,-246.38"/>
</a>
</g>
</g>
<!-- Node8&#45;&gt;Node11 -->
<g id="edge23_Node000008_Node000011" class="edge">
<title>Node8&#45;&gt;Node11</title>
<g id="a_edge23_Node000008_Node000011"><a xlink:title=" ">
<path fill="none" stroke="#63b8ff" d="M1177.55,-246.39C1153.51,-235.99 1123.31,-223.84 1095.5,-215.28 1070.24,-207.51 911.93,-174.81 828.44,-157.74"/>
<polygon fill="#63b8ff" stroke="#63b8ff" points="1175.85,-249.47 1186.41,-250.27 1178.65,-243.05 1175.85,-249.47"/>
</a>
</g>
</g>
<!-- Node12 -->
<g id="Node000012" class="node">
<title>Node12</title>
<g id="a_Node000012"><a xlink:href="classediteurpanovisu_1_1EditeurPanovisu.html#aef8c9b28c3e88d6e27e3f62b9a901134" target="_top" xlink:title=" ">
<polygon fill="white" stroke="#666666" points="1094,-327.28 906.25,-327.28 906.25,-295.28 1094,-295.28 1094,-327.28"/>
<text xml:space="preserve" text-anchor="start" x="914.25" y="-313.78" font-family="Helvetica,sans-Serif" font-size="10.00">editeurpanovisu.EditeurPanovisu.sauve</text>
<text xml:space="preserve" text-anchor="middle" x="1000.12" y="-301.78" font-family="Helvetica,sans-Serif" font-size="10.00">Fichiers</text>
</a>
</g>
</g>
<!-- Node8&#45;&gt;Node12 -->
<g id="edge22_Node000008_Node000012" class="edge">
<title>Node8&#45;&gt;Node12</title>
<g id="a_edge22_Node000008_Node000012"><a xlink:title=" ">
<path fill="none" stroke="#63b8ff" d="M1128.99,-285.95C1114.18,-288.89 1098.96,-291.9 1084.42,-294.78"/>
<polygon fill="#63b8ff" stroke="#63b8ff" points="1129.61,-289.4 1138.74,-284.02 1128.25,-282.53 1129.61,-289.4"/>
</a>
</g>
</g>
<!-- Node9&#45;&gt;Node3 -->
<g id="edge17_Node000009_Node000003" class="edge">
<title>Node9&#45;&gt;Node3</title>
<g id="a_edge17_Node000009_Node000003"><a xlink:title=" ">
<path fill="none" stroke="#63b8ff" d="M893.02,-18.74C777.26,-20.77 590.6,-38.51 456.5,-122.28 396.26,-159.91 344.57,-230.26 326.36,-256.79"/>
<polygon fill="#63b8ff" stroke="#63b8ff" points="892.88,-22.24 902.83,-18.61 892.78,-15.24 892.88,-22.24"/>
</a>
</g>
</g>
<!-- Node10&#45;&gt;Node3 -->
<g id="edge19_Node000010_Node000003" class="edge">
<title>Node10&#45;&gt;Node3</title>
<g id="a_edge19_Node000010_Node000003"><a xlink:title=" ">
<path fill="none" stroke="#63b8ff" d="M894.62,-165.73C750.14,-191.24 494.17,-236.42 378.75,-256.8"/>
<polygon fill="#63b8ff" stroke="#63b8ff" points="894.95,-169.23 904.19,-164.04 893.73,-162.33 894.95,-169.23"/>
</a>
</g>
</g>
<!-- Node10&#45;&gt;Node11 -->
<g id="edge20_Node000010_Node000011" class="edge">
<title>Node10&#45;&gt;Node11</title>
<g id="a_edge20_Node000010_Node000011"><a xlink:title=" ">
<path fill="none" stroke="#63b8ff" d="M892.9,-147.28C884.22,-147.28 875.5,-147.28 866.95,-147.28"/>
<polygon fill="#63b8ff" stroke="#63b8ff" points="892.77,-150.78 902.77,-147.28 892.77,-143.78 892.77,-150.78"/>
</a>
</g>
</g>
<!-- Node11&#45;&gt;Node2 -->
<g id="edge21_Node000011_Node000002" class="edge">
<title>Node11&#45;&gt;Node2</title>
<g id="a_edge21_Node000011_Node000002"><a xlink:title=" ">
<path fill="none" stroke="#63b8ff" d="M673.87,-147.28C665.14,-147.28 656.32,-147.28 647.63,-147.28"/>
<polygon fill="#63b8ff" stroke="#63b8ff" points="673.78,-150.78 683.78,-147.28 673.78,-143.78 673.78,-150.78"/>
</a>
</g>
</g>
<!-- Node13&#45;&gt;Node3 -->
<g id="edge25_Node000013_Node000003" class="edge">
<title>Node13&#45;&gt;Node3</title>
<g id="a_edge25_Node000013_Node000003"><a xlink:title=" ">
<path fill="none" stroke="#63b8ff" d="M671.48,-449.02C606.66,-449.67 523.1,-442.59 456.5,-410.28 392.44,-379.2 342.32,-304.89 325.48,-277.58"/>
<polygon fill="#63b8ff" stroke="#63b8ff" points="671.49,-452.52 681.43,-448.85 671.37,-445.52 671.49,-452.52"/>
</a>
</g>
</g>
</g>
</svg>

<g id="navigator" transform="translate(0 0)" fill="#404254">
  <rect fill="#f2f5e9" fill-opacity="0.5" stroke="#606060" stroke-width=".5" x="0" y="0" width="60" height="60"/>
  <use id="zoomplus" xlink:href="#zoomPlus" x="17" y="9" onmousedown="handleZoom(evt,'in')"/>
  <use id="zoomminus" xlink:href="#zoomMin" x="42" y="9" onmousedown="handleZoom(evt,'out')"/>
  <use id="reset" xlink:href="#resetDef" x="30" y="36" onmousedown="handleReset()"/>
   <use id="arrowup" xlink:href="#arrowUp" x="0" y="0" onmousedown="handlePan(0,-1)"/>
  <use id="arrowright" xlink:href="#arrowRight" x="0" y="0" onmousedown="handlePan(1,0)"/>
  <use id="arrowdown" xlink:href="#arrowDown" x="0" y="0" onmousedown="handlePan(0,1)"/>
  <use id="arrowleft" xlink:href="#arrowLeft" x="0" y="0" onmousedown="handlePan(-1,0)"/>
</g>
<svg viewBox="0 0 15 15" width="100%" height="30px" preserveAspectRatio="xMaxYMin meet">
 <g id="arrow_out" transform="scale(0.3 0.3)">
  <a xlink:href="classediteurpanovisu_1_1EditeurPanovisu_a77d966b1e46cab36a0b9ebe729701ec5_icgraph_org.svg" target="_base">
   <rect id="button" ry="5" rx="5" y="6" x="6" height="38" width="38"
        fill="#f2f5e9" fill-opacity="0.5" stroke="#606060" stroke-width="1.0"/>
   <path id="arrow"
     d="M 11.500037,31.436501 C 11.940474,20.09759 22.043105,11.32322 32.158766,21.979434 L 37.068811,17.246167 C 37.068811,17.246167 37.088388,32 37.088388,32 L 22.160133,31.978069 C 22.160133,31.978069 26.997745,27.140456 26.997745,27.140456 C 18.528582,18.264221 13.291696,25.230495 11.500037,31.436501 z"
     style="fill:#404040;"/>
  </a>
 </g>
</svg>

<style type='text/css'>
<![CDATA[
[data-mouse-over-selected='false'] { opacity: 0.7; }
[data-mouse-over-selected='true']  { opacity: 1.0; }
]]>
</style>
<script type="application/ecmascript"><![CDATA[
document.addEventListener('DOMContentLoaded', (event) => {
  highlightEdges();
  highlightAdjacentNodes();
});
]]></script>
</svg>
