<?xml version="1.0" encoding="UTF-8" standalone="no"?>
<!DOCTYPE svg PUBLIC "-//W3C//DTD SVG 1.1//EN"
 "http://www.w3.org/Graphics/SVG/1.1/DTD/svg11.dtd">
<!-- Generated by graphviz version 13.1.2 (20250808.2320)
 -->
<!-- Title: editeurpanovisu.GestionnaireInterfaceController.getStrPositionCarte Pages: 1 -->
<!--zoomable 488 -->

<svg id="main" version="1.1" xmlns="http://www.w3.org/2000/svg" xmlns:xlink="http://www.w3.org/1999/xlink" xml:space="preserve" onload="init(evt)">

<style type="text/css"><![CDATA[
.node, .edge {opacity: 0.7;}
.node.selected, .edge.selected {opacity: 1;}
.edge:hover path { stroke: red; }
.edge:hover polygon { stroke: red; fill: red; }
]]></style>

<defs>
  <circle id="rim" cx="0" cy="0" r="7"/>
  <circle id="rim2" cx="0" cy="0" r="3.5"/>
  <g id="zoomPlus">
    <use xlink:href="#rim" fill="#404040"><set attributeName="fill" to="#808080" begin="zoomplus.mouseover" end="zoomplus.mouseout"/></use>
    <path d="M-4,0h8M0,-4v8" fill="none" stroke="white" stroke-width="1.5" pointer-events="none"/>
  </g>
  <g id="zoomMin">
    <use xlink:href="#rim" fill="#404040"><set attributeName="fill" to="#808080" begin="zoomminus.mouseover" end="zoomminus.mouseout"/></use>
    <path d="M-4,0h8" fill="none" stroke="white" stroke-width="1.5" pointer-events="none"/>
  </g>
  <g id="arrowUp" transform="translate(30 24)">
    <use xlink:href="#rim"/>
    <path pointer-events="none" fill="none" stroke="white" stroke-width="1.5" d="M0,-3.0v7 M-2.5,-0.5L0,-3.0L2.5,-0.5"/>
  </g>
  <g id="arrowRight" transform="rotate(90) translate(36 -43)">
    <use xlink:href="#rim"/>
    <path pointer-events="none" fill="none" stroke="white" stroke-width="1.5" d="M0,-3.0v7 M-2.5,-0.5L0,-3.0L2.5,-0.5"/>
  </g>
  <g id="arrowDown" transform="rotate(180) translate(-30 -48)">
    <use xlink:href="#rim"/>
    <path pointer-events="none" fill="none" stroke="white" stroke-width="1.5" d="M0,-3.0v7 M-2.5,-0.5L0,-3.0L2.5,-0.5"/>
  </g>
  <g id="arrowLeft" transform="rotate(270) translate(-36 17)">
    <use xlink:href="#rim"/>
    <path pointer-events="none" fill="none" stroke="white" stroke-width="1.5" d="M0,-3.0v7 M-2.5,-0.5L0,-3.0L2.5,-0.5"/>
  </g>
  <g id="resetDef">
    <use xlink:href="#rim2" fill="#404040"><set attributeName="fill" to="#808080" begin="reset.mouseover" end="reset.mouseout"/></use>
  </g>
</defs>
<script type="application/ecmascript">
var viewWidth = 2644;
var viewHeight = 488;
var sectionId = 'dynsection-183';
</script>
<script type="application/ecmascript" xlink:href="svg.min.js"/>
<svg id="graph" class="graph">
<g id="viewport">
<title>editeurpanovisu.GestionnaireInterfaceController.getStrPositionCarte</title>
<!-- Node1 -->
<g id="Node000001" class="node">
<title>Node1</title>
<g id="a_Node000001"><a xlink:title=" ">
<polygon fill="#999999" stroke="#666666" points="2636.25,-147.29 2451.5,-147.29 2451.5,-115.29 2636.25,-115.29 2636.25,-147.29"/>
<text xml:space="preserve" text-anchor="start" x="2459.5" y="-133.79" font-family="Helvetica,sans-Serif" font-size="10.00">editeurpanovisu.Gestionnaire</text>
<text xml:space="preserve" text-anchor="middle" x="2543.88" y="-121.79" font-family="Helvetica,sans-Serif" font-size="10.00">InterfaceController.getStrPositionCarte</text>
</a>
</g>
</g>
<!-- Node2 -->
<g id="Node000002" class="node">
<title>Node2</title>
<g id="a_Node000002"><a xlink:href="classediteurpanovisu_1_1GestionnaireInterfaceController.html#aac0a5ca6534a81893b2464d1102db5af" target="_top" xlink:title=" ">
<polygon fill="white" stroke="#666666" points="2408.38,-235.29 2256.62,-235.29 2256.62,-203.29 2408.38,-203.29 2408.38,-235.29"/>
<text xml:space="preserve" text-anchor="start" x="2264.62" y="-221.79" font-family="Helvetica,sans-Serif" font-size="10.00">editeurpanovisu.Gestionnaire</text>
<text xml:space="preserve" text-anchor="middle" x="2332.5" y="-209.79" font-family="Helvetica,sans-Serif" font-size="10.00">InterfaceController.afficheCarte</text>
</a>
</g>
</g>
<!-- Node1&#45;&gt;Node2 -->
<g id="edge1_Node000001_Node000002" class="edge">
<title>Node1&#45;&gt;Node2</title>
<g id="a_edge1_Node000001_Node000002"><a xlink:title=" ">
<path fill="none" stroke="#63b8ff" d="M2493.45,-152.06C2456.51,-167.59 2406.7,-188.52 2372.54,-202.88"/>
<polygon fill="#63b8ff" stroke="#63b8ff" points="2494.73,-155.32 2502.59,-148.22 2492.01,-148.87 2494.73,-155.32"/>
</a>
</g>
</g>
<!-- Node3 -->
<g id="Node000003" class="node">
<title>Node3</title>
<g id="a_Node000003"><a xlink:href="classediteurpanovisu_1_1GestionnaireInterfaceController.html#a55c8afda208674955a13d48d02be41b8" target="_top" xlink:title=" ">
<polygon fill="white" stroke="#666666" points="2213.5,-329.29 2046,-329.29 2046,-297.29 2213.5,-297.29 2213.5,-329.29"/>
<text xml:space="preserve" text-anchor="start" x="2054" y="-315.79" font-family="Helvetica,sans-Serif" font-size="10.00">editeurpanovisu.Gestionnaire</text>
<text xml:space="preserve" text-anchor="middle" x="2129.75" y="-303.79" font-family="Helvetica,sans-Serif" font-size="10.00">InterfaceController.afficheTemplate</text>
</a>
</g>
</g>
<!-- Node1&#45;&gt;Node3 -->
<g id="edge37_Node000001_Node000003" class="edge">
<title>Node1&#45;&gt;Node3</title>
<g id="a_edge37_Node000001_Node000003"><a xlink:title=" ">
<path fill="none" stroke="#63b8ff" d="M2521.87,-156.02C2498.51,-181.92 2458.39,-221.87 2415.5,-244.29 2352.28,-277.34 2272.86,-294.89 2213.97,-304"/>
<polygon fill="#63b8ff" stroke="#63b8ff" points="2524.4,-158.44 2528.4,-148.63 2519.15,-153.8 2524.4,-158.44"/>
</a>
</g>
</g>
<!-- Node11 -->
<g id="Node000011" class="node">
<title>Node11</title>
<g id="a_Node000011"><a xlink:href="classediteurpanovisu_1_1EditeurPanovisu.html#a94e36b9e9d09ab1a4c852b8a8cefa927" target="_top" xlink:title=" ">
<polygon fill="white" stroke="#666666" points="647.25,-248.29 456.5,-248.29 456.5,-216.29 647.25,-216.29 647.25,-248.29"/>
<text xml:space="preserve" text-anchor="start" x="464.5" y="-234.79" font-family="Helvetica,sans-Serif" font-size="10.00">editeurpanovisu.EditeurPanovisu.genere</text>
<text xml:space="preserve" text-anchor="middle" x="551.88" y="-222.79" font-family="Helvetica,sans-Serif" font-size="10.00">Visite</text>
</a>
</g>
</g>
<!-- Node1&#45;&gt;Node11 -->
<g id="edge39_Node000001_Node000011" class="edge">
<title>Node1&#45;&gt;Node11</title>
<g id="a_edge39_Node000001_Node000011"><a xlink:title=" ">
<path fill="none" stroke="#63b8ff" d="M2439.79,-116.49C2356.57,-105.82 2236.37,-93.29 2130.75,-93.29 2130.75,-93.29 2130.75,-93.29 1260,-93.29 1008.52,-93.29 716.02,-178.98 601.95,-215.8"/>
<polygon fill="#63b8ff" stroke="#63b8ff" points="2439.16,-119.93 2449.53,-117.75 2440.06,-112.99 2439.16,-119.93"/>
</a>
</g>
</g>
<!-- Node18 -->
<g id="Node000018" class="node">
<title>Node18</title>
<g id="a_Node000018"><a xlink:href="classediteurpanovisu_1_1GestionnaireInterfaceController.html#ac7fa988dc99d8684686127a2269cd66e" target="_top" xlink:title=" ">
<polygon fill="white" stroke="#666666" points="2000.62,-191.29 1844.38,-191.29 1844.38,-159.29 2000.62,-159.29 2000.62,-191.29"/>
<text xml:space="preserve" text-anchor="start" x="1852.38" y="-177.79" font-family="Helvetica,sans-Serif" font-size="10.00">editeurpanovisu.Gestionnaire</text>
<text xml:space="preserve" text-anchor="middle" x="1922.5" y="-165.79" font-family="Helvetica,sans-Serif" font-size="10.00">InterfaceController.creeInterface</text>
</a>
</g>
</g>
<!-- Node1&#45;&gt;Node18 -->
<g id="edge38_Node000001_Node000018" class="edge">
<title>Node1&#45;&gt;Node18</title>
<g id="a_edge38_Node000001_Node000018"><a xlink:title=" ">
<path fill="none" stroke="#63b8ff" d="M2440.01,-130.34C2339.26,-130.57 2181.55,-133.98 2046,-150.29 2029.08,-152.32 2011.02,-155.46 1994.11,-158.83"/>
<polygon fill="#63b8ff" stroke="#63b8ff" points="2439.89,-133.84 2449.89,-130.33 2439.88,-126.84 2439.89,-133.84"/>
</a>
</g>
</g>
<!-- Node22 -->
<g id="Node000022" class="node">
<title>Node22</title>
<g id="a_Node000022"><a xlink:href="classediteurpanovisu_1_1GestionnaireInterfaceController.html#ab66509c63a85a8285a081b24049e8774" target="_top" xlink:title=" ">
<polygon fill="white" stroke="#666666" points="2415.5,-65.29 2249.5,-65.29 2249.5,-33.29 2415.5,-33.29 2415.5,-65.29"/>
<text xml:space="preserve" text-anchor="start" x="2257.5" y="-51.79" font-family="Helvetica,sans-Serif" font-size="10.00">editeurpanovisu.Gestionnaire</text>
<text xml:space="preserve" text-anchor="middle" x="2332.5" y="-39.79" font-family="Helvetica,sans-Serif" font-size="10.00">InterfaceController.strGetTemplate</text>
</a>
</g>
</g>
<!-- Node1&#45;&gt;Node22 -->
<g id="edge40_Node000001_Node000022" class="edge">
<title>Node1&#45;&gt;Node22</title>
<g id="a_edge40_Node000001_Node000022"><a xlink:title=" ">
<path fill="none" stroke="#63b8ff" d="M2493.3,-110.55C2469.8,-100.85 2441.29,-89.27 2415.5,-79.29 2403.77,-74.75 2391.02,-70 2379.15,-65.65"/>
<polygon fill="#63b8ff" stroke="#63b8ff" points="2491.74,-113.7 2502.32,-114.29 2494.42,-107.23 2491.74,-113.7"/>
</a>
</g>
</g>
<!-- Node2&#45;&gt;Node3 -->
<g id="edge2_Node000002_Node000003" class="edge">
<title>Node2&#45;&gt;Node3</title>
<g id="a_edge2_Node000002_Node000003"><a xlink:title=" ">
<path fill="none" stroke="#63b8ff" d="M2297.91,-241.81C2274.89,-256.51 2243.25,-275.31 2213.5,-288.29 2206.35,-291.41 2198.69,-294.29 2191.02,-296.91"/>
<polygon fill="#63b8ff" stroke="#63b8ff" points="2299.77,-244.78 2306.26,-236.4 2295.96,-238.9 2299.77,-244.78"/>
</a>
</g>
</g>
<!-- Node17 -->
<g id="Node000017" class="node">
<title>Node17</title>
<g id="a_Node000017"><a xlink:href="classediteurpanovisu_1_1GestionnaireInterfaceController.html#a8c634f775c31c1a4db22d5ef0659f7e4" target="_top" xlink:title=" ">
<polygon fill="white" stroke="#666666" points="2203.38,-191.29 2056.12,-191.29 2056.12,-159.29 2203.38,-159.29 2203.38,-191.29"/>
<text xml:space="preserve" text-anchor="start" x="2064.12" y="-177.79" font-family="Helvetica,sans-Serif" font-size="10.00">editeurpanovisu.Gestionnaire</text>
<text xml:space="preserve" text-anchor="middle" x="2129.75" y="-165.79" font-family="Helvetica,sans-Serif" font-size="10.00">InterfaceController.afficheTitre</text>
</a>
</g>
</g>
<!-- Node2&#45;&gt;Node17 -->
<g id="edge28_Node000002_Node000017" class="edge">
<title>Node2&#45;&gt;Node17</title>
<g id="a_edge28_Node000002_Node000017"><a xlink:title=" ">
<path fill="none" stroke="#63b8ff" d="M2245.42,-200.42C2231.52,-197.37 2217.25,-194.25 2203.7,-191.28"/>
<polygon fill="#63b8ff" stroke="#63b8ff" points="2244.47,-203.8 2254.98,-202.52 2245.97,-196.96 2244.47,-203.8"/>
</a>
</g>
</g>
<!-- Node2&#45;&gt;Node18 -->
<g id="edge30_Node000002_Node000018" class="edge">
<title>Node2&#45;&gt;Node18</title>
<g id="a_edge30_Node000002_Node000018"><a xlink:title=" ">
<path fill="none" stroke="#63b8ff" d="M2244.93,-216.56C2188.17,-214.03 2112.44,-209.24 2046,-200.29 2029.76,-198.1 2012.44,-195.03 1996.1,-191.78"/>
<polygon fill="#63b8ff" stroke="#63b8ff" points="2244.73,-220.06 2254.87,-216.99 2245.03,-213.06 2244.73,-220.06"/>
</a>
</g>
</g>
<!-- Node19 -->
<g id="Node000019" class="node">
<title>Node19</title>
<g id="a_Node000019"><a xlink:href="classediteurpanovisu_1_1GestionnaireInterfaceController.html#a568c34e865fb653f63b8fa7a9a9cafc8" target="_top" xlink:title=" ">
<polygon fill="white" stroke="#666666" points="2200.75,-279.29 2058.75,-279.29 2058.75,-247.29 2200.75,-247.29 2200.75,-279.29"/>
<text xml:space="preserve" text-anchor="start" x="2066.75" y="-265.79" font-family="Helvetica,sans-Serif" font-size="10.00">editeurpanovisu.Gestionnaire</text>
<text xml:space="preserve" text-anchor="middle" x="2129.75" y="-253.79" font-family="Helvetica,sans-Serif" font-size="10.00">InterfaceController.rafraichit</text>
</a>
</g>
</g>
<!-- Node2&#45;&gt;Node19 -->
<g id="edge31_Node000002_Node000019" class="edge">
<title>Node2&#45;&gt;Node19</title>
<g id="a_edge31_Node000002_Node000019"><a xlink:title=" ">
<path fill="none" stroke="#63b8ff" d="M2245.28,-238.19C2230.51,-241.42 2215.33,-244.75 2201.05,-247.88"/>
<polygon fill="#63b8ff" stroke="#63b8ff" points="2245.97,-241.62 2254.98,-236.06 2244.47,-234.78 2245.97,-241.62"/>
</a>
</g>
</g>
<!-- Node4 -->
<g id="Node000004" class="node">
<title>Node4</title>
<g id="a_Node000004"><a xlink:href="classediteurpanovisu_1_1EditeurPanovisu.html#a87b29dc258cfc67370b1f27809e91b8e" target="_top" xlink:title=" ">
<polygon fill="white" stroke="#666666" points="2010,-329.29 1835,-329.29 1835,-297.29 2010,-297.29 2010,-329.29"/>
<text xml:space="preserve" text-anchor="start" x="1843" y="-315.79" font-family="Helvetica,sans-Serif" font-size="10.00">editeurpanovisu.EditeurPanovisu.tsk</text>
<text xml:space="preserve" text-anchor="middle" x="1922.5" y="-303.79" font-family="Helvetica,sans-Serif" font-size="10.00">AnalyseFichierPVU</text>
</a>
</g>
</g>
<!-- Node3&#45;&gt;Node4 -->
<g id="edge3_Node000003_Node000004" class="edge">
<title>Node3&#45;&gt;Node4</title>
<g id="a_edge3_Node000003_Node000004"><a xlink:title=" ">
<path fill="none" stroke="#63b8ff" d="M2034.1,-313.29C2026.23,-313.29 2018.29,-313.29 2010.48,-313.29"/>
<polygon fill="#63b8ff" stroke="#63b8ff" points="2034.05,-316.79 2044.05,-313.29 2034.05,-309.79 2034.05,-316.79"/>
</a>
</g>
</g>
<!-- Node5 -->
<g id="Node000005" class="node">
<title>Node5</title>
<g id="a_Node000005"><a xlink:href="classediteurpanovisu_1_1EditeurPanovisu.html#ab4beb1597b660a4a253befc6e76f1c54" target="_top" xlink:title=" ">
<polygon fill="white" stroke="#666666" points="1129.62,-443.29 944.12,-443.29 944.12,-411.29 1129.62,-411.29 1129.62,-443.29"/>
<text xml:space="preserve" text-anchor="start" x="952.12" y="-429.79" font-family="Helvetica,sans-Serif" font-size="10.00">editeurpanovisu.EditeurPanovisu.projet</text>
<text xml:space="preserve" text-anchor="middle" x="1036.88" y="-417.79" font-family="Helvetica,sans-Serif" font-size="10.00">Charge</text>
</a>
</g>
</g>
<!-- Node4&#45;&gt;Node5 -->
<g id="edge4_Node000004_Node000005" class="edge">
<title>Node4&#45;&gt;Node5</title>
<g id="a_edge4_Node000004_Node000005"><a xlink:title=" ">
<path fill="none" stroke="#63b8ff" d="M1834.91,-331.91C1822.88,-334.22 1810.65,-336.42 1799,-338.29 1558.77,-376.78 1273.35,-405.69 1129.9,-419.07"/>
<polygon fill="#63b8ff" stroke="#63b8ff" points="1835.25,-335.41 1844.4,-330.06 1833.91,-328.54 1835.25,-335.41"/>
</a>
</g>
</g>
<!-- Node8 -->
<g id="Node000008" class="node">
<title>Node8</title>
<g id="a_Node000008"><a xlink:href="classediteurpanovisu_1_1EditeurPanovisu.html#a6d19b4d885ee6fcec827b91956295732" target="_top" xlink:title=" ">
<polygon fill="white" stroke="#666666" points="1799,-329.29 1613.5,-329.29 1613.5,-297.29 1799,-297.29 1799,-329.29"/>
<text xml:space="preserve" text-anchor="start" x="1621.5" y="-315.79" font-family="Helvetica,sans-Serif" font-size="10.00">editeurpanovisu.EditeurPanovisu.projet</text>
<text xml:space="preserve" text-anchor="middle" x="1706.25" y="-303.79" font-family="Helvetica,sans-Serif" font-size="10.00">ChargeNom</text>
</a>
</g>
</g>
<!-- Node4&#45;&gt;Node8 -->
<g id="edge7_Node000004_Node000008" class="edge">
<title>Node4&#45;&gt;Node8</title>
<g id="a_edge7_Node000004_Node000008"><a xlink:title=" ">
<path fill="none" stroke="#63b8ff" d="M1823.16,-313.29C1815.26,-313.29 1807.3,-313.29 1799.45,-313.29"/>
<polygon fill="#63b8ff" stroke="#63b8ff" points="1823.15,-316.79 1833.15,-313.29 1823.15,-309.79 1823.15,-316.79"/>
</a>
</g>
</g>
<!-- Node6 -->
<g id="Node000006" class="node">
<title>Node6</title>
<g id="a_Node000006"><a xlink:href="classediteurpanovisu_1_1EditeurPanovisu.html#ac912b80c1f2ac97def60ff005c5c480b" target="_top" xlink:title=" ">
<polygon fill="white" stroke="#666666" points="420.5,-280.29 216.25,-280.29 216.25,-260.29 420.5,-260.29 420.5,-280.29"/>
<text xml:space="preserve" text-anchor="middle" x="318.38" y="-266.79" font-family="Helvetica,sans-Serif" font-size="10.00">editeurpanovisu.EditeurPanovisu.creeMenu</text>
</a>
</g>
</g>
<!-- Node5&#45;&gt;Node6 -->
<g id="edge5_Node000005_Node000006" class="edge">
<title>Node5&#45;&gt;Node6</title>
<g id="a_edge5_Node000005_Node000006"><a xlink:title=" ">
<path fill="none" stroke="#63b8ff" d="M932.47,-442.45C812.8,-455.46 612.24,-463.03 456.5,-397.29 395.52,-371.55 344.65,-306.18 326.5,-280.69"/>
<polygon fill="#63b8ff" stroke="#63b8ff" points="932.74,-445.95 942.29,-441.35 931.96,-438.99 932.74,-445.95"/>
</a>
</g>
</g>
<!-- Node7 -->
<g id="Node000007" class="node">
<title>Node7</title>
<g id="a_Node000007"><a xlink:href="classediteurpanovisu_1_1EditeurPanovisu.html#a86c393eee88f54c694db994ddd85b90d" target="_top" xlink:title=" ">
<polygon fill="white" stroke="#666666" points="180.25,-286.29 0,-286.29 0,-254.29 180.25,-254.29 180.25,-286.29"/>
<text xml:space="preserve" text-anchor="start" x="8" y="-272.79" font-family="Helvetica,sans-Serif" font-size="10.00">editeurpanovisu.EditeurPanovisu.cree</text>
<text xml:space="preserve" text-anchor="middle" x="90.12" y="-260.79" font-family="Helvetica,sans-Serif" font-size="10.00">Environnement</text>
</a>
</g>
</g>
<!-- Node6&#45;&gt;Node7 -->
<g id="edge6_Node000006_Node000007" class="edge">
<title>Node6&#45;&gt;Node7</title>
<g id="a_edge6_Node000006_Node000007"><a xlink:title=" ">
<path fill="none" stroke="#63b8ff" d="M204.51,-270.29C196.49,-270.29 188.46,-270.29 180.6,-270.29"/>
<polygon fill="#63b8ff" stroke="#63b8ff" points="204.32,-273.79 214.32,-270.29 204.32,-266.79 204.32,-273.79"/>
</a>
</g>
</g>
<!-- Node8&#45;&gt;Node6 -->
<g id="edge27_Node000008_Node000006" class="edge">
<title>Node8&#45;&gt;Node6</title>
<g id="a_edge27_Node000008_Node000006"><a xlink:title=" ">
<path fill="none" stroke="#63b8ff" d="M1654.56,-333.85C1544.34,-376.63 1273.81,-471.29 1037.88,-471.29 1037.88,-471.29 1037.88,-471.29 793.38,-471.29 642.75,-471.29 589.26,-505.43 456.5,-434.29 387.8,-397.48 339.54,-310.7 324.41,-280.71"/>
<polygon fill="#63b8ff" stroke="#63b8ff" points="1655.58,-337.2 1663.62,-330.3 1653.03,-330.68 1655.58,-337.2"/>
</a>
</g>
</g>
<!-- Node9 -->
<g id="Node000009" class="node">
<title>Node9</title>
<g id="a_Node000009"><a xlink:href="classediteurpanovisu_1_1EditeurPanovisu.html#af0d1c32bb78acbff561c822a0d15f760" target="_top" xlink:title=" ">
<polygon fill="white" stroke="#666666" points="1577.5,-311.29 1389.75,-311.29 1389.75,-279.29 1577.5,-279.29 1577.5,-311.29"/>
<text xml:space="preserve" text-anchor="start" x="1397.75" y="-297.79" font-family="Helvetica,sans-Serif" font-size="10.00">editeurpanovisu.EditeurPanovisu.ajoute</text>
<text xml:space="preserve" text-anchor="middle" x="1483.62" y="-285.79" font-family="Helvetica,sans-Serif" font-size="10.00">FichierHisto</text>
</a>
</g>
</g>
<!-- Node8&#45;&gt;Node9 -->
<g id="edge8_Node000008_Node000009" class="edge">
<title>Node8&#45;&gt;Node9</title>
<g id="a_edge8_Node000008_Node000009"><a xlink:title=" ">
<path fill="none" stroke="#63b8ff" d="M1601.97,-298.12C1593.92,-297.44 1585.83,-296.8 1577.86,-296.22"/>
<polygon fill="#63b8ff" stroke="#63b8ff" points="1601.51,-301.6 1611.77,-298.99 1602.12,-294.62 1601.51,-301.6"/>
</a>
</g>
</g>
<!-- Node9&#45;&gt;Node5 -->
<g id="edge9_Node000009_Node000005" class="edge">
<title>Node9&#45;&gt;Node5</title>
<g id="a_edge9_Node000009_Node000005"><a xlink:title=" ">
<path fill="none" stroke="#63b8ff" d="M1416.3,-314.97C1328.5,-341.03 1175.25,-386.51 1093.3,-410.84"/>
<polygon fill="#63b8ff" stroke="#63b8ff" points="1417.15,-318.37 1425.75,-312.17 1415.16,-311.66 1417.15,-318.37"/>
</a>
</g>
</g>
<!-- Node9&#45;&gt;Node8 -->
<g id="edge10_Node000009_Node000008" class="edge">
<title>Node9&#45;&gt;Node8</title>
<g id="a_edge10_Node000009_Node000008"><a xlink:title=" ">
<path fill="none" stroke="#63b8ff" d="M1589.19,-310.56C1597.24,-311.24 1605.33,-311.88 1613.28,-312.45"/>
<polygon fill="#63b8ff" stroke="#63b8ff" points="1589.64,-307.09 1579.37,-309.7 1589.03,-314.06 1589.64,-307.09"/>
</a>
</g>
</g>
<!-- Node10 -->
<g id="Node000010" class="node">
<title>Node10</title>
<g id="a_Node000010"><a xlink:href="classediteurpanovisu_1_1EditeurPanovisu.html#a9f3ea25b35d4884524508dab3dc4fd6a" target="_top" xlink:title=" ">
<polygon fill="white" stroke="#666666" points="1353.75,-311.29 1168.25,-311.29 1168.25,-279.29 1353.75,-279.29 1353.75,-311.29"/>
<text xml:space="preserve" text-anchor="start" x="1176.25" y="-297.79" font-family="Helvetica,sans-Serif" font-size="10.00">editeurpanovisu.EditeurPanovisu.projet</text>
<text xml:space="preserve" text-anchor="middle" x="1261" y="-285.79" font-family="Helvetica,sans-Serif" font-size="10.00">Sauve</text>
</a>
</g>
</g>
<!-- Node9&#45;&gt;Node10 -->
<g id="edge11_Node000009_Node000010" class="edge">
<title>Node9&#45;&gt;Node10</title>
<g id="a_edge11_Node000009_Node000010"><a xlink:title=" ">
<path fill="none" stroke="#63b8ff" d="M1378.13,-295.29C1370.14,-295.29 1362.11,-295.29 1354.21,-295.29"/>
<polygon fill="#63b8ff" stroke="#63b8ff" points="1377.87,-298.79 1387.87,-295.29 1377.87,-291.79 1377.87,-298.79"/>
</a>
</g>
</g>
<!-- Node16 -->
<g id="Node000016" class="node">
<title>Node16</title>
<g id="a_Node000016"><a xlink:href="classediteurpanovisu_1_1EditeurPanovisu.html#a7b2e25dc717eb52b62e23d54ec4c124a" target="_top" xlink:title=" ">
<polygon fill="white" stroke="#666666" points="1353.75,-65.29 1168.25,-65.29 1168.25,-33.29 1353.75,-33.29 1353.75,-65.29"/>
<text xml:space="preserve" text-anchor="start" x="1176.25" y="-51.79" font-family="Helvetica,sans-Serif" font-size="10.00">editeurpanovisu.EditeurPanovisu.projet</text>
<text xml:space="preserve" text-anchor="middle" x="1261" y="-39.79" font-family="Helvetica,sans-Serif" font-size="10.00">SauveSous</text>
</a>
</g>
</g>
<!-- Node9&#45;&gt;Node16 -->
<g id="edge25_Node000009_Node000016" class="edge">
<title>Node9&#45;&gt;Node16</title>
<g id="a_edge25_Node000009_Node000016"><a xlink:title=" ">
<path fill="none" stroke="#63b8ff" d="M1461.07,-270.88C1435.54,-242 1391.69,-192.52 1353.75,-150.29 1326.83,-120.33 1295.21,-85.62 1276.99,-65.68"/>
<polygon fill="#63b8ff" stroke="#63b8ff" points="1458.13,-272.83 1467.38,-278.01 1463.38,-268.2 1458.13,-272.83"/>
</a>
</g>
</g>
<!-- Node10&#45;&gt;Node5 -->
<g id="edge15_Node000010_Node000005" class="edge">
<title>Node10&#45;&gt;Node5</title>
<g id="a_edge15_Node000010_Node000005"><a xlink:title=" ">
<path fill="none" stroke="#63b8ff" d="M1219.43,-317.09C1202.73,-327.02 1183.7,-339.61 1168.25,-353.29 1149.33,-370.03 1153.15,-383.1 1132.25,-397.29 1124.28,-402.7 1115.29,-407.17 1106.09,-410.87"/>
<polygon fill="#63b8ff" stroke="#63b8ff" points="1220.76,-320.37 1227.65,-312.33 1217.25,-314.32 1220.76,-320.37"/>
</a>
</g>
</g>
<!-- Node10&#45;&gt;Node6 -->
<g id="edge12_Node000010_Node000006" class="edge">
<title>Node10&#45;&gt;Node6</title>
<g id="a_edge12_Node000010_Node000006"><a xlink:title=" ">
<path fill="none" stroke="#63b8ff" d="M1195.99,-315.96C1186.39,-320.12 1176.84,-324.9 1168.25,-330.29 1149.61,-341.99 1152.7,-356.16 1132.25,-364.29 1019.81,-408.99 642.1,-353.19 456.5,-314.29 417.35,-306.08 373.57,-290.95 346.24,-280.75"/>
<polygon fill="#63b8ff" stroke="#63b8ff" points="1197.07,-319.31 1204.99,-312.27 1194.41,-312.83 1197.07,-319.31"/>
</a>
</g>
</g>
<!-- Node10&#45;&gt;Node8 -->
<g id="edge16_Node000010_Node000008" class="edge">
<title>Node10&#45;&gt;Node8</title>
<g id="a_edge16_Node000010_Node000008"><a xlink:title=" ">
<path fill="none" stroke="#63b8ff" d="M1344.57,-313.86C1359.53,-316.54 1375.05,-318.86 1389.75,-320.29 1464.73,-327.56 1550.18,-325 1613.23,-321.07"/>
<polygon fill="#63b8ff" stroke="#63b8ff" points="1345.22,-310.42 1334.75,-312.04 1343.94,-317.31 1345.22,-310.42"/>
</a>
</g>
</g>
<!-- Node10&#45;&gt;Node11 -->
<g id="edge13_Node000010_Node000011" class="edge">
<title>Node10&#45;&gt;Node11</title>
<g id="a_edge13_Node000010_Node000011"><a xlink:title=" ">
<path fill="none" stroke="#63b8ff" d="M1156.62,-286.08C1019.72,-273.88 780.18,-252.54 647.71,-240.74"/>
<polygon fill="#63b8ff" stroke="#63b8ff" points="1156.14,-289.55 1166.41,-286.95 1156.76,-282.58 1156.14,-289.55"/>
</a>
</g>
</g>
<!-- Node12 -->
<g id="Node000012" class="node">
<title>Node12</title>
<g id="a_Node000012"><a xlink:href="classediteurpanovisu_1_1EditeurPanovisu.html#a9b46b222714af12c06ec33d410400773" target="_top" xlink:title=" ">
<polygon fill="white" stroke="#666666" points="647.25,-305.29 456.5,-305.29 456.5,-273.29 647.25,-273.29 647.25,-305.29"/>
<text xml:space="preserve" text-anchor="start" x="464.5" y="-291.79" font-family="Helvetica,sans-Serif" font-size="10.00">editeurpanovisu.EditeurPanovisu.projets</text>
<text xml:space="preserve" text-anchor="middle" x="551.88" y="-279.79" font-family="Helvetica,sans-Serif" font-size="10.00">Fermer</text>
</a>
</g>
</g>
<!-- Node10&#45;&gt;Node12 -->
<g id="edge17_Node000010_Node000012" class="edge">
<title>Node10&#45;&gt;Node12</title>
<g id="a_edge17_Node000010_Node000012"><a xlink:title=" ">
<path fill="none" stroke="#63b8ff" d="M1156.62,-294.41C1019.72,-293.25 780.18,-291.22 647.71,-290.09"/>
<polygon fill="#63b8ff" stroke="#63b8ff" points="1156.38,-297.91 1166.41,-294.49 1156.44,-290.91 1156.38,-297.91"/>
</a>
</g>
</g>
<!-- Node13 -->
<g id="Node000013" class="node">
<title>Node13</title>
<g id="a_Node000013"><a xlink:href="classediteurpanovisu_1_1EditeurPanovisu.html#ac9d449399ccd38843fa12e716f0c9611" target="_top" xlink:title=" ">
<polygon fill="white" stroke="#666666" points="1132.25,-191.29 941.5,-191.29 941.5,-159.29 1132.25,-159.29 1132.25,-191.29"/>
<text xml:space="preserve" text-anchor="start" x="949.5" y="-177.79" font-family="Helvetica,sans-Serif" font-size="10.00">editeurpanovisu.EditeurPanovisu.projets</text>
<text xml:space="preserve" text-anchor="middle" x="1036.88" y="-165.79" font-family="Helvetica,sans-Serif" font-size="10.00">Nouveau</text>
</a>
</g>
</g>
<!-- Node10&#45;&gt;Node13 -->
<g id="edge19_Node000010_Node000013" class="edge">
<title>Node10&#45;&gt;Node13</title>
<g id="a_edge19_Node000010_Node000013"><a xlink:title=" ">
<path fill="none" stroke="#63b8ff" d="M1231.99,-271.73C1207.11,-251.78 1169.1,-223.58 1132.25,-205.29 1121.86,-200.13 1110.38,-195.6 1099.12,-191.74"/>
<polygon fill="#63b8ff" stroke="#63b8ff" points="1229.7,-274.38 1239.67,-277.98 1234.12,-268.95 1229.7,-274.38"/>
</a>
</g>
</g>
<!-- Node14 -->
<g id="Node000014" class="node">
<title>Node14</title>
<g id="a_Node000014"><a xlink:href="classediteurpanovisu_1_1EditeurPanovisu.html#a2b3125ffe2e6291efacf19df6cb30a8d" target="_top" xlink:title=" ">
<polygon fill="white" stroke="#666666" points="884.88,-229.29 703.88,-229.29 703.88,-209.29 884.88,-209.29 884.88,-229.29"/>
<text xml:space="preserve" text-anchor="middle" x="794.38" y="-215.79" font-family="Helvetica,sans-Serif" font-size="10.00">editeurpanovisu.EditeurPanovisu.start</text>
</a>
</g>
</g>
<!-- Node10&#45;&gt;Node14 -->
<g id="edge24_Node000010_Node000014" class="edge">
<title>Node10&#45;&gt;Node14</title>
<g id="a_edge24_Node000010_Node000014"><a xlink:title=" ">
<path fill="none" stroke="#63b8ff" d="M1217.54,-274.06C1193.2,-262.9 1161.71,-250.15 1132.25,-243.29 1050.02,-224.13 953.71,-218.94 885.18,-218.05"/>
<polygon fill="#63b8ff" stroke="#63b8ff" points="1215.94,-277.17 1226.48,-278.24 1218.9,-270.83 1215.94,-277.17"/>
</a>
</g>
</g>
<!-- Node15 -->
<g id="Node000015" class="node">
<title>Node15</title>
<g id="a_Node000015"><a xlink:href="classediteurpanovisu_1_1EditeurPanovisu.html#aef8c9b28c3e88d6e27e3f62b9a901134" target="_top" xlink:title=" ">
<polygon fill="white" stroke="#666666" points="1130.75,-355.29 943,-355.29 943,-323.29 1130.75,-323.29 1130.75,-355.29"/>
<text xml:space="preserve" text-anchor="start" x="951" y="-341.79" font-family="Helvetica,sans-Serif" font-size="10.00">editeurpanovisu.EditeurPanovisu.sauve</text>
<text xml:space="preserve" text-anchor="middle" x="1036.88" y="-329.79" font-family="Helvetica,sans-Serif" font-size="10.00">Fichiers</text>
</a>
</g>
</g>
<!-- Node10&#45;&gt;Node15 -->
<g id="edge23_Node000010_Node000015" class="edge">
<title>Node10&#45;&gt;Node15</title>
<g id="a_edge23_Node000010_Node000015"><a xlink:title=" ">
<path fill="none" stroke="#63b8ff" d="M1165.74,-313.96C1150.93,-316.89 1135.71,-319.91 1121.17,-322.79"/>
<polygon fill="#63b8ff" stroke="#63b8ff" points="1166.36,-317.41 1175.49,-312.03 1165,-310.54 1166.36,-317.41"/>
</a>
</g>
</g>
<!-- Node11&#45;&gt;Node6 -->
<g id="edge14_Node000011_Node000006" class="edge">
<title>Node11&#45;&gt;Node6</title>
<g id="a_edge14_Node000011_Node000006"><a xlink:title=" ">
<path fill="none" stroke="#63b8ff" d="M444.79,-249.7C423.8,-253.15 402.38,-256.66 383.33,-259.79"/>
<polygon fill="#63b8ff" stroke="#63b8ff" points="445.25,-253.17 454.55,-248.1 444.12,-246.27 445.25,-253.17"/>
</a>
</g>
</g>
<!-- Node12&#45;&gt;Node6 -->
<g id="edge18_Node000012_Node000006" class="edge">
<title>Node12&#45;&gt;Node6</title>
<g id="a_edge18_Node000012_Node000006"><a xlink:title=" ">
<path fill="none" stroke="#63b8ff" d="M444.81,-280.58C436.83,-279.93 428.78,-279.27 420.83,-278.61"/>
<polygon fill="#63b8ff" stroke="#63b8ff" points="444.29,-284.05 454.54,-281.38 444.86,-277.08 444.29,-284.05"/>
</a>
</g>
</g>
<!-- Node13&#45;&gt;Node6 -->
<g id="edge20_Node000013_Node000006" class="edge">
<title>Node13&#45;&gt;Node6</title>
<g id="a_edge20_Node000013_Node000006"><a xlink:title=" ">
<path fill="none" stroke="#63b8ff" d="M929.73,-169.4C812.18,-165.57 617.96,-167.27 456.5,-207.29 410.73,-218.63 361.53,-245.17 336.35,-259.93"/>
<polygon fill="#63b8ff" stroke="#63b8ff" points="929.58,-172.89 939.7,-169.74 929.82,-165.9 929.58,-172.89"/>
</a>
</g>
</g>
<!-- Node13&#45;&gt;Node14 -->
<g id="edge21_Node000013_Node000014" class="edge">
<title>Node13&#45;&gt;Node14</title>
<g id="a_edge21_Node000013_Node000014"><a xlink:title=" ">
<path fill="none" stroke="#63b8ff" d="M934.9,-193.76C906.84,-198.89 877.35,-204.29 852.75,-208.79"/>
<polygon fill="#63b8ff" stroke="#63b8ff" points="935.28,-197.25 944.49,-192.01 934.02,-190.36 935.28,-197.25"/>
</a>
</g>
</g>
<!-- Node14&#45;&gt;Node11 -->
<g id="edge22_Node000014_Node000011" class="edge">
<title>Node14&#45;&gt;Node11</title>
<g id="a_edge22_Node000014_Node000011"><a xlink:title=" ">
<path fill="none" stroke="#63b8ff" d="M692.23,-224.76C677.4,-225.56 662.18,-226.38 647.49,-227.17"/>
<polygon fill="#63b8ff" stroke="#63b8ff" points="692.17,-228.26 701.97,-224.23 691.79,-221.27 692.17,-228.26"/>
</a>
</g>
</g>
<!-- Node16&#45;&gt;Node6 -->
<g id="edge26_Node000016_Node000006" class="edge">
<title>Node16&#45;&gt;Node6</title>
<g id="a_edge26_Node000016_Node000006"><a xlink:title=" ">
<path fill="none" stroke="#63b8ff" d="M1175.13,-30.65C1021.38,-1.53 691,39.28 456.5,-86.29 381.69,-126.35 336.44,-227.12 323.35,-259.85"/>
<polygon fill="#63b8ff" stroke="#63b8ff" points="1174.37,-34.06 1184.85,-32.52 1175.7,-27.19 1174.37,-34.06"/>
</a>
</g>
</g>
<!-- Node17&#45;&gt;Node18 -->
<g id="edge29_Node000017_Node000018" class="edge">
<title>Node17&#45;&gt;Node18</title>
<g id="a_edge29_Node000017_Node000018"><a xlink:title=" ">
<path fill="none" stroke="#63b8ff" d="M2044.43,-175.29C2030.08,-175.29 2015.24,-175.29 2001.07,-175.29"/>
<polygon fill="#63b8ff" stroke="#63b8ff" points="2044.3,-178.79 2054.3,-175.29 2044.3,-171.79 2044.3,-178.79"/>
</a>
</g>
</g>
<!-- Node19&#45;&gt;Node4 -->
<g id="edge32_Node000019_Node000004" class="edge">
<title>Node19&#45;&gt;Node4</title>
<g id="a_edge32_Node000019_Node000004"><a xlink:title=" ">
<path fill="none" stroke="#63b8ff" d="M2050.25,-282.41C2030.73,-287.17 2009.97,-292.22 1991.03,-296.84"/>
<polygon fill="#63b8ff" stroke="#63b8ff" points="2050.9,-285.85 2059.79,-280.09 2049.24,-279.05 2050.9,-285.85"/>
</a>
</g>
</g>
<!-- Node20 -->
<g id="Node000020" class="node">
<title>Node20</title>
<g id="a_Node000020"><a xlink:href="classediteurpanovisu_1_1EditeurPanovisu.html#a53cccf6a6b2693c872947460b66ae8ee" target="_top" xlink:title=" ">
<polygon fill="white" stroke="#666666" points="1348.5,-191.29 1173.5,-191.29 1173.5,-159.29 1348.5,-159.29 1348.5,-191.29"/>
<text xml:space="preserve" text-anchor="start" x="1181.5" y="-177.79" font-family="Helvetica,sans-Serif" font-size="10.00">editeurpanovisu.EditeurPanovisu.tsk</text>
<text xml:space="preserve" text-anchor="middle" x="1261" y="-165.79" font-family="Helvetica,sans-Serif" font-size="10.00">ChargeListeFichiers</text>
</a>
</g>
</g>
<!-- Node19&#45;&gt;Node20 -->
<g id="edge33_Node000019_Node000020" class="edge">
<title>Node19&#45;&gt;Node20</title>
<g id="a_edge33_Node000019_Node000020"><a xlink:title=" ">
<path fill="none" stroke="#63b8ff" d="M2047.13,-255C1883.45,-238.38 1516.48,-201.12 1348.69,-184.09"/>
<polygon fill="#63b8ff" stroke="#63b8ff" points="2046.75,-258.48 2057.05,-256.01 2047.45,-251.52 2046.75,-258.48"/>
</a>
</g>
</g>
<!-- Node20&#45;&gt;Node13 -->
<g id="edge36_Node000020_Node000013" class="edge">
<title>Node20&#45;&gt;Node13</title>
<g id="a_edge36_Node000020_Node000013"><a xlink:title=" ">
<path fill="none" stroke="#63b8ff" d="M1161.88,-175.29C1152.2,-175.29 1142.38,-175.29 1132.73,-175.29"/>
<polygon fill="#63b8ff" stroke="#63b8ff" points="1161.65,-178.79 1171.65,-175.29 1161.65,-171.79 1161.65,-178.79"/>
</a>
</g>
</g>
<!-- Node21 -->
<g id="Node000021" class="node">
<title>Node21</title>
<g id="a_Node000021"><a xlink:href="classediteurpanovisu_1_1EditeurPanovisu.html#a924d3ccff3e4f402d2309cd2eade3237" target="_top" xlink:title=" ">
<polygon fill="white" stroke="#666666" points="905.5,-115.29 683.25,-115.29 683.25,-83.29 905.5,-83.29 905.5,-115.29"/>
<text xml:space="preserve" text-anchor="start" x="691.25" y="-101.79" font-family="Helvetica,sans-Serif" font-size="10.00">editeurpanovisu.EditeurPanovisu.panoramiques</text>
<text xml:space="preserve" text-anchor="middle" x="794.38" y="-89.79" font-family="Helvetica,sans-Serif" font-size="10.00">Ajouter</text>
</a>
</g>
</g>
<!-- Node20&#45;&gt;Node21 -->
<g id="edge34_Node000020_Node000021" class="edge">
<title>Node20&#45;&gt;Node21</title>
<g id="a_edge34_Node000020_Node000021"><a xlink:title=" ">
<path fill="none" stroke="#63b8ff" d="M1167.39,-156.68C1155.58,-154.45 1143.64,-152.26 1132.25,-150.29 1056.92,-137.22 971.79,-124.35 905.95,-114.81"/>
<polygon fill="#63b8ff" stroke="#63b8ff" points="1166.69,-160.11 1177.17,-158.54 1168,-153.23 1166.69,-160.11"/>
</a>
</g>
</g>
<!-- Node21&#45;&gt;Node6 -->
<g id="edge35_Node000021_Node000006" class="edge">
<title>Node21&#45;&gt;Node6</title>
<g id="a_edge35_Node000021_Node000006"><a xlink:title=" ">
<path fill="none" stroke="#63b8ff" d="M671.49,-90.05C604.98,-89.83 522.91,-97.69 456.5,-129.29 392.67,-159.66 342.41,-233.1 325.51,-260.11"/>
<polygon fill="#63b8ff" stroke="#63b8ff" points="671.32,-93.54 681.35,-90.15 671.39,-86.54 671.32,-93.54"/>
</a>
</g>
</g>
<!-- Node23 -->
<g id="Node000023" class="node">
<title>Node23</title>
<g id="a_Node000023"><a xlink:href="classediteurpanovisu_1_1EditeurPanovisu.html#aaee69ab54364f89b58458c744a4195c0" target="_top" xlink:title=" ">
<polygon fill="white" stroke="#666666" points="1577.5,-65.29 1389.75,-65.29 1389.75,-33.29 1577.5,-33.29 1577.5,-65.29"/>
<text xml:space="preserve" text-anchor="start" x="1397.75" y="-51.79" font-family="Helvetica,sans-Serif" font-size="10.00">editeurpanovisu.EditeurPanovisu.sauve</text>
<text xml:space="preserve" text-anchor="middle" x="1483.62" y="-39.79" font-family="Helvetica,sans-Serif" font-size="10.00">FichierProjet</text>
</a>
</g>
</g>
<!-- Node22&#45;&gt;Node23 -->
<g id="edge41_Node000022_Node000023" class="edge">
<title>Node22&#45;&gt;Node23</title>
<g id="a_edge41_Node000022_Node000023"><a xlink:title=" ">
<path fill="none" stroke="#63b8ff" d="M2237.7,-49.29C2074.54,-49.29 1740.4,-49.29 1577.73,-49.29"/>
<polygon fill="#63b8ff" stroke="#63b8ff" points="2237.63,-52.79 2247.63,-49.29 2237.63,-45.79 2237.63,-52.79"/>
</a>
</g>
</g>
<!-- Node23&#45;&gt;Node10 -->
<g id="edge42_Node000023_Node000010" class="edge">
<title>Node23&#45;&gt;Node10</title>
<g id="a_edge42_Node000023_Node000010"><a xlink:title=" ">
<path fill="none" stroke="#63b8ff" d="M1462.27,-74.08C1437.24,-104.33 1393.22,-156.82 1353.75,-200.29 1328.01,-228.64 1296.81,-260.43 1278.22,-279.1"/>
<polygon fill="#63b8ff" stroke="#63b8ff" points="1464.77,-76.54 1468.43,-66.6 1459.37,-72.09 1464.77,-76.54"/>
</a>
</g>
</g>
<!-- Node23&#45;&gt;Node16 -->
<g id="edge43_Node000023_Node000016" class="edge">
<title>Node23&#45;&gt;Node16</title>
<g id="a_edge43_Node000023_Node000016"><a xlink:title=" ">
<path fill="none" stroke="#63b8ff" d="M1378.13,-49.29C1370.14,-49.29 1362.11,-49.29 1354.21,-49.29"/>
<polygon fill="#63b8ff" stroke="#63b8ff" points="1377.87,-52.79 1387.87,-49.29 1377.87,-45.79 1377.87,-52.79"/>
</a>
</g>
</g>
</g>
</svg>

<g id="navigator" transform="translate(0 0)" fill="#404254">
  <rect fill="#f2f5e9" fill-opacity="0.5" stroke="#606060" stroke-width=".5" x="0" y="0" width="60" height="60"/>
  <use id="zoomplus" xlink:href="#zoomPlus" x="17" y="9" onmousedown="handleZoom(evt,'in')"/>
  <use id="zoomminus" xlink:href="#zoomMin" x="42" y="9" onmousedown="handleZoom(evt,'out')"/>
  <use id="reset" xlink:href="#resetDef" x="30" y="36" onmousedown="handleReset()"/>
   <use id="arrowup" xlink:href="#arrowUp" x="0" y="0" onmousedown="handlePan(0,-1)"/>
  <use id="arrowright" xlink:href="#arrowRight" x="0" y="0" onmousedown="handlePan(1,0)"/>
  <use id="arrowdown" xlink:href="#arrowDown" x="0" y="0" onmousedown="handlePan(0,1)"/>
  <use id="arrowleft" xlink:href="#arrowLeft" x="0" y="0" onmousedown="handlePan(-1,0)"/>
</g>
<svg viewBox="0 0 15 15" width="100%" height="30px" preserveAspectRatio="xMaxYMin meet">
 <g id="arrow_out" transform="scale(0.3 0.3)">
  <a xlink:href="classediteurpanovisu_1_1GestionnaireInterfaceController_a636b4c4fc4256f294d219f8dc1c709f3_icgraph_org.svg" target="_base">
   <rect id="button" ry="5" rx="5" y="6" x="6" height="38" width="38"
        fill="#f2f5e9" fill-opacity="0.5" stroke="#606060" stroke-width="1.0"/>
   <path id="arrow"
     d="M 11.500037,31.436501 C 11.940474,20.09759 22.043105,11.32322 32.158766,21.979434 L 37.068811,17.246167 C 37.068811,17.246167 37.088388,32 37.088388,32 L 22.160133,31.978069 C 22.160133,31.978069 26.997745,27.140456 26.997745,27.140456 C 18.528582,18.264221 13.291696,25.230495 11.500037,31.436501 z"
     style="fill:#404040;"/>
  </a>
 </g>
</svg>

<style type='text/css'>
<![CDATA[
[data-mouse-over-selected='false'] { opacity: 0.7; }
[data-mouse-over-selected='true']  { opacity: 1.0; }
]]>
</style>
<script type="application/ecmascript"><![CDATA[
document.addEventListener('DOMContentLoaded', (event) => {
  highlightEdges();
  highlightAdjacentNodes();
});
]]></script>
</svg>
