<?xml version="1.0" encoding="UTF-8" standalone="no"?>
<!DOCTYPE svg PUBLIC "-//W3C//DTD SVG 1.1//EN"
 "http://www.w3.org/Graphics/SVG/1.1/DTD/svg11.dtd">
<!-- Generated by graphviz version 13.1.2 (20250808.2320)
 -->
<!-- Title: editeurpanovisu.DocumentationDialog.DocumentationDialog Pages: 1 -->
<svg width="807pt" height="140pt"
 viewBox="0.00 0.00 807.00 140.00" xmlns="http://www.w3.org/2000/svg" xmlns:xlink="http://www.w3.org/1999/xlink">
<g id="graph0" class="graph" transform="scale(1 1) rotate(0) translate(4 136)">
<title>editeurpanovisu.DocumentationDialog.DocumentationDialog</title>
<!-- Node1 -->
<g id="Node000001" class="node">
<title>Node1</title>
<g id="a_Node000001"><a xlink:title="Constructeur.">
<polygon fill="#999999" stroke="#666666" points="799,-82 645.75,-82 645.75,-50 799,-50 799,-82"/>
<text xml:space="preserve" text-anchor="start" x="653.75" y="-68.5" font-family="Helvetica,sans-Serif" font-size="10.00">editeurpanovisu.Documentation</text>
<text xml:space="preserve" text-anchor="middle" x="722.38" y="-56.5" font-family="Helvetica,sans-Serif" font-size="10.00">Dialog.DocumentationDialog</text>
</a>
</g>
</g>
<!-- Node2 -->
<g id="Node000002" class="node">
<title>Node2</title>
<g id="a_Node000002"><a xlink:href="classediteurpanovisu_1_1DocumentationDialog.html#ae1f4b9b024ee12bb8cef3394076ea24c" target="_top" xlink:title="Méthode statique pour afficher le dialogue.">
<polygon fill="white" stroke="#666666" points="609.75,-132 456.5,-132 456.5,-100 609.75,-100 609.75,-132"/>
<text xml:space="preserve" text-anchor="start" x="464.5" y="-118.5" font-family="Helvetica,sans-Serif" font-size="10.00">editeurpanovisu.Documentation</text>
<text xml:space="preserve" text-anchor="middle" x="533.12" y="-106.5" font-family="Helvetica,sans-Serif" font-size="10.00">Dialog.afficher</text>
</a>
</g>
</g>
<!-- Node1&#45;&gt;Node2 -->
<g id="edge1_Node000001_Node000002" class="edge">
<title>Node1&#45;&gt;Node2</title>
<g id="a_edge1_Node000001_Node000002"><a xlink:title=" ">
<path fill="none" stroke="#63b8ff" d="M649.01,-85.32C631.42,-90.02 612.77,-95 595.73,-99.55"/>
<polygon fill="#63b8ff" stroke="#63b8ff" points="649.58,-88.79 658.34,-82.83 647.78,-82.03 649.58,-88.79"/>
</a>
</g>
</g>
<!-- Node5 -->
<g id="Node000005" class="node">
<title>Node5</title>
<g id="a_Node000005"><a xlink:href="classediteurpanovisu_1_1DocumentationDialog.html#a489c12395d83ec72f6550ba924b65a25" target="_top" xlink:title="Méthode statique pour afficher un document spécifique.">
<polygon fill="white" stroke="#666666" points="609.75,-82 456.5,-82 456.5,-50 609.75,-50 609.75,-82"/>
<text xml:space="preserve" text-anchor="start" x="464.5" y="-68.5" font-family="Helvetica,sans-Serif" font-size="10.00">editeurpanovisu.Documentation</text>
<text xml:space="preserve" text-anchor="middle" x="533.12" y="-56.5" font-family="Helvetica,sans-Serif" font-size="10.00">Dialog.afficher</text>
</a>
</g>
</g>
<!-- Node1&#45;&gt;Node5 -->
<g id="edge4_Node000001_Node000005" class="edge">
<title>Node1&#45;&gt;Node5</title>
<g id="a_edge4_Node000001_Node000005"><a xlink:title=" ">
<path fill="none" stroke="#63b8ff" d="M634.19,-66C626.15,-66 618.05,-66 610.12,-66"/>
<polygon fill="#63b8ff" stroke="#63b8ff" points="633.97,-69.5 643.97,-66 633.97,-62.5 633.97,-69.5"/>
</a>
</g>
</g>
<!-- Node6 -->
<g id="Node000006" class="node">
<title>Node6</title>
<g id="a_Node000006"><a xlink:href="classediteurpanovisu_1_1DocumentationDialog_1_1TestApp.html#a4ef47a45769930ff042b0ca47f457cbb" target="_top" xlink:title=" ">
<polygon fill="white" stroke="#666666" points="609.75,-32 456.5,-32 456.5,0 609.75,0 609.75,-32"/>
<text xml:space="preserve" text-anchor="start" x="464.5" y="-18.5" font-family="Helvetica,sans-Serif" font-size="10.00">editeurpanovisu.Documentation</text>
<text xml:space="preserve" text-anchor="middle" x="533.12" y="-6.5" font-family="Helvetica,sans-Serif" font-size="10.00">Dialog.TestApp.start</text>
</a>
</g>
</g>
<!-- Node1&#45;&gt;Node6 -->
<g id="edge5_Node000001_Node000006" class="edge">
<title>Node1&#45;&gt;Node6</title>
<g id="a_edge5_Node000001_Node000006"><a xlink:title=" ">
<path fill="none" stroke="#63b8ff" d="M649.01,-46.68C631.42,-41.98 612.77,-37 595.73,-32.45"/>
<polygon fill="#63b8ff" stroke="#63b8ff" points="647.78,-49.97 658.34,-49.17 649.58,-43.21 647.78,-49.97"/>
</a>
</g>
</g>
<!-- Node3 -->
<g id="Node000003" class="node">
<title>Node3</title>
<g id="a_Node000003"><a xlink:href="classediteurpanovisu_1_1EditeurPanovisu.html#ac912b80c1f2ac97def60ff005c5c480b" target="_top" xlink:title=" ">
<polygon fill="white" stroke="#666666" points="420.5,-126 216.25,-126 216.25,-106 420.5,-106 420.5,-126"/>
<text xml:space="preserve" text-anchor="middle" x="318.38" y="-112.5" font-family="Helvetica,sans-Serif" font-size="10.00">editeurpanovisu.EditeurPanovisu.creeMenu</text>
</a>
</g>
</g>
<!-- Node2&#45;&gt;Node3 -->
<g id="edge2_Node000002_Node000003" class="edge">
<title>Node2&#45;&gt;Node3</title>
<g id="a_edge2_Node000002_Node000003"><a xlink:title=" ">
<path fill="none" stroke="#63b8ff" d="M444.8,-116C436.92,-116 428.89,-116 420.9,-116"/>
<polygon fill="#63b8ff" stroke="#63b8ff" points="444.7,-119.5 454.7,-116 444.7,-112.5 444.7,-119.5"/>
</a>
</g>
</g>
<!-- Node4 -->
<g id="Node000004" class="node">
<title>Node4</title>
<g id="a_Node000004"><a xlink:href="classediteurpanovisu_1_1EditeurPanovisu.html#a86c393eee88f54c694db994ddd85b90d" target="_top" xlink:title=" ">
<polygon fill="white" stroke="#666666" points="180.25,-132 0,-132 0,-100 180.25,-100 180.25,-132"/>
<text xml:space="preserve" text-anchor="start" x="8" y="-118.5" font-family="Helvetica,sans-Serif" font-size="10.00">editeurpanovisu.EditeurPanovisu.cree</text>
<text xml:space="preserve" text-anchor="middle" x="90.12" y="-106.5" font-family="Helvetica,sans-Serif" font-size="10.00">Environnement</text>
</a>
</g>
</g>
<!-- Node3&#45;&gt;Node4 -->
<g id="edge3_Node000003_Node000004" class="edge">
<title>Node3&#45;&gt;Node4</title>
<g id="a_edge3_Node000003_Node000004"><a xlink:title=" ">
<path fill="none" stroke="#63b8ff" d="M204.51,-116C196.49,-116 188.46,-116 180.6,-116"/>
<polygon fill="#63b8ff" stroke="#63b8ff" points="204.32,-119.5 214.32,-116 204.32,-112.5 204.32,-119.5"/>
</a>
</g>
</g>
</g>
</svg>
