<?xml version="1.0" encoding="UTF-8" standalone="no"?>
<!DOCTYPE svg PUBLIC "-//W3C//DTD SVG 1.1//EN"
 "http://www.w3.org/Graphics/SVG/1.1/DTD/svg11.dtd">
<!-- Generated by graphviz version 13.1.2 (20250808.2320)
 -->
<!-- Title: editeurpanovisu.EditeurPanovisu.getiNombrePlans Pages: 1 -->
<!--zoomable 478 -->

<svg id="main" version="1.1" xmlns="http://www.w3.org/2000/svg" xmlns:xlink="http://www.w3.org/1999/xlink" xml:space="preserve" onload="init(evt)">

<style type="text/css"><![CDATA[
.node, .edge {opacity: 0.7;}
.node.selected, .edge.selected {opacity: 1;}
.edge:hover path { stroke: red; }
.edge:hover polygon { stroke: red; fill: red; }
]]></style>

<defs>
  <circle id="rim" cx="0" cy="0" r="7"/>
  <circle id="rim2" cx="0" cy="0" r="3.5"/>
  <g id="zoomPlus">
    <use xlink:href="#rim" fill="#404040"><set attributeName="fill" to="#808080" begin="zoomplus.mouseover" end="zoomplus.mouseout"/></use>
    <path d="M-4,0h8M0,-4v8" fill="none" stroke="white" stroke-width="1.5" pointer-events="none"/>
  </g>
  <g id="zoomMin">
    <use xlink:href="#rim" fill="#404040"><set attributeName="fill" to="#808080" begin="zoomminus.mouseover" end="zoomminus.mouseout"/></use>
    <path d="M-4,0h8" fill="none" stroke="white" stroke-width="1.5" pointer-events="none"/>
  </g>
  <g id="arrowUp" transform="translate(30 24)">
    <use xlink:href="#rim"/>
    <path pointer-events="none" fill="none" stroke="white" stroke-width="1.5" d="M0,-3.0v7 M-2.5,-0.5L0,-3.0L2.5,-0.5"/>
  </g>
  <g id="arrowRight" transform="rotate(90) translate(36 -43)">
    <use xlink:href="#rim"/>
    <path pointer-events="none" fill="none" stroke="white" stroke-width="1.5" d="M0,-3.0v7 M-2.5,-0.5L0,-3.0L2.5,-0.5"/>
  </g>
  <g id="arrowDown" transform="rotate(180) translate(-30 -48)">
    <use xlink:href="#rim"/>
    <path pointer-events="none" fill="none" stroke="white" stroke-width="1.5" d="M0,-3.0v7 M-2.5,-0.5L0,-3.0L2.5,-0.5"/>
  </g>
  <g id="arrowLeft" transform="rotate(270) translate(-36 17)">
    <use xlink:href="#rim"/>
    <path pointer-events="none" fill="none" stroke="white" stroke-width="1.5" d="M0,-3.0v7 M-2.5,-0.5L0,-3.0L2.5,-0.5"/>
  </g>
  <g id="resetDef">
    <use xlink:href="#rim2" fill="#404040"><set attributeName="fill" to="#808080" begin="reset.mouseover" end="reset.mouseout"/></use>
  </g>
</defs>
<script type="application/ecmascript">
var viewWidth = 2195;
var viewHeight = 478;
var sectionId = 'dynsection-90';
</script>
<script type="application/ecmascript" xlink:href="svg.min.js"/>
<svg id="graph" class="graph">
<g id="viewport">
<title>editeurpanovisu.EditeurPanovisu.getiNombrePlans</title>
<!-- Node1 -->
<g id="Node000001" class="node">
<title>Node1</title>
<g id="a_Node000001"><a xlink:title=" ">
<polygon fill="#999999" stroke="#666666" points="2186.5,-425.53 2009.25,-425.53 2009.25,-393.53 2186.5,-393.53 2186.5,-425.53"/>
<text xml:space="preserve" text-anchor="start" x="2017.25" y="-412.03" font-family="Helvetica,sans-Serif" font-size="10.00">editeurpanovisu.EditeurPanovisu.geti</text>
<text xml:space="preserve" text-anchor="middle" x="2097.88" y="-400.03" font-family="Helvetica,sans-Serif" font-size="10.00">NombrePlans</text>
</a>
</g>
</g>
<!-- Node2 -->
<g id="Node000002" class="node">
<title>Node2</title>
<g id="a_Node000002"><a xlink:href="classediteurpanovisu_1_1EditeurPanovisu.html#af504270c500842e35c1a37bf1e6d3e8d" target="_top" xlink:title=" ">
<polygon fill="white" stroke="#666666" points="1536.62,-425.53 1357.12,-425.53 1357.12,-393.53 1536.62,-393.53 1536.62,-425.53"/>
<text xml:space="preserve" text-anchor="start" x="1365.12" y="-412.03" font-family="Helvetica,sans-Serif" font-size="10.00">editeurpanovisu.EditeurPanovisu.plan</text>
<text xml:space="preserve" text-anchor="middle" x="1446.88" y="-400.03" font-family="Helvetica,sans-Serif" font-size="10.00">Ajouter</text>
</a>
</g>
</g>
<!-- Node1&#45;&gt;Node2 -->
<g id="edge1_Node000001_Node000002" class="edge">
<title>Node1&#45;&gt;Node2</title>
<g id="a_edge1_Node000001_Node000002"><a xlink:title=" ">
<path fill="none" stroke="#63b8ff" d="M1997.51,-409.53C1871.91,-409.53 1657.58,-409.53 1537.03,-409.53"/>
<polygon fill="#63b8ff" stroke="#63b8ff" points="1997.5,-413.03 2007.5,-409.53 1997.5,-406.03 1997.5,-413.03"/>
</a>
</g>
</g>
<!-- Node5 -->
<g id="Node000005" class="node">
<title>Node5</title>
<g id="a_Node000005"><a xlink:href="classediteurpanovisu_1_1EditeurPanovisu.html#a271a81346c81fd5a9879db58130cd0cb" target="_top" xlink:title=" ">
<polygon fill="white" stroke="#666666" points="1761.12,-469.53 1577.88,-469.53 1577.88,-437.53 1761.12,-437.53 1761.12,-469.53"/>
<text xml:space="preserve" text-anchor="start" x="1585.88" y="-456.03" font-family="Helvetica,sans-Serif" font-size="10.00">editeurpanovisu.EditeurPanovisu.retire</text>
<text xml:space="preserve" text-anchor="middle" x="1669.5" y="-444.03" font-family="Helvetica,sans-Serif" font-size="10.00">PanoCourant</text>
</a>
</g>
</g>
<!-- Node1&#45;&gt;Node5 -->
<g id="edge4_Node000001_Node000005" class="edge">
<title>Node1&#45;&gt;Node5</title>
<g id="a_edge4_Node000001_Node000005"><a xlink:title=" ">
<path fill="none" stroke="#63b8ff" d="M1997.55,-420.91C1989.33,-421.81 1981.15,-422.7 1973.25,-423.53 1902.21,-431.08 1821.73,-439.02 1761.61,-444.84"/>
<polygon fill="#63b8ff" stroke="#63b8ff" points="1997.7,-424.41 2007.26,-419.83 1996.93,-417.45 1997.7,-424.41"/>
</a>
</g>
</g>
<!-- Node6 -->
<g id="Node000006" class="node">
<title>Node6</title>
<g id="a_Node000006"><a xlink:href="classediteurpanovisu_1_1EditeurPanovisu.html#a87b29dc258cfc67370b1f27809e91b8e" target="_top" xlink:title=" ">
<polygon fill="white" stroke="#666666" points="1973.25,-230.53 1798.25,-230.53 1798.25,-198.53 1973.25,-198.53 1973.25,-230.53"/>
<text xml:space="preserve" text-anchor="start" x="1806.25" y="-217.03" font-family="Helvetica,sans-Serif" font-size="10.00">editeurpanovisu.EditeurPanovisu.tsk</text>
<text xml:space="preserve" text-anchor="middle" x="1885.75" y="-205.03" font-family="Helvetica,sans-Serif" font-size="10.00">AnalyseFichierPVU</text>
</a>
</g>
</g>
<!-- Node1&#45;&gt;Node6 -->
<g id="edge6_Node000001_Node000006" class="edge">
<title>Node1&#45;&gt;Node6</title>
<g id="a_edge6_Node000001_Node000006"><a xlink:title=" ">
<path fill="none" stroke="#63b8ff" d="M2071,-385.53C2027.66,-345.3 1941.49,-265.34 1904.4,-230.92"/>
<polygon fill="#63b8ff" stroke="#63b8ff" points="2068.5,-387.98 2078.21,-392.21 2073.26,-382.85 2068.5,-387.98"/>
</a>
</g>
</g>
<!-- Node3 -->
<g id="Node000003" class="node">
<title>Node3</title>
<g id="a_Node000003"><a xlink:href="classediteurpanovisu_1_1EditeurPanovisu.html#ac912b80c1f2ac97def60ff005c5c480b" target="_top" xlink:title=" ">
<polygon fill="white" stroke="#666666" points="420.5,-289.53 216.25,-289.53 216.25,-269.53 420.5,-269.53 420.5,-289.53"/>
<text xml:space="preserve" text-anchor="middle" x="318.38" y="-276.03" font-family="Helvetica,sans-Serif" font-size="10.00">editeurpanovisu.EditeurPanovisu.creeMenu</text>
</a>
</g>
</g>
<!-- Node2&#45;&gt;Node3 -->
<g id="edge2_Node000002_Node000003" class="edge">
<title>Node2&#45;&gt;Node3</title>
<g id="a_edge2_Node000002_Node000003"><a xlink:title=" ">
<path fill="none" stroke="#63b8ff" d="M1345.54,-408.47C1255.4,-407.61 1119.42,-406.53 1001.12,-406.53 1001.12,-406.53 1001.12,-406.53 775,-406.53 633.01,-406.53 589.44,-431.41 456.5,-381.53 401.77,-361 350.07,-311.67 329.15,-290.02"/>
<polygon fill="#63b8ff" stroke="#63b8ff" points="1345.31,-411.97 1355.34,-408.57 1345.37,-404.97 1345.31,-411.97"/>
</a>
</g>
</g>
<!-- Node4 -->
<g id="Node000004" class="node">
<title>Node4</title>
<g id="a_Node000004"><a xlink:href="classediteurpanovisu_1_1EditeurPanovisu.html#a86c393eee88f54c694db994ddd85b90d" target="_top" xlink:title=" ">
<polygon fill="white" stroke="#666666" points="180.25,-380.53 0,-380.53 0,-348.53 180.25,-348.53 180.25,-380.53"/>
<text xml:space="preserve" text-anchor="start" x="8" y="-367.03" font-family="Helvetica,sans-Serif" font-size="10.00">editeurpanovisu.EditeurPanovisu.cree</text>
<text xml:space="preserve" text-anchor="middle" x="90.12" y="-355.03" font-family="Helvetica,sans-Serif" font-size="10.00">Environnement</text>
</a>
</g>
</g>
<!-- Node3&#45;&gt;Node4 -->
<g id="edge3_Node000003_Node000004" class="edge">
<title>Node3&#45;&gt;Node4</title>
<g id="a_edge3_Node000003_Node000004"><a xlink:title=" ">
<path fill="none" stroke="#63b8ff" d="M279.02,-293.95C239.15,-308.92 176.85,-332.33 135.03,-348.04"/>
<polygon fill="#63b8ff" stroke="#63b8ff" points="280.09,-297.28 288.22,-290.49 277.62,-290.73 280.09,-297.28"/>
</a>
</g>
</g>
<!-- Node5&#45;&gt;Node4 -->
<g id="edge5_Node000005_Node000004" class="edge">
<title>Node5&#45;&gt;Node4</title>
<g id="a_edge5_Node000005_Node000004"><a xlink:title=" ">
<path fill="none" stroke="#63b8ff" d="M1566.39,-453.53C1476.55,-453.53 1342.22,-453.53 1225.25,-453.53 1225.25,-453.53 1225.25,-453.53 550.88,-453.53 399.86,-453.53 225.95,-406.68 141.87,-380.96"/>
<polygon fill="#63b8ff" stroke="#63b8ff" points="1566.15,-457.03 1576.15,-453.53 1566.15,-450.03 1566.15,-457.03"/>
</a>
</g>
</g>
<!-- Node7 -->
<g id="Node000007" class="node">
<title>Node7</title>
<g id="a_Node000007"><a xlink:href="classediteurpanovisu_1_1EditeurPanovisu.html#ab4beb1597b660a4a253befc6e76f1c54" target="_top" xlink:title=" ">
<polygon fill="white" stroke="#666666" points="1092.88,-49.53 907.38,-49.53 907.38,-17.53 1092.88,-17.53 1092.88,-49.53"/>
<text xml:space="preserve" text-anchor="start" x="915.38" y="-36.03" font-family="Helvetica,sans-Serif" font-size="10.00">editeurpanovisu.EditeurPanovisu.projet</text>
<text xml:space="preserve" text-anchor="middle" x="1000.12" y="-24.03" font-family="Helvetica,sans-Serif" font-size="10.00">Charge</text>
</a>
</g>
</g>
<!-- Node6&#45;&gt;Node7 -->
<g id="edge7_Node000006_Node000007" class="edge">
<title>Node6&#45;&gt;Node7</title>
<g id="a_edge7_Node000006_Node000007"><a xlink:title=" ">
<path fill="none" stroke="#63b8ff" d="M1818.05,-195.03C1712.54,-164.82 1500.3,-106.64 1317,-72.53 1242.17,-58.61 1156.41,-48.38 1093.15,-41.9"/>
<polygon fill="#63b8ff" stroke="#63b8ff" points="1816.81,-198.31 1827.39,-197.71 1818.74,-191.59 1816.81,-198.31"/>
</a>
</g>
</g>
<!-- Node8 -->
<g id="Node000008" class="node">
<title>Node8</title>
<g id="a_Node000008"><a xlink:href="classediteurpanovisu_1_1EditeurPanovisu.html#a6d19b4d885ee6fcec827b91956295732" target="_top" xlink:title=" ">
<polygon fill="white" stroke="#666666" points="1762.25,-230.53 1576.75,-230.53 1576.75,-198.53 1762.25,-198.53 1762.25,-230.53"/>
<text xml:space="preserve" text-anchor="start" x="1584.75" y="-217.03" font-family="Helvetica,sans-Serif" font-size="10.00">editeurpanovisu.EditeurPanovisu.projet</text>
<text xml:space="preserve" text-anchor="middle" x="1669.5" y="-205.03" font-family="Helvetica,sans-Serif" font-size="10.00">ChargeNom</text>
</a>
</g>
</g>
<!-- Node6&#45;&gt;Node8 -->
<g id="edge9_Node000006_Node000008" class="edge">
<title>Node6&#45;&gt;Node8</title>
<g id="a_edge9_Node000006_Node000008"><a xlink:title=" ">
<path fill="none" stroke="#63b8ff" d="M1786.41,-214.53C1778.51,-214.53 1770.55,-214.53 1762.7,-214.53"/>
<polygon fill="#63b8ff" stroke="#63b8ff" points="1786.4,-218.03 1796.4,-214.53 1786.4,-211.03 1786.4,-218.03"/>
</a>
</g>
</g>
<!-- Node7&#45;&gt;Node3 -->
<g id="edge8_Node000007_Node000003" class="edge">
<title>Node7&#45;&gt;Node3</title>
<g id="a_edge8_Node000007_Node000003"><a xlink:title=" ">
<path fill="none" stroke="#63b8ff" d="M911.28,-15.23C797.81,3.52 598.09,19.46 456.5,-63.53 373.35,-112.28 332.64,-233.59 322.16,-269.42"/>
<polygon fill="#63b8ff" stroke="#63b8ff" points="910.39,-18.63 920.83,-16.85 911.56,-11.73 910.39,-18.63"/>
</a>
</g>
</g>
<!-- Node8&#45;&gt;Node3 -->
<g id="edge29_Node000008_Node000003" class="edge">
<title>Node8&#45;&gt;Node3</title>
<g id="a_edge29_Node000008_Node000003"><a xlink:title=" ">
<path fill="none" stroke="#63b8ff" d="M1616.53,-234.9C1505.43,-276.54 1235.8,-367.53 1001.12,-367.53 1001.12,-367.53 1001.12,-367.53 775,-367.53 613.07,-367.53 424.54,-313.29 351.01,-289.98"/>
<polygon fill="#63b8ff" stroke="#63b8ff" points="1617.56,-238.25 1625.68,-231.44 1615.09,-231.7 1617.56,-238.25"/>
</a>
</g>
</g>
<!-- Node9 -->
<g id="Node000009" class="node">
<title>Node9</title>
<g id="a_Node000009"><a xlink:href="classediteurpanovisu_1_1EditeurPanovisu.html#af0d1c32bb78acbff561c822a0d15f760" target="_top" xlink:title=" ">
<polygon fill="white" stroke="#666666" points="1540.75,-208.53 1353,-208.53 1353,-176.53 1540.75,-176.53 1540.75,-208.53"/>
<text xml:space="preserve" text-anchor="start" x="1361" y="-195.03" font-family="Helvetica,sans-Serif" font-size="10.00">editeurpanovisu.EditeurPanovisu.ajoute</text>
<text xml:space="preserve" text-anchor="middle" x="1446.88" y="-183.03" font-family="Helvetica,sans-Serif" font-size="10.00">FichierHisto</text>
</a>
</g>
</g>
<!-- Node8&#45;&gt;Node9 -->
<g id="edge10_Node000008_Node000009" class="edge">
<title>Node8&#45;&gt;Node9</title>
<g id="a_edge10_Node000008_Node000009"><a xlink:title=" ">
<path fill="none" stroke="#63b8ff" d="M1565.22,-197.5C1557.17,-196.67 1549.08,-195.88 1541.11,-195.15"/>
<polygon fill="#63b8ff" stroke="#63b8ff" points="1564.71,-200.96 1575.03,-198.54 1565.45,-194 1564.71,-200.96"/>
</a>
</g>
</g>
<!-- Node9&#45;&gt;Node7 -->
<g id="edge11_Node000009_Node000007" class="edge">
<title>Node9&#45;&gt;Node7</title>
<g id="a_edge11_Node000009_Node000007"><a xlink:title=" ">
<path fill="none" stroke="#63b8ff" d="M1392.71,-172.11C1324.29,-146.03 1201.58,-99.9 1095.5,-63.53 1082.16,-58.96 1067.69,-54.24 1054.17,-49.94"/>
<polygon fill="#63b8ff" stroke="#63b8ff" points="1391.21,-175.29 1401.8,-175.58 1393.71,-168.75 1391.21,-175.29"/>
</a>
</g>
</g>
<!-- Node9&#45;&gt;Node8 -->
<g id="edge12_Node000009_Node000008" class="edge">
<title>Node9&#45;&gt;Node8</title>
<g id="a_edge12_Node000009_Node000008"><a xlink:title=" ">
<path fill="none" stroke="#63b8ff" d="M1552.44,-209.7C1560.49,-210.53 1568.58,-211.31 1576.53,-212.03"/>
<polygon fill="#63b8ff" stroke="#63b8ff" points="1552.93,-206.24 1542.62,-208.67 1552.2,-213.2 1552.93,-206.24"/>
</a>
</g>
</g>
<!-- Node10 -->
<g id="Node000010" class="node">
<title>Node10</title>
<g id="a_Node000010"><a xlink:href="classediteurpanovisu_1_1EditeurPanovisu.html#a9f3ea25b35d4884524508dab3dc4fd6a" target="_top" xlink:title=" ">
<polygon fill="white" stroke="#666666" points="1317,-208.53 1131.5,-208.53 1131.5,-176.53 1317,-176.53 1317,-208.53"/>
<text xml:space="preserve" text-anchor="start" x="1139.5" y="-195.03" font-family="Helvetica,sans-Serif" font-size="10.00">editeurpanovisu.EditeurPanovisu.projet</text>
<text xml:space="preserve" text-anchor="middle" x="1224.25" y="-183.03" font-family="Helvetica,sans-Serif" font-size="10.00">Sauve</text>
</a>
</g>
</g>
<!-- Node9&#45;&gt;Node10 -->
<g id="edge13_Node000009_Node000010" class="edge">
<title>Node9&#45;&gt;Node10</title>
<g id="a_edge13_Node000009_Node000010"><a xlink:title=" ">
<path fill="none" stroke="#63b8ff" d="M1341.38,-192.53C1333.39,-192.53 1325.36,-192.53 1317.46,-192.53"/>
<polygon fill="#63b8ff" stroke="#63b8ff" points="1341.12,-196.03 1351.12,-192.53 1341.12,-189.03 1341.12,-196.03"/>
</a>
</g>
</g>
<!-- Node16 -->
<g id="Node000016" class="node">
<title>Node16</title>
<g id="a_Node000016"><a xlink:href="classediteurpanovisu_1_1EditeurPanovisu.html#a7b2e25dc717eb52b62e23d54ec4c124a" target="_top" xlink:title=" ">
<polygon fill="white" stroke="#666666" points="868.75,-339.53 683.25,-339.53 683.25,-307.53 868.75,-307.53 868.75,-339.53"/>
<text xml:space="preserve" text-anchor="start" x="691.25" y="-326.03" font-family="Helvetica,sans-Serif" font-size="10.00">editeurpanovisu.EditeurPanovisu.projet</text>
<text xml:space="preserve" text-anchor="middle" x="776" y="-314.03" font-family="Helvetica,sans-Serif" font-size="10.00">SauveSous</text>
</a>
</g>
</g>
<!-- Node9&#45;&gt;Node16 -->
<g id="edge27_Node000009_Node000016" class="edge">
<title>Node9&#45;&gt;Node16</title>
<g id="a_edge27_Node000009_Node000016"><a xlink:title=" ">
<path fill="none" stroke="#63b8ff" d="M1398.18,-213.46C1331.81,-241.43 1207.15,-289.89 1095.5,-310.53 1020.13,-324.47 933.09,-327.13 869.06,-326.64"/>
<polygon fill="#63b8ff" stroke="#63b8ff" points="1399.48,-216.71 1407.31,-209.57 1396.74,-210.26 1399.48,-216.71"/>
</a>
</g>
</g>
<!-- Node10&#45;&gt;Node3 -->
<g id="edge14_Node000010_Node000003" class="edge">
<title>Node10&#45;&gt;Node3</title>
<g id="a_edge14_Node000010_Node000003"><a xlink:title=" ">
<path fill="none" stroke="#63b8ff" d="M1196.36,-169C1171.94,-149.31 1133.96,-122.7 1095.5,-111.53 822.66,-32.33 712.07,-4.45 456.5,-128.53 389.92,-160.86 340.66,-241.05 324.81,-269.4"/>
<polygon fill="#63b8ff" stroke="#63b8ff" points="1193.92,-171.53 1203.86,-175.2 1198.38,-166.13 1193.92,-171.53"/>
</a>
</g>
</g>
<!-- Node10&#45;&gt;Node7 -->
<g id="edge17_Node000010_Node000007" class="edge">
<title>Node10&#45;&gt;Node7</title>
<g id="a_edge17_Node000010_Node000007"><a xlink:title=" ">
<path fill="none" stroke="#63b8ff" d="M1172.52,-171.03C1157.94,-163.06 1142.91,-152.88 1131.5,-140.53 1105.85,-112.8 1123.89,-88.46 1095.5,-63.53 1089.3,-58.09 1082.11,-53.63 1074.51,-49.98"/>
<polygon fill="#63b8ff" stroke="#63b8ff" points="1170.66,-174.01 1181.15,-175.51 1173.89,-167.8 1170.66,-174.01"/>
</a>
</g>
</g>
<!-- Node10&#45;&gt;Node8 -->
<g id="edge18_Node000010_Node000008" class="edge">
<title>Node10&#45;&gt;Node8</title>
<g id="a_edge18_Node000010_Node000008"><a xlink:title=" ">
<path fill="none" stroke="#63b8ff" d="M1307.82,-211.11C1322.78,-213.78 1338.3,-216.11 1353,-217.53 1427.97,-224.8 1513.42,-223.4 1576.47,-220.54"/>
<polygon fill="#63b8ff" stroke="#63b8ff" points="1308.47,-207.67 1298,-209.28 1307.19,-214.55 1308.47,-207.67"/>
</a>
</g>
</g>
<!-- Node11 -->
<g id="Node000011" class="node">
<title>Node11</title>
<g id="a_Node000011"><a xlink:href="classediteurpanovisu_1_1EditeurPanovisu.html#a94e36b9e9d09ab1a4c852b8a8cefa927" target="_top" xlink:title=" ">
<polygon fill="white" stroke="#666666" points="647.25,-251.53 456.5,-251.53 456.5,-219.53 647.25,-219.53 647.25,-251.53"/>
<text xml:space="preserve" text-anchor="start" x="464.5" y="-238.03" font-family="Helvetica,sans-Serif" font-size="10.00">editeurpanovisu.EditeurPanovisu.genere</text>
<text xml:space="preserve" text-anchor="middle" x="551.88" y="-226.03" font-family="Helvetica,sans-Serif" font-size="10.00">Visite</text>
</a>
</g>
</g>
<!-- Node10&#45;&gt;Node11 -->
<g id="edge15_Node000010_Node000011" class="edge">
<title>Node10&#45;&gt;Node11</title>
<g id="a_edge15_Node000010_Node000011"><a xlink:title=" ">
<path fill="none" stroke="#63b8ff" d="M1120.16,-196.92C1011.42,-201.85 835.14,-210.75 683.25,-222.53 671.68,-223.43 659.55,-224.49 647.54,-225.6"/>
<polygon fill="#63b8ff" stroke="#63b8ff" points="1120.1,-200.42 1129.93,-196.47 1119.78,-193.43 1120.1,-200.42"/>
</a>
</g>
</g>
<!-- Node12 -->
<g id="Node000012" class="node">
<title>Node12</title>
<g id="a_Node000012"><a xlink:href="classediteurpanovisu_1_1EditeurPanovisu.html#a9b46b222714af12c06ec33d410400773" target="_top" xlink:title=" ">
<polygon fill="white" stroke="#666666" points="647.25,-169.53 456.5,-169.53 456.5,-137.53 647.25,-137.53 647.25,-169.53"/>
<text xml:space="preserve" text-anchor="start" x="464.5" y="-156.03" font-family="Helvetica,sans-Serif" font-size="10.00">editeurpanovisu.EditeurPanovisu.projets</text>
<text xml:space="preserve" text-anchor="middle" x="551.88" y="-144.03" font-family="Helvetica,sans-Serif" font-size="10.00">Fermer</text>
</a>
</g>
</g>
<!-- Node10&#45;&gt;Node12 -->
<g id="edge19_Node000010_Node000012" class="edge">
<title>Node10&#45;&gt;Node12</title>
<g id="a_edge19_Node000010_Node000012"><a xlink:title=" ">
<path fill="none" stroke="#63b8ff" d="M1186.49,-170.76C1161.72,-157.38 1127.79,-141.52 1095.5,-134.53 938.88,-100.64 750.98,-120.14 642.42,-137.07"/>
<polygon fill="#63b8ff" stroke="#63b8ff" points="1184.75,-173.79 1195.19,-175.57 1188.14,-167.67 1184.75,-173.79"/>
</a>
</g>
</g>
<!-- Node13 -->
<g id="Node000013" class="node">
<title>Node13</title>
<g id="a_Node000013"><a xlink:href="classediteurpanovisu_1_1EditeurPanovisu.html#ac9d449399ccd38843fa12e716f0c9611" target="_top" xlink:title=" ">
<polygon fill="white" stroke="#666666" points="1095.5,-301.53 904.75,-301.53 904.75,-269.53 1095.5,-269.53 1095.5,-301.53"/>
<text xml:space="preserve" text-anchor="start" x="912.75" y="-288.03" font-family="Helvetica,sans-Serif" font-size="10.00">editeurpanovisu.EditeurPanovisu.projets</text>
<text xml:space="preserve" text-anchor="middle" x="1000.12" y="-276.03" font-family="Helvetica,sans-Serif" font-size="10.00">Nouveau</text>
</a>
</g>
</g>
<!-- Node10&#45;&gt;Node13 -->
<g id="edge21_Node000010_Node000013" class="edge">
<title>Node10&#45;&gt;Node13</title>
<g id="a_edge21_Node000010_Node000013"><a xlink:title=" ">
<path fill="none" stroke="#63b8ff" d="M1183.01,-214.32C1158.2,-227.26 1125.51,-243.45 1095.5,-255.53 1083.38,-260.42 1070.14,-265.04 1057.51,-269.14"/>
<polygon fill="#63b8ff" stroke="#63b8ff" points="1184.56,-217.46 1191.78,-209.71 1181.3,-211.27 1184.56,-217.46"/>
</a>
</g>
</g>
<!-- Node14 -->
<g id="Node000014" class="node">
<title>Node14</title>
<g id="a_Node000014"><a xlink:href="classediteurpanovisu_1_1EditeurPanovisu.html#a2b3125ffe2e6291efacf19df6cb30a8d" target="_top" xlink:title=" ">
<polygon fill="white" stroke="#666666" points="866.5,-251.53 685.5,-251.53 685.5,-231.53 866.5,-231.53 866.5,-251.53"/>
<text xml:space="preserve" text-anchor="middle" x="776" y="-238.03" font-family="Helvetica,sans-Serif" font-size="10.00">editeurpanovisu.EditeurPanovisu.start</text>
</a>
</g>
</g>
<!-- Node10&#45;&gt;Node14 -->
<g id="edge26_Node000010_Node000014" class="edge">
<title>Node10&#45;&gt;Node14</title>
<g id="a_edge26_Node000010_Node000014"><a xlink:title=" ">
<path fill="none" stroke="#63b8ff" d="M1135.65,-211.09C1122.25,-213.52 1108.54,-215.77 1095.5,-217.53 1018.7,-227.91 930.84,-234.11 866.88,-237.6"/>
<polygon fill="#63b8ff" stroke="#63b8ff" points="1136.14,-214.56 1145.33,-209.29 1134.86,-207.68 1136.14,-214.56"/>
</a>
</g>
</g>
<!-- Node15 -->
<g id="Node000015" class="node">
<title>Node15</title>
<g id="a_Node000015"><a xlink:href="classediteurpanovisu_1_1EditeurPanovisu.html#aef8c9b28c3e88d6e27e3f62b9a901134" target="_top" xlink:title=" ">
<polygon fill="white" stroke="#666666" points="1094,-175.53 906.25,-175.53 906.25,-143.53 1094,-143.53 1094,-175.53"/>
<text xml:space="preserve" text-anchor="start" x="914.25" y="-162.03" font-family="Helvetica,sans-Serif" font-size="10.00">editeurpanovisu.EditeurPanovisu.sauve</text>
<text xml:space="preserve" text-anchor="middle" x="1000.12" y="-150.03" font-family="Helvetica,sans-Serif" font-size="10.00">Fichiers</text>
</a>
</g>
</g>
<!-- Node10&#45;&gt;Node15 -->
<g id="edge25_Node000010_Node000015" class="edge">
<title>Node10&#45;&gt;Node15</title>
<g id="a_edge25_Node000010_Node000015"><a xlink:title=" ">
<path fill="none" stroke="#63b8ff" d="M1120.1,-177.21C1111.54,-175.94 1102.92,-174.66 1094.44,-173.4"/>
<polygon fill="#63b8ff" stroke="#63b8ff" points="1119.4,-180.64 1129.8,-178.65 1120.43,-173.72 1119.4,-180.64"/>
</a>
</g>
</g>
<!-- Node11&#45;&gt;Node3 -->
<g id="edge16_Node000011_Node000003" class="edge">
<title>Node11&#45;&gt;Node3</title>
<g id="a_edge16_Node000011_Node000003"><a xlink:title=" ">
<path fill="none" stroke="#63b8ff" d="M453.32,-254.08C426.42,-259.19 398.18,-264.56 374.6,-269.04"/>
<polygon fill="#63b8ff" stroke="#63b8ff" points="453.69,-257.57 462.86,-252.26 452.38,-250.69 453.69,-257.57"/>
</a>
</g>
</g>
<!-- Node12&#45;&gt;Node3 -->
<g id="edge20_Node000012_Node000003" class="edge">
<title>Node12&#45;&gt;Node3</title>
<g id="a_edge20_Node000012_Node000003"><a xlink:title=" ">
<path fill="none" stroke="#63b8ff" d="M510.71,-175.39C460.37,-202.79 376.12,-248.65 338.51,-269.12"/>
<polygon fill="#63b8ff" stroke="#63b8ff" points="512.17,-178.59 519.28,-170.73 508.82,-172.44 512.17,-178.59"/>
</a>
</g>
</g>
<!-- Node13&#45;&gt;Node3 -->
<g id="edge22_Node000013_Node000003" class="edge">
<title>Node13&#45;&gt;Node3</title>
<g id="a_edge22_Node000013_Node000003"><a xlink:title=" ">
<path fill="none" stroke="#63b8ff" d="M892.8,-284.6C763.7,-283.46 547.54,-281.55 420.73,-280.43"/>
<polygon fill="#63b8ff" stroke="#63b8ff" points="892.71,-288.1 902.74,-284.68 892.77,-281.1 892.71,-288.1"/>
</a>
</g>
</g>
<!-- Node13&#45;&gt;Node14 -->
<g id="edge23_Node000013_Node000014" class="edge">
<title>Node13&#45;&gt;Node14</title>
<g id="a_edge23_Node000013_Node000014"><a xlink:title=" ">
<path fill="none" stroke="#63b8ff" d="M904.83,-266.86C879.23,-261.79 852.41,-256.47 829.99,-252.03"/>
<polygon fill="#63b8ff" stroke="#63b8ff" points="904.12,-270.28 914.61,-268.79 905.48,-263.42 904.12,-270.28"/>
</a>
</g>
</g>
<!-- Node14&#45;&gt;Node11 -->
<g id="edge24_Node000014_Node000011" class="edge">
<title>Node14&#45;&gt;Node11</title>
<g id="a_edge24_Node000014_Node000011"><a xlink:title=" ">
<path fill="none" stroke="#63b8ff" d="M673.87,-238.8C665.14,-238.57 656.32,-238.33 647.63,-238.09"/>
<polygon fill="#63b8ff" stroke="#63b8ff" points="673.69,-242.3 683.78,-239.07 673.88,-235.3 673.69,-242.3"/>
</a>
</g>
</g>
<!-- Node16&#45;&gt;Node3 -->
<g id="edge28_Node000016_Node000003" class="edge">
<title>Node16&#45;&gt;Node3</title>
<g id="a_edge28_Node000016_Node000003"><a xlink:title=" ">
<path fill="none" stroke="#63b8ff" d="M671.58,-314C609.26,-308.2 528.31,-300.58 456.5,-293.53 444.95,-292.4 432.85,-291.19 420.83,-289.98"/>
<polygon fill="#63b8ff" stroke="#63b8ff" points="671.21,-317.48 681.49,-314.92 671.85,-310.51 671.21,-317.48"/>
</a>
</g>
</g>
</g>
</svg>

<g id="navigator" transform="translate(0 0)" fill="#404254">
  <rect fill="#f2f5e9" fill-opacity="0.5" stroke="#606060" stroke-width=".5" x="0" y="0" width="60" height="60"/>
  <use id="zoomplus" xlink:href="#zoomPlus" x="17" y="9" onmousedown="handleZoom(evt,'in')"/>
  <use id="zoomminus" xlink:href="#zoomMin" x="42" y="9" onmousedown="handleZoom(evt,'out')"/>
  <use id="reset" xlink:href="#resetDef" x="30" y="36" onmousedown="handleReset()"/>
   <use id="arrowup" xlink:href="#arrowUp" x="0" y="0" onmousedown="handlePan(0,-1)"/>
  <use id="arrowright" xlink:href="#arrowRight" x="0" y="0" onmousedown="handlePan(1,0)"/>
  <use id="arrowdown" xlink:href="#arrowDown" x="0" y="0" onmousedown="handlePan(0,1)"/>
  <use id="arrowleft" xlink:href="#arrowLeft" x="0" y="0" onmousedown="handlePan(-1,0)"/>
</g>
<svg viewBox="0 0 15 15" width="100%" height="30px" preserveAspectRatio="xMaxYMin meet">
 <g id="arrow_out" transform="scale(0.3 0.3)">
  <a xlink:href="classediteurpanovisu_1_1EditeurPanovisu_a1bcd1fd5597eaabf567424ac1a947d74_icgraph_org.svg" target="_base">
   <rect id="button" ry="5" rx="5" y="6" x="6" height="38" width="38"
        fill="#f2f5e9" fill-opacity="0.5" stroke="#606060" stroke-width="1.0"/>
   <path id="arrow"
     d="M 11.500037,31.436501 C 11.940474,20.09759 22.043105,11.32322 32.158766,21.979434 L 37.068811,17.246167 C 37.068811,17.246167 37.088388,32 37.088388,32 L 22.160133,31.978069 C 22.160133,31.978069 26.997745,27.140456 26.997745,27.140456 C 18.528582,18.264221 13.291696,25.230495 11.500037,31.436501 z"
     style="fill:#404040;"/>
  </a>
 </g>
</svg>

<style type='text/css'>
<![CDATA[
[data-mouse-over-selected='false'] { opacity: 0.7; }
[data-mouse-over-selected='true']  { opacity: 1.0; }
]]>
</style>
<script type="application/ecmascript"><![CDATA[
document.addEventListener('DOMContentLoaded', (event) => {
  highlightEdges();
  highlightAdjacentNodes();
});
]]></script>
</svg>
