<?xml version="1.0" encoding="UTF-8" standalone="no"?>
<!DOCTYPE svg PUBLIC "-//W3C//DTD SVG 1.1//EN"
 "http://www.w3.org/Graphics/SVG/1.1/DTD/svg11.dtd">
<!-- Generated by graphviz version 13.1.2 (20250808.2320)
 -->
<!-- Title: editeurpanovisu.MarkdownViewer.MarkdownViewer Pages: 1 -->
<svg width="673pt" height="140pt"
 viewBox="0.00 0.00 673.00 140.00" xmlns="http://www.w3.org/2000/svg" xmlns:xlink="http://www.w3.org/1999/xlink">
<g id="graph0" class="graph" transform="scale(1 1) rotate(0) translate(4 136)">
<title>editeurpanovisu.MarkdownViewer.MarkdownViewer</title>
<!-- Node1 -->
<g id="Node000001" class="node">
<title>Node1</title>
<g id="a_Node000001"><a xlink:title="Constructeur avec support des extensions GFM (GitHub Flavored Markdown)">
<polygon fill="#999999" stroke="#666666" points="664.75,-107 532.5,-107 532.5,-75 664.75,-75 664.75,-107"/>
<text xml:space="preserve" text-anchor="start" x="540.5" y="-93.5" font-family="Helvetica,sans-Serif" font-size="10.00">editeurpanovisu.Markdown</text>
<text xml:space="preserve" text-anchor="middle" x="598.62" y="-81.5" font-family="Helvetica,sans-Serif" font-size="10.00">Viewer.MarkdownViewer</text>
</a>
</g>
</g>
<!-- Node2 -->
<g id="Node000002" class="node">
<title>Node2</title>
<g id="a_Node000002"><a xlink:href="classediteurpanovisu_1_1MarkdownViewer.html#a5823f5194e7e655cfdff1325fe7b59a9" target="_top" xlink:title="Charge les polices personnalisées pour le WebView Wingdings doit être chargée explicitement car WebVi...">
<polygon fill="white" stroke="#666666" points="492.38,-132 360.12,-132 360.12,-100 492.38,-100 492.38,-132"/>
<text xml:space="preserve" text-anchor="start" x="368.12" y="-118.5" font-family="Helvetica,sans-Serif" font-size="10.00">editeurpanovisu.Markdown</text>
<text xml:space="preserve" text-anchor="middle" x="426.25" y="-106.5" font-family="Helvetica,sans-Serif" font-size="10.00">Viewer.chargerFontes</text>
</a>
</g>
</g>
<!-- Node1&#45;&gt;Node2 -->
<g id="edge1_Node000001_Node000002" class="edge">
<title>Node1&#45;&gt;Node2</title>
<g id="a_edge1_Node000001_Node000002"><a xlink:title=" ">
<path fill="none" stroke="#63b8ff" d="M520.88,-95.54C511.48,-96.85 501.95,-98.3 492.74,-99.8"/>
<polygon fill="#63b8ff" stroke="#63b8ff" points="521.3,-99.02 530.74,-94.21 520.36,-92.08 521.3,-99.02"/>
</a>
</g>
</g>
<!-- Node3 -->
<g id="Node000003" class="node">
<title>Node3</title>
<g id="a_Node000003"><a xlink:href="classediteurpanovisu_1_1MarkdownViewer.html#a7dd9cb34e8163f5e8849b594d2e0d7ec" target="_top" xlink:title="Retourne l&#39;URL de la police Wingdings pour @font&#45;face CSS.">
<polygon fill="white" stroke="#666666" points="496.5,-82 356,-82 356,-50 496.5,-50 496.5,-82"/>
<text xml:space="preserve" text-anchor="start" x="364" y="-68.5" font-family="Helvetica,sans-Serif" font-size="10.00">editeurpanovisu.Markdown</text>
<text xml:space="preserve" text-anchor="middle" x="426.25" y="-56.5" font-family="Helvetica,sans-Serif" font-size="10.00">Viewer.getWingdingsFontUrl</text>
</a>
</g>
</g>
<!-- Node1&#45;&gt;Node3 -->
<g id="edge3_Node000001_Node000003" class="edge">
<title>Node1&#45;&gt;Node3</title>
<g id="a_edge3_Node000001_Node000003"><a xlink:title=" ">
<path fill="none" stroke="#63b8ff" d="M521.02,-79.76C513.02,-78.58 504.91,-77.4 496.99,-76.23"/>
<polygon fill="#63b8ff" stroke="#63b8ff" points="520.34,-83.2 530.74,-81.19 521.36,-76.27 520.34,-83.2"/>
</a>
</g>
</g>
<!-- Node6 -->
<g id="Node000006" class="node">
<title>Node6</title>
<g id="a_Node000006"><a xlink:href="classediteurpanovisu_1_1MarkdownViewer.html#a6a08acdfb7fcb27bbb308ce0487da36d" target="_top" xlink:title="Exemple d&#39;utilisation.">
<polygon fill="white" stroke="#666666" points="492.38,-32 360.12,-32 360.12,0 492.38,0 492.38,-32"/>
<text xml:space="preserve" text-anchor="start" x="368.12" y="-18.5" font-family="Helvetica,sans-Serif" font-size="10.00">editeurpanovisu.Markdown</text>
<text xml:space="preserve" text-anchor="middle" x="426.25" y="-6.5" font-family="Helvetica,sans-Serif" font-size="10.00">Viewer.main</text>
</a>
</g>
</g>
<!-- Node1&#45;&gt;Node6 -->
<g id="edge6_Node000001_Node000006" class="edge">
<title>Node1&#45;&gt;Node6</title>
<g id="a_edge6_Node000001_Node000006"><a xlink:title=" ">
<path fill="none" stroke="#63b8ff" d="M556.39,-69.3C538.24,-60.09 516.53,-49.54 496.5,-41 489.56,-38.04 482.14,-35.12 474.84,-32.38"/>
<polygon fill="#63b8ff" stroke="#63b8ff" points="554.78,-72.4 565.27,-73.85 557.97,-66.17 554.78,-72.4"/>
</a>
</g>
</g>
<!-- Node2&#45;&gt;Node1 -->
<g id="edge2_Node000002_Node000001" class="edge">
<title>Node2&#45;&gt;Node1</title>
<g id="a_edge2_Node000002_Node000001"><a xlink:title=" ">
<path fill="none" stroke="#63b8ff" d="M504.1,-111.44C513.5,-110.13 523.03,-108.69 532.24,-107.18"/>
<polygon fill="#63b8ff" stroke="#63b8ff" points="503.68,-107.97 494.24,-112.77 504.62,-114.91 503.68,-107.97"/>
</a>
</g>
</g>
<!-- Node4 -->
<g id="Node000004" class="node">
<title>Node4</title>
<g id="a_Node000004"><a xlink:href="classediteurpanovisu_1_1MarkdownViewer.html#af174733239ea1569baee494ad3b0e77c" target="_top" xlink:title="Génère le CSS @font&#45;face pour charger Wingdings dans le WebView.">
<polygon fill="white" stroke="#666666" points="320,-82 176.5,-82 176.5,-50 320,-50 320,-82"/>
<text xml:space="preserve" text-anchor="start" x="184.5" y="-68.5" font-family="Helvetica,sans-Serif" font-size="10.00">editeurpanovisu.Markdown</text>
<text xml:space="preserve" text-anchor="middle" x="248.25" y="-56.5" font-family="Helvetica,sans-Serif" font-size="10.00">Viewer.genererFontFaceCSS</text>
</a>
</g>
</g>
<!-- Node3&#45;&gt;Node4 -->
<g id="edge4_Node000003_Node000004" class="edge">
<title>Node3&#45;&gt;Node4</title>
<g id="a_edge4_Node000003_Node000004"><a xlink:title=" ">
<path fill="none" stroke="#63b8ff" d="M344.41,-66C336.37,-66 328.25,-66 320.32,-66"/>
<polygon fill="#63b8ff" stroke="#63b8ff" points="344.18,-69.5 354.18,-66 344.18,-62.5 344.18,-69.5"/>
</a>
</g>
</g>
<!-- Node5 -->
<g id="Node000005" class="node">
<title>Node5</title>
<g id="a_Node000005"><a xlink:href="classediteurpanovisu_1_1MarkdownViewer.html#a6174fefac84f4ff02188525f02b64dc3" target="_top" xlink:title="Enveloppe le HTML dans une structure complète avec CSS et URL de base.">
<polygon fill="white" stroke="#666666" points="140.5,-82 0,-82 0,-50 140.5,-50 140.5,-82"/>
<text xml:space="preserve" text-anchor="start" x="8" y="-68.5" font-family="Helvetica,sans-Serif" font-size="10.00">editeurpanovisu.Markdown</text>
<text xml:space="preserve" text-anchor="middle" x="70.25" y="-56.5" font-family="Helvetica,sans-Serif" font-size="10.00">Viewer.envelopperDansHtml</text>
</a>
</g>
</g>
<!-- Node4&#45;&gt;Node5 -->
<g id="edge5_Node000004_Node000005" class="edge">
<title>Node4&#45;&gt;Node5</title>
<g id="a_edge5_Node000004_Node000005"><a xlink:title=" ">
<path fill="none" stroke="#63b8ff" d="M164.89,-66C156.86,-66 148.77,-66 140.88,-66"/>
<polygon fill="#63b8ff" stroke="#63b8ff" points="164.66,-69.5 174.66,-66 164.66,-62.5 164.66,-69.5"/>
</a>
</g>
</g>
</g>
</svg>
