<?xml version="1.0" encoding="UTF-8" standalone="no"?>
<!DOCTYPE svg PUBLIC "-//W3C//DTD SVG 1.1//EN"
 "http://www.w3.org/Graphics/SVG/1.1/DTD/svg11.dtd">
<!-- Generated by graphviz version 13.1.2 (20250808.2320)
 -->
<!-- Title: editeurpanovisu.EditeurPanovisu.creerEditerDiaporama Pages: 1 -->
<svg width="914pt" height="453pt"
 viewBox="0.00 0.00 914.00 453.00" xmlns="http://www.w3.org/2000/svg" xmlns:xlink="http://www.w3.org/1999/xlink">
<g id="graph0" class="graph" transform="scale(1 1) rotate(0) translate(4 449.24)">
<title>editeurpanovisu.EditeurPanovisu.creerEditerDiaporama</title>
<!-- Node1 -->
<g id="Node000001" class="node">
<title>Node1</title>
<g id="a_Node000001"><a xlink:title=" ">
<polygon fill="#999999" stroke="#666666" points="183.25,-142 0,-142 0,-110 183.25,-110 183.25,-142"/>
<text xml:space="preserve" text-anchor="start" x="8" y="-128.5" font-family="Helvetica,sans-Serif" font-size="10.00">editeurpanovisu.EditeurPanovisu.creer</text>
<text xml:space="preserve" text-anchor="middle" x="91.62" y="-116.5" font-family="Helvetica,sans-Serif" font-size="10.00">EditerDiaporama</text>
</a>
</g>
</g>
<!-- Node2 -->
<g id="Node000002" class="node">
<title>Node2</title>
<g id="a_Node000002"><a xlink:href="classediteurpanovisu_1_1EditeurPanovisu.html#af3511d92da408708b09df9a4410de2ca" target="_top" xlink:title=" ">
<polygon fill="white" stroke="#666666" points="399.5,-302 219.25,-302 219.25,-270 399.5,-270 399.5,-302"/>
<text xml:space="preserve" text-anchor="start" x="227.25" y="-288.5" font-family="Helvetica,sans-Serif" font-size="10.00">editeurpanovisu.EditeurPanovisu.cree</text>
<text xml:space="preserve" text-anchor="middle" x="309.38" y="-276.5" font-family="Helvetica,sans-Serif" font-size="10.00">DiaporamaHTML</text>
</a>
</g>
</g>
<!-- Node1&#45;&gt;Node2 -->
<g id="edge1_Node000001_Node000002" class="edge">
<title>Node1&#45;&gt;Node2</title>
<g id="a_edge1_Node000001_Node000002"><a xlink:title=" ">
<path fill="none" stroke="#63b8ff" d="M114.5,-142.22C153.02,-170.79 233.08,-230.16 277.31,-262.96"/>
<polygon fill="#63b8ff" stroke="#63b8ff" points="275.11,-265.69 285.23,-268.83 279.28,-260.07 275.11,-265.69"/>
</a>
</g>
</g>
<!-- Node6 -->
<g id="Node000006" class="node">
<title>Node6</title>
<g id="a_Node000006"><a xlink:href="classediteurpanovisu_1_1EditeurPanovisu.html#a948143344d7a90ae50f3d5001a69eef6" target="_top" xlink:title=" ">
<polygon fill="white" stroke="#666666" points="615.38,-208 440.38,-208 440.38,-176 615.38,-176 615.38,-208"/>
<text xml:space="preserve" text-anchor="start" x="448.38" y="-194.5" font-family="Helvetica,sans-Serif" font-size="10.00">editeurpanovisu.EditeurPanovisu.get</text>
<text xml:space="preserve" text-anchor="middle" x="527.88" y="-182.5" font-family="Helvetica,sans-Serif" font-size="10.00">StrRepertTemp</text>
</a>
</g>
</g>
<!-- Node1&#45;&gt;Node6 -->
<g id="edge13_Node000001_Node000006" class="edge">
<title>Node1&#45;&gt;Node6</title>
<g id="a_edge13_Node000001_Node000006"><a xlink:title=" ">
<path fill="none" stroke="#63b8ff" d="M142.65,-142.47C165.74,-149.48 193.65,-157.15 219.25,-162 288.74,-175.16 368.21,-182.72 428.97,-186.96"/>
<polygon fill="#63b8ff" stroke="#63b8ff" points="428.37,-190.42 438.59,-187.61 428.85,-183.44 428.37,-190.42"/>
</a>
</g>
</g>
<!-- Node7 -->
<g id="Node000007" class="node">
<title>Node7</title>
<g id="a_Node000007"><a xlink:href="leaflet_8js.html#a73aff07b65d7c0b09ccf6b4c4f1b7a9d" target="_top" xlink:title=" ">
<polygon fill="white" stroke="#666666" points="905.8,-252 877,-252 877,-232 905.8,-232 905.8,-252"/>
<text xml:space="preserve" text-anchor="middle" x="891.4" y="-238.5" font-family="Helvetica,sans-Serif" font-size="10.00">i</text>
</a>
</g>
</g>
<!-- Node1&#45;&gt;Node7 -->
<g id="edge14_Node000001_Node000007" class="edge">
<title>Node1&#45;&gt;Node7</title>
<g id="a_edge14_Node000001_Node000007"><a xlink:title=" ">
<path fill="none" stroke="#63b8ff" d="M183.64,-129.06C289.16,-133.53 468.09,-143.98 620.25,-167 719.71,-182.05 746.35,-182.92 841,-217 849.58,-220.09 858.59,-224.32 866.52,-228.43"/>
<polygon fill="#63b8ff" stroke="#63b8ff" points="864.75,-231.45 875.21,-233.11 868.07,-225.28 864.75,-231.45"/>
</a>
</g>
</g>
<!-- Node10 -->
<g id="Node000010" class="node">
<title>Node10</title>
<g id="a_Node000010"><a xlink:href="classediteurpanovisu_1_1EditeurPanovisu.html#a5b658a7f0aa001696a8794255aaddfde" target="_top" xlink:title=" ">
<polygon fill="white" stroke="#666666" points="398,-120 220.75,-120 220.75,-88 398,-88 398,-120"/>
<text xml:space="preserve" text-anchor="start" x="228.75" y="-106.5" font-family="Helvetica,sans-Serif" font-size="10.00">editeurpanovisu.EditeurPanovisu.geti</text>
<text xml:space="preserve" text-anchor="middle" x="309.38" y="-94.5" font-family="Helvetica,sans-Serif" font-size="10.00">NombreDiapo</text>
</a>
</g>
</g>
<!-- Node1&#45;&gt;Node10 -->
<g id="edge12_Node000001_Node000010" class="edge">
<title>Node1&#45;&gt;Node10</title>
<g id="a_edge12_Node000001_Node000010"><a xlink:title=" ">
<path fill="none" stroke="#63b8ff" d="M183.5,-116.73C191.98,-115.87 200.62,-114.99 209.18,-114.12"/>
<polygon fill="#63b8ff" stroke="#63b8ff" points="209.27,-117.62 218.86,-113.13 208.56,-110.66 209.27,-117.62"/>
</a>
</g>
</g>
<!-- Node11 -->
<g id="Node000011" class="node">
<title>Node11</title>
<g id="a_Node000011"><a xlink:href="leaflet_8js.html#abf5830200d869e463ea38504a19985f6" target="_top" xlink:title=" ">
<polygon fill="white" stroke="#666666" points="324.12,-70 294.62,-70 294.62,-50 324.12,-50 324.12,-70"/>
<text xml:space="preserve" text-anchor="middle" x="309.38" y="-56.5" font-family="Helvetica,sans-Serif" font-size="10.00">me</text>
</a>
</g>
</g>
<!-- Node1&#45;&gt;Node11 -->
<g id="edge15_Node000001_Node000011" class="edge">
<title>Node1&#45;&gt;Node11</title>
<g id="a_edge15_Node000001_Node000011"><a xlink:title=" ">
<path fill="none" stroke="#63b8ff" d="M132.33,-109.57C157.04,-99.77 189.64,-87.6 219.25,-79 240.48,-72.83 265.09,-67.74 283.07,-64.38"/>
<polygon fill="#63b8ff" stroke="#63b8ff" points="283.62,-67.84 292.84,-62.61 282.37,-60.95 283.62,-67.84"/>
</a>
</g>
</g>
<!-- Node12 -->
<g id="Node000012" class="node">
<title>Node12</title>
<g id="a_Node000012"><a xlink:href="classediteurpanovisu_1_1EditeurPanovisu.html#a97328a8bddd12feb830e0be8ebf8300a" target="_top" xlink:title=" ">
<polygon fill="white" stroke="#666666" points="398,-32 220.75,-32 220.75,0 398,0 398,-32"/>
<text xml:space="preserve" text-anchor="start" x="228.75" y="-18.5" font-family="Helvetica,sans-Serif" font-size="10.00">editeurpanovisu.EditeurPanovisu.seti</text>
<text xml:space="preserve" text-anchor="middle" x="309.38" y="-6.5" font-family="Helvetica,sans-Serif" font-size="10.00">NombreDiapo</text>
</a>
</g>
</g>
<!-- Node1&#45;&gt;Node12 -->
<g id="edge16_Node000001_Node000012" class="edge">
<title>Node1&#45;&gt;Node12</title>
<g id="a_edge16_Node000001_Node000012"><a xlink:title=" ">
<path fill="none" stroke="#63b8ff" d="M112.48,-109.72C136.45,-90.79 178.62,-59.75 219.25,-41 222.79,-39.37 226.45,-37.82 230.19,-36.36"/>
<polygon fill="#63b8ff" stroke="#63b8ff" points="231.26,-39.69 239.45,-32.97 228.86,-33.12 231.26,-39.69"/>
</a>
</g>
</g>
<!-- Node3 -->
<g id="Node000003" class="node">
<title>Node3</title>
<g id="a_Node000003"><a xlink:href="classediteurpanovisu_1_1EditeurPanovisu.html#a8efc7dc7e69ecc141c1613ad5dc7c0aa" target="_top" xlink:title=" ">
<polygon fill="white" stroke="#666666" points="841,-427 656.25,-427 656.25,-395 841,-395 841,-427"/>
<text xml:space="preserve" text-anchor="start" x="664.25" y="-413.5" font-family="Helvetica,sans-Serif" font-size="10.00">editeurpanovisu.EditeurPanovisu.copie</text>
<text xml:space="preserve" text-anchor="middle" x="748.62" y="-401.5" font-family="Helvetica,sans-Serif" font-size="10.00">FichierRepertoire</text>
</a>
</g>
</g>
<!-- Node2&#45;&gt;Node3 -->
<g id="edge2_Node000002_Node000003" class="edge">
<title>Node2&#45;&gt;Node3</title>
<g id="a_edge2_Node000002_Node000003"><a xlink:title=" ">
<path fill="none" stroke="#63b8ff" d="M319.04,-302.25C336.38,-332.79 378.62,-397.92 435.5,-423 514.07,-457.65 614.85,-444.84 680.31,-430.03"/>
<polygon fill="#63b8ff" stroke="#63b8ff" points="680.9,-433.49 689.83,-427.8 679.3,-426.68 680.9,-433.49"/>
</a>
</g>
</g>
<!-- Node4 -->
<g id="Node000004" class="node">
<title>Node4</title>
<g id="a_Node000004"><a xlink:href="classediteurpanovisu_1_1EditeurPanovisu.html#ab6b446bc030b942ad136e6ee9d284350" target="_top" xlink:title=" ">
<polygon fill="white" stroke="#666666" points="620.25,-396 435.5,-396 435.5,-364 620.25,-364 620.25,-396"/>
<text xml:space="preserve" text-anchor="start" x="443.5" y="-382.5" font-family="Helvetica,sans-Serif" font-size="10.00">editeurpanovisu.EditeurPanovisu.copie</text>
<text xml:space="preserve" text-anchor="middle" x="527.88" y="-370.5" font-family="Helvetica,sans-Serif" font-size="10.00">Repertoire</text>
</a>
</g>
</g>
<!-- Node2&#45;&gt;Node4 -->
<g id="edge3_Node000002_Node000004" class="edge">
<title>Node2&#45;&gt;Node4</title>
<g id="a_edge3_Node000002_Node000004"><a xlink:title=" ">
<path fill="none" stroke="#63b8ff" d="M335.85,-302.41C360.53,-317.72 399.41,-340.35 435.5,-355 439.87,-356.77 444.41,-358.46 449.03,-360.07"/>
<polygon fill="#63b8ff" stroke="#63b8ff" points="447.86,-363.37 458.45,-363.17 450.05,-356.72 447.86,-363.37"/>
</a>
</g>
</g>
<!-- Node5 -->
<g id="Node000005" class="node">
<title>Node5</title>
<g id="a_Node000005"><a xlink:href="classediteurpanovisu_1_1EditeurPanovisu.html#ae9640dc5eb2933e07534464d6477d96c" target="_top" xlink:title=" ">
<polygon fill="white" stroke="#666666" points="615.38,-346 440.38,-346 440.38,-314 615.38,-314 615.38,-346"/>
<text xml:space="preserve" text-anchor="start" x="448.38" y="-332.5" font-family="Helvetica,sans-Serif" font-size="10.00">editeurpanovisu.EditeurPanovisu.get</text>
<text xml:space="preserve" text-anchor="middle" x="527.88" y="-320.5" font-family="Helvetica,sans-Serif" font-size="10.00">StrRepertAppli</text>
</a>
</g>
</g>
<!-- Node2&#45;&gt;Node5 -->
<g id="edge6_Node000002_Node000005" class="edge">
<title>Node2&#45;&gt;Node5</title>
<g id="a_edge6_Node000002_Node000005"><a xlink:title=" ">
<path fill="none" stroke="#63b8ff" d="M391.3,-302.45C405.46,-305.33 420.3,-308.34 434.74,-311.27"/>
<polygon fill="#63b8ff" stroke="#63b8ff" points="433.71,-314.64 444.2,-313.2 435.1,-307.78 433.71,-314.64"/>
</a>
</g>
</g>
<!-- Node2&#45;&gt;Node6 -->
<g id="edge7_Node000002_Node000006" class="edge">
<title>Node2&#45;&gt;Node6</title>
<g id="a_edge7_Node000002_Node000006"><a xlink:title=" ">
<path fill="none" stroke="#63b8ff" d="M335.85,-269.59C360.53,-254.28 399.41,-231.65 435.5,-217 439.87,-215.23 444.41,-213.54 449.03,-211.93"/>
<polygon fill="#63b8ff" stroke="#63b8ff" points="450.05,-215.28 458.45,-208.83 447.86,-208.63 450.05,-215.28"/>
</a>
</g>
</g>
<!-- Node2&#45;&gt;Node7 -->
<g id="edge8_Node000002_Node000007" class="edge">
<title>Node2&#45;&gt;Node7</title>
<g id="a_edge8_Node000002_Node000007"><a xlink:title=" ">
<path fill="none" stroke="#63b8ff" d="M399.83,-294.34C506.67,-301.68 689.92,-305.92 841,-267 849.83,-264.72 858.9,-260.7 866.82,-256.54"/>
<polygon fill="#63b8ff" stroke="#63b8ff" points="868.46,-259.63 875.46,-251.67 865.03,-253.53 868.46,-259.63"/>
</a>
</g>
</g>
<!-- Node8 -->
<g id="Node000008" class="node">
<title>Node8</title>
<g id="a_Node000008"><a xlink:href="classediteurpanovisu_1_1ReadWriteImage.html#ac875b8819ddfbadc3482dab5e043f16b" target="_top" xlink:title=" ">
<polygon fill="white" stroke="#666666" points="594.38,-258 461.38,-258 461.38,-226 594.38,-226 594.38,-258"/>
<text xml:space="preserve" text-anchor="start" x="469.38" y="-244.5" font-family="Helvetica,sans-Serif" font-size="10.00">editeurpanovisu.ReadWrite</text>
<text xml:space="preserve" text-anchor="middle" x="527.88" y="-232.5" font-family="Helvetica,sans-Serif" font-size="10.00">Image.writeJpeg</text>
</a>
</g>
</g>
<!-- Node2&#45;&gt;Node8 -->
<g id="edge9_Node000002_Node000008" class="edge">
<title>Node2&#45;&gt;Node8</title>
<g id="a_edge9_Node000002_Node000008"><a xlink:title=" ">
<path fill="none" stroke="#63b8ff" d="M391.3,-269.55C410.39,-265.67 430.69,-261.55 449.61,-257.7"/>
<polygon fill="#63b8ff" stroke="#63b8ff" points="450.29,-261.14 459.39,-255.71 448.9,-254.28 450.29,-261.14"/>
</a>
</g>
</g>
<!-- Node4&#45;&gt;Node3 -->
<g id="edge4_Node000004_Node000003" class="edge">
<title>Node4&#45;&gt;Node3</title>
<g id="a_edge4_Node000004_Node000003"><a xlink:title=" ">
<path fill="none" stroke="#63b8ff" d="M620.69,-393.01C628.64,-394.14 636.71,-395.28 644.74,-396.42"/>
<polygon fill="#63b8ff" stroke="#63b8ff" points="644.15,-399.87 654.54,-397.81 645.13,-392.94 644.15,-399.87"/>
</a>
</g>
</g>
<!-- Node4&#45;&gt;Node4 -->
<g id="edge5_Node000004_Node000004" class="edge">
<title>Node4&#45;&gt;Node4</title>
<g id="a_edge5_Node000004_Node000004"><a xlink:title=" ">
<path fill="none" stroke="#63b8ff" d="M488.87,-396.44C481.59,-405.58 494.59,-414 527.88,-414 546.34,-414 558.56,-411.41 564.54,-407.54"/>
<polygon fill="#63b8ff" stroke="#63b8ff" points="567.93,-408.43 566.57,-397.92 561.08,-406.99 567.93,-408.43"/>
</a>
</g>
</g>
<!-- Node9 -->
<g id="Node000009" class="node">
<title>Node9</title>
<g id="a_Node000009"><a xlink:href="classediteurpanovisu_1_1ReadWriteImage.html#ae93614e117cb7a4718f4ac3d5fd33c4e" target="_top" xlink:title=" ">
<polygon fill="white" stroke="#666666" points="818.5,-258 678.75,-258 678.75,-226 818.5,-226 818.5,-258"/>
<text xml:space="preserve" text-anchor="start" x="686.75" y="-244.5" font-family="Helvetica,sans-Serif" font-size="10.00">editeurpanovisu.ReadWrite</text>
<text xml:space="preserve" text-anchor="middle" x="748.62" y="-232.5" font-family="Helvetica,sans-Serif" font-size="10.00">Image.calculeSharpenMatrix</text>
</a>
</g>
</g>
<!-- Node8&#45;&gt;Node9 -->
<g id="edge10_Node000008_Node000009" class="edge">
<title>Node8&#45;&gt;Node9</title>
<g id="a_edge10_Node000008_Node000009"><a xlink:title=" ">
<path fill="none" stroke="#63b8ff" d="M594.8,-242C617.51,-242 643.19,-242 666.94,-242"/>
<polygon fill="#63b8ff" stroke="#63b8ff" points="666.9,-245.5 676.9,-242 666.9,-238.5 666.9,-245.5"/>
</a>
</g>
</g>
<!-- Node9&#45;&gt;Node7 -->
<g id="edge11_Node000009_Node000007" class="edge">
<title>Node9&#45;&gt;Node7</title>
<g id="a_edge11_Node000009_Node000007"><a xlink:title=" ">
<path fill="none" stroke="#63b8ff" d="M818.78,-242C835.43,-242 852.17,-242 865.28,-242"/>
<polygon fill="#63b8ff" stroke="#63b8ff" points="865.09,-245.5 875.09,-242 865.09,-238.5 865.09,-245.5"/>
</a>
</g>
</g>
</g>
</svg>
