<?xml version="1.0" encoding="UTF-8" standalone="no"?>
<!DOCTYPE svg PUBLIC "-//W3C//DTD SVG 1.1//EN"
 "http://www.w3.org/Graphics/SVG/1.1/DTD/svg11.dtd">
<!-- Generated by graphviz version 13.1.2 (20250808.2320)
 -->
<!-- Title: editeurpanovisu.GestionnaireInterfaceController.getStrTitrePoliceNom Pages: 1 -->
<svg width="2371pt" height="471pt"
 viewBox="0.00 0.00 2371.00 471.00" xmlns="http://www.w3.org/2000/svg" xmlns:xlink="http://www.w3.org/1999/xlink">
<g id="graph0" class="graph" transform="scale(1 1) rotate(0) translate(4 466.64)">
<title>editeurpanovisu.GestionnaireInterfaceController.getStrTitrePoliceNom</title>
<!-- Node1 -->
<g id="Node000001" class="node">
<title>Node1</title>
<g id="a_Node000001"><a xlink:title=" ">
<polygon fill="#999999" stroke="#666666" points="2363,-106.64 2218,-106.64 2218,-62.64 2363,-62.64 2363,-106.64"/>
<text xml:space="preserve" text-anchor="start" x="2226" y="-93.14" font-family="Helvetica,sans-Serif" font-size="10.00">editeurpanovisu.Gestionnaire</text>
<text xml:space="preserve" text-anchor="start" x="2226" y="-81.14" font-family="Helvetica,sans-Serif" font-size="10.00">InterfaceController.getStrTitre</text>
<text xml:space="preserve" text-anchor="middle" x="2290.5" y="-69.14" font-family="Helvetica,sans-Serif" font-size="10.00">PoliceNom</text>
</a>
</g>
</g>
<!-- Node2 -->
<g id="Node000002" class="node">
<title>Node2</title>
<g id="a_Node000002"><a xlink:href="classediteurpanovisu_1_1GestionnaireInterfaceController.html#a55c8afda208674955a13d48d02be41b8" target="_top" xlink:title=" ">
<polygon fill="white" stroke="#666666" points="2182,-302.64 2014.5,-302.64 2014.5,-270.64 2182,-270.64 2182,-302.64"/>
<text xml:space="preserve" text-anchor="start" x="2022.5" y="-289.14" font-family="Helvetica,sans-Serif" font-size="10.00">editeurpanovisu.Gestionnaire</text>
<text xml:space="preserve" text-anchor="middle" x="2098.25" y="-277.14" font-family="Helvetica,sans-Serif" font-size="10.00">InterfaceController.afficheTemplate</text>
</a>
</g>
</g>
<!-- Node1&#45;&gt;Node2 -->
<g id="edge1_Node000001_Node000002" class="edge">
<title>Node1&#45;&gt;Node2</title>
<g id="a_edge1_Node000001_Node000002"><a xlink:title=" ">
<path fill="none" stroke="#63b8ff" d="M2264.99,-115.44C2243.82,-141.52 2211.99,-179.53 2182,-210.64 2161.15,-232.26 2135.44,-255.37 2118.26,-270.35"/>
<polygon fill="#63b8ff" stroke="#63b8ff" points="2267.5,-117.89 2271.06,-107.91 2262.05,-113.5 2267.5,-117.89"/>
</a>
</g>
</g>
<!-- Node10 -->
<g id="Node000010" class="node">
<title>Node10</title>
<g id="a_Node000010"><a xlink:href="classediteurpanovisu_1_1EditeurPanovisu.html#a94e36b9e9d09ab1a4c852b8a8cefa927" target="_top" xlink:title=" ">
<polygon fill="white" stroke="#666666" points="647.25,-195.64 456.5,-195.64 456.5,-163.64 647.25,-163.64 647.25,-195.64"/>
<text xml:space="preserve" text-anchor="start" x="464.5" y="-182.14" font-family="Helvetica,sans-Serif" font-size="10.00">editeurpanovisu.EditeurPanovisu.genere</text>
<text xml:space="preserve" text-anchor="middle" x="551.88" y="-170.14" font-family="Helvetica,sans-Serif" font-size="10.00">Visite</text>
</a>
</g>
</g>
<!-- Node1&#45;&gt;Node10 -->
<g id="edge30_Node000001_Node000010" class="edge">
<title>Node1&#45;&gt;Node10</title>
<g id="a_edge30_Node000001_Node000010"><a xlink:title=" ">
<path fill="none" stroke="#63b8ff" d="M2206.65,-84.64C2126.24,-84.64 2000.75,-84.64 1892,-84.64 1892,-84.64 1892,-84.64 1228.5,-84.64 984.5,-84.64 923.51,-106.12 683.25,-148.64 661.03,-152.57 636.93,-157.97 615.56,-163.17"/>
<polygon fill="#63b8ff" stroke="#63b8ff" points="2206.18,-88.14 2216.18,-84.64 2206.18,-81.14 2206.18,-88.14"/>
</a>
</g>
</g>
<!-- Node16 -->
<g id="Node000016" class="node">
<title>Node16</title>
<g id="a_Node000016"><a xlink:href="classediteurpanovisu_1_1GestionnaireInterfaceController.html#a8c634f775c31c1a4db22d5ef0659f7e4" target="_top" xlink:title=" ">
<polygon fill="white" stroke="#666666" points="2171.88,-56.64 2024.62,-56.64 2024.62,-24.64 2171.88,-24.64 2171.88,-56.64"/>
<text xml:space="preserve" text-anchor="start" x="2032.62" y="-43.14" font-family="Helvetica,sans-Serif" font-size="10.00">editeurpanovisu.Gestionnaire</text>
<text xml:space="preserve" text-anchor="middle" x="2098.25" y="-31.14" font-family="Helvetica,sans-Serif" font-size="10.00">InterfaceController.afficheTitre</text>
</a>
</g>
</g>
<!-- Node1&#45;&gt;Node16 -->
<g id="edge27_Node000001_Node000016" class="edge">
<title>Node1&#45;&gt;Node16</title>
<g id="a_edge27_Node000001_Node000016"><a xlink:title=" ">
<path fill="none" stroke="#63b8ff" d="M2206.58,-65.46C2194.5,-62.66 2182.15,-59.81 2170.33,-57.07"/>
<polygon fill="#63b8ff" stroke="#63b8ff" points="2205.57,-68.82 2216.1,-67.66 2207.15,-62 2205.57,-68.82"/>
</a>
</g>
</g>
<!-- Node17 -->
<g id="Node000017" class="node">
<title>Node17</title>
<g id="a_Node000017"><a xlink:href="classediteurpanovisu_1_1GestionnaireInterfaceController.html#ac7fa988dc99d8684686127a2269cd66e" target="_top" xlink:title=" ">
<polygon fill="white" stroke="#666666" points="1969.12,-34.64 1812.88,-34.64 1812.88,-2.64 1969.12,-2.64 1969.12,-34.64"/>
<text xml:space="preserve" text-anchor="start" x="1820.88" y="-21.14" font-family="Helvetica,sans-Serif" font-size="10.00">editeurpanovisu.Gestionnaire</text>
<text xml:space="preserve" text-anchor="middle" x="1891" y="-9.14" font-family="Helvetica,sans-Serif" font-size="10.00">InterfaceController.creeInterface</text>
</a>
</g>
</g>
<!-- Node1&#45;&gt;Node17 -->
<g id="edge29_Node000001_Node000017" class="edge">
<title>Node1&#45;&gt;Node17</title>
<g id="a_edge29_Node000001_Node000017"><a xlink:title=" ">
<path fill="none" stroke="#63b8ff" d="M2255.25,-55.43C2235.29,-40.35 2208.82,-23.5 2182,-15.64 2112.19,4.84 2028.79,1.25 1969.39,-5.77"/>
<polygon fill="#63b8ff" stroke="#63b8ff" points="2252.99,-58.1 2263.03,-61.48 2257.29,-52.58 2252.99,-58.1"/>
</a>
</g>
</g>
<!-- Node18 -->
<g id="Node000018" class="node">
<title>Node18</title>
<g id="a_Node000018"><a xlink:href="classediteurpanovisu_1_1GestionnaireInterfaceController.html#ab66509c63a85a8285a081b24049e8774" target="_top" xlink:title=" ">
<polygon fill="white" stroke="#666666" points="2181.25,-201.64 2015.25,-201.64 2015.25,-169.64 2181.25,-169.64 2181.25,-201.64"/>
<text xml:space="preserve" text-anchor="start" x="2023.25" y="-188.14" font-family="Helvetica,sans-Serif" font-size="10.00">editeurpanovisu.Gestionnaire</text>
<text xml:space="preserve" text-anchor="middle" x="2098.25" y="-176.14" font-family="Helvetica,sans-Serif" font-size="10.00">InterfaceController.strGetTemplate</text>
</a>
</g>
</g>
<!-- Node1&#45;&gt;Node18 -->
<g id="edge31_Node000001_Node000018" class="edge">
<title>Node1&#45;&gt;Node18</title>
<g id="a_edge31_Node000001_Node000018"><a xlink:title=" ">
<path fill="none" stroke="#63b8ff" d="M2237.39,-112.3C2203,-130.56 2159.09,-153.87 2130.12,-169.25"/>
<polygon fill="#63b8ff" stroke="#63b8ff" points="2238.75,-115.54 2245.94,-107.76 2235.47,-109.36 2238.75,-115.54"/>
</a>
</g>
</g>
<!-- Node3 -->
<g id="Node000003" class="node">
<title>Node3</title>
<g id="a_Node000003"><a xlink:href="classediteurpanovisu_1_1EditeurPanovisu.html#a87b29dc258cfc67370b1f27809e91b8e" target="_top" xlink:title=" ">
<polygon fill="white" stroke="#666666" points="1978.5,-352.64 1803.5,-352.64 1803.5,-320.64 1978.5,-320.64 1978.5,-352.64"/>
<text xml:space="preserve" text-anchor="start" x="1811.5" y="-339.14" font-family="Helvetica,sans-Serif" font-size="10.00">editeurpanovisu.EditeurPanovisu.tsk</text>
<text xml:space="preserve" text-anchor="middle" x="1891" y="-327.14" font-family="Helvetica,sans-Serif" font-size="10.00">AnalyseFichierPVU</text>
</a>
</g>
</g>
<!-- Node2&#45;&gt;Node3 -->
<g id="edge2_Node000002_Node000003" class="edge">
<title>Node2&#45;&gt;Node3</title>
<g id="a_edge2_Node000002_Node000003"><a xlink:title=" ">
<path fill="none" stroke="#63b8ff" d="M2018.75,-305.76C1999.23,-310.51 1978.47,-315.57 1959.53,-320.18"/>
<polygon fill="#63b8ff" stroke="#63b8ff" points="2019.4,-309.2 2028.29,-303.43 2017.74,-302.4 2019.4,-309.2"/>
</a>
</g>
</g>
<!-- Node4 -->
<g id="Node000004" class="node">
<title>Node4</title>
<g id="a_Node000004"><a xlink:href="classediteurpanovisu_1_1EditeurPanovisu.html#ab4beb1597b660a4a253befc6e76f1c54" target="_top" xlink:title=" ">
<polygon fill="white" stroke="#666666" points="1098.12,-434.64 912.62,-434.64 912.62,-402.64 1098.12,-402.64 1098.12,-434.64"/>
<text xml:space="preserve" text-anchor="start" x="920.62" y="-421.14" font-family="Helvetica,sans-Serif" font-size="10.00">editeurpanovisu.EditeurPanovisu.projet</text>
<text xml:space="preserve" text-anchor="middle" x="1005.38" y="-409.14" font-family="Helvetica,sans-Serif" font-size="10.00">Charge</text>
</a>
</g>
</g>
<!-- Node3&#45;&gt;Node4 -->
<g id="edge3_Node000003_Node000004" class="edge">
<title>Node3&#45;&gt;Node4</title>
<g id="a_edge3_Node000003_Node000004"><a xlink:title=" ">
<path fill="none" stroke="#63b8ff" d="M1805.9,-355.26C1793.08,-357.67 1779.97,-359.9 1767.5,-361.64 1527.48,-394.98 1241.97,-409.77 1098.45,-415.5"/>
<polygon fill="#63b8ff" stroke="#63b8ff" points="1806.43,-358.72 1815.58,-353.38 1805.09,-351.85 1806.43,-358.72"/>
</a>
</g>
</g>
<!-- Node7 -->
<g id="Node000007" class="node">
<title>Node7</title>
<g id="a_Node000007"><a xlink:href="classediteurpanovisu_1_1EditeurPanovisu.html#a6d19b4d885ee6fcec827b91956295732" target="_top" xlink:title=" ">
<polygon fill="white" stroke="#666666" points="1767.5,-352.64 1582,-352.64 1582,-320.64 1767.5,-320.64 1767.5,-352.64"/>
<text xml:space="preserve" text-anchor="start" x="1590" y="-339.14" font-family="Helvetica,sans-Serif" font-size="10.00">editeurpanovisu.EditeurPanovisu.projet</text>
<text xml:space="preserve" text-anchor="middle" x="1674.75" y="-327.14" font-family="Helvetica,sans-Serif" font-size="10.00">ChargeNom</text>
</a>
</g>
</g>
<!-- Node3&#45;&gt;Node7 -->
<g id="edge6_Node000003_Node000007" class="edge">
<title>Node3&#45;&gt;Node7</title>
<g id="a_edge6_Node000003_Node000007"><a xlink:title=" ">
<path fill="none" stroke="#63b8ff" d="M1791.66,-336.64C1783.76,-336.64 1775.8,-336.64 1767.95,-336.64"/>
<polygon fill="#63b8ff" stroke="#63b8ff" points="1791.65,-340.14 1801.65,-336.64 1791.65,-333.14 1791.65,-340.14"/>
</a>
</g>
</g>
<!-- Node5 -->
<g id="Node000005" class="node">
<title>Node5</title>
<g id="a_Node000005"><a xlink:href="classediteurpanovisu_1_1EditeurPanovisu.html#ac912b80c1f2ac97def60ff005c5c480b" target="_top" xlink:title=" ">
<polygon fill="white" stroke="#666666" points="420.5,-343.64 216.25,-343.64 216.25,-323.64 420.5,-323.64 420.5,-343.64"/>
<text xml:space="preserve" text-anchor="middle" x="318.38" y="-330.14" font-family="Helvetica,sans-Serif" font-size="10.00">editeurpanovisu.EditeurPanovisu.creeMenu</text>
</a>
</g>
</g>
<!-- Node4&#45;&gt;Node5 -->
<g id="edge4_Node000004_Node000005" class="edge">
<title>Node4&#45;&gt;Node5</title>
<g id="a_edge4_Node000004_Node000005"><a xlink:title=" ">
<path fill="none" stroke="#63b8ff" d="M901.15,-416.62C790.26,-412.82 609.34,-401.92 456.5,-370.64 420.99,-363.37 381.05,-352.25 353.47,-344.09"/>
<polygon fill="#63b8ff" stroke="#63b8ff" points="900.71,-420.1 910.82,-416.93 900.94,-413.11 900.71,-420.1"/>
</a>
</g>
</g>
<!-- Node6 -->
<g id="Node000006" class="node">
<title>Node6</title>
<g id="a_Node000006"><a xlink:href="classediteurpanovisu_1_1EditeurPanovisu.html#a86c393eee88f54c694db994ddd85b90d" target="_top" xlink:title=" ">
<polygon fill="white" stroke="#666666" points="180.25,-349.64 0,-349.64 0,-317.64 180.25,-317.64 180.25,-349.64"/>
<text xml:space="preserve" text-anchor="start" x="8" y="-336.14" font-family="Helvetica,sans-Serif" font-size="10.00">editeurpanovisu.EditeurPanovisu.cree</text>
<text xml:space="preserve" text-anchor="middle" x="90.12" y="-324.14" font-family="Helvetica,sans-Serif" font-size="10.00">Environnement</text>
</a>
</g>
</g>
<!-- Node5&#45;&gt;Node6 -->
<g id="edge5_Node000005_Node000006" class="edge">
<title>Node5&#45;&gt;Node6</title>
<g id="a_edge5_Node000005_Node000006"><a xlink:title=" ">
<path fill="none" stroke="#63b8ff" d="M204.51,-333.64C196.49,-333.64 188.46,-333.64 180.6,-333.64"/>
<polygon fill="#63b8ff" stroke="#63b8ff" points="204.32,-337.14 214.32,-333.64 204.32,-330.14 204.32,-337.14"/>
</a>
</g>
</g>
<!-- Node7&#45;&gt;Node5 -->
<g id="edge26_Node000007_Node000005" class="edge">
<title>Node7&#45;&gt;Node5</title>
<g id="a_edge26_Node000007_Node000005"><a xlink:title=" ">
<path fill="none" stroke="#63b8ff" d="M1611.58,-356.43C1494.46,-391.9 1232.54,-462.64 1006.38,-462.64 1006.38,-462.64 1006.38,-462.64 777.62,-462.64 632.1,-462.64 594.66,-444.37 456.5,-398.64 411.98,-383.9 363.08,-358.23 337.41,-343.96"/>
<polygon fill="#63b8ff" stroke="#63b8ff" points="1612.46,-359.82 1621.01,-353.55 1610.42,-353.12 1612.46,-359.82"/>
</a>
</g>
</g>
<!-- Node8 -->
<g id="Node000008" class="node">
<title>Node8</title>
<g id="a_Node000008"><a xlink:href="classediteurpanovisu_1_1EditeurPanovisu.html#af0d1c32bb78acbff561c822a0d15f760" target="_top" xlink:title=" ">
<polygon fill="white" stroke="#666666" points="1546,-352.64 1358.25,-352.64 1358.25,-320.64 1546,-320.64 1546,-352.64"/>
<text xml:space="preserve" text-anchor="start" x="1366.25" y="-339.14" font-family="Helvetica,sans-Serif" font-size="10.00">editeurpanovisu.EditeurPanovisu.ajoute</text>
<text xml:space="preserve" text-anchor="middle" x="1452.12" y="-327.14" font-family="Helvetica,sans-Serif" font-size="10.00">FichierHisto</text>
</a>
</g>
</g>
<!-- Node7&#45;&gt;Node8 -->
<g id="edge7_Node000007_Node000008" class="edge">
<title>Node7&#45;&gt;Node8</title>
<g id="a_edge7_Node000007_Node000008"><a xlink:title=" ">
<path fill="none" stroke="#63b8ff" d="M1570.47,-329.9C1562.42,-329.87 1554.33,-329.89 1546.36,-329.96"/>
<polygon fill="#63b8ff" stroke="#63b8ff" points="1570.25,-333.4 1580.27,-329.96 1570.29,-326.4 1570.25,-333.4"/>
</a>
</g>
</g>
<!-- Node8&#45;&gt;Node4 -->
<g id="edge8_Node000008_Node000004" class="edge">
<title>Node8&#45;&gt;Node4</title>
<g id="a_edge8_Node000008_Node000004"><a xlink:title=" ">
<path fill="none" stroke="#63b8ff" d="M1350.56,-355.18C1273.93,-369.3 1169.4,-388.58 1095.7,-402.17"/>
<polygon fill="#63b8ff" stroke="#63b8ff" points="1350.97,-358.66 1360.17,-353.4 1349.7,-351.78 1350.97,-358.66"/>
</a>
</g>
</g>
<!-- Node8&#45;&gt;Node7 -->
<g id="edge9_Node000008_Node000007" class="edge">
<title>Node8&#45;&gt;Node7</title>
<g id="a_edge9_Node000008_Node000007"><a xlink:title=" ">
<path fill="none" stroke="#63b8ff" d="M1557.69,-343.38C1565.74,-343.4 1573.83,-343.37 1581.78,-343.3"/>
<polygon fill="#63b8ff" stroke="#63b8ff" points="1557.9,-339.88 1547.88,-343.32 1557.86,-346.88 1557.9,-339.88"/>
</a>
</g>
</g>
<!-- Node9 -->
<g id="Node000009" class="node">
<title>Node9</title>
<g id="a_Node000009"><a xlink:href="classediteurpanovisu_1_1EditeurPanovisu.html#a9f3ea25b35d4884524508dab3dc4fd6a" target="_top" xlink:title=" ">
<polygon fill="white" stroke="#666666" points="1322.25,-308.64 1136.75,-308.64 1136.75,-276.64 1322.25,-276.64 1322.25,-308.64"/>
<text xml:space="preserve" text-anchor="start" x="1144.75" y="-295.14" font-family="Helvetica,sans-Serif" font-size="10.00">editeurpanovisu.EditeurPanovisu.projet</text>
<text xml:space="preserve" text-anchor="middle" x="1229.5" y="-283.14" font-family="Helvetica,sans-Serif" font-size="10.00">Sauve</text>
</a>
</g>
</g>
<!-- Node8&#45;&gt;Node9 -->
<g id="edge10_Node000008_Node000009" class="edge">
<title>Node8&#45;&gt;Node9</title>
<g id="a_edge10_Node000008_Node000009"><a xlink:title=" ">
<path fill="none" stroke="#63b8ff" d="M1357.51,-317.96C1342.79,-315.03 1327.68,-312.02 1313.23,-309.13"/>
<polygon fill="#63b8ff" stroke="#63b8ff" points="1356.68,-321.37 1367.17,-319.89 1358.05,-314.5 1356.68,-321.37"/>
</a>
</g>
</g>
<!-- Node15 -->
<g id="Node000015" class="node">
<title>Node15</title>
<g id="a_Node000015"><a xlink:href="classediteurpanovisu_1_1EditeurPanovisu.html#a7b2e25dc717eb52b62e23d54ec4c124a" target="_top" xlink:title=" ">
<polygon fill="white" stroke="#666666" points="1322.25,-244.64 1136.75,-244.64 1136.75,-212.64 1322.25,-212.64 1322.25,-244.64"/>
<text xml:space="preserve" text-anchor="start" x="1144.75" y="-231.14" font-family="Helvetica,sans-Serif" font-size="10.00">editeurpanovisu.EditeurPanovisu.projet</text>
<text xml:space="preserve" text-anchor="middle" x="1229.5" y="-219.14" font-family="Helvetica,sans-Serif" font-size="10.00">SauveSous</text>
</a>
</g>
</g>
<!-- Node8&#45;&gt;Node15 -->
<g id="edge24_Node000008_Node000015" class="edge">
<title>Node8&#45;&gt;Node15</title>
<g id="a_edge24_Node000008_Node000015"><a xlink:title=" ">
<path fill="none" stroke="#63b8ff" d="M1412.38,-314.72C1387.03,-300.67 1353.03,-282.38 1322.25,-267.64 1305.7,-259.71 1287.13,-251.66 1271.04,-244.95"/>
<polygon fill="#63b8ff" stroke="#63b8ff" points="1410.57,-317.72 1421.01,-319.52 1413.98,-311.6 1410.57,-317.72"/>
</a>
</g>
</g>
<!-- Node9&#45;&gt;Node4 -->
<g id="edge14_Node000009_Node000004" class="edge">
<title>Node9&#45;&gt;Node4</title>
<g id="a_edge14_Node000009_Node000004"><a xlink:title=" ">
<path fill="none" stroke="#63b8ff" d="M1186.1,-314.39C1169.91,-323.61 1151.75,-335.13 1136.75,-347.64 1118.13,-363.17 1121.05,-375.37 1100.75,-388.64 1092.55,-394 1083.32,-398.46 1073.93,-402.16"/>
<polygon fill="#63b8ff" stroke="#63b8ff" points="1187.52,-317.6 1194.56,-309.69 1184.12,-311.48 1187.52,-317.6"/>
</a>
</g>
</g>
<!-- Node9&#45;&gt;Node5 -->
<g id="edge11_Node000009_Node000005" class="edge">
<title>Node9&#45;&gt;Node5</title>
<g id="a_edge11_Node000009_Node000005"><a xlink:title=" ">
<path fill="none" stroke="#63b8ff" d="M1144.81,-311.16C1130.19,-313.78 1115.08,-316.1 1100.75,-317.64 857.91,-343.68 570.27,-341.01 420.88,-337.13"/>
<polygon fill="#63b8ff" stroke="#63b8ff" points="1145.19,-314.65 1154.38,-309.38 1143.91,-307.76 1145.19,-314.65"/>
</a>
</g>
</g>
<!-- Node9&#45;&gt;Node7 -->
<g id="edge15_Node000009_Node000007" class="edge">
<title>Node9&#45;&gt;Node7</title>
<g id="a_edge15_Node000009_Node000007"><a xlink:title=" ">
<path fill="none" stroke="#63b8ff" d="M1333.92,-295.39C1395.67,-297.9 1475.54,-302.66 1546,-311.64 1563.04,-313.81 1581.22,-316.89 1598.36,-320.16"/>
<polygon fill="#63b8ff" stroke="#63b8ff" points="1334.25,-291.9 1324.12,-295.01 1333.98,-298.9 1334.25,-291.9"/>
</a>
</g>
</g>
<!-- Node9&#45;&gt;Node10 -->
<g id="edge12_Node000009_Node000010" class="edge">
<title>Node9&#45;&gt;Node10</title>
<g id="a_edge12_Node000009_Node000010"><a xlink:title=" ">
<path fill="none" stroke="#63b8ff" d="M1162.57,-271.44C1153.22,-266.57 1144.25,-260.69 1136.75,-253.64 1110.68,-229.13 1131.1,-200.58 1100.75,-181.64 1027.72,-136.06 784.08,-153.93 647.59,-168.31"/>
<polygon fill="#63b8ff" stroke="#63b8ff" points="1160.92,-274.53 1171.45,-275.69 1163.94,-268.21 1160.92,-274.53"/>
</a>
</g>
</g>
<!-- Node11 -->
<g id="Node000011" class="node">
<title>Node11</title>
<g id="a_Node000011"><a xlink:href="classediteurpanovisu_1_1EditeurPanovisu.html#a9b46b222714af12c06ec33d410400773" target="_top" xlink:title=" ">
<polygon fill="white" stroke="#666666" points="874,-393.64 683.25,-393.64 683.25,-361.64 874,-361.64 874,-393.64"/>
<text xml:space="preserve" text-anchor="start" x="691.25" y="-380.14" font-family="Helvetica,sans-Serif" font-size="10.00">editeurpanovisu.EditeurPanovisu.projets</text>
<text xml:space="preserve" text-anchor="middle" x="778.62" y="-368.14" font-family="Helvetica,sans-Serif" font-size="10.00">Fermer</text>
</a>
</g>
</g>
<!-- Node9&#45;&gt;Node11 -->
<g id="edge16_Node000009_Node000011" class="edge">
<title>Node9&#45;&gt;Node11</title>
<g id="a_edge16_Node000009_Node000011"><a xlink:title=" ">
<path fill="none" stroke="#63b8ff" d="M1189.83,-314.4C1165.14,-327.23 1131.99,-342.49 1100.75,-350.64 1026.31,-370.04 939.19,-376.39 874.5,-378.11"/>
<polygon fill="#63b8ff" stroke="#63b8ff" points="1191.33,-317.57 1198.53,-309.79 1188.06,-311.38 1191.33,-317.57"/>
</a>
</g>
</g>
<!-- Node12 -->
<g id="Node000012" class="node">
<title>Node12</title>
<g id="a_Node000012"><a xlink:href="classediteurpanovisu_1_1EditeurPanovisu.html#ac9d449399ccd38843fa12e716f0c9611" target="_top" xlink:title=" ">
<polygon fill="white" stroke="#666666" points="1100.75,-308.64 910,-308.64 910,-276.64 1100.75,-276.64 1100.75,-308.64"/>
<text xml:space="preserve" text-anchor="start" x="918" y="-295.14" font-family="Helvetica,sans-Serif" font-size="10.00">editeurpanovisu.EditeurPanovisu.projets</text>
<text xml:space="preserve" text-anchor="middle" x="1005.38" y="-283.14" font-family="Helvetica,sans-Serif" font-size="10.00">Nouveau</text>
</a>
</g>
</g>
<!-- Node9&#45;&gt;Node12 -->
<g id="edge18_Node000009_Node000012" class="edge">
<title>Node9&#45;&gt;Node12</title>
<g id="a_edge18_Node000009_Node000012"><a xlink:title=" ">
<path fill="none" stroke="#63b8ff" d="M1125.24,-292.64C1117.2,-292.64 1109.11,-292.64 1101.13,-292.64"/>
<polygon fill="#63b8ff" stroke="#63b8ff" points="1125.04,-296.14 1135.04,-292.64 1125.04,-289.14 1125.04,-296.14"/>
</a>
</g>
</g>
<!-- Node13 -->
<g id="Node000013" class="node">
<title>Node13</title>
<g id="a_Node000013"><a xlink:href="classediteurpanovisu_1_1EditeurPanovisu.html#a2b3125ffe2e6291efacf19df6cb30a8d" target="_top" xlink:title=" ">
<polygon fill="white" stroke="#666666" points="869.12,-208.64 688.12,-208.64 688.12,-188.64 869.12,-188.64 869.12,-208.64"/>
<text xml:space="preserve" text-anchor="middle" x="778.62" y="-195.14" font-family="Helvetica,sans-Serif" font-size="10.00">editeurpanovisu.EditeurPanovisu.start</text>
</a>
</g>
</g>
<!-- Node9&#45;&gt;Node13 -->
<g id="edge23_Node000009_Node000013" class="edge">
<title>Node9&#45;&gt;Node13</title>
<g id="a_edge23_Node000009_Node000013"><a xlink:title=" ">
<path fill="none" stroke="#63b8ff" d="M1170.06,-271.79C1158.6,-266.61 1146.97,-260.53 1136.75,-253.64 1117.99,-240.98 1121.39,-226.91 1100.75,-217.64 1023.83,-183.08 925.92,-182.67 858.55,-188.16"/>
<polygon fill="#63b8ff" stroke="#63b8ff" points="1168.55,-274.94 1179.12,-275.69 1171.32,-268.51 1168.55,-274.94"/>
</a>
</g>
</g>
<!-- Node14 -->
<g id="Node000014" class="node">
<title>Node14</title>
<g id="a_Node000014"><a xlink:href="classediteurpanovisu_1_1EditeurPanovisu.html#aef8c9b28c3e88d6e27e3f62b9a901134" target="_top" xlink:title=" ">
<polygon fill="white" stroke="#666666" points="1099.25,-258.64 911.5,-258.64 911.5,-226.64 1099.25,-226.64 1099.25,-258.64"/>
<text xml:space="preserve" text-anchor="start" x="919.5" y="-245.14" font-family="Helvetica,sans-Serif" font-size="10.00">editeurpanovisu.EditeurPanovisu.sauve</text>
<text xml:space="preserve" text-anchor="middle" x="1005.38" y="-233.14" font-family="Helvetica,sans-Serif" font-size="10.00">Fichiers</text>
</a>
</g>
</g>
<!-- Node9&#45;&gt;Node14 -->
<g id="edge22_Node000009_Node000014" class="edge">
<title>Node9&#45;&gt;Node14</title>
<g id="a_edge22_Node000009_Node000014"><a xlink:title=" ">
<path fill="none" stroke="#63b8ff" d="M1144.43,-273.71C1123.05,-268.9 1100.24,-263.76 1079.46,-259.09"/>
<polygon fill="#63b8ff" stroke="#63b8ff" points="1143.46,-277.08 1153.98,-275.86 1145,-270.25 1143.46,-277.08"/>
</a>
</g>
</g>
<!-- Node10&#45;&gt;Node5 -->
<g id="edge13_Node000010_Node000005" class="edge">
<title>Node10&#45;&gt;Node5</title>
<g id="a_edge13_Node000010_Node000005"><a xlink:title=" ">
<path fill="none" stroke="#63b8ff" d="M516.82,-202.29C465.94,-236.13 372.09,-298.57 335.03,-323.22"/>
<polygon fill="#63b8ff" stroke="#63b8ff" points="518.45,-205.41 524.84,-196.95 514.58,-199.58 518.45,-205.41"/>
</a>
</g>
</g>
<!-- Node11&#45;&gt;Node5 -->
<g id="edge17_Node000011_Node000005" class="edge">
<title>Node11&#45;&gt;Node5</title>
<g id="a_edge17_Node000011_Node000005"><a xlink:title=" ">
<path fill="none" stroke="#63b8ff" d="M671.3,-367.93C608.74,-362.17 528.11,-354.64 456.5,-347.64 444.95,-346.51 432.85,-345.3 420.83,-344.09"/>
<polygon fill="#63b8ff" stroke="#63b8ff" points="670.97,-371.42 681.25,-368.85 671.61,-364.45 670.97,-371.42"/>
</a>
</g>
</g>
<!-- Node12&#45;&gt;Node5 -->
<g id="edge19_Node000012_Node000005" class="edge">
<title>Node12&#45;&gt;Node5</title>
<g id="a_edge19_Node000012_Node000005"><a xlink:title=" ">
<path fill="none" stroke="#63b8ff" d="M898.29,-296.21C787.84,-300.32 609.89,-308.03 456.5,-319.64 443.26,-320.64 429.31,-321.86 415.59,-323.17"/>
<polygon fill="#63b8ff" stroke="#63b8ff" points="898.38,-299.71 908.24,-295.84 898.12,-292.72 898.38,-299.71"/>
</a>
</g>
</g>
<!-- Node12&#45;&gt;Node13 -->
<g id="edge20_Node000012_Node000013" class="edge">
<title>Node12&#45;&gt;Node13</title>
<g id="a_edge20_Node000012_Node000013"><a xlink:title=" ">
<path fill="none" stroke="#63b8ff" d="M924.25,-272.78C919.39,-271.15 914.61,-269.44 910,-267.64 867.31,-250.94 820.58,-223.86 796.33,-209.07"/>
<polygon fill="#63b8ff" stroke="#63b8ff" points="922.95,-276.04 933.54,-275.74 925.07,-269.37 922.95,-276.04"/>
</a>
</g>
</g>
<!-- Node13&#45;&gt;Node10 -->
<g id="edge21_Node000013_Node000010" class="edge">
<title>Node13&#45;&gt;Node10</title>
<g id="a_edge21_Node000013_Node000010"><a xlink:title=" ">
<path fill="none" stroke="#63b8ff" d="M676.6,-190.09C666.98,-189.28 657.24,-188.46 647.68,-187.65"/>
<polygon fill="#63b8ff" stroke="#63b8ff" points="676.06,-193.56 686.32,-190.92 676.65,-186.59 676.06,-193.56"/>
</a>
</g>
</g>
<!-- Node15&#45;&gt;Node5 -->
<g id="edge25_Node000015_Node000005" class="edge">
<title>Node15&#45;&gt;Node5</title>
<g id="a_edge25_Node000015_Node000005"><a xlink:title=" ">
<path fill="none" stroke="#63b8ff" d="M1201.56,-205.39C1177.11,-185.94 1139.11,-159.65 1100.75,-148.64 825.54,-69.57 711.57,-24.5 456.5,-154.64 382.23,-192.53 336.62,-291.28 323.4,-323.39"/>
<polygon fill="#63b8ff" stroke="#63b8ff" points="1199.1,-207.9 1209.06,-211.51 1203.52,-202.48 1199.1,-207.9"/>
</a>
</g>
</g>
<!-- Node16&#45;&gt;Node17 -->
<g id="edge28_Node000016_Node000017" class="edge">
<title>Node16&#45;&gt;Node17</title>
<g id="a_edge28_Node000016_Node000017"><a xlink:title=" ">
<path fill="none" stroke="#63b8ff" d="M2012.93,-31.6C1998.58,-30.06 1983.74,-28.47 1969.57,-26.95"/>
<polygon fill="#63b8ff" stroke="#63b8ff" points="2012.49,-35.07 2022.8,-32.66 2013.23,-28.11 2012.49,-35.07"/>
</a>
</g>
</g>
<!-- Node19 -->
<g id="Node000019" class="node">
<title>Node19</title>
<g id="a_Node000019"><a xlink:href="classediteurpanovisu_1_1EditeurPanovisu.html#aaee69ab54364f89b58458c744a4195c0" target="_top" xlink:title=" ">
<polygon fill="white" stroke="#666666" points="1546,-244.64 1358.25,-244.64 1358.25,-212.64 1546,-212.64 1546,-244.64"/>
<text xml:space="preserve" text-anchor="start" x="1366.25" y="-231.14" font-family="Helvetica,sans-Serif" font-size="10.00">editeurpanovisu.EditeurPanovisu.sauve</text>
<text xml:space="preserve" text-anchor="middle" x="1452.12" y="-219.14" font-family="Helvetica,sans-Serif" font-size="10.00">FichierProjet</text>
</a>
</g>
</g>
<!-- Node18&#45;&gt;Node19 -->
<g id="edge32_Node000018_Node000019" class="edge">
<title>Node18&#45;&gt;Node19</title>
<g id="a_edge32_Node000018_Node000019"><a xlink:title=" ">
<path fill="none" stroke="#63b8ff" d="M2003.84,-191.87C1881.56,-200.03 1668.49,-214.26 1546.33,-222.41"/>
<polygon fill="#63b8ff" stroke="#63b8ff" points="2003.76,-195.38 2013.51,-191.23 2003.3,-188.4 2003.76,-195.38"/>
</a>
</g>
</g>
<!-- Node19&#45;&gt;Node9 -->
<g id="edge33_Node000019_Node000009" class="edge">
<title>Node19&#45;&gt;Node9</title>
<g id="a_edge33_Node000019_Node000009"><a xlink:title=" ">
<path fill="none" stroke="#63b8ff" d="M1383.63,-248.22C1352.74,-257.17 1316.56,-267.67 1287.12,-276.21"/>
<polygon fill="#63b8ff" stroke="#63b8ff" points="1384.23,-251.69 1392.85,-245.54 1382.28,-244.96 1384.23,-251.69"/>
</a>
</g>
</g>
<!-- Node19&#45;&gt;Node15 -->
<g id="edge34_Node000019_Node000015" class="edge">
<title>Node19&#45;&gt;Node15</title>
<g id="a_edge34_Node000019_Node000015"><a xlink:title=" ">
<path fill="none" stroke="#63b8ff" d="M1346.63,-228.64C1338.64,-228.64 1330.61,-228.64 1322.71,-228.64"/>
<polygon fill="#63b8ff" stroke="#63b8ff" points="1346.37,-232.14 1356.37,-228.64 1346.37,-225.14 1346.37,-232.14"/>
</a>
</g>
</g>
</g>
</svg>
