<?xml version="1.0" encoding="UTF-8" standalone="no"?>
<!DOCTYPE svg PUBLIC "-//W3C//DTD SVG 1.1//EN"
 "http://www.w3.org/Graphics/SVG/1.1/DTD/svg11.dtd">
<!-- Generated by graphviz version 13.1.2 (20250808.2320)
 -->
<!-- Title: editeurpanovisu.PaneOutil.affiche Pages: 1 -->
<svg width="339pt" height="190pt"
 viewBox="0.00 0.00 339.00 190.00" xmlns="http://www.w3.org/2000/svg" xmlns:xlink="http://www.w3.org/1999/xlink">

<svg id="main" version="1.1" xmlns="http://www.w3.org/2000/svg" xmlns:xlink="http://www.w3.org/1999/xlink" xml:space="preserve">

<style type="text/css"><![CDATA[
.node, .edge {opacity: 0.7;}
.node.selected, .edge.selected {opacity: 1;}
.edge:hover path { stroke: red; }
.edge:hover polygon { stroke: red; fill: red; }
]]></style>
<script type="application/ecmascript" xlink:href="svg.min.js"/>
<svg id="graph" class="graph">
<g id="graph0" class="graph" transform="scale(1 1) rotate(0) translate(4 186)">
<title>editeurpanovisu.PaneOutil.affiche</title>
<!-- Node1 -->
<g id="Node000001" class="node">
<title>Node1</title>
<g id="a_Node000001"><a xlink:title=" ">
<polygon fill="#999999" stroke="#666666" points="330.5,-101 169,-101 169,-81 330.5,-81 330.5,-101"/>
<text xml:space="preserve" text-anchor="middle" x="249.75" y="-87.5" font-family="Helvetica,sans-Serif" font-size="10.00">editeurpanovisu.PaneOutil.affiche</text>
</a>
</g>
</g>
<!-- Node2 -->
<g id="Node000002" class="node">
<title>Node2</title>
<g id="a_Node000002"><a xlink:href="classediteurpanovisu_1_1PaneOutil.html#a7f1626da67938e7c93b43732eaa4a1e2" target="_top" xlink:title=" ">
<polygon fill="white" stroke="#666666" points="133,-182 0,-182 0,-150 133,-150 133,-182"/>
<text xml:space="preserve" text-anchor="start" x="8" y="-168.5" font-family="Helvetica,sans-Serif" font-size="10.00">editeurpanovisu.PaneOutil.</text>
<text xml:space="preserve" text-anchor="middle" x="66.5" y="-156.5" font-family="Helvetica,sans-Serif" font-size="10.00">PaneOutil</text>
</a>
</g>
</g>
<!-- Node1&#45;&gt;Node2 -->
<g id="edge1_Node000001_Node000002" class="edge">
<title>Node1&#45;&gt;Node2</title>
<g id="a_edge1_Node000001_Node000002"><a xlink:title=" ">
<path fill="none" stroke="#63b8ff" d="M215.11,-105.99C192.1,-116.13 160.83,-129.68 133,-141 126.01,-143.84 118.56,-146.77 111.29,-149.59"/>
<polygon fill="#63b8ff" stroke="#63b8ff" points="216.26,-109.31 223.99,-102.06 213.43,-102.9 216.26,-109.31"/>
</a>
</g>
</g>
<!-- Node3 -->
<g id="Node000003" class="node">
<title>Node3</title>
<g id="a_Node000003"><a xlink:href="classediteurpanovisu_1_1PaneOutil.html#ad57ee44d3f58357c04a9273c643cb465" target="_top" xlink:title=" ">
<polygon fill="white" stroke="#666666" points="133,-132 0,-132 0,-100 133,-100 133,-132"/>
<text xml:space="preserve" text-anchor="start" x="8" y="-118.5" font-family="Helvetica,sans-Serif" font-size="10.00">editeurpanovisu.PaneOutil.</text>
<text xml:space="preserve" text-anchor="middle" x="66.5" y="-106.5" font-family="Helvetica,sans-Serif" font-size="10.00">PaneOutil</text>
</a>
</g>
</g>
<!-- Node1&#45;&gt;Node3 -->
<g id="edge2_Node000001_Node000003" class="edge">
<title>Node1&#45;&gt;Node3</title>
<g id="a_edge2_Node000001_Node000003"><a xlink:title=" ">
<path fill="none" stroke="#63b8ff" d="M161.56,-103.03C152.06,-104.34 142.51,-105.65 133.32,-106.92"/>
<polygon fill="#63b8ff" stroke="#63b8ff" points="161.74,-106.53 171.17,-101.7 160.79,-99.6 161.74,-106.53"/>
</a>
</g>
</g>
<!-- Node4 -->
<g id="Node000004" class="node">
<title>Node4</title>
<g id="a_Node000004"><a xlink:href="classediteurpanovisu_1_1PaneOutil.html#a1c345bc74985d3a3d030b320e64e5dce" target="_top" xlink:title=" ">
<polygon fill="white" stroke="#666666" points="133,-82 0,-82 0,-50 133,-50 133,-82"/>
<text xml:space="preserve" text-anchor="start" x="8" y="-68.5" font-family="Helvetica,sans-Serif" font-size="10.00">editeurpanovisu.PaneOutil.</text>
<text xml:space="preserve" text-anchor="middle" x="66.5" y="-56.5" font-family="Helvetica,sans-Serif" font-size="10.00">PaneOutil</text>
</a>
</g>
</g>
<!-- Node1&#45;&gt;Node4 -->
<g id="edge3_Node000001_Node000004" class="edge">
<title>Node1&#45;&gt;Node4</title>
<g id="a_edge3_Node000001_Node000004"><a xlink:title=" ">
<path fill="none" stroke="#63b8ff" d="M161.56,-78.97C152.06,-77.66 142.51,-76.35 133.32,-75.08"/>
<polygon fill="#63b8ff" stroke="#63b8ff" points="160.79,-82.4 171.17,-80.3 161.74,-75.47 160.79,-82.4"/>
</a>
</g>
</g>
<!-- Node5 -->
<g id="Node000005" class="node">
<title>Node5</title>
<g id="a_Node000005"><a xlink:href="classediteurpanovisu_1_1PaneOutil.html#ab383d99c70033a82a9347f7fd1ec6fe3" target="_top" xlink:title=" ">
<polygon fill="white" stroke="#666666" points="133,-32 0,-32 0,0 133,0 133,-32"/>
<text xml:space="preserve" text-anchor="start" x="8" y="-18.5" font-family="Helvetica,sans-Serif" font-size="10.00">editeurpanovisu.PaneOutil.</text>
<text xml:space="preserve" text-anchor="middle" x="66.5" y="-6.5" font-family="Helvetica,sans-Serif" font-size="10.00">PaneOutil</text>
</a>
</g>
</g>
<!-- Node1&#45;&gt;Node5 -->
<g id="edge4_Node000001_Node000005" class="edge">
<title>Node1&#45;&gt;Node5</title>
<g id="a_edge4_Node000001_Node000005"><a xlink:title=" ">
<path fill="none" stroke="#63b8ff" d="M215.11,-76.01C192.1,-65.87 160.83,-52.32 133,-41 126.01,-38.16 118.56,-35.23 111.29,-32.41"/>
<polygon fill="#63b8ff" stroke="#63b8ff" points="213.43,-79.1 223.99,-79.94 216.26,-72.69 213.43,-79.1"/>
</a>
</g>
</g>
</g>
</svg>
</svg>

<style type='text/css'>
<![CDATA[
[data-mouse-over-selected='false'] { opacity: 0.7; }
[data-mouse-over-selected='true']  { opacity: 1.0; }
]]>
</style>
<script type="application/ecmascript"><![CDATA[
document.addEventListener('DOMContentLoaded', (event) => {
  highlightEdges();
  highlightAdjacentNodes();
});
]]></script>
</svg>
