<?xml version="1.0" encoding="UTF-8" standalone="no"?>
<!DOCTYPE svg PUBLIC "-//W3C//DTD SVG 1.1//EN"
 "http://www.w3.org/Graphics/SVG/1.1/DTD/svg11.dtd">
<!-- Generated by graphviz version 13.1.2 (20250808.2320)
 -->
<!-- Title: editeurpanovisu.VisualiseurImagesPanoramiques.reaffiche Pages: 1 -->
<!--zoomable 529 -->

<svg id="main" version="1.1" xmlns="http://www.w3.org/2000/svg" xmlns:xlink="http://www.w3.org/1999/xlink" xml:space="preserve" onload="init(evt)">

<style type="text/css"><![CDATA[
.node, .edge {opacity: 0.7;}
.node.selected, .edge.selected {opacity: 1;}
.edge:hover path { stroke: red; }
.edge:hover polygon { stroke: red; fill: red; }
]]></style>

<defs>
  <circle id="rim" cx="0" cy="0" r="7"/>
  <circle id="rim2" cx="0" cy="0" r="3.5"/>
  <g id="zoomPlus">
    <use xlink:href="#rim" fill="#404040"><set attributeName="fill" to="#808080" begin="zoomplus.mouseover" end="zoomplus.mouseout"/></use>
    <path d="M-4,0h8M0,-4v8" fill="none" stroke="white" stroke-width="1.5" pointer-events="none"/>
  </g>
  <g id="zoomMin">
    <use xlink:href="#rim" fill="#404040"><set attributeName="fill" to="#808080" begin="zoomminus.mouseover" end="zoomminus.mouseout"/></use>
    <path d="M-4,0h8" fill="none" stroke="white" stroke-width="1.5" pointer-events="none"/>
  </g>
  <g id="arrowUp" transform="translate(30 24)">
    <use xlink:href="#rim"/>
    <path pointer-events="none" fill="none" stroke="white" stroke-width="1.5" d="M0,-3.0v7 M-2.5,-0.5L0,-3.0L2.5,-0.5"/>
  </g>
  <g id="arrowRight" transform="rotate(90) translate(36 -43)">
    <use xlink:href="#rim"/>
    <path pointer-events="none" fill="none" stroke="white" stroke-width="1.5" d="M0,-3.0v7 M-2.5,-0.5L0,-3.0L2.5,-0.5"/>
  </g>
  <g id="arrowDown" transform="rotate(180) translate(-30 -48)">
    <use xlink:href="#rim"/>
    <path pointer-events="none" fill="none" stroke="white" stroke-width="1.5" d="M0,-3.0v7 M-2.5,-0.5L0,-3.0L2.5,-0.5"/>
  </g>
  <g id="arrowLeft" transform="rotate(270) translate(-36 17)">
    <use xlink:href="#rim"/>
    <path pointer-events="none" fill="none" stroke="white" stroke-width="1.5" d="M0,-3.0v7 M-2.5,-0.5L0,-3.0L2.5,-0.5"/>
  </g>
  <g id="resetDef">
    <use xlink:href="#rim2" fill="#404040"><set attributeName="fill" to="#808080" begin="reset.mouseover" end="reset.mouseout"/></use>
  </g>
</defs>
<script type="application/ecmascript">
var viewWidth = 595;
var viewHeight = 529;
var sectionId = 'dynsection-16';
</script>
<script type="application/ecmascript" xlink:href="svg.min.js"/>
<svg id="graph" class="graph">
<g id="viewport">
<title>editeurpanovisu.VisualiseurImagesPanoramiques.reaffiche</title>
<!-- Node1 -->
<g id="Node000001" class="node">
<title>Node1</title>
<g id="a_Node000001"><a xlink:title=" ">
<polygon fill="#999999" stroke="#666666" points="150.25,-283 0,-283 0,-251 150.25,-251 150.25,-283"/>
<text xml:space="preserve" text-anchor="start" x="8" y="-269.5" font-family="Helvetica,sans-Serif" font-size="10.00">editeurpanovisu.Visualiseur</text>
<text xml:space="preserve" text-anchor="middle" x="75.12" y="-257.5" font-family="Helvetica,sans-Serif" font-size="10.00">ImagesPanoramiques.reaffiche</text>
</a>
</g>
</g>
<!-- Node2 -->
<g id="Node000002" class="node">
<title>Node2</title>
<g id="a_Node000002"><a xlink:href="classediteurpanovisu_1_1VisualiseurImagesPanoramiques.html#ae8973d3b3335139032ad3e2991dcfeba" target="_top" xlink:title=" ">
<polygon fill="white" stroke="#666666" points="365.38,-472 201.62,-472 201.62,-440 365.38,-440 365.38,-472"/>
<text xml:space="preserve" text-anchor="start" x="209.62" y="-458.5" font-family="Helvetica,sans-Serif" font-size="10.00">editeurpanovisu.Visualiseur</text>
<text xml:space="preserve" text-anchor="middle" x="283.5" y="-446.5" font-family="Helvetica,sans-Serif" font-size="10.00">ImagesPanoramiques.addCamera</text>
</a>
</g>
</g>
<!-- Node1&#45;&gt;Node2 -->
<g id="edge1_Node000001_Node000002" class="edge">
<title>Node1&#45;&gt;Node2</title>
<g id="a_edge1_Node000001_Node000002"><a xlink:title=" ">
<path fill="none" stroke="#63b8ff" d="M82.91,-283.18C97.21,-315.27 133.48,-387.23 186.25,-426 190.81,-429.35 195.74,-432.33 200.9,-434.98"/>
<polygon fill="#63b8ff" stroke="#63b8ff" points="199.1,-438.01 209.65,-439.05 202.06,-431.66 199.1,-438.01"/>
</a>
</g>
</g>
<!-- Node3 -->
<g id="Node000003" class="node">
<title>Node3</title>
<g id="a_Node000003"><a xlink:href="classediteurpanovisu_1_1VisualiseurImagesPanoramiques.html#aa95ab25a985dad8304937c37beabb783" target="_top" xlink:title=" ">
<polygon fill="white" stroke="#666666" points="573.75,-516 430.25,-516 430.25,-484 573.75,-484 573.75,-516"/>
<text xml:space="preserve" text-anchor="start" x="438.25" y="-502.5" font-family="Helvetica,sans-Serif" font-size="10.00">editeurpanovisu.Visualiseur</text>
<text xml:space="preserve" text-anchor="middle" x="502" y="-490.5" font-family="Helvetica,sans-Serif" font-size="10.00">ImagesPanoramiques.getFov</text>
</a>
</g>
</g>
<!-- Node1&#45;&gt;Node3 -->
<g id="edge12_Node000001_Node000003" class="edge">
<title>Node1&#45;&gt;Node3</title>
<g id="a_edge12_Node000001_Node000003"><a xlink:title=" ">
<path fill="none" stroke="#63b8ff" d="M78.89,-283.22C86.91,-324.6 114.33,-434.09 186.25,-481 254.88,-525.76 350.84,-524.68 418.72,-516.05"/>
<polygon fill="#63b8ff" stroke="#63b8ff" points="418.85,-519.57 428.29,-514.76 417.91,-512.63 418.85,-519.57"/>
</a>
</g>
</g>
<!-- Node4 -->
<g id="Node000004" class="node">
<title>Node4</title>
<g id="a_Node000004"><a xlink:href="classediteurpanovisu_1_1VisualiseurImagesPanoramiques.html#ac38446a4ab5c61c1dfd273f9d50c69c8" target="_top" xlink:title=" ">
<polygon fill="white" stroke="#666666" points="354.5,-346 212.5,-346 212.5,-314 354.5,-314 354.5,-346"/>
<text xml:space="preserve" text-anchor="start" x="220.5" y="-332.5" font-family="Helvetica,sans-Serif" font-size="10.00">editeurpanovisu.Visualiseur</text>
<text xml:space="preserve" text-anchor="middle" x="283.5" y="-320.5" font-family="Helvetica,sans-Serif" font-size="10.00">ImagesPanoramiques.affiche</text>
</a>
</g>
</g>
<!-- Node1&#45;&gt;Node4 -->
<g id="edge3_Node000001_Node000004" class="edge">
<title>Node1&#45;&gt;Node4</title>
<g id="a_edge3_Node000001_Node000004"><a xlink:title=" ">
<path fill="none" stroke="#63b8ff" d="M130.08,-283.47C156.86,-291.65 189.42,-301.58 217.56,-310.17"/>
<polygon fill="#63b8ff" stroke="#63b8ff" points="216.47,-313.5 227.06,-313.07 218.51,-306.81 216.47,-313.5"/>
</a>
</g>
</g>
<!-- Node5 -->
<g id="Node000005" class="node">
<title>Node5</title>
<g id="a_Node000005"><a xlink:href="classediteurpanovisu_1_1VisualiseurImagesPanoramiques.html#a6c1acd11c080458742050411512348eb" target="_top" xlink:title=" ">
<polygon fill="white" stroke="#666666" points="582.75,-466 421.25,-466 421.25,-434 582.75,-434 582.75,-466"/>
<text xml:space="preserve" text-anchor="start" x="429.25" y="-452.5" font-family="Helvetica,sans-Serif" font-size="10.00">editeurpanovisu.Visualiseur</text>
<text xml:space="preserve" text-anchor="middle" x="502" y="-440.5" font-family="Helvetica,sans-Serif" font-size="10.00">ImagesPanoramiques.getLatitude</text>
</a>
</g>
</g>
<!-- Node1&#45;&gt;Node5 -->
<g id="edge13_Node000001_Node000005" class="edge">
<title>Node1&#45;&gt;Node5</title>
<g id="a_edge13_Node000001_Node000005"><a xlink:title=" ">
<path fill="none" stroke="#63b8ff" d="M85.64,-283.24C102.34,-310.15 139.59,-363.63 186.25,-390 205.63,-400.95 323.82,-421.67 409.69,-435.65"/>
<polygon fill="#63b8ff" stroke="#63b8ff" points="409.12,-439.11 419.55,-437.25 410.24,-432.2 409.12,-439.11"/>
</a>
</g>
</g>
<!-- Node6 -->
<g id="Node000006" class="node">
<title>Node6</title>
<g id="a_Node000006"><a xlink:href="classediteurpanovisu_1_1VisualiseurImagesPanoramiques.html#adfe67f1c122d4d9f5a103eb72024a4b1" target="_top" xlink:title=" ">
<polygon fill="white" stroke="#666666" points="586.5,-416 417.5,-416 417.5,-384 586.5,-384 586.5,-416"/>
<text xml:space="preserve" text-anchor="start" x="425.5" y="-402.5" font-family="Helvetica,sans-Serif" font-size="10.00">editeurpanovisu.Visualiseur</text>
<text xml:space="preserve" text-anchor="middle" x="502" y="-390.5" font-family="Helvetica,sans-Serif" font-size="10.00">ImagesPanoramiques.getLongitude</text>
</a>
</g>
</g>
<!-- Node1&#45;&gt;Node6 -->
<g id="edge14_Node000001_Node000006" class="edge">
<title>Node1&#45;&gt;Node6</title>
<g id="a_edge14_Node000001_Node000006"><a xlink:title=" ">
<path fill="none" stroke="#63b8ff" d="M91.09,-283.45C110.76,-303.92 147.39,-338.2 186.25,-355 255.91,-385.12 341.54,-395.87 405.89,-399.36"/>
<polygon fill="#63b8ff" stroke="#63b8ff" points="405.57,-402.85 415.73,-399.84 405.91,-395.86 405.57,-402.85"/>
</a>
</g>
</g>
<!-- Node9 -->
<g id="Node000009" class="node">
<title>Node9</title>
<g id="a_Node000009"><a xlink:href="classediteurpanovisu_1_1VisualiseurImagesPanoramiques.html#a5c6a218b15a3592d9b52f42f4882558b" target="_top" xlink:title=" ">
<polygon fill="white" stroke="#666666" points="573.75,-278 430.25,-278 430.25,-246 573.75,-246 573.75,-278"/>
<text xml:space="preserve" text-anchor="start" x="438.25" y="-264.5" font-family="Helvetica,sans-Serif" font-size="10.00">editeurpanovisu.Visualiseur</text>
<text xml:space="preserve" text-anchor="middle" x="502" y="-252.5" font-family="Helvetica,sans-Serif" font-size="10.00">ImagesPanoramiques.setFov</text>
</a>
</g>
</g>
<!-- Node1&#45;&gt;Node9 -->
<g id="edge18_Node000001_Node000009" class="edge">
<title>Node1&#45;&gt;Node9</title>
<g id="a_edge18_Node000001_Node000009"><a xlink:title=" ">
<path fill="none" stroke="#63b8ff" d="M150.62,-266.12C225.59,-265.24 340.94,-263.88 418.6,-262.97"/>
<polygon fill="#63b8ff" stroke="#63b8ff" points="418.31,-266.47 428.26,-262.86 418.22,-259.47 418.31,-266.47"/>
</a>
</g>
</g>
<!-- Node10 -->
<g id="Node000010" class="node">
<title>Node10</title>
<g id="a_Node000010"><a xlink:href="classediteurpanovisu_1_1VisualiseurImagesPanoramiques.html#ab4e2810835b113765e326dfee46ddf34" target="_top" xlink:title=" ">
<polygon fill="white" stroke="#666666" points="582.75,-228 421.25,-228 421.25,-196 582.75,-196 582.75,-228"/>
<text xml:space="preserve" text-anchor="start" x="429.25" y="-214.5" font-family="Helvetica,sans-Serif" font-size="10.00">editeurpanovisu.Visualiseur</text>
<text xml:space="preserve" text-anchor="middle" x="502" y="-202.5" font-family="Helvetica,sans-Serif" font-size="10.00">ImagesPanoramiques.setLatitude</text>
</a>
</g>
</g>
<!-- Node1&#45;&gt;Node10 -->
<g id="edge19_Node000001_Node000010" class="edge">
<title>Node1&#45;&gt;Node10</title>
<g id="a_edge19_Node000001_Node000010"><a xlink:title=" ">
<path fill="none" stroke="#63b8ff" d="M150.62,-257.36C222.75,-248.02 332.27,-233.84 409.63,-223.83"/>
<polygon fill="#63b8ff" stroke="#63b8ff" points="409.84,-227.33 419.3,-222.58 408.94,-220.39 409.84,-227.33"/>
</a>
</g>
</g>
<!-- Node11 -->
<g id="Node000011" class="node">
<title>Node11</title>
<g id="a_Node000011"><a xlink:href="classediteurpanovisu_1_1VisualiseurImagesPanoramiques.html#a4288d1a78e4aa8b02a5cf2f684d7cab6" target="_top" xlink:title=" ">
<polygon fill="white" stroke="#666666" points="586.5,-178 417.5,-178 417.5,-146 586.5,-146 586.5,-178"/>
<text xml:space="preserve" text-anchor="start" x="425.5" y="-164.5" font-family="Helvetica,sans-Serif" font-size="10.00">editeurpanovisu.Visualiseur</text>
<text xml:space="preserve" text-anchor="middle" x="502" y="-152.5" font-family="Helvetica,sans-Serif" font-size="10.00">ImagesPanoramiques.setLongitude</text>
</a>
</g>
</g>
<!-- Node1&#45;&gt;Node11 -->
<g id="edge20_Node000001_Node000011" class="edge">
<title>Node1&#45;&gt;Node11</title>
<g id="a_edge20_Node000001_Node000011"><a xlink:title=" ">
<path fill="none" stroke="#63b8ff" d="M112.7,-250.55C133.83,-241.59 161.13,-230.96 186.25,-224 270.75,-200.6 294.86,-208.62 380.75,-191 395.17,-188.04 410.48,-184.59 425.18,-181.12"/>
<polygon fill="#63b8ff" stroke="#63b8ff" points="425.89,-184.55 434.81,-178.82 424.27,-177.74 425.89,-184.55"/>
</a>
</g>
</g>
<!-- Node12 -->
<g id="Node000012" class="node">
<title>Node12</title>
<g id="a_Node000012"><a xlink:href="classediteurpanovisu_1_1VisualiseurImagesPanoramiques.html#af3c61a27047660e03baa5221af79d38e" target="_top" xlink:title=" ">
<polygon fill="white" stroke="#666666" points="368,-182 199,-182 199,-150 368,-150 368,-182"/>
<text xml:space="preserve" text-anchor="start" x="207" y="-168.5" font-family="Helvetica,sans-Serif" font-size="10.00">editeurpanovisu.Visualiseur</text>
<text xml:space="preserve" text-anchor="middle" x="283.5" y="-156.5" font-family="Helvetica,sans-Serif" font-size="10.00">ImagesPanoramiques.setChoixFov</text>
</a>
</g>
</g>
<!-- Node1&#45;&gt;Node12 -->
<g id="edge15_Node000001_Node000012" class="edge">
<title>Node1&#45;&gt;Node12</title>
<g id="a_edge15_Node000001_Node000012"><a xlink:title=" ">
<path fill="none" stroke="#63b8ff" d="M97.46,-250.74C118.94,-235 153.49,-211.32 186.25,-196 193.86,-192.44 201.99,-189.17 210.19,-186.19"/>
<polygon fill="#63b8ff" stroke="#63b8ff" points="211.24,-189.53 219.54,-182.94 208.95,-182.92 211.24,-189.53"/>
</a>
</g>
</g>
<!-- Node13 -->
<g id="Node000013" class="node">
<title>Node13</title>
<g id="a_Node000013"><a xlink:href="classediteurpanovisu_1_1VisualiseurImagesPanoramiques.html#a5d70622fdd48a9a289946c79af9d3c0a" target="_top" xlink:title=" ">
<polygon fill="white" stroke="#666666" points="377,-132 190,-132 190,-100 377,-100 377,-132"/>
<text xml:space="preserve" text-anchor="start" x="198" y="-118.5" font-family="Helvetica,sans-Serif" font-size="10.00">editeurpanovisu.Visualiseur</text>
<text xml:space="preserve" text-anchor="middle" x="283.5" y="-106.5" font-family="Helvetica,sans-Serif" font-size="10.00">ImagesPanoramiques.setChoixLatitude</text>
</a>
</g>
</g>
<!-- Node1&#45;&gt;Node13 -->
<g id="edge16_Node000001_Node000013" class="edge">
<title>Node1&#45;&gt;Node13</title>
<g id="a_edge16_Node000001_Node000013"><a xlink:title=" ">
<path fill="none" stroke="#63b8ff" d="M85.74,-250.7C102.57,-223.62 140.03,-169.55 186.25,-141 188.4,-139.67 190.62,-138.42 192.89,-137.23"/>
<polygon fill="#63b8ff" stroke="#63b8ff" points="194.2,-140.47 201.77,-133.06 191.23,-134.14 194.2,-140.47"/>
</a>
</g>
</g>
<!-- Node14 -->
<g id="Node000014" class="node">
<title>Node14</title>
<g id="a_Node000014"><a xlink:href="classediteurpanovisu_1_1VisualiseurImagesPanoramiques.html#a3549e36b6b1599f65e6610d49f61dab5" target="_top" xlink:title=" ">
<polygon fill="white" stroke="#666666" points="380.75,-82 186.25,-82 186.25,-50 380.75,-50 380.75,-82"/>
<text xml:space="preserve" text-anchor="start" x="194.25" y="-68.5" font-family="Helvetica,sans-Serif" font-size="10.00">editeurpanovisu.Visualiseur</text>
<text xml:space="preserve" text-anchor="middle" x="283.5" y="-56.5" font-family="Helvetica,sans-Serif" font-size="10.00">ImagesPanoramiques.setChoixLongitude</text>
</a>
</g>
</g>
<!-- Node1&#45;&gt;Node14 -->
<g id="edge17_Node000001_Node000014" class="edge">
<title>Node1&#45;&gt;Node14</title>
<g id="a_edge17_Node000001_Node000014"><a xlink:title=" ">
<path fill="none" stroke="#63b8ff" d="M81.57,-250.76C94.12,-215.83 128.56,-133.32 186.25,-91 187.78,-89.88 189.36,-88.8 190.98,-87.78"/>
<polygon fill="#63b8ff" stroke="#63b8ff" points="192.25,-91.07 199.29,-83.16 188.85,-84.95 192.25,-91.07"/>
</a>
</g>
</g>
<!-- Node15 -->
<g id="Node000015" class="node">
<title>Node15</title>
<g id="a_Node000015"><a xlink:href="classediteurpanovisu_1_1VisualiseurImagesPanoramiques.html#a295738e222ef27dc665d9bda57a5afc6" target="_top" xlink:title=" ">
<polygon fill="white" stroke="#666666" points="368.75,-32 198.25,-32 198.25,0 368.75,0 368.75,-32"/>
<text xml:space="preserve" text-anchor="start" x="206.25" y="-18.5" font-family="Helvetica,sans-Serif" font-size="10.00">editeurpanovisu.Visualiseur</text>
<text xml:space="preserve" text-anchor="middle" x="283.5" y="-6.5" font-family="Helvetica,sans-Serif" font-size="10.00">ImagesPanoramiques.setPositNord</text>
</a>
</g>
</g>
<!-- Node1&#45;&gt;Node15 -->
<g id="edge21_Node000001_Node000015" class="edge">
<title>Node1&#45;&gt;Node15</title>
<g id="a_edge21_Node000001_Node000015"><a xlink:title=" ">
<path fill="none" stroke="#63b8ff" d="M79.19,-250.72C87.9,-209.04 116.83,-97.8 186.25,-41 187.38,-40.08 188.54,-39.19 189.72,-38.33"/>
<polygon fill="#63b8ff" stroke="#63b8ff" points="191.35,-41.44 197.99,-33.18 187.65,-35.5 191.35,-41.44"/>
</a>
</g>
</g>
<!-- Node2&#45;&gt;Node3 -->
<g id="edge2_Node000002_Node000003" class="edge">
<title>Node2&#45;&gt;Node3</title>
<g id="a_edge2_Node000002_Node000003"><a xlink:title=" ">
<path fill="none" stroke="#63b8ff" d="M365.42,-472.45C382.76,-475.97 401.11,-479.7 418.5,-483.23"/>
<polygon fill="#63b8ff" stroke="#63b8ff" points="417.8,-486.66 428.3,-485.22 419.2,-479.8 417.8,-486.66"/>
</a>
</g>
</g>
<!-- Node4&#45;&gt;Node3 -->
<g id="edge4_Node000004_Node000003" class="edge">
<title>Node4&#45;&gt;Node3</title>
<g id="a_edge4_Node000004_Node000003"><a xlink:title=" ">
<path fill="none" stroke="#63b8ff" d="M300.9,-346.44C320.38,-366.13 353.65,-400.32 380.75,-431 397.48,-449.94 395.71,-461.01 416.75,-475 418.61,-476.24 420.53,-477.41 422.5,-478.53"/>
<polygon fill="#63b8ff" stroke="#63b8ff" points="420.84,-481.62 431.35,-482.98 423.99,-475.36 420.84,-481.62"/>
</a>
</g>
</g>
<!-- Node4&#45;&gt;Node5 -->
<g id="edge5_Node000004_Node000005" class="edge">
<title>Node4&#45;&gt;Node5</title>
<g id="a_edge5_Node000004_Node000005"><a xlink:title=" ">
<path fill="none" stroke="#63b8ff" d="M307.97,-346.3C327.54,-359.97 356.1,-380.06 380.75,-398 396.92,-409.77 398.88,-416.01 416.75,-425 419.85,-426.56 423.07,-428.04 426.36,-429.44"/>
<polygon fill="#63b8ff" stroke="#63b8ff" points="425.04,-432.69 435.63,-433.1 427.61,-426.18 425.04,-432.69"/>
</a>
</g>
</g>
<!-- Node4&#45;&gt;Node6 -->
<g id="edge6_Node000004_Node000006" class="edge">
<title>Node4&#45;&gt;Node6</title>
<g id="a_edge6_Node000004_Node000006"><a xlink:title=" ">
<path fill="none" stroke="#63b8ff" d="M340.27,-346.42C353.61,-350.61 367.75,-355.28 380.75,-360 397.04,-365.92 400.42,-369.19 416.75,-375 421.7,-376.76 426.84,-378.5 432.04,-380.19"/>
<polygon fill="#63b8ff" stroke="#63b8ff" points="430.69,-383.44 441.28,-383.13 432.81,-376.77 430.69,-383.44"/>
</a>
</g>
</g>
<!-- Node7 -->
<g id="Node000007" class="node">
<title>Node7</title>
<g id="a_Node000007"><a xlink:href="classediteurpanovisu_1_1VisualiseurImagesPanoramiques.html#aeb16c431c90e4ca28c1cb3e78bb2b660" target="_top" xlink:title=" ">
<polygon fill="white" stroke="#666666" points="587.25,-366 416.75,-366 416.75,-334 587.25,-334 587.25,-366"/>
<text xml:space="preserve" text-anchor="start" x="424.75" y="-352.5" font-family="Helvetica,sans-Serif" font-size="10.00">editeurpanovisu.Visualiseur</text>
<text xml:space="preserve" text-anchor="middle" x="502" y="-340.5" font-family="Helvetica,sans-Serif" font-size="10.00">ImagesPanoramiques.getPositNord</text>
</a>
</g>
</g>
<!-- Node4&#45;&gt;Node7 -->
<g id="edge7_Node000004_Node000007" class="edge">
<title>Node4&#45;&gt;Node7</title>
<g id="a_edge7_Node000004_Node000007"><a xlink:title=" ">
<path fill="none" stroke="#63b8ff" d="M354.79,-336.49C370.9,-337.98 388.28,-339.59 405.25,-341.16"/>
<polygon fill="#63b8ff" stroke="#63b8ff" points="404.54,-344.6 414.82,-342.04 405.19,-337.63 404.54,-344.6"/>
</a>
</g>
</g>
<!-- Node8 -->
<g id="Node000008" class="node">
<title>Node8</title>
<g id="a_Node000008"><a xlink:href="leaflet_8js.html#a73aff07b65d7c0b09ccf6b4c4f1b7a9d" target="_top" xlink:title=" ">
<polygon fill="white" stroke="#666666" points="516.4,-316 487.6,-316 487.6,-296 516.4,-296 516.4,-316"/>
<text xml:space="preserve" text-anchor="middle" x="502" y="-302.5" font-family="Helvetica,sans-Serif" font-size="10.00">i</text>
</a>
</g>
</g>
<!-- Node4&#45;&gt;Node8 -->
<g id="edge8_Node000004_Node000008" class="edge">
<title>Node4&#45;&gt;Node8</title>
<g id="a_edge8_Node000004_Node000008"><a xlink:title=" ">
<path fill="none" stroke="#63b8ff" d="M354.79,-322.21C396.49,-317.59 446.8,-312.01 476.21,-308.75"/>
<polygon fill="#63b8ff" stroke="#63b8ff" points="476.4,-312.25 485.95,-307.67 475.62,-305.29 476.4,-312.25"/>
</a>
</g>
</g>
<!-- Node4&#45;&gt;Node9 -->
<g id="edge9_Node000004_Node000009" class="edge">
<title>Node4&#45;&gt;Node9</title>
<g id="a_edge9_Node000004_Node000009"><a xlink:title=" ">
<path fill="none" stroke="#63b8ff" d="M338.85,-313.52C352.56,-309.24 367.23,-304.55 380.75,-300 396.87,-294.58 400.59,-292.31 416.75,-287 422.05,-285.26 427.55,-283.5 433.1,-281.78"/>
<polygon fill="#63b8ff" stroke="#63b8ff" points="433.78,-285.23 442.31,-278.94 431.72,-278.54 433.78,-285.23"/>
</a>
</g>
</g>
<!-- Node4&#45;&gt;Node10 -->
<g id="edge10_Node000004_Node000010" class="edge">
<title>Node4&#45;&gt;Node10</title>
<g id="a_edge10_Node000004_Node000010"><a xlink:title=" ">
<path fill="none" stroke="#63b8ff" d="M307.82,-313.53C345.39,-287.01 415.27,-237.71 416.75,-237 420.05,-235.41 423.46,-233.89 426.95,-232.45"/>
<polygon fill="#63b8ff" stroke="#63b8ff" points="428.08,-235.77 436.17,-228.92 425.58,-229.23 428.08,-235.77"/>
</a>
</g>
</g>
<!-- Node4&#45;&gt;Node11 -->
<g id="edge11_Node000004_Node000011" class="edge">
<title>Node4&#45;&gt;Node11</title>
<g id="a_edge11_Node000004_Node000011"><a xlink:title=" ">
<path fill="none" stroke="#63b8ff" d="M299.19,-313.66C332.12,-277.08 409.54,-191.49 416.75,-187 418.77,-185.74 420.87,-184.54 423.01,-183.4"/>
<polygon fill="#63b8ff" stroke="#63b8ff" points="424.46,-186.59 431.98,-179.13 421.45,-180.27 424.46,-186.59"/>
</a>
</g>
</g>
</g>
</svg>

<g id="navigator" transform="translate(0 0)" fill="#404254">
  <rect fill="#f2f5e9" fill-opacity="0.5" stroke="#606060" stroke-width=".5" x="0" y="0" width="60" height="60"/>
  <use id="zoomplus" xlink:href="#zoomPlus" x="17" y="9" onmousedown="handleZoom(evt,'in')"/>
  <use id="zoomminus" xlink:href="#zoomMin" x="42" y="9" onmousedown="handleZoom(evt,'out')"/>
  <use id="reset" xlink:href="#resetDef" x="30" y="36" onmousedown="handleReset()"/>
   <use id="arrowup" xlink:href="#arrowUp" x="0" y="0" onmousedown="handlePan(0,-1)"/>
  <use id="arrowright" xlink:href="#arrowRight" x="0" y="0" onmousedown="handlePan(1,0)"/>
  <use id="arrowdown" xlink:href="#arrowDown" x="0" y="0" onmousedown="handlePan(0,1)"/>
  <use id="arrowleft" xlink:href="#arrowLeft" x="0" y="0" onmousedown="handlePan(-1,0)"/>
</g>
<svg viewBox="0 0 15 15" width="100%" height="30px" preserveAspectRatio="xMaxYMin meet">
 <g id="arrow_out" transform="scale(0.3 0.3)">
  <a xlink:href="classediteurpanovisu_1_1VisualiseurImagesPanoramiques_af8054a76c76eed1ef022005db88148c1_cgraph_org.svg" target="_base">
   <rect id="button" ry="5" rx="5" y="6" x="6" height="38" width="38"
        fill="#f2f5e9" fill-opacity="0.5" stroke="#606060" stroke-width="1.0"/>
   <path id="arrow"
     d="M 11.500037,31.436501 C 11.940474,20.09759 22.043105,11.32322 32.158766,21.979434 L 37.068811,17.246167 C 37.068811,17.246167 37.088388,32 37.088388,32 L 22.160133,31.978069 C 22.160133,31.978069 26.997745,27.140456 26.997745,27.140456 C 18.528582,18.264221 13.291696,25.230495 11.500037,31.436501 z"
     style="fill:#404040;"/>
  </a>
 </g>
</svg>

<style type='text/css'>
<![CDATA[
[data-mouse-over-selected='false'] { opacity: 0.7; }
[data-mouse-over-selected='true']  { opacity: 1.0; }
]]>
</style>
<script type="application/ecmascript"><![CDATA[
document.addEventListener('DOMContentLoaded', (event) => {
  highlightEdges();
  highlightAdjacentNodes();
});
]]></script>
</svg>
