<?xml version="1.0" encoding="UTF-8" standalone="no"?>
<!DOCTYPE svg PUBLIC "-//W3C//DTD SVG 1.1//EN"
 "http://www.w3.org/Graphics/SVG/1.1/DTD/svg11.dtd">
<!-- Generated by graphviz version 13.1.2 (20250808.2320)
 -->
<!-- Title: editeurpanovisu.NavigateurCarte Pages: 1 -->
<svg width="163pt" height="336pt"
 viewBox="0.00 0.00 163.00 336.00" xmlns="http://www.w3.org/2000/svg" xmlns:xlink="http://www.w3.org/1999/xlink">
<g id="graph0" class="graph" transform="scale(1 1) rotate(0) translate(4 332)">
<title>editeurpanovisu.NavigateurCarte</title>
<!-- Node1 -->
<g id="Node000001" class="node">
<title>Node1</title>
<g id="a_Node000001"><a xlink:title=" ">
<polygon fill="#999999" stroke="none" points="154.5,-240 0,-240 0,0 154.5,0 154.5,-240"/>
<text xml:space="preserve" text-anchor="start" x="18" y="-226.5" font-family="Helvetica,sans-Serif" font-size="10.00">editeurpanovisu.Navigateur</text>
<text xml:space="preserve" text-anchor="start" x="65.25" y="-214.5" font-family="Helvetica,sans-Serif" font-size="10.00">Carte</text>
<text xml:space="preserve" text-anchor="start" x="5.5" y="-198.5" font-family="Helvetica,sans-Serif" font-size="10.00">&#45;</text>
<text xml:space="preserve" text-anchor="start" x="14" y="-198.5" font-family="Helvetica,sans-Serif" font-size="10.00">WebView webView</text>
<text xml:space="preserve" text-anchor="start" x="5.5" y="-182.5" font-family="Helvetica,sans-Serif" font-size="10.00">&#45;</text>
<text xml:space="preserve" text-anchor="start" x="14" y="-182.5" font-family="Helvetica,sans-Serif" font-size="10.00">WebEngine webEngine</text>
<text xml:space="preserve" text-anchor="start" x="4" y="-166.5" font-family="Helvetica,sans-Serif" font-size="10.00">+</text>
<text xml:space="preserve" text-anchor="start" x="14" y="-166.5" font-family="Helvetica,sans-Serif" font-size="10.00">WebView getWebView()</text>
<text xml:space="preserve" text-anchor="start" x="4" y="-150.5" font-family="Helvetica,sans-Serif" font-size="10.00">+</text>
<text xml:space="preserve" text-anchor="start" x="14" y="-150.5" font-family="Helvetica,sans-Serif" font-size="10.00">void setWebView(WebView</text>
<text xml:space="preserve" text-anchor="start" x="14" y="-138.5" font-family="Helvetica,sans-Serif" font-size="10.00"> webView)</text>
<text xml:space="preserve" text-anchor="start" x="4" y="-122.5" font-family="Helvetica,sans-Serif" font-size="10.00">+</text>
<text xml:space="preserve" text-anchor="start" x="14" y="-122.5" font-family="Helvetica,sans-Serif" font-size="10.00">WebEngine getWebEngine()</text>
<text xml:space="preserve" text-anchor="start" x="4" y="-106.5" font-family="Helvetica,sans-Serif" font-size="10.00">+</text>
<text xml:space="preserve" text-anchor="start" x="14" y="-106.5" font-family="Helvetica,sans-Serif" font-size="10.00">void setWebEngine(WebEngine</text>
<text xml:space="preserve" text-anchor="start" x="14" y="-94.5" font-family="Helvetica,sans-Serif" font-size="10.00"> webEngine)</text>
<text xml:space="preserve" text-anchor="start" x="4" y="-78.5" font-family="Helvetica,sans-Serif" font-size="10.00">+</text>
<text xml:space="preserve" text-anchor="start" x="14" y="-78.5" font-family="Helvetica,sans-Serif" font-size="10.00">void invalidateMapSize()</text>
<text xml:space="preserve" text-anchor="start" x="4" y="-62.5" font-family="Helvetica,sans-Serif" font-size="10.00">~</text>
<text xml:space="preserve" text-anchor="start" x="14" y="-62.5" font-family="Helvetica,sans-Serif" font-size="10.00">NavigateurCarte()</text>
<text xml:space="preserve" text-anchor="start" x="5.5" y="-46.5" font-family="Helvetica,sans-Serif" font-size="10.00">&#45;</text>
<text xml:space="preserve" text-anchor="start" x="14" y="-46.5" font-family="Helvetica,sans-Serif" font-size="10.00">String replaceImageUrlsWith</text>
<text xml:space="preserve" text-anchor="start" x="14" y="-34.5" font-family="Helvetica,sans-Serif" font-size="10.00">Base64(String css)</text>
<text xml:space="preserve" text-anchor="start" x="5.5" y="-18.5" font-family="Helvetica,sans-Serif" font-size="10.00">&#45;</text>
<text xml:space="preserve" text-anchor="start" x="14" y="-18.5" font-family="Helvetica,sans-Serif" font-size="10.00">String encodeImageToBase64</text>
<text xml:space="preserve" text-anchor="start" x="14" y="-6.5" font-family="Helvetica,sans-Serif" font-size="10.00">(String imagePath)</text>
<polygon fill="#666666" stroke="#666666" points="0,-210 0,-210 154.5,-210 154.5,-210 0,-210"/>
<polygon fill="#666666" stroke="#666666" points="0,-178 0,-178 12,-178 12,-178 0,-178"/>
<polygon fill="#666666" stroke="#666666" points="12,-178 12,-178 154.5,-178 154.5,-178 12,-178"/>
<polygon fill="none" stroke="#666666" points="0,0 0,-240 154.5,-240 154.5,0 0,0"/>
</a>
</g>
</g>
<!-- Node2 -->
<g id="Node000002" class="node">
<title>Node2</title>
<g id="a_Node000002"><a xlink:title=" ">
<polygon fill="white" stroke="none" points="96.62,-328 57.88,-328 57.88,-276 96.62,-276 96.62,-328"/>
<text xml:space="preserve" text-anchor="start" x="61.88" y="-314.5" font-family="Helvetica,sans-Serif" font-size="10.00">Region</text>
<text xml:space="preserve" text-anchor="start" x="75.75" y="-298.5" font-family="Helvetica,sans-Serif" font-size="10.00"> </text>
<text xml:space="preserve" text-anchor="start" x="75.75" y="-282.5" font-family="Helvetica,sans-Serif" font-size="10.00"> </text>
<polygon fill="#666666" stroke="#666666" points="57.88,-310 57.88,-310 96.62,-310 96.62,-310 57.88,-310"/>
<polygon fill="#666666" stroke="#666666" points="57.88,-294 57.88,-294 96.62,-294 96.62,-294 57.88,-294"/>
<polygon fill="none" stroke="#666666" points="57.88,-276 57.88,-328 96.62,-328 96.62,-276 57.88,-276"/>
</a>
</g>
</g>
<!-- Node2&#45;&gt;Node1 -->
<g id="edge1_Node000001_Node000002" class="edge">
<title>Node2&#45;&gt;Node1</title>
<g id="a_edge1_Node000001_Node000002"><a xlink:title=" ">
<path fill="none" stroke="#63b8ff" d="M77.25,-265.02C77.25,-257.34 77.25,-248.82 77.25,-239.88"/>
<polygon fill="none" stroke="#63b8ff" points="73.75,-264.84 77.25,-274.84 80.75,-264.84 73.75,-264.84"/>
</a>
</g>
</g>
</g>
</svg>
