<?xml version="1.0" encoding="UTF-8" standalone="no"?>
<!DOCTYPE svg PUBLIC "-//W3C//DTD SVG 1.1//EN"
 "http://www.w3.org/Graphics/SVG/1.1/DTD/svg11.dtd">
<!-- Generated by graphviz version 13.1.2 (20250808.2320)
 -->
<!-- Title: editeurpanovisu.EditeurPanovisu.loadSvgIcon Pages: 1 -->
<svg width="1089pt" height="78pt"
 viewBox="0.00 0.00 1089.00 78.00" xmlns="http://www.w3.org/2000/svg" xmlns:xlink="http://www.w3.org/1999/xlink">
<g id="graph0" class="graph" transform="scale(1 1) rotate(0) translate(4 74)">
<title>editeurpanovisu.EditeurPanovisu.loadSvgIcon</title>
<!-- Node1 -->
<g id="Node000001" class="node">
<title>Node1</title>
<g id="a_Node000001"><a xlink:title="Charge une icône SVG avec la taille spécifiée.">
<polygon fill="#999999" stroke="#666666" points="1081.25,-54 901.75,-54 901.75,-22 1081.25,-22 1081.25,-54"/>
<text xml:space="preserve" text-anchor="start" x="909.75" y="-40.5" font-family="Helvetica,sans-Serif" font-size="10.00">editeurpanovisu.EditeurPanovisu.load</text>
<text xml:space="preserve" text-anchor="middle" x="991.5" y="-28.5" font-family="Helvetica,sans-Serif" font-size="10.00">SvgIcon</text>
</a>
</g>
</g>
<!-- Node2 -->
<g id="Node000002" class="node">
<title>Node2</title>
<g id="a_Node000002"><a xlink:href="classediteurpanovisu_1_1EditeurPanovisu.html#ac912b80c1f2ac97def60ff005c5c480b" target="_top" xlink:title=" ">
<polygon fill="white" stroke="#666666" points="627.75,-70 423.5,-70 423.5,-50 627.75,-50 627.75,-70"/>
<text xml:space="preserve" text-anchor="middle" x="525.62" y="-56.5" font-family="Helvetica,sans-Serif" font-size="10.00">editeurpanovisu.EditeurPanovisu.creeMenu</text>
</a>
</g>
</g>
<!-- Node1&#45;&gt;Node2 -->
<g id="edge1_Node000001_Node000002" class="edge">
<title>Node1&#45;&gt;Node2</title>
<g id="a_edge1_Node000001_Node000002"><a xlink:title=" ">
<path fill="none" stroke="#63b8ff" d="M890.12,-42.76C812.6,-46.44 705.78,-51.5 628.01,-55.19"/>
<polygon fill="#63b8ff" stroke="#63b8ff" points="890,-46.27 899.82,-42.3 889.67,-39.28 890,-46.27"/>
</a>
</g>
</g>
<!-- Node4 -->
<g id="Node000004" class="node">
<title>Node4</title>
<g id="a_Node000004"><a xlink:href="classediteurpanovisu_1_1EditeurPanovisu.html#a43450ddf111546a6b22ad25c6ee0121e" target="_top" xlink:title="Recharge toutes les icônes SVG de la barre d&#39;outils Appelé lors du changement de thème pour mettre à ...">
<polygon fill="white" stroke="#666666" points="865.75,-32 663.75,-32 663.75,0 865.75,0 865.75,-32"/>
<text xml:space="preserve" text-anchor="start" x="671.75" y="-18.5" font-family="Helvetica,sans-Serif" font-size="10.00">editeurpanovisu.EditeurPanovisu.recharger</text>
<text xml:space="preserve" text-anchor="middle" x="764.75" y="-6.5" font-family="Helvetica,sans-Serif" font-size="10.00">Icones</text>
</a>
</g>
</g>
<!-- Node1&#45;&gt;Node4 -->
<g id="edge3_Node000001_Node000004" class="edge">
<title>Node1&#45;&gt;Node4</title>
<g id="a_edge3_Node000001_Node000004"><a xlink:title=" ">
<path fill="none" stroke="#63b8ff" d="M890.07,-28.17C882.04,-27.38 873.93,-26.59 865.91,-25.8"/>
<polygon fill="#63b8ff" stroke="#63b8ff" points="889.55,-31.64 899.84,-29.13 890.23,-24.67 889.55,-31.64"/>
</a>
</g>
</g>
<!-- Node3 -->
<g id="Node000003" class="node">
<title>Node3</title>
<g id="a_Node000003"><a xlink:href="classediteurpanovisu_1_1EditeurPanovisu.html#a86c393eee88f54c694db994ddd85b90d" target="_top" xlink:title=" ">
<polygon fill="white" stroke="#666666" points="180.25,-54 0,-54 0,-22 180.25,-22 180.25,-54"/>
<text xml:space="preserve" text-anchor="start" x="8" y="-40.5" font-family="Helvetica,sans-Serif" font-size="10.00">editeurpanovisu.EditeurPanovisu.cree</text>
<text xml:space="preserve" text-anchor="middle" x="90.12" y="-28.5" font-family="Helvetica,sans-Serif" font-size="10.00">Environnement</text>
</a>
</g>
</g>
<!-- Node2&#45;&gt;Node3 -->
<g id="edge2_Node000002_Node000003" class="edge">
<title>Node2&#45;&gt;Node3</title>
<g id="a_edge2_Node000002_Node000003"><a xlink:title=" ">
<path fill="none" stroke="#63b8ff" d="M411.87,-54.28C339.76,-50.62 247.52,-45.94 180.48,-42.53"/>
<polygon fill="#63b8ff" stroke="#63b8ff" points="411.59,-57.77 421.75,-54.78 411.94,-50.78 411.59,-57.77"/>
</a>
</g>
</g>
<!-- Node5 -->
<g id="Node000005" class="node">
<title>Node5</title>
<g id="a_Node000005"><a xlink:href="classediteurpanovisu_1_1EditeurPanovisu.html#ac7f9fc08f7517cc58ad3ee2ffc463c41" target="_top" xlink:title=" ">
<polygon fill="white" stroke="#666666" points="613.12,-32 438.12,-32 438.12,0 613.12,0 613.12,-32"/>
<text xml:space="preserve" text-anchor="start" x="446.12" y="-18.5" font-family="Helvetica,sans-Serif" font-size="10.00">editeurpanovisu.EditeurPanovisu.set</text>
<text xml:space="preserve" text-anchor="middle" x="525.62" y="-6.5" font-family="Helvetica,sans-Serif" font-size="10.00">StrStyleCSS</text>
</a>
</g>
</g>
<!-- Node4&#45;&gt;Node5 -->
<g id="edge4_Node000004_Node000005" class="edge">
<title>Node4&#45;&gt;Node5</title>
<g id="a_edge4_Node000004_Node000005"><a xlink:title=" ">
<path fill="none" stroke="#63b8ff" d="M652.13,-16C639.11,-16 625.97,-16 613.35,-16"/>
<polygon fill="#63b8ff" stroke="#63b8ff" points="652.02,-19.5 662.02,-16 652.02,-12.5 652.02,-19.5"/>
</a>
</g>
</g>
<!-- Node6 -->
<g id="Node000006" class="node">
<title>Node6</title>
<g id="a_Node000006"><a xlink:href="classediteurpanovisu_1_1EditeurPanovisu.html#adf3136c7d8546e073ebf626494bd9b58" target="_top" xlink:title=" ">
<polygon fill="white" stroke="#666666" points="387.5,-32 216.25,-32 216.25,0 387.5,0 387.5,-32"/>
<text xml:space="preserve" text-anchor="start" x="224.25" y="-18.5" font-family="Helvetica,sans-Serif" font-size="10.00">editeurpanovisu.EditeurPanovisu.lis</text>
<text xml:space="preserve" text-anchor="middle" x="301.88" y="-6.5" font-family="Helvetica,sans-Serif" font-size="10.00">FichierConfig</text>
</a>
</g>
</g>
<!-- Node5&#45;&gt;Node6 -->
<g id="edge5_Node000005_Node000006" class="edge">
<title>Node5&#45;&gt;Node6</title>
<g id="a_edge5_Node000005_Node000006"><a xlink:title=" ">
<path fill="none" stroke="#63b8ff" d="M426.61,-16C413.63,-16 400.41,-16 387.68,-16"/>
<polygon fill="#63b8ff" stroke="#63b8ff" points="426.42,-19.5 436.42,-16 426.42,-12.5 426.42,-19.5"/>
</a>
</g>
</g>
<!-- Node6&#45;&gt;Node3 -->
<g id="edge6_Node000006_Node000003" class="edge">
<title>Node6&#45;&gt;Node3</title>
<g id="a_edge6_Node000006_Node000003"><a xlink:title=" ">
<path fill="none" stroke="#63b8ff" d="M204.65,-26.09C196.67,-26.93 188.63,-27.77 180.7,-28.6"/>
<polygon fill="#63b8ff" stroke="#63b8ff" points="204.78,-29.6 214.36,-25.07 204.05,-22.64 204.78,-29.6"/>
</a>
</g>
</g>
</g>
</svg>
