<?xml version="1.0" encoding="UTF-8" standalone="no"?>
<!DOCTYPE svg PUBLIC "-//W3C//DTD SVG 1.1//EN"
 "http://www.w3.org/Graphics/SVG/1.1/DTD/svg11.dtd">
<!-- Generated by graphviz version 13.1.2 (20250808.2320)
 -->
<!-- Title: editeurpanovisu.BuildNumberIncrementer.main Pages: 1 -->
<!--zoomable 184 -->

<svg id="main" version="1.1" xmlns="http://www.w3.org/2000/svg" xmlns:xlink="http://www.w3.org/1999/xlink" xml:space="preserve" onload="init(evt)">

<style type="text/css"><![CDATA[
.node, .edge {opacity: 0.7;}
.node.selected, .edge.selected {opacity: 1;}
.edge:hover path { stroke: red; }
.edge:hover polygon { stroke: red; fill: red; }
]]></style>

<defs>
  <circle id="rim" cx="0" cy="0" r="7"/>
  <circle id="rim2" cx="0" cy="0" r="3.5"/>
  <g id="zoomPlus">
    <use xlink:href="#rim" fill="#404040"><set attributeName="fill" to="#808080" begin="zoomplus.mouseover" end="zoomplus.mouseout"/></use>
    <path d="M-4,0h8M0,-4v8" fill="none" stroke="white" stroke-width="1.5" pointer-events="none"/>
  </g>
  <g id="zoomMin">
    <use xlink:href="#rim" fill="#404040"><set attributeName="fill" to="#808080" begin="zoomminus.mouseover" end="zoomminus.mouseout"/></use>
    <path d="M-4,0h8" fill="none" stroke="white" stroke-width="1.5" pointer-events="none"/>
  </g>
  <g id="arrowUp" transform="translate(30 24)">
    <use xlink:href="#rim"/>
    <path pointer-events="none" fill="none" stroke="white" stroke-width="1.5" d="M0,-3.0v7 M-2.5,-0.5L0,-3.0L2.5,-0.5"/>
  </g>
  <g id="arrowRight" transform="rotate(90) translate(36 -43)">
    <use xlink:href="#rim"/>
    <path pointer-events="none" fill="none" stroke="white" stroke-width="1.5" d="M0,-3.0v7 M-2.5,-0.5L0,-3.0L2.5,-0.5"/>
  </g>
  <g id="arrowDown" transform="rotate(180) translate(-30 -48)">
    <use xlink:href="#rim"/>
    <path pointer-events="none" fill="none" stroke="white" stroke-width="1.5" d="M0,-3.0v7 M-2.5,-0.5L0,-3.0L2.5,-0.5"/>
  </g>
  <g id="arrowLeft" transform="rotate(270) translate(-36 17)">
    <use xlink:href="#rim"/>
    <path pointer-events="none" fill="none" stroke="white" stroke-width="1.5" d="M0,-3.0v7 M-2.5,-0.5L0,-3.0L2.5,-0.5"/>
  </g>
  <g id="resetDef">
    <use xlink:href="#rim2" fill="#404040"><set attributeName="fill" to="#808080" begin="reset.mouseover" end="reset.mouseout"/></use>
  </g>
</defs>
<script type="application/ecmascript">
var viewWidth = 626;
var viewHeight = 184;
var sectionId = 'dynsection-3';
</script>
<script type="application/ecmascript" xlink:href="svg.min.js"/>
<svg id="graph" class="graph">
<g id="viewport">
<title>editeurpanovisu.BuildNumberIncrementer.main</title>
<!-- Node1 -->
<g id="Node000001" class="node">
<title>Node1</title>
<g id="a_Node000001"><a xlink:title=" ">
<polygon fill="#999999" stroke="#666666" points="143.5,-101 0,-101 0,-69 143.5,-69 143.5,-101"/>
<text xml:space="preserve" text-anchor="start" x="8" y="-87.5" font-family="Helvetica,sans-Serif" font-size="10.00">editeurpanovisu.BuildNumber</text>
<text xml:space="preserve" text-anchor="middle" x="71.75" y="-75.5" font-family="Helvetica,sans-Serif" font-size="10.00">Incrementer.main</text>
</a>
</g>
</g>
<!-- Node2 -->
<g id="Node000002" class="node">
<title>Node2</title>
<g id="a_Node000002"><a xlink:href="classediteurpanovisu_1_1BuildNumberIncrementer.html#a8aaa35f56fe8e16c87840b8ff7c16d66" target="_top" xlink:title="Lit le numéro de build depuis build.num.">
<polygon fill="white" stroke="#666666" points="333.87,-176 188.12,-176 188.12,-144 333.87,-144 333.87,-176"/>
<text xml:space="preserve" text-anchor="start" x="196.12" y="-162.5" font-family="Helvetica,sans-Serif" font-size="10.00">editeurpanovisu.BuildNumber</text>
<text xml:space="preserve" text-anchor="middle" x="261" y="-150.5" font-family="Helvetica,sans-Serif" font-size="10.00">Incrementer.readBuildNumber</text>
</a>
</g>
</g>
<!-- Node1&#45;&gt;Node2 -->
<g id="edge1_Node000001_Node000002" class="edge">
<title>Node1&#45;&gt;Node2</title>
<g id="a_edge1_Node000001_Node000002"><a xlink:title=" ">
<path fill="none" stroke="#63b8ff" d="M104.95,-101.49C125.88,-111.86 153.93,-125.09 179.5,-135 183.88,-136.69 188.42,-138.36 193.02,-139.97"/>
<polygon fill="#63b8ff" stroke="#63b8ff" points="191.77,-143.24 202.36,-143.14 194.02,-136.61 191.77,-143.24"/>
</a>
</g>
</g>
<!-- Node3 -->
<g id="Node000003" class="node">
<title>Node3</title>
<g id="a_Node000003"><a xlink:href="classediteurpanovisu_1_1BuildNumberIncrementer.html#a5fd701d8791b9edc3e7e25cddbc1aecd" target="_top" xlink:title="Met à jour le fichier build.num.">
<polygon fill="white" stroke="#666666" points="340.25,-126 181.75,-126 181.75,-94 340.25,-94 340.25,-126"/>
<text xml:space="preserve" text-anchor="start" x="189.75" y="-112.5" font-family="Helvetica,sans-Serif" font-size="10.00">editeurpanovisu.BuildNumber</text>
<text xml:space="preserve" text-anchor="middle" x="261" y="-100.5" font-family="Helvetica,sans-Serif" font-size="10.00">Incrementer.updateBuildNumFile</text>
</a>
</g>
</g>
<!-- Node1&#45;&gt;Node3 -->
<g id="edge2_Node000001_Node000003" class="edge">
<title>Node1&#45;&gt;Node3</title>
<g id="a_edge2_Node000001_Node000003"><a xlink:title=" ">
<path fill="none" stroke="#63b8ff" d="M143.81,-94.49C152.46,-95.64 161.4,-96.84 170.28,-98.02"/>
<polygon fill="#63b8ff" stroke="#63b8ff" points="169.61,-101.46 179.98,-99.32 170.53,-94.52 169.61,-101.46"/>
</a>
</g>
</g>
<!-- Node4 -->
<g id="Node000004" class="node">
<title>Node4</title>
<g id="a_Node000004"><a xlink:href="classediteurpanovisu_1_1BuildNumberIncrementer.html#aa61cf5f23b7161d4b3049e71eae8d58f" target="_top" xlink:title="Met à jour le fichier i18n/PanoVisu.properties.">
<polygon fill="white" stroke="#666666" points="342.5,-76 179.5,-76 179.5,-44 342.5,-44 342.5,-76"/>
<text xml:space="preserve" text-anchor="start" x="187.5" y="-62.5" font-family="Helvetica,sans-Serif" font-size="10.00">editeurpanovisu.BuildNumber</text>
<text xml:space="preserve" text-anchor="middle" x="261" y="-50.5" font-family="Helvetica,sans-Serif" font-size="10.00">Incrementer.updateI18nProperties</text>
</a>
</g>
</g>
<!-- Node1&#45;&gt;Node4 -->
<g id="edge3_Node000001_Node000004" class="edge">
<title>Node1&#45;&gt;Node4</title>
<g id="a_edge3_Node000001_Node000004"><a xlink:title=" ">
<path fill="none" stroke="#63b8ff" d="M143.81,-75.51C151.68,-74.46 159.79,-73.38 167.87,-72.3"/>
<polygon fill="#63b8ff" stroke="#63b8ff" points="168.32,-75.77 177.77,-70.98 167.4,-68.83 168.32,-75.77"/>
</a>
</g>
</g>
<!-- Node7 -->
<g id="Node000007" class="node">
<title>Node7</title>
<g id="a_Node000007"><a xlink:href="classediteurpanovisu_1_1BuildNumberIncrementer.html#a823f76660a76098926285b92bb70485a" target="_top" xlink:title="Met à jour le fichier project.properties.">
<polygon fill="white" stroke="#666666" points="553.5,-32 378.5,-32 378.5,0 553.5,0 553.5,-32"/>
<text xml:space="preserve" text-anchor="start" x="386.5" y="-18.5" font-family="Helvetica,sans-Serif" font-size="10.00">editeurpanovisu.BuildNumber</text>
<text xml:space="preserve" text-anchor="middle" x="466" y="-6.5" font-family="Helvetica,sans-Serif" font-size="10.00">Incrementer.updateProjectProperties</text>
</a>
</g>
</g>
<!-- Node1&#45;&gt;Node7 -->
<g id="edge7_Node000001_Node000007" class="edge">
<title>Node1&#45;&gt;Node7</title>
<g id="a_edge7_Node000001_Node000007"><a xlink:title=" ">
<path fill="none" stroke="#63b8ff" d="M100.22,-68.64C121.17,-57.05 151.16,-42.3 179.5,-35 240.48,-19.28 311.07,-14.47 366.81,-13.62"/>
<polygon fill="#63b8ff" stroke="#63b8ff" points="366.63,-17.12 376.59,-13.52 366.56,-10.12 366.63,-17.12"/>
</a>
</g>
</g>
<!-- Node5 -->
<g id="Node000005" class="node">
<title>Node5</title>
<g id="a_Node000005"><a xlink:href="classediteurpanovisu_1_1BuildNumberIncrementer.html#a4fe00236345fc2a0ac8562a5c92281ad" target="_top" xlink:title="Formate le numéro de build avec espace insécable Exemple : 1990 &#45;&gt; &quot;1\u00a0990&quot;, 2000 &#45;&gt; &quot;2\u00a0000&quot;...">
<polygon fill="white" stroke="#666666" points="543.38,-120 388.62,-120 388.62,-88 543.38,-88 543.38,-120"/>
<text xml:space="preserve" text-anchor="start" x="396.62" y="-106.5" font-family="Helvetica,sans-Serif" font-size="10.00">editeurpanovisu.BuildNumber</text>
<text xml:space="preserve" text-anchor="middle" x="466" y="-94.5" font-family="Helvetica,sans-Serif" font-size="10.00">Incrementer.formatBuildNumber</text>
</a>
</g>
</g>
<!-- Node4&#45;&gt;Node5 -->
<g id="edge4_Node000004_Node000005" class="edge">
<title>Node4&#45;&gt;Node5</title>
<g id="a_edge4_Node000004_Node000005"><a xlink:title=" ">
<path fill="none" stroke="#63b8ff" d="M337.88,-76.45C350.9,-79.27 364.52,-82.22 377.81,-85.1"/>
<polygon fill="#63b8ff" stroke="#63b8ff" points="376.88,-88.48 387.4,-87.18 378.36,-81.64 376.88,-88.48"/>
</a>
</g>
</g>
<!-- Node6 -->
<g id="Node000006" class="node">
<title>Node6</title>
<g id="a_Node000006"><a xlink:href="leaflet_8js.html#a73aff07b65d7c0b09ccf6b4c4f1b7a9d" target="_top" xlink:title=" ">
<polygon fill="white" stroke="#666666" points="618.3,-70 589.5,-70 589.5,-50 618.3,-50 618.3,-70"/>
<text xml:space="preserve" text-anchor="middle" x="603.9" y="-56.5" font-family="Helvetica,sans-Serif" font-size="10.00">i</text>
</a>
</g>
</g>
<!-- Node4&#45;&gt;Node6 -->
<g id="edge6_Node000004_Node000006" class="edge">
<title>Node4&#45;&gt;Node6</title>
<g id="a_edge6_Node000004_Node000006"><a xlink:title=" ">
<path fill="none" stroke="#63b8ff" d="M342.79,-60C419.04,-60 528.76,-60 577.69,-60"/>
<polygon fill="#63b8ff" stroke="#63b8ff" points="577.51,-63.5 587.51,-60 577.51,-56.5 577.51,-63.5"/>
</a>
</g>
</g>
<!-- Node5&#45;&gt;Node6 -->
<g id="edge5_Node000005_Node000006" class="edge">
<title>Node5&#45;&gt;Node6</title>
<g id="a_edge5_Node000005_Node000006"><a xlink:title=" ">
<path fill="none" stroke="#63b8ff" d="M517.6,-87.62C538.45,-80.87 561.63,-73.36 578.56,-67.88"/>
<polygon fill="#63b8ff" stroke="#63b8ff" points="579.3,-71.32 587.74,-64.91 577.14,-64.66 579.3,-71.32"/>
</a>
</g>
</g>
<!-- Node7&#45;&gt;Node6 -->
<g id="edge8_Node000007_Node000006" class="edge">
<title>Node7&#45;&gt;Node6</title>
<g id="a_edge8_Node000007_Node000006"><a xlink:title=" ">
<path fill="none" stroke="#63b8ff" d="M517.6,-32.38C538.45,-39.13 561.63,-46.64 578.56,-52.12"/>
<polygon fill="#63b8ff" stroke="#63b8ff" points="577.14,-55.34 587.74,-55.09 579.3,-48.68 577.14,-55.34"/>
</a>
</g>
</g>
</g>
</svg>

<g id="navigator" transform="translate(0 0)" fill="#404254">
  <rect fill="#f2f5e9" fill-opacity="0.5" stroke="#606060" stroke-width=".5" x="0" y="0" width="60" height="60"/>
  <use id="zoomplus" xlink:href="#zoomPlus" x="17" y="9" onmousedown="handleZoom(evt,'in')"/>
  <use id="zoomminus" xlink:href="#zoomMin" x="42" y="9" onmousedown="handleZoom(evt,'out')"/>
  <use id="reset" xlink:href="#resetDef" x="30" y="36" onmousedown="handleReset()"/>
   <use id="arrowup" xlink:href="#arrowUp" x="0" y="0" onmousedown="handlePan(0,-1)"/>
  <use id="arrowright" xlink:href="#arrowRight" x="0" y="0" onmousedown="handlePan(1,0)"/>
  <use id="arrowdown" xlink:href="#arrowDown" x="0" y="0" onmousedown="handlePan(0,1)"/>
  <use id="arrowleft" xlink:href="#arrowLeft" x="0" y="0" onmousedown="handlePan(-1,0)"/>
</g>
<svg viewBox="0 0 15 15" width="100%" height="30px" preserveAspectRatio="xMaxYMin meet">
 <g id="arrow_out" transform="scale(0.3 0.3)">
  <a xlink:href="classediteurpanovisu_1_1BuildNumberIncrementer_a216b0340fd799b5af1cd6d1b28c5bb4d_cgraph_org.svg" target="_base">
   <rect id="button" ry="5" rx="5" y="6" x="6" height="38" width="38"
        fill="#f2f5e9" fill-opacity="0.5" stroke="#606060" stroke-width="1.0"/>
   <path id="arrow"
     d="M 11.500037,31.436501 C 11.940474,20.09759 22.043105,11.32322 32.158766,21.979434 L 37.068811,17.246167 C 37.068811,17.246167 37.088388,32 37.088388,32 L 22.160133,31.978069 C 22.160133,31.978069 26.997745,27.140456 26.997745,27.140456 C 18.528582,18.264221 13.291696,25.230495 11.500037,31.436501 z"
     style="fill:#404040;"/>
  </a>
 </g>
</svg>

<style type='text/css'>
<![CDATA[
[data-mouse-over-selected='false'] { opacity: 0.7; }
[data-mouse-over-selected='true']  { opacity: 1.0; }
]]>
</style>
<script type="application/ecmascript"><![CDATA[
document.addEventListener('DOMContentLoaded', (event) => {
  highlightEdges();
  highlightAdjacentNodes();
});
]]></script>
</svg>
