<?xml version="1.0" encoding="UTF-8" standalone="no"?>
<!DOCTYPE svg PUBLIC "-//W3C//DTD SVG 1.1//EN"
 "http://www.w3.org/Graphics/SVG/1.1/DTD/svg11.dtd">
<!-- Generated by graphviz version 13.1.2 (20250808.2320)
 -->
<!-- Title: editeurpanovisu.MarkdownViewer.envelopperDansHtml Pages: 1 -->
<svg width="339pt" height="90pt"
 viewBox="0.00 0.00 339.00 90.00" xmlns="http://www.w3.org/2000/svg" xmlns:xlink="http://www.w3.org/1999/xlink">
<g id="graph0" class="graph" transform="scale(1 1) rotate(0) translate(4 86)">
<title>editeurpanovisu.MarkdownViewer.envelopperDansHtml</title>
<!-- Node1 -->
<g id="Node000001" class="node">
<title>Node1</title>
<g id="a_Node000001"><a xlink:title="Enveloppe le HTML dans une structure complète avec CSS.">
<polygon fill="#999999" stroke="#666666" points="331.25,-57 190.75,-57 190.75,-25 331.25,-25 331.25,-57"/>
<text xml:space="preserve" text-anchor="start" x="198.75" y="-43.5" font-family="Helvetica,sans-Serif" font-size="10.00">editeurpanovisu.Markdown</text>
<text xml:space="preserve" text-anchor="middle" x="261" y="-31.5" font-family="Helvetica,sans-Serif" font-size="10.00">Viewer.envelopperDansHtml</text>
</a>
</g>
</g>
<!-- Node1&#45;&gt;Node1 -->
<g id="edge3_Node000001_Node000001" class="edge">
<title>Node1&#45;&gt;Node1</title>
<g id="a_edge3_Node000001_Node000001"><a xlink:title=" ">
<path fill="none" stroke="#63b8ff" d="M291.6,-68.71C286.5,-72.48 276.3,-75 261,-75 233.03,-75 222.1,-66.58 228.22,-57.44"/>
<polygon fill="#63b8ff" stroke="#63b8ff" points="295.03,-69.41 293.49,-58.93 288.16,-68.08 295.03,-69.41"/>
</a>
</g>
</g>
<!-- Node2 -->
<g id="Node000002" class="node">
<title>Node2</title>
<g id="a_Node000002"><a xlink:href="classediteurpanovisu_1_1MarkdownViewer.html#a10f899a1cf8b710a6116d89fe47f9b64" target="_top" xlink:title="Affiche un fichier Markdown dans une WebView.">
<polygon fill="white" stroke="#666666" points="154.75,-82 0,-82 0,-50 154.75,-50 154.75,-82"/>
<text xml:space="preserve" text-anchor="start" x="8" y="-68.5" font-family="Helvetica,sans-Serif" font-size="10.00">editeurpanovisu.Markdown</text>
<text xml:space="preserve" text-anchor="middle" x="77.38" y="-56.5" font-family="Helvetica,sans-Serif" font-size="10.00">Viewer.afficherFichierMarkdown</text>
</a>
</g>
</g>
<!-- Node1&#45;&gt;Node2 -->
<g id="edge1_Node000001_Node000002" class="edge">
<title>Node1&#45;&gt;Node2</title>
<g id="a_edge1_Node000001_Node000002"><a xlink:title=" ">
<path fill="none" stroke="#63b8ff" d="M179.12,-52.13C171.15,-53.23 163.07,-54.34 155.15,-55.43"/>
<polygon fill="#63b8ff" stroke="#63b8ff" points="179.37,-55.63 188.8,-50.8 178.42,-48.7 179.37,-55.63"/>
</a>
</g>
</g>
<!-- Node3 -->
<g id="Node000003" class="node">
<title>Node3</title>
<g id="a_Node000003"><a xlink:href="classediteurpanovisu_1_1MarkdownViewer.html#ac6ca1198098ccc428fbcc1c1ff10b495" target="_top" xlink:title="Affiche du contenu Markdown dans une WebView.">
<polygon fill="white" stroke="#666666" points="143.5,-32 11.25,-32 11.25,0 143.5,0 143.5,-32"/>
<text xml:space="preserve" text-anchor="start" x="19.25" y="-18.5" font-family="Helvetica,sans-Serif" font-size="10.00">editeurpanovisu.Markdown</text>
<text xml:space="preserve" text-anchor="middle" x="77.38" y="-6.5" font-family="Helvetica,sans-Serif" font-size="10.00">Viewer.afficherMarkdown</text>
</a>
</g>
</g>
<!-- Node1&#45;&gt;Node3 -->
<g id="edge2_Node000001_Node000003" class="edge">
<title>Node1&#45;&gt;Node3</title>
<g id="a_edge2_Node000001_Node000003"><a xlink:title=" ">
<path fill="none" stroke="#63b8ff" d="M179.06,-29.86C167.23,-28.23 155.18,-26.57 143.71,-24.99"/>
<polygon fill="#63b8ff" stroke="#63b8ff" points="178.42,-33.3 188.8,-31.2 179.37,-26.37 178.42,-33.3"/>
</a>
</g>
</g>
</g>
</svg>
