<?xml version="1.0" encoding="UTF-8" standalone="no"?>
<!DOCTYPE svg PUBLIC "-//W3C//DTD SVG 1.1//EN"
 "http://www.w3.org/Graphics/SVG/1.1/DTD/svg11.dtd">
<!-- Generated by graphviz version 13.1.2 (20250808.2320)
 -->
<!-- Title: editeurpanovisu.EditeurPanovisu.projetSauve Pages: 1 -->
<svg width="1330pt" height="359pt"
 viewBox="0.00 0.00 1330.00 359.00" xmlns="http://www.w3.org/2000/svg" xmlns:xlink="http://www.w3.org/1999/xlink">
<g id="graph0" class="graph" transform="scale(1 1) rotate(0) translate(4 355.44)">
<title>editeurpanovisu.EditeurPanovisu.projetSauve</title>
<!-- Node1 -->
<g id="Node000001" class="node">
<title>Node1</title>
<g id="a_Node000001"><a xlink:title=" ">
<polygon fill="#999999" stroke="#666666" points="1322.25,-202 1136.75,-202 1136.75,-170 1322.25,-170 1322.25,-202"/>
<text xml:space="preserve" text-anchor="start" x="1144.75" y="-188.5" font-family="Helvetica,sans-Serif" font-size="10.00">editeurpanovisu.EditeurPanovisu.projet</text>
<text xml:space="preserve" text-anchor="middle" x="1229.5" y="-176.5" font-family="Helvetica,sans-Serif" font-size="10.00">Sauve</text>
</a>
</g>
</g>
<!-- Node2 -->
<g id="Node000002" class="node">
<title>Node2</title>
<g id="a_Node000002"><a xlink:href="classediteurpanovisu_1_1EditeurPanovisu.html#ac912b80c1f2ac97def60ff005c5c480b" target="_top" xlink:title=" ">
<polygon fill="white" stroke="#666666" points="420.5,-199 216.25,-199 216.25,-179 420.5,-179 420.5,-199"/>
<text xml:space="preserve" text-anchor="middle" x="318.38" y="-185.5" font-family="Helvetica,sans-Serif" font-size="10.00">editeurpanovisu.EditeurPanovisu.creeMenu</text>
</a>
</g>
</g>
<!-- Node1&#45;&gt;Node2 -->
<g id="edge1_Node000001_Node000002" class="edge">
<title>Node1&#45;&gt;Node2</title>
<g id="a_edge1_Node000001_Node000002"><a xlink:title=" ">
<path fill="none" stroke="#63b8ff" d="M1211.55,-211.58C1189.89,-241.76 1149.35,-290.55 1100.75,-312 930.93,-386.96 868.67,-332.97 683.25,-324 582.12,-319.11 550.03,-340.77 456.5,-302 399.51,-278.37 347.87,-222.69 328.01,-199.46"/>
<polygon fill="#63b8ff" stroke="#63b8ff" points="1214.17,-213.93 1217.03,-203.73 1208.43,-209.92 1214.17,-213.93"/>
</a>
</g>
</g>
<!-- Node4 -->
<g id="Node000004" class="node">
<title>Node4</title>
<g id="a_Node000004"><a xlink:href="classediteurpanovisu_1_1EditeurPanovisu.html#a94e36b9e9d09ab1a4c852b8a8cefa927" target="_top" xlink:title=" ">
<polygon fill="white" stroke="#666666" points="647.25,-293 456.5,-293 456.5,-261 647.25,-261 647.25,-293"/>
<text xml:space="preserve" text-anchor="start" x="464.5" y="-279.5" font-family="Helvetica,sans-Serif" font-size="10.00">editeurpanovisu.EditeurPanovisu.genere</text>
<text xml:space="preserve" text-anchor="middle" x="551.88" y="-267.5" font-family="Helvetica,sans-Serif" font-size="10.00">Visite</text>
</a>
</g>
</g>
<!-- Node1&#45;&gt;Node4 -->
<g id="edge3_Node000001_Node000004" class="edge">
<title>Node1&#45;&gt;Node4</title>
<g id="a_edge3_Node000001_Node000004"><a xlink:title=" ">
<path fill="none" stroke="#63b8ff" d="M1204.97,-210.36C1181.13,-233.25 1141.97,-266.13 1100.75,-281 940.36,-338.85 735.97,-313.72 627.83,-293.46"/>
<polygon fill="#63b8ff" stroke="#63b8ff" points="1207.28,-213 1211.96,-203.5 1202.37,-208.01 1207.28,-213"/>
</a>
</g>
</g>
<!-- Node5 -->
<g id="Node000005" class="node">
<title>Node5</title>
<g id="a_Node000005"><a xlink:href="classediteurpanovisu_1_1EditeurPanovisu.html#ab4beb1597b660a4a253befc6e76f1c54" target="_top" xlink:title=" ">
<polygon fill="white" stroke="#666666" points="644.62,-205 459.12,-205 459.12,-173 644.62,-173 644.62,-205"/>
<text xml:space="preserve" text-anchor="start" x="467.12" y="-191.5" font-family="Helvetica,sans-Serif" font-size="10.00">editeurpanovisu.EditeurPanovisu.projet</text>
<text xml:space="preserve" text-anchor="middle" x="551.88" y="-179.5" font-family="Helvetica,sans-Serif" font-size="10.00">Charge</text>
</a>
</g>
</g>
<!-- Node1&#45;&gt;Node5 -->
<g id="edge5_Node000001_Node000005" class="edge">
<title>Node1&#45;&gt;Node5</title>
<g id="a_edge5_Node000001_Node000005"><a xlink:title=" ">
<path fill="none" stroke="#63b8ff" d="M1125.11,-186.46C994.1,-187.04 770.31,-188.03 644.93,-188.59"/>
<polygon fill="#63b8ff" stroke="#63b8ff" points="1124.83,-189.96 1134.81,-186.42 1124.8,-182.96 1124.83,-189.96"/>
</a>
</g>
</g>
<!-- Node6 -->
<g id="Node000006" class="node">
<title>Node6</title>
<g id="a_Node000006"><a xlink:href="classediteurpanovisu_1_1EditeurPanovisu.html#a6d19b4d885ee6fcec827b91956295732" target="_top" xlink:title=" ">
<polygon fill="white" stroke="#666666" points="1098.12,-120 912.62,-120 912.62,-88 1098.12,-88 1098.12,-120"/>
<text xml:space="preserve" text-anchor="start" x="920.62" y="-106.5" font-family="Helvetica,sans-Serif" font-size="10.00">editeurpanovisu.EditeurPanovisu.projet</text>
<text xml:space="preserve" text-anchor="middle" x="1005.38" y="-94.5" font-family="Helvetica,sans-Serif" font-size="10.00">ChargeNom</text>
</a>
</g>
</g>
<!-- Node1&#45;&gt;Node6 -->
<g id="edge7_Node000001_Node000006" class="edge">
<title>Node1&#45;&gt;Node6</title>
<g id="a_edge7_Node000001_Node000006"><a xlink:title=" ">
<path fill="none" stroke="#63b8ff" d="M1179.75,-165.11C1156.08,-155.23 1127.11,-143.54 1100.75,-134 1087.82,-129.32 1073.75,-124.64 1060.52,-120.41"/>
<polygon fill="#63b8ff" stroke="#63b8ff" points="1178.26,-168.27 1188.84,-168.92 1180.97,-161.82 1178.26,-168.27"/>
</a>
</g>
</g>
<!-- Node9 -->
<g id="Node000009" class="node">
<title>Node9</title>
<g id="a_Node000009"><a xlink:href="classediteurpanovisu_1_1EditeurPanovisu.html#a9b46b222714af12c06ec33d410400773" target="_top" xlink:title=" ">
<polygon fill="white" stroke="#666666" points="874,-67 683.25,-67 683.25,-35 874,-35 874,-67"/>
<text xml:space="preserve" text-anchor="start" x="691.25" y="-53.5" font-family="Helvetica,sans-Serif" font-size="10.00">editeurpanovisu.EditeurPanovisu.projets</text>
<text xml:space="preserve" text-anchor="middle" x="778.62" y="-41.5" font-family="Helvetica,sans-Serif" font-size="10.00">Fermer</text>
</a>
</g>
</g>
<!-- Node1&#45;&gt;Node9 -->
<g id="edge15_Node000001_Node000009" class="edge">
<title>Node1&#45;&gt;Node9</title>
<g id="a_edge15_Node000001_Node000009"><a xlink:title=" ">
<path fill="none" stroke="#63b8ff" d="M1207.72,-161.36C1184.55,-135.8 1144.52,-97.1 1100.75,-79 1028.87,-49.27 940.37,-43.57 874.5,-44.57"/>
<polygon fill="#63b8ff" stroke="#63b8ff" points="1204.94,-163.5 1214.19,-168.66 1210.18,-158.86 1204.94,-163.5"/>
</a>
</g>
</g>
<!-- Node10 -->
<g id="Node000010" class="node">
<title>Node10</title>
<g id="a_Node000010"><a xlink:href="classediteurpanovisu_1_1EditeurPanovisu.html#ac9d449399ccd38843fa12e716f0c9611" target="_top" xlink:title=" ">
<polygon fill="white" stroke="#666666" points="1100.75,-246 910,-246 910,-214 1100.75,-214 1100.75,-246"/>
<text xml:space="preserve" text-anchor="start" x="918" y="-232.5" font-family="Helvetica,sans-Serif" font-size="10.00">editeurpanovisu.EditeurPanovisu.projets</text>
<text xml:space="preserve" text-anchor="middle" x="1005.38" y="-220.5" font-family="Helvetica,sans-Serif" font-size="10.00">Nouveau</text>
</a>
</g>
</g>
<!-- Node1&#45;&gt;Node10 -->
<g id="edge17_Node000001_Node000010" class="edge">
<title>Node1&#45;&gt;Node10</title>
<g id="a_edge17_Node000001_Node000010"><a xlink:title=" ">
<path fill="none" stroke="#63b8ff" d="M1134.24,-204.67C1119.43,-207.6 1104.21,-210.62 1089.67,-213.5"/>
<polygon fill="#63b8ff" stroke="#63b8ff" points="1134.86,-208.12 1143.99,-202.74 1133.5,-201.25 1134.86,-208.12"/>
</a>
</g>
</g>
<!-- Node11 -->
<g id="Node000011" class="node">
<title>Node11</title>
<g id="a_Node000011"><a xlink:href="classediteurpanovisu_1_1EditeurPanovisu.html#a2b3125ffe2e6291efacf19df6cb30a8d" target="_top" xlink:title=" ">
<polygon fill="white" stroke="#666666" points="869.12,-284 688.12,-284 688.12,-264 869.12,-264 869.12,-284"/>
<text xml:space="preserve" text-anchor="middle" x="778.62" y="-270.5" font-family="Helvetica,sans-Serif" font-size="10.00">editeurpanovisu.EditeurPanovisu.start</text>
</a>
</g>
</g>
<!-- Node1&#45;&gt;Node11 -->
<g id="edge22_Node000001_Node000011" class="edge">
<title>Node1&#45;&gt;Node11</title>
<g id="a_edge22_Node000001_Node000011"><a xlink:title=" ">
<path fill="none" stroke="#63b8ff" d="M1196.53,-208.4C1171.67,-224.51 1135.64,-245.07 1100.75,-255 1024.87,-276.59 934.97,-280.14 869.61,-278.98"/>
<polygon fill="#63b8ff" stroke="#63b8ff" points="1198.15,-211.52 1204.56,-203.09 1194.28,-205.69 1198.15,-211.52"/>
</a>
</g>
</g>
<!-- Node12 -->
<g id="Node000012" class="node">
<title>Node12</title>
<g id="a_Node000012"><a xlink:href="classediteurpanovisu_1_1EditeurPanovisu.html#aef8c9b28c3e88d6e27e3f62b9a901134" target="_top" xlink:title=" ">
<polygon fill="white" stroke="#666666" points="1099.25,-32 911.5,-32 911.5,0 1099.25,0 1099.25,-32"/>
<text xml:space="preserve" text-anchor="start" x="919.5" y="-18.5" font-family="Helvetica,sans-Serif" font-size="10.00">editeurpanovisu.EditeurPanovisu.sauve</text>
<text xml:space="preserve" text-anchor="middle" x="1005.38" y="-6.5" font-family="Helvetica,sans-Serif" font-size="10.00">Fichiers</text>
</a>
</g>
</g>
<!-- Node1&#45;&gt;Node12 -->
<g id="edge21_Node000001_Node000012" class="edge">
<title>Node1&#45;&gt;Node12</title>
<g id="a_edge21_Node000001_Node000012"><a xlink:title=" ">
<path fill="none" stroke="#63b8ff" d="M1211.45,-160.22C1189.43,-128.88 1148.26,-76.42 1100.75,-46 1092.35,-40.62 1082.91,-36.14 1073.34,-32.43"/>
<polygon fill="#63b8ff" stroke="#63b8ff" points="1208.49,-162.11 1217.05,-168.36 1214.26,-158.14 1208.49,-162.11"/>
</a>
</g>
</g>
<!-- Node3 -->
<g id="Node000003" class="node">
<title>Node3</title>
<g id="a_Node000003"><a xlink:href="classediteurpanovisu_1_1EditeurPanovisu.html#a86c393eee88f54c694db994ddd85b90d" target="_top" xlink:title=" ">
<polygon fill="white" stroke="#666666" points="180.25,-205 0,-205 0,-173 180.25,-173 180.25,-205"/>
<text xml:space="preserve" text-anchor="start" x="8" y="-191.5" font-family="Helvetica,sans-Serif" font-size="10.00">editeurpanovisu.EditeurPanovisu.cree</text>
<text xml:space="preserve" text-anchor="middle" x="90.12" y="-179.5" font-family="Helvetica,sans-Serif" font-size="10.00">Environnement</text>
</a>
</g>
</g>
<!-- Node2&#45;&gt;Node3 -->
<g id="edge2_Node000002_Node000003" class="edge">
<title>Node2&#45;&gt;Node3</title>
<g id="a_edge2_Node000002_Node000003"><a xlink:title=" ">
<path fill="none" stroke="#63b8ff" d="M204.51,-189C196.49,-189 188.46,-189 180.6,-189"/>
<polygon fill="#63b8ff" stroke="#63b8ff" points="204.32,-192.5 214.32,-189 204.32,-185.5 204.32,-192.5"/>
</a>
</g>
</g>
<!-- Node4&#45;&gt;Node2 -->
<g id="edge4_Node000004_Node000002" class="edge">
<title>Node4&#45;&gt;Node2</title>
<g id="a_edge4_Node000004_Node000002"><a xlink:title=" ">
<path fill="none" stroke="#63b8ff" d="M485.32,-257.02C475.61,-253.82 465.76,-250.42 456.5,-247 415.52,-231.86 368.89,-211.43 341.92,-199.3"/>
<polygon fill="#63b8ff" stroke="#63b8ff" points="484.15,-260.33 494.75,-260.09 486.32,-253.67 484.15,-260.33"/>
</a>
</g>
</g>
<!-- Node5&#45;&gt;Node2 -->
<g id="edge6_Node000005_Node000002" class="edge">
<title>Node5&#45;&gt;Node2</title>
<g id="a_edge6_Node000005_Node000002"><a xlink:title=" ">
<path fill="none" stroke="#63b8ff" d="M447.22,-189C438.41,-189 429.52,-189 420.73,-189"/>
<polygon fill="#63b8ff" stroke="#63b8ff" points="447.2,-192.5 457.2,-189 447.2,-185.5 447.2,-192.5"/>
</a>
</g>
</g>
<!-- Node6&#45;&gt;Node2 -->
<g id="edge14_Node000006_Node000002" class="edge">
<title>Node6&#45;&gt;Node2</title>
<g id="a_edge14_Node000006_Node000002"><a xlink:title=" ">
<path fill="none" stroke="#63b8ff" d="M901.12,-91.42C789.45,-81.12 607.18,-74.02 456.5,-114 407.19,-127.08 356.35,-161.4 332.82,-178.71"/>
<polygon fill="#63b8ff" stroke="#63b8ff" points="900.58,-94.88 910.87,-92.35 901.25,-87.91 900.58,-94.88"/>
</a>
</g>
</g>
<!-- Node7 -->
<g id="Node000007" class="node">
<title>Node7</title>
<g id="a_Node000007"><a xlink:href="classediteurpanovisu_1_1EditeurPanovisu.html#af0d1c32bb78acbff561c822a0d15f760" target="_top" xlink:title=" ">
<polygon fill="white" stroke="#666666" points="872.5,-155 684.75,-155 684.75,-123 872.5,-123 872.5,-155"/>
<text xml:space="preserve" text-anchor="start" x="692.75" y="-141.5" font-family="Helvetica,sans-Serif" font-size="10.00">editeurpanovisu.EditeurPanovisu.ajoute</text>
<text xml:space="preserve" text-anchor="middle" x="778.62" y="-129.5" font-family="Helvetica,sans-Serif" font-size="10.00">FichierHisto</text>
</a>
</g>
</g>
<!-- Node6&#45;&gt;Node7 -->
<g id="edge8_Node000006_Node000007" class="edge">
<title>Node6&#45;&gt;Node7</title>
<g id="a_edge8_Node000006_Node000007"><a xlink:title=" ">
<path fill="none" stroke="#63b8ff" d="M900.93,-113.38C882.05,-116.24 862.83,-119.41 845.42,-122.55"/>
<polygon fill="#63b8ff" stroke="#63b8ff" points="901.44,-116.84 910.82,-111.91 900.41,-109.92 901.44,-116.84"/>
</a>
</g>
</g>
<!-- Node7&#45;&gt;Node1 -->
<g id="edge11_Node000007_Node000001" class="edge">
<title>Node7&#45;&gt;Node1</title>
<g id="a_edge11_Node000007_Node000001"><a xlink:title=" ">
<path fill="none" stroke="#63b8ff" d="M883.85,-149.53C946.69,-155.92 1028.33,-164.31 1100.75,-172 1112.29,-173.22 1124.41,-174.53 1136.4,-175.83"/>
<polygon fill="#63b8ff" stroke="#63b8ff" points="884.55,-146.08 874.24,-148.55 883.84,-153.05 884.55,-146.08"/>
</a>
</g>
</g>
<!-- Node7&#45;&gt;Node5 -->
<g id="edge9_Node000007_Node000005" class="edge">
<title>Node7&#45;&gt;Node5</title>
<g id="a_edge9_Node000007_Node000005"><a xlink:title=" ">
<path fill="none" stroke="#63b8ff" d="M692.56,-157.92C670.92,-162.74 647.85,-167.87 626.82,-172.55"/>
<polygon fill="#63b8ff" stroke="#63b8ff" points="693.24,-161.36 702.24,-155.77 691.72,-154.53 693.24,-161.36"/>
</a>
</g>
</g>
<!-- Node7&#45;&gt;Node6 -->
<g id="edge10_Node000007_Node000006" class="edge">
<title>Node7&#45;&gt;Node6</title>
<g id="a_edge10_Node000007_Node000006"><a xlink:title=" ">
<path fill="none" stroke="#63b8ff" d="M883.86,-129.5C902.44,-126.68 921.33,-123.56 938.46,-120.47"/>
<polygon fill="#63b8ff" stroke="#63b8ff" points="883.52,-126.01 874.15,-130.95 884.56,-132.94 883.52,-126.01"/>
</a>
</g>
</g>
<!-- Node8 -->
<g id="Node000008" class="node">
<title>Node8</title>
<g id="a_Node000008"><a xlink:href="classediteurpanovisu_1_1EditeurPanovisu.html#a7b2e25dc717eb52b62e23d54ec4c124a" target="_top" xlink:title=" ">
<polygon fill="white" stroke="#666666" points="644.62,-155 459.12,-155 459.12,-123 644.62,-123 644.62,-155"/>
<text xml:space="preserve" text-anchor="start" x="467.12" y="-141.5" font-family="Helvetica,sans-Serif" font-size="10.00">editeurpanovisu.EditeurPanovisu.projet</text>
<text xml:space="preserve" text-anchor="middle" x="551.88" y="-129.5" font-family="Helvetica,sans-Serif" font-size="10.00">SauveSous</text>
</a>
</g>
</g>
<!-- Node7&#45;&gt;Node8 -->
<g id="edge12_Node000007_Node000008" class="edge">
<title>Node7&#45;&gt;Node8</title>
<g id="a_edge12_Node000007_Node000008"><a xlink:title=" ">
<path fill="none" stroke="#63b8ff" d="M672.9,-139C663.54,-139 654.1,-139 644.86,-139"/>
<polygon fill="#63b8ff" stroke="#63b8ff" points="672.75,-142.5 682.75,-139 672.75,-135.5 672.75,-142.5"/>
</a>
</g>
</g>
<!-- Node8&#45;&gt;Node2 -->
<g id="edge13_Node000008_Node000002" class="edge">
<title>Node8&#45;&gt;Node2</title>
<g id="a_edge13_Node000008_Node000002"><a xlink:title=" ">
<path fill="none" stroke="#63b8ff" d="M463.88,-157.79C431.39,-164.81 395.68,-172.52 367.89,-178.52"/>
<polygon fill="#63b8ff" stroke="#63b8ff" points="464.24,-161.29 473.27,-155.76 462.76,-154.45 464.24,-161.29"/>
</a>
</g>
</g>
<!-- Node9&#45;&gt;Node2 -->
<g id="edge16_Node000009_Node000002" class="edge">
<title>Node9&#45;&gt;Node2</title>
<g id="a_edge16_Node000009_Node000002"><a xlink:title=" ">
<path fill="none" stroke="#63b8ff" d="M671.61,-46C607.27,-46.55 524.68,-53.76 456.5,-81 400.5,-103.38 348.7,-156.22 328.41,-178.65"/>
<polygon fill="#63b8ff" stroke="#63b8ff" points="671.49,-49.5 681.49,-45.98 671.48,-42.5 671.49,-49.5"/>
</a>
</g>
</g>
<!-- Node10&#45;&gt;Node2 -->
<g id="edge18_Node000010_Node000002" class="edge">
<title>Node10&#45;&gt;Node2</title>
<g id="a_edge18_Node000010_Node000002"><a xlink:title=" ">
<path fill="none" stroke="#63b8ff" d="M898.07,-231.64C787.46,-232.23 609.37,-230.07 456.5,-214 426.42,-210.84 393.02,-204.8 366.72,-199.45"/>
<polygon fill="#63b8ff" stroke="#63b8ff" points="898.07,-235.14 908.04,-231.57 898.02,-228.14 898.07,-235.14"/>
</a>
</g>
</g>
<!-- Node10&#45;&gt;Node11 -->
<g id="edge19_Node000010_Node000011" class="edge">
<title>Node10&#45;&gt;Node11</title>
<g id="a_edge19_Node000010_Node000011"><a xlink:title=" ">
<path fill="none" stroke="#63b8ff" d="M909.31,-248.61C883.31,-253.7 856.03,-259.04 833.24,-263.5"/>
<polygon fill="#63b8ff" stroke="#63b8ff" points="909.74,-252.09 918.88,-246.74 908.4,-245.22 909.74,-252.09"/>
</a>
</g>
</g>
<!-- Node11&#45;&gt;Node4 -->
<g id="edge20_Node000011_Node000004" class="edge">
<title>Node11&#45;&gt;Node4</title>
<g id="a_edge20_Node000011_Node000004"><a xlink:title=" ">
<path fill="none" stroke="#63b8ff" d="M676.6,-275.35C666.98,-275.48 657.24,-275.61 647.68,-275.73"/>
<polygon fill="#63b8ff" stroke="#63b8ff" points="676.36,-278.85 686.32,-275.22 676.27,-271.85 676.36,-278.85"/>
</a>
</g>
</g>
</g>
</svg>
