<?xml version="1.0" encoding="UTF-8" standalone="no"?>
<!DOCTYPE svg PUBLIC "-//W3C//DTD SVG 1.1//EN"
 "http://www.w3.org/Graphics/SVG/1.1/DTD/svg11.dtd">
<!-- Generated by graphviz version 13.1.2 (20250808.2320)
 -->
<!-- Title: editeurpanovisu.DocumentationDialog.DocumentItem Pages: 1 -->
<svg width="160pt" height="342pt"
 viewBox="0.00 0.00 160.00 342.00" xmlns="http://www.w3.org/2000/svg" xmlns:xlink="http://www.w3.org/1999/xlink">
<g id="graph0" class="graph" transform="scale(1 1) rotate(0) translate(4 338)">
<title>editeurpanovisu.DocumentationDialog.DocumentItem</title>
<!-- Node1 -->
<g id="Node000001" class="node">
<title>Node1</title>
<g id="a_Node000001"><a xlink:title="Item de document pour le ComboBox.">
<polygon fill="#999999" stroke="none" points="151.5,-108 0,-108 0,0 151.5,0 151.5,-108"/>
<text xml:space="preserve" text-anchor="start" x="7.12" y="-94.5" font-family="Helvetica,sans-Serif" font-size="10.00">editeurpanovisu.Documentation</text>
<text xml:space="preserve" text-anchor="start" x="28.12" y="-82.5" font-family="Helvetica,sans-Serif" font-size="10.00">Dialog.DocumentItem</text>
<text xml:space="preserve" text-anchor="start" x="74.25" y="-66.5" font-family="Helvetica,sans-Serif" font-size="10.00"> </text>
<text xml:space="preserve" text-anchor="start" x="4" y="-50.5" font-family="Helvetica,sans-Serif" font-size="10.00">+</text>
<text xml:space="preserve" text-anchor="start" x="14" y="-50.5" font-family="Helvetica,sans-Serif" font-size="10.00">DocumentItem(DocumentType</text>
<text xml:space="preserve" text-anchor="start" x="14" y="-38.5" font-family="Helvetica,sans-Serif" font-size="10.00"> type)</text>
<text xml:space="preserve" text-anchor="start" x="4" y="-22.5" font-family="Helvetica,sans-Serif" font-size="10.00">+</text>
<text xml:space="preserve" text-anchor="start" x="14" y="-22.5" font-family="Helvetica,sans-Serif" font-size="10.00">String toString()</text>
<text xml:space="preserve" text-anchor="start" x="4" y="-6.5" font-family="Helvetica,sans-Serif" font-size="10.00">+</text>
<text xml:space="preserve" text-anchor="start" x="14" y="-6.5" font-family="Helvetica,sans-Serif" font-size="10.00">DocumentType getType()</text>
<polygon fill="#666666" stroke="#666666" points="0,-78 0,-78 151.5,-78 151.5,-78 0,-78"/>
<polygon fill="#666666" stroke="#666666" points="0,-62 0,-62 151.5,-62 151.5,-62 0,-62"/>
<polygon fill="none" stroke="#666666" points="0,0 0,-108 151.5,-108 151.5,0 0,0"/>
</a>
</g>
</g>
<!-- Node2 -->
<g id="Node000002" class="node">
<title>Node2</title>
<g id="a_Node000002"><a xlink:href="enumediteurpanovisu_1_1DocumentationDialog_1_1DocumentType.html" target="_top" xlink:title="Enumération des documents disponibles.">
<polygon fill="white" stroke="none" points="148.38,-334 3.12,-334 3.12,-162 148.38,-162 148.38,-334"/>
<text xml:space="preserve" text-anchor="start" x="7.12" y="-320.5" font-family="Helvetica,sans-Serif" font-size="10.00">editeurpanovisu.Documentation</text>
<text xml:space="preserve" text-anchor="start" x="27.38" y="-308.5" font-family="Helvetica,sans-Serif" font-size="10.00">Dialog.DocumentType</text>
<text xml:space="preserve" text-anchor="start" x="10.25" y="-292.5" font-family="Helvetica,sans-Serif" font-size="10.00">+</text>
<text xml:space="preserve" text-anchor="start" x="23.38" y="-292.5" font-family="Helvetica,sans-Serif" font-size="10.00">AIDE</text>
<text xml:space="preserve" text-anchor="start" x="10.25" y="-276.5" font-family="Helvetica,sans-Serif" font-size="10.00">+</text>
<text xml:space="preserve" text-anchor="start" x="23.38" y="-276.5" font-family="Helvetica,sans-Serif" font-size="10.00">PRESENTATION</text>
<text xml:space="preserve" text-anchor="start" x="10.25" y="-260.5" font-family="Helvetica,sans-Serif" font-size="10.00">+</text>
<text xml:space="preserve" text-anchor="start" x="23.38" y="-260.5" font-family="Helvetica,sans-Serif" font-size="10.00">INSTALLATION_OLLAMA</text>
<text xml:space="preserve" text-anchor="start" x="11.75" y="-244.5" font-family="Helvetica,sans-Serif" font-size="10.00">&#45;</text>
<text xml:space="preserve" text-anchor="start" x="23.38" y="-244.5" font-family="Helvetica,sans-Serif" font-size="10.00">final String titre</text>
<text xml:space="preserve" text-anchor="start" x="11.75" y="-228.5" font-family="Helvetica,sans-Serif" font-size="10.00">&#45;</text>
<text xml:space="preserve" text-anchor="start" x="23.38" y="-228.5" font-family="Helvetica,sans-Serif" font-size="10.00">final String chemin</text>
<text xml:space="preserve" text-anchor="start" x="10.25" y="-212.5" font-family="Helvetica,sans-Serif" font-size="10.00">+</text>
<text xml:space="preserve" text-anchor="start" x="23.38" y="-212.5" font-family="Helvetica,sans-Serif" font-size="10.00">DocumentType(String</text>
<text xml:space="preserve" text-anchor="start" x="23.38" y="-200.5" font-family="Helvetica,sans-Serif" font-size="10.00"> titre, String chemin)</text>
<text xml:space="preserve" text-anchor="start" x="10.25" y="-184.5" font-family="Helvetica,sans-Serif" font-size="10.00">+</text>
<text xml:space="preserve" text-anchor="start" x="23.38" y="-184.5" font-family="Helvetica,sans-Serif" font-size="10.00">String getTitre()</text>
<text xml:space="preserve" text-anchor="start" x="10.25" y="-168.5" font-family="Helvetica,sans-Serif" font-size="10.00">+</text>
<text xml:space="preserve" text-anchor="start" x="23.38" y="-168.5" font-family="Helvetica,sans-Serif" font-size="10.00">String getChemin()</text>
<polygon fill="#666666" stroke="#666666" points="3.12,-304 3.12,-304 148.38,-304 148.38,-304 3.12,-304"/>
<polygon fill="#666666" stroke="#666666" points="3.12,-224 3.12,-224 21.38,-224 21.38,-224 3.12,-224"/>
<polygon fill="#666666" stroke="#666666" points="21.38,-224 21.38,-224 148.38,-224 148.38,-224 21.38,-224"/>
<polygon fill="none" stroke="#666666" points="3.12,-162 3.12,-334 148.38,-334 148.38,-162 3.12,-162"/>
</a>
</g>
</g>
<!-- Node2&#45;&gt;Node1 -->
<g id="edge1_Node000001_Node000002" class="edge">
<title>Node2&#45;&gt;Node1</title>
<g id="a_edge1_Node000001_Node000002"><a xlink:title=" ">
<path fill="none" stroke="#63b8ff" d="M75.75,-162.23C75.75,-148.36 75.75,-134.18 75.75,-120.87"/>
<polygon fill="none" stroke="#63b8ff" points="75.75,-120.78 71.75,-114.78 75.75,-108.78 79.75,-114.78 75.75,-120.78"/>
</a>
</g>
<text xml:space="preserve" text-anchor="start" x="78.75" y="-131.5" font-family="Helvetica,sans-Serif" font-size="10.00" fill="grey">&#45;type</text>
</g>
</g>
</svg>
