<?xml version="1.0" encoding="UTF-8" standalone="no"?>
<!DOCTYPE svg PUBLIC "-//W3C//DTD SVG 1.1//EN"
 "http://www.w3.org/Graphics/SVG/1.1/DTD/svg11.dtd">
<!-- Generated by graphviz version 13.1.2 (20250808.2320)
 -->
<!-- Title: editeurpanovisu.util.SvgIconLoader.convertSvgToPng Pages: 1 -->
<svg width="1450pt" height="306pt"
 viewBox="0.00 0.00 1450.00 306.00" xmlns="http://www.w3.org/2000/svg" xmlns:xlink="http://www.w3.org/1999/xlink">
<g id="graph0" class="graph" transform="scale(1 1) rotate(0) translate(4 302)">
<title>editeurpanovisu.util.SvgIconLoader.convertSvgToPng</title>
<!-- Node1 -->
<g id="Node000001" class="node">
<title>Node1</title>
<g id="a_Node000001"><a xlink:title="Convertit un SVG en BufferedImage PNG avec Batik (dimensions personnalisées)">
<polygon fill="#999999" stroke="#666666" points="1441.75,-182 1297.5,-182 1297.5,-150 1441.75,-150 1441.75,-182"/>
<text xml:space="preserve" text-anchor="start" x="1305.5" y="-168.5" font-family="Helvetica,sans-Serif" font-size="10.00">editeurpanovisu.util.Svg</text>
<text xml:space="preserve" text-anchor="middle" x="1369.62" y="-156.5" font-family="Helvetica,sans-Serif" font-size="10.00">IconLoader.convertSvgToPng</text>
</a>
</g>
</g>
<!-- Node2 -->
<g id="Node000002" class="node">
<title>Node2</title>
<g id="a_Node000002"><a xlink:href="classediteurpanovisu_1_1util_1_1SvgIconLoader.html#a2ae79f6c1319c7c91677f5ad6373e518" target="_top" xlink:title="Convertit un SVG en BufferedImage PNG avec Batik (version carrée)">
<polygon fill="white" stroke="#666666" points="1261.5,-207 1117.25,-207 1117.25,-175 1261.5,-175 1261.5,-207"/>
<text xml:space="preserve" text-anchor="start" x="1125.25" y="-193.5" font-family="Helvetica,sans-Serif" font-size="10.00">editeurpanovisu.util.Svg</text>
<text xml:space="preserve" text-anchor="middle" x="1189.38" y="-181.5" font-family="Helvetica,sans-Serif" font-size="10.00">IconLoader.convertSvgToPng</text>
</a>
</g>
</g>
<!-- Node1&#45;&gt;Node2 -->
<g id="edge1_Node000001_Node000002" class="edge">
<title>Node1&#45;&gt;Node2</title>
<g id="a_edge1_Node000001_Node000002"><a xlink:title=" ">
<path fill="none" stroke="#63b8ff" d="M1285.88,-177.61C1277.86,-178.73 1269.77,-179.87 1261.87,-180.97"/>
<polygon fill="#63b8ff" stroke="#63b8ff" points="1286.24,-181.09 1295.65,-176.23 1285.26,-174.16 1286.24,-181.09"/>
</a>
</g>
</g>
<!-- Node3 -->
<g id="Node000003" class="node">
<title>Node3</title>
<g id="a_Node000003"><a xlink:href="classediteurpanovisu_1_1util_1_1SvgIconLoader.html#ab0e96e5ebb4dce78ea938d9adca21ce2" target="_top" xlink:title="Charge une icône SVG et la convertit en ImageView avec dimensions personnalisées.">
<polygon fill="white" stroke="#666666" points="1249.88,-157 1128.88,-157 1128.88,-125 1249.88,-125 1249.88,-157"/>
<text xml:space="preserve" text-anchor="start" x="1136.88" y="-143.5" font-family="Helvetica,sans-Serif" font-size="10.00">editeurpanovisu.util.Svg</text>
<text xml:space="preserve" text-anchor="middle" x="1189.38" y="-131.5" font-family="Helvetica,sans-Serif" font-size="10.00">IconLoader.loadSvgIcon</text>
</a>
</g>
</g>
<!-- Node1&#45;&gt;Node3 -->
<g id="edge2_Node000001_Node000003" class="edge">
<title>Node1&#45;&gt;Node3</title>
<g id="a_edge2_Node000001_Node000003"><a xlink:title=" ">
<path fill="none" stroke="#63b8ff" d="M1286.09,-154.42C1273.96,-152.72 1261.68,-151 1250.13,-149.38"/>
<polygon fill="#63b8ff" stroke="#63b8ff" points="1285.26,-157.84 1295.65,-155.77 1286.24,-150.91 1285.26,-157.84"/>
</a>
</g>
</g>
<!-- Node4 -->
<g id="Node000004" class="node">
<title>Node4</title>
<g id="a_Node000004"><a xlink:href="classediteurpanovisu_1_1EditeurPanovisu.html#a786c8cb886a5b0d7bef0bc311876a62e" target="_top" xlink:title="Charge une icône SVG avec la taille spécifiée.">
<polygon fill="white" stroke="#666666" points="1081.25,-282 901.75,-282 901.75,-250 1081.25,-250 1081.25,-282"/>
<text xml:space="preserve" text-anchor="start" x="909.75" y="-268.5" font-family="Helvetica,sans-Serif" font-size="10.00">editeurpanovisu.EditeurPanovisu.load</text>
<text xml:space="preserve" text-anchor="middle" x="991.5" y="-256.5" font-family="Helvetica,sans-Serif" font-size="10.00">SvgIcon</text>
</a>
</g>
</g>
<!-- Node3&#45;&gt;Node4 -->
<g id="edge3_Node000003_Node000004" class="edge">
<title>Node3&#45;&gt;Node4</title>
<g id="a_edge3_Node000003_Node000004"><a xlink:title=" ">
<path fill="none" stroke="#63b8ff" d="M1119.68,-163.94C1118.85,-164.61 1118.04,-165.29 1117.25,-166 1089.71,-190.67 1109.56,-217.21 1081.25,-241 1077.33,-244.3 1073,-247.16 1068.43,-249.64"/>
<polygon fill="#63b8ff" stroke="#63b8ff" points="1121.63,-166.84 1127.94,-158.34 1117.7,-161.05 1121.63,-166.84"/>
</a>
</g>
</g>
<!-- Node10 -->
<g id="Node000010" class="node">
<title>Node10</title>
<g id="a_Node000010"><a xlink:href="classediteurpanovisu_1_1EditeurPanovisu.html#a10e4a731076e3375369e0572372ae29b" target="_top" xlink:title="Charge une icône SVG avec couleur personnalisée.">
<polygon fill="white" stroke="#666666" points="1081.25,-232 901.75,-232 901.75,-200 1081.25,-200 1081.25,-232"/>
<text xml:space="preserve" text-anchor="start" x="909.75" y="-218.5" font-family="Helvetica,sans-Serif" font-size="10.00">editeurpanovisu.EditeurPanovisu.load</text>
<text xml:space="preserve" text-anchor="middle" x="991.5" y="-206.5" font-family="Helvetica,sans-Serif" font-size="10.00">SvgIcon</text>
</a>
</g>
</g>
<!-- Node3&#45;&gt;Node10 -->
<g id="edge10_Node000003_Node000010" class="edge">
<title>Node3&#45;&gt;Node10</title>
<g id="a_edge10_Node000003_Node000010"><a xlink:title=" ">
<path fill="none" stroke="#63b8ff" d="M1126.04,-161.8C1123.04,-163.15 1120.09,-164.55 1117.25,-166 1099.9,-174.87 1098.87,-182.69 1081.25,-191 1074.45,-194.21 1067.15,-197.08 1059.77,-199.64"/>
<polygon fill="#63b8ff" stroke="#63b8ff" points="1127.16,-165.12 1135.01,-158.01 1124.44,-158.67 1127.16,-165.12"/>
</a>
</g>
</g>
<!-- Node11 -->
<g id="Node000011" class="node">
<title>Node11</title>
<g id="a_Node000011"><a xlink:href="classediteurpanovisu_1_1EditeurPanovisu.html#a1e06faaf545b6d7ac786a250dc638406" target="_top" xlink:title="Charge une icône SVG avec dimensions rectangulaires.">
<polygon fill="white" stroke="#666666" points="1081.25,-182 901.75,-182 901.75,-150 1081.25,-150 1081.25,-182"/>
<text xml:space="preserve" text-anchor="start" x="909.75" y="-168.5" font-family="Helvetica,sans-Serif" font-size="10.00">editeurpanovisu.EditeurPanovisu.load</text>
<text xml:space="preserve" text-anchor="middle" x="991.5" y="-156.5" font-family="Helvetica,sans-Serif" font-size="10.00">SvgIcon</text>
</a>
</g>
</g>
<!-- Node3&#45;&gt;Node11 -->
<g id="edge11_Node000003_Node000011" class="edge">
<title>Node3&#45;&gt;Node11</title>
<g id="a_edge11_Node000003_Node000011"><a xlink:title=" ">
<path fill="none" stroke="#63b8ff" d="M1117.17,-150.09C1105.59,-151.57 1093.48,-153.11 1081.54,-154.64"/>
<polygon fill="#63b8ff" stroke="#63b8ff" points="1117.56,-153.57 1127.04,-148.83 1116.68,-146.62 1117.56,-153.57"/>
</a>
</g>
</g>
<!-- Node12 -->
<g id="Node000012" class="node">
<title>Node12</title>
<g id="a_Node000012"><a xlink:href="classediteurpanovisu_1_1util_1_1SvgIconLoader.html#a613449af7000fc565e48cb0c25aafcc6" target="_top" xlink:title="Charge une icône SVG avec la couleur par défaut.">
<polygon fill="white" stroke="#666666" points="1052,-132 931,-132 931,-100 1052,-100 1052,-132"/>
<text xml:space="preserve" text-anchor="start" x="939" y="-118.5" font-family="Helvetica,sans-Serif" font-size="10.00">editeurpanovisu.util.Svg</text>
<text xml:space="preserve" text-anchor="middle" x="991.5" y="-106.5" font-family="Helvetica,sans-Serif" font-size="10.00">IconLoader.loadSvgIcon</text>
</a>
</g>
</g>
<!-- Node3&#45;&gt;Node12 -->
<g id="edge12_Node000003_Node000012" class="edge">
<title>Node3&#45;&gt;Node12</title>
<g id="a_edge12_Node000003_Node000012"><a xlink:title=" ">
<path fill="none" stroke="#63b8ff" d="M1117.26,-131.92C1095.95,-129.2 1072.81,-126.25 1052.3,-123.63"/>
<polygon fill="#63b8ff" stroke="#63b8ff" points="1116.68,-135.38 1127.04,-133.17 1117.56,-128.43 1116.68,-135.38"/>
</a>
</g>
</g>
<!-- Node13 -->
<g id="Node000013" class="node">
<title>Node13</title>
<g id="a_Node000013"><a xlink:href="classediteurpanovisu_1_1util_1_1SvgIconLoader.html#a25b0a4ec1f9c84559d94725278288b57" target="_top" xlink:title="Charge une icône SVG et la convertit en ImageView (version carrée)">
<polygon fill="white" stroke="#666666" points="1052,-82 931,-82 931,-50 1052,-50 1052,-82"/>
<text xml:space="preserve" text-anchor="start" x="939" y="-68.5" font-family="Helvetica,sans-Serif" font-size="10.00">editeurpanovisu.util.Svg</text>
<text xml:space="preserve" text-anchor="middle" x="991.5" y="-56.5" font-family="Helvetica,sans-Serif" font-size="10.00">IconLoader.loadSvgIcon</text>
</a>
</g>
</g>
<!-- Node3&#45;&gt;Node13 -->
<g id="edge13_Node000003_Node000013" class="edge">
<title>Node3&#45;&gt;Node13</title>
<g id="a_edge13_Node000003_Node000013"><a xlink:title=" ">
<path fill="none" stroke="#63b8ff" d="M1146.53,-119.54C1127.01,-110.04 1103.27,-99.18 1081.25,-91 1071.95,-87.54 1061.94,-84.3 1052.13,-81.36"/>
<polygon fill="#63b8ff" stroke="#63b8ff" points="1144.74,-122.56 1155.25,-123.85 1147.83,-116.28 1144.74,-122.56"/>
</a>
</g>
</g>
<!-- Node14 -->
<g id="Node000014" class="node">
<title>Node14</title>
<g id="a_Node000014"><a xlink:href="classediteurpanovisu_1_1util_1_1SvgIconLoader.html#ad0c3d77e889a0209dc4319b05b2e0e72" target="_top" xlink:title="Crée un ImageView avec couleur adaptée au thème.">
<polygon fill="white" stroke="#666666" points="1061,-32 922,-32 922,0 1061,0 1061,-32"/>
<text xml:space="preserve" text-anchor="start" x="930" y="-18.5" font-family="Helvetica,sans-Serif" font-size="10.00">editeurpanovisu.util.Svg</text>
<text xml:space="preserve" text-anchor="middle" x="991.5" y="-6.5" font-family="Helvetica,sans-Serif" font-size="10.00">IconLoader.loadThemedIcon</text>
</a>
</g>
</g>
<!-- Node3&#45;&gt;Node14 -->
<g id="edge14_Node000003_Node000014" class="edge">
<title>Node3&#45;&gt;Node14</title>
<g id="a_edge14_Node000003_Node000014"><a xlink:title=" ">
<path fill="none" stroke="#63b8ff" d="M1168.04,-116.17C1148.16,-93.46 1115.89,-60.5 1081.25,-41 1074.97,-37.47 1068.16,-34.4 1061.19,-31.75"/>
<polygon fill="#63b8ff" stroke="#63b8ff" points="1165.13,-118.15 1174.29,-123.47 1170.44,-113.6 1165.13,-118.15"/>
</a>
</g>
</g>
<!-- Node5 -->
<g id="Node000005" class="node">
<title>Node5</title>
<g id="a_Node000005"><a xlink:href="classediteurpanovisu_1_1EditeurPanovisu.html#ac912b80c1f2ac97def60ff005c5c480b" target="_top" xlink:title=" ">
<polygon fill="white" stroke="#666666" points="627.75,-298 423.5,-298 423.5,-278 627.75,-278 627.75,-298"/>
<text xml:space="preserve" text-anchor="middle" x="525.62" y="-284.5" font-family="Helvetica,sans-Serif" font-size="10.00">editeurpanovisu.EditeurPanovisu.creeMenu</text>
</a>
</g>
</g>
<!-- Node4&#45;&gt;Node5 -->
<g id="edge4_Node000004_Node000005" class="edge">
<title>Node4&#45;&gt;Node5</title>
<g id="a_edge4_Node000004_Node000005"><a xlink:title=" ">
<path fill="none" stroke="#63b8ff" d="M890.12,-270.76C812.6,-274.44 705.78,-279.5 628.01,-283.19"/>
<polygon fill="#63b8ff" stroke="#63b8ff" points="890,-274.27 899.82,-270.3 889.67,-267.28 890,-274.27"/>
</a>
</g>
</g>
<!-- Node7 -->
<g id="Node000007" class="node">
<title>Node7</title>
<g id="a_Node000007"><a xlink:href="classediteurpanovisu_1_1EditeurPanovisu.html#a43450ddf111546a6b22ad25c6ee0121e" target="_top" xlink:title="Recharge toutes les icônes SVG de la barre d&#39;outils Appelé lors du changement de thème pour mettre à ...">
<polygon fill="white" stroke="#666666" points="865.75,-260 663.75,-260 663.75,-228 865.75,-228 865.75,-260"/>
<text xml:space="preserve" text-anchor="start" x="671.75" y="-246.5" font-family="Helvetica,sans-Serif" font-size="10.00">editeurpanovisu.EditeurPanovisu.recharger</text>
<text xml:space="preserve" text-anchor="middle" x="764.75" y="-234.5" font-family="Helvetica,sans-Serif" font-size="10.00">Icones</text>
</a>
</g>
</g>
<!-- Node4&#45;&gt;Node7 -->
<g id="edge6_Node000004_Node000007" class="edge">
<title>Node4&#45;&gt;Node7</title>
<g id="a_edge6_Node000004_Node000007"><a xlink:title=" ">
<path fill="none" stroke="#63b8ff" d="M890.07,-256.17C882.04,-255.38 873.93,-254.59 865.91,-253.8"/>
<polygon fill="#63b8ff" stroke="#63b8ff" points="889.55,-259.64 899.84,-257.13 890.23,-252.67 889.55,-259.64"/>
</a>
</g>
</g>
<!-- Node6 -->
<g id="Node000006" class="node">
<title>Node6</title>
<g id="a_Node000006"><a xlink:href="classediteurpanovisu_1_1EditeurPanovisu.html#a86c393eee88f54c694db994ddd85b90d" target="_top" xlink:title=" ">
<polygon fill="white" stroke="#666666" points="180.25,-282 0,-282 0,-250 180.25,-250 180.25,-282"/>
<text xml:space="preserve" text-anchor="start" x="8" y="-268.5" font-family="Helvetica,sans-Serif" font-size="10.00">editeurpanovisu.EditeurPanovisu.cree</text>
<text xml:space="preserve" text-anchor="middle" x="90.12" y="-256.5" font-family="Helvetica,sans-Serif" font-size="10.00">Environnement</text>
</a>
</g>
</g>
<!-- Node5&#45;&gt;Node6 -->
<g id="edge5_Node000005_Node000006" class="edge">
<title>Node5&#45;&gt;Node6</title>
<g id="a_edge5_Node000005_Node000006"><a xlink:title=" ">
<path fill="none" stroke="#63b8ff" d="M411.87,-282.28C339.76,-278.62 247.52,-273.94 180.48,-270.53"/>
<polygon fill="#63b8ff" stroke="#63b8ff" points="411.59,-285.77 421.75,-282.78 411.94,-278.78 411.59,-285.77"/>
</a>
</g>
</g>
<!-- Node8 -->
<g id="Node000008" class="node">
<title>Node8</title>
<g id="a_Node000008"><a xlink:href="classediteurpanovisu_1_1EditeurPanovisu.html#ac7f9fc08f7517cc58ad3ee2ffc463c41" target="_top" xlink:title=" ">
<polygon fill="white" stroke="#666666" points="613.12,-260 438.12,-260 438.12,-228 613.12,-228 613.12,-260"/>
<text xml:space="preserve" text-anchor="start" x="446.12" y="-246.5" font-family="Helvetica,sans-Serif" font-size="10.00">editeurpanovisu.EditeurPanovisu.set</text>
<text xml:space="preserve" text-anchor="middle" x="525.62" y="-234.5" font-family="Helvetica,sans-Serif" font-size="10.00">StrStyleCSS</text>
</a>
</g>
</g>
<!-- Node7&#45;&gt;Node8 -->
<g id="edge7_Node000007_Node000008" class="edge">
<title>Node7&#45;&gt;Node8</title>
<g id="a_edge7_Node000007_Node000008"><a xlink:title=" ">
<path fill="none" stroke="#63b8ff" d="M652.13,-244C639.11,-244 625.97,-244 613.35,-244"/>
<polygon fill="#63b8ff" stroke="#63b8ff" points="652.02,-247.5 662.02,-244 652.02,-240.5 652.02,-247.5"/>
</a>
</g>
</g>
<!-- Node9 -->
<g id="Node000009" class="node">
<title>Node9</title>
<g id="a_Node000009"><a xlink:href="classediteurpanovisu_1_1EditeurPanovisu.html#adf3136c7d8546e073ebf626494bd9b58" target="_top" xlink:title=" ">
<polygon fill="white" stroke="#666666" points="387.5,-260 216.25,-260 216.25,-228 387.5,-228 387.5,-260"/>
<text xml:space="preserve" text-anchor="start" x="224.25" y="-246.5" font-family="Helvetica,sans-Serif" font-size="10.00">editeurpanovisu.EditeurPanovisu.lis</text>
<text xml:space="preserve" text-anchor="middle" x="301.88" y="-234.5" font-family="Helvetica,sans-Serif" font-size="10.00">FichierConfig</text>
</a>
</g>
</g>
<!-- Node8&#45;&gt;Node9 -->
<g id="edge8_Node000008_Node000009" class="edge">
<title>Node8&#45;&gt;Node9</title>
<g id="a_edge8_Node000008_Node000009"><a xlink:title=" ">
<path fill="none" stroke="#63b8ff" d="M426.61,-244C413.63,-244 400.41,-244 387.68,-244"/>
<polygon fill="#63b8ff" stroke="#63b8ff" points="426.42,-247.5 436.42,-244 426.42,-240.5 426.42,-247.5"/>
</a>
</g>
</g>
<!-- Node9&#45;&gt;Node6 -->
<g id="edge9_Node000009_Node000006" class="edge">
<title>Node9&#45;&gt;Node6</title>
<g id="a_edge9_Node000009_Node000006"><a xlink:title=" ">
<path fill="none" stroke="#63b8ff" d="M204.65,-254.09C196.67,-254.93 188.63,-255.77 180.7,-256.6"/>
<polygon fill="#63b8ff" stroke="#63b8ff" points="204.78,-257.6 214.36,-253.07 204.05,-250.64 204.78,-257.6"/>
</a>
</g>
</g>
</g>
</svg>
