<?xml version="1.0" encoding="UTF-8" standalone="no"?>
<!DOCTYPE svg PUBLIC "-//W3C//DTD SVG 1.1//EN"
 "http://www.w3.org/Graphics/SVG/1.1/DTD/svg11.dtd">
<!-- Generated by graphviz version 13.1.2 (20250808.2320)
 -->
<!-- Title: editeurpanovisu.EditeurPanovisu.lisPreferences Pages: 1 -->
<!--zoomable 490 -->

<svg id="main" version="1.1" xmlns="http://www.w3.org/2000/svg" xmlns:xlink="http://www.w3.org/1999/xlink" xml:space="preserve" onload="init(evt)">

<style type="text/css"><![CDATA[
.node, .edge {opacity: 0.7;}
.node.selected, .edge.selected {opacity: 1;}
.edge:hover path { stroke: red; }
.edge:hover polygon { stroke: red; fill: red; }
]]></style>

<defs>
  <circle id="rim" cx="0" cy="0" r="7"/>
  <circle id="rim2" cx="0" cy="0" r="3.5"/>
  <g id="zoomPlus">
    <use xlink:href="#rim" fill="#404040"><set attributeName="fill" to="#808080" begin="zoomplus.mouseover" end="zoomplus.mouseout"/></use>
    <path d="M-4,0h8M0,-4v8" fill="none" stroke="white" stroke-width="1.5" pointer-events="none"/>
  </g>
  <g id="zoomMin">
    <use xlink:href="#rim" fill="#404040"><set attributeName="fill" to="#808080" begin="zoomminus.mouseover" end="zoomminus.mouseout"/></use>
    <path d="M-4,0h8" fill="none" stroke="white" stroke-width="1.5" pointer-events="none"/>
  </g>
  <g id="arrowUp" transform="translate(30 24)">
    <use xlink:href="#rim"/>
    <path pointer-events="none" fill="none" stroke="white" stroke-width="1.5" d="M0,-3.0v7 M-2.5,-0.5L0,-3.0L2.5,-0.5"/>
  </g>
  <g id="arrowRight" transform="rotate(90) translate(36 -43)">
    <use xlink:href="#rim"/>
    <path pointer-events="none" fill="none" stroke="white" stroke-width="1.5" d="M0,-3.0v7 M-2.5,-0.5L0,-3.0L2.5,-0.5"/>
  </g>
  <g id="arrowDown" transform="rotate(180) translate(-30 -48)">
    <use xlink:href="#rim"/>
    <path pointer-events="none" fill="none" stroke="white" stroke-width="1.5" d="M0,-3.0v7 M-2.5,-0.5L0,-3.0L2.5,-0.5"/>
  </g>
  <g id="arrowLeft" transform="rotate(270) translate(-36 17)">
    <use xlink:href="#rim"/>
    <path pointer-events="none" fill="none" stroke="white" stroke-width="1.5" d="M0,-3.0v7 M-2.5,-0.5L0,-3.0L2.5,-0.5"/>
  </g>
  <g id="resetDef">
    <use xlink:href="#rim2" fill="#404040"><set attributeName="fill" to="#808080" begin="reset.mouseover" end="reset.mouseout"/></use>
  </g>
</defs>
<script type="application/ecmascript">
var viewWidth = 396;
var viewHeight = 490;
var sectionId = 'dynsection-147';
</script>
<script type="application/ecmascript" xlink:href="svg.min.js"/>
<svg id="graph" class="graph">
<g id="viewport">
<title>editeurpanovisu.EditeurPanovisu.lisPreferences</title>
<!-- Node1 -->
<g id="Node000001" class="node">
<title>Node1</title>
<g id="a_Node000001"><a xlink:title=" ">
<polygon fill="#999999" stroke="#666666" points="171.25,-257 0,-257 0,-225 171.25,-225 171.25,-257"/>
<text xml:space="preserve" text-anchor="start" x="8" y="-243.5" font-family="Helvetica,sans-Serif" font-size="10.00">editeurpanovisu.EditeurPanovisu.lis</text>
<text xml:space="preserve" text-anchor="middle" x="85.62" y="-231.5" font-family="Helvetica,sans-Serif" font-size="10.00">Preferences</text>
</a>
</g>
</g>
<!-- Node2 -->
<g id="Node000002" class="node">
<title>Node2</title>
<g id="a_Node000002"><a xlink:href="classediteurpanovisu_1_1EditeurPanovisu.html#a27f051070f6dccb16233912ebcfa92c9" target="_top" xlink:title=" ">
<polygon fill="white" stroke="#666666" points="384.88,-482 209.88,-482 209.88,-450 384.88,-450 384.88,-482"/>
<text xml:space="preserve" text-anchor="start" x="217.88" y="-468.5" font-family="Helvetica,sans-Serif" font-size="10.00">editeurpanovisu.EditeurPanovisu.set</text>
<text xml:space="preserve" text-anchor="middle" x="297.38" y="-456.5" font-family="Helvetica,sans-Serif" font-size="10.00">AfficheLoupe</text>
</a>
</g>
</g>
<!-- Node1&#45;&gt;Node2 -->
<g id="edge1_Node000001_Node000002" class="edge">
<title>Node1&#45;&gt;Node2</title>
<g id="a_edge1_Node000001_Node000002"><a xlink:title=" ">
<path fill="none" stroke="#63b8ff" d="M91.76,-257.32C104.65,-295.54 142.08,-391.38 207.25,-441 208.61,-442.03 210.01,-443.03 211.44,-443.98"/>
<polygon fill="#63b8ff" stroke="#63b8ff" points="209.63,-446.97 220.04,-448.92 213.12,-440.9 209.63,-446.97"/>
</a>
</g>
</g>
<!-- Node3 -->
<g id="Node000003" class="node">
<title>Node3</title>
<g id="a_Node000003"><a xlink:href="classediteurpanovisu_1_1EditeurPanovisu.html#a56a0244b401523c2ec605c35dd4949eb" target="_top" xlink:title=" ">
<polygon fill="white" stroke="#666666" points="387.5,-432 207.25,-432 207.25,-400 387.5,-400 387.5,-432"/>
<text xml:space="preserve" text-anchor="start" x="215.25" y="-418.5" font-family="Helvetica,sans-Serif" font-size="10.00">editeurpanovisu.EditeurPanovisu.setb</text>
<text xml:space="preserve" text-anchor="middle" x="297.38" y="-406.5" font-family="Helvetica,sans-Serif" font-size="10.00">NetteteTransf</text>
</a>
</g>
</g>
<!-- Node1&#45;&gt;Node3 -->
<g id="edge2_Node000001_Node000003" class="edge">
<title>Node1&#45;&gt;Node3</title>
<g id="a_edge2_Node000001_Node000003"><a xlink:title=" ">
<path fill="none" stroke="#63b8ff" d="M95.17,-257.33C112.2,-288.25 153.43,-355.47 207.25,-391 209.11,-392.23 211.03,-393.4 213,-394.51"/>
<polygon fill="#63b8ff" stroke="#63b8ff" points="211.33,-397.59 221.84,-398.93 214.46,-391.33 211.33,-397.59"/>
</a>
</g>
</g>
<!-- Node4 -->
<g id="Node000004" class="node">
<title>Node4</title>
<g id="a_Node000004"><a xlink:href="classediteurpanovisu_1_1EditeurPanovisu.html#aa37ba11360b6ffd9035ec82cf555cf66" target="_top" xlink:title=" ">
<polygon fill="white" stroke="#666666" points="384.88,-382 209.88,-382 209.88,-350 384.88,-350 384.88,-382"/>
<text xml:space="preserve" text-anchor="start" x="217.88" y="-368.5" font-family="Helvetica,sans-Serif" font-size="10.00">editeurpanovisu.EditeurPanovisu.set</text>
<text xml:space="preserve" text-anchor="middle" x="297.38" y="-356.5" font-family="Helvetica,sans-Serif" font-size="10.00">HauteurE2C</text>
</a>
</g>
</g>
<!-- Node1&#45;&gt;Node4 -->
<g id="edge3_Node000001_Node000004" class="edge">
<title>Node1&#45;&gt;Node4</title>
<g id="a_edge3_Node000001_Node000004"><a xlink:title=" ">
<path fill="none" stroke="#63b8ff" d="M101.81,-257.31C123.27,-279.4 164.61,-318.65 207.25,-341 210.12,-342.5 213.09,-343.93 216.13,-345.27"/>
<polygon fill="#63b8ff" stroke="#63b8ff" points="214.67,-348.46 225.26,-348.97 217.31,-341.97 214.67,-348.46"/>
</a>
</g>
</g>
<!-- Node5 -->
<g id="Node000005" class="node">
<title>Node5</title>
<g id="a_Node000005"><a xlink:href="classediteurpanovisu_1_1EditeurPanovisu.html#aaccf51b566f35f1110eca1172de89b7c" target="_top" xlink:title=" ">
<polygon fill="white" stroke="#666666" points="386,-332 208.75,-332 208.75,-300 386,-300 386,-332"/>
<text xml:space="preserve" text-anchor="start" x="216.75" y="-318.5" font-family="Helvetica,sans-Serif" font-size="10.00">editeurpanovisu.EditeurPanovisu.seti</text>
<text xml:space="preserve" text-anchor="middle" x="297.38" y="-306.5" font-family="Helvetica,sans-Serif" font-size="10.00">TailleLoupe</text>
</a>
</g>
</g>
<!-- Node1&#45;&gt;Node5 -->
<g id="edge4_Node000001_Node000005" class="edge">
<title>Node1&#45;&gt;Node5</title>
<g id="a_edge4_Node000001_Node000005"><a xlink:title=" ">
<path fill="none" stroke="#63b8ff" d="M123.14,-257.47C146.84,-267.83 178.54,-281.06 207.25,-291 212.52,-292.83 218.01,-294.62 223.55,-296.35"/>
<polygon fill="#63b8ff" stroke="#63b8ff" points="222.2,-299.59 232.78,-299.16 224.23,-292.9 222.2,-299.59"/>
</a>
</g>
</g>
<!-- Node6 -->
<g id="Node000006" class="node">
<title>Node6</title>
<g id="a_Node000006"><a xlink:href="classediteurpanovisu_1_1EditeurPanovisu.html#a2a95c8dfafe0508b512c8117ef122c4e" target="_top" xlink:title=" ">
<polygon fill="white" stroke="#666666" points="384.88,-282 209.88,-282 209.88,-250 384.88,-250 384.88,-282"/>
<text xml:space="preserve" text-anchor="start" x="217.88" y="-268.5" font-family="Helvetica,sans-Serif" font-size="10.00">editeurpanovisu.EditeurPanovisu.set</text>
<text xml:space="preserve" text-anchor="middle" x="297.38" y="-256.5" font-family="Helvetica,sans-Serif" font-size="10.00">LargeurE2C</text>
</a>
</g>
</g>
<!-- Node1&#45;&gt;Node6 -->
<g id="edge5_Node000001_Node000006" class="edge">
<title>Node1&#45;&gt;Node6</title>
<g id="a_edge5_Node000001_Node000006"><a xlink:title=" ">
<path fill="none" stroke="#63b8ff" d="M171.64,-251.13C180.42,-252.18 189.4,-253.25 198.31,-254.31"/>
<polygon fill="#63b8ff" stroke="#63b8ff" points="197.69,-257.76 208.03,-255.47 198.52,-250.81 197.69,-257.76"/>
</a>
</g>
</g>
<!-- Node7 -->
<g id="Node000007" class="node">
<title>Node7</title>
<g id="a_Node000007"><a xlink:href="classediteurpanovisu_1_1EditeurPanovisu.html#a96fc40dddec6f3e9df08efca95478045" target="_top" xlink:title=" ">
<polygon fill="white" stroke="#666666" points="384.88,-232 209.88,-232 209.88,-200 384.88,-200 384.88,-232"/>
<text xml:space="preserve" text-anchor="start" x="217.88" y="-218.5" font-family="Helvetica,sans-Serif" font-size="10.00">editeurpanovisu.EditeurPanovisu.set</text>
<text xml:space="preserve" text-anchor="middle" x="297.38" y="-206.5" font-family="Helvetica,sans-Serif" font-size="10.00">NiveauNetteteTransf</text>
</a>
</g>
</g>
<!-- Node1&#45;&gt;Node7 -->
<g id="edge6_Node000001_Node000007" class="edge">
<title>Node1&#45;&gt;Node7</title>
<g id="a_edge6_Node000001_Node000007"><a xlink:title=" ">
<path fill="none" stroke="#63b8ff" d="M171.64,-230.87C180.42,-229.82 189.4,-228.75 198.31,-227.69"/>
<polygon fill="#63b8ff" stroke="#63b8ff" points="198.52,-231.19 208.03,-226.53 197.69,-224.24 198.52,-231.19"/>
</a>
</g>
</g>
<!-- Node8 -->
<g id="Node000008" class="node">
<title>Node8</title>
<g id="a_Node000008"><a xlink:href="classediteurpanovisu_1_1OllamaService.html#a7b4f9dca935ce0fdf0a99514c607d836" target="_top" xlink:title="Définit le modèle Ollama à utiliser.">
<polygon fill="white" stroke="#666666" points="381.12,-182 213.62,-182 213.62,-150 381.12,-150 381.12,-182"/>
<text xml:space="preserve" text-anchor="start" x="221.62" y="-168.5" font-family="Helvetica,sans-Serif" font-size="10.00">editeurpanovisu.OllamaService.set</text>
<text xml:space="preserve" text-anchor="middle" x="297.38" y="-156.5" font-family="Helvetica,sans-Serif" font-size="10.00">OllamaModel</text>
</a>
</g>
</g>
<!-- Node1&#45;&gt;Node8 -->
<g id="edge7_Node000001_Node000008" class="edge">
<title>Node1&#45;&gt;Node8</title>
<g id="a_edge7_Node000001_Node000008"><a xlink:title=" ">
<path fill="none" stroke="#63b8ff" d="M123.14,-224.53C146.84,-214.17 178.54,-200.94 207.25,-191 212.52,-189.17 218.01,-187.38 223.55,-185.65"/>
<polygon fill="#63b8ff" stroke="#63b8ff" points="224.23,-189.1 232.78,-182.84 222.2,-182.41 224.23,-189.1"/>
</a>
</g>
</g>
<!-- Node9 -->
<g id="Node000009" class="node">
<title>Node9</title>
<g id="a_Node000009"><a xlink:href="classediteurpanovisu_1_1OllamaService.html#a37eadc2bc14aa04f280436014e42ca81" target="_top" xlink:title="Définit le modèle OpenRouter à utiliser.">
<polygon fill="white" stroke="#666666" points="381.12,-132 213.62,-132 213.62,-100 381.12,-100 381.12,-132"/>
<text xml:space="preserve" text-anchor="start" x="221.62" y="-118.5" font-family="Helvetica,sans-Serif" font-size="10.00">editeurpanovisu.OllamaService.set</text>
<text xml:space="preserve" text-anchor="middle" x="297.38" y="-106.5" font-family="Helvetica,sans-Serif" font-size="10.00">OpenRouterModel</text>
</a>
</g>
</g>
<!-- Node1&#45;&gt;Node9 -->
<g id="edge8_Node000001_Node000009" class="edge">
<title>Node1&#45;&gt;Node9</title>
<g id="a_edge8_Node000001_Node000009"><a xlink:title=" ">
<path fill="none" stroke="#63b8ff" d="M101.81,-224.69C123.27,-202.6 164.61,-163.35 207.25,-141 210.12,-139.5 213.09,-138.07 216.13,-136.73"/>
<polygon fill="#63b8ff" stroke="#63b8ff" points="217.31,-140.03 225.26,-133.03 214.67,-133.54 217.31,-140.03"/>
</a>
</g>
</g>
<!-- Node10 -->
<g id="Node000010" class="node">
<title>Node10</title>
<g id="a_Node000010"><a xlink:href="classediteurpanovisu_1_1EditeurPanovisu.html#a0153d65c4659a167f3b8d8c847a0a7a6" target="_top" xlink:title=" ">
<polygon fill="white" stroke="#666666" points="384.88,-82 209.88,-82 209.88,-50 384.88,-50 384.88,-82"/>
<text xml:space="preserve" text-anchor="start" x="217.88" y="-68.5" font-family="Helvetica,sans-Serif" font-size="10.00">editeurpanovisu.EditeurPanovisu.set</text>
<text xml:space="preserve" text-anchor="middle" x="297.38" y="-56.5" font-family="Helvetica,sans-Serif" font-size="10.00">StrDernierRepertoireVisite</text>
</a>
</g>
</g>
<!-- Node1&#45;&gt;Node10 -->
<g id="edge9_Node000001_Node000010" class="edge">
<title>Node1&#45;&gt;Node10</title>
<g id="a_edge9_Node000001_Node000010"><a xlink:title=" ">
<path fill="none" stroke="#63b8ff" d="M95.17,-224.67C112.2,-193.75 153.43,-126.53 207.25,-91 209.11,-89.77 211.03,-88.6 213,-87.49"/>
<polygon fill="#63b8ff" stroke="#63b8ff" points="214.46,-90.67 221.84,-83.07 211.33,-84.41 214.46,-90.67"/>
</a>
</g>
</g>
<!-- Node11 -->
<g id="Node000011" class="node">
<title>Node11</title>
<g id="a_Node000011"><a xlink:href="classediteurpanovisu_1_1EditeurPanovisu.html#a54bb4a3d5ddcc81d0a59f84bda4830cf" target="_top" xlink:title=" ">
<polygon fill="white" stroke="#666666" points="384.88,-32 209.88,-32 209.88,0 384.88,0 384.88,-32"/>
<text xml:space="preserve" text-anchor="start" x="217.88" y="-18.5" font-family="Helvetica,sans-Serif" font-size="10.00">editeurpanovisu.EditeurPanovisu.set</text>
<text xml:space="preserve" text-anchor="middle" x="297.38" y="-6.5" font-family="Helvetica,sans-Serif" font-size="10.00">StrTypeFichierTransf</text>
</a>
</g>
</g>
<!-- Node1&#45;&gt;Node11 -->
<g id="edge10_Node000001_Node000011" class="edge">
<title>Node1&#45;&gt;Node11</title>
<g id="a_edge10_Node000001_Node000011"><a xlink:title=" ">
<path fill="none" stroke="#63b8ff" d="M91.76,-224.68C104.65,-186.46 142.08,-90.62 207.25,-41 208.61,-39.97 210.01,-38.97 211.44,-38.02"/>
<polygon fill="#63b8ff" stroke="#63b8ff" points="213.12,-41.1 220.04,-33.08 209.63,-35.03 213.12,-41.1"/>
</a>
</g>
</g>
</g>
</svg>

<g id="navigator" transform="translate(0 0)" fill="#404254">
  <rect fill="#f2f5e9" fill-opacity="0.5" stroke="#606060" stroke-width=".5" x="0" y="0" width="60" height="60"/>
  <use id="zoomplus" xlink:href="#zoomPlus" x="17" y="9" onmousedown="handleZoom(evt,'in')"/>
  <use id="zoomminus" xlink:href="#zoomMin" x="42" y="9" onmousedown="handleZoom(evt,'out')"/>
  <use id="reset" xlink:href="#resetDef" x="30" y="36" onmousedown="handleReset()"/>
   <use id="arrowup" xlink:href="#arrowUp" x="0" y="0" onmousedown="handlePan(0,-1)"/>
  <use id="arrowright" xlink:href="#arrowRight" x="0" y="0" onmousedown="handlePan(1,0)"/>
  <use id="arrowdown" xlink:href="#arrowDown" x="0" y="0" onmousedown="handlePan(0,1)"/>
  <use id="arrowleft" xlink:href="#arrowLeft" x="0" y="0" onmousedown="handlePan(-1,0)"/>
</g>
<svg viewBox="0 0 15 15" width="100%" height="30px" preserveAspectRatio="xMaxYMin meet">
 <g id="arrow_out" transform="scale(0.3 0.3)">
  <a xlink:href="classediteurpanovisu_1_1EditeurPanovisu_a6d5fd7170b4fe9e54f3606c9ce90a56a_cgraph_org.svg" target="_base">
   <rect id="button" ry="5" rx="5" y="6" x="6" height="38" width="38"
        fill="#f2f5e9" fill-opacity="0.5" stroke="#606060" stroke-width="1.0"/>
   <path id="arrow"
     d="M 11.500037,31.436501 C 11.940474,20.09759 22.043105,11.32322 32.158766,21.979434 L 37.068811,17.246167 C 37.068811,17.246167 37.088388,32 37.088388,32 L 22.160133,31.978069 C 22.160133,31.978069 26.997745,27.140456 26.997745,27.140456 C 18.528582,18.264221 13.291696,25.230495 11.500037,31.436501 z"
     style="fill:#404040;"/>
  </a>
 </g>
</svg>

<style type='text/css'>
<![CDATA[
[data-mouse-over-selected='false'] { opacity: 0.7; }
[data-mouse-over-selected='true']  { opacity: 1.0; }
]]>
</style>
<script type="application/ecmascript"><![CDATA[
document.addEventListener('DOMContentLoaded', (event) => {
  highlightEdges();
  highlightAdjacentNodes();
});
]]></script>
</svg>
