<?xml version="1.0" encoding="UTF-8" standalone="no"?>
<!DOCTYPE svg PUBLIC "-//W3C//DTD SVG 1.1//EN"
 "http://www.w3.org/Graphics/SVG/1.1/DTD/svg11.dtd">
<!-- Generated by graphviz version 13.1.2 (20250808.2320)
 -->
<!-- Title: editeurpanovisu.GestionnaireInterfaceController.getFenetreInfoPosX Pages: 1 -->
<!--zoomable 347 -->

<svg id="main" version="1.1" xmlns="http://www.w3.org/2000/svg" xmlns:xlink="http://www.w3.org/1999/xlink" xml:space="preserve" onload="init(evt)">

<style type="text/css"><![CDATA[
.node, .edge {opacity: 0.7;}
.node.selected, .edge.selected {opacity: 1;}
.edge:hover path { stroke: red; }
.edge:hover polygon { stroke: red; fill: red; }
]]></style>

<defs>
  <circle id="rim" cx="0" cy="0" r="7"/>
  <circle id="rim2" cx="0" cy="0" r="3.5"/>
  <g id="zoomPlus">
    <use xlink:href="#rim" fill="#404040"><set attributeName="fill" to="#808080" begin="zoomplus.mouseover" end="zoomplus.mouseout"/></use>
    <path d="M-4,0h8M0,-4v8" fill="none" stroke="white" stroke-width="1.5" pointer-events="none"/>
  </g>
  <g id="zoomMin">
    <use xlink:href="#rim" fill="#404040"><set attributeName="fill" to="#808080" begin="zoomminus.mouseover" end="zoomminus.mouseout"/></use>
    <path d="M-4,0h8" fill="none" stroke="white" stroke-width="1.5" pointer-events="none"/>
  </g>
  <g id="arrowUp" transform="translate(30 24)">
    <use xlink:href="#rim"/>
    <path pointer-events="none" fill="none" stroke="white" stroke-width="1.5" d="M0,-3.0v7 M-2.5,-0.5L0,-3.0L2.5,-0.5"/>
  </g>
  <g id="arrowRight" transform="rotate(90) translate(36 -43)">
    <use xlink:href="#rim"/>
    <path pointer-events="none" fill="none" stroke="white" stroke-width="1.5" d="M0,-3.0v7 M-2.5,-0.5L0,-3.0L2.5,-0.5"/>
  </g>
  <g id="arrowDown" transform="rotate(180) translate(-30 -48)">
    <use xlink:href="#rim"/>
    <path pointer-events="none" fill="none" stroke="white" stroke-width="1.5" d="M0,-3.0v7 M-2.5,-0.5L0,-3.0L2.5,-0.5"/>
  </g>
  <g id="arrowLeft" transform="rotate(270) translate(-36 17)">
    <use xlink:href="#rim"/>
    <path pointer-events="none" fill="none" stroke="white" stroke-width="1.5" d="M0,-3.0v7 M-2.5,-0.5L0,-3.0L2.5,-0.5"/>
  </g>
  <g id="resetDef">
    <use xlink:href="#rim2" fill="#404040"><set attributeName="fill" to="#808080" begin="reset.mouseover" end="reset.mouseout"/></use>
  </g>
</defs>
<script type="application/ecmascript">
var viewWidth = 2626;
var viewHeight = 347;
var sectionId = 'dynsection-81';
</script>
<script type="application/ecmascript" xlink:href="svg.min.js"/>
<svg id="graph" class="graph">
<g id="viewport">
<title>editeurpanovisu.GestionnaireInterfaceController.getFenetreInfoPosX</title>
<!-- Node1 -->
<g id="Node000001" class="node">
<title>Node1</title>
<g id="a_Node000001"><a xlink:title=" ">
<polygon fill="#999999" stroke="#666666" points="2617.5,-255.11 2431.25,-255.11 2431.25,-223.11 2617.5,-223.11 2617.5,-255.11"/>
<text xml:space="preserve" text-anchor="start" x="2439.25" y="-241.61" font-family="Helvetica,sans-Serif" font-size="10.00">editeurpanovisu.Gestionnaire</text>
<text xml:space="preserve" text-anchor="middle" x="2524.38" y="-229.61" font-family="Helvetica,sans-Serif" font-size="10.00">InterfaceController.getFenetreInfoPosX</text>
</a>
</g>
</g>
<!-- Node2 -->
<g id="Node000002" class="node">
<title>Node2</title>
<g id="a_Node000002"><a xlink:href="classediteurpanovisu_1_1GestionnaireInterfaceController.html#ad40d62c3d762b62606d73f8a15b05854" target="_top" xlink:title=" ">
<polygon fill="white" stroke="#666666" points="2395.25,-277.11 2218,-277.11 2218,-245.11 2395.25,-245.11 2395.25,-277.11"/>
<text xml:space="preserve" text-anchor="start" x="2226" y="-263.61" font-family="Helvetica,sans-Serif" font-size="10.00">editeurpanovisu.Gestionnaire</text>
<text xml:space="preserve" text-anchor="middle" x="2306.62" y="-251.61" font-family="Helvetica,sans-Serif" font-size="10.00">InterfaceController.afficheFenetreInfo</text>
</a>
</g>
</g>
<!-- Node1&#45;&gt;Node2 -->
<g id="edge1_Node000001_Node000002" class="edge">
<title>Node1&#45;&gt;Node2</title>
<g id="a_edge1_Node000001_Node000002"><a xlink:title=" ">
<path fill="none" stroke="#63b8ff" d="M2419.56,-249.69C2411.48,-250.52 2403.38,-251.34 2395.42,-252.15"/>
<polygon fill="#63b8ff" stroke="#63b8ff" points="2419.84,-253.18 2429.43,-248.69 2419.13,-246.22 2419.84,-253.18"/>
</a>
</g>
</g>
<!-- Node3 -->
<g id="Node000003" class="node">
<title>Node3</title>
<g id="a_Node000003"><a xlink:href="classediteurpanovisu_1_1GestionnaireInterfaceController.html#a55c8afda208674955a13d48d02be41b8" target="_top" xlink:title=" ">
<polygon fill="white" stroke="#666666" points="2182,-311.11 2014.5,-311.11 2014.5,-279.11 2182,-279.11 2182,-311.11"/>
<text xml:space="preserve" text-anchor="start" x="2022.5" y="-297.61" font-family="Helvetica,sans-Serif" font-size="10.00">editeurpanovisu.Gestionnaire</text>
<text xml:space="preserve" text-anchor="middle" x="2098.25" y="-285.61" font-family="Helvetica,sans-Serif" font-size="10.00">InterfaceController.afficheTemplate</text>
</a>
</g>
</g>
<!-- Node1&#45;&gt;Node3 -->
<g id="edge29_Node000001_Node000003" class="edge">
<title>Node1&#45;&gt;Node3</title>
<g id="a_edge29_Node000001_Node000003"><a xlink:title=" ">
<path fill="none" stroke="#63b8ff" d="M2477.53,-260C2453.55,-269.87 2423.39,-280.67 2395.25,-286.11 2324.33,-299.82 2242.1,-301.19 2182.33,-299.64"/>
<polygon fill="#63b8ff" stroke="#63b8ff" points="2478.83,-263.25 2486.69,-256.14 2476.12,-256.8 2478.83,-263.25"/>
</a>
</g>
</g>
<!-- Node17 -->
<g id="Node000017" class="node">
<title>Node17</title>
<g id="a_Node000017"><a xlink:href="classediteurpanovisu_1_1GestionnaireInterfaceController.html#ac7fa988dc99d8684686127a2269cd66e" target="_top" xlink:title=" ">
<polygon fill="white" stroke="#666666" points="2176.38,-247.11 2020.12,-247.11 2020.12,-215.11 2176.38,-215.11 2176.38,-247.11"/>
<text xml:space="preserve" text-anchor="start" x="2028.12" y="-233.61" font-family="Helvetica,sans-Serif" font-size="10.00">editeurpanovisu.Gestionnaire</text>
<text xml:space="preserve" text-anchor="middle" x="2098.25" y="-221.61" font-family="Helvetica,sans-Serif" font-size="10.00">InterfaceController.creeInterface</text>
</a>
</g>
</g>
<!-- Node1&#45;&gt;Node17 -->
<g id="edge30_Node000001_Node000017" class="edge">
<title>Node1&#45;&gt;Node17</title>
<g id="a_edge30_Node000001_Node000017"><a xlink:title=" ">
<path fill="none" stroke="#63b8ff" d="M2419.71,-236.62C2411.43,-236.44 2403.2,-236.27 2395.25,-236.11 2321.13,-234.61 2236.55,-233.22 2176.84,-232.28"/>
<polygon fill="#63b8ff" stroke="#63b8ff" points="2419.41,-240.12 2429.49,-236.84 2419.57,-233.12 2419.41,-240.12"/>
</a>
</g>
</g>
<!-- Node18 -->
<g id="Node000018" class="node">
<title>Node18</title>
<g id="a_Node000018"><a xlink:href="classediteurpanovisu_1_1GestionnaireInterfaceController.html#ab66509c63a85a8285a081b24049e8774" target="_top" xlink:title=" ">
<polygon fill="white" stroke="#666666" points="2389.62,-189.11 2223.62,-189.11 2223.62,-157.11 2389.62,-157.11 2389.62,-189.11"/>
<text xml:space="preserve" text-anchor="start" x="2231.62" y="-175.61" font-family="Helvetica,sans-Serif" font-size="10.00">editeurpanovisu.Gestionnaire</text>
<text xml:space="preserve" text-anchor="middle" x="2306.62" y="-163.61" font-family="Helvetica,sans-Serif" font-size="10.00">InterfaceController.strGetTemplate</text>
</a>
</g>
</g>
<!-- Node1&#45;&gt;Node18 -->
<g id="edge31_Node000001_Node000018" class="edge">
<title>Node1&#45;&gt;Node18</title>
<g id="a_edge31_Node000001_Node000018"><a xlink:title=" ">
<path fill="none" stroke="#63b8ff" d="M2458.74,-219.33C2427.61,-209.81 2390.73,-198.53 2361.2,-189.5"/>
<polygon fill="#63b8ff" stroke="#63b8ff" points="2457.45,-222.6 2468.04,-222.18 2459.5,-215.91 2457.45,-222.6"/>
</a>
</g>
</g>
<!-- Node2&#45;&gt;Node3 -->
<g id="edge2_Node000002_Node000003" class="edge">
<title>Node2&#45;&gt;Node3</title>
<g id="a_edge2_Node000002_Node000003"><a xlink:title=" ">
<path fill="none" stroke="#63b8ff" d="M2206.29,-277.47C2198.32,-278.79 2190.33,-280.1 2182.49,-281.39"/>
<polygon fill="#63b8ff" stroke="#63b8ff" points="2206.71,-280.95 2216.01,-275.87 2205.58,-274.04 2206.71,-280.95"/>
</a>
</g>
</g>
<!-- Node2&#45;&gt;Node17 -->
<g id="edge28_Node000002_Node000017" class="edge">
<title>Node2&#45;&gt;Node17</title>
<g id="a_edge28_Node000002_Node000017"><a xlink:title=" ">
<path fill="none" stroke="#63b8ff" d="M2206.3,-246.67C2196.34,-245.22 2186.33,-243.77 2176.65,-242.36"/>
<polygon fill="#63b8ff" stroke="#63b8ff" points="2205.61,-250.1 2216.01,-248.08 2206.61,-243.18 2205.61,-250.1"/>
</a>
</g>
</g>
<!-- Node4 -->
<g id="Node000004" class="node">
<title>Node4</title>
<g id="a_Node000004"><a xlink:href="classediteurpanovisu_1_1EditeurPanovisu.html#a87b29dc258cfc67370b1f27809e91b8e" target="_top" xlink:title=" ">
<polygon fill="white" stroke="#666666" points="1978.5,-311.11 1803.5,-311.11 1803.5,-279.11 1978.5,-279.11 1978.5,-311.11"/>
<text xml:space="preserve" text-anchor="start" x="1811.5" y="-297.61" font-family="Helvetica,sans-Serif" font-size="10.00">editeurpanovisu.EditeurPanovisu.tsk</text>
<text xml:space="preserve" text-anchor="middle" x="1891" y="-285.61" font-family="Helvetica,sans-Serif" font-size="10.00">AnalyseFichierPVU</text>
</a>
</g>
</g>
<!-- Node3&#45;&gt;Node4 -->
<g id="edge3_Node000003_Node000004" class="edge">
<title>Node3&#45;&gt;Node4</title>
<g id="a_edge3_Node000003_Node000004"><a xlink:title=" ">
<path fill="none" stroke="#63b8ff" d="M2002.6,-295.11C1994.73,-295.11 1986.79,-295.11 1978.98,-295.11"/>
<polygon fill="#63b8ff" stroke="#63b8ff" points="2002.55,-298.61 2012.55,-295.11 2002.55,-291.61 2002.55,-298.61"/>
</a>
</g>
</g>
<!-- Node5 -->
<g id="Node000005" class="node">
<title>Node5</title>
<g id="a_Node000005"><a xlink:href="classediteurpanovisu_1_1EditeurPanovisu.html#ab4beb1597b660a4a253befc6e76f1c54" target="_top" xlink:title=" ">
<polygon fill="white" stroke="#666666" points="1098.12,-311.11 912.62,-311.11 912.62,-279.11 1098.12,-279.11 1098.12,-311.11"/>
<text xml:space="preserve" text-anchor="start" x="920.62" y="-297.61" font-family="Helvetica,sans-Serif" font-size="10.00">editeurpanovisu.EditeurPanovisu.projet</text>
<text xml:space="preserve" text-anchor="middle" x="1005.38" y="-285.61" font-family="Helvetica,sans-Serif" font-size="10.00">Charge</text>
</a>
</g>
</g>
<!-- Node4&#45;&gt;Node5 -->
<g id="edge4_Node000004_Node000005" class="edge">
<title>Node4&#45;&gt;Node5</title>
<g id="a_edge4_Node000004_Node000005"><a xlink:title=" ">
<path fill="none" stroke="#63b8ff" d="M1791.91,-309.06C1783.66,-309.89 1775.45,-310.59 1767.5,-311.11 1526.47,-326.78 1241.69,-311.92 1098.46,-302.14"/>
<polygon fill="#63b8ff" stroke="#63b8ff" points="1792.06,-312.57 1801.64,-308.03 1791.32,-305.6 1792.06,-312.57"/>
</a>
</g>
</g>
<!-- Node8 -->
<g id="Node000008" class="node">
<title>Node8</title>
<g id="a_Node000008"><a xlink:href="classediteurpanovisu_1_1EditeurPanovisu.html#a6d19b4d885ee6fcec827b91956295732" target="_top" xlink:title=" ">
<polygon fill="white" stroke="#666666" points="1767.5,-302.11 1582,-302.11 1582,-270.11 1767.5,-270.11 1767.5,-302.11"/>
<text xml:space="preserve" text-anchor="start" x="1590" y="-288.61" font-family="Helvetica,sans-Serif" font-size="10.00">editeurpanovisu.EditeurPanovisu.projet</text>
<text xml:space="preserve" text-anchor="middle" x="1674.75" y="-276.61" font-family="Helvetica,sans-Serif" font-size="10.00">ChargeNom</text>
</a>
</g>
</g>
<!-- Node4&#45;&gt;Node8 -->
<g id="edge7_Node000004_Node000008" class="edge">
<title>Node4&#45;&gt;Node8</title>
<g id="a_edge7_Node000004_Node000008"><a xlink:title=" ">
<path fill="none" stroke="#63b8ff" d="M1791.94,-290.99C1783.95,-290.65 1775.89,-290.31 1767.95,-289.98"/>
<polygon fill="#63b8ff" stroke="#63b8ff" points="1791.51,-294.47 1801.65,-291.4 1791.81,-287.48 1791.51,-294.47"/>
</a>
</g>
</g>
<!-- Node6 -->
<g id="Node000006" class="node">
<title>Node6</title>
<g id="a_Node000006"><a xlink:href="classediteurpanovisu_1_1EditeurPanovisu.html#ac912b80c1f2ac97def60ff005c5c480b" target="_top" xlink:title=" ">
<polygon fill="white" stroke="#666666" points="420.5,-217.11 216.25,-217.11 216.25,-197.11 420.5,-197.11 420.5,-217.11"/>
<text xml:space="preserve" text-anchor="middle" x="318.38" y="-203.61" font-family="Helvetica,sans-Serif" font-size="10.00">editeurpanovisu.EditeurPanovisu.creeMenu</text>
</a>
</g>
</g>
<!-- Node5&#45;&gt;Node6 -->
<g id="edge5_Node000005_Node000006" class="edge">
<title>Node5&#45;&gt;Node6</title>
<g id="a_edge5_Node000005_Node000006"><a xlink:title=" ">
<path fill="none" stroke="#63b8ff" d="M901.18,-292.2C790.31,-287.52 609.41,-275.4 456.5,-244.11 420.99,-236.84 381.05,-225.72 353.47,-217.57"/>
<polygon fill="#63b8ff" stroke="#63b8ff" points="900.71,-295.68 910.84,-292.59 900.99,-288.69 900.71,-295.68"/>
</a>
</g>
</g>
<!-- Node7 -->
<g id="Node000007" class="node">
<title>Node7</title>
<g id="a_Node000007"><a xlink:href="classediteurpanovisu_1_1EditeurPanovisu.html#a86c393eee88f54c694db994ddd85b90d" target="_top" xlink:title=" ">
<polygon fill="white" stroke="#666666" points="180.25,-223.11 0,-223.11 0,-191.11 180.25,-191.11 180.25,-223.11"/>
<text xml:space="preserve" text-anchor="start" x="8" y="-209.61" font-family="Helvetica,sans-Serif" font-size="10.00">editeurpanovisu.EditeurPanovisu.cree</text>
<text xml:space="preserve" text-anchor="middle" x="90.12" y="-197.61" font-family="Helvetica,sans-Serif" font-size="10.00">Environnement</text>
</a>
</g>
</g>
<!-- Node6&#45;&gt;Node7 -->
<g id="edge6_Node000006_Node000007" class="edge">
<title>Node6&#45;&gt;Node7</title>
<g id="a_edge6_Node000006_Node000007"><a xlink:title=" ">
<path fill="none" stroke="#63b8ff" d="M204.51,-207.11C196.49,-207.11 188.46,-207.11 180.6,-207.11"/>
<polygon fill="#63b8ff" stroke="#63b8ff" points="204.32,-210.61 214.32,-207.11 204.32,-203.61 204.32,-210.61"/>
</a>
</g>
</g>
<!-- Node8&#45;&gt;Node6 -->
<g id="edge27_Node000008_Node000006" class="edge">
<title>Node8&#45;&gt;Node6</title>
<g id="a_edge27_Node000008_Node000006"><a xlink:title=" ">
<path fill="none" stroke="#63b8ff" d="M1576.26,-304.53C1486.71,-319.83 1350.16,-339.11 1230.5,-339.11 1230.5,-339.11 1230.5,-339.11 777.62,-339.11 631.83,-339.11 594.7,-318.55 456.5,-272.11 412.05,-257.17 363.12,-231.58 337.43,-217.37"/>
<polygon fill="#63b8ff" stroke="#63b8ff" points="1576.73,-308 1585.99,-302.84 1575.54,-301.1 1576.73,-308"/>
</a>
</g>
</g>
<!-- Node9 -->
<g id="Node000009" class="node">
<title>Node9</title>
<g id="a_Node000009"><a xlink:href="classediteurpanovisu_1_1EditeurPanovisu.html#af0d1c32bb78acbff561c822a0d15f760" target="_top" xlink:title=" ">
<polygon fill="white" stroke="#666666" points="1546,-258.11 1358.25,-258.11 1358.25,-226.11 1546,-226.11 1546,-258.11"/>
<text xml:space="preserve" text-anchor="start" x="1366.25" y="-244.61" font-family="Helvetica,sans-Serif" font-size="10.00">editeurpanovisu.EditeurPanovisu.ajoute</text>
<text xml:space="preserve" text-anchor="middle" x="1452.12" y="-232.61" font-family="Helvetica,sans-Serif" font-size="10.00">FichierHisto</text>
</a>
</g>
</g>
<!-- Node8&#45;&gt;Node9 -->
<g id="edge8_Node000008_Node000009" class="edge">
<title>Node8&#45;&gt;Node9</title>
<g id="a_edge8_Node000008_Node000009"><a xlink:title=" ">
<path fill="none" stroke="#63b8ff" d="M1609.59,-267.12C1589.81,-262.67 1567.62,-258.08 1546.3,-254.01"/>
<polygon fill="#63b8ff" stroke="#63b8ff" points="1608.62,-270.48 1619.15,-269.31 1610.18,-263.66 1608.62,-270.48"/>
</a>
</g>
</g>
<!-- Node9&#45;&gt;Node5 -->
<g id="edge9_Node000009_Node000005" class="edge">
<title>Node9&#45;&gt;Node5</title>
<g id="a_edge9_Node000009_Node000005"><a xlink:title=" ">
<path fill="none" stroke="#63b8ff" d="M1346.5,-254.57C1271.2,-263.55 1170.58,-275.54 1098.34,-284.15"/>
<polygon fill="#63b8ff" stroke="#63b8ff" points="1346.87,-258.06 1356.39,-253.4 1346.04,-251.1 1346.87,-258.06"/>
</a>
</g>
</g>
<!-- Node9&#45;&gt;Node8 -->
<g id="edge10_Node000009_Node000008" class="edge">
<title>Node9&#45;&gt;Node8</title>
<g id="a_edge10_Node000009_Node000008"><a xlink:title=" ">
<path fill="none" stroke="#63b8ff" d="M1517.39,-261.12C1537.52,-265.65 1560.14,-270.31 1581.78,-274.43"/>
<polygon fill="#63b8ff" stroke="#63b8ff" points="1518.18,-257.71 1507.65,-258.89 1516.62,-264.53 1518.18,-257.71"/>
</a>
</g>
</g>
<!-- Node10 -->
<g id="Node000010" class="node">
<title>Node10</title>
<g id="a_Node000010"><a xlink:href="classediteurpanovisu_1_1EditeurPanovisu.html#a9f3ea25b35d4884524508dab3dc4fd6a" target="_top" xlink:title=" ">
<polygon fill="white" stroke="#666666" points="1322.25,-223.11 1136.75,-223.11 1136.75,-191.11 1322.25,-191.11 1322.25,-223.11"/>
<text xml:space="preserve" text-anchor="start" x="1144.75" y="-209.61" font-family="Helvetica,sans-Serif" font-size="10.00">editeurpanovisu.EditeurPanovisu.projet</text>
<text xml:space="preserve" text-anchor="middle" x="1229.5" y="-197.61" font-family="Helvetica,sans-Serif" font-size="10.00">Sauve</text>
</a>
</g>
</g>
<!-- Node9&#45;&gt;Node10 -->
<g id="edge11_Node000009_Node000010" class="edge">
<title>Node9&#45;&gt;Node10</title>
<g id="a_edge11_Node000009_Node000010"><a xlink:title=" ">
<path fill="none" stroke="#63b8ff" d="M1346.63,-225.53C1338.64,-224.26 1330.61,-222.99 1322.71,-221.73"/>
<polygon fill="#63b8ff" stroke="#63b8ff" points="1345.96,-228.97 1356.39,-227.08 1347.06,-222.05 1345.96,-228.97"/>
</a>
</g>
</g>
<!-- Node16 -->
<g id="Node000016" class="node">
<title>Node16</title>
<g id="a_Node000016"><a xlink:href="classediteurpanovisu_1_1EditeurPanovisu.html#a7b2e25dc717eb52b62e23d54ec4c124a" target="_top" xlink:title=" ">
<polygon fill="white" stroke="#666666" points="1322.25,-173.11 1136.75,-173.11 1136.75,-141.11 1322.25,-141.11 1322.25,-173.11"/>
<text xml:space="preserve" text-anchor="start" x="1144.75" y="-159.61" font-family="Helvetica,sans-Serif" font-size="10.00">editeurpanovisu.EditeurPanovisu.projet</text>
<text xml:space="preserve" text-anchor="middle" x="1229.5" y="-147.61" font-family="Helvetica,sans-Serif" font-size="10.00">SauveSous</text>
</a>
</g>
</g>
<!-- Node9&#45;&gt;Node16 -->
<g id="edge25_Node000009_Node000016" class="edge">
<title>Node9&#45;&gt;Node16</title>
<g id="a_edge25_Node000009_Node000016"><a xlink:title=" ">
<path fill="none" stroke="#63b8ff" d="M1406.36,-220.81C1372.66,-204.85 1330.84,-185.25 1322.25,-182.11 1313.88,-179.04 1304.96,-176.16 1296.09,-173.52"/>
<polygon fill="#63b8ff" stroke="#63b8ff" points="1404.61,-223.86 1415.15,-224.98 1407.61,-217.53 1404.61,-223.86"/>
</a>
</g>
</g>
<!-- Node10&#45;&gt;Node5 -->
<g id="edge15_Node000010_Node000005" class="edge">
<title>Node10&#45;&gt;Node5</title>
<g id="a_edge15_Node000010_Node000005"><a xlink:title=" ">
<path fill="none" stroke="#63b8ff" d="M1184.71,-228.54C1160.29,-240.1 1129.17,-254.18 1100.75,-265.11 1088.23,-269.92 1074.58,-274.58 1061.65,-278.74"/>
<polygon fill="#63b8ff" stroke="#63b8ff" points="1186.19,-231.72 1193.71,-224.25 1183.17,-225.4 1186.19,-231.72"/>
</a>
</g>
</g>
<!-- Node10&#45;&gt;Node6 -->
<g id="edge12_Node000010_Node000006" class="edge">
<title>Node10&#45;&gt;Node6</title>
<g id="a_edge12_Node000010_Node000006"><a xlink:title=" ">
<path fill="none" stroke="#63b8ff" d="M1139.09,-184.2C1138.29,-183.52 1137.51,-182.83 1136.75,-182.11 1100.25,-147.68 1141.5,-104.39 1100.75,-75.11 1086.93,-65.17 702.05,-79.54 683.25,-81.11 581.83,-89.58 551.37,-76.25 456.5,-113.11 404.31,-133.38 352.47,-176.91 330.42,-196.81"/>
<polygon fill="#63b8ff" stroke="#63b8ff" points="1136.83,-186.89 1147,-189.86 1140.91,-181.2 1136.83,-186.89"/>
</a>
</g>
</g>
<!-- Node10&#45;&gt;Node8 -->
<g id="edge16_Node000010_Node000008" class="edge">
<title>Node10&#45;&gt;Node8</title>
<g id="a_edge16_Node000010_Node000008"><a xlink:title=" ">
<path fill="none" stroke="#63b8ff" d="M1267.31,-228.98C1292.11,-242.55 1326.05,-258.9 1358.25,-267.11 1431.76,-285.85 1517.89,-289.89 1581.57,-289.64"/>
<polygon fill="#63b8ff" stroke="#63b8ff" points="1269.04,-225.94 1258.6,-224.11 1265.62,-232.05 1269.04,-225.94"/>
</a>
</g>
</g>
<!-- Node11 -->
<g id="Node000011" class="node">
<title>Node11</title>
<g id="a_Node000011"><a xlink:href="classediteurpanovisu_1_1EditeurPanovisu.html#a94e36b9e9d09ab1a4c852b8a8cefa927" target="_top" xlink:title=" ">
<polygon fill="white" stroke="#666666" points="647.25,-154.11 456.5,-154.11 456.5,-122.11 647.25,-122.11 647.25,-154.11"/>
<text xml:space="preserve" text-anchor="start" x="464.5" y="-140.61" font-family="Helvetica,sans-Serif" font-size="10.00">editeurpanovisu.EditeurPanovisu.genere</text>
<text xml:space="preserve" text-anchor="middle" x="551.88" y="-128.61" font-family="Helvetica,sans-Serif" font-size="10.00">Visite</text>
</a>
</g>
</g>
<!-- Node10&#45;&gt;Node11 -->
<g id="edge13_Node000010_Node000011" class="edge">
<title>Node10&#45;&gt;Node11</title>
<g id="a_edge13_Node000010_Node000011"><a xlink:title=" ">
<path fill="none" stroke="#63b8ff" d="M1140.12,-184.82C1138.97,-183.95 1137.84,-183.04 1136.75,-182.11 1106.86,-156.45 1133.78,-122.57 1100.75,-101.11 1025.31,-52.08 763.28,-95.46 630.82,-121.64"/>
<polygon fill="#63b8ff" stroke="#63b8ff" points="1137.89,-187.54 1148.19,-190.02 1141.68,-181.66 1137.89,-187.54"/>
</a>
</g>
</g>
<!-- Node12 -->
<g id="Node000012" class="node">
<title>Node12</title>
<g id="a_Node000012"><a xlink:href="classediteurpanovisu_1_1EditeurPanovisu.html#a9b46b222714af12c06ec33d410400773" target="_top" xlink:title=" ">
<polygon fill="white" stroke="#666666" points="874,-267.11 683.25,-267.11 683.25,-235.11 874,-235.11 874,-267.11"/>
<text xml:space="preserve" text-anchor="start" x="691.25" y="-253.61" font-family="Helvetica,sans-Serif" font-size="10.00">editeurpanovisu.EditeurPanovisu.projets</text>
<text xml:space="preserve" text-anchor="middle" x="778.62" y="-241.61" font-family="Helvetica,sans-Serif" font-size="10.00">Fermer</text>
</a>
</g>
</g>
<!-- Node10&#45;&gt;Node12 -->
<g id="edge17_Node000010_Node000012" class="edge">
<title>Node10&#45;&gt;Node12</title>
<g id="a_edge17_Node000010_Node000012"><a xlink:title=" ">
<path fill="none" stroke="#63b8ff" d="M1142.15,-225.63C1128.35,-228.12 1114.19,-230.4 1100.75,-232.11 1024.98,-241.72 938.53,-246.48 874.43,-248.84"/>
<polygon fill="#63b8ff" stroke="#63b8ff" points="1142.43,-229.14 1151.63,-223.88 1141.16,-222.26 1142.43,-229.14"/>
</a>
</g>
</g>
<!-- Node13 -->
<g id="Node000013" class="node">
<title>Node13</title>
<g id="a_Node000013"><a xlink:href="classediteurpanovisu_1_1EditeurPanovisu.html#ac9d449399ccd38843fa12e716f0c9611" target="_top" xlink:title=" ">
<polygon fill="white" stroke="#666666" points="1100.75,-223.11 910,-223.11 910,-191.11 1100.75,-191.11 1100.75,-223.11"/>
<text xml:space="preserve" text-anchor="start" x="918" y="-209.61" font-family="Helvetica,sans-Serif" font-size="10.00">editeurpanovisu.EditeurPanovisu.projets</text>
<text xml:space="preserve" text-anchor="middle" x="1005.38" y="-197.61" font-family="Helvetica,sans-Serif" font-size="10.00">Nouveau</text>
</a>
</g>
</g>
<!-- Node10&#45;&gt;Node13 -->
<g id="edge19_Node000010_Node000013" class="edge">
<title>Node10&#45;&gt;Node13</title>
<g id="a_edge19_Node000010_Node000013"><a xlink:title=" ">
<path fill="none" stroke="#63b8ff" d="M1125.24,-207.11C1117.2,-207.11 1109.11,-207.11 1101.13,-207.11"/>
<polygon fill="#63b8ff" stroke="#63b8ff" points="1125.04,-210.61 1135.04,-207.11 1125.04,-203.61 1125.04,-210.61"/>
</a>
</g>
</g>
<!-- Node14 -->
<g id="Node000014" class="node">
<title>Node14</title>
<g id="a_Node000014"><a xlink:href="classediteurpanovisu_1_1EditeurPanovisu.html#a2b3125ffe2e6291efacf19df6cb30a8d" target="_top" xlink:title=" ">
<polygon fill="white" stroke="#666666" points="869.12,-148.11 688.12,-148.11 688.12,-128.11 869.12,-128.11 869.12,-148.11"/>
<text xml:space="preserve" text-anchor="middle" x="778.62" y="-134.61" font-family="Helvetica,sans-Serif" font-size="10.00">editeurpanovisu.EditeurPanovisu.start</text>
</a>
</g>
</g>
<!-- Node10&#45;&gt;Node14 -->
<g id="edge24_Node000010_Node000014" class="edge">
<title>Node10&#45;&gt;Node14</title>
<g id="a_edge24_Node000010_Node000014"><a xlink:title=" ">
<path fill="none" stroke="#63b8ff" d="M1142.26,-185.63C1140.37,-184.52 1138.53,-183.34 1136.75,-182.11 1114.25,-166.5 1125.12,-144.59 1100.75,-132.11 1006.21,-83.68 874.55,-110.65 813.37,-127.62"/>
<polygon fill="#63b8ff" stroke="#63b8ff" points="1140.22,-188.51 1150.7,-190.04 1143.46,-182.31 1140.22,-188.51"/>
</a>
</g>
</g>
<!-- Node15 -->
<g id="Node000015" class="node">
<title>Node15</title>
<g id="a_Node000015"><a xlink:href="classediteurpanovisu_1_1EditeurPanovisu.html#aef8c9b28c3e88d6e27e3f62b9a901134" target="_top" xlink:title=" ">
<polygon fill="white" stroke="#666666" points="1099.25,-173.11 911.5,-173.11 911.5,-141.11 1099.25,-141.11 1099.25,-173.11"/>
<text xml:space="preserve" text-anchor="start" x="919.5" y="-159.61" font-family="Helvetica,sans-Serif" font-size="10.00">editeurpanovisu.EditeurPanovisu.sauve</text>
<text xml:space="preserve" text-anchor="middle" x="1005.38" y="-147.61" font-family="Helvetica,sans-Serif" font-size="10.00">Fichiers</text>
</a>
</g>
</g>
<!-- Node10&#45;&gt;Node15 -->
<g id="edge23_Node000010_Node000015" class="edge">
<title>Node10&#45;&gt;Node15</title>
<g id="a_edge23_Node000010_Node000015"><a xlink:title=" ">
<path fill="none" stroke="#63b8ff" d="M1144.43,-188.18C1123.05,-183.37 1100.24,-178.24 1079.46,-173.56"/>
<polygon fill="#63b8ff" stroke="#63b8ff" points="1143.46,-191.55 1153.98,-190.33 1145,-184.72 1143.46,-191.55"/>
</a>
</g>
</g>
<!-- Node11&#45;&gt;Node6 -->
<g id="edge14_Node000011_Node000006" class="edge">
<title>Node11&#45;&gt;Node6</title>
<g id="a_edge14_Node000011_Node000006"><a xlink:title=" ">
<path fill="none" stroke="#63b8ff" d="M484.89,-157.77C442.38,-170.44 388.82,-186.41 354.33,-196.69"/>
<polygon fill="#63b8ff" stroke="#63b8ff" points="485.68,-161.19 494.27,-154.98 483.69,-154.48 485.68,-161.19"/>
</a>
</g>
</g>
<!-- Node12&#45;&gt;Node6 -->
<g id="edge18_Node000012_Node000006" class="edge">
<title>Node12&#45;&gt;Node6</title>
<g id="a_edge18_Node000012_Node000006"><a xlink:title=" ">
<path fill="none" stroke="#63b8ff" d="M671.3,-241.4C608.74,-235.64 528.11,-228.11 456.5,-221.11 444.95,-219.98 432.85,-218.77 420.83,-217.56"/>
<polygon fill="#63b8ff" stroke="#63b8ff" points="670.97,-244.89 681.25,-242.32 671.61,-237.92 670.97,-244.89"/>
</a>
</g>
</g>
<!-- Node13&#45;&gt;Node6 -->
<g id="edge20_Node000013_Node000006" class="edge">
<title>Node13&#45;&gt;Node6</title>
<g id="a_edge20_Node000013_Node000006"><a xlink:title=" ">
<path fill="none" stroke="#63b8ff" d="M898.7,-207.11C768.51,-207.11 548.9,-207.11 420.73,-207.11"/>
<polygon fill="#63b8ff" stroke="#63b8ff" points="898.33,-210.61 908.33,-207.11 898.33,-203.61 898.33,-210.61"/>
</a>
</g>
</g>
<!-- Node13&#45;&gt;Node14 -->
<g id="edge21_Node000013_Node000014" class="edge">
<title>Node13&#45;&gt;Node14</title>
<g id="a_edge21_Node000013_Node000014"><a xlink:title=" ">
<path fill="none" stroke="#63b8ff" d="M929.1,-187.65C922.62,-185.83 916.19,-183.97 910,-182.11 874.89,-171.54 835.01,-157.83 808.7,-148.54"/>
<polygon fill="#63b8ff" stroke="#63b8ff" points="927.96,-190.97 938.54,-190.26 929.83,-184.22 927.96,-190.97"/>
</a>
</g>
</g>
<!-- Node14&#45;&gt;Node11 -->
<g id="edge22_Node000014_Node000011" class="edge">
<title>Node14&#45;&gt;Node11</title>
<g id="a_edge22_Node000014_Node000011"><a xlink:title=" ">
<path fill="none" stroke="#63b8ff" d="M676.6,-138.11C666.98,-138.11 657.24,-138.11 647.68,-138.11"/>
<polygon fill="#63b8ff" stroke="#63b8ff" points="676.32,-141.61 686.32,-138.11 676.32,-134.61 676.32,-141.61"/>
</a>
</g>
</g>
<!-- Node16&#45;&gt;Node6 -->
<g id="edge26_Node000016_Node000006" class="edge">
<title>Node16&#45;&gt;Node6</title>
<g id="a_edge26_Node000016_Node000006"><a xlink:title=" ">
<path fill="none" stroke="#63b8ff" d="M1204.01,-133.07C1179.99,-111.32 1141.17,-80.8 1100.75,-68.11 827.53,17.68 720.79,31.18 456.5,-79.11 394.89,-104.82 344.02,-171.43 326.2,-196.95"/>
<polygon fill="#63b8ff" stroke="#63b8ff" points="1201.35,-135.37 1211.06,-139.61 1206.11,-130.24 1201.35,-135.37"/>
</a>
</g>
</g>
<!-- Node19 -->
<g id="Node000019" class="node">
<title>Node19</title>
<g id="a_Node000019"><a xlink:href="classediteurpanovisu_1_1EditeurPanovisu.html#aaee69ab54364f89b58458c744a4195c0" target="_top" xlink:title=" ">
<polygon fill="white" stroke="#666666" points="1546,-189.11 1358.25,-189.11 1358.25,-157.11 1546,-157.11 1546,-189.11"/>
<text xml:space="preserve" text-anchor="start" x="1366.25" y="-175.61" font-family="Helvetica,sans-Serif" font-size="10.00">editeurpanovisu.EditeurPanovisu.sauve</text>
<text xml:space="preserve" text-anchor="middle" x="1452.12" y="-163.61" font-family="Helvetica,sans-Serif" font-size="10.00">FichierProjet</text>
</a>
</g>
</g>
<!-- Node18&#45;&gt;Node19 -->
<g id="edge32_Node000018_Node000019" class="edge">
<title>Node18&#45;&gt;Node19</title>
<g id="a_edge32_Node000018_Node000019"><a xlink:title=" ">
<path fill="none" stroke="#63b8ff" d="M2211.99,-173.11C2047.88,-173.11 1710.24,-173.11 1546.4,-173.11"/>
<polygon fill="#63b8ff" stroke="#63b8ff" points="2211.98,-176.61 2221.98,-173.11 2211.98,-169.61 2211.98,-176.61"/>
</a>
</g>
</g>
<!-- Node19&#45;&gt;Node10 -->
<g id="edge33_Node000019_Node000010" class="edge">
<title>Node19&#45;&gt;Node10</title>
<g id="a_edge33_Node000019_Node000010"><a xlink:title=" ">
<path fill="none" stroke="#63b8ff" d="M1346.63,-189.21C1338.64,-190.44 1330.61,-191.68 1322.71,-192.9"/>
<polygon fill="#63b8ff" stroke="#63b8ff" points="1347.03,-192.69 1356.38,-187.71 1345.97,-185.77 1347.03,-192.69"/>
</a>
</g>
</g>
<!-- Node19&#45;&gt;Node16 -->
<g id="edge34_Node000019_Node000016" class="edge">
<title>Node19&#45;&gt;Node16</title>
<g id="a_edge34_Node000019_Node000016"><a xlink:title=" ">
<path fill="none" stroke="#63b8ff" d="M1346.63,-165.53C1338.64,-164.95 1330.61,-164.37 1322.71,-163.79"/>
<polygon fill="#63b8ff" stroke="#63b8ff" points="1346.14,-169 1356.37,-166.24 1346.65,-162.02 1346.14,-169"/>
</a>
</g>
</g>
</g>
</svg>

<g id="navigator" transform="translate(0 0)" fill="#404254">
  <rect fill="#f2f5e9" fill-opacity="0.5" stroke="#606060" stroke-width=".5" x="0" y="0" width="60" height="60"/>
  <use id="zoomplus" xlink:href="#zoomPlus" x="17" y="9" onmousedown="handleZoom(evt,'in')"/>
  <use id="zoomminus" xlink:href="#zoomMin" x="42" y="9" onmousedown="handleZoom(evt,'out')"/>
  <use id="reset" xlink:href="#resetDef" x="30" y="36" onmousedown="handleReset()"/>
   <use id="arrowup" xlink:href="#arrowUp" x="0" y="0" onmousedown="handlePan(0,-1)"/>
  <use id="arrowright" xlink:href="#arrowRight" x="0" y="0" onmousedown="handlePan(1,0)"/>
  <use id="arrowdown" xlink:href="#arrowDown" x="0" y="0" onmousedown="handlePan(0,1)"/>
  <use id="arrowleft" xlink:href="#arrowLeft" x="0" y="0" onmousedown="handlePan(-1,0)"/>
</g>
<svg viewBox="0 0 15 15" width="100%" height="30px" preserveAspectRatio="xMaxYMin meet">
 <g id="arrow_out" transform="scale(0.3 0.3)">
  <a xlink:href="classediteurpanovisu_1_1GestionnaireInterfaceController_ae05e346ae672d61111dbf5c857397e4e_icgraph_org.svg" target="_base">
   <rect id="button" ry="5" rx="5" y="6" x="6" height="38" width="38"
        fill="#f2f5e9" fill-opacity="0.5" stroke="#606060" stroke-width="1.0"/>
   <path id="arrow"
     d="M 11.500037,31.436501 C 11.940474,20.09759 22.043105,11.32322 32.158766,21.979434 L 37.068811,17.246167 C 37.068811,17.246167 37.088388,32 37.088388,32 L 22.160133,31.978069 C 22.160133,31.978069 26.997745,27.140456 26.997745,27.140456 C 18.528582,18.264221 13.291696,25.230495 11.500037,31.436501 z"
     style="fill:#404040;"/>
  </a>
 </g>
</svg>

<style type='text/css'>
<![CDATA[
[data-mouse-over-selected='false'] { opacity: 0.7; }
[data-mouse-over-selected='true']  { opacity: 1.0; }
]]>
</style>
<script type="application/ecmascript"><![CDATA[
document.addEventListener('DOMContentLoaded', (event) => {
  highlightEdges();
  highlightAdjacentNodes();
});
]]></script>
</svg>
