<?xml version="1.0" encoding="UTF-8" standalone="no"?>
<!DOCTYPE svg PUBLIC "-//W3C//DTD SVG 1.1//EN"
 "http://www.w3.org/Graphics/SVG/1.1/DTD/svg11.dtd">
<!-- Generated by graphviz version 13.1.2 (20250808.2320)
 -->
<!-- Title: editeurpanovisu.GestionnaireInterfaceController.getStrAideBarrePersonnalisee Pages: 1 -->
<!--zoomable 519 -->

<svg id="main" version="1.1" xmlns="http://www.w3.org/2000/svg" xmlns:xlink="http://www.w3.org/1999/xlink" xml:space="preserve" onload="init(evt)">

<style type="text/css"><![CDATA[
.node, .edge {opacity: 0.7;}
.node.selected, .edge.selected {opacity: 1;}
.edge:hover path { stroke: red; }
.edge:hover polygon { stroke: red; fill: red; }
]]></style>

<defs>
  <circle id="rim" cx="0" cy="0" r="7"/>
  <circle id="rim2" cx="0" cy="0" r="3.5"/>
  <g id="zoomPlus">
    <use xlink:href="#rim" fill="#404040"><set attributeName="fill" to="#808080" begin="zoomplus.mouseover" end="zoomplus.mouseout"/></use>
    <path d="M-4,0h8M0,-4v8" fill="none" stroke="white" stroke-width="1.5" pointer-events="none"/>
  </g>
  <g id="zoomMin">
    <use xlink:href="#rim" fill="#404040"><set attributeName="fill" to="#808080" begin="zoomminus.mouseover" end="zoomminus.mouseout"/></use>
    <path d="M-4,0h8" fill="none" stroke="white" stroke-width="1.5" pointer-events="none"/>
  </g>
  <g id="arrowUp" transform="translate(30 24)">
    <use xlink:href="#rim"/>
    <path pointer-events="none" fill="none" stroke="white" stroke-width="1.5" d="M0,-3.0v7 M-2.5,-0.5L0,-3.0L2.5,-0.5"/>
  </g>
  <g id="arrowRight" transform="rotate(90) translate(36 -43)">
    <use xlink:href="#rim"/>
    <path pointer-events="none" fill="none" stroke="white" stroke-width="1.5" d="M0,-3.0v7 M-2.5,-0.5L0,-3.0L2.5,-0.5"/>
  </g>
  <g id="arrowDown" transform="rotate(180) translate(-30 -48)">
    <use xlink:href="#rim"/>
    <path pointer-events="none" fill="none" stroke="white" stroke-width="1.5" d="M0,-3.0v7 M-2.5,-0.5L0,-3.0L2.5,-0.5"/>
  </g>
  <g id="arrowLeft" transform="rotate(270) translate(-36 17)">
    <use xlink:href="#rim"/>
    <path pointer-events="none" fill="none" stroke="white" stroke-width="1.5" d="M0,-3.0v7 M-2.5,-0.5L0,-3.0L2.5,-0.5"/>
  </g>
  <g id="resetDef">
    <use xlink:href="#rim2" fill="#404040"><set attributeName="fill" to="#808080" begin="reset.mouseover" end="reset.mouseout"/></use>
  </g>
</defs>
<script type="application/ecmascript">
var viewWidth = 2871;
var viewHeight = 519;
var sectionId = 'dynsection-138';
</script>
<script type="application/ecmascript" xlink:href="svg.min.js"/>
<svg id="graph" class="graph">
<g id="viewport">
<title>editeurpanovisu.GestionnaireInterfaceController.getStrAideBarrePersonnalisee</title>
<!-- Node1 -->
<g id="Node000001" class="node">
<title>Node1</title>
<g id="a_Node000001"><a xlink:title=" ">
<polygon fill="#999999" stroke="#666666" points="2863,-342.34 2694.75,-342.34 2694.75,-298.34 2863,-298.34 2863,-342.34"/>
<text xml:space="preserve" text-anchor="start" x="2702.75" y="-328.84" font-family="Helvetica,sans-Serif" font-size="10.00">editeurpanovisu.Gestionnaire</text>
<text xml:space="preserve" text-anchor="start" x="2702.75" y="-316.84" font-family="Helvetica,sans-Serif" font-size="10.00">InterfaceController.getStrAideBarre</text>
<text xml:space="preserve" text-anchor="middle" x="2778.88" y="-304.84" font-family="Helvetica,sans-Serif" font-size="10.00">Personnalisee</text>
</a>
</g>
</g>
<!-- Node2 -->
<g id="Node000002" class="node">
<title>Node2</title>
<g id="a_Node000002"><a xlink:href="classediteurpanovisu_1_1GestionnaireInterfaceController.html#a3f85cb5c53dc115280ee2e1290a532f3" target="_top" xlink:title=" ">
<polygon fill="white" stroke="#666666" points="2651.25,-342.34 2500.25,-342.34 2500.25,-298.34 2651.25,-298.34 2651.25,-342.34"/>
<text xml:space="preserve" text-anchor="start" x="2508.25" y="-328.84" font-family="Helvetica,sans-Serif" font-size="10.00">editeurpanovisu.Gestionnaire</text>
<text xml:space="preserve" text-anchor="start" x="2508.25" y="-316.84" font-family="Helvetica,sans-Serif" font-size="10.00">InterfaceController.afficheBarre</text>
<text xml:space="preserve" text-anchor="middle" x="2575.75" y="-304.84" font-family="Helvetica,sans-Serif" font-size="10.00">Personnalisee</text>
</a>
</g>
</g>
<!-- Node1&#45;&gt;Node2 -->
<g id="edge1_Node000001_Node000002" class="edge">
<title>Node1&#45;&gt;Node2</title>
<g id="a_edge1_Node000001_Node000002"><a xlink:title=" ">
<path fill="none" stroke="#63b8ff" d="M2682.98,-320.34C2672.48,-320.34 2661.9,-320.34 2651.69,-320.34"/>
<polygon fill="#63b8ff" stroke="#63b8ff" points="2682.81,-323.84 2692.81,-320.34 2682.81,-316.84 2682.81,-323.84"/>
</a>
</g>
</g>
<!-- Node12 -->
<g id="Node000012" class="node">
<title>Node12</title>
<g id="a_Node000012"><a xlink:href="classediteurpanovisu_1_1EditeurPanovisu.html#a94e36b9e9d09ab1a4c852b8a8cefa927" target="_top" xlink:title=" ">
<polygon fill="white" stroke="#666666" points="647.25,-248.34 456.5,-248.34 456.5,-216.34 647.25,-216.34 647.25,-248.34"/>
<text xml:space="preserve" text-anchor="start" x="464.5" y="-234.84" font-family="Helvetica,sans-Serif" font-size="10.00">editeurpanovisu.EditeurPanovisu.genere</text>
<text xml:space="preserve" text-anchor="middle" x="551.88" y="-222.84" font-family="Helvetica,sans-Serif" font-size="10.00">Visite</text>
</a>
</g>
</g>
<!-- Node1&#45;&gt;Node12 -->
<g id="edge43_Node000001_Node000012" class="edge">
<title>Node1&#45;&gt;Node12</title>
<g id="a_edge43_Node000001_Node000012"><a xlink:title=" ">
<path fill="none" stroke="#63b8ff" d="M2725.49,-347.72C2647.01,-386.12 2493.22,-451.34 2354.12,-451.34 2354.12,-451.34 2354.12,-451.34 1035.88,-451.34 839.76,-451.34 635.62,-299.73 572.58,-248.8"/>
<polygon fill="#63b8ff" stroke="#63b8ff" points="2726.83,-350.96 2734.24,-343.38 2723.73,-344.68 2726.83,-350.96"/>
</a>
</g>
</g>
<!-- Node25 -->
<g id="Node000025" class="node">
<title>Node25</title>
<g id="a_Node000025"><a xlink:href="classediteurpanovisu_1_1GestionnaireInterfaceController.html#ab66509c63a85a8285a081b24049e8774" target="_top" xlink:title=" ">
<polygon fill="white" stroke="#666666" points="2658.75,-170.34 2492.75,-170.34 2492.75,-138.34 2658.75,-138.34 2658.75,-170.34"/>
<text xml:space="preserve" text-anchor="start" x="2500.75" y="-156.84" font-family="Helvetica,sans-Serif" font-size="10.00">editeurpanovisu.Gestionnaire</text>
<text xml:space="preserve" text-anchor="middle" x="2575.75" y="-144.84" font-family="Helvetica,sans-Serif" font-size="10.00">InterfaceController.strGetTemplate</text>
</a>
</g>
</g>
<!-- Node1&#45;&gt;Node25 -->
<g id="edge44_Node000001_Node000025" class="edge">
<title>Node1&#45;&gt;Node25</title>
<g id="a_edge44_Node000001_Node000025"><a xlink:title=" ">
<path fill="none" stroke="#63b8ff" d="M2742.12,-290.83C2699.64,-255.77 2630.29,-198.53 2596.5,-170.64"/>
<polygon fill="#63b8ff" stroke="#63b8ff" points="2739.64,-293.33 2749.58,-296.99 2744.1,-287.93 2739.64,-293.33"/>
</a>
</g>
</g>
<!-- Node3 -->
<g id="Node000003" class="node">
<title>Node3</title>
<g id="a_Node000003"><a xlink:href="classediteurpanovisu_1_1GestionnaireInterfaceController.html#a5bdd1505c1ad1eee506c2618c9368994" target="_top" xlink:title=" ">
<polygon fill="white" stroke="#666666" points="2437.62,-303.34 2268.62,-303.34 2268.62,-271.34 2437.62,-271.34 2437.62,-303.34"/>
<text xml:space="preserve" text-anchor="start" x="2276.62" y="-289.84" font-family="Helvetica,sans-Serif" font-size="10.00">editeurpanovisu.Gestionnaire</text>
<text xml:space="preserve" text-anchor="middle" x="2353.12" y="-277.84" font-family="Helvetica,sans-Serif" font-size="10.00">InterfaceController.afficheVignettes</text>
</a>
</g>
</g>
<!-- Node2&#45;&gt;Node3 -->
<g id="edge2_Node000002_Node000003" class="edge">
<title>Node2&#45;&gt;Node3</title>
<g id="a_edge2_Node000002_Node000003"><a xlink:title=" ">
<path fill="none" stroke="#63b8ff" d="M2489.12,-307.53C2472.28,-305.02 2454.63,-302.38 2437.85,-299.87"/>
<polygon fill="#63b8ff" stroke="#63b8ff" points="2488.15,-310.93 2498.56,-308.95 2489.19,-304.01 2488.15,-310.93"/>
</a>
</g>
</g>
<!-- Node19 -->
<g id="Node000019" class="node">
<title>Node19</title>
<g id="a_Node000019"><a xlink:href="classediteurpanovisu_1_1GestionnaireInterfaceController.html#ac7fa988dc99d8684686127a2269cd66e" target="_top" xlink:title=" ">
<polygon fill="white" stroke="#666666" points="2000.62,-407.34 1844.38,-407.34 1844.38,-375.34 2000.62,-375.34 2000.62,-407.34"/>
<text xml:space="preserve" text-anchor="start" x="1852.38" y="-393.84" font-family="Helvetica,sans-Serif" font-size="10.00">editeurpanovisu.Gestionnaire</text>
<text xml:space="preserve" text-anchor="middle" x="1922.5" y="-381.84" font-family="Helvetica,sans-Serif" font-size="10.00">InterfaceController.creeInterface</text>
</a>
</g>
</g>
<!-- Node2&#45;&gt;Node19 -->
<g id="edge42_Node000002_Node000019" class="edge">
<title>Node2&#45;&gt;Node19</title>
<g id="a_edge42_Node000002_Node000019"><a xlink:title=" ">
<path fill="none" stroke="#63b8ff" d="M2529.09,-348.38C2507.89,-359.91 2481.86,-372.01 2456.75,-378.34 2298.71,-418.18 2105.93,-409.38 2000.88,-400"/>
<polygon fill="#63b8ff" stroke="#63b8ff" points="2530.73,-351.47 2537.76,-343.54 2527.32,-345.36 2530.73,-351.47"/>
</a>
</g>
</g>
<!-- Node23 -->
<g id="Node000023" class="node">
<title>Node23</title>
<g id="a_Node000023"><a xlink:href="classediteurpanovisu_1_1GestionnaireInterfaceController.html#a6c3ac6b8d3a669f9952954530cc27e52" target="_top" xlink:title=" ">
<polygon fill="white" stroke="#666666" points="2429,-234.34 2277.25,-234.34 2277.25,-190.34 2429,-190.34 2429,-234.34"/>
<text xml:space="preserve" text-anchor="start" x="2285.25" y="-220.84" font-family="Helvetica,sans-Serif" font-size="10.00">editeurpanovisu.Gestionnaire</text>
<text xml:space="preserve" text-anchor="start" x="2285.25" y="-208.84" font-family="Helvetica,sans-Serif" font-size="10.00">InterfaceController.chargeBarre</text>
<text xml:space="preserve" text-anchor="middle" x="2353.12" y="-196.84" font-family="Helvetica,sans-Serif" font-size="10.00">Personnalisee</text>
</a>
</g>
</g>
<!-- Node2&#45;&gt;Node23 -->
<g id="edge38_Node000002_Node000023" class="edge">
<title>Node2&#45;&gt;Node23</title>
<g id="a_edge38_Node000002_Node000023"><a xlink:title=" ">
<path fill="none" stroke="#63b8ff" d="M2518.8,-292.79C2499.18,-283.15 2477,-272.25 2456.75,-262.34 2438.33,-253.33 2418.02,-243.43 2400.38,-234.83"/>
<polygon fill="#63b8ff" stroke="#63b8ff" points="2517.22,-295.92 2527.74,-297.19 2520.31,-289.64 2517.22,-295.92"/>
</a>
</g>
</g>
<!-- Node24 -->
<g id="Node000024" class="node">
<title>Node24</title>
<g id="a_Node000024"><a xlink:href="classediteurpanovisu_1_1GestionnaireInterfaceController.html#af830b49c8951d0b3c694aeba5f49d518" target="_top" xlink:title=" ">
<polygon fill="white" stroke="#666666" points="2456.75,-369.34 2249.5,-369.34 2249.5,-337.34 2456.75,-337.34 2456.75,-369.34"/>
<text xml:space="preserve" text-anchor="start" x="2257.5" y="-355.84" font-family="Helvetica,sans-Serif" font-size="10.00">editeurpanovisu.Gestionnaire</text>
<text xml:space="preserve" text-anchor="middle" x="2353.12" y="-343.84" font-family="Helvetica,sans-Serif" font-size="10.00">InterfaceController.choixBarrePersonnalisee</text>
</a>
</g>
</g>
<!-- Node2&#45;&gt;Node24 -->
<g id="edge40_Node000002_Node000024" class="edge">
<title>Node2&#45;&gt;Node24</title>
<g id="a_edge40_Node000002_Node000024"><a xlink:title=" ">
<path fill="none" stroke="#63b8ff" d="M2488.84,-333.19C2478.37,-334.76 2467.6,-336.37 2456.92,-337.97"/>
<polygon fill="#63b8ff" stroke="#63b8ff" points="2489.19,-336.68 2498.56,-331.74 2488.15,-329.76 2489.19,-336.68"/>
</a>
</g>
</g>
<!-- Node4 -->
<g id="Node000004" class="node">
<title>Node4</title>
<g id="a_Node000004"><a xlink:href="classediteurpanovisu_1_1GestionnaireInterfaceController.html#a55c8afda208674955a13d48d02be41b8" target="_top" xlink:title=" ">
<polygon fill="white" stroke="#666666" points="2213.5,-209.34 2046,-209.34 2046,-177.34 2213.5,-177.34 2213.5,-209.34"/>
<text xml:space="preserve" text-anchor="start" x="2054" y="-195.84" font-family="Helvetica,sans-Serif" font-size="10.00">editeurpanovisu.Gestionnaire</text>
<text xml:space="preserve" text-anchor="middle" x="2129.75" y="-183.84" font-family="Helvetica,sans-Serif" font-size="10.00">InterfaceController.afficheTemplate</text>
</a>
</g>
</g>
<!-- Node3&#45;&gt;Node4 -->
<g id="edge3_Node000003_Node000004" class="edge">
<title>Node3&#45;&gt;Node4</title>
<g id="a_edge3_Node000003_Node000004"><a xlink:title=" ">
<path fill="none" stroke="#63b8ff" d="M2298.23,-266.65C2282.22,-259.86 2264.87,-251.86 2249.5,-243.34 2232.46,-233.9 2231.04,-226.82 2213.5,-218.34 2207.01,-215.21 2200.05,-212.37 2193.02,-209.83"/>
<polygon fill="#63b8ff" stroke="#63b8ff" points="2296.54,-269.73 2307.11,-270.34 2299.22,-263.27 2296.54,-269.73"/>
</a>
</g>
</g>
<!-- Node18 -->
<g id="Node000018" class="node">
<title>Node18</title>
<g id="a_Node000018"><a xlink:href="classediteurpanovisu_1_1GestionnaireInterfaceController.html#a8c634f775c31c1a4db22d5ef0659f7e4" target="_top" xlink:title=" ">
<polygon fill="white" stroke="#666666" points="2203.38,-347.34 2056.12,-347.34 2056.12,-315.34 2203.38,-315.34 2203.38,-347.34"/>
<text xml:space="preserve" text-anchor="start" x="2064.12" y="-333.84" font-family="Helvetica,sans-Serif" font-size="10.00">editeurpanovisu.Gestionnaire</text>
<text xml:space="preserve" text-anchor="middle" x="2129.75" y="-321.84" font-family="Helvetica,sans-Serif" font-size="10.00">InterfaceController.afficheTitre</text>
</a>
</g>
</g>
<!-- Node3&#45;&gt;Node18 -->
<g id="edge29_Node000003_Node000018" class="edge">
<title>Node3&#45;&gt;Node18</title>
<g id="a_edge29_Node000003_Node000018"><a xlink:title=" ">
<path fill="none" stroke="#63b8ff" d="M2258.12,-306.03C2239.87,-309.65 2221.01,-313.4 2203.57,-316.87"/>
<polygon fill="#63b8ff" stroke="#63b8ff" points="2258.77,-309.47 2267.89,-304.08 2257.4,-302.6 2258.77,-309.47"/>
</a>
</g>
</g>
<!-- Node3&#45;&gt;Node19 -->
<g id="edge31_Node000003_Node000019" class="edge">
<title>Node3&#45;&gt;Node19</title>
<g id="a_edge31_Node000003_Node000019"><a xlink:title=" ">
<path fill="none" stroke="#63b8ff" d="M2257.08,-272.16C2193.19,-266.78 2109.4,-269.48 2046,-306.34 2020.74,-321.03 2033.03,-343.37 2010,-361.34 2003.11,-366.72 1995.18,-371.17 1986.99,-374.85"/>
<polygon fill="#63b8ff" stroke="#63b8ff" points="2256.58,-275.63 2266.86,-273.07 2257.22,-268.66 2256.58,-275.63"/>
</a>
</g>
</g>
<!-- Node20 -->
<g id="Node000020" class="node">
<title>Node20</title>
<g id="a_Node000020"><a xlink:href="classediteurpanovisu_1_1GestionnaireInterfaceController.html#a568c34e865fb653f63b8fa7a9a9cafc8" target="_top" xlink:title=" ">
<polygon fill="white" stroke="#666666" points="2200.75,-259.34 2058.75,-259.34 2058.75,-227.34 2200.75,-227.34 2200.75,-259.34"/>
<text xml:space="preserve" text-anchor="start" x="2066.75" y="-245.84" font-family="Helvetica,sans-Serif" font-size="10.00">editeurpanovisu.Gestionnaire</text>
<text xml:space="preserve" text-anchor="middle" x="2129.75" y="-233.84" font-family="Helvetica,sans-Serif" font-size="10.00">InterfaceController.rafraichit</text>
</a>
</g>
</g>
<!-- Node3&#45;&gt;Node20 -->
<g id="edge32_Node000003_Node000020" class="edge">
<title>Node3&#45;&gt;Node20</title>
<g id="a_edge32_Node000003_Node000020"><a xlink:title=" ">
<path fill="none" stroke="#63b8ff" d="M2258.2,-268.67C2239.05,-264.87 2219.22,-260.93 2201.07,-257.32"/>
<polygon fill="#63b8ff" stroke="#63b8ff" points="2257.4,-272.08 2267.89,-270.6 2258.77,-265.22 2257.4,-272.08"/>
</a>
</g>
</g>
<!-- Node5 -->
<g id="Node000005" class="node">
<title>Node5</title>
<g id="a_Node000005"><a xlink:href="classediteurpanovisu_1_1EditeurPanovisu.html#a87b29dc258cfc67370b1f27809e91b8e" target="_top" xlink:title=" ">
<polygon fill="white" stroke="#666666" points="2010,-209.34 1835,-209.34 1835,-177.34 2010,-177.34 2010,-209.34"/>
<text xml:space="preserve" text-anchor="start" x="1843" y="-195.84" font-family="Helvetica,sans-Serif" font-size="10.00">editeurpanovisu.EditeurPanovisu.tsk</text>
<text xml:space="preserve" text-anchor="middle" x="1922.5" y="-183.84" font-family="Helvetica,sans-Serif" font-size="10.00">AnalyseFichierPVU</text>
</a>
</g>
</g>
<!-- Node4&#45;&gt;Node5 -->
<g id="edge4_Node000004_Node000005" class="edge">
<title>Node4&#45;&gt;Node5</title>
<g id="a_edge4_Node000004_Node000005"><a xlink:title=" ">
<path fill="none" stroke="#63b8ff" d="M2034.1,-193.34C2026.23,-193.34 2018.29,-193.34 2010.48,-193.34"/>
<polygon fill="#63b8ff" stroke="#63b8ff" points="2034.05,-196.84 2044.05,-193.34 2034.05,-189.84 2034.05,-196.84"/>
</a>
</g>
</g>
<!-- Node6 -->
<g id="Node000006" class="node">
<title>Node6</title>
<g id="a_Node000006"><a xlink:href="classediteurpanovisu_1_1EditeurPanovisu.html#ab4beb1597b660a4a253befc6e76f1c54" target="_top" xlink:title=" ">
<polygon fill="white" stroke="#666666" points="1129.62,-95.34 944.12,-95.34 944.12,-63.34 1129.62,-63.34 1129.62,-95.34"/>
<text xml:space="preserve" text-anchor="start" x="952.12" y="-81.84" font-family="Helvetica,sans-Serif" font-size="10.00">editeurpanovisu.EditeurPanovisu.projet</text>
<text xml:space="preserve" text-anchor="middle" x="1036.88" y="-69.84" font-family="Helvetica,sans-Serif" font-size="10.00">Charge</text>
</a>
</g>
</g>
<!-- Node5&#45;&gt;Node6 -->
<g id="edge5_Node000005_Node000006" class="edge">
<title>Node5&#45;&gt;Node6</title>
<g id="a_edge5_Node000005_Node000006"><a xlink:title=" ">
<path fill="none" stroke="#63b8ff" d="M1833.23,-174.69C1821.74,-172.45 1810.1,-170.28 1799,-168.34 1701.01,-151.28 1676.27,-148.06 1577.5,-136.34 1396.1,-114.83 1349.64,-119.97 1168.25,-98.34 1155.87,-96.87 1142.85,-95.16 1130.03,-93.38"/>
<polygon fill="#63b8ff" stroke="#63b8ff" points="1832.22,-178.06 1842.71,-176.57 1833.57,-171.19 1832.22,-178.06"/>
</a>
</g>
</g>
<!-- Node9 -->
<g id="Node000009" class="node">
<title>Node9</title>
<g id="a_Node000009"><a xlink:href="classediteurpanovisu_1_1EditeurPanovisu.html#a6d19b4d885ee6fcec827b91956295732" target="_top" xlink:title=" ">
<polygon fill="white" stroke="#666666" points="1799,-209.34 1613.5,-209.34 1613.5,-177.34 1799,-177.34 1799,-209.34"/>
<text xml:space="preserve" text-anchor="start" x="1621.5" y="-195.84" font-family="Helvetica,sans-Serif" font-size="10.00">editeurpanovisu.EditeurPanovisu.projet</text>
<text xml:space="preserve" text-anchor="middle" x="1706.25" y="-183.84" font-family="Helvetica,sans-Serif" font-size="10.00">ChargeNom</text>
</a>
</g>
</g>
<!-- Node5&#45;&gt;Node9 -->
<g id="edge8_Node000005_Node000009" class="edge">
<title>Node5&#45;&gt;Node9</title>
<g id="a_edge8_Node000005_Node000009"><a xlink:title=" ">
<path fill="none" stroke="#63b8ff" d="M1823.16,-193.34C1815.26,-193.34 1807.3,-193.34 1799.45,-193.34"/>
<polygon fill="#63b8ff" stroke="#63b8ff" points="1823.15,-196.84 1833.15,-193.34 1823.15,-189.84 1823.15,-196.84"/>
</a>
</g>
</g>
<!-- Node7 -->
<g id="Node000007" class="node">
<title>Node7</title>
<g id="a_Node000007"><a xlink:href="classediteurpanovisu_1_1EditeurPanovisu.html#ac912b80c1f2ac97def60ff005c5c480b" target="_top" xlink:title=" ">
<polygon fill="white" stroke="#666666" points="420.5,-222.34 216.25,-222.34 216.25,-202.34 420.5,-202.34 420.5,-222.34"/>
<text xml:space="preserve" text-anchor="middle" x="318.38" y="-208.84" font-family="Helvetica,sans-Serif" font-size="10.00">editeurpanovisu.EditeurPanovisu.creeMenu</text>
</a>
</g>
</g>
<!-- Node6&#45;&gt;Node7 -->
<g id="edge6_Node000006_Node000007" class="edge">
<title>Node6&#45;&gt;Node7</title>
<g id="a_edge6_Node000006_Node000007"><a xlink:title=" ">
<path fill="none" stroke="#63b8ff" d="M932.57,-66.97C813.83,-56.71 614.95,-51.86 456.5,-109.34 401.08,-129.45 349.36,-180.07 328.77,-201.97"/>
<polygon fill="#63b8ff" stroke="#63b8ff" points="932.03,-70.43 942.3,-67.84 932.65,-63.46 932.03,-70.43"/>
</a>
</g>
</g>
<!-- Node8 -->
<g id="Node000008" class="node">
<title>Node8</title>
<g id="a_Node000008"><a xlink:href="classediteurpanovisu_1_1EditeurPanovisu.html#a86c393eee88f54c694db994ddd85b90d" target="_top" xlink:title=" ">
<polygon fill="white" stroke="#666666" points="180.25,-228.34 0,-228.34 0,-196.34 180.25,-196.34 180.25,-228.34"/>
<text xml:space="preserve" text-anchor="start" x="8" y="-214.84" font-family="Helvetica,sans-Serif" font-size="10.00">editeurpanovisu.EditeurPanovisu.cree</text>
<text xml:space="preserve" text-anchor="middle" x="90.12" y="-202.84" font-family="Helvetica,sans-Serif" font-size="10.00">Environnement</text>
</a>
</g>
</g>
<!-- Node7&#45;&gt;Node8 -->
<g id="edge7_Node000007_Node000008" class="edge">
<title>Node7&#45;&gt;Node8</title>
<g id="a_edge7_Node000007_Node000008"><a xlink:title=" ">
<path fill="none" stroke="#63b8ff" d="M204.51,-212.34C196.49,-212.34 188.46,-212.34 180.6,-212.34"/>
<polygon fill="#63b8ff" stroke="#63b8ff" points="204.32,-215.84 214.32,-212.34 204.32,-208.84 204.32,-215.84"/>
</a>
</g>
</g>
<!-- Node9&#45;&gt;Node7 -->
<g id="edge28_Node000009_Node000007" class="edge">
<title>Node9&#45;&gt;Node7</title>
<g id="a_edge28_Node000009_Node000007"><a xlink:title=" ">
<path fill="none" stroke="#63b8ff" d="M1611.53,-212.03C1479.44,-239.19 1245.94,-290.46 1168.25,-328.34 1150.03,-337.23 1151.42,-349.76 1132.25,-356.34 943.02,-421.27 881.34,-352.33 683.25,-324.34 582.21,-310.07 552.98,-321.58 456.5,-288.34 408.63,-271.85 357.94,-239.2 333.79,-222.58"/>
<polygon fill="#63b8ff" stroke="#63b8ff" points="1611.85,-215.54 1620.94,-210.1 1610.44,-208.68 1611.85,-215.54"/>
</a>
</g>
</g>
<!-- Node10 -->
<g id="Node000010" class="node">
<title>Node10</title>
<g id="a_Node000010"><a xlink:href="classediteurpanovisu_1_1EditeurPanovisu.html#af0d1c32bb78acbff561c822a0d15f760" target="_top" xlink:title=" ">
<polygon fill="white" stroke="#666666" points="1577.5,-177.34 1389.75,-177.34 1389.75,-145.34 1577.5,-145.34 1577.5,-177.34"/>
<text xml:space="preserve" text-anchor="start" x="1397.75" y="-163.84" font-family="Helvetica,sans-Serif" font-size="10.00">editeurpanovisu.EditeurPanovisu.ajoute</text>
<text xml:space="preserve" text-anchor="middle" x="1483.62" y="-151.84" font-family="Helvetica,sans-Serif" font-size="10.00">FichierHisto</text>
</a>
</g>
</g>
<!-- Node9&#45;&gt;Node10 -->
<g id="edge9_Node000009_Node000010" class="edge">
<title>Node9&#45;&gt;Node10</title>
<g id="a_edge9_Node000009_Node000010"><a xlink:title=" ">
<path fill="none" stroke="#63b8ff" d="M1624.09,-175.04C1609.03,-172.62 1593.18,-170.28 1577.79,-168.18"/>
<polygon fill="#63b8ff" stroke="#63b8ff" points="1623.52,-178.49 1633.95,-176.65 1624.64,-171.58 1623.52,-178.49"/>
</a>
</g>
</g>
<!-- Node10&#45;&gt;Node6 -->
<g id="edge10_Node000010_Node000006" class="edge">
<title>Node10&#45;&gt;Node6</title>
<g id="a_edge10_Node000010_Node000006"><a xlink:title=" ">
<path fill="none" stroke="#63b8ff" d="M1378.14,-163.08C1315.77,-161.26 1235.82,-153.87 1168.25,-131.34 1150.46,-125.41 1149.31,-117.13 1132.25,-109.34 1121.15,-104.27 1108.94,-99.71 1097.1,-95.76"/>
<polygon fill="#63b8ff" stroke="#63b8ff" points="1377.98,-166.57 1388.06,-163.31 1378.14,-159.57 1377.98,-166.57"/>
</a>
</g>
</g>
<!-- Node10&#45;&gt;Node9 -->
<g id="edge11_Node000010_Node000009" class="edge">
<title>Node10&#45;&gt;Node9</title>
<g id="a_edge11_Node000010_Node000009"><a xlink:title=" ">
<path fill="none" stroke="#63b8ff" d="M1565.7,-179.64C1581.18,-182.11 1597.49,-184.52 1613.28,-186.67"/>
<polygon fill="#63b8ff" stroke="#63b8ff" points="1566.52,-176.22 1556.08,-178.07 1565.39,-183.13 1566.52,-176.22"/>
</a>
</g>
</g>
<!-- Node11 -->
<g id="Node000011" class="node">
<title>Node11</title>
<g id="a_Node000011"><a xlink:href="classediteurpanovisu_1_1EditeurPanovisu.html#a9f3ea25b35d4884524508dab3dc4fd6a" target="_top" xlink:title=" ">
<polygon fill="white" stroke="#666666" points="1353.75,-215.34 1168.25,-215.34 1168.25,-183.34 1353.75,-183.34 1353.75,-215.34"/>
<text xml:space="preserve" text-anchor="start" x="1176.25" y="-201.84" font-family="Helvetica,sans-Serif" font-size="10.00">editeurpanovisu.EditeurPanovisu.projet</text>
<text xml:space="preserve" text-anchor="middle" x="1261" y="-189.84" font-family="Helvetica,sans-Serif" font-size="10.00">Sauve</text>
</a>
</g>
</g>
<!-- Node10&#45;&gt;Node11 -->
<g id="edge12_Node000010_Node000011" class="edge">
<title>Node10&#45;&gt;Node11</title>
<g id="a_edge12_Node000010_Node000011"><a xlink:title=" ">
<path fill="none" stroke="#63b8ff" d="M1378.13,-179.34C1370.14,-180.72 1362.11,-182.1 1354.21,-183.46"/>
<polygon fill="#63b8ff" stroke="#63b8ff" points="1378.63,-182.81 1387.89,-177.66 1377.44,-175.91 1378.63,-182.81"/>
</a>
</g>
</g>
<!-- Node17 -->
<g id="Node000017" class="node">
<title>Node17</title>
<g id="a_Node000017"><a xlink:href="classediteurpanovisu_1_1EditeurPanovisu.html#a7b2e25dc717eb52b62e23d54ec4c124a" target="_top" xlink:title=" ">
<polygon fill="white" stroke="#666666" points="1353.75,-89.34 1168.25,-89.34 1168.25,-57.34 1353.75,-57.34 1353.75,-89.34"/>
<text xml:space="preserve" text-anchor="start" x="1176.25" y="-75.84" font-family="Helvetica,sans-Serif" font-size="10.00">editeurpanovisu.EditeurPanovisu.projet</text>
<text xml:space="preserve" text-anchor="middle" x="1261" y="-63.84" font-family="Helvetica,sans-Serif" font-size="10.00">SauveSous</text>
</a>
</g>
</g>
<!-- Node10&#45;&gt;Node17 -->
<g id="edge26_Node000010_Node000017" class="edge">
<title>Node10&#45;&gt;Node17</title>
<g id="a_edge26_Node000010_Node000017"><a xlink:title=" ">
<path fill="none" stroke="#63b8ff" d="M1430.78,-140.66C1391.8,-125.11 1339.11,-104.1 1303.04,-89.71"/>
<polygon fill="#63b8ff" stroke="#63b8ff" points="1429.39,-143.88 1439.98,-144.33 1431.99,-137.38 1429.39,-143.88"/>
</a>
</g>
</g>
<!-- Node11&#45;&gt;Node6 -->
<g id="edge16_Node000011_Node000006" class="edge">
<title>Node11&#45;&gt;Node6</title>
<g id="a_edge16_Node000011_Node000006"><a xlink:title=" ">
<path fill="none" stroke="#63b8ff" d="M1180.95,-177.83C1176.47,-175.3 1172.19,-172.48 1168.25,-169.34 1143.94,-149.95 1156.64,-128.63 1132.25,-109.34 1125.37,-103.9 1117.49,-99.44 1109.27,-95.78"/>
<polygon fill="#63b8ff" stroke="#63b8ff" points="1179.19,-180.86 1189.7,-182.22 1182.33,-174.6 1179.19,-180.86"/>
</a>
</g>
</g>
<!-- Node11&#45;&gt;Node7 -->
<g id="edge13_Node000011_Node000007" class="edge">
<title>Node11&#45;&gt;Node7</title>
<g id="a_edge13_Node000011_Node000007"><a xlink:title=" ">
<path fill="none" stroke="#63b8ff" d="M1178.12,-180.53C1031.64,-149.96 715.77,-98.1 456.5,-152.34 410.97,-161.87 362.07,-187.41 336.77,-201.91"/>
<polygon fill="#63b8ff" stroke="#63b8ff" points="1177.23,-183.92 1187.74,-182.56 1178.68,-177.07 1177.23,-183.92"/>
</a>
</g>
</g>
<!-- Node11&#45;&gt;Node9 -->
<g id="edge17_Node000011_Node000009" class="edge">
<title>Node11&#45;&gt;Node9</title>
<g id="a_edge17_Node000011_Node000009"><a xlink:title=" ">
<path fill="none" stroke="#63b8ff" d="M1365.33,-197.94C1440.33,-196.93 1540.88,-195.57 1613.14,-194.59"/>
<polygon fill="#63b8ff" stroke="#63b8ff" points="1365.46,-194.44 1355.51,-198.08 1365.55,-201.44 1365.46,-194.44"/>
</a>
</g>
</g>
<!-- Node11&#45;&gt;Node12 -->
<g id="edge14_Node000011_Node000012" class="edge">
<title>Node11&#45;&gt;Node12</title>
<g id="a_edge14_Node000011_Node000012"><a xlink:title=" ">
<path fill="none" stroke="#63b8ff" d="M1156.72,-200.44C1041.22,-202.21 848.64,-206.75 683.25,-218.34 671.67,-219.15 659.53,-220.2 647.51,-221.35"/>
<polygon fill="#63b8ff" stroke="#63b8ff" points="1156.53,-203.95 1166.48,-200.3 1156.43,-196.95 1156.53,-203.95"/>
</a>
</g>
</g>
<!-- Node13 -->
<g id="Node000013" class="node">
<title>Node13</title>
<g id="a_Node000013"><a xlink:href="classediteurpanovisu_1_1EditeurPanovisu.html#a9b46b222714af12c06ec33d410400773" target="_top" xlink:title=" ">
<polygon fill="white" stroke="#666666" points="647.25,-193.34 456.5,-193.34 456.5,-161.34 647.25,-161.34 647.25,-193.34"/>
<text xml:space="preserve" text-anchor="start" x="464.5" y="-179.84" font-family="Helvetica,sans-Serif" font-size="10.00">editeurpanovisu.EditeurPanovisu.projets</text>
<text xml:space="preserve" text-anchor="middle" x="551.88" y="-167.84" font-family="Helvetica,sans-Serif" font-size="10.00">Fermer</text>
</a>
</g>
</g>
<!-- Node11&#45;&gt;Node13 -->
<g id="edge18_Node000011_Node000013" class="edge">
<title>Node11&#45;&gt;Node13</title>
<g id="a_edge18_Node000011_Node000013"><a xlink:title=" ">
<path fill="none" stroke="#63b8ff" d="M1156.71,-187.17C1148.44,-186.46 1140.21,-185.83 1132.25,-185.34 961.69,-174.84 762.37,-174.76 647.56,-175.88"/>
<polygon fill="#63b8ff" stroke="#63b8ff" points="1156.2,-190.64 1166.47,-188.06 1156.83,-183.67 1156.2,-190.64"/>
</a>
</g>
</g>
<!-- Node14 -->
<g id="Node000014" class="node">
<title>Node14</title>
<g id="a_Node000014"><a xlink:href="classediteurpanovisu_1_1EditeurPanovisu.html#ac9d449399ccd38843fa12e716f0c9611" target="_top" xlink:title=" ">
<polygon fill="white" stroke="#666666" points="1132.25,-347.34 941.5,-347.34 941.5,-315.34 1132.25,-315.34 1132.25,-347.34"/>
<text xml:space="preserve" text-anchor="start" x="949.5" y="-333.84" font-family="Helvetica,sans-Serif" font-size="10.00">editeurpanovisu.EditeurPanovisu.projets</text>
<text xml:space="preserve" text-anchor="middle" x="1036.88" y="-321.84" font-family="Helvetica,sans-Serif" font-size="10.00">Nouveau</text>
</a>
</g>
</g>
<!-- Node11&#45;&gt;Node14 -->
<g id="edge20_Node000011_Node000014" class="edge">
<title>Node11&#45;&gt;Node14</title>
<g id="a_edge20_Node000011_Node000014"><a xlink:title=" ">
<path fill="none" stroke="#63b8ff" d="M1237.37,-223.75C1213.48,-248.11 1173.61,-284.91 1132.25,-306.34 1125.93,-309.62 1119.14,-312.49 1112.21,-315.01"/>
<polygon fill="#63b8ff" stroke="#63b8ff" points="1239.66,-226.42 1244.08,-216.79 1234.62,-221.56 1239.66,-226.42"/>
</a>
</g>
</g>
<!-- Node15 -->
<g id="Node000015" class="node">
<title>Node15</title>
<g id="a_Node000015"><a xlink:href="classediteurpanovisu_1_1EditeurPanovisu.html#a2b3125ffe2e6291efacf19df6cb30a8d" target="_top" xlink:title=" ">
<polygon fill="white" stroke="#666666" points="884.88,-247.34 703.88,-247.34 703.88,-227.34 884.88,-227.34 884.88,-247.34"/>
<text xml:space="preserve" text-anchor="middle" x="794.38" y="-233.84" font-family="Helvetica,sans-Serif" font-size="10.00">editeurpanovisu.EditeurPanovisu.start</text>
</a>
</g>
</g>
<!-- Node11&#45;&gt;Node15 -->
<g id="edge25_Node000011_Node000015" class="edge">
<title>Node11&#45;&gt;Node15</title>
<g id="a_edge25_Node000011_Node000015"><a xlink:title=" ">
<path fill="none" stroke="#63b8ff" d="M1156.67,-211.01C1148.41,-211.83 1140.19,-212.62 1132.25,-213.34 1048.6,-220.9 953.08,-227.52 885.17,-231.88"/>
<polygon fill="#63b8ff" stroke="#63b8ff" points="1156.84,-214.51 1166.43,-210.01 1156.12,-207.54 1156.84,-214.51"/>
</a>
</g>
</g>
<!-- Node16 -->
<g id="Node000016" class="node">
<title>Node16</title>
<g id="a_Node000016"><a xlink:href="classediteurpanovisu_1_1EditeurPanovisu.html#aef8c9b28c3e88d6e27e3f62b9a901134" target="_top" xlink:title=" ">
<polygon fill="white" stroke="#666666" points="1130.75,-297.34 943,-297.34 943,-265.34 1130.75,-265.34 1130.75,-297.34"/>
<text xml:space="preserve" text-anchor="start" x="951" y="-283.84" font-family="Helvetica,sans-Serif" font-size="10.00">editeurpanovisu.EditeurPanovisu.sauve</text>
<text xml:space="preserve" text-anchor="middle" x="1036.88" y="-271.84" font-family="Helvetica,sans-Serif" font-size="10.00">Fichiers</text>
</a>
</g>
</g>
<!-- Node11&#45;&gt;Node16 -->
<g id="edge24_Node000011_Node000016" class="edge">
<title>Node11&#45;&gt;Node16</title>
<g id="a_edge24_Node000011_Node000016"><a xlink:title=" ">
<path fill="none" stroke="#63b8ff" d="M1211.25,-220.24C1187.58,-230.12 1158.61,-241.8 1132.25,-251.34 1119.32,-256.02 1105.25,-260.71 1092.02,-264.94"/>
<polygon fill="#63b8ff" stroke="#63b8ff" points="1212.47,-223.52 1220.34,-216.43 1209.76,-217.07 1212.47,-223.52"/>
</a>
</g>
</g>
<!-- Node12&#45;&gt;Node7 -->
<g id="edge15_Node000012_Node000007" class="edge">
<title>Node12&#45;&gt;Node7</title>
<g id="a_edge15_Node000012_Node000007"><a xlink:title=" ">
<path fill="none" stroke="#63b8ff" d="M444.81,-223.18C436.83,-222.49 428.78,-221.79 420.83,-221.11"/>
<polygon fill="#63b8ff" stroke="#63b8ff" points="444.28,-226.65 454.54,-224.02 444.88,-219.67 444.28,-226.65"/>
</a>
</g>
</g>
<!-- Node13&#45;&gt;Node7 -->
<g id="edge19_Node000013_Node000007" class="edge">
<title>Node13&#45;&gt;Node7</title>
<g id="a_edge19_Node000013_Node000007"><a xlink:title=" ">
<path fill="none" stroke="#63b8ff" d="M444.85,-193.37C425.74,-196.26 406.27,-199.21 388.54,-201.88"/>
<polygon fill="#63b8ff" stroke="#63b8ff" points="445.19,-196.86 454.55,-191.91 444.14,-189.94 445.19,-196.86"/>
</a>
</g>
</g>
<!-- Node14&#45;&gt;Node7 -->
<g id="edge21_Node000014_Node000007" class="edge">
<title>Node14&#45;&gt;Node7</title>
<g id="a_edge21_Node000014_Node000007"><a xlink:title=" ">
<path fill="none" stroke="#63b8ff" d="M929.66,-323.87C812.66,-314.22 619.47,-294.14 456.5,-257.34 417.27,-248.49 373.33,-233.05 346.01,-222.76"/>
<polygon fill="#63b8ff" stroke="#63b8ff" points="929.33,-327.35 939.58,-324.67 929.9,-320.37 929.33,-327.35"/>
</a>
</g>
</g>
<!-- Node14&#45;&gt;Node15 -->
<g id="edge22_Node000014_Node000015" class="edge">
<title>Node14&#45;&gt;Node15</title>
<g id="a_edge22_Node000014_Node000015"><a xlink:title=" ">
<path fill="none" stroke="#63b8ff" d="M956.84,-311.56C951.62,-309.9 946.46,-308.15 941.5,-306.34 928.98,-301.77 854.55,-265.98 817.01,-247.83"/>
<polygon fill="#63b8ff" stroke="#63b8ff" points="955.59,-314.84 966.18,-314.41 957.64,-308.14 955.59,-314.84"/>
</a>
</g>
</g>
<!-- Node15&#45;&gt;Node12 -->
<g id="edge23_Node000015_Node000012" class="edge">
<title>Node15&#45;&gt;Node12</title>
<g id="a_edge23_Node000015_Node000012"><a xlink:title=" ">
<path fill="none" stroke="#63b8ff" d="M692.23,-235.24C677.4,-234.93 662.18,-234.62 647.49,-234.31"/>
<polygon fill="#63b8ff" stroke="#63b8ff" points="691.9,-238.73 701.97,-235.44 692.04,-231.74 691.9,-238.73"/>
</a>
</g>
</g>
<!-- Node17&#45;&gt;Node7 -->
<g id="edge27_Node000017_Node000007" class="edge">
<title>Node17&#45;&gt;Node7</title>
<g id="a_edge27_Node000017_Node000007"><a xlink:title=" ">
<path fill="none" stroke="#63b8ff" d="M1191.97,-54.03C1048.31,-17.1 706.68,50.21 456.5,-64.34 390.26,-94.67 341.13,-173.42 325.04,-201.88"/>
<polygon fill="#63b8ff" stroke="#63b8ff" points="1190.77,-57.33 1201.33,-56.47 1192.53,-50.56 1190.77,-57.33"/>
</a>
</g>
</g>
<!-- Node18&#45;&gt;Node19 -->
<g id="edge30_Node000018_Node000019" class="edge">
<title>Node18&#45;&gt;Node19</title>
<g id="a_edge30_Node000018_Node000019"><a xlink:title=" ">
<path fill="none" stroke="#63b8ff" d="M2061.67,-350.95C2035.17,-358.7 2005.06,-367.5 1979.73,-374.9"/>
<polygon fill="#63b8ff" stroke="#63b8ff" points="2062.32,-354.41 2070.94,-348.24 2060.36,-347.69 2062.32,-354.41"/>
</a>
</g>
</g>
<!-- Node20&#45;&gt;Node5 -->
<g id="edge33_Node000020_Node000005" class="edge">
<title>Node20&#45;&gt;Node5</title>
<g id="a_edge33_Node000020_Node000005"><a xlink:title=" ">
<path fill="none" stroke="#63b8ff" d="M2050.25,-224.22C2030.73,-219.46 2009.97,-214.41 1991.03,-209.79"/>
<polygon fill="#63b8ff" stroke="#63b8ff" points="2049.24,-227.58 2059.79,-226.54 2050.9,-220.78 2049.24,-227.58"/>
</a>
</g>
</g>
<!-- Node21 -->
<g id="Node000021" class="node">
<title>Node21</title>
<g id="a_Node000021"><a xlink:href="classediteurpanovisu_1_1EditeurPanovisu.html#a53cccf6a6b2693c872947460b66ae8ee" target="_top" xlink:title=" ">
<polygon fill="white" stroke="#666666" points="1348.5,-369.34 1173.5,-369.34 1173.5,-337.34 1348.5,-337.34 1348.5,-369.34"/>
<text xml:space="preserve" text-anchor="start" x="1181.5" y="-355.84" font-family="Helvetica,sans-Serif" font-size="10.00">editeurpanovisu.EditeurPanovisu.tsk</text>
<text xml:space="preserve" text-anchor="middle" x="1261" y="-343.84" font-family="Helvetica,sans-Serif" font-size="10.00">ChargeListeFichiers</text>
</a>
</g>
</g>
<!-- Node20&#45;&gt;Node21 -->
<g id="edge34_Node000020_Node000021" class="edge">
<title>Node20&#45;&gt;Node21</title>
<g id="a_edge34_Node000020_Node000021"><a xlink:title=" ">
<path fill="none" stroke="#63b8ff" d="M2047.34,-256.44C1939.93,-273.42 1744.89,-303.25 1577.5,-323.34 1500.34,-332.6 1412.27,-340.78 1348.83,-346.25"/>
<polygon fill="#63b8ff" stroke="#63b8ff" points="2047.59,-259.94 2056.92,-254.92 2046.49,-253.03 2047.59,-259.94"/>
</a>
</g>
</g>
<!-- Node21&#45;&gt;Node14 -->
<g id="edge37_Node000021_Node000014" class="edge">
<title>Node21&#45;&gt;Node14</title>
<g id="a_edge37_Node000021_Node000014"><a xlink:title=" ">
<path fill="none" stroke="#63b8ff" d="M1161.88,-343.62C1152.2,-342.67 1142.38,-341.69 1132.73,-340.74"/>
<polygon fill="#63b8ff" stroke="#63b8ff" points="1161.36,-347.09 1171.66,-344.59 1162.05,-340.12 1161.36,-347.09"/>
</a>
</g>
</g>
<!-- Node22 -->
<g id="Node000022" class="node">
<title>Node22</title>
<g id="a_Node000022"><a xlink:href="classediteurpanovisu_1_1EditeurPanovisu.html#a924d3ccff3e4f402d2309cd2eade3237" target="_top" xlink:title=" ">
<polygon fill="white" stroke="#666666" points="905.5,-511.34 683.25,-511.34 683.25,-479.34 905.5,-479.34 905.5,-511.34"/>
<text xml:space="preserve" text-anchor="start" x="691.25" y="-497.84" font-family="Helvetica,sans-Serif" font-size="10.00">editeurpanovisu.EditeurPanovisu.panoramiques</text>
<text xml:space="preserve" text-anchor="middle" x="794.38" y="-485.84" font-family="Helvetica,sans-Serif" font-size="10.00">Ajouter</text>
</a>
</g>
</g>
<!-- Node21&#45;&gt;Node22 -->
<g id="edge35_Node000021_Node000022" class="edge">
<title>Node21&#45;&gt;Node22</title>
<g id="a_edge35_Node000021_Node000022"><a xlink:title=" ">
<path fill="none" stroke="#63b8ff" d="M1195.38,-373.09C1103.13,-401.28 935.36,-452.56 849.36,-478.84"/>
<polygon fill="#63b8ff" stroke="#63b8ff" points="1196.26,-376.48 1204.8,-370.21 1194.21,-369.79 1196.26,-376.48"/>
</a>
</g>
</g>
<!-- Node22&#45;&gt;Node7 -->
<g id="edge36_Node000022_Node000007" class="edge">
<title>Node22&#45;&gt;Node7</title>
<g id="a_edge36_Node000022_Node000007"><a xlink:title=" ">
<path fill="none" stroke="#63b8ff" d="M673.11,-476.47C604.86,-461.33 520.54,-434.83 456.5,-389.34 389.63,-341.85 339.84,-252.4 324.4,-222.42"/>
<polygon fill="#63b8ff" stroke="#63b8ff" points="672.37,-479.88 682.88,-478.57 673.84,-473.04 672.37,-479.88"/>
</a>
</g>
</g>
<!-- Node23&#45;&gt;Node4 -->
<g id="edge39_Node000023_Node000004" class="edge">
<title>Node23&#45;&gt;Node4</title>
<g id="a_edge39_Node000023_Node000004"><a xlink:title=" ">
<path fill="none" stroke="#63b8ff" d="M2265.77,-204.93C2248.67,-203.46 2230.76,-201.93 2213.77,-200.47"/>
<polygon fill="#63b8ff" stroke="#63b8ff" points="2265.1,-208.39 2275.36,-205.75 2265.7,-201.41 2265.1,-208.39"/>
</a>
</g>
</g>
<!-- Node24&#45;&gt;Node19 -->
<g id="edge41_Node000024_Node000019" class="edge">
<title>Node24&#45;&gt;Node19</title>
<g id="a_edge41_Node000024_Node000019"><a xlink:title=" ">
<path fill="none" stroke="#63b8ff" d="M2237.83,-363.48C2162.98,-370.11 2067.14,-378.61 2001.08,-384.47"/>
<polygon fill="#63b8ff" stroke="#63b8ff" points="2238.03,-366.97 2247.68,-362.6 2237.41,-360 2238.03,-366.97"/>
</a>
</g>
</g>
<!-- Node26 -->
<g id="Node000026" class="node">
<title>Node26</title>
<g id="a_Node000026"><a xlink:href="classediteurpanovisu_1_1EditeurPanovisu.html#aaee69ab54364f89b58458c744a4195c0" target="_top" xlink:title=" ">
<polygon fill="white" stroke="#666666" points="1577.5,-89.34 1389.75,-89.34 1389.75,-57.34 1577.5,-57.34 1577.5,-89.34"/>
<text xml:space="preserve" text-anchor="start" x="1397.75" y="-75.84" font-family="Helvetica,sans-Serif" font-size="10.00">editeurpanovisu.EditeurPanovisu.sauve</text>
<text xml:space="preserve" text-anchor="middle" x="1483.62" y="-63.84" font-family="Helvetica,sans-Serif" font-size="10.00">FichierProjet</text>
</a>
</g>
</g>
<!-- Node25&#45;&gt;Node26 -->
<g id="edge45_Node000025_Node000026" class="edge">
<title>Node25&#45;&gt;Node26</title>
<g id="a_edge45_Node000025_Node000026"><a xlink:title=" ">
<path fill="none" stroke="#63b8ff" d="M2507.22,-134.93C2420.74,-111.83 2265.9,-76.34 2130.75,-76.34 2130.75,-76.34 2130.75,-76.34 1921.5,-76.34 1802.99,-76.34 1666.39,-75.23 1577.94,-74.35"/>
<polygon fill="#63b8ff" stroke="#63b8ff" points="2506.16,-138.27 2516.72,-137.5 2507.98,-131.52 2506.16,-138.27"/>
</a>
</g>
</g>
<!-- Node26&#45;&gt;Node11 -->
<g id="edge46_Node000026_Node000011" class="edge">
<title>Node26&#45;&gt;Node11</title>
<g id="a_edge46_Node000026_Node000011"><a xlink:title=" ">
<path fill="none" stroke="#63b8ff" d="M1443.8,-95.52C1400.07,-120.49 1330,-160.51 1290.85,-182.87"/>
<polygon fill="#63b8ff" stroke="#63b8ff" points="1445.52,-98.56 1452.47,-90.57 1442.05,-92.49 1445.52,-98.56"/>
</a>
</g>
</g>
<!-- Node26&#45;&gt;Node17 -->
<g id="edge47_Node000026_Node000017" class="edge">
<title>Node26&#45;&gt;Node17</title>
<g id="a_edge47_Node000026_Node000017"><a xlink:title=" ">
<path fill="none" stroke="#63b8ff" d="M1378.13,-73.34C1370.14,-73.34 1362.11,-73.34 1354.21,-73.34"/>
<polygon fill="#63b8ff" stroke="#63b8ff" points="1377.87,-76.84 1387.87,-73.34 1377.87,-69.84 1377.87,-76.84"/>
</a>
</g>
</g>
</g>
</svg>

<g id="navigator" transform="translate(0 0)" fill="#404254">
  <rect fill="#f2f5e9" fill-opacity="0.5" stroke="#606060" stroke-width=".5" x="0" y="0" width="60" height="60"/>
  <use id="zoomplus" xlink:href="#zoomPlus" x="17" y="9" onmousedown="handleZoom(evt,'in')"/>
  <use id="zoomminus" xlink:href="#zoomMin" x="42" y="9" onmousedown="handleZoom(evt,'out')"/>
  <use id="reset" xlink:href="#resetDef" x="30" y="36" onmousedown="handleReset()"/>
   <use id="arrowup" xlink:href="#arrowUp" x="0" y="0" onmousedown="handlePan(0,-1)"/>
  <use id="arrowright" xlink:href="#arrowRight" x="0" y="0" onmousedown="handlePan(1,0)"/>
  <use id="arrowdown" xlink:href="#arrowDown" x="0" y="0" onmousedown="handlePan(0,1)"/>
  <use id="arrowleft" xlink:href="#arrowLeft" x="0" y="0" onmousedown="handlePan(-1,0)"/>
</g>
<svg viewBox="0 0 15 15" width="100%" height="30px" preserveAspectRatio="xMaxYMin meet">
 <g id="arrow_out" transform="scale(0.3 0.3)">
  <a xlink:href="classediteurpanovisu_1_1GestionnaireInterfaceController_a0fe16fbbd8f752d78d7fafde902c4502_icgraph_org.svg" target="_base">
   <rect id="button" ry="5" rx="5" y="6" x="6" height="38" width="38"
        fill="#f2f5e9" fill-opacity="0.5" stroke="#606060" stroke-width="1.0"/>
   <path id="arrow"
     d="M 11.500037,31.436501 C 11.940474,20.09759 22.043105,11.32322 32.158766,21.979434 L 37.068811,17.246167 C 37.068811,17.246167 37.088388,32 37.088388,32 L 22.160133,31.978069 C 22.160133,31.978069 26.997745,27.140456 26.997745,27.140456 C 18.528582,18.264221 13.291696,25.230495 11.500037,31.436501 z"
     style="fill:#404040;"/>
  </a>
 </g>
</svg>

<style type='text/css'>
<![CDATA[
[data-mouse-over-selected='false'] { opacity: 0.7; }
[data-mouse-over-selected='true']  { opacity: 1.0; }
]]>
</style>
<script type="application/ecmascript"><![CDATA[
document.addEventListener('DOMContentLoaded', (event) => {
  highlightEdges();
  highlightAdjacentNodes();
});
]]></script>
</svg>
