<?xml version="1.0" encoding="UTF-8" standalone="no"?>
<!DOCTYPE svg PUBLIC "-//W3C//DTD SVG 1.1//EN"
 "http://www.w3.org/Graphics/SVG/1.1/DTD/svg11.dtd">
<!-- Generated by graphviz version 13.1.2 (20250808.2320)
 -->
<!-- Title: editeurpanovisu.EditeurPanovisu.sauverBarre Pages: 1 -->
<svg width="426pt" height="178pt"
 viewBox="0.00 0.00 426.00 178.00" xmlns="http://www.w3.org/2000/svg" xmlns:xlink="http://www.w3.org/1999/xlink">

<svg id="main" version="1.1" xmlns="http://www.w3.org/2000/svg" xmlns:xlink="http://www.w3.org/1999/xlink" xml:space="preserve">

<style type="text/css"><![CDATA[
.node, .edge {opacity: 0.7;}
.node.selected, .edge.selected {opacity: 1;}
.edge:hover path { stroke: red; }
.edge:hover polygon { stroke: red; fill: red; }
]]></style>
<script type="application/ecmascript" xlink:href="svg.min.js"/>
<svg id="graph" class="graph">
<g id="graph0" class="graph" transform="scale(1 1) rotate(0) translate(4 174)">
<title>editeurpanovisu.EditeurPanovisu.sauverBarre</title>
<!-- Node1 -->
<g id="Node000001" class="node">
<title>Node1</title>
<g id="a_Node000001"><a xlink:title=" ">
<polygon fill="#999999" stroke="#666666" points="190.75,-95 0,-95 0,-63 190.75,-63 190.75,-95"/>
<text xml:space="preserve" text-anchor="start" x="8" y="-81.5" font-family="Helvetica,sans-Serif" font-size="10.00">editeurpanovisu.EditeurPanovisu.sauver</text>
<text xml:space="preserve" text-anchor="middle" x="95.38" y="-69.5" font-family="Helvetica,sans-Serif" font-size="10.00">Barre</text>
</a>
</g>
</g>
<!-- Node1&#45;&gt;Node1 -->
<g id="edge5_Node000001_Node000001" class="edge">
<title>Node1&#45;&gt;Node1</title>
<g id="a_edge5_Node000001_Node000001"><a xlink:title=" ">
<path fill="none" stroke="#63b8ff" d="M54.83,-95.44C47.26,-104.58 60.77,-113 95.38,-113 114.57,-113 127.27,-110.41 133.49,-106.54"/>
<polygon fill="#63b8ff" stroke="#63b8ff" points="136.88,-107.44 135.6,-96.92 130.04,-105.94 136.88,-107.44"/>
</a>
</g>
</g>
<!-- Node2 -->
<g id="Node000002" class="node">
<title>Node2</title>
<g id="a_Node000002"><a xlink:href="classediteurpanovisu_1_1ZoneTelecommande.html#a0f64c648f9559ce62bcc2c7f911e152b" target="_top" xlink:title=" ">
<polygon fill="white" stroke="#666666" points="418.25,-170 226.75,-170 226.75,-138 418.25,-138 418.25,-170"/>
<text xml:space="preserve" text-anchor="start" x="234.75" y="-156.5" font-family="Helvetica,sans-Serif" font-size="10.00">editeurpanovisu.ZoneTelecommande.get</text>
<text xml:space="preserve" text-anchor="middle" x="322.5" y="-144.5" font-family="Helvetica,sans-Serif" font-size="10.00">StrCoordonneesZone</text>
</a>
</g>
</g>
<!-- Node1&#45;&gt;Node2 -->
<g id="edge1_Node000001_Node000002" class="edge">
<title>Node1&#45;&gt;Node2</title>
<g id="a_edge1_Node000001_Node000002"><a xlink:title=" ">
<path fill="none" stroke="#63b8ff" d="M135.92,-95.45C161.56,-105.79 195.83,-119.03 226.75,-129 232.52,-130.86 238.52,-132.69 244.57,-134.45"/>
<polygon fill="#63b8ff" stroke="#63b8ff" points="243.45,-137.78 254.02,-137.15 245.37,-131.04 243.45,-137.78"/>
</a>
</g>
</g>
<!-- Node3 -->
<g id="Node000003" class="node">
<title>Node3</title>
<g id="a_Node000003"><a xlink:href="classediteurpanovisu_1_1ZoneTelecommande.html#a957b162f5d5a34f7521b0f79c77a37c8" target="_top" xlink:title=" ">
<polygon fill="white" stroke="#666666" points="418.25,-120 226.75,-120 226.75,-88 418.25,-88 418.25,-120"/>
<text xml:space="preserve" text-anchor="start" x="234.75" y="-106.5" font-family="Helvetica,sans-Serif" font-size="10.00">editeurpanovisu.ZoneTelecommande.get</text>
<text xml:space="preserve" text-anchor="middle" x="322.5" y="-94.5" font-family="Helvetica,sans-Serif" font-size="10.00">StrIdZone</text>
</a>
</g>
</g>
<!-- Node1&#45;&gt;Node3 -->
<g id="edge2_Node000001_Node000003" class="edge">
<title>Node1&#45;&gt;Node3</title>
<g id="a_edge2_Node000001_Node000003"><a xlink:title=" ">
<path fill="none" stroke="#63b8ff" d="M191.2,-89.53C199.12,-90.41 207.16,-91.3 215.16,-92.19"/>
<polygon fill="#63b8ff" stroke="#63b8ff" points="214.6,-95.65 224.92,-93.28 215.37,-88.69 214.6,-95.65"/>
</a>
</g>
</g>
<!-- Node4 -->
<g id="Node000004" class="node">
<title>Node4</title>
<g id="a_Node000004"><a xlink:href="classediteurpanovisu_1_1ZoneTelecommande.html#a5891adda23405e784b8f56effcb6b004" target="_top" xlink:title=" ">
<polygon fill="white" stroke="#666666" points="418.25,-70 226.75,-70 226.75,-38 418.25,-38 418.25,-70"/>
<text xml:space="preserve" text-anchor="start" x="234.75" y="-56.5" font-family="Helvetica,sans-Serif" font-size="10.00">editeurpanovisu.ZoneTelecommande.get</text>
<text xml:space="preserve" text-anchor="middle" x="322.5" y="-44.5" font-family="Helvetica,sans-Serif" font-size="10.00">StrTypeZone</text>
</a>
</g>
</g>
<!-- Node1&#45;&gt;Node4 -->
<g id="edge3_Node000001_Node000004" class="edge">
<title>Node1&#45;&gt;Node4</title>
<g id="a_edge3_Node000001_Node000004"><a xlink:title=" ">
<path fill="none" stroke="#63b8ff" d="M191.2,-68.47C199.12,-67.59 207.16,-66.7 215.16,-65.81"/>
<polygon fill="#63b8ff" stroke="#63b8ff" points="215.37,-69.31 224.92,-64.72 214.6,-62.35 215.37,-69.31"/>
</a>
</g>
</g>
<!-- Node5 -->
<g id="Node000005" class="node">
<title>Node5</title>
<g id="a_Node000005"><a xlink:href="leaflet_8js.html#a73aff07b65d7c0b09ccf6b4c4f1b7a9d" target="_top" xlink:title=" ">
<polygon fill="white" stroke="#666666" points="336.9,-20 308.1,-20 308.1,0 336.9,0 336.9,-20"/>
<text xml:space="preserve" text-anchor="middle" x="322.5" y="-6.5" font-family="Helvetica,sans-Serif" font-size="10.00">i</text>
</a>
</g>
</g>
<!-- Node1&#45;&gt;Node5 -->
<g id="edge4_Node000001_Node000005" class="edge">
<title>Node1&#45;&gt;Node5</title>
<g id="a_edge4_Node000001_Node000005"><a xlink:title=" ">
<path fill="none" stroke="#63b8ff" d="M134.3,-62.51C160.01,-51.81 194.97,-38.21 226.75,-29 250.13,-22.23 277.43,-17.03 296.71,-13.8"/>
<polygon fill="#63b8ff" stroke="#63b8ff" points="297.03,-17.29 306.34,-12.24 295.91,-10.38 297.03,-17.29"/>
</a>
</g>
</g>
</g>
</svg>
</svg>

<style type='text/css'>
<![CDATA[
[data-mouse-over-selected='false'] { opacity: 0.7; }
[data-mouse-over-selected='true']  { opacity: 1.0; }
]]>
</style>
<script type="application/ecmascript"><![CDATA[
document.addEventListener('DOMContentLoaded', (event) => {
  highlightEdges();
  highlightAdjacentNodes();
});
]]></script>
</svg>
