<?xml version="1.0" encoding="UTF-8" standalone="no"?>
<!DOCTYPE svg PUBLIC "-//W3C//DTD SVG 1.1//EN"
 "http://www.w3.org/Graphics/SVG/1.1/DTD/svg11.dtd">
<!-- Generated by graphviz version 13.1.2 (20250808.2320)
 -->
<!-- Title: editeurpanovisu.EquiCubeDialogController.validerE2C Pages: 1 -->
<svg width="957pt" height="462pt"
 viewBox="0.00 0.00 957.00 462.00" xmlns="http://www.w3.org/2000/svg" xmlns:xlink="http://www.w3.org/1999/xlink">
<g id="graph0" class="graph" transform="scale(1 1) rotate(0) translate(4 458.42)">
<title>editeurpanovisu.EquiCubeDialogController.validerE2C</title>
<!-- Node1 -->
<g id="Node000001" class="node">
<title>Node1</title>
<g id="a_Node000001"><a xlink:title=" ">
<polygon fill="#999999" stroke="#666666" points="136.75,-254 0,-254 0,-222 136.75,-222 136.75,-254"/>
<text xml:space="preserve" text-anchor="start" x="8" y="-240.5" font-family="Helvetica,sans-Serif" font-size="10.00">editeurpanovisu.EquiCube</text>
<text xml:space="preserve" text-anchor="middle" x="68.38" y="-228.5" font-family="Helvetica,sans-Serif" font-size="10.00">DialogController.validerE2C</text>
</a>
</g>
</g>
<!-- Node2 -->
<g id="Node000002" class="node">
<title>Node2</title>
<g id="a_Node000002"><a xlink:href="classediteurpanovisu_1_1EquiCubeDialogController.html#a01c288eacc25996544414cc5e9ceb0a1" target="_top" xlink:title=" ">
<polygon fill="white" stroke="#666666" points="321.5,-254 172.75,-254 172.75,-222 321.5,-222 321.5,-254"/>
<text xml:space="preserve" text-anchor="start" x="180.75" y="-240.5" font-family="Helvetica,sans-Serif" font-size="10.00">editeurpanovisu.EquiCube</text>
<text xml:space="preserve" text-anchor="middle" x="247.12" y="-228.5" font-family="Helvetica,sans-Serif" font-size="10.00">DialogController.tskTraitement</text>
</a>
</g>
</g>
<!-- Node1&#45;&gt;Node2 -->
<g id="edge1_Node000001_Node000002" class="edge">
<title>Node1&#45;&gt;Node2</title>
<g id="a_edge1_Node000001_Node000002"><a xlink:title=" ">
<path fill="none" stroke="#63b8ff" d="M137.21,-238C145.01,-238 153.05,-238 161.05,-238"/>
<polygon fill="#63b8ff" stroke="#63b8ff" points="160.79,-241.5 170.79,-238 160.79,-234.5 160.79,-241.5"/>
</a>
</g>
</g>
<!-- Node3 -->
<g id="Node000003" class="node">
<title>Node3</title>
<g id="a_Node000003"><a xlink:href="leaflet_8js.html#a2ab7046ae25351b998b61260f82cabe8" target="_top" xlink:title=" ">
<polygon fill="white" stroke="#666666" points="441.77,-270 412.98,-270 412.98,-250 441.77,-250 441.77,-270"/>
<text xml:space="preserve" text-anchor="middle" x="427.38" y="-256.5" font-family="Helvetica,sans-Serif" font-size="10.00">ii</text>
</a>
</g>
</g>
<!-- Node2&#45;&gt;Node3 -->
<g id="edge2_Node000002_Node000003" class="edge">
<title>Node2&#45;&gt;Node3</title>
<g id="a_edge2_Node000002_Node000003"><a xlink:title=" ">
<path fill="none" stroke="#63b8ff" d="M321.91,-247.11C350.28,-250.61 380.79,-254.37 401.47,-256.93"/>
<polygon fill="#63b8ff" stroke="#63b8ff" points="400.83,-260.37 411.19,-258.13 401.69,-253.43 400.83,-260.37"/>
</a>
</g>
</g>
<!-- Node4 -->
<g id="Node000004" class="node">
<title>Node4</title>
<g id="a_Node000004"><a xlink:href="classediteurpanovisu_1_1EquiCubeDialogController.html#a859d7bcbdb37f828495100df8fa4f397" target="_top" xlink:title=" ">
<polygon fill="white" stroke="#666666" points="497.25,-232 357.5,-232 357.5,-200 497.25,-200 497.25,-232"/>
<text xml:space="preserve" text-anchor="start" x="365.5" y="-218.5" font-family="Helvetica,sans-Serif" font-size="10.00">editeurpanovisu.EquiCube</text>
<text xml:space="preserve" text-anchor="middle" x="427.38" y="-206.5" font-family="Helvetica,sans-Serif" font-size="10.00">DialogController.traiteFichier</text>
</a>
</g>
</g>
<!-- Node2&#45;&gt;Node4 -->
<g id="edge3_Node000002_Node000004" class="edge">
<title>Node2&#45;&gt;Node4</title>
<g id="a_edge3_Node000002_Node000004"><a xlink:title=" ">
<path fill="none" stroke="#63b8ff" d="M321.91,-228.89C329.85,-227.91 337.96,-226.91 345.98,-225.92"/>
<polygon fill="#63b8ff" stroke="#63b8ff" points="346.22,-229.42 355.72,-224.72 345.36,-222.47 346.22,-229.42"/>
</a>
</g>
</g>
<!-- Node5 -->
<g id="Node000005" class="node">
<title>Node5</title>
<g id="a_Node000005"><a xlink:href="classediteurpanovisu_1_1TransformationsPanoramique.html#a1996d35a9e7dcf6f2802baad590febb5" target="_top" xlink:title=" ">
<polygon fill="white" stroke="#666666" points="699.62,-320 541.88,-320 541.88,-288 699.62,-288 699.62,-320"/>
<text xml:space="preserve" text-anchor="start" x="549.88" y="-306.5" font-family="Helvetica,sans-Serif" font-size="10.00">editeurpanovisu.Transformations</text>
<text xml:space="preserve" text-anchor="middle" x="620.75" y="-294.5" font-family="Helvetica,sans-Serif" font-size="10.00">Panoramique.cube2rect</text>
</a>
</g>
</g>
<!-- Node4&#45;&gt;Node5 -->
<g id="edge4_Node000004_Node000005" class="edge">
<title>Node4&#45;&gt;Node5</title>
<g id="a_edge4_Node000004_Node000005"><a xlink:title=" ">
<path fill="none" stroke="#63b8ff" d="M480.55,-232.42C486.34,-234.98 492.03,-237.83 497.25,-241 515.81,-252.25 514.61,-262.88 533.25,-274 538.93,-277.39 545.06,-280.47 551.33,-283.26"/>
<polygon fill="#63b8ff" stroke="#63b8ff" points="549.99,-286.49 560.57,-287.08 552.67,-280.02 549.99,-286.49"/>
</a>
</g>
</g>
<!-- Node6 -->
<g id="Node000006" class="node">
<title>Node6</title>
<g id="a_Node000006"><a xlink:href="leaflet_8js.html#a73aff07b65d7c0b09ccf6b4c4f1b7a9d" target="_top" xlink:title=" ">
<polygon fill="white" stroke="#666666" points="948.8,-289 920,-289 920,-269 948.8,-269 948.8,-289"/>
<text xml:space="preserve" text-anchor="middle" x="934.4" y="-275.5" font-family="Helvetica,sans-Serif" font-size="10.00">i</text>
</a>
</g>
</g>
<!-- Node4&#45;&gt;Node6 -->
<g id="edge13_Node000004_Node000006" class="edge">
<title>Node4&#45;&gt;Node6</title>
<g id="a_edge13_Node000004_Node000006"><a xlink:title=" ">
<path fill="none" stroke="#63b8ff" d="M491.03,-232.44C504.86,-235.65 519.49,-238.72 533.25,-241 673.98,-264.34 845.1,-274.63 908.35,-277.84"/>
<polygon fill="#63b8ff" stroke="#63b8ff" points="908.17,-281.33 918.33,-278.32 908.51,-274.34 908.17,-281.33"/>
</a>
</g>
</g>
<!-- Node7 -->
<g id="Node000007" class="node">
<title>Node7</title>
<g id="a_Node000007"><a xlink:href="leaflet_8js.html#afa3c32d9f7f168b0e59ddc33ec31bb84" target="_top" xlink:title=" ">
<polygon fill="white" stroke="#666666" points="828.52,-346 799.73,-346 799.73,-326 828.52,-326 828.52,-346"/>
<text xml:space="preserve" text-anchor="middle" x="814.12" y="-332.5" font-family="Helvetica,sans-Serif" font-size="10.00">j</text>
</a>
</g>
</g>
<!-- Node4&#45;&gt;Node7 -->
<g id="edge14_Node000004_Node000007" class="edge">
<title>Node4&#45;&gt;Node7</title>
<g id="a_edge14_Node000004_Node000007"><a xlink:title=" ">
<path fill="none" stroke="#63b8ff" d="M485.9,-232.43C490,-234.9 493.86,-237.74 497.25,-241 527.72,-270.27 498.46,-305.01 533.25,-329 612.32,-383.53 736.08,-358.05 788.42,-343.58"/>
<polygon fill="#63b8ff" stroke="#63b8ff" points="789.21,-347 797.85,-340.87 787.27,-340.27 789.21,-347"/>
</a>
</g>
</g>
<!-- Node9 -->
<g id="Node000009" class="node">
<title>Node9</title>
<g id="a_Node000009"><a xlink:href="classediteurpanovisu_1_1TransformationsPanoramique.html#a0cc52e5ea8c62bf993d60216992d1993" target="_top" xlink:title=" ">
<polygon fill="white" stroke="#666666" points="699.62,-408 541.88,-408 541.88,-376 699.62,-376 699.62,-408"/>
<text xml:space="preserve" text-anchor="start" x="549.88" y="-394.5" font-family="Helvetica,sans-Serif" font-size="10.00">editeurpanovisu.Transformations</text>
<text xml:space="preserve" text-anchor="middle" x="620.75" y="-382.5" font-family="Helvetica,sans-Serif" font-size="10.00">Panoramique.equi2cube</text>
</a>
</g>
</g>
<!-- Node4&#45;&gt;Node9 -->
<g id="edge8_Node000004_Node000009" class="edge">
<title>Node4&#45;&gt;Node9</title>
<g id="a_edge8_Node000004_Node000009"><a xlink:title=" ">
<path fill="none" stroke="#63b8ff" d="M486.91,-232.48C490.69,-234.94 494.2,-237.76 497.25,-241 535.74,-281.83 494.47,-321.45 533.25,-362 535.97,-364.84 538.97,-367.42 542.18,-369.75"/>
<polygon fill="#63b8ff" stroke="#63b8ff" points="540.06,-372.55 550.39,-374.89 543.77,-366.62 540.06,-372.55"/>
</a>
</g>
</g>
<!-- Node11 -->
<g id="Node000011" class="node">
<title>Node11</title>
<g id="a_Node000011"><a xlink:href="classediteurpanovisu_1_1ReadWriteImage.html#ac16a47fd8d8c27b8be3304abb86b5f05" target="_top" xlink:title=" ">
<polygon fill="white" stroke="#666666" points="687.25,-132 554.25,-132 554.25,-100 687.25,-100 687.25,-132"/>
<text xml:space="preserve" text-anchor="start" x="562.25" y="-118.5" font-family="Helvetica,sans-Serif" font-size="10.00">editeurpanovisu.ReadWrite</text>
<text xml:space="preserve" text-anchor="middle" x="620.75" y="-106.5" font-family="Helvetica,sans-Serif" font-size="10.00">Image.readTiff</text>
</a>
</g>
</g>
<!-- Node4&#45;&gt;Node11 -->
<g id="edge15_Node000004_Node000011" class="edge">
<title>Node4&#45;&gt;Node11</title>
<g id="a_edge15_Node000004_Node000011"><a xlink:title=" ">
<path fill="none" stroke="#63b8ff" d="M446.84,-199.79C466.87,-182.96 500.41,-156.91 533.25,-141 536.56,-139.4 539.98,-137.88 543.48,-136.44"/>
<polygon fill="#63b8ff" stroke="#63b8ff" points="544.64,-139.75 552.73,-132.92 542.14,-133.21 544.64,-139.75"/>
</a>
</g>
</g>
<!-- Node12 -->
<g id="Node000012" class="node">
<title>Node12</title>
<g id="a_Node000012"><a xlink:href="classediteurpanovisu_1_1EditeurPanovisu.html#a54bb4a3d5ddcc81d0a59f84bda4830cf" target="_top" xlink:title=" ">
<polygon fill="white" stroke="#666666" points="708.25,-82 533.25,-82 533.25,-50 708.25,-50 708.25,-82"/>
<text xml:space="preserve" text-anchor="start" x="541.25" y="-68.5" font-family="Helvetica,sans-Serif" font-size="10.00">editeurpanovisu.EditeurPanovisu.set</text>
<text xml:space="preserve" text-anchor="middle" x="620.75" y="-56.5" font-family="Helvetica,sans-Serif" font-size="10.00">StrTypeFichierTransf</text>
</a>
</g>
</g>
<!-- Node4&#45;&gt;Node12 -->
<g id="edge16_Node000004_Node000012" class="edge">
<title>Node4&#45;&gt;Node12</title>
<g id="a_edge16_Node000004_Node000012"><a xlink:title=" ">
<path fill="none" stroke="#63b8ff" d="M437.71,-199.52C453.74,-172.71 489.09,-119.74 533.25,-91 535.12,-89.78 537.04,-88.63 539.02,-87.53"/>
<polygon fill="#63b8ff" stroke="#63b8ff" points="540.47,-90.71 547.88,-83.13 537.36,-84.44 540.47,-90.71"/>
</a>
</g>
</g>
<!-- Node13 -->
<g id="Node000013" class="node">
<title>Node13</title>
<g id="a_Node000013"><a xlink:href="classediteurpanovisu_1_1ReadWriteImage.html#a7b400a8c48ae7235834aacc7e1729893" target="_top" xlink:title=" ">
<polygon fill="white" stroke="#666666" points="687.25,-182 554.25,-182 554.25,-150 687.25,-150 687.25,-182"/>
<text xml:space="preserve" text-anchor="start" x="562.25" y="-168.5" font-family="Helvetica,sans-Serif" font-size="10.00">editeurpanovisu.ReadWrite</text>
<text xml:space="preserve" text-anchor="middle" x="620.75" y="-156.5" font-family="Helvetica,sans-Serif" font-size="10.00">Image.writeBMP</text>
</a>
</g>
</g>
<!-- Node4&#45;&gt;Node13 -->
<g id="edge17_Node000004_Node000013" class="edge">
<title>Node4&#45;&gt;Node13</title>
<g id="a_edge17_Node000004_Node000013"><a xlink:title=" ">
<path fill="none" stroke="#63b8ff" d="M491.3,-199.56C508.72,-195.01 527.77,-190.03 545.75,-185.33"/>
<polygon fill="#63b8ff" stroke="#63b8ff" points="546.53,-188.75 555.32,-182.83 544.76,-181.98 546.53,-188.75"/>
</a>
</g>
</g>
<!-- Node15 -->
<g id="Node000015" class="node">
<title>Node15</title>
<g id="a_Node000015"><a xlink:href="classediteurpanovisu_1_1ReadWriteImage.html#ac875b8819ddfbadc3482dab5e043f16b" target="_top" xlink:title=" ">
<polygon fill="white" stroke="#666666" points="687.25,-232 554.25,-232 554.25,-200 687.25,-200 687.25,-232"/>
<text xml:space="preserve" text-anchor="start" x="562.25" y="-218.5" font-family="Helvetica,sans-Serif" font-size="10.00">editeurpanovisu.ReadWrite</text>
<text xml:space="preserve" text-anchor="middle" x="620.75" y="-206.5" font-family="Helvetica,sans-Serif" font-size="10.00">Image.writeJpeg</text>
</a>
</g>
</g>
<!-- Node4&#45;&gt;Node15 -->
<g id="edge20_Node000004_Node000015" class="edge">
<title>Node4&#45;&gt;Node15</title>
<g id="a_edge20_Node000004_Node000015"><a xlink:title=" ">
<path fill="none" stroke="#63b8ff" d="M497.74,-216C512.31,-216 527.77,-216 542.61,-216"/>
<polygon fill="#63b8ff" stroke="#63b8ff" points="542.3,-219.5 552.3,-216 542.3,-212.5 542.3,-219.5"/>
</a>
</g>
</g>
<!-- Node16 -->
<g id="Node000016" class="node">
<title>Node16</title>
<g id="a_Node000016"><a xlink:href="classediteurpanovisu_1_1ReadWriteImage.html#a51b638334cf7682f0af306be38141133" target="_top" xlink:title=" ">
<polygon fill="white" stroke="#666666" points="687.25,-32 554.25,-32 554.25,0 687.25,0 687.25,-32"/>
<text xml:space="preserve" text-anchor="start" x="562.25" y="-18.5" font-family="Helvetica,sans-Serif" font-size="10.00">editeurpanovisu.ReadWrite</text>
<text xml:space="preserve" text-anchor="middle" x="620.75" y="-6.5" font-family="Helvetica,sans-Serif" font-size="10.00">Image.writeTiff</text>
</a>
</g>
</g>
<!-- Node4&#45;&gt;Node16 -->
<g id="edge22_Node000004_Node000016" class="edge">
<title>Node4&#45;&gt;Node16</title>
<g id="a_edge22_Node000004_Node000016"><a xlink:title=" ">
<path fill="none" stroke="#63b8ff" d="M433.53,-199.71C445.33,-165.07 477.68,-83.78 533.25,-41 536.54,-38.47 540.08,-36.19 543.78,-34.14"/>
<polygon fill="#63b8ff" stroke="#63b8ff" points="545.05,-37.42 552.53,-29.91 542,-31.12 545.05,-37.42"/>
</a>
</g>
</g>
<!-- Node5&#45;&gt;Node6 -->
<g id="edge5_Node000005_Node000006" class="edge">
<title>Node5&#45;&gt;Node6</title>
<g id="a_edge5_Node000005_Node000006"><a xlink:title=" ">
<path fill="none" stroke="#63b8ff" d="M699.99,-297.72C768.41,-292.24 863.61,-284.6 908.32,-281.01"/>
<polygon fill="#63b8ff" stroke="#63b8ff" points="908.57,-284.5 918.26,-280.21 908.01,-277.53 908.57,-284.5"/>
</a>
</g>
</g>
<!-- Node5&#45;&gt;Node7 -->
<g id="edge6_Node000005_Node000007" class="edge">
<title>Node5&#45;&gt;Node7</title>
<g id="a_edge6_Node000005_Node000007"><a xlink:title=" ">
<path fill="none" stroke="#63b8ff" d="M699.87,-317.06C731.43,-322.34 765.64,-328.06 788.11,-331.82"/>
<polygon fill="#63b8ff" stroke="#63b8ff" points="787.36,-335.24 797.8,-333.44 788.51,-328.34 787.36,-335.24"/>
</a>
</g>
</g>
<!-- Node8 -->
<g id="Node000008" class="node">
<title>Node8</title>
<g id="a_Node000008"><a xlink:href="leaflet_8js.html#a873cae0273c5a7d9673544bbe0a6fe8b" target="_top" xlink:title=" ">
<polygon fill="white" stroke="#666666" points="828.52,-384 799.73,-384 799.73,-364 828.52,-364 828.52,-384"/>
<text xml:space="preserve" text-anchor="middle" x="814.12" y="-370.5" font-family="Helvetica,sans-Serif" font-size="10.00">Y</text>
</a>
</g>
</g>
<!-- Node5&#45;&gt;Node8 -->
<g id="edge7_Node000005_Node000008" class="edge">
<title>Node5&#45;&gt;Node8</title>
<g id="a_edge7_Node000005_Node000008"><a xlink:title=" ">
<path fill="none" stroke="#63b8ff" d="M657.74,-320.38C681.91,-331.04 714.63,-344.79 744.25,-355 758.62,-359.95 775,-364.51 788.19,-367.93"/>
<polygon fill="#63b8ff" stroke="#63b8ff" points="787.23,-371.29 797.78,-370.35 788.94,-364.51 787.23,-371.29"/>
</a>
</g>
</g>
<!-- Node9&#45;&gt;Node6 -->
<g id="edge9_Node000009_Node000006" class="edge">
<title>Node9&#45;&gt;Node6</title>
<g id="a_edge9_Node000009_Node000006"><a xlink:title=" ">
<path fill="none" stroke="#63b8ff" d="M650.54,-408.47C702.48,-435.78 813.06,-482.54 884,-431 925.4,-400.92 932.79,-335.29 933.68,-300.94"/>
<polygon fill="#63b8ff" stroke="#63b8ff" points="937.18,-300.99 933.76,-290.96 930.18,-300.94 937.18,-300.99"/>
</a>
</g>
</g>
<!-- Node9&#45;&gt;Node7 -->
<g id="edge10_Node000009_Node000007" class="edge">
<title>Node9&#45;&gt;Node7</title>
<g id="a_edge10_Node000009_Node000007"><a xlink:title=" ">
<path fill="none" stroke="#63b8ff" d="M675.33,-375.51C696.74,-369 721.63,-361.54 744.25,-355 758.85,-350.78 775.25,-346.25 788.38,-342.67"/>
<polygon fill="#63b8ff" stroke="#63b8ff" points="789.18,-346.08 797.92,-340.08 787.35,-339.32 789.18,-346.08"/>
</a>
</g>
</g>
<!-- Node9&#45;&gt;Node8 -->
<g id="edge11_Node000009_Node000008" class="edge">
<title>Node9&#45;&gt;Node8</title>
<g id="a_edge11_Node000009_Node000008"><a xlink:title=" ">
<path fill="none" stroke="#63b8ff" d="M699.87,-384.65C731.43,-381.68 765.64,-378.47 788.11,-376.35"/>
<polygon fill="#63b8ff" stroke="#63b8ff" points="788.16,-379.86 797.78,-375.44 787.5,-372.89 788.16,-379.86"/>
</a>
</g>
</g>
<!-- Node10 -->
<g id="Node000010" class="node">
<title>Node10</title>
<g id="a_Node000010"><a xlink:href="leaflet_8js.html#a225602860fb21629c65836853697cc39" target="_top" xlink:title=" ">
<polygon fill="white" stroke="#666666" points="828.52,-422 799.73,-422 799.73,-402 828.52,-402 828.52,-422"/>
<text xml:space="preserve" text-anchor="middle" x="814.12" y="-408.5" font-family="Helvetica,sans-Serif" font-size="10.00">Z</text>
</a>
</g>
</g>
<!-- Node9&#45;&gt;Node10 -->
<g id="edge12_Node000009_Node000010" class="edge">
<title>Node9&#45;&gt;Node10</title>
<g id="a_edge12_Node000009_Node000010"><a xlink:title=" ">
<path fill="none" stroke="#63b8ff" d="M699.87,-400.16C731.43,-403.46 765.64,-407.04 788.11,-409.39"/>
<polygon fill="#63b8ff" stroke="#63b8ff" points="787.48,-412.84 797.79,-410.4 788.2,-405.88 787.48,-412.84"/>
</a>
</g>
</g>
<!-- Node14 -->
<g id="Node000014" class="node">
<title>Node14</title>
<g id="a_Node000014"><a xlink:href="classediteurpanovisu_1_1ReadWriteImage.html#ae93614e117cb7a4718f4ac3d5fd33c4e" target="_top" xlink:title=" ">
<polygon fill="white" stroke="#666666" points="884,-232 744.25,-232 744.25,-200 884,-200 884,-232"/>
<text xml:space="preserve" text-anchor="start" x="752.25" y="-218.5" font-family="Helvetica,sans-Serif" font-size="10.00">editeurpanovisu.ReadWrite</text>
<text xml:space="preserve" text-anchor="middle" x="814.12" y="-206.5" font-family="Helvetica,sans-Serif" font-size="10.00">Image.calculeSharpenMatrix</text>
</a>
</g>
</g>
<!-- Node13&#45;&gt;Node14 -->
<g id="edge18_Node000013_Node000014" class="edge">
<title>Node13&#45;&gt;Node14</title>
<g id="a_edge18_Node000013_Node000014"><a xlink:title=" ">
<path fill="none" stroke="#63b8ff" d="M684.68,-182.44C702.09,-186.99 721.15,-191.97 739.13,-196.67"/>
<polygon fill="#63b8ff" stroke="#63b8ff" points="738.13,-200.02 748.69,-199.17 739.9,-193.25 738.13,-200.02"/>
</a>
</g>
</g>
<!-- Node14&#45;&gt;Node6 -->
<g id="edge19_Node000014_Node000006" class="edge">
<title>Node14&#45;&gt;Node6</title>
<g id="a_edge19_Node000014_Node000006"><a xlink:title=" ">
<path fill="none" stroke="#63b8ff" d="M856.13,-232.43C865.44,-236.55 875.19,-241.19 884,-246 892.88,-250.85 902.21,-256.83 910.34,-262.36"/>
<polygon fill="#63b8ff" stroke="#63b8ff" points="908.1,-265.07 918.31,-267.91 912.11,-259.32 908.1,-265.07"/>
</a>
</g>
</g>
<!-- Node15&#45;&gt;Node14 -->
<g id="edge21_Node000015_Node000014" class="edge">
<title>Node15&#45;&gt;Node14</title>
<g id="a_edge21_Node000015_Node000014"><a xlink:title=" ">
<path fill="none" stroke="#63b8ff" d="M687.61,-216C702.09,-216 717.57,-216 732.55,-216"/>
<polygon fill="#63b8ff" stroke="#63b8ff" points="732.37,-219.5 742.37,-216 732.37,-212.5 732.37,-219.5"/>
</a>
</g>
</g>
</g>
</svg>
