<?xml version="1.0" encoding="UTF-8" standalone="no"?>
<!DOCTYPE svg PUBLIC "-//W3C//DTD SVG 1.1//EN"
 "http://www.w3.org/Graphics/SVG/1.1/DTD/svg11.dtd">
<!-- Generated by graphviz version 13.1.2 (20250808.2320)
 -->
<!-- Title: editeurpanovisu.ListePanoramiqueCellule Pages: 1 -->
<svg width="165pt" height="204pt"
 viewBox="0.00 0.00 165.00 204.00" xmlns="http://www.w3.org/2000/svg" xmlns:xlink="http://www.w3.org/1999/xlink">

<svg id="main" version="1.1" xmlns="http://www.w3.org/2000/svg" xmlns:xlink="http://www.w3.org/1999/xlink" xml:space="preserve">

<style type="text/css"><![CDATA[
.node, .edge {opacity: 0.7;}
.node.selected, .edge.selected {opacity: 1;}
.edge:hover path { stroke: red; }
.edge:hover polygon { stroke: red; fill: red; }
]]></style>
<script type="application/ecmascript" xlink:href="svg.min.js"/>
<svg id="graph" class="graph">
<g id="graph0" class="graph" transform="scale(1 1) rotate(0) translate(4 200)">
<title>editeurpanovisu.ListePanoramiqueCellule</title>
<!-- Node1 -->
<g id="Node000001" class="node">
<title>Node1</title>
<g id="a_Node000001"><a xlink:title=" ">
<polygon fill="#999999" stroke="none" points="157.25,-108 0,-108 0,0 157.25,0 157.25,-108"/>
<text xml:space="preserve" text-anchor="start" x="4" y="-94.5" font-family="Helvetica,sans-Serif" font-size="10.00">editeurpanovisu.ListePanoramique</text>
<text xml:space="preserve" text-anchor="start" x="63.62" y="-82.5" font-family="Helvetica,sans-Serif" font-size="10.00">Cellule</text>
<text xml:space="preserve" text-anchor="start" x="10.12" y="-66.5" font-family="Helvetica,sans-Serif" font-size="10.00">&#45;</text>
<text xml:space="preserve" text-anchor="start" x="23.25" y="-66.5" font-family="Helvetica,sans-Serif" font-size="10.00">final ImageView imageView</text>
<text xml:space="preserve" text-anchor="start" x="10.12" y="-50.5" font-family="Helvetica,sans-Serif" font-size="10.00">&#45;</text>
<text xml:space="preserve" text-anchor="start" x="23.25" y="-50.5" font-family="Helvetica,sans-Serif" font-size="10.00">int iCell</text>
<text xml:space="preserve" text-anchor="start" x="8.62" y="-34.5" font-family="Helvetica,sans-Serif" font-size="10.00">+</text>
<text xml:space="preserve" text-anchor="start" x="23.25" y="-34.5" font-family="Helvetica,sans-Serif" font-size="10.00">ListePanoramiqueCellule()</text>
<text xml:space="preserve" text-anchor="start" x="9" y="-18.5" font-family="Helvetica,sans-Serif" font-size="10.00">#</text>
<text xml:space="preserve" text-anchor="start" x="23.25" y="-18.5" font-family="Helvetica,sans-Serif" font-size="10.00">void updateItem(String</text>
<text xml:space="preserve" text-anchor="start" x="23.25" y="-6.5" font-family="Helvetica,sans-Serif" font-size="10.00"> item, boolean empty)</text>
<polygon fill="#666666" stroke="#666666" points="0,-78 0,-78 157.25,-78 157.25,-78 0,-78"/>
<polygon fill="#666666" stroke="#666666" points="0,-46 0,-46 21.25,-46 21.25,-46 0,-46"/>
<polygon fill="#666666" stroke="#666666" points="21.25,-46 21.25,-46 157.25,-46 157.25,-46 21.25,-46"/>
<polygon fill="none" stroke="#666666" points="0,0 0,-108 157.25,-108 157.25,0 0,0"/>
</a>
</g>
</g>
<!-- Node2 -->
<g id="Node000002" class="node">
<title>Node2</title>
<g id="a_Node000002"><a xlink:title=" ">
<polygon fill="white" stroke="none" points="120.88,-196 36.38,-196 36.38,-144 120.88,-144 120.88,-196"/>
<text xml:space="preserve" text-anchor="start" x="40.38" y="-182.5" font-family="Helvetica,sans-Serif" font-size="10.00">ListCell&lt; String &gt;</text>
<text xml:space="preserve" text-anchor="start" x="77.12" y="-166.5" font-family="Helvetica,sans-Serif" font-size="10.00"> </text>
<text xml:space="preserve" text-anchor="start" x="77.12" y="-150.5" font-family="Helvetica,sans-Serif" font-size="10.00"> </text>
<polygon fill="#666666" stroke="#666666" points="36.38,-178 36.38,-178 120.88,-178 120.88,-178 36.38,-178"/>
<polygon fill="#666666" stroke="#666666" points="36.38,-162 36.38,-162 120.88,-162 120.88,-162 36.38,-162"/>
<polygon fill="none" stroke="#666666" points="36.38,-144 36.38,-196 120.88,-196 120.88,-144 36.38,-144"/>
</a>
</g>
</g>
<!-- Node2&#45;&gt;Node1 -->
<g id="edge1_Node000001_Node000002" class="edge">
<title>Node2&#45;&gt;Node1</title>
<g id="a_edge1_Node000001_Node000002"><a xlink:title=" ">
<path fill="none" stroke="#63b8ff" d="M78.62,-132.77C78.62,-124.81 78.62,-116.23 78.62,-107.77"/>
<polygon fill="none" stroke="#63b8ff" points="75.13,-132.75 78.63,-142.75 82.13,-132.75 75.13,-132.75"/>
</a>
</g>
</g>
</g>
</svg>
</svg>

<style type='text/css'>
<![CDATA[
[data-mouse-over-selected='false'] { opacity: 0.7; }
[data-mouse-over-selected='true']  { opacity: 1.0; }
]]>
</style>
<script type="application/ecmascript"><![CDATA[
document.addEventListener('DOMContentLoaded', (event) => {
  highlightEdges();
  highlightAdjacentNodes();
});
]]></script>
</svg>
