<?xml version="1.0" encoding="UTF-8" standalone="no"?>
<!DOCTYPE svg PUBLIC "-//W3C//DTD SVG 1.1//EN"
 "http://www.w3.org/Graphics/SVG/1.1/DTD/svg11.dtd">
<!-- Generated by graphviz version 13.1.2 (20250808.2320)
 -->
<!-- Title: editeurpanovisu.EditeurPanovisu.setiAutoTourLimite Pages: 1 -->
<svg width="2195pt" height="401pt"
 viewBox="0.00 0.00 2195.00 401.00" xmlns="http://www.w3.org/2000/svg" xmlns:xlink="http://www.w3.org/1999/xlink">
<g id="graph0" class="graph" transform="scale(1 1) rotate(0) translate(4 396.74)">
<title>editeurpanovisu.EditeurPanovisu.setiAutoTourLimite</title>
<!-- Node1 -->
<g id="Node000001" class="node">
<title>Node1</title>
<g id="a_Node000001"><a xlink:title=" ">
<polygon fill="#999999" stroke="#666666" points="2186.5,-386.74 2009.25,-386.74 2009.25,-354.74 2186.5,-354.74 2186.5,-386.74"/>
<text xml:space="preserve" text-anchor="start" x="2017.25" y="-373.24" font-family="Helvetica,sans-Serif" font-size="10.00">editeurpanovisu.EditeurPanovisu.seti</text>
<text xml:space="preserve" text-anchor="middle" x="2097.88" y="-361.24" font-family="Helvetica,sans-Serif" font-size="10.00">AutoTourLimite</text>
</a>
</g>
</g>
<!-- Node2 -->
<g id="Node000002" class="node">
<title>Node2</title>
<g id="a_Node000002"><a xlink:href="classediteurpanovisu_1_1EditeurPanovisu.html#a86c393eee88f54c694db994ddd85b90d" target="_top" xlink:title=" ">
<polygon fill="white" stroke="#666666" points="180.25,-279.74 0,-279.74 0,-247.74 180.25,-247.74 180.25,-279.74"/>
<text xml:space="preserve" text-anchor="start" x="8" y="-266.24" font-family="Helvetica,sans-Serif" font-size="10.00">editeurpanovisu.EditeurPanovisu.cree</text>
<text xml:space="preserve" text-anchor="middle" x="90.12" y="-254.24" font-family="Helvetica,sans-Serif" font-size="10.00">Environnement</text>
</a>
</g>
</g>
<!-- Node1&#45;&gt;Node2 -->
<g id="edge1_Node000001_Node000002" class="edge">
<title>Node1&#45;&gt;Node2</title>
<g id="a_edge1_Node000001_Node000002"><a xlink:title=" ">
<path fill="none" stroke="#63b8ff" d="M1997.38,-378.78C1911.01,-385.07 1782.58,-392.74 1670.5,-392.74 1670.5,-392.74 1670.5,-392.74 550.88,-392.74 386.11,-392.74 200.07,-314.99 125.1,-280.21"/>
<polygon fill="#63b8ff" stroke="#63b8ff" points="1997.53,-382.28 2007.24,-378.06 1997.01,-375.3 1997.53,-382.28"/>
</a>
</g>
</g>
<!-- Node3 -->
<g id="Node000003" class="node">
<title>Node3</title>
<g id="a_Node000003"><a xlink:href="classediteurpanovisu_1_1EditeurPanovisu.html#a87b29dc258cfc67370b1f27809e91b8e" target="_top" xlink:title=" ">
<polygon fill="white" stroke="#666666" points="1973.25,-364.74 1798.25,-364.74 1798.25,-332.74 1973.25,-332.74 1973.25,-364.74"/>
<text xml:space="preserve" text-anchor="start" x="1806.25" y="-351.24" font-family="Helvetica,sans-Serif" font-size="10.00">editeurpanovisu.EditeurPanovisu.tsk</text>
<text xml:space="preserve" text-anchor="middle" x="1885.75" y="-339.24" font-family="Helvetica,sans-Serif" font-size="10.00">AnalyseFichierPVU</text>
</a>
</g>
</g>
<!-- Node1&#45;&gt;Node3 -->
<g id="edge2_Node000001_Node000003" class="edge">
<title>Node1&#45;&gt;Node3</title>
<g id="a_edge2_Node000001_Node000003"><a xlink:title=" ">
<path fill="none" stroke="#63b8ff" d="M1997.67,-360.35C1989.64,-359.51 1981.56,-358.67 1973.62,-357.84"/>
<polygon fill="#63b8ff" stroke="#63b8ff" points="1997.17,-363.82 2007.48,-361.38 1997.89,-356.86 1997.17,-363.82"/>
</a>
</g>
</g>
<!-- Node4 -->
<g id="Node000004" class="node">
<title>Node4</title>
<g id="a_Node000004"><a xlink:href="classediteurpanovisu_1_1EditeurPanovisu.html#ab4beb1597b660a4a253befc6e76f1c54" target="_top" xlink:title=" ">
<polygon fill="white" stroke="#666666" points="1092.88,-364.74 907.38,-364.74 907.38,-332.74 1092.88,-332.74 1092.88,-364.74"/>
<text xml:space="preserve" text-anchor="start" x="915.38" y="-351.24" font-family="Helvetica,sans-Serif" font-size="10.00">editeurpanovisu.EditeurPanovisu.projet</text>
<text xml:space="preserve" text-anchor="middle" x="1000.12" y="-339.24" font-family="Helvetica,sans-Serif" font-size="10.00">Charge</text>
</a>
</g>
</g>
<!-- Node3&#45;&gt;Node4 -->
<g id="edge3_Node000003_Node000004" class="edge">
<title>Node3&#45;&gt;Node4</title>
<g id="a_edge3_Node000003_Node000004"><a xlink:title=" ">
<path fill="none" stroke="#63b8ff" d="M1786.7,-348.74C1614.73,-348.74 1261.08,-348.74 1093.33,-348.74"/>
<polygon fill="#63b8ff" stroke="#63b8ff" points="1786.5,-352.24 1796.5,-348.74 1786.5,-345.24 1786.5,-352.24"/>
</a>
</g>
</g>
<!-- Node6 -->
<g id="Node000006" class="node">
<title>Node6</title>
<g id="a_Node000006"><a xlink:href="classediteurpanovisu_1_1EditeurPanovisu.html#a6d19b4d885ee6fcec827b91956295732" target="_top" xlink:title=" ">
<polygon fill="white" stroke="#666666" points="1762.25,-254.74 1576.75,-254.74 1576.75,-222.74 1762.25,-222.74 1762.25,-254.74"/>
<text xml:space="preserve" text-anchor="start" x="1584.75" y="-241.24" font-family="Helvetica,sans-Serif" font-size="10.00">editeurpanovisu.EditeurPanovisu.projet</text>
<text xml:space="preserve" text-anchor="middle" x="1669.5" y="-229.24" font-family="Helvetica,sans-Serif" font-size="10.00">ChargeNom</text>
</a>
</g>
</g>
<!-- Node3&#45;&gt;Node6 -->
<g id="edge6_Node000003_Node000006" class="edge">
<title>Node3&#45;&gt;Node6</title>
<g id="a_edge6_Node000003_Node000006"><a xlink:title=" ">
<path fill="none" stroke="#63b8ff" d="M1842.68,-327.14C1801.52,-306.01 1739.73,-274.28 1702.44,-255.14"/>
<polygon fill="#63b8ff" stroke="#63b8ff" points="1840.83,-330.13 1851.33,-331.58 1844.03,-323.9 1840.83,-330.13"/>
</a>
</g>
</g>
<!-- Node5 -->
<g id="Node000005" class="node">
<title>Node5</title>
<g id="a_Node000005"><a xlink:href="classediteurpanovisu_1_1EditeurPanovisu.html#ac912b80c1f2ac97def60ff005c5c480b" target="_top" xlink:title=" ">
<polygon fill="white" stroke="#666666" points="420.5,-166.74 216.25,-166.74 216.25,-146.74 420.5,-146.74 420.5,-166.74"/>
<text xml:space="preserve" text-anchor="middle" x="318.38" y="-153.24" font-family="Helvetica,sans-Serif" font-size="10.00">editeurpanovisu.EditeurPanovisu.creeMenu</text>
</a>
</g>
</g>
<!-- Node4&#45;&gt;Node5 -->
<g id="edge4_Node000004_Node000005" class="edge">
<title>Node4&#45;&gt;Node5</title>
<g id="a_edge4_Node000004_Node000005"><a xlink:title=" ">
<path fill="none" stroke="#63b8ff" d="M895.68,-342.44C783.69,-332.7 601.64,-308.28 456.5,-247.74 405.87,-226.62 354.05,-186 331.31,-167"/>
<polygon fill="#63b8ff" stroke="#63b8ff" points="895.2,-345.91 905.46,-343.27 895.79,-338.94 895.2,-345.91"/>
</a>
</g>
</g>
<!-- Node5&#45;&gt;Node2 -->
<g id="edge5_Node000005_Node000002" class="edge">
<title>Node5&#45;&gt;Node2</title>
<g id="a_edge5_Node000005_Node000002"><a xlink:title=" ">
<path fill="none" stroke="#63b8ff" d="M284.99,-172.06C242.75,-192.03 169.15,-226.84 125.8,-247.34"/>
<polygon fill="#63b8ff" stroke="#63b8ff" points="286.36,-175.28 293.9,-167.84 283.36,-168.95 286.36,-175.28"/>
</a>
</g>
</g>
<!-- Node6&#45;&gt;Node5 -->
<g id="edge26_Node000006_Node000005" class="edge">
<title>Node6&#45;&gt;Node5</title>
<g id="a_edge26_Node000006_Node000005"><a xlink:title=" ">
<path fill="none" stroke="#63b8ff" d="M1644.33,-214.67C1581.28,-154.58 1404.27,-2.74 1225.25,-2.74 1225.25,-2.74 1225.25,-2.74 775,-2.74 632.33,-2.74 587.39,14.03 456.5,-42.74 399.7,-67.38 347.95,-123.1 328.03,-146.3"/>
<polygon fill="#63b8ff" stroke="#63b8ff" points="1641.74,-217.04 1651.37,-221.47 1646.6,-212.01 1641.74,-217.04"/>
</a>
</g>
</g>
<!-- Node7 -->
<g id="Node000007" class="node">
<title>Node7</title>
<g id="a_Node000007"><a xlink:href="classediteurpanovisu_1_1EditeurPanovisu.html#af0d1c32bb78acbff561c822a0d15f760" target="_top" xlink:title=" ">
<polygon fill="white" stroke="#666666" points="1540.75,-254.74 1353,-254.74 1353,-222.74 1540.75,-222.74 1540.75,-254.74"/>
<text xml:space="preserve" text-anchor="start" x="1361" y="-241.24" font-family="Helvetica,sans-Serif" font-size="10.00">editeurpanovisu.EditeurPanovisu.ajoute</text>
<text xml:space="preserve" text-anchor="middle" x="1446.88" y="-229.24" font-family="Helvetica,sans-Serif" font-size="10.00">FichierHisto</text>
</a>
</g>
</g>
<!-- Node6&#45;&gt;Node7 -->
<g id="edge7_Node000006_Node000007" class="edge">
<title>Node6&#45;&gt;Node7</title>
<g id="a_edge7_Node000006_Node000007"><a xlink:title=" ">
<path fill="none" stroke="#63b8ff" d="M1565.22,-232C1557.17,-231.98 1549.08,-232 1541.11,-232.06"/>
<polygon fill="#63b8ff" stroke="#63b8ff" points="1565,-235.5 1575.02,-232.06 1565.04,-228.5 1565,-235.5"/>
</a>
</g>
</g>
<!-- Node7&#45;&gt;Node4 -->
<g id="edge8_Node000007_Node000004" class="edge">
<title>Node7&#45;&gt;Node4</title>
<g id="a_edge8_Node000007_Node000004"><a xlink:title=" ">
<path fill="none" stroke="#63b8ff" d="M1368.15,-257.97C1283.1,-279 1148.2,-312.37 1067.8,-332.25"/>
<polygon fill="#63b8ff" stroke="#63b8ff" points="1368.96,-261.37 1377.82,-255.57 1367.27,-254.58 1368.96,-261.37"/>
</a>
</g>
</g>
<!-- Node7&#45;&gt;Node6 -->
<g id="edge9_Node000007_Node000006" class="edge">
<title>Node7&#45;&gt;Node6</title>
<g id="a_edge9_Node000007_Node000006"><a xlink:title=" ">
<path fill="none" stroke="#63b8ff" d="M1552.44,-245.48C1560.49,-245.51 1568.58,-245.48 1576.53,-245.41"/>
<polygon fill="#63b8ff" stroke="#63b8ff" points="1552.65,-241.98 1542.63,-245.43 1552.61,-248.98 1552.65,-241.98"/>
</a>
</g>
</g>
<!-- Node8 -->
<g id="Node000008" class="node">
<title>Node8</title>
<g id="a_Node000008"><a xlink:href="classediteurpanovisu_1_1EditeurPanovisu.html#a9f3ea25b35d4884524508dab3dc4fd6a" target="_top" xlink:title=" ">
<polygon fill="white" stroke="#666666" points="1317,-232.74 1131.5,-232.74 1131.5,-200.74 1317,-200.74 1317,-232.74"/>
<text xml:space="preserve" text-anchor="start" x="1139.5" y="-219.24" font-family="Helvetica,sans-Serif" font-size="10.00">editeurpanovisu.EditeurPanovisu.projet</text>
<text xml:space="preserve" text-anchor="middle" x="1224.25" y="-207.24" font-family="Helvetica,sans-Serif" font-size="10.00">Sauve</text>
</a>
</g>
</g>
<!-- Node7&#45;&gt;Node8 -->
<g id="edge10_Node000007_Node000008" class="edge">
<title>Node7&#45;&gt;Node8</title>
<g id="a_edge10_Node000007_Node000008"><a xlink:title=" ">
<path fill="none" stroke="#63b8ff" d="M1341.38,-228.32C1333.39,-227.52 1325.36,-226.72 1317.46,-225.94"/>
<polygon fill="#63b8ff" stroke="#63b8ff" points="1340.83,-231.78 1351.12,-229.29 1341.52,-224.82 1340.83,-231.78"/>
</a>
</g>
</g>
<!-- Node14 -->
<g id="Node000014" class="node">
<title>Node14</title>
<g id="a_Node000014"><a xlink:href="classediteurpanovisu_1_1EditeurPanovisu.html#a7b2e25dc717eb52b62e23d54ec4c124a" target="_top" xlink:title=" ">
<polygon fill="white" stroke="#666666" points="868.75,-62.74 683.25,-62.74 683.25,-30.74 868.75,-30.74 868.75,-62.74"/>
<text xml:space="preserve" text-anchor="start" x="691.25" y="-49.24" font-family="Helvetica,sans-Serif" font-size="10.00">editeurpanovisu.EditeurPanovisu.projet</text>
<text xml:space="preserve" text-anchor="middle" x="776" y="-37.24" font-family="Helvetica,sans-Serif" font-size="10.00">SauveSous</text>
</a>
</g>
</g>
<!-- Node7&#45;&gt;Node14 -->
<g id="edge24_Node000007_Node000014" class="edge">
<title>Node7&#45;&gt;Node14</title>
<g id="a_edge24_Node000007_Node000014"><a xlink:title=" ">
<path fill="none" stroke="#63b8ff" d="M1409.22,-216.67C1347.13,-180.48 1216.24,-109.31 1095.5,-76.74 1020.96,-56.63 933.47,-49.52 869.07,-47.21"/>
<polygon fill="#63b8ff" stroke="#63b8ff" points="1407.23,-219.56 1417.63,-221.61 1410.78,-213.52 1407.23,-219.56"/>
</a>
</g>
</g>
<!-- Node8&#45;&gt;Node4 -->
<g id="edge14_Node000008_Node000004" class="edge">
<title>Node8&#45;&gt;Node4</title>
<g id="a_edge14_Node000008_Node000004"><a xlink:title=" ">
<path fill="none" stroke="#63b8ff" d="M1179.64,-238.41C1163.59,-247.5 1145.84,-258.94 1131.5,-271.74 1111.87,-289.26 1117.03,-303.61 1095.5,-318.74 1087.76,-324.18 1078.99,-328.66 1069.99,-332.35"/>
<polygon fill="#63b8ff" stroke="#63b8ff" points="1180.96,-241.68 1188.04,-233.79 1177.59,-235.54 1180.96,-241.68"/>
</a>
</g>
</g>
<!-- Node8&#45;&gt;Node5 -->
<g id="edge11_Node000008_Node000005" class="edge">
<title>Node8&#45;&gt;Node5</title>
<g id="a_edge11_Node000008_Node000005"><a xlink:title=" ">
<path fill="none" stroke="#63b8ff" d="M1194.54,-193.27C1158.69,-164.09 1101.32,-117.81 1095.5,-115.74 961.68,-68.22 596.58,-86.4 456.5,-109.74 414.8,-116.69 368.77,-134.76 342.06,-146.36"/>
<polygon fill="#63b8ff" stroke="#63b8ff" points="1192.01,-195.73 1201.97,-199.33 1196.43,-190.3 1192.01,-195.73"/>
</a>
</g>
</g>
<!-- Node8&#45;&gt;Node6 -->
<g id="edge15_Node000008_Node000006" class="edge">
<title>Node8&#45;&gt;Node6</title>
<g id="a_edge15_Node000008_Node000006"><a xlink:title=" ">
<path fill="none" stroke="#63b8ff" d="M1328.59,-210.25C1390.31,-207.74 1470.18,-206.9 1540.75,-213.74 1559.2,-215.53 1578.93,-218.74 1597.24,-222.27"/>
<polygon fill="#63b8ff" stroke="#63b8ff" points="1328.63,-206.75 1318.79,-210.67 1328.93,-213.74 1328.63,-206.75"/>
</a>
</g>
</g>
<!-- Node9 -->
<g id="Node000009" class="node">
<title>Node9</title>
<g id="a_Node000009"><a xlink:href="classediteurpanovisu_1_1EditeurPanovisu.html#a94e36b9e9d09ab1a4c852b8a8cefa927" target="_top" xlink:title=" ">
<polygon fill="white" stroke="#666666" points="647.25,-238.74 456.5,-238.74 456.5,-206.74 647.25,-206.74 647.25,-238.74"/>
<text xml:space="preserve" text-anchor="start" x="464.5" y="-225.24" font-family="Helvetica,sans-Serif" font-size="10.00">editeurpanovisu.EditeurPanovisu.genere</text>
<text xml:space="preserve" text-anchor="middle" x="551.88" y="-213.24" font-family="Helvetica,sans-Serif" font-size="10.00">Visite</text>
</a>
</g>
</g>
<!-- Node8&#45;&gt;Node9 -->
<g id="edge12_Node000008_Node000009" class="edge">
<title>Node8&#45;&gt;Node9</title>
<g id="a_edge12_Node000008_Node000009"><a xlink:title=" ">
<path fill="none" stroke="#63b8ff" d="M1183.94,-238.58C1148.21,-258.33 1100.34,-284.52 1095.5,-285.74 915.52,-331.24 693.51,-270.32 598.99,-239.13"/>
<polygon fill="#63b8ff" stroke="#63b8ff" points="1185.27,-241.84 1192.33,-233.94 1181.88,-235.72 1185.27,-241.84"/>
</a>
</g>
</g>
<!-- Node10 -->
<g id="Node000010" class="node">
<title>Node10</title>
<g id="a_Node000010"><a xlink:href="classediteurpanovisu_1_1EditeurPanovisu.html#a9b46b222714af12c06ec33d410400773" target="_top" xlink:title=" ">
<polygon fill="white" stroke="#666666" points="647.25,-150.74 456.5,-150.74 456.5,-118.74 647.25,-118.74 647.25,-150.74"/>
<text xml:space="preserve" text-anchor="start" x="464.5" y="-137.24" font-family="Helvetica,sans-Serif" font-size="10.00">editeurpanovisu.EditeurPanovisu.projets</text>
<text xml:space="preserve" text-anchor="middle" x="551.88" y="-125.24" font-family="Helvetica,sans-Serif" font-size="10.00">Fermer</text>
</a>
</g>
</g>
<!-- Node8&#45;&gt;Node10 -->
<g id="edge16_Node000008_Node000010" class="edge">
<title>Node8&#45;&gt;Node10</title>
<g id="a_edge16_Node000008_Node000010"><a xlink:title=" ">
<path fill="none" stroke="#63b8ff" d="M1191.84,-194.29C1167.01,-177.95 1130.77,-157.11 1095.5,-147.74 942.72,-107.17 757.17,-114.18 647.4,-123.84"/>
<polygon fill="#63b8ff" stroke="#63b8ff" points="1189.59,-197 1199.84,-199.68 1193.5,-191.19 1189.59,-197"/>
</a>
</g>
</g>
<!-- Node11 -->
<g id="Node000011" class="node">
<title>Node11</title>
<g id="a_Node000011"><a xlink:href="classediteurpanovisu_1_1EditeurPanovisu.html#ac9d449399ccd38843fa12e716f0c9611" target="_top" xlink:title=" ">
<polygon fill="white" stroke="#666666" points="1095.5,-188.74 904.75,-188.74 904.75,-156.74 1095.5,-156.74 1095.5,-188.74"/>
<text xml:space="preserve" text-anchor="start" x="912.75" y="-175.24" font-family="Helvetica,sans-Serif" font-size="10.00">editeurpanovisu.EditeurPanovisu.projets</text>
<text xml:space="preserve" text-anchor="middle" x="1000.12" y="-163.24" font-family="Helvetica,sans-Serif" font-size="10.00">Nouveau</text>
</a>
</g>
</g>
<!-- Node8&#45;&gt;Node11 -->
<g id="edge18_Node000008_Node000011" class="edge">
<title>Node8&#45;&gt;Node11</title>
<g id="a_edge18_Node000008_Node000011"><a xlink:title=" ">
<path fill="none" stroke="#63b8ff" d="M1128.99,-198.07C1114.18,-195.14 1098.96,-192.12 1084.42,-189.24"/>
<polygon fill="#63b8ff" stroke="#63b8ff" points="1128.25,-201.49 1138.74,-200 1129.61,-194.62 1128.25,-201.49"/>
</a>
</g>
</g>
<!-- Node12 -->
<g id="Node000012" class="node">
<title>Node12</title>
<g id="a_Node000012"><a xlink:href="classediteurpanovisu_1_1EditeurPanovisu.html#a2b3125ffe2e6291efacf19df6cb30a8d" target="_top" xlink:title=" ">
<polygon fill="white" stroke="#666666" points="866.5,-226.74 685.5,-226.74 685.5,-206.74 866.5,-206.74 866.5,-226.74"/>
<text xml:space="preserve" text-anchor="middle" x="776" y="-213.24" font-family="Helvetica,sans-Serif" font-size="10.00">editeurpanovisu.EditeurPanovisu.start</text>
</a>
</g>
</g>
<!-- Node8&#45;&gt;Node12 -->
<g id="edge23_Node000008_Node000012" class="edge">
<title>Node8&#45;&gt;Node12</title>
<g id="a_edge23_Node000008_Node000012"><a xlink:title=" ">
<path fill="none" stroke="#63b8ff" d="M1119.96,-216.74C1043.36,-216.74 939.96,-216.74 866.79,-216.74"/>
<polygon fill="#63b8ff" stroke="#63b8ff" points="1119.54,-220.24 1129.54,-216.74 1119.54,-213.24 1119.54,-220.24"/>
</a>
</g>
</g>
<!-- Node13 -->
<g id="Node000013" class="node">
<title>Node13</title>
<g id="a_Node000013"><a xlink:href="classediteurpanovisu_1_1EditeurPanovisu.html#aef8c9b28c3e88d6e27e3f62b9a901134" target="_top" xlink:title=" ">
<polygon fill="white" stroke="#666666" points="1094,-276.74 906.25,-276.74 906.25,-244.74 1094,-244.74 1094,-276.74"/>
<text xml:space="preserve" text-anchor="start" x="914.25" y="-263.24" font-family="Helvetica,sans-Serif" font-size="10.00">editeurpanovisu.EditeurPanovisu.sauve</text>
<text xml:space="preserve" text-anchor="middle" x="1000.12" y="-251.24" font-family="Helvetica,sans-Serif" font-size="10.00">Fichiers</text>
</a>
</g>
</g>
<!-- Node8&#45;&gt;Node13 -->
<g id="edge22_Node000008_Node000013" class="edge">
<title>Node8&#45;&gt;Node13</title>
<g id="a_edge22_Node000008_Node000013"><a xlink:title=" ">
<path fill="none" stroke="#63b8ff" d="M1128.99,-235.41C1114.18,-238.35 1098.96,-241.36 1084.42,-244.24"/>
<polygon fill="#63b8ff" stroke="#63b8ff" points="1129.61,-238.86 1138.74,-233.48 1128.25,-231.99 1129.61,-238.86"/>
</a>
</g>
</g>
<!-- Node9&#45;&gt;Node5 -->
<g id="edge13_Node000009_Node000005" class="edge">
<title>Node9&#45;&gt;Node5</title>
<g id="a_edge13_Node000009_Node000005"><a xlink:title=" ">
<path fill="none" stroke="#63b8ff" d="M482.2,-203.16C440.79,-191.36 389.69,-176.79 355.9,-167.16"/>
<polygon fill="#63b8ff" stroke="#63b8ff" points="481.02,-206.47 491.6,-205.84 482.94,-199.73 481.02,-206.47"/>
</a>
</g>
</g>
<!-- Node10&#45;&gt;Node5 -->
<g id="edge17_Node000010_Node000005" class="edge">
<title>Node10&#45;&gt;Node5</title>
<g id="a_edge17_Node000010_Node000005"><a xlink:title=" ">
<path fill="none" stroke="#63b8ff" d="M444.81,-144.82C436.83,-145.58 428.78,-146.34 420.83,-147.1"/>
<polygon fill="#63b8ff" stroke="#63b8ff" points="444.92,-148.33 454.54,-143.9 444.25,-141.36 444.92,-148.33"/>
</a>
</g>
</g>
<!-- Node11&#45;&gt;Node5 -->
<g id="edge19_Node000011_Node000005" class="edge">
<title>Node11&#45;&gt;Node5</title>
<g id="a_edge19_Node000011_Node000005"><a xlink:title=" ">
<path fill="none" stroke="#63b8ff" d="M892.8,-170.24C763.7,-167.2 547.54,-162.11 420.73,-159.13"/>
<polygon fill="#63b8ff" stroke="#63b8ff" points="892.66,-173.74 902.74,-170.47 892.82,-166.74 892.66,-173.74"/>
</a>
</g>
</g>
<!-- Node11&#45;&gt;Node12 -->
<g id="edge20_Node000011_Node000012" class="edge">
<title>Node11&#45;&gt;Node12</title>
<g id="a_edge20_Node000011_Node000012"><a xlink:title=" ">
<path fill="none" stroke="#63b8ff" d="M904.83,-191.42C879.23,-196.49 852.41,-201.8 829.99,-206.24"/>
<polygon fill="#63b8ff" stroke="#63b8ff" points="905.48,-194.86 914.61,-189.48 904.12,-187.99 905.48,-194.86"/>
</a>
</g>
</g>
<!-- Node12&#45;&gt;Node9 -->
<g id="edge21_Node000012_Node000009" class="edge">
<title>Node12&#45;&gt;Node9</title>
<g id="a_edge21_Node000012_Node000009"><a xlink:title=" ">
<path fill="none" stroke="#63b8ff" d="M673.87,-219.47C665.14,-219.71 656.32,-219.95 647.63,-220.18"/>
<polygon fill="#63b8ff" stroke="#63b8ff" points="673.88,-222.97 683.78,-219.2 673.69,-215.98 673.88,-222.97"/>
</a>
</g>
</g>
<!-- Node14&#45;&gt;Node5 -->
<g id="edge25_Node000014_Node000005" class="edge">
<title>Node14&#45;&gt;Node5</title>
<g id="a_edge25_Node000014_Node000005"><a xlink:title=" ">
<path fill="none" stroke="#63b8ff" d="M671.76,-45.26C608.29,-47.07 526.08,-54.37 456.5,-76.74 406.91,-92.68 355.8,-128.69 332.45,-146.45"/>
<polygon fill="#63b8ff" stroke="#63b8ff" points="671.55,-48.77 681.47,-45.03 671.39,-41.77 671.55,-48.77"/>
</a>
</g>
</g>
</g>
</svg>
