<?xml version="1.0" encoding="UTF-8" standalone="no"?>
<!DOCTYPE svg PUBLIC "-//W3C//DTD SVG 1.1//EN"
 "http://www.w3.org/Graphics/SVG/1.1/DTD/svg11.dtd">
<!-- Generated by graphviz version 13.1.2 (20250808.2320)
 -->
<!-- Title: editeurpanovisu.ReadWriteImage.readTiff Pages: 1 -->
<svg width="2680pt" height="537pt"
 viewBox="0.00 0.00 2680.00 537.00" xmlns="http://www.w3.org/2000/svg" xmlns:xlink="http://www.w3.org/1999/xlink">
<g id="graph0" class="graph" transform="scale(1 1) rotate(0) translate(4 532.76)">
<title>editeurpanovisu.ReadWriteImage.readTiff</title>
<!-- Node1 -->
<g id="Node000001" class="node">
<title>Node1</title>
<g id="a_Node000001"><a xlink:title=" ">
<polygon fill="#999999" stroke="#666666" points="2671.5,-350.83 2538.5,-350.83 2538.5,-318.83 2671.5,-318.83 2671.5,-350.83"/>
<text xml:space="preserve" text-anchor="start" x="2546.5" y="-337.33" font-family="Helvetica,sans-Serif" font-size="10.00">editeurpanovisu.ReadWrite</text>
<text xml:space="preserve" text-anchor="middle" x="2605" y="-325.33" font-family="Helvetica,sans-Serif" font-size="10.00">Image.readTiff</text>
</a>
</g>
</g>
<!-- Node2 -->
<g id="Node000002" class="node">
<title>Node2</title>
<g id="a_Node000002"><a xlink:href="classediteurpanovisu_1_1EquiCubeDialogController.html#a05e62237b5363eba15018189320cf5db" target="_top" xlink:title=" ">
<polygon fill="white" stroke="#666666" points="1850.38,-461.83 1700.12,-461.83 1700.12,-429.83 1850.38,-429.83 1850.38,-461.83"/>
<text xml:space="preserve" text-anchor="start" x="1708.12" y="-448.33" font-family="Helvetica,sans-Serif" font-size="10.00">editeurpanovisu.EquiCube</text>
<text xml:space="preserve" text-anchor="middle" x="1775.25" y="-436.33" font-family="Helvetica,sans-Serif" font-size="10.00">DialogController.afficheFenetre</text>
</a>
</g>
</g>
<!-- Node1&#45;&gt;Node2 -->
<g id="edge1_Node000001_Node000002" class="edge">
<title>Node1&#45;&gt;Node2</title>
<g id="a_edge1_Node000001_Node000002"><a xlink:title=" ">
<path fill="none" stroke="#63b8ff" d="M2585.57,-360.12C2567.29,-383.08 2537.06,-415.72 2502.5,-431.83 2281.62,-534.8 1980.36,-490.29 1845.95,-462.28"/>
<polygon fill="#63b8ff" stroke="#63b8ff" points="2588.15,-362.5 2591.5,-352.45 2582.61,-358.22 2588.15,-362.5"/>
</a>
</g>
</g>
<!-- Node5 -->
<g id="Node000005" class="node">
<title>Node5</title>
<g id="a_Node000005"><a xlink:href="classediteurpanovisu_1_1EditeurPanovisu.html#a86c393eee88f54c694db994ddd85b90d" target="_top" xlink:title=" ">
<polygon fill="white" stroke="#666666" points="180.25,-436.83 0,-436.83 0,-404.83 180.25,-404.83 180.25,-436.83"/>
<text xml:space="preserve" text-anchor="start" x="8" y="-423.33" font-family="Helvetica,sans-Serif" font-size="10.00">editeurpanovisu.EditeurPanovisu.cree</text>
<text xml:space="preserve" text-anchor="middle" x="90.12" y="-411.33" font-family="Helvetica,sans-Serif" font-size="10.00">Environnement</text>
</a>
</g>
</g>
<!-- Node1&#45;&gt;Node5 -->
<g id="edge39_Node000001_Node000005" class="edge">
<title>Node1&#45;&gt;Node5</title>
<g id="a_edge39_Node000001_Node000005"><a xlink:title=" ">
<path fill="none" stroke="#63b8ff" d="M2591.61,-361.35C2575.61,-392.51 2544.7,-443.32 2502.5,-469.83 2390.23,-540.36 2342.46,-527.83 2209.88,-527.83 2209.88,-527.83 2209.88,-527.83 567.38,-527.83 404.24,-527.83 217.16,-467.33 134.38,-437.32"/>
<polygon fill="#63b8ff" stroke="#63b8ff" points="2594.66,-363.08 2595.97,-352.57 2588.39,-359.97 2594.66,-363.08"/>
</a>
</g>
</g>
<!-- Node7 -->
<g id="Node000007" class="node">
<title>Node7</title>
<g id="a_Node000007"><a xlink:href="classediteurpanovisu_1_1EditeurPanovisu.html#a50e220de3f9a12fde56a2f23e2f59cd2" target="_top" xlink:title=" ">
<polygon fill="white" stroke="#666666" points="2302.75,-268.83 2115,-268.83 2115,-236.83 2302.75,-236.83 2302.75,-268.83"/>
<text xml:space="preserve" text-anchor="start" x="2123" y="-255.33" font-family="Helvetica,sans-Serif" font-size="10.00">editeurpanovisu.EditeurPanovisu.ajoute</text>
<text xml:space="preserve" text-anchor="middle" x="2208.88" y="-243.33" font-family="Helvetica,sans-Serif" font-size="10.00">PanoramiqueProjet</text>
</a>
</g>
</g>
<!-- Node1&#45;&gt;Node7 -->
<g id="edge7_Node000001_Node000007" class="edge">
<title>Node1&#45;&gt;Node7</title>
<g id="a_edge7_Node000001_Node000007"><a xlink:title=" ">
<path fill="none" stroke="#63b8ff" d="M2526.87,-318.78C2458.21,-304.5 2358.22,-283.7 2288.97,-269.29"/>
<polygon fill="#63b8ff" stroke="#63b8ff" points="2526.05,-322.19 2536.55,-320.8 2527.47,-315.34 2526.05,-322.19"/>
</a>
</g>
</g>
<!-- Node8 -->
<g id="Node000008" class="node">
<title>Node8</title>
<g id="a_Node000008"><a xlink:href="classediteurpanovisu_1_1EditeurPanovisu.html#a87b29dc258cfc67370b1f27809e91b8e" target="_top" xlink:title=" ">
<polygon fill="white" stroke="#666666" points="2079,-335.83 1904,-335.83 1904,-303.83 2079,-303.83 2079,-335.83"/>
<text xml:space="preserve" text-anchor="start" x="1912" y="-322.33" font-family="Helvetica,sans-Serif" font-size="10.00">editeurpanovisu.EditeurPanovisu.tsk</text>
<text xml:space="preserve" text-anchor="middle" x="1991.5" y="-310.33" font-family="Helvetica,sans-Serif" font-size="10.00">AnalyseFichierPVU</text>
</a>
</g>
</g>
<!-- Node1&#45;&gt;Node8 -->
<g id="edge48_Node000001_Node000008" class="edge">
<title>Node1&#45;&gt;Node8</title>
<g id="a_edge48_Node000001_Node000008"><a xlink:title=" ">
<path fill="none" stroke="#63b8ff" d="M2526.86,-332.94C2412.59,-330.14 2199.03,-324.9 2079.4,-321.96"/>
<polygon fill="#63b8ff" stroke="#63b8ff" points="2526.67,-336.44 2536.76,-333.18 2526.84,-329.44 2526.67,-336.44"/>
</a>
</g>
</g>
<!-- Node19 -->
<g id="Node000019" class="node">
<title>Node19</title>
<g id="a_Node000019"><a xlink:href="classediteurpanovisu_1_1EditeurPanovisu.html#a53cccf6a6b2693c872947460b66ae8ee" target="_top" xlink:title=" ">
<polygon fill="white" stroke="#666666" points="2079,-111.83 1904,-111.83 1904,-79.83 2079,-79.83 2079,-111.83"/>
<text xml:space="preserve" text-anchor="start" x="1912" y="-98.33" font-family="Helvetica,sans-Serif" font-size="10.00">editeurpanovisu.EditeurPanovisu.tsk</text>
<text xml:space="preserve" text-anchor="middle" x="1991.5" y="-86.33" font-family="Helvetica,sans-Serif" font-size="10.00">ChargeListeFichiers</text>
</a>
</g>
</g>
<!-- Node1&#45;&gt;Node19 -->
<g id="edge49_Node000001_Node000019" class="edge">
<title>Node1&#45;&gt;Node19</title>
<g id="a_edge49_Node000001_Node000019"><a xlink:title=" ">
<path fill="none" stroke="#63b8ff" d="M2594.57,-307.81C2580.51,-271.84 2550.45,-209.12 2502.5,-177.83 2373.32,-93.54 2187.5,-85.5 2079.47,-89.3"/>
<polygon fill="#63b8ff" stroke="#63b8ff" points="2591.25,-308.93 2598.04,-317.06 2597.81,-306.47 2591.25,-308.93"/>
</a>
</g>
</g>
<!-- Node21 -->
<g id="Node000021" class="node">
<title>Node21</title>
<g id="a_Node000021"><a xlink:href="classediteurpanovisu_1_1EquiCubeDialogController.html#af7ef7e2f3a7d569a605a5184bef65807" target="_top" xlink:title=" ">
<polygon fill="white" stroke="#666666" points="2282.12,-444.83 2135.62,-444.83 2135.62,-412.83 2282.12,-412.83 2282.12,-444.83"/>
<text xml:space="preserve" text-anchor="start" x="2143.62" y="-431.33" font-family="Helvetica,sans-Serif" font-size="10.00">editeurpanovisu.EquiCube</text>
<text xml:space="preserve" text-anchor="middle" x="2208.88" y="-419.33" font-family="Helvetica,sans-Serif" font-size="10.00">DialogController.choixFichiers</text>
</a>
</g>
</g>
<!-- Node1&#45;&gt;Node21 -->
<g id="edge37_Node000001_Node000021" class="edge">
<title>Node1&#45;&gt;Node21</title>
<g id="a_edge37_Node000001_Node000021"><a xlink:title=" ">
<path fill="none" stroke="#63b8ff" d="M2577.36,-358.61C2558.02,-374.37 2530.45,-393.91 2502.5,-403.83 2430.67,-429.33 2342.94,-433.58 2282.37,-432.69"/>
<polygon fill="#63b8ff" stroke="#63b8ff" points="2579.58,-361.32 2584.99,-352.21 2575.08,-355.95 2579.58,-361.32"/>
</a>
</g>
</g>
<!-- Node22 -->
<g id="Node000022" class="node">
<title>Node22</title>
<g id="a_Node000022"><a xlink:href="classediteurpanovisu_1_1EditeurPanovisu.html#a852d4d8f4482fc7cc9e66ee218967f50" target="_top" xlink:title=" ">
<polygon fill="white" stroke="#666666" points="2502.5,-268.83 2338.75,-268.83 2338.75,-236.83 2502.5,-236.83 2502.5,-268.83"/>
<text xml:space="preserve" text-anchor="start" x="2346.75" y="-255.33" font-family="Helvetica,sans-Serif" font-size="10.00">editeurpanovisu.EditeurPanovisu.i</text>
<text xml:space="preserve" text-anchor="middle" x="2420.62" y="-243.33" font-family="Helvetica,sans-Serif" font-size="10.00">CreeNiveauxImageCube</text>
</a>
</g>
</g>
<!-- Node1&#45;&gt;Node22 -->
<g id="edge40_Node000001_Node000022" class="edge">
<title>Node1&#45;&gt;Node22</title>
<g id="a_edge40_Node000001_Node000022"><a xlink:title=" ">
<path fill="none" stroke="#63b8ff" d="M2564.13,-313.03C2545.64,-303.27 2523.2,-291.94 2502.5,-282.83 2491.67,-278.07 2479.82,-273.39 2468.62,-269.19"/>
<polygon fill="#63b8ff" stroke="#63b8ff" points="2562.44,-316.09 2572.91,-317.7 2565.73,-309.91 2562.44,-316.09"/>
</a>
</g>
</g>
<!-- Node23 -->
<g id="Node000023" class="node">
<title>Node23</title>
<g id="a_Node000023"><a xlink:href="classediteurpanovisu_1_1EditeurPanovisu.html#a23ec8d67f8390307a30502a455b08eab" target="_top" xlink:title=" ">
<polygon fill="white" stroke="#666666" points="2502.5,-218.83 2338.75,-218.83 2338.75,-186.83 2502.5,-186.83 2502.5,-218.83"/>
<text xml:space="preserve" text-anchor="start" x="2346.75" y="-205.33" font-family="Helvetica,sans-Serif" font-size="10.00">editeurpanovisu.EditeurPanovisu.i</text>
<text xml:space="preserve" text-anchor="middle" x="2420.62" y="-193.33" font-family="Helvetica,sans-Serif" font-size="10.00">CreeNiveauxImageEqui</text>
</a>
</g>
</g>
<!-- Node1&#45;&gt;Node23 -->
<g id="edge42_Node000001_Node000023" class="edge">
<title>Node1&#45;&gt;Node23</title>
<g id="a_edge42_Node000001_Node000023"><a xlink:title=" ">
<path fill="none" stroke="#63b8ff" d="M2586.19,-309.6C2567.83,-285.34 2537.06,-249.3 2502.5,-227.83 2497.26,-224.58 2491.56,-221.71 2485.69,-219.21"/>
<polygon fill="#63b8ff" stroke="#63b8ff" points="2583.17,-311.39 2591.93,-317.35 2588.79,-307.23 2583.17,-311.39"/>
</a>
</g>
</g>
<!-- Node24 -->
<g id="Node000024" class="node">
<title>Node24</title>
<g id="a_Node000024"><a xlink:href="classediteurpanovisu_1_1EquiCubeDialogController.html#a859d7bcbdb37f828495100df8fa4f397" target="_top" xlink:title=" ">
<polygon fill="white" stroke="#666666" points="2490.5,-394.83 2350.75,-394.83 2350.75,-362.83 2490.5,-362.83 2490.5,-394.83"/>
<text xml:space="preserve" text-anchor="start" x="2358.75" y="-381.33" font-family="Helvetica,sans-Serif" font-size="10.00">editeurpanovisu.EquiCube</text>
<text xml:space="preserve" text-anchor="middle" x="2420.62" y="-369.33" font-family="Helvetica,sans-Serif" font-size="10.00">DialogController.traiteFichier</text>
</a>
</g>
</g>
<!-- Node1&#45;&gt;Node24 -->
<g id="edge44_Node000001_Node000024" class="edge">
<title>Node1&#45;&gt;Node24</title>
<g id="a_edge44_Node000001_Node000024"><a xlink:title=" ">
<path fill="none" stroke="#63b8ff" d="M2527.34,-353.33C2514.88,-356.33 2502.06,-359.43 2489.83,-362.38"/>
<polygon fill="#63b8ff" stroke="#63b8ff" points="2527.79,-356.82 2536.69,-351.07 2526.15,-350.02 2527.79,-356.82"/>
</a>
</g>
</g>
<!-- Node3 -->
<g id="Node000003" class="node">
<title>Node3</title>
<g id="a_Node000003"><a xlink:href="classediteurpanovisu_1_1EditeurPanovisu.html#a93957c2097ff96e3588049e82b749c2d" target="_top" xlink:title=" ">
<polygon fill="white" stroke="#666666" points="680.25,-455.83 456.5,-455.83 456.5,-423.83 680.25,-423.83 680.25,-455.83"/>
<text xml:space="preserve" text-anchor="start" x="464.5" y="-442.33" font-family="Helvetica,sans-Serif" font-size="10.00">editeurpanovisu.EditeurPanovisu.transformation</text>
<text xml:space="preserve" text-anchor="middle" x="568.38" y="-430.33" font-family="Helvetica,sans-Serif" font-size="10.00">Cube2Equi</text>
</a>
</g>
</g>
<!-- Node2&#45;&gt;Node3 -->
<g id="edge2_Node000002_Node000003" class="edge">
<title>Node2&#45;&gt;Node3</title>
<g id="a_edge2_Node000002_Node000003"><a xlink:title=" ">
<path fill="none" stroke="#63b8ff" d="M1688.58,-444.11C1592.71,-442.34 1432.73,-439.83 1295,-439.83 1295,-439.83 1295,-439.83 1068.88,-439.83 935.33,-439.83 781.7,-439.83 680.47,-439.83"/>
<polygon fill="#63b8ff" stroke="#63b8ff" points="1688.38,-447.61 1698.44,-444.3 1688.51,-440.61 1688.38,-447.61"/>
</a>
</g>
</g>
<!-- Node6 -->
<g id="Node000006" class="node">
<title>Node6</title>
<g id="a_Node000006"><a xlink:href="classediteurpanovisu_1_1EditeurPanovisu.html#a11f8778a8326d6a7dee94344a246ec02" target="_top" xlink:title=" ">
<polygon fill="white" stroke="#666666" points="1646.5,-499.83 1422.75,-499.83 1422.75,-467.83 1646.5,-467.83 1646.5,-499.83"/>
<text xml:space="preserve" text-anchor="start" x="1430.75" y="-486.33" font-family="Helvetica,sans-Serif" font-size="10.00">editeurpanovisu.EditeurPanovisu.transformation</text>
<text xml:space="preserve" text-anchor="middle" x="1534.62" y="-474.33" font-family="Helvetica,sans-Serif" font-size="10.00">Equi2Cube</text>
</a>
</g>
</g>
<!-- Node2&#45;&gt;Node6 -->
<g id="edge5_Node000002_Node000006" class="edge">
<title>Node2&#45;&gt;Node6</title>
<g id="a_edge5_Node000002_Node000006"><a xlink:title=" ">
<path fill="none" stroke="#63b8ff" d="M1688.71,-459.45C1672.55,-462.03 1655.5,-464.74 1638.88,-467.39"/>
<polygon fill="#63b8ff" stroke="#63b8ff" points="1688.91,-462.97 1698.23,-457.94 1687.81,-456.05 1688.91,-462.97"/>
</a>
</g>
</g>
<!-- Node4 -->
<g id="Node000004" class="node">
<title>Node4</title>
<g id="a_Node000004"><a xlink:href="classediteurpanovisu_1_1EditeurPanovisu.html#ac912b80c1f2ac97def60ff005c5c480b" target="_top" xlink:title=" ">
<polygon fill="white" stroke="#666666" points="420.5,-323.83 216.25,-323.83 216.25,-303.83 420.5,-303.83 420.5,-323.83"/>
<text xml:space="preserve" text-anchor="middle" x="318.38" y="-310.33" font-family="Helvetica,sans-Serif" font-size="10.00">editeurpanovisu.EditeurPanovisu.creeMenu</text>
</a>
</g>
</g>
<!-- Node3&#45;&gt;Node4 -->
<g id="edge3_Node000003_Node000004" class="edge">
<title>Node3&#45;&gt;Node4</title>
<g id="a_edge3_Node000003_Node000004"><a xlink:title=" ">
<path fill="none" stroke="#63b8ff" d="M481.52,-419.82C472.92,-416.87 464.44,-413.55 456.5,-409.83 405.7,-386.07 353.56,-343.57 330.97,-324.1"/>
<polygon fill="#63b8ff" stroke="#63b8ff" points="480.42,-423.15 491.01,-422.91 482.58,-416.49 480.42,-423.15"/>
</a>
</g>
</g>
<!-- Node4&#45;&gt;Node5 -->
<g id="edge4_Node000004_Node000005" class="edge">
<title>Node4&#45;&gt;Node5</title>
<g id="a_edge4_Node000004_Node000005"><a xlink:title=" ">
<path fill="none" stroke="#63b8ff" d="M284.99,-329.15C242.75,-349.12 169.15,-383.93 125.8,-404.43"/>
<polygon fill="#63b8ff" stroke="#63b8ff" points="286.36,-332.37 293.9,-324.93 283.36,-326.05 286.36,-332.37"/>
</a>
</g>
</g>
<!-- Node6&#45;&gt;Node4 -->
<g id="edge6_Node000006_Node000004" class="edge">
<title>Node6&#45;&gt;Node4</title>
<g id="a_edge6_Node000006_Node000004"><a xlink:title=" ">
<path fill="none" stroke="#63b8ff" d="M1410.89,-483.83C1317.63,-483.83 1186.17,-483.83 1070.88,-483.83 1070.88,-483.83 1070.88,-483.83 826.38,-483.83 661.77,-483.83 605.26,-535.3 456.5,-464.83 389.62,-433.15 340.54,-352.55 324.78,-324.03"/>
<polygon fill="#63b8ff" stroke="#63b8ff" points="1410.84,-487.33 1420.84,-483.83 1410.84,-480.33 1410.84,-487.33"/>
</a>
</g>
</g>
<!-- Node7&#45;&gt;Node7 -->
<g id="edge8_Node000007_Node000007" class="edge">
<title>Node7&#45;&gt;Node7</title>
<g id="a_edge8_Node000007_Node000007"><a xlink:title=" ">
<path fill="none" stroke="#63b8ff" d="M2244.41,-280.38C2238.61,-284.24 2226.77,-286.83 2208.88,-286.83 2176.62,-286.83 2164.02,-278.42 2171.07,-269.28"/>
<polygon fill="#63b8ff" stroke="#63b8ff" points="2247.8,-281.26 2246.38,-270.76 2240.94,-279.86 2247.8,-281.26"/>
</a>
</g>
</g>
<!-- Node7&#45;&gt;Node8 -->
<g id="edge9_Node000007_Node000008" class="edge">
<title>Node7&#45;&gt;Node8</title>
<g id="a_edge9_Node000007_Node000008"><a xlink:title=" ">
<path fill="none" stroke="#63b8ff" d="M2144.05,-272.69C2112.58,-282.48 2075.08,-294.14 2045.26,-303.42"/>
<polygon fill="#63b8ff" stroke="#63b8ff" points="2144.96,-276.07 2153.47,-269.76 2142.88,-269.39 2144.96,-276.07"/>
</a>
</g>
</g>
<!-- Node7&#45;&gt;Node19 -->
<g id="edge33_Node000007_Node000019" class="edge">
<title>Node7&#45;&gt;Node19</title>
<g id="a_edge33_Node000007_Node000019"><a xlink:title=" ">
<path fill="none" stroke="#63b8ff" d="M2176.55,-230C2132.55,-197.93 2053.53,-140.32 2014.94,-112.19"/>
<polygon fill="#63b8ff" stroke="#63b8ff" points="2174.27,-232.67 2184.41,-235.73 2178.4,-227.01 2174.27,-232.67"/>
</a>
</g>
</g>
<!-- Node9 -->
<g id="Node000009" class="node">
<title>Node9</title>
<g id="a_Node000009"><a xlink:href="classediteurpanovisu_1_1EditeurPanovisu.html#ab4beb1597b660a4a253befc6e76f1c54" target="_top" xlink:title=" ">
<polygon fill="white" stroke="#666666" points="1162.62,-329.83 977.12,-329.83 977.12,-297.83 1162.62,-297.83 1162.62,-329.83"/>
<text xml:space="preserve" text-anchor="start" x="985.12" y="-316.33" font-family="Helvetica,sans-Serif" font-size="10.00">editeurpanovisu.EditeurPanovisu.projet</text>
<text xml:space="preserve" text-anchor="middle" x="1069.88" y="-304.33" font-family="Helvetica,sans-Serif" font-size="10.00">Charge</text>
</a>
</g>
</g>
<!-- Node8&#45;&gt;Node9 -->
<g id="edge10_Node000008_Node000009" class="edge">
<title>Node8&#45;&gt;Node9</title>
<g id="a_edge10_Node000008_Node000009"><a xlink:title=" ">
<path fill="none" stroke="#63b8ff" d="M1892.32,-332.24C1742.67,-349.06 1448.74,-373.85 1201.25,-344.83 1176.76,-341.96 1150.19,-336.15 1127.48,-330.33"/>
<polygon fill="#63b8ff" stroke="#63b8ff" points="1892.68,-335.72 1902.22,-331.11 1891.89,-328.77 1892.68,-335.72"/>
</a>
</g>
</g>
<!-- Node10 -->
<g id="Node000010" class="node">
<title>Node10</title>
<g id="a_Node000010"><a xlink:href="classediteurpanovisu_1_1EditeurPanovisu.html#a6d19b4d885ee6fcec827b91956295732" target="_top" xlink:title=" ">
<polygon fill="white" stroke="#666666" points="1868,-323.83 1682.5,-323.83 1682.5,-291.83 1868,-291.83 1868,-323.83"/>
<text xml:space="preserve" text-anchor="start" x="1690.5" y="-310.33" font-family="Helvetica,sans-Serif" font-size="10.00">editeurpanovisu.EditeurPanovisu.projet</text>
<text xml:space="preserve" text-anchor="middle" x="1775.25" y="-298.33" font-family="Helvetica,sans-Serif" font-size="10.00">ChargeNom</text>
</a>
</g>
</g>
<!-- Node8&#45;&gt;Node10 -->
<g id="edge12_Node000008_Node000010" class="edge">
<title>Node8&#45;&gt;Node10</title>
<g id="a_edge12_Node000008_Node000010"><a xlink:title=" ">
<path fill="none" stroke="#63b8ff" d="M1892.44,-314.34C1884.45,-313.89 1876.39,-313.44 1868.45,-313"/>
<polygon fill="#63b8ff" stroke="#63b8ff" points="1891.97,-317.82 1902.15,-314.88 1892.37,-310.83 1891.97,-317.82"/>
</a>
</g>
</g>
<!-- Node9&#45;&gt;Node4 -->
<g id="edge11_Node000009_Node000004" class="edge">
<title>Node9&#45;&gt;Node4</title>
<g id="a_edge11_Node000009_Node000004"><a xlink:title=" ">
<path fill="none" stroke="#63b8ff" d="M965.56,-313.83C821.87,-313.83 563.33,-313.83 420.71,-313.83"/>
<polygon fill="#63b8ff" stroke="#63b8ff" points="965.46,-317.33 975.46,-313.83 965.46,-310.33 965.46,-317.33"/>
</a>
</g>
</g>
<!-- Node10&#45;&gt;Node4 -->
<g id="edge32_Node000010_Node000004" class="edge">
<title>Node10&#45;&gt;Node4</title>
<g id="a_edge32_Node000010_Node000004"><a xlink:title=" ">
<path fill="none" stroke="#63b8ff" d="M1688.73,-326.37C1674.68,-328.89 1660.22,-331.18 1646.5,-332.83 1531.76,-346.63 1502.2,-339.56 1386.75,-344.83 973.74,-363.7 866.27,-401.85 456.5,-346.83 421.19,-342.09 381.72,-332.08 354.23,-324.32"/>
<polygon fill="#63b8ff" stroke="#63b8ff" points="1689.22,-329.84 1698.41,-324.57 1687.94,-322.95 1689.22,-329.84"/>
</a>
</g>
</g>
<!-- Node11 -->
<g id="Node000011" class="node">
<title>Node11</title>
<g id="a_Node000011"><a xlink:href="classediteurpanovisu_1_1EditeurPanovisu.html#af0d1c32bb78acbff561c822a0d15f760" target="_top" xlink:title=" ">
<polygon fill="white" stroke="#666666" points="1628.5,-323.83 1440.75,-323.83 1440.75,-291.83 1628.5,-291.83 1628.5,-323.83"/>
<text xml:space="preserve" text-anchor="start" x="1448.75" y="-310.33" font-family="Helvetica,sans-Serif" font-size="10.00">editeurpanovisu.EditeurPanovisu.ajoute</text>
<text xml:space="preserve" text-anchor="middle" x="1534.62" y="-298.33" font-family="Helvetica,sans-Serif" font-size="10.00">FichierHisto</text>
</a>
</g>
</g>
<!-- Node10&#45;&gt;Node11 -->
<g id="edge13_Node000010_Node000011" class="edge">
<title>Node10&#45;&gt;Node11</title>
<g id="a_edge13_Node000010_Node000011"><a xlink:title=" ">
<path fill="none" stroke="#63b8ff" d="M1671.1,-301.14C1657,-301.04 1642.59,-301.07 1628.68,-301.23"/>
<polygon fill="#63b8ff" stroke="#63b8ff" points="1670.79,-304.63 1680.82,-301.23 1670.85,-297.64 1670.79,-304.63"/>
</a>
</g>
</g>
<!-- Node11&#45;&gt;Node9 -->
<g id="edge14_Node000011_Node000009" class="edge">
<title>Node11&#45;&gt;Node9</title>
<g id="a_edge14_Node000011_Node000009"><a xlink:title=" ">
<path fill="none" stroke="#63b8ff" d="M1429.12,-297.44C1414.89,-296.36 1400.47,-295.44 1386.75,-294.83 1304.39,-291.19 1283.48,-288.87 1201.25,-294.83 1188.82,-295.73 1175.77,-297.11 1162.93,-298.72"/>
<polygon fill="#63b8ff" stroke="#63b8ff" points="1428.72,-300.92 1438.96,-298.22 1429.27,-293.94 1428.72,-300.92"/>
</a>
</g>
</g>
<!-- Node11&#45;&gt;Node10 -->
<g id="edge15_Node000011_Node000010" class="edge">
<title>Node11&#45;&gt;Node10</title>
<g id="a_edge15_Node000011_Node000010"><a xlink:title=" ">
<path fill="none" stroke="#63b8ff" d="M1639.93,-314.53C1654.05,-314.62 1668.45,-314.59 1682.33,-314.42"/>
<polygon fill="#63b8ff" stroke="#63b8ff" points="1640.22,-311.04 1630.19,-314.45 1640.16,-318.04 1640.22,-311.04"/>
</a>
</g>
</g>
<!-- Node12 -->
<g id="Node000012" class="node">
<title>Node12</title>
<g id="a_Node000012"><a xlink:href="classediteurpanovisu_1_1EditeurPanovisu.html#a9f3ea25b35d4884524508dab3dc4fd6a" target="_top" xlink:title=" ">
<polygon fill="white" stroke="#666666" points="1386.75,-241.83 1201.25,-241.83 1201.25,-209.83 1386.75,-209.83 1386.75,-241.83"/>
<text xml:space="preserve" text-anchor="start" x="1209.25" y="-228.33" font-family="Helvetica,sans-Serif" font-size="10.00">editeurpanovisu.EditeurPanovisu.projet</text>
<text xml:space="preserve" text-anchor="middle" x="1294" y="-216.33" font-family="Helvetica,sans-Serif" font-size="10.00">Sauve</text>
</a>
</g>
</g>
<!-- Node11&#45;&gt;Node12 -->
<g id="edge16_Node000011_Node000012" class="edge">
<title>Node11&#45;&gt;Node12</title>
<g id="a_edge16_Node000011_Node000012"><a xlink:title=" ">
<path fill="none" stroke="#63b8ff" d="M1474.8,-287.62C1434.21,-273.67 1380.93,-255.36 1342.93,-242.3"/>
<polygon fill="#63b8ff" stroke="#63b8ff" points="1473.6,-290.91 1484.19,-290.85 1475.87,-284.29 1473.6,-290.91"/>
</a>
</g>
</g>
<!-- Node18 -->
<g id="Node000018" class="node">
<title>Node18</title>
<g id="a_Node000018"><a xlink:href="classediteurpanovisu_1_1EditeurPanovisu.html#a7b2e25dc717eb52b62e23d54ec4c124a" target="_top" xlink:title=" ">
<polygon fill="white" stroke="#666666" points="1386.75,-335.83 1201.25,-335.83 1201.25,-303.83 1386.75,-303.83 1386.75,-335.83"/>
<text xml:space="preserve" text-anchor="start" x="1209.25" y="-322.33" font-family="Helvetica,sans-Serif" font-size="10.00">editeurpanovisu.EditeurPanovisu.projet</text>
<text xml:space="preserve" text-anchor="middle" x="1294" y="-310.33" font-family="Helvetica,sans-Serif" font-size="10.00">SauveSous</text>
</a>
</g>
</g>
<!-- Node11&#45;&gt;Node18 -->
<g id="edge30_Node000011_Node000018" class="edge">
<title>Node11&#45;&gt;Node18</title>
<g id="a_edge30_Node000011_Node000018"><a xlink:title=" ">
<path fill="none" stroke="#63b8ff" d="M1429.17,-313.09C1415.14,-313.79 1400.84,-314.51 1387.04,-315.2"/>
<polygon fill="#63b8ff" stroke="#63b8ff" points="1429.02,-316.6 1438.83,-312.6 1428.67,-309.61 1429.02,-316.6"/>
</a>
</g>
</g>
<!-- Node12&#45;&gt;Node4 -->
<g id="edge17_Node000012_Node000004" class="edge">
<title>Node12&#45;&gt;Node4</title>
<g id="a_edge17_Node000012_Node000004"><a xlink:title=" ">
<path fill="none" stroke="#63b8ff" d="M1210.43,-207.26C1195.47,-204.58 1179.95,-202.26 1165.25,-200.83 1080.87,-192.65 1059.05,-194.66 974.5,-200.83 742.43,-217.77 684.33,-229.55 456.5,-276.83 421.13,-284.17 381.34,-295.23 353.76,-303.34"/>
<polygon fill="#63b8ff" stroke="#63b8ff" points="1209.78,-210.7 1220.25,-209.09 1211.06,-203.82 1209.78,-210.7"/>
</a>
</g>
</g>
<!-- Node12&#45;&gt;Node9 -->
<g id="edge20_Node000012_Node000009" class="edge">
<title>Node12&#45;&gt;Node9</title>
<g id="a_edge20_Node000012_Node000009"><a xlink:title=" ">
<path fill="none" stroke="#63b8ff" d="M1236.02,-246.4C1224.36,-251.11 1212.28,-256.35 1201.25,-261.83 1184.46,-270.18 1182.31,-276.05 1165.25,-283.83 1154.15,-288.9 1141.94,-293.47 1130.1,-297.42"/>
<polygon fill="#63b8ff" stroke="#63b8ff" points="1237.15,-249.72 1245.17,-242.79 1234.59,-243.2 1237.15,-249.72"/>
</a>
</g>
</g>
<!-- Node12&#45;&gt;Node10 -->
<g id="edge21_Node000012_Node000010" class="edge">
<title>Node12&#45;&gt;Node10</title>
<g id="a_edge21_Node000012_Node000010"><a xlink:title=" ">
<path fill="none" stroke="#63b8ff" d="M1397.95,-241.63C1468.1,-252.61 1563.03,-267.9 1646.5,-282.83 1661.29,-285.48 1677.02,-288.44 1692.2,-291.37"/>
<polygon fill="#63b8ff" stroke="#63b8ff" points="1398.83,-238.22 1388.41,-240.13 1397.75,-245.14 1398.83,-238.22"/>
</a>
</g>
</g>
<!-- Node13 -->
<g id="Node000013" class="node">
<title>Node13</title>
<g id="a_Node000013"><a xlink:href="classediteurpanovisu_1_1EditeurPanovisu.html#a94e36b9e9d09ab1a4c852b8a8cefa927" target="_top" xlink:title=" ">
<polygon fill="white" stroke="#666666" points="663.75,-153.83 473,-153.83 473,-121.83 663.75,-121.83 663.75,-153.83"/>
<text xml:space="preserve" text-anchor="start" x="481" y="-140.33" font-family="Helvetica,sans-Serif" font-size="10.00">editeurpanovisu.EditeurPanovisu.genere</text>
<text xml:space="preserve" text-anchor="middle" x="568.38" y="-128.33" font-family="Helvetica,sans-Serif" font-size="10.00">Visite</text>
</a>
</g>
</g>
<!-- Node12&#45;&gt;Node13 -->
<g id="edge18_Node000012_Node000013" class="edge">
<title>Node12&#45;&gt;Node13</title>
<g id="a_edge18_Node000012_Node000013"><a xlink:title=" ">
<path fill="none" stroke="#63b8ff" d="M1255.15,-204.08C1230.42,-191.04 1196.94,-175.53 1165.25,-167.83 992.25,-125.82 782.95,-126.7 664.08,-131.81"/>
<polygon fill="#63b8ff" stroke="#63b8ff" points="1253.39,-207.11 1263.86,-208.77 1256.71,-200.95 1253.39,-207.11"/>
</a>
</g>
</g>
<!-- Node14 -->
<g id="Node000014" class="node">
<title>Node14</title>
<g id="a_Node000014"><a xlink:href="classediteurpanovisu_1_1EditeurPanovisu.html#a9b46b222714af12c06ec33d410400773" target="_top" xlink:title=" ">
<polygon fill="white" stroke="#666666" points="922.75,-285.83 732,-285.83 732,-253.83 922.75,-253.83 922.75,-285.83"/>
<text xml:space="preserve" text-anchor="start" x="740" y="-272.33" font-family="Helvetica,sans-Serif" font-size="10.00">editeurpanovisu.EditeurPanovisu.projets</text>
<text xml:space="preserve" text-anchor="middle" x="827.38" y="-260.33" font-family="Helvetica,sans-Serif" font-size="10.00">Fermer</text>
</a>
</g>
</g>
<!-- Node12&#45;&gt;Node14 -->
<g id="edge22_Node000012_Node000014" class="edge">
<title>Node12&#45;&gt;Node14</title>
<g id="a_edge22_Node000012_Node000014"><a xlink:title=" ">
<path fill="none" stroke="#63b8ff" d="M1206.92,-244.34C1193.04,-246.85 1178.79,-249.13 1165.25,-250.83 1083.88,-261.04 990.76,-265.77 923.07,-267.95"/>
<polygon fill="#63b8ff" stroke="#63b8ff" points="1207.28,-247.84 1216.47,-242.57 1206,-240.96 1207.28,-247.84"/>
</a>
</g>
</g>
<!-- Node15 -->
<g id="Node000015" class="node">
<title>Node15</title>
<g id="a_Node000015"><a xlink:href="classediteurpanovisu_1_1EditeurPanovisu.html#ac9d449399ccd38843fa12e716f0c9611" target="_top" xlink:title=" ">
<polygon fill="white" stroke="#666666" points="1165.25,-77.83 974.5,-77.83 974.5,-45.83 1165.25,-45.83 1165.25,-77.83"/>
<text xml:space="preserve" text-anchor="start" x="982.5" y="-64.33" font-family="Helvetica,sans-Serif" font-size="10.00">editeurpanovisu.EditeurPanovisu.projets</text>
<text xml:space="preserve" text-anchor="middle" x="1069.88" y="-52.33" font-family="Helvetica,sans-Serif" font-size="10.00">Nouveau</text>
</a>
</g>
</g>
<!-- Node12&#45;&gt;Node15 -->
<g id="edge24_Node000012_Node000015" class="edge">
<title>Node12&#45;&gt;Node15</title>
<g id="a_edge24_Node000012_Node000015"><a xlink:title=" ">
<path fill="none" stroke="#63b8ff" d="M1275.34,-200.72C1252.98,-170.7 1211.74,-120.88 1165.25,-91.83 1156.65,-86.46 1147,-81.97 1137.24,-78.24"/>
<polygon fill="#63b8ff" stroke="#63b8ff" points="1272.3,-202.49 1281.02,-208.49 1277.95,-198.36 1272.3,-202.49"/>
</a>
</g>
</g>
<!-- Node16 -->
<g id="Node000016" class="node">
<title>Node16</title>
<g id="a_Node000016"><a xlink:href="classediteurpanovisu_1_1EditeurPanovisu.html#a2b3125ffe2e6291efacf19df6cb30a8d" target="_top" xlink:title=" ">
<polygon fill="white" stroke="#666666" points="917.88,-115.83 736.88,-115.83 736.88,-95.83 917.88,-95.83 917.88,-115.83"/>
<text xml:space="preserve" text-anchor="middle" x="827.38" y="-102.33" font-family="Helvetica,sans-Serif" font-size="10.00">editeurpanovisu.EditeurPanovisu.start</text>
</a>
</g>
</g>
<!-- Node12&#45;&gt;Node16 -->
<g id="edge29_Node000012_Node000016" class="edge">
<title>Node12&#45;&gt;Node16</title>
<g id="a_edge29_Node000012_Node000016"><a xlink:title=" ">
<path fill="none" stroke="#63b8ff" d="M1269.46,-201.38C1245.61,-178.38 1206.45,-145.23 1165.25,-129.83 1085.48,-100.01 987.78,-96.3 918.18,-98.68"/>
<polygon fill="#63b8ff" stroke="#63b8ff" points="1266.88,-203.75 1276.45,-208.28 1271.79,-198.76 1266.88,-203.75"/>
</a>
</g>
</g>
<!-- Node17 -->
<g id="Node000017" class="node">
<title>Node17</title>
<g id="a_Node000017"><a xlink:href="classediteurpanovisu_1_1EditeurPanovisu.html#aef8c9b28c3e88d6e27e3f62b9a901134" target="_top" xlink:title=" ">
<polygon fill="white" stroke="#666666" points="1163.75,-241.83 976,-241.83 976,-209.83 1163.75,-209.83 1163.75,-241.83"/>
<text xml:space="preserve" text-anchor="start" x="984" y="-228.33" font-family="Helvetica,sans-Serif" font-size="10.00">editeurpanovisu.EditeurPanovisu.sauve</text>
<text xml:space="preserve" text-anchor="middle" x="1069.88" y="-216.33" font-family="Helvetica,sans-Serif" font-size="10.00">Fichiers</text>
</a>
</g>
</g>
<!-- Node12&#45;&gt;Node17 -->
<g id="edge28_Node000012_Node000017" class="edge">
<title>Node12&#45;&gt;Node17</title>
<g id="a_edge28_Node000012_Node000017"><a xlink:title=" ">
<path fill="none" stroke="#63b8ff" d="M1189.56,-225.83C1181.1,-225.83 1172.57,-225.83 1164.19,-225.83"/>
<polygon fill="#63b8ff" stroke="#63b8ff" points="1189.54,-229.33 1199.54,-225.83 1189.54,-222.33 1189.54,-229.33"/>
</a>
</g>
</g>
<!-- Node13&#45;&gt;Node4 -->
<g id="edge19_Node000013_Node000004" class="edge">
<title>Node13&#45;&gt;Node4</title>
<g id="a_edge19_Node000013_Node000004"><a xlink:title=" ">
<path fill="none" stroke="#63b8ff" d="M475.41,-158.33C468.82,-161.11 462.45,-164.26 456.5,-167.83 395.08,-204.69 343.72,-276.77 326,-303.52"/>
<polygon fill="#63b8ff" stroke="#63b8ff" points="476.42,-161.69 484.47,-154.8 473.89,-155.16 476.42,-161.69"/>
</a>
</g>
</g>
<!-- Node14&#45;&gt;Node4 -->
<g id="edge23_Node000014_Node000004" class="edge">
<title>Node14&#45;&gt;Node4</title>
<g id="a_edge23_Node000014_Node000004"><a xlink:title=" ">
<path fill="none" stroke="#63b8ff" d="M720.51,-277.83C646.52,-283.56 545.44,-291.69 456.5,-299.83 444.58,-300.92 432.09,-302.12 419.7,-303.35"/>
<polygon fill="#63b8ff" stroke="#63b8ff" points="720.48,-281.34 730.18,-277.08 719.94,-274.36 720.48,-281.34"/>
</a>
</g>
</g>
<!-- Node15&#45;&gt;Node4 -->
<g id="edge25_Node000015_Node000004" class="edge">
<title>Node15&#45;&gt;Node4</title>
<g id="a_edge25_Node000015_Node000004"><a xlink:title=" ">
<path fill="none" stroke="#63b8ff" d="M962.98,-59.7C810.81,-58.46 539.44,-63.57 456.5,-112.83 378.41,-159.21 334.77,-269.46 322.79,-303.59"/>
<polygon fill="#63b8ff" stroke="#63b8ff" points="962.64,-63.2 972.67,-59.79 962.7,-56.2 962.64,-63.2"/>
</a>
</g>
</g>
<!-- Node15&#45;&gt;Node16 -->
<g id="edge26_Node000015_Node000016" class="edge">
<title>Node15&#45;&gt;Node16</title>
<g id="a_edge26_Node000015_Node000016"><a xlink:title=" ">
<path fill="none" stroke="#63b8ff" d="M967.9,-80.31C939.84,-85.44 910.35,-90.83 885.75,-95.34"/>
<polygon fill="#63b8ff" stroke="#63b8ff" points="968.28,-83.79 977.49,-78.55 967.02,-76.91 968.28,-83.79"/>
</a>
</g>
</g>
<!-- Node16&#45;&gt;Node13 -->
<g id="edge27_Node000016_Node000013" class="edge">
<title>Node16&#45;&gt;Node13</title>
<g id="a_edge27_Node000016_Node000013"><a xlink:title=" ">
<path fill="none" stroke="#63b8ff" d="M730.92,-117.72C709.04,-120.44 685.79,-123.34 663.95,-126.06"/>
<polygon fill="#63b8ff" stroke="#63b8ff" points="731.23,-121.21 740.72,-116.5 730.37,-114.26 731.23,-121.21"/>
</a>
</g>
</g>
<!-- Node18&#45;&gt;Node4 -->
<g id="edge31_Node000018_Node000004" class="edge">
<title>Node18&#45;&gt;Node4</title>
<g id="a_edge31_Node000018_Node000004"><a xlink:title=" ">
<path fill="none" stroke="#63b8ff" d="M1189.78,-336.51C1181.5,-337.44 1173.24,-338.24 1165.25,-338.83 1030.06,-348.83 630.16,-338.52 456.5,-327.83 442.05,-326.94 426.77,-325.69 411.86,-324.3"/>
<polygon fill="#63b8ff" stroke="#63b8ff" points="1190.06,-340 1199.57,-335.34 1189.23,-333.05 1190.06,-340"/>
</a>
</g>
</g>
<!-- Node19&#45;&gt;Node15 -->
<g id="edge36_Node000019_Node000015" class="edge">
<title>Node19&#45;&gt;Node15</title>
<g id="a_edge36_Node000019_Node000015"><a xlink:title=" ">
<path fill="none" stroke="#63b8ff" d="M1892.13,-92.2C1714.14,-85.62 1340.88,-71.81 1165.6,-65.33"/>
<polygon fill="#63b8ff" stroke="#63b8ff" points="1891.93,-95.69 1902.06,-92.56 1892.19,-88.7 1891.93,-95.69"/>
</a>
</g>
</g>
<!-- Node20 -->
<g id="Node000020" class="node">
<title>Node20</title>
<g id="a_Node000020"><a xlink:href="classediteurpanovisu_1_1EditeurPanovisu.html#a924d3ccff3e4f402d2309cd2eade3237" target="_top" xlink:title=" ">
<polygon fill="white" stroke="#666666" points="938.5,-35.83 716.25,-35.83 716.25,-3.83 938.5,-3.83 938.5,-35.83"/>
<text xml:space="preserve" text-anchor="start" x="724.25" y="-22.33" font-family="Helvetica,sans-Serif" font-size="10.00">editeurpanovisu.EditeurPanovisu.panoramiques</text>
<text xml:space="preserve" text-anchor="middle" x="827.38" y="-10.33" font-family="Helvetica,sans-Serif" font-size="10.00">Ajouter</text>
</a>
</g>
</g>
<!-- Node19&#45;&gt;Node20 -->
<g id="edge34_Node000019_Node000020" class="edge">
<title>Node19&#45;&gt;Node20</title>
<g id="a_edge34_Node000019_Node000020"><a xlink:title=" ">
<path fill="none" stroke="#63b8ff" d="M1921.55,-76.49C1832.98,-53.39 1674.12,-17.83 1535.62,-17.83 1535.62,-17.83 1535.62,-17.83 1293,-17.83 1171.8,-17.83 1032.82,-18.52 938.68,-19.09"/>
<polygon fill="#63b8ff" stroke="#63b8ff" points="1920.5,-79.84 1931.06,-79 1922.28,-73.07 1920.5,-79.84"/>
</a>
</g>
</g>
<!-- Node20&#45;&gt;Node4 -->
<g id="edge35_Node000020_Node000004" class="edge">
<title>Node20&#45;&gt;Node4</title>
<g id="a_edge35_Node000020_Node000004"><a xlink:title=" ">
<path fill="none" stroke="#63b8ff" d="M713.42,-2.37C635.01,3.71 531.55,-0.92 456.5,-50.83 362.17,-113.57 328.7,-262.71 321.15,-303.41"/>
<polygon fill="#63b8ff" stroke="#63b8ff" points="713.03,-5.85 723.3,-3.21 713.63,1.13 713.03,-5.85"/>
</a>
</g>
</g>
<!-- Node21&#45;&gt;Node2 -->
<g id="edge38_Node000021_Node000002" class="edge">
<title>Node21&#45;&gt;Node2</title>
<g id="a_edge38_Node000021_Node000002"><a xlink:title=" ">
<path fill="none" stroke="#63b8ff" d="M2123.73,-432.15C2044.42,-435.27 1926.71,-439.91 1850.73,-442.9"/>
<polygon fill="#63b8ff" stroke="#63b8ff" points="2123.78,-435.65 2133.63,-431.76 2123.5,-428.65 2123.78,-435.65"/>
</a>
</g>
</g>
<!-- Node22&#45;&gt;Node7 -->
<g id="edge41_Node000022_Node000007" class="edge">
<title>Node22&#45;&gt;Node7</title>
<g id="a_edge41_Node000022_Node000007"><a xlink:title=" ">
<path fill="none" stroke="#63b8ff" d="M2327.23,-252.83C2319.18,-252.83 2311.03,-252.83 2302.98,-252.83"/>
<polygon fill="#63b8ff" stroke="#63b8ff" points="2327.02,-256.33 2337.02,-252.83 2327.02,-249.33 2327.02,-256.33"/>
</a>
</g>
</g>
<!-- Node23&#45;&gt;Node7 -->
<g id="edge43_Node000023_Node000007" class="edge">
<title>Node23&#45;&gt;Node7</title>
<g id="a_edge43_Node000023_Node000007"><a xlink:title=" ">
<path fill="none" stroke="#63b8ff" d="M2339.68,-221.89C2319.65,-226.66 2298.33,-231.75 2278.89,-236.38"/>
<polygon fill="#63b8ff" stroke="#63b8ff" points="2340.27,-225.35 2349.18,-219.62 2338.64,-218.54 2340.27,-225.35"/>
</a>
</g>
</g>
<!-- Node25 -->
<g id="Node000025" class="node">
<title>Node25</title>
<g id="a_Node000025"><a xlink:href="classediteurpanovisu_1_1EquiCubeDialogController.html#a01c288eacc25996544414cc5e9ceb0a1" target="_top" xlink:title=" ">
<polygon fill="white" stroke="#666666" points="2283.25,-394.83 2134.5,-394.83 2134.5,-362.83 2283.25,-362.83 2283.25,-394.83"/>
<text xml:space="preserve" text-anchor="start" x="2142.5" y="-381.33" font-family="Helvetica,sans-Serif" font-size="10.00">editeurpanovisu.EquiCube</text>
<text xml:space="preserve" text-anchor="middle" x="2208.88" y="-369.33" font-family="Helvetica,sans-Serif" font-size="10.00">DialogController.tskTraitement</text>
</a>
</g>
</g>
<!-- Node24&#45;&gt;Node25 -->
<g id="edge45_Node000024_Node000025" class="edge">
<title>Node24&#45;&gt;Node25</title>
<g id="a_edge45_Node000024_Node000025"><a xlink:title=" ">
<path fill="none" stroke="#63b8ff" d="M2338.85,-378.83C2320.6,-378.83 2301.32,-378.83 2283.39,-378.83"/>
<polygon fill="#63b8ff" stroke="#63b8ff" points="2338.85,-382.33 2348.85,-378.83 2338.85,-375.33 2338.85,-382.33"/>
</a>
</g>
</g>
<!-- Node26 -->
<g id="Node000026" class="node">
<title>Node26</title>
<g id="a_Node000026"><a xlink:href="classediteurpanovisu_1_1EquiCubeDialogController.html#a29f2bdf8cb9ac2486c6d038ada9c2ce6" target="_top" xlink:title=" ">
<polygon fill="white" stroke="#666666" points="2059.88,-400.83 1923.12,-400.83 1923.12,-368.83 2059.88,-368.83 2059.88,-400.83"/>
<text xml:space="preserve" text-anchor="start" x="1931.12" y="-387.33" font-family="Helvetica,sans-Serif" font-size="10.00">editeurpanovisu.EquiCube</text>
<text xml:space="preserve" text-anchor="middle" x="1991.5" y="-375.33" font-family="Helvetica,sans-Serif" font-size="10.00">DialogController.validerE2C</text>
</a>
</g>
</g>
<!-- Node25&#45;&gt;Node26 -->
<g id="edge46_Node000025_Node000026" class="edge">
<title>Node25&#45;&gt;Node26</title>
<g id="a_edge46_Node000025_Node000026"><a xlink:title=" ">
<path fill="none" stroke="#63b8ff" d="M2122.65,-381.21C2101.86,-381.79 2079.91,-382.4 2060.07,-382.95"/>
<polygon fill="#63b8ff" stroke="#63b8ff" points="2122.64,-384.71 2132.54,-380.93 2122.45,-377.71 2122.64,-384.71"/>
</a>
</g>
</g>
<!-- Node26&#45;&gt;Node2 -->
<g id="edge47_Node000026_Node000002" class="edge">
<title>Node26&#45;&gt;Node2</title>
<g id="a_edge47_Node000026_Node000002"><a xlink:title=" ">
<path fill="none" stroke="#63b8ff" d="M1921.78,-404.4C1893.49,-412.45 1861.09,-421.68 1834.05,-429.38"/>
<polygon fill="#63b8ff" stroke="#63b8ff" points="1922.69,-407.78 1931.35,-401.67 1920.77,-401.05 1922.69,-407.78"/>
</a>
</g>
</g>
</g>
</svg>
