<?xml version="1.0" encoding="UTF-8" standalone="no"?>
<!DOCTYPE svg PUBLIC "-//W3C//DTD SVG 1.1//EN"
 "http://www.w3.org/Graphics/SVG/1.1/DTD/svg11.dtd">
<!-- Generated by graphviz version 13.1.2 (20250808.2320)
 -->
<!-- Title: editeurpanovisu.GestionnaireInterfaceController.changeCouleurHS Pages: 1 -->
<svg width="405pt" height="290pt"
 viewBox="0.00 0.00 405.00 290.00" xmlns="http://www.w3.org/2000/svg" xmlns:xlink="http://www.w3.org/1999/xlink">

<svg id="main" version="1.1" xmlns="http://www.w3.org/2000/svg" xmlns:xlink="http://www.w3.org/1999/xlink" xml:space="preserve">

<style type="text/css"><![CDATA[
.node, .edge {opacity: 0.7;}
.node.selected, .edge.selected {opacity: 1;}
.edge:hover path { stroke: red; }
.edge:hover polygon { stroke: red; fill: red; }
]]></style>
<script type="application/ecmascript" xlink:href="svg.min.js"/>
<svg id="graph" class="graph">
<g id="graph0" class="graph" transform="scale(1 1) rotate(0) translate(4 286)">
<title>editeurpanovisu.GestionnaireInterfaceController.changeCouleurHS</title>
<!-- Node1 -->
<g id="Node000001" class="node">
<title>Node1</title>
<g id="a_Node000001"><a xlink:title=" ">
<polygon fill="#999999" stroke="#666666" points="178.75,-142 0,-142 0,-110 178.75,-110 178.75,-142"/>
<text xml:space="preserve" text-anchor="start" x="8" y="-128.5" font-family="Helvetica,sans-Serif" font-size="10.00">editeurpanovisu.Gestionnaire</text>
<text xml:space="preserve" text-anchor="middle" x="89.38" y="-116.5" font-family="Helvetica,sans-Serif" font-size="10.00">InterfaceController.changeCouleurHS</text>
</a>
</g>
</g>
<!-- Node2 -->
<g id="Node000002" class="node">
<title>Node2</title>
<g id="a_Node000002"><a xlink:href="classediteurpanovisu_1_1GestionnaireInterfaceController.html#a983d74a7f753792b5fdc241d07e7153e" target="_top" xlink:title=" ">
<polygon fill="white" stroke="#666666" points="388.25,-282 223,-282 223,-250 388.25,-250 388.25,-282"/>
<text xml:space="preserve" text-anchor="start" x="231" y="-268.5" font-family="Helvetica,sans-Serif" font-size="10.00">editeurpanovisu.Gestionnaire</text>
<text xml:space="preserve" text-anchor="middle" x="305.62" y="-256.5" font-family="Helvetica,sans-Serif" font-size="10.00">InterfaceController.getImgBoutons</text>
</a>
</g>
</g>
<!-- Node1&#45;&gt;Node2 -->
<g id="edge1_Node000001_Node000002" class="edge">
<title>Node1&#45;&gt;Node2</title>
<g id="a_edge1_Node000001_Node000002"><a xlink:title=" ">
<path fill="none" stroke="#63b8ff" d="M103.48,-142.33C124.39,-167.28 167.75,-214.78 214.75,-241 217.38,-242.47 220.1,-243.85 222.88,-245.16"/>
<polygon fill="#63b8ff" stroke="#63b8ff" points="221.24,-248.26 231.81,-248.97 223.98,-241.82 221.24,-248.26"/>
</a>
</g>
</g>
<!-- Node3 -->
<g id="Node000003" class="node">
<title>Node3</title>
<g id="a_Node000003"><a xlink:href="classediteurpanovisu_1_1GestionnaireInterfaceController.html#a79db307bf3dc80979bb8d62ef7843ea4" target="_top" xlink:title=" ">
<polygon fill="white" stroke="#666666" points="396.5,-232 214.75,-232 214.75,-188 396.5,-188 396.5,-232"/>
<text xml:space="preserve" text-anchor="start" x="222.75" y="-218.5" font-family="Helvetica,sans-Serif" font-size="10.00">editeurpanovisu.Gestionnaire</text>
<text xml:space="preserve" text-anchor="start" x="222.75" y="-206.5" font-family="Helvetica,sans-Serif" font-size="10.00">InterfaceController.getiNombreImages</text>
<text xml:space="preserve" text-anchor="middle" x="305.62" y="-194.5" font-family="Helvetica,sans-Serif" font-size="10.00">Bouton</text>
</a>
</g>
</g>
<!-- Node1&#45;&gt;Node3 -->
<g id="edge2_Node000001_Node000003" class="edge">
<title>Node1&#45;&gt;Node3</title>
<g id="a_edge2_Node000001_Node000003"><a xlink:title=" ">
<path fill="none" stroke="#63b8ff" d="M127.1,-142.46C151.72,-153.29 184.96,-167.53 214.75,-179 218.88,-180.59 223.13,-182.19 227.42,-183.77"/>
<polygon fill="#63b8ff" stroke="#63b8ff" points="226.16,-187.03 236.75,-187.16 228.54,-180.45 226.16,-187.03"/>
</a>
</g>
</g>
<!-- Node4 -->
<g id="Node000004" class="node">
<title>Node4</title>
<g id="a_Node000004"><a xlink:href="classediteurpanovisu_1_1GestionnaireInterfaceController.html#a51203c9ecf97b1e3f057e0d3471a57b7" target="_top" xlink:title=" ">
<polygon fill="white" stroke="#666666" points="391.25,-170 220,-170 220,-138 391.25,-138 391.25,-170"/>
<text xml:space="preserve" text-anchor="start" x="228" y="-156.5" font-family="Helvetica,sans-Serif" font-size="10.00">editeurpanovisu.Gestionnaire</text>
<text xml:space="preserve" text-anchor="middle" x="305.62" y="-144.5" font-family="Helvetica,sans-Serif" font-size="10.00">InterfaceController.getPrLisBoutons</text>
</a>
</g>
</g>
<!-- Node1&#45;&gt;Node4 -->
<g id="edge3_Node000001_Node000004" class="edge">
<title>Node1&#45;&gt;Node4</title>
<g id="a_edge3_Node000001_Node000004"><a xlink:title=" ">
<path fill="none" stroke="#63b8ff" d="M179.07,-137.59C188.75,-138.86 198.63,-140.15 208.4,-141.42"/>
<polygon fill="#63b8ff" stroke="#63b8ff" points="207.92,-144.89 218.29,-142.72 208.83,-137.95 207.92,-144.89"/>
</a>
</g>
</g>
<!-- Node5 -->
<g id="Node000005" class="node">
<title>Node5</title>
<g id="a_Node000005"><a xlink:href="classediteurpanovisu_1_1GestionnaireInterfaceController.html#a26a8714c1be2bd8f02fcb958b4e9fbf7" target="_top" xlink:title=" ">
<polygon fill="white" stroke="#666666" points="391.25,-120 220,-120 220,-76 391.25,-76 391.25,-120"/>
<text xml:space="preserve" text-anchor="start" x="228" y="-106.5" font-family="Helvetica,sans-Serif" font-size="10.00">editeurpanovisu.Gestionnaire</text>
<text xml:space="preserve" text-anchor="start" x="228" y="-94.5" font-family="Helvetica,sans-Serif" font-size="10.00">InterfaceController.getPwNouveaux</text>
<text xml:space="preserve" text-anchor="middle" x="305.62" y="-82.5" font-family="Helvetica,sans-Serif" font-size="10.00">Boutons</text>
</a>
</g>
</g>
<!-- Node1&#45;&gt;Node5 -->
<g id="edge4_Node000001_Node000005" class="edge">
<title>Node1&#45;&gt;Node5</title>
<g id="a_edge4_Node000001_Node000005"><a xlink:title=" ">
<path fill="none" stroke="#63b8ff" d="M179.07,-114.41C188.75,-113.14 198.63,-111.85 208.4,-110.58"/>
<polygon fill="#63b8ff" stroke="#63b8ff" points="208.83,-114.05 218.29,-109.28 207.92,-107.11 208.83,-114.05"/>
</a>
</g>
</g>
<!-- Node6 -->
<g id="Node000006" class="node">
<title>Node6</title>
<g id="a_Node000006"><a xlink:href="leaflet_8js.html#a008d931e56b6fc013061112f26afbffb" target="_top" xlink:title=" ">
<polygon fill="white" stroke="#666666" points="320.02,-58 291.23,-58 291.23,-38 320.02,-38 320.02,-58"/>
<text xml:space="preserve" text-anchor="middle" x="305.62" y="-44.5" font-family="Helvetica,sans-Serif" font-size="10.00">x</text>
</a>
</g>
</g>
<!-- Node1&#45;&gt;Node6 -->
<g id="edge5_Node000001_Node000006" class="edge">
<title>Node1&#45;&gt;Node6</title>
<g id="a_edge5_Node000001_Node000006"><a xlink:title=" ">
<path fill="none" stroke="#63b8ff" d="M119.71,-109.67C144.41,-96.51 181.01,-78.39 214.75,-67 236.21,-59.75 261.53,-54.7 279.82,-51.63"/>
<polygon fill="#63b8ff" stroke="#63b8ff" points="280.14,-55.13 289.47,-50.1 279.04,-48.21 280.14,-55.13"/>
</a>
</g>
</g>
<!-- Node7 -->
<g id="Node000007" class="node">
<title>Node7</title>
<g id="a_Node000007"><a xlink:href="leaflet_8js.html#a9f9b62a373d2bb4624b7ac2df8151435" target="_top" xlink:title=" ">
<polygon fill="white" stroke="#666666" points="320.02,-20 291.23,-20 291.23,0 320.02,0 320.02,-20"/>
<text xml:space="preserve" text-anchor="middle" x="305.62" y="-6.5" font-family="Helvetica,sans-Serif" font-size="10.00">y</text>
</a>
</g>
</g>
<!-- Node1&#45;&gt;Node7 -->
<g id="edge6_Node000001_Node000007" class="edge">
<title>Node1&#45;&gt;Node7</title>
<g id="a_edge6_Node000001_Node000007"><a xlink:title=" ">
<path fill="none" stroke="#63b8ff" d="M106.04,-109.83C128.17,-87.99 170.8,-49.44 214.75,-29 235.41,-19.39 261,-14.59 279.59,-12.22"/>
<polygon fill="#63b8ff" stroke="#63b8ff" points="279.87,-15.71 289.42,-11.13 279.1,-8.76 279.87,-15.71"/>
</a>
</g>
</g>
</g>
</svg>
</svg>

<style type='text/css'>
<![CDATA[
[data-mouse-over-selected='false'] { opacity: 0.7; }
[data-mouse-over-selected='true']  { opacity: 1.0; }
]]>
</style>
<script type="application/ecmascript"><![CDATA[
document.addEventListener('DOMContentLoaded', (event) => {
  highlightEdges();
  highlightAdjacentNodes();
});
]]></script>
</svg>
