<?xml version="1.0" encoding="UTF-8" standalone="no"?>
<!DOCTYPE svg PUBLIC "-//W3C//DTD SVG 1.1//EN"
 "http://www.w3.org/Graphics/SVG/1.1/DTD/svg11.dtd">
<!-- Generated by graphviz version 13.1.2 (20250808.2320)
 -->
<!-- Title: editeurpanovisu.OrdrePanoramique.creeListe Pages: 1 -->
<svg width="414pt" height="190pt"
 viewBox="0.00 0.00 414.00 190.00" xmlns="http://www.w3.org/2000/svg" xmlns:xlink="http://www.w3.org/1999/xlink">
<g id="graph0" class="graph" transform="scale(1 1) rotate(0) translate(4 186)">
<title>editeurpanovisu.OrdrePanoramique.creeListe</title>
<!-- Node1 -->
<g id="Node000001" class="node">
<title>Node1</title>
<g id="a_Node000001"><a xlink:title=" ">
<polygon fill="#999999" stroke="#666666" points="190,-107 0,-107 0,-75 190,-75 190,-107"/>
<text xml:space="preserve" text-anchor="start" x="8" y="-93.5" font-family="Helvetica,sans-Serif" font-size="10.00">editeurpanovisu.OrdrePanoramique.cree</text>
<text xml:space="preserve" text-anchor="middle" x="95" y="-81.5" font-family="Helvetica,sans-Serif" font-size="10.00">Liste</text>
</a>
</g>
</g>
<!-- Node2 -->
<g id="Node000002" class="node">
<title>Node2</title>
<g id="a_Node000002"><a xlink:href="classediteurpanovisu_1_1PanoramiqueCellule.html#a5197a61ac2c8a575a88a7205a3827788" target="_top" xlink:title=" ">
<polygon fill="white" stroke="#666666" points="388.25,-182 244,-182 244,-150 388.25,-150 388.25,-182"/>
<text xml:space="preserve" text-anchor="start" x="252" y="-168.5" font-family="Helvetica,sans-Serif" font-size="10.00">editeurpanovisu.Panoramique</text>
<text xml:space="preserve" text-anchor="middle" x="316.12" y="-156.5" font-family="Helvetica,sans-Serif" font-size="10.00">Cellule.setImgPanoramique</text>
</a>
</g>
</g>
<!-- Node1&#45;&gt;Node2 -->
<g id="edge1_Node000001_Node000002" class="edge">
<title>Node1&#45;&gt;Node2</title>
<g id="a_edge1_Node000001_Node000002"><a xlink:title=" ">
<path fill="none" stroke="#63b8ff" d="M135.77,-107.41C161.32,-117.67 195.36,-130.84 226,-141 231.39,-142.79 236.99,-144.56 242.64,-146.28"/>
<polygon fill="#63b8ff" stroke="#63b8ff" points="241.49,-149.59 252.08,-149.1 243.5,-142.89 241.49,-149.59"/>
</a>
</g>
</g>
<!-- Node3 -->
<g id="Node000003" class="node">
<title>Node3</title>
<g id="a_Node000003"><a xlink:href="classediteurpanovisu_1_1PanoramiqueCellule.html#a66dca565b3713687c8d34f97013ef83a" target="_top" xlink:title=" ">
<polygon fill="white" stroke="#666666" points="388.25,-132 244,-132 244,-100 388.25,-100 388.25,-132"/>
<text xml:space="preserve" text-anchor="start" x="252" y="-118.5" font-family="Helvetica,sans-Serif" font-size="10.00">editeurpanovisu.Panoramique</text>
<text xml:space="preserve" text-anchor="middle" x="316.12" y="-106.5" font-family="Helvetica,sans-Serif" font-size="10.00">Cellule.setiNumPano</text>
</a>
</g>
</g>
<!-- Node1&#45;&gt;Node3 -->
<g id="edge2_Node000001_Node000003" class="edge">
<title>Node1&#45;&gt;Node3</title>
<g id="a_edge2_Node000001_Node000003"><a xlink:title=" ">
<path fill="none" stroke="#63b8ff" d="M190.2,-101.75C204.16,-103.34 218.45,-104.97 232.16,-106.53"/>
<polygon fill="#63b8ff" stroke="#63b8ff" points="231.67,-110 242,-107.66 232.47,-103.05 231.67,-110"/>
</a>
</g>
</g>
<!-- Node4 -->
<g id="Node000004" class="node">
<title>Node4</title>
<g id="a_Node000004"><a xlink:href="classediteurpanovisu_1_1PanoramiqueCellule.html#ad9195089981021670fbc734ad202a8dc" target="_top" xlink:title=" ">
<polygon fill="white" stroke="#666666" points="392,-82 240.25,-82 240.25,-50 392,-50 392,-82"/>
<text xml:space="preserve" text-anchor="start" x="248.25" y="-68.5" font-family="Helvetica,sans-Serif" font-size="10.00">editeurpanovisu.Panoramique</text>
<text xml:space="preserve" text-anchor="middle" x="316.12" y="-56.5" font-family="Helvetica,sans-Serif" font-size="10.00">Cellule.setStrTitrePanoramique</text>
</a>
</g>
</g>
<!-- Node1&#45;&gt;Node4 -->
<g id="edge3_Node000001_Node000004" class="edge">
<title>Node1&#45;&gt;Node4</title>
<g id="a_edge3_Node000001_Node000004"><a xlink:title=" ">
<path fill="none" stroke="#63b8ff" d="M190.2,-80.25C202.9,-78.8 215.88,-77.32 228.44,-75.89"/>
<polygon fill="#63b8ff" stroke="#63b8ff" points="228.8,-79.37 238.34,-74.76 228,-72.42 228.8,-79.37"/>
</a>
</g>
</g>
<!-- Node5 -->
<g id="Node000005" class="node">
<title>Node5</title>
<g id="a_Node000005"><a xlink:href="classediteurpanovisu_1_1PanoramiqueCellule.html#a9399b6003010f4a490aba9b6dbbde7e2" target="_top" xlink:title=" ">
<polygon fill="white" stroke="#666666" points="406.25,-32 226,-32 226,0 406.25,0 406.25,-32"/>
<text xml:space="preserve" text-anchor="start" x="234" y="-18.5" font-family="Helvetica,sans-Serif" font-size="10.00">editeurpanovisu.Panoramique</text>
<text xml:space="preserve" text-anchor="middle" x="316.12" y="-6.5" font-family="Helvetica,sans-Serif" font-size="10.00">Cellule.setStrTitrePanoramiqueLigne2</text>
</a>
</g>
</g>
<!-- Node1&#45;&gt;Node5 -->
<g id="edge4_Node000001_Node000005" class="edge">
<title>Node1&#45;&gt;Node5</title>
<g id="a_edge4_Node000001_Node000005"><a xlink:title=" ">
<path fill="none" stroke="#63b8ff" d="M135.77,-74.59C161.32,-64.33 195.36,-51.16 226,-41 231.39,-39.21 236.99,-37.44 242.64,-35.72"/>
<polygon fill="#63b8ff" stroke="#63b8ff" points="243.5,-39.11 252.08,-32.9 241.49,-32.41 243.5,-39.11"/>
</a>
</g>
</g>
</g>
</svg>
