<?xml version="1.0" encoding="UTF-8" standalone="no"?>
<!DOCTYPE svg PUBLIC "-//W3C//DTD SVG 1.1//EN"
 "http://www.w3.org/Graphics/SVG/1.1/DTD/svg11.dtd">
<!-- Generated by graphviz version 13.1.2 (20250808.2320)
 -->
<!-- Title: editeurpanovisu.GestionnairePlanController.getApPlan Pages: 1 -->
<!--zoomable 401 -->

<svg id="main" version="1.1" xmlns="http://www.w3.org/2000/svg" xmlns:xlink="http://www.w3.org/1999/xlink" xml:space="preserve" onload="init(evt)">

<style type="text/css"><![CDATA[
.node, .edge {opacity: 0.7;}
.node.selected, .edge.selected {opacity: 1;}
.edge:hover path { stroke: red; }
.edge:hover polygon { stroke: red; fill: red; }
]]></style>

<defs>
  <circle id="rim" cx="0" cy="0" r="7"/>
  <circle id="rim2" cx="0" cy="0" r="3.5"/>
  <g id="zoomPlus">
    <use xlink:href="#rim" fill="#404040"><set attributeName="fill" to="#808080" begin="zoomplus.mouseover" end="zoomplus.mouseout"/></use>
    <path d="M-4,0h8M0,-4v8" fill="none" stroke="white" stroke-width="1.5" pointer-events="none"/>
  </g>
  <g id="zoomMin">
    <use xlink:href="#rim" fill="#404040"><set attributeName="fill" to="#808080" begin="zoomminus.mouseover" end="zoomminus.mouseout"/></use>
    <path d="M-4,0h8" fill="none" stroke="white" stroke-width="1.5" pointer-events="none"/>
  </g>
  <g id="arrowUp" transform="translate(30 24)">
    <use xlink:href="#rim"/>
    <path pointer-events="none" fill="none" stroke="white" stroke-width="1.5" d="M0,-3.0v7 M-2.5,-0.5L0,-3.0L2.5,-0.5"/>
  </g>
  <g id="arrowRight" transform="rotate(90) translate(36 -43)">
    <use xlink:href="#rim"/>
    <path pointer-events="none" fill="none" stroke="white" stroke-width="1.5" d="M0,-3.0v7 M-2.5,-0.5L0,-3.0L2.5,-0.5"/>
  </g>
  <g id="arrowDown" transform="rotate(180) translate(-30 -48)">
    <use xlink:href="#rim"/>
    <path pointer-events="none" fill="none" stroke="white" stroke-width="1.5" d="M0,-3.0v7 M-2.5,-0.5L0,-3.0L2.5,-0.5"/>
  </g>
  <g id="arrowLeft" transform="rotate(270) translate(-36 17)">
    <use xlink:href="#rim"/>
    <path pointer-events="none" fill="none" stroke="white" stroke-width="1.5" d="M0,-3.0v7 M-2.5,-0.5L0,-3.0L2.5,-0.5"/>
  </g>
  <g id="resetDef">
    <use xlink:href="#rim2" fill="#404040"><set attributeName="fill" to="#808080" begin="reset.mouseover" end="reset.mouseout"/></use>
  </g>
</defs>
<script type="application/ecmascript">
var viewWidth = 2530;
var viewHeight = 401;
var sectionId = 'dynsection-23';
</script>
<script type="application/ecmascript" xlink:href="svg.min.js"/>
<svg id="graph" class="graph">
<g id="viewport">
<title>editeurpanovisu.GestionnairePlanController.getApPlan</title>
<!-- Node1 -->
<g id="Node000001" class="node">
<title>Node1</title>
<g id="a_Node000001"><a xlink:title=" ">
<polygon fill="#999999" stroke="#666666" points="2521.5,-121.1 2379.5,-121.1 2379.5,-89.1 2521.5,-89.1 2521.5,-121.1"/>
<text xml:space="preserve" text-anchor="start" x="2387.5" y="-107.6" font-family="Helvetica,sans-Serif" font-size="10.00">editeurpanovisu.Gestionnaire</text>
<text xml:space="preserve" text-anchor="middle" x="2450.5" y="-95.6" font-family="Helvetica,sans-Serif" font-size="10.00">PlanController.getApPlan</text>
</a>
</g>
</g>
<!-- Node2 -->
<g id="Node000002" class="node">
<title>Node2</title>
<g id="a_Node000002"><a xlink:href="classediteurpanovisu_1_1GestionnairePlanController.html#a0c00558611ee42fef942f5a53081d888" target="_top" xlink:title=" ">
<polygon fill="white" stroke="#666666" points="2343.5,-99.1 2201.5,-99.1 2201.5,-67.1 2343.5,-67.1 2343.5,-99.1"/>
<text xml:space="preserve" text-anchor="start" x="2209.5" y="-85.6" font-family="Helvetica,sans-Serif" font-size="10.00">editeurpanovisu.Gestionnaire</text>
<text xml:space="preserve" text-anchor="middle" x="2272.5" y="-73.6" font-family="Helvetica,sans-Serif" font-size="10.00">PlanController.afficherPlan</text>
</a>
</g>
</g>
<!-- Node1&#45;&gt;Node2 -->
<g id="edge1_Node000001_Node000002" class="edge">
<title>Node1&#45;&gt;Node2</title>
<g id="a_edge1_Node000001_Node000002"><a xlink:title=" ">
<path fill="none" stroke="#63b8ff" d="M2367.95,-94.91C2359.94,-93.91 2351.87,-92.9 2343.99,-91.91"/>
<polygon fill="#63b8ff" stroke="#63b8ff" points="2367.32,-98.36 2377.68,-96.12 2368.19,-91.41 2367.32,-98.36"/>
</a>
</g>
</g>
<!-- Node18 -->
<g id="Node000018" class="node">
<title>Node18</title>
<g id="a_Node000018"><a xlink:href="classediteurpanovisu_1_1GestionnairePlanController.html#a5cee5137d1f749e8a23a38ecb3bf38cb" target="_top" xlink:title=" ">
<polygon fill="white" stroke="#666666" points="1956.75,-80.1 1814.75,-80.1 1814.75,-48.1 1956.75,-48.1 1956.75,-80.1"/>
<text xml:space="preserve" text-anchor="start" x="1822.75" y="-66.6" font-family="Helvetica,sans-Serif" font-size="10.00">editeurpanovisu.Gestionnaire</text>
<text xml:space="preserve" text-anchor="middle" x="1885.75" y="-54.6" font-family="Helvetica,sans-Serif" font-size="10.00">PlanController.creeInterface</text>
</a>
</g>
</g>
<!-- Node1&#45;&gt;Node18 -->
<g id="edge34_Node000001_Node000018" class="edge">
<title>Node1&#45;&gt;Node18</title>
<g id="a_edge34_Node000001_Node000018"><a xlink:title=" ">
<path fill="none" stroke="#63b8ff" d="M2367.61,-107.65C2359.46,-107.83 2351.32,-107.99 2343.5,-108.1 2194.69,-110.21 2156.43,-110.13 2009.25,-88.1 1992.32,-85.57 1974.17,-82.31 1957.17,-79.02"/>
<polygon fill="#63b8ff" stroke="#63b8ff" points="2367.66,-111.15 2377.58,-107.41 2367.49,-104.15 2367.66,-111.15"/>
</a>
</g>
</g>
<!-- Node3 -->
<g id="Node000003" class="node">
<title>Node3</title>
<g id="a_Node000003"><a xlink:href="classediteurpanovisu_1_1GestionnairePlanController.html#a28463a3559d99394ecb23f3c74d14835" target="_top" xlink:title=" ">
<polygon fill="white" stroke="#666666" points="2158.38,-275.1 2016.38,-275.1 2016.38,-243.1 2158.38,-243.1 2158.38,-275.1"/>
<text xml:space="preserve" text-anchor="start" x="2024.38" y="-261.6" font-family="Helvetica,sans-Serif" font-size="10.00">editeurpanovisu.Gestionnaire</text>
<text xml:space="preserve" text-anchor="middle" x="2087.38" y="-249.6" font-family="Helvetica,sans-Serif" font-size="10.00">PlanController.ajouterPlan</text>
</a>
</g>
</g>
<!-- Node2&#45;&gt;Node3 -->
<g id="edge2_Node000002_Node000003" class="edge">
<title>Node2&#45;&gt;Node3</title>
<g id="a_edge2_Node000002_Node000003"><a xlink:title=" ">
<path fill="none" stroke="#63b8ff" d="M2246.63,-107C2208.87,-143.3 2138.03,-211.38 2105.5,-242.64"/>
<polygon fill="#63b8ff" stroke="#63b8ff" points="2248.72,-109.85 2253.51,-100.39 2243.87,-104.8 2248.72,-109.85"/>
</a>
</g>
</g>
<!-- Node2&#45;&gt;Node18 -->
<g id="edge30_Node000002_Node000018" class="edge">
<title>Node2&#45;&gt;Node18</title>
<g id="a_edge30_Node000002_Node000018"><a xlink:title=" ">
<path fill="none" stroke="#63b8ff" d="M2190.11,-79.08C2120.99,-75.67 2022.8,-70.82 1957.04,-67.57"/>
<polygon fill="#63b8ff" stroke="#63b8ff" points="2189.71,-82.57 2199.87,-79.56 2190.05,-75.57 2189.71,-82.57"/>
</a>
</g>
</g>
<!-- Node19 -->
<g id="Node000019" class="node">
<title>Node19</title>
<g id="a_Node000019"><a xlink:href="classediteurpanovisu_1_1GestionnairePlanController.html#a06b6b5ee31b551123cfa45faa50b52b9" target="_top" xlink:title=" ">
<polygon fill="white" stroke="#666666" points="2165.5,-58.1 2009.25,-58.1 2009.25,-26.1 2165.5,-26.1 2165.5,-58.1"/>
<text xml:space="preserve" text-anchor="start" x="2017.25" y="-44.6" font-family="Helvetica,sans-Serif" font-size="10.00">editeurpanovisu.Gestionnaire</text>
<text xml:space="preserve" text-anchor="middle" x="2087.38" y="-32.6" font-family="Helvetica,sans-Serif" font-size="10.00">PlanController.retirePlanCourant</text>
</a>
</g>
</g>
<!-- Node2&#45;&gt;Node19 -->
<g id="edge32_Node000002_Node000019" class="edge">
<title>Node2&#45;&gt;Node19</title>
<g id="a_edge32_Node000002_Node000019"><a xlink:title=" ">
<path fill="none" stroke="#63b8ff" d="M2190.21,-64.9C2180.75,-62.78 2171.15,-60.63 2161.8,-58.54"/>
<polygon fill="#63b8ff" stroke="#63b8ff" points="2189.22,-68.27 2199.75,-67.04 2190.75,-61.44 2189.22,-68.27"/>
</a>
</g>
</g>
<!-- Node4 -->
<g id="Node000004" class="node">
<title>Node4</title>
<g id="a_Node000004"><a xlink:href="classediteurpanovisu_1_1EditeurPanovisu.html#af504270c500842e35c1a37bf1e6d3e8d" target="_top" xlink:title=" ">
<polygon fill="white" stroke="#666666" points="1759.25,-393.1 1579.75,-393.1 1579.75,-361.1 1759.25,-361.1 1759.25,-393.1"/>
<text xml:space="preserve" text-anchor="start" x="1587.75" y="-379.6" font-family="Helvetica,sans-Serif" font-size="10.00">editeurpanovisu.EditeurPanovisu.plan</text>
<text xml:space="preserve" text-anchor="middle" x="1669.5" y="-367.6" font-family="Helvetica,sans-Serif" font-size="10.00">Ajouter</text>
</a>
</g>
</g>
<!-- Node3&#45;&gt;Node4 -->
<g id="edge3_Node000003_Node000004" class="edge">
<title>Node3&#45;&gt;Node4</title>
<g id="a_edge3_Node000003_Node000004"><a xlink:title=" ">
<path fill="none" stroke="#63b8ff" d="M2017.51,-278.64C1936.73,-301.56 1804.26,-339.15 1728.5,-360.64"/>
<polygon fill="#63b8ff" stroke="#63b8ff" points="2018.43,-282.02 2027.09,-275.92 2016.52,-275.28 2018.43,-282.02"/>
</a>
</g>
</g>
<!-- Node7 -->
<g id="Node000007" class="node">
<title>Node7</title>
<g id="a_Node000007"><a xlink:href="classediteurpanovisu_1_1EditeurPanovisu.html#a87b29dc258cfc67370b1f27809e91b8e" target="_top" xlink:title=" ">
<polygon fill="white" stroke="#666666" points="1973.25,-275.1 1798.25,-275.1 1798.25,-243.1 1973.25,-243.1 1973.25,-275.1"/>
<text xml:space="preserve" text-anchor="start" x="1806.25" y="-261.6" font-family="Helvetica,sans-Serif" font-size="10.00">editeurpanovisu.EditeurPanovisu.tsk</text>
<text xml:space="preserve" text-anchor="middle" x="1885.75" y="-249.6" font-family="Helvetica,sans-Serif" font-size="10.00">AnalyseFichierPVU</text>
</a>
</g>
</g>
<!-- Node3&#45;&gt;Node7 -->
<g id="edge6_Node000003_Node000007" class="edge">
<title>Node3&#45;&gt;Node7</title>
<g id="a_edge6_Node000003_Node000007"><a xlink:title=" ">
<path fill="none" stroke="#63b8ff" d="M2004.6,-259.1C1994.39,-259.1 1983.92,-259.1 1973.64,-259.1"/>
<polygon fill="#63b8ff" stroke="#63b8ff" points="2004.48,-262.6 2014.48,-259.1 2004.48,-255.6 2004.48,-262.6"/>
</a>
</g>
</g>
<!-- Node5 -->
<g id="Node000005" class="node">
<title>Node5</title>
<g id="a_Node000005"><a xlink:href="classediteurpanovisu_1_1EditeurPanovisu.html#ac912b80c1f2ac97def60ff005c5c480b" target="_top" xlink:title=" ">
<polygon fill="white" stroke="#666666" points="420.5,-193.1 216.25,-193.1 216.25,-173.1 420.5,-173.1 420.5,-193.1"/>
<text xml:space="preserve" text-anchor="middle" x="318.38" y="-179.6" font-family="Helvetica,sans-Serif" font-size="10.00">editeurpanovisu.EditeurPanovisu.creeMenu</text>
</a>
</g>
</g>
<!-- Node4&#45;&gt;Node5 -->
<g id="edge4_Node000004_Node000005" class="edge">
<title>Node4&#45;&gt;Node5</title>
<g id="a_edge4_Node000004_Node000005"><a xlink:title=" ">
<path fill="none" stroke="#63b8ff" d="M1568.09,-379.59C1478.26,-381.6 1342.97,-384.1 1225.25,-384.1 1225.25,-384.1 1225.25,-384.1 775,-384.1 632.49,-384.1 581.9,-414.8 456.5,-347.1 387.92,-310.08 339.58,-223.44 324.42,-193.5"/>
<polygon fill="#63b8ff" stroke="#63b8ff" points="1567.93,-383.1 1577.85,-379.37 1567.77,-376.1 1567.93,-383.1"/>
</a>
</g>
</g>
<!-- Node6 -->
<g id="Node000006" class="node">
<title>Node6</title>
<g id="a_Node000006"><a xlink:href="classediteurpanovisu_1_1EditeurPanovisu.html#a86c393eee88f54c694db994ddd85b90d" target="_top" xlink:title=" ">
<polygon fill="white" stroke="#666666" points="180.25,-199.1 0,-199.1 0,-167.1 180.25,-167.1 180.25,-199.1"/>
<text xml:space="preserve" text-anchor="start" x="8" y="-185.6" font-family="Helvetica,sans-Serif" font-size="10.00">editeurpanovisu.EditeurPanovisu.cree</text>
<text xml:space="preserve" text-anchor="middle" x="90.12" y="-173.6" font-family="Helvetica,sans-Serif" font-size="10.00">Environnement</text>
</a>
</g>
</g>
<!-- Node5&#45;&gt;Node6 -->
<g id="edge5_Node000005_Node000006" class="edge">
<title>Node5&#45;&gt;Node6</title>
<g id="a_edge5_Node000005_Node000006"><a xlink:title=" ">
<path fill="none" stroke="#63b8ff" d="M204.51,-183.1C196.49,-183.1 188.46,-183.1 180.6,-183.1"/>
<polygon fill="#63b8ff" stroke="#63b8ff" points="204.32,-186.6 214.32,-183.1 204.32,-179.6 204.32,-186.6"/>
</a>
</g>
</g>
<!-- Node8 -->
<g id="Node000008" class="node">
<title>Node8</title>
<g id="a_Node000008"><a xlink:href="classediteurpanovisu_1_1EditeurPanovisu.html#ab4beb1597b660a4a253befc6e76f1c54" target="_top" xlink:title=" ">
<polygon fill="white" stroke="#666666" points="1092.88,-356.1 907.38,-356.1 907.38,-324.1 1092.88,-324.1 1092.88,-356.1"/>
<text xml:space="preserve" text-anchor="start" x="915.38" y="-342.6" font-family="Helvetica,sans-Serif" font-size="10.00">editeurpanovisu.EditeurPanovisu.projet</text>
<text xml:space="preserve" text-anchor="middle" x="1000.12" y="-330.6" font-family="Helvetica,sans-Serif" font-size="10.00">Charge</text>
</a>
</g>
</g>
<!-- Node7&#45;&gt;Node8 -->
<g id="edge7_Node000007_Node000008" class="edge">
<title>Node7&#45;&gt;Node8</title>
<g id="a_edge7_Node000007_Node000008"><a xlink:title=" ">
<path fill="none" stroke="#63b8ff" d="M1786.7,-268.09C1614.73,-283.85 1261.08,-316.27 1093.33,-331.65"/>
<polygon fill="#63b8ff" stroke="#63b8ff" points="1786.87,-271.59 1796.5,-267.19 1786.23,-264.62 1786.87,-271.59"/>
</a>
</g>
</g>
<!-- Node9 -->
<g id="Node000009" class="node">
<title>Node9</title>
<g id="a_Node000009"><a xlink:href="classediteurpanovisu_1_1EditeurPanovisu.html#a6d19b4d885ee6fcec827b91956295732" target="_top" xlink:title=" ">
<polygon fill="white" stroke="#666666" points="1762.25,-207.1 1576.75,-207.1 1576.75,-175.1 1762.25,-175.1 1762.25,-207.1"/>
<text xml:space="preserve" text-anchor="start" x="1584.75" y="-193.6" font-family="Helvetica,sans-Serif" font-size="10.00">editeurpanovisu.EditeurPanovisu.projet</text>
<text xml:space="preserve" text-anchor="middle" x="1669.5" y="-181.6" font-family="Helvetica,sans-Serif" font-size="10.00">ChargeNom</text>
</a>
</g>
</g>
<!-- Node7&#45;&gt;Node9 -->
<g id="edge9_Node000007_Node000009" class="edge">
<title>Node7&#45;&gt;Node9</title>
<g id="a_edge9_Node000007_Node000009"><a xlink:title=" ">
<path fill="none" stroke="#63b8ff" d="M1821.96,-239.17C1790.25,-229.11 1752.26,-217.05 1722.26,-207.53"/>
<polygon fill="#63b8ff" stroke="#63b8ff" points="1820.85,-242.49 1831.44,-242.18 1822.97,-235.82 1820.85,-242.49"/>
</a>
</g>
</g>
<!-- Node8&#45;&gt;Node5 -->
<g id="edge8_Node000008_Node000005" class="edge">
<title>Node8&#45;&gt;Node5</title>
<g id="a_edge8_Node000008_Node000005"><a xlink:title=" ">
<path fill="none" stroke="#63b8ff" d="M895.68,-354.55C782.91,-365.81 599.47,-370.74 456.5,-310.1 395.56,-284.25 344.67,-218.95 326.51,-193.49"/>
<polygon fill="#63b8ff" stroke="#63b8ff" points="895.95,-358.04 905.54,-353.53 895.23,-351.08 895.95,-358.04"/>
</a>
</g>
</g>
<!-- Node9&#45;&gt;Node5 -->
<g id="edge29_Node000009_Node000005" class="edge">
<title>Node9&#45;&gt;Node5</title>
<g id="a_edge29_Node000009_Node000005"><a xlink:title=" ">
<path fill="none" stroke="#63b8ff" d="M1624.46,-169.92C1519.27,-121.36 1244.07,-6.1 1001.12,-6.1 1001.12,-6.1 1001.12,-6.1 775,-6.1 632.54,-6.1 584.4,20.62 456.5,-42.1 393.34,-73.07 343.04,-145.5 325.8,-172.61"/>
<polygon fill="#63b8ff" stroke="#63b8ff" points="1622.77,-173 1633.31,-174.05 1625.72,-166.65 1622.77,-173"/>
</a>
</g>
</g>
<!-- Node10 -->
<g id="Node000010" class="node">
<title>Node10</title>
<g id="a_Node000010"><a xlink:href="classediteurpanovisu_1_1EditeurPanovisu.html#af0d1c32bb78acbff561c822a0d15f760" target="_top" xlink:title=" ">
<polygon fill="white" stroke="#666666" points="1540.75,-207.1 1353,-207.1 1353,-175.1 1540.75,-175.1 1540.75,-207.1"/>
<text xml:space="preserve" text-anchor="start" x="1361" y="-193.6" font-family="Helvetica,sans-Serif" font-size="10.00">editeurpanovisu.EditeurPanovisu.ajoute</text>
<text xml:space="preserve" text-anchor="middle" x="1446.88" y="-181.6" font-family="Helvetica,sans-Serif" font-size="10.00">FichierHisto</text>
</a>
</g>
</g>
<!-- Node9&#45;&gt;Node10 -->
<g id="edge10_Node000009_Node000010" class="edge">
<title>Node9&#45;&gt;Node10</title>
<g id="a_edge10_Node000009_Node000010"><a xlink:title=" ">
<path fill="none" stroke="#63b8ff" d="M1565.22,-184.36C1557.17,-184.34 1549.08,-184.36 1541.11,-184.42"/>
<polygon fill="#63b8ff" stroke="#63b8ff" points="1565,-187.86 1575.02,-184.43 1565.04,-180.86 1565,-187.86"/>
</a>
</g>
</g>
<!-- Node10&#45;&gt;Node8 -->
<g id="edge11_Node000010_Node000008" class="edge">
<title>Node10&#45;&gt;Node8</title>
<g id="a_edge11_Node000010_Node000008"><a xlink:title=" ">
<path fill="none" stroke="#63b8ff" d="M1387.67,-211.26C1318.24,-235.22 1198.61,-276.21 1095.5,-310.1 1081.94,-314.56 1067.26,-319.28 1053.6,-323.62"/>
<polygon fill="#63b8ff" stroke="#63b8ff" points="1388.63,-214.63 1396.94,-208.06 1386.34,-208.02 1388.63,-214.63"/>
</a>
</g>
</g>
<!-- Node10&#45;&gt;Node9 -->
<g id="edge12_Node000010_Node000009" class="edge">
<title>Node10&#45;&gt;Node9</title>
<g id="a_edge12_Node000010_Node000009"><a xlink:title=" ">
<path fill="none" stroke="#63b8ff" d="M1552.44,-197.84C1560.49,-197.87 1568.58,-197.84 1576.53,-197.77"/>
<polygon fill="#63b8ff" stroke="#63b8ff" points="1552.65,-194.34 1542.63,-197.79 1552.61,-201.34 1552.65,-194.34"/>
</a>
</g>
</g>
<!-- Node11 -->
<g id="Node000011" class="node">
<title>Node11</title>
<g id="a_Node000011"><a xlink:href="classediteurpanovisu_1_1EditeurPanovisu.html#a9f3ea25b35d4884524508dab3dc4fd6a" target="_top" xlink:title=" ">
<polygon fill="white" stroke="#666666" points="1317,-224.1 1131.5,-224.1 1131.5,-192.1 1317,-192.1 1317,-224.1"/>
<text xml:space="preserve" text-anchor="start" x="1139.5" y="-210.6" font-family="Helvetica,sans-Serif" font-size="10.00">editeurpanovisu.EditeurPanovisu.projet</text>
<text xml:space="preserve" text-anchor="middle" x="1224.25" y="-198.6" font-family="Helvetica,sans-Serif" font-size="10.00">Sauve</text>
</a>
</g>
</g>
<!-- Node10&#45;&gt;Node11 -->
<g id="edge13_Node000010_Node000011" class="edge">
<title>Node10&#45;&gt;Node11</title>
<g id="a_edge13_Node000010_Node000011"><a xlink:title=" ">
<path fill="none" stroke="#63b8ff" d="M1341.38,-199.15C1333.39,-199.77 1325.36,-200.39 1317.46,-201"/>
<polygon fill="#63b8ff" stroke="#63b8ff" points="1341.42,-202.66 1351.12,-198.4 1340.88,-195.68 1341.42,-202.66"/>
</a>
</g>
</g>
<!-- Node17 -->
<g id="Node000017" class="node">
<title>Node17</title>
<g id="a_Node000017"><a xlink:href="classediteurpanovisu_1_1EditeurPanovisu.html#a7b2e25dc717eb52b62e23d54ec4c124a" target="_top" xlink:title=" ">
<polygon fill="white" stroke="#666666" points="868.75,-66.1 683.25,-66.1 683.25,-34.1 868.75,-34.1 868.75,-66.1"/>
<text xml:space="preserve" text-anchor="start" x="691.25" y="-52.6" font-family="Helvetica,sans-Serif" font-size="10.00">editeurpanovisu.EditeurPanovisu.projet</text>
<text xml:space="preserve" text-anchor="middle" x="776" y="-40.6" font-family="Helvetica,sans-Serif" font-size="10.00">SauveSous</text>
</a>
</g>
</g>
<!-- Node10&#45;&gt;Node17 -->
<g id="edge27_Node000010_Node000017" class="edge">
<title>Node10&#45;&gt;Node17</title>
<g id="a_edge27_Node000010_Node000017"><a xlink:title=" ">
<path fill="none" stroke="#63b8ff" d="M1401.78,-169.93C1336.59,-139.82 1209.84,-85.75 1095.5,-63.1 1020.31,-48.21 933.26,-45.63 869.18,-46.39"/>
<polygon fill="#63b8ff" stroke="#63b8ff" points="1400.17,-173.04 1410.71,-174.09 1403.13,-166.7 1400.17,-173.04"/>
</a>
</g>
</g>
<!-- Node11&#45;&gt;Node5 -->
<g id="edge14_Node000011_Node000005" class="edge">
<title>Node11&#45;&gt;Node5</title>
<g id="a_edge14_Node000011_Node000005"><a xlink:title=" ">
<path fill="none" stroke="#63b8ff" d="M1137.27,-229.63C1135.3,-230.73 1133.37,-231.89 1131.5,-233.1 1110.3,-246.85 1118.33,-266.28 1095.5,-277.1 1001.33,-321.72 625.32,-271.52 456.5,-233.1 414.99,-223.66 368.91,-205.07 342.13,-193.42"/>
<polygon fill="#63b8ff" stroke="#63b8ff" points="1138.71,-232.83 1146.12,-225.26 1135.61,-226.55 1138.71,-232.83"/>
</a>
</g>
</g>
<!-- Node11&#45;&gt;Node8 -->
<g id="edge17_Node000011_Node000008" class="edge">
<title>Node11&#45;&gt;Node8</title>
<g id="a_edge17_Node000011_Node000008"><a xlink:title=" ">
<path fill="none" stroke="#63b8ff" d="M1179.64,-229.77C1163.59,-238.86 1145.84,-250.3 1131.5,-263.1 1111.87,-280.62 1117.03,-294.97 1095.5,-310.1 1087.76,-315.54 1078.99,-320.02 1069.99,-323.71"/>
<polygon fill="#63b8ff" stroke="#63b8ff" points="1180.96,-233.04 1188.04,-225.15 1177.59,-226.9 1180.96,-233.04"/>
</a>
</g>
</g>
<!-- Node11&#45;&gt;Node9 -->
<g id="edge18_Node000011_Node000009" class="edge">
<title>Node11&#45;&gt;Node9</title>
<g id="a_edge18_Node000011_Node000009"><a xlink:title=" ">
<path fill="none" stroke="#63b8ff" d="M1328.57,-217.05C1390.29,-220.82 1470.16,-222.94 1540.75,-216.1 1559.2,-214.31 1578.93,-211.11 1597.24,-207.57"/>
<polygon fill="#63b8ff" stroke="#63b8ff" points="1328.98,-213.57 1318.78,-216.43 1328.54,-220.56 1328.98,-213.57"/>
</a>
</g>
</g>
<!-- Node12 -->
<g id="Node000012" class="node">
<title>Node12</title>
<g id="a_Node000012"><a xlink:href="classediteurpanovisu_1_1EditeurPanovisu.html#a94e36b9e9d09ab1a4c852b8a8cefa927" target="_top" xlink:title=" ">
<polygon fill="white" stroke="#666666" points="647.25,-174.1 456.5,-174.1 456.5,-142.1 647.25,-142.1 647.25,-174.1"/>
<text xml:space="preserve" text-anchor="start" x="464.5" y="-160.6" font-family="Helvetica,sans-Serif" font-size="10.00">editeurpanovisu.EditeurPanovisu.genere</text>
<text xml:space="preserve" text-anchor="middle" x="551.88" y="-148.6" font-family="Helvetica,sans-Serif" font-size="10.00">Visite</text>
</a>
</g>
</g>
<!-- Node11&#45;&gt;Node12 -->
<g id="edge15_Node000011_Node000012" class="edge">
<title>Node11&#45;&gt;Node12</title>
<g id="a_edge15_Node000011_Node000012"><a xlink:title=" ">
<path fill="none" stroke="#63b8ff" d="M1119.66,-200.38C990.68,-190.76 772.18,-174.46 647.51,-165.16"/>
<polygon fill="#63b8ff" stroke="#63b8ff" points="1119.35,-203.86 1129.58,-201.12 1119.87,-196.88 1119.35,-203.86"/>
</a>
</g>
</g>
<!-- Node13 -->
<g id="Node000013" class="node">
<title>Node13</title>
<g id="a_Node000013"><a xlink:href="classediteurpanovisu_1_1EditeurPanovisu.html#a9b46b222714af12c06ec33d410400773" target="_top" xlink:title=" ">
<polygon fill="white" stroke="#666666" points="647.25,-224.1 456.5,-224.1 456.5,-192.1 647.25,-192.1 647.25,-224.1"/>
<text xml:space="preserve" text-anchor="start" x="464.5" y="-210.6" font-family="Helvetica,sans-Serif" font-size="10.00">editeurpanovisu.EditeurPanovisu.projets</text>
<text xml:space="preserve" text-anchor="middle" x="551.88" y="-198.6" font-family="Helvetica,sans-Serif" font-size="10.00">Fermer</text>
</a>
</g>
</g>
<!-- Node11&#45;&gt;Node13 -->
<g id="edge19_Node000011_Node000013" class="edge">
<title>Node11&#45;&gt;Node13</title>
<g id="a_edge19_Node000011_Node000013"><a xlink:title=" ">
<path fill="none" stroke="#63b8ff" d="M1119.66,-208.1C990.68,-208.1 772.18,-208.1 647.51,-208.1"/>
<polygon fill="#63b8ff" stroke="#63b8ff" points="1119.58,-211.6 1129.58,-208.1 1119.58,-204.6 1119.58,-211.6"/>
</a>
</g>
</g>
<!-- Node14 -->
<g id="Node000014" class="node">
<title>Node14</title>
<g id="a_Node000014"><a xlink:href="classediteurpanovisu_1_1EditeurPanovisu.html#ac9d449399ccd38843fa12e716f0c9611" target="_top" xlink:title=" ">
<polygon fill="white" stroke="#666666" points="1095.5,-104.1 904.75,-104.1 904.75,-72.1 1095.5,-72.1 1095.5,-104.1"/>
<text xml:space="preserve" text-anchor="start" x="912.75" y="-90.6" font-family="Helvetica,sans-Serif" font-size="10.00">editeurpanovisu.EditeurPanovisu.projets</text>
<text xml:space="preserve" text-anchor="middle" x="1000.12" y="-78.6" font-family="Helvetica,sans-Serif" font-size="10.00">Nouveau</text>
</a>
</g>
</g>
<!-- Node11&#45;&gt;Node14 -->
<g id="edge21_Node000011_Node000014" class="edge">
<title>Node11&#45;&gt;Node14</title>
<g id="a_edge21_Node000011_Node000014"><a xlink:title=" ">
<path fill="none" stroke="#63b8ff" d="M1195.24,-184.54C1170.36,-164.59 1132.35,-136.39 1095.5,-118.1 1085.11,-112.94 1073.63,-108.42 1062.37,-104.55"/>
<polygon fill="#63b8ff" stroke="#63b8ff" points="1192.95,-187.2 1202.92,-190.79 1197.37,-181.77 1192.95,-187.2"/>
</a>
</g>
</g>
<!-- Node15 -->
<g id="Node000015" class="node">
<title>Node15</title>
<g id="a_Node000015"><a xlink:href="classediteurpanovisu_1_1EditeurPanovisu.html#a2b3125ffe2e6291efacf19df6cb30a8d" target="_top" xlink:title=" ">
<polygon fill="white" stroke="#666666" points="866.5,-142.1 685.5,-142.1 685.5,-122.1 866.5,-122.1 866.5,-142.1"/>
<text xml:space="preserve" text-anchor="middle" x="776" y="-128.6" font-family="Helvetica,sans-Serif" font-size="10.00">editeurpanovisu.EditeurPanovisu.start</text>
</a>
</g>
</g>
<!-- Node11&#45;&gt;Node15 -->
<g id="edge26_Node000011_Node000015" class="edge">
<title>Node11&#45;&gt;Node15</title>
<g id="a_edge26_Node000011_Node000015"><a xlink:title=" ">
<path fill="none" stroke="#63b8ff" d="M1180.53,-186.8C1156.21,-175.69 1124.84,-163 1095.5,-156.1 1019.66,-138.27 931.13,-132.78 866.68,-131.46"/>
<polygon fill="#63b8ff" stroke="#63b8ff" points="1178.91,-189.91 1189.46,-190.97 1181.87,-183.57 1178.91,-189.91"/>
</a>
</g>
</g>
<!-- Node16 -->
<g id="Node000016" class="node">
<title>Node16</title>
<g id="a_Node000016"><a xlink:href="classediteurpanovisu_1_1EditeurPanovisu.html#aef8c9b28c3e88d6e27e3f62b9a901134" target="_top" xlink:title=" ">
<polygon fill="white" stroke="#666666" points="1094,-268.1 906.25,-268.1 906.25,-236.1 1094,-236.1 1094,-268.1"/>
<text xml:space="preserve" text-anchor="start" x="914.25" y="-254.6" font-family="Helvetica,sans-Serif" font-size="10.00">editeurpanovisu.EditeurPanovisu.sauve</text>
<text xml:space="preserve" text-anchor="middle" x="1000.12" y="-242.6" font-family="Helvetica,sans-Serif" font-size="10.00">Fichiers</text>
</a>
</g>
</g>
<!-- Node11&#45;&gt;Node16 -->
<g id="edge25_Node000011_Node000016" class="edge">
<title>Node11&#45;&gt;Node16</title>
<g id="a_edge25_Node000011_Node000016"><a xlink:title=" ">
<path fill="none" stroke="#63b8ff" d="M1128.99,-226.77C1114.18,-229.71 1098.96,-232.72 1084.42,-235.6"/>
<polygon fill="#63b8ff" stroke="#63b8ff" points="1129.61,-230.22 1138.74,-224.84 1128.25,-223.35 1129.61,-230.22"/>
</a>
</g>
</g>
<!-- Node12&#45;&gt;Node5 -->
<g id="edge16_Node000012_Node000005" class="edge">
<title>Node12&#45;&gt;Node5</title>
<g id="a_edge16_Node000012_Node000005"><a xlink:title=" ">
<path fill="none" stroke="#63b8ff" d="M444.6,-169.58C435.17,-170.6 425.65,-171.62 416.31,-172.63"/>
<polygon fill="#63b8ff" stroke="#63b8ff" points="444.98,-173.06 454.54,-168.5 444.22,-166.1 444.98,-173.06"/>
</a>
</g>
</g>
<!-- Node13&#45;&gt;Node5 -->
<g id="edge20_Node000013_Node000005" class="edge">
<title>Node13&#45;&gt;Node5</title>
<g id="a_edge20_Node000013_Node000005"><a xlink:title=" ">
<path fill="none" stroke="#63b8ff" d="M444.6,-196.62C435.17,-195.61 425.65,-194.58 416.31,-193.57"/>
<polygon fill="#63b8ff" stroke="#63b8ff" points="444.22,-200.1 454.54,-197.7 444.98,-193.14 444.22,-200.1"/>
</a>
</g>
</g>
<!-- Node14&#45;&gt;Node5 -->
<g id="edge22_Node000014_Node000005" class="edge">
<title>Node14&#45;&gt;Node5</title>
<g id="a_edge22_Node000014_Node000005"><a xlink:title=" ">
<path fill="none" stroke="#63b8ff" d="M892.88,-88.42C782.55,-90.72 605.56,-99.96 456.5,-133.1 414.94,-142.34 368.88,-160.99 342.11,-172.71"/>
<polygon fill="#63b8ff" stroke="#63b8ff" points="892.9,-91.92 902.83,-88.23 892.76,-84.92 892.9,-91.92"/>
</a>
</g>
</g>
<!-- Node14&#45;&gt;Node15 -->
<g id="edge23_Node000014_Node000015" class="edge">
<title>Node14&#45;&gt;Node15</title>
<g id="a_edge23_Node000014_Node000015"><a xlink:title=" ">
<path fill="none" stroke="#63b8ff" d="M904.83,-106.78C879.23,-111.85 852.41,-117.16 829.99,-121.61"/>
<polygon fill="#63b8ff" stroke="#63b8ff" points="905.48,-110.22 914.61,-104.84 904.12,-103.35 905.48,-110.22"/>
</a>
</g>
</g>
<!-- Node15&#45;&gt;Node12 -->
<g id="edge24_Node000015_Node000012" class="edge">
<title>Node15&#45;&gt;Node12</title>
<g id="a_edge24_Node000015_Node000012"><a xlink:title=" ">
<path fill="none" stroke="#63b8ff" d="M674.36,-143.88C665.43,-144.93 656.41,-145.98 647.52,-147.02"/>
<polygon fill="#63b8ff" stroke="#63b8ff" points="674.58,-147.38 684.11,-142.74 673.77,-140.43 674.58,-147.38"/>
</a>
</g>
</g>
<!-- Node17&#45;&gt;Node5 -->
<g id="edge28_Node000017_Node000005" class="edge">
<title>Node17&#45;&gt;Node5</title>
<g id="a_edge28_Node000017_Node000005"><a xlink:title=" ">
<path fill="none" stroke="#63b8ff" d="M671.78,-45.78C607.8,-46.47 525.03,-53.59 456.5,-80.1 401.52,-101.37 349.56,-151.35 328.83,-172.91"/>
<polygon fill="#63b8ff" stroke="#63b8ff" points="671.6,-49.28 681.58,-45.73 671.57,-42.28 671.6,-49.28"/>
</a>
</g>
</g>
<!-- Node18&#45;&gt;Node14 -->
<g id="edge31_Node000018_Node000014" class="edge">
<title>Node18&#45;&gt;Node14</title>
<g id="a_edge31_Node000018_Node000014"><a xlink:title=" ">
<path fill="none" stroke="#63b8ff" d="M1802.84,-66.33C1638.69,-70.78 1270.25,-80.79 1095.96,-85.53"/>
<polygon fill="#63b8ff" stroke="#63b8ff" points="1802.89,-69.83 1812.79,-66.06 1802.7,-62.83 1802.89,-69.83"/>
</a>
</g>
</g>
<!-- Node19&#45;&gt;Node18 -->
<g id="edge33_Node000019_Node000018" class="edge">
<title>Node19&#45;&gt;Node18</title>
<g id="a_edge33_Node000019_Node000018"><a xlink:title=" ">
<path fill="none" stroke="#63b8ff" d="M1997.58,-51.89C1983.99,-53.39 1970.12,-54.91 1957,-56.36"/>
<polygon fill="#63b8ff" stroke="#63b8ff" points="1997.85,-55.38 2007.4,-50.8 1997.08,-48.42 1997.85,-55.38"/>
</a>
</g>
</g>
</g>
</svg>

<g id="navigator" transform="translate(0 0)" fill="#404254">
  <rect fill="#f2f5e9" fill-opacity="0.5" stroke="#606060" stroke-width=".5" x="0" y="0" width="60" height="60"/>
  <use id="zoomplus" xlink:href="#zoomPlus" x="17" y="9" onmousedown="handleZoom(evt,'in')"/>
  <use id="zoomminus" xlink:href="#zoomMin" x="42" y="9" onmousedown="handleZoom(evt,'out')"/>
  <use id="reset" xlink:href="#resetDef" x="30" y="36" onmousedown="handleReset()"/>
   <use id="arrowup" xlink:href="#arrowUp" x="0" y="0" onmousedown="handlePan(0,-1)"/>
  <use id="arrowright" xlink:href="#arrowRight" x="0" y="0" onmousedown="handlePan(1,0)"/>
  <use id="arrowdown" xlink:href="#arrowDown" x="0" y="0" onmousedown="handlePan(0,1)"/>
  <use id="arrowleft" xlink:href="#arrowLeft" x="0" y="0" onmousedown="handlePan(-1,0)"/>
</g>
<svg viewBox="0 0 15 15" width="100%" height="30px" preserveAspectRatio="xMaxYMin meet">
 <g id="arrow_out" transform="scale(0.3 0.3)">
  <a xlink:href="classediteurpanovisu_1_1GestionnairePlanController_a3ab3f1b67b50004fa4ecd51241317dcd_icgraph_org.svg" target="_base">
   <rect id="button" ry="5" rx="5" y="6" x="6" height="38" width="38"
        fill="#f2f5e9" fill-opacity="0.5" stroke="#606060" stroke-width="1.0"/>
   <path id="arrow"
     d="M 11.500037,31.436501 C 11.940474,20.09759 22.043105,11.32322 32.158766,21.979434 L 37.068811,17.246167 C 37.068811,17.246167 37.088388,32 37.088388,32 L 22.160133,31.978069 C 22.160133,31.978069 26.997745,27.140456 26.997745,27.140456 C 18.528582,18.264221 13.291696,25.230495 11.500037,31.436501 z"
     style="fill:#404040;"/>
  </a>
 </g>
</svg>

<style type='text/css'>
<![CDATA[
[data-mouse-over-selected='false'] { opacity: 0.7; }
[data-mouse-over-selected='true']  { opacity: 1.0; }
]]>
</style>
<script type="application/ecmascript"><![CDATA[
document.addEventListener('DOMContentLoaded', (event) => {
  highlightEdges();
  highlightAdjacentNodes();
});
]]></script>
</svg>
