<?xml version="1.0" encoding="UTF-8" standalone="no"?>
<!DOCTYPE svg PUBLIC "-//W3C//DTD SVG 1.1//EN"
 "http://www.w3.org/Graphics/SVG/1.1/DTD/svg11.dtd">
<!-- Generated by graphviz version 13.1.2 (20250808.2320)
 -->
<!-- Title: editeurpanovisu.GestionnaireInterfaceController.afficheCarte Pages: 1 -->
<!--zoomable 514 -->

<svg id="main" version="1.1" xmlns="http://www.w3.org/2000/svg" xmlns:xlink="http://www.w3.org/1999/xlink" xml:space="preserve" onload="init(evt)">

<style type="text/css"><![CDATA[
.node, .edge {opacity: 0.7;}
.node.selected, .edge.selected {opacity: 1;}
.edge:hover path { stroke: red; }
.edge:hover polygon { stroke: red; fill: red; }
]]></style>

<defs>
  <circle id="rim" cx="0" cy="0" r="7"/>
  <circle id="rim2" cx="0" cy="0" r="3.5"/>
  <g id="zoomPlus">
    <use xlink:href="#rim" fill="#404040"><set attributeName="fill" to="#808080" begin="zoomplus.mouseover" end="zoomplus.mouseout"/></use>
    <path d="M-4,0h8M0,-4v8" fill="none" stroke="white" stroke-width="1.5" pointer-events="none"/>
  </g>
  <g id="zoomMin">
    <use xlink:href="#rim" fill="#404040"><set attributeName="fill" to="#808080" begin="zoomminus.mouseover" end="zoomminus.mouseout"/></use>
    <path d="M-4,0h8" fill="none" stroke="white" stroke-width="1.5" pointer-events="none"/>
  </g>
  <g id="arrowUp" transform="translate(30 24)">
    <use xlink:href="#rim"/>
    <path pointer-events="none" fill="none" stroke="white" stroke-width="1.5" d="M0,-3.0v7 M-2.5,-0.5L0,-3.0L2.5,-0.5"/>
  </g>
  <g id="arrowRight" transform="rotate(90) translate(36 -43)">
    <use xlink:href="#rim"/>
    <path pointer-events="none" fill="none" stroke="white" stroke-width="1.5" d="M0,-3.0v7 M-2.5,-0.5L0,-3.0L2.5,-0.5"/>
  </g>
  <g id="arrowDown" transform="rotate(180) translate(-30 -48)">
    <use xlink:href="#rim"/>
    <path pointer-events="none" fill="none" stroke="white" stroke-width="1.5" d="M0,-3.0v7 M-2.5,-0.5L0,-3.0L2.5,-0.5"/>
  </g>
  <g id="arrowLeft" transform="rotate(270) translate(-36 17)">
    <use xlink:href="#rim"/>
    <path pointer-events="none" fill="none" stroke="white" stroke-width="1.5" d="M0,-3.0v7 M-2.5,-0.5L0,-3.0L2.5,-0.5"/>
  </g>
  <g id="resetDef">
    <use xlink:href="#rim2" fill="#404040"><set attributeName="fill" to="#808080" begin="reset.mouseover" end="reset.mouseout"/></use>
  </g>
</defs>
<script type="application/ecmascript">
var viewWidth = 393;
var viewHeight = 514;
var sectionId = 'dynsection-10';
</script>
<script type="application/ecmascript" xlink:href="svg.min.js"/>
<svg id="graph" class="graph">
<g id="viewport">
<title>editeurpanovisu.GestionnaireInterfaceController.afficheCarte</title>
<!-- Node1 -->
<g id="Node000001" class="node">
<title>Node1</title>
<g id="a_Node000001"><a xlink:title=" ">
<polygon fill="#999999" stroke="#666666" points="151.75,-269 0,-269 0,-237 151.75,-237 151.75,-269"/>
<text xml:space="preserve" text-anchor="start" x="8" y="-255.5" font-family="Helvetica,sans-Serif" font-size="10.00">editeurpanovisu.Gestionnaire</text>
<text xml:space="preserve" text-anchor="middle" x="75.88" y="-243.5" font-family="Helvetica,sans-Serif" font-size="10.00">InterfaceController.afficheCarte</text>
</a>
</g>
</g>
<!-- Node2 -->
<g id="Node000002" class="node">
<title>Node2</title>
<g id="a_Node000002"><a xlink:href="classediteurpanovisu_1_1GestionnaireInterfaceController.html#aa50148f02d5e1a1045b60ea84d00392e" target="_top" xlink:title=" ">
<polygon fill="white" stroke="#666666" points="382.25,-506 190,-506 190,-474 382.25,-474 382.25,-506"/>
<text xml:space="preserve" text-anchor="start" x="198" y="-492.5" font-family="Helvetica,sans-Serif" font-size="10.00">editeurpanovisu.Gestionnaire</text>
<text xml:space="preserve" text-anchor="middle" x="286.12" y="-480.5" font-family="Helvetica,sans-Serif" font-size="10.00">InterfaceController.getCoordCentreCarte</text>
</a>
</g>
</g>
<!-- Node1&#45;&gt;Node2 -->
<g id="edge1_Node000001_Node000002" class="edge">
<title>Node1&#45;&gt;Node2</title>
<g id="a_edge1_Node000001_Node000002"><a xlink:title=" ">
<path fill="none" stroke="#63b8ff" d="M80.59,-269.47C90.52,-309.51 121.5,-412.5 187.75,-465 188.9,-465.91 190.09,-466.8 191.3,-467.65"/>
<polygon fill="#63b8ff" stroke="#63b8ff" points="189.38,-470.58 199.75,-472.77 193.01,-464.59 189.38,-470.58"/>
</a>
</g>
</g>
<!-- Node3 -->
<g id="Node000003" class="node">
<title>Node3</title>
<g id="a_Node000003"><a xlink:href="classediteurpanovisu_1_1GestionnaireInterfaceController.html#aa9cb849bc9f88233a910b719884840e1" target="_top" xlink:title=" ">
<polygon fill="white" stroke="#666666" points="382.25,-456 190,-456 190,-424 382.25,-424 382.25,-456"/>
<text xml:space="preserve" text-anchor="start" x="198" y="-442.5" font-family="Helvetica,sans-Serif" font-size="10.00">editeurpanovisu.Gestionnaire</text>
<text xml:space="preserve" text-anchor="middle" x="286.12" y="-430.5" font-family="Helvetica,sans-Serif" font-size="10.00">InterfaceController.getCouleurFondCarte</text>
</a>
</g>
</g>
<!-- Node1&#45;&gt;Node3 -->
<g id="edge2_Node000001_Node000003" class="edge">
<title>Node1&#45;&gt;Node3</title>
<g id="a_edge2_Node000001_Node000003"><a xlink:title=" ">
<path fill="none" stroke="#63b8ff" d="M83.38,-269.46C97.29,-302.46 133.17,-376.78 187.75,-415 189.52,-416.24 191.34,-417.42 193.22,-418.54"/>
<polygon fill="#63b8ff" stroke="#63b8ff" points="191.11,-421.38 201.59,-422.95 194.38,-415.19 191.11,-421.38"/>
</a>
</g>
</g>
<!-- Node4 -->
<g id="Node000004" class="node">
<title>Node4</title>
<g id="a_Node000004"><a xlink:href="classediteurpanovisu_1_1GestionnaireInterfaceController.html#a5d420a2479f7a9303d5345de12e69c86" target="_top" xlink:title=" ">
<polygon fill="white" stroke="#666666" points="371.38,-406 200.88,-406 200.88,-374 371.38,-374 371.38,-406"/>
<text xml:space="preserve" text-anchor="start" x="208.88" y="-392.5" font-family="Helvetica,sans-Serif" font-size="10.00">editeurpanovisu.Gestionnaire</text>
<text xml:space="preserve" text-anchor="middle" x="286.12" y="-380.5" font-family="Helvetica,sans-Serif" font-size="10.00">InterfaceController.getOpaciteCarte</text>
</a>
</g>
</g>
<!-- Node1&#45;&gt;Node4 -->
<g id="edge3_Node000001_Node000004" class="edge">
<title>Node1&#45;&gt;Node4</title>
<g id="a_edge3_Node000001_Node000004"><a xlink:title=" ">
<path fill="none" stroke="#63b8ff" d="M88.49,-269.45C106.74,-294.07 144.56,-340.22 187.75,-365 190.23,-366.42 192.8,-367.77 195.43,-369.04"/>
<polygon fill="#63b8ff" stroke="#63b8ff" points="193.86,-372.18 204.43,-372.97 196.66,-365.76 193.86,-372.18"/>
</a>
</g>
</g>
<!-- Node5 -->
<g id="Node000005" class="node">
<title>Node5</title>
<g id="a_Node000005"><a xlink:href="classediteurpanovisu_1_1GestionnaireInterfaceController.html#aa57a7a4c75ca935c65f8a935e2d01602" target="_top" xlink:title=" ">
<polygon fill="white" stroke="#666666" points="384.5,-356 187.75,-356 187.75,-324 384.5,-324 384.5,-356"/>
<text xml:space="preserve" text-anchor="start" x="195.75" y="-342.5" font-family="Helvetica,sans-Serif" font-size="10.00">editeurpanovisu.Gestionnaire</text>
<text xml:space="preserve" text-anchor="middle" x="286.12" y="-330.5" font-family="Helvetica,sans-Serif" font-size="10.00">InterfaceController.getOpaciteRadarCarte</text>
</a>
</g>
</g>
<!-- Node1&#45;&gt;Node5 -->
<g id="edge4_Node000001_Node000005" class="edge">
<title>Node1&#45;&gt;Node5</title>
<g id="a_edge4_Node000001_Node000005"><a xlink:title=" ">
<path fill="none" stroke="#63b8ff" d="M101.93,-269.49C123.81,-283.28 156.83,-302.63 187.75,-315 192.29,-316.82 197.01,-318.54 201.81,-320.16"/>
<polygon fill="#63b8ff" stroke="#63b8ff" points="200.37,-323.37 210.96,-323.09 202.5,-316.71 200.37,-323.37"/>
</a>
</g>
</g>
<!-- Node6 -->
<g id="Node000006" class="node">
<title>Node6</title>
<g id="a_Node000006"><a xlink:href="classediteurpanovisu_1_1GestionnaireInterfaceController.html#a9504fc44953cb77eeb0382aa80b90f59" target="_top" xlink:title=" ">
<polygon fill="white" stroke="#666666" points="365.75,-306 206.5,-306 206.5,-262 365.75,-262 365.75,-306"/>
<text xml:space="preserve" text-anchor="start" x="214.5" y="-292.5" font-family="Helvetica,sans-Serif" font-size="10.00">editeurpanovisu.Gestionnaire</text>
<text xml:space="preserve" text-anchor="start" x="214.5" y="-280.5" font-family="Helvetica,sans-Serif" font-size="10.00">InterfaceController.getStrCouleur</text>
<text xml:space="preserve" text-anchor="middle" x="286.12" y="-268.5" font-family="Helvetica,sans-Serif" font-size="10.00">FondRadarCarte</text>
</a>
</g>
</g>
<!-- Node1&#45;&gt;Node6 -->
<g id="edge5_Node000001_Node000006" class="edge">
<title>Node1&#45;&gt;Node6</title>
<g id="a_edge5_Node000001_Node000006"><a xlink:title=" ">
<path fill="none" stroke="#63b8ff" d="M152.06,-264.19C165.94,-266.26 180.57,-268.44 194.84,-270.56"/>
<polygon fill="#63b8ff" stroke="#63b8ff" points="194.29,-274.02 204.69,-272.03 195.32,-267.09 194.29,-274.02"/>
</a>
</g>
</g>
<!-- Node7 -->
<g id="Node000007" class="node">
<title>Node7</title>
<g id="a_Node000007"><a xlink:href="classediteurpanovisu_1_1GestionnaireInterfaceController.html#ad7a31f393a284b67d32604898cd0732e" target="_top" xlink:title=" ">
<polygon fill="white" stroke="#666666" points="365.75,-244 206.5,-244 206.5,-200 365.75,-200 365.75,-244"/>
<text xml:space="preserve" text-anchor="start" x="214.5" y="-230.5" font-family="Helvetica,sans-Serif" font-size="10.00">editeurpanovisu.Gestionnaire</text>
<text xml:space="preserve" text-anchor="start" x="214.5" y="-218.5" font-family="Helvetica,sans-Serif" font-size="10.00">InterfaceController.getStrCouleur</text>
<text xml:space="preserve" text-anchor="middle" x="286.12" y="-206.5" font-family="Helvetica,sans-Serif" font-size="10.00">LigneRadarCarte</text>
</a>
</g>
</g>
<!-- Node1&#45;&gt;Node7 -->
<g id="edge6_Node000001_Node000007" class="edge">
<title>Node1&#45;&gt;Node7</title>
<g id="a_edge6_Node000001_Node000007"><a xlink:title=" ">
<path fill="none" stroke="#63b8ff" d="M152.06,-241.81C165.94,-239.74 180.57,-237.56 194.84,-235.44"/>
<polygon fill="#63b8ff" stroke="#63b8ff" points="195.32,-238.91 204.69,-233.97 194.29,-231.98 195.32,-238.91"/>
</a>
</g>
</g>
<!-- Node8 -->
<g id="Node000008" class="node">
<title>Node8</title>
<g id="a_Node000008"><a xlink:href="classediteurpanovisu_1_1GestionnaireInterfaceController.html#a636b4c4fc4256f294d219f8dc1c709f3" target="_top" xlink:title=" ">
<polygon fill="white" stroke="#666666" points="378.5,-182 193.75,-182 193.75,-150 378.5,-150 378.5,-182"/>
<text xml:space="preserve" text-anchor="start" x="201.75" y="-168.5" font-family="Helvetica,sans-Serif" font-size="10.00">editeurpanovisu.Gestionnaire</text>
<text xml:space="preserve" text-anchor="middle" x="286.12" y="-156.5" font-family="Helvetica,sans-Serif" font-size="10.00">InterfaceController.getStrPositionCarte</text>
</a>
</g>
</g>
<!-- Node1&#45;&gt;Node8 -->
<g id="edge7_Node000001_Node000008" class="edge">
<title>Node1&#45;&gt;Node8</title>
<g id="a_edge7_Node000001_Node000008"><a xlink:title=" ">
<path fill="none" stroke="#63b8ff" d="M101.93,-236.51C123.81,-222.72 156.83,-203.37 187.75,-191 192.29,-189.18 197.01,-187.46 201.81,-185.84"/>
<polygon fill="#63b8ff" stroke="#63b8ff" points="202.5,-189.29 210.96,-182.91 200.37,-182.63 202.5,-189.29"/>
</a>
</g>
</g>
<!-- Node9 -->
<g id="Node000009" class="node">
<title>Node9</title>
<g id="a_Node000009"><a xlink:href="classediteurpanovisu_1_1GestionnaireInterfaceController.html#a39fca2c2ee4d82e13b82f23f0a08aa96" target="_top" xlink:title=" ">
<polygon fill="white" stroke="#666666" points="378.88,-132 193.38,-132 193.38,-100 378.88,-100 378.88,-132"/>
<text xml:space="preserve" text-anchor="start" x="201.38" y="-118.5" font-family="Helvetica,sans-Serif" font-size="10.00">editeurpanovisu.Gestionnaire</text>
<text xml:space="preserve" text-anchor="middle" x="286.12" y="-106.5" font-family="Helvetica,sans-Serif" font-size="10.00">InterfaceController.getTailleRadarCarte</text>
</a>
</g>
</g>
<!-- Node1&#45;&gt;Node9 -->
<g id="edge8_Node000001_Node000009" class="edge">
<title>Node1&#45;&gt;Node9</title>
<g id="a_edge8_Node000001_Node000009"><a xlink:title=" ">
<path fill="none" stroke="#63b8ff" d="M88.49,-236.55C106.74,-211.93 144.56,-165.78 187.75,-141 190.23,-139.58 192.8,-138.23 195.43,-136.96"/>
<polygon fill="#63b8ff" stroke="#63b8ff" points="196.66,-140.24 204.43,-133.03 193.86,-133.82 196.66,-140.24"/>
</a>
</g>
</g>
<!-- Node10 -->
<g id="Node000010" class="node">
<title>Node10</title>
<g id="a_Node000010"><a xlink:href="classediteurpanovisu_1_1GestionnaireInterfaceController.html#a87ecae6781606a4a83c3a66111f85fe0" target="_top" xlink:title=" ">
<polygon fill="white" stroke="#666666" points="369.12,-82 203.12,-82 203.12,-50 369.12,-50 369.12,-82"/>
<text xml:space="preserve" text-anchor="start" x="211.12" y="-68.5" font-family="Helvetica,sans-Serif" font-size="10.00">editeurpanovisu.Gestionnaire</text>
<text xml:space="preserve" text-anchor="middle" x="286.12" y="-56.5" font-family="Helvetica,sans-Serif" font-size="10.00">InterfaceController.isbAfficheCarte</text>
</a>
</g>
</g>
<!-- Node1&#45;&gt;Node10 -->
<g id="edge9_Node000001_Node000010" class="edge">
<title>Node1&#45;&gt;Node10</title>
<g id="a_edge9_Node000001_Node000010"><a xlink:title=" ">
<path fill="none" stroke="#63b8ff" d="M83.38,-236.54C97.29,-203.54 133.17,-129.22 187.75,-91 189.52,-89.76 191.34,-88.58 193.22,-87.46"/>
<polygon fill="#63b8ff" stroke="#63b8ff" points="194.38,-90.81 201.59,-83.05 191.11,-84.62 194.38,-90.81"/>
</a>
</g>
</g>
<!-- Node11 -->
<g id="Node000011" class="node">
<title>Node11</title>
<g id="a_Node000011"><a xlink:href="classediteurpanovisu_1_1GestionnaireInterfaceController.html#a8c140b02c476eb4fdaa978391e2916d5" target="_top" xlink:title=" ">
<polygon fill="white" stroke="#666666" points="366.88,-32 205.38,-32 205.38,0 366.88,0 366.88,-32"/>
<text xml:space="preserve" text-anchor="start" x="213.38" y="-18.5" font-family="Helvetica,sans-Serif" font-size="10.00">editeurpanovisu.Gestionnaire</text>
<text xml:space="preserve" text-anchor="middle" x="286.12" y="-6.5" font-family="Helvetica,sans-Serif" font-size="10.00">InterfaceController.isbAfficheTitre</text>
</a>
</g>
</g>
<!-- Node1&#45;&gt;Node11 -->
<g id="edge10_Node000001_Node000011" class="edge">
<title>Node1&#45;&gt;Node11</title>
<g id="a_edge10_Node000001_Node000011"><a xlink:title=" ">
<path fill="none" stroke="#63b8ff" d="M80.59,-236.53C90.52,-196.49 121.5,-93.5 187.75,-41 190.17,-39.08 192.72,-37.31 195.36,-35.68"/>
<polygon fill="#63b8ff" stroke="#63b8ff" points="196.85,-38.85 204.01,-31.04 193.54,-32.68 196.85,-38.85"/>
</a>
</g>
</g>
</g>
</svg>

<g id="navigator" transform="translate(0 0)" fill="#404254">
  <rect fill="#f2f5e9" fill-opacity="0.5" stroke="#606060" stroke-width=".5" x="0" y="0" width="60" height="60"/>
  <use id="zoomplus" xlink:href="#zoomPlus" x="17" y="9" onmousedown="handleZoom(evt,'in')"/>
  <use id="zoomminus" xlink:href="#zoomMin" x="42" y="9" onmousedown="handleZoom(evt,'out')"/>
  <use id="reset" xlink:href="#resetDef" x="30" y="36" onmousedown="handleReset()"/>
   <use id="arrowup" xlink:href="#arrowUp" x="0" y="0" onmousedown="handlePan(0,-1)"/>
  <use id="arrowright" xlink:href="#arrowRight" x="0" y="0" onmousedown="handlePan(1,0)"/>
  <use id="arrowdown" xlink:href="#arrowDown" x="0" y="0" onmousedown="handlePan(0,1)"/>
  <use id="arrowleft" xlink:href="#arrowLeft" x="0" y="0" onmousedown="handlePan(-1,0)"/>
</g>
<svg viewBox="0 0 15 15" width="100%" height="30px" preserveAspectRatio="xMaxYMin meet">
 <g id="arrow_out" transform="scale(0.3 0.3)">
  <a xlink:href="classediteurpanovisu_1_1GestionnaireInterfaceController_aac0a5ca6534a81893b2464d1102db5af_cgraph_org.svg" target="_base">
   <rect id="button" ry="5" rx="5" y="6" x="6" height="38" width="38"
        fill="#f2f5e9" fill-opacity="0.5" stroke="#606060" stroke-width="1.0"/>
   <path id="arrow"
     d="M 11.500037,31.436501 C 11.940474,20.09759 22.043105,11.32322 32.158766,21.979434 L 37.068811,17.246167 C 37.068811,17.246167 37.088388,32 37.088388,32 L 22.160133,31.978069 C 22.160133,31.978069 26.997745,27.140456 26.997745,27.140456 C 18.528582,18.264221 13.291696,25.230495 11.500037,31.436501 z"
     style="fill:#404040;"/>
  </a>
 </g>
</svg>

<style type='text/css'>
<![CDATA[
[data-mouse-over-selected='false'] { opacity: 0.7; }
[data-mouse-over-selected='true']  { opacity: 1.0; }
]]>
</style>
<script type="application/ecmascript"><![CDATA[
document.addEventListener('DOMContentLoaded', (event) => {
  highlightEdges();
  highlightAdjacentNodes();
});
]]></script>
</svg>
