<?xml version="1.0" encoding="UTF-8" standalone="no"?>
<!DOCTYPE svg PUBLIC "-//W3C//DTD SVG 1.1//EN"
 "http://www.w3.org/Graphics/SVG/1.1/DTD/svg11.dtd">
<!-- Generated by graphviz version 13.1.2 (20250808.2320)
 -->
<!-- Title: editeurpanovisu.DocumentationDialog Pages: 1 -->
<!--zoomable 702 -->

<svg id="main" version="1.1" xmlns="http://www.w3.org/2000/svg" xmlns:xlink="http://www.w3.org/1999/xlink" xml:space="preserve" onload="init(evt)">

<style type="text/css"><![CDATA[
.node, .edge {opacity: 0.7;}
.node.selected, .edge.selected {opacity: 1;}
.edge:hover path { stroke: red; }
.edge:hover polygon { stroke: red; fill: red; }
]]></style>

<defs>
  <circle id="rim" cx="0" cy="0" r="7"/>
  <circle id="rim2" cx="0" cy="0" r="3.5"/>
  <g id="zoomPlus">
    <use xlink:href="#rim" fill="#404040"><set attributeName="fill" to="#808080" begin="zoomplus.mouseover" end="zoomplus.mouseout"/></use>
    <path d="M-4,0h8M0,-4v8" fill="none" stroke="white" stroke-width="1.5" pointer-events="none"/>
  </g>
  <g id="zoomMin">
    <use xlink:href="#rim" fill="#404040"><set attributeName="fill" to="#808080" begin="zoomminus.mouseover" end="zoomminus.mouseout"/></use>
    <path d="M-4,0h8" fill="none" stroke="white" stroke-width="1.5" pointer-events="none"/>
  </g>
  <g id="arrowUp" transform="translate(30 24)">
    <use xlink:href="#rim"/>
    <path pointer-events="none" fill="none" stroke="white" stroke-width="1.5" d="M0,-3.0v7 M-2.5,-0.5L0,-3.0L2.5,-0.5"/>
  </g>
  <g id="arrowRight" transform="rotate(90) translate(36 -43)">
    <use xlink:href="#rim"/>
    <path pointer-events="none" fill="none" stroke="white" stroke-width="1.5" d="M0,-3.0v7 M-2.5,-0.5L0,-3.0L2.5,-0.5"/>
  </g>
  <g id="arrowDown" transform="rotate(180) translate(-30 -48)">
    <use xlink:href="#rim"/>
    <path pointer-events="none" fill="none" stroke="white" stroke-width="1.5" d="M0,-3.0v7 M-2.5,-0.5L0,-3.0L2.5,-0.5"/>
  </g>
  <g id="arrowLeft" transform="rotate(270) translate(-36 17)">
    <use xlink:href="#rim"/>
    <path pointer-events="none" fill="none" stroke="white" stroke-width="1.5" d="M0,-3.0v7 M-2.5,-0.5L0,-3.0L2.5,-0.5"/>
  </g>
  <g id="resetDef">
    <use xlink:href="#rim2" fill="#404040"><set attributeName="fill" to="#808080" begin="reset.mouseover" end="reset.mouseout"/></use>
  </g>
</defs>
<script type="application/ecmascript">
var viewWidth = 225;
var viewHeight = 702;
var sectionId = 'dynsection-1';
</script>
<script type="application/ecmascript" xlink:href="svg.min.js"/>
<svg id="graph" class="graph">
<g id="viewport">
<title>editeurpanovisu.DocumentationDialog</title>
<!-- Node1 -->
<g id="Node000001" class="node">
<title>Node1</title>
<g id="a_Node000001"><a xlink:title="Dialogue pour afficher la documentation au format Markdown.">
<polygon fill="#999999" stroke="none" points="173.25,-252 0,-252 0,0 173.25,0 173.25,-252"/>
<text xml:space="preserve" text-anchor="start" x="18" y="-238.5" font-family="Helvetica,sans-Serif" font-size="10.00">editeurpanovisu.Documentation</text>
<text xml:space="preserve" text-anchor="start" x="72.75" y="-226.5" font-family="Helvetica,sans-Serif" font-size="10.00">Dialog</text>
<text xml:space="preserve" text-anchor="start" x="5.5" y="-210.5" font-family="Helvetica,sans-Serif" font-size="10.00">&#45;</text>
<text xml:space="preserve" text-anchor="start" x="14" y="-210.5" font-family="Helvetica,sans-Serif" font-size="10.00">final WebView webView</text>
<text xml:space="preserve" text-anchor="start" x="5.5" y="-194.5" font-family="Helvetica,sans-Serif" font-size="10.00">&#45;</text>
<text xml:space="preserve" text-anchor="start" x="14" y="-194.5" font-family="Helvetica,sans-Serif" font-size="10.00">final ComboBox&lt; Document</text>
<text xml:space="preserve" text-anchor="start" x="14" y="-182.5" font-family="Helvetica,sans-Serif" font-size="10.00">Item &gt; documentSelector</text>
<text xml:space="preserve" text-anchor="start" x="5.5" y="-166.5" font-family="Helvetica,sans-Serif" font-size="10.00">&#45;</text>
<text xml:space="preserve" text-anchor="start" x="14" y="-166.5" font-family="Helvetica,sans-Serif" font-size="10.00">final ResourceBundle</text>
<text xml:space="preserve" text-anchor="start" x="14" y="-154.5" font-family="Helvetica,sans-Serif" font-size="10.00"> bundle</text>
<text xml:space="preserve" text-anchor="start" x="4" y="-138.5" font-family="Helvetica,sans-Serif" font-size="10.00">+</text>
<text xml:space="preserve" text-anchor="start" x="14" y="-138.5" font-family="Helvetica,sans-Serif" font-size="10.00">DocumentationDialog()</text>
<text xml:space="preserve" text-anchor="start" x="4" y="-122.5" font-family="Helvetica,sans-Serif" font-size="10.00">+</text>
<text xml:space="preserve" text-anchor="start" x="14" y="-122.5" font-family="Helvetica,sans-Serif" font-size="10.00">void chargerDocument</text>
<text xml:space="preserve" text-anchor="start" x="14" y="-110.5" font-family="Helvetica,sans-Serif" font-size="10.00">(DocumentType type)</text>
<text xml:space="preserve" text-anchor="start" x="4" y="-94.5" font-family="Helvetica,sans-Serif" font-size="10.00">+</text>
<text xml:space="preserve" text-anchor="start" x="14" y="-94.5" font-family="Helvetica,sans-Serif" font-size="10.00">static void afficher()</text>
<text xml:space="preserve" text-anchor="start" x="4" y="-78.5" font-family="Helvetica,sans-Serif" font-size="10.00">+</text>
<text xml:space="preserve" text-anchor="start" x="14" y="-78.5" font-family="Helvetica,sans-Serif" font-size="10.00">static void afficher</text>
<text xml:space="preserve" text-anchor="start" x="14" y="-66.5" font-family="Helvetica,sans-Serif" font-size="10.00">(DocumentType type)</text>
<text xml:space="preserve" text-anchor="start" x="5.5" y="-50.5" font-family="Helvetica,sans-Serif" font-size="10.00">&#45;</text>
<text xml:space="preserve" text-anchor="start" x="14" y="-50.5" font-family="Helvetica,sans-Serif" font-size="10.00">void chargerDocumentSelectionne()</text>
<text xml:space="preserve" text-anchor="start" x="5.5" y="-34.5" font-family="Helvetica,sans-Serif" font-size="10.00">&#45;</text>
<text xml:space="preserve" text-anchor="start" x="14" y="-34.5" font-family="Helvetica,sans-Serif" font-size="10.00">void ouvrirFichierMarkdown()</text>
<text xml:space="preserve" text-anchor="start" x="5.5" y="-18.5" font-family="Helvetica,sans-Serif" font-size="10.00">&#45;</text>
<text xml:space="preserve" text-anchor="start" x="14" y="-18.5" font-family="Helvetica,sans-Serif" font-size="10.00">void afficherErreur</text>
<text xml:space="preserve" text-anchor="start" x="14" y="-6.5" font-family="Helvetica,sans-Serif" font-size="10.00">(String message)</text>
<polygon fill="#666666" stroke="#666666" points="0,-222 0,-222 173.25,-222 173.25,-222 0,-222"/>
<polygon fill="#666666" stroke="#666666" points="0,-150 0,-150 12,-150 12,-150 0,-150"/>
<polygon fill="#666666" stroke="#666666" points="12,-150 12,-150 173.25,-150 173.25,-150 12,-150"/>
<polygon fill="none" stroke="#666666" points="0,0 0,-252 173.25,-252 173.25,0 0,0"/>
</a>
</g>
</g>
<!-- Node2 -->
<g id="Node000002" class="node">
<title>Node2</title>
<g id="a_Node000002"><a xlink:title=" ">
<polygon fill="white" stroke="none" points="48.38,-526 14.88,-526 14.88,-474 48.38,-474 48.38,-526"/>
<text xml:space="preserve" text-anchor="start" x="18.88" y="-512.5" font-family="Helvetica,sans-Serif" font-size="10.00">Stage</text>
<text xml:space="preserve" text-anchor="start" x="30.12" y="-496.5" font-family="Helvetica,sans-Serif" font-size="10.00"> </text>
<text xml:space="preserve" text-anchor="start" x="30.12" y="-480.5" font-family="Helvetica,sans-Serif" font-size="10.00"> </text>
<polygon fill="#666666" stroke="#666666" points="14.88,-508 14.88,-508 48.38,-508 48.38,-508 14.88,-508"/>
<polygon fill="#666666" stroke="#666666" points="14.88,-492 14.88,-492 48.38,-492 48.38,-492 14.88,-492"/>
<polygon fill="none" stroke="#666666" points="14.88,-474 14.88,-526 48.38,-526 48.38,-474 14.88,-474"/>
</a>
</g>
</g>
<!-- Node2&#45;&gt;Node1 -->
<g id="edge1_Node000001_Node000002" class="edge">
<title>Node2&#45;&gt;Node1</title>
<g id="a_edge1_Node000001_Node000002"><a xlink:title=" ">
<path fill="none" stroke="#63b8ff" d="M36.17,-463.09C41.15,-424.3 49.51,-360.71 57.62,-306 60.23,-288.41 63.11,-269.86 65.99,-251.64"/>
<polygon fill="none" stroke="#63b8ff" points="32.73,-462.43 34.93,-472.79 39.67,-463.32 32.73,-462.43"/>
</a>
</g>
</g>
<!-- Node3 -->
<g id="Node000003" class="node">
<title>Node3</title>
<g id="a_Node000003"><a xlink:href="classediteurpanovisu_1_1MarkdownViewer.html" target="_top" xlink:title="Classe utilitaire pour afficher des fichiers Markdown dans une WebView JavaFX.">
<polygon fill="white" stroke="none" points="217,-694 66.25,-694 66.25,-306 217,-306 217,-694"/>
<text xml:space="preserve" text-anchor="start" x="83.5" y="-680.5" font-family="Helvetica,sans-Serif" font-size="10.00">editeurpanovisu.Markdown</text>
<text xml:space="preserve" text-anchor="start" x="126.62" y="-668.5" font-family="Helvetica,sans-Serif" font-size="10.00">Viewer</text>
<text xml:space="preserve" text-anchor="start" x="71.75" y="-652.5" font-family="Helvetica,sans-Serif" font-size="10.00">&#45;</text>
<text xml:space="preserve" text-anchor="start" x="80.25" y="-652.5" font-family="Helvetica,sans-Serif" font-size="10.00">final Parser parser</text>
<text xml:space="preserve" text-anchor="start" x="71.75" y="-636.5" font-family="Helvetica,sans-Serif" font-size="10.00">&#45;</text>
<text xml:space="preserve" text-anchor="start" x="80.25" y="-636.5" font-family="Helvetica,sans-Serif" font-size="10.00">final HtmlRenderer</text>
<text xml:space="preserve" text-anchor="start" x="80.25" y="-624.5" font-family="Helvetica,sans-Serif" font-size="10.00"> renderer</text>
<text xml:space="preserve" text-anchor="start" x="71.75" y="-608.5" font-family="Helvetica,sans-Serif" font-size="10.00">&#45;</text>
<text xml:space="preserve" text-anchor="start" x="80.25" y="-608.5" font-family="Helvetica,sans-Serif" font-size="10.00">static boolean fontesChargees</text>
<text xml:space="preserve" text-anchor="start" x="70.25" y="-592.5" font-family="Helvetica,sans-Serif" font-size="10.00">+</text>
<text xml:space="preserve" text-anchor="start" x="80.25" y="-592.5" font-family="Helvetica,sans-Serif" font-size="10.00">MarkdownViewer()</text>
<text xml:space="preserve" text-anchor="start" x="70.25" y="-576.5" font-family="Helvetica,sans-Serif" font-size="10.00">+</text>
<text xml:space="preserve" text-anchor="start" x="80.25" y="-576.5" font-family="Helvetica,sans-Serif" font-size="10.00">void afficherFichierMarkdown</text>
<text xml:space="preserve" text-anchor="start" x="80.25" y="-564.5" font-family="Helvetica,sans-Serif" font-size="10.00">(WebView webView, String</text>
<text xml:space="preserve" text-anchor="start" x="80.25" y="-552.5" font-family="Helvetica,sans-Serif" font-size="10.00"> markdownFilePath)</text>
<text xml:space="preserve" text-anchor="start" x="70.25" y="-536.5" font-family="Helvetica,sans-Serif" font-size="10.00">+</text>
<text xml:space="preserve" text-anchor="start" x="80.25" y="-536.5" font-family="Helvetica,sans-Serif" font-size="10.00">void afficherMarkdown</text>
<text xml:space="preserve" text-anchor="start" x="80.25" y="-524.5" font-family="Helvetica,sans-Serif" font-size="10.00">(WebView webView, String</text>
<text xml:space="preserve" text-anchor="start" x="80.25" y="-512.5" font-family="Helvetica,sans-Serif" font-size="10.00"> markdownContent)</text>
<text xml:space="preserve" text-anchor="start" x="70.25" y="-496.5" font-family="Helvetica,sans-Serif" font-size="10.00">+</text>
<text xml:space="preserve" text-anchor="start" x="80.25" y="-496.5" font-family="Helvetica,sans-Serif" font-size="10.00">String convertirMarkdown</text>
<text xml:space="preserve" text-anchor="start" x="80.25" y="-484.5" font-family="Helvetica,sans-Serif" font-size="10.00">EnHtml(String markdown)</text>
<text xml:space="preserve" text-anchor="start" x="70.25" y="-468.5" font-family="Helvetica,sans-Serif" font-size="10.00">+</text>
<text xml:space="preserve" text-anchor="start" x="80.25" y="-468.5" font-family="Helvetica,sans-Serif" font-size="10.00">static void main(String</text>
<text xml:space="preserve" text-anchor="start" x="80.25" y="-456.5" font-family="Helvetica,sans-Serif" font-size="10.00">[] args)</text>
<text xml:space="preserve" text-anchor="start" x="71.75" y="-440.5" font-family="Helvetica,sans-Serif" font-size="10.00">&#45;</text>
<text xml:space="preserve" text-anchor="start" x="80.25" y="-440.5" font-family="Helvetica,sans-Serif" font-size="10.00">void chargerFontes()</text>
<text xml:space="preserve" text-anchor="start" x="71.75" y="-424.5" font-family="Helvetica,sans-Serif" font-size="10.00">&#45;</text>
<text xml:space="preserve" text-anchor="start" x="80.25" y="-424.5" font-family="Helvetica,sans-Serif" font-size="10.00">String getWingdingsFontUrl()</text>
<text xml:space="preserve" text-anchor="start" x="71.75" y="-408.5" font-family="Helvetica,sans-Serif" font-size="10.00">&#45;</text>
<text xml:space="preserve" text-anchor="start" x="80.25" y="-408.5" font-family="Helvetica,sans-Serif" font-size="10.00">String genererFontFaceCSS()</text>
<text xml:space="preserve" text-anchor="start" x="71.75" y="-392.5" font-family="Helvetica,sans-Serif" font-size="10.00">&#45;</text>
<text xml:space="preserve" text-anchor="start" x="80.25" y="-392.5" font-family="Helvetica,sans-Serif" font-size="10.00">String remplacerEmojis</text>
<text xml:space="preserve" text-anchor="start" x="80.25" y="-380.5" font-family="Helvetica,sans-Serif" font-size="10.00">(String html)</text>
<text xml:space="preserve" text-anchor="start" x="71.75" y="-364.5" font-family="Helvetica,sans-Serif" font-size="10.00">&#45;</text>
<text xml:space="preserve" text-anchor="start" x="80.25" y="-364.5" font-family="Helvetica,sans-Serif" font-size="10.00">String envelopperDansHtml</text>
<text xml:space="preserve" text-anchor="start" x="80.25" y="-352.5" font-family="Helvetica,sans-Serif" font-size="10.00">(String bodyHtml)</text>
<text xml:space="preserve" text-anchor="start" x="71.75" y="-336.5" font-family="Helvetica,sans-Serif" font-size="10.00">&#45;</text>
<text xml:space="preserve" text-anchor="start" x="80.25" y="-336.5" font-family="Helvetica,sans-Serif" font-size="10.00">String envelopperDansHtml</text>
<text xml:space="preserve" text-anchor="start" x="80.25" y="-324.5" font-family="Helvetica,sans-Serif" font-size="10.00">(String bodyHtml, String</text>
<text xml:space="preserve" text-anchor="start" x="80.25" y="-312.5" font-family="Helvetica,sans-Serif" font-size="10.00"> baseUrl)</text>
<polygon fill="#666666" stroke="#666666" points="66.25,-664 66.25,-664 217,-664 217,-664 66.25,-664"/>
<polygon fill="#666666" stroke="#666666" points="66.25,-604 66.25,-604 78.25,-604 78.25,-604 66.25,-604"/>
<polygon fill="#666666" stroke="#666666" points="78.25,-604 78.25,-604 217,-604 217,-604 78.25,-604"/>
<polygon fill="none" stroke="#666666" points="66.25,-306 66.25,-694 217,-694 217,-306 66.25,-306"/>
</a>
</g>
</g>
<!-- Node3&#45;&gt;Node1 -->
<g id="edge2_Node000001_Node000003" class="edge">
<title>Node3&#45;&gt;Node1</title>
<g id="a_edge2_Node000001_Node000003"><a xlink:title=" ">
<path fill="none" stroke="#63b8ff" d="M113.12,-306.19C111.05,-292.23 109,-278.33 107,-264.79"/>
<polygon fill="none" stroke="#63b8ff" points="106.98,-264.69 102.15,-259.34 105.23,-252.82 110.06,-258.17 106.98,-264.69"/>
</a>
</g>
<text xml:space="preserve" text-anchor="start" x="112.2" y="-275.5" font-family="Helvetica,sans-Serif" font-size="10.00" fill="grey">&#45;markdownViewer</text>
</g>
</g>
</svg>

<g id="navigator" transform="translate(0 0)" fill="#404254">
  <rect fill="#f2f5e9" fill-opacity="0.5" stroke="#606060" stroke-width=".5" x="0" y="0" width="60" height="60"/>
  <use id="zoomplus" xlink:href="#zoomPlus" x="17" y="9" onmousedown="handleZoom(evt,'in')"/>
  <use id="zoomminus" xlink:href="#zoomMin" x="42" y="9" onmousedown="handleZoom(evt,'out')"/>
  <use id="reset" xlink:href="#resetDef" x="30" y="36" onmousedown="handleReset()"/>
   <use id="arrowup" xlink:href="#arrowUp" x="0" y="0" onmousedown="handlePan(0,-1)"/>
  <use id="arrowright" xlink:href="#arrowRight" x="0" y="0" onmousedown="handlePan(1,0)"/>
  <use id="arrowdown" xlink:href="#arrowDown" x="0" y="0" onmousedown="handlePan(0,1)"/>
  <use id="arrowleft" xlink:href="#arrowLeft" x="0" y="0" onmousedown="handlePan(-1,0)"/>
</g>
<svg viewBox="0 0 15 15" width="100%" height="30px" preserveAspectRatio="xMaxYMin meet">
 <g id="arrow_out" transform="scale(0.3 0.3)">
  <a xlink:href="classediteurpanovisu_1_1DocumentationDialog__coll__graph_org.svg" target="_base">
   <rect id="button" ry="5" rx="5" y="6" x="6" height="38" width="38"
        fill="#f2f5e9" fill-opacity="0.5" stroke="#606060" stroke-width="1.0"/>
   <path id="arrow"
     d="M 11.500037,31.436501 C 11.940474,20.09759 22.043105,11.32322 32.158766,21.979434 L 37.068811,17.246167 C 37.068811,17.246167 37.088388,32 37.088388,32 L 22.160133,31.978069 C 22.160133,31.978069 26.997745,27.140456 26.997745,27.140456 C 18.528582,18.264221 13.291696,25.230495 11.500037,31.436501 z"
     style="fill:#404040;"/>
  </a>
 </g>
</svg>

<style type='text/css'>
<![CDATA[
[data-mouse-over-selected='false'] { opacity: 0.7; }
[data-mouse-over-selected='true']  { opacity: 1.0; }
]]>
</style>
<script type="application/ecmascript"><![CDATA[
document.addEventListener('DOMContentLoaded', (event) => {
  highlightEdges();
  highlightAdjacentNodes();
});
]]></script>
</svg>
