<?xml version="1.0" encoding="UTF-8" standalone="no"?>
<!DOCTYPE svg PUBLIC "-//W3C//DTD SVG 1.1//EN"
 "http://www.w3.org/Graphics/SVG/1.1/DTD/svg11.dtd">
<!-- Generated by graphviz version 13.1.2 (20250808.2320)
 -->
<!-- Title: editeurpanovisu.ThemeManager.loadSavedTheme Pages: 1 -->
<svg width="869pt" height="84pt"
 viewBox="0.00 0.00 869.00 84.00" xmlns="http://www.w3.org/2000/svg" xmlns:xlink="http://www.w3.org/1999/xlink">
<g id="graph0" class="graph" transform="scale(1 1) rotate(0) translate(4 80)">
<title>editeurpanovisu.ThemeManager.loadSavedTheme</title>
<!-- Node1 -->
<g id="Node000001" class="node">
<title>Node1</title>
<g id="a_Node000001"><a xlink:title="Charge le thème sauvegardé dans les préférences.">
<polygon fill="#999999" stroke="#666666" points="861.25,-54 685.5,-54 685.5,-22 861.25,-22 861.25,-54"/>
<text xml:space="preserve" text-anchor="start" x="693.5" y="-40.5" font-family="Helvetica,sans-Serif" font-size="10.00">editeurpanovisu.ThemeManager.load</text>
<text xml:space="preserve" text-anchor="middle" x="773.38" y="-28.5" font-family="Helvetica,sans-Serif" font-size="10.00">SavedTheme</text>
</a>
</g>
</g>
<!-- Node2 -->
<g id="Node000002" class="node">
<title>Node2</title>
<g id="a_Node000002"><a xlink:href="classediteurpanovisu_1_1EditeurPanovisu.html#adc41ea81b5b3c25ced8616a3eff2b23d" target="_top" xlink:title="Affiche le dialogue de sélection de thème.">
<polygon fill="white" stroke="#666666" points="649.5,-76 456.5,-76 456.5,-44 649.5,-44 649.5,-76"/>
<text xml:space="preserve" text-anchor="start" x="464.5" y="-62.5" font-family="Helvetica,sans-Serif" font-size="10.00">editeurpanovisu.EditeurPanovisu.afficher</text>
<text xml:space="preserve" text-anchor="middle" x="553" y="-50.5" font-family="Helvetica,sans-Serif" font-size="10.00">DialogueTheme</text>
</a>
</g>
</g>
<!-- Node1&#45;&gt;Node2 -->
<g id="edge1_Node000001_Node000002" class="edge">
<title>Node1&#45;&gt;Node2</title>
<g id="a_edge1_Node000001_Node000002"><a xlink:title=" ">
<path fill="none" stroke="#63b8ff" d="M673.85,-47.93C665.82,-48.73 657.72,-49.55 649.72,-50.36"/>
<polygon fill="#63b8ff" stroke="#63b8ff" points="674.02,-51.43 683.62,-46.94 673.32,-44.46 674.02,-51.43"/>
</a>
</g>
</g>
<!-- Node5 -->
<g id="Node000005" class="node">
<title>Node5</title>
<g id="a_Node000005"><a xlink:href="classediteurpanovisu_1_1ThemeManager.html#ac8ec0b05c7bc5e54d1aa6ef582381212" target="_top" xlink:title="Applique le thème sauvegardé à une scène.">
<polygon fill="white" stroke="#666666" points="408.88,-32 227.88,-32 227.88,0 408.88,0 408.88,-32"/>
<text xml:space="preserve" text-anchor="start" x="235.88" y="-18.5" font-family="Helvetica,sans-Serif" font-size="10.00">editeurpanovisu.ThemeManager.apply</text>
<text xml:space="preserve" text-anchor="middle" x="318.38" y="-6.5" font-family="Helvetica,sans-Serif" font-size="10.00">SavedTheme</text>
</a>
</g>
</g>
<!-- Node1&#45;&gt;Node5 -->
<g id="edge4_Node000001_Node000005" class="edge">
<title>Node1&#45;&gt;Node5</title>
<g id="a_edge4_Node000001_Node000005"><a xlink:title=" ">
<path fill="none" stroke="#63b8ff" d="M673.64,-33.2C594.88,-29.38 485.48,-24.07 409.16,-20.36"/>
<polygon fill="#63b8ff" stroke="#63b8ff" points="673.36,-36.7 683.52,-33.68 673.7,-29.7 673.36,-36.7"/>
</a>
</g>
</g>
<!-- Node3 -->
<g id="Node000003" class="node">
<title>Node3</title>
<g id="a_Node000003"><a xlink:href="classediteurpanovisu_1_1EditeurPanovisu.html#ac912b80c1f2ac97def60ff005c5c480b" target="_top" xlink:title=" ">
<polygon fill="white" stroke="#666666" points="420.5,-70 216.25,-70 216.25,-50 420.5,-50 420.5,-70"/>
<text xml:space="preserve" text-anchor="middle" x="318.38" y="-56.5" font-family="Helvetica,sans-Serif" font-size="10.00">editeurpanovisu.EditeurPanovisu.creeMenu</text>
</a>
</g>
</g>
<!-- Node2&#45;&gt;Node3 -->
<g id="edge2_Node000002_Node000003" class="edge">
<title>Node2&#45;&gt;Node3</title>
<g id="a_edge2_Node000002_Node000003"><a xlink:title=" ">
<path fill="none" stroke="#63b8ff" d="M444.78,-60C436.78,-60 428.73,-60 420.77,-60"/>
<polygon fill="#63b8ff" stroke="#63b8ff" points="444.53,-63.5 454.53,-60 444.53,-56.5 444.53,-63.5"/>
</a>
</g>
</g>
<!-- Node4 -->
<g id="Node000004" class="node">
<title>Node4</title>
<g id="a_Node000004"><a xlink:href="classediteurpanovisu_1_1EditeurPanovisu.html#a86c393eee88f54c694db994ddd85b90d" target="_top" xlink:title=" ">
<polygon fill="white" stroke="#666666" points="180.25,-54 0,-54 0,-22 180.25,-22 180.25,-54"/>
<text xml:space="preserve" text-anchor="start" x="8" y="-40.5" font-family="Helvetica,sans-Serif" font-size="10.00">editeurpanovisu.EditeurPanovisu.cree</text>
<text xml:space="preserve" text-anchor="middle" x="90.12" y="-28.5" font-family="Helvetica,sans-Serif" font-size="10.00">Environnement</text>
</a>
</g>
</g>
<!-- Node3&#45;&gt;Node4 -->
<g id="edge3_Node000003_Node000004" class="edge">
<title>Node3&#45;&gt;Node4</title>
<g id="a_edge3_Node000003_Node000004"><a xlink:title=" ">
<path fill="none" stroke="#63b8ff" d="M204.51,-49.03C196.49,-48.25 188.46,-47.46 180.6,-46.7"/>
<polygon fill="#63b8ff" stroke="#63b8ff" points="204.03,-52.5 214.33,-49.98 204.71,-45.53 204.03,-52.5"/>
</a>
</g>
</g>
<!-- Node5&#45;&gt;Node4 -->
<g id="edge5_Node000005_Node000004" class="edge">
<title>Node5&#45;&gt;Node4</title>
<g id="a_edge5_Node000005_Node000004"><a xlink:title=" ">
<path fill="none" stroke="#63b8ff" d="M216.24,-25.83C204.29,-27 192.16,-28.18 180.39,-29.32"/>
<polygon fill="#63b8ff" stroke="#63b8ff" points="216.51,-29.32 226.12,-24.87 215.83,-22.36 216.51,-29.32"/>
</a>
</g>
</g>
</g>
</svg>
