<?xml version="1.0" encoding="UTF-8" standalone="no"?>
<!DOCTYPE svg PUBLIC "-//W3C//DTD SVG 1.1//EN"
 "http://www.w3.org/Graphics/SVG/1.1/DTD/svg11.dtd">
<!-- Generated by graphviz version 13.1.2 (20250808.2320)
 -->
<!-- Title: editeurpanovisu.MarkdownViewer.envelopperDansHtml Pages: 1 -->
<svg width="841pt" height="40pt"
 viewBox="0.00 0.00 841.00 40.00" xmlns="http://www.w3.org/2000/svg" xmlns:xlink="http://www.w3.org/1999/xlink">
<g id="graph0" class="graph" transform="scale(1 1) rotate(0) translate(4 36)">
<title>editeurpanovisu.MarkdownViewer.envelopperDansHtml</title>
<!-- Node1 -->
<g id="Node000001" class="node">
<title>Node1</title>
<g id="a_Node000001"><a xlink:title="Enveloppe le HTML dans une structure complète avec CSS et URL de base.">
<polygon fill="#999999" stroke="#666666" points="140.5,-32 0,-32 0,0 140.5,0 140.5,-32"/>
<text xml:space="preserve" text-anchor="start" x="8" y="-18.5" font-family="Helvetica,sans-Serif" font-size="10.00">editeurpanovisu.Markdown</text>
<text xml:space="preserve" text-anchor="middle" x="70.25" y="-6.5" font-family="Helvetica,sans-Serif" font-size="10.00">Viewer.envelopperDansHtml</text>
</a>
</g>
</g>
<!-- Node2 -->
<g id="Node000002" class="node">
<title>Node2</title>
<g id="a_Node000002"><a xlink:href="classediteurpanovisu_1_1MarkdownViewer.html#af174733239ea1569baee494ad3b0e77c" target="_top" xlink:title="Génère le CSS @font&#45;face pour charger Wingdings dans le WebView.">
<polygon fill="white" stroke="#666666" points="320,-32 176.5,-32 176.5,0 320,0 320,-32"/>
<text xml:space="preserve" text-anchor="start" x="184.5" y="-18.5" font-family="Helvetica,sans-Serif" font-size="10.00">editeurpanovisu.Markdown</text>
<text xml:space="preserve" text-anchor="middle" x="248.25" y="-6.5" font-family="Helvetica,sans-Serif" font-size="10.00">Viewer.genererFontFaceCSS</text>
</a>
</g>
</g>
<!-- Node1&#45;&gt;Node2 -->
<g id="edge1_Node000001_Node000002" class="edge">
<title>Node1&#45;&gt;Node2</title>
<g id="a_edge1_Node000001_Node000002"><a xlink:title=" ">
<path fill="none" stroke="#63b8ff" d="M140.81,-16C148.71,-16 156.82,-16 164.87,-16"/>
<polygon fill="#63b8ff" stroke="#63b8ff" points="164.66,-19.5 174.66,-16 164.66,-12.5 164.66,-19.5"/>
</a>
</g>
</g>
<!-- Node3 -->
<g id="Node000003" class="node">
<title>Node3</title>
<g id="a_Node000003"><a xlink:href="classediteurpanovisu_1_1MarkdownViewer.html#a7dd9cb34e8163f5e8849b594d2e0d7ec" target="_top" xlink:title="Retourne l&#39;URL de la police Wingdings pour @font&#45;face CSS.">
<polygon fill="white" stroke="#666666" points="496.5,-32 356,-32 356,0 496.5,0 496.5,-32"/>
<text xml:space="preserve" text-anchor="start" x="364" y="-18.5" font-family="Helvetica,sans-Serif" font-size="10.00">editeurpanovisu.Markdown</text>
<text xml:space="preserve" text-anchor="middle" x="426.25" y="-6.5" font-family="Helvetica,sans-Serif" font-size="10.00">Viewer.getWingdingsFontUrl</text>
</a>
</g>
</g>
<!-- Node2&#45;&gt;Node3 -->
<g id="edge2_Node000002_Node000003" class="edge">
<title>Node2&#45;&gt;Node3</title>
<g id="a_edge2_Node000002_Node000003"><a xlink:title=" ">
<path fill="none" stroke="#63b8ff" d="M320.33,-16C328.24,-16 336.34,-16 344.36,-16"/>
<polygon fill="#63b8ff" stroke="#63b8ff" points="344.11,-19.5 354.11,-16 344.11,-12.5 344.11,-19.5"/>
</a>
</g>
</g>
<!-- Node4 -->
<g id="Node000004" class="node">
<title>Node4</title>
<g id="a_Node000004"><a xlink:href="classediteurpanovisu_1_1MarkdownViewer.html#a97cf5f887bf60ee77ea235722283e071" target="_top" xlink:title="Constructeur avec support des extensions GFM (GitHub Flavored Markdown)">
<polygon fill="white" stroke="#666666" points="664.75,-32 532.5,-32 532.5,0 664.75,0 664.75,-32"/>
<text xml:space="preserve" text-anchor="start" x="540.5" y="-18.5" font-family="Helvetica,sans-Serif" font-size="10.00">editeurpanovisu.Markdown</text>
<text xml:space="preserve" text-anchor="middle" x="598.62" y="-6.5" font-family="Helvetica,sans-Serif" font-size="10.00">Viewer.MarkdownViewer</text>
</a>
</g>
</g>
<!-- Node3&#45;&gt;Node4 -->
<g id="edge3_Node000003_Node000004" class="edge">
<title>Node3&#45;&gt;Node4</title>
<g id="a_edge3_Node000003_Node000004"><a xlink:title=" ">
<path fill="none" stroke="#63b8ff" d="M496.55,-16C504.56,-16 512.77,-16 520.88,-16"/>
<polygon fill="#63b8ff" stroke="#63b8ff" points="520.73,-19.5 530.73,-16 520.73,-12.5 520.73,-19.5"/>
</a>
</g>
</g>
<!-- Node5 -->
<g id="Node000005" class="node">
<title>Node5</title>
<g id="a_Node000005"><a xlink:href="classediteurpanovisu_1_1MarkdownViewer.html#a5823f5194e7e655cfdff1325fe7b59a9" target="_top" xlink:title="Charge les polices personnalisées pour le WebView Wingdings doit être chargée explicitement car WebVi...">
<polygon fill="white" stroke="#666666" points="833,-32 700.75,-32 700.75,0 833,0 833,-32"/>
<text xml:space="preserve" text-anchor="start" x="708.75" y="-18.5" font-family="Helvetica,sans-Serif" font-size="10.00">editeurpanovisu.Markdown</text>
<text xml:space="preserve" text-anchor="middle" x="766.88" y="-6.5" font-family="Helvetica,sans-Serif" font-size="10.00">Viewer.chargerFontes</text>
</a>
</g>
</g>
<!-- Node4&#45;&gt;Node5 -->
<g id="edge4_Node000004_Node000005" class="edge">
<title>Node4&#45;&gt;Node5</title>
<g id="a_edge4_Node000004_Node000005"><a xlink:title=" ">
<path fill="none" stroke="#63b8ff" d="M664.85,-9.39C672.77,-9.26 680.91,-9.22 688.97,-9.27"/>
<polygon fill="#63b8ff" stroke="#63b8ff" points="688.74,-12.76 698.77,-9.37 688.81,-5.76 688.74,-12.76"/>
</a>
</g>
</g>
<!-- Node5&#45;&gt;Node4 -->
<g id="edge5_Node000005_Node000004" class="edge">
<title>Node5&#45;&gt;Node4</title>
<g id="a_edge5_Node000005_Node000004"><a xlink:title=" ">
<path fill="none" stroke="#63b8ff" d="M700.29,-22.61C692.37,-22.74 684.22,-22.78 676.16,-22.73"/>
<polygon fill="#63b8ff" stroke="#63b8ff" points="676.4,-19.23 666.37,-22.63 676.33,-26.23 676.4,-19.23"/>
</a>
</g>
</g>
</g>
</svg>
