<?xml version="1.0" encoding="UTF-8" standalone="no"?>
<!DOCTYPE svg PUBLIC "-//W3C//DTD SVG 1.1//EN"
 "http://www.w3.org/Graphics/SVG/1.1/DTD/svg11.dtd">
<!-- Generated by graphviz version 13.1.2 (20250808.2320)
 -->
<!-- Title: editeurpanovisu.PaneOutil.affiche Pages: 1 -->
<svg width="364pt" height="128pt"
 viewBox="0.00 0.00 364.00 128.00" xmlns="http://www.w3.org/2000/svg" xmlns:xlink="http://www.w3.org/1999/xlink">
<g id="graph0" class="graph" transform="scale(1 1) rotate(0) translate(4 124)">
<title>editeurpanovisu.PaneOutil.affiche</title>
<!-- Node1 -->
<g id="Node000001" class="node">
<title>Node1</title>
<g id="a_Node000001"><a xlink:title=" ">
<polygon fill="#999999" stroke="#666666" points="161.5,-64 0,-64 0,-44 161.5,-44 161.5,-64"/>
<text xml:space="preserve" text-anchor="middle" x="80.75" y="-50.5" font-family="Helvetica,sans-Serif" font-size="10.00">editeurpanovisu.PaneOutil.affiche</text>
</a>
</g>
</g>
<!-- Node2 -->
<g id="Node000002" class="node">
<title>Node2</title>
<g id="a_Node000002"><a xlink:href="classediteurpanovisu_1_1PaneOutil.html#ab1329e6891c20bdba55c279b44f72ff7" target="_top" xlink:title=" ">
<polygon fill="white" stroke="#666666" points="356,-120 197.5,-120 197.5,-88 356,-88 356,-120"/>
<text xml:space="preserve" text-anchor="start" x="205.5" y="-106.5" font-family="Helvetica,sans-Serif" font-size="10.00">editeurpanovisu.PaneOutil.deplie</text>
<text xml:space="preserve" text-anchor="middle" x="276.75" y="-94.5" font-family="Helvetica,sans-Serif" font-size="10.00">Replie</text>
</a>
</g>
</g>
<!-- Node1&#45;&gt;Node2 -->
<g id="edge1_Node000001_Node000002" class="edge">
<title>Node1&#45;&gt;Node2</title>
<g id="a_edge1_Node000001_Node000002"><a xlink:title=" ">
<path fill="none" stroke="#63b8ff" d="M122.42,-64.48C145.17,-70.35 174.25,-77.84 200.96,-84.72"/>
<polygon fill="#63b8ff" stroke="#63b8ff" points="199.82,-88.04 210.38,-87.15 201.57,-81.27 199.82,-88.04"/>
</a>
</g>
</g>
<!-- Node3 -->
<g id="Node000003" class="node">
<title>Node3</title>
<g id="a_Node000003"><a xlink:href="classediteurpanovisu_1_1PaneOutil.html#ae31c93e705e43ba0cca41edcff34e335" target="_top" xlink:title=" ">
<polygon fill="white" stroke="#666666" points="349.62,-70 203.88,-70 203.88,-38 349.62,-38 349.62,-70"/>
<text xml:space="preserve" text-anchor="start" x="211.88" y="-56.5" font-family="Helvetica,sans-Serif" font-size="10.00">editeurpanovisu.PaneOutil.isb</text>
<text xml:space="preserve" text-anchor="middle" x="276.75" y="-44.5" font-family="Helvetica,sans-Serif" font-size="10.00">Invariant</text>
</a>
</g>
</g>
<!-- Node1&#45;&gt;Node3 -->
<g id="edge2_Node000001_Node000003" class="edge">
<title>Node1&#45;&gt;Node3</title>
<g id="a_edge2_Node000001_Node000003"><a xlink:title=" ">
<path fill="none" stroke="#63b8ff" d="M161.78,-54C171.86,-54 182.2,-54 192.34,-54"/>
<polygon fill="#63b8ff" stroke="#63b8ff" points="192.16,-57.5 202.16,-54 192.16,-50.5 192.16,-57.5"/>
</a>
</g>
</g>
<!-- Node4 -->
<g id="Node000004" class="node">
<title>Node4</title>
<g id="a_Node000004"><a xlink:href="leaflet_8js.html#abf5830200d869e463ea38504a19985f6" target="_top" xlink:title=" ">
<polygon fill="white" stroke="#666666" points="291.5,-20 262,-20 262,0 291.5,0 291.5,-20"/>
<text xml:space="preserve" text-anchor="middle" x="276.75" y="-6.5" font-family="Helvetica,sans-Serif" font-size="10.00">me</text>
</a>
</g>
</g>
<!-- Node1&#45;&gt;Node4 -->
<g id="edge3_Node000001_Node000004" class="edge">
<title>Node1&#45;&gt;Node4</title>
<g id="a_edge3_Node000001_Node000004"><a xlink:title=" ">
<path fill="none" stroke="#63b8ff" d="M127.73,-43.57C166.11,-34.87 219.38,-22.78 250.45,-15.74"/>
<polygon fill="#63b8ff" stroke="#63b8ff" points="251.1,-19.18 260.08,-13.55 249.56,-12.35 251.1,-19.18"/>
</a>
</g>
</g>
</g>
</svg>
