<?xml version="1.0" encoding="UTF-8" standalone="no"?>
<!DOCTYPE svg PUBLIC "-//W3C//DTD SVG 1.1//EN"
 "http://www.w3.org/Graphics/SVG/1.1/DTD/svg11.dtd">
<!-- Generated by graphviz version 13.1.2 (20250808.2320)
 -->
<!-- Title: editeurpanovisu.GestionnaireInterfaceController.getStrCouleurLigneRadar Pages: 1 -->
<svg width="2384pt" height="402pt"
 viewBox="0.00 0.00 2384.00 402.00" xmlns="http://www.w3.org/2000/svg" xmlns:xlink="http://www.w3.org/1999/xlink">
<g id="graph0" class="graph" transform="scale(1 1) rotate(0) translate(4 397.69)">
<title>editeurpanovisu.GestionnaireInterfaceController.getStrCouleurLigneRadar</title>
<!-- Node1 -->
<g id="Node000001" class="node">
<title>Node1</title>
<g id="a_Node000001"><a xlink:title=" ">
<polygon fill="#999999" stroke="#666666" points="2375.75,-198.69 2216.5,-198.69 2216.5,-154.69 2375.75,-154.69 2375.75,-198.69"/>
<text xml:space="preserve" text-anchor="start" x="2224.5" y="-185.19" font-family="Helvetica,sans-Serif" font-size="10.00">editeurpanovisu.Gestionnaire</text>
<text xml:space="preserve" text-anchor="start" x="2224.5" y="-173.19" font-family="Helvetica,sans-Serif" font-size="10.00">InterfaceController.getStrCouleur</text>
<text xml:space="preserve" text-anchor="middle" x="2296.12" y="-161.19" font-family="Helvetica,sans-Serif" font-size="10.00">LigneRadar</text>
</a>
</g>
</g>
<!-- Node2 -->
<g id="Node000002" class="node">
<title>Node2</title>
<g id="a_Node000002"><a xlink:href="classediteurpanovisu_1_1EditeurPanovisu.html#a94e36b9e9d09ab1a4c852b8a8cefa927" target="_top" xlink:title=" ">
<polygon fill="white" stroke="#666666" points="647.25,-123.69 456.5,-123.69 456.5,-91.69 647.25,-91.69 647.25,-123.69"/>
<text xml:space="preserve" text-anchor="start" x="464.5" y="-110.19" font-family="Helvetica,sans-Serif" font-size="10.00">editeurpanovisu.EditeurPanovisu.genere</text>
<text xml:space="preserve" text-anchor="middle" x="551.88" y="-98.19" font-family="Helvetica,sans-Serif" font-size="10.00">Visite</text>
</a>
</g>
</g>
<!-- Node1&#45;&gt;Node2 -->
<g id="edge1_Node000001_Node000002" class="edge">
<title>Node1&#45;&gt;Node2</title>
<g id="a_edge1_Node000001_Node000002"><a xlink:title=" ">
<path fill="none" stroke="#63b8ff" d="M2253.99,-148.05C2183.38,-101.77 2033.07,-15.69 1892,-15.69 1892,-15.69 1892,-15.69 1228.5,-15.69 984.8,-15.69 922.99,-29.93 683.25,-73.69 658.51,-78.2 631.56,-84.92 608.62,-91.2"/>
<polygon fill="#63b8ff" stroke="#63b8ff" points="2251.88,-150.85 2262.15,-153.46 2255.75,-145.02 2251.88,-150.85"/>
</a>
</g>
</g>
<!-- Node5 -->
<g id="Node000005" class="node">
<title>Node5</title>
<g id="a_Node000005"><a xlink:href="classediteurpanovisu_1_1GestionnaireInterfaceController.html#ad89227c352c38045e5b992d1a208e241" target="_top" xlink:title=" ">
<polygon fill="white" stroke="#666666" points="2173.75,-264.69 2021.25,-264.69 2021.25,-232.69 2173.75,-232.69 2173.75,-264.69"/>
<text xml:space="preserve" text-anchor="start" x="2029.25" y="-251.19" font-family="Helvetica,sans-Serif" font-size="10.00">editeurpanovisu.Gestionnaire</text>
<text xml:space="preserve" text-anchor="middle" x="2097.5" y="-239.19" font-family="Helvetica,sans-Serif" font-size="10.00">InterfaceController.setTemplate</text>
</a>
</g>
</g>
<!-- Node1&#45;&gt;Node5 -->
<g id="edge4_Node000001_Node000005" class="edge">
<title>Node1&#45;&gt;Node5</title>
<g id="a_edge4_Node000001_Node000005"><a xlink:title=" ">
<path fill="none" stroke="#63b8ff" d="M2222.92,-203.13C2196.35,-212.86 2167.04,-223.59 2143.54,-232.19"/>
<polygon fill="#63b8ff" stroke="#63b8ff" points="2224.11,-206.42 2232.3,-199.69 2221.71,-199.85 2224.11,-206.42"/>
</a>
</g>
</g>
<!-- Node16 -->
<g id="Node000016" class="node">
<title>Node16</title>
<g id="a_Node000016"><a xlink:href="classediteurpanovisu_1_1GestionnaireInterfaceController.html#ab66509c63a85a8285a081b24049e8774" target="_top" xlink:title=" ">
<polygon fill="white" stroke="#666666" points="2180.5,-192.69 2014.5,-192.69 2014.5,-160.69 2180.5,-160.69 2180.5,-192.69"/>
<text xml:space="preserve" text-anchor="start" x="2022.5" y="-179.19" font-family="Helvetica,sans-Serif" font-size="10.00">editeurpanovisu.Gestionnaire</text>
<text xml:space="preserve" text-anchor="middle" x="2097.5" y="-167.19" font-family="Helvetica,sans-Serif" font-size="10.00">InterfaceController.strGetTemplate</text>
</a>
</g>
</g>
<!-- Node1&#45;&gt;Node16 -->
<g id="edge28_Node000001_Node000016" class="edge">
<title>Node1&#45;&gt;Node16</title>
<g id="a_edge28_Node000001_Node000016"><a xlink:title=" ">
<path fill="none" stroke="#63b8ff" d="M2204.56,-176.69C2196.7,-176.69 2188.78,-176.69 2180.99,-176.69"/>
<polygon fill="#63b8ff" stroke="#63b8ff" points="2204.49,-180.19 2214.49,-176.69 2204.49,-173.19 2204.49,-180.19"/>
</a>
</g>
</g>
<!-- Node3 -->
<g id="Node000003" class="node">
<title>Node3</title>
<g id="a_Node000003"><a xlink:href="classediteurpanovisu_1_1EditeurPanovisu.html#ac912b80c1f2ac97def60ff005c5c480b" target="_top" xlink:title=" ">
<polygon fill="white" stroke="#666666" points="420.5,-221.69 216.25,-221.69 216.25,-201.69 420.5,-201.69 420.5,-221.69"/>
<text xml:space="preserve" text-anchor="middle" x="318.38" y="-208.19" font-family="Helvetica,sans-Serif" font-size="10.00">editeurpanovisu.EditeurPanovisu.creeMenu</text>
</a>
</g>
</g>
<!-- Node2&#45;&gt;Node3 -->
<g id="edge2_Node000002_Node000003" class="edge">
<title>Node2&#45;&gt;Node3</title>
<g id="a_edge2_Node000002_Node000003"><a xlink:title=" ">
<path fill="none" stroke="#63b8ff" d="M503.84,-128.82C454.82,-150.84 380.03,-184.44 342.52,-201.29"/>
<polygon fill="#63b8ff" stroke="#63b8ff" points="505.13,-132.08 512.81,-124.79 502.26,-125.69 505.13,-132.08"/>
</a>
</g>
</g>
<!-- Node4 -->
<g id="Node000004" class="node">
<title>Node4</title>
<g id="a_Node000004"><a xlink:href="classediteurpanovisu_1_1EditeurPanovisu.html#a86c393eee88f54c694db994ddd85b90d" target="_top" xlink:title=" ">
<polygon fill="white" stroke="#666666" points="180.25,-227.69 0,-227.69 0,-195.69 180.25,-195.69 180.25,-227.69"/>
<text xml:space="preserve" text-anchor="start" x="8" y="-214.19" font-family="Helvetica,sans-Serif" font-size="10.00">editeurpanovisu.EditeurPanovisu.cree</text>
<text xml:space="preserve" text-anchor="middle" x="90.12" y="-202.19" font-family="Helvetica,sans-Serif" font-size="10.00">Environnement</text>
</a>
</g>
</g>
<!-- Node3&#45;&gt;Node4 -->
<g id="edge3_Node000003_Node000004" class="edge">
<title>Node3&#45;&gt;Node4</title>
<g id="a_edge3_Node000003_Node000004"><a xlink:title=" ">
<path fill="none" stroke="#63b8ff" d="M204.51,-211.69C196.49,-211.69 188.46,-211.69 180.6,-211.69"/>
<polygon fill="#63b8ff" stroke="#63b8ff" points="204.32,-215.19 214.32,-211.69 204.32,-208.19 204.32,-215.19"/>
</a>
</g>
</g>
<!-- Node6 -->
<g id="Node000006" class="node">
<title>Node6</title>
<g id="a_Node000006"><a xlink:href="classediteurpanovisu_1_1EditeurPanovisu.html#a87b29dc258cfc67370b1f27809e91b8e" target="_top" xlink:title=" ">
<polygon fill="white" stroke="#666666" points="1978.5,-275.69 1803.5,-275.69 1803.5,-243.69 1978.5,-243.69 1978.5,-275.69"/>
<text xml:space="preserve" text-anchor="start" x="1811.5" y="-262.19" font-family="Helvetica,sans-Serif" font-size="10.00">editeurpanovisu.EditeurPanovisu.tsk</text>
<text xml:space="preserve" text-anchor="middle" x="1891" y="-250.19" font-family="Helvetica,sans-Serif" font-size="10.00">AnalyseFichierPVU</text>
</a>
</g>
</g>
<!-- Node5&#45;&gt;Node6 -->
<g id="edge5_Node000005_Node000006" class="edge">
<title>Node5&#45;&gt;Node6</title>
<g id="a_edge5_Node000005_Node000006"><a xlink:title=" ">
<path fill="none" stroke="#63b8ff" d="M2009.6,-253.36C1999.47,-253.91 1989.13,-254.46 1979,-255.01"/>
<polygon fill="#63b8ff" stroke="#63b8ff" points="2009.62,-256.87 2019.42,-252.83 2009.25,-249.88 2009.62,-256.87"/>
</a>
</g>
</g>
<!-- Node7 -->
<g id="Node000007" class="node">
<title>Node7</title>
<g id="a_Node000007"><a xlink:href="classediteurpanovisu_1_1EditeurPanovisu.html#ab4beb1597b660a4a253befc6e76f1c54" target="_top" xlink:title=" ">
<polygon fill="white" stroke="#666666" points="1098.12,-365.69 912.62,-365.69 912.62,-333.69 1098.12,-333.69 1098.12,-365.69"/>
<text xml:space="preserve" text-anchor="start" x="920.62" y="-352.19" font-family="Helvetica,sans-Serif" font-size="10.00">editeurpanovisu.EditeurPanovisu.projet</text>
<text xml:space="preserve" text-anchor="middle" x="1005.38" y="-340.19" font-family="Helvetica,sans-Serif" font-size="10.00">Charge</text>
</a>
</g>
</g>
<!-- Node6&#45;&gt;Node7 -->
<g id="edge6_Node000006_Node000007" class="edge">
<title>Node6&#45;&gt;Node7</title>
<g id="a_edge6_Node000006_Node000007"><a xlink:title=" ">
<path fill="none" stroke="#63b8ff" d="M1805.37,-278.29C1792.72,-280.68 1779.8,-282.91 1767.5,-284.69 1527.45,-319.31 1241.96,-337.64 1098.45,-345.28"/>
<polygon fill="#63b8ff" stroke="#63b8ff" points="1805.76,-281.78 1814.91,-276.44 1804.43,-274.91 1805.76,-281.78"/>
</a>
</g>
</g>
<!-- Node8 -->
<g id="Node000008" class="node">
<title>Node8</title>
<g id="a_Node000008"><a xlink:href="classediteurpanovisu_1_1EditeurPanovisu.html#a6d19b4d885ee6fcec827b91956295732" target="_top" xlink:title=" ">
<polygon fill="white" stroke="#666666" points="1767.5,-275.69 1582,-275.69 1582,-243.69 1767.5,-243.69 1767.5,-275.69"/>
<text xml:space="preserve" text-anchor="start" x="1590" y="-262.19" font-family="Helvetica,sans-Serif" font-size="10.00">editeurpanovisu.EditeurPanovisu.projet</text>
<text xml:space="preserve" text-anchor="middle" x="1674.75" y="-250.19" font-family="Helvetica,sans-Serif" font-size="10.00">ChargeNom</text>
</a>
</g>
</g>
<!-- Node6&#45;&gt;Node8 -->
<g id="edge8_Node000006_Node000008" class="edge">
<title>Node6&#45;&gt;Node8</title>
<g id="a_edge8_Node000006_Node000008"><a xlink:title=" ">
<path fill="none" stroke="#63b8ff" d="M1791.66,-259.69C1783.76,-259.69 1775.8,-259.69 1767.95,-259.69"/>
<polygon fill="#63b8ff" stroke="#63b8ff" points="1791.65,-263.19 1801.65,-259.69 1791.65,-256.19 1791.65,-263.19"/>
</a>
</g>
</g>
<!-- Node7&#45;&gt;Node3 -->
<g id="edge7_Node000007_Node000003" class="edge">
<title>Node7&#45;&gt;Node3</title>
<g id="a_edge7_Node000007_Node000003"><a xlink:title=" ">
<path fill="none" stroke="#63b8ff" d="M901.03,-342.5C789.65,-332.93 607.98,-312.03 456.5,-269.69 413.18,-257.58 365.4,-235.14 339.24,-222"/>
<polygon fill="#63b8ff" stroke="#63b8ff" points="900.48,-345.96 910.74,-343.32 901.07,-338.99 900.48,-345.96"/>
</a>
</g>
</g>
<!-- Node8&#45;&gt;Node3 -->
<g id="edge27_Node000008_Node000003" class="edge">
<title>Node8&#45;&gt;Node3</title>
<g id="a_edge27_Node000008_Node000003"><a xlink:title=" ">
<path fill="none" stroke="#63b8ff" d="M1615.17,-279.6C1500,-316.93 1235.34,-393.69 1006.38,-393.69 1006.38,-393.69 1006.38,-393.69 777.62,-393.69 629.4,-393.69 591.1,-365.76 456.5,-303.69 406.78,-280.76 354.92,-240.83 331.79,-222.03"/>
<polygon fill="#63b8ff" stroke="#63b8ff" points="1615.99,-283.02 1624.41,-276.59 1613.81,-276.37 1615.99,-283.02"/>
</a>
</g>
</g>
<!-- Node9 -->
<g id="Node000009" class="node">
<title>Node9</title>
<g id="a_Node000009"><a xlink:href="classediteurpanovisu_1_1EditeurPanovisu.html#af0d1c32bb78acbff561c822a0d15f760" target="_top" xlink:title=" ">
<polygon fill="white" stroke="#666666" points="1546,-242.69 1358.25,-242.69 1358.25,-210.69 1546,-210.69 1546,-242.69"/>
<text xml:space="preserve" text-anchor="start" x="1366.25" y="-229.19" font-family="Helvetica,sans-Serif" font-size="10.00">editeurpanovisu.EditeurPanovisu.ajoute</text>
<text xml:space="preserve" text-anchor="middle" x="1452.12" y="-217.19" font-family="Helvetica,sans-Serif" font-size="10.00">FichierHisto</text>
</a>
</g>
</g>
<!-- Node8&#45;&gt;Node9 -->
<g id="edge9_Node000008_Node000009" class="edge">
<title>Node8&#45;&gt;Node9</title>
<g id="a_edge9_Node000008_Node000009"><a xlink:title=" ">
<path fill="none" stroke="#63b8ff" d="M1594.58,-241.34C1578.98,-238.76 1562.47,-236.23 1546.46,-233.97"/>
<polygon fill="#63b8ff" stroke="#63b8ff" points="1593.82,-244.76 1604.26,-242.98 1594.99,-237.86 1593.82,-244.76"/>
</a>
</g>
</g>
<!-- Node9&#45;&gt;Node7 -->
<g id="edge10_Node000009_Node000007" class="edge">
<title>Node9&#45;&gt;Node7</title>
<g id="a_edge10_Node000009_Node000007"><a xlink:title=" ">
<path fill="none" stroke="#63b8ff" d="M1382.27,-246.25C1311.67,-266.23 1198.66,-298.03 1100.75,-324.69 1090.53,-327.47 1079.67,-330.39 1069.1,-333.2"/>
<polygon fill="#63b8ff" stroke="#63b8ff" points="1383.1,-249.65 1391.77,-243.56 1381.19,-242.92 1383.1,-249.65"/>
</a>
</g>
</g>
<!-- Node9&#45;&gt;Node8 -->
<g id="edge11_Node000009_Node000008" class="edge">
<title>Node9&#45;&gt;Node8</title>
<g id="a_edge11_Node000009_Node000008"><a xlink:title=" ">
<path fill="none" stroke="#63b8ff" d="M1532.06,-245C1548.17,-247.67 1565.26,-250.28 1581.78,-252.6"/>
<polygon fill="#63b8ff" stroke="#63b8ff" points="1533.01,-241.61 1522.57,-243.39 1531.84,-248.51 1533.01,-241.61"/>
</a>
</g>
</g>
<!-- Node10 -->
<g id="Node000010" class="node">
<title>Node10</title>
<g id="a_Node000010"><a xlink:href="classediteurpanovisu_1_1EditeurPanovisu.html#a9f3ea25b35d4884524508dab3dc4fd6a" target="_top" xlink:title=" ">
<polygon fill="white" stroke="#666666" points="1322.25,-242.69 1136.75,-242.69 1136.75,-210.69 1322.25,-210.69 1322.25,-242.69"/>
<text xml:space="preserve" text-anchor="start" x="1144.75" y="-229.19" font-family="Helvetica,sans-Serif" font-size="10.00">editeurpanovisu.EditeurPanovisu.projet</text>
<text xml:space="preserve" text-anchor="middle" x="1229.5" y="-217.19" font-family="Helvetica,sans-Serif" font-size="10.00">Sauve</text>
</a>
</g>
</g>
<!-- Node9&#45;&gt;Node10 -->
<g id="edge12_Node000009_Node000010" class="edge">
<title>Node9&#45;&gt;Node10</title>
<g id="a_edge12_Node000009_Node000010"><a xlink:title=" ">
<path fill="none" stroke="#63b8ff" d="M1346.63,-226.69C1338.64,-226.69 1330.61,-226.69 1322.71,-226.69"/>
<polygon fill="#63b8ff" stroke="#63b8ff" points="1346.37,-230.19 1356.37,-226.69 1346.37,-223.19 1346.37,-230.19"/>
</a>
</g>
</g>
<!-- Node15 -->
<g id="Node000015" class="node">
<title>Node15</title>
<g id="a_Node000015"><a xlink:href="classediteurpanovisu_1_1EditeurPanovisu.html#a7b2e25dc717eb52b62e23d54ec4c124a" target="_top" xlink:title=" ">
<polygon fill="white" stroke="#666666" points="1322.25,-192.69 1136.75,-192.69 1136.75,-160.69 1322.25,-160.69 1322.25,-192.69"/>
<text xml:space="preserve" text-anchor="start" x="1144.75" y="-179.19" font-family="Helvetica,sans-Serif" font-size="10.00">editeurpanovisu.EditeurPanovisu.projet</text>
<text xml:space="preserve" text-anchor="middle" x="1229.5" y="-167.19" font-family="Helvetica,sans-Serif" font-size="10.00">SauveSous</text>
</a>
</g>
</g>
<!-- Node9&#45;&gt;Node15 -->
<g id="edge25_Node000009_Node000015" class="edge">
<title>Node9&#45;&gt;Node15</title>
<g id="a_edge25_Node000009_Node000015"><a xlink:title=" ">
<path fill="none" stroke="#63b8ff" d="M1367.62,-207.76C1346.38,-202.95 1323.73,-197.82 1303.09,-193.14"/>
<polygon fill="#63b8ff" stroke="#63b8ff" points="1366.58,-211.12 1377.1,-209.91 1368.12,-204.29 1366.58,-211.12"/>
</a>
</g>
</g>
<!-- Node10&#45;&gt;Node2 -->
<g id="edge14_Node000010_Node000002" class="edge">
<title>Node10&#45;&gt;Node2</title>
<g id="a_edge14_Node000010_Node000002"><a xlink:title=" ">
<path fill="none" stroke="#63b8ff" d="M1139.58,-204.1C1138.61,-203.32 1137.67,-202.52 1136.75,-201.69 1103.58,-171.67 1137.61,-133.04 1100.75,-107.69 1029.73,-58.84 784.64,-79.16 647.57,-95.19"/>
<polygon fill="#63b8ff" stroke="#63b8ff" points="1137.34,-206.81 1147.57,-209.55 1141.28,-201.03 1137.34,-206.81"/>
</a>
</g>
</g>
<!-- Node10&#45;&gt;Node3 -->
<g id="edge13_Node000010_Node000003" class="edge">
<title>Node10&#45;&gt;Node3</title>
<g id="a_edge13_Node000010_Node000003"><a xlink:title=" ">
<path fill="none" stroke="#63b8ff" d="M1125.15,-232.72C1116.9,-233.09 1108.69,-233.42 1100.75,-233.69 814.56,-243.42 742.05,-247.18 456.5,-225.69 443.26,-224.69 429.31,-223.47 415.59,-222.17"/>
<polygon fill="#63b8ff" stroke="#63b8ff" points="1125.07,-236.22 1134.9,-232.26 1124.75,-229.23 1125.07,-236.22"/>
</a>
</g>
</g>
<!-- Node10&#45;&gt;Node7 -->
<g id="edge15_Node000010_Node000007" class="edge">
<title>Node10&#45;&gt;Node7</title>
<g id="a_edge15_Node000010_Node000007"><a xlink:title=" ">
<path fill="none" stroke="#63b8ff" d="M1184.25,-248.56C1168.44,-257.42 1151.03,-268.45 1136.75,-280.69 1117.56,-297.13 1121.99,-311.01 1100.75,-324.69 1095.62,-327.99 1090.07,-330.86 1084.31,-333.35"/>
<polygon fill="#63b8ff" stroke="#63b8ff" points="1185.92,-251.64 1193.03,-243.78 1182.57,-245.49 1185.92,-251.64"/>
</a>
</g>
</g>
<!-- Node10&#45;&gt;Node8 -->
<g id="edge16_Node000010_Node000008" class="edge">
<title>Node10&#45;&gt;Node8</title>
<g id="a_edge16_Node000010_Node000008"><a xlink:title=" ">
<path fill="none" stroke="#63b8ff" d="M1314.47,-245.2C1329.01,-247.81 1344.02,-250.13 1358.25,-251.69 1433.14,-259.91 1518.6,-261.6 1581.67,-261.42"/>
<polygon fill="#63b8ff" stroke="#63b8ff" points="1315.43,-241.82 1304.96,-243.43 1314.15,-248.7 1315.43,-241.82"/>
</a>
</g>
</g>
<!-- Node11 -->
<g id="Node000011" class="node">
<title>Node11</title>
<g id="a_Node000011"><a xlink:href="classediteurpanovisu_1_1EditeurPanovisu.html#a9b46b222714af12c06ec33d410400773" target="_top" xlink:title=" ">
<polygon fill="white" stroke="#666666" points="874,-227.69 683.25,-227.69 683.25,-195.69 874,-195.69 874,-227.69"/>
<text xml:space="preserve" text-anchor="start" x="691.25" y="-214.19" font-family="Helvetica,sans-Serif" font-size="10.00">editeurpanovisu.EditeurPanovisu.projets</text>
<text xml:space="preserve" text-anchor="middle" x="778.62" y="-202.19" font-family="Helvetica,sans-Serif" font-size="10.00">Fermer</text>
</a>
</g>
</g>
<!-- Node10&#45;&gt;Node11 -->
<g id="edge17_Node000010_Node000011" class="edge">
<title>Node10&#45;&gt;Node11</title>
<g id="a_edge17_Node000010_Node000011"><a xlink:title=" ">
<path fill="none" stroke="#63b8ff" d="M1124.89,-223.23C1049.35,-220.7 947.8,-217.31 874.4,-214.86"/>
<polygon fill="#63b8ff" stroke="#63b8ff" points="1124.68,-226.72 1134.8,-223.56 1124.92,-219.72 1124.68,-226.72"/>
</a>
</g>
</g>
<!-- Node12 -->
<g id="Node000012" class="node">
<title>Node12</title>
<g id="a_Node000012"><a xlink:href="classediteurpanovisu_1_1EditeurPanovisu.html#ac9d449399ccd38843fa12e716f0c9611" target="_top" xlink:title=" ">
<polygon fill="white" stroke="#666666" points="1100.75,-189.69 910,-189.69 910,-157.69 1100.75,-157.69 1100.75,-189.69"/>
<text xml:space="preserve" text-anchor="start" x="918" y="-176.19" font-family="Helvetica,sans-Serif" font-size="10.00">editeurpanovisu.EditeurPanovisu.projets</text>
<text xml:space="preserve" text-anchor="middle" x="1005.38" y="-164.19" font-family="Helvetica,sans-Serif" font-size="10.00">Nouveau</text>
</a>
</g>
</g>
<!-- Node10&#45;&gt;Node12 -->
<g id="edge19_Node000010_Node000012" class="edge">
<title>Node10&#45;&gt;Node12</title>
<g id="a_edge19_Node000010_Node000012"><a xlink:title=" ">
<path fill="none" stroke="#63b8ff" d="M1148.27,-207.55C1124.41,-201.85 1098.48,-195.66 1075.4,-190.16"/>
<polygon fill="#63b8ff" stroke="#63b8ff" points="1147.42,-210.94 1157.96,-209.86 1149.05,-204.13 1147.42,-210.94"/>
</a>
</g>
</g>
<!-- Node13 -->
<g id="Node000013" class="node">
<title>Node13</title>
<g id="a_Node000013"><a xlink:href="classediteurpanovisu_1_1EditeurPanovisu.html#a2b3125ffe2e6291efacf19df6cb30a8d" target="_top" xlink:title=" ">
<polygon fill="white" stroke="#666666" points="869.12,-139.69 688.12,-139.69 688.12,-119.69 869.12,-119.69 869.12,-139.69"/>
<text xml:space="preserve" text-anchor="middle" x="778.62" y="-126.19" font-family="Helvetica,sans-Serif" font-size="10.00">editeurpanovisu.EditeurPanovisu.start</text>
</a>
</g>
</g>
<!-- Node10&#45;&gt;Node13 -->
<g id="edge24_Node000010_Node000013" class="edge">
<title>Node10&#45;&gt;Node13</title>
<g id="a_edge24_Node000010_Node000013"><a xlink:title=" ">
<path fill="none" stroke="#63b8ff" d="M1141.6,-204.9C1139.94,-203.88 1138.32,-202.81 1136.75,-201.69 1113.58,-185.14 1125.51,-162.75 1100.75,-148.69 1017.11,-101.17 900.64,-109 833.39,-119.2"/>
<polygon fill="#63b8ff" stroke="#63b8ff" points="1139.69,-207.85 1150.15,-209.53 1143.02,-201.69 1139.69,-207.85"/>
</a>
</g>
</g>
<!-- Node14 -->
<g id="Node000014" class="node">
<title>Node14</title>
<g id="a_Node000014"><a xlink:href="classediteurpanovisu_1_1EditeurPanovisu.html#aef8c9b28c3e88d6e27e3f62b9a901134" target="_top" xlink:title=" ">
<polygon fill="white" stroke="#666666" points="1099.25,-315.69 911.5,-315.69 911.5,-283.69 1099.25,-283.69 1099.25,-315.69"/>
<text xml:space="preserve" text-anchor="start" x="919.5" y="-302.19" font-family="Helvetica,sans-Serif" font-size="10.00">editeurpanovisu.EditeurPanovisu.sauve</text>
<text xml:space="preserve" text-anchor="middle" x="1005.38" y="-290.19" font-family="Helvetica,sans-Serif" font-size="10.00">Fichiers</text>
</a>
</g>
</g>
<!-- Node10&#45;&gt;Node14 -->
<g id="edge23_Node000010_Node000014" class="edge">
<title>Node10&#45;&gt;Node14</title>
<g id="a_edge23_Node000010_Node000014"><a xlink:title=" ">
<path fill="none" stroke="#63b8ff" d="M1169.66,-246.73C1148.02,-254.03 1123.3,-262.31 1100.75,-269.69 1087.02,-274.18 1072.15,-278.95 1058.35,-283.34"/>
<polygon fill="#63b8ff" stroke="#63b8ff" points="1170.55,-250.12 1178.9,-243.6 1168.31,-243.49 1170.55,-250.12"/>
</a>
</g>
</g>
<!-- Node11&#45;&gt;Node3 -->
<g id="edge18_Node000011_Node000003" class="edge">
<title>Node11&#45;&gt;Node3</title>
<g id="a_edge18_Node000011_Node000003"><a xlink:title=" ">
<path fill="none" stroke="#63b8ff" d="M671.53,-211.69C596,-211.69 495.11,-211.69 420.68,-211.69"/>
<polygon fill="#63b8ff" stroke="#63b8ff" points="671.44,-215.19 681.44,-211.69 671.44,-208.19 671.44,-215.19"/>
</a>
</g>
</g>
<!-- Node12&#45;&gt;Node3 -->
<g id="edge20_Node000012_Node000003" class="edge">
<title>Node12&#45;&gt;Node3</title>
<g id="a_edge20_Node000012_Node000003"><a xlink:title=" ">
<path fill="none" stroke="#63b8ff" d="M898.37,-177.23C835.77,-179.51 754.97,-182.77 683.25,-186.69 594.57,-191.53 493.85,-198.57 420.89,-203.95"/>
<polygon fill="#63b8ff" stroke="#63b8ff" points="898.47,-180.73 908.33,-176.87 898.21,-173.73 898.47,-180.73"/>
</a>
</g>
</g>
<!-- Node12&#45;&gt;Node13 -->
<g id="edge21_Node000012_Node000013" class="edge">
<title>Node12&#45;&gt;Node13</title>
<g id="a_edge21_Node000012_Node000013"><a xlink:title=" ">
<path fill="none" stroke="#63b8ff" d="M909.31,-155.08C883.31,-149.99 856.03,-144.65 833.24,-140.18"/>
<polygon fill="#63b8ff" stroke="#63b8ff" points="908.4,-158.46 918.88,-156.95 909.74,-151.59 908.4,-158.46"/>
</a>
</g>
</g>
<!-- Node13&#45;&gt;Node2 -->
<g id="edge22_Node000013_Node000002" class="edge">
<title>Node13&#45;&gt;Node2</title>
<g id="a_edge22_Node000013_Node000002"><a xlink:title=" ">
<path fill="none" stroke="#63b8ff" d="M676.6,-119.8C666.98,-118.86 657.24,-117.9 647.68,-116.97"/>
<polygon fill="#63b8ff" stroke="#63b8ff" points="676.03,-123.26 686.32,-120.75 676.71,-116.29 676.03,-123.26"/>
</a>
</g>
</g>
<!-- Node15&#45;&gt;Node3 -->
<g id="edge26_Node000015_Node000003" class="edge">
<title>Node15&#45;&gt;Node3</title>
<g id="a_edge26_Node000015_Node000003"><a xlink:title=" ">
<path fill="none" stroke="#63b8ff" d="M1207.86,-152C1184.79,-126.52 1144.86,-88.37 1100.75,-72.69 830.93,23.25 720.57,28.11 456.5,-82.69 394.71,-108.61 343.95,-175.74 326.18,-201.46"/>
<polygon fill="#63b8ff" stroke="#63b8ff" points="1205.05,-154.1 1214.29,-159.28 1210.3,-149.47 1205.05,-154.1"/>
</a>
</g>
</g>
<!-- Node17 -->
<g id="Node000017" class="node">
<title>Node17</title>
<g id="a_Node000017"><a xlink:href="classediteurpanovisu_1_1EditeurPanovisu.html#aaee69ab54364f89b58458c744a4195c0" target="_top" xlink:title=" ">
<polygon fill="white" stroke="#666666" points="1546,-192.69 1358.25,-192.69 1358.25,-160.69 1546,-160.69 1546,-192.69"/>
<text xml:space="preserve" text-anchor="start" x="1366.25" y="-179.19" font-family="Helvetica,sans-Serif" font-size="10.00">editeurpanovisu.EditeurPanovisu.sauve</text>
<text xml:space="preserve" text-anchor="middle" x="1452.12" y="-167.19" font-family="Helvetica,sans-Serif" font-size="10.00">FichierProjet</text>
</a>
</g>
</g>
<!-- Node16&#45;&gt;Node17 -->
<g id="edge29_Node000016_Node000017" class="edge">
<title>Node16&#45;&gt;Node17</title>
<g id="a_edge29_Node000016_Node000017"><a xlink:title=" ">
<path fill="none" stroke="#63b8ff" d="M2002.87,-176.69C1880.74,-176.69 1668.32,-176.69 1546.38,-176.69"/>
<polygon fill="#63b8ff" stroke="#63b8ff" points="2002.52,-180.19 2012.52,-176.69 2002.52,-173.19 2002.52,-180.19"/>
</a>
</g>
</g>
<!-- Node17&#45;&gt;Node10 -->
<g id="edge30_Node000017_Node000010" class="edge">
<title>Node17&#45;&gt;Node10</title>
<g id="a_edge30_Node000017_Node000010"><a xlink:title=" ">
<path fill="none" stroke="#63b8ff" d="M1367.62,-195.61C1346.38,-200.43 1323.73,-205.56 1303.09,-210.24"/>
<polygon fill="#63b8ff" stroke="#63b8ff" points="1368.12,-199.09 1377.1,-193.46 1366.58,-192.26 1368.12,-199.09"/>
</a>
</g>
</g>
<!-- Node17&#45;&gt;Node15 -->
<g id="edge31_Node000017_Node000015" class="edge">
<title>Node17&#45;&gt;Node15</title>
<g id="a_edge31_Node000017_Node000015"><a xlink:title=" ">
<path fill="none" stroke="#63b8ff" d="M1346.63,-176.69C1338.64,-176.69 1330.61,-176.69 1322.71,-176.69"/>
<polygon fill="#63b8ff" stroke="#63b8ff" points="1346.37,-180.19 1356.37,-176.69 1346.37,-173.19 1346.37,-180.19"/>
</a>
</g>
</g>
</g>
</svg>
