<?xml version="1.0" encoding="UTF-8" standalone="no"?>
<!DOCTYPE svg PUBLIC "-//W3C//DTD SVG 1.1//EN"
 "http://www.w3.org/Graphics/SVG/1.1/DTD/svg11.dtd">
<!-- Generated by graphviz version 13.1.2 (20250808.2320)
 -->
<!-- Title: editeurpanovisu.CoordonneesGeographiques.getLatitude Pages: 1 -->
<svg width="1953pt" height="796pt"
 viewBox="0.00 0.00 1953.00 796.00" xmlns="http://www.w3.org/2000/svg" xmlns:xlink="http://www.w3.org/1999/xlink">
<g id="graph0" class="graph" transform="scale(1 1) rotate(0) translate(4 792)">
<title>editeurpanovisu.CoordonneesGeographiques.getLatitude</title>
<!-- Node1 -->
<g id="Node000001" class="node">
<title>Node1</title>
<g id="a_Node000001"><a xlink:title=" ">
<polygon fill="#999999" stroke="#666666" points="1944.75,-513 1799.75,-513 1799.75,-481 1944.75,-481 1944.75,-513"/>
<text xml:space="preserve" text-anchor="start" x="1807.75" y="-499.5" font-family="Helvetica,sans-Serif" font-size="10.00">editeurpanovisu.Coordonnees</text>
<text xml:space="preserve" text-anchor="middle" x="1872.25" y="-487.5" font-family="Helvetica,sans-Serif" font-size="10.00">Geographiques.getLatitude</text>
</a>
</g>
</g>
<!-- Node2 -->
<g id="Node000002" class="node">
<title>Node2</title>
<g id="a_Node000002"><a xlink:href="classediteurpanovisu_1_1NavigateurOpenLayersSeul.html#afdeebd020b7ac317aa78395f5b0aa0e0" target="_top" xlink:title=" ">
<polygon fill="white" stroke="#666666" points="1753.25,-788 1607.5,-788 1607.5,-756 1753.25,-756 1753.25,-788"/>
<text xml:space="preserve" text-anchor="start" x="1615.5" y="-774.5" font-family="Helvetica,sans-Serif" font-size="10.00">editeurpanovisu.Navigateur</text>
<text xml:space="preserve" text-anchor="middle" x="1680.38" y="-762.5" font-family="Helvetica,sans-Serif" font-size="10.00">OpenLayersSeul.afficheRadar</text>
</a>
</g>
</g>
<!-- Node1&#45;&gt;Node2 -->
<g id="edge1_Node000001_Node000002" class="edge">
<title>Node1&#45;&gt;Node2</title>
<g id="a_edge1_Node000001_Node000002"><a xlink:title=" ">
<path fill="none" stroke="#63b8ff" d="M1867.15,-524.64C1858.05,-576.03 1831.4,-686.5 1763.75,-747 1760.07,-750.29 1755.98,-753.14 1751.63,-755.62"/>
<polygon fill="#63b8ff" stroke="#63b8ff" points="1870.56,-525.41 1868.76,-514.98 1863.66,-524.26 1870.56,-525.41"/>
</a>
</g>
</g>
<!-- Node3 -->
<g id="Node000003" class="node">
<title>Node3</title>
<g id="a_Node000003"><a xlink:href="classediteurpanovisu_1_1NavigateurCarteGluon.html#a4a6e606145fb4686d0bf387e0ac24c57" target="_top" xlink:title="Ajoute un marqueur à la carte avec CoordonneesGeographiques.">
<polygon fill="white" stroke="#666666" points="1748,-738 1612.75,-738 1612.75,-706 1748,-706 1748,-738"/>
<text xml:space="preserve" text-anchor="start" x="1620.75" y="-724.5" font-family="Helvetica,sans-Serif" font-size="10.00">editeurpanovisu.Navigateur</text>
<text xml:space="preserve" text-anchor="middle" x="1680.38" y="-712.5" font-family="Helvetica,sans-Serif" font-size="10.00">CarteGluon.ajouteMarqueur</text>
</a>
</g>
</g>
<!-- Node1&#45;&gt;Node3 -->
<g id="edge2_Node000001_Node000003" class="edge">
<title>Node1&#45;&gt;Node3</title>
<g id="a_edge2_Node000001_Node000003"><a xlink:title=" ">
<path fill="none" stroke="#63b8ff" d="M1863.88,-524.53C1850.91,-567.66 1819.93,-651 1763.75,-697 1759.12,-700.79 1753.93,-704 1748.47,-706.73"/>
<polygon fill="#63b8ff" stroke="#63b8ff" points="1867.23,-525.52 1866.64,-514.95 1860.51,-523.58 1867.23,-525.52"/>
</a>
</g>
</g>
<!-- Node4 -->
<g id="Node000004" class="node">
<title>Node4</title>
<g id="a_Node000004"><a xlink:href="classediteurpanovisu_1_1NavigateurOpenLayers.html#adf2d54b3b45e42b74e4a2c03c127f272" target="_top" xlink:title=" ">
<polygon fill="white" stroke="#666666" points="1749.5,-688 1611.25,-688 1611.25,-656 1749.5,-656 1749.5,-688"/>
<text xml:space="preserve" text-anchor="start" x="1619.25" y="-674.5" font-family="Helvetica,sans-Serif" font-size="10.00">editeurpanovisu.Navigateur</text>
<text xml:space="preserve" text-anchor="middle" x="1680.38" y="-662.5" font-family="Helvetica,sans-Serif" font-size="10.00">OpenLayers.ajouteMarqueur</text>
</a>
</g>
</g>
<!-- Node1&#45;&gt;Node4 -->
<g id="edge3_Node000001_Node000004" class="edge">
<title>Node1&#45;&gt;Node4</title>
<g id="a_edge3_Node000001_Node000004"><a xlink:title=" ">
<path fill="none" stroke="#63b8ff" d="M1859.22,-523.23C1842.5,-556.8 1809.1,-614.5 1763.75,-647 1759.13,-650.31 1754.07,-653.19 1748.8,-655.69"/>
<polygon fill="#63b8ff" stroke="#63b8ff" points="1862.19,-525.13 1863.4,-514.6 1855.89,-522.08 1862.19,-525.13"/>
</a>
</g>
</g>
<!-- Node6 -->
<g id="Node000006" class="node">
<title>Node6</title>
<g id="a_Node000006"><a xlink:href="classediteurpanovisu_1_1NavigateurOpenLayersSeul.html#a10789b7dbae42fdeb3fa2f5405e6f818" target="_top" xlink:title=" ">
<polygon fill="white" stroke="#666666" points="1759.25,-638 1601.5,-638 1601.5,-606 1759.25,-606 1759.25,-638"/>
<text xml:space="preserve" text-anchor="start" x="1609.5" y="-624.5" font-family="Helvetica,sans-Serif" font-size="10.00">editeurpanovisu.Navigateur</text>
<text xml:space="preserve" text-anchor="middle" x="1680.38" y="-612.5" font-family="Helvetica,sans-Serif" font-size="10.00">OpenLayersSeul.ajouteMarqueur</text>
</a>
</g>
</g>
<!-- Node1&#45;&gt;Node6 -->
<g id="edge5_Node000001_Node000006" class="edge">
<title>Node1&#45;&gt;Node6</title>
<g id="a_edge5_Node000001_Node000006"><a xlink:title=" ">
<path fill="none" stroke="#63b8ff" d="M1850.73,-521.67C1830.7,-544.27 1798.28,-577.14 1763.75,-597 1758.18,-600.2 1752.16,-603.04 1745.99,-605.53"/>
<polygon fill="#63b8ff" stroke="#63b8ff" points="1853.12,-524.25 1857.04,-514.41 1847.84,-519.66 1853.12,-524.25"/>
</a>
</g>
</g>
<!-- Node7 -->
<g id="Node000007" class="node">
<title>Node7</title>
<g id="a_Node000007"><a xlink:href="classediteurpanovisu_1_1NavigateurCarteGluon.html#add28d3b2d57dcf144e2e818c9eb5c97b" target="_top" xlink:title="Centre la carte sur des coordonnées géographiques avec zoom.">
<polygon fill="white" stroke="#666666" points="1752.5,-588 1608.25,-588 1608.25,-556 1752.5,-556 1752.5,-588"/>
<text xml:space="preserve" text-anchor="start" x="1616.25" y="-574.5" font-family="Helvetica,sans-Serif" font-size="10.00">editeurpanovisu.Navigateur</text>
<text xml:space="preserve" text-anchor="middle" x="1680.38" y="-562.5" font-family="Helvetica,sans-Serif" font-size="10.00">CarteGluon.allerCoordonnees</text>
</a>
</g>
</g>
<!-- Node1&#45;&gt;Node7 -->
<g id="edge6_Node000001_Node000007" class="edge">
<title>Node1&#45;&gt;Node7</title>
<g id="a_edge6_Node000001_Node000007"><a xlink:title=" ">
<path fill="none" stroke="#63b8ff" d="M1829.17,-518.25C1809.56,-527.71 1785.75,-538.59 1763.75,-547 1755.93,-549.99 1747.59,-552.86 1739.33,-555.54"/>
<polygon fill="#63b8ff" stroke="#63b8ff" points="1830.49,-521.5 1837.94,-513.97 1827.42,-515.21 1830.49,-521.5"/>
</a>
</g>
</g>
<!-- Node8 -->
<g id="Node000008" class="node">
<title>Node8</title>
<g id="a_Node000008"><a xlink:href="classediteurpanovisu_1_1NavigateurOpenLayers.html#ace45cc2beca666c0ea36f2242baec5c1" target="_top" xlink:title=" ">
<polygon fill="white" stroke="#666666" points="1754,-538 1606.75,-538 1606.75,-506 1754,-506 1754,-538"/>
<text xml:space="preserve" text-anchor="start" x="1614.75" y="-524.5" font-family="Helvetica,sans-Serif" font-size="10.00">editeurpanovisu.Navigateur</text>
<text xml:space="preserve" text-anchor="middle" x="1680.38" y="-512.5" font-family="Helvetica,sans-Serif" font-size="10.00">OpenLayers.allerCoordonnees</text>
</a>
</g>
</g>
<!-- Node1&#45;&gt;Node8 -->
<g id="edge7_Node000001_Node000008" class="edge">
<title>Node1&#45;&gt;Node8</title>
<g id="a_edge7_Node000001_Node000008"><a xlink:title=" ">
<path fill="none" stroke="#63b8ff" d="M1788.24,-507.93C1776.9,-509.42 1765.34,-510.94 1754.21,-512.41"/>
<polygon fill="#63b8ff" stroke="#63b8ff" points="1788.51,-511.42 1797.97,-506.65 1787.59,-504.48 1788.51,-511.42"/>
</a>
</g>
</g>
<!-- Node9 -->
<g id="Node000009" class="node">
<title>Node9</title>
<g id="a_Node000009"><a xlink:href="classediteurpanovisu_1_1NavigateurOpenLayersSeul.html#a85aa3ea7206b8d89e6b0b68f0a46fef2" target="_top" xlink:title=" ">
<polygon fill="white" stroke="#666666" points="1763.75,-488 1597,-488 1597,-456 1763.75,-456 1763.75,-488"/>
<text xml:space="preserve" text-anchor="start" x="1605" y="-474.5" font-family="Helvetica,sans-Serif" font-size="10.00">editeurpanovisu.Navigateur</text>
<text xml:space="preserve" text-anchor="middle" x="1680.38" y="-462.5" font-family="Helvetica,sans-Serif" font-size="10.00">OpenLayersSeul.allerCoordonnees</text>
</a>
</g>
</g>
<!-- Node1&#45;&gt;Node9 -->
<g id="edge9_Node000001_Node000009" class="edge">
<title>Node1&#45;&gt;Node9</title>
<g id="a_edge9_Node000001_Node000009"><a xlink:title=" ">
<path fill="none" stroke="#63b8ff" d="M1788.24,-486.07C1780.23,-485.02 1772.1,-483.95 1764.09,-482.89"/>
<polygon fill="#63b8ff" stroke="#63b8ff" points="1787.59,-489.52 1797.97,-487.35 1788.51,-482.58 1787.59,-489.52"/>
</a>
</g>
</g>
<!-- Node10 -->
<g id="Node000010" class="node">
<title>Node10</title>
<g id="a_Node000010"><a xlink:href="classediteurpanovisu_1_1EditeurPanovisu.html#a31698230ca6021fb284e21e7a35135d0" target="_top" xlink:title="Génère une description IA pour le panoramique courant.">
<polygon fill="white" stroke="#666666" points="1330.5,-476 1136.75,-476 1136.75,-444 1330.5,-444 1330.5,-476"/>
<text xml:space="preserve" text-anchor="start" x="1144.75" y="-462.5" font-family="Helvetica,sans-Serif" font-size="10.00">editeurpanovisu.EditeurPanovisu.generer</text>
<text xml:space="preserve" text-anchor="middle" x="1233.62" y="-450.5" font-family="Helvetica,sans-Serif" font-size="10.00">DescriptionIA</text>
</a>
</g>
</g>
<!-- Node1&#45;&gt;Node10 -->
<g id="edge10_Node000001_Node000010" class="edge">
<title>Node1&#45;&gt;Node10</title>
<g id="a_edge10_Node000001_Node000010"><a xlink:title=" ">
<path fill="none" stroke="#63b8ff" d="M1853.17,-471.56C1834.12,-447.16 1801.65,-411.9 1763.75,-397 1681.64,-364.71 1428.12,-415.52 1304.22,-443.52"/>
<polygon fill="#63b8ff" stroke="#63b8ff" points="1850.29,-473.56 1859.12,-479.42 1855.88,-469.33 1850.29,-473.56"/>
</a>
</g>
</g>
<!-- Node12 -->
<g id="Node000012" class="node">
<title>Node12</title>
<g id="a_Node000012"><a xlink:href="classediteurpanovisu_1_1EditeurPanovisu.html#a94e36b9e9d09ab1a4c852b8a8cefa927" target="_top" xlink:title=" ">
<polygon fill="white" stroke="#666666" points="647.25,-120 456.5,-120 456.5,-88 647.25,-88 647.25,-120"/>
<text xml:space="preserve" text-anchor="start" x="464.5" y="-106.5" font-family="Helvetica,sans-Serif" font-size="10.00">editeurpanovisu.EditeurPanovisu.genere</text>
<text xml:space="preserve" text-anchor="middle" x="551.88" y="-94.5" font-family="Helvetica,sans-Serif" font-size="10.00">Visite</text>
</a>
</g>
</g>
<!-- Node1&#45;&gt;Node12 -->
<g id="edge12_Node000001_Node000012" class="edge">
<title>Node1&#45;&gt;Node12</title>
<g id="a_edge12_Node000001_Node000012"><a xlink:title=" ">
<path fill="none" stroke="#63b8ff" d="M1863.85,-469.97C1833.68,-366.31 1709.74,0 1464.75,0 1464.75,0 1464.75,0 1004.38,0 850.34,0 674.11,-58.2 595.08,-87.52"/>
<polygon fill="#63b8ff" stroke="#63b8ff" points="1860.4,-470.63 1866.51,-479.29 1867.14,-468.71 1860.4,-470.63"/>
</a>
</g>
</g>
<!-- Node14 -->
<g id="Node000014" class="node">
<title>Node14</title>
<g id="a_Node000014"><a xlink:href="classediteurpanovisu_1_1NavigateurOpenLayers.html#a09c4569ec143e9d40b87f98f420472cf" target="_top" xlink:title=" ">
<polygon fill="white" stroke="#666666" points="1763.75,-438 1597,-438 1597,-406 1763.75,-406 1763.75,-438"/>
<text xml:space="preserve" text-anchor="start" x="1605" y="-424.5" font-family="Helvetica,sans-Serif" font-size="10.00">editeurpanovisu.Navigateur</text>
<text xml:space="preserve" text-anchor="middle" x="1680.38" y="-412.5" font-family="Helvetica,sans-Serif" font-size="10.00">OpenLayers.recupereCoordonnees</text>
</a>
</g>
</g>
<!-- Node1&#45;&gt;Node14 -->
<g id="edge15_Node000001_Node000014" class="edge">
<title>Node1&#45;&gt;Node14</title>
<g id="a_edge15_Node000001_Node000014"><a xlink:title=" ">
<path fill="none" stroke="#63b8ff" d="M1829.17,-475.75C1809.56,-466.29 1785.75,-455.41 1763.75,-447 1755.93,-444.01 1747.59,-441.14 1739.33,-438.46"/>
<polygon fill="#63b8ff" stroke="#63b8ff" points="1827.42,-478.79 1837.94,-480.03 1830.49,-472.5 1827.42,-478.79"/>
</a>
</g>
</g>
<!-- Node15 -->
<g id="Node000015" class="node">
<title>Node15</title>
<g id="a_Node000015"><a xlink:href="classediteurpanovisu_1_1EditeurPanovisu.html#aaee69ab54364f89b58458c744a4195c0" target="_top" xlink:title=" ">
<polygon fill="white" stroke="#666666" points="1557.62,-331 1369.88,-331 1369.88,-299 1557.62,-299 1557.62,-331"/>
<text xml:space="preserve" text-anchor="start" x="1377.88" y="-317.5" font-family="Helvetica,sans-Serif" font-size="10.00">editeurpanovisu.EditeurPanovisu.sauve</text>
<text xml:space="preserve" text-anchor="middle" x="1463.75" y="-305.5" font-family="Helvetica,sans-Serif" font-size="10.00">FichierProjet</text>
</a>
</g>
</g>
<!-- Node1&#45;&gt;Node15 -->
<g id="edge17_Node000001_Node000015" class="edge">
<title>Node1&#45;&gt;Node15</title>
<g id="a_edge17_Node000001_Node000015"><a xlink:title=" ">
<path fill="none" stroke="#63b8ff" d="M1857.77,-470.62C1840.45,-439.67 1807.37,-389.37 1763.75,-364 1729.53,-344.1 1632.21,-330.66 1557.8,-322.97"/>
<polygon fill="#63b8ff" stroke="#63b8ff" points="1854.66,-472.24 1862.5,-479.36 1860.81,-468.9 1854.66,-472.24"/>
</a>
</g>
</g>
<!-- Node25 -->
<g id="Node000025" class="node">
<title>Node25</title>
<g id="a_Node000025"><a xlink:href="classediteurpanovisu_1_1GestionnaireInterfaceController.html#ab66509c63a85a8285a081b24049e8774" target="_top" xlink:title=" ">
<polygon fill="white" stroke="#666666" points="1763.38,-312 1597.38,-312 1597.38,-280 1763.38,-280 1763.38,-312"/>
<text xml:space="preserve" text-anchor="start" x="1605.38" y="-298.5" font-family="Helvetica,sans-Serif" font-size="10.00">editeurpanovisu.Gestionnaire</text>
<text xml:space="preserve" text-anchor="middle" x="1680.38" y="-286.5" font-family="Helvetica,sans-Serif" font-size="10.00">InterfaceController.strGetTemplate</text>
</a>
</g>
</g>
<!-- Node1&#45;&gt;Node25 -->
<g id="edge40_Node000001_Node000025" class="edge">
<title>Node1&#45;&gt;Node25</title>
<g id="a_edge40_Node000001_Node000025"><a xlink:title=" ">
<path fill="none" stroke="#63b8ff" d="M1860.94,-470.02C1845.34,-432.63 1812.33,-365.24 1763.75,-326 1757,-320.55 1749.17,-316.04 1741.08,-312.32"/>
<polygon fill="#63b8ff" stroke="#63b8ff" points="1857.65,-471.24 1864.65,-479.2 1864.14,-468.61 1857.65,-471.24"/>
</a>
</g>
</g>
<!-- Node5 -->
<g id="Node000005" class="node">
<title>Node5</title>
<g id="a_Node000005"><a xlink:href="classediteurpanovisu_1_1NavigateurOpenLayers.html#af404b0c40f1be6ee0fa9f05525606813" target="_top" xlink:title=" ">
<polygon fill="white" stroke="#666666" points="1561,-538 1366.5,-538 1366.5,-506 1561,-506 1561,-538"/>
<text xml:space="preserve" text-anchor="start" x="1374.5" y="-524.5" font-family="Helvetica,sans-Serif" font-size="10.00">editeurpanovisu.Navigateur</text>
<text xml:space="preserve" text-anchor="middle" x="1463.75" y="-512.5" font-family="Helvetica,sans-Serif" font-size="10.00">OpenLayers.afficheNavigateurOpenLayer</text>
</a>
</g>
</g>
<!-- Node4&#45;&gt;Node5 -->
<g id="edge4_Node000004_Node000005" class="edge">
<title>Node4&#45;&gt;Node5</title>
<g id="a_edge4_Node000004_Node000005"><a xlink:title=" ">
<path fill="none" stroke="#63b8ff" d="M1604.25,-650.88C1601.77,-649.65 1599.34,-648.36 1597,-647 1546.18,-617.5 1499.39,-564.88 1477.61,-538.31"/>
<polygon fill="#63b8ff" stroke="#63b8ff" points="1602.8,-654.07 1613.35,-654.96 1605.66,-647.68 1602.8,-654.07"/>
</a>
</g>
</g>
<!-- Node8&#45;&gt;Node5 -->
<g id="edge8_Node000008_Node000005" class="edge">
<title>Node8&#45;&gt;Node5</title>
<g id="a_edge8_Node000008_Node000005"><a xlink:title=" ">
<path fill="none" stroke="#63b8ff" d="M1595.06,-522C1584.03,-522 1572.67,-522 1561.45,-522"/>
<polygon fill="#63b8ff" stroke="#63b8ff" points="1594.9,-525.5 1604.9,-522 1594.9,-518.5 1594.9,-525.5"/>
</a>
</g>
</g>
<!-- Node11 -->
<g id="Node000011" class="node">
<title>Node11</title>
<g id="a_Node000011"><a xlink:href="classediteurpanovisu_1_1EditeurPanovisu.html#a86c393eee88f54c694db994ddd85b90d" target="_top" xlink:title=" ">
<polygon fill="white" stroke="#666666" points="180.25,-372 0,-372 0,-340 180.25,-340 180.25,-372"/>
<text xml:space="preserve" text-anchor="start" x="8" y="-358.5" font-family="Helvetica,sans-Serif" font-size="10.00">editeurpanovisu.EditeurPanovisu.cree</text>
<text xml:space="preserve" text-anchor="middle" x="90.12" y="-346.5" font-family="Helvetica,sans-Serif" font-size="10.00">Environnement</text>
</a>
</g>
</g>
<!-- Node10&#45;&gt;Node11 -->
<g id="edge11_Node000010_Node000011" class="edge">
<title>Node10&#45;&gt;Node11</title>
<g id="a_edge11_Node000010_Node000011"><a xlink:title=" ">
<path fill="none" stroke="#63b8ff" d="M1125.05,-460C1033.26,-460 897.78,-460 779.62,-460 779.62,-460 779.62,-460 550.88,-460 394.16,-460 214.64,-401.8 134.13,-372.48"/>
<polygon fill="#63b8ff" stroke="#63b8ff" points="1124.79,-463.5 1134.79,-460 1124.79,-456.5 1124.79,-463.5"/>
</a>
</g>
</g>
<!-- Node13 -->
<g id="Node000013" class="node">
<title>Node13</title>
<g id="a_Node000013"><a xlink:href="classediteurpanovisu_1_1EditeurPanovisu.html#ac912b80c1f2ac97def60ff005c5c480b" target="_top" xlink:title=" ">
<polygon fill="white" stroke="#666666" points="420.5,-284 216.25,-284 216.25,-264 420.5,-264 420.5,-284"/>
<text xml:space="preserve" text-anchor="middle" x="318.38" y="-270.5" font-family="Helvetica,sans-Serif" font-size="10.00">editeurpanovisu.EditeurPanovisu.creeMenu</text>
</a>
</g>
</g>
<!-- Node12&#45;&gt;Node13 -->
<g id="edge13_Node000012_Node000013" class="edge">
<title>Node12&#45;&gt;Node13</title>
<g id="a_edge13_Node000012_Node000013"><a xlink:title=" ">
<path fill="none" stroke="#63b8ff" d="M500.92,-125.12C486.14,-132.21 470.24,-140.71 456.5,-150 403.58,-185.77 350.07,-240.86 328.87,-263.61"/>
<polygon fill="#63b8ff" stroke="#63b8ff" points="501.99,-128.48 509.57,-121.08 499.03,-122.14 501.99,-128.48"/>
</a>
</g>
</g>
<!-- Node13&#45;&gt;Node11 -->
<g id="edge14_Node000013_Node000011" class="edge">
<title>Node13&#45;&gt;Node11</title>
<g id="a_edge14_Node000013_Node000011"><a xlink:title=" ">
<path fill="none" stroke="#63b8ff" d="M277.93,-288.3C238.44,-302.61 177.73,-324.61 136.32,-339.62"/>
<polygon fill="#63b8ff" stroke="#63b8ff" points="279.09,-291.6 287.3,-284.9 276.7,-285.02 279.09,-291.6"/>
</a>
</g>
</g>
<!-- Node14&#45;&gt;Node5 -->
<g id="edge16_Node000014_Node000005" class="edge">
<title>Node14&#45;&gt;Node5</title>
<g id="a_edge16_Node000014_Node000005"><a xlink:title=" ">
<path fill="none" stroke="#63b8ff" d="M1608.73,-442.3C1604.73,-443.8 1600.79,-445.37 1597,-447 1557.95,-463.75 1515.71,-489.1 1489.74,-505.6"/>
<polygon fill="#63b8ff" stroke="#63b8ff" points="1609.75,-445.65 1618,-439 1607.4,-439.06 1609.75,-445.65"/>
</a>
</g>
</g>
<!-- Node16 -->
<g id="Node000016" class="node">
<title>Node16</title>
<g id="a_Node000016"><a xlink:href="classediteurpanovisu_1_1EditeurPanovisu.html#a9f3ea25b35d4884524508dab3dc4fd6a" target="_top" xlink:title=" ">
<polygon fill="white" stroke="#666666" points="1326.38,-249 1140.88,-249 1140.88,-217 1326.38,-217 1326.38,-249"/>
<text xml:space="preserve" text-anchor="start" x="1148.88" y="-235.5" font-family="Helvetica,sans-Serif" font-size="10.00">editeurpanovisu.EditeurPanovisu.projet</text>
<text xml:space="preserve" text-anchor="middle" x="1233.62" y="-223.5" font-family="Helvetica,sans-Serif" font-size="10.00">Sauve</text>
</a>
</g>
</g>
<!-- Node15&#45;&gt;Node16 -->
<g id="edge18_Node000015_Node000016" class="edge">
<title>Node15&#45;&gt;Node16</title>
<g id="a_edge18_Node000015_Node000016"><a xlink:title=" ">
<path fill="none" stroke="#63b8ff" d="M1406.27,-294.7C1367.5,-280.76 1316.7,-262.5 1280.44,-249.47"/>
<polygon fill="#63b8ff" stroke="#63b8ff" points="1404.84,-297.9 1415.44,-297.99 1407.21,-291.32 1404.84,-297.9"/>
</a>
</g>
</g>
<!-- Node20 -->
<g id="Node000020" class="node">
<title>Node20</title>
<g id="a_Node000020"><a xlink:href="classediteurpanovisu_1_1EditeurPanovisu.html#a7b2e25dc717eb52b62e23d54ec4c124a" target="_top" xlink:title=" ">
<polygon fill="white" stroke="#666666" points="644.62,-432 459.12,-432 459.12,-400 644.62,-400 644.62,-432"/>
<text xml:space="preserve" text-anchor="start" x="467.12" y="-418.5" font-family="Helvetica,sans-Serif" font-size="10.00">editeurpanovisu.EditeurPanovisu.projet</text>
<text xml:space="preserve" text-anchor="middle" x="551.88" y="-406.5" font-family="Helvetica,sans-Serif" font-size="10.00">SauveSous</text>
</a>
</g>
</g>
<!-- Node15&#45;&gt;Node20 -->
<g id="edge39_Node000015_Node000020" class="edge">
<title>Node15&#45;&gt;Node20</title>
<g id="a_edge39_Node000015_Node000020"><a xlink:title=" ">
<path fill="none" stroke="#63b8ff" d="M1394.91,-334.39C1322.69,-354.09 1204.69,-383.55 1100.75,-397 941.47,-417.62 754.12,-419.31 644.91,-418.07"/>
<polygon fill="#63b8ff" stroke="#63b8ff" points="1395.49,-337.86 1404.21,-331.84 1393.64,-331.11 1395.49,-337.86"/>
</a>
</g>
</g>
<!-- Node16&#45;&gt;Node12 -->
<g id="edge20_Node000016_Node000012" class="edge">
<title>Node16&#45;&gt;Node12</title>
<g id="a_edge20_Node000016_Node000012"><a xlink:title=" ">
<path fill="none" stroke="#63b8ff" d="M1205.31,-209.69C1179.92,-189.32 1140.18,-160.62 1100.75,-145 1005.75,-107.36 975.79,-115.95 874,-107 798.05,-100.32 711.61,-99.92 647.56,-101"/>
<polygon fill="#63b8ff" stroke="#63b8ff" points="1202.86,-212.21 1212.81,-215.82 1207.28,-206.78 1202.86,-212.21"/>
</a>
</g>
</g>
<!-- Node16&#45;&gt;Node13 -->
<g id="edge19_Node000016_Node000013" class="edge">
<title>Node16&#45;&gt;Node13</title>
<g id="a_edge19_Node000016_Node000013"><a xlink:title=" ">
<path fill="none" stroke="#63b8ff" d="M1129.1,-237.65C952.72,-245.57 596.07,-261.58 421,-269.44"/>
<polygon fill="#63b8ff" stroke="#63b8ff" points="1129.11,-241.15 1138.94,-237.21 1128.8,-234.16 1129.11,-241.15"/>
</a>
</g>
</g>
<!-- Node17 -->
<g id="Node000017" class="node">
<title>Node17</title>
<g id="a_Node000017"><a xlink:href="classediteurpanovisu_1_1EditeurPanovisu.html#ab4beb1597b660a4a253befc6e76f1c54" target="_top" xlink:title=" ">
<polygon fill="white" stroke="#666666" points="644.62,-312 459.12,-312 459.12,-280 644.62,-280 644.62,-312"/>
<text xml:space="preserve" text-anchor="start" x="467.12" y="-298.5" font-family="Helvetica,sans-Serif" font-size="10.00">editeurpanovisu.EditeurPanovisu.projet</text>
<text xml:space="preserve" text-anchor="middle" x="551.88" y="-286.5" font-family="Helvetica,sans-Serif" font-size="10.00">Charge</text>
</a>
</g>
</g>
<!-- Node16&#45;&gt;Node17 -->
<g id="edge21_Node000016_Node000017" class="edge">
<title>Node16&#45;&gt;Node17</title>
<g id="a_edge21_Node000016_Node000017"><a xlink:title=" ">
<path fill="none" stroke="#63b8ff" d="M1166.02,-252.29C1145.27,-257.59 1122.21,-262.76 1100.75,-266 941.8,-290.01 754.34,-295.4 645.03,-296.29"/>
<polygon fill="#63b8ff" stroke="#63b8ff" points="1166.7,-255.73 1175.49,-249.81 1164.93,-248.96 1166.7,-255.73"/>
</a>
</g>
</g>
<!-- Node18 -->
<g id="Node000018" class="node">
<title>Node18</title>
<g id="a_Node000018"><a xlink:href="classediteurpanovisu_1_1EditeurPanovisu.html#a6d19b4d885ee6fcec827b91956295732" target="_top" xlink:title=" ">
<polygon fill="white" stroke="#666666" points="1098.12,-388 912.62,-388 912.62,-356 1098.12,-356 1098.12,-388"/>
<text xml:space="preserve" text-anchor="start" x="920.62" y="-374.5" font-family="Helvetica,sans-Serif" font-size="10.00">editeurpanovisu.EditeurPanovisu.projet</text>
<text xml:space="preserve" text-anchor="middle" x="1005.38" y="-362.5" font-family="Helvetica,sans-Serif" font-size="10.00">ChargeNom</text>
</a>
</g>
</g>
<!-- Node16&#45;&gt;Node18 -->
<g id="edge23_Node000016_Node000018" class="edge">
<title>Node16&#45;&gt;Node18</title>
<g id="a_edge23_Node000016_Node000018"><a xlink:title=" ">
<path fill="none" stroke="#63b8ff" d="M1208.97,-257.42C1184.08,-281.89 1142.74,-319.1 1100.75,-342 1091.09,-347.27 1080.36,-351.78 1069.7,-355.58"/>
<polygon fill="#63b8ff" stroke="#63b8ff" points="1211.39,-259.96 1216,-250.42 1206.45,-255 1211.39,-259.96"/>
</a>
</g>
</g>
<!-- Node21 -->
<g id="Node000021" class="node">
<title>Node21</title>
<g id="a_Node000021"><a xlink:href="classediteurpanovisu_1_1EditeurPanovisu.html#a9b46b222714af12c06ec33d410400773" target="_top" xlink:title=" ">
<polygon fill="white" stroke="#666666" points="874,-224 683.25,-224 683.25,-192 874,-192 874,-224"/>
<text xml:space="preserve" text-anchor="start" x="691.25" y="-210.5" font-family="Helvetica,sans-Serif" font-size="10.00">editeurpanovisu.EditeurPanovisu.projets</text>
<text xml:space="preserve" text-anchor="middle" x="778.62" y="-198.5" font-family="Helvetica,sans-Serif" font-size="10.00">Fermer</text>
</a>
</g>
</g>
<!-- Node16&#45;&gt;Node21 -->
<g id="edge31_Node000016_Node000021" class="edge">
<title>Node16&#45;&gt;Node21</title>
<g id="a_edge31_Node000016_Node000021"><a xlink:title=" ">
<path fill="none" stroke="#63b8ff" d="M1129.3,-227.3C1052.66,-223.07 948.98,-217.35 874.44,-213.23"/>
<polygon fill="#63b8ff" stroke="#63b8ff" points="1128.72,-230.77 1138.9,-227.83 1129.1,-223.78 1128.72,-230.77"/>
</a>
</g>
</g>
<!-- Node22 -->
<g id="Node000022" class="node">
<title>Node22</title>
<g id="a_Node000022"><a xlink:href="classediteurpanovisu_1_1EditeurPanovisu.html#ac9d449399ccd38843fa12e716f0c9611" target="_top" xlink:title=" ">
<polygon fill="white" stroke="#666666" points="1100.75,-186 910,-186 910,-154 1100.75,-154 1100.75,-186"/>
<text xml:space="preserve" text-anchor="start" x="918" y="-172.5" font-family="Helvetica,sans-Serif" font-size="10.00">editeurpanovisu.EditeurPanovisu.projets</text>
<text xml:space="preserve" text-anchor="middle" x="1005.38" y="-160.5" font-family="Helvetica,sans-Serif" font-size="10.00">Nouveau</text>
</a>
</g>
</g>
<!-- Node16&#45;&gt;Node22 -->
<g id="edge33_Node000016_Node000022" class="edge">
<title>Node16&#45;&gt;Node22</title>
<g id="a_edge33_Node000016_Node000022"><a xlink:title=" ">
<path fill="none" stroke="#63b8ff" d="M1162.7,-213.53C1131.58,-204.86 1095.33,-194.77 1065.57,-186.48"/>
<polygon fill="#63b8ff" stroke="#63b8ff" points="1161.45,-216.81 1172.02,-216.12 1163.32,-210.07 1161.45,-216.81"/>
</a>
</g>
</g>
<!-- Node23 -->
<g id="Node000023" class="node">
<title>Node23</title>
<g id="a_Node000023"><a xlink:href="classediteurpanovisu_1_1EditeurPanovisu.html#a2b3125ffe2e6291efacf19df6cb30a8d" target="_top" xlink:title=" ">
<polygon fill="white" stroke="#666666" points="869.12,-136 688.12,-136 688.12,-116 869.12,-116 869.12,-136"/>
<text xml:space="preserve" text-anchor="middle" x="778.62" y="-122.5" font-family="Helvetica,sans-Serif" font-size="10.00">editeurpanovisu.EditeurPanovisu.start</text>
</a>
</g>
</g>
<!-- Node16&#45;&gt;Node23 -->
<g id="edge38_Node000016_Node000023" class="edge">
<title>Node16&#45;&gt;Node23</title>
<g id="a_edge38_Node000016_Node000023"><a xlink:title=" ">
<path fill="none" stroke="#63b8ff" d="M1221.89,-206.04C1203.9,-164.99 1163.33,-88.31 1100.75,-57 1024.93,-19.07 992.28,-36.57 910,-57 864.02,-68.42 816.41,-99.37 793.54,-115.66"/>
<polygon fill="#63b8ff" stroke="#63b8ff" points="1218.66,-207.36 1225.78,-215.21 1225.1,-204.63 1218.66,-207.36"/>
</a>
</g>
</g>
<!-- Node24 -->
<g id="Node000024" class="node">
<title>Node24</title>
<g id="a_Node000024"><a xlink:href="classediteurpanovisu_1_1EditeurPanovisu.html#aef8c9b28c3e88d6e27e3f62b9a901134" target="_top" xlink:title=" ">
<polygon fill="white" stroke="#666666" points="1099.25,-98 911.5,-98 911.5,-66 1099.25,-66 1099.25,-98"/>
<text xml:space="preserve" text-anchor="start" x="919.5" y="-84.5" font-family="Helvetica,sans-Serif" font-size="10.00">editeurpanovisu.EditeurPanovisu.sauve</text>
<text xml:space="preserve" text-anchor="middle" x="1005.38" y="-72.5" font-family="Helvetica,sans-Serif" font-size="10.00">Fichiers</text>
</a>
</g>
</g>
<!-- Node16&#45;&gt;Node24 -->
<g id="edge37_Node000016_Node000024" class="edge">
<title>Node16&#45;&gt;Node24</title>
<g id="a_edge37_Node000016_Node000024"><a xlink:title=" ">
<path fill="none" stroke="#63b8ff" d="M1211.83,-208.34C1187.69,-181.17 1145.44,-137.89 1100.75,-112 1091.53,-106.66 1081.24,-102.14 1070.93,-98.37"/>
<polygon fill="#63b8ff" stroke="#63b8ff" points="1209.09,-210.52 1218.3,-215.75 1214.36,-205.92 1209.09,-210.52"/>
</a>
</g>
</g>
<!-- Node17&#45;&gt;Node13 -->
<g id="edge22_Node000017_Node000013" class="edge">
<title>Node17&#45;&gt;Node13</title>
<g id="a_edge22_Node000017_Node000013"><a xlink:title=" ">
<path fill="none" stroke="#63b8ff" d="M447.51,-286.18C438.61,-285.33 429.62,-284.48 420.73,-283.63"/>
<polygon fill="#63b8ff" stroke="#63b8ff" points="446.92,-289.64 457.21,-287.1 447.58,-282.67 446.92,-289.64"/>
</a>
</g>
</g>
<!-- Node18&#45;&gt;Node13 -->
<g id="edge30_Node000018_Node000013" class="edge">
<title>Node18&#45;&gt;Node13</title>
<g id="a_edge30_Node000018_Node000013"><a xlink:title=" ">
<path fill="none" stroke="#63b8ff" d="M901.3,-371.11C838.2,-369.76 755.89,-366.53 683.25,-359 581.61,-348.47 555.55,-346.09 456.5,-321 417.1,-311.02 372.84,-294.93 345.53,-284.4"/>
<polygon fill="#63b8ff" stroke="#63b8ff" points="900.87,-374.61 910.94,-371.31 901.01,-367.61 900.87,-374.61"/>
</a>
</g>
</g>
<!-- Node19 -->
<g id="Node000019" class="node">
<title>Node19</title>
<g id="a_Node000019"><a xlink:href="classediteurpanovisu_1_1EditeurPanovisu.html#af0d1c32bb78acbff561c822a0d15f760" target="_top" xlink:title=" ">
<polygon fill="white" stroke="#666666" points="872.5,-350 684.75,-350 684.75,-318 872.5,-318 872.5,-350"/>
<text xml:space="preserve" text-anchor="start" x="692.75" y="-336.5" font-family="Helvetica,sans-Serif" font-size="10.00">editeurpanovisu.EditeurPanovisu.ajoute</text>
<text xml:space="preserve" text-anchor="middle" x="778.62" y="-324.5" font-family="Helvetica,sans-Serif" font-size="10.00">FichierHisto</text>
</a>
</g>
</g>
<!-- Node18&#45;&gt;Node19 -->
<g id="edge24_Node000018_Node000019" class="edge">
<title>Node18&#45;&gt;Node19</title>
<g id="a_edge24_Node000018_Node000019"><a xlink:title=" ">
<path fill="none" stroke="#63b8ff" d="M931.77,-353.37C912.92,-349.79 892.35,-346.21 872.6,-343.06"/>
<polygon fill="#63b8ff" stroke="#63b8ff" points="930.99,-356.78 941.47,-355.24 932.32,-349.91 930.99,-356.78"/>
</a>
</g>
</g>
<!-- Node19&#45;&gt;Node16 -->
<g id="edge27_Node000019_Node000016" class="edge">
<title>Node19&#45;&gt;Node16</title>
<g id="a_edge27_Node000019_Node000016"><a xlink:title=" ">
<path fill="none" stroke="#63b8ff" d="M884.14,-334.71C947.93,-332.59 1030.47,-325.24 1100.75,-304 1141.32,-291.74 1183.69,-266.31 1209.12,-249.45"/>
<polygon fill="#63b8ff" stroke="#63b8ff" points="884.26,-331.21 874.37,-335 884.47,-338.2 884.26,-331.21"/>
</a>
</g>
</g>
<!-- Node19&#45;&gt;Node17 -->
<g id="edge25_Node000019_Node000017" class="edge">
<title>Node19&#45;&gt;Node17</title>
<g id="a_edge25_Node000019_Node000017"><a xlink:title=" ">
<path fill="none" stroke="#63b8ff" d="M673.21,-316.35C663.74,-314.75 654.21,-313.13 644.86,-311.55"/>
<polygon fill="#63b8ff" stroke="#63b8ff" points="672.33,-319.75 682.77,-317.96 673.49,-312.84 672.33,-319.75"/>
</a>
</g>
</g>
<!-- Node19&#45;&gt;Node18 -->
<g id="edge26_Node000019_Node000018" class="edge">
<title>Node19&#45;&gt;Node18</title>
<g id="a_edge26_Node000019_Node000018"><a xlink:title=" ">
<path fill="none" stroke="#63b8ff" d="M852.11,-352.61C871.29,-356.25 892.25,-359.89 912.31,-363.09"/>
<polygon fill="#63b8ff" stroke="#63b8ff" points="853.01,-349.22 842.53,-350.76 851.69,-356.1 853.01,-349.22"/>
</a>
</g>
</g>
<!-- Node19&#45;&gt;Node20 -->
<g id="edge28_Node000019_Node000020" class="edge">
<title>Node19&#45;&gt;Node20</title>
<g id="a_edge28_Node000019_Node000020"><a xlink:title=" ">
<path fill="none" stroke="#63b8ff" d="M721.98,-354.3C683.78,-368.24 633.73,-386.5 598.01,-399.53"/>
<polygon fill="#63b8ff" stroke="#63b8ff" points="722.8,-357.73 730.99,-351.01 720.4,-351.15 722.8,-357.73"/>
</a>
</g>
</g>
<!-- Node20&#45;&gt;Node13 -->
<g id="edge29_Node000020_Node000013" class="edge">
<title>Node20&#45;&gt;Node13</title>
<g id="a_edge29_Node000020_Node000013"><a xlink:title=" ">
<path fill="none" stroke="#63b8ff" d="M477.09,-395.57C469.98,-392.7 463,-389.52 456.5,-386 402.98,-357.02 350.22,-305.87 329.06,-284.18"/>
<polygon fill="#63b8ff" stroke="#63b8ff" points="475.57,-398.73 486.16,-398.99 478.04,-392.18 475.57,-398.73"/>
</a>
</g>
</g>
<!-- Node21&#45;&gt;Node13 -->
<g id="edge32_Node000021_Node000013" class="edge">
<title>Node21&#45;&gt;Node13</title>
<g id="a_edge32_Node000021_Node000013"><a xlink:title=" ">
<path fill="none" stroke="#63b8ff" d="M671.81,-213.52C608.92,-217.88 527.76,-225.4 456.5,-238 420.63,-244.34 380.4,-255.38 352.85,-263.57"/>
<polygon fill="#63b8ff" stroke="#63b8ff" points="671.69,-217.03 681.43,-212.87 671.21,-210.05 671.69,-217.03"/>
</a>
</g>
</g>
<!-- Node22&#45;&gt;Node13 -->
<g id="edge34_Node000022_Node000013" class="edge">
<title>Node22&#45;&gt;Node13</title>
<g id="a_edge34_Node000022_Node000013"><a xlink:title=" ">
<path fill="none" stroke="#63b8ff" d="M898.51,-165.47C786.53,-163.53 605.75,-168.6 456.5,-211 411.64,-223.74 362.87,-249.22 337.31,-263.57"/>
<polygon fill="#63b8ff" stroke="#63b8ff" points="898.22,-168.96 908.29,-165.66 898.36,-161.97 898.22,-168.96"/>
</a>
</g>
</g>
<!-- Node22&#45;&gt;Node23 -->
<g id="edge35_Node000022_Node000023" class="edge">
<title>Node22&#45;&gt;Node23</title>
<g id="a_edge35_Node000022_Node000023"><a xlink:title=" ">
<path fill="none" stroke="#63b8ff" d="M909.31,-151.39C883.31,-146.3 856.03,-140.96 833.24,-136.5"/>
<polygon fill="#63b8ff" stroke="#63b8ff" points="908.4,-154.78 918.88,-153.26 909.74,-147.91 908.4,-154.78"/>
</a>
</g>
</g>
<!-- Node23&#45;&gt;Node12 -->
<g id="edge36_Node000023_Node000012" class="edge">
<title>Node23&#45;&gt;Node12</title>
<g id="a_edge36_Node000023_Node000012"><a xlink:title=" ">
<path fill="none" stroke="#63b8ff" d="M676.6,-116.11C666.98,-115.17 657.24,-114.22 647.68,-113.28"/>
<polygon fill="#63b8ff" stroke="#63b8ff" points="676.03,-119.57 686.32,-117.06 676.71,-112.61 676.03,-119.57"/>
</a>
</g>
</g>
<!-- Node25&#45;&gt;Node15 -->
<g id="edge41_Node000025_Node000015" class="edge">
<title>Node25&#45;&gt;Node15</title>
<g id="a_edge41_Node000025_Node000015"><a xlink:title=" ">
<path fill="none" stroke="#63b8ff" d="M1585.83,-304.28C1576.6,-305.1 1567.22,-305.93 1557.99,-306.75"/>
<polygon fill="#63b8ff" stroke="#63b8ff" points="1585.85,-307.79 1595.5,-303.43 1585.23,-300.82 1585.85,-307.79"/>
</a>
</g>
</g>
</g>
</svg>
