<?xml version="1.0" encoding="UTF-8" standalone="no"?>
<!DOCTYPE svg PUBLIC "-//W3C//DTD SVG 1.1//EN"
 "http://www.w3.org/Graphics/SVG/1.1/DTD/svg11.dtd">
<!-- Generated by graphviz version 13.1.2 (20250808.2320)
 -->
<!-- Title: editeurpanovisu.OllamaService.geocodeReverse Pages: 1 -->
<svg width="638pt" height="290pt"
 viewBox="0.00 0.00 638.00 290.00" xmlns="http://www.w3.org/2000/svg" xmlns:xlink="http://www.w3.org/1999/xlink">
<g id="graph0" class="graph" transform="scale(1 1) rotate(0) translate(4 286)">
<title>editeurpanovisu.OllamaService.geocodeReverse</title>
<!-- Node1 -->
<g id="Node000001" class="node">
<title>Node1</title>
<g id="a_Node000001"><a xlink:title="Géocodage inverse : convertit des coordonnées GPS en adresse/lieu réel Utilise l&#39;API LocationIQ (5000...">
<polygon fill="#999999" stroke="#666666" points="190.75,-157 0,-157 0,-125 190.75,-125 190.75,-157"/>
<text xml:space="preserve" text-anchor="start" x="8" y="-143.5" font-family="Helvetica,sans-Serif" font-size="10.00">editeurpanovisu.OllamaService.geocode</text>
<text xml:space="preserve" text-anchor="middle" x="95.38" y="-131.5" font-family="Helvetica,sans-Serif" font-size="10.00">Reverse</text>
</a>
</g>
</g>
<!-- Node2 -->
<g id="Node000002" class="node">
<title>Node2</title>
<g id="a_Node000002"><a xlink:href="classediteurpanovisu_1_1OllamaService.html#a57941e092d111027f496e6e9c39bfd9b" target="_top" xlink:title="Parse la réponse JSON de LocationIQ et construit une description structurée pour que l&#39;IA comprenne p...">
<polygon fill="white" stroke="#666666" points="407.75,-157 226.75,-157 226.75,-125 407.75,-125 407.75,-157"/>
<text xml:space="preserve" text-anchor="start" x="234.75" y="-143.5" font-family="Helvetica,sans-Serif" font-size="10.00">editeurpanovisu.OllamaService.parser</text>
<text xml:space="preserve" text-anchor="middle" x="317.25" y="-131.5" font-family="Helvetica,sans-Serif" font-size="10.00">LocationIQ</text>
</a>
</g>
</g>
<!-- Node1&#45;&gt;Node2 -->
<g id="edge1_Node000001_Node000002" class="edge">
<title>Node1&#45;&gt;Node2</title>
<g id="a_edge1_Node000001_Node000002"><a xlink:title=" ">
<path fill="none" stroke="#63b8ff" d="M191.22,-141C199.2,-141 207.28,-141 215.31,-141"/>
<polygon fill="#63b8ff" stroke="#63b8ff" points="215.07,-144.5 225.07,-141 215.07,-137.5 215.07,-144.5"/>
</a>
</g>
</g>
<!-- Node3 -->
<g id="Node000003" class="node">
<title>Node3</title>
<g id="a_Node000003"><a xlink:href="classediteurpanovisu_1_1OllamaService.html#a9d1bfef6a21fd06e94ebc7fe05ef063a" target="_top" xlink:title="Extrait un champ d&#39;un JSON simple (sans bibliothèque)">
<polygon fill="white" stroke="#666666" points="630,-282 443.75,-282 443.75,-250 630,-250 630,-282"/>
<text xml:space="preserve" text-anchor="start" x="451.75" y="-268.5" font-family="Helvetica,sans-Serif" font-size="10.00">editeurpanovisu.OllamaService.extraire</text>
<text xml:space="preserve" text-anchor="middle" x="536.88" y="-256.5" font-family="Helvetica,sans-Serif" font-size="10.00">Champ</text>
</a>
</g>
</g>
<!-- Node2&#45;&gt;Node3 -->
<g id="edge2_Node000002_Node000003" class="edge">
<title>Node2&#45;&gt;Node3</title>
<g id="a_edge2_Node000002_Node000003"><a xlink:title=" ">
<path fill="none" stroke="#63b8ff" d="M334.16,-157.33C356.61,-179.44 399.76,-218.72 443.75,-241 446.83,-242.56 450.02,-244.03 453.28,-245.42"/>
<polygon fill="#63b8ff" stroke="#63b8ff" points="451.88,-248.63 462.47,-249.02 454.43,-242.11 451.88,-248.63"/>
</a>
</g>
</g>
<!-- Node4 -->
<g id="Node000004" class="node">
<title>Node4</title>
<g id="a_Node000004"><a xlink:href="classediteurpanovisu_1_1OllamaService.html#aae59c2bcef5290e5fd738b6a32df0deb" target="_top" xlink:title="Traduit les types de loisirs OpenStreetMap en français explicite.">
<polygon fill="white" stroke="#666666" points="622.12,-232 451.62,-232 451.62,-200 622.12,-200 622.12,-232"/>
<text xml:space="preserve" text-anchor="start" x="459.62" y="-218.5" font-family="Helvetica,sans-Serif" font-size="10.00">editeurpanovisu.OllamaService.trad</text>
<text xml:space="preserve" text-anchor="middle" x="536.88" y="-206.5" font-family="Helvetica,sans-Serif" font-size="10.00">TypeEau</text>
</a>
</g>
</g>
<!-- Node2&#45;&gt;Node4 -->
<g id="edge3_Node000002_Node000004" class="edge">
<title>Node2&#45;&gt;Node4</title>
<g id="a_edge3_Node000002_Node000004"><a xlink:title=" ">
<path fill="none" stroke="#63b8ff" d="M356.28,-157.47C380.95,-167.82 413.94,-181.05 443.75,-191 449.35,-192.87 455.18,-194.7 461.06,-196.47"/>
<polygon fill="#63b8ff" stroke="#63b8ff" points="459.63,-199.7 470.21,-199.16 461.6,-192.98 459.63,-199.7"/>
</a>
</g>
</g>
<!-- Node5 -->
<g id="Node000005" class="node">
<title>Node5</title>
<g id="a_Node000005"><a xlink:href="classediteurpanovisu_1_1OllamaService.html#a3d34a2f19068dcc51d9feac8b9254d27" target="_top" xlink:title="Traduit les types historiques OpenStreetMap en français explicite.">
<polygon fill="white" stroke="#666666" points="622.12,-182 451.62,-182 451.62,-150 622.12,-150 622.12,-182"/>
<text xml:space="preserve" text-anchor="start" x="459.62" y="-168.5" font-family="Helvetica,sans-Serif" font-size="10.00">editeurpanovisu.OllamaService.trad</text>
<text xml:space="preserve" text-anchor="middle" x="536.88" y="-156.5" font-family="Helvetica,sans-Serif" font-size="10.00">TypeHistorique</text>
</a>
</g>
</g>
<!-- Node2&#45;&gt;Node5 -->
<g id="edge4_Node000002_Node000005" class="edge">
<title>Node2&#45;&gt;Node5</title>
<g id="a_edge4_Node000002_Node000005"><a xlink:title=" ">
<path fill="none" stroke="#63b8ff" d="M408.02,-151.31C418.51,-152.52 429.25,-153.75 439.82,-154.97"/>
<polygon fill="#63b8ff" stroke="#63b8ff" points="439.37,-158.44 449.7,-156.1 440.17,-151.48 439.37,-158.44"/>
</a>
</g>
</g>
<!-- Node6 -->
<g id="Node000006" class="node">
<title>Node6</title>
<g id="a_Node000006"><a xlink:href="classediteurpanovisu_1_1OllamaService.html#a19776a7be81e39cdd5656dc7136e9831" target="_top" xlink:title="Traduit les types de loisirs OpenStreetMap en français explicite.">
<polygon fill="white" stroke="#666666" points="622.12,-132 451.62,-132 451.62,-100 622.12,-100 622.12,-132"/>
<text xml:space="preserve" text-anchor="start" x="459.62" y="-118.5" font-family="Helvetica,sans-Serif" font-size="10.00">editeurpanovisu.OllamaService.trad</text>
<text xml:space="preserve" text-anchor="middle" x="536.88" y="-106.5" font-family="Helvetica,sans-Serif" font-size="10.00">TypeLoisir</text>
</a>
</g>
</g>
<!-- Node2&#45;&gt;Node6 -->
<g id="edge5_Node000002_Node000006" class="edge">
<title>Node2&#45;&gt;Node6</title>
<g id="a_edge5_Node000002_Node000006"><a xlink:title=" ">
<path fill="none" stroke="#63b8ff" d="M408.02,-130.69C418.51,-129.48 429.25,-128.25 439.82,-127.03"/>
<polygon fill="#63b8ff" stroke="#63b8ff" points="440.17,-130.52 449.7,-125.9 439.37,-123.56 440.17,-130.52"/>
</a>
</g>
</g>
<!-- Node7 -->
<g id="Node000007" class="node">
<title>Node7</title>
<g id="a_Node000007"><a xlink:href="classediteurpanovisu_1_1OllamaService.html#ab0951b52de12ed6761a3e5bb505a2721" target="_top" xlink:title="Traduit les types naturels OpenStreetMap en français explicite.">
<polygon fill="white" stroke="#666666" points="622.12,-82 451.62,-82 451.62,-50 622.12,-50 622.12,-82"/>
<text xml:space="preserve" text-anchor="start" x="459.62" y="-68.5" font-family="Helvetica,sans-Serif" font-size="10.00">editeurpanovisu.OllamaService.trad</text>
<text xml:space="preserve" text-anchor="middle" x="536.88" y="-56.5" font-family="Helvetica,sans-Serif" font-size="10.00">TypeNaturel</text>
</a>
</g>
</g>
<!-- Node2&#45;&gt;Node7 -->
<g id="edge6_Node000002_Node000007" class="edge">
<title>Node2&#45;&gt;Node7</title>
<g id="a_edge6_Node000002_Node000007"><a xlink:title=" ">
<path fill="none" stroke="#63b8ff" d="M356.28,-124.53C380.95,-114.18 413.94,-100.95 443.75,-91 449.35,-89.13 455.18,-87.3 461.06,-85.53"/>
<polygon fill="#63b8ff" stroke="#63b8ff" points="461.6,-89.02 470.21,-82.84 459.63,-82.3 461.6,-89.02"/>
</a>
</g>
</g>
<!-- Node8 -->
<g id="Node000008" class="node">
<title>Node8</title>
<g id="a_Node000008"><a xlink:href="classediteurpanovisu_1_1OllamaService.html#ad4f002f4d6ccc1eaac2280eec8f3b250" target="_top" xlink:title="Traduit les types de tourisme OpenStreetMap en français explicite.">
<polygon fill="white" stroke="#666666" points="622.12,-32 451.62,-32 451.62,0 622.12,0 622.12,-32"/>
<text xml:space="preserve" text-anchor="start" x="459.62" y="-18.5" font-family="Helvetica,sans-Serif" font-size="10.00">editeurpanovisu.OllamaService.trad</text>
<text xml:space="preserve" text-anchor="middle" x="536.88" y="-6.5" font-family="Helvetica,sans-Serif" font-size="10.00">TypeTourisme</text>
</a>
</g>
</g>
<!-- Node2&#45;&gt;Node8 -->
<g id="edge7_Node000002_Node000008" class="edge">
<title>Node2&#45;&gt;Node8</title>
<g id="a_edge7_Node000002_Node000008"><a xlink:title=" ">
<path fill="none" stroke="#63b8ff" d="M334.16,-124.67C356.61,-102.56 399.76,-63.28 443.75,-41 446.83,-39.44 450.02,-37.97 453.28,-36.58"/>
<polygon fill="#63b8ff" stroke="#63b8ff" points="454.43,-39.89 462.47,-32.98 451.88,-33.37 454.43,-39.89"/>
</a>
</g>
</g>
</g>
</svg>
