<?xml version="1.0" encoding="UTF-8" standalone="no"?>
<!DOCTYPE svg PUBLIC "-//W3C//DTD SVG 1.1//EN"
 "http://www.w3.org/Graphics/SVG/1.1/DTD/svg11.dtd">
<!-- Generated by graphviz version 13.1.2 (20250808.2320)
 -->
<!-- Title: editeurpanovisu.GestionnaireInterfaceController.getTitreOpacite Pages: 1 -->
<!--zoomable 469 -->

<svg id="main" version="1.1" xmlns="http://www.w3.org/2000/svg" xmlns:xlink="http://www.w3.org/1999/xlink" xml:space="preserve" onload="init(evt)">

<style type="text/css"><![CDATA[
.node, .edge {opacity: 0.7;}
.node.selected, .edge.selected {opacity: 1;}
.edge:hover path { stroke: red; }
.edge:hover polygon { stroke: red; fill: red; }
]]></style>

<defs>
  <circle id="rim" cx="0" cy="0" r="7"/>
  <circle id="rim2" cx="0" cy="0" r="3.5"/>
  <g id="zoomPlus">
    <use xlink:href="#rim" fill="#404040"><set attributeName="fill" to="#808080" begin="zoomplus.mouseover" end="zoomplus.mouseout"/></use>
    <path d="M-4,0h8M0,-4v8" fill="none" stroke="white" stroke-width="1.5" pointer-events="none"/>
  </g>
  <g id="zoomMin">
    <use xlink:href="#rim" fill="#404040"><set attributeName="fill" to="#808080" begin="zoomminus.mouseover" end="zoomminus.mouseout"/></use>
    <path d="M-4,0h8" fill="none" stroke="white" stroke-width="1.5" pointer-events="none"/>
  </g>
  <g id="arrowUp" transform="translate(30 24)">
    <use xlink:href="#rim"/>
    <path pointer-events="none" fill="none" stroke="white" stroke-width="1.5" d="M0,-3.0v7 M-2.5,-0.5L0,-3.0L2.5,-0.5"/>
  </g>
  <g id="arrowRight" transform="rotate(90) translate(36 -43)">
    <use xlink:href="#rim"/>
    <path pointer-events="none" fill="none" stroke="white" stroke-width="1.5" d="M0,-3.0v7 M-2.5,-0.5L0,-3.0L2.5,-0.5"/>
  </g>
  <g id="arrowDown" transform="rotate(180) translate(-30 -48)">
    <use xlink:href="#rim"/>
    <path pointer-events="none" fill="none" stroke="white" stroke-width="1.5" d="M0,-3.0v7 M-2.5,-0.5L0,-3.0L2.5,-0.5"/>
  </g>
  <g id="arrowLeft" transform="rotate(270) translate(-36 17)">
    <use xlink:href="#rim"/>
    <path pointer-events="none" fill="none" stroke="white" stroke-width="1.5" d="M0,-3.0v7 M-2.5,-0.5L0,-3.0L2.5,-0.5"/>
  </g>
  <g id="resetDef">
    <use xlink:href="#rim2" fill="#404040"><set attributeName="fill" to="#808080" begin="reset.mouseover" end="reset.mouseout"/></use>
  </g>
</defs>
<script type="application/ecmascript">
var viewWidth = 2392;
var viewHeight = 469;
var sectionId = 'dynsection-218';
</script>
<script type="application/ecmascript" xlink:href="svg.min.js"/>
<svg id="graph" class="graph">
<g id="viewport">
<title>editeurpanovisu.GestionnaireInterfaceController.getTitreOpacite</title>
<!-- Node1 -->
<g id="Node000001" class="node">
<title>Node1</title>
<g id="a_Node000001"><a xlink:title=" ">
<polygon fill="#999999" stroke="#666666" points="2384,-99.47 2218,-99.47 2218,-67.47 2384,-67.47 2384,-99.47"/>
<text xml:space="preserve" text-anchor="start" x="2226" y="-85.97" font-family="Helvetica,sans-Serif" font-size="10.00">editeurpanovisu.Gestionnaire</text>
<text xml:space="preserve" text-anchor="middle" x="2301" y="-73.97" font-family="Helvetica,sans-Serif" font-size="10.00">InterfaceController.getTitreOpacite</text>
</a>
</g>
</g>
<!-- Node2 -->
<g id="Node000002" class="node">
<title>Node2</title>
<g id="a_Node000002"><a xlink:href="classediteurpanovisu_1_1GestionnaireInterfaceController.html#a55c8afda208674955a13d48d02be41b8" target="_top" xlink:title=" ">
<polygon fill="white" stroke="#666666" points="2182,-301.47 2014.5,-301.47 2014.5,-269.47 2182,-269.47 2182,-301.47"/>
<text xml:space="preserve" text-anchor="start" x="2022.5" y="-287.97" font-family="Helvetica,sans-Serif" font-size="10.00">editeurpanovisu.Gestionnaire</text>
<text xml:space="preserve" text-anchor="middle" x="2098.25" y="-275.97" font-family="Helvetica,sans-Serif" font-size="10.00">InterfaceController.afficheTemplate</text>
</a>
</g>
</g>
<!-- Node1&#45;&gt;Node2 -->
<g id="edge1_Node000001_Node000002" class="edge">
<title>Node1&#45;&gt;Node2</title>
<g id="a_edge1_Node000001_Node000002"><a xlink:title=" ">
<path fill="none" stroke="#63b8ff" d="M2277.87,-108.19C2254.55,-133.97 2216.48,-175.33 2182,-209.47 2160.52,-230.75 2134.71,-254.12 2117.7,-269.25"/>
<polygon fill="#63b8ff" stroke="#63b8ff" points="2280.36,-110.65 2284.46,-100.88 2275.17,-105.96 2280.36,-110.65"/>
</a>
</g>
</g>
<!-- Node10 -->
<g id="Node000010" class="node">
<title>Node10</title>
<g id="a_Node000010"><a xlink:href="classediteurpanovisu_1_1EditeurPanovisu.html#a94e36b9e9d09ab1a4c852b8a8cefa927" target="_top" xlink:title=" ">
<polygon fill="white" stroke="#666666" points="647.25,-194.47 456.5,-194.47 456.5,-162.47 647.25,-162.47 647.25,-194.47"/>
<text xml:space="preserve" text-anchor="start" x="464.5" y="-180.97" font-family="Helvetica,sans-Serif" font-size="10.00">editeurpanovisu.EditeurPanovisu.genere</text>
<text xml:space="preserve" text-anchor="middle" x="551.88" y="-168.97" font-family="Helvetica,sans-Serif" font-size="10.00">Visite</text>
</a>
</g>
</g>
<!-- Node1&#45;&gt;Node10 -->
<g id="edge30_Node000001_Node000010" class="edge">
<title>Node1&#45;&gt;Node10</title>
<g id="a_edge30_Node000001_Node000010"><a xlink:title=" ">
<path fill="none" stroke="#63b8ff" d="M2206.17,-83.47C2123.47,-83.47 1999.73,-83.47 1892,-83.47 1892,-83.47 1892,-83.47 1228.5,-83.47 984.5,-83.47 923.51,-104.96 683.25,-147.47 661.03,-151.41 636.93,-156.81 615.56,-162"/>
<polygon fill="#63b8ff" stroke="#63b8ff" points="2206.04,-86.97 2216.04,-83.47 2206.04,-79.97 2206.04,-86.97"/>
</a>
</g>
</g>
<!-- Node16 -->
<g id="Node000016" class="node">
<title>Node16</title>
<g id="a_Node000016"><a xlink:href="classediteurpanovisu_1_1GestionnaireInterfaceController.html#a8c634f775c31c1a4db22d5ef0659f7e4" target="_top" xlink:title=" ">
<polygon fill="white" stroke="#666666" points="2171.88,-55.47 2024.62,-55.47 2024.62,-23.47 2171.88,-23.47 2171.88,-55.47"/>
<text xml:space="preserve" text-anchor="start" x="2032.62" y="-41.97" font-family="Helvetica,sans-Serif" font-size="10.00">editeurpanovisu.Gestionnaire</text>
<text xml:space="preserve" text-anchor="middle" x="2098.25" y="-29.97" font-family="Helvetica,sans-Serif" font-size="10.00">InterfaceController.afficheTitre</text>
</a>
</g>
</g>
<!-- Node1&#45;&gt;Node16 -->
<g id="edge27_Node000001_Node000016" class="edge">
<title>Node1&#45;&gt;Node16</title>
<g id="a_edge27_Node000001_Node000016"><a xlink:title=" ">
<path fill="none" stroke="#63b8ff" d="M2213.92,-64.61C2200.02,-61.56 2185.75,-58.43 2172.2,-55.46"/>
<polygon fill="#63b8ff" stroke="#63b8ff" points="2212.97,-67.98 2223.48,-66.7 2214.47,-61.14 2212.97,-67.98"/>
</a>
</g>
</g>
<!-- Node17 -->
<g id="Node000017" class="node">
<title>Node17</title>
<g id="a_Node000017"><a xlink:href="classediteurpanovisu_1_1GestionnaireInterfaceController.html#ac7fa988dc99d8684686127a2269cd66e" target="_top" xlink:title=" ">
<polygon fill="white" stroke="#666666" points="1969.12,-33.47 1812.88,-33.47 1812.88,-1.47 1969.12,-1.47 1969.12,-33.47"/>
<text xml:space="preserve" text-anchor="start" x="1820.88" y="-19.97" font-family="Helvetica,sans-Serif" font-size="10.00">editeurpanovisu.Gestionnaire</text>
<text xml:space="preserve" text-anchor="middle" x="1891" y="-7.97" font-family="Helvetica,sans-Serif" font-size="10.00">InterfaceController.creeInterface</text>
</a>
</g>
</g>
<!-- Node1&#45;&gt;Node17 -->
<g id="edge29_Node000001_Node000017" class="edge">
<title>Node1&#45;&gt;Node17</title>
<g id="a_edge29_Node000001_Node000017"><a xlink:title=" ">
<path fill="none" stroke="#63b8ff" d="M2270.71,-60.37C2247.97,-43.98 2214.87,-23.38 2182,-14.47 2111.9,4.52 2028.72,1.15 1969.46,-5.4"/>
<polygon fill="#63b8ff" stroke="#63b8ff" points="2268.45,-63.05 2278.57,-66.19 2272.62,-57.43 2268.45,-63.05"/>
</a>
</g>
</g>
<!-- Node18 -->
<g id="Node000018" class="node">
<title>Node18</title>
<g id="a_Node000018"><a xlink:href="classediteurpanovisu_1_1GestionnaireInterfaceController.html#ab66509c63a85a8285a081b24049e8774" target="_top" xlink:title=" ">
<polygon fill="white" stroke="#666666" points="2181.25,-200.47 2015.25,-200.47 2015.25,-168.47 2181.25,-168.47 2181.25,-200.47"/>
<text xml:space="preserve" text-anchor="start" x="2023.25" y="-186.97" font-family="Helvetica,sans-Serif" font-size="10.00">editeurpanovisu.Gestionnaire</text>
<text xml:space="preserve" text-anchor="middle" x="2098.25" y="-174.97" font-family="Helvetica,sans-Serif" font-size="10.00">InterfaceController.strGetTemplate</text>
</a>
</g>
</g>
<!-- Node1&#45;&gt;Node18 -->
<g id="edge31_Node000001_Node000018" class="edge">
<title>Node1&#45;&gt;Node18</title>
<g id="a_edge31_Node000001_Node000018"><a xlink:title=" ">
<path fill="none" stroke="#63b8ff" d="M2257.19,-105.01C2219.71,-123.87 2166.05,-150.86 2131.94,-168.03"/>
<polygon fill="#63b8ff" stroke="#63b8ff" points="2258.59,-108.23 2265.95,-100.61 2255.44,-101.97 2258.59,-108.23"/>
</a>
</g>
</g>
<!-- Node3 -->
<g id="Node000003" class="node">
<title>Node3</title>
<g id="a_Node000003"><a xlink:href="classediteurpanovisu_1_1EditeurPanovisu.html#a87b29dc258cfc67370b1f27809e91b8e" target="_top" xlink:title=" ">
<polygon fill="white" stroke="#666666" points="1978.5,-351.47 1803.5,-351.47 1803.5,-319.47 1978.5,-319.47 1978.5,-351.47"/>
<text xml:space="preserve" text-anchor="start" x="1811.5" y="-337.97" font-family="Helvetica,sans-Serif" font-size="10.00">editeurpanovisu.EditeurPanovisu.tsk</text>
<text xml:space="preserve" text-anchor="middle" x="1891" y="-325.97" font-family="Helvetica,sans-Serif" font-size="10.00">AnalyseFichierPVU</text>
</a>
</g>
</g>
<!-- Node2&#45;&gt;Node3 -->
<g id="edge2_Node000002_Node000003" class="edge">
<title>Node2&#45;&gt;Node3</title>
<g id="a_edge2_Node000002_Node000003"><a xlink:title=" ">
<path fill="none" stroke="#63b8ff" d="M2018.75,-304.6C1999.23,-309.35 1978.47,-314.41 1959.53,-319.02"/>
<polygon fill="#63b8ff" stroke="#63b8ff" points="2019.4,-308.04 2028.29,-302.27 2017.74,-301.24 2019.4,-308.04"/>
</a>
</g>
</g>
<!-- Node4 -->
<g id="Node000004" class="node">
<title>Node4</title>
<g id="a_Node000004"><a xlink:href="classediteurpanovisu_1_1EditeurPanovisu.html#ab4beb1597b660a4a253befc6e76f1c54" target="_top" xlink:title=" ">
<polygon fill="white" stroke="#666666" points="1098.12,-433.47 912.62,-433.47 912.62,-401.47 1098.12,-401.47 1098.12,-433.47"/>
<text xml:space="preserve" text-anchor="start" x="920.62" y="-419.97" font-family="Helvetica,sans-Serif" font-size="10.00">editeurpanovisu.EditeurPanovisu.projet</text>
<text xml:space="preserve" text-anchor="middle" x="1005.38" y="-407.97" font-family="Helvetica,sans-Serif" font-size="10.00">Charge</text>
</a>
</g>
</g>
<!-- Node3&#45;&gt;Node4 -->
<g id="edge3_Node000003_Node000004" class="edge">
<title>Node3&#45;&gt;Node4</title>
<g id="a_edge3_Node000003_Node000004"><a xlink:title=" ">
<path fill="none" stroke="#63b8ff" d="M1805.9,-354.1C1793.08,-356.51 1779.97,-358.74 1767.5,-360.47 1527.48,-393.82 1241.97,-408.61 1098.45,-414.34"/>
<polygon fill="#63b8ff" stroke="#63b8ff" points="1806.43,-357.56 1815.58,-352.22 1805.09,-350.69 1806.43,-357.56"/>
</a>
</g>
</g>
<!-- Node7 -->
<g id="Node000007" class="node">
<title>Node7</title>
<g id="a_Node000007"><a xlink:href="classediteurpanovisu_1_1EditeurPanovisu.html#a6d19b4d885ee6fcec827b91956295732" target="_top" xlink:title=" ">
<polygon fill="white" stroke="#666666" points="1767.5,-351.47 1582,-351.47 1582,-319.47 1767.5,-319.47 1767.5,-351.47"/>
<text xml:space="preserve" text-anchor="start" x="1590" y="-337.97" font-family="Helvetica,sans-Serif" font-size="10.00">editeurpanovisu.EditeurPanovisu.projet</text>
<text xml:space="preserve" text-anchor="middle" x="1674.75" y="-325.97" font-family="Helvetica,sans-Serif" font-size="10.00">ChargeNom</text>
</a>
</g>
</g>
<!-- Node3&#45;&gt;Node7 -->
<g id="edge6_Node000003_Node000007" class="edge">
<title>Node3&#45;&gt;Node7</title>
<g id="a_edge6_Node000003_Node000007"><a xlink:title=" ">
<path fill="none" stroke="#63b8ff" d="M1791.66,-335.47C1783.76,-335.47 1775.8,-335.47 1767.95,-335.47"/>
<polygon fill="#63b8ff" stroke="#63b8ff" points="1791.65,-338.97 1801.65,-335.47 1791.65,-331.97 1791.65,-338.97"/>
</a>
</g>
</g>
<!-- Node5 -->
<g id="Node000005" class="node">
<title>Node5</title>
<g id="a_Node000005"><a xlink:href="classediteurpanovisu_1_1EditeurPanovisu.html#ac912b80c1f2ac97def60ff005c5c480b" target="_top" xlink:title=" ">
<polygon fill="white" stroke="#666666" points="420.5,-342.47 216.25,-342.47 216.25,-322.47 420.5,-322.47 420.5,-342.47"/>
<text xml:space="preserve" text-anchor="middle" x="318.38" y="-328.97" font-family="Helvetica,sans-Serif" font-size="10.00">editeurpanovisu.EditeurPanovisu.creeMenu</text>
</a>
</g>
</g>
<!-- Node4&#45;&gt;Node5 -->
<g id="edge4_Node000004_Node000005" class="edge">
<title>Node4&#45;&gt;Node5</title>
<g id="a_edge4_Node000004_Node000005"><a xlink:title=" ">
<path fill="none" stroke="#63b8ff" d="M901.15,-415.45C790.26,-411.66 609.34,-400.75 456.5,-369.47 420.99,-362.21 381.05,-351.08 353.47,-342.93"/>
<polygon fill="#63b8ff" stroke="#63b8ff" points="900.71,-418.94 910.82,-415.77 900.94,-411.94 900.71,-418.94"/>
</a>
</g>
</g>
<!-- Node6 -->
<g id="Node000006" class="node">
<title>Node6</title>
<g id="a_Node000006"><a xlink:href="classediteurpanovisu_1_1EditeurPanovisu.html#a86c393eee88f54c694db994ddd85b90d" target="_top" xlink:title=" ">
<polygon fill="white" stroke="#666666" points="180.25,-348.47 0,-348.47 0,-316.47 180.25,-316.47 180.25,-348.47"/>
<text xml:space="preserve" text-anchor="start" x="8" y="-334.97" font-family="Helvetica,sans-Serif" font-size="10.00">editeurpanovisu.EditeurPanovisu.cree</text>
<text xml:space="preserve" text-anchor="middle" x="90.12" y="-322.97" font-family="Helvetica,sans-Serif" font-size="10.00">Environnement</text>
</a>
</g>
</g>
<!-- Node5&#45;&gt;Node6 -->
<g id="edge5_Node000005_Node000006" class="edge">
<title>Node5&#45;&gt;Node6</title>
<g id="a_edge5_Node000005_Node000006"><a xlink:title=" ">
<path fill="none" stroke="#63b8ff" d="M204.51,-332.47C196.49,-332.47 188.46,-332.47 180.6,-332.47"/>
<polygon fill="#63b8ff" stroke="#63b8ff" points="204.32,-335.97 214.32,-332.47 204.32,-328.97 204.32,-335.97"/>
</a>
</g>
</g>
<!-- Node7&#45;&gt;Node5 -->
<g id="edge26_Node000007_Node000005" class="edge">
<title>Node7&#45;&gt;Node5</title>
<g id="a_edge26_Node000007_Node000005"><a xlink:title=" ">
<path fill="none" stroke="#63b8ff" d="M1611.58,-355.26C1494.46,-390.74 1232.54,-461.47 1006.38,-461.47 1006.38,-461.47 1006.38,-461.47 777.62,-461.47 632.1,-461.47 594.66,-443.21 456.5,-397.47 411.98,-382.74 363.08,-357.07 337.41,-342.79"/>
<polygon fill="#63b8ff" stroke="#63b8ff" points="1612.46,-358.65 1621.01,-352.39 1610.42,-351.96 1612.46,-358.65"/>
</a>
</g>
</g>
<!-- Node8 -->
<g id="Node000008" class="node">
<title>Node8</title>
<g id="a_Node000008"><a xlink:href="classediteurpanovisu_1_1EditeurPanovisu.html#af0d1c32bb78acbff561c822a0d15f760" target="_top" xlink:title=" ">
<polygon fill="white" stroke="#666666" points="1546,-351.47 1358.25,-351.47 1358.25,-319.47 1546,-319.47 1546,-351.47"/>
<text xml:space="preserve" text-anchor="start" x="1366.25" y="-337.97" font-family="Helvetica,sans-Serif" font-size="10.00">editeurpanovisu.EditeurPanovisu.ajoute</text>
<text xml:space="preserve" text-anchor="middle" x="1452.12" y="-325.97" font-family="Helvetica,sans-Serif" font-size="10.00">FichierHisto</text>
</a>
</g>
</g>
<!-- Node7&#45;&gt;Node8 -->
<g id="edge7_Node000007_Node000008" class="edge">
<title>Node7&#45;&gt;Node8</title>
<g id="a_edge7_Node000007_Node000008"><a xlink:title=" ">
<path fill="none" stroke="#63b8ff" d="M1570.47,-328.74C1562.42,-328.71 1554.33,-328.73 1546.36,-328.8"/>
<polygon fill="#63b8ff" stroke="#63b8ff" points="1570.25,-332.23 1580.27,-328.8 1570.29,-325.23 1570.25,-332.23"/>
</a>
</g>
</g>
<!-- Node8&#45;&gt;Node4 -->
<g id="edge8_Node000008_Node000004" class="edge">
<title>Node8&#45;&gt;Node4</title>
<g id="a_edge8_Node000008_Node000004"><a xlink:title=" ">
<path fill="none" stroke="#63b8ff" d="M1350.56,-354.01C1273.93,-368.14 1169.4,-387.42 1095.7,-401"/>
<polygon fill="#63b8ff" stroke="#63b8ff" points="1350.97,-357.5 1360.17,-352.24 1349.7,-350.61 1350.97,-357.5"/>
</a>
</g>
</g>
<!-- Node8&#45;&gt;Node7 -->
<g id="edge9_Node000008_Node000007" class="edge">
<title>Node8&#45;&gt;Node7</title>
<g id="a_edge9_Node000008_Node000007"><a xlink:title=" ">
<path fill="none" stroke="#63b8ff" d="M1557.69,-342.22C1565.74,-342.24 1573.83,-342.21 1581.78,-342.14"/>
<polygon fill="#63b8ff" stroke="#63b8ff" points="1557.9,-338.72 1547.88,-342.16 1557.86,-345.72 1557.9,-338.72"/>
</a>
</g>
</g>
<!-- Node9 -->
<g id="Node000009" class="node">
<title>Node9</title>
<g id="a_Node000009"><a xlink:href="classediteurpanovisu_1_1EditeurPanovisu.html#a9f3ea25b35d4884524508dab3dc4fd6a" target="_top" xlink:title=" ">
<polygon fill="white" stroke="#666666" points="1322.25,-307.47 1136.75,-307.47 1136.75,-275.47 1322.25,-275.47 1322.25,-307.47"/>
<text xml:space="preserve" text-anchor="start" x="1144.75" y="-293.97" font-family="Helvetica,sans-Serif" font-size="10.00">editeurpanovisu.EditeurPanovisu.projet</text>
<text xml:space="preserve" text-anchor="middle" x="1229.5" y="-281.97" font-family="Helvetica,sans-Serif" font-size="10.00">Sauve</text>
</a>
</g>
</g>
<!-- Node8&#45;&gt;Node9 -->
<g id="edge10_Node000008_Node000009" class="edge">
<title>Node8&#45;&gt;Node9</title>
<g id="a_edge10_Node000008_Node000009"><a xlink:title=" ">
<path fill="none" stroke="#63b8ff" d="M1357.51,-316.8C1342.79,-313.87 1327.68,-310.85 1313.23,-307.97"/>
<polygon fill="#63b8ff" stroke="#63b8ff" points="1356.68,-320.21 1367.17,-318.73 1358.05,-313.34 1356.68,-320.21"/>
</a>
</g>
</g>
<!-- Node15 -->
<g id="Node000015" class="node">
<title>Node15</title>
<g id="a_Node000015"><a xlink:href="classediteurpanovisu_1_1EditeurPanovisu.html#a7b2e25dc717eb52b62e23d54ec4c124a" target="_top" xlink:title=" ">
<polygon fill="white" stroke="#666666" points="1322.25,-243.47 1136.75,-243.47 1136.75,-211.47 1322.25,-211.47 1322.25,-243.47"/>
<text xml:space="preserve" text-anchor="start" x="1144.75" y="-229.97" font-family="Helvetica,sans-Serif" font-size="10.00">editeurpanovisu.EditeurPanovisu.projet</text>
<text xml:space="preserve" text-anchor="middle" x="1229.5" y="-217.97" font-family="Helvetica,sans-Serif" font-size="10.00">SauveSous</text>
</a>
</g>
</g>
<!-- Node8&#45;&gt;Node15 -->
<g id="edge24_Node000008_Node000015" class="edge">
<title>Node8&#45;&gt;Node15</title>
<g id="a_edge24_Node000008_Node000015"><a xlink:title=" ">
<path fill="none" stroke="#63b8ff" d="M1412.38,-313.56C1387.03,-299.51 1353.03,-281.22 1322.25,-266.47 1305.7,-258.55 1287.13,-250.5 1271.04,-243.79"/>
<polygon fill="#63b8ff" stroke="#63b8ff" points="1410.57,-316.56 1421.01,-318.36 1413.98,-310.44 1410.57,-316.56"/>
</a>
</g>
</g>
<!-- Node9&#45;&gt;Node4 -->
<g id="edge14_Node000009_Node000004" class="edge">
<title>Node9&#45;&gt;Node4</title>
<g id="a_edge14_Node000009_Node000004"><a xlink:title=" ">
<path fill="none" stroke="#63b8ff" d="M1186.1,-313.22C1169.91,-322.45 1151.75,-333.96 1136.75,-346.47 1118.13,-362.01 1121.05,-374.2 1100.75,-387.47 1092.55,-392.84 1083.32,-397.3 1073.93,-400.99"/>
<polygon fill="#63b8ff" stroke="#63b8ff" points="1187.52,-316.44 1194.56,-308.52 1184.12,-310.32 1187.52,-316.44"/>
</a>
</g>
</g>
<!-- Node9&#45;&gt;Node5 -->
<g id="edge11_Node000009_Node000005" class="edge">
<title>Node9&#45;&gt;Node5</title>
<g id="a_edge11_Node000009_Node000005"><a xlink:title=" ">
<path fill="none" stroke="#63b8ff" d="M1144.81,-309.99C1130.19,-312.62 1115.08,-314.94 1100.75,-316.47 857.91,-342.52 570.27,-339.85 420.88,-335.97"/>
<polygon fill="#63b8ff" stroke="#63b8ff" points="1145.19,-313.48 1154.38,-308.22 1143.91,-306.6 1145.19,-313.48"/>
</a>
</g>
</g>
<!-- Node9&#45;&gt;Node7 -->
<g id="edge15_Node000009_Node000007" class="edge">
<title>Node9&#45;&gt;Node7</title>
<g id="a_edge15_Node000009_Node000007"><a xlink:title=" ">
<path fill="none" stroke="#63b8ff" d="M1333.92,-294.23C1395.67,-296.74 1475.54,-301.5 1546,-310.47 1563.04,-312.64 1581.22,-315.73 1598.36,-318.99"/>
<polygon fill="#63b8ff" stroke="#63b8ff" points="1334.25,-290.74 1324.12,-293.85 1333.98,-297.74 1334.25,-290.74"/>
</a>
</g>
</g>
<!-- Node9&#45;&gt;Node10 -->
<g id="edge12_Node000009_Node000010" class="edge">
<title>Node9&#45;&gt;Node10</title>
<g id="a_edge12_Node000009_Node000010"><a xlink:title=" ">
<path fill="none" stroke="#63b8ff" d="M1162.57,-270.28C1153.22,-265.41 1144.25,-259.53 1136.75,-252.47 1110.68,-227.97 1131.1,-199.42 1100.75,-180.47 1027.72,-134.9 784.08,-152.77 647.59,-167.15"/>
<polygon fill="#63b8ff" stroke="#63b8ff" points="1160.92,-273.37 1171.45,-274.52 1163.94,-267.05 1160.92,-273.37"/>
</a>
</g>
</g>
<!-- Node11 -->
<g id="Node000011" class="node">
<title>Node11</title>
<g id="a_Node000011"><a xlink:href="classediteurpanovisu_1_1EditeurPanovisu.html#a9b46b222714af12c06ec33d410400773" target="_top" xlink:title=" ">
<polygon fill="white" stroke="#666666" points="874,-392.47 683.25,-392.47 683.25,-360.47 874,-360.47 874,-392.47"/>
<text xml:space="preserve" text-anchor="start" x="691.25" y="-378.97" font-family="Helvetica,sans-Serif" font-size="10.00">editeurpanovisu.EditeurPanovisu.projets</text>
<text xml:space="preserve" text-anchor="middle" x="778.62" y="-366.97" font-family="Helvetica,sans-Serif" font-size="10.00">Fermer</text>
</a>
</g>
</g>
<!-- Node9&#45;&gt;Node11 -->
<g id="edge16_Node000009_Node000011" class="edge">
<title>Node9&#45;&gt;Node11</title>
<g id="a_edge16_Node000009_Node000011"><a xlink:title=" ">
<path fill="none" stroke="#63b8ff" d="M1189.83,-313.24C1165.14,-326.07 1131.99,-341.33 1100.75,-349.47 1026.31,-368.88 939.19,-375.23 874.5,-376.95"/>
<polygon fill="#63b8ff" stroke="#63b8ff" points="1191.33,-316.41 1198.53,-308.63 1188.06,-310.22 1191.33,-316.41"/>
</a>
</g>
</g>
<!-- Node12 -->
<g id="Node000012" class="node">
<title>Node12</title>
<g id="a_Node000012"><a xlink:href="classediteurpanovisu_1_1EditeurPanovisu.html#ac9d449399ccd38843fa12e716f0c9611" target="_top" xlink:title=" ">
<polygon fill="white" stroke="#666666" points="1100.75,-307.47 910,-307.47 910,-275.47 1100.75,-275.47 1100.75,-307.47"/>
<text xml:space="preserve" text-anchor="start" x="918" y="-293.97" font-family="Helvetica,sans-Serif" font-size="10.00">editeurpanovisu.EditeurPanovisu.projets</text>
<text xml:space="preserve" text-anchor="middle" x="1005.38" y="-281.97" font-family="Helvetica,sans-Serif" font-size="10.00">Nouveau</text>
</a>
</g>
</g>
<!-- Node9&#45;&gt;Node12 -->
<g id="edge18_Node000009_Node000012" class="edge">
<title>Node9&#45;&gt;Node12</title>
<g id="a_edge18_Node000009_Node000012"><a xlink:title=" ">
<path fill="none" stroke="#63b8ff" d="M1125.24,-291.47C1117.2,-291.47 1109.11,-291.47 1101.13,-291.47"/>
<polygon fill="#63b8ff" stroke="#63b8ff" points="1125.04,-294.97 1135.04,-291.47 1125.04,-287.97 1125.04,-294.97"/>
</a>
</g>
</g>
<!-- Node13 -->
<g id="Node000013" class="node">
<title>Node13</title>
<g id="a_Node000013"><a xlink:href="classediteurpanovisu_1_1EditeurPanovisu.html#a2b3125ffe2e6291efacf19df6cb30a8d" target="_top" xlink:title=" ">
<polygon fill="white" stroke="#666666" points="869.12,-207.47 688.12,-207.47 688.12,-187.47 869.12,-187.47 869.12,-207.47"/>
<text xml:space="preserve" text-anchor="middle" x="778.62" y="-193.97" font-family="Helvetica,sans-Serif" font-size="10.00">editeurpanovisu.EditeurPanovisu.start</text>
</a>
</g>
</g>
<!-- Node9&#45;&gt;Node13 -->
<g id="edge23_Node000009_Node000013" class="edge">
<title>Node9&#45;&gt;Node13</title>
<g id="a_edge23_Node000009_Node000013"><a xlink:title=" ">
<path fill="none" stroke="#63b8ff" d="M1170.06,-270.62C1158.6,-265.44 1146.97,-259.37 1136.75,-252.47 1117.99,-239.82 1121.39,-225.75 1100.75,-216.47 1023.83,-181.91 925.92,-181.51 858.55,-187"/>
<polygon fill="#63b8ff" stroke="#63b8ff" points="1168.55,-273.78 1179.12,-274.53 1171.32,-267.35 1168.55,-273.78"/>
</a>
</g>
</g>
<!-- Node14 -->
<g id="Node000014" class="node">
<title>Node14</title>
<g id="a_Node000014"><a xlink:href="classediteurpanovisu_1_1EditeurPanovisu.html#aef8c9b28c3e88d6e27e3f62b9a901134" target="_top" xlink:title=" ">
<polygon fill="white" stroke="#666666" points="1099.25,-257.47 911.5,-257.47 911.5,-225.47 1099.25,-225.47 1099.25,-257.47"/>
<text xml:space="preserve" text-anchor="start" x="919.5" y="-243.97" font-family="Helvetica,sans-Serif" font-size="10.00">editeurpanovisu.EditeurPanovisu.sauve</text>
<text xml:space="preserve" text-anchor="middle" x="1005.38" y="-231.97" font-family="Helvetica,sans-Serif" font-size="10.00">Fichiers</text>
</a>
</g>
</g>
<!-- Node9&#45;&gt;Node14 -->
<g id="edge22_Node000009_Node000014" class="edge">
<title>Node9&#45;&gt;Node14</title>
<g id="a_edge22_Node000009_Node000014"><a xlink:title=" ">
<path fill="none" stroke="#63b8ff" d="M1144.43,-272.55C1123.05,-267.74 1100.24,-262.6 1079.46,-257.92"/>
<polygon fill="#63b8ff" stroke="#63b8ff" points="1143.46,-275.92 1153.98,-274.7 1145,-269.09 1143.46,-275.92"/>
</a>
</g>
</g>
<!-- Node10&#45;&gt;Node5 -->
<g id="edge13_Node000010_Node000005" class="edge">
<title>Node10&#45;&gt;Node5</title>
<g id="a_edge13_Node000010_Node000005"><a xlink:title=" ">
<path fill="none" stroke="#63b8ff" d="M516.82,-201.12C465.94,-234.97 372.09,-297.4 335.03,-322.06"/>
<polygon fill="#63b8ff" stroke="#63b8ff" points="518.45,-204.25 524.84,-195.79 514.58,-198.42 518.45,-204.25"/>
</a>
</g>
</g>
<!-- Node11&#45;&gt;Node5 -->
<g id="edge17_Node000011_Node000005" class="edge">
<title>Node11&#45;&gt;Node5</title>
<g id="a_edge17_Node000011_Node000005"><a xlink:title=" ">
<path fill="none" stroke="#63b8ff" d="M671.3,-366.77C608.74,-361.01 528.11,-353.47 456.5,-346.47 444.95,-345.34 432.85,-344.14 420.83,-342.93"/>
<polygon fill="#63b8ff" stroke="#63b8ff" points="670.97,-370.26 681.25,-367.69 671.61,-363.29 670.97,-370.26"/>
</a>
</g>
</g>
<!-- Node12&#45;&gt;Node5 -->
<g id="edge19_Node000012_Node000005" class="edge">
<title>Node12&#45;&gt;Node5</title>
<g id="a_edge19_Node000012_Node000005"><a xlink:title=" ">
<path fill="none" stroke="#63b8ff" d="M898.29,-295.05C787.84,-299.16 609.89,-306.87 456.5,-318.47 443.26,-319.48 429.31,-320.7 415.59,-322.01"/>
<polygon fill="#63b8ff" stroke="#63b8ff" points="898.38,-298.55 908.24,-294.68 898.12,-291.55 898.38,-298.55"/>
</a>
</g>
</g>
<!-- Node12&#45;&gt;Node13 -->
<g id="edge20_Node000012_Node000013" class="edge">
<title>Node12&#45;&gt;Node13</title>
<g id="a_edge20_Node000012_Node000013"><a xlink:title=" ">
<path fill="none" stroke="#63b8ff" d="M924.25,-271.62C919.39,-269.99 914.61,-268.28 910,-266.47 867.31,-249.77 820.58,-222.69 796.33,-207.91"/>
<polygon fill="#63b8ff" stroke="#63b8ff" points="922.95,-274.88 933.54,-274.58 925.07,-268.21 922.95,-274.88"/>
</a>
</g>
</g>
<!-- Node13&#45;&gt;Node10 -->
<g id="edge21_Node000013_Node000010" class="edge">
<title>Node13&#45;&gt;Node10</title>
<g id="a_edge21_Node000013_Node000010"><a xlink:title=" ">
<path fill="none" stroke="#63b8ff" d="M676.6,-188.93C666.98,-188.12 657.24,-187.3 647.68,-186.49"/>
<polygon fill="#63b8ff" stroke="#63b8ff" points="676.06,-192.4 686.32,-189.75 676.65,-185.42 676.06,-192.4"/>
</a>
</g>
</g>
<!-- Node15&#45;&gt;Node5 -->
<g id="edge25_Node000015_Node000005" class="edge">
<title>Node15&#45;&gt;Node5</title>
<g id="a_edge25_Node000015_Node000005"><a xlink:title=" ">
<path fill="none" stroke="#63b8ff" d="M1201.56,-204.23C1177.11,-184.78 1139.11,-158.49 1100.75,-147.47 825.54,-68.41 711.57,-23.34 456.5,-153.47 382.23,-191.37 336.62,-290.12 323.4,-322.23"/>
<polygon fill="#63b8ff" stroke="#63b8ff" points="1199.1,-206.74 1209.06,-210.34 1203.52,-201.31 1199.1,-206.74"/>
</a>
</g>
</g>
<!-- Node16&#45;&gt;Node17 -->
<g id="edge28_Node000016_Node000017" class="edge">
<title>Node16&#45;&gt;Node17</title>
<g id="a_edge28_Node000016_Node000017"><a xlink:title=" ">
<path fill="none" stroke="#63b8ff" d="M2012.93,-30.44C1998.58,-28.9 1983.74,-27.31 1969.57,-25.79"/>
<polygon fill="#63b8ff" stroke="#63b8ff" points="2012.49,-33.91 2022.8,-31.49 2013.23,-26.95 2012.49,-33.91"/>
</a>
</g>
</g>
<!-- Node19 -->
<g id="Node000019" class="node">
<title>Node19</title>
<g id="a_Node000019"><a xlink:href="classediteurpanovisu_1_1EditeurPanovisu.html#aaee69ab54364f89b58458c744a4195c0" target="_top" xlink:title=" ">
<polygon fill="white" stroke="#666666" points="1546,-243.47 1358.25,-243.47 1358.25,-211.47 1546,-211.47 1546,-243.47"/>
<text xml:space="preserve" text-anchor="start" x="1366.25" y="-229.97" font-family="Helvetica,sans-Serif" font-size="10.00">editeurpanovisu.EditeurPanovisu.sauve</text>
<text xml:space="preserve" text-anchor="middle" x="1452.12" y="-217.97" font-family="Helvetica,sans-Serif" font-size="10.00">FichierProjet</text>
</a>
</g>
</g>
<!-- Node18&#45;&gt;Node19 -->
<g id="edge32_Node000018_Node000019" class="edge">
<title>Node18&#45;&gt;Node19</title>
<g id="a_edge32_Node000018_Node000019"><a xlink:title=" ">
<path fill="none" stroke="#63b8ff" d="M2003.84,-190.71C1881.56,-198.87 1668.49,-213.1 1546.33,-221.25"/>
<polygon fill="#63b8ff" stroke="#63b8ff" points="2003.76,-194.22 2013.51,-190.06 2003.3,-187.24 2003.76,-194.22"/>
</a>
</g>
</g>
<!-- Node19&#45;&gt;Node9 -->
<g id="edge33_Node000019_Node000009" class="edge">
<title>Node19&#45;&gt;Node9</title>
<g id="a_edge33_Node000019_Node000009"><a xlink:title=" ">
<path fill="none" stroke="#63b8ff" d="M1383.63,-247.05C1352.74,-256.01 1316.56,-266.51 1287.12,-275.05"/>
<polygon fill="#63b8ff" stroke="#63b8ff" points="1384.23,-250.52 1392.85,-244.38 1382.28,-243.8 1384.23,-250.52"/>
</a>
</g>
</g>
<!-- Node19&#45;&gt;Node15 -->
<g id="edge34_Node000019_Node000015" class="edge">
<title>Node19&#45;&gt;Node15</title>
<g id="a_edge34_Node000019_Node000015"><a xlink:title=" ">
<path fill="none" stroke="#63b8ff" d="M1346.63,-227.47C1338.64,-227.47 1330.61,-227.47 1322.71,-227.47"/>
<polygon fill="#63b8ff" stroke="#63b8ff" points="1346.37,-230.97 1356.37,-227.47 1346.37,-223.97 1346.37,-230.97"/>
</a>
</g>
</g>
</g>
</svg>

<g id="navigator" transform="translate(0 0)" fill="#404254">
  <rect fill="#f2f5e9" fill-opacity="0.5" stroke="#606060" stroke-width=".5" x="0" y="0" width="60" height="60"/>
  <use id="zoomplus" xlink:href="#zoomPlus" x="17" y="9" onmousedown="handleZoom(evt,'in')"/>
  <use id="zoomminus" xlink:href="#zoomMin" x="42" y="9" onmousedown="handleZoom(evt,'out')"/>
  <use id="reset" xlink:href="#resetDef" x="30" y="36" onmousedown="handleReset()"/>
   <use id="arrowup" xlink:href="#arrowUp" x="0" y="0" onmousedown="handlePan(0,-1)"/>
  <use id="arrowright" xlink:href="#arrowRight" x="0" y="0" onmousedown="handlePan(1,0)"/>
  <use id="arrowdown" xlink:href="#arrowDown" x="0" y="0" onmousedown="handlePan(0,1)"/>
  <use id="arrowleft" xlink:href="#arrowLeft" x="0" y="0" onmousedown="handlePan(-1,0)"/>
</g>
<svg viewBox="0 0 15 15" width="100%" height="30px" preserveAspectRatio="xMaxYMin meet">
 <g id="arrow_out" transform="scale(0.3 0.3)">
  <a xlink:href="classediteurpanovisu_1_1GestionnaireInterfaceController_ae0c1bbcf72a784276d8208a3776382bc_icgraph_org.svg" target="_base">
   <rect id="button" ry="5" rx="5" y="6" x="6" height="38" width="38"
        fill="#f2f5e9" fill-opacity="0.5" stroke="#606060" stroke-width="1.0"/>
   <path id="arrow"
     d="M 11.500037,31.436501 C 11.940474,20.09759 22.043105,11.32322 32.158766,21.979434 L 37.068811,17.246167 C 37.068811,17.246167 37.088388,32 37.088388,32 L 22.160133,31.978069 C 22.160133,31.978069 26.997745,27.140456 26.997745,27.140456 C 18.528582,18.264221 13.291696,25.230495 11.500037,31.436501 z"
     style="fill:#404040;"/>
  </a>
 </g>
</svg>

<style type='text/css'>
<![CDATA[
[data-mouse-over-selected='false'] { opacity: 0.7; }
[data-mouse-over-selected='true']  { opacity: 1.0; }
]]>
</style>
<script type="application/ecmascript"><![CDATA[
document.addEventListener('DOMContentLoaded', (event) => {
  highlightEdges();
  highlightAdjacentNodes();
});
]]></script>
</svg>
