<?xml version="1.0" encoding="UTF-8" standalone="no"?>
<!DOCTYPE svg PUBLIC "-//W3C//DTD SVG 1.1//EN"
 "http://www.w3.org/Graphics/SVG/1.1/DTD/svg11.dtd">
<!-- Generated by graphviz version 13.1.2 (20250808.2320)
 -->
<!-- Title: editeurpanovisu.GestionnaireInterfaceController.getiCalqueBarreClassique Pages: 1 -->
<svg width="3065pt" height="457pt"
 viewBox="0.00 0.00 3065.00 457.00" xmlns="http://www.w3.org/2000/svg" xmlns:xlink="http://www.w3.org/1999/xlink">
<g id="graph0" class="graph" transform="scale(1 1) rotate(0) translate(4 452.89)">
<title>editeurpanovisu.GestionnaireInterfaceController.getiCalqueBarreClassique</title>
<!-- Node1 -->
<g id="Node000001" class="node">
<title>Node1</title>
<g id="a_Node000001"><a xlink:title=" ">
<polygon fill="#999999" stroke="#666666" points="3056.75,-227.92 2887.75,-227.92 2887.75,-183.92 3056.75,-183.92 3056.75,-227.92"/>
<text xml:space="preserve" text-anchor="start" x="2895.75" y="-214.42" font-family="Helvetica,sans-Serif" font-size="10.00">editeurpanovisu.Gestionnaire</text>
<text xml:space="preserve" text-anchor="start" x="2895.75" y="-202.42" font-family="Helvetica,sans-Serif" font-size="10.00">InterfaceController.getiCalqueBarre</text>
<text xml:space="preserve" text-anchor="middle" x="2972.25" y="-190.42" font-family="Helvetica,sans-Serif" font-size="10.00">Classique</text>
</a>
</g>
</g>
<!-- Node2 -->
<g id="Node000002" class="node">
<title>Node2</title>
<g id="a_Node000002"><a xlink:href="classediteurpanovisu_1_1GestionnaireInterfaceController.html#a7c5cff6934d95be9a4babb6426a5ac26" target="_top" xlink:title=" ">
<polygon fill="white" stroke="#666666" points="2414,-413.92 2254,-413.92 2254,-369.92 2414,-369.92 2414,-413.92"/>
<text xml:space="preserve" text-anchor="start" x="2262" y="-400.42" font-family="Helvetica,sans-Serif" font-size="10.00">editeurpanovisu.Gestionnaire</text>
<text xml:space="preserve" text-anchor="start" x="2262" y="-388.42" font-family="Helvetica,sans-Serif" font-size="10.00">InterfaceController.afficheImages</text>
<text xml:space="preserve" text-anchor="middle" x="2334" y="-376.42" font-family="Helvetica,sans-Serif" font-size="10.00">FondInterface</text>
</a>
</g>
</g>
<!-- Node1&#45;&gt;Node2 -->
<g id="edge1_Node000001_Node000002" class="edge">
<title>Node1&#45;&gt;Node2</title>
<g id="a_edge1_Node000001_Node000002"><a xlink:title=" ">
<path fill="none" stroke="#63b8ff" d="M2926.6,-234.28C2904.57,-247.6 2877.3,-263.1 2851.75,-274.92 2756.88,-318.79 2731.89,-329.55 2630.25,-353.92 2558.26,-371.18 2474.39,-381.02 2414.47,-386.34"/>
<polygon fill="#63b8ff" stroke="#63b8ff" points="2928.33,-237.33 2935.04,-229.12 2924.68,-231.35 2928.33,-237.33"/>
</a>
</g>
</g>
<!-- Node3 -->
<g id="Node000003" class="node">
<title>Node3</title>
<g id="a_Node000003"><a xlink:href="classediteurpanovisu_1_1GestionnaireInterfaceController.html#a55c8afda208674955a13d48d02be41b8" target="_top" xlink:title=" ">
<polygon fill="white" stroke="#666666" points="2213.5,-413.92 2046,-413.92 2046,-381.92 2213.5,-381.92 2213.5,-413.92"/>
<text xml:space="preserve" text-anchor="start" x="2054" y="-400.42" font-family="Helvetica,sans-Serif" font-size="10.00">editeurpanovisu.Gestionnaire</text>
<text xml:space="preserve" text-anchor="middle" x="2129.75" y="-388.42" font-family="Helvetica,sans-Serif" font-size="10.00">InterfaceController.afficheTemplate</text>
</a>
</g>
</g>
<!-- Node1&#45;&gt;Node3 -->
<g id="edge2_Node000001_Node000003" class="edge">
<title>Node1&#45;&gt;Node3</title>
<g id="a_edge2_Node000001_Node000003"><a xlink:title=" ">
<path fill="none" stroke="#63b8ff" d="M2946.81,-236.96C2924.56,-263.38 2889.48,-300.64 2851.75,-323.92 2682,-428.64 2617,-421.42 2418.5,-440.92 2343.75,-448.26 2323.48,-453.9 2249.5,-440.92 2220.45,-435.82 2189.15,-424.21 2165.98,-414.34"/>
<polygon fill="#63b8ff" stroke="#63b8ff" points="2949.49,-239.21 2953.17,-229.28 2944.1,-234.75 2949.49,-239.21"/>
</a>
</g>
</g>
<!-- Node11 -->
<g id="Node000011" class="node">
<title>Node11</title>
<g id="a_Node000011"><a xlink:href="classediteurpanovisu_1_1EditeurPanovisu.html#a94e36b9e9d09ab1a4c852b8a8cefa927" target="_top" xlink:title=" ">
<polygon fill="white" stroke="#666666" points="647.25,-249.92 456.5,-249.92 456.5,-217.92 647.25,-217.92 647.25,-249.92"/>
<text xml:space="preserve" text-anchor="start" x="464.5" y="-236.42" font-family="Helvetica,sans-Serif" font-size="10.00">editeurpanovisu.EditeurPanovisu.genere</text>
<text xml:space="preserve" text-anchor="middle" x="551.88" y="-224.42" font-family="Helvetica,sans-Serif" font-size="10.00">Visite</text>
</a>
</g>
</g>
<!-- Node1&#45;&gt;Node11 -->
<g id="edge29_Node000001_Node000011" class="edge">
<title>Node1&#45;&gt;Node11</title>
<g id="a_edge29_Node000001_Node000011"><a xlink:title=" ">
<path fill="none" stroke="#63b8ff" d="M2958.68,-173.01C2941.36,-132.76 2906,-66.25 2851.75,-35.92 2731.9,31.09 2680.69,-16.92 2543.38,-16.92 2543.38,-16.92 2543.38,-16.92 1260,-16.92 999.99,-16.92 916.91,-0.87 683.25,-114.92 632.03,-139.92 586.41,-191.41 565.3,-217.7"/>
<polygon fill="#63b8ff" stroke="#63b8ff" points="2955.44,-174.33 2962.51,-182.22 2961.9,-171.64 2955.44,-174.33"/>
</a>
</g>
</g>
<!-- Node17 -->
<g id="Node000017" class="node">
<title>Node17</title>
<g id="a_Node000017"><a xlink:href="classediteurpanovisu_1_1GestionnaireInterfaceController.html#ac7fa988dc99d8684686127a2269cd66e" target="_top" xlink:title=" ">
<polygon fill="white" stroke="#666666" points="2000.62,-196.92 1844.38,-196.92 1844.38,-164.92 2000.62,-164.92 2000.62,-196.92"/>
<text xml:space="preserve" text-anchor="start" x="1852.38" y="-183.42" font-family="Helvetica,sans-Serif" font-size="10.00">editeurpanovisu.Gestionnaire</text>
<text xml:space="preserve" text-anchor="middle" x="1922.5" y="-171.42" font-family="Helvetica,sans-Serif" font-size="10.00">InterfaceController.creeInterface</text>
</a>
</g>
</g>
<!-- Node1&#45;&gt;Node17 -->
<g id="edge28_Node000001_Node000017" class="edge">
<title>Node1&#45;&gt;Node17</title>
<g id="a_edge28_Node000001_Node000017"><a xlink:title=" ">
<path fill="none" stroke="#63b8ff" d="M2891.61,-180.19C2823.16,-159.5 2721.36,-132.1 2630.25,-120.92 2372.22,-89.25 2302.56,-107 2046,-148.92 2023.33,-152.62 1998.76,-158.64 1977.61,-164.45"/>
<polygon fill="#63b8ff" stroke="#63b8ff" points="2890.27,-183.44 2900.86,-183.01 2892.31,-176.74 2890.27,-183.44"/>
</a>
</g>
</g>
<!-- Node18 -->
<g id="Node000018" class="node">
<title>Node18</title>
<g id="a_Node000018"><a xlink:href="classediteurpanovisu_1_1GestionnaireInterfaceController.html#a6841b5ee320549f9685bf881b97271f6" target="_top" xlink:title="Réaffiche les éléments dans l&#39;ordre des plans.">
<polygon fill="white" stroke="#666666" points="2851.75,-265.92 2666.25,-265.92 2666.25,-221.92 2851.75,-221.92 2851.75,-265.92"/>
<text xml:space="preserve" text-anchor="start" x="2674.25" y="-252.42" font-family="Helvetica,sans-Serif" font-size="10.00">editeurpanovisu.Gestionnaire</text>
<text xml:space="preserve" text-anchor="start" x="2674.25" y="-240.42" font-family="Helvetica,sans-Serif" font-size="10.00">InterfaceController.reOrdonneElements</text>
<text xml:space="preserve" text-anchor="middle" x="2759" y="-228.42" font-family="Helvetica,sans-Serif" font-size="10.00">Calque</text>
</a>
</g>
</g>
<!-- Node1&#45;&gt;Node18 -->
<g id="edge30_Node000001_Node000018" class="edge">
<title>Node1&#45;&gt;Node18</title>
<g id="a_edge30_Node000001_Node000018"><a xlink:title=" ">
<path fill="none" stroke="#63b8ff" d="M2876.18,-223.02C2868.15,-224.46 2860.04,-225.92 2852.04,-227.36"/>
<polygon fill="#63b8ff" stroke="#63b8ff" points="2876.74,-226.48 2885.97,-221.26 2875.5,-219.59 2876.74,-226.48"/>
</a>
</g>
</g>
<!-- Node26 -->
<g id="Node000026" class="node">
<title>Node26</title>
<g id="a_Node000026"><a xlink:href="classediteurpanovisu_1_1GestionnaireInterfaceController.html#ab66509c63a85a8285a081b24049e8774" target="_top" xlink:title=" ">
<polygon fill="white" stroke="#666666" points="2842,-76.92 2676,-76.92 2676,-44.92 2842,-44.92 2842,-76.92"/>
<text xml:space="preserve" text-anchor="start" x="2684" y="-63.42" font-family="Helvetica,sans-Serif" font-size="10.00">editeurpanovisu.Gestionnaire</text>
<text xml:space="preserve" text-anchor="middle" x="2759" y="-51.42" font-family="Helvetica,sans-Serif" font-size="10.00">InterfaceController.strGetTemplate</text>
</a>
</g>
</g>
<!-- Node1&#45;&gt;Node26 -->
<g id="edge52_Node000001_Node000026" class="edge">
<title>Node1&#45;&gt;Node26</title>
<g id="a_edge52_Node000001_Node000026"><a xlink:title=" ">
<path fill="none" stroke="#63b8ff" d="M2946.32,-175.14C2923.98,-149.38 2889.06,-113.34 2851.75,-90.92 2842.84,-85.57 2832.87,-81.05 2822.87,-77.27"/>
<polygon fill="#63b8ff" stroke="#63b8ff" points="2943.55,-177.29 2952.7,-182.63 2948.88,-172.75 2943.55,-177.29"/>
</a>
</g>
</g>
<!-- Node4 -->
<g id="Node000004" class="node">
<title>Node4</title>
<g id="a_Node000004"><a xlink:href="classediteurpanovisu_1_1EditeurPanovisu.html#a87b29dc258cfc67370b1f27809e91b8e" target="_top" xlink:title=" ">
<polygon fill="white" stroke="#666666" points="2010,-386.92 1835,-386.92 1835,-354.92 2010,-354.92 2010,-386.92"/>
<text xml:space="preserve" text-anchor="start" x="1843" y="-373.42" font-family="Helvetica,sans-Serif" font-size="10.00">editeurpanovisu.EditeurPanovisu.tsk</text>
<text xml:space="preserve" text-anchor="middle" x="1922.5" y="-361.42" font-family="Helvetica,sans-Serif" font-size="10.00">AnalyseFichierPVU</text>
</a>
</g>
</g>
<!-- Node3&#45;&gt;Node4 -->
<g id="edge3_Node000003_Node000004" class="edge">
<title>Node3&#45;&gt;Node4</title>
<g id="a_edge3_Node000003_Node000004"><a xlink:title=" ">
<path fill="none" stroke="#63b8ff" d="M2034.37,-385.5C2026.41,-384.46 2018.38,-383.4 2010.48,-382.36"/>
<polygon fill="#63b8ff" stroke="#63b8ff" points="2033.69,-388.94 2044.06,-386.78 2034.6,-382 2033.69,-388.94"/>
</a>
</g>
</g>
<!-- Node5 -->
<g id="Node000005" class="node">
<title>Node5</title>
<g id="a_Node000005"><a xlink:href="classediteurpanovisu_1_1EditeurPanovisu.html#ab4beb1597b660a4a253befc6e76f1c54" target="_top" xlink:title=" ">
<polygon fill="white" stroke="#666666" points="1129.62,-404.92 944.12,-404.92 944.12,-372.92 1129.62,-372.92 1129.62,-404.92"/>
<text xml:space="preserve" text-anchor="start" x="952.12" y="-391.42" font-family="Helvetica,sans-Serif" font-size="10.00">editeurpanovisu.EditeurPanovisu.projet</text>
<text xml:space="preserve" text-anchor="middle" x="1036.88" y="-379.42" font-family="Helvetica,sans-Serif" font-size="10.00">Charge</text>
</a>
</g>
</g>
<!-- Node4&#45;&gt;Node5 -->
<g id="edge4_Node000004_Node000005" class="edge">
<title>Node4&#45;&gt;Node5</title>
<g id="a_edge4_Node000004_Node000005"><a xlink:title=" ">
<path fill="none" stroke="#63b8ff" d="M1823.45,-372.92C1651.48,-376.42 1297.83,-383.62 1130.08,-387.04"/>
<polygon fill="#63b8ff" stroke="#63b8ff" points="1823.32,-376.42 1833.25,-372.72 1823.18,-369.42 1823.32,-376.42"/>
</a>
</g>
</g>
<!-- Node8 -->
<g id="Node000008" class="node">
<title>Node8</title>
<g id="a_Node000008"><a xlink:href="classediteurpanovisu_1_1EditeurPanovisu.html#a6d19b4d885ee6fcec827b91956295732" target="_top" xlink:title=" ">
<polygon fill="white" stroke="#666666" points="1799,-331.92 1613.5,-331.92 1613.5,-299.92 1799,-299.92 1799,-331.92"/>
<text xml:space="preserve" text-anchor="start" x="1621.5" y="-318.42" font-family="Helvetica,sans-Serif" font-size="10.00">editeurpanovisu.EditeurPanovisu.projet</text>
<text xml:space="preserve" text-anchor="middle" x="1706.25" y="-306.42" font-family="Helvetica,sans-Serif" font-size="10.00">ChargeNom</text>
</a>
</g>
</g>
<!-- Node4&#45;&gt;Node8 -->
<g id="edge7_Node000004_Node000008" class="edge">
<title>Node4&#45;&gt;Node8</title>
<g id="a_edge7_Node000004_Node000008"><a xlink:title=" ">
<path fill="none" stroke="#63b8ff" d="M1846.43,-351.65C1821.91,-345.35 1794.92,-338.42 1771.28,-332.36"/>
<polygon fill="#63b8ff" stroke="#63b8ff" points="1845.49,-355.02 1856.04,-354.12 1847.23,-348.24 1845.49,-355.02"/>
</a>
</g>
</g>
<!-- Node6 -->
<g id="Node000006" class="node">
<title>Node6</title>
<g id="a_Node000006"><a xlink:href="classediteurpanovisu_1_1EditeurPanovisu.html#ac912b80c1f2ac97def60ff005c5c480b" target="_top" xlink:title=" ">
<polygon fill="white" stroke="#666666" points="420.5,-272.92 216.25,-272.92 216.25,-252.92 420.5,-252.92 420.5,-272.92"/>
<text xml:space="preserve" text-anchor="middle" x="318.38" y="-259.42" font-family="Helvetica,sans-Serif" font-size="10.00">editeurpanovisu.EditeurPanovisu.creeMenu</text>
</a>
</g>
</g>
<!-- Node5&#45;&gt;Node6 -->
<g id="edge5_Node000005_Node000006" class="edge">
<title>Node5&#45;&gt;Node6</title>
<g id="a_edge5_Node000005_Node000006"><a xlink:title=" ">
<path fill="none" stroke="#63b8ff" d="M932.65,-400.36C814.2,-409.71 615.78,-413.7 456.5,-358.92 402.64,-340.39 350.87,-293.96 329.57,-273.21"/>
<polygon fill="#63b8ff" stroke="#63b8ff" points="932.67,-403.87 942.35,-399.56 932.1,-396.89 932.67,-403.87"/>
</a>
</g>
</g>
<!-- Node7 -->
<g id="Node000007" class="node">
<title>Node7</title>
<g id="a_Node000007"><a xlink:href="classediteurpanovisu_1_1EditeurPanovisu.html#a86c393eee88f54c694db994ddd85b90d" target="_top" xlink:title=" ">
<polygon fill="white" stroke="#666666" points="180.25,-278.92 0,-278.92 0,-246.92 180.25,-246.92 180.25,-278.92"/>
<text xml:space="preserve" text-anchor="start" x="8" y="-265.42" font-family="Helvetica,sans-Serif" font-size="10.00">editeurpanovisu.EditeurPanovisu.cree</text>
<text xml:space="preserve" text-anchor="middle" x="90.12" y="-253.42" font-family="Helvetica,sans-Serif" font-size="10.00">Environnement</text>
</a>
</g>
</g>
<!-- Node6&#45;&gt;Node7 -->
<g id="edge6_Node000006_Node000007" class="edge">
<title>Node6&#45;&gt;Node7</title>
<g id="a_edge6_Node000006_Node000007"><a xlink:title=" ">
<path fill="none" stroke="#63b8ff" d="M204.51,-262.92C196.49,-262.92 188.46,-262.92 180.6,-262.92"/>
<polygon fill="#63b8ff" stroke="#63b8ff" points="204.32,-266.42 214.32,-262.92 204.32,-259.42 204.32,-266.42"/>
</a>
</g>
</g>
<!-- Node8&#45;&gt;Node6 -->
<g id="edge27_Node000008_Node000006" class="edge">
<title>Node8&#45;&gt;Node6</title>
<g id="a_edge27_Node000008_Node000006"><a xlink:title=" ">
<path fill="none" stroke="#63b8ff" d="M1639.28,-335.33C1520.25,-368.59 1261.17,-432.92 1037.88,-432.92 1037.88,-432.92 1037.88,-432.92 793.38,-432.92 642.6,-432.92 593.01,-456.93 456.5,-392.92 395.91,-364.51 344.81,-298.83 326.55,-273.31"/>
<polygon fill="#63b8ff" stroke="#63b8ff" points="1639.88,-338.8 1648.56,-332.72 1637.98,-332.06 1639.88,-338.8"/>
</a>
</g>
</g>
<!-- Node9 -->
<g id="Node000009" class="node">
<title>Node9</title>
<g id="a_Node000009"><a xlink:href="classediteurpanovisu_1_1EditeurPanovisu.html#af0d1c32bb78acbff561c822a0d15f760" target="_top" xlink:title=" ">
<polygon fill="white" stroke="#666666" points="1577.5,-287.92 1389.75,-287.92 1389.75,-255.92 1577.5,-255.92 1577.5,-287.92"/>
<text xml:space="preserve" text-anchor="start" x="1397.75" y="-274.42" font-family="Helvetica,sans-Serif" font-size="10.00">editeurpanovisu.EditeurPanovisu.ajoute</text>
<text xml:space="preserve" text-anchor="middle" x="1483.62" y="-262.42" font-family="Helvetica,sans-Serif" font-size="10.00">FichierHisto</text>
</a>
</g>
</g>
<!-- Node8&#45;&gt;Node9 -->
<g id="edge8_Node000008_Node000009" class="edge">
<title>Node8&#45;&gt;Node9</title>
<g id="a_edge8_Node000008_Node000009"><a xlink:title=" ">
<path fill="none" stroke="#63b8ff" d="M1641.09,-296.93C1621.31,-292.48 1599.12,-287.89 1577.8,-283.82"/>
<polygon fill="#63b8ff" stroke="#63b8ff" points="1640.12,-300.3 1650.65,-299.12 1641.68,-293.47 1640.12,-300.3"/>
</a>
</g>
</g>
<!-- Node9&#45;&gt;Node5 -->
<g id="edge9_Node000009_Node000005" class="edge">
<title>Node9&#45;&gt;Node5</title>
<g id="a_edge9_Node000009_Node000005"><a xlink:title=" ">
<path fill="none" stroke="#63b8ff" d="M1409.32,-291.2C1323.17,-313.87 1181.7,-351.08 1100.48,-372.45"/>
<polygon fill="#63b8ff" stroke="#63b8ff" points="1410.07,-294.63 1418.85,-288.7 1408.29,-287.86 1410.07,-294.63"/>
</a>
</g>
</g>
<!-- Node9&#45;&gt;Node8 -->
<g id="edge10_Node000009_Node000008" class="edge">
<title>Node9&#45;&gt;Node8</title>
<g id="a_edge10_Node000009_Node000008"><a xlink:title=" ">
<path fill="none" stroke="#63b8ff" d="M1548.89,-290.93C1569.02,-295.46 1591.64,-300.13 1613.28,-304.24"/>
<polygon fill="#63b8ff" stroke="#63b8ff" points="1549.68,-287.52 1539.15,-288.7 1548.12,-294.35 1549.68,-287.52"/>
</a>
</g>
</g>
<!-- Node10 -->
<g id="Node000010" class="node">
<title>Node10</title>
<g id="a_Node000010"><a xlink:href="classediteurpanovisu_1_1EditeurPanovisu.html#a9f3ea25b35d4884524508dab3dc4fd6a" target="_top" xlink:title=" ">
<polygon fill="white" stroke="#666666" points="1353.75,-285.92 1168.25,-285.92 1168.25,-253.92 1353.75,-253.92 1353.75,-285.92"/>
<text xml:space="preserve" text-anchor="start" x="1176.25" y="-272.42" font-family="Helvetica,sans-Serif" font-size="10.00">editeurpanovisu.EditeurPanovisu.projet</text>
<text xml:space="preserve" text-anchor="middle" x="1261" y="-260.42" font-family="Helvetica,sans-Serif" font-size="10.00">Sauve</text>
</a>
</g>
</g>
<!-- Node9&#45;&gt;Node10 -->
<g id="edge11_Node000009_Node000010" class="edge">
<title>Node9&#45;&gt;Node10</title>
<g id="a_edge11_Node000009_Node000010"><a xlink:title=" ">
<path fill="none" stroke="#63b8ff" d="M1378.13,-270.97C1370.14,-270.9 1362.11,-270.83 1354.21,-270.76"/>
<polygon fill="#63b8ff" stroke="#63b8ff" points="1377.84,-274.47 1387.87,-271.06 1377.9,-267.47 1377.84,-274.47"/>
</a>
</g>
</g>
<!-- Node16 -->
<g id="Node000016" class="node">
<title>Node16</title>
<g id="a_Node000016"><a xlink:href="classediteurpanovisu_1_1EditeurPanovisu.html#a7b2e25dc717eb52b62e23d54ec4c124a" target="_top" xlink:title=" ">
<polygon fill="white" stroke="#666666" points="1353.75,-92.92 1168.25,-92.92 1168.25,-60.92 1353.75,-60.92 1353.75,-92.92"/>
<text xml:space="preserve" text-anchor="start" x="1176.25" y="-79.42" font-family="Helvetica,sans-Serif" font-size="10.00">editeurpanovisu.EditeurPanovisu.projet</text>
<text xml:space="preserve" text-anchor="middle" x="1261" y="-67.42" font-family="Helvetica,sans-Serif" font-size="10.00">SauveSous</text>
</a>
</g>
</g>
<!-- Node9&#45;&gt;Node16 -->
<g id="edge25_Node000009_Node000016" class="edge">
<title>Node9&#45;&gt;Node16</title>
<g id="a_edge25_Node000009_Node000016"><a xlink:title=" ">
<path fill="none" stroke="#63b8ff" d="M1467.82,-245.96C1446.67,-211.02 1404.69,-148.95 1353.75,-111.92 1343.41,-104.4 1331.25,-98.28 1319.23,-93.39"/>
<polygon fill="#63b8ff" stroke="#63b8ff" points="1464.57,-247.36 1472.69,-254.17 1470.59,-243.78 1464.57,-247.36"/>
</a>
</g>
</g>
<!-- Node10&#45;&gt;Node5 -->
<g id="edge15_Node000010_Node000005" class="edge">
<title>Node10&#45;&gt;Node5</title>
<g id="a_edge15_Node000010_Node000005"><a xlink:title=" ">
<path fill="none" stroke="#63b8ff" d="M1215.88,-291.62C1200.22,-300.16 1182.87,-310.63 1168.25,-321.92 1150.09,-335.94 1151.77,-346.86 1132.25,-358.92 1123.62,-364.25 1113.96,-368.72 1104.19,-372.44"/>
<polygon fill="#63b8ff" stroke="#63b8ff" points="1217.36,-294.8 1224.54,-287.01 1214.07,-288.62 1217.36,-294.8"/>
</a>
</g>
</g>
<!-- Node10&#45;&gt;Node6 -->
<g id="edge12_Node000010_Node000006" class="edge">
<title>Node10&#45;&gt;Node6</title>
<g id="a_edge12_Node000010_Node000006"><a xlink:title=" ">
<path fill="none" stroke="#63b8ff" d="M1191.88,-289.16C1172.74,-293.82 1151.81,-298.23 1132.25,-300.92 834.62,-341.82 751.48,-374.87 456.5,-317.92 412.43,-309.41 364.53,-286.83 338.63,-273.4"/>
<polygon fill="#63b8ff" stroke="#63b8ff" points="1192.6,-292.58 1201.45,-286.76 1190.9,-285.79 1192.6,-292.58"/>
</a>
</g>
</g>
<!-- Node10&#45;&gt;Node8 -->
<g id="edge16_Node000010_Node000008" class="edge">
<title>Node10&#45;&gt;Node8</title>
<g id="a_edge16_Node000010_Node000008"><a xlink:title=" ">
<path fill="none" stroke="#63b8ff" d="M1341.5,-288.62C1357.41,-291.83 1374.05,-294.8 1389.75,-296.92 1464.52,-307.02 1549.99,-311.75 1613.09,-313.97"/>
<polygon fill="#63b8ff" stroke="#63b8ff" points="1342.61,-285.28 1332.11,-286.68 1341.19,-292.13 1342.61,-285.28"/>
</a>
</g>
</g>
<!-- Node10&#45;&gt;Node11 -->
<g id="edge13_Node000010_Node000011" class="edge">
<title>Node10&#45;&gt;Node11</title>
<g id="a_edge13_Node000010_Node000011"><a xlink:title=" ">
<path fill="none" stroke="#63b8ff" d="M1156.68,-269.06C1041.15,-267.46 848.55,-262.9 683.25,-249.92 671.66,-249.01 659.51,-247.83 647.48,-246.52"/>
<polygon fill="#63b8ff" stroke="#63b8ff" points="1156.4,-272.55 1166.45,-269.19 1156.5,-265.55 1156.4,-272.55"/>
</a>
</g>
</g>
<!-- Node12 -->
<g id="Node000012" class="node">
<title>Node12</title>
<g id="a_Node000012"><a xlink:href="classediteurpanovisu_1_1EditeurPanovisu.html#a9b46b222714af12c06ec33d410400773" target="_top" xlink:title=" ">
<polygon fill="white" stroke="#666666" points="647.25,-308.92 456.5,-308.92 456.5,-276.92 647.25,-276.92 647.25,-308.92"/>
<text xml:space="preserve" text-anchor="start" x="464.5" y="-295.42" font-family="Helvetica,sans-Serif" font-size="10.00">editeurpanovisu.EditeurPanovisu.projets</text>
<text xml:space="preserve" text-anchor="middle" x="551.88" y="-283.42" font-family="Helvetica,sans-Serif" font-size="10.00">Fermer</text>
</a>
</g>
</g>
<!-- Node10&#45;&gt;Node12 -->
<g id="edge17_Node000010_Node000012" class="edge">
<title>Node10&#45;&gt;Node12</title>
<g id="a_edge17_Node000010_Node000012"><a xlink:title=" ">
<path fill="none" stroke="#63b8ff" d="M1156.7,-281.18C1148.43,-281.85 1140.21,-282.45 1132.25,-282.92 961.65,-293.05 762.35,-294.14 647.55,-293.73"/>
<polygon fill="#63b8ff" stroke="#63b8ff" points="1156.79,-284.68 1166.46,-280.35 1156.2,-277.71 1156.79,-284.68"/>
</a>
</g>
</g>
<!-- Node13 -->
<g id="Node000013" class="node">
<title>Node13</title>
<g id="a_Node000013"><a xlink:href="classediteurpanovisu_1_1EditeurPanovisu.html#ac9d449399ccd38843fa12e716f0c9611" target="_top" xlink:title=" ">
<polygon fill="white" stroke="#666666" points="1132.25,-152.92 941.5,-152.92 941.5,-120.92 1132.25,-120.92 1132.25,-152.92"/>
<text xml:space="preserve" text-anchor="start" x="949.5" y="-139.42" font-family="Helvetica,sans-Serif" font-size="10.00">editeurpanovisu.EditeurPanovisu.projets</text>
<text xml:space="preserve" text-anchor="middle" x="1036.88" y="-127.42" font-family="Helvetica,sans-Serif" font-size="10.00">Nouveau</text>
</a>
</g>
</g>
<!-- Node10&#45;&gt;Node13 -->
<g id="edge19_Node000010_Node000013" class="edge">
<title>Node10&#45;&gt;Node13</title>
<g id="a_edge19_Node000010_Node000013"><a xlink:title=" ">
<path fill="none" stroke="#63b8ff" d="M1237.81,-245.68C1214,-221.09 1173.95,-183.65 1132.25,-161.92 1126.09,-158.71 1119.48,-155.88 1112.72,-153.41"/>
<polygon fill="#63b8ff" stroke="#63b8ff" points="1235.06,-247.87 1244.49,-252.7 1240.13,-243.04 1235.06,-247.87"/>
</a>
</g>
</g>
<!-- Node14 -->
<g id="Node000014" class="node">
<title>Node14</title>
<g id="a_Node000014"><a xlink:href="classediteurpanovisu_1_1EditeurPanovisu.html#a2b3125ffe2e6291efacf19df6cb30a8d" target="_top" xlink:title=" ">
<polygon fill="white" stroke="#666666" points="884.88,-240.92 703.88,-240.92 703.88,-220.92 884.88,-220.92 884.88,-240.92"/>
<text xml:space="preserve" text-anchor="middle" x="794.38" y="-227.42" font-family="Helvetica,sans-Serif" font-size="10.00">editeurpanovisu.EditeurPanovisu.start</text>
</a>
</g>
</g>
<!-- Node10&#45;&gt;Node14 -->
<g id="edge24_Node000010_Node000014" class="edge">
<title>Node10&#45;&gt;Node14</title>
<g id="a_edge24_Node000010_Node000014"><a xlink:title=" ">
<path fill="none" stroke="#63b8ff" d="M1156.68,-257.38C1148.42,-256.5 1140.2,-255.67 1132.25,-254.92 1048.63,-247.04 953.11,-240.46 885.19,-236.2"/>
<polygon fill="#63b8ff" stroke="#63b8ff" points="1156.12,-260.84 1166.44,-258.44 1156.88,-253.88 1156.12,-260.84"/>
</a>
</g>
</g>
<!-- Node15 -->
<g id="Node000015" class="node">
<title>Node15</title>
<g id="a_Node000015"><a xlink:href="classediteurpanovisu_1_1EditeurPanovisu.html#aef8c9b28c3e88d6e27e3f62b9a901134" target="_top" xlink:title=" ">
<polygon fill="white" stroke="#666666" points="1130.75,-202.92 943,-202.92 943,-170.92 1130.75,-170.92 1130.75,-202.92"/>
<text xml:space="preserve" text-anchor="start" x="951" y="-189.42" font-family="Helvetica,sans-Serif" font-size="10.00">editeurpanovisu.EditeurPanovisu.sauve</text>
<text xml:space="preserve" text-anchor="middle" x="1036.88" y="-177.42" font-family="Helvetica,sans-Serif" font-size="10.00">Fichiers</text>
</a>
</g>
</g>
<!-- Node10&#45;&gt;Node15 -->
<g id="edge23_Node000010_Node000015" class="edge">
<title>Node10&#45;&gt;Node15</title>
<g id="a_edge23_Node000010_Node000015"><a xlink:title=" ">
<path fill="none" stroke="#63b8ff" d="M1212.34,-249.01C1188.48,-238.83 1159.04,-226.72 1132.25,-216.92 1119.33,-212.2 1105.27,-207.5 1092.04,-203.26"/>
<polygon fill="#63b8ff" stroke="#63b8ff" points="1210.92,-252.21 1221.49,-252.94 1213.68,-245.78 1210.92,-252.21"/>
</a>
</g>
</g>
<!-- Node11&#45;&gt;Node6 -->
<g id="edge14_Node000011_Node000006" class="edge">
<title>Node11&#45;&gt;Node6</title>
<g id="a_edge14_Node000011_Node000006"><a xlink:title=" ">
<path fill="none" stroke="#63b8ff" d="M444.83,-247.2C430.78,-248.96 416.53,-250.75 402.93,-252.45"/>
<polygon fill="#63b8ff" stroke="#63b8ff" points="445.06,-250.7 454.55,-245.99 444.19,-243.76 445.06,-250.7"/>
</a>
</g>
</g>
<!-- Node12&#45;&gt;Node6 -->
<g id="edge18_Node000012_Node000006" class="edge">
<title>Node12&#45;&gt;Node6</title>
<g id="a_edge18_Node000012_Node000006"><a xlink:title=" ">
<path fill="none" stroke="#63b8ff" d="M444.71,-279.16C429.81,-277.23 414.7,-275.27 400.37,-273.42"/>
<polygon fill="#63b8ff" stroke="#63b8ff" points="444.18,-282.62 454.55,-280.44 445.08,-275.68 444.18,-282.62"/>
</a>
</g>
</g>
<!-- Node13&#45;&gt;Node6 -->
<g id="edge20_Node000013_Node000006" class="edge">
<title>Node13&#45;&gt;Node6</title>
<g id="a_edge20_Node000013_Node000006"><a xlink:title=" ">
<path fill="none" stroke="#63b8ff" d="M955.25,-155.73C938.85,-159.14 921.67,-162.4 905.5,-164.92 707.38,-195.8 651.43,-161.96 456.5,-208.92 413.72,-219.23 366.52,-240.06 340.16,-252.62"/>
<polygon fill="#63b8ff" stroke="#63b8ff" points="955.92,-159.17 964.98,-153.67 954.47,-152.32 955.92,-159.17"/>
</a>
</g>
</g>
<!-- Node13&#45;&gt;Node14 -->
<g id="edge21_Node000013_Node000014" class="edge">
<title>Node13&#45;&gt;Node14</title>
<g id="a_edge21_Node000013_Node000014"><a xlink:title=" ">
<path fill="none" stroke="#63b8ff" d="M948.24,-158.18C945.93,-159.36 943.68,-160.6 941.5,-161.92 921.29,-174.09 925.66,-188.68 905.5,-200.92 891.02,-209.71 873.93,-215.98 857.58,-220.42"/>
<polygon fill="#63b8ff" stroke="#63b8ff" points="949.64,-161.39 957.26,-154.03 946.72,-155.02 949.64,-161.39"/>
</a>
</g>
</g>
<!-- Node14&#45;&gt;Node11 -->
<g id="edge22_Node000014_Node000011" class="edge">
<title>Node14&#45;&gt;Node11</title>
<g id="a_edge22_Node000014_Node000011"><a xlink:title=" ">
<path fill="none" stroke="#63b8ff" d="M692.23,-232.18C677.4,-232.37 662.18,-232.56 647.49,-232.74"/>
<polygon fill="#63b8ff" stroke="#63b8ff" points="692.01,-235.68 701.97,-232.06 691.92,-228.68 692.01,-235.68"/>
</a>
</g>
</g>
<!-- Node16&#45;&gt;Node6 -->
<g id="edge26_Node000016_Node000006" class="edge">
<title>Node16&#45;&gt;Node6</title>
<g id="a_edge26_Node000016_Node000006"><a xlink:title=" ">
<path fill="none" stroke="#63b8ff" d="M1156.65,-62.77C998.28,-45.73 689.45,-31.03 456.5,-134.92 395.82,-161.98 344.77,-227.19 326.54,-252.57"/>
<polygon fill="#63b8ff" stroke="#63b8ff" points="1155.96,-66.22 1166.28,-63.84 1156.73,-59.26 1155.96,-66.22"/>
</a>
</g>
</g>
<!-- Node18&#45;&gt;Node2 -->
<g id="edge47_Node000018_Node000002" class="edge">
<title>Node18&#45;&gt;Node2</title>
<g id="a_edge47_Node000018_Node000002"><a xlink:title=" ">
<path fill="none" stroke="#63b8ff" d="M2712.13,-272.08C2688.34,-285.8 2658.43,-301.72 2630.25,-312.92 2559.24,-341.14 2474.7,-362.61 2414.32,-375.99"/>
<polygon fill="#63b8ff" stroke="#63b8ff" points="2713.75,-275.19 2720.62,-267.12 2710.22,-269.14 2713.75,-275.19"/>
</a>
</g>
</g>
<!-- Node18&#45;&gt;Node3 -->
<g id="edge48_Node000018_Node000003" class="edge">
<title>Node18&#45;&gt;Node3</title>
<g id="a_edge48_Node000018_Node000003"><a xlink:title=" ">
<path fill="none" stroke="#63b8ff" d="M2729.69,-274.22C2705.36,-298.7 2668.28,-332.5 2630.25,-353.92 2544.01,-402.49 2516.26,-407.39 2418.5,-422.92 2344.32,-434.7 2324.21,-430.7 2249.5,-422.92 2232.32,-421.13 2213.96,-417.92 2196.94,-414.39"/>
<polygon fill="#63b8ff" stroke="#63b8ff" points="2731.88,-276.98 2736.37,-267.39 2726.88,-272.09 2731.88,-276.98"/>
</a>
</g>
</g>
<!-- Node18&#45;&gt;Node17 -->
<g id="edge51_Node000018_Node000017" class="edge">
<title>Node18&#45;&gt;Node17</title>
<g id="a_edge51_Node000018_Node000017"><a xlink:title=" ">
<path fill="none" stroke="#63b8ff" d="M2654.79,-232.05C2545.39,-219.94 2367.51,-201.6 2213.5,-191.92 2141.59,-187.4 2059.53,-184.5 2001.1,-182.82"/>
<polygon fill="#63b8ff" stroke="#63b8ff" points="2654.31,-235.52 2664.63,-233.14 2655.08,-228.56 2654.31,-235.52"/>
</a>
</g>
</g>
<!-- Node19 -->
<g id="Node000019" class="node">
<title>Node19</title>
<g id="a_Node000019"><a xlink:href="classediteurpanovisu_1_1GestionnaireInterfaceController.html#af7f1e67219c75f044a231abc76bcf790" target="_top" xlink:title=" ">
<polygon fill="white" stroke="#666666" points="2617.88,-303.92 2466.88,-303.92 2466.88,-259.92 2617.88,-259.92 2617.88,-303.92"/>
<text xml:space="preserve" text-anchor="start" x="2474.88" y="-290.42" font-family="Helvetica,sans-Serif" font-size="10.00">editeurpanovisu.Gestionnaire</text>
<text xml:space="preserve" text-anchor="start" x="2474.88" y="-278.42" font-family="Helvetica,sans-Serif" font-size="10.00">InterfaceController.afficheBarre</text>
<text xml:space="preserve" text-anchor="middle" x="2542.38" y="-266.42" font-family="Helvetica,sans-Serif" font-size="10.00">Classique</text>
</a>
</g>
</g>
<!-- Node18&#45;&gt;Node19 -->
<g id="edge31_Node000018_Node000019" class="edge">
<title>Node18&#45;&gt;Node19</title>
<g id="a_edge31_Node000018_Node000019"><a xlink:title=" ">
<path fill="none" stroke="#63b8ff" d="M2654.79,-262.19C2642.49,-264.37 2630.12,-266.56 2618.32,-268.65"/>
<polygon fill="#63b8ff" stroke="#63b8ff" points="2655.32,-265.65 2664.56,-260.46 2654.1,-258.76 2655.32,-265.65"/>
</a>
</g>
</g>
<!-- Node25 -->
<g id="Node000025" class="node">
<title>Node25</title>
<g id="a_Node000025"><a xlink:href="classediteurpanovisu_1_1GestionnaireInterfaceController.html#adfe4c44c6a7320ef314eca16dc9afcb3" target="_top" xlink:title="pannel des niveaux de calque">
<polygon fill="white" stroke="#666666" points="2630.25,-161.92 2454.5,-161.92 2454.5,-129.92 2630.25,-129.92 2630.25,-161.92"/>
<text xml:space="preserve" text-anchor="start" x="2462.5" y="-148.42" font-family="Helvetica,sans-Serif" font-size="10.00">editeurpanovisu.Gestionnaire</text>
<text xml:space="preserve" text-anchor="middle" x="2542.38" y="-136.42" font-family="Helvetica,sans-Serif" font-size="10.00">InterfaceController.apAfficheCalques</text>
</a>
</g>
</g>
<!-- Node18&#45;&gt;Node25 -->
<g id="edge49_Node000018_Node000025" class="edge">
<title>Node18&#45;&gt;Node25</title>
<g id="a_edge49_Node000018_Node000025"><a xlink:title=" ">
<path fill="none" stroke="#63b8ff" d="M2709.9,-216.01C2686.32,-202.94 2657.26,-187.68 2630.25,-175.92 2619.13,-171.08 2606.96,-166.46 2595.34,-162.37"/>
<polygon fill="#63b8ff" stroke="#63b8ff" points="2707.89,-218.9 2718.32,-220.73 2711.31,-212.79 2707.89,-218.9"/>
</a>
</g>
</g>
<!-- Node19&#45;&gt;Node2 -->
<g id="edge32_Node000019_Node000002" class="edge">
<title>Node19&#45;&gt;Node2</title>
<g id="a_edge32_Node000019_Node000002"><a xlink:title=" ">
<path fill="none" stroke="#63b8ff" d="M2478.86,-309.54C2470.47,-313.99 2462.13,-318.83 2454.5,-323.92 2436.69,-335.8 2436.56,-344.42 2418.5,-355.92 2410.78,-360.84 2402.27,-365.37 2393.72,-369.45"/>
<polygon fill="#63b8ff" stroke="#63b8ff" points="2480.44,-312.67 2487.74,-304.99 2477.24,-306.44 2480.44,-312.67"/>
</a>
</g>
</g>
<!-- Node19&#45;&gt;Node3 -->
<g id="edge33_Node000019_Node000003" class="edge">
<title>Node19&#45;&gt;Node3</title>
<g id="a_edge33_Node000019_Node000003"><a xlink:title=" ">
<path fill="none" stroke="#63b8ff" d="M2476.59,-308.46C2458.04,-315.43 2437.65,-322.51 2418.5,-327.92 2344.86,-348.74 2323.51,-341.45 2249.5,-360.92 2233.19,-365.21 2229.57,-367.81 2213.5,-372.92 2204.63,-375.74 2195.21,-378.66 2186.01,-381.46"/>
<polygon fill="#63b8ff" stroke="#63b8ff" points="2477.77,-311.75 2485.86,-304.92 2475.27,-305.21 2477.77,-311.75"/>
</a>
</g>
</g>
<!-- Node19&#45;&gt;Node17 -->
<g id="edge45_Node000019_Node000017" class="edge">
<title>Node19&#45;&gt;Node17</title>
<g id="a_edge45_Node000019_Node000017"><a xlink:title=" ">
<path fill="none" stroke="#63b8ff" d="M2480.89,-255.25C2461.32,-247.58 2439.29,-239.94 2418.5,-234.92 2378.98,-225.37 2130.23,-200.7 2001.11,-188.28"/>
<polygon fill="#63b8ff" stroke="#63b8ff" points="2479.5,-258.46 2490.08,-258.93 2482.1,-251.96 2479.5,-258.46"/>
</a>
</g>
</g>
<!-- Node20 -->
<g id="Node000020" class="node">
<title>Node20</title>
<g id="a_Node000020"><a xlink:href="classediteurpanovisu_1_1GestionnaireInterfaceController.html#a5bdd1505c1ad1eee506c2618c9368994" target="_top" xlink:title=" ">
<polygon fill="white" stroke="#666666" points="2418.5,-275.92 2249.5,-275.92 2249.5,-243.92 2418.5,-243.92 2418.5,-275.92"/>
<text xml:space="preserve" text-anchor="start" x="2257.5" y="-262.42" font-family="Helvetica,sans-Serif" font-size="10.00">editeurpanovisu.Gestionnaire</text>
<text xml:space="preserve" text-anchor="middle" x="2334" y="-250.42" font-family="Helvetica,sans-Serif" font-size="10.00">InterfaceController.afficheVignettes</text>
</a>
</g>
</g>
<!-- Node19&#45;&gt;Node20 -->
<g id="edge34_Node000019_Node000020" class="edge">
<title>Node19&#45;&gt;Node20</title>
<g id="a_edge34_Node000019_Node000020"><a xlink:title=" ">
<path fill="none" stroke="#63b8ff" d="M2455.21,-272.73C2443.22,-271.46 2430.92,-270.15 2418.98,-268.87"/>
<polygon fill="#63b8ff" stroke="#63b8ff" points="2454.76,-276.21 2465.07,-273.79 2455.5,-269.24 2454.76,-276.21"/>
</a>
</g>
</g>
<!-- Node22 -->
<g id="Node000022" class="node">
<title>Node22</title>
<g id="a_Node000022"><a xlink:href="classediteurpanovisu_1_1GestionnaireInterfaceController.html#a568c34e865fb653f63b8fa7a9a9cafc8" target="_top" xlink:title=" ">
<polygon fill="white" stroke="#666666" points="2200.75,-363.92 2058.75,-363.92 2058.75,-331.92 2200.75,-331.92 2200.75,-363.92"/>
<text xml:space="preserve" text-anchor="start" x="2066.75" y="-350.42" font-family="Helvetica,sans-Serif" font-size="10.00">editeurpanovisu.Gestionnaire</text>
<text xml:space="preserve" text-anchor="middle" x="2129.75" y="-338.42" font-family="Helvetica,sans-Serif" font-size="10.00">InterfaceController.rafraichit</text>
</a>
</g>
</g>
<!-- Node19&#45;&gt;Node22 -->
<g id="edge46_Node000019_Node000022" class="edge">
<title>Node19&#45;&gt;Node22</title>
<g id="a_edge46_Node000019_Node000022"><a xlink:title=" ">
<path fill="none" stroke="#63b8ff" d="M2455.31,-295.24C2397.16,-304.3 2318.68,-316.64 2249.5,-327.92 2233.82,-330.48 2216.98,-333.28 2201.06,-335.95"/>
<polygon fill="#63b8ff" stroke="#63b8ff" points="2455.82,-298.7 2465.16,-293.71 2454.74,-291.79 2455.82,-298.7"/>
</a>
</g>
</g>
<!-- Node20&#45;&gt;Node3 -->
<g id="edge35_Node000020_Node000003" class="edge">
<title>Node20&#45;&gt;Node3</title>
<g id="a_edge35_Node000020_Node000003"><a xlink:title=" ">
<path fill="none" stroke="#63b8ff" d="M2301.2,-283.24C2285.02,-295.73 2265.45,-311.83 2249.5,-327.92 2231.47,-346.11 2234.71,-358.57 2213.5,-372.92 2208.65,-376.2 2203.36,-379.06 2197.87,-381.55"/>
<polygon fill="#63b8ff" stroke="#63b8ff" points="2303.24,-286.08 2309.08,-277.24 2299,-280.51 2303.24,-286.08"/>
</a>
</g>
</g>
<!-- Node20&#45;&gt;Node17 -->
<g id="edge38_Node000020_Node000017" class="edge">
<title>Node20&#45;&gt;Node17</title>
<g id="a_edge38_Node000020_Node000017"><a xlink:title=" ">
<path fill="none" stroke="#63b8ff" d="M2285.83,-280.28C2225.42,-302.95 2119.72,-330.76 2046,-284.92 2015.28,-265.82 2037,-236 2010,-211.92 2003.33,-205.97 1995.44,-201.14 1987.19,-197.23"/>
<polygon fill="#63b8ff" stroke="#63b8ff" points="2286.73,-283.69 2294.8,-276.82 2284.21,-277.16 2286.73,-283.69"/>
</a>
</g>
</g>
<!-- Node21 -->
<g id="Node000021" class="node">
<title>Node21</title>
<g id="a_Node000021"><a xlink:href="classediteurpanovisu_1_1GestionnaireInterfaceController.html#a8c634f775c31c1a4db22d5ef0659f7e4" target="_top" xlink:title=" ">
<polygon fill="white" stroke="#666666" points="2203.38,-275.92 2056.12,-275.92 2056.12,-243.92 2203.38,-243.92 2203.38,-275.92"/>
<text xml:space="preserve" text-anchor="start" x="2064.12" y="-262.42" font-family="Helvetica,sans-Serif" font-size="10.00">editeurpanovisu.Gestionnaire</text>
<text xml:space="preserve" text-anchor="middle" x="2129.75" y="-250.42" font-family="Helvetica,sans-Serif" font-size="10.00">InterfaceController.afficheTitre</text>
</a>
</g>
</g>
<!-- Node20&#45;&gt;Node21 -->
<g id="edge36_Node000020_Node000021" class="edge">
<title>Node20&#45;&gt;Node21</title>
<g id="a_edge36_Node000020_Node000021"><a xlink:title=" ">
<path fill="none" stroke="#63b8ff" d="M2237.87,-259.92C2226.41,-259.92 2214.84,-259.92 2203.76,-259.92"/>
<polygon fill="#63b8ff" stroke="#63b8ff" points="2237.76,-263.42 2247.76,-259.92 2237.76,-256.42 2237.76,-263.42"/>
</a>
</g>
</g>
<!-- Node20&#45;&gt;Node22 -->
<g id="edge39_Node000020_Node000022" class="edge">
<title>Node20&#45;&gt;Node22</title>
<g id="a_edge39_Node000020_Node000022"><a xlink:title=" ">
<path fill="none" stroke="#63b8ff" d="M2268.83,-280.6C2262.17,-283.45 2255.61,-286.56 2249.5,-289.92 2231.74,-299.69 2231.25,-308.12 2213.5,-317.92 2204.27,-323.02 2194,-327.54 2183.93,-331.44"/>
<polygon fill="#63b8ff" stroke="#63b8ff" points="2269.97,-283.92 2277.93,-276.92 2267.35,-277.43 2269.97,-283.92"/>
</a>
</g>
</g>
<!-- Node21&#45;&gt;Node17 -->
<g id="edge37_Node000021_Node000017" class="edge">
<title>Node21&#45;&gt;Node17</title>
<g id="a_edge37_Node000021_Node000017"><a xlink:title=" ">
<path fill="none" stroke="#63b8ff" d="M2070.07,-239.6C2061.93,-236.5 2053.71,-233.23 2046,-229.92 2029.56,-222.86 2026.45,-218.95 2010,-211.92 1997.97,-206.78 1984.77,-201.75 1972.39,-197.29"/>
<polygon fill="#63b8ff" stroke="#63b8ff" points="2068.67,-242.82 2079.27,-243.03 2071.12,-236.26 2068.67,-242.82"/>
</a>
</g>
</g>
<!-- Node22&#45;&gt;Node4 -->
<g id="edge40_Node000022_Node000004" class="edge">
<title>Node22&#45;&gt;Node4</title>
<g id="a_edge40_Node000022_Node000004"><a xlink:title=" ">
<path fill="none" stroke="#63b8ff" d="M2047.02,-357.08C2035,-358.43 2022.57,-359.82 2010.45,-361.18"/>
<polygon fill="#63b8ff" stroke="#63b8ff" points="2047.35,-360.56 2056.9,-355.97 2046.57,-353.61 2047.35,-360.56"/>
</a>
</g>
</g>
<!-- Node23 -->
<g id="Node000023" class="node">
<title>Node23</title>
<g id="a_Node000023"><a xlink:href="classediteurpanovisu_1_1EditeurPanovisu.html#a53cccf6a6b2693c872947460b66ae8ee" target="_top" xlink:title=" ">
<polygon fill="white" stroke="#666666" points="1348.5,-152.92 1173.5,-152.92 1173.5,-120.92 1348.5,-120.92 1348.5,-152.92"/>
<text xml:space="preserve" text-anchor="start" x="1181.5" y="-139.42" font-family="Helvetica,sans-Serif" font-size="10.00">editeurpanovisu.EditeurPanovisu.tsk</text>
<text xml:space="preserve" text-anchor="middle" x="1261" y="-127.42" font-family="Helvetica,sans-Serif" font-size="10.00">ChargeListeFichiers</text>
</a>
</g>
</g>
<!-- Node22&#45;&gt;Node23 -->
<g id="edge41_Node000022_Node000023" class="edge">
<title>Node22&#45;&gt;Node23</title>
<g id="a_edge41_Node000022_Node000023"><a xlink:title=" ">
<path fill="none" stroke="#63b8ff" d="M2050.08,-328.77C1881.54,-287.74 1488.09,-191.96 1329.77,-153.42"/>
<polygon fill="#63b8ff" stroke="#63b8ff" points="2049.08,-332.13 2059.63,-331.09 2050.74,-325.33 2049.08,-332.13"/>
</a>
</g>
</g>
<!-- Node23&#45;&gt;Node13 -->
<g id="edge44_Node000023_Node000013" class="edge">
<title>Node23&#45;&gt;Node13</title>
<g id="a_edge44_Node000023_Node000013"><a xlink:title=" ">
<path fill="none" stroke="#63b8ff" d="M1161.88,-136.92C1152.2,-136.92 1142.38,-136.92 1132.73,-136.92"/>
<polygon fill="#63b8ff" stroke="#63b8ff" points="1161.65,-140.42 1171.65,-136.92 1161.65,-133.42 1161.65,-140.42"/>
</a>
</g>
</g>
<!-- Node24 -->
<g id="Node000024" class="node">
<title>Node24</title>
<g id="a_Node000024"><a xlink:href="classediteurpanovisu_1_1EditeurPanovisu.html#a924d3ccff3e4f402d2309cd2eade3237" target="_top" xlink:title=" ">
<polygon fill="white" stroke="#666666" points="905.5,-155.92 683.25,-155.92 683.25,-123.92 905.5,-123.92 905.5,-155.92"/>
<text xml:space="preserve" text-anchor="start" x="691.25" y="-142.42" font-family="Helvetica,sans-Serif" font-size="10.00">editeurpanovisu.EditeurPanovisu.panoramiques</text>
<text xml:space="preserve" text-anchor="middle" x="794.38" y="-130.42" font-family="Helvetica,sans-Serif" font-size="10.00">Ajouter</text>
</a>
</g>
</g>
<!-- Node23&#45;&gt;Node24 -->
<g id="edge42_Node000023_Node000024" class="edge">
<title>Node23&#45;&gt;Node24</title>
<g id="a_edge42_Node000023_Node000024"><a xlink:title=" ">
<path fill="none" stroke="#63b8ff" d="M1177.43,-118.34C1162.47,-115.67 1146.95,-113.34 1132.25,-111.92 1047.87,-103.74 1025.9,-103.91 941.5,-111.92 916.94,-114.25 890.37,-118.74 866.71,-123.45"/>
<polygon fill="#63b8ff" stroke="#63b8ff" points="1176.78,-121.78 1187.25,-120.17 1178.06,-114.9 1176.78,-121.78"/>
</a>
</g>
</g>
<!-- Node24&#45;&gt;Node6 -->
<g id="edge43_Node000024_Node000006" class="edge">
<title>Node24&#45;&gt;Node6</title>
<g id="a_edge43_Node000024_Node000006"><a xlink:title=" ">
<path fill="none" stroke="#63b8ff" d="M671.59,-137.86C606.19,-140.19 525.13,-148.7 456.5,-172.92 404.67,-191.21 353.05,-233.07 330.79,-252.57"/>
<polygon fill="#63b8ff" stroke="#63b8ff" points="671.38,-141.37 681.27,-137.56 671.17,-134.37 671.38,-141.37"/>
</a>
</g>
</g>
<!-- Node25&#45;&gt;Node17 -->
<g id="edge50_Node000025_Node000017" class="edge">
<title>Node25&#45;&gt;Node17</title>
<g id="a_edge50_Node000025_Node000017"><a xlink:title=" ">
<path fill="none" stroke="#63b8ff" d="M2443.11,-146.55C2343.03,-147.89 2183.45,-151.92 2046,-163.92 2031.35,-165.2 2015.77,-167.01 2000.8,-168.98"/>
<polygon fill="#63b8ff" stroke="#63b8ff" points="2442.94,-150.06 2452.9,-146.43 2442.85,-143.06 2442.94,-150.06"/>
</a>
</g>
</g>
<!-- Node27 -->
<g id="Node000027" class="node">
<title>Node27</title>
<g id="a_Node000027"><a xlink:href="classediteurpanovisu_1_1EditeurPanovisu.html#aaee69ab54364f89b58458c744a4195c0" target="_top" xlink:title=" ">
<polygon fill="white" stroke="#666666" points="1577.5,-92.92 1389.75,-92.92 1389.75,-60.92 1577.5,-60.92 1577.5,-92.92"/>
<text xml:space="preserve" text-anchor="start" x="1397.75" y="-79.42" font-family="Helvetica,sans-Serif" font-size="10.00">editeurpanovisu.EditeurPanovisu.sauve</text>
<text xml:space="preserve" text-anchor="middle" x="1483.62" y="-67.42" font-family="Helvetica,sans-Serif" font-size="10.00">FichierProjet</text>
</a>
</g>
</g>
<!-- Node26&#45;&gt;Node27 -->
<g id="edge53_Node000026_Node000027" class="edge">
<title>Node26&#45;&gt;Node27</title>
<g id="a_edge53_Node000026_Node000027"><a xlink:title=" ">
<path fill="none" stroke="#63b8ff" d="M2664.45,-61.62C2578.74,-62.19 2448.33,-62.92 2335,-62.92 2335,-62.92 2335,-62.92 1921.5,-62.92 1802.93,-62.92 1666.35,-68.13 1577.92,-72.2"/>
<polygon fill="#63b8ff" stroke="#63b8ff" points="2664.23,-65.12 2674.21,-61.55 2664.19,-58.12 2664.23,-65.12"/>
</a>
</g>
</g>
<!-- Node27&#45;&gt;Node10 -->
<g id="edge54_Node000027_Node000010" class="edge">
<title>Node27&#45;&gt;Node10</title>
<g id="a_edge54_Node000027_Node000010"><a xlink:title=" ">
<path fill="none" stroke="#63b8ff" d="M1455.35,-100.78C1409.89,-140.54 1319.8,-219.36 1280.76,-253.51"/>
<polygon fill="#63b8ff" stroke="#63b8ff" points="1457.45,-103.59 1462.68,-94.37 1452.84,-98.32 1457.45,-103.59"/>
</a>
</g>
</g>
<!-- Node27&#45;&gt;Node16 -->
<g id="edge55_Node000027_Node000016" class="edge">
<title>Node27&#45;&gt;Node16</title>
<g id="a_edge55_Node000027_Node000016"><a xlink:title=" ">
<path fill="none" stroke="#63b8ff" d="M1378.13,-76.92C1370.14,-76.92 1362.11,-76.92 1354.21,-76.92"/>
<polygon fill="#63b8ff" stroke="#63b8ff" points="1377.87,-80.42 1387.87,-76.92 1377.87,-73.42 1377.87,-80.42"/>
</a>
</g>
</g>
</g>
</svg>
