<?xml version="1.0" encoding="UTF-8" standalone="no"?>
<!DOCTYPE svg PUBLIC "-//W3C//DTD SVG 1.1//EN"
 "http://www.w3.org/Graphics/SVG/1.1/DTD/svg11.dtd">
<!-- Generated by graphviz version 13.1.2 (20250808.2320)
 -->
<!-- Title: editeurpanovisu.GestionnaireInterfaceController.getTailleImageVignettes Pages: 1 -->
<!--zoomable 515 -->

<svg id="main" version="1.1" xmlns="http://www.w3.org/2000/svg" xmlns:xlink="http://www.w3.org/1999/xlink" xml:space="preserve" onload="init(evt)">

<style type="text/css"><![CDATA[
.node, .edge {opacity: 0.7;}
.node.selected, .edge.selected {opacity: 1;}
.edge:hover path { stroke: red; }
.edge:hover polygon { stroke: red; fill: red; }
]]></style>

<defs>
  <circle id="rim" cx="0" cy="0" r="7"/>
  <circle id="rim2" cx="0" cy="0" r="3.5"/>
  <g id="zoomPlus">
    <use xlink:href="#rim" fill="#404040"><set attributeName="fill" to="#808080" begin="zoomplus.mouseover" end="zoomplus.mouseout"/></use>
    <path d="M-4,0h8M0,-4v8" fill="none" stroke="white" stroke-width="1.5" pointer-events="none"/>
  </g>
  <g id="zoomMin">
    <use xlink:href="#rim" fill="#404040"><set attributeName="fill" to="#808080" begin="zoomminus.mouseover" end="zoomminus.mouseout"/></use>
    <path d="M-4,0h8" fill="none" stroke="white" stroke-width="1.5" pointer-events="none"/>
  </g>
  <g id="arrowUp" transform="translate(30 24)">
    <use xlink:href="#rim"/>
    <path pointer-events="none" fill="none" stroke="white" stroke-width="1.5" d="M0,-3.0v7 M-2.5,-0.5L0,-3.0L2.5,-0.5"/>
  </g>
  <g id="arrowRight" transform="rotate(90) translate(36 -43)">
    <use xlink:href="#rim"/>
    <path pointer-events="none" fill="none" stroke="white" stroke-width="1.5" d="M0,-3.0v7 M-2.5,-0.5L0,-3.0L2.5,-0.5"/>
  </g>
  <g id="arrowDown" transform="rotate(180) translate(-30 -48)">
    <use xlink:href="#rim"/>
    <path pointer-events="none" fill="none" stroke="white" stroke-width="1.5" d="M0,-3.0v7 M-2.5,-0.5L0,-3.0L2.5,-0.5"/>
  </g>
  <g id="arrowLeft" transform="rotate(270) translate(-36 17)">
    <use xlink:href="#rim"/>
    <path pointer-events="none" fill="none" stroke="white" stroke-width="1.5" d="M0,-3.0v7 M-2.5,-0.5L0,-3.0L2.5,-0.5"/>
  </g>
  <g id="resetDef">
    <use xlink:href="#rim2" fill="#404040"><set attributeName="fill" to="#808080" begin="reset.mouseover" end="reset.mouseout"/></use>
  </g>
</defs>
<script type="application/ecmascript">
var viewWidth = 2827;
var viewHeight = 515;
var sectionId = 'dynsection-212';
</script>
<script type="application/ecmascript" xlink:href="svg.min.js"/>
<svg id="graph" class="graph">
<g id="viewport">
<title>editeurpanovisu.GestionnaireInterfaceController.getTailleImageVignettes</title>
<!-- Node1 -->
<g id="Node000001" class="node">
<title>Node1</title>
<g id="a_Node000001"><a xlink:title=" ">
<polygon fill="#999999" stroke="#666666" points="2818.75,-296 2656.5,-296 2656.5,-252 2818.75,-252 2818.75,-296"/>
<text xml:space="preserve" text-anchor="start" x="2664.5" y="-282.5" font-family="Helvetica,sans-Serif" font-size="10.00">editeurpanovisu.Gestionnaire</text>
<text xml:space="preserve" text-anchor="start" x="2664.5" y="-270.5" font-family="Helvetica,sans-Serif" font-size="10.00">InterfaceController.getTailleImage</text>
<text xml:space="preserve" text-anchor="middle" x="2737.62" y="-258.5" font-family="Helvetica,sans-Serif" font-size="10.00">Vignettes</text>
</a>
</g>
</g>
<!-- Node2 -->
<g id="Node000002" class="node">
<title>Node2</title>
<g id="a_Node000002"><a xlink:href="classediteurpanovisu_1_1GestionnaireInterfaceController.html#af7f1e67219c75f044a231abc76bcf790" target="_top" xlink:title=" ">
<polygon fill="white" stroke="#666666" points="2613,-179 2462,-179 2462,-135 2613,-135 2613,-179"/>
<text xml:space="preserve" text-anchor="start" x="2470" y="-165.5" font-family="Helvetica,sans-Serif" font-size="10.00">editeurpanovisu.Gestionnaire</text>
<text xml:space="preserve" text-anchor="start" x="2470" y="-153.5" font-family="Helvetica,sans-Serif" font-size="10.00">InterfaceController.afficheBarre</text>
<text xml:space="preserve" text-anchor="middle" x="2537.5" y="-141.5" font-family="Helvetica,sans-Serif" font-size="10.00">Classique</text>
</a>
</g>
</g>
<!-- Node1&#45;&gt;Node2 -->
<g id="edge1_Node000001_Node000002" class="edge">
<title>Node1&#45;&gt;Node2</title>
<g id="a_edge1_Node000001_Node000002"><a xlink:title=" ">
<path fill="none" stroke="#63b8ff" d="M2689.03,-245.9C2654.52,-225.52 2608.47,-198.32 2576.43,-179.4"/>
<polygon fill="#63b8ff" stroke="#63b8ff" points="2687.2,-248.88 2697.59,-250.95 2690.76,-242.85 2687.2,-248.88"/>
</a>
</g>
</g>
<!-- Node4 -->
<g id="Node000004" class="node">
<title>Node4</title>
<g id="a_Node000004"><a xlink:href="classediteurpanovisu_1_1GestionnaireInterfaceController.html#a55c8afda208674955a13d48d02be41b8" target="_top" xlink:title=" ">
<polygon fill="white" stroke="#666666" points="2213.5,-246 2046,-246 2046,-214 2213.5,-214 2213.5,-246"/>
<text xml:space="preserve" text-anchor="start" x="2054" y="-232.5" font-family="Helvetica,sans-Serif" font-size="10.00">editeurpanovisu.Gestionnaire</text>
<text xml:space="preserve" text-anchor="middle" x="2129.75" y="-220.5" font-family="Helvetica,sans-Serif" font-size="10.00">InterfaceController.afficheTemplate</text>
</a>
</g>
</g>
<!-- Node1&#45;&gt;Node4 -->
<g id="edge42_Node000001_Node000004" class="edge">
<title>Node1&#45;&gt;Node4</title>
<g id="a_edge42_Node000001_Node000004"><a xlink:title=" ">
<path fill="none" stroke="#63b8ff" d="M2644.76,-275.01C2546.55,-275.03 2386.45,-271.96 2249.5,-255 2233.09,-252.97 2215.57,-249.83 2199.18,-246.46"/>
<polygon fill="#63b8ff" stroke="#63b8ff" points="2644.62,-278.51 2654.61,-275 2644.61,-271.51 2644.62,-278.51"/>
</a>
</g>
</g>
<!-- Node12 -->
<g id="Node000012" class="node">
<title>Node12</title>
<g id="a_Node000012"><a xlink:href="classediteurpanovisu_1_1EditeurPanovisu.html#a94e36b9e9d09ab1a4c852b8a8cefa927" target="_top" xlink:title=" ">
<polygon fill="white" stroke="#666666" points="663,-306 472.25,-306 472.25,-274 663,-274 663,-306"/>
<text xml:space="preserve" text-anchor="start" x="480.25" y="-292.5" font-family="Helvetica,sans-Serif" font-size="10.00">editeurpanovisu.EditeurPanovisu.genere</text>
<text xml:space="preserve" text-anchor="middle" x="567.62" y="-280.5" font-family="Helvetica,sans-Serif" font-size="10.00">Visite</text>
</a>
</g>
</g>
<!-- Node1&#45;&gt;Node12 -->
<g id="edge44_Node000001_Node000012" class="edge">
<title>Node1&#45;&gt;Node12</title>
<g id="a_edge44_Node000001_Node000012"><a xlink:title=" ">
<path fill="none" stroke="#63b8ff" d="M2703.89,-303.91C2638.8,-360.14 2486.32,-476 2335,-476 2335,-476 2335,-476 1705.25,-476 1365.45,-476 1274.77,-507.31 941.5,-441 806.9,-414.22 659.24,-339.59 597.88,-306.34"/>
<polygon fill="#63b8ff" stroke="#63b8ff" points="2706.12,-306.6 2711.34,-297.39 2701.51,-301.34 2706.12,-306.6"/>
</a>
</g>
</g>
<!-- Node18 -->
<g id="Node000018" class="node">
<title>Node18</title>
<g id="a_Node000018"><a xlink:href="classediteurpanovisu_1_1GestionnaireInterfaceController.html#a5bdd1505c1ad1eee506c2618c9368994" target="_top" xlink:title=" ">
<polygon fill="white" stroke="#666666" points="2418.5,-70 2249.5,-70 2249.5,-38 2418.5,-38 2418.5,-70"/>
<text xml:space="preserve" text-anchor="start" x="2257.5" y="-56.5" font-family="Helvetica,sans-Serif" font-size="10.00">editeurpanovisu.Gestionnaire</text>
<text xml:space="preserve" text-anchor="middle" x="2334" y="-44.5" font-family="Helvetica,sans-Serif" font-size="10.00">InterfaceController.afficheVignettes</text>
</a>
</g>
</g>
<!-- Node1&#45;&gt;Node18 -->
<g id="edge43_Node000001_Node000018" class="edge">
<title>Node1&#45;&gt;Node18</title>
<g id="a_edge43_Node000001_Node000018"><a xlink:title=" ">
<path fill="none" stroke="#63b8ff" d="M2719.82,-241.72C2700.45,-207.74 2665.42,-155.19 2620.5,-126 2559.85,-86.59 2479.02,-68.75 2418.85,-60.67"/>
<polygon fill="#63b8ff" stroke="#63b8ff" points="2716.68,-243.26 2724.59,-250.31 2722.79,-239.86 2716.68,-243.26"/>
</a>
</g>
</g>
<!-- Node24 -->
<g id="Node000024" class="node">
<title>Node24</title>
<g id="a_Node000024"><a xlink:href="classediteurpanovisu_1_1GestionnaireInterfaceController.html#ab66509c63a85a8285a081b24049e8774" target="_top" xlink:title=" ">
<polygon fill="white" stroke="#666666" points="2620.5,-334 2454.5,-334 2454.5,-302 2620.5,-302 2620.5,-334"/>
<text xml:space="preserve" text-anchor="start" x="2462.5" y="-320.5" font-family="Helvetica,sans-Serif" font-size="10.00">editeurpanovisu.Gestionnaire</text>
<text xml:space="preserve" text-anchor="middle" x="2537.5" y="-308.5" font-family="Helvetica,sans-Serif" font-size="10.00">InterfaceController.strGetTemplate</text>
</a>
</g>
</g>
<!-- Node1&#45;&gt;Node24 -->
<g id="edge45_Node000001_Node000024" class="edge">
<title>Node1&#45;&gt;Node24</title>
<g id="a_edge45_Node000001_Node000024"><a xlink:title=" ">
<path fill="none" stroke="#63b8ff" d="M2644.85,-294.38C2634.05,-296.78 2623.14,-299.2 2612.63,-301.54"/>
<polygon fill="#63b8ff" stroke="#63b8ff" points="2645.56,-297.81 2654.56,-292.22 2644.04,-290.98 2645.56,-297.81"/>
</a>
</g>
</g>
<!-- Node3 -->
<g id="Node000003" class="node">
<title>Node3</title>
<g id="a_Node000003"><a xlink:href="classediteurpanovisu_1_1GestionnaireInterfaceController.html#a7c5cff6934d95be9a4babb6426a5ac26" target="_top" xlink:title=" ">
<polygon fill="white" stroke="#666666" points="2414,-246 2254,-246 2254,-202 2414,-202 2414,-246"/>
<text xml:space="preserve" text-anchor="start" x="2262" y="-232.5" font-family="Helvetica,sans-Serif" font-size="10.00">editeurpanovisu.Gestionnaire</text>
<text xml:space="preserve" text-anchor="start" x="2262" y="-220.5" font-family="Helvetica,sans-Serif" font-size="10.00">InterfaceController.afficheImages</text>
<text xml:space="preserve" text-anchor="middle" x="2334" y="-208.5" font-family="Helvetica,sans-Serif" font-size="10.00">FondInterface</text>
</a>
</g>
</g>
<!-- Node2&#45;&gt;Node3 -->
<g id="edge2_Node000002_Node000003" class="edge">
<title>Node2&#45;&gt;Node3</title>
<g id="a_edge2_Node000002_Node000003"><a xlink:title=" ">
<path fill="none" stroke="#63b8ff" d="M2458.16,-183.05C2439.77,-189.16 2420.34,-195.62 2402.48,-201.56"/>
<polygon fill="#63b8ff" stroke="#63b8ff" points="2459.02,-186.45 2467.41,-179.97 2456.81,-179.81 2459.02,-186.45"/>
</a>
</g>
</g>
<!-- Node2&#45;&gt;Node4 -->
<g id="edge3_Node000002_Node000004" class="edge">
<title>Node2&#45;&gt;Node4</title>
<g id="a_edge3_Node000002_Node000004"><a xlink:title=" ">
<path fill="none" stroke="#63b8ff" d="M2450.35,-163.79C2393,-169.29 2316.21,-178.54 2249.5,-193 2225.12,-198.28 2198.57,-206.33 2176.77,-213.57"/>
<polygon fill="#63b8ff" stroke="#63b8ff" points="2450.42,-167.3 2460.05,-162.88 2449.77,-160.33 2450.42,-167.3"/>
</a>
</g>
</g>
<!-- Node2&#45;&gt;Node18 -->
<g id="edge29_Node000002_Node000018" class="edge">
<title>Node2&#45;&gt;Node18</title>
<g id="a_edge29_Node000002_Node000018"><a xlink:title=" ">
<path fill="none" stroke="#63b8ff" d="M2495.09,-128.41C2472.99,-113.93 2444.96,-96.76 2418.5,-84 2408.23,-79.05 2396.93,-74.45 2386.04,-70.42"/>
<polygon fill="#63b8ff" stroke="#63b8ff" points="2492.95,-131.2 2503.22,-133.81 2496.82,-125.36 2492.95,-131.2"/>
</a>
</g>
</g>
<!-- Node20 -->
<g id="Node000020" class="node">
<title>Node20</title>
<g id="a_Node000020"><a xlink:href="classediteurpanovisu_1_1GestionnaireInterfaceController.html#ac7fa988dc99d8684686127a2269cd66e" target="_top" xlink:title=" ">
<polygon fill="white" stroke="#666666" points="2000.62,-76 1844.38,-76 1844.38,-44 2000.62,-44 2000.62,-76"/>
<text xml:space="preserve" text-anchor="start" x="1852.38" y="-62.5" font-family="Helvetica,sans-Serif" font-size="10.00">editeurpanovisu.Gestionnaire</text>
<text xml:space="preserve" text-anchor="middle" x="1922.5" y="-50.5" font-family="Helvetica,sans-Serif" font-size="10.00">InterfaceController.creeInterface</text>
</a>
</g>
</g>
<!-- Node2&#45;&gt;Node20 -->
<g id="edge40_Node000002_Node000020" class="edge">
<title>Node2&#45;&gt;Node20</title>
<g id="a_edge40_Node000002_Node000020"><a xlink:title=" ">
<path fill="none" stroke="#63b8ff" d="M2450.36,-143.37C2330.61,-124.42 2115.66,-90.41 2000.82,-72.23"/>
<polygon fill="#63b8ff" stroke="#63b8ff" points="2449.72,-146.81 2460.15,-144.92 2450.82,-139.9 2449.72,-146.81"/>
</a>
</g>
</g>
<!-- Node21 -->
<g id="Node000021" class="node">
<title>Node21</title>
<g id="a_Node000021"><a xlink:href="classediteurpanovisu_1_1GestionnaireInterfaceController.html#a568c34e865fb653f63b8fa7a9a9cafc8" target="_top" xlink:title=" ">
<polygon fill="white" stroke="#666666" points="2200.75,-158 2058.75,-158 2058.75,-126 2200.75,-126 2200.75,-158"/>
<text xml:space="preserve" text-anchor="start" x="2066.75" y="-144.5" font-family="Helvetica,sans-Serif" font-size="10.00">editeurpanovisu.Gestionnaire</text>
<text xml:space="preserve" text-anchor="middle" x="2129.75" y="-132.5" font-family="Helvetica,sans-Serif" font-size="10.00">InterfaceController.rafraichit</text>
</a>
</g>
</g>
<!-- Node2&#45;&gt;Node21 -->
<g id="edge41_Node000002_Node000021" class="edge">
<title>Node2&#45;&gt;Node21</title>
<g id="a_edge41_Node000002_Node000021"><a xlink:title=" ">
<path fill="none" stroke="#63b8ff" d="M2450.44,-153.82C2376.22,-151.07 2270.38,-147.16 2201.13,-144.6"/>
<polygon fill="#63b8ff" stroke="#63b8ff" points="2449.97,-157.3 2460.09,-154.18 2450.23,-150.31 2449.97,-157.3"/>
</a>
</g>
</g>
<!-- Node5 -->
<g id="Node000005" class="node">
<title>Node5</title>
<g id="a_Node000005"><a xlink:href="classediteurpanovisu_1_1EditeurPanovisu.html#a87b29dc258cfc67370b1f27809e91b8e" target="_top" xlink:title=" ">
<polygon fill="white" stroke="#666666" points="2010,-372 1835,-372 1835,-340 2010,-340 2010,-372"/>
<text xml:space="preserve" text-anchor="start" x="1843" y="-358.5" font-family="Helvetica,sans-Serif" font-size="10.00">editeurpanovisu.EditeurPanovisu.tsk</text>
<text xml:space="preserve" text-anchor="middle" x="1922.5" y="-346.5" font-family="Helvetica,sans-Serif" font-size="10.00">AnalyseFichierPVU</text>
</a>
</g>
</g>
<!-- Node4&#45;&gt;Node5 -->
<g id="edge4_Node000004_Node000005" class="edge">
<title>Node4&#45;&gt;Node5</title>
<g id="a_edge4_Node000004_Node000005"><a xlink:title=" ">
<path fill="none" stroke="#63b8ff" d="M2092.12,-252.49C2051.4,-277.49 1986.61,-317.26 1950.34,-339.52"/>
<polygon fill="#63b8ff" stroke="#63b8ff" points="2093.94,-255.48 2100.63,-247.26 2090.27,-249.51 2093.94,-255.48"/>
</a>
</g>
</g>
<!-- Node6 -->
<g id="Node000006" class="node">
<title>Node6</title>
<g id="a_Node000006"><a xlink:href="classediteurpanovisu_1_1EditeurPanovisu.html#ab4beb1597b660a4a253befc6e76f1c54" target="_top" xlink:title=" ">
<polygon fill="white" stroke="#666666" points="1129.62,-432 944.12,-432 944.12,-400 1129.62,-400 1129.62,-432"/>
<text xml:space="preserve" text-anchor="start" x="952.12" y="-418.5" font-family="Helvetica,sans-Serif" font-size="10.00">editeurpanovisu.EditeurPanovisu.projet</text>
<text xml:space="preserve" text-anchor="middle" x="1036.88" y="-406.5" font-family="Helvetica,sans-Serif" font-size="10.00">Charge</text>
</a>
</g>
</g>
<!-- Node5&#45;&gt;Node6 -->
<g id="edge5_Node000005_Node000006" class="edge">
<title>Node5&#45;&gt;Node6</title>
<g id="a_edge5_Node000005_Node000006"><a xlink:title=" ">
<path fill="none" stroke="#63b8ff" d="M1839.12,-374.63C1825.77,-377.13 1812.04,-379.38 1799,-381 1558.94,-410.83 1273.45,-415.9 1129.94,-416.37"/>
<polygon fill="#63b8ff" stroke="#63b8ff" points="1839.59,-378.11 1848.75,-372.77 1838.26,-371.23 1839.59,-378.11"/>
</a>
</g>
</g>
<!-- Node9 -->
<g id="Node000009" class="node">
<title>Node9</title>
<g id="a_Node000009"><a xlink:href="classediteurpanovisu_1_1EditeurPanovisu.html#a6d19b4d885ee6fcec827b91956295732" target="_top" xlink:title=" ">
<polygon fill="white" stroke="#666666" points="1799,-372 1613.5,-372 1613.5,-340 1799,-340 1799,-372"/>
<text xml:space="preserve" text-anchor="start" x="1621.5" y="-358.5" font-family="Helvetica,sans-Serif" font-size="10.00">editeurpanovisu.EditeurPanovisu.projet</text>
<text xml:space="preserve" text-anchor="middle" x="1706.25" y="-346.5" font-family="Helvetica,sans-Serif" font-size="10.00">ChargeNom</text>
</a>
</g>
</g>
<!-- Node5&#45;&gt;Node9 -->
<g id="edge8_Node000005_Node000009" class="edge">
<title>Node5&#45;&gt;Node9</title>
<g id="a_edge8_Node000005_Node000009"><a xlink:title=" ">
<path fill="none" stroke="#63b8ff" d="M1823.16,-356C1815.26,-356 1807.3,-356 1799.45,-356"/>
<polygon fill="#63b8ff" stroke="#63b8ff" points="1823.15,-359.5 1833.15,-356 1823.15,-352.5 1823.15,-359.5"/>
</a>
</g>
</g>
<!-- Node7 -->
<g id="Node000007" class="node">
<title>Node7</title>
<g id="a_Node000007"><a xlink:href="classediteurpanovisu_1_1EditeurPanovisu.html#ac912b80c1f2ac97def60ff005c5c480b" target="_top" xlink:title=" ">
<polygon fill="white" stroke="#666666" points="420.5,-322 216.25,-322 216.25,-302 420.5,-302 420.5,-322"/>
<text xml:space="preserve" text-anchor="middle" x="318.38" y="-308.5" font-family="Helvetica,sans-Serif" font-size="10.00">editeurpanovisu.EditeurPanovisu.creeMenu</text>
</a>
</g>
</g>
<!-- Node6&#45;&gt;Node7 -->
<g id="edge6_Node000006_Node000007" class="edge">
<title>Node6&#45;&gt;Node7</title>
<g id="a_edge6_Node000006_Node000007"><a xlink:title=" ">
<path fill="none" stroke="#63b8ff" d="M961.1,-434.92C847.86,-459.86 627.9,-493.59 456.5,-430 396.72,-407.82 345.53,-346.62 326.89,-322.23"/>
<polygon fill="#63b8ff" stroke="#63b8ff" points="961.59,-438.4 970.58,-432.8 960.06,-431.57 961.59,-438.4"/>
</a>
</g>
</g>
<!-- Node8 -->
<g id="Node000008" class="node">
<title>Node8</title>
<g id="a_Node000008"><a xlink:href="classediteurpanovisu_1_1EditeurPanovisu.html#a86c393eee88f54c694db994ddd85b90d" target="_top" xlink:title=" ">
<polygon fill="white" stroke="#666666" points="180.25,-328 0,-328 0,-296 180.25,-296 180.25,-328"/>
<text xml:space="preserve" text-anchor="start" x="8" y="-314.5" font-family="Helvetica,sans-Serif" font-size="10.00">editeurpanovisu.EditeurPanovisu.cree</text>
<text xml:space="preserve" text-anchor="middle" x="90.12" y="-302.5" font-family="Helvetica,sans-Serif" font-size="10.00">Environnement</text>
</a>
</g>
</g>
<!-- Node7&#45;&gt;Node8 -->
<g id="edge7_Node000007_Node000008" class="edge">
<title>Node7&#45;&gt;Node8</title>
<g id="a_edge7_Node000007_Node000008"><a xlink:title=" ">
<path fill="none" stroke="#63b8ff" d="M204.51,-312C196.49,-312 188.46,-312 180.6,-312"/>
<polygon fill="#63b8ff" stroke="#63b8ff" points="204.32,-315.5 214.32,-312 204.32,-308.5 204.32,-315.5"/>
</a>
</g>
</g>
<!-- Node9&#45;&gt;Node7 -->
<g id="edge28_Node000009_Node000007" class="edge">
<title>Node9&#45;&gt;Node7</title>
<g id="a_edge28_Node000009_Node000007"><a xlink:title=" ">
<path fill="none" stroke="#63b8ff" d="M1649.41,-376.2C1535.86,-415.4 1269.16,-498 1037.88,-498 1037.88,-498 1037.88,-498 809.12,-498 651.59,-498 597.24,-532.78 456.5,-462 390.94,-429.03 341.39,-350.61 325.11,-322.37"/>
<polygon fill="#63b8ff" stroke="#63b8ff" points="1650.51,-379.52 1658.81,-372.93 1648.21,-372.91 1650.51,-379.52"/>
</a>
</g>
</g>
<!-- Node10 -->
<g id="Node000010" class="node">
<title>Node10</title>
<g id="a_Node000010"><a xlink:href="classediteurpanovisu_1_1EditeurPanovisu.html#af0d1c32bb78acbff561c822a0d15f760" target="_top" xlink:title=" ">
<polygon fill="white" stroke="#666666" points="1577.5,-372 1389.75,-372 1389.75,-340 1577.5,-340 1577.5,-372"/>
<text xml:space="preserve" text-anchor="start" x="1397.75" y="-358.5" font-family="Helvetica,sans-Serif" font-size="10.00">editeurpanovisu.EditeurPanovisu.ajoute</text>
<text xml:space="preserve" text-anchor="middle" x="1483.62" y="-346.5" font-family="Helvetica,sans-Serif" font-size="10.00">FichierHisto</text>
</a>
</g>
</g>
<!-- Node9&#45;&gt;Node10 -->
<g id="edge9_Node000009_Node000010" class="edge">
<title>Node9&#45;&gt;Node10</title>
<g id="a_edge9_Node000009_Node000010"><a xlink:title=" ">
<path fill="none" stroke="#63b8ff" d="M1601.97,-349.26C1593.92,-349.23 1585.83,-349.25 1577.86,-349.32"/>
<polygon fill="#63b8ff" stroke="#63b8ff" points="1601.75,-352.76 1611.77,-349.32 1601.79,-345.76 1601.75,-352.76"/>
</a>
</g>
</g>
<!-- Node10&#45;&gt;Node6 -->
<g id="edge10_Node000010_Node000006" class="edge">
<title>Node10&#45;&gt;Node6</title>
<g id="a_edge10_Node000010_Node000006"><a xlink:title=" ">
<path fill="none" stroke="#63b8ff" d="M1378.11,-362.53C1316.74,-367.22 1237.8,-374.73 1168.25,-386 1146.47,-389.53 1122.9,-394.57 1101.87,-399.52"/>
<polygon fill="#63b8ff" stroke="#63b8ff" points="1378.14,-366.03 1387.85,-361.8 1377.62,-359.05 1378.14,-366.03"/>
</a>
</g>
</g>
<!-- Node10&#45;&gt;Node9 -->
<g id="edge11_Node000010_Node000009" class="edge">
<title>Node10&#45;&gt;Node9</title>
<g id="a_edge11_Node000010_Node000009"><a xlink:title=" ">
<path fill="none" stroke="#63b8ff" d="M1589.19,-362.74C1597.24,-362.76 1605.33,-362.74 1613.28,-362.67"/>
<polygon fill="#63b8ff" stroke="#63b8ff" points="1589.4,-359.24 1579.38,-362.69 1589.36,-366.24 1589.4,-359.24"/>
</a>
</g>
</g>
<!-- Node11 -->
<g id="Node000011" class="node">
<title>Node11</title>
<g id="a_Node000011"><a xlink:href="classediteurpanovisu_1_1EditeurPanovisu.html#a9f3ea25b35d4884524508dab3dc4fd6a" target="_top" xlink:title=" ">
<polygon fill="white" stroke="#666666" points="1353.75,-328 1168.25,-328 1168.25,-296 1353.75,-296 1353.75,-328"/>
<text xml:space="preserve" text-anchor="start" x="1176.25" y="-314.5" font-family="Helvetica,sans-Serif" font-size="10.00">editeurpanovisu.EditeurPanovisu.projet</text>
<text xml:space="preserve" text-anchor="middle" x="1261" y="-302.5" font-family="Helvetica,sans-Serif" font-size="10.00">Sauve</text>
</a>
</g>
</g>
<!-- Node10&#45;&gt;Node11 -->
<g id="edge12_Node000010_Node000011" class="edge">
<title>Node10&#45;&gt;Node11</title>
<g id="a_edge12_Node000010_Node000011"><a xlink:title=" ">
<path fill="none" stroke="#63b8ff" d="M1389.01,-337.33C1374.29,-334.4 1359.18,-331.38 1344.73,-328.5"/>
<polygon fill="#63b8ff" stroke="#63b8ff" points="1388.18,-340.73 1398.67,-339.26 1389.55,-333.87 1388.18,-340.73"/>
</a>
</g>
</g>
<!-- Node17 -->
<g id="Node000017" class="node">
<title>Node17</title>
<g id="a_Node000017"><a xlink:href="classediteurpanovisu_1_1EditeurPanovisu.html#a7b2e25dc717eb52b62e23d54ec4c124a" target="_top" xlink:title=" ">
<polygon fill="white" stroke="#666666" points="1353.75,-278 1168.25,-278 1168.25,-246 1353.75,-246 1353.75,-278"/>
<text xml:space="preserve" text-anchor="start" x="1176.25" y="-264.5" font-family="Helvetica,sans-Serif" font-size="10.00">editeurpanovisu.EditeurPanovisu.projet</text>
<text xml:space="preserve" text-anchor="middle" x="1261" y="-252.5" font-family="Helvetica,sans-Serif" font-size="10.00">SauveSous</text>
</a>
</g>
</g>
<!-- Node10&#45;&gt;Node17 -->
<g id="edge26_Node000010_Node000017" class="edge">
<title>Node10&#45;&gt;Node17</title>
<g id="a_edge26_Node000010_Node000017"><a xlink:title=" ">
<path fill="none" stroke="#63b8ff" d="M1446.46,-333.79C1421.19,-318.99 1386.29,-299.95 1353.75,-287 1345.93,-283.89 1337.58,-281.02 1329.23,-278.43"/>
<polygon fill="#63b8ff" stroke="#63b8ff" points="1444.63,-336.77 1455.02,-338.86 1448.2,-330.75 1444.63,-336.77"/>
</a>
</g>
</g>
<!-- Node11&#45;&gt;Node6 -->
<g id="edge16_Node000011_Node000006" class="edge">
<title>Node11&#45;&gt;Node6</title>
<g id="a_edge16_Node000011_Node000006"><a xlink:title=" ">
<path fill="none" stroke="#63b8ff" d="M1190.08,-332.87C1182.43,-336.39 1174.98,-340.42 1168.25,-345 1148.21,-358.65 1152.55,-372.73 1132.25,-386 1124.05,-391.36 1114.82,-395.82 1105.43,-399.52"/>
<polygon fill="#63b8ff" stroke="#63b8ff" points="1191.37,-336.12 1199.2,-328.98 1188.63,-329.69 1191.37,-336.12"/>
</a>
</g>
</g>
<!-- Node11&#45;&gt;Node7 -->
<g id="edge13_Node000011_Node000007" class="edge">
<title>Node11&#45;&gt;Node7</title>
<g id="a_edge13_Node000011_Node000007"><a xlink:title=" ">
<path fill="none" stroke="#63b8ff" d="M1170.9,-330.58C1157.97,-332.94 1144.79,-335.17 1132.25,-337 835.07,-380.39 754.19,-376.73 456.5,-337 427.84,-333.18 396.05,-327.47 370.31,-322.48"/>
<polygon fill="#63b8ff" stroke="#63b8ff" points="1171.5,-334.03 1180.69,-328.75 1170.21,-327.14 1171.5,-334.03"/>
</a>
</g>
</g>
<!-- Node11&#45;&gt;Node9 -->
<g id="edge17_Node000011_Node000009" class="edge">
<title>Node11&#45;&gt;Node9</title>
<g id="a_edge17_Node000011_Node000009"><a xlink:title=" ">
<path fill="none" stroke="#63b8ff" d="M1365.42,-314.76C1427.17,-317.27 1507.04,-322.02 1577.5,-331 1594.54,-333.17 1612.72,-336.26 1629.86,-339.52"/>
<polygon fill="#63b8ff" stroke="#63b8ff" points="1365.75,-311.27 1355.62,-314.37 1365.48,-318.26 1365.75,-311.27"/>
</a>
</g>
</g>
<!-- Node11&#45;&gt;Node12 -->
<g id="edge14_Node000011_Node000012" class="edge">
<title>Node11&#45;&gt;Node12</title>
<g id="a_edge14_Node000011_Node000012"><a xlink:title=" ">
<path fill="none" stroke="#63b8ff" d="M1156.41,-308.7C1022.89,-304.46 792.61,-297.13 663.48,-293.02"/>
<polygon fill="#63b8ff" stroke="#63b8ff" points="1156.21,-312.2 1166.32,-309.02 1156.44,-305.2 1156.21,-312.2"/>
</a>
</g>
</g>
<!-- Node13 -->
<g id="Node000013" class="node">
<title>Node13</title>
<g id="a_Node000013"><a xlink:href="classediteurpanovisu_1_1EditeurPanovisu.html#a9b46b222714af12c06ec33d410400773" target="_top" xlink:title=" ">
<polygon fill="white" stroke="#666666" points="905.5,-350 714.75,-350 714.75,-318 905.5,-318 905.5,-350"/>
<text xml:space="preserve" text-anchor="start" x="722.75" y="-336.5" font-family="Helvetica,sans-Serif" font-size="10.00">editeurpanovisu.EditeurPanovisu.projets</text>
<text xml:space="preserve" text-anchor="middle" x="810.12" y="-324.5" font-family="Helvetica,sans-Serif" font-size="10.00">Fermer</text>
</a>
</g>
</g>
<!-- Node11&#45;&gt;Node13 -->
<g id="edge18_Node000011_Node000013" class="edge">
<title>Node11&#45;&gt;Node13</title>
<g id="a_edge18_Node000011_Node000013"><a xlink:title=" ">
<path fill="none" stroke="#63b8ff" d="M1156.39,-317.08C1080.85,-320.78 979.3,-325.76 905.9,-329.35"/>
<polygon fill="#63b8ff" stroke="#63b8ff" points="1156.48,-320.58 1166.3,-316.59 1156.14,-313.59 1156.48,-320.58"/>
</a>
</g>
</g>
<!-- Node14 -->
<g id="Node000014" class="node">
<title>Node14</title>
<g id="a_Node000014"><a xlink:href="classediteurpanovisu_1_1EditeurPanovisu.html#ac9d449399ccd38843fa12e716f0c9611" target="_top" xlink:title=" ">
<polygon fill="white" stroke="#666666" points="1132.25,-180 941.5,-180 941.5,-148 1132.25,-148 1132.25,-180"/>
<text xml:space="preserve" text-anchor="start" x="949.5" y="-166.5" font-family="Helvetica,sans-Serif" font-size="10.00">editeurpanovisu.EditeurPanovisu.projets</text>
<text xml:space="preserve" text-anchor="middle" x="1036.88" y="-154.5" font-family="Helvetica,sans-Serif" font-size="10.00">Nouveau</text>
</a>
</g>
</g>
<!-- Node11&#45;&gt;Node14 -->
<g id="edge20_Node000011_Node000014" class="edge">
<title>Node11&#45;&gt;Node14</title>
<g id="a_edge20_Node000011_Node000014"><a xlink:title=" ">
<path fill="none" stroke="#63b8ff" d="M1171.08,-289.41C1170.11,-288.63 1169.17,-287.83 1168.25,-287 1135.33,-257.32 1164.54,-224.36 1132.25,-194 1126.36,-188.46 1119.46,-183.95 1112.1,-180.27"/>
<polygon fill="#63b8ff" stroke="#63b8ff" points="1168.85,-292.12 1179.08,-294.85 1172.79,-286.33 1168.85,-292.12"/>
</a>
</g>
</g>
<!-- Node15 -->
<g id="Node000015" class="node">
<title>Node15</title>
<g id="a_Node000015"><a xlink:href="classediteurpanovisu_1_1EditeurPanovisu.html#a2b3125ffe2e6291efacf19df6cb30a8d" target="_top" xlink:title=" ">
<polygon fill="white" stroke="#666666" points="900.62,-218 719.62,-218 719.62,-198 900.62,-198 900.62,-218"/>
<text xml:space="preserve" text-anchor="middle" x="810.12" y="-204.5" font-family="Helvetica,sans-Serif" font-size="10.00">editeurpanovisu.EditeurPanovisu.start</text>
</a>
</g>
</g>
<!-- Node11&#45;&gt;Node15 -->
<g id="edge25_Node000011_Node000015" class="edge">
<title>Node11&#45;&gt;Node15</title>
<g id="a_edge25_Node000011_Node000015"><a xlink:title=" ">
<path fill="none" stroke="#63b8ff" d="M1172.43,-289.96C1171,-289.01 1169.61,-288.03 1168.25,-287 1143.46,-268.22 1158.85,-243.11 1132.25,-227 1094.69,-204.25 982.11,-202.28 900.84,-204.14"/>
<polygon fill="#63b8ff" stroke="#63b8ff" points="1170.59,-292.93 1181,-294.87 1174.07,-286.86 1170.59,-292.93"/>
</a>
</g>
</g>
<!-- Node16 -->
<g id="Node000016" class="node">
<title>Node16</title>
<g id="a_Node000016"><a xlink:href="classediteurpanovisu_1_1EditeurPanovisu.html#aef8c9b28c3e88d6e27e3f62b9a901134" target="_top" xlink:title=" ">
<polygon fill="white" stroke="#666666" points="1130.75,-268 943,-268 943,-236 1130.75,-236 1130.75,-268"/>
<text xml:space="preserve" text-anchor="start" x="951" y="-254.5" font-family="Helvetica,sans-Serif" font-size="10.00">editeurpanovisu.EditeurPanovisu.sauve</text>
<text xml:space="preserve" text-anchor="middle" x="1036.88" y="-242.5" font-family="Helvetica,sans-Serif" font-size="10.00">Fichiers</text>
</a>
</g>
</g>
<!-- Node11&#45;&gt;Node16 -->
<g id="edge24_Node000011_Node000016" class="edge">
<title>Node11&#45;&gt;Node16</title>
<g id="a_edge24_Node000011_Node000016"><a xlink:title=" ">
<path fill="none" stroke="#63b8ff" d="M1188.17,-292.6C1159.3,-284.8 1126.39,-275.91 1098.73,-268.44"/>
<polygon fill="#63b8ff" stroke="#63b8ff" points="1186.98,-295.9 1197.55,-295.13 1188.81,-289.14 1186.98,-295.9"/>
</a>
</g>
</g>
<!-- Node12&#45;&gt;Node7 -->
<g id="edge15_Node000012_Node000007" class="edge">
<title>Node12&#45;&gt;Node7</title>
<g id="a_edge15_Node000012_Node000007"><a xlink:title=" ">
<path fill="none" stroke="#63b8ff" d="M460.99,-299.4C447.68,-300.58 434.09,-301.79 420.85,-302.97"/>
<polygon fill="#63b8ff" stroke="#63b8ff" points="460.93,-302.92 470.58,-298.55 460.31,-295.95 460.93,-302.92"/>
</a>
</g>
</g>
<!-- Node13&#45;&gt;Node7 -->
<g id="edge19_Node000013_Node000007" class="edge">
<title>Node13&#45;&gt;Node7</title>
<g id="a_edge19_Node000013_Node000007"><a xlink:title=" ">
<path fill="none" stroke="#63b8ff" d="M703.08,-329.24C619.42,-325.48 503.48,-320.27 420.99,-316.56"/>
<polygon fill="#63b8ff" stroke="#63b8ff" points="702.75,-332.72 712.89,-329.68 703.06,-325.73 702.75,-332.72"/>
</a>
</g>
</g>
<!-- Node14&#45;&gt;Node7 -->
<g id="edge21_Node000014_Node000007" class="edge">
<title>Node14&#45;&gt;Node7</title>
<g id="a_edge21_Node000014_Node000007"><a xlink:title=" ">
<path fill="none" stroke="#63b8ff" d="M929.93,-166.7C866.98,-169.68 785.83,-175.92 714.75,-189 597.08,-210.65 570.51,-228.71 456.5,-265 419.09,-276.91 376.35,-291.76 348.67,-301.54"/>
<polygon fill="#63b8ff" stroke="#63b8ff" points="929.72,-170.21 939.55,-166.27 929.4,-163.22 929.72,-170.21"/>
</a>
</g>
</g>
<!-- Node14&#45;&gt;Node15 -->
<g id="edge22_Node000014_Node000015" class="edge">
<title>Node14&#45;&gt;Node15</title>
<g id="a_edge22_Node000014_Node000015"><a xlink:title=" ">
<path fill="none" stroke="#63b8ff" d="M940.81,-182.61C914.81,-187.7 887.53,-193.04 864.74,-197.5"/>
<polygon fill="#63b8ff" stroke="#63b8ff" points="941.24,-186.09 950.38,-180.74 939.9,-179.22 941.24,-186.09"/>
</a>
</g>
</g>
<!-- Node15&#45;&gt;Node12 -->
<g id="edge23_Node000015_Node000012" class="edge">
<title>Node15&#45;&gt;Node12</title>
<g id="a_edge23_Node000015_Node000012"><a xlink:title=" ">
<path fill="none" stroke="#63b8ff" d="M768,-222.02C726.04,-236.33 660.97,-258.51 616.67,-273.62"/>
<polygon fill="#63b8ff" stroke="#63b8ff" points="768.9,-225.41 777.23,-218.87 766.64,-218.79 768.9,-225.41"/>
</a>
</g>
</g>
<!-- Node17&#45;&gt;Node7 -->
<g id="edge27_Node000017_Node000007" class="edge">
<title>Node17&#45;&gt;Node7</title>
<g id="a_edge27_Node000017_Node000007"><a xlink:title=" ">
<path fill="none" stroke="#63b8ff" d="M1236.69,-237.68C1203.48,-203.33 1145.15,-144.2 1132.25,-139 1053.62,-107.3 1026.15,-134.39 941.5,-139 724.98,-150.8 655.03,-104.8 456.5,-192 397.99,-217.7 346.44,-277.56 327.3,-301.66"/>
<polygon fill="#63b8ff" stroke="#63b8ff" points="1234.03,-239.97 1243.49,-244.74 1239.07,-235.11 1234.03,-239.97"/>
</a>
</g>
</g>
<!-- Node18&#45;&gt;Node4 -->
<g id="edge30_Node000018_Node000004" class="edge">
<title>Node18&#45;&gt;Node4</title>
<g id="a_edge30_Node000018_Node000004"><a xlink:title=" ">
<path fill="none" stroke="#63b8ff" d="M2308.83,-78.32C2285.18,-101.76 2247.81,-137.86 2213.5,-167 2193.96,-183.6 2170.63,-201.17 2153.74,-213.52"/>
<polygon fill="#63b8ff" stroke="#63b8ff" points="2311.2,-80.9 2315.82,-71.36 2306.26,-75.94 2311.2,-80.9"/>
</a>
</g>
</g>
<!-- Node19 -->
<g id="Node000019" class="node">
<title>Node19</title>
<g id="a_Node000019"><a xlink:href="classediteurpanovisu_1_1GestionnaireInterfaceController.html#a8c634f775c31c1a4db22d5ef0659f7e4" target="_top" xlink:title=" ">
<polygon fill="white" stroke="#666666" points="2203.38,-32 2056.12,-32 2056.12,0 2203.38,0 2203.38,-32"/>
<text xml:space="preserve" text-anchor="start" x="2064.12" y="-18.5" font-family="Helvetica,sans-Serif" font-size="10.00">editeurpanovisu.Gestionnaire</text>
<text xml:space="preserve" text-anchor="middle" x="2129.75" y="-6.5" font-family="Helvetica,sans-Serif" font-size="10.00">InterfaceController.afficheTitre</text>
</a>
</g>
</g>
<!-- Node18&#45;&gt;Node19 -->
<g id="edge31_Node000018_Node000019" class="edge">
<title>Node18&#45;&gt;Node19</title>
<g id="a_edge31_Node000018_Node000019"><a xlink:title=" ">
<path fill="none" stroke="#63b8ff" d="M2238.23,-36.19C2226.65,-34.02 2214.96,-31.82 2203.76,-29.72"/>
<polygon fill="#63b8ff" stroke="#63b8ff" points="2237.32,-39.58 2247.79,-37.99 2238.61,-32.7 2237.32,-39.58"/>
</a>
</g>
</g>
<!-- Node18&#45;&gt;Node20 -->
<g id="edge33_Node000018_Node000020" class="edge">
<title>Node18&#45;&gt;Node20</title>
<g id="a_edge33_Node000018_Node000020"><a xlink:title=" ">
<path fill="none" stroke="#63b8ff" d="M2237.82,-55.39C2165.84,-56.45 2068.26,-57.88 2001.01,-58.86"/>
<polygon fill="#63b8ff" stroke="#63b8ff" points="2237.68,-58.9 2247.63,-55.25 2237.58,-51.9 2237.68,-58.9"/>
</a>
</g>
</g>
<!-- Node18&#45;&gt;Node21 -->
<g id="edge34_Node000018_Node000021" class="edge">
<title>Node18&#45;&gt;Node21</title>
<g id="a_edge34_Node000018_Node000021"><a xlink:title=" ">
<path fill="none" stroke="#63b8ff" d="M2285.26,-74.77C2249.57,-90.3 2201.46,-111.23 2168.46,-125.59"/>
<polygon fill="#63b8ff" stroke="#63b8ff" points="2286.27,-78.15 2294.04,-70.95 2283.48,-71.73 2286.27,-78.15"/>
</a>
</g>
</g>
<!-- Node19&#45;&gt;Node20 -->
<g id="edge32_Node000019_Node000020" class="edge">
<title>Node19&#45;&gt;Node20</title>
<g id="a_edge32_Node000019_Node000020"><a xlink:title=" ">
<path fill="none" stroke="#63b8ff" d="M2044.71,-34.02C2030.04,-37.16 2014.84,-40.42 2000.37,-43.52"/>
<polygon fill="#63b8ff" stroke="#63b8ff" points="2045.28,-37.47 2054.33,-31.95 2043.82,-30.63 2045.28,-37.47"/>
</a>
</g>
</g>
<!-- Node21&#45;&gt;Node5 -->
<g id="edge35_Node000021_Node000005" class="edge">
<title>Node21&#45;&gt;Node5</title>
<g id="a_edge35_Node000021_Node000005"><a xlink:title=" ">
<path fill="none" stroke="#63b8ff" d="M2095.04,-164.85C2079.42,-176.13 2061.03,-190.43 2046,-205 2000.2,-249.41 1955.25,-310.55 1934.87,-339.51"/>
<polygon fill="#63b8ff" stroke="#63b8ff" points="2096.99,-167.76 2103.12,-159.12 2092.94,-162.05 2096.99,-167.76"/>
</a>
</g>
</g>
<!-- Node22 -->
<g id="Node000022" class="node">
<title>Node22</title>
<g id="a_Node000022"><a xlink:href="classediteurpanovisu_1_1EditeurPanovisu.html#a53cccf6a6b2693c872947460b66ae8ee" target="_top" xlink:title=" ">
<polygon fill="white" stroke="#666666" points="1348.5,-158 1173.5,-158 1173.5,-126 1348.5,-126 1348.5,-158"/>
<text xml:space="preserve" text-anchor="start" x="1181.5" y="-144.5" font-family="Helvetica,sans-Serif" font-size="10.00">editeurpanovisu.EditeurPanovisu.tsk</text>
<text xml:space="preserve" text-anchor="middle" x="1261" y="-132.5" font-family="Helvetica,sans-Serif" font-size="10.00">ChargeListeFichiers</text>
</a>
</g>
</g>
<!-- Node21&#45;&gt;Node22 -->
<g id="edge36_Node000021_Node000022" class="edge">
<title>Node21&#45;&gt;Node22</title>
<g id="a_edge36_Node000021_Node000022"><a xlink:title=" ">
<path fill="none" stroke="#63b8ff" d="M2047.13,-142C1883.45,-142 1516.48,-142 1348.69,-142"/>
<polygon fill="#63b8ff" stroke="#63b8ff" points="2047.04,-145.5 2057.04,-142 2047.04,-138.5 2047.04,-145.5"/>
</a>
</g>
</g>
<!-- Node22&#45;&gt;Node14 -->
<g id="edge39_Node000022_Node000014" class="edge">
<title>Node22&#45;&gt;Node14</title>
<g id="a_edge39_Node000022_Node000014"><a xlink:title=" ">
<path fill="none" stroke="#63b8ff" d="M1161.88,-151.72C1152.2,-152.68 1142.38,-153.65 1132.73,-154.61"/>
<polygon fill="#63b8ff" stroke="#63b8ff" points="1162.05,-155.22 1171.66,-150.75 1161.36,-148.25 1162.05,-155.22"/>
</a>
</g>
</g>
<!-- Node23 -->
<g id="Node000023" class="node">
<title>Node23</title>
<g id="a_Node000023"><a xlink:href="classediteurpanovisu_1_1EditeurPanovisu.html#a924d3ccff3e4f402d2309cd2eade3237" target="_top" xlink:title=" ">
<polygon fill="white" stroke="#666666" points="678.75,-92 456.5,-92 456.5,-60 678.75,-60 678.75,-92"/>
<text xml:space="preserve" text-anchor="start" x="464.5" y="-78.5" font-family="Helvetica,sans-Serif" font-size="10.00">editeurpanovisu.EditeurPanovisu.panoramiques</text>
<text xml:space="preserve" text-anchor="middle" x="567.62" y="-66.5" font-family="Helvetica,sans-Serif" font-size="10.00">Ajouter</text>
</a>
</g>
</g>
<!-- Node22&#45;&gt;Node23 -->
<g id="edge37_Node000022_Node000023" class="edge">
<title>Node22&#45;&gt;Node23</title>
<g id="a_edge37_Node000022_Node000023"><a xlink:title=" ">
<path fill="none" stroke="#63b8ff" d="M1200.59,-122.31C1179.27,-116.03 1154.9,-109.75 1132.25,-106 976.36,-80.21 793.23,-75.01 679.03,-74.69"/>
<polygon fill="#63b8ff" stroke="#63b8ff" points="1199.4,-125.61 1209.99,-125.14 1201.42,-118.9 1199.4,-125.61"/>
</a>
</g>
</g>
<!-- Node23&#45;&gt;Node7 -->
<g id="edge38_Node000023_Node000007" class="edge">
<title>Node23&#45;&gt;Node7</title>
<g id="a_edge38_Node000023_Node000007"><a xlink:title=" ">
<path fill="none" stroke="#63b8ff" d="M471.22,-97.1C466.06,-99.73 461.1,-102.68 456.5,-106 381.93,-159.77 336.21,-267.6 323.21,-301.53"/>
<polygon fill="#63b8ff" stroke="#63b8ff" points="472.37,-100.43 480,-93.08 469.45,-94.06 472.37,-100.43"/>
</a>
</g>
</g>
<!-- Node25 -->
<g id="Node000025" class="node">
<title>Node25</title>
<g id="a_Node000025"><a xlink:href="classediteurpanovisu_1_1EditeurPanovisu.html#aaee69ab54364f89b58458c744a4195c0" target="_top" xlink:title=" ">
<polygon fill="white" stroke="#666666" points="1577.5,-284 1389.75,-284 1389.75,-252 1577.5,-252 1577.5,-284"/>
<text xml:space="preserve" text-anchor="start" x="1397.75" y="-270.5" font-family="Helvetica,sans-Serif" font-size="10.00">editeurpanovisu.EditeurPanovisu.sauve</text>
<text xml:space="preserve" text-anchor="middle" x="1483.62" y="-258.5" font-family="Helvetica,sans-Serif" font-size="10.00">FichierProjet</text>
</a>
</g>
</g>
<!-- Node24&#45;&gt;Node25 -->
<g id="edge46_Node000024_Node000025" class="edge">
<title>Node24&#45;&gt;Node25</title>
<g id="a_edge46_Node000024_Node000025"><a xlink:title=" ">
<path fill="none" stroke="#63b8ff" d="M2442.8,-315.83C2360.57,-314.11 2237.73,-312 2130.75,-312 2130.75,-312 2130.75,-312 1921.5,-312 1802.39,-312 1665.93,-295.61 1577.67,-282.84"/>
<polygon fill="#63b8ff" stroke="#63b8ff" points="2442.55,-319.32 2452.62,-316.04 2442.69,-312.33 2442.55,-319.32"/>
</a>
</g>
</g>
<!-- Node25&#45;&gt;Node11 -->
<g id="edge47_Node000025_Node000011" class="edge">
<title>Node25&#45;&gt;Node11</title>
<g id="a_edge47_Node000025_Node000011"><a xlink:title=" ">
<path fill="none" stroke="#63b8ff" d="M1389.01,-286.67C1374.29,-289.6 1359.18,-292.62 1344.73,-295.5"/>
<polygon fill="#63b8ff" stroke="#63b8ff" points="1389.55,-290.13 1398.67,-284.74 1388.18,-283.27 1389.55,-290.13"/>
</a>
</g>
</g>
<!-- Node25&#45;&gt;Node17 -->
<g id="edge48_Node000025_Node000017" class="edge">
<title>Node25&#45;&gt;Node17</title>
<g id="a_edge48_Node000025_Node000017"><a xlink:title=" ">
<path fill="none" stroke="#63b8ff" d="M1378.13,-265.16C1370.14,-264.94 1362.11,-264.72 1354.21,-264.51"/>
<polygon fill="#63b8ff" stroke="#63b8ff" points="1377.78,-268.65 1387.87,-265.42 1377.97,-261.65 1377.78,-268.65"/>
</a>
</g>
</g>
</g>
</svg>

<g id="navigator" transform="translate(0 0)" fill="#404254">
  <rect fill="#f2f5e9" fill-opacity="0.5" stroke="#606060" stroke-width=".5" x="0" y="0" width="60" height="60"/>
  <use id="zoomplus" xlink:href="#zoomPlus" x="17" y="9" onmousedown="handleZoom(evt,'in')"/>
  <use id="zoomminus" xlink:href="#zoomMin" x="42" y="9" onmousedown="handleZoom(evt,'out')"/>
  <use id="reset" xlink:href="#resetDef" x="30" y="36" onmousedown="handleReset()"/>
   <use id="arrowup" xlink:href="#arrowUp" x="0" y="0" onmousedown="handlePan(0,-1)"/>
  <use id="arrowright" xlink:href="#arrowRight" x="0" y="0" onmousedown="handlePan(1,0)"/>
  <use id="arrowdown" xlink:href="#arrowDown" x="0" y="0" onmousedown="handlePan(0,1)"/>
  <use id="arrowleft" xlink:href="#arrowLeft" x="0" y="0" onmousedown="handlePan(-1,0)"/>
</g>
<svg viewBox="0 0 15 15" width="100%" height="30px" preserveAspectRatio="xMaxYMin meet">
 <g id="arrow_out" transform="scale(0.3 0.3)">
  <a xlink:href="classediteurpanovisu_1_1GestionnaireInterfaceController_a9141693c4dd3062cad910852c556300a_icgraph_org.svg" target="_base">
   <rect id="button" ry="5" rx="5" y="6" x="6" height="38" width="38"
        fill="#f2f5e9" fill-opacity="0.5" stroke="#606060" stroke-width="1.0"/>
   <path id="arrow"
     d="M 11.500037,31.436501 C 11.940474,20.09759 22.043105,11.32322 32.158766,21.979434 L 37.068811,17.246167 C 37.068811,17.246167 37.088388,32 37.088388,32 L 22.160133,31.978069 C 22.160133,31.978069 26.997745,27.140456 26.997745,27.140456 C 18.528582,18.264221 13.291696,25.230495 11.500037,31.436501 z"
     style="fill:#404040;"/>
  </a>
 </g>
</svg>

<style type='text/css'>
<![CDATA[
[data-mouse-over-selected='false'] { opacity: 0.7; }
[data-mouse-over-selected='true']  { opacity: 1.0; }
]]>
</style>
<script type="application/ecmascript"><![CDATA[
document.addEventListener('DOMContentLoaded', (event) => {
  highlightEdges();
  highlightAdjacentNodes();
});
]]></script>
</svg>
