<?xml version="1.0" encoding="UTF-8" standalone="no"?>
<!DOCTYPE svg PUBLIC "-//W3C//DTD SVG 1.1//EN"
 "http://www.w3.org/Graphics/SVG/1.1/DTD/svg11.dtd">
<!-- Generated by graphviz version 13.1.2 (20250808.2320)
 -->
<!-- Title: editeurpanovisu.GestionnaireInterfaceController.getTailleIconesBarrePersonnalisee Pages: 1 -->
<svg width="2867pt" height="452pt"
 viewBox="0.00 0.00 2867.00 452.00" xmlns="http://www.w3.org/2000/svg" xmlns:xlink="http://www.w3.org/1999/xlink">
<g id="graph0" class="graph" transform="scale(1 1) rotate(0) translate(4 447.76)">
<title>editeurpanovisu.GestionnaireInterfaceController.getTailleIconesBarrePersonnalisee</title>
<!-- Node1 -->
<g id="Node000001" class="node">
<title>Node1</title>
<g id="a_Node000001"><a xlink:title=" ">
<polygon fill="#999999" stroke="#666666" points="2859.25,-276.47 2694.75,-276.47 2694.75,-232.47 2859.25,-232.47 2859.25,-276.47"/>
<text xml:space="preserve" text-anchor="start" x="2702.75" y="-262.97" font-family="Helvetica,sans-Serif" font-size="10.00">editeurpanovisu.Gestionnaire</text>
<text xml:space="preserve" text-anchor="start" x="2702.75" y="-250.97" font-family="Helvetica,sans-Serif" font-size="10.00">InterfaceController.getTailleIcones</text>
<text xml:space="preserve" text-anchor="middle" x="2777" y="-238.97" font-family="Helvetica,sans-Serif" font-size="10.00">BarrePersonnalisee</text>
</a>
</g>
</g>
<!-- Node2 -->
<g id="Node000002" class="node">
<title>Node2</title>
<g id="a_Node000002"><a xlink:href="classediteurpanovisu_1_1GestionnaireInterfaceController.html#a3f85cb5c53dc115280ee2e1290a532f3" target="_top" xlink:title=" ">
<polygon fill="white" stroke="#666666" points="2651.25,-226.47 2500.25,-226.47 2500.25,-182.47 2651.25,-182.47 2651.25,-226.47"/>
<text xml:space="preserve" text-anchor="start" x="2508.25" y="-212.97" font-family="Helvetica,sans-Serif" font-size="10.00">editeurpanovisu.Gestionnaire</text>
<text xml:space="preserve" text-anchor="start" x="2508.25" y="-200.97" font-family="Helvetica,sans-Serif" font-size="10.00">InterfaceController.afficheBarre</text>
<text xml:space="preserve" text-anchor="middle" x="2575.75" y="-188.97" font-family="Helvetica,sans-Serif" font-size="10.00">Personnalisee</text>
</a>
</g>
</g>
<!-- Node1&#45;&gt;Node2 -->
<g id="edge1_Node000001_Node000002" class="edge">
<title>Node1&#45;&gt;Node2</title>
<g id="a_edge1_Node000001_Node000002"><a xlink:title=" ">
<path fill="none" stroke="#63b8ff" d="M2683.33,-231.21C2672.67,-228.54 2661.9,-225.83 2651.51,-223.23"/>
<polygon fill="#63b8ff" stroke="#63b8ff" points="2682.36,-234.58 2692.91,-233.62 2684.07,-227.79 2682.36,-234.58"/>
</a>
</g>
</g>
<!-- Node4 -->
<g id="Node000004" class="node">
<title>Node4</title>
<g id="a_Node000004"><a xlink:href="classediteurpanovisu_1_1GestionnaireInterfaceController.html#a55c8afda208674955a13d48d02be41b8" target="_top" xlink:title=" ">
<polygon fill="white" stroke="#666666" points="2213.5,-364.47 2046,-364.47 2046,-332.47 2213.5,-332.47 2213.5,-364.47"/>
<text xml:space="preserve" text-anchor="start" x="2054" y="-350.97" font-family="Helvetica,sans-Serif" font-size="10.00">editeurpanovisu.Gestionnaire</text>
<text xml:space="preserve" text-anchor="middle" x="2129.75" y="-338.97" font-family="Helvetica,sans-Serif" font-size="10.00">InterfaceController.afficheTemplate</text>
</a>
</g>
</g>
<!-- Node1&#45;&gt;Node4 -->
<g id="edge43_Node000001_Node000004" class="edge">
<title>Node1&#45;&gt;Node4</title>
<g id="a_edge43_Node000001_Node000004"><a xlink:title=" ">
<path fill="none" stroke="#63b8ff" d="M2694.41,-280.19C2630.46,-299.11 2538.86,-323.55 2456.75,-335.47 2374.77,-347.37 2280.06,-349.91 2213.92,-349.91"/>
<polygon fill="#63b8ff" stroke="#63b8ff" points="2695.19,-283.6 2703.77,-277.39 2693.19,-276.9 2695.19,-283.6"/>
</a>
</g>
</g>
<!-- Node12 -->
<g id="Node000012" class="node">
<title>Node12</title>
<g id="a_Node000012"><a xlink:href="classediteurpanovisu_1_1EditeurPanovisu.html#a94e36b9e9d09ab1a4c852b8a8cefa927" target="_top" xlink:title=" ">
<polygon fill="white" stroke="#666666" points="647.25,-234.47 456.5,-234.47 456.5,-202.47 647.25,-202.47 647.25,-234.47"/>
<text xml:space="preserve" text-anchor="start" x="464.5" y="-220.97" font-family="Helvetica,sans-Serif" font-size="10.00">editeurpanovisu.EditeurPanovisu.genere</text>
<text xml:space="preserve" text-anchor="middle" x="551.88" y="-208.97" font-family="Helvetica,sans-Serif" font-size="10.00">Visite</text>
</a>
</g>
</g>
<!-- Node1&#45;&gt;Node12 -->
<g id="edge45_Node000001_Node000012" class="edge">
<title>Node1&#45;&gt;Node12</title>
<g id="a_edge45_Node000001_Node000012"><a xlink:title=" ">
<path fill="none" stroke="#63b8ff" d="M2738.11,-283.22C2666.95,-334.28 2506.67,-435.47 2354.12,-435.47 2354.12,-435.47 2354.12,-435.47 1482.62,-435.47 1241.7,-435.47 1173.57,-468.18 941.5,-403.47 799.12,-363.76 783.61,-305.52 647.25,-248.47 635.51,-243.56 622.68,-238.98 610.36,-234.95"/>
<polygon fill="#63b8ff" stroke="#63b8ff" points="2739.89,-286.26 2745.93,-277.55 2735.78,-280.59 2739.89,-286.26"/>
</a>
</g>
</g>
<!-- Node19 -->
<g id="Node000019" class="node">
<title>Node19</title>
<g id="a_Node000019"><a xlink:href="classediteurpanovisu_1_1GestionnaireInterfaceController.html#ac7fa988dc99d8684686127a2269cd66e" target="_top" xlink:title=" ">
<polygon fill="white" stroke="#666666" points="2000.62,-180.47 1844.38,-180.47 1844.38,-148.47 2000.62,-148.47 2000.62,-180.47"/>
<text xml:space="preserve" text-anchor="start" x="1852.38" y="-166.97" font-family="Helvetica,sans-Serif" font-size="10.00">editeurpanovisu.Gestionnaire</text>
<text xml:space="preserve" text-anchor="middle" x="1922.5" y="-154.97" font-family="Helvetica,sans-Serif" font-size="10.00">InterfaceController.creeInterface</text>
</a>
</g>
</g>
<!-- Node1&#45;&gt;Node19 -->
<g id="edge44_Node000001_Node000019" class="edge">
<title>Node1&#45;&gt;Node19</title>
<g id="a_edge44_Node000001_Node000019"><a xlink:title=" ">
<path fill="none" stroke="#63b8ff" d="M2683.08,-256.37C2513.55,-258.78 2160.92,-258.56 2046,-218.47 2027.84,-212.13 2027.22,-203.02 2010,-194.47 1999.89,-189.45 1988.74,-184.9 1977.89,-180.96"/>
<polygon fill="#63b8ff" stroke="#63b8ff" points="2683.02,-259.87 2692.96,-256.22 2682.91,-252.87 2683.02,-259.87"/>
</a>
</g>
</g>
<!-- Node25 -->
<g id="Node000025" class="node">
<title>Node25</title>
<g id="a_Node000025"><a xlink:href="classediteurpanovisu_1_1GestionnaireInterfaceController.html#ab66509c63a85a8285a081b24049e8774" target="_top" xlink:title=" ">
<polygon fill="white" stroke="#666666" points="2658.75,-116.47 2492.75,-116.47 2492.75,-84.47 2658.75,-84.47 2658.75,-116.47"/>
<text xml:space="preserve" text-anchor="start" x="2500.75" y="-102.97" font-family="Helvetica,sans-Serif" font-size="10.00">editeurpanovisu.Gestionnaire</text>
<text xml:space="preserve" text-anchor="middle" x="2575.75" y="-90.97" font-family="Helvetica,sans-Serif" font-size="10.00">InterfaceController.strGetTemplate</text>
</a>
</g>
</g>
<!-- Node1&#45;&gt;Node25 -->
<g id="edge46_Node000001_Node000025" class="edge">
<title>Node1&#45;&gt;Node25</title>
<g id="a_edge46_Node000001_Node000025"><a xlink:title=" ">
<path fill="none" stroke="#63b8ff" d="M2738.01,-225.11C2696.39,-192.93 2631.12,-142.49 2597.82,-116.75"/>
<polygon fill="#63b8ff" stroke="#63b8ff" points="2735.78,-227.8 2745.83,-231.15 2740.06,-222.26 2735.78,-227.8"/>
</a>
</g>
</g>
<!-- Node3 -->
<g id="Node000003" class="node">
<title>Node3</title>
<g id="a_Node000003"><a xlink:href="classediteurpanovisu_1_1GestionnaireInterfaceController.html#a5bdd1505c1ad1eee506c2618c9368994" target="_top" xlink:title=" ">
<polygon fill="white" stroke="#666666" points="2437.62,-226.47 2268.62,-226.47 2268.62,-194.47 2437.62,-194.47 2437.62,-226.47"/>
<text xml:space="preserve" text-anchor="start" x="2276.62" y="-212.97" font-family="Helvetica,sans-Serif" font-size="10.00">editeurpanovisu.Gestionnaire</text>
<text xml:space="preserve" text-anchor="middle" x="2353.12" y="-200.97" font-family="Helvetica,sans-Serif" font-size="10.00">InterfaceController.afficheVignettes</text>
</a>
</g>
</g>
<!-- Node2&#45;&gt;Node3 -->
<g id="edge2_Node000002_Node000003" class="edge">
<title>Node2&#45;&gt;Node3</title>
<g id="a_edge2_Node000002_Node000003"><a xlink:title=" ">
<path fill="none" stroke="#63b8ff" d="M2488.64,-206.81C2471.94,-207.26 2454.47,-207.74 2437.85,-208.19"/>
<polygon fill="#63b8ff" stroke="#63b8ff" points="2488.64,-210.31 2498.54,-206.54 2488.45,-203.31 2488.64,-210.31"/>
</a>
</g>
</g>
<!-- Node2&#45;&gt;Node19 -->
<g id="edge42_Node000002_Node000019" class="edge">
<title>Node2&#45;&gt;Node19</title>
<g id="a_edge42_Node000002_Node000019"><a xlink:title=" ">
<path fill="none" stroke="#63b8ff" d="M2543.16,-174.45C2520.92,-155.49 2489.39,-132.69 2456.75,-122.47 2286.39,-69.08 2071.17,-119.57 1974.54,-148.02"/>
<polygon fill="#63b8ff" stroke="#63b8ff" points="2540.84,-177.07 2550.66,-181.03 2545.45,-171.81 2540.84,-177.07"/>
</a>
</g>
</g>
<!-- Node23 -->
<g id="Node000023" class="node">
<title>Node23</title>
<g id="a_Node000023"><a xlink:href="classediteurpanovisu_1_1GestionnaireInterfaceController.html#a6c3ac6b8d3a669f9952954530cc27e52" target="_top" xlink:title=" ">
<polygon fill="white" stroke="#666666" points="2429,-326.47 2277.25,-326.47 2277.25,-282.47 2429,-282.47 2429,-326.47"/>
<text xml:space="preserve" text-anchor="start" x="2285.25" y="-312.97" font-family="Helvetica,sans-Serif" font-size="10.00">editeurpanovisu.Gestionnaire</text>
<text xml:space="preserve" text-anchor="start" x="2285.25" y="-300.97" font-family="Helvetica,sans-Serif" font-size="10.00">InterfaceController.chargeBarre</text>
<text xml:space="preserve" text-anchor="middle" x="2353.12" y="-288.97" font-family="Helvetica,sans-Serif" font-size="10.00">Personnalisee</text>
</a>
</g>
</g>
<!-- Node2&#45;&gt;Node23 -->
<g id="edge38_Node000002_Node000023" class="edge">
<title>Node2&#45;&gt;Node23</title>
<g id="a_edge38_Node000002_Node000023"><a xlink:title=" ">
<path fill="none" stroke="#63b8ff" d="M2515.15,-231.48C2480.18,-247.33 2436.51,-267.13 2403.47,-282.1"/>
<polygon fill="#63b8ff" stroke="#63b8ff" points="2516.2,-234.85 2523.86,-227.53 2513.31,-228.47 2516.2,-234.85"/>
</a>
</g>
</g>
<!-- Node24 -->
<g id="Node000024" class="node">
<title>Node24</title>
<g id="a_Node000024"><a xlink:href="classediteurpanovisu_1_1GestionnaireInterfaceController.html#af830b49c8951d0b3c694aeba5f49d518" target="_top" xlink:title=" ">
<polygon fill="white" stroke="#666666" points="2456.75,-163.47 2249.5,-163.47 2249.5,-131.47 2456.75,-131.47 2456.75,-163.47"/>
<text xml:space="preserve" text-anchor="start" x="2257.5" y="-149.97" font-family="Helvetica,sans-Serif" font-size="10.00">editeurpanovisu.Gestionnaire</text>
<text xml:space="preserve" text-anchor="middle" x="2353.12" y="-137.97" font-family="Helvetica,sans-Serif" font-size="10.00">InterfaceController.choixBarrePersonnalisee</text>
</a>
</g>
</g>
<!-- Node2&#45;&gt;Node24 -->
<g id="edge40_Node000002_Node000024" class="edge">
<title>Node2&#45;&gt;Node24</title>
<g id="a_edge40_Node000002_Node000024"><a xlink:title=" ">
<path fill="none" stroke="#63b8ff" d="M2488.93,-182.29C2465.21,-176.17 2439.9,-169.63 2417.7,-163.89"/>
<polygon fill="#63b8ff" stroke="#63b8ff" points="2488.03,-185.68 2498.59,-184.79 2489.78,-178.9 2488.03,-185.68"/>
</a>
</g>
</g>
<!-- Node3&#45;&gt;Node4 -->
<g id="edge3_Node000003_Node000004" class="edge">
<title>Node3&#45;&gt;Node4</title>
<g id="a_edge3_Node000003_Node000004"><a xlink:title=" ">
<path fill="none" stroke="#63b8ff" d="M2308.33,-232.26C2289.06,-243.08 2266.9,-257.3 2249.5,-273.47 2229.44,-292.1 2235.79,-307.55 2213.5,-323.47 2208.98,-326.69 2204.04,-329.51 2198.89,-331.97"/>
<polygon fill="#63b8ff" stroke="#63b8ff" points="2309.97,-235.35 2317.07,-227.49 2306.62,-229.21 2309.97,-235.35"/>
</a>
</g>
</g>
<!-- Node18 -->
<g id="Node000018" class="node">
<title>Node18</title>
<g id="a_Node000018"><a xlink:href="classediteurpanovisu_1_1GestionnaireInterfaceController.html#a8c634f775c31c1a4db22d5ef0659f7e4" target="_top" xlink:title=" ">
<polygon fill="white" stroke="#666666" points="2203.38,-188.47 2056.12,-188.47 2056.12,-156.47 2203.38,-156.47 2203.38,-188.47"/>
<text xml:space="preserve" text-anchor="start" x="2064.12" y="-174.97" font-family="Helvetica,sans-Serif" font-size="10.00">editeurpanovisu.Gestionnaire</text>
<text xml:space="preserve" text-anchor="middle" x="2129.75" y="-162.97" font-family="Helvetica,sans-Serif" font-size="10.00">InterfaceController.afficheTitre</text>
</a>
</g>
</g>
<!-- Node3&#45;&gt;Node18 -->
<g id="edge29_Node000003_Node000018" class="edge">
<title>Node3&#45;&gt;Node18</title>
<g id="a_edge29_Node000003_Node000018"><a xlink:title=" ">
<path fill="none" stroke="#63b8ff" d="M2257.34,-194.2C2239.38,-191.11 2220.84,-187.93 2203.68,-184.99"/>
<polygon fill="#63b8ff" stroke="#63b8ff" points="2256.49,-197.6 2266.94,-195.84 2257.68,-190.7 2256.49,-197.6"/>
</a>
</g>
</g>
<!-- Node3&#45;&gt;Node19 -->
<g id="edge31_Node000003_Node000019" class="edge">
<title>Node3&#45;&gt;Node19</title>
<g id="a_edge31_Node000003_Node000019"><a xlink:title=" ">
<path fill="none" stroke="#63b8ff" d="M2256.68,-211.81C2196.02,-211.33 2116.01,-208.25 2046,-197.47 2022.16,-193.8 1996.31,-187.23 1974.52,-180.91"/>
<polygon fill="#63b8ff" stroke="#63b8ff" points="2256.63,-215.31 2266.65,-211.86 2256.67,-208.31 2256.63,-215.31"/>
</a>
</g>
</g>
<!-- Node20 -->
<g id="Node000020" class="node">
<title>Node20</title>
<g id="a_Node000020"><a xlink:href="classediteurpanovisu_1_1GestionnaireInterfaceController.html#a568c34e865fb653f63b8fa7a9a9cafc8" target="_top" xlink:title=" ">
<polygon fill="white" stroke="#666666" points="2200.75,-314.47 2058.75,-314.47 2058.75,-282.47 2200.75,-282.47 2200.75,-314.47"/>
<text xml:space="preserve" text-anchor="start" x="2066.75" y="-300.97" font-family="Helvetica,sans-Serif" font-size="10.00">editeurpanovisu.Gestionnaire</text>
<text xml:space="preserve" text-anchor="middle" x="2129.75" y="-288.97" font-family="Helvetica,sans-Serif" font-size="10.00">InterfaceController.rafraichit</text>
</a>
</g>
</g>
<!-- Node3&#45;&gt;Node20 -->
<g id="edge32_Node000003_Node000020" class="edge">
<title>Node3&#45;&gt;Node20</title>
<g id="a_edge32_Node000003_Node000020"><a xlink:title=" ">
<path fill="none" stroke="#63b8ff" d="M2300.1,-231.15C2260.99,-246.69 2208.13,-267.71 2171.93,-282.1"/>
<polygon fill="#63b8ff" stroke="#63b8ff" points="2301.34,-234.42 2309.34,-227.47 2298.75,-227.92 2301.34,-234.42"/>
</a>
</g>
</g>
<!-- Node5 -->
<g id="Node000005" class="node">
<title>Node5</title>
<g id="a_Node000005"><a xlink:href="classediteurpanovisu_1_1EditeurPanovisu.html#a87b29dc258cfc67370b1f27809e91b8e" target="_top" xlink:title=" ">
<polygon fill="white" stroke="#666666" points="2010,-339.47 1835,-339.47 1835,-307.47 2010,-307.47 2010,-339.47"/>
<text xml:space="preserve" text-anchor="start" x="1843" y="-325.97" font-family="Helvetica,sans-Serif" font-size="10.00">editeurpanovisu.EditeurPanovisu.tsk</text>
<text xml:space="preserve" text-anchor="middle" x="1922.5" y="-313.97" font-family="Helvetica,sans-Serif" font-size="10.00">AnalyseFichierPVU</text>
</a>
</g>
</g>
<!-- Node4&#45;&gt;Node5 -->
<g id="edge4_Node000004_Node000005" class="edge">
<title>Node4&#45;&gt;Node5</title>
<g id="a_edge4_Node000004_Node000005"><a xlink:title=" ">
<path fill="none" stroke="#63b8ff" d="M2034.37,-336.97C2026.41,-336 2018.38,-335.02 2010.48,-334.06"/>
<polygon fill="#63b8ff" stroke="#63b8ff" points="2033.71,-340.42 2044.06,-338.15 2034.56,-333.47 2033.71,-340.42"/>
</a>
</g>
</g>
<!-- Node6 -->
<g id="Node000006" class="node">
<title>Node6</title>
<g id="a_Node000006"><a xlink:href="classediteurpanovisu_1_1EditeurPanovisu.html#ab4beb1597b660a4a253befc6e76f1c54" target="_top" xlink:title=" ">
<polygon fill="white" stroke="#666666" points="1129.62,-394.47 944.12,-394.47 944.12,-362.47 1129.62,-362.47 1129.62,-394.47"/>
<text xml:space="preserve" text-anchor="start" x="952.12" y="-380.97" font-family="Helvetica,sans-Serif" font-size="10.00">editeurpanovisu.EditeurPanovisu.projet</text>
<text xml:space="preserve" text-anchor="middle" x="1036.88" y="-368.97" font-family="Helvetica,sans-Serif" font-size="10.00">Charge</text>
</a>
</g>
</g>
<!-- Node5&#45;&gt;Node6 -->
<g id="edge5_Node000005_Node000006" class="edge">
<title>Node5&#45;&gt;Node6</title>
<g id="a_edge5_Node000005_Node000006"><a xlink:title=" ">
<path fill="none" stroke="#63b8ff" d="M1823.45,-329.57C1651.48,-340.27 1297.83,-362.29 1130.08,-372.73"/>
<polygon fill="#63b8ff" stroke="#63b8ff" points="1823.49,-333.07 1833.25,-328.96 1823.05,-326.09 1823.49,-333.07"/>
</a>
</g>
</g>
<!-- Node9 -->
<g id="Node000009" class="node">
<title>Node9</title>
<g id="a_Node000009"><a xlink:href="classediteurpanovisu_1_1EditeurPanovisu.html#a6d19b4d885ee6fcec827b91956295732" target="_top" xlink:title=" ">
<polygon fill="white" stroke="#666666" points="1799,-306.47 1613.5,-306.47 1613.5,-274.47 1799,-274.47 1799,-306.47"/>
<text xml:space="preserve" text-anchor="start" x="1621.5" y="-292.97" font-family="Helvetica,sans-Serif" font-size="10.00">editeurpanovisu.EditeurPanovisu.projet</text>
<text xml:space="preserve" text-anchor="middle" x="1706.25" y="-280.97" font-family="Helvetica,sans-Serif" font-size="10.00">ChargeNom</text>
</a>
</g>
</g>
<!-- Node5&#45;&gt;Node9 -->
<g id="edge8_Node000005_Node000009" class="edge">
<title>Node5&#45;&gt;Node9</title>
<g id="a_edge8_Node000005_Node000009"><a xlink:title=" ">
<path fill="none" stroke="#63b8ff" d="M1823.44,-308.36C1815.45,-307.13 1807.39,-305.89 1799.45,-304.67"/>
<polygon fill="#63b8ff" stroke="#63b8ff" points="1822.75,-311.8 1833.17,-309.86 1823.82,-304.88 1822.75,-311.8"/>
</a>
</g>
</g>
<!-- Node7 -->
<g id="Node000007" class="node">
<title>Node7</title>
<g id="a_Node000007"><a xlink:href="classediteurpanovisu_1_1EditeurPanovisu.html#ac912b80c1f2ac97def60ff005c5c480b" target="_top" xlink:title=" ">
<polygon fill="white" stroke="#666666" points="420.5,-263.47 216.25,-263.47 216.25,-243.47 420.5,-243.47 420.5,-263.47"/>
<text xml:space="preserve" text-anchor="middle" x="318.38" y="-249.97" font-family="Helvetica,sans-Serif" font-size="10.00">editeurpanovisu.EditeurPanovisu.creeMenu</text>
</a>
</g>
</g>
<!-- Node6&#45;&gt;Node7 -->
<g id="edge6_Node000006_Node000007" class="edge">
<title>Node6&#45;&gt;Node7</title>
<g id="a_edge6_Node000006_Node000007"><a xlink:title=" ">
<path fill="none" stroke="#63b8ff" d="M932.65,-385.3C814.61,-389.88 616.97,-387.57 456.5,-336.47 405.86,-320.34 354.45,-282.07 331.61,-263.68"/>
<polygon fill="#63b8ff" stroke="#63b8ff" points="932.46,-388.81 942.31,-384.9 932.17,-381.82 932.46,-388.81"/>
</a>
</g>
</g>
<!-- Node8 -->
<g id="Node000008" class="node">
<title>Node8</title>
<g id="a_Node000008"><a xlink:href="classediteurpanovisu_1_1EditeurPanovisu.html#a86c393eee88f54c694db994ddd85b90d" target="_top" xlink:title=" ">
<polygon fill="white" stroke="#666666" points="180.25,-269.47 0,-269.47 0,-237.47 180.25,-237.47 180.25,-269.47"/>
<text xml:space="preserve" text-anchor="start" x="8" y="-255.97" font-family="Helvetica,sans-Serif" font-size="10.00">editeurpanovisu.EditeurPanovisu.cree</text>
<text xml:space="preserve" text-anchor="middle" x="90.12" y="-243.97" font-family="Helvetica,sans-Serif" font-size="10.00">Environnement</text>
</a>
</g>
</g>
<!-- Node7&#45;&gt;Node8 -->
<g id="edge7_Node000007_Node000008" class="edge">
<title>Node7&#45;&gt;Node8</title>
<g id="a_edge7_Node000007_Node000008"><a xlink:title=" ">
<path fill="none" stroke="#63b8ff" d="M204.51,-253.47C196.49,-253.47 188.46,-253.47 180.6,-253.47"/>
<polygon fill="#63b8ff" stroke="#63b8ff" points="204.32,-256.97 214.32,-253.47 204.32,-249.97 204.32,-256.97"/>
</a>
</g>
</g>
<!-- Node9&#45;&gt;Node7 -->
<g id="edge28_Node000009_Node000007" class="edge">
<title>Node9&#45;&gt;Node7</title>
<g id="a_edge28_Node000009_Node000007"><a xlink:title=" ">
<path fill="none" stroke="#63b8ff" d="M1631.99,-309.68C1523.68,-337 1314.02,-385.71 1132.25,-403.47 1047.87,-411.71 1026.27,-404.45 941.5,-403.47 826.7,-402.13 797.75,-405.84 683.25,-397.47 581.98,-390.06 549.53,-410.17 456.5,-369.47 399.08,-344.34 347.29,-287.16 327.69,-263.75"/>
<polygon fill="#63b8ff" stroke="#63b8ff" points="1632.8,-313.09 1641.63,-307.24 1631.08,-306.3 1632.8,-313.09"/>
</a>
</g>
</g>
<!-- Node10 -->
<g id="Node000010" class="node">
<title>Node10</title>
<g id="a_Node000010"><a xlink:href="classediteurpanovisu_1_1EditeurPanovisu.html#af0d1c32bb78acbff561c822a0d15f760" target="_top" xlink:title=" ">
<polygon fill="white" stroke="#666666" points="1577.5,-306.47 1389.75,-306.47 1389.75,-274.47 1577.5,-274.47 1577.5,-306.47"/>
<text xml:space="preserve" text-anchor="start" x="1397.75" y="-292.97" font-family="Helvetica,sans-Serif" font-size="10.00">editeurpanovisu.EditeurPanovisu.ajoute</text>
<text xml:space="preserve" text-anchor="middle" x="1483.62" y="-280.97" font-family="Helvetica,sans-Serif" font-size="10.00">FichierHisto</text>
</a>
</g>
</g>
<!-- Node9&#45;&gt;Node10 -->
<g id="edge9_Node000009_Node000010" class="edge">
<title>Node9&#45;&gt;Node10</title>
<g id="a_edge9_Node000009_Node000010"><a xlink:title=" ">
<path fill="none" stroke="#63b8ff" d="M1601.97,-283.73C1593.92,-283.7 1585.83,-283.72 1577.86,-283.79"/>
<polygon fill="#63b8ff" stroke="#63b8ff" points="1601.75,-287.23 1611.77,-283.79 1601.79,-280.23 1601.75,-287.23"/>
</a>
</g>
</g>
<!-- Node10&#45;&gt;Node6 -->
<g id="edge10_Node000010_Node000006" class="edge">
<title>Node10&#45;&gt;Node6</title>
<g id="a_edge10_Node000010_Node000006"><a xlink:title=" ">
<path fill="none" stroke="#63b8ff" d="M1378.17,-306.73C1316.82,-316.79 1237.88,-330.59 1168.25,-345.47 1145.53,-350.32 1120.78,-356.39 1099,-361.99"/>
<polygon fill="#63b8ff" stroke="#63b8ff" points="1378.62,-310.2 1387.93,-305.14 1377.49,-303.3 1378.62,-310.2"/>
</a>
</g>
</g>
<!-- Node10&#45;&gt;Node9 -->
<g id="edge11_Node000010_Node000009" class="edge">
<title>Node10&#45;&gt;Node9</title>
<g id="a_edge11_Node000010_Node000009"><a xlink:title=" ">
<path fill="none" stroke="#63b8ff" d="M1589.19,-297.21C1597.24,-297.23 1605.33,-297.21 1613.28,-297.13"/>
<polygon fill="#63b8ff" stroke="#63b8ff" points="1589.4,-293.71 1579.38,-297.15 1589.36,-300.71 1589.4,-293.71"/>
</a>
</g>
</g>
<!-- Node11 -->
<g id="Node000011" class="node">
<title>Node11</title>
<g id="a_Node000011"><a xlink:href="classediteurpanovisu_1_1EditeurPanovisu.html#a9f3ea25b35d4884524508dab3dc4fd6a" target="_top" xlink:title=" ">
<polygon fill="white" stroke="#666666" points="1353.75,-262.47 1168.25,-262.47 1168.25,-230.47 1353.75,-230.47 1353.75,-262.47"/>
<text xml:space="preserve" text-anchor="start" x="1176.25" y="-248.97" font-family="Helvetica,sans-Serif" font-size="10.00">editeurpanovisu.EditeurPanovisu.projet</text>
<text xml:space="preserve" text-anchor="middle" x="1261" y="-236.97" font-family="Helvetica,sans-Serif" font-size="10.00">Sauve</text>
</a>
</g>
</g>
<!-- Node10&#45;&gt;Node11 -->
<g id="edge12_Node000010_Node000011" class="edge">
<title>Node10&#45;&gt;Node11</title>
<g id="a_edge12_Node000010_Node000011"><a xlink:title=" ">
<path fill="none" stroke="#63b8ff" d="M1389.01,-271.8C1374.29,-268.86 1359.18,-265.85 1344.73,-262.97"/>
<polygon fill="#63b8ff" stroke="#63b8ff" points="1388.18,-275.2 1398.67,-273.72 1389.55,-268.34 1388.18,-275.2"/>
</a>
</g>
</g>
<!-- Node17 -->
<g id="Node000017" class="node">
<title>Node17</title>
<g id="a_Node000017"><a xlink:href="classediteurpanovisu_1_1EditeurPanovisu.html#a7b2e25dc717eb52b62e23d54ec4c124a" target="_top" xlink:title=" ">
<polygon fill="white" stroke="#666666" points="1353.75,-84.47 1168.25,-84.47 1168.25,-52.47 1353.75,-52.47 1353.75,-84.47"/>
<text xml:space="preserve" text-anchor="start" x="1176.25" y="-70.97" font-family="Helvetica,sans-Serif" font-size="10.00">editeurpanovisu.EditeurPanovisu.projet</text>
<text xml:space="preserve" text-anchor="middle" x="1261" y="-58.97" font-family="Helvetica,sans-Serif" font-size="10.00">SauveSous</text>
</a>
</g>
</g>
<!-- Node10&#45;&gt;Node17 -->
<g id="edge26_Node000010_Node000017" class="edge">
<title>Node10&#45;&gt;Node17</title>
<g id="a_edge26_Node000010_Node000017"><a xlink:title=" ">
<path fill="none" stroke="#63b8ff" d="M1470.98,-263.55C1452.09,-222.87 1411.02,-145.8 1353.75,-101.47 1345.05,-94.73 1334.85,-89.29 1324.48,-84.92"/>
<polygon fill="#63b8ff" stroke="#63b8ff" points="1467.78,-264.96 1475.09,-272.62 1474.15,-262.07 1467.78,-264.96"/>
</a>
</g>
</g>
<!-- Node11&#45;&gt;Node6 -->
<g id="edge16_Node000011_Node000006" class="edge">
<title>Node11&#45;&gt;Node6</title>
<g id="a_edge16_Node000011_Node000006"><a xlink:title=" ">
<path fill="none" stroke="#63b8ff" d="M1211.86,-268.16C1196.86,-276.32 1180.94,-286.56 1168.25,-298.47 1146.94,-318.45 1155.94,-336.37 1132.25,-353.47 1127.71,-356.74 1122.78,-359.58 1117.62,-362.06"/>
<polygon fill="#63b8ff" stroke="#63b8ff" points="1213.46,-271.28 1220.7,-263.55 1210.22,-265.07 1213.46,-271.28"/>
</a>
</g>
</g>
<!-- Node11&#45;&gt;Node7 -->
<g id="edge13_Node000011_Node000007" class="edge">
<title>Node11&#45;&gt;Node7</title>
<g id="a_edge13_Node000011_Node000007"><a xlink:title=" ">
<path fill="none" stroke="#63b8ff" d="M1171.32,-265C1022.59,-293.24 713.88,-339.62 456.5,-298.47 415.43,-291.9 369.97,-274.93 343.07,-263.81"/>
<polygon fill="#63b8ff" stroke="#63b8ff" points="1171.53,-268.53 1180.69,-263.2 1170.21,-261.65 1171.53,-268.53"/>
</a>
</g>
</g>
<!-- Node11&#45;&gt;Node9 -->
<g id="edge17_Node000011_Node000009" class="edge">
<title>Node11&#45;&gt;Node9</title>
<g id="a_edge17_Node000011_Node000009"><a xlink:title=" ">
<path fill="none" stroke="#63b8ff" d="M1365.42,-249.22C1427.17,-251.73 1507.04,-256.49 1577.5,-265.47 1594.54,-267.64 1612.72,-270.72 1629.86,-273.99"/>
<polygon fill="#63b8ff" stroke="#63b8ff" points="1365.75,-245.73 1355.62,-248.84 1365.48,-252.73 1365.75,-245.73"/>
</a>
</g>
</g>
<!-- Node11&#45;&gt;Node12 -->
<g id="edge14_Node000011_Node000012" class="edge">
<title>Node11&#45;&gt;Node12</title>
<g id="a_edge14_Node000011_Node000012"><a xlink:title=" ">
<path fill="none" stroke="#63b8ff" d="M1156.62,-242.37C1019.72,-236.95 780.18,-227.47 647.71,-222.22"/>
<polygon fill="#63b8ff" stroke="#63b8ff" points="1156.28,-245.86 1166.41,-242.76 1156.55,-238.87 1156.28,-245.86"/>
</a>
</g>
</g>
<!-- Node13 -->
<g id="Node000013" class="node">
<title>Node13</title>
<g id="a_Node000013"><a xlink:href="classediteurpanovisu_1_1EditeurPanovisu.html#a9b46b222714af12c06ec33d410400773" target="_top" xlink:title=" ">
<polygon fill="white" stroke="#666666" points="647.25,-289.47 456.5,-289.47 456.5,-257.47 647.25,-257.47 647.25,-289.47"/>
<text xml:space="preserve" text-anchor="start" x="464.5" y="-275.97" font-family="Helvetica,sans-Serif" font-size="10.00">editeurpanovisu.EditeurPanovisu.projets</text>
<text xml:space="preserve" text-anchor="middle" x="551.88" y="-263.97" font-family="Helvetica,sans-Serif" font-size="10.00">Fermer</text>
</a>
</g>
</g>
<!-- Node11&#45;&gt;Node13 -->
<g id="edge18_Node000011_Node000013" class="edge">
<title>Node11&#45;&gt;Node13</title>
<g id="a_edge18_Node000011_Node000013"><a xlink:title=" ">
<path fill="none" stroke="#63b8ff" d="M1156.62,-250.41C1019.72,-255.64 780.18,-264.79 647.71,-269.85"/>
<polygon fill="#63b8ff" stroke="#63b8ff" points="1156.55,-253.92 1166.41,-250.04 1156.28,-246.92 1156.55,-253.92"/>
</a>
</g>
</g>
<!-- Node14 -->
<g id="Node000014" class="node">
<title>Node14</title>
<g id="a_Node000014"><a xlink:href="classediteurpanovisu_1_1EditeurPanovisu.html#ac9d449399ccd38843fa12e716f0c9611" target="_top" xlink:title=" ">
<polygon fill="white" stroke="#666666" points="1132.25,-142.47 941.5,-142.47 941.5,-110.47 1132.25,-110.47 1132.25,-142.47"/>
<text xml:space="preserve" text-anchor="start" x="949.5" y="-128.97" font-family="Helvetica,sans-Serif" font-size="10.00">editeurpanovisu.EditeurPanovisu.projets</text>
<text xml:space="preserve" text-anchor="middle" x="1036.88" y="-116.97" font-family="Helvetica,sans-Serif" font-size="10.00">Nouveau</text>
</a>
</g>
</g>
<!-- Node11&#45;&gt;Node14 -->
<g id="edge20_Node000011_Node000014" class="edge">
<title>Node11&#45;&gt;Node14</title>
<g id="a_edge20_Node000011_Node000014"><a xlink:title=" ">
<path fill="none" stroke="#63b8ff" d="M1231.99,-222.91C1207.11,-202.95 1169.1,-174.76 1132.25,-156.47 1121.86,-151.31 1110.38,-146.78 1099.12,-142.92"/>
<polygon fill="#63b8ff" stroke="#63b8ff" points="1229.7,-225.56 1239.67,-229.16 1234.12,-220.13 1229.7,-225.56"/>
</a>
</g>
</g>
<!-- Node15 -->
<g id="Node000015" class="node">
<title>Node15</title>
<g id="a_Node000015"><a xlink:href="classediteurpanovisu_1_1EditeurPanovisu.html#a2b3125ffe2e6291efacf19df6cb30a8d" target="_top" xlink:title=" ">
<polygon fill="white" stroke="#666666" points="884.88,-180.47 703.88,-180.47 703.88,-160.47 884.88,-160.47 884.88,-180.47"/>
<text xml:space="preserve" text-anchor="middle" x="794.38" y="-166.97" font-family="Helvetica,sans-Serif" font-size="10.00">editeurpanovisu.EditeurPanovisu.start</text>
</a>
</g>
</g>
<!-- Node11&#45;&gt;Node15 -->
<g id="edge25_Node000011_Node000015" class="edge">
<title>Node11&#45;&gt;Node15</title>
<g id="a_edge25_Node000011_Node000015"><a xlink:title=" ">
<path fill="none" stroke="#63b8ff" d="M1217.54,-225.23C1193.2,-214.08 1161.71,-201.33 1132.25,-194.47 1050.02,-175.31 953.71,-170.11 885.18,-169.23"/>
<polygon fill="#63b8ff" stroke="#63b8ff" points="1215.94,-228.35 1226.48,-229.42 1218.9,-222.01 1215.94,-228.35"/>
</a>
</g>
</g>
<!-- Node16 -->
<g id="Node000016" class="node">
<title>Node16</title>
<g id="a_Node000016"><a xlink:href="classediteurpanovisu_1_1EditeurPanovisu.html#aef8c9b28c3e88d6e27e3f62b9a901134" target="_top" xlink:title=" ">
<polygon fill="white" stroke="#666666" points="1130.75,-344.47 943,-344.47 943,-312.47 1130.75,-312.47 1130.75,-344.47"/>
<text xml:space="preserve" text-anchor="start" x="951" y="-330.97" font-family="Helvetica,sans-Serif" font-size="10.00">editeurpanovisu.EditeurPanovisu.sauve</text>
<text xml:space="preserve" text-anchor="middle" x="1036.88" y="-318.97" font-family="Helvetica,sans-Serif" font-size="10.00">Fichiers</text>
</a>
</g>
</g>
<!-- Node11&#45;&gt;Node16 -->
<g id="edge24_Node000011_Node000016" class="edge">
<title>Node11&#45;&gt;Node16</title>
<g id="a_edge24_Node000011_Node000016"><a xlink:title=" ">
<path fill="none" stroke="#63b8ff" d="M1211.25,-267.36C1187.58,-277.24 1158.61,-288.93 1132.25,-298.47 1119.32,-303.15 1105.25,-307.83 1092.02,-312.06"/>
<polygon fill="#63b8ff" stroke="#63b8ff" points="1212.47,-270.65 1220.34,-263.55 1209.76,-264.19 1212.47,-270.65"/>
</a>
</g>
</g>
<!-- Node12&#45;&gt;Node7 -->
<g id="edge15_Node000012_Node000007" class="edge">
<title>Node12&#45;&gt;Node7</title>
<g id="a_edge15_Node000012_Node000007"><a xlink:title=" ">
<path fill="none" stroke="#63b8ff" d="M444.85,-234.5C425.74,-237.39 406.27,-240.33 388.54,-243.01"/>
<polygon fill="#63b8ff" stroke="#63b8ff" points="445.19,-237.98 454.55,-233.03 444.14,-231.06 445.19,-237.98"/>
</a>
</g>
</g>
<!-- Node13&#45;&gt;Node7 -->
<g id="edge19_Node000013_Node000007" class="edge">
<title>Node13&#45;&gt;Node7</title>
<g id="a_edge19_Node000013_Node000007"><a xlink:title=" ">
<path fill="none" stroke="#63b8ff" d="M444.81,-264.3C436.83,-263.61 428.78,-262.92 420.83,-262.23"/>
<polygon fill="#63b8ff" stroke="#63b8ff" points="444.28,-267.77 454.54,-265.14 444.88,-260.8 444.28,-267.77"/>
</a>
</g>
</g>
<!-- Node14&#45;&gt;Node7 -->
<g id="edge21_Node000014_Node000007" class="edge">
<title>Node14&#45;&gt;Node7</title>
<g id="a_edge21_Node000014_Node000007"><a xlink:title=" ">
<path fill="none" stroke="#63b8ff" d="M929.99,-127.23C812,-130.69 616.74,-144.28 456.5,-193.47 413.28,-206.73 365.46,-229.68 339.26,-243.03"/>
<polygon fill="#63b8ff" stroke="#63b8ff" points="929.75,-130.74 939.65,-126.96 929.56,-123.74 929.75,-130.74"/>
</a>
</g>
</g>
<!-- Node14&#45;&gt;Node15 -->
<g id="edge22_Node000014_Node000015" class="edge">
<title>Node14&#45;&gt;Node15</title>
<g id="a_edge22_Node000014_Node000015"><a xlink:title=" ">
<path fill="none" stroke="#63b8ff" d="M934.9,-144.94C906.84,-150.07 877.35,-155.47 852.75,-159.97"/>
<polygon fill="#63b8ff" stroke="#63b8ff" points="935.28,-148.43 944.49,-143.19 934.02,-141.54 935.28,-148.43"/>
</a>
</g>
</g>
<!-- Node15&#45;&gt;Node12 -->
<g id="edge23_Node000015_Node000012" class="edge">
<title>Node15&#45;&gt;Node12</title>
<g id="a_edge23_Node000015_Node000012"><a xlink:title=" ">
<path fill="none" stroke="#63b8ff" d="M729.72,-183.17C700.85,-188.93 666.34,-195.82 635.5,-201.98"/>
<polygon fill="#63b8ff" stroke="#63b8ff" points="730.29,-186.63 739.41,-181.24 728.92,-179.76 730.29,-186.63"/>
</a>
</g>
</g>
<!-- Node17&#45;&gt;Node7 -->
<g id="edge27_Node000017_Node000007" class="edge">
<title>Node17&#45;&gt;Node7</title>
<g id="a_edge27_Node000017_Node000007"><a xlink:title=" ">
<path fill="none" stroke="#63b8ff" d="M1190.64,-49.21C1044.82,-12.81 699.84,51.6 456.5,-76.47 383.57,-114.85 337.39,-211.04 323.67,-242.98"/>
<polygon fill="#63b8ff" stroke="#63b8ff" points="1189.61,-52.56 1200.16,-51.63 1191.33,-45.78 1189.61,-52.56"/>
</a>
</g>
</g>
<!-- Node18&#45;&gt;Node19 -->
<g id="edge30_Node000018_Node000019" class="edge">
<title>Node18&#45;&gt;Node19</title>
<g id="a_edge30_Node000018_Node000019"><a xlink:title=" ">
<path fill="none" stroke="#63b8ff" d="M2044.43,-169.18C2030.08,-168.62 2015.24,-168.04 2001.07,-167.49"/>
<polygon fill="#63b8ff" stroke="#63b8ff" points="2044.17,-172.67 2054.3,-169.56 2044.44,-165.68 2044.17,-172.67"/>
</a>
</g>
</g>
<!-- Node20&#45;&gt;Node5 -->
<g id="edge33_Node000020_Node000005" class="edge">
<title>Node20&#45;&gt;Node5</title>
<g id="a_edge33_Node000020_Node000005"><a xlink:title=" ">
<path fill="none" stroke="#63b8ff" d="M2047.02,-308.42C2035,-309.89 2022.57,-311.4 2010.45,-312.88"/>
<polygon fill="#63b8ff" stroke="#63b8ff" points="2047.4,-311.9 2056.9,-307.22 2046.55,-304.95 2047.4,-311.9"/>
</a>
</g>
</g>
<!-- Node21 -->
<g id="Node000021" class="node">
<title>Node21</title>
<g id="a_Node000021"><a xlink:href="classediteurpanovisu_1_1EditeurPanovisu.html#a53cccf6a6b2693c872947460b66ae8ee" target="_top" xlink:title=" ">
<polygon fill="white" stroke="#666666" points="1348.5,-142.47 1173.5,-142.47 1173.5,-110.47 1348.5,-110.47 1348.5,-142.47"/>
<text xml:space="preserve" text-anchor="start" x="1181.5" y="-128.97" font-family="Helvetica,sans-Serif" font-size="10.00">editeurpanovisu.EditeurPanovisu.tsk</text>
<text xml:space="preserve" text-anchor="middle" x="1261" y="-116.97" font-family="Helvetica,sans-Serif" font-size="10.00">ChargeListeFichiers</text>
</a>
</g>
</g>
<!-- Node20&#45;&gt;Node21 -->
<g id="edge34_Node000020_Node000021" class="edge">
<title>Node20&#45;&gt;Node21</title>
<g id="a_edge34_Node000020_Node000021"><a xlink:title=" ">
<path fill="none" stroke="#63b8ff" d="M2047.54,-282.35C1882.89,-249.68 1511.31,-175.94 1345.09,-142.96"/>
<polygon fill="#63b8ff" stroke="#63b8ff" points="2046.58,-285.73 2057.07,-284.24 2047.94,-278.86 2046.58,-285.73"/>
</a>
</g>
</g>
<!-- Node21&#45;&gt;Node14 -->
<g id="edge37_Node000021_Node000014" class="edge">
<title>Node21&#45;&gt;Node14</title>
<g id="a_edge37_Node000021_Node000014"><a xlink:title=" ">
<path fill="none" stroke="#63b8ff" d="M1161.88,-126.47C1152.2,-126.47 1142.38,-126.47 1132.73,-126.47"/>
<polygon fill="#63b8ff" stroke="#63b8ff" points="1161.65,-129.97 1171.65,-126.47 1161.65,-122.97 1161.65,-129.97"/>
</a>
</g>
</g>
<!-- Node22 -->
<g id="Node000022" class="node">
<title>Node22</title>
<g id="a_Node000022"><a xlink:href="classediteurpanovisu_1_1EditeurPanovisu.html#a924d3ccff3e4f402d2309cd2eade3237" target="_top" xlink:title=" ">
<polygon fill="white" stroke="#666666" points="905.5,-104.47 683.25,-104.47 683.25,-72.47 905.5,-72.47 905.5,-104.47"/>
<text xml:space="preserve" text-anchor="start" x="691.25" y="-90.97" font-family="Helvetica,sans-Serif" font-size="10.00">editeurpanovisu.EditeurPanovisu.panoramiques</text>
<text xml:space="preserve" text-anchor="middle" x="794.38" y="-78.97" font-family="Helvetica,sans-Serif" font-size="10.00">Ajouter</text>
</a>
</g>
</g>
<!-- Node21&#45;&gt;Node22 -->
<g id="edge35_Node000021_Node000022" class="edge">
<title>Node21&#45;&gt;Node22</title>
<g id="a_edge35_Node000021_Node000022"><a xlink:title=" ">
<path fill="none" stroke="#63b8ff" d="M1174.77,-107.89C1160.62,-105.35 1146.07,-103.07 1132.25,-101.47 1056.96,-92.7 971.64,-89.48 905.7,-88.43"/>
<polygon fill="#63b8ff" stroke="#63b8ff" points="1174.04,-111.32 1184.51,-109.7 1175.31,-104.43 1174.04,-111.32"/>
</a>
</g>
</g>
<!-- Node22&#45;&gt;Node7 -->
<g id="edge36_Node000022_Node000007" class="edge">
<title>Node22&#45;&gt;Node7</title>
<g id="a_edge36_Node000022_Node000007"><a xlink:title=" ">
<path fill="none" stroke="#63b8ff" d="M671.75,-79.79C605.33,-79.75 523.25,-87.59 456.5,-118.47 394.04,-147.36 343.31,-217.17 325.88,-243.33"/>
<polygon fill="#63b8ff" stroke="#63b8ff" points="671.58,-83.29 681.6,-79.86 671.63,-76.29 671.58,-83.29"/>
</a>
</g>
</g>
<!-- Node23&#45;&gt;Node4 -->
<g id="edge39_Node000023_Node000004" class="edge">
<title>Node23&#45;&gt;Node4</title>
<g id="a_edge39_Node000023_Node000004"><a xlink:title=" ">
<path fill="none" stroke="#63b8ff" d="M2265.7,-321.64C2248.49,-325.06 2230.47,-328.65 2213.39,-332.04"/>
<polygon fill="#63b8ff" stroke="#63b8ff" points="2266.26,-325.1 2275.38,-319.72 2264.89,-318.24 2266.26,-325.1"/>
</a>
</g>
</g>
<!-- Node24&#45;&gt;Node19 -->
<g id="edge41_Node000024_Node000019" class="edge">
<title>Node24&#45;&gt;Node19</title>
<g id="a_edge41_Node000024_Node000019"><a xlink:title=" ">
<path fill="none" stroke="#63b8ff" d="M2237.92,-143.73C2180.31,-142.8 2109.38,-143.09 2046,-147.47 2031.43,-148.47 2015.96,-150.14 2001.1,-152.05"/>
<polygon fill="#63b8ff" stroke="#63b8ff" points="2237.69,-147.23 2247.75,-143.91 2237.81,-140.23 2237.69,-147.23"/>
</a>
</g>
</g>
<!-- Node26 -->
<g id="Node000026" class="node">
<title>Node26</title>
<g id="a_Node000026"><a xlink:href="classediteurpanovisu_1_1EditeurPanovisu.html#aaee69ab54364f89b58458c744a4195c0" target="_top" xlink:title=" ">
<polygon fill="white" stroke="#666666" points="1577.5,-84.47 1389.75,-84.47 1389.75,-52.47 1577.5,-52.47 1577.5,-84.47"/>
<text xml:space="preserve" text-anchor="start" x="1397.75" y="-70.97" font-family="Helvetica,sans-Serif" font-size="10.00">editeurpanovisu.EditeurPanovisu.sauve</text>
<text xml:space="preserve" text-anchor="middle" x="1483.62" y="-58.97" font-family="Helvetica,sans-Serif" font-size="10.00">FichierProjet</text>
</a>
</g>
</g>
<!-- Node25&#45;&gt;Node26 -->
<g id="edge47_Node000025_Node000026" class="edge">
<title>Node25&#45;&gt;Node26</title>
<g id="a_edge47_Node000025_Node000026"><a xlink:title=" ">
<path fill="none" stroke="#63b8ff" d="M2481.16,-84.43C2391.53,-70.47 2252.32,-52.47 2130.75,-52.47 2130.75,-52.47 2130.75,-52.47 1921.5,-52.47 1802.91,-52.47 1666.34,-58.43 1577.91,-63.07"/>
<polygon fill="#63b8ff" stroke="#63b8ff" points="2480.47,-87.86 2490.89,-85.96 2481.56,-80.95 2480.47,-87.86"/>
</a>
</g>
</g>
<!-- Node26&#45;&gt;Node11 -->
<g id="edge48_Node000026_Node000011" class="edge">
<title>Node26&#45;&gt;Node11</title>
<g id="a_edge48_Node000026_Node000011"><a xlink:title=" ">
<path fill="none" stroke="#63b8ff" d="M1453.49,-91.97C1408.09,-128.6 1321.59,-198.39 1282.31,-230.08"/>
<polygon fill="#63b8ff" stroke="#63b8ff" points="1455.5,-94.85 1461.09,-85.84 1451.11,-89.4 1455.5,-94.85"/>
</a>
</g>
</g>
<!-- Node26&#45;&gt;Node17 -->
<g id="edge49_Node000026_Node000017" class="edge">
<title>Node26&#45;&gt;Node17</title>
<g id="a_edge49_Node000026_Node000017"><a xlink:title=" ">
<path fill="none" stroke="#63b8ff" d="M1378.13,-68.47C1370.14,-68.47 1362.11,-68.47 1354.21,-68.47"/>
<polygon fill="#63b8ff" stroke="#63b8ff" points="1377.87,-71.97 1387.87,-68.47 1377.87,-64.97 1377.87,-71.97"/>
</a>
</g>
</g>
</g>
</svg>
