<?xml version="1.0" encoding="UTF-8" standalone="no"?>
<!DOCTYPE svg PUBLIC "-//W3C//DTD SVG 1.1//EN"
 "http://www.w3.org/Graphics/SVG/1.1/DTD/svg11.dtd">
<!-- Generated by graphviz version 13.1.2 (20250808.2320)
 -->
<!-- Title: editeurpanovisu.NavigateurOpenLayers.afficheCartesOpenlayer Pages: 1 -->
<svg width="596pt" height="40pt"
 viewBox="0.00 0.00 596.00 40.00" xmlns="http://www.w3.org/2000/svg" xmlns:xlink="http://www.w3.org/1999/xlink">
<g id="graph0" class="graph" transform="scale(1 1) rotate(0) translate(4 36)">
<title>editeurpanovisu.NavigateurOpenLayers.afficheCartesOpenlayer</title>
<!-- Node1 -->
<g id="Node000001" class="node">
<title>Node1</title>
<g id="a_Node000001"><a xlink:title=" ">
<polygon fill="#999999" stroke="#666666" points="588,-32 414.5,-32 414.5,0 588,0 588,-32"/>
<text xml:space="preserve" text-anchor="start" x="422.5" y="-18.5" font-family="Helvetica,sans-Serif" font-size="10.00">editeurpanovisu.Navigateur</text>
<text xml:space="preserve" text-anchor="middle" x="501.25" y="-6.5" font-family="Helvetica,sans-Serif" font-size="10.00">OpenLayers.afficheCartesOpenlayer</text>
</a>
</g>
</g>
<!-- Node2 -->
<g id="Node000002" class="node">
<title>Node2</title>
<g id="a_Node000002"><a xlink:href="classediteurpanovisu_1_1NavigateurOpenLayers.html#a3a6dc2db0ee3eacba379c83d31c17903" target="_top" xlink:title=" ">
<polygon fill="white" stroke="#666666" points="378.5,-32 230.5,-32 230.5,0 378.5,0 378.5,-32"/>
<text xml:space="preserve" text-anchor="start" x="238.5" y="-18.5" font-family="Helvetica,sans-Serif" font-size="10.00">editeurpanovisu.Navigateur</text>
<text xml:space="preserve" text-anchor="middle" x="304.5" y="-6.5" font-family="Helvetica,sans-Serif" font-size="10.00">OpenLayers.valideBingApiKey</text>
</a>
</g>
</g>
<!-- Node1&#45;&gt;Node2 -->
<g id="edge1_Node000001_Node000002" class="edge">
<title>Node1&#45;&gt;Node2</title>
<g id="a_edge1_Node000001_Node000002"><a xlink:title=" ">
<path fill="none" stroke="#63b8ff" d="M402.86,-16C394.77,-16 386.69,-16 378.83,-16"/>
<polygon fill="#63b8ff" stroke="#63b8ff" points="402.75,-19.5 412.75,-16 402.75,-12.5 402.75,-19.5"/>
</a>
</g>
</g>
<!-- Node3 -->
<g id="Node000003" class="node">
<title>Node3</title>
<g id="a_Node000003"><a xlink:href="classediteurpanovisu_1_1NavigateurOpenLayers.html#af404b0c40f1be6ee0fa9f05525606813" target="_top" xlink:title=" ">
<polygon fill="white" stroke="#666666" points="194.5,-32 0,-32 0,0 194.5,0 194.5,-32"/>
<text xml:space="preserve" text-anchor="start" x="8" y="-18.5" font-family="Helvetica,sans-Serif" font-size="10.00">editeurpanovisu.Navigateur</text>
<text xml:space="preserve" text-anchor="middle" x="97.25" y="-6.5" font-family="Helvetica,sans-Serif" font-size="10.00">OpenLayers.afficheNavigateurOpenLayer</text>
</a>
</g>
</g>
<!-- Node2&#45;&gt;Node3 -->
<g id="edge2_Node000002_Node000003" class="edge">
<title>Node2&#45;&gt;Node3</title>
<g id="a_edge2_Node000002_Node000003"><a xlink:title=" ">
<path fill="none" stroke="#63b8ff" d="M218.79,-16C210.86,-16 202.79,-16 194.76,-16"/>
<polygon fill="#63b8ff" stroke="#63b8ff" points="218.76,-19.5 228.76,-16 218.76,-12.5 218.76,-19.5"/>
</a>
</g>
</g>
</g>
</svg>
