<?xml version="1.0" encoding="UTF-8" standalone="no"?>
<!DOCTYPE svg PUBLIC "-//W3C//DTD SVG 1.1//EN"
 "http://www.w3.org/Graphics/SVG/1.1/DTD/svg11.dtd">
<!-- Generated by graphviz version 13.1.2 (20250808.2320)
 -->
<!-- Title: editeurpanovisu.MarkdownViewer.afficherMarkdown Pages: 1 -->
<svg width="509pt" height="108pt"
 viewBox="0.00 0.00 509.00 108.00" xmlns="http://www.w3.org/2000/svg" xmlns:xlink="http://www.w3.org/1999/xlink">
<g id="graph0" class="graph" transform="scale(1 1) rotate(0) translate(4 104)">
<title>editeurpanovisu.MarkdownViewer.afficherMarkdown</title>
<!-- Node1 -->
<g id="Node000001" class="node">
<title>Node1</title>
<g id="a_Node000001"><a xlink:title="Affiche du contenu Markdown dans une WebView.">
<polygon fill="#999999" stroke="#666666" points="132.25,-66 0,-66 0,-34 132.25,-34 132.25,-66"/>
<text xml:space="preserve" text-anchor="start" x="8" y="-52.5" font-family="Helvetica,sans-Serif" font-size="10.00">editeurpanovisu.Markdown</text>
<text xml:space="preserve" text-anchor="middle" x="66.12" y="-40.5" font-family="Helvetica,sans-Serif" font-size="10.00">Viewer.afficherMarkdown</text>
</a>
</g>
</g>
<!-- Node2 -->
<g id="Node000002" class="node">
<title>Node2</title>
<g id="a_Node000002"><a xlink:href="classediteurpanovisu_1_1MarkdownViewer.html#a93aeaf0c671032f2da3d4a18d9fcf752" target="_top" xlink:title="Convertit du Markdown en HTML.">
<polygon fill="white" stroke="#666666" points="332.75,-100 168.25,-100 168.25,-68 332.75,-68 332.75,-100"/>
<text xml:space="preserve" text-anchor="start" x="176.25" y="-86.5" font-family="Helvetica,sans-Serif" font-size="10.00">editeurpanovisu.Markdown</text>
<text xml:space="preserve" text-anchor="middle" x="250.5" y="-74.5" font-family="Helvetica,sans-Serif" font-size="10.00">Viewer.convertirMarkdownEnHtml</text>
</a>
</g>
</g>
<!-- Node1&#45;&gt;Node2 -->
<g id="edge1_Node000001_Node000002" class="edge">
<title>Node1&#45;&gt;Node2</title>
<g id="a_edge1_Node000001_Node000002"><a xlink:title=" ">
<path fill="none" stroke="#63b8ff" d="M132.71,-62.23C140.57,-63.69 148.71,-65.21 156.87,-66.73"/>
<polygon fill="#63b8ff" stroke="#63b8ff" points="156.01,-70.13 166.48,-68.52 157.3,-63.25 156.01,-70.13"/>
</a>
</g>
</g>
<!-- Node4 -->
<g id="Node000004" class="node">
<title>Node4</title>
<g id="a_Node000004"><a xlink:href="classediteurpanovisu_1_1MarkdownViewer.html#a819e79889af18dc33a07fab30c6e1369" target="_top" xlink:title="Enveloppe le HTML dans une structure complète avec CSS.">
<polygon fill="white" stroke="#666666" points="320.75,-32 180.25,-32 180.25,0 320.75,0 320.75,-32"/>
<text xml:space="preserve" text-anchor="start" x="188.25" y="-18.5" font-family="Helvetica,sans-Serif" font-size="10.00">editeurpanovisu.Markdown</text>
<text xml:space="preserve" text-anchor="middle" x="250.5" y="-6.5" font-family="Helvetica,sans-Serif" font-size="10.00">Viewer.envelopperDansHtml</text>
</a>
</g>
</g>
<!-- Node1&#45;&gt;Node4 -->
<g id="edge3_Node000001_Node000004" class="edge">
<title>Node1&#45;&gt;Node4</title>
<g id="a_edge3_Node000001_Node000004"><a xlink:title=" ">
<path fill="none" stroke="#63b8ff" d="M132.71,-37.77C144.44,-35.59 156.78,-33.29 168.87,-31.03"/>
<polygon fill="#63b8ff" stroke="#63b8ff" points="169.2,-34.53 178.39,-29.26 167.92,-27.65 169.2,-34.53"/>
</a>
</g>
</g>
<!-- Node3 -->
<g id="Node000003" class="node">
<title>Node3</title>
<g id="a_Node000003"><a xlink:href="classediteurpanovisu_1_1MarkdownViewer.html#a861f2a104621e752b0eee2e71ee2c071" target="_top" xlink:title="Remplace les émojis courants par des badges visuels stylisés Affiche uniquement l&#39;icône,...">
<polygon fill="white" stroke="#666666" points="501,-100 368.75,-100 368.75,-68 501,-68 501,-100"/>
<text xml:space="preserve" text-anchor="start" x="376.75" y="-86.5" font-family="Helvetica,sans-Serif" font-size="10.00">editeurpanovisu.Markdown</text>
<text xml:space="preserve" text-anchor="middle" x="434.88" y="-74.5" font-family="Helvetica,sans-Serif" font-size="10.00">Viewer.remplacerEmojis</text>
</a>
</g>
</g>
<!-- Node2&#45;&gt;Node3 -->
<g id="edge2_Node000002_Node000003" class="edge">
<title>Node2&#45;&gt;Node3</title>
<g id="a_edge2_Node000002_Node000003"><a xlink:title=" ">
<path fill="none" stroke="#63b8ff" d="M333.09,-84C341.05,-84 349.11,-84 357.03,-84"/>
<polygon fill="#63b8ff" stroke="#63b8ff" points="356.98,-87.5 366.98,-84 356.98,-80.5 356.98,-87.5"/>
</a>
</g>
</g>
<!-- Node4&#45;&gt;Node4 -->
<g id="edge4_Node000004_Node000004" class="edge">
<title>Node4&#45;&gt;Node4</title>
<g id="a_edge4_Node000004_Node000004"><a xlink:title=" ">
<path fill="none" stroke="#63b8ff" d="M217.58,-32.44C211.44,-41.58 222.41,-50 250.5,-50 265.86,-50 276.1,-47.48 281.23,-43.71"/>
<polygon fill="#63b8ff" stroke="#63b8ff" points="284.65,-44.41 283.13,-33.93 277.78,-43.08 284.65,-44.41"/>
</a>
</g>
</g>
</g>
</svg>
