<?xml version="1.0" encoding="UTF-8" standalone="no"?>
<!DOCTYPE svg PUBLIC "-//W3C//DTD SVG 1.1//EN"
 "http://www.w3.org/Graphics/SVG/1.1/DTD/svg11.dtd">
<!-- Generated by graphviz version 13.1.2 (20250808.2320)
 -->
<!-- Title: editeurpanovisu.GestionnairePlanController.affichageHS Pages: 1 -->
<svg width="617pt" height="140pt"
 viewBox="0.00 0.00 617.00 140.00" xmlns="http://www.w3.org/2000/svg" xmlns:xlink="http://www.w3.org/1999/xlink">
<g id="graph0" class="graph" transform="scale(1 1) rotate(0) translate(4 136)">
<title>editeurpanovisu.GestionnairePlanController.affichageHS</title>
<!-- Node1 -->
<g id="Node000001" class="node">
<title>Node1</title>
<g id="a_Node000001"><a xlink:title=" ">
<polygon fill="#999999" stroke="#666666" points="142,-107 0,-107 0,-75 142,-75 142,-107"/>
<text xml:space="preserve" text-anchor="start" x="8" y="-93.5" font-family="Helvetica,sans-Serif" font-size="10.00">editeurpanovisu.Gestionnaire</text>
<text xml:space="preserve" text-anchor="middle" x="71" y="-81.5" font-family="Helvetica,sans-Serif" font-size="10.00">PlanController.affichageHS</text>
</a>
</g>
</g>
<!-- Node2 -->
<g id="Node000002" class="node">
<title>Node2</title>
<g id="a_Node000002"><a xlink:href="classediteurpanovisu_1_1GestionnairePlanController.html#ac6a814832aad8390d7157032c3f7f107" target="_top" xlink:title=" ">
<polygon fill="white" stroke="#666666" points="365,-132 178,-132 178,-100 365,-100 365,-132"/>
<text xml:space="preserve" text-anchor="start" x="186" y="-118.5" font-family="Helvetica,sans-Serif" font-size="10.00">editeurpanovisu.Gestionnaire</text>
<text xml:space="preserve" text-anchor="middle" x="271.5" y="-106.5" font-family="Helvetica,sans-Serif" font-size="10.00">PlanController.ajouteAffichageHotspots</text>
</a>
</g>
</g>
<!-- Node1&#45;&gt;Node2 -->
<g id="edge1_Node000001_Node000002" class="edge">
<title>Node1&#45;&gt;Node2</title>
<g id="a_edge1_Node000001_Node000002"><a xlink:title=" ">
<path fill="none" stroke="#63b8ff" d="M142.26,-93.36C154.77,-94.7 167.95,-96.29 180.91,-98"/>
<polygon fill="#63b8ff" stroke="#63b8ff" points="180.34,-101.45 190.72,-99.32 181.28,-94.51 180.34,-101.45"/>
</a>
</g>
</g>
<!-- Node6 -->
<g id="Node000006" class="node">
<title>Node6</title>
<g id="a_Node000006"><a xlink:href="classediteurpanovisu_1_1GestionnairePlanController.html#ae85c33829adf0dab112e4120e0dd2df2" target="_top" xlink:title=" ">
<polygon fill="white" stroke="#666666" points="363.5,-82 179.5,-82 179.5,-50 363.5,-50 363.5,-82"/>
<text xml:space="preserve" text-anchor="start" x="187.5" y="-68.5" font-family="Helvetica,sans-Serif" font-size="10.00">editeurpanovisu.Gestionnaire</text>
<text xml:space="preserve" text-anchor="middle" x="271.5" y="-56.5" font-family="Helvetica,sans-Serif" font-size="10.00">PlanController.retireAffichageHotSpots</text>
</a>
</g>
</g>
<!-- Node1&#45;&gt;Node6 -->
<g id="edge6_Node000001_Node000006" class="edge">
<title>Node1&#45;&gt;Node6</title>
<g id="a_edge6_Node000001_Node000006"><a xlink:title=" ">
<path fill="none" stroke="#63b8ff" d="M142.26,-82.15C150.56,-81.11 159.15,-80.02 167.78,-78.94"/>
<polygon fill="#63b8ff" stroke="#63b8ff" points="168.14,-82.42 177.62,-77.7 167.26,-75.47 168.14,-82.42"/>
</a>
</g>
</g>
<!-- Node7 -->
<g id="Node000007" class="node">
<title>Node7</title>
<g id="a_Node000007"><a xlink:href="classediteurpanovisu_1_1GestionnairePlanController.html#ae1523e38be18cc67cdfc275adff5dd18" target="_top" xlink:title=" ">
<polygon fill="white" stroke="#666666" points="342.5,-32 200.5,-32 200.5,0 342.5,0 342.5,-32"/>
<text xml:space="preserve" text-anchor="start" x="208.5" y="-18.5" font-family="Helvetica,sans-Serif" font-size="10.00">editeurpanovisu.Gestionnaire</text>
<text xml:space="preserve" text-anchor="middle" x="271.5" y="-6.5" font-family="Helvetica,sans-Serif" font-size="10.00">PlanController.valideHsplan</text>
</a>
</g>
</g>
<!-- Node1&#45;&gt;Node7 -->
<g id="edge7_Node000001_Node000007" class="edge">
<title>Node1&#45;&gt;Node7</title>
<g id="a_edge7_Node000001_Node000007"><a xlink:title=" ">
<path fill="none" stroke="#63b8ff" d="M102.92,-74.64C123.74,-64.06 152.03,-50.55 178,-41 182.91,-39.19 188.02,-37.45 193.19,-35.79"/>
<polygon fill="#63b8ff" stroke="#63b8ff" points="193.9,-39.23 202.42,-32.94 191.83,-32.55 193.9,-39.23"/>
</a>
</g>
</g>
<!-- Node2&#45;&gt;Node1 -->
<g id="edge2_Node000002_Node000001" class="edge">
<title>Node2&#45;&gt;Node1</title>
<g id="a_edge2_Node000002_Node000001"><a xlink:title=" ">
<path fill="none" stroke="#63b8ff" d="M177.74,-111.05C169.63,-110.06 161.46,-109.01 153.45,-107.91"/>
<polygon fill="#63b8ff" stroke="#63b8ff" points="154.15,-104.48 143.76,-106.55 153.18,-111.41 154.15,-104.48"/>
</a>
</g>
</g>
<!-- Node3 -->
<g id="Node000003" class="node">
<title>Node3</title>
<g id="a_Node000003"><a xlink:href="classediteurpanovisu_1_1GestionnairePlanController.html#a2edd566ca304172fcd4ab5559dd1738c" target="_top" xlink:title=" ">
<polygon fill="white" stroke="#666666" points="544.5,-80 401,-80 401,-48 544.5,-48 544.5,-80"/>
<text xml:space="preserve" text-anchor="start" x="409" y="-66.5" font-family="Helvetica,sans-Serif" font-size="10.00">editeurpanovisu.Gestionnaire</text>
<text xml:space="preserve" text-anchor="middle" x="472.75" y="-54.5" font-family="Helvetica,sans-Serif" font-size="10.00">PlanController.getiPlanActuel</text>
</a>
</g>
</g>
<!-- Node2&#45;&gt;Node3 -->
<g id="edge3_Node000002_Node000003" class="edge">
<title>Node2&#45;&gt;Node3</title>
<g id="a_edge3_Node000002_Node000003"><a xlink:title=" ">
<path fill="none" stroke="#63b8ff" d="M335.54,-99.55C355.36,-94.38 377.41,-88.62 397.9,-83.27"/>
<polygon fill="#63b8ff" stroke="#63b8ff" points="398.52,-86.73 407.31,-80.82 396.75,-79.96 398.52,-86.73"/>
</a>
</g>
</g>
<!-- Node4 -->
<g id="Node000004" class="node">
<title>Node4</title>
<g id="a_Node000004"><a xlink:href="classediteurpanovisu_1_1GestionnairePlanController.html#ace9c9d5683a0db9254026f3cb20cedd3" target="_top" xlink:title=" ">
<polygon fill="white" stroke="#666666" points="543.75,-131 401.75,-131 401.75,-99 543.75,-99 543.75,-131"/>
<text xml:space="preserve" text-anchor="start" x="409.75" y="-117.5" font-family="Helvetica,sans-Serif" font-size="10.00">editeurpanovisu.Gestionnaire</text>
<text xml:space="preserve" text-anchor="middle" x="472.75" y="-105.5" font-family="Helvetica,sans-Serif" font-size="10.00">PlanController.listePano</text>
</a>
</g>
</g>
<!-- Node2&#45;&gt;Node4 -->
<g id="edge4_Node000002_Node000004" class="edge">
<title>Node2&#45;&gt;Node4</title>
<g id="a_edge4_Node000002_Node000004"><a xlink:title=" ">
<path fill="none" stroke="#63b8ff" d="M365.42,-115.53C373.62,-115.49 381.89,-115.45 389.99,-115.41"/>
<polygon fill="#63b8ff" stroke="#63b8ff" points="389.82,-118.91 399.8,-115.36 389.79,-111.91 389.82,-118.91"/>
</a>
</g>
</g>
<!-- Node5 -->
<g id="Node000005" class="node">
<title>Node5</title>
<g id="a_Node000005"><a xlink:href="leaflet_8js.html#a73aff07b65d7c0b09ccf6b4c4f1b7a9d" target="_top" xlink:title=" ">
<polygon fill="white" stroke="#666666" points="609.3,-76 580.5,-76 580.5,-56 609.3,-56 609.3,-76"/>
<text xml:space="preserve" text-anchor="middle" x="594.9" y="-62.5" font-family="Helvetica,sans-Serif" font-size="10.00">i</text>
</a>
</g>
</g>
<!-- Node4&#45;&gt;Node5 -->
<g id="edge5_Node000004_Node000005" class="edge">
<title>Node4&#45;&gt;Node5</title>
<g id="a_edge5_Node000004_Node000005"><a xlink:title=" ">
<path fill="none" stroke="#63b8ff" d="M520.02,-98.63C528.22,-95.55 536.65,-92.26 544.5,-89 552.91,-85.5 561.98,-81.39 570.02,-77.61"/>
<polygon fill="#63b8ff" stroke="#63b8ff" points="571.31,-80.87 578.83,-73.41 568.3,-74.55 571.31,-80.87"/>
</a>
</g>
</g>
<!-- Node7&#45;&gt;Node3 -->
<g id="edge8_Node000007_Node000003" class="edge">
<title>Node7&#45;&gt;Node3</title>
<g id="a_edge8_Node000007_Node000003"><a xlink:title=" ">
<path fill="none" stroke="#63b8ff" d="M340.79,-32.45C357.43,-36.46 375.36,-40.78 392.45,-44.9"/>
<polygon fill="#63b8ff" stroke="#63b8ff" points="391.53,-48.28 402.08,-47.22 393.17,-41.47 391.53,-48.28"/>
</a>
</g>
</g>
<!-- Node7&#45;&gt;Node5 -->
<g id="edge9_Node000007_Node000005" class="edge">
<title>Node7&#45;&gt;Node5</title>
<g id="a_edge9_Node000007_Node000005"><a xlink:title=" ">
<path fill="none" stroke="#63b8ff" d="M342.73,-14.04C398.55,-14.35 478.02,-19 544.5,-39 553.48,-41.7 562.67,-46.17 570.65,-50.7"/>
<polygon fill="#63b8ff" stroke="#63b8ff" points="568.66,-53.59 579.03,-55.77 572.28,-47.6 568.66,-53.59"/>
</a>
</g>
</g>
</g>
</svg>
