<?xml version="1.0" encoding="UTF-8" standalone="no"?>
<!DOCTYPE svg PUBLIC "-//W3C//DTD SVG 1.1//EN"
 "http://www.w3.org/Graphics/SVG/1.1/DTD/svg11.dtd">
<!-- Generated by graphviz version 13.1.2 (20250808.2320)
 -->
<!-- Title: editeurpanovisu.EditeurPanovisu.isMac Pages: 1 -->
<svg width="409pt" height="90pt"
 viewBox="0.00 0.00 409.00 90.00" xmlns="http://www.w3.org/2000/svg" xmlns:xlink="http://www.w3.org/1999/xlink">
<g id="graph0" class="graph" transform="scale(1 1) rotate(0) translate(4 86)">
<title>editeurpanovisu.EditeurPanovisu.isMac</title>
<!-- Node1 -->
<g id="Node000001" class="node">
<title>Node1</title>
<g id="a_Node000001"><a xlink:title=" ">
<polygon fill="#999999" stroke="#666666" points="187.75,-51 0,-51 0,-31 187.75,-31 187.75,-51"/>
<text xml:space="preserve" text-anchor="middle" x="93.88" y="-37.5" font-family="Helvetica,sans-Serif" font-size="10.00">editeurpanovisu.EditeurPanovisu.isMac</text>
</a>
</g>
</g>
<!-- Node2 -->
<g id="Node000002" class="node">
<title>Node2</title>
<g id="a_Node000002"><a xlink:href="classediteurpanovisu_1_1EditeurPanovisu.html#ae3c2b74490eb14ababe14a0c6f3a9b9b" target="_top" xlink:title=" ">
<polygon fill="white" stroke="#666666" points="399.88,-82 224.88,-82 224.88,-50 399.88,-50 399.88,-82"/>
<text xml:space="preserve" text-anchor="start" x="232.88" y="-68.5" font-family="Helvetica,sans-Serif" font-size="10.00">editeurpanovisu.EditeurPanovisu.get</text>
<text xml:space="preserve" text-anchor="middle" x="312.38" y="-56.5" font-family="Helvetica,sans-Serif" font-size="10.00">StrSystemeExploitation</text>
</a>
</g>
</g>
<!-- Node1&#45;&gt;Node2 -->
<g id="edge1_Node000001_Node000002" class="edge">
<title>Node1&#45;&gt;Node2</title>
<g id="a_edge1_Node000001_Node000002"><a xlink:title=" ">
<path fill="none" stroke="#63b8ff" d="M185.75,-51.49C194.88,-52.55 204.18,-53.62 213.38,-54.68"/>
<polygon fill="#63b8ff" stroke="#63b8ff" points="212.7,-58.13 223.04,-55.8 213.5,-51.18 212.7,-58.13"/>
</a>
</g>
</g>
<!-- Node3 -->
<g id="Node000003" class="node">
<title>Node3</title>
<g id="a_Node000003"><a xlink:href="classediteurpanovisu_1_1EditeurPanovisu.html#a40a6a7f926e62f216d4a6fa72d3c6dc2" target="_top" xlink:title=" ">
<polygon fill="white" stroke="#666666" points="401,-32 223.75,-32 223.75,0 401,0 401,-32"/>
<text xml:space="preserve" text-anchor="start" x="231.75" y="-18.5" font-family="Helvetica,sans-Serif" font-size="10.00">editeurpanovisu.EditeurPanovisu.seti</text>
<text xml:space="preserve" text-anchor="middle" x="312.38" y="-6.5" font-family="Helvetica,sans-Serif" font-size="10.00">DecalageMac</text>
</a>
</g>
</g>
<!-- Node1&#45;&gt;Node3 -->
<g id="edge2_Node000001_Node000003" class="edge">
<title>Node1&#45;&gt;Node3</title>
<g id="a_edge2_Node000001_Node000003"><a xlink:title=" ">
<path fill="none" stroke="#63b8ff" d="M185.75,-30.51C194.54,-29.49 203.48,-28.46 212.34,-27.44"/>
<polygon fill="#63b8ff" stroke="#63b8ff" points="212.47,-30.94 222,-26.32 211.66,-23.99 212.47,-30.94"/>
</a>
</g>
</g>
</g>
</svg>
