<?xml version="1.0" encoding="UTF-8" standalone="no"?>
<!DOCTYPE svg PUBLIC "-//W3C//DTD SVG 1.1//EN"
 "http://www.w3.org/Graphics/SVG/1.1/DTD/svg11.dtd">
<!-- Generated by graphviz version 13.1.2 (20250808.2320)
 -->
<!-- Title: editeurpanovisu.OllamaService.getServiceName Pages: 1 -->
<svg width="844pt" height="62pt"
 viewBox="0.00 0.00 844.00 62.00" xmlns="http://www.w3.org/2000/svg" xmlns:xlink="http://www.w3.org/1999/xlink">
<g id="graph0" class="graph" transform="scale(1 1) rotate(0) translate(4 58)">
<title>editeurpanovisu.OllamaService.getServiceName</title>
<!-- Node1 -->
<g id="Node000001" class="node">
<title>Node1</title>
<g id="a_Node000001"><a xlink:title="Retourne le nom du service actuellement utilisé">
<polygon fill="#999999" stroke="#666666" points="835.75,-32 668.25,-32 668.25,0 835.75,0 835.75,-32"/>
<text xml:space="preserve" text-anchor="start" x="676.25" y="-18.5" font-family="Helvetica,sans-Serif" font-size="10.00">editeurpanovisu.OllamaService.get</text>
<text xml:space="preserve" text-anchor="middle" x="752" y="-6.5" font-family="Helvetica,sans-Serif" font-size="10.00">ServiceName</text>
</a>
</g>
</g>
<!-- Node2 -->
<g id="Node000002" class="node">
<title>Node2</title>
<g id="a_Node000002"><a xlink:href="classediteurpanovisu_1_1OllamaService.html#af1a118f057c3cffef9ce91c7a428304e" target="_top" xlink:title="Génère une description géographique basée sur les informations disponibles IMPORTANT : Tient compte d...">
<polygon fill="white" stroke="#666666" points="632.25,-54 446,-54 446,-22 632.25,-22 632.25,-54"/>
<text xml:space="preserve" text-anchor="start" x="454" y="-40.5" font-family="Helvetica,sans-Serif" font-size="10.00">editeurpanovisu.OllamaService.generer</text>
<text xml:space="preserve" text-anchor="middle" x="539.12" y="-28.5" font-family="Helvetica,sans-Serif" font-size="10.00">Description</text>
</a>
</g>
</g>
<!-- Node1&#45;&gt;Node2 -->
<g id="edge1_Node000001_Node000002" class="edge">
<title>Node1&#45;&gt;Node2</title>
<g id="a_edge1_Node000001_Node000002"><a xlink:title=" ">
<path fill="none" stroke="#63b8ff" d="M656.68,-25.84C648.64,-26.68 640.52,-27.53 632.5,-28.36"/>
<polygon fill="#63b8ff" stroke="#63b8ff" points="656.87,-29.34 666.45,-24.82 656.14,-22.38 656.87,-29.34"/>
</a>
</g>
</g>
<!-- Node3 -->
<g id="Node000003" class="node">
<title>Node3</title>
<g id="a_Node000003"><a xlink:href="classediteurpanovisu_1_1EditeurPanovisu.html#a31698230ca6021fb284e21e7a35135d0" target="_top" xlink:title="Génère une description IA pour le panoramique courant.">
<polygon fill="white" stroke="#666666" points="410,-32 216.25,-32 216.25,0 410,0 410,-32"/>
<text xml:space="preserve" text-anchor="start" x="224.25" y="-18.5" font-family="Helvetica,sans-Serif" font-size="10.00">editeurpanovisu.EditeurPanovisu.generer</text>
<text xml:space="preserve" text-anchor="middle" x="313.12" y="-6.5" font-family="Helvetica,sans-Serif" font-size="10.00">DescriptionIA</text>
</a>
</g>
</g>
<!-- Node1&#45;&gt;Node3 -->
<g id="edge4_Node000001_Node000003" class="edge">
<title>Node1&#45;&gt;Node3</title>
<g id="a_edge4_Node000001_Node000003"><a xlink:title=" ">
<path fill="none" stroke="#63b8ff" d="M656.69,-13.4C648.43,-13.24 640.19,-13.1 632.25,-13 549.48,-11.95 528.77,-12.06 446,-13 434.44,-13.13 422.3,-13.33 410.27,-13.56"/>
<polygon fill="#63b8ff" stroke="#63b8ff" points="656.37,-16.89 666.44,-13.6 656.52,-9.9 656.37,-16.89"/>
</a>
</g>
</g>
<!-- Node2&#45;&gt;Node3 -->
<g id="edge2_Node000002_Node000003" class="edge">
<title>Node2&#45;&gt;Node3</title>
<g id="a_edge2_Node000002_Node000003"><a xlink:title=" ">
<path fill="none" stroke="#63b8ff" d="M434.42,-27.81C426.38,-27.03 418.29,-26.23 410.3,-25.45"/>
<polygon fill="#63b8ff" stroke="#63b8ff" points="433.92,-31.28 444.22,-28.78 434.61,-24.32 433.92,-31.28"/>
</a>
</g>
</g>
<!-- Node4 -->
<g id="Node000004" class="node">
<title>Node4</title>
<g id="a_Node000004"><a xlink:href="classediteurpanovisu_1_1EditeurPanovisu.html#a86c393eee88f54c694db994ddd85b90d" target="_top" xlink:title=" ">
<polygon fill="white" stroke="#666666" points="180.25,-32 0,-32 0,0 180.25,0 180.25,-32"/>
<text xml:space="preserve" text-anchor="start" x="8" y="-18.5" font-family="Helvetica,sans-Serif" font-size="10.00">editeurpanovisu.EditeurPanovisu.cree</text>
<text xml:space="preserve" text-anchor="middle" x="90.12" y="-6.5" font-family="Helvetica,sans-Serif" font-size="10.00">Environnement</text>
</a>
</g>
</g>
<!-- Node3&#45;&gt;Node4 -->
<g id="edge3_Node000003_Node000004" class="edge">
<title>Node3&#45;&gt;Node4</title>
<g id="a_edge3_Node000003_Node000004"><a xlink:title=" ">
<path fill="none" stroke="#63b8ff" d="M204.5,-16C196.45,-16 188.39,-16 180.48,-16"/>
<polygon fill="#63b8ff" stroke="#63b8ff" points="204.32,-19.5 214.32,-16 204.32,-12.5 204.32,-19.5"/>
</a>
</g>
</g>
</g>
</svg>
