<?xml version="1.0" encoding="UTF-8" standalone="no"?>
<!DOCTYPE svg PUBLIC "-//W3C//DTD SVG 1.1//EN"
 "http://www.w3.org/Graphics/SVG/1.1/DTD/svg11.dtd">
<!-- Generated by graphviz version 13.1.2 (20250808.2320)
 -->
<!-- Title: editeurpanovisu.EditeurPanovisu.creeLoupe Pages: 1 -->
<svg width="402pt" height="78pt"
 viewBox="0.00 0.00 402.00 78.00" xmlns="http://www.w3.org/2000/svg" xmlns:xlink="http://www.w3.org/1999/xlink">
<g id="graph0" class="graph" transform="scale(1 1) rotate(0) translate(4 74)">
<title>editeurpanovisu.EditeurPanovisu.creeLoupe</title>
<!-- Node1 -->
<g id="Node000001" class="node">
<title>Node1</title>
<g id="a_Node000001"><a xlink:title=" ">
<polygon fill="#999999" stroke="#666666" points="180.25,-48 0,-48 0,-16 180.25,-16 180.25,-48"/>
<text xml:space="preserve" text-anchor="start" x="8" y="-34.5" font-family="Helvetica,sans-Serif" font-size="10.00">editeurpanovisu.EditeurPanovisu.cree</text>
<text xml:space="preserve" text-anchor="middle" x="90.12" y="-22.5" font-family="Helvetica,sans-Serif" font-size="10.00">Loupe</text>
</a>
</g>
</g>
<!-- Node2 -->
<g id="Node000002" class="node">
<title>Node2</title>
<g id="a_Node000002"><a xlink:href="classediteurpanovisu_1_1EditeurPanovisu.html#a8beb8be0c2cda7f591eb43a4cdafe04b" target="_top" xlink:title=" ">
<polygon fill="white" stroke="#666666" points="393.5,-70 216.25,-70 216.25,-38 393.5,-38 393.5,-70"/>
<text xml:space="preserve" text-anchor="start" x="224.25" y="-56.5" font-family="Helvetica,sans-Serif" font-size="10.00">editeurpanovisu.EditeurPanovisu.geti</text>
<text xml:space="preserve" text-anchor="middle" x="304.88" y="-44.5" font-family="Helvetica,sans-Serif" font-size="10.00">TailleLoupe</text>
</a>
</g>
</g>
<!-- Node1&#45;&gt;Node2 -->
<g id="edge1_Node000001_Node000002" class="edge">
<title>Node1&#45;&gt;Node2</title>
<g id="a_edge1_Node000001_Node000002"><a xlink:title=" ">
<path fill="none" stroke="#63b8ff" d="M180.73,-41.27C188.68,-42.09 196.76,-42.92 204.78,-43.75"/>
<polygon fill="#63b8ff" stroke="#63b8ff" points="204.26,-47.22 214.57,-44.76 204.98,-40.25 204.26,-47.22"/>
</a>
</g>
</g>
<!-- Node3 -->
<g id="Node000003" class="node">
<title>Node3</title>
<g id="a_Node000003"><a xlink:href="leaflet_8js.html#abf5830200d869e463ea38504a19985f6" target="_top" xlink:title=" ">
<polygon fill="white" stroke="#666666" points="319.62,-20 290.12,-20 290.12,0 319.62,0 319.62,-20"/>
<text xml:space="preserve" text-anchor="middle" x="304.88" y="-6.5" font-family="Helvetica,sans-Serif" font-size="10.00">me</text>
</a>
</g>
</g>
<!-- Node1&#45;&gt;Node3 -->
<g id="edge2_Node000001_Node000003" class="edge">
<title>Node1&#45;&gt;Node3</title>
<g id="a_edge2_Node000001_Node000003"><a xlink:title=" ">
<path fill="none" stroke="#63b8ff" d="M180.73,-22.73C216.13,-19.07 254.06,-15.15 278.33,-12.64"/>
<polygon fill="#63b8ff" stroke="#63b8ff" points="278.59,-16.13 288.18,-11.62 277.87,-9.17 278.59,-16.13"/>
</a>
</g>
</g>
</g>
</svg>
