<?xml version="1.0" encoding="UTF-8" standalone="no"?>
<!DOCTYPE svg PUBLIC "-//W3C//DTD SVG 1.1//EN"
 "http://www.w3.org/Graphics/SVG/1.1/DTD/svg11.dtd">
<!-- Generated by graphviz version 13.1.2 (20250808.2320)
 -->
<!-- Title: editeurpanovisu.ApiKeysConfig.getLocationIQApiKey Pages: 1 -->
<svg width="555pt" height="62pt"
 viewBox="0.00 0.00 555.00 62.00" xmlns="http://www.w3.org/2000/svg" xmlns:xlink="http://www.w3.org/1999/xlink">
<g id="graph0" class="graph" transform="scale(1 1) rotate(0) translate(4 58)">
<title>editeurpanovisu.ApiKeysConfig.getLocationIQApiKey</title>
<!-- Node1 -->
<g id="Node000001" class="node">
<title>Node1</title>
<g id="a_Node000001"><a xlink:title="Récupère la clé API LocationIQ.">
<polygon fill="#999999" stroke="#666666" points="546.75,-32 377.75,-32 377.75,0 546.75,0 546.75,-32"/>
<text xml:space="preserve" text-anchor="start" x="385.75" y="-18.5" font-family="Helvetica,sans-Serif" font-size="10.00">editeurpanovisu.ApiKeysConfig.get</text>
<text xml:space="preserve" text-anchor="middle" x="462.25" y="-6.5" font-family="Helvetica,sans-Serif" font-size="10.00">LocationIQApiKey</text>
</a>
</g>
</g>
<!-- Node2 -->
<g id="Node000002" class="node">
<title>Node2</title>
<g id="a_Node000002"><a xlink:href="classediteurpanovisu_1_1ApiKeysConfig.html#a904967c4ca879709082fd0b58c115562" target="_top" xlink:title="Vérifie si une clé API LocationIQ est configurée.">
<polygon fill="white" stroke="#666666" points="341.75,-54 170.5,-54 170.5,-22 341.75,-22 341.75,-54"/>
<text xml:space="preserve" text-anchor="start" x="178.5" y="-40.5" font-family="Helvetica,sans-Serif" font-size="10.00">editeurpanovisu.ApiKeysConfig.has</text>
<text xml:space="preserve" text-anchor="middle" x="256.12" y="-28.5" font-family="Helvetica,sans-Serif" font-size="10.00">LocationIQApiKey</text>
</a>
</g>
</g>
<!-- Node1&#45;&gt;Node2 -->
<g id="edge1_Node000001_Node000002" class="edge">
<title>Node1&#45;&gt;Node2</title>
<g id="a_edge1_Node000001_Node000002"><a xlink:title=" ">
<path fill="none" stroke="#63b8ff" d="M366.06,-26.26C358.04,-27.12 349.96,-27.99 342.03,-28.85"/>
<polygon fill="#63b8ff" stroke="#63b8ff" points="366.27,-29.76 375.84,-25.21 365.52,-22.8 366.27,-29.76"/>
</a>
</g>
</g>
<!-- Node3 -->
<g id="Node000003" class="node">
<title>Node3</title>
<g id="a_Node000003"><a xlink:href="classediteurpanovisu_1_1NavigateurCarte.html#add60fa1d1b3a4a15cddc4715fc5ee85d" target="_top" xlink:title=" ">
<polygon fill="white" stroke="#666666" points="134.5,-32 0,-32 0,0 134.5,0 134.5,-32"/>
<text xml:space="preserve" text-anchor="start" x="8" y="-18.5" font-family="Helvetica,sans-Serif" font-size="10.00">editeurpanovisu.Navigateur</text>
<text xml:space="preserve" text-anchor="middle" x="67.25" y="-6.5" font-family="Helvetica,sans-Serif" font-size="10.00">Carte.NavigateurCarte</text>
</a>
</g>
</g>
<!-- Node1&#45;&gt;Node3 -->
<g id="edge3_Node000001_Node000003" class="edge">
<title>Node1&#45;&gt;Node3</title>
<g id="a_edge3_Node000001_Node000003"><a xlink:title=" ">
<path fill="none" stroke="#63b8ff" d="M366.12,-13.4C357.88,-13.24 349.67,-13.1 341.75,-13 265.64,-12.04 246.6,-11.88 170.5,-13 158.96,-13.17 146.68,-13.45 134.8,-13.76"/>
<polygon fill="#63b8ff" stroke="#63b8ff" points="365.78,-16.89 375.85,-13.6 365.92,-9.89 365.78,-16.89"/>
</a>
</g>
</g>
<!-- Node2&#45;&gt;Node3 -->
<g id="edge2_Node000002_Node000003" class="edge">
<title>Node2&#45;&gt;Node3</title>
<g id="a_edge2_Node000002_Node000003"><a xlink:title=" ">
<path fill="none" stroke="#63b8ff" d="M158.74,-26.65C150.65,-25.7 142.59,-24.75 134.81,-23.84"/>
<polygon fill="#63b8ff" stroke="#63b8ff" points="158.32,-30.13 168.66,-27.82 159.14,-23.18 158.32,-30.13"/>
</a>
</g>
</g>
</g>
</svg>
