<?xml version="1.0" encoding="UTF-8" standalone="no"?>
<!DOCTYPE svg PUBLIC "-//W3C//DTD SVG 1.1//EN"
 "http://www.w3.org/Graphics/SVG/1.1/DTD/svg11.dtd">
<!-- Generated by graphviz version 13.1.2 (20250808.2320)
 -->
<!-- Title: editeurpanovisu.TransformationsPanoramique.equi2cube Pages: 1 -->
<svg width="231pt" height="142pt"
 viewBox="0.00 0.00 231.00 142.00" xmlns="http://www.w3.org/2000/svg" xmlns:xlink="http://www.w3.org/1999/xlink">
<g id="graph0" class="graph" transform="scale(1 1) rotate(0) translate(4 138)">
<title>editeurpanovisu.TransformationsPanoramique.equi2cube</title>
<!-- Node1 -->
<g id="Node000001" class="node">
<title>Node1</title>
<g id="a_Node000001"><a xlink:title=" ">
<polygon fill="#999999" stroke="#666666" points="157.75,-83 0,-83 0,-51 157.75,-51 157.75,-83"/>
<text xml:space="preserve" text-anchor="start" x="8" y="-69.5" font-family="Helvetica,sans-Serif" font-size="10.00">editeurpanovisu.Transformations</text>
<text xml:space="preserve" text-anchor="middle" x="78.88" y="-57.5" font-family="Helvetica,sans-Serif" font-size="10.00">Panoramique.equi2cube</text>
</a>
</g>
</g>
<!-- Node2 -->
<g id="Node000002" class="node">
<title>Node2</title>
<g id="a_Node000002"><a xlink:href="leaflet_8js.html#a73aff07b65d7c0b09ccf6b4c4f1b7a9d" target="_top" xlink:title=" ">
<polygon fill="white" stroke="#666666" points="222.55,-134 193.75,-134 193.75,-114 222.55,-114 222.55,-134"/>
<text xml:space="preserve" text-anchor="middle" x="208.15" y="-120.5" font-family="Helvetica,sans-Serif" font-size="10.00">i</text>
</a>
</g>
</g>
<!-- Node1&#45;&gt;Node2 -->
<g id="edge1_Node000001_Node000002" class="edge">
<title>Node1&#45;&gt;Node2</title>
<g id="a_edge1_Node000001_Node000002"><a xlink:title=" ">
<path fill="none" stroke="#63b8ff" d="M116.69,-83.49C138.07,-93.06 164.39,-104.85 183.12,-113.24"/>
<polygon fill="#63b8ff" stroke="#63b8ff" points="181.49,-116.34 192.05,-117.24 184.35,-109.95 181.49,-116.34"/>
</a>
</g>
</g>
<!-- Node3 -->
<g id="Node000003" class="node">
<title>Node3</title>
<g id="a_Node000003"><a xlink:href="leaflet_8js.html#afa3c32d9f7f168b0e59ddc33ec31bb84" target="_top" xlink:title=" ">
<polygon fill="white" stroke="#666666" points="222.55,-96 193.75,-96 193.75,-76 222.55,-76 222.55,-96"/>
<text xml:space="preserve" text-anchor="middle" x="208.15" y="-82.5" font-family="Helvetica,sans-Serif" font-size="10.00">j</text>
</a>
</g>
</g>
<!-- Node1&#45;&gt;Node3 -->
<g id="edge2_Node000001_Node000003" class="edge">
<title>Node1&#45;&gt;Node3</title>
<g id="a_edge2_Node000001_Node000003"><a xlink:title=" ">
<path fill="none" stroke="#63b8ff" d="M157.94,-78.65C166.54,-79.94 174.76,-81.17 181.95,-82.24"/>
<polygon fill="#63b8ff" stroke="#63b8ff" points="181.36,-85.69 191.76,-83.7 182.39,-78.76 181.36,-85.69"/>
</a>
</g>
</g>
<!-- Node4 -->
<g id="Node000004" class="node">
<title>Node4</title>
<g id="a_Node000004"><a xlink:href="leaflet_8js.html#a873cae0273c5a7d9673544bbe0a6fe8b" target="_top" xlink:title=" ">
<polygon fill="white" stroke="#666666" points="222.55,-58 193.75,-58 193.75,-38 222.55,-38 222.55,-58"/>
<text xml:space="preserve" text-anchor="middle" x="208.15" y="-44.5" font-family="Helvetica,sans-Serif" font-size="10.00">Y</text>
</a>
</g>
</g>
<!-- Node1&#45;&gt;Node4 -->
<g id="edge3_Node000001_Node000004" class="edge">
<title>Node1&#45;&gt;Node4</title>
<g id="a_edge3_Node000001_Node000004"><a xlink:title=" ">
<path fill="none" stroke="#63b8ff" d="M157.94,-55.35C166.54,-54.06 174.76,-52.83 181.95,-51.76"/>
<polygon fill="#63b8ff" stroke="#63b8ff" points="182.39,-55.24 191.76,-50.3 181.36,-48.31 182.39,-55.24"/>
</a>
</g>
</g>
<!-- Node5 -->
<g id="Node000005" class="node">
<title>Node5</title>
<g id="a_Node000005"><a xlink:href="leaflet_8js.html#a225602860fb21629c65836853697cc39" target="_top" xlink:title=" ">
<polygon fill="white" stroke="#666666" points="222.55,-20 193.75,-20 193.75,0 222.55,0 222.55,-20"/>
<text xml:space="preserve" text-anchor="middle" x="208.15" y="-6.5" font-family="Helvetica,sans-Serif" font-size="10.00">Z</text>
</a>
</g>
</g>
<!-- Node1&#45;&gt;Node5 -->
<g id="edge4_Node000001_Node000005" class="edge">
<title>Node1&#45;&gt;Node5</title>
<g id="a_edge4_Node000001_Node000005"><a xlink:title=" ">
<path fill="none" stroke="#63b8ff" d="M116.69,-50.51C138.07,-40.94 164.39,-29.15 183.12,-20.76"/>
<polygon fill="#63b8ff" stroke="#63b8ff" points="184.35,-24.05 192.05,-16.76 181.49,-17.66 184.35,-24.05"/>
</a>
</g>
</g>
</g>
</svg>
