<?xml version="1.0" encoding="UTF-8" standalone="no"?>
<!DOCTYPE svg PUBLIC "-//W3C//DTD SVG 1.1//EN"
 "http://www.w3.org/Graphics/SVG/1.1/DTD/svg11.dtd">
<!-- Generated by graphviz version 13.1.2 (20250808.2320)
 -->
<!-- Title: editeurpanovisu.EquiCubeDialogController.ListeTransformationCouleur Pages: 1 -->
<svg width="175pt" height="184pt"
 viewBox="0.00 0.00 175.00 184.00" xmlns="http://www.w3.org/2000/svg" xmlns:xlink="http://www.w3.org/1999/xlink">
<g id="graph0" class="graph" transform="scale(1 1) rotate(0) translate(4 180)">
<title>editeurpanovisu.EquiCubeDialogController.ListeTransformationCouleur</title>
<!-- Node1 -->
<g id="Node000001" class="node">
<title>Node1</title>
<g id="a_Node000001"><a xlink:title="Colorisation de la ListView des images à transformer.">
<polygon fill="#999999" stroke="none" points="167,-88 0,-88 0,0 167,0 167,-88"/>
<text xml:space="preserve" text-anchor="start" x="4" y="-74.5" font-family="Helvetica,sans-Serif" font-size="10.00">editeurpanovisu.EquiCube</text>
<text xml:space="preserve" text-anchor="start" x="4" y="-62.5" font-family="Helvetica,sans-Serif" font-size="10.00">DialogController.ListeTransformation</text>
<text xml:space="preserve" text-anchor="start" x="66.62" y="-50.5" font-family="Helvetica,sans-Serif" font-size="10.00">Couleur</text>
<text xml:space="preserve" text-anchor="start" x="82" y="-34.5" font-family="Helvetica,sans-Serif" font-size="10.00"> </text>
<text xml:space="preserve" text-anchor="start" x="12.94" y="-18.5" font-family="Helvetica,sans-Serif" font-size="10.00">+</text>
<text xml:space="preserve" text-anchor="start" x="31.88" y="-18.5" font-family="Helvetica,sans-Serif" font-size="10.00">void updateItem(String</text>
<text xml:space="preserve" text-anchor="start" x="31.88" y="-6.5" font-family="Helvetica,sans-Serif" font-size="10.00"> strItem, boolean bEmpty)</text>
<polygon fill="#666666" stroke="#666666" points="0,-46 0,-46 167,-46 167,-46 0,-46"/>
<polygon fill="#666666" stroke="#666666" points="0,-30 0,-30 167,-30 167,-30 0,-30"/>
<polygon fill="none" stroke="#666666" points="0,0 0,-88 167,-88 167,0 0,0"/>
</a>
</g>
</g>
<!-- Node2 -->
<g id="Node000002" class="node">
<title>Node2</title>
<g id="a_Node000002"><a xlink:title=" ">
<polygon fill="white" stroke="none" points="125.75,-176 41.25,-176 41.25,-124 125.75,-124 125.75,-176"/>
<text xml:space="preserve" text-anchor="start" x="45.25" y="-162.5" font-family="Helvetica,sans-Serif" font-size="10.00">ListCell&lt; String &gt;</text>
<text xml:space="preserve" text-anchor="start" x="82" y="-146.5" font-family="Helvetica,sans-Serif" font-size="10.00"> </text>
<text xml:space="preserve" text-anchor="start" x="82" y="-130.5" font-family="Helvetica,sans-Serif" font-size="10.00"> </text>
<polygon fill="#666666" stroke="#666666" points="41.25,-158 41.25,-158 125.75,-158 125.75,-158 41.25,-158"/>
<polygon fill="#666666" stroke="#666666" points="41.25,-142 41.25,-142 125.75,-142 125.75,-142 41.25,-142"/>
<polygon fill="none" stroke="#666666" points="41.25,-124 41.25,-176 125.75,-176 125.75,-124 41.25,-124"/>
</a>
</g>
</g>
<!-- Node2&#45;&gt;Node1 -->
<g id="edge1_Node000001_Node000002" class="edge">
<title>Node2&#45;&gt;Node1</title>
<g id="a_edge1_Node000001_Node000002"><a xlink:title=" ">
<path fill="none" stroke="#63b8ff" d="M83.5,-112.84C83.5,-104.83 83.5,-96.25 83.5,-87.99"/>
<polygon fill="none" stroke="#63b8ff" points="80,-112.58 83.5,-122.58 87,-112.58 80,-112.58"/>
</a>
</g>
</g>
</g>
</svg>
