<?xml version="1.0" encoding="UTF-8" standalone="no"?>
<!DOCTYPE svg PUBLIC "-//W3C//DTD SVG 1.1//EN"
 "http://www.w3.org/Graphics/SVG/1.1/DTD/svg11.dtd">
<!-- Generated by graphviz version 13.1.2 (20250808.2320)
 -->
<!-- Title: editeurpanovisu.EditeurPanovisu.getStrTypeFichierTransf Pages: 1 -->
<svg width="1350pt" height="184pt"
 viewBox="0.00 0.00 1350.00 184.00" xmlns="http://www.w3.org/2000/svg" xmlns:xlink="http://www.w3.org/1999/xlink">
<g id="graph0" class="graph" transform="scale(1 1) rotate(0) translate(4 180)">
<title>editeurpanovisu.EditeurPanovisu.getStrTypeFichierTransf</title>
<!-- Node1 -->
<g id="Node000001" class="node">
<title>Node1</title>
<g id="a_Node000001"><a xlink:title=" ">
<polygon fill="#999999" stroke="#666666" points="1341.75,-117 1166.75,-117 1166.75,-85 1341.75,-85 1341.75,-117"/>
<text xml:space="preserve" text-anchor="start" x="1174.75" y="-103.5" font-family="Helvetica,sans-Serif" font-size="10.00">editeurpanovisu.EditeurPanovisu.get</text>
<text xml:space="preserve" text-anchor="middle" x="1254.25" y="-91.5" font-family="Helvetica,sans-Serif" font-size="10.00">StrTypeFichierTransf</text>
</a>
</g>
</g>
<!-- Node2 -->
<g id="Node000002" class="node">
<title>Node2</title>
<g id="a_Node000002"><a xlink:href="classediteurpanovisu_1_1EquiCubeDialogController.html#a05e62237b5363eba15018189320cf5db" target="_top" xlink:title=" ">
<polygon fill="white" stroke="#666666" points="886.75,-158 736.5,-158 736.5,-126 886.75,-126 886.75,-158"/>
<text xml:space="preserve" text-anchor="start" x="744.5" y="-144.5" font-family="Helvetica,sans-Serif" font-size="10.00">editeurpanovisu.EquiCube</text>
<text xml:space="preserve" text-anchor="middle" x="811.62" y="-132.5" font-family="Helvetica,sans-Serif" font-size="10.00">DialogController.afficheFenetre</text>
</a>
</g>
</g>
<!-- Node1&#45;&gt;Node2 -->
<g id="edge1_Node000001_Node000002" class="edge">
<title>Node1&#45;&gt;Node2</title>
<g id="a_edge1_Node000001_Node000002"><a xlink:title=" ">
<path fill="none" stroke="#63b8ff" d="M1155.25,-110.12C1074.23,-117.66 960.9,-128.2 887.14,-135.07"/>
<polygon fill="#63b8ff" stroke="#63b8ff" points="1155.32,-113.63 1164.95,-109.22 1154.67,-106.66 1155.32,-113.63"/>
</a>
</g>
</g>
<!-- Node7 -->
<g id="Node000007" class="node">
<title>Node7</title>
<g id="a_Node000007"><a xlink:href="classediteurpanovisu_1_1EditeurPanovisu.html#aab293202a1140d1151a35062614f436e" target="_top" xlink:title=" ">
<polygon fill="white" stroke="#666666" points="1130.75,-95 943,-95 943,-63 1130.75,-63 1130.75,-95"/>
<text xml:space="preserve" text-anchor="start" x="951" y="-81.5" font-family="Helvetica,sans-Serif" font-size="10.00">editeurpanovisu.EditeurPanovisu.sauve</text>
<text xml:space="preserve" text-anchor="middle" x="1036.88" y="-69.5" font-family="Helvetica,sans-Serif" font-size="10.00">Preferences</text>
</a>
</g>
</g>
<!-- Node1&#45;&gt;Node7 -->
<g id="edge7_Node000001_Node000007" class="edge">
<title>Node1&#45;&gt;Node7</title>
<g id="a_edge7_Node000001_Node000007"><a xlink:title=" ">
<path fill="none" stroke="#63b8ff" d="M1155.08,-90.97C1147.12,-90.16 1139.09,-89.34 1131.16,-88.53"/>
<polygon fill="#63b8ff" stroke="#63b8ff" points="1154.46,-94.43 1164.76,-91.96 1155.17,-87.46 1154.46,-94.43"/>
</a>
</g>
</g>
<!-- Node3 -->
<g id="Node000003" class="node">
<title>Node3</title>
<g id="a_Node000003"><a xlink:href="classediteurpanovisu_1_1EditeurPanovisu.html#a93957c2097ff96e3588049e82b749c2d" target="_top" xlink:title=" ">
<polygon fill="white" stroke="#666666" points="680.25,-176 456.5,-176 456.5,-144 680.25,-144 680.25,-176"/>
<text xml:space="preserve" text-anchor="start" x="464.5" y="-162.5" font-family="Helvetica,sans-Serif" font-size="10.00">editeurpanovisu.EditeurPanovisu.transformation</text>
<text xml:space="preserve" text-anchor="middle" x="568.38" y="-150.5" font-family="Helvetica,sans-Serif" font-size="10.00">Cube2Equi</text>
</a>
</g>
</g>
<!-- Node2&#45;&gt;Node3 -->
<g id="edge2_Node000002_Node000003" class="edge">
<title>Node2&#45;&gt;Node3</title>
<g id="a_edge2_Node000002_Node000003"><a xlink:title=" ">
<path fill="none" stroke="#63b8ff" d="M724.96,-148.39C710.63,-149.46 695.59,-150.58 680.74,-151.69"/>
<polygon fill="#63b8ff" stroke="#63b8ff" points="725.05,-151.89 734.76,-147.66 724.53,-144.91 725.05,-151.89"/>
</a>
</g>
</g>
<!-- Node6 -->
<g id="Node000006" class="node">
<title>Node6</title>
<g id="a_Node000006"><a xlink:href="classediteurpanovisu_1_1EditeurPanovisu.html#a11f8778a8326d6a7dee94344a246ec02" target="_top" xlink:title=" ">
<polygon fill="white" stroke="#666666" points="680.25,-126 456.5,-126 456.5,-94 680.25,-94 680.25,-126"/>
<text xml:space="preserve" text-anchor="start" x="464.5" y="-112.5" font-family="Helvetica,sans-Serif" font-size="10.00">editeurpanovisu.EditeurPanovisu.transformation</text>
<text xml:space="preserve" text-anchor="middle" x="568.38" y="-100.5" font-family="Helvetica,sans-Serif" font-size="10.00">Equi2Cube</text>
</a>
</g>
</g>
<!-- Node2&#45;&gt;Node6 -->
<g id="edge5_Node000002_Node000006" class="edge">
<title>Node2&#45;&gt;Node6</title>
<g id="a_edge5_Node000002_Node000006"><a xlink:title=" ">
<path fill="none" stroke="#63b8ff" d="M724.96,-130.64C710.63,-128.74 695.59,-126.74 680.74,-124.77"/>
<polygon fill="#63b8ff" stroke="#63b8ff" points="724.4,-134.09 734.77,-131.94 725.32,-127.15 724.4,-134.09"/>
</a>
</g>
</g>
<!-- Node4 -->
<g id="Node000004" class="node">
<title>Node4</title>
<g id="a_Node000004"><a xlink:href="classediteurpanovisu_1_1EditeurPanovisu.html#ac912b80c1f2ac97def60ff005c5c480b" target="_top" xlink:title=" ">
<polygon fill="white" stroke="#666666" points="420.5,-95 216.25,-95 216.25,-75 420.5,-75 420.5,-95"/>
<text xml:space="preserve" text-anchor="middle" x="318.38" y="-81.5" font-family="Helvetica,sans-Serif" font-size="10.00">editeurpanovisu.EditeurPanovisu.creeMenu</text>
</a>
</g>
</g>
<!-- Node3&#45;&gt;Node4 -->
<g id="edge3_Node000003_Node000004" class="edge">
<title>Node3&#45;&gt;Node4</title>
<g id="a_edge3_Node000003_Node000004"><a xlink:title=" ">
<path fill="none" stroke="#63b8ff" d="M477.68,-140.81C470.48,-138.96 463.35,-137.01 456.5,-135 416.99,-123.39 372.39,-106.38 345.08,-95.49"/>
<polygon fill="#63b8ff" stroke="#63b8ff" points="476.59,-144.15 487.15,-143.18 478.3,-137.36 476.59,-144.15"/>
</a>
</g>
</g>
<!-- Node5 -->
<g id="Node000005" class="node">
<title>Node5</title>
<g id="a_Node000005"><a xlink:href="classediteurpanovisu_1_1EditeurPanovisu.html#a86c393eee88f54c694db994ddd85b90d" target="_top" xlink:title=" ">
<polygon fill="white" stroke="#666666" points="180.25,-101 0,-101 0,-69 180.25,-69 180.25,-101"/>
<text xml:space="preserve" text-anchor="start" x="8" y="-87.5" font-family="Helvetica,sans-Serif" font-size="10.00">editeurpanovisu.EditeurPanovisu.cree</text>
<text xml:space="preserve" text-anchor="middle" x="90.12" y="-75.5" font-family="Helvetica,sans-Serif" font-size="10.00">Environnement</text>
</a>
</g>
</g>
<!-- Node4&#45;&gt;Node5 -->
<g id="edge4_Node000004_Node000005" class="edge">
<title>Node4&#45;&gt;Node5</title>
<g id="a_edge4_Node000004_Node000005"><a xlink:title=" ">
<path fill="none" stroke="#63b8ff" d="M204.51,-85C196.49,-85 188.46,-85 180.6,-85"/>
<polygon fill="#63b8ff" stroke="#63b8ff" points="204.32,-88.5 214.32,-85 204.32,-81.5 204.32,-88.5"/>
</a>
</g>
</g>
<!-- Node6&#45;&gt;Node4 -->
<g id="edge6_Node000006_Node000004" class="edge">
<title>Node6&#45;&gt;Node4</title>
<g id="a_edge6_Node000006_Node000004"><a xlink:title=" ">
<path fill="none" stroke="#63b8ff" d="M444.78,-97.64C436.78,-96.83 428.77,-96.03 420.88,-95.23"/>
<polygon fill="#63b8ff" stroke="#63b8ff" points="444.26,-101.11 454.56,-98.63 444.97,-94.14 444.26,-101.11"/>
</a>
</g>
</g>
<!-- Node8 -->
<g id="Node000008" class="node">
<title>Node8</title>
<g id="a_Node000008"><a xlink:href="classediteurpanovisu_1_1EditeurPanovisu.html#a94e36b9e9d09ab1a4c852b8a8cefa927" target="_top" xlink:title=" ">
<polygon fill="white" stroke="#666666" points="663.75,-76 473,-76 473,-44 663.75,-44 663.75,-76"/>
<text xml:space="preserve" text-anchor="start" x="481" y="-62.5" font-family="Helvetica,sans-Serif" font-size="10.00">editeurpanovisu.EditeurPanovisu.genere</text>
<text xml:space="preserve" text-anchor="middle" x="568.38" y="-50.5" font-family="Helvetica,sans-Serif" font-size="10.00">Visite</text>
</a>
</g>
</g>
<!-- Node7&#45;&gt;Node8 -->
<g id="edge8_Node000007_Node000008" class="edge">
<title>Node7&#45;&gt;Node8</title>
<g id="a_edge8_Node000007_Node000008"><a xlink:title=" ">
<path fill="none" stroke="#63b8ff" d="M931.32,-82.39C868.84,-83.57 787.93,-83.62 716.25,-79 699.32,-77.91 681.35,-76.12 664.01,-74.06"/>
<polygon fill="#63b8ff" stroke="#63b8ff" points="931.33,-85.89 941.25,-82.18 931.18,-78.89 931.33,-85.89"/>
</a>
</g>
</g>
<!-- Node9 -->
<g id="Node000009" class="node">
<title>Node9</title>
<g id="a_Node000009"><a xlink:href="classediteurpanovisu_1_1EditeurPanovisu.html#a9b46b222714af12c06ec33d410400773" target="_top" xlink:title=" ">
<polygon fill="white" stroke="#666666" points="907,-32 716.25,-32 716.25,0 907,0 907,-32"/>
<text xml:space="preserve" text-anchor="start" x="724.25" y="-18.5" font-family="Helvetica,sans-Serif" font-size="10.00">editeurpanovisu.EditeurPanovisu.projets</text>
<text xml:space="preserve" text-anchor="middle" x="811.62" y="-6.5" font-family="Helvetica,sans-Serif" font-size="10.00">Fermer</text>
</a>
</g>
</g>
<!-- Node7&#45;&gt;Node9 -->
<g id="edge10_Node000007_Node000009" class="edge">
<title>Node7&#45;&gt;Node9</title>
<g id="a_edge10_Node000007_Node000009"><a xlink:title=" ">
<path fill="none" stroke="#63b8ff" d="M970.39,-59.31C950.11,-53.31 927.66,-46.78 907,-41 896.88,-38.17 886.13,-35.24 875.64,-32.43"/>
<polygon fill="#63b8ff" stroke="#63b8ff" points="969.38,-62.66 979.96,-62.15 971.37,-55.95 969.38,-62.66"/>
</a>
</g>
</g>
<!-- Node10 -->
<g id="Node000010" class="node">
<title>Node10</title>
<g id="a_Node000010"><a xlink:href="classediteurpanovisu_1_1EditeurPanovisu.html#a2b3125ffe2e6291efacf19df6cb30a8d" target="_top" xlink:title=" ">
<polygon fill="white" stroke="#666666" points="902.12,-70 721.12,-70 721.12,-50 902.12,-50 902.12,-70"/>
<text xml:space="preserve" text-anchor="middle" x="811.62" y="-56.5" font-family="Helvetica,sans-Serif" font-size="10.00">editeurpanovisu.EditeurPanovisu.start</text>
</a>
</g>
</g>
<!-- Node7&#45;&gt;Node10 -->
<g id="edge12_Node000007_Node000010" class="edge">
<title>Node7&#45;&gt;Node10</title>
<g id="a_edge12_Node000007_Node000010"><a xlink:title=" ">
<path fill="none" stroke="#63b8ff" d="M931.44,-70.11C921.7,-69.28 911.9,-68.45 902.31,-67.63"/>
<polygon fill="#63b8ff" stroke="#63b8ff" points="931.04,-73.59 941.31,-70.95 931.64,-66.62 931.04,-73.59"/>
</a>
</g>
</g>
<!-- Node8&#45;&gt;Node4 -->
<g id="edge9_Node000008_Node000004" class="edge">
<title>Node8&#45;&gt;Node4</title>
<g id="a_edge9_Node000008_Node000004"><a xlink:title=" ">
<path fill="none" stroke="#63b8ff" d="M461.33,-70.69C447.87,-72.05 434.12,-73.43 420.74,-74.78"/>
<polygon fill="#63b8ff" stroke="#63b8ff" points="461.45,-74.2 471.05,-69.71 460.75,-67.23 461.45,-74.2"/>
</a>
</g>
</g>
<!-- Node9&#45;&gt;Node4 -->
<g id="edge11_Node000009_Node000004" class="edge">
<title>Node9&#45;&gt;Node4</title>
<g id="a_edge11_Node000009_Node000004"><a xlink:title=" ">
<path fill="none" stroke="#63b8ff" d="M704.92,-13.55C633.98,-13.89 538.81,-18.18 456.5,-35 414.54,-43.58 368.22,-62.62 341.58,-74.57"/>
<polygon fill="#63b8ff" stroke="#63b8ff" points="704.59,-17.05 714.58,-13.54 704.57,-10.05 704.59,-17.05"/>
</a>
</g>
</g>
<!-- Node10&#45;&gt;Node8 -->
<g id="edge13_Node000010_Node000008" class="edge">
<title>Node10&#45;&gt;Node8</title>
<g id="a_edge13_Node000010_Node000008"><a xlink:title=" ">
<path fill="none" stroke="#63b8ff" d="M709.41,-60C694.41,-60 678.99,-60 664.13,-60"/>
<polygon fill="#63b8ff" stroke="#63b8ff" points="709.28,-63.5 719.28,-60 709.28,-56.5 709.28,-63.5"/>
</a>
</g>
</g>
</g>
</svg>
