<?xml version="1.0" encoding="UTF-8" standalone="no"?>
<!DOCTYPE svg PUBLIC "-//W3C//DTD SVG 1.1//EN"
 "http://www.w3.org/Graphics/SVG/1.1/DTD/svg11.dtd">
<!-- Generated by graphviz version 13.1.2 (20250808.2320)
 -->
<!-- Title: editeurpanovisu.TestAIClients.testOpenRouter Pages: 1 -->
<!--zoomable 357 -->

<svg id="main" version="1.1" xmlns="http://www.w3.org/2000/svg" xmlns:xlink="http://www.w3.org/1999/xlink" xml:space="preserve" onload="init(evt)">

<style type="text/css"><![CDATA[
.node, .edge {opacity: 0.7;}
.node.selected, .edge.selected {opacity: 1;}
.edge:hover path { stroke: red; }
.edge:hover polygon { stroke: red; fill: red; }
]]></style>

<defs>
  <circle id="rim" cx="0" cy="0" r="7"/>
  <circle id="rim2" cx="0" cy="0" r="3.5"/>
  <g id="zoomPlus">
    <use xlink:href="#rim" fill="#404040"><set attributeName="fill" to="#808080" begin="zoomplus.mouseover" end="zoomplus.mouseout"/></use>
    <path d="M-4,0h8M0,-4v8" fill="none" stroke="white" stroke-width="1.5" pointer-events="none"/>
  </g>
  <g id="zoomMin">
    <use xlink:href="#rim" fill="#404040"><set attributeName="fill" to="#808080" begin="zoomminus.mouseover" end="zoomminus.mouseout"/></use>
    <path d="M-4,0h8" fill="none" stroke="white" stroke-width="1.5" pointer-events="none"/>
  </g>
  <g id="arrowUp" transform="translate(30 24)">
    <use xlink:href="#rim"/>
    <path pointer-events="none" fill="none" stroke="white" stroke-width="1.5" d="M0,-3.0v7 M-2.5,-0.5L0,-3.0L2.5,-0.5"/>
  </g>
  <g id="arrowRight" transform="rotate(90) translate(36 -43)">
    <use xlink:href="#rim"/>
    <path pointer-events="none" fill="none" stroke="white" stroke-width="1.5" d="M0,-3.0v7 M-2.5,-0.5L0,-3.0L2.5,-0.5"/>
  </g>
  <g id="arrowDown" transform="rotate(180) translate(-30 -48)">
    <use xlink:href="#rim"/>
    <path pointer-events="none" fill="none" stroke="white" stroke-width="1.5" d="M0,-3.0v7 M-2.5,-0.5L0,-3.0L2.5,-0.5"/>
  </g>
  <g id="arrowLeft" transform="rotate(270) translate(-36 17)">
    <use xlink:href="#rim"/>
    <path pointer-events="none" fill="none" stroke="white" stroke-width="1.5" d="M0,-3.0v7 M-2.5,-0.5L0,-3.0L2.5,-0.5"/>
  </g>
  <g id="resetDef">
    <use xlink:href="#rim2" fill="#404040"><set attributeName="fill" to="#808080" begin="reset.mouseover" end="reset.mouseout"/></use>
  </g>
</defs>
<script type="application/ecmascript">
var viewWidth = 562;
var viewHeight = 357;
var sectionId = 'dynsection-4';
</script>
<script type="application/ecmascript" xlink:href="svg.min.js"/>
<svg id="graph" class="graph">
<g id="viewport">
<title>editeurpanovisu.TestAIClients.testOpenRouter</title>
<!-- Node1 -->
<g id="Node000001" class="node">
<title>Node1</title>
<g id="a_Node000001"><a xlink:title="Test du client OpenRouter.">
<polygon fill="#999999" stroke="#666666" points="166,-195 0,-195 0,-163 166,-163 166,-195"/>
<text xml:space="preserve" text-anchor="start" x="8" y="-181.5" font-family="Helvetica,sans-Serif" font-size="10.00">editeurpanovisu.TestAIClients.test</text>
<text xml:space="preserve" text-anchor="middle" x="83" y="-169.5" font-family="Helvetica,sans-Serif" font-size="10.00">OpenRouter</text>
</a>
</g>
</g>
<!-- Node2 -->
<g id="Node000002" class="node">
<title>Node2</title>
<g id="a_Node000002"><a xlink:href="classediteurpanovisu_1_1OpenRouterClient.html#a6d6d3b5ec9d11ab65aa452a40c246df5" target="_top" xlink:title="Envoie un message au modèle et obtient une réponse.">
<polygon fill="white" stroke="#666666" points="553.5,-295 413.75,-295 413.75,-263 553.5,-263 553.5,-295"/>
<text xml:space="preserve" text-anchor="start" x="421.75" y="-281.5" font-family="Helvetica,sans-Serif" font-size="10.00">editeurpanovisu.OpenRouter</text>
<text xml:space="preserve" text-anchor="middle" x="483.62" y="-269.5" font-family="Helvetica,sans-Serif" font-size="10.00">Client.chat</text>
</a>
</g>
</g>
<!-- Node1&#45;&gt;Node2 -->
<g id="edge1_Node000001_Node000002" class="edge">
<title>Node1&#45;&gt;Node2</title>
<g id="a_edge1_Node000001_Node000002"><a xlink:title=" ">
<path fill="none" stroke="#63b8ff" d="M90.89,-195.43C105.64,-228.15 143.73,-300.7 202,-329 272.26,-363.12 301.56,-346.23 377.75,-329 401.93,-323.53 427.07,-311.79 446.67,-301.06"/>
<polygon fill="#63b8ff" stroke="#63b8ff" points="448.36,-304.12 455.34,-296.15 444.92,-298.03 448.36,-304.12"/>
</a>
</g>
</g>
<!-- Node3 -->
<g id="Node000003" class="node">
<title>Node3</title>
<g id="a_Node000003"><a xlink:href="classediteurpanovisu_1_1OpenRouterClient.html#abd04c3bcd52a589bcf2efcc36a23b650" target="_top" xlink:title="Envoie un message de manière asynchrone.">
<polygon fill="white" stroke="#666666" points="359.75,-320 220,-320 220,-288 359.75,-288 359.75,-320"/>
<text xml:space="preserve" text-anchor="start" x="228" y="-306.5" font-family="Helvetica,sans-Serif" font-size="10.00">editeurpanovisu.OpenRouter</text>
<text xml:space="preserve" text-anchor="middle" x="289.88" y="-294.5" font-family="Helvetica,sans-Serif" font-size="10.00">Client.chatAsync</text>
</a>
</g>
</g>
<!-- Node1&#45;&gt;Node3 -->
<g id="edge3_Node000001_Node000003" class="edge">
<title>Node1&#45;&gt;Node3</title>
<g id="a_edge3_Node000001_Node000003"><a xlink:title=" ">
<path fill="none" stroke="#63b8ff" d="M98.81,-195.28C119.73,-217.35 160.1,-256.56 202,-279 204.85,-280.53 207.81,-281.97 210.84,-283.34"/>
<polygon fill="#63b8ff" stroke="#63b8ff" points="209.36,-286.51 219.94,-287.09 212.03,-280.04 209.36,-286.51"/>
</a>
</g>
</g>
<!-- Node4 -->
<g id="Node000004" class="node">
<title>Node4</title>
<g id="a_Node000004"><a xlink:href="classediteurpanovisu_1_1OpenRouterClient.html#a8771d1fc79129ff298c76aff05edd267" target="_top" xlink:title="Génère des suggestions de description pour un panorama.">
<polygon fill="white" stroke="#666666" points="377.75,-270 202,-270 202,-238 377.75,-238 377.75,-270"/>
<text xml:space="preserve" text-anchor="start" x="210" y="-256.5" font-family="Helvetica,sans-Serif" font-size="10.00">editeurpanovisu.OpenRouter</text>
<text xml:space="preserve" text-anchor="middle" x="289.88" y="-244.5" font-family="Helvetica,sans-Serif" font-size="10.00">Client.generatePanoramaDescription</text>
</a>
</g>
</g>
<!-- Node1&#45;&gt;Node4 -->
<g id="edge5_Node000001_Node000004" class="edge">
<title>Node1&#45;&gt;Node4</title>
<g id="a_edge5_Node000001_Node000004"><a xlink:title=" ">
<path fill="none" stroke="#63b8ff" d="M119.71,-195.46C142.88,-205.81 173.9,-219.04 202,-229 207.01,-230.77 212.21,-232.52 217.46,-234.2"/>
<polygon fill="#63b8ff" stroke="#63b8ff" points="216.26,-237.49 226.84,-237.13 218.34,-230.81 216.26,-237.49"/>
</a>
</g>
</g>
<!-- Node5 -->
<g id="Node000005" class="node">
<title>Node5</title>
<g id="a_Node000005"><a xlink:href="classediteurpanovisu_1_1OpenRouterClient.html#ace2ecd68c42b6fa90c7b720cc14015f5" target="_top" xlink:title="Liste des modèles gratuits populaires sur OpenRouter.">
<polygon fill="white" stroke="#666666" points="359.75,-220 220,-220 220,-188 359.75,-188 359.75,-220"/>
<text xml:space="preserve" text-anchor="start" x="228" y="-206.5" font-family="Helvetica,sans-Serif" font-size="10.00">editeurpanovisu.OpenRouter</text>
<text xml:space="preserve" text-anchor="middle" x="289.88" y="-194.5" font-family="Helvetica,sans-Serif" font-size="10.00">Client.getFreeModels</text>
</a>
</g>
</g>
<!-- Node1&#45;&gt;Node5 -->
<g id="edge7_Node000001_Node000005" class="edge">
<title>Node1&#45;&gt;Node5</title>
<g id="a_edge7_Node000001_Node000005"><a xlink:title=" ">
<path fill="none" stroke="#63b8ff" d="M166.44,-189.06C180.26,-190.75 194.57,-192.49 208.34,-194.17"/>
<polygon fill="#63b8ff" stroke="#63b8ff" points="207.89,-197.64 218.24,-195.38 208.74,-190.7 207.89,-197.64"/>
</a>
</g>
</g>
<!-- Node6 -->
<g id="Node000006" class="node">
<title>Node6</title>
<g id="a_Node000006"><a xlink:href="classediteurpanovisu_1_1OpenRouterClient.html#acbf09f1edb45b096d73fe68cabb87bae" target="_top" xlink:title="Récupère le nom du modèle utilisé">
<polygon fill="white" stroke="#666666" points="359.75,-170 220,-170 220,-138 359.75,-138 359.75,-170"/>
<text xml:space="preserve" text-anchor="start" x="228" y="-156.5" font-family="Helvetica,sans-Serif" font-size="10.00">editeurpanovisu.OpenRouter</text>
<text xml:space="preserve" text-anchor="middle" x="289.88" y="-144.5" font-family="Helvetica,sans-Serif" font-size="10.00">Client.getModelName</text>
</a>
</g>
</g>
<!-- Node1&#45;&gt;Node6 -->
<g id="edge8_Node000001_Node000006" class="edge">
<title>Node1&#45;&gt;Node6</title>
<g id="a_edge8_Node000001_Node000006"><a xlink:title=" ">
<path fill="none" stroke="#63b8ff" d="M166.44,-168.94C180.26,-167.25 194.57,-165.51 208.34,-163.83"/>
<polygon fill="#63b8ff" stroke="#63b8ff" points="208.74,-167.3 218.24,-162.62 207.89,-160.36 208.74,-167.3"/>
</a>
</g>
</g>
<!-- Node7 -->
<g id="Node000007" class="node">
<title>Node7</title>
<g id="a_Node000007"><a xlink:href="leaflet_8js.html#a73aff07b65d7c0b09ccf6b4c4f1b7a9d" target="_top" xlink:title=" ">
<polygon fill="white" stroke="#666666" points="304.27,-120 275.48,-120 275.48,-100 304.27,-100 304.27,-120"/>
<text xml:space="preserve" text-anchor="middle" x="289.88" y="-106.5" font-family="Helvetica,sans-Serif" font-size="10.00">i</text>
</a>
</g>
</g>
<!-- Node1&#45;&gt;Node7 -->
<g id="edge9_Node000001_Node000007" class="edge">
<title>Node1&#45;&gt;Node7</title>
<g id="a_edge9_Node000001_Node000007"><a xlink:title=" ">
<path fill="none" stroke="#63b8ff" d="M118.21,-162.51C141.43,-151.81 173.06,-138.21 202,-129 222.46,-122.49 246.33,-117.45 263.87,-114.2"/>
<polygon fill="#63b8ff" stroke="#63b8ff" points="264.4,-117.66 273.64,-112.46 263.18,-110.76 264.4,-117.66"/>
</a>
</g>
</g>
<!-- Node8 -->
<g id="Node000008" class="node">
<title>Node8</title>
<g id="a_Node000008"><a xlink:href="classediteurpanovisu_1_1OpenRouterClient.html#a2eda70a167df12b13f92a872e4e1d401" target="_top" xlink:title="Vérifie si le client est configuré correctement.">
<polygon fill="white" stroke="#666666" points="359.75,-82 220,-82 220,-50 359.75,-50 359.75,-82"/>
<text xml:space="preserve" text-anchor="start" x="228" y="-68.5" font-family="Helvetica,sans-Serif" font-size="10.00">editeurpanovisu.OpenRouter</text>
<text xml:space="preserve" text-anchor="middle" x="289.88" y="-56.5" font-family="Helvetica,sans-Serif" font-size="10.00">Client.isConfigured</text>
</a>
</g>
</g>
<!-- Node1&#45;&gt;Node8 -->
<g id="edge10_Node000001_Node000008" class="edge">
<title>Node1&#45;&gt;Node8</title>
<g id="a_edge10_Node000001_Node000008"><a xlink:title=" ">
<path fill="none" stroke="#63b8ff" d="M101.44,-162.76C123.35,-143.16 162.85,-110.42 202,-91 205.23,-89.4 208.59,-87.88 212.01,-86.44"/>
<polygon fill="#63b8ff" stroke="#63b8ff" points="212.99,-89.82 221.05,-82.94 210.46,-83.29 212.99,-89.82"/>
</a>
</g>
</g>
<!-- Node9 -->
<g id="Node000009" class="node">
<title>Node9</title>
<g id="a_Node000009"><a xlink:href="classediteurpanovisu_1_1OpenRouterClient.html#ad0e45a62c406dae1c0e9aa17e1fe335f" target="_top" xlink:title="Suggère des hotspots pertinents pour un panorama.">
<polygon fill="white" stroke="#666666" points="359.75,-32 220,-32 220,0 359.75,0 359.75,-32"/>
<text xml:space="preserve" text-anchor="start" x="228" y="-18.5" font-family="Helvetica,sans-Serif" font-size="10.00">editeurpanovisu.OpenRouter</text>
<text xml:space="preserve" text-anchor="middle" x="289.88" y="-6.5" font-family="Helvetica,sans-Serif" font-size="10.00">Client.suggestHotspots</text>
</a>
</g>
</g>
<!-- Node1&#45;&gt;Node9 -->
<g id="edge11_Node000001_Node000009" class="edge">
<title>Node1&#45;&gt;Node9</title>
<g id="a_edge11_Node000001_Node000009"><a xlink:title=" ">
<path fill="none" stroke="#63b8ff" d="M93.44,-162.67C111.03,-133.73 151.63,-73.41 202,-41 204.43,-39.44 206.95,-37.97 209.55,-36.6"/>
<polygon fill="#63b8ff" stroke="#63b8ff" points="210.95,-39.81 218.5,-32.37 207.96,-33.48 210.95,-39.81"/>
</a>
</g>
</g>
<!-- Node2&#45;&gt;Node2 -->
<g id="edge2_Node000002_Node000002" class="edge">
<title>Node2&#45;&gt;Node2</title>
<g id="a_edge2_Node000002_Node000002"><a xlink:title=" ">
<path fill="none" stroke="#63b8ff" d="M449.04,-295.44C442.58,-304.58 454.11,-313 483.62,-313 499.77,-313 510.53,-310.48 515.91,-306.71"/>
<polygon fill="#63b8ff" stroke="#63b8ff" points="519.34,-307.42 517.91,-296.93 512.48,-306.02 519.34,-307.42"/>
</a>
</g>
</g>
<!-- Node3&#45;&gt;Node2 -->
<g id="edge4_Node000003_Node000002" class="edge">
<title>Node3&#45;&gt;Node2</title>
<g id="a_edge4_Node000003_Node000002"><a xlink:title=" ">
<path fill="none" stroke="#63b8ff" d="M360.1,-294.97C373.81,-293.19 388.32,-291.3 402.36,-289.46"/>
<polygon fill="#63b8ff" stroke="#63b8ff" points="402.54,-292.97 412,-288.21 401.63,-286.03 402.54,-292.97"/>
</a>
</g>
</g>
<!-- Node4&#45;&gt;Node2 -->
<g id="edge6_Node000004_Node000002" class="edge">
<title>Node4&#45;&gt;Node2</title>
<g id="a_edge6_Node000004_Node000002"><a xlink:title=" ">
<path fill="none" stroke="#63b8ff" d="M378.05,-265.37C386.12,-266.42 394.27,-267.48 402.28,-268.52"/>
<polygon fill="#63b8ff" stroke="#63b8ff" points="401.6,-271.97 411.97,-269.79 402.51,-265.02 401.6,-271.97"/>
</a>
</g>
</g>
<!-- Node9&#45;&gt;Node2 -->
<g id="edge12_Node000009_Node000002" class="edge">
<title>Node9&#45;&gt;Node2</title>
<g id="a_edge12_Node000009_Node000002"><a xlink:title=" ">
<path fill="none" stroke="#63b8ff" d="M360.23,-29.69C366.57,-32.74 372.55,-36.46 377.75,-41 442.62,-97.67 469.05,-202.04 478.3,-251.56"/>
<polygon fill="#63b8ff" stroke="#63b8ff" points="474.81,-251.89 479.99,-261.14 481.7,-250.68 474.81,-251.89"/>
</a>
</g>
</g>
</g>
</svg>

<g id="navigator" transform="translate(0 0)" fill="#404254">
  <rect fill="#f2f5e9" fill-opacity="0.5" stroke="#606060" stroke-width=".5" x="0" y="0" width="60" height="60"/>
  <use id="zoomplus" xlink:href="#zoomPlus" x="17" y="9" onmousedown="handleZoom(evt,'in')"/>
  <use id="zoomminus" xlink:href="#zoomMin" x="42" y="9" onmousedown="handleZoom(evt,'out')"/>
  <use id="reset" xlink:href="#resetDef" x="30" y="36" onmousedown="handleReset()"/>
   <use id="arrowup" xlink:href="#arrowUp" x="0" y="0" onmousedown="handlePan(0,-1)"/>
  <use id="arrowright" xlink:href="#arrowRight" x="0" y="0" onmousedown="handlePan(1,0)"/>
  <use id="arrowdown" xlink:href="#arrowDown" x="0" y="0" onmousedown="handlePan(0,1)"/>
  <use id="arrowleft" xlink:href="#arrowLeft" x="0" y="0" onmousedown="handlePan(-1,0)"/>
</g>
<svg viewBox="0 0 15 15" width="100%" height="30px" preserveAspectRatio="xMaxYMin meet">
 <g id="arrow_out" transform="scale(0.3 0.3)">
  <a xlink:href="classediteurpanovisu_1_1TestAIClients_a77fbca3f26c8ae02ffe75835740034f7_cgraph_org.svg" target="_base">
   <rect id="button" ry="5" rx="5" y="6" x="6" height="38" width="38"
        fill="#f2f5e9" fill-opacity="0.5" stroke="#606060" stroke-width="1.0"/>
   <path id="arrow"
     d="M 11.500037,31.436501 C 11.940474,20.09759 22.043105,11.32322 32.158766,21.979434 L 37.068811,17.246167 C 37.068811,17.246167 37.088388,32 37.088388,32 L 22.160133,31.978069 C 22.160133,31.978069 26.997745,27.140456 26.997745,27.140456 C 18.528582,18.264221 13.291696,25.230495 11.500037,31.436501 z"
     style="fill:#404040;"/>
  </a>
 </g>
</svg>

<style type='text/css'>
<![CDATA[
[data-mouse-over-selected='false'] { opacity: 0.7; }
[data-mouse-over-selected='true']  { opacity: 1.0; }
]]>
</style>
<script type="application/ecmascript"><![CDATA[
document.addEventListener('DOMContentLoaded', (event) => {
  highlightEdges();
  highlightAdjacentNodes();
});
]]></script>
</svg>
