<?xml version="1.0" encoding="UTF-8" standalone="no"?>
<!DOCTYPE svg PUBLIC "-//W3C//DTD SVG 1.1//EN"
 "http://www.w3.org/Graphics/SVG/1.1/DTD/svg11.dtd">
<!-- Generated by graphviz version 13.1.2 (20250808.2320)
 -->
<!-- Title: editeurpanovisu.BuildNumberIncrementer.updateI18nProperties Pages: 1 -->
<svg width="427pt" height="62pt"
 viewBox="0.00 0.00 427.00 62.00" xmlns="http://www.w3.org/2000/svg" xmlns:xlink="http://www.w3.org/1999/xlink">
<g id="graph0" class="graph" transform="scale(1 1) rotate(0) translate(4 58)">
<title>editeurpanovisu.BuildNumberIncrementer.updateI18nProperties</title>
<!-- Node1 -->
<g id="Node000001" class="node">
<title>Node1</title>
<g id="a_Node000001"><a xlink:title="Met à jour le fichier i18n/PanoVisu.properties.">
<polygon fill="#999999" stroke="#666666" points="163,-32 0,-32 0,0 163,0 163,-32"/>
<text xml:space="preserve" text-anchor="start" x="8" y="-18.5" font-family="Helvetica,sans-Serif" font-size="10.00">editeurpanovisu.BuildNumber</text>
<text xml:space="preserve" text-anchor="middle" x="81.5" y="-6.5" font-family="Helvetica,sans-Serif" font-size="10.00">Incrementer.updateI18nProperties</text>
</a>
</g>
</g>
<!-- Node2 -->
<g id="Node000002" class="node">
<title>Node2</title>
<g id="a_Node000002"><a xlink:href="classediteurpanovisu_1_1BuildNumberIncrementer.html#a4fe00236345fc2a0ac8562a5c92281ad" target="_top" xlink:title="Formate le numéro de build avec espace insécable Exemple : 1990 &#45;&gt; &quot;1\u00a0990&quot;, 2000 &#45;&gt; &quot;2\u00a0000&quot;...">
<polygon fill="white" stroke="#666666" points="353.75,-54 199,-54 199,-22 353.75,-22 353.75,-54"/>
<text xml:space="preserve" text-anchor="start" x="207" y="-40.5" font-family="Helvetica,sans-Serif" font-size="10.00">editeurpanovisu.BuildNumber</text>
<text xml:space="preserve" text-anchor="middle" x="276.38" y="-28.5" font-family="Helvetica,sans-Serif" font-size="10.00">Incrementer.formatBuildNumber</text>
</a>
</g>
</g>
<!-- Node1&#45;&gt;Node2 -->
<g id="edge1_Node000001_Node000002" class="edge">
<title>Node1&#45;&gt;Node2</title>
<g id="a_edge1_Node000001_Node000002"><a xlink:title=" ">
<path fill="none" stroke="#63b8ff" d="M163.46,-25.23C171.38,-26.14 179.44,-27.06 187.42,-27.97"/>
<polygon fill="#63b8ff" stroke="#63b8ff" points="186.79,-31.42 197.13,-29.07 187.59,-24.46 186.79,-31.42"/>
</a>
</g>
</g>
<!-- Node3 -->
<g id="Node000003" class="node">
<title>Node3</title>
<g id="a_Node000003"><a xlink:href="leaflet_8js.html#a73aff07b65d7c0b09ccf6b4c4f1b7a9d" target="_top" xlink:title=" ">
<polygon fill="white" stroke="#666666" points="418.55,-26 389.75,-26 389.75,-6 418.55,-6 418.55,-26"/>
<text xml:space="preserve" text-anchor="middle" x="404.15" y="-12.5" font-family="Helvetica,sans-Serif" font-size="10.00">i</text>
</a>
</g>
</g>
<!-- Node1&#45;&gt;Node3 -->
<g id="edge3_Node000001_Node000003" class="edge">
<title>Node1&#45;&gt;Node3</title>
<g id="a_edge3_Node000001_Node000003"><a xlink:title=" ">
<path fill="none" stroke="#63b8ff" d="M163.23,-13.36C217.18,-12.03 289.73,-11.06 353.75,-13 361.64,-13.24 370.23,-13.69 378,-14.18"/>
<polygon fill="#63b8ff" stroke="#63b8ff" points="377.6,-17.66 387.81,-14.83 378.07,-10.67 377.6,-17.66"/>
</a>
</g>
</g>
<!-- Node2&#45;&gt;Node3 -->
<g id="edge2_Node000002_Node000003" class="edge">
<title>Node2&#45;&gt;Node3</title>
<g id="a_edge2_Node000002_Node000003"><a xlink:title=" ">
<path fill="none" stroke="#63b8ff" d="M354.16,-24.57C362.71,-23.07 370.89,-21.64 378.04,-20.39"/>
<polygon fill="#63b8ff" stroke="#63b8ff" points="378.57,-23.85 387.82,-18.68 377.36,-16.96 378.57,-23.85"/>
</a>
</g>
</g>
</g>
</svg>
