<?xml version="1.0" encoding="UTF-8" standalone="no"?>
<!DOCTYPE svg PUBLIC "-//W3C//DTD SVG 1.1//EN"
 "http://www.w3.org/Graphics/SVG/1.1/DTD/svg11.dtd">
<!-- Generated by graphviz version 13.1.2 (20250808.2320)
 -->
<!-- Title: editeurpanovisu.EditeurPanovisu.isbDejaSauve Pages: 1 -->
<!--zoomable 490 -->

<svg id="main" version="1.1" xmlns="http://www.w3.org/2000/svg" xmlns:xlink="http://www.w3.org/1999/xlink" xml:space="preserve" onload="init(evt)">

<style type="text/css"><![CDATA[
.node, .edge {opacity: 0.7;}
.node.selected, .edge.selected {opacity: 1;}
.edge:hover path { stroke: red; }
.edge:hover polygon { stroke: red; fill: red; }
]]></style>

<defs>
  <circle id="rim" cx="0" cy="0" r="7"/>
  <circle id="rim2" cx="0" cy="0" r="3.5"/>
  <g id="zoomPlus">
    <use xlink:href="#rim" fill="#404040"><set attributeName="fill" to="#808080" begin="zoomplus.mouseover" end="zoomplus.mouseout"/></use>
    <path d="M-4,0h8M0,-4v8" fill="none" stroke="white" stroke-width="1.5" pointer-events="none"/>
  </g>
  <g id="zoomMin">
    <use xlink:href="#rim" fill="#404040"><set attributeName="fill" to="#808080" begin="zoomminus.mouseover" end="zoomminus.mouseout"/></use>
    <path d="M-4,0h8" fill="none" stroke="white" stroke-width="1.5" pointer-events="none"/>
  </g>
  <g id="arrowUp" transform="translate(30 24)">
    <use xlink:href="#rim"/>
    <path pointer-events="none" fill="none" stroke="white" stroke-width="1.5" d="M0,-3.0v7 M-2.5,-0.5L0,-3.0L2.5,-0.5"/>
  </g>
  <g id="arrowRight" transform="rotate(90) translate(36 -43)">
    <use xlink:href="#rim"/>
    <path pointer-events="none" fill="none" stroke="white" stroke-width="1.5" d="M0,-3.0v7 M-2.5,-0.5L0,-3.0L2.5,-0.5"/>
  </g>
  <g id="arrowDown" transform="rotate(180) translate(-30 -48)">
    <use xlink:href="#rim"/>
    <path pointer-events="none" fill="none" stroke="white" stroke-width="1.5" d="M0,-3.0v7 M-2.5,-0.5L0,-3.0L2.5,-0.5"/>
  </g>
  <g id="arrowLeft" transform="rotate(270) translate(-36 17)">
    <use xlink:href="#rim"/>
    <path pointer-events="none" fill="none" stroke="white" stroke-width="1.5" d="M0,-3.0v7 M-2.5,-0.5L0,-3.0L2.5,-0.5"/>
  </g>
  <g id="resetDef">
    <use xlink:href="#rim2" fill="#404040"><set attributeName="fill" to="#808080" begin="reset.mouseover" end="reset.mouseout"/></use>
  </g>
</defs>
<script type="application/ecmascript">
var viewWidth = 1986;
var viewHeight = 490;
var sectionId = 'dynsection-135';
</script>
<script type="application/ecmascript" xlink:href="svg.min.js"/>
<svg id="graph" class="graph">
<g id="viewport">
<title>editeurpanovisu.EditeurPanovisu.isbDejaSauve</title>
<!-- Node1 -->
<g id="Node000001" class="node">
<title>Node1</title>
<g id="a_Node000001"><a xlink:title=" ">
<polygon fill="#999999" stroke="#666666" points="1977.75,-190 1803.5,-190 1803.5,-158 1977.75,-158 1977.75,-190"/>
<text xml:space="preserve" text-anchor="start" x="1811.5" y="-176.5" font-family="Helvetica,sans-Serif" font-size="10.00">editeurpanovisu.EditeurPanovisu.isb</text>
<text xml:space="preserve" text-anchor="middle" x="1890.62" y="-164.5" font-family="Helvetica,sans-Serif" font-size="10.00">DejaSauve</text>
</a>
</g>
</g>
<!-- Node2 -->
<g id="Node000002" class="node">
<title>Node2</title>
<g id="a_Node000002"><a xlink:href="classediteurpanovisu_1_1EditeurPanovisu.html#a94e36b9e9d09ab1a4c852b8a8cefa927" target="_top" xlink:title=" ">
<polygon fill="white" stroke="#666666" points="647.25,-416 456.5,-416 456.5,-384 647.25,-384 647.25,-416"/>
<text xml:space="preserve" text-anchor="start" x="464.5" y="-402.5" font-family="Helvetica,sans-Serif" font-size="10.00">editeurpanovisu.EditeurPanovisu.genere</text>
<text xml:space="preserve" text-anchor="middle" x="551.88" y="-390.5" font-family="Helvetica,sans-Serif" font-size="10.00">Visite</text>
</a>
</g>
</g>
<!-- Node1&#45;&gt;Node2 -->
<g id="edge1_Node000001_Node000002" class="edge">
<title>Node1&#45;&gt;Node2</title>
<g id="a_edge1_Node000001_Node000002"><a xlink:title=" ">
<path fill="none" stroke="#63b8ff" d="M1879.82,-201C1863.13,-243.31 1825.3,-325.22 1767.5,-372 1651.57,-465.81 1599.63,-482 1450.5,-482 1450.5,-482 1450.5,-482 999.12,-482 855.56,-482 690.24,-440.44 606.9,-416.5"/>
<polygon fill="#63b8ff" stroke="#63b8ff" points="1883.02,-202.42 1883.33,-191.83 1876.49,-199.92 1883.02,-202.42"/>
</a>
</g>
</g>
<!-- Node5 -->
<g id="Node000005" class="node">
<title>Node5</title>
<g id="a_Node000005"><a xlink:href="classediteurpanovisu_1_1EditeurPanovisu.html#acd8bfa46a11b6df35d61066863f34cb3" target="_top" xlink:title=" ">
<polygon fill="white" stroke="#666666" points="1546,-32 1353,-32 1353,0 1546,0 1546,-32"/>
<text xml:space="preserve" text-anchor="start" x="1361" y="-18.5" font-family="Helvetica,sans-Serif" font-size="10.00">editeurpanovisu.EditeurPanovisu.modele</text>
<text xml:space="preserve" text-anchor="middle" x="1449.5" y="-6.5" font-family="Helvetica,sans-Serif" font-size="10.00">Charger</text>
</a>
</g>
</g>
<!-- Node1&#45;&gt;Node5 -->
<g id="edge4_Node000001_Node000005" class="edge">
<title>Node1&#45;&gt;Node5</title>
<g id="a_edge4_Node000001_Node000005"><a xlink:title=" ">
<path fill="none" stroke="#63b8ff" d="M1873.7,-148.46C1853.24,-118.16 1814.67,-68.88 1767.5,-46 1698.74,-12.65 1611.79,-6.57 1546.36,-8.03"/>
<polygon fill="#63b8ff" stroke="#63b8ff" points="1870.68,-150.24 1879.1,-156.68 1876.53,-146.4 1870.68,-150.24"/>
</a>
</g>
</g>
<!-- Node6 -->
<g id="Node000006" class="node">
<title>Node6</title>
<g id="a_Node000006"><a xlink:href="classediteurpanovisu_1_1EditeurPanovisu.html#ab4beb1597b660a4a253befc6e76f1c54" target="_top" xlink:title=" ">
<polygon fill="white" stroke="#666666" points="1092.88,-126 907.38,-126 907.38,-94 1092.88,-94 1092.88,-126"/>
<text xml:space="preserve" text-anchor="start" x="915.38" y="-112.5" font-family="Helvetica,sans-Serif" font-size="10.00">editeurpanovisu.EditeurPanovisu.projet</text>
<text xml:space="preserve" text-anchor="middle" x="1000.12" y="-100.5" font-family="Helvetica,sans-Serif" font-size="10.00">Charge</text>
</a>
</g>
</g>
<!-- Node1&#45;&gt;Node6 -->
<g id="edge6_Node000001_Node000006" class="edge">
<title>Node1&#45;&gt;Node6</title>
<g id="a_edge6_Node000001_Node000006"><a xlink:title=" ">
<path fill="none" stroke="#63b8ff" d="M1791.95,-166.79C1783.68,-166.18 1775.44,-165.58 1767.5,-165 1524.03,-147.29 1237.03,-126.8 1093.14,-116.55"/>
<polygon fill="#63b8ff" stroke="#63b8ff" points="1791.49,-170.26 1801.72,-167.5 1792,-163.28 1791.49,-170.26"/>
</a>
</g>
</g>
<!-- Node7 -->
<g id="Node000007" class="node">
<title>Node7</title>
<g id="a_Node000007"><a xlink:href="classediteurpanovisu_1_1EditeurPanovisu.html#a6d19b4d885ee6fcec827b91956295732" target="_top" xlink:title=" ">
<polygon fill="white" stroke="#666666" points="1767.5,-228 1582,-228 1582,-196 1767.5,-196 1767.5,-228"/>
<text xml:space="preserve" text-anchor="start" x="1590" y="-214.5" font-family="Helvetica,sans-Serif" font-size="10.00">editeurpanovisu.EditeurPanovisu.projet</text>
<text xml:space="preserve" text-anchor="middle" x="1674.75" y="-202.5" font-family="Helvetica,sans-Serif" font-size="10.00">ChargeNom</text>
</a>
</g>
</g>
<!-- Node1&#45;&gt;Node7 -->
<g id="edge8_Node000001_Node000007" class="edge">
<title>Node1&#45;&gt;Node7</title>
<g id="a_edge8_Node000001_Node000007"><a xlink:title=" ">
<path fill="none" stroke="#63b8ff" d="M1792.19,-191.31C1784.03,-192.76 1775.8,-194.22 1767.69,-195.67"/>
<polygon fill="#63b8ff" stroke="#63b8ff" points="1792.53,-194.81 1801.76,-189.61 1791.3,-187.91 1792.53,-194.81"/>
</a>
</g>
</g>
<!-- Node10 -->
<g id="Node000010" class="node">
<title>Node10</title>
<g id="a_Node000010"><a xlink:href="classediteurpanovisu_1_1EditeurPanovisu.html#a9b46b222714af12c06ec33d410400773" target="_top" xlink:title=" ">
<polygon fill="white" stroke="#666666" points="1095.5,-176 904.75,-176 904.75,-144 1095.5,-144 1095.5,-176"/>
<text xml:space="preserve" text-anchor="start" x="912.75" y="-162.5" font-family="Helvetica,sans-Serif" font-size="10.00">editeurpanovisu.EditeurPanovisu.projets</text>
<text xml:space="preserve" text-anchor="middle" x="1000.12" y="-150.5" font-family="Helvetica,sans-Serif" font-size="10.00">Fermer</text>
</a>
</g>
</g>
<!-- Node1&#45;&gt;Node10 -->
<g id="edge28_Node000001_Node000010" class="edge">
<title>Node1&#45;&gt;Node10</title>
<g id="a_edge28_Node000001_Node000010"><a xlink:title=" ">
<path fill="none" stroke="#63b8ff" d="M1791.91,-172.46C1619.96,-169.75 1265.46,-164.17 1095.73,-161.49"/>
<polygon fill="#63b8ff" stroke="#63b8ff" points="1791.65,-175.96 1801.71,-172.61 1791.76,-168.96 1791.65,-175.96"/>
</a>
</g>
</g>
<!-- Node11 -->
<g id="Node000011" class="node">
<title>Node11</title>
<g id="a_Node000011"><a xlink:href="classediteurpanovisu_1_1EditeurPanovisu.html#ac9d449399ccd38843fa12e716f0c9611" target="_top" xlink:title=" ">
<polygon fill="white" stroke="#666666" points="1095.5,-416 904.75,-416 904.75,-384 1095.5,-384 1095.5,-416"/>
<text xml:space="preserve" text-anchor="start" x="912.75" y="-402.5" font-family="Helvetica,sans-Serif" font-size="10.00">editeurpanovisu.EditeurPanovisu.projets</text>
<text xml:space="preserve" text-anchor="middle" x="1000.12" y="-390.5" font-family="Helvetica,sans-Serif" font-size="10.00">Nouveau</text>
</a>
</g>
</g>
<!-- Node1&#45;&gt;Node11 -->
<g id="edge29_Node000001_Node000011" class="edge">
<title>Node1&#45;&gt;Node11</title>
<g id="a_edge29_Node000001_Node000011"><a xlink:title=" ">
<path fill="none" stroke="#63b8ff" d="M1849.31,-195.72C1825.67,-208.21 1795.13,-223.97 1767.5,-237 1670.62,-282.69 1649.39,-303.98 1546,-332 1391.65,-373.83 1205.62,-390.04 1095.71,-396.24"/>
<polygon fill="#63b8ff" stroke="#63b8ff" points="1850.78,-198.89 1857.97,-191.11 1847.5,-192.71 1850.78,-198.89"/>
</a>
</g>
</g>
<!-- Node12 -->
<g id="Node000012" class="node">
<title>Node12</title>
<g id="a_Node000012"><a xlink:href="classediteurpanovisu_1_1EditeurPanovisu.html#a2b3125ffe2e6291efacf19df6cb30a8d" target="_top" xlink:title=" ">
<polygon fill="white" stroke="#666666" points="866.5,-410 685.5,-410 685.5,-390 866.5,-390 866.5,-410"/>
<text xml:space="preserve" text-anchor="middle" x="776" y="-396.5" font-family="Helvetica,sans-Serif" font-size="10.00">editeurpanovisu.EditeurPanovisu.start</text>
</a>
</g>
</g>
<!-- Node1&#45;&gt;Node12 -->
<g id="edge31_Node000001_Node000012" class="edge">
<title>Node1&#45;&gt;Node12</title>
<g id="a_edge31_Node000001_Node000012"><a xlink:title=" ">
<path fill="none" stroke="#63b8ff" d="M1868.5,-199.18C1809.75,-266.22 1636.41,-444 1450.5,-444 1450.5,-444 1450.5,-444 1223.25,-444 1081.44,-444 1045.43,-442.88 904.75,-425 877.29,-421.51 846.85,-415.64 822.58,-410.46"/>
<polygon fill="#63b8ff" stroke="#63b8ff" points="1871.14,-201.48 1875.03,-191.63 1865.85,-196.9 1871.14,-201.48"/>
</a>
</g>
</g>
<!-- Node13 -->
<g id="Node000013" class="node">
<title>Node13</title>
<g id="a_Node000013"><a xlink:href="classediteurpanovisu_1_1EditeurPanovisu.html#aef8c9b28c3e88d6e27e3f62b9a901134" target="_top" xlink:title=" ">
<polygon fill="white" stroke="#666666" points="1094,-76 906.25,-76 906.25,-44 1094,-44 1094,-76"/>
<text xml:space="preserve" text-anchor="start" x="914.25" y="-62.5" font-family="Helvetica,sans-Serif" font-size="10.00">editeurpanovisu.EditeurPanovisu.sauve</text>
<text xml:space="preserve" text-anchor="middle" x="1000.12" y="-50.5" font-family="Helvetica,sans-Serif" font-size="10.00">Fichiers</text>
</a>
</g>
</g>
<!-- Node1&#45;&gt;Node13 -->
<g id="edge30_Node000001_Node000013" class="edge">
<title>Node1&#45;&gt;Node13</title>
<g id="a_edge30_Node000001_Node000013"><a xlink:title=" ">
<path fill="none" stroke="#63b8ff" d="M1806.9,-155.27C1793.76,-152.62 1780.29,-150.09 1767.5,-148 1526.12,-108.54 1239.12,-80.6 1094.42,-67.82"/>
<polygon fill="#63b8ff" stroke="#63b8ff" points="1805.85,-158.63 1816.35,-157.22 1807.27,-151.78 1805.85,-158.63"/>
</a>
</g>
</g>
<!-- Node3 -->
<g id="Node000003" class="node">
<title>Node3</title>
<g id="a_Node000003"><a xlink:href="classediteurpanovisu_1_1EditeurPanovisu.html#ac912b80c1f2ac97def60ff005c5c480b" target="_top" xlink:title=" ">
<polygon fill="white" stroke="#666666" points="420.5,-233 216.25,-233 216.25,-213 420.5,-213 420.5,-233"/>
<text xml:space="preserve" text-anchor="middle" x="318.38" y="-219.5" font-family="Helvetica,sans-Serif" font-size="10.00">editeurpanovisu.EditeurPanovisu.creeMenu</text>
</a>
</g>
</g>
<!-- Node2&#45;&gt;Node3 -->
<g id="edge2_Node000002_Node000003" class="edge">
<title>Node2&#45;&gt;Node3</title>
<g id="a_edge2_Node000002_Node000003"><a xlink:title=" ">
<path fill="none" stroke="#63b8ff" d="M474.03,-379.34C467.92,-376.58 461.99,-373.47 456.5,-370 395.74,-331.57 343.97,-259.8 326.07,-233.23"/>
<polygon fill="#63b8ff" stroke="#63b8ff" points="472.48,-382.48 483.06,-383.1 475.17,-376.02 472.48,-382.48"/>
</a>
</g>
</g>
<!-- Node4 -->
<g id="Node000004" class="node">
<title>Node4</title>
<g id="a_Node000004"><a xlink:href="classediteurpanovisu_1_1EditeurPanovisu.html#a86c393eee88f54c694db994ddd85b90d" target="_top" xlink:title=" ">
<polygon fill="white" stroke="#666666" points="180.25,-239 0,-239 0,-207 180.25,-207 180.25,-239"/>
<text xml:space="preserve" text-anchor="start" x="8" y="-225.5" font-family="Helvetica,sans-Serif" font-size="10.00">editeurpanovisu.EditeurPanovisu.cree</text>
<text xml:space="preserve" text-anchor="middle" x="90.12" y="-213.5" font-family="Helvetica,sans-Serif" font-size="10.00">Environnement</text>
</a>
</g>
</g>
<!-- Node3&#45;&gt;Node4 -->
<g id="edge3_Node000003_Node000004" class="edge">
<title>Node3&#45;&gt;Node4</title>
<g id="a_edge3_Node000003_Node000004"><a xlink:title=" ">
<path fill="none" stroke="#63b8ff" d="M204.51,-223C196.49,-223 188.46,-223 180.6,-223"/>
<polygon fill="#63b8ff" stroke="#63b8ff" points="204.32,-226.5 214.32,-223 204.32,-219.5 204.32,-226.5"/>
</a>
</g>
</g>
<!-- Node5&#45;&gt;Node3 -->
<g id="edge5_Node000005_Node000003" class="edge">
<title>Node5&#45;&gt;Node3</title>
<g id="a_edge5_Node000005_Node000003"><a xlink:title=" ">
<path fill="none" stroke="#63b8ff" d="M1341.11,-16C1250.49,-16 1117.32,-16 1001.12,-16 1001.12,-16 1001.12,-16 775,-16 582.56,-16 382.04,-170.97 331.48,-212.73"/>
<polygon fill="#63b8ff" stroke="#63b8ff" points="1340.99,-19.5 1350.99,-16 1340.99,-12.5 1340.99,-19.5"/>
</a>
</g>
</g>
<!-- Node6&#45;&gt;Node3 -->
<g id="edge7_Node000006_Node000003" class="edge">
<title>Node6&#45;&gt;Node3</title>
<g id="a_edge7_Node000006_Node000003"><a xlink:title=" ">
<path fill="none" stroke="#63b8ff" d="M895.79,-114.36C785.66,-120.73 606.79,-136.03 456.5,-172 415,-181.93 368.91,-200.79 342.13,-212.58"/>
<polygon fill="#63b8ff" stroke="#63b8ff" points="895.93,-117.86 905.71,-113.8 895.53,-110.87 895.93,-117.86"/>
</a>
</g>
</g>
<!-- Node7&#45;&gt;Node3 -->
<g id="edge27_Node000007_Node000003" class="edge">
<title>Node7&#45;&gt;Node3</title>
<g id="a_edge27_Node000007_Node000003"><a xlink:title=" ">
<path fill="none" stroke="#63b8ff" d="M1582.67,-232.7C1582.45,-232.8 1582.22,-232.9 1582,-233 1564.02,-241.14 1564.47,-252.04 1546,-259 1450.33,-295.08 1419.13,-276.11 1317,-281 934.66,-299.32 837.12,-285.57 456.5,-245 429.89,-242.16 400.57,-237.65 375.9,-233.45"/>
<polygon fill="#63b8ff" stroke="#63b8ff" points="1583.71,-236.05 1591.67,-229.06 1581.08,-229.56 1583.71,-236.05"/>
</a>
</g>
</g>
<!-- Node8 -->
<g id="Node000008" class="node">
<title>Node8</title>
<g id="a_Node000008"><a xlink:href="classediteurpanovisu_1_1EditeurPanovisu.html#af0d1c32bb78acbff561c822a0d15f760" target="_top" xlink:title=" ">
<polygon fill="white" stroke="#666666" points="1543.38,-228 1355.62,-228 1355.62,-196 1543.38,-196 1543.38,-228"/>
<text xml:space="preserve" text-anchor="start" x="1363.62" y="-214.5" font-family="Helvetica,sans-Serif" font-size="10.00">editeurpanovisu.EditeurPanovisu.ajoute</text>
<text xml:space="preserve" text-anchor="middle" x="1449.5" y="-202.5" font-family="Helvetica,sans-Serif" font-size="10.00">FichierHisto</text>
</a>
</g>
</g>
<!-- Node7&#45;&gt;Node8 -->
<g id="edge9_Node000007_Node000008" class="edge">
<title>Node7&#45;&gt;Node8</title>
<g id="a_edge9_Node000007_Node000008"><a xlink:title=" ">
<path fill="none" stroke="#63b8ff" d="M1570.16,-205.27C1561.38,-205.23 1552.52,-205.25 1543.82,-205.33"/>
<polygon fill="#63b8ff" stroke="#63b8ff" points="1570.12,-208.77 1580.14,-205.33 1570.17,-201.77 1570.12,-208.77"/>
</a>
</g>
</g>
<!-- Node8&#45;&gt;Node6 -->
<g id="edge10_Node000008_Node000006" class="edge">
<title>Node8&#45;&gt;Node6</title>
<g id="a_edge10_Node000008_Node000006"><a xlink:title=" ">
<path fill="none" stroke="#63b8ff" d="M1365.59,-193.1C1281.62,-173.95 1153.05,-144.64 1073.2,-126.43"/>
<polygon fill="#63b8ff" stroke="#63b8ff" points="1364.62,-196.46 1375.15,-195.28 1366.17,-189.64 1364.62,-196.46"/>
</a>
</g>
</g>
<!-- Node8&#45;&gt;Node7 -->
<g id="edge11_Node000008_Node000007" class="edge">
<title>Node8&#45;&gt;Node7</title>
<g id="a_edge11_Node000008_Node000007"><a xlink:title=" ">
<path fill="none" stroke="#63b8ff" d="M1555.33,-218.74C1564.12,-218.77 1572.97,-218.74 1581.66,-218.66"/>
<polygon fill="#63b8ff" stroke="#63b8ff" points="1555.36,-215.24 1545.34,-218.68 1555.32,-222.24 1555.36,-215.24"/>
</a>
</g>
</g>
<!-- Node9 -->
<g id="Node000009" class="node">
<title>Node9</title>
<g id="a_Node000009"><a xlink:href="classediteurpanovisu_1_1EditeurPanovisu.html#a9f3ea25b35d4884524508dab3dc4fd6a" target="_top" xlink:title=" ">
<polygon fill="white" stroke="#666666" points="1317,-272 1131.5,-272 1131.5,-240 1317,-240 1317,-272"/>
<text xml:space="preserve" text-anchor="start" x="1139.5" y="-258.5" font-family="Helvetica,sans-Serif" font-size="10.00">editeurpanovisu.EditeurPanovisu.projet</text>
<text xml:space="preserve" text-anchor="middle" x="1224.25" y="-246.5" font-family="Helvetica,sans-Serif" font-size="10.00">Sauve</text>
</a>
</g>
</g>
<!-- Node8&#45;&gt;Node9 -->
<g id="edge12_Node000008_Node000009" class="edge">
<title>Node8&#45;&gt;Node9</title>
<g id="a_edge12_Node000008_Node000009"><a xlink:title=" ">
<path fill="none" stroke="#63b8ff" d="M1353.77,-230.67C1338.88,-233.6 1323.58,-236.62 1308.97,-239.5"/>
<polygon fill="#63b8ff" stroke="#63b8ff" points="1354.43,-234.11 1363.57,-228.74 1353.08,-227.24 1354.43,-234.11"/>
</a>
</g>
</g>
<!-- Node14 -->
<g id="Node000014" class="node">
<title>Node14</title>
<g id="a_Node000014"><a xlink:href="classediteurpanovisu_1_1EditeurPanovisu.html#a7b2e25dc717eb52b62e23d54ec4c124a" target="_top" xlink:title=" ">
<polygon fill="white" stroke="#666666" points="868.75,-214 683.25,-214 683.25,-182 868.75,-182 868.75,-214"/>
<text xml:space="preserve" text-anchor="start" x="691.25" y="-200.5" font-family="Helvetica,sans-Serif" font-size="10.00">editeurpanovisu.EditeurPanovisu.projet</text>
<text xml:space="preserve" text-anchor="middle" x="776" y="-188.5" font-family="Helvetica,sans-Serif" font-size="10.00">SauveSous</text>
</a>
</g>
</g>
<!-- Node8&#45;&gt;Node14 -->
<g id="edge25_Node000008_Node000014" class="edge">
<title>Node8&#45;&gt;Node14</title>
<g id="a_edge25_Node000008_Node000014"><a xlink:title=" ">
<path fill="none" stroke="#63b8ff" d="M1343.98,-209.82C1213.72,-207.11 993.19,-202.51 869.04,-199.92"/>
<polygon fill="#63b8ff" stroke="#63b8ff" points="1343.55,-213.31 1353.62,-210.02 1343.69,-206.31 1343.55,-213.31"/>
</a>
</g>
</g>
<!-- Node9&#45;&gt;Node2 -->
<g id="edge14_Node000009_Node000002" class="edge">
<title>Node9&#45;&gt;Node2</title>
<g id="a_edge14_Node000009_Node000002"><a xlink:title=" ">
<path fill="none" stroke="#63b8ff" d="M1120.2,-264.19C1057.48,-270.27 976,-280.12 904.75,-295 793.05,-318.33 665.52,-360.37 598.91,-383.55"/>
<polygon fill="#63b8ff" stroke="#63b8ff" points="1120.15,-267.71 1129.78,-263.28 1119.49,-260.74 1120.15,-267.71"/>
</a>
</g>
</g>
<!-- Node9&#45;&gt;Node3 -->
<g id="edge13_Node000009_Node000003" class="edge">
<title>Node9&#45;&gt;Node3</title>
<g id="a_edge13_Node000009_Node000003"><a xlink:title=" ">
<path fill="none" stroke="#63b8ff" d="M1119.69,-252.22C945.01,-245.84 593.98,-233.03 420.78,-226.7"/>
<polygon fill="#63b8ff" stroke="#63b8ff" points="1119.55,-255.72 1129.68,-252.58 1119.81,-248.72 1119.55,-255.72"/>
</a>
</g>
</g>
<!-- Node9&#45;&gt;Node6 -->
<g id="edge15_Node000009_Node000006" class="edge">
<title>Node9&#45;&gt;Node6</title>
<g id="a_edge15_Node000009_Node000006"><a xlink:title=" ">
<path fill="none" stroke="#63b8ff" d="M1186.94,-233.29C1169.1,-221.13 1147.95,-205.14 1131.5,-188 1111.78,-167.45 1118.73,-151.47 1095.5,-135 1090.94,-131.77 1085.98,-128.95 1080.81,-126.5"/>
<polygon fill="#63b8ff" stroke="#63b8ff" points="1184.95,-236.17 1195.21,-238.8 1188.83,-230.34 1184.95,-236.17"/>
</a>
</g>
</g>
<!-- Node9&#45;&gt;Node7 -->
<g id="edge16_Node000009_Node000007" class="edge">
<title>Node9&#45;&gt;Node7</title>
<g id="a_edge16_Node000009_Node000007"><a xlink:title=" ">
<path fill="none" stroke="#63b8ff" d="M1328.63,-253.39C1391.65,-250.93 1473.7,-246.17 1546,-237 1563.04,-234.84 1581.22,-231.76 1598.36,-228.49"/>
<polygon fill="#63b8ff" stroke="#63b8ff" points="1328.87,-249.88 1319.01,-253.76 1329.13,-256.88 1328.87,-249.88"/>
</a>
</g>
</g>
<!-- Node9&#45;&gt;Node10 -->
<g id="edge17_Node000009_Node000010" class="edge">
<title>Node9&#45;&gt;Node10</title>
<g id="a_edge17_Node000009_Node000010"><a xlink:title=" ">
<path fill="none" stroke="#63b8ff" d="M1174.83,-235.08C1134.14,-217.49 1076.77,-192.69 1039.27,-176.49"/>
<polygon fill="#63b8ff" stroke="#63b8ff" points="1173.36,-238.25 1183.93,-239.01 1176.14,-231.83 1173.36,-238.25"/>
</a>
</g>
</g>
<!-- Node9&#45;&gt;Node11 -->
<g id="edge19_Node000009_Node000011" class="edge">
<title>Node9&#45;&gt;Node11</title>
<g id="a_edge19_Node000009_Node000011"><a xlink:title=" ">
<path fill="none" stroke="#63b8ff" d="M1201.5,-280.79C1177.78,-306.44 1137.54,-346.03 1095.5,-370 1086.24,-375.28 1075.93,-379.76 1065.62,-383.52"/>
<polygon fill="#63b8ff" stroke="#63b8ff" points="1204.02,-283.22 1208.16,-273.47 1198.84,-278.51 1204.02,-283.22"/>
</a>
</g>
</g>
<!-- Node9&#45;&gt;Node12 -->
<g id="edge24_Node000009_Node000012" class="edge">
<title>Node9&#45;&gt;Node12</title>
<g id="a_edge24_Node000009_Node000012"><a xlink:title=" ">
<path fill="none" stroke="#63b8ff" d="M1161.79,-275.83C1065.77,-306.82 883.51,-365.63 809.48,-389.52"/>
<polygon fill="#63b8ff" stroke="#63b8ff" points="1162.61,-279.25 1171.05,-272.84 1160.46,-272.58 1162.61,-279.25"/>
</a>
</g>
</g>
<!-- Node9&#45;&gt;Node13 -->
<g id="edge23_Node000009_Node000013" class="edge">
<title>Node9&#45;&gt;Node13</title>
<g id="a_edge23_Node000009_Node000013"><a xlink:title=" ">
<path fill="none" stroke="#63b8ff" d="M1210.69,-229.45C1191.37,-191.52 1150.7,-122.29 1095.5,-85 1090.58,-81.68 1085.25,-78.8 1079.7,-76.3"/>
<polygon fill="#63b8ff" stroke="#63b8ff" points="1207.53,-230.95 1215.11,-238.35 1213.8,-227.84 1207.53,-230.95"/>
</a>
</g>
</g>
<!-- Node10&#45;&gt;Node3 -->
<g id="edge18_Node000010_Node000003" class="edge">
<title>Node10&#45;&gt;Node3</title>
<g id="a_edge18_Node000010_Node000003"><a xlink:title=" ">
<path fill="none" stroke="#63b8ff" d="M893.07,-162.2C831.69,-164.02 753.03,-167.27 683.25,-173 582.05,-181.32 557.04,-186.73 456.5,-201 432.03,-204.47 405.17,-208.69 381.76,-212.5"/>
<polygon fill="#63b8ff" stroke="#63b8ff" points="892.91,-165.71 902.81,-161.92 892.71,-158.71 892.91,-165.71"/>
</a>
</g>
</g>
<!-- Node11&#45;&gt;Node3 -->
<g id="edge20_Node000011_Node000003" class="edge">
<title>Node11&#45;&gt;Node3</title>
<g id="a_edge20_Node000011_Node000003"><a xlink:title=" ">
<path fill="none" stroke="#63b8ff" d="M893.41,-383.03C759.21,-360.84 535.62,-321.58 456.5,-294 410.43,-277.94 360.56,-248.83 335.58,-233.34"/>
<polygon fill="#63b8ff" stroke="#63b8ff" points="892.58,-386.44 903.02,-384.61 893.72,-379.53 892.58,-386.44"/>
</a>
</g>
</g>
<!-- Node11&#45;&gt;Node12 -->
<g id="edge21_Node000011_Node000012" class="edge">
<title>Node11&#45;&gt;Node12</title>
<g id="a_edge21_Node000011_Node000012"><a xlink:title=" ">
<path fill="none" stroke="#63b8ff" d="M892.9,-400C884.22,-400 875.5,-400 866.95,-400"/>
<polygon fill="#63b8ff" stroke="#63b8ff" points="892.77,-403.5 902.77,-400 892.77,-396.5 892.77,-403.5"/>
</a>
</g>
</g>
<!-- Node12&#45;&gt;Node2 -->
<g id="edge22_Node000012_Node000002" class="edge">
<title>Node12&#45;&gt;Node2</title>
<g id="a_edge22_Node000012_Node000002"><a xlink:title=" ">
<path fill="none" stroke="#63b8ff" d="M673.87,-400C665.14,-400 656.32,-400 647.63,-400"/>
<polygon fill="#63b8ff" stroke="#63b8ff" points="673.78,-403.5 683.78,-400 673.78,-396.5 673.78,-403.5"/>
</a>
</g>
</g>
<!-- Node14&#45;&gt;Node3 -->
<g id="edge26_Node000014_Node000003" class="edge">
<title>Node14&#45;&gt;Node3</title>
<g id="a_edge26_Node000014_Node000003"><a xlink:title=" ">
<path fill="none" stroke="#63b8ff" d="M671.46,-203.68C596.44,-207.8 495.51,-213.34 420.95,-217.43"/>
<polygon fill="#63b8ff" stroke="#63b8ff" points="671.49,-207.18 681.29,-203.14 671.11,-200.2 671.49,-207.18"/>
</a>
</g>
</g>
</g>
</svg>

<g id="navigator" transform="translate(0 0)" fill="#404254">
  <rect fill="#f2f5e9" fill-opacity="0.5" stroke="#606060" stroke-width=".5" x="0" y="0" width="60" height="60"/>
  <use id="zoomplus" xlink:href="#zoomPlus" x="17" y="9" onmousedown="handleZoom(evt,'in')"/>
  <use id="zoomminus" xlink:href="#zoomMin" x="42" y="9" onmousedown="handleZoom(evt,'out')"/>
  <use id="reset" xlink:href="#resetDef" x="30" y="36" onmousedown="handleReset()"/>
   <use id="arrowup" xlink:href="#arrowUp" x="0" y="0" onmousedown="handlePan(0,-1)"/>
  <use id="arrowright" xlink:href="#arrowRight" x="0" y="0" onmousedown="handlePan(1,0)"/>
  <use id="arrowdown" xlink:href="#arrowDown" x="0" y="0" onmousedown="handlePan(0,1)"/>
  <use id="arrowleft" xlink:href="#arrowLeft" x="0" y="0" onmousedown="handlePan(-1,0)"/>
</g>
<svg viewBox="0 0 15 15" width="100%" height="30px" preserveAspectRatio="xMaxYMin meet">
 <g id="arrow_out" transform="scale(0.3 0.3)">
  <a xlink:href="classediteurpanovisu_1_1EditeurPanovisu_ae3227149e27259e16a306ba4b14a5004_icgraph_org.svg" target="_base">
   <rect id="button" ry="5" rx="5" y="6" x="6" height="38" width="38"
        fill="#f2f5e9" fill-opacity="0.5" stroke="#606060" stroke-width="1.0"/>
   <path id="arrow"
     d="M 11.500037,31.436501 C 11.940474,20.09759 22.043105,11.32322 32.158766,21.979434 L 37.068811,17.246167 C 37.068811,17.246167 37.088388,32 37.088388,32 L 22.160133,31.978069 C 22.160133,31.978069 26.997745,27.140456 26.997745,27.140456 C 18.528582,18.264221 13.291696,25.230495 11.500037,31.436501 z"
     style="fill:#404040;"/>
  </a>
 </g>
</svg>

<style type='text/css'>
<![CDATA[
[data-mouse-over-selected='false'] { opacity: 0.7; }
[data-mouse-over-selected='true']  { opacity: 1.0; }
]]>
</style>
<script type="application/ecmascript"><![CDATA[
document.addEventListener('DOMContentLoaded', (event) => {
  highlightEdges();
  highlightAdjacentNodes();
});
]]></script>
</svg>
