<?xml version="1.0" encoding="UTF-8" standalone="no"?>
<!DOCTYPE svg PUBLIC "-//W3C//DTD SVG 1.1//EN"
 "http://www.w3.org/Graphics/SVG/1.1/DTD/svg11.dtd">
<!-- Generated by graphviz version 13.1.2 (20250808.2320)
 -->
<!-- Title: editeurpanovisu.GestionnaireInterfaceController.getOpaciteCarte Pages: 1 -->
<!--zoomable 478 -->

<svg id="main" version="1.1" xmlns="http://www.w3.org/2000/svg" xmlns:xlink="http://www.w3.org/1999/xlink" xml:space="preserve" onload="init(evt)">

<style type="text/css"><![CDATA[
.node, .edge {opacity: 0.7;}
.node.selected, .edge.selected {opacity: 1;}
.edge:hover path { stroke: red; }
.edge:hover polygon { stroke: red; fill: red; }
]]></style>

<defs>
  <circle id="rim" cx="0" cy="0" r="7"/>
  <circle id="rim2" cx="0" cy="0" r="3.5"/>
  <g id="zoomPlus">
    <use xlink:href="#rim" fill="#404040"><set attributeName="fill" to="#808080" begin="zoomplus.mouseover" end="zoomplus.mouseout"/></use>
    <path d="M-4,0h8M0,-4v8" fill="none" stroke="white" stroke-width="1.5" pointer-events="none"/>
  </g>
  <g id="zoomMin">
    <use xlink:href="#rim" fill="#404040"><set attributeName="fill" to="#808080" begin="zoomminus.mouseover" end="zoomminus.mouseout"/></use>
    <path d="M-4,0h8" fill="none" stroke="white" stroke-width="1.5" pointer-events="none"/>
  </g>
  <g id="arrowUp" transform="translate(30 24)">
    <use xlink:href="#rim"/>
    <path pointer-events="none" fill="none" stroke="white" stroke-width="1.5" d="M0,-3.0v7 M-2.5,-0.5L0,-3.0L2.5,-0.5"/>
  </g>
  <g id="arrowRight" transform="rotate(90) translate(36 -43)">
    <use xlink:href="#rim"/>
    <path pointer-events="none" fill="none" stroke="white" stroke-width="1.5" d="M0,-3.0v7 M-2.5,-0.5L0,-3.0L2.5,-0.5"/>
  </g>
  <g id="arrowDown" transform="rotate(180) translate(-30 -48)">
    <use xlink:href="#rim"/>
    <path pointer-events="none" fill="none" stroke="white" stroke-width="1.5" d="M0,-3.0v7 M-2.5,-0.5L0,-3.0L2.5,-0.5"/>
  </g>
  <g id="arrowLeft" transform="rotate(270) translate(-36 17)">
    <use xlink:href="#rim"/>
    <path pointer-events="none" fill="none" stroke="white" stroke-width="1.5" d="M0,-3.0v7 M-2.5,-0.5L0,-3.0L2.5,-0.5"/>
  </g>
  <g id="resetDef">
    <use xlink:href="#rim2" fill="#404040"><set attributeName="fill" to="#808080" begin="reset.mouseover" end="reset.mouseout"/></use>
  </g>
</defs>
<script type="application/ecmascript">
var viewWidth = 2630;
var viewHeight = 478;
var sectionId = 'dynsection-124';
</script>
<script type="application/ecmascript" xlink:href="svg.min.js"/>
<svg id="graph" class="graph">
<g id="viewport">
<title>editeurpanovisu.GestionnaireInterfaceController.getOpaciteCarte</title>
<!-- Node1 -->
<g id="Node000001" class="node">
<title>Node1</title>
<g id="a_Node000001"><a xlink:title=" ">
<polygon fill="#999999" stroke="#666666" points="2622,-309.92 2451.5,-309.92 2451.5,-277.92 2622,-277.92 2622,-309.92"/>
<text xml:space="preserve" text-anchor="start" x="2459.5" y="-296.42" font-family="Helvetica,sans-Serif" font-size="10.00">editeurpanovisu.Gestionnaire</text>
<text xml:space="preserve" text-anchor="middle" x="2536.75" y="-284.42" font-family="Helvetica,sans-Serif" font-size="10.00">InterfaceController.getOpaciteCarte</text>
</a>
</g>
</g>
<!-- Node2 -->
<g id="Node000002" class="node">
<title>Node2</title>
<g id="a_Node000002"><a xlink:href="classediteurpanovisu_1_1GestionnaireInterfaceController.html#aac0a5ca6534a81893b2464d1102db5af" target="_top" xlink:title=" ">
<polygon fill="white" stroke="#666666" points="2408.38,-259.92 2256.62,-259.92 2256.62,-227.92 2408.38,-227.92 2408.38,-259.92"/>
<text xml:space="preserve" text-anchor="start" x="2264.62" y="-246.42" font-family="Helvetica,sans-Serif" font-size="10.00">editeurpanovisu.Gestionnaire</text>
<text xml:space="preserve" text-anchor="middle" x="2332.5" y="-234.42" font-family="Helvetica,sans-Serif" font-size="10.00">InterfaceController.afficheCarte</text>
</a>
</g>
</g>
<!-- Node1&#45;&gt;Node2 -->
<g id="edge1_Node000001_Node000002" class="edge">
<title>Node1&#45;&gt;Node2</title>
<g id="a_edge1_Node000001_Node000002"><a xlink:title=" ">
<path fill="none" stroke="#63b8ff" d="M2458.13,-274.73C2438.97,-269.99 2418.62,-264.96 2400.04,-260.37"/>
<polygon fill="#63b8ff" stroke="#63b8ff" points="2457.23,-278.11 2467.78,-277.11 2458.91,-271.32 2457.23,-278.11"/>
</a>
</g>
</g>
<!-- Node3 -->
<g id="Node000003" class="node">
<title>Node3</title>
<g id="a_Node000003"><a xlink:href="classediteurpanovisu_1_1GestionnaireInterfaceController.html#a55c8afda208674955a13d48d02be41b8" target="_top" xlink:title=" ">
<polygon fill="white" stroke="#666666" points="2213.5,-359.92 2046,-359.92 2046,-327.92 2213.5,-327.92 2213.5,-359.92"/>
<text xml:space="preserve" text-anchor="start" x="2054" y="-346.42" font-family="Helvetica,sans-Serif" font-size="10.00">editeurpanovisu.Gestionnaire</text>
<text xml:space="preserve" text-anchor="middle" x="2129.75" y="-334.42" font-family="Helvetica,sans-Serif" font-size="10.00">InterfaceController.afficheTemplate</text>
</a>
</g>
</g>
<!-- Node1&#45;&gt;Node3 -->
<g id="edge42_Node000001_Node000003" class="edge">
<title>Node1&#45;&gt;Node3</title>
<g id="a_edge42_Node000001_Node000003"><a xlink:title=" ">
<path fill="none" stroke="#63b8ff" d="M2452.3,-312.58C2440,-314.95 2427.45,-317.16 2415.5,-318.92 2347.99,-328.86 2270.86,-335.34 2213.91,-339.2"/>
<polygon fill="#63b8ff" stroke="#63b8ff" points="2452.89,-316.04 2462.02,-310.66 2451.53,-309.17 2452.89,-316.04"/>
</a>
</g>
</g>
<!-- Node11 -->
<g id="Node000011" class="node">
<title>Node11</title>
<g id="a_Node000011"><a xlink:href="classediteurpanovisu_1_1EditeurPanovisu.html#a94e36b9e9d09ab1a4c852b8a8cefa927" target="_top" xlink:title=" ">
<polygon fill="white" stroke="#666666" points="663,-233.92 472.25,-233.92 472.25,-201.92 663,-201.92 663,-233.92"/>
<text xml:space="preserve" text-anchor="start" x="480.25" y="-220.42" font-family="Helvetica,sans-Serif" font-size="10.00">editeurpanovisu.EditeurPanovisu.genere</text>
<text xml:space="preserve" text-anchor="middle" x="567.62" y="-208.42" font-family="Helvetica,sans-Serif" font-size="10.00">Visite</text>
</a>
</g>
</g>
<!-- Node1&#45;&gt;Node11 -->
<g id="edge43_Node000001_Node000011" class="edge">
<title>Node1&#45;&gt;Node11</title>
<g id="a_edge43_Node000001_Node000011"><a xlink:title=" ">
<path fill="none" stroke="#63b8ff" d="M2506.03,-317.04C2441.55,-364.8 2282.43,-469.92 2130.75,-469.92 2130.75,-469.92 2130.75,-469.92 1260,-469.92 1116.2,-469.92 1077.57,-459.44 941.5,-412.92 802.22,-365.29 651.18,-271.83 593.19,-234.19"/>
<polygon fill="#63b8ff" stroke="#63b8ff" points="2508.09,-319.87 2513.98,-311.07 2503.88,-314.27 2508.09,-319.87"/>
</a>
</g>
</g>
<!-- Node22 -->
<g id="Node000022" class="node">
<title>Node22</title>
<g id="a_Node000022"><a xlink:href="classediteurpanovisu_1_1GestionnaireInterfaceController.html#ace0168604ad1480beb57adc119ca795f" target="_top" xlink:title=" ">
<polygon fill="white" stroke="#666666" points="2406.12,-309.92 2258.88,-309.92 2258.88,-277.92 2406.12,-277.92 2406.12,-309.92"/>
<text xml:space="preserve" text-anchor="start" x="2266.88" y="-296.42" font-family="Helvetica,sans-Serif" font-size="10.00">editeurpanovisu.Gestionnaire</text>
<text xml:space="preserve" text-anchor="middle" x="2332.5" y="-284.42" font-family="Helvetica,sans-Serif" font-size="10.00">InterfaceController.affichePlan</text>
</a>
</g>
</g>
<!-- Node1&#45;&gt;Node22 -->
<g id="edge37_Node000001_Node000022" class="edge">
<title>Node1&#45;&gt;Node22</title>
<g id="a_edge37_Node000001_Node000022"><a xlink:title=" ">
<path fill="none" stroke="#63b8ff" d="M2439.96,-293.92C2428.71,-293.92 2417.38,-293.92 2406.52,-293.92"/>
<polygon fill="#63b8ff" stroke="#63b8ff" points="2439.64,-297.42 2449.64,-293.92 2439.64,-290.42 2439.64,-297.42"/>
</a>
</g>
</g>
<!-- Node23 -->
<g id="Node000023" class="node">
<title>Node23</title>
<g id="a_Node000023"><a xlink:href="classediteurpanovisu_1_1GestionnaireInterfaceController.html#ab66509c63a85a8285a081b24049e8774" target="_top" xlink:title=" ">
<polygon fill="white" stroke="#666666" points="2415.5,-174.92 2249.5,-174.92 2249.5,-142.92 2415.5,-142.92 2415.5,-174.92"/>
<text xml:space="preserve" text-anchor="start" x="2257.5" y="-161.42" font-family="Helvetica,sans-Serif" font-size="10.00">editeurpanovisu.Gestionnaire</text>
<text xml:space="preserve" text-anchor="middle" x="2332.5" y="-149.42" font-family="Helvetica,sans-Serif" font-size="10.00">InterfaceController.strGetTemplate</text>
</a>
</g>
</g>
<!-- Node1&#45;&gt;Node23 -->
<g id="edge44_Node000001_Node000023" class="edge">
<title>Node1&#45;&gt;Node23</title>
<g id="a_edge44_Node000001_Node000023"><a xlink:title=" ">
<path fill="none" stroke="#63b8ff" d="M2501.86,-271.3C2461.18,-244.14 2393.95,-199.26 2357.98,-175.26"/>
<polygon fill="#63b8ff" stroke="#63b8ff" points="2499.83,-274.15 2510.1,-276.79 2503.72,-268.33 2499.83,-274.15"/>
</a>
</g>
</g>
<!-- Node2&#45;&gt;Node3 -->
<g id="edge2_Node000002_Node000003" class="edge">
<title>Node2&#45;&gt;Node3</title>
<g id="a_edge2_Node000002_Node000003"><a xlink:title=" ">
<path fill="none" stroke="#63b8ff" d="M2254.39,-265.67C2252.71,-266.7 2251.08,-267.79 2249.5,-268.92 2227.24,-284.86 2235.79,-303.01 2213.5,-318.92 2208.98,-322.14 2204.04,-324.96 2198.89,-327.42"/>
<polygon fill="#63b8ff" stroke="#63b8ff" points="2255.92,-268.82 2263.06,-260.99 2252.6,-262.66 2255.92,-268.82"/>
</a>
</g>
</g>
<!-- Node17 -->
<g id="Node000017" class="node">
<title>Node17</title>
<g id="a_Node000017"><a xlink:href="classediteurpanovisu_1_1GestionnaireInterfaceController.html#a8c634f775c31c1a4db22d5ef0659f7e4" target="_top" xlink:title=" ">
<polygon fill="white" stroke="#666666" points="2203.38,-221.92 2056.12,-221.92 2056.12,-189.92 2203.38,-189.92 2203.38,-221.92"/>
<text xml:space="preserve" text-anchor="start" x="2064.12" y="-208.42" font-family="Helvetica,sans-Serif" font-size="10.00">editeurpanovisu.Gestionnaire</text>
<text xml:space="preserve" text-anchor="middle" x="2129.75" y="-196.42" font-family="Helvetica,sans-Serif" font-size="10.00">InterfaceController.afficheTitre</text>
</a>
</g>
</g>
<!-- Node2&#45;&gt;Node17 -->
<g id="edge28_Node000002_Node000017" class="edge">
<title>Node2&#45;&gt;Node17</title>
<g id="a_edge28_Node000002_Node000017"><a xlink:title=" ">
<path fill="none" stroke="#63b8ff" d="M2245.22,-227.59C2231.43,-224.98 2217.28,-222.3 2203.83,-219.75"/>
<polygon fill="#63b8ff" stroke="#63b8ff" points="2244.21,-230.96 2254.69,-229.38 2245.52,-224.08 2244.21,-230.96"/>
</a>
</g>
</g>
<!-- Node18 -->
<g id="Node000018" class="node">
<title>Node18</title>
<g id="a_Node000018"><a xlink:href="classediteurpanovisu_1_1GestionnaireInterfaceController.html#ac7fa988dc99d8684686127a2269cd66e" target="_top" xlink:title=" ">
<polygon fill="white" stroke="#666666" points="2000.62,-221.92 1844.38,-221.92 1844.38,-189.92 2000.62,-189.92 2000.62,-221.92"/>
<text xml:space="preserve" text-anchor="start" x="1852.38" y="-208.42" font-family="Helvetica,sans-Serif" font-size="10.00">editeurpanovisu.Gestionnaire</text>
<text xml:space="preserve" text-anchor="middle" x="1922.5" y="-196.42" font-family="Helvetica,sans-Serif" font-size="10.00">InterfaceController.creeInterface</text>
</a>
</g>
</g>
<!-- Node2&#45;&gt;Node18 -->
<g id="edge30_Node000002_Node000018" class="edge">
<title>Node2&#45;&gt;Node18</title>
<g id="a_edge30_Node000002_Node000018"><a xlink:title=" ">
<path fill="none" stroke="#63b8ff" d="M2299.46,-221.22C2276.68,-206.53 2244.7,-188.73 2213.5,-180.92 2135.55,-161.41 2042.56,-175.78 1983.28,-189.47"/>
<polygon fill="#63b8ff" stroke="#63b8ff" points="2297.41,-224.06 2307.68,-226.66 2301.28,-218.22 2297.41,-224.06"/>
</a>
</g>
</g>
<!-- Node19 -->
<g id="Node000019" class="node">
<title>Node19</title>
<g id="a_Node000019"><a xlink:href="classediteurpanovisu_1_1GestionnaireInterfaceController.html#a568c34e865fb653f63b8fa7a9a9cafc8" target="_top" xlink:title=" ">
<polygon fill="white" stroke="#666666" points="2200.75,-309.92 2058.75,-309.92 2058.75,-277.92 2200.75,-277.92 2200.75,-309.92"/>
<text xml:space="preserve" text-anchor="start" x="2066.75" y="-296.42" font-family="Helvetica,sans-Serif" font-size="10.00">editeurpanovisu.Gestionnaire</text>
<text xml:space="preserve" text-anchor="middle" x="2129.75" y="-284.42" font-family="Helvetica,sans-Serif" font-size="10.00">InterfaceController.rafraichit</text>
</a>
</g>
</g>
<!-- Node2&#45;&gt;Node19 -->
<g id="edge31_Node000002_Node000019" class="edge">
<title>Node2&#45;&gt;Node19</title>
<g id="a_edge31_Node000002_Node000019"><a xlink:title=" ">
<path fill="none" stroke="#63b8ff" d="M2254.45,-263.11C2235.44,-267.84 2215.24,-272.87 2196.8,-277.47"/>
<polygon fill="#63b8ff" stroke="#63b8ff" points="2255.16,-266.54 2264.02,-260.72 2253.47,-259.75 2255.16,-266.54"/>
</a>
</g>
</g>
<!-- Node4 -->
<g id="Node000004" class="node">
<title>Node4</title>
<g id="a_Node000004"><a xlink:href="classediteurpanovisu_1_1EditeurPanovisu.html#a87b29dc258cfc67370b1f27809e91b8e" target="_top" xlink:title=" ">
<polygon fill="white" stroke="#666666" points="2010,-358.92 1835,-358.92 1835,-326.92 2010,-326.92 2010,-358.92"/>
<text xml:space="preserve" text-anchor="start" x="1843" y="-345.42" font-family="Helvetica,sans-Serif" font-size="10.00">editeurpanovisu.EditeurPanovisu.tsk</text>
<text xml:space="preserve" text-anchor="middle" x="1922.5" y="-333.42" font-family="Helvetica,sans-Serif" font-size="10.00">AnalyseFichierPVU</text>
</a>
</g>
</g>
<!-- Node3&#45;&gt;Node4 -->
<g id="edge3_Node000003_Node000004" class="edge">
<title>Node3&#45;&gt;Node4</title>
<g id="a_edge3_Node000003_Node000004"><a xlink:title=" ">
<path fill="none" stroke="#63b8ff" d="M2034.1,-343.46C2026.23,-343.42 2018.29,-343.38 2010.48,-343.34"/>
<polygon fill="#63b8ff" stroke="#63b8ff" points="2034.03,-346.96 2044.05,-343.51 2034.07,-339.96 2034.03,-346.96"/>
</a>
</g>
</g>
<!-- Node5 -->
<g id="Node000005" class="node">
<title>Node5</title>
<g id="a_Node000005"><a xlink:href="classediteurpanovisu_1_1EditeurPanovisu.html#ab4beb1597b660a4a253befc6e76f1c54" target="_top" xlink:title=" ">
<polygon fill="white" stroke="#666666" points="1129.62,-403.92 944.12,-403.92 944.12,-371.92 1129.62,-371.92 1129.62,-403.92"/>
<text xml:space="preserve" text-anchor="start" x="952.12" y="-390.42" font-family="Helvetica,sans-Serif" font-size="10.00">editeurpanovisu.EditeurPanovisu.projet</text>
<text xml:space="preserve" text-anchor="middle" x="1036.88" y="-378.42" font-family="Helvetica,sans-Serif" font-size="10.00">Charge</text>
</a>
</g>
</g>
<!-- Node4&#45;&gt;Node5 -->
<g id="edge4_Node000004_Node000005" class="edge">
<title>Node4&#45;&gt;Node5</title>
<g id="a_edge4_Node000004_Node000005"><a xlink:title=" ">
<path fill="none" stroke="#63b8ff" d="M1836.93,-361.38C1824.27,-363.59 1811.33,-365.55 1799,-366.92 1558.73,-393.58 1273.33,-392.87 1129.89,-390.28"/>
<polygon fill="#63b8ff" stroke="#63b8ff" points="1837.25,-364.88 1846.47,-359.65 1836,-357.99 1837.25,-364.88"/>
</a>
</g>
</g>
<!-- Node8 -->
<g id="Node000008" class="node">
<title>Node8</title>
<g id="a_Node000008"><a xlink:href="classediteurpanovisu_1_1EditeurPanovisu.html#a6d19b4d885ee6fcec827b91956295732" target="_top" xlink:title=" ">
<polygon fill="white" stroke="#666666" points="1799,-357.92 1613.5,-357.92 1613.5,-325.92 1799,-325.92 1799,-357.92"/>
<text xml:space="preserve" text-anchor="start" x="1621.5" y="-344.42" font-family="Helvetica,sans-Serif" font-size="10.00">editeurpanovisu.EditeurPanovisu.projet</text>
<text xml:space="preserve" text-anchor="middle" x="1706.25" y="-332.42" font-family="Helvetica,sans-Serif" font-size="10.00">ChargeNom</text>
</a>
</g>
</g>
<!-- Node4&#45;&gt;Node8 -->
<g id="edge7_Node000004_Node000008" class="edge">
<title>Node4&#45;&gt;Node8</title>
<g id="a_edge7_Node000004_Node000008"><a xlink:title=" ">
<path fill="none" stroke="#63b8ff" d="M1823.16,-342.46C1815.26,-342.42 1807.3,-342.39 1799.45,-342.35"/>
<polygon fill="#63b8ff" stroke="#63b8ff" points="1823.14,-345.96 1833.15,-342.51 1823.17,-338.96 1823.14,-345.96"/>
</a>
</g>
</g>
<!-- Node6 -->
<g id="Node000006" class="node">
<title>Node6</title>
<g id="a_Node000006"><a xlink:href="classediteurpanovisu_1_1EditeurPanovisu.html#ac912b80c1f2ac97def60ff005c5c480b" target="_top" xlink:title=" ">
<polygon fill="white" stroke="#666666" points="420.5,-249.92 216.25,-249.92 216.25,-229.92 420.5,-229.92 420.5,-249.92"/>
<text xml:space="preserve" text-anchor="middle" x="318.38" y="-236.42" font-family="Helvetica,sans-Serif" font-size="10.00">editeurpanovisu.EditeurPanovisu.creeMenu</text>
</a>
</g>
</g>
<!-- Node5&#45;&gt;Node6 -->
<g id="edge5_Node000005_Node000006" class="edge">
<title>Node5&#45;&gt;Node6</title>
<g id="a_edge5_Node000005_Node000006"><a xlink:title=" ">
<path fill="none" stroke="#63b8ff" d="M932.37,-402.12C813.03,-414.14 613.19,-420.71 456.5,-357.92 397.61,-334.32 346.28,-274.49 327.24,-250.3"/>
<polygon fill="#63b8ff" stroke="#63b8ff" points="932.58,-405.62 942.16,-401.1 931.85,-398.66 932.58,-405.62"/>
</a>
</g>
</g>
<!-- Node7 -->
<g id="Node000007" class="node">
<title>Node7</title>
<g id="a_Node000007"><a xlink:href="classediteurpanovisu_1_1EditeurPanovisu.html#a86c393eee88f54c694db994ddd85b90d" target="_top" xlink:title=" ">
<polygon fill="white" stroke="#666666" points="180.25,-255.92 0,-255.92 0,-223.92 180.25,-223.92 180.25,-255.92"/>
<text xml:space="preserve" text-anchor="start" x="8" y="-242.42" font-family="Helvetica,sans-Serif" font-size="10.00">editeurpanovisu.EditeurPanovisu.cree</text>
<text xml:space="preserve" text-anchor="middle" x="90.12" y="-230.42" font-family="Helvetica,sans-Serif" font-size="10.00">Environnement</text>
</a>
</g>
</g>
<!-- Node6&#45;&gt;Node7 -->
<g id="edge6_Node000006_Node000007" class="edge">
<title>Node6&#45;&gt;Node7</title>
<g id="a_edge6_Node000006_Node000007"><a xlink:title=" ">
<path fill="none" stroke="#63b8ff" d="M204.51,-239.92C196.49,-239.92 188.46,-239.92 180.6,-239.92"/>
<polygon fill="#63b8ff" stroke="#63b8ff" points="204.32,-243.42 214.32,-239.92 204.32,-236.42 204.32,-243.42"/>
</a>
</g>
</g>
<!-- Node8&#45;&gt;Node6 -->
<g id="edge27_Node000008_Node000006" class="edge">
<title>Node8&#45;&gt;Node6</title>
<g id="a_edge27_Node000008_Node000006"><a xlink:title=" ">
<path fill="none" stroke="#63b8ff" d="M1602.06,-357.9C1487.57,-374.88 1297.21,-400.91 1132.25,-412.92 1031.71,-420.24 1006.3,-416.81 905.5,-417.92 820.73,-418.85 799.45,-421.52 714.75,-417.92 599.66,-413.02 559.34,-447.81 456.5,-395.92 389.22,-361.97 340.4,-279.47 324.74,-250.33"/>
<polygon fill="#63b8ff" stroke="#63b8ff" points="1602.37,-361.39 1611.74,-356.46 1601.33,-354.47 1602.37,-361.39"/>
</a>
</g>
</g>
<!-- Node9 -->
<g id="Node000009" class="node">
<title>Node9</title>
<g id="a_Node000009"><a xlink:href="classediteurpanovisu_1_1EditeurPanovisu.html#af0d1c32bb78acbff561c822a0d15f760" target="_top" xlink:title=" ">
<polygon fill="white" stroke="#666666" points="1577.5,-313.92 1389.75,-313.92 1389.75,-281.92 1577.5,-281.92 1577.5,-313.92"/>
<text xml:space="preserve" text-anchor="start" x="1397.75" y="-300.42" font-family="Helvetica,sans-Serif" font-size="10.00">editeurpanovisu.EditeurPanovisu.ajoute</text>
<text xml:space="preserve" text-anchor="middle" x="1483.62" y="-288.42" font-family="Helvetica,sans-Serif" font-size="10.00">FichierHisto</text>
</a>
</g>
</g>
<!-- Node8&#45;&gt;Node9 -->
<g id="edge8_Node000008_Node000009" class="edge">
<title>Node8&#45;&gt;Node9</title>
<g id="a_edge8_Node000008_Node000009"><a xlink:title=" ">
<path fill="none" stroke="#63b8ff" d="M1641.09,-322.93C1621.31,-318.48 1599.12,-313.89 1577.8,-309.82"/>
<polygon fill="#63b8ff" stroke="#63b8ff" points="1640.12,-326.3 1650.65,-325.12 1641.68,-319.47 1640.12,-326.3"/>
</a>
</g>
</g>
<!-- Node9&#45;&gt;Node5 -->
<g id="edge9_Node000009_Node000005" class="edge">
<title>Node9&#45;&gt;Node5</title>
<g id="a_edge9_Node000009_Node000005"><a xlink:title=" ">
<path fill="none" stroke="#63b8ff" d="M1390.27,-316.61C1310.38,-332.77 1195.96,-355.93 1119.4,-371.42"/>
<polygon fill="#63b8ff" stroke="#63b8ff" points="1390.72,-320.09 1399.83,-314.67 1389.33,-313.23 1390.72,-320.09"/>
</a>
</g>
</g>
<!-- Node9&#45;&gt;Node8 -->
<g id="edge10_Node000009_Node000008" class="edge">
<title>Node9&#45;&gt;Node8</title>
<g id="a_edge10_Node000009_Node000008"><a xlink:title=" ">
<path fill="none" stroke="#63b8ff" d="M1548.89,-316.93C1569.02,-321.46 1591.64,-326.12 1613.28,-330.24"/>
<polygon fill="#63b8ff" stroke="#63b8ff" points="1549.68,-313.52 1539.15,-314.7 1548.12,-320.35 1549.68,-313.52"/>
</a>
</g>
</g>
<!-- Node10 -->
<g id="Node000010" class="node">
<title>Node10</title>
<g id="a_Node000010"><a xlink:href="classediteurpanovisu_1_1EditeurPanovisu.html#a9f3ea25b35d4884524508dab3dc4fd6a" target="_top" xlink:title=" ">
<polygon fill="white" stroke="#666666" points="1353.75,-290.92 1168.25,-290.92 1168.25,-258.92 1353.75,-258.92 1353.75,-290.92"/>
<text xml:space="preserve" text-anchor="start" x="1176.25" y="-277.42" font-family="Helvetica,sans-Serif" font-size="10.00">editeurpanovisu.EditeurPanovisu.projet</text>
<text xml:space="preserve" text-anchor="middle" x="1261" y="-265.42" font-family="Helvetica,sans-Serif" font-size="10.00">Sauve</text>
</a>
</g>
</g>
<!-- Node9&#45;&gt;Node10 -->
<g id="edge11_Node000009_Node000010" class="edge">
<title>Node9&#45;&gt;Node10</title>
<g id="a_edge11_Node000009_Node000010"><a xlink:title=" ">
<path fill="none" stroke="#63b8ff" d="M1378.13,-287.02C1370.14,-286.19 1362.11,-285.35 1354.21,-284.53"/>
<polygon fill="#63b8ff" stroke="#63b8ff" points="1377.57,-290.48 1387.87,-288.04 1378.29,-283.52 1377.57,-290.48"/>
</a>
</g>
</g>
<!-- Node16 -->
<g id="Node000016" class="node">
<title>Node16</title>
<g id="a_Node000016"><a xlink:href="classediteurpanovisu_1_1EditeurPanovisu.html#a7b2e25dc717eb52b62e23d54ec4c124a" target="_top" xlink:title=" ">
<polygon fill="white" stroke="#666666" points="1353.75,-129.92 1168.25,-129.92 1168.25,-97.92 1353.75,-97.92 1353.75,-129.92"/>
<text xml:space="preserve" text-anchor="start" x="1176.25" y="-116.42" font-family="Helvetica,sans-Serif" font-size="10.00">editeurpanovisu.EditeurPanovisu.projet</text>
<text xml:space="preserve" text-anchor="middle" x="1261" y="-104.42" font-family="Helvetica,sans-Serif" font-size="10.00">SauveSous</text>
</a>
</g>
</g>
<!-- Node9&#45;&gt;Node16 -->
<g id="edge25_Node000009_Node000016" class="edge">
<title>Node9&#45;&gt;Node16</title>
<g id="a_edge25_Node000009_Node000016"><a xlink:title=" ">
<path fill="none" stroke="#63b8ff" d="M1468.6,-271.94C1448.1,-236.47 1406.58,-173.36 1353.75,-138.92 1348.77,-135.67 1343.38,-132.84 1337.79,-130.38"/>
<polygon fill="#63b8ff" stroke="#63b8ff" points="1465.34,-273.28 1473.3,-280.27 1471.43,-269.84 1465.34,-273.28"/>
</a>
</g>
</g>
<!-- Node10&#45;&gt;Node5 -->
<g id="edge15_Node000010_Node000005" class="edge">
<title>Node10&#45;&gt;Node5</title>
<g id="a_edge15_Node000010_Node000005"><a xlink:title=" ">
<path fill="none" stroke="#63b8ff" d="M1222.52,-297.07C1205.6,-307.46 1185.57,-320.31 1168.25,-332.92 1151.41,-345.18 1150.75,-353.36 1132.25,-362.92 1125.93,-366.19 1119.14,-369.05 1112.2,-371.57"/>
<polygon fill="#63b8ff" stroke="#63b8ff" points="1224.06,-300.23 1230.79,-292.05 1220.42,-294.25 1224.06,-300.23"/>
</a>
</g>
</g>
<!-- Node10&#45;&gt;Node6 -->
<g id="edge12_Node000010_Node000006" class="edge">
<title>Node10&#45;&gt;Node6</title>
<g id="a_edge12_Node000010_Node000006"><a xlink:title=" ">
<path fill="none" stroke="#63b8ff" d="M1156.64,-279.04C1148.39,-279.34 1140.18,-279.64 1132.25,-279.92 832.03,-290.43 754.27,-304.65 456.5,-264.92 427.84,-261.09 396.05,-255.39 370.31,-250.4"/>
<polygon fill="#63b8ff" stroke="#63b8ff" points="1156.52,-282.54 1166.38,-278.67 1156.26,-275.55 1156.52,-282.54"/>
</a>
</g>
</g>
<!-- Node10&#45;&gt;Node8 -->
<g id="edge16_Node000010_Node000008" class="edge">
<title>Node10&#45;&gt;Node8</title>
<g id="a_edge16_Node000010_Node000008"><a xlink:title=" ">
<path fill="none" stroke="#63b8ff" d="M1307.73,-295.91C1331.65,-305.9 1361.72,-316.95 1389.75,-322.92 1463.82,-338.69 1549.71,-342.98 1613.16,-343.58"/>
<polygon fill="#63b8ff" stroke="#63b8ff" points="1309.17,-292.72 1298.6,-292.01 1306.42,-299.16 1309.17,-292.72"/>
</a>
</g>
</g>
<!-- Node10&#45;&gt;Node11 -->
<g id="edge13_Node000010_Node000011" class="edge">
<title>Node10&#45;&gt;Node11</title>
<g id="a_edge13_Node000010_Node000011"><a xlink:title=" ">
<path fill="none" stroke="#63b8ff" d="M1156.82,-262.47C1086.16,-254.28 990.26,-243.85 905.5,-236.92 823.91,-230.25 731.01,-225.2 663.46,-221.99"/>
<polygon fill="#63b8ff" stroke="#63b8ff" points="1156.1,-265.91 1166.43,-263.59 1156.9,-258.95 1156.1,-265.91"/>
</a>
</g>
</g>
<!-- Node12 -->
<g id="Node000012" class="node">
<title>Node12</title>
<g id="a_Node000012"><a xlink:href="classediteurpanovisu_1_1EditeurPanovisu.html#a9b46b222714af12c06ec33d410400773" target="_top" xlink:title=" ">
<polygon fill="white" stroke="#666666" points="905.5,-277.92 714.75,-277.92 714.75,-245.92 905.5,-245.92 905.5,-277.92"/>
<text xml:space="preserve" text-anchor="start" x="722.75" y="-264.42" font-family="Helvetica,sans-Serif" font-size="10.00">editeurpanovisu.EditeurPanovisu.projets</text>
<text xml:space="preserve" text-anchor="middle" x="810.12" y="-252.42" font-family="Helvetica,sans-Serif" font-size="10.00">Fermer</text>
</a>
</g>
</g>
<!-- Node10&#45;&gt;Node12 -->
<g id="edge17_Node000010_Node000012" class="edge">
<title>Node10&#45;&gt;Node12</title>
<g id="a_edge17_Node000010_Node000012"><a xlink:title=" ">
<path fill="none" stroke="#63b8ff" d="M1156.39,-271.92C1080.85,-269.73 979.3,-266.79 905.9,-264.66"/>
<polygon fill="#63b8ff" stroke="#63b8ff" points="1156.2,-275.41 1166.3,-272.2 1156.4,-268.42 1156.2,-275.41"/>
</a>
</g>
</g>
<!-- Node13 -->
<g id="Node000013" class="node">
<title>Node13</title>
<g id="a_Node000013"><a xlink:href="classediteurpanovisu_1_1EditeurPanovisu.html#ac9d449399ccd38843fa12e716f0c9611" target="_top" xlink:title=" ">
<polygon fill="white" stroke="#666666" points="1132.25,-151.92 941.5,-151.92 941.5,-119.92 1132.25,-119.92 1132.25,-151.92"/>
<text xml:space="preserve" text-anchor="start" x="949.5" y="-138.42" font-family="Helvetica,sans-Serif" font-size="10.00">editeurpanovisu.EditeurPanovisu.projets</text>
<text xml:space="preserve" text-anchor="middle" x="1036.88" y="-126.42" font-family="Helvetica,sans-Serif" font-size="10.00">Nouveau</text>
</a>
</g>
</g>
<!-- Node10&#45;&gt;Node13 -->
<g id="edge19_Node000010_Node000013" class="edge">
<title>Node10&#45;&gt;Node13</title>
<g id="a_edge19_Node000010_Node000013"><a xlink:title=" ">
<path fill="none" stroke="#63b8ff" d="M1237.24,-250.45C1213.24,-225.96 1173.29,-188.71 1132.25,-165.92 1122.78,-160.66 1112.26,-156.17 1101.77,-152.39"/>
<polygon fill="#63b8ff" stroke="#63b8ff" points="1234.53,-252.68 1243.99,-257.45 1239.57,-247.82 1234.53,-252.68"/>
</a>
</g>
</g>
<!-- Node14 -->
<g id="Node000014" class="node">
<title>Node14</title>
<g id="a_Node000014"><a xlink:href="classediteurpanovisu_1_1EditeurPanovisu.html#a2b3125ffe2e6291efacf19df6cb30a8d" target="_top" xlink:title=" ">
<polygon fill="white" stroke="#666666" points="900.62,-189.92 719.62,-189.92 719.62,-169.92 900.62,-169.92 900.62,-189.92"/>
<text xml:space="preserve" text-anchor="middle" x="810.12" y="-176.42" font-family="Helvetica,sans-Serif" font-size="10.00">editeurpanovisu.EditeurPanovisu.start</text>
</a>
</g>
</g>
<!-- Node10&#45;&gt;Node14 -->
<g id="edge24_Node000010_Node000014" class="edge">
<title>Node10&#45;&gt;Node14</title>
<g id="a_edge24_Node000010_Node000014"><a xlink:title=" ">
<path fill="none" stroke="#63b8ff" d="M1228.54,-252.33C1203.69,-235.78 1167.44,-214.46 1132.25,-203.92 1056.47,-181.23 966.35,-176.29 900.9,-176.41"/>
<polygon fill="#63b8ff" stroke="#63b8ff" points="1226.32,-255.05 1236.56,-257.77 1230.25,-249.26 1226.32,-255.05"/>
</a>
</g>
</g>
<!-- Node15 -->
<g id="Node000015" class="node">
<title>Node15</title>
<g id="a_Node000015"><a xlink:href="classediteurpanovisu_1_1EditeurPanovisu.html#aef8c9b28c3e88d6e27e3f62b9a901134" target="_top" xlink:title=" ">
<polygon fill="white" stroke="#666666" points="1130.75,-353.92 943,-353.92 943,-321.92 1130.75,-321.92 1130.75,-353.92"/>
<text xml:space="preserve" text-anchor="start" x="951" y="-340.42" font-family="Helvetica,sans-Serif" font-size="10.00">editeurpanovisu.EditeurPanovisu.sauve</text>
<text xml:space="preserve" text-anchor="middle" x="1036.88" y="-328.42" font-family="Helvetica,sans-Serif" font-size="10.00">Fichiers</text>
</a>
</g>
</g>
<!-- Node10&#45;&gt;Node15 -->
<g id="edge23_Node000010_Node000015" class="edge">
<title>Node10&#45;&gt;Node15</title>
<g id="a_edge23_Node000010_Node000015"><a xlink:title=" ">
<path fill="none" stroke="#63b8ff" d="M1190.95,-294.5C1160.49,-303.14 1125.08,-313.19 1095.99,-321.43"/>
<polygon fill="#63b8ff" stroke="#63b8ff" points="1191.81,-297.9 1200.47,-291.8 1189.9,-291.16 1191.81,-297.9"/>
</a>
</g>
</g>
<!-- Node11&#45;&gt;Node6 -->
<g id="edge14_Node000011_Node000006" class="edge">
<title>Node11&#45;&gt;Node6</title>
<g id="a_edge14_Node000011_Node000006"><a xlink:title=" ">
<path fill="none" stroke="#63b8ff" d="M460.99,-227.32C447.68,-228.5 434.09,-229.71 420.85,-230.89"/>
<polygon fill="#63b8ff" stroke="#63b8ff" points="460.93,-230.84 470.58,-226.46 460.31,-223.86 460.93,-230.84"/>
</a>
</g>
</g>
<!-- Node12&#45;&gt;Node6 -->
<g id="edge18_Node000012_Node000006" class="edge">
<title>Node12&#45;&gt;Node6</title>
<g id="a_edge18_Node000012_Node000006"><a xlink:title=" ">
<path fill="none" stroke="#63b8ff" d="M703.08,-257.15C619.42,-253.4 503.48,-248.19 420.99,-244.48"/>
<polygon fill="#63b8ff" stroke="#63b8ff" points="702.75,-260.64 712.89,-257.6 703.06,-253.65 702.75,-260.64"/>
</a>
</g>
</g>
<!-- Node13&#45;&gt;Node6 -->
<g id="edge20_Node000013_Node000006" class="edge">
<title>Node13&#45;&gt;Node6</title>
<g id="a_edge20_Node000013_Node000006"><a xlink:title=" ">
<path fill="none" stroke="#63b8ff" d="M929.65,-138.2C812.44,-142.6 618.89,-155.45 456.5,-192.92 416.53,-202.14 371.87,-218.67 344.69,-229.47"/>
<polygon fill="#63b8ff" stroke="#63b8ff" points="929.72,-141.7 939.59,-137.84 929.47,-134.71 929.72,-141.7"/>
</a>
</g>
</g>
<!-- Node13&#45;&gt;Node14 -->
<g id="edge21_Node000013_Node000014" class="edge">
<title>Node13&#45;&gt;Node14</title>
<g id="a_edge21_Node000013_Node000014"><a xlink:title=" ">
<path fill="none" stroke="#63b8ff" d="M940.81,-154.53C914.81,-159.62 887.53,-164.96 864.74,-169.42"/>
<polygon fill="#63b8ff" stroke="#63b8ff" points="941.24,-158.01 950.38,-152.66 939.9,-151.14 941.24,-158.01"/>
</a>
</g>
</g>
<!-- Node14&#45;&gt;Node11 -->
<g id="edge22_Node000014_Node000011" class="edge">
<title>Node14&#45;&gt;Node11</title>
<g id="a_edge22_Node000014_Node000011"><a xlink:title=" ">
<path fill="none" stroke="#63b8ff" d="M731.58,-192.17C709.77,-195.62 685.8,-199.4 663.12,-202.99"/>
<polygon fill="#63b8ff" stroke="#63b8ff" points="731.94,-195.66 741.28,-190.64 730.85,-188.74 731.94,-195.66"/>
</a>
</g>
</g>
<!-- Node16&#45;&gt;Node6 -->
<g id="edge26_Node000016_Node000006" class="edge">
<title>Node16&#45;&gt;Node6</title>
<g id="a_edge26_Node000016_Node000006"><a xlink:title=" ">
<path fill="none" stroke="#63b8ff" d="M1212.14,-93.32C1188.56,-84.24 1159.41,-74.59 1132.25,-69.92 836.26,-19.03 726.76,58.08 456.5,-72.92 385.27,-107.44 338.3,-198.51 323.99,-229.45"/>
<polygon fill="#63b8ff" stroke="#63b8ff" points="1210.56,-96.46 1221.15,-96.87 1213.13,-89.95 1210.56,-96.46"/>
</a>
</g>
</g>
<!-- Node17&#45;&gt;Node18 -->
<g id="edge29_Node000017_Node000018" class="edge">
<title>Node17&#45;&gt;Node18</title>
<g id="a_edge29_Node000017_Node000018"><a xlink:title=" ">
<path fill="none" stroke="#63b8ff" d="M2044.43,-205.92C2030.08,-205.92 2015.24,-205.92 2001.07,-205.92"/>
<polygon fill="#63b8ff" stroke="#63b8ff" points="2044.3,-209.42 2054.3,-205.92 2044.3,-202.42 2044.3,-209.42"/>
</a>
</g>
</g>
<!-- Node19&#45;&gt;Node4 -->
<g id="edge32_Node000019_Node000004" class="edge">
<title>Node19&#45;&gt;Node4</title>
<g id="a_edge32_Node000019_Node000004"><a xlink:title=" ">
<path fill="none" stroke="#63b8ff" d="M2048.75,-313.02C2030.2,-317.44 2010.62,-322.12 1992.58,-326.43"/>
<polygon fill="#63b8ff" stroke="#63b8ff" points="2049.45,-316.45 2058.36,-310.72 2047.82,-309.64 2049.45,-316.45"/>
</a>
</g>
</g>
<!-- Node20 -->
<g id="Node000020" class="node">
<title>Node20</title>
<g id="a_Node000020"><a xlink:href="classediteurpanovisu_1_1EditeurPanovisu.html#a53cccf6a6b2693c872947460b66ae8ee" target="_top" xlink:title=" ">
<polygon fill="white" stroke="#666666" points="1348.5,-179.92 1173.5,-179.92 1173.5,-147.92 1348.5,-147.92 1348.5,-179.92"/>
<text xml:space="preserve" text-anchor="start" x="1181.5" y="-166.42" font-family="Helvetica,sans-Serif" font-size="10.00">editeurpanovisu.EditeurPanovisu.tsk</text>
<text xml:space="preserve" text-anchor="middle" x="1261" y="-154.42" font-family="Helvetica,sans-Serif" font-size="10.00">ChargeListeFichiers</text>
</a>
</g>
</g>
<!-- Node19&#45;&gt;Node20 -->
<g id="edge33_Node000019_Node000020" class="edge">
<title>Node19&#45;&gt;Node20</title>
<g id="a_edge33_Node000019_Node000020"><a xlink:title=" ">
<path fill="none" stroke="#63b8ff" d="M2047.62,-281.75C1884.18,-257.24 1516.64,-202.11 1348.69,-176.92"/>
<polygon fill="#63b8ff" stroke="#63b8ff" points="2046.65,-285.14 2057.06,-283.17 2047.69,-278.22 2046.65,-285.14"/>
</a>
</g>
</g>
<!-- Node20&#45;&gt;Node13 -->
<g id="edge36_Node000020_Node000013" class="edge">
<title>Node20&#45;&gt;Node13</title>
<g id="a_edge36_Node000020_Node000013"><a xlink:title=" ">
<path fill="none" stroke="#63b8ff" d="M1161.88,-151.55C1152.2,-150.33 1142.38,-149.09 1132.73,-147.88"/>
<polygon fill="#63b8ff" stroke="#63b8ff" points="1161.31,-155 1171.66,-152.78 1162.18,-148.06 1161.31,-155"/>
</a>
</g>
</g>
<!-- Node21 -->
<g id="Node000021" class="node">
<title>Node21</title>
<g id="a_Node000021"><a xlink:href="classediteurpanovisu_1_1EditeurPanovisu.html#a924d3ccff3e4f402d2309cd2eade3237" target="_top" xlink:title=" ">
<polygon fill="white" stroke="#666666" points="678.75,-113.92 456.5,-113.92 456.5,-81.92 678.75,-81.92 678.75,-113.92"/>
<text xml:space="preserve" text-anchor="start" x="464.5" y="-100.42" font-family="Helvetica,sans-Serif" font-size="10.00">editeurpanovisu.EditeurPanovisu.panoramiques</text>
<text xml:space="preserve" text-anchor="middle" x="567.62" y="-88.42" font-family="Helvetica,sans-Serif" font-size="10.00">Ajouter</text>
</a>
</g>
</g>
<!-- Node20&#45;&gt;Node21 -->
<g id="edge34_Node000020_Node000021" class="edge">
<title>Node20&#45;&gt;Node21</title>
<g id="a_edge34_Node000020_Node000021"><a xlink:title=" ">
<path fill="none" stroke="#63b8ff" d="M1178.31,-143.51C1174.87,-142.07 1171.5,-140.54 1168.25,-138.92 1150.12,-129.86 1151.35,-117.72 1132.25,-110.92 979.07,-56.38 787.35,-67.15 671.61,-81.43"/>
<polygon fill="#63b8ff" stroke="#63b8ff" points="1176.82,-146.69 1187.41,-147.02 1179.33,-140.15 1176.82,-146.69"/>
</a>
</g>
</g>
<!-- Node21&#45;&gt;Node6 -->
<g id="edge35_Node000021_Node000006" class="edge">
<title>Node21&#45;&gt;Node6</title>
<g id="a_edge35_Node000021_Node000006"><a xlink:title=" ">
<path fill="none" stroke="#63b8ff" d="M479.1,-118.08C471.29,-120.97 463.65,-124.24 456.5,-127.92 402.39,-155.78 349.95,-207.54 328.97,-229.57"/>
<polygon fill="#63b8ff" stroke="#63b8ff" points="480.09,-121.44 488.39,-114.86 477.79,-114.83 480.09,-121.44"/>
</a>
</g>
</g>
<!-- Node22&#45;&gt;Node3 -->
<g id="edge38_Node000022_Node000003" class="edge">
<title>Node22&#45;&gt;Node3</title>
<g id="a_edge38_Node000022_Node000003"><a xlink:title=" ">
<path fill="none" stroke="#63b8ff" d="M2254.45,-313.11C2235.44,-317.84 2215.24,-322.87 2196.8,-327.47"/>
<polygon fill="#63b8ff" stroke="#63b8ff" points="2255.16,-316.54 2264.02,-310.72 2253.47,-309.75 2255.16,-316.54"/>
</a>
</g>
</g>
<!-- Node22&#45;&gt;Node17 -->
<g id="edge39_Node000022_Node000017" class="edge">
<title>Node22&#45;&gt;Node17</title>
<g id="a_edge39_Node000022_Node000017"><a xlink:title=" ">
<path fill="none" stroke="#63b8ff" d="M2257.2,-272.97C2254.57,-271.69 2251.99,-270.34 2249.5,-268.92 2230.65,-258.15 2232.06,-247.17 2213.5,-235.92 2204.87,-230.69 2195.2,-226.16 2185.58,-222.33"/>
<polygon fill="#63b8ff" stroke="#63b8ff" points="2255.69,-276.12 2266.25,-276.95 2258.51,-269.72 2255.69,-276.12"/>
</a>
</g>
</g>
<!-- Node22&#45;&gt;Node18 -->
<g id="edge40_Node000022_Node000018" class="edge">
<title>Node22&#45;&gt;Node18</title>
<g id="a_edge40_Node000022_Node000018"><a xlink:title=" ">
<path fill="none" stroke="#63b8ff" d="M2247.61,-275.82C2174.86,-260.13 2070.45,-237.61 1999.96,-222.41"/>
<polygon fill="#63b8ff" stroke="#63b8ff" points="2246.57,-279.18 2257.08,-277.87 2248.04,-272.34 2246.57,-279.18"/>
</a>
</g>
</g>
<!-- Node22&#45;&gt;Node19 -->
<g id="edge41_Node000022_Node000019" class="edge">
<title>Node22&#45;&gt;Node19</title>
<g id="a_edge41_Node000022_Node000019"><a xlink:title=" ">
<path fill="none" stroke="#63b8ff" d="M2247.35,-293.92C2231.94,-293.92 2216.01,-293.92 2201.06,-293.92"/>
<polygon fill="#63b8ff" stroke="#63b8ff" points="2246.94,-297.42 2256.94,-293.92 2246.94,-290.42 2246.94,-297.42"/>
</a>
</g>
</g>
<!-- Node24 -->
<g id="Node000024" class="node">
<title>Node24</title>
<g id="a_Node000024"><a xlink:href="classediteurpanovisu_1_1EditeurPanovisu.html#aaee69ab54364f89b58458c744a4195c0" target="_top" xlink:title=" ">
<polygon fill="white" stroke="#666666" points="1577.5,-139.92 1389.75,-139.92 1389.75,-107.92 1577.5,-107.92 1577.5,-139.92"/>
<text xml:space="preserve" text-anchor="start" x="1397.75" y="-126.42" font-family="Helvetica,sans-Serif" font-size="10.00">editeurpanovisu.EditeurPanovisu.sauve</text>
<text xml:space="preserve" text-anchor="middle" x="1483.62" y="-114.42" font-family="Helvetica,sans-Serif" font-size="10.00">FichierProjet</text>
</a>
</g>
</g>
<!-- Node23&#45;&gt;Node24 -->
<g id="edge45_Node000023_Node000024" class="edge">
<title>Node23&#45;&gt;Node24</title>
<g id="a_edge45_Node000023_Node000024"><a xlink:title=" ">
<path fill="none" stroke="#63b8ff" d="M2237.7,-155.04C2074.54,-148.3 1740.4,-134.49 1577.73,-127.77"/>
<polygon fill="#63b8ff" stroke="#63b8ff" points="2237.49,-158.54 2247.63,-155.45 2237.78,-151.54 2237.49,-158.54"/>
</a>
</g>
</g>
<!-- Node24&#45;&gt;Node10 -->
<g id="edge46_Node000024_Node000010" class="edge">
<title>Node24&#45;&gt;Node10</title>
<g id="a_edge46_Node000024_Node000010"><a xlink:title=" ">
<path fill="none" stroke="#63b8ff" d="M1449.28,-146.74C1404.37,-177.48 1325.52,-231.44 1286,-258.49"/>
<polygon fill="#63b8ff" stroke="#63b8ff" points="1451.07,-149.76 1457.35,-141.22 1447.12,-143.98 1451.07,-149.76"/>
</a>
</g>
</g>
<!-- Node24&#45;&gt;Node16 -->
<g id="edge47_Node000024_Node000016" class="edge">
<title>Node24&#45;&gt;Node16</title>
<g id="a_edge47_Node000024_Node000016"><a xlink:title=" ">
<path fill="none" stroke="#63b8ff" d="M1378.13,-119.18C1370.14,-118.82 1362.11,-118.46 1354.21,-118.1"/>
<polygon fill="#63b8ff" stroke="#63b8ff" points="1377.72,-122.67 1387.87,-119.62 1378.04,-115.67 1377.72,-122.67"/>
</a>
</g>
</g>
</g>
</svg>

<g id="navigator" transform="translate(0 0)" fill="#404254">
  <rect fill="#f2f5e9" fill-opacity="0.5" stroke="#606060" stroke-width=".5" x="0" y="0" width="60" height="60"/>
  <use id="zoomplus" xlink:href="#zoomPlus" x="17" y="9" onmousedown="handleZoom(evt,'in')"/>
  <use id="zoomminus" xlink:href="#zoomMin" x="42" y="9" onmousedown="handleZoom(evt,'out')"/>
  <use id="reset" xlink:href="#resetDef" x="30" y="36" onmousedown="handleReset()"/>
   <use id="arrowup" xlink:href="#arrowUp" x="0" y="0" onmousedown="handlePan(0,-1)"/>
  <use id="arrowright" xlink:href="#arrowRight" x="0" y="0" onmousedown="handlePan(1,0)"/>
  <use id="arrowdown" xlink:href="#arrowDown" x="0" y="0" onmousedown="handlePan(0,1)"/>
  <use id="arrowleft" xlink:href="#arrowLeft" x="0" y="0" onmousedown="handlePan(-1,0)"/>
</g>
<svg viewBox="0 0 15 15" width="100%" height="30px" preserveAspectRatio="xMaxYMin meet">
 <g id="arrow_out" transform="scale(0.3 0.3)">
  <a xlink:href="classediteurpanovisu_1_1GestionnaireInterfaceController_a5d420a2479f7a9303d5345de12e69c86_icgraph_org.svg" target="_base">
   <rect id="button" ry="5" rx="5" y="6" x="6" height="38" width="38"
        fill="#f2f5e9" fill-opacity="0.5" stroke="#606060" stroke-width="1.0"/>
   <path id="arrow"
     d="M 11.500037,31.436501 C 11.940474,20.09759 22.043105,11.32322 32.158766,21.979434 L 37.068811,17.246167 C 37.068811,17.246167 37.088388,32 37.088388,32 L 22.160133,31.978069 C 22.160133,31.978069 26.997745,27.140456 26.997745,27.140456 C 18.528582,18.264221 13.291696,25.230495 11.500037,31.436501 z"
     style="fill:#404040;"/>
  </a>
 </g>
</svg>

<style type='text/css'>
<![CDATA[
[data-mouse-over-selected='false'] { opacity: 0.7; }
[data-mouse-over-selected='true']  { opacity: 1.0; }
]]>
</style>
<script type="application/ecmascript"><![CDATA[
document.addEventListener('DOMContentLoaded', (event) => {
  highlightEdges();
  highlightAdjacentNodes();
});
]]></script>
</svg>
