<?xml version="1.0" encoding="UTF-8" standalone="no"?>
<!DOCTYPE svg PUBLIC "-//W3C//DTD SVG 1.1//EN"
 "http://www.w3.org/Graphics/SVG/1.1/DTD/svg11.dtd">
<!-- Generated by graphviz version 13.1.2 (20250808.2320)
 -->
<!-- Title: editeurpanovisu.VisualiseurImagesPanoramiques.setNomImagePanoramique Pages: 1 -->
<svg width="498pt" height="182pt"
 viewBox="0.00 0.00 498.00 182.00" xmlns="http://www.w3.org/2000/svg" xmlns:xlink="http://www.w3.org/1999/xlink">
<g id="graph0" class="graph" transform="scale(1 1) rotate(0) translate(4 178)">
<title>editeurpanovisu.VisualiseurImagesPanoramiques.setNomImagePanoramique</title>
<!-- Node1 -->
<g id="Node000001" class="node">
<title>Node1</title>
<g id="a_Node000001"><a xlink:title=" ">
<polygon fill="#999999" stroke="#666666" points="232,-94 0,-94 0,-62 232,-62 232,-94"/>
<text xml:space="preserve" text-anchor="start" x="8" y="-80.5" font-family="Helvetica,sans-Serif" font-size="10.00">editeurpanovisu.Visualiseur</text>
<text xml:space="preserve" text-anchor="middle" x="116" y="-68.5" font-family="Helvetica,sans-Serif" font-size="10.00">ImagesPanoramiques.setNomImagePanoramique</text>
</a>
</g>
</g>
<!-- Node2 -->
<g id="Node000002" class="node">
<title>Node2</title>
<g id="a_Node000002"><a xlink:href="classediteurpanovisu_1_1VisualiseurImagesPanoramiques.html#aa6e3390d3a749d9e996d8018c0398a18" target="_top" xlink:title=" ">
<polygon fill="white" stroke="#666666" points="467.38,-174 290.12,-174 290.12,-130 467.38,-130 467.38,-174"/>
<text xml:space="preserve" text-anchor="start" x="298.12" y="-160.5" font-family="Helvetica,sans-Serif" font-size="10.00">editeurpanovisu.Visualiseur</text>
<text xml:space="preserve" text-anchor="start" x="298.12" y="-148.5" font-family="Helvetica,sans-Serif" font-size="10.00">ImagesPanoramiques.getNomFichier</text>
<text xml:space="preserve" text-anchor="middle" x="378.75" y="-136.5" font-family="Helvetica,sans-Serif" font-size="10.00">Panoramique</text>
</a>
</g>
</g>
<!-- Node1&#45;&gt;Node2 -->
<g id="edge1_Node000001_Node000002" class="edge">
<title>Node1&#45;&gt;Node2</title>
<g id="a_edge1_Node000001_Node000002"><a xlink:title=" ">
<path fill="none" stroke="#63b8ff" d="M174.71,-94.47C202.85,-102.49 237.19,-112.26 268,-121 274.22,-122.77 280.65,-124.58 287.12,-126.42"/>
<polygon fill="#63b8ff" stroke="#63b8ff" points="285.99,-129.73 296.56,-129.09 287.89,-123 285.99,-129.73"/>
</a>
</g>
</g>
<!-- Node3 -->
<g id="Node000003" class="node">
<title>Node3</title>
<g id="a_Node000003"><a xlink:href="classediteurpanovisu_1_1VisualiseurImagesPanoramiques.html#a522b4603bd26534742ebf6d00aed9752" target="_top" xlink:title=" ">
<polygon fill="white" stroke="#666666" points="489.5,-94 268,-94 268,-62 489.5,-62 489.5,-94"/>
<text xml:space="preserve" text-anchor="start" x="276" y="-80.5" font-family="Helvetica,sans-Serif" font-size="10.00">editeurpanovisu.Visualiseur</text>
<text xml:space="preserve" text-anchor="middle" x="378.75" y="-68.5" font-family="Helvetica,sans-Serif" font-size="10.00">ImagesPanoramiques.imgTransformationImage</text>
</a>
</g>
</g>
<!-- Node1&#45;&gt;Node3 -->
<g id="edge2_Node000001_Node000003" class="edge">
<title>Node1&#45;&gt;Node3</title>
<g id="a_edge2_Node000001_Node000003"><a xlink:title=" ">
<path fill="none" stroke="#63b8ff" d="M232.13,-78C240.2,-78 248.34,-78 256.44,-78"/>
<polygon fill="#63b8ff" stroke="#63b8ff" points="256.33,-81.5 266.33,-78 256.33,-74.5 256.33,-81.5"/>
</a>
</g>
</g>
<!-- Node4 -->
<g id="Node000004" class="node">
<title>Node4</title>
<g id="a_Node000004"><a xlink:href="classediteurpanovisu_1_1VisualiseurImagesPanoramiques.html#a7bcf9b8c5922a4b663161f09ead21eb3" target="_top" xlink:title=" ">
<polygon fill="white" stroke="#666666" points="467.38,-44 290.12,-44 290.12,0 467.38,0 467.38,-44"/>
<text xml:space="preserve" text-anchor="start" x="298.12" y="-30.5" font-family="Helvetica,sans-Serif" font-size="10.00">editeurpanovisu.Visualiseur</text>
<text xml:space="preserve" text-anchor="start" x="298.12" y="-18.5" font-family="Helvetica,sans-Serif" font-size="10.00">ImagesPanoramiques.setNomFichier</text>
<text xml:space="preserve" text-anchor="middle" x="378.75" y="-6.5" font-family="Helvetica,sans-Serif" font-size="10.00">Panoramique</text>
</a>
</g>
</g>
<!-- Node1&#45;&gt;Node4 -->
<g id="edge4_Node000001_Node000004" class="edge">
<title>Node1&#45;&gt;Node4</title>
<g id="a_edge4_Node000001_Node000004"><a xlink:title=" ">
<path fill="none" stroke="#63b8ff" d="M193.82,-61.5C220.48,-55.78 250.75,-49.27 278.93,-43.22"/>
<polygon fill="#63b8ff" stroke="#63b8ff" points="279.51,-46.68 288.55,-41.16 278.04,-39.84 279.51,-46.68"/>
</a>
</g>
</g>
<!-- Node3&#45;&gt;Node3 -->
<g id="edge3_Node000003_Node000003" class="edge">
<title>Node3&#45;&gt;Node3</title>
<g id="a_edge3_Node000003_Node000003"><a xlink:title=" ">
<path fill="none" stroke="#63b8ff" d="M331.84,-94.44C323.09,-103.58 338.72,-112 378.75,-112 400.95,-112 415.65,-109.41 422.84,-105.54"/>
<polygon fill="#63b8ff" stroke="#63b8ff" points="426.22,-106.46 425.29,-95.91 419.44,-104.74 426.22,-106.46"/>
</a>
</g>
</g>
</g>
</svg>
