<?xml version="1.0" encoding="UTF-8" standalone="no"?>
<!DOCTYPE svg PUBLIC "-//W3C//DTD SVG 1.1//EN"
 "http://www.w3.org/Graphics/SVG/1.1/DTD/svg11.dtd">
<!-- Generated by graphviz version 13.1.2 (20250808.2320)
 -->
<!-- Title: editeurpanovisu.GestionnaireInterfaceController.apAfficheCalques Pages: 1 -->
<svg width="645pt" height="852pt"
 viewBox="0.00 0.00 645.00 852.00" xmlns="http://www.w3.org/2000/svg" xmlns:xlink="http://www.w3.org/1999/xlink">
<g id="graph0" class="graph" transform="scale(1 1) rotate(0) translate(4 848)">
<title>editeurpanovisu.GestionnaireInterfaceController.apAfficheCalques</title>
<!-- Node1 -->
<g id="Node000001" class="node">
<title>Node1</title>
<g id="a_Node000001"><a xlink:title="pannel des niveaux de calque">
<polygon fill="#999999" stroke="#666666" points="175.75,-473 0,-473 0,-441 175.75,-441 175.75,-473"/>
<text xml:space="preserve" text-anchor="start" x="8" y="-459.5" font-family="Helvetica,sans-Serif" font-size="10.00">editeurpanovisu.Gestionnaire</text>
<text xml:space="preserve" text-anchor="middle" x="87.88" y="-447.5" font-family="Helvetica,sans-Serif" font-size="10.00">InterfaceController.apAfficheCalques</text>
</a>
</g>
</g>
<!-- Node2 -->
<g id="Node000002" class="node">
<title>Node2</title>
<g id="a_Node000002"><a xlink:href="leaflet_8js.html#a73aff07b65d7c0b09ccf6b4c4f1b7a9d" target="_top" xlink:title=" ">
<polygon fill="white" stroke="#666666" points="549.4,-844 520.6,-844 520.6,-824 549.4,-824 549.4,-844"/>
<text xml:space="preserve" text-anchor="middle" x="535" y="-830.5" font-family="Helvetica,sans-Serif" font-size="10.00">i</text>
</a>
</g>
</g>
<!-- Node1&#45;&gt;Node2 -->
<g id="edge1_Node000001_Node000002" class="edge">
<title>Node1&#45;&gt;Node2</title>
<g id="a_edge1_Node000001_Node000002"><a xlink:title=" ">
<path fill="none" stroke="#63b8ff" d="M98.95,-473.2C135.65,-530.65 268.62,-726 433.25,-815 456.94,-827.81 487.82,-832.11 509.12,-833.49"/>
<polygon fill="#63b8ff" stroke="#63b8ff" points="508.76,-836.98 518.91,-833.94 509.08,-829.99 508.76,-836.98"/>
</a>
</g>
</g>
<!-- Node3 -->
<g id="Node000003" class="node">
<title>Node3</title>
<g id="a_Node000003"><a xlink:href="classediteurpanovisu_1_1GestionnaireInterfaceController.html#a6841b5ee320549f9685bf881b97271f6" target="_top" xlink:title="Réaffiche les éléments dans l&#39;ordre des plans.">
<polygon fill="white" stroke="#666666" points="397.25,-454 211.75,-454 211.75,-410 397.25,-410 397.25,-454"/>
<text xml:space="preserve" text-anchor="start" x="219.75" y="-440.5" font-family="Helvetica,sans-Serif" font-size="10.00">editeurpanovisu.Gestionnaire</text>
<text xml:space="preserve" text-anchor="start" x="219.75" y="-428.5" font-family="Helvetica,sans-Serif" font-size="10.00">InterfaceController.reOrdonneElements</text>
<text xml:space="preserve" text-anchor="middle" x="304.5" y="-416.5" font-family="Helvetica,sans-Serif" font-size="10.00">Calque</text>
</a>
</g>
</g>
<!-- Node1&#45;&gt;Node3 -->
<g id="edge2_Node000001_Node000003" class="edge">
<title>Node1&#45;&gt;Node3</title>
<g id="a_edge2_Node000001_Node000003"><a xlink:title=" ">
<path fill="none" stroke="#63b8ff" d="M176.17,-446.83C184.06,-445.91 192.1,-444.98 200.11,-444.04"/>
<polygon fill="#63b8ff" stroke="#63b8ff" points="200.36,-447.54 209.89,-442.9 199.55,-440.58 200.36,-447.54"/>
</a>
</g>
</g>
<!-- Node3&#45;&gt;Node2 -->
<g id="edge18_Node000003_Node000002" class="edge">
<title>Node3&#45;&gt;Node2</title>
<g id="a_edge18_Node000003_Node000002"><a xlink:title=" ">
<path fill="none" stroke="#63b8ff" d="M316.95,-454.33C336.04,-492.35 374.52,-572.53 397.25,-644 420.79,-718.01 377.76,-760.66 433.25,-815 453,-834.33 485.85,-837.2 508.64,-836.47"/>
<polygon fill="#63b8ff" stroke="#63b8ff" points="508.85,-839.97 518.62,-835.87 508.42,-832.98 508.85,-839.97"/>
</a>
</g>
</g>
<!-- Node4 -->
<g id="Node000004" class="node">
<title>Node4</title>
<g id="a_Node000004"><a xlink:href="classediteurpanovisu_1_1GestionnaireInterfaceController.html#a6bb7b57880cc7f5f512b09b4130f254a" target="_top" xlink:title=" ">
<polygon fill="white" stroke="#666666" points="619.5,-806 450.5,-806 450.5,-762 619.5,-762 619.5,-806"/>
<text xml:space="preserve" text-anchor="start" x="458.5" y="-792.5" font-family="Helvetica,sans-Serif" font-size="10.00">editeurpanovisu.Gestionnaire</text>
<text xml:space="preserve" text-anchor="start" x="458.5" y="-780.5" font-family="Helvetica,sans-Serif" font-size="10.00">InterfaceController.getiCalqueBarre</text>
<text xml:space="preserve" text-anchor="middle" x="535" y="-768.5" font-family="Helvetica,sans-Serif" font-size="10.00">Classique</text>
</a>
</g>
</g>
<!-- Node3&#45;&gt;Node4 -->
<g id="edge3_Node000003_Node000004" class="edge">
<title>Node3&#45;&gt;Node4</title>
<g id="a_edge3_Node000003_Node000004"><a xlink:title=" ">
<path fill="none" stroke="#63b8ff" d="M315.95,-454.32C333.72,-492.67 370.5,-573.72 397.25,-644 415.4,-691.68 396.81,-717.3 433.25,-753 435.5,-755.21 437.9,-757.25 440.43,-759.16"/>
<polygon fill="#63b8ff" stroke="#63b8ff" points="438.5,-762.08 448.79,-764.61 442.32,-756.21 438.5,-762.08"/>
</a>
</g>
</g>
<!-- Node5 -->
<g id="Node000005" class="node">
<title>Node5</title>
<g id="a_Node000005"><a xlink:href="classediteurpanovisu_1_1GestionnaireInterfaceController.html#af9d8e6d4af8eda132e74c762ab4f1220" target="_top" xlink:title=" ">
<polygon fill="white" stroke="#666666" points="619.5,-744 450.5,-744 450.5,-700 619.5,-700 619.5,-744"/>
<text xml:space="preserve" text-anchor="start" x="458.5" y="-730.5" font-family="Helvetica,sans-Serif" font-size="10.00">editeurpanovisu.Gestionnaire</text>
<text xml:space="preserve" text-anchor="start" x="458.5" y="-718.5" font-family="Helvetica,sans-Serif" font-size="10.00">InterfaceController.getiCalqueBarre</text>
<text xml:space="preserve" text-anchor="middle" x="535" y="-706.5" font-family="Helvetica,sans-Serif" font-size="10.00">Personnalisee</text>
</a>
</g>
</g>
<!-- Node3&#45;&gt;Node5 -->
<g id="edge4_Node000003_Node000005" class="edge">
<title>Node3&#45;&gt;Node5</title>
<g id="a_edge4_Node000003_Node000005"><a xlink:title=" ">
<path fill="none" stroke="#63b8ff" d="M313.87,-454.36C335.46,-510.93 394.03,-657.59 433.25,-691 435.59,-692.99 438.05,-694.85 440.61,-696.59"/>
<polygon fill="#63b8ff" stroke="#63b8ff" points="438.6,-699.47 448.97,-701.62 442.2,-693.47 438.6,-699.47"/>
</a>
</g>
</g>
<!-- Node6 -->
<g id="Node000006" class="node">
<title>Node6</title>
<g id="a_Node000006"><a xlink:href="classediteurpanovisu_1_1GestionnaireInterfaceController.html#a6dedcad8739f7ad0245454822e8356df" target="_top" xlink:title=" ">
<polygon fill="white" stroke="#666666" points="628.12,-682 441.88,-682 441.88,-650 628.12,-650 628.12,-682"/>
<text xml:space="preserve" text-anchor="start" x="449.88" y="-668.5" font-family="Helvetica,sans-Serif" font-size="10.00">editeurpanovisu.Gestionnaire</text>
<text xml:space="preserve" text-anchor="middle" x="535" y="-656.5" font-family="Helvetica,sans-Serif" font-size="10.00">InterfaceController.getiCalqueBoussole</text>
</a>
</g>
</g>
<!-- Node3&#45;&gt;Node6 -->
<g id="edge5_Node000003_Node000006" class="edge">
<title>Node3&#45;&gt;Node6</title>
<g id="a_edge5_Node000003_Node000006"><a xlink:title=" ">
<path fill="none" stroke="#63b8ff" d="M312.64,-454.25C327.66,-497.35 366.72,-592.22 433.25,-641 434.8,-642.14 436.39,-643.22 438.03,-644.26"/>
<polygon fill="#63b8ff" stroke="#63b8ff" points="436,-647.13 446.44,-648.93 439.4,-641.01 436,-647.13"/>
</a>
</g>
</g>
<!-- Node7 -->
<g id="Node000007" class="node">
<title>Node7</title>
<g id="a_Node000007"><a xlink:href="classediteurpanovisu_1_1GestionnaireInterfaceController.html#a8193ee98626eccb9c24467d77d3ed2e0" target="_top" xlink:title=" ">
<polygon fill="white" stroke="#666666" points="619.88,-632 450.12,-632 450.12,-600 619.88,-600 619.88,-632"/>
<text xml:space="preserve" text-anchor="start" x="458.12" y="-618.5" font-family="Helvetica,sans-Serif" font-size="10.00">editeurpanovisu.Gestionnaire</text>
<text xml:space="preserve" text-anchor="middle" x="535" y="-606.5" font-family="Helvetica,sans-Serif" font-size="10.00">InterfaceController.getiCalqueCarte</text>
</a>
</g>
</g>
<!-- Node3&#45;&gt;Node7 -->
<g id="edge6_Node000003_Node000007" class="edge">
<title>Node3&#45;&gt;Node7</title>
<g id="a_edge6_Node000003_Node000007"><a xlink:title=" ">
<path fill="none" stroke="#63b8ff" d="M317.1,-454.33C336.37,-489.13 378.35,-555.92 433.25,-591 435.27,-592.29 437.35,-593.51 439.47,-594.67"/>
<polygon fill="#63b8ff" stroke="#63b8ff" points="437.87,-597.78 448.4,-598.99 440.92,-591.48 437.87,-597.78"/>
</a>
</g>
</g>
<!-- Node8 -->
<g id="Node000008" class="node">
<title>Node8</title>
<g id="a_Node000008"><a xlink:href="classediteurpanovisu_1_1ImageFond.html#adf317b83e09f8d955fd03bf541c35a32" target="_top" xlink:title=" ">
<polygon fill="white" stroke="#666666" points="612.38,-582 457.62,-582 457.62,-550 612.38,-550 612.38,-582"/>
<text xml:space="preserve" text-anchor="start" x="465.62" y="-568.5" font-family="Helvetica,sans-Serif" font-size="10.00">editeurpanovisu.ImageFond.geti</text>
<text xml:space="preserve" text-anchor="middle" x="535" y="-556.5" font-family="Helvetica,sans-Serif" font-size="10.00">CalqueImage</text>
</a>
</g>
</g>
<!-- Node3&#45;&gt;Node8 -->
<g id="edge7_Node000003_Node000008" class="edge">
<title>Node3&#45;&gt;Node8</title>
<g id="a_edge7_Node000003_Node000008"><a xlink:title=" ">
<path fill="none" stroke="#63b8ff" d="M325.38,-454.29C348.78,-479.14 389.95,-518.74 433.25,-541 437.49,-543.18 441.92,-545.17 446.47,-547"/>
<polygon fill="#63b8ff" stroke="#63b8ff" points="445.24,-550.27 455.83,-550.44 447.65,-543.7 445.24,-550.27"/>
</a>
</g>
</g>
<!-- Node9 -->
<g id="Node000009" class="node">
<title>Node9</title>
<g id="a_Node000009"><a xlink:href="classediteurpanovisu_1_1GestionnaireInterfaceController.html#ad47465b6dd24c98c481660b65d40cc98" target="_top" xlink:title=" ">
<polygon fill="white" stroke="#666666" points="630.38,-532 439.62,-532 439.62,-500 630.38,-500 630.38,-532"/>
<text xml:space="preserve" text-anchor="start" x="447.62" y="-518.5" font-family="Helvetica,sans-Serif" font-size="10.00">editeurpanovisu.Gestionnaire</text>
<text xml:space="preserve" text-anchor="middle" x="535" y="-506.5" font-family="Helvetica,sans-Serif" font-size="10.00">InterfaceController.getiCalqueMasquage</text>
</a>
</g>
</g>
<!-- Node3&#45;&gt;Node9 -->
<g id="edge8_Node000003_Node000009" class="edge">
<title>Node3&#45;&gt;Node9</title>
<g id="a_edge8_Node000003_Node000009"><a xlink:title=" ">
<path fill="none" stroke="#63b8ff" d="M348.7,-454.44C373.06,-466.46 404.32,-480.83 433.25,-491 438.59,-492.88 444.13,-494.67 449.74,-496.37"/>
<polygon fill="#63b8ff" stroke="#63b8ff" points="448.57,-499.67 459.15,-499.1 450.52,-492.95 448.57,-499.67"/>
</a>
</g>
</g>
<!-- Node10 -->
<g id="Node000010" class="node">
<title>Node10</title>
<g id="a_Node000010"><a xlink:href="classediteurpanovisu_1_1GestionnaireInterfaceController.html#ac6f8d140cba49c056639f294d77b65a9" target="_top" xlink:title=" ">
<polygon fill="white" stroke="#666666" points="619.88,-482 450.12,-482 450.12,-438 619.88,-438 619.88,-482"/>
<text xml:space="preserve" text-anchor="start" x="458.12" y="-468.5" font-family="Helvetica,sans-Serif" font-size="10.00">editeurpanovisu.Gestionnaire</text>
<text xml:space="preserve" text-anchor="start" x="458.12" y="-456.5" font-family="Helvetica,sans-Serif" font-size="10.00">InterfaceController.getiCalqueMenu</text>
<text xml:space="preserve" text-anchor="middle" x="535" y="-444.5" font-family="Helvetica,sans-Serif" font-size="10.00">Panoramiques</text>
</a>
</g>
</g>
<!-- Node3&#45;&gt;Node10 -->
<g id="edge9_Node000003_Node000010" class="edge">
<title>Node3&#45;&gt;Node10</title>
<g id="a_edge9_Node000003_Node000010"><a xlink:title=" ">
<path fill="none" stroke="#63b8ff" d="M397.45,-443.27C410.92,-444.92 424.82,-446.62 438.35,-448.28"/>
<polygon fill="#63b8ff" stroke="#63b8ff" points="437.77,-451.73 448.12,-449.48 438.62,-444.79 437.77,-451.73"/>
</a>
</g>
</g>
<!-- Node11 -->
<g id="Node000011" class="node">
<title>Node11</title>
<g id="a_Node000011"><a xlink:href="classediteurpanovisu_1_1GestionnaireInterfaceController.html#a8082e12af30ac9730aa2cd9c9633ac8f" target="_top" xlink:title=" ">
<polygon fill="white" stroke="#666666" points="624.75,-420 445.25,-420 445.25,-388 624.75,-388 624.75,-420"/>
<text xml:space="preserve" text-anchor="start" x="453.25" y="-406.5" font-family="Helvetica,sans-Serif" font-size="10.00">editeurpanovisu.Gestionnaire</text>
<text xml:space="preserve" text-anchor="middle" x="535" y="-394.5" font-family="Helvetica,sans-Serif" font-size="10.00">InterfaceController.getiCalquePartage</text>
</a>
</g>
</g>
<!-- Node3&#45;&gt;Node11 -->
<g id="edge10_Node000003_Node000011" class="edge">
<title>Node3&#45;&gt;Node11</title>
<g id="a_edge10_Node000003_Node000011"><a xlink:title=" ">
<path fill="none" stroke="#63b8ff" d="M397.45,-420.73C409.29,-419.28 421.47,-417.79 433.44,-416.32"/>
<polygon fill="#63b8ff" stroke="#63b8ff" points="433.83,-419.8 443.33,-415.11 432.98,-412.85 433.83,-419.8"/>
</a>
</g>
</g>
<!-- Node12 -->
<g id="Node000012" class="node">
<title>Node12</title>
<g id="a_Node000012"><a xlink:href="classediteurpanovisu_1_1GestionnaireInterfaceController.html#accd110de308186b12698b08ce9eb6a5d" target="_top" xlink:title=" ">
<polygon fill="white" stroke="#666666" points="617.62,-370 452.38,-370 452.38,-338 617.62,-338 617.62,-370"/>
<text xml:space="preserve" text-anchor="start" x="460.38" y="-356.5" font-family="Helvetica,sans-Serif" font-size="10.00">editeurpanovisu.Gestionnaire</text>
<text xml:space="preserve" text-anchor="middle" x="535" y="-344.5" font-family="Helvetica,sans-Serif" font-size="10.00">InterfaceController.getiCalquePlan</text>
</a>
</g>
</g>
<!-- Node3&#45;&gt;Node12 -->
<g id="edge11_Node000003_Node000012" class="edge">
<title>Node3&#45;&gt;Node12</title>
<g id="a_edge11_Node000003_Node000012"><a xlink:title=" ">
<path fill="none" stroke="#63b8ff" d="M354.6,-409.6C378.08,-399.41 406.79,-387.72 433.25,-379 439.03,-377.1 445.03,-375.26 451.1,-373.51"/>
<polygon fill="#63b8ff" stroke="#63b8ff" points="451.92,-376.91 460.61,-370.85 450.04,-370.17 451.92,-376.91"/>
</a>
</g>
</g>
<!-- Node13 -->
<g id="Node000013" class="node">
<title>Node13</title>
<g id="a_Node000013"><a xlink:href="classediteurpanovisu_1_1GestionnaireInterfaceController.html#abc727fe73c02ad7104b8a3741c66645c" target="_top" xlink:title=" ">
<polygon fill="white" stroke="#666666" points="627.75,-320 442.25,-320 442.25,-288 627.75,-288 627.75,-320"/>
<text xml:space="preserve" text-anchor="start" x="450.25" y="-306.5" font-family="Helvetica,sans-Serif" font-size="10.00">editeurpanovisu.Gestionnaire</text>
<text xml:space="preserve" text-anchor="middle" x="535" y="-294.5" font-family="Helvetica,sans-Serif" font-size="10.00">InterfaceController.getiCalqueSuivPrec</text>
</a>
</g>
</g>
<!-- Node3&#45;&gt;Node13 -->
<g id="edge12_Node000003_Node000013" class="edge">
<title>Node3&#45;&gt;Node13</title>
<g id="a_edge12_Node000003_Node000013"><a xlink:title=" ">
<path fill="none" stroke="#63b8ff" d="M326.92,-409.7C350.74,-386.21 391.4,-349.78 433.25,-329 436.52,-327.38 439.9,-325.85 443.36,-324.43"/>
<polygon fill="#63b8ff" stroke="#63b8ff" points="444.39,-327.78 452.5,-320.96 441.91,-321.23 444.39,-327.78"/>
</a>
</g>
</g>
<!-- Node14 -->
<g id="Node000014" class="node">
<title>Node14</title>
<g id="a_Node000014"><a xlink:href="classediteurpanovisu_1_1GestionnaireInterfaceController.html#a549bfb9f821044843722c049e0635abd" target="_top" xlink:title=" ">
<polygon fill="white" stroke="#666666" points="617.62,-270 452.38,-270 452.38,-238 617.62,-238 617.62,-270"/>
<text xml:space="preserve" text-anchor="start" x="460.38" y="-256.5" font-family="Helvetica,sans-Serif" font-size="10.00">editeurpanovisu.Gestionnaire</text>
<text xml:space="preserve" text-anchor="middle" x="535" y="-244.5" font-family="Helvetica,sans-Serif" font-size="10.00">InterfaceController.getiCalqueTitre</text>
</a>
</g>
</g>
<!-- Node3&#45;&gt;Node14 -->
<g id="edge13_Node000003_Node000014" class="edge">
<title>Node3&#45;&gt;Node14</title>
<g id="a_edge13_Node000003_Node000014"><a xlink:title=" ">
<path fill="none" stroke="#63b8ff" d="M317.81,-409.69C337.59,-375.99 379.72,-312.5 433.25,-279 435.88,-277.35 438.61,-275.82 441.42,-274.38"/>
<polygon fill="#63b8ff" stroke="#63b8ff" points="442.86,-277.57 450.5,-270.24 439.95,-271.2 442.86,-277.57"/>
</a>
</g>
</g>
<!-- Node15 -->
<g id="Node000015" class="node">
<title>Node15</title>
<g id="a_Node000015"><a xlink:href="classediteurpanovisu_1_1GestionnaireInterfaceController.html#aba4a79d6544bf312a6f3a329ad6e4233" target="_top" xlink:title=" ">
<polygon fill="white" stroke="#666666" points="628.5,-220 441.5,-220 441.5,-188 628.5,-188 628.5,-220"/>
<text xml:space="preserve" text-anchor="start" x="449.5" y="-206.5" font-family="Helvetica,sans-Serif" font-size="10.00">editeurpanovisu.Gestionnaire</text>
<text xml:space="preserve" text-anchor="middle" x="535" y="-194.5" font-family="Helvetica,sans-Serif" font-size="10.00">InterfaceController.getiCalqueVignettes</text>
</a>
</g>
</g>
<!-- Node3&#45;&gt;Node15 -->
<g id="edge14_Node000003_Node000015" class="edge">
<title>Node3&#45;&gt;Node15</title>
<g id="a_edge14_Node000003_Node000015"><a xlink:title=" ">
<path fill="none" stroke="#63b8ff" d="M313.07,-409.73C328.59,-367.56 368.13,-276.1 433.25,-229 434.81,-227.87 436.41,-226.8 438.05,-225.77"/>
<polygon fill="#63b8ff" stroke="#63b8ff" points="439.41,-229.02 446.49,-221.13 436.04,-222.88 439.41,-229.02"/>
</a>
</g>
</g>
<!-- Node16 -->
<g id="Node000016" class="node">
<title>Node16</title>
<g id="a_Node000016"><a xlink:href="classediteurpanovisu_1_1GestionnaireInterfaceController.html#a3fdcd82d7db9396d4e89f8cce1fef7cb" target="_top" xlink:title=" ">
<polygon fill="white" stroke="#666666" points="630.38,-170 439.62,-170 439.62,-138 630.38,-138 630.38,-170"/>
<text xml:space="preserve" text-anchor="start" x="447.62" y="-156.5" font-family="Helvetica,sans-Serif" font-size="10.00">editeurpanovisu.Gestionnaire</text>
<text xml:space="preserve" text-anchor="middle" x="535" y="-144.5" font-family="Helvetica,sans-Serif" font-size="10.00">InterfaceController.getiCalqueVisiteAuto</text>
</a>
</g>
</g>
<!-- Node3&#45;&gt;Node16 -->
<g id="edge15_Node000003_Node000016" class="edge">
<title>Node3&#45;&gt;Node16</title>
<g id="a_edge15_Node000003_Node000016"><a xlink:title=" ">
<path fill="none" stroke="#63b8ff" d="M310.12,-409.79C321.62,-360.26 356.31,-240.36 433.25,-179 434.4,-178.08 435.58,-177.2 436.78,-176.35"/>
<polygon fill="#63b8ff" stroke="#63b8ff" points="438.48,-179.42 445.18,-171.21 434.82,-173.44 438.48,-179.42"/>
</a>
</g>
</g>
<!-- Node17 -->
<g id="Node000017" class="node">
<title>Node17</title>
<g id="a_Node000017"><a xlink:href="classediteurpanovisu_1_1GestionnaireInterfaceController.html#a81fc8be3be405d5f63ce263dec29d665" target="_top" xlink:title=" ">
<polygon fill="white" stroke="#666666" points="618.38,-120 451.62,-120 451.62,-88 618.38,-88 618.38,-120"/>
<text xml:space="preserve" text-anchor="start" x="459.62" y="-106.5" font-family="Helvetica,sans-Serif" font-size="10.00">editeurpanovisu.Gestionnaire</text>
<text xml:space="preserve" text-anchor="middle" x="535" y="-94.5" font-family="Helvetica,sans-Serif" font-size="10.00">InterfaceController.getImagesFond</text>
</a>
</g>
</g>
<!-- Node3&#45;&gt;Node17 -->
<g id="edge16_Node000003_Node000017" class="edge">
<title>Node3&#45;&gt;Node17</title>
<g id="a_edge16_Node000003_Node000017"><a xlink:title=" ">
<path fill="none" stroke="#63b8ff" d="M308.1,-409.77C315.89,-353.61 344.31,-205.06 433.25,-129 435.9,-126.73 438.73,-124.66 441.7,-122.78"/>
<polygon fill="#63b8ff" stroke="#63b8ff" points="443.16,-125.97 450.23,-118.08 439.79,-119.83 443.16,-125.97"/>
</a>
</g>
</g>
<!-- Node18 -->
<g id="Node000018" class="node">
<title>Node18</title>
<g id="a_Node000018"><a xlink:href="classediteurpanovisu_1_1GestionnaireInterfaceController.html#a7b2d1d574b7036451a7d0189bf3af83d" target="_top" xlink:title=" ">
<polygon fill="white" stroke="#666666" points="636.75,-70 433.25,-70 433.25,-38 636.75,-38 636.75,-70"/>
<text xml:space="preserve" text-anchor="start" x="441.25" y="-56.5" font-family="Helvetica,sans-Serif" font-size="10.00">editeurpanovisu.Gestionnaire</text>
<text xml:space="preserve" text-anchor="middle" x="535" y="-44.5" font-family="Helvetica,sans-Serif" font-size="10.00">InterfaceController.getiNombreImagesFond</text>
</a>
</g>
</g>
<!-- Node3&#45;&gt;Node18 -->
<g id="edge17_Node000003_Node000018" class="edge">
<title>Node3&#45;&gt;Node18</title>
<g id="a_edge17_Node000003_Node000018"><a xlink:title=" ">
<path fill="none" stroke="#63b8ff" d="M306.6,-409.89C310.94,-347.76 332.06,-170.18 433.25,-79 434.04,-78.29 434.85,-77.59 435.67,-76.92"/>
<polygon fill="#63b8ff" stroke="#63b8ff" points="437.59,-79.85 443.81,-71.27 433.6,-74.1 437.59,-79.85"/>
</a>
</g>
</g>
<!-- Node19 -->
<g id="Node000019" class="node">
<title>Node19</title>
<g id="a_Node000019"><a xlink:href="leaflet_8js.html#a2ab7046ae25351b998b61260f82cabe8" target="_top" xlink:title=" ">
<polygon fill="white" stroke="#666666" points="549.4,-20 520.6,-20 520.6,0 549.4,0 549.4,-20"/>
<text xml:space="preserve" text-anchor="middle" x="535" y="-6.5" font-family="Helvetica,sans-Serif" font-size="10.00">ii</text>
</a>
</g>
</g>
<!-- Node3&#45;&gt;Node19 -->
<g id="edge19_Node000003_Node000019" class="edge">
<title>Node3&#45;&gt;Node19</title>
<g id="a_edge19_Node000003_Node000019"><a xlink:title=" ">
<path fill="none" stroke="#63b8ff" d="M305.2,-409.52C305.61,-340.85 316.79,-132.2 433.25,-29 453.93,-10.67 486.58,-7.59 509.08,-8"/>
<polygon fill="#63b8ff" stroke="#63b8ff" points="508.73,-11.48 518.88,-8.44 509.05,-4.49 508.73,-11.48"/>
</a>
</g>
</g>
</g>
</svg>
