<?xml version="1.0" encoding="UTF-8" standalone="no"?>
<!DOCTYPE svg PUBLIC "-//W3C//DTD SVG 1.1//EN"
 "http://www.w3.org/Graphics/SVG/1.1/DTD/svg11.dtd">
<!-- Generated by graphviz version 13.1.2 (20250808.2320)
 -->
<!-- Title: editeurpanovisu.EditeurPanovisu.getStrRepertoireProjet Pages: 1 -->
<svg width="1541pt" height="605pt"
 viewBox="0.00 0.00 1541.00 605.00" xmlns="http://www.w3.org/2000/svg" xmlns:xlink="http://www.w3.org/1999/xlink">
<g id="graph0" class="graph" transform="scale(1 1) rotate(0) translate(4 601.19)">
<title>editeurpanovisu.EditeurPanovisu.getStrRepertoireProjet</title>
<!-- Node1 -->
<g id="Node000001" class="node">
<title>Node1</title>
<g id="a_Node000001"><a xlink:title=" ">
<polygon fill="#999999" stroke="#666666" points="1533.25,-430.71 1358.25,-430.71 1358.25,-398.71 1533.25,-398.71 1533.25,-430.71"/>
<text xml:space="preserve" text-anchor="start" x="1366.25" y="-417.21" font-family="Helvetica,sans-Serif" font-size="10.00">editeurpanovisu.EditeurPanovisu.get</text>
<text xml:space="preserve" text-anchor="middle" x="1445.75" y="-405.21" font-family="Helvetica,sans-Serif" font-size="10.00">StrRepertoireProjet</text>
</a>
</g>
</g>
<!-- Node2 -->
<g id="Node000002" class="node">
<title>Node2</title>
<g id="a_Node000002"><a xlink:href="classediteurpanovisu_1_1ConfigDialogController.html#a228e9366c0d6a335d6bb5e6b8a09ef78" target="_top" xlink:title=" ">
<polygon fill="white" stroke="#666666" points="1301.25,-553.71 1157.75,-553.71 1157.75,-521.71 1301.25,-521.71 1301.25,-553.71"/>
<text xml:space="preserve" text-anchor="start" x="1165.75" y="-540.21" font-family="Helvetica,sans-Serif" font-size="10.00">editeurpanovisu.ConfigDialog</text>
<text xml:space="preserve" text-anchor="middle" x="1229.5" y="-528.21" font-family="Helvetica,sans-Serif" font-size="10.00">Controller.afficheFenetre</text>
</a>
</g>
</g>
<!-- Node1&#45;&gt;Node2 -->
<g id="edge1_Node000001_Node000002" class="edge">
<title>Node1&#45;&gt;Node2</title>
<g id="a_edge1_Node000001_Node000002"><a xlink:title=" ">
<path fill="none" stroke="#63b8ff" d="M1418.98,-438.39C1395.32,-459.08 1358.53,-488.7 1322.25,-507.71 1312.3,-512.93 1301.28,-517.46 1290.42,-521.33"/>
<polygon fill="#63b8ff" stroke="#63b8ff" points="1421.08,-441.2 1426.24,-431.95 1416.44,-435.97 1421.08,-441.2"/>
</a>
</g>
</g>
<!-- Node5 -->
<g id="Node000005" class="node">
<title>Node5</title>
<g id="a_Node000005"><a xlink:href="classediteurpanovisu_1_1EditeurPanovisu.html#a94e36b9e9d09ab1a4c852b8a8cefa927" target="_top" xlink:title=" ">
<polygon fill="white" stroke="#666666" points="647.25,-414.71 456.5,-414.71 456.5,-382.71 647.25,-382.71 647.25,-414.71"/>
<text xml:space="preserve" text-anchor="start" x="464.5" y="-401.21" font-family="Helvetica,sans-Serif" font-size="10.00">editeurpanovisu.EditeurPanovisu.genere</text>
<text xml:space="preserve" text-anchor="middle" x="551.88" y="-389.21" font-family="Helvetica,sans-Serif" font-size="10.00">Visite</text>
</a>
</g>
</g>
<!-- Node1&#45;&gt;Node5 -->
<g id="edge4_Node000001_Node000005" class="edge">
<title>Node1&#45;&gt;Node5</title>
<g id="a_edge4_Node000001_Node000005"><a xlink:title=" ">
<path fill="none" stroke="#63b8ff" d="M1346.71,-428.24C1200.93,-445.8 918.92,-469.96 683.25,-431.71 666.6,-429.01 663.5,-424.22 647.25,-419.71 641.67,-418.17 635.88,-416.66 630.04,-415.2"/>
<polygon fill="#63b8ff" stroke="#63b8ff" points="1346.81,-431.75 1356.32,-427.07 1345.96,-424.81 1346.81,-431.75"/>
</a>
</g>
</g>
<!-- Node6 -->
<g id="Node000006" class="node">
<title>Node6</title>
<g id="a_Node000006"><a xlink:href="classediteurpanovisu_1_1EditeurPanovisu.html#adf3136c7d8546e073ebf626494bd9b58" target="_top" xlink:title=" ">
<polygon fill="white" stroke="#666666" points="404,-496.71 232.75,-496.71 232.75,-464.71 404,-464.71 404,-496.71"/>
<text xml:space="preserve" text-anchor="start" x="240.75" y="-483.21" font-family="Helvetica,sans-Serif" font-size="10.00">editeurpanovisu.EditeurPanovisu.lis</text>
<text xml:space="preserve" text-anchor="middle" x="318.38" y="-471.21" font-family="Helvetica,sans-Serif" font-size="10.00">FichierConfig</text>
</a>
</g>
</g>
<!-- Node1&#45;&gt;Node6 -->
<g id="edge6_Node000001_Node000006" class="edge">
<title>Node1&#45;&gt;Node6</title>
<g id="a_edge6_Node000001_Node000006"><a xlink:title=" ">
<path fill="none" stroke="#63b8ff" d="M1431.9,-440.83C1413.18,-475.66 1374.81,-536.03 1322.25,-562.71 1196.84,-626.38 1147.02,-581.71 1006.38,-581.71 1006.38,-581.71 1006.38,-581.71 777.62,-581.71 622.43,-581.71 444.46,-525.79 363.54,-497.17"/>
<polygon fill="#63b8ff" stroke="#63b8ff" points="1434.86,-442.73 1436.38,-432.25 1428.65,-439.5 1434.86,-442.73"/>
</a>
</g>
</g>
<!-- Node7 -->
<g id="Node000007" class="node">
<title>Node7</title>
<g id="a_Node000007"><a xlink:href="classediteurpanovisu_1_1EditeurPanovisu.html#ab4beb1597b660a4a253befc6e76f1c54" target="_top" xlink:title=" ">
<polygon fill="white" stroke="#666666" points="644.62,-137.71 459.12,-137.71 459.12,-105.71 644.62,-105.71 644.62,-137.71"/>
<text xml:space="preserve" text-anchor="start" x="467.12" y="-124.21" font-family="Helvetica,sans-Serif" font-size="10.00">editeurpanovisu.EditeurPanovisu.projet</text>
<text xml:space="preserve" text-anchor="middle" x="551.88" y="-112.21" font-family="Helvetica,sans-Serif" font-size="10.00">Charge</text>
</a>
</g>
</g>
<!-- Node1&#45;&gt;Node7 -->
<g id="edge8_Node000001_Node000007" class="edge">
<title>Node1&#45;&gt;Node7</title>
<g id="a_edge8_Node000001_Node000007"><a xlink:title=" ">
<path fill="none" stroke="#63b8ff" d="M1427.88,-388.78C1383.71,-323.66 1257.21,-154.39 1100.75,-96.71 926.65,-32.53 867.97,-79.16 683.25,-96.71 664.44,-98.5 644.3,-101.71 625.62,-105.24"/>
<polygon fill="#63b8ff" stroke="#63b8ff" points="1424.94,-390.68 1433.41,-397.04 1430.76,-386.78 1424.94,-390.68"/>
</a>
</g>
</g>
<!-- Node8 -->
<g id="Node000008" class="node">
<title>Node8</title>
<g id="a_Node000008"><a xlink:href="classediteurpanovisu_1_1EditeurPanovisu.html#a9f3ea25b35d4884524508dab3dc4fd6a" target="_top" xlink:title=" ">
<polygon fill="white" stroke="#666666" points="1322.25,-326.71 1136.75,-326.71 1136.75,-294.71 1322.25,-294.71 1322.25,-326.71"/>
<text xml:space="preserve" text-anchor="start" x="1144.75" y="-313.21" font-family="Helvetica,sans-Serif" font-size="10.00">editeurpanovisu.EditeurPanovisu.projet</text>
<text xml:space="preserve" text-anchor="middle" x="1229.5" y="-301.21" font-family="Helvetica,sans-Serif" font-size="10.00">Sauve</text>
</a>
</g>
</g>
<!-- Node1&#45;&gt;Node8 -->
<g id="edge10_Node000001_Node000008" class="edge">
<title>Node1&#45;&gt;Node8</title>
<g id="a_edge10_Node000001_Node000008"><a xlink:title=" ">
<path fill="none" stroke="#63b8ff" d="M1400.69,-393.32C1360.23,-373.69 1301.13,-345 1264.29,-327.12"/>
<polygon fill="#63b8ff" stroke="#63b8ff" points="1398.92,-396.36 1409.44,-397.57 1401.97,-390.06 1398.92,-396.36"/>
</a>
</g>
</g>
<!-- Node11 -->
<g id="Node000011" class="node">
<title>Node11</title>
<g id="a_Node000011"><a xlink:href="classediteurpanovisu_1_1EditeurPanovisu.html#a7b2e25dc717eb52b62e23d54ec4c124a" target="_top" xlink:title=" ">
<polygon fill="white" stroke="#666666" points="644.62,-87.71 459.12,-87.71 459.12,-55.71 644.62,-55.71 644.62,-87.71"/>
<text xml:space="preserve" text-anchor="start" x="467.12" y="-74.21" font-family="Helvetica,sans-Serif" font-size="10.00">editeurpanovisu.EditeurPanovisu.projet</text>
<text xml:space="preserve" text-anchor="middle" x="551.88" y="-62.21" font-family="Helvetica,sans-Serif" font-size="10.00">SauveSous</text>
</a>
</g>
</g>
<!-- Node1&#45;&gt;Node11 -->
<g id="edge30_Node000001_Node000011" class="edge">
<title>Node1&#45;&gt;Node11</title>
<g id="a_edge30_Node000001_Node000011"><a xlink:title=" ">
<path fill="none" stroke="#63b8ff" d="M1442.12,-387.28C1434.84,-327.19 1408.82,-183.44 1322.25,-109.71 1112,69.34 740.33,-15.74 604.46,-55.34"/>
<polygon fill="#63b8ff" stroke="#63b8ff" points="1438.61,-387.41 1443.21,-396.96 1445.57,-386.63 1438.61,-387.41"/>
</a>
</g>
</g>
<!-- Node3 -->
<g id="Node000003" class="node">
<title>Node3</title>
<g id="a_Node000003"><a xlink:href="classediteurpanovisu_1_1EditeurPanovisu.html#ac912b80c1f2ac97def60ff005c5c480b" target="_top" xlink:title=" ">
<polygon fill="white" stroke="#666666" points="420.5,-345.71 216.25,-345.71 216.25,-325.71 420.5,-325.71 420.5,-345.71"/>
<text xml:space="preserve" text-anchor="middle" x="318.38" y="-332.21" font-family="Helvetica,sans-Serif" font-size="10.00">editeurpanovisu.EditeurPanovisu.creeMenu</text>
</a>
</g>
</g>
<!-- Node2&#45;&gt;Node3 -->
<g id="edge2_Node000002_Node000003" class="edge">
<title>Node2&#45;&gt;Node3</title>
<g id="a_edge2_Node000002_Node000003"><a xlink:title=" ">
<path fill="none" stroke="#63b8ff" d="M1146.01,-550.37C997.63,-568.9 680.34,-588.98 456.5,-464.71 398.49,-432.51 346.26,-370.26 327.11,-345.87"/>
<polygon fill="#63b8ff" stroke="#63b8ff" points="1146.29,-553.86 1155.76,-549.11 1145.4,-546.92 1146.29,-553.86"/>
</a>
</g>
</g>
<!-- Node4 -->
<g id="Node000004" class="node">
<title>Node4</title>
<g id="a_Node000004"><a xlink:href="classediteurpanovisu_1_1EditeurPanovisu.html#a86c393eee88f54c694db994ddd85b90d" target="_top" xlink:title=" ">
<polygon fill="white" stroke="#666666" points="180.25,-373.71 0,-373.71 0,-341.71 180.25,-341.71 180.25,-373.71"/>
<text xml:space="preserve" text-anchor="start" x="8" y="-360.21" font-family="Helvetica,sans-Serif" font-size="10.00">editeurpanovisu.EditeurPanovisu.cree</text>
<text xml:space="preserve" text-anchor="middle" x="90.12" y="-348.21" font-family="Helvetica,sans-Serif" font-size="10.00">Environnement</text>
</a>
</g>
</g>
<!-- Node3&#45;&gt;Node4 -->
<g id="edge3_Node000003_Node000004" class="edge">
<title>Node3&#45;&gt;Node4</title>
<g id="a_edge3_Node000003_Node000004"><a xlink:title=" ">
<path fill="none" stroke="#63b8ff" d="M204.51,-346.69C196.49,-347.47 188.46,-348.25 180.6,-349.01"/>
<polygon fill="#63b8ff" stroke="#63b8ff" points="204.71,-350.19 214.33,-345.73 204.03,-343.22 204.71,-350.19"/>
</a>
</g>
</g>
<!-- Node5&#45;&gt;Node3 -->
<g id="edge5_Node000005_Node000003" class="edge">
<title>Node5&#45;&gt;Node3</title>
<g id="a_edge5_Node000005_Node000003"><a xlink:title=" ">
<path fill="none" stroke="#63b8ff" d="M479.28,-379.23C439.18,-368.32 390.76,-355.14 357.78,-346.17"/>
<polygon fill="#63b8ff" stroke="#63b8ff" points="478.32,-382.6 488.89,-381.85 480.16,-375.84 478.32,-382.6"/>
</a>
</g>
</g>
<!-- Node6&#45;&gt;Node4 -->
<g id="edge7_Node000006_Node000004" class="edge">
<title>Node6&#45;&gt;Node4</title>
<g id="a_edge7_Node000006_Node000004"><a xlink:title=" ">
<path fill="none" stroke="#63b8ff" d="M277.41,-458.99C232.77,-434.72 161.5,-395.98 121.29,-374.11"/>
<polygon fill="#63b8ff" stroke="#63b8ff" points="275.54,-461.96 286,-463.66 278.89,-455.81 275.54,-461.96"/>
</a>
</g>
</g>
<!-- Node7&#45;&gt;Node3 -->
<g id="edge9_Node000007_Node000003" class="edge">
<title>Node7&#45;&gt;Node3</title>
<g id="a_edge9_Node000007_Node000003"><a xlink:title=" ">
<path fill="none" stroke="#63b8ff" d="M471.27,-142.87C466.09,-145.5 461.11,-148.43 456.5,-151.71 387.71,-200.72 338.82,-294.75 324.04,-325.62"/>
<polygon fill="#63b8ff" stroke="#63b8ff" points="472.44,-146.19 480.07,-138.84 469.52,-139.83 472.44,-146.19"/>
</a>
</g>
</g>
<!-- Node8&#45;&gt;Node3 -->
<g id="edge11_Node000008_Node000003" class="edge">
<title>Node8&#45;&gt;Node3</title>
<g id="a_edge11_Node000008_Node000003"><a xlink:title=" ">
<path fill="none" stroke="#63b8ff" d="M1186.12,-289.51C1161.8,-278.54 1130.31,-266.29 1100.75,-260.71 816.18,-207.01 465.65,-294.14 354.74,-325.3"/>
<polygon fill="#63b8ff" stroke="#63b8ff" points="1184.5,-292.62 1195.04,-293.64 1187.44,-286.27 1184.5,-292.62"/>
</a>
</g>
</g>
<!-- Node8&#45;&gt;Node5 -->
<g id="edge12_Node000008_Node000005" class="edge">
<title>Node8&#45;&gt;Node5</title>
<g id="a_edge12_Node000008_Node000005"><a xlink:title=" ">
<path fill="none" stroke="#63b8ff" d="M1198.13,-333.77C1173.36,-351.18 1136.71,-373.85 1100.75,-384.71 947.27,-431.07 758.48,-422.47 647.35,-411.17"/>
<polygon fill="#63b8ff" stroke="#63b8ff" points="1200.03,-336.72 1206.11,-328.04 1195.94,-331.03 1200.03,-336.72"/>
</a>
</g>
</g>
<!-- Node8&#45;&gt;Node7 -->
<g id="edge13_Node000008_Node000007" class="edge">
<title>Node8&#45;&gt;Node7</title>
<g id="a_edge13_Node000008_Node000007"><a xlink:title=" ">
<path fill="none" stroke="#63b8ff" d="M1199.78,-287.39C1175,-268.46 1137.5,-242.55 1100.75,-227.71 1098.06,-226.63 792.02,-167.7 638.57,-138.19"/>
<polygon fill="#63b8ff" stroke="#63b8ff" points="1197.39,-289.96 1207.43,-293.34 1201.69,-284.44 1197.39,-289.96"/>
</a>
</g>
</g>
<!-- Node9 -->
<g id="Node000009" class="node">
<title>Node9</title>
<g id="a_Node000009"><a xlink:href="classediteurpanovisu_1_1EditeurPanovisu.html#a6d19b4d885ee6fcec827b91956295732" target="_top" xlink:title=" ">
<polygon fill="white" stroke="#666666" points="1098.12,-175.71 912.62,-175.71 912.62,-143.71 1098.12,-143.71 1098.12,-175.71"/>
<text xml:space="preserve" text-anchor="start" x="920.62" y="-162.21" font-family="Helvetica,sans-Serif" font-size="10.00">editeurpanovisu.EditeurPanovisu.projet</text>
<text xml:space="preserve" text-anchor="middle" x="1005.38" y="-150.21" font-family="Helvetica,sans-Serif" font-size="10.00">ChargeNom</text>
</a>
</g>
</g>
<!-- Node8&#45;&gt;Node9 -->
<g id="edge14_Node000008_Node000009" class="edge">
<title>Node8&#45;&gt;Node9</title>
<g id="a_edge14_Node000008_Node000009"><a xlink:title=" ">
<path fill="none" stroke="#63b8ff" d="M1208.52,-286.02C1185.28,-258.82 1144.48,-215.51 1100.75,-189.71 1091.72,-184.38 1081.63,-179.89 1071.51,-176.14"/>
<polygon fill="#63b8ff" stroke="#63b8ff" points="1205.62,-288.01 1214.73,-293.42 1210.98,-283.51 1205.62,-288.01"/>
</a>
</g>
</g>
<!-- Node12 -->
<g id="Node000012" class="node">
<title>Node12</title>
<g id="a_Node000012"><a xlink:href="classediteurpanovisu_1_1EditeurPanovisu.html#a9b46b222714af12c06ec33d410400773" target="_top" xlink:title=" ">
<polygon fill="white" stroke="#666666" points="874,-515.71 683.25,-515.71 683.25,-483.71 874,-483.71 874,-515.71"/>
<text xml:space="preserve" text-anchor="start" x="691.25" y="-502.21" font-family="Helvetica,sans-Serif" font-size="10.00">editeurpanovisu.EditeurPanovisu.projets</text>
<text xml:space="preserve" text-anchor="middle" x="778.62" y="-490.21" font-family="Helvetica,sans-Serif" font-size="10.00">Fermer</text>
</a>
</g>
</g>
<!-- Node8&#45;&gt;Node12 -->
<g id="edge22_Node000008_Node000012" class="edge">
<title>Node8&#45;&gt;Node12</title>
<g id="a_edge22_Node000008_Node000012"><a xlink:title=" ">
<path fill="none" stroke="#63b8ff" d="M1209.34,-335.77C1186.57,-363.67 1145.95,-407.98 1100.75,-431.71 1030.11,-468.8 940.69,-485.66 874.16,-493.33"/>
<polygon fill="#63b8ff" stroke="#63b8ff" points="1211.9,-338.16 1215.41,-328.17 1206.43,-333.79 1211.9,-338.16"/>
</a>
</g>
</g>
<!-- Node13 -->
<g id="Node000013" class="node">
<title>Node13</title>
<g id="a_Node000013"><a xlink:href="classediteurpanovisu_1_1EditeurPanovisu.html#ac9d449399ccd38843fa12e716f0c9611" target="_top" xlink:title=" ">
<polygon fill="white" stroke="#666666" points="1100.75,-351.71 910,-351.71 910,-319.71 1100.75,-319.71 1100.75,-351.71"/>
<text xml:space="preserve" text-anchor="start" x="918" y="-338.21" font-family="Helvetica,sans-Serif" font-size="10.00">editeurpanovisu.EditeurPanovisu.projets</text>
<text xml:space="preserve" text-anchor="middle" x="1005.38" y="-326.21" font-family="Helvetica,sans-Serif" font-size="10.00">Nouveau</text>
</a>
</g>
</g>
<!-- Node8&#45;&gt;Node13 -->
<g id="edge24_Node000008_Node000013" class="edge">
<title>Node8&#45;&gt;Node13</title>
<g id="a_edge24_Node000008_Node000013"><a xlink:title=" ">
<path fill="none" stroke="#63b8ff" d="M1125.24,-322.34C1117.2,-323.24 1109.11,-324.15 1101.13,-325.05"/>
<polygon fill="#63b8ff" stroke="#63b8ff" points="1125.5,-325.83 1135.05,-321.23 1124.72,-318.87 1125.5,-325.83"/>
</a>
</g>
</g>
<!-- Node14 -->
<g id="Node000014" class="node">
<title>Node14</title>
<g id="a_Node000014"><a xlink:href="classediteurpanovisu_1_1EditeurPanovisu.html#a2b3125ffe2e6291efacf19df6cb30a8d" target="_top" xlink:title=" ">
<polygon fill="white" stroke="#666666" points="869.12,-389.71 688.12,-389.71 688.12,-369.71 869.12,-369.71 869.12,-389.71"/>
<text xml:space="preserve" text-anchor="middle" x="778.62" y="-376.21" font-family="Helvetica,sans-Serif" font-size="10.00">editeurpanovisu.EditeurPanovisu.start</text>
</a>
</g>
</g>
<!-- Node8&#45;&gt;Node14 -->
<g id="edge29_Node000008_Node000014" class="edge">
<title>Node8&#45;&gt;Node14</title>
<g id="a_edge29_Node000008_Node000014"><a xlink:title=" ">
<path fill="none" stroke="#63b8ff" d="M1184.72,-331.8C1160.54,-342.43 1129.63,-354.38 1100.75,-360.71 1023.97,-377.57 934.55,-381.63 869.59,-381.88"/>
<polygon fill="#63b8ff" stroke="#63b8ff" points="1185.91,-335.1 1193.6,-327.81 1183.04,-328.72 1185.91,-335.1"/>
</a>
</g>
</g>
<!-- Node15 -->
<g id="Node000015" class="node">
<title>Node15</title>
<g id="a_Node000015"><a xlink:href="classediteurpanovisu_1_1EditeurPanovisu.html#aef8c9b28c3e88d6e27e3f62b9a901134" target="_top" xlink:title=" ">
<polygon fill="white" stroke="#666666" points="1099.25,-301.71 911.5,-301.71 911.5,-269.71 1099.25,-269.71 1099.25,-301.71"/>
<text xml:space="preserve" text-anchor="start" x="919.5" y="-288.21" font-family="Helvetica,sans-Serif" font-size="10.00">editeurpanovisu.EditeurPanovisu.sauve</text>
<text xml:space="preserve" text-anchor="middle" x="1005.38" y="-276.21" font-family="Helvetica,sans-Serif" font-size="10.00">Fichiers</text>
</a>
</g>
</g>
<!-- Node8&#45;&gt;Node15 -->
<g id="edge28_Node000008_Node000015" class="edge">
<title>Node8&#45;&gt;Node15</title>
<g id="a_edge28_Node000008_Node000015"><a xlink:title=" ">
<path fill="none" stroke="#63b8ff" d="M1125.35,-299.1C1116.79,-298.14 1108.17,-297.17 1099.69,-296.22"/>
<polygon fill="#63b8ff" stroke="#63b8ff" points="1124.72,-302.56 1135.05,-300.2 1125.5,-295.6 1124.72,-302.56"/>
</a>
</g>
</g>
<!-- Node9&#45;&gt;Node3 -->
<g id="edge21_Node000009_Node000003" class="edge">
<title>Node9&#45;&gt;Node3</title>
<g id="a_edge21_Node000009_Node000003"><a xlink:title=" ">
<path fill="none" stroke="#63b8ff" d="M900.9,-156.3C787.5,-156.19 602.31,-166.87 456.5,-227.71 400.85,-250.94 348.86,-303.32 328.46,-325.49"/>
<polygon fill="#63b8ff" stroke="#63b8ff" points="900.8,-159.8 910.81,-156.34 900.83,-152.8 900.8,-159.8"/>
</a>
</g>
</g>
<!-- Node10 -->
<g id="Node000010" class="node">
<title>Node10</title>
<g id="a_Node000010"><a xlink:href="classediteurpanovisu_1_1EditeurPanovisu.html#af0d1c32bb78acbff561c822a0d15f760" target="_top" xlink:title=" ">
<polygon fill="white" stroke="#666666" points="872.5,-137.71 684.75,-137.71 684.75,-105.71 872.5,-105.71 872.5,-137.71"/>
<text xml:space="preserve" text-anchor="start" x="692.75" y="-124.21" font-family="Helvetica,sans-Serif" font-size="10.00">editeurpanovisu.EditeurPanovisu.ajoute</text>
<text xml:space="preserve" text-anchor="middle" x="778.62" y="-112.21" font-family="Helvetica,sans-Serif" font-size="10.00">FichierHisto</text>
</a>
</g>
</g>
<!-- Node9&#45;&gt;Node10 -->
<g id="edge15_Node000009_Node000010" class="edge">
<title>Node9&#45;&gt;Node10</title>
<g id="a_edge15_Node000009_Node000010"><a xlink:title=" ">
<path fill="none" stroke="#63b8ff" d="M931.77,-141.08C912.92,-137.51 892.35,-133.93 872.6,-130.77"/>
<polygon fill="#63b8ff" stroke="#63b8ff" points="930.99,-144.49 941.47,-142.95 932.32,-137.62 930.99,-144.49"/>
</a>
</g>
</g>
<!-- Node10&#45;&gt;Node7 -->
<g id="edge16_Node000010_Node000007" class="edge">
<title>Node10&#45;&gt;Node7</title>
<g id="a_edge16_Node000010_Node000007"><a xlink:title=" ">
<path fill="none" stroke="#63b8ff" d="M672.9,-121.71C663.54,-121.71 654.1,-121.71 644.86,-121.71"/>
<polygon fill="#63b8ff" stroke="#63b8ff" points="672.75,-125.21 682.75,-121.71 672.75,-118.21 672.75,-125.21"/>
</a>
</g>
</g>
<!-- Node10&#45;&gt;Node8 -->
<g id="edge18_Node000010_Node000008" class="edge">
<title>Node10&#45;&gt;Node8</title>
<g id="a_edge18_Node000010_Node000008"><a xlink:title=" ">
<path fill="none" stroke="#63b8ff" d="M880.88,-104.01C947.25,-97.46 1033.79,-98.85 1100.75,-134.71 1167.32,-170.37 1207.85,-257.73 1222.39,-294.25"/>
<polygon fill="#63b8ff" stroke="#63b8ff" points="880.64,-100.51 871.07,-105.06 881.39,-107.47 880.64,-100.51"/>
</a>
</g>
</g>
<!-- Node10&#45;&gt;Node9 -->
<g id="edge17_Node000010_Node000009" class="edge">
<title>Node10&#45;&gt;Node9</title>
<g id="a_edge17_Node000010_Node000009"><a xlink:title=" ">
<path fill="none" stroke="#63b8ff" d="M852.11,-140.33C871.29,-143.96 892.25,-147.6 912.31,-150.8"/>
<polygon fill="#63b8ff" stroke="#63b8ff" points="853.01,-136.94 842.53,-138.48 851.69,-143.81 853.01,-136.94"/>
</a>
</g>
</g>
<!-- Node10&#45;&gt;Node11 -->
<g id="edge19_Node000010_Node000011" class="edge">
<title>Node10&#45;&gt;Node11</title>
<g id="a_edge19_Node000010_Node000011"><a xlink:title=" ">
<path fill="none" stroke="#63b8ff" d="M692.56,-102.79C670.92,-97.98 647.85,-92.84 626.82,-88.16"/>
<polygon fill="#63b8ff" stroke="#63b8ff" points="691.72,-106.19 702.24,-104.94 693.24,-99.36 691.72,-106.19"/>
</a>
</g>
</g>
<!-- Node11&#45;&gt;Node3 -->
<g id="edge20_Node000011_Node000003" class="edge">
<title>Node11&#45;&gt;Node3</title>
<g id="a_edge20_Node000011_Node000003"><a xlink:title=" ">
<path fill="none" stroke="#63b8ff" d="M460.65,-93.74C459.23,-94.69 457.84,-95.68 456.5,-96.71 373.95,-160.05 332.69,-288.28 322.15,-325.42"/>
<polygon fill="#63b8ff" stroke="#63b8ff" points="462.24,-96.87 469.13,-88.82 458.73,-90.81 462.24,-96.87"/>
</a>
</g>
</g>
<!-- Node12&#45;&gt;Node3 -->
<g id="edge23_Node000012_Node000003" class="edge">
<title>Node12&#45;&gt;Node3</title>
<g id="a_edge23_Node000012_Node000003"><a xlink:title=" ">
<path fill="none" stroke="#63b8ff" d="M671.61,-483.93C607.62,-472.15 525.4,-452.96 456.5,-423.71 407.03,-402.71 355.46,-364.41 332.15,-346.06"/>
<polygon fill="#63b8ff" stroke="#63b8ff" points="670.98,-487.38 681.45,-485.71 672.23,-480.49 670.98,-487.38"/>
</a>
</g>
</g>
<!-- Node13&#45;&gt;Node3 -->
<g id="edge25_Node000013_Node000003" class="edge">
<title>Node13&#45;&gt;Node3</title>
<g id="a_edge25_Node000013_Node000003"><a xlink:title=" ">
<path fill="none" stroke="#63b8ff" d="M898.7,-335.71C768.51,-335.71 548.9,-335.71 420.73,-335.71"/>
<polygon fill="#63b8ff" stroke="#63b8ff" points="898.33,-339.21 908.33,-335.71 898.33,-332.21 898.33,-339.21"/>
</a>
</g>
</g>
<!-- Node13&#45;&gt;Node14 -->
<g id="edge26_Node000013_Node000014" class="edge">
<title>Node13&#45;&gt;Node14</title>
<g id="a_edge26_Node000013_Node000014"><a xlink:title=" ">
<path fill="none" stroke="#63b8ff" d="M909.31,-354.32C883.31,-359.42 856.03,-364.76 833.24,-369.22"/>
<polygon fill="#63b8ff" stroke="#63b8ff" points="909.74,-357.81 918.88,-352.45 908.4,-350.94 909.74,-357.81"/>
</a>
</g>
</g>
<!-- Node14&#45;&gt;Node5 -->
<g id="edge27_Node000014_Node000005" class="edge">
<title>Node14&#45;&gt;Node5</title>
<g id="a_edge27_Node000014_Node000005"><a xlink:title=" ">
<path fill="none" stroke="#63b8ff" d="M676.6,-388.25C666.98,-389.07 657.24,-389.89 647.68,-390.7"/>
<polygon fill="#63b8ff" stroke="#63b8ff" points="676.65,-391.76 686.32,-387.43 676.06,-384.79 676.65,-391.76"/>
</a>
</g>
</g>
</g>
</svg>
