<?xml version="1.0" encoding="UTF-8" standalone="no"?>
<!DOCTYPE svg PUBLIC "-//W3C//DTD SVG 1.1//EN"
 "http://www.w3.org/Graphics/SVG/1.1/DTD/svg11.dtd">
<!-- Generated by graphviz version 13.1.2 (20250808.2320)
 -->
<!-- Title: editeurpanovisu.EditeurPanovisu.iCreeNiveauxImageCube Pages: 1 -->
<svg width="2442pt" height="422pt"
 viewBox="0.00 0.00 2442.00 422.00" xmlns="http://www.w3.org/2000/svg" xmlns:xlink="http://www.w3.org/1999/xlink">
<g id="graph0" class="graph" transform="scale(1 1) rotate(0) translate(4 418)">
<title>editeurpanovisu.EditeurPanovisu.iCreeNiveauxImageCube</title>
<!-- Node1 -->
<g id="Node000001" class="node">
<title>Node1</title>
<g id="a_Node000001"><a xlink:title=" ">
<polygon fill="#999999" stroke="#666666" points="2433.5,-180 2269.75,-180 2269.75,-148 2433.5,-148 2433.5,-180"/>
<text xml:space="preserve" text-anchor="start" x="2277.75" y="-166.5" font-family="Helvetica,sans-Serif" font-size="10.00">editeurpanovisu.EditeurPanovisu.i</text>
<text xml:space="preserve" text-anchor="middle" x="2351.62" y="-154.5" font-family="Helvetica,sans-Serif" font-size="10.00">CreeNiveauxImageCube</text>
</a>
</g>
</g>
<!-- Node2 -->
<g id="Node000002" class="node">
<title>Node2</title>
<g id="a_Node000002"><a xlink:href="classediteurpanovisu_1_1EditeurPanovisu.html#a50e220de3f9a12fde56a2f23e2f59cd2" target="_top" xlink:title=" ">
<polygon fill="white" stroke="#666666" points="2233.75,-180 2046,-180 2046,-148 2233.75,-148 2233.75,-180"/>
<text xml:space="preserve" text-anchor="start" x="2054" y="-166.5" font-family="Helvetica,sans-Serif" font-size="10.00">editeurpanovisu.EditeurPanovisu.ajoute</text>
<text xml:space="preserve" text-anchor="middle" x="2139.88" y="-154.5" font-family="Helvetica,sans-Serif" font-size="10.00">PanoramiqueProjet</text>
</a>
</g>
</g>
<!-- Node1&#45;&gt;Node2 -->
<g id="edge1_Node000001_Node000002" class="edge">
<title>Node1&#45;&gt;Node2</title>
<g id="a_edge1_Node000001_Node000002"><a xlink:title=" ">
<path fill="none" stroke="#63b8ff" d="M2258.23,-164C2250.18,-164 2242.03,-164 2233.98,-164"/>
<polygon fill="#63b8ff" stroke="#63b8ff" points="2258.02,-167.5 2268.02,-164 2258.02,-160.5 2258.02,-167.5"/>
</a>
</g>
</g>
<!-- Node2&#45;&gt;Node2 -->
<g id="edge2_Node000002_Node000002" class="edge">
<title>Node2&#45;&gt;Node2</title>
<g id="a_edge2_Node000002_Node000002"><a xlink:title=" ">
<path fill="none" stroke="#63b8ff" d="M2175.41,-191.54C2169.61,-195.41 2157.77,-198 2139.88,-198 2107.62,-198 2095.02,-189.58 2102.07,-180.44"/>
<polygon fill="#63b8ff" stroke="#63b8ff" points="2178.8,-192.42 2177.38,-181.93 2171.94,-191.02 2178.8,-192.42"/>
</a>
</g>
</g>
<!-- Node3 -->
<g id="Node000003" class="node">
<title>Node3</title>
<g id="a_Node000003"><a xlink:href="classediteurpanovisu_1_1EditeurPanovisu.html#a87b29dc258cfc67370b1f27809e91b8e" target="_top" xlink:title=" ">
<polygon fill="white" stroke="#666666" points="2010,-284 1835,-284 1835,-252 2010,-252 2010,-284"/>
<text xml:space="preserve" text-anchor="start" x="1843" y="-270.5" font-family="Helvetica,sans-Serif" font-size="10.00">editeurpanovisu.EditeurPanovisu.tsk</text>
<text xml:space="preserve" text-anchor="middle" x="1922.5" y="-258.5" font-family="Helvetica,sans-Serif" font-size="10.00">AnalyseFichierPVU</text>
</a>
</g>
</g>
<!-- Node2&#45;&gt;Node3 -->
<g id="edge3_Node000002_Node000003" class="edge">
<title>Node2&#45;&gt;Node3</title>
<g id="a_edge3_Node000002_Node000003"><a xlink:title=" ">
<path fill="none" stroke="#63b8ff" d="M2094.58,-185.39C2053.91,-205.03 1994.5,-233.71 1957.47,-251.6"/>
<polygon fill="#63b8ff" stroke="#63b8ff" points="2095.9,-188.64 2103.39,-181.14 2092.86,-182.33 2095.9,-188.64"/>
</a>
</g>
</g>
<!-- Node16 -->
<g id="Node000016" class="node">
<title>Node16</title>
<g id="a_Node000016"><a xlink:href="classediteurpanovisu_1_1EditeurPanovisu.html#a53cccf6a6b2693c872947460b66ae8ee" target="_top" xlink:title=" ">
<polygon fill="white" stroke="#666666" points="1348.5,-32 1173.5,-32 1173.5,0 1348.5,0 1348.5,-32"/>
<text xml:space="preserve" text-anchor="start" x="1181.5" y="-18.5" font-family="Helvetica,sans-Serif" font-size="10.00">editeurpanovisu.EditeurPanovisu.tsk</text>
<text xml:space="preserve" text-anchor="middle" x="1261" y="-6.5" font-family="Helvetica,sans-Serif" font-size="10.00">ChargeListeFichiers</text>
</a>
</g>
</g>
<!-- Node2&#45;&gt;Node16 -->
<g id="edge28_Node000002_Node000016" class="edge">
<title>Node2&#45;&gt;Node16</title>
<g id="a_edge28_Node000002_Node000016"><a xlink:title=" ">
<path fill="none" stroke="#63b8ff" d="M2061.69,-144.9C1953.94,-118.89 1751.99,-72.55 1577.5,-46 1500.53,-34.29 1412.26,-26.36 1348.69,-21.61"/>
<polygon fill="#63b8ff" stroke="#63b8ff" points="2060.76,-148.27 2071.3,-147.23 2062.41,-141.47 2060.76,-148.27"/>
</a>
</g>
</g>
<!-- Node4 -->
<g id="Node000004" class="node">
<title>Node4</title>
<g id="a_Node000004"><a xlink:href="classediteurpanovisu_1_1EditeurPanovisu.html#ab4beb1597b660a4a253befc6e76f1c54" target="_top" xlink:title=" ">
<polygon fill="white" stroke="#666666" points="1129.62,-372 944.12,-372 944.12,-340 1129.62,-340 1129.62,-372"/>
<text xml:space="preserve" text-anchor="start" x="952.12" y="-358.5" font-family="Helvetica,sans-Serif" font-size="10.00">editeurpanovisu.EditeurPanovisu.projet</text>
<text xml:space="preserve" text-anchor="middle" x="1036.88" y="-346.5" font-family="Helvetica,sans-Serif" font-size="10.00">Charge</text>
</a>
</g>
</g>
<!-- Node3&#45;&gt;Node4 -->
<g id="edge4_Node000003_Node000004" class="edge">
<title>Node3&#45;&gt;Node4</title>
<g id="a_edge4_Node000003_Node000004"><a xlink:title=" ">
<path fill="none" stroke="#63b8ff" d="M1835.7,-286.67C1823.42,-289 1810.91,-291.2 1799,-293 1559.25,-329.27 1273.63,-345.87 1130.02,-352.39"/>
<polygon fill="#63b8ff" stroke="#63b8ff" points="1836.26,-290.12 1845.41,-284.78 1834.92,-283.25 1836.26,-290.12"/>
</a>
</g>
</g>
<!-- Node7 -->
<g id="Node000007" class="node">
<title>Node7</title>
<g id="a_Node000007"><a xlink:href="classediteurpanovisu_1_1EditeurPanovisu.html#a6d19b4d885ee6fcec827b91956295732" target="_top" xlink:title=" ">
<polygon fill="white" stroke="#666666" points="1799,-284 1613.5,-284 1613.5,-252 1799,-252 1799,-284"/>
<text xml:space="preserve" text-anchor="start" x="1621.5" y="-270.5" font-family="Helvetica,sans-Serif" font-size="10.00">editeurpanovisu.EditeurPanovisu.projet</text>
<text xml:space="preserve" text-anchor="middle" x="1706.25" y="-258.5" font-family="Helvetica,sans-Serif" font-size="10.00">ChargeNom</text>
</a>
</g>
</g>
<!-- Node3&#45;&gt;Node7 -->
<g id="edge7_Node000003_Node000007" class="edge">
<title>Node3&#45;&gt;Node7</title>
<g id="a_edge7_Node000003_Node000007"><a xlink:title=" ">
<path fill="none" stroke="#63b8ff" d="M1823.16,-268C1815.26,-268 1807.3,-268 1799.45,-268"/>
<polygon fill="#63b8ff" stroke="#63b8ff" points="1823.15,-271.5 1833.15,-268 1823.15,-264.5 1823.15,-271.5"/>
</a>
</g>
</g>
<!-- Node5 -->
<g id="Node000005" class="node">
<title>Node5</title>
<g id="a_Node000005"><a xlink:href="classediteurpanovisu_1_1EditeurPanovisu.html#ac912b80c1f2ac97def60ff005c5c480b" target="_top" xlink:title=" ">
<polygon fill="white" stroke="#666666" points="420.5,-212 216.25,-212 216.25,-192 420.5,-192 420.5,-212"/>
<text xml:space="preserve" text-anchor="middle" x="318.38" y="-198.5" font-family="Helvetica,sans-Serif" font-size="10.00">editeurpanovisu.EditeurPanovisu.creeMenu</text>
</a>
</g>
</g>
<!-- Node4&#45;&gt;Node5 -->
<g id="edge5_Node000004_Node000005" class="edge">
<title>Node4&#45;&gt;Node5</title>
<g id="a_edge5_Node000004_Node000005"><a xlink:title=" ">
<path fill="none" stroke="#63b8ff" d="M932.46,-367.13C813.21,-375.86 613.45,-377.68 456.5,-315 398.92,-292 347.22,-235.46 327.67,-212.22"/>
<polygon fill="#63b8ff" stroke="#63b8ff" points="932.54,-370.64 942.24,-366.38 932,-363.66 932.54,-370.64"/>
</a>
</g>
</g>
<!-- Node6 -->
<g id="Node000006" class="node">
<title>Node6</title>
<g id="a_Node000006"><a xlink:href="classediteurpanovisu_1_1EditeurPanovisu.html#a86c393eee88f54c694db994ddd85b90d" target="_top" xlink:title=" ">
<polygon fill="white" stroke="#666666" points="180.25,-218 0,-218 0,-186 180.25,-186 180.25,-218"/>
<text xml:space="preserve" text-anchor="start" x="8" y="-204.5" font-family="Helvetica,sans-Serif" font-size="10.00">editeurpanovisu.EditeurPanovisu.cree</text>
<text xml:space="preserve" text-anchor="middle" x="90.12" y="-192.5" font-family="Helvetica,sans-Serif" font-size="10.00">Environnement</text>
</a>
</g>
</g>
<!-- Node5&#45;&gt;Node6 -->
<g id="edge6_Node000005_Node000006" class="edge">
<title>Node5&#45;&gt;Node6</title>
<g id="a_edge6_Node000005_Node000006"><a xlink:title=" ">
<path fill="none" stroke="#63b8ff" d="M204.51,-202C196.49,-202 188.46,-202 180.6,-202"/>
<polygon fill="#63b8ff" stroke="#63b8ff" points="204.32,-205.5 214.32,-202 204.32,-198.5 204.32,-205.5"/>
</a>
</g>
</g>
<!-- Node7&#45;&gt;Node5 -->
<g id="edge27_Node000007_Node000005" class="edge">
<title>Node7&#45;&gt;Node5</title>
<g id="a_edge27_Node000007_Node000005"><a xlink:title=" ">
<path fill="none" stroke="#63b8ff" d="M1677.8,-244.53C1611.25,-190.12 1434.11,-60 1262,-60 1262,-60 1262,-60 793.38,-60 641.22,-60 599.1,-67.92 456.5,-121 407.78,-139.13 356.67,-174.32 332.95,-191.73"/>
<polygon fill="#63b8ff" stroke="#63b8ff" points="1675.34,-247.03 1685.27,-250.71 1679.8,-241.64 1675.34,-247.03"/>
</a>
</g>
</g>
<!-- Node8 -->
<g id="Node000008" class="node">
<title>Node8</title>
<g id="a_Node000008"><a xlink:href="classediteurpanovisu_1_1EditeurPanovisu.html#af0d1c32bb78acbff561c822a0d15f760" target="_top" xlink:title=" ">
<polygon fill="white" stroke="#666666" points="1577.5,-306 1389.75,-306 1389.75,-274 1577.5,-274 1577.5,-306"/>
<text xml:space="preserve" text-anchor="start" x="1397.75" y="-292.5" font-family="Helvetica,sans-Serif" font-size="10.00">editeurpanovisu.EditeurPanovisu.ajoute</text>
<text xml:space="preserve" text-anchor="middle" x="1483.62" y="-280.5" font-family="Helvetica,sans-Serif" font-size="10.00">FichierHisto</text>
</a>
</g>
</g>
<!-- Node7&#45;&gt;Node8 -->
<g id="edge8_Node000007_Node000008" class="edge">
<title>Node7&#45;&gt;Node8</title>
<g id="a_edge8_Node000007_Node000008"><a xlink:title=" ">
<path fill="none" stroke="#63b8ff" d="M1601.97,-271.56C1593.92,-272.34 1585.83,-273.16 1577.86,-274.02"/>
<polygon fill="#63b8ff" stroke="#63b8ff" points="1602.14,-275.06 1611.78,-270.65 1601.49,-268.09 1602.14,-275.06"/>
</a>
</g>
</g>
<!-- Node8&#45;&gt;Node4 -->
<g id="edge9_Node000008_Node000004" class="edge">
<title>Node8&#45;&gt;Node4</title>
<g id="a_edge9_Node000008_Node000004"><a xlink:title=" ">
<path fill="none" stroke="#63b8ff" d="M1378.46,-305.46C1303.11,-316.64 1202.22,-331.61 1129.84,-342.35"/>
<polygon fill="#63b8ff" stroke="#63b8ff" points="1378.52,-308.99 1387.89,-304.06 1377.49,-302.06 1378.52,-308.99"/>
</a>
</g>
</g>
<!-- Node8&#45;&gt;Node7 -->
<g id="edge10_Node000008_Node000007" class="edge">
<title>Node8&#45;&gt;Node7</title>
<g id="a_edge10_Node000008_Node000007"><a xlink:title=" ">
<path fill="none" stroke="#63b8ff" d="M1589.19,-286.31C1597.24,-285.54 1605.33,-284.7 1613.28,-283.84"/>
<polygon fill="#63b8ff" stroke="#63b8ff" points="1589,-282.82 1579.37,-287.24 1589.65,-289.79 1589,-282.82"/>
</a>
</g>
</g>
<!-- Node9 -->
<g id="Node000009" class="node">
<title>Node9</title>
<g id="a_Node000009"><a xlink:href="classediteurpanovisu_1_1EditeurPanovisu.html#a9f3ea25b35d4884524508dab3dc4fd6a" target="_top" xlink:title=" ">
<polygon fill="white" stroke="#666666" points="1353.75,-262 1168.25,-262 1168.25,-230 1353.75,-230 1353.75,-262"/>
<text xml:space="preserve" text-anchor="start" x="1176.25" y="-248.5" font-family="Helvetica,sans-Serif" font-size="10.00">editeurpanovisu.EditeurPanovisu.projet</text>
<text xml:space="preserve" text-anchor="middle" x="1261" y="-236.5" font-family="Helvetica,sans-Serif" font-size="10.00">Sauve</text>
</a>
</g>
</g>
<!-- Node8&#45;&gt;Node9 -->
<g id="edge11_Node000008_Node000009" class="edge">
<title>Node8&#45;&gt;Node9</title>
<g id="a_edge11_Node000008_Node000009"><a xlink:title=" ">
<path fill="none" stroke="#63b8ff" d="M1389.01,-271.33C1374.29,-268.4 1359.18,-265.38 1344.73,-262.5"/>
<polygon fill="#63b8ff" stroke="#63b8ff" points="1388.18,-274.73 1398.67,-273.26 1389.55,-267.87 1388.18,-274.73"/>
</a>
</g>
</g>
<!-- Node15 -->
<g id="Node000015" class="node">
<title>Node15</title>
<g id="a_Node000015"><a xlink:href="classediteurpanovisu_1_1EditeurPanovisu.html#a7b2e25dc717eb52b62e23d54ec4c124a" target="_top" xlink:title=" ">
<polygon fill="white" stroke="#666666" points="887.12,-414 701.62,-414 701.62,-382 887.12,-382 887.12,-414"/>
<text xml:space="preserve" text-anchor="start" x="709.62" y="-400.5" font-family="Helvetica,sans-Serif" font-size="10.00">editeurpanovisu.EditeurPanovisu.projet</text>
<text xml:space="preserve" text-anchor="middle" x="794.38" y="-388.5" font-family="Helvetica,sans-Serif" font-size="10.00">SauveSous</text>
</a>
</g>
</g>
<!-- Node8&#45;&gt;Node15 -->
<g id="edge25_Node000008_Node000015" class="edge">
<title>Node8&#45;&gt;Node15</title>
<g id="a_edge25_Node000008_Node000015"><a xlink:title=" ">
<path fill="none" stroke="#63b8ff" d="M1432.08,-310.48C1408.54,-319.48 1380,-329.65 1353.75,-337 1257.1,-364.05 1231.86,-368.66 1132.25,-381 1049.87,-391.21 955.44,-395.32 887.55,-396.96"/>
<polygon fill="#63b8ff" stroke="#63b8ff" points="1433.04,-313.86 1441.1,-306.98 1430.51,-307.33 1433.04,-313.86"/>
</a>
</g>
</g>
<!-- Node9&#45;&gt;Node4 -->
<g id="edge15_Node000009_Node000004" class="edge">
<title>Node9&#45;&gt;Node4</title>
<g id="a_edge15_Node000009_Node000004"><a xlink:title=" ">
<path fill="none" stroke="#63b8ff" d="M1228.54,-268.85C1203.43,-286.29 1166.84,-309.98 1132.25,-326 1121.33,-331.06 1109.32,-335.59 1097.65,-339.51"/>
<polygon fill="#63b8ff" stroke="#63b8ff" points="1230.5,-271.75 1236.66,-263.13 1226.47,-266.02 1230.5,-271.75"/>
</a>
</g>
</g>
<!-- Node9&#45;&gt;Node5 -->
<g id="edge12_Node000009_Node000005" class="edge">
<title>Node9&#45;&gt;Node5</title>
<g id="a_edge12_Node000009_Node000005"><a xlink:title=" ">
<path fill="none" stroke="#63b8ff" d="M1156.69,-241.17C975.14,-232.68 601.1,-215.18 420.86,-206.75"/>
<polygon fill="#63b8ff" stroke="#63b8ff" points="1156.43,-244.66 1166.58,-241.63 1156.76,-237.67 1156.43,-244.66"/>
</a>
</g>
</g>
<!-- Node9&#45;&gt;Node7 -->
<g id="edge16_Node000009_Node000007" class="edge">
<title>Node9&#45;&gt;Node7</title>
<g id="a_edge16_Node000009_Node000007"><a xlink:title=" ">
<path fill="none" stroke="#63b8ff" d="M1365.33,-251.13C1440.33,-254.85 1540.88,-259.84 1613.14,-263.43"/>
<polygon fill="#63b8ff" stroke="#63b8ff" points="1365.67,-247.64 1355.5,-250.64 1365.32,-254.63 1365.67,-247.64"/>
</a>
</g>
</g>
<!-- Node10 -->
<g id="Node000010" class="node">
<title>Node10</title>
<g id="a_Node000010"><a xlink:href="classediteurpanovisu_1_1EditeurPanovisu.html#a94e36b9e9d09ab1a4c852b8a8cefa927" target="_top" xlink:title=" ">
<polygon fill="white" stroke="#666666" points="647.25,-196 456.5,-196 456.5,-164 647.25,-164 647.25,-196"/>
<text xml:space="preserve" text-anchor="start" x="464.5" y="-182.5" font-family="Helvetica,sans-Serif" font-size="10.00">editeurpanovisu.EditeurPanovisu.genere</text>
<text xml:space="preserve" text-anchor="middle" x="551.88" y="-170.5" font-family="Helvetica,sans-Serif" font-size="10.00">Visite</text>
</a>
</g>
</g>
<!-- Node9&#45;&gt;Node10 -->
<g id="edge13_Node000009_Node000010" class="edge">
<title>Node9&#45;&gt;Node10</title>
<g id="a_edge13_Node000009_Node000010"><a xlink:title=" ">
<path fill="none" stroke="#63b8ff" d="M1200.59,-226.29C1179.27,-220.01 1154.9,-213.73 1132.25,-210 963.18,-182.16 762.95,-178.07 647.64,-178.46"/>
<polygon fill="#63b8ff" stroke="#63b8ff" points="1199.41,-229.59 1209.99,-229.12 1201.43,-222.88 1199.41,-229.59"/>
</a>
</g>
</g>
<!-- Node11 -->
<g id="Node000011" class="node">
<title>Node11</title>
<g id="a_Node000011"><a xlink:href="classediteurpanovisu_1_1EditeurPanovisu.html#a9b46b222714af12c06ec33d410400773" target="_top" xlink:title=" ">
<polygon fill="white" stroke="#666666" points="647.25,-306 456.5,-306 456.5,-274 647.25,-274 647.25,-306"/>
<text xml:space="preserve" text-anchor="start" x="464.5" y="-292.5" font-family="Helvetica,sans-Serif" font-size="10.00">editeurpanovisu.EditeurPanovisu.projets</text>
<text xml:space="preserve" text-anchor="middle" x="551.88" y="-280.5" font-family="Helvetica,sans-Serif" font-size="10.00">Fermer</text>
</a>
</g>
</g>
<!-- Node9&#45;&gt;Node11 -->
<g id="edge17_Node000009_Node000011" class="edge">
<title>Node9&#45;&gt;Node11</title>
<g id="a_edge17_Node000009_Node000011"><a xlink:title=" ">
<path fill="none" stroke="#63b8ff" d="M1215.13,-266.93C1191.11,-276.98 1160.7,-287.93 1132.25,-293 963.65,-323.03 763.06,-311.79 647.59,-300.89"/>
<polygon fill="#63b8ff" stroke="#63b8ff" points="1216.49,-270.15 1224.29,-262.99 1213.72,-263.72 1216.49,-270.15"/>
</a>
</g>
</g>
<!-- Node12 -->
<g id="Node000012" class="node">
<title>Node12</title>
<g id="a_Node000012"><a xlink:href="classediteurpanovisu_1_1EditeurPanovisu.html#ac9d449399ccd38843fa12e716f0c9611" target="_top" xlink:title=" ">
<polygon fill="white" stroke="#666666" points="1132.25,-120 941.5,-120 941.5,-88 1132.25,-88 1132.25,-120"/>
<text xml:space="preserve" text-anchor="start" x="949.5" y="-106.5" font-family="Helvetica,sans-Serif" font-size="10.00">editeurpanovisu.EditeurPanovisu.projets</text>
<text xml:space="preserve" text-anchor="middle" x="1036.88" y="-94.5" font-family="Helvetica,sans-Serif" font-size="10.00">Nouveau</text>
</a>
</g>
</g>
<!-- Node9&#45;&gt;Node12 -->
<g id="edge19_Node000009_Node000012" class="edge">
<title>Node9&#45;&gt;Node12</title>
<g id="a_edge19_Node000009_Node000012"><a xlink:title=" ">
<path fill="none" stroke="#63b8ff" d="M1237.77,-221.24C1213.92,-196.05 1173.84,-157.47 1132.25,-134 1122.82,-128.68 1112.31,-124.16 1101.83,-120.37"/>
<polygon fill="#63b8ff" stroke="#63b8ff" points="1235.09,-223.51 1244.47,-228.44 1240.22,-218.74 1235.09,-223.51"/>
</a>
</g>
</g>
<!-- Node13 -->
<g id="Node000013" class="node">
<title>Node13</title>
<g id="a_Node000013"><a xlink:href="classediteurpanovisu_1_1EditeurPanovisu.html#a2b3125ffe2e6291efacf19df6cb30a8d" target="_top" xlink:title=" ">
<polygon fill="white" stroke="#666666" points="884.88,-158 703.88,-158 703.88,-138 884.88,-138 884.88,-158"/>
<text xml:space="preserve" text-anchor="middle" x="794.38" y="-144.5" font-family="Helvetica,sans-Serif" font-size="10.00">editeurpanovisu.EditeurPanovisu.start</text>
</a>
</g>
</g>
<!-- Node9&#45;&gt;Node13 -->
<g id="edge24_Node000009_Node000013" class="edge">
<title>Node9&#45;&gt;Node13</title>
<g id="a_edge24_Node000009_Node000013"><a xlink:title=" ">
<path fill="none" stroke="#63b8ff" d="M1229.6,-223.03C1204.82,-205.68 1168.16,-183.03 1132.25,-172 1051.26,-147.12 954.37,-142.68 885.33,-143.53"/>
<polygon fill="#63b8ff" stroke="#63b8ff" points="1227.41,-225.77 1237.58,-228.75 1231.49,-220.08 1227.41,-225.77"/>
</a>
</g>
</g>
<!-- Node14 -->
<g id="Node000014" class="node">
<title>Node14</title>
<g id="a_Node000014"><a xlink:href="classediteurpanovisu_1_1EditeurPanovisu.html#aef8c9b28c3e88d6e27e3f62b9a901134" target="_top" xlink:title=" ">
<polygon fill="white" stroke="#666666" points="1130.75,-284 943,-284 943,-252 1130.75,-252 1130.75,-284"/>
<text xml:space="preserve" text-anchor="start" x="951" y="-270.5" font-family="Helvetica,sans-Serif" font-size="10.00">editeurpanovisu.EditeurPanovisu.sauve</text>
<text xml:space="preserve" text-anchor="middle" x="1036.88" y="-258.5" font-family="Helvetica,sans-Serif" font-size="10.00">Fichiers</text>
</a>
</g>
</g>
<!-- Node9&#45;&gt;Node14 -->
<g id="edge23_Node000009_Node000014" class="edge">
<title>Node9&#45;&gt;Node14</title>
<g id="a_edge23_Node000009_Node000014"><a xlink:title=" ">
<path fill="none" stroke="#63b8ff" d="M1156.85,-256.22C1148.29,-257.06 1139.67,-257.92 1131.19,-258.76"/>
<polygon fill="#63b8ff" stroke="#63b8ff" points="1156.94,-259.72 1166.54,-255.26 1156.25,-252.76 1156.94,-259.72"/>
</a>
</g>
</g>
<!-- Node10&#45;&gt;Node5 -->
<g id="edge14_Node000010_Node000005" class="edge">
<title>Node10&#45;&gt;Node5</title>
<g id="a_edge14_Node000010_Node000005"><a xlink:title=" ">
<path fill="none" stroke="#63b8ff" d="M444.81,-190.08C436.83,-190.84 428.78,-191.6 420.83,-192.36"/>
<polygon fill="#63b8ff" stroke="#63b8ff" points="444.92,-193.59 454.54,-189.15 444.25,-186.62 444.92,-193.59"/>
</a>
</g>
</g>
<!-- Node11&#45;&gt;Node5 -->
<g id="edge18_Node000011_Node000005" class="edge">
<title>Node11&#45;&gt;Node5</title>
<g id="a_edge18_Node000011_Node000005"><a xlink:title=" ">
<path fill="none" stroke="#63b8ff" d="M496.99,-269.52C449.99,-251.65 383.7,-226.45 346.84,-212.44"/>
<polygon fill="#63b8ff" stroke="#63b8ff" points="495.6,-272.73 506.19,-273.01 498.08,-266.19 495.6,-272.73"/>
</a>
</g>
</g>
<!-- Node12&#45;&gt;Node5 -->
<g id="edge20_Node000012_Node000005" class="edge">
<title>Node12&#45;&gt;Node5</title>
<g id="a_edge20_Node000012_Node000005"><a xlink:title=" ">
<path fill="none" stroke="#63b8ff" d="M929.65,-104.84C812.45,-107.73 618.9,-118.31 456.5,-155 416.37,-164.07 371.56,-180.72 344.43,-191.58"/>
<polygon fill="#63b8ff" stroke="#63b8ff" points="929.67,-108.34 939.59,-104.61 929.51,-101.34 929.67,-108.34"/>
</a>
</g>
</g>
<!-- Node12&#45;&gt;Node13 -->
<g id="edge21_Node000012_Node000013" class="edge">
<title>Node12&#45;&gt;Node13</title>
<g id="a_edge21_Node000012_Node000013"><a xlink:title=" ">
<path fill="none" stroke="#63b8ff" d="M934.9,-122.47C906.84,-127.61 877.35,-133 852.75,-137.5"/>
<polygon fill="#63b8ff" stroke="#63b8ff" points="935.28,-125.96 944.49,-120.72 934.02,-119.08 935.28,-125.96"/>
</a>
</g>
</g>
<!-- Node13&#45;&gt;Node10 -->
<g id="edge22_Node000013_Node000010" class="edge">
<title>Node13&#45;&gt;Node10</title>
<g id="a_edge22_Node000013_Node000010"><a xlink:title=" ">
<path fill="none" stroke="#63b8ff" d="M703.45,-159.97C685.26,-162.39 666.08,-164.94 647.73,-167.38"/>
<polygon fill="#63b8ff" stroke="#63b8ff" points="703.68,-163.47 713.13,-158.68 702.75,-156.53 703.68,-163.47"/>
</a>
</g>
</g>
<!-- Node15&#45;&gt;Node5 -->
<g id="edge26_Node000015_Node000005" class="edge">
<title>Node15&#45;&gt;Node5</title>
<g id="a_edge26_Node000015_Node000005"><a xlink:title=" ">
<path fill="none" stroke="#63b8ff" d="M689.73,-408.4C619.96,-410.78 528.01,-404.64 456.5,-367 386.96,-330.39 338.9,-242.04 324.15,-212.11"/>
<polygon fill="#63b8ff" stroke="#63b8ff" points="689.81,-411.9 699.65,-407.99 689.52,-404.91 689.81,-411.9"/>
</a>
</g>
</g>
<!-- Node16&#45;&gt;Node12 -->
<g id="edge31_Node000016_Node000012" class="edge">
<title>Node16&#45;&gt;Node12</title>
<g id="a_edge31_Node000016_Node000012"><a xlink:title=" ">
<path fill="none" stroke="#63b8ff" d="M1207.8,-36.68C1168.55,-52.23 1115.51,-73.24 1079.19,-87.63"/>
<polygon fill="#63b8ff" stroke="#63b8ff" points="1209.07,-39.94 1217.07,-33.01 1206.49,-33.44 1209.07,-39.94"/>
</a>
</g>
</g>
<!-- Node17 -->
<g id="Node000017" class="node">
<title>Node17</title>
<g id="a_Node000017"><a xlink:href="classediteurpanovisu_1_1EditeurPanovisu.html#a924d3ccff3e4f402d2309cd2eade3237" target="_top" xlink:title=" ">
<polygon fill="white" stroke="#666666" points="905.5,-32 683.25,-32 683.25,0 905.5,0 905.5,-32"/>
<text xml:space="preserve" text-anchor="start" x="691.25" y="-18.5" font-family="Helvetica,sans-Serif" font-size="10.00">editeurpanovisu.EditeurPanovisu.panoramiques</text>
<text xml:space="preserve" text-anchor="middle" x="794.38" y="-6.5" font-family="Helvetica,sans-Serif" font-size="10.00">Ajouter</text>
</a>
</g>
</g>
<!-- Node16&#45;&gt;Node17 -->
<g id="edge29_Node000016_Node000017" class="edge">
<title>Node16&#45;&gt;Node17</title>
<g id="a_edge29_Node000016_Node000017"><a xlink:title=" ">
<path fill="none" stroke="#63b8ff" d="M1161.83,-16C1086.83,-16 983.44,-16 905.6,-16"/>
<polygon fill="#63b8ff" stroke="#63b8ff" points="1161.64,-19.5 1171.64,-16 1161.64,-12.5 1161.64,-19.5"/>
</a>
</g>
</g>
<!-- Node17&#45;&gt;Node5 -->
<g id="edge30_Node000017_Node000005" class="edge">
<title>Node17&#45;&gt;Node5</title>
<g id="a_edge30_Node000017_Node000005"><a xlink:title=" ">
<path fill="none" stroke="#63b8ff" d="M671.6,-5.46C604.77,-4.79 522.34,-12.62 456.5,-46 389.28,-80.08 340.42,-162.49 324.75,-191.6"/>
<polygon fill="#63b8ff" stroke="#63b8ff" points="671.47,-8.96 681.53,-5.64 671.59,-1.96 671.47,-8.96"/>
</a>
</g>
</g>
</g>
</svg>
