<?xml version="1.0" encoding="UTF-8" standalone="no"?>
<!DOCTYPE svg PUBLIC "-//W3C//DTD SVG 1.1//EN"
 "http://www.w3.org/Graphics/SVG/1.1/DTD/svg11.dtd">
<!-- Generated by graphviz version 13.1.2 (20250808.2320)
 -->
<!-- Title: editeurpanovisu.GestionnaireInterfaceController.getFenetreAideOpacite Pages: 1 -->
<!--zoomable 401 -->

<svg id="main" version="1.1" xmlns="http://www.w3.org/2000/svg" xmlns:xlink="http://www.w3.org/1999/xlink" xml:space="preserve" onload="init(evt)">

<style type="text/css"><![CDATA[
.node, .edge {opacity: 0.7;}
.node.selected, .edge.selected {opacity: 1;}
.edge:hover path { stroke: red; }
.edge:hover polygon { stroke: red; fill: red; }
]]></style>

<defs>
  <circle id="rim" cx="0" cy="0" r="7"/>
  <circle id="rim2" cx="0" cy="0" r="3.5"/>
  <g id="zoomPlus">
    <use xlink:href="#rim" fill="#404040"><set attributeName="fill" to="#808080" begin="zoomplus.mouseover" end="zoomplus.mouseout"/></use>
    <path d="M-4,0h8M0,-4v8" fill="none" stroke="white" stroke-width="1.5" pointer-events="none"/>
  </g>
  <g id="zoomMin">
    <use xlink:href="#rim" fill="#404040"><set attributeName="fill" to="#808080" begin="zoomminus.mouseover" end="zoomminus.mouseout"/></use>
    <path d="M-4,0h8" fill="none" stroke="white" stroke-width="1.5" pointer-events="none"/>
  </g>
  <g id="arrowUp" transform="translate(30 24)">
    <use xlink:href="#rim"/>
    <path pointer-events="none" fill="none" stroke="white" stroke-width="1.5" d="M0,-3.0v7 M-2.5,-0.5L0,-3.0L2.5,-0.5"/>
  </g>
  <g id="arrowRight" transform="rotate(90) translate(36 -43)">
    <use xlink:href="#rim"/>
    <path pointer-events="none" fill="none" stroke="white" stroke-width="1.5" d="M0,-3.0v7 M-2.5,-0.5L0,-3.0L2.5,-0.5"/>
  </g>
  <g id="arrowDown" transform="rotate(180) translate(-30 -48)">
    <use xlink:href="#rim"/>
    <path pointer-events="none" fill="none" stroke="white" stroke-width="1.5" d="M0,-3.0v7 M-2.5,-0.5L0,-3.0L2.5,-0.5"/>
  </g>
  <g id="arrowLeft" transform="rotate(270) translate(-36 17)">
    <use xlink:href="#rim"/>
    <path pointer-events="none" fill="none" stroke="white" stroke-width="1.5" d="M0,-3.0v7 M-2.5,-0.5L0,-3.0L2.5,-0.5"/>
  </g>
  <g id="resetDef">
    <use xlink:href="#rim2" fill="#404040"><set attributeName="fill" to="#808080" begin="reset.mouseover" end="reset.mouseout"/></use>
  </g>
</defs>
<script type="application/ecmascript">
var viewWidth = 2608;
var viewHeight = 401;
var sectionId = 'dynsection-76';
</script>
<script type="application/ecmascript" xlink:href="svg.min.js"/>
<svg id="graph" class="graph">
<g id="viewport">
<title>editeurpanovisu.GestionnaireInterfaceController.getFenetreAideOpacite</title>
<!-- Node1 -->
<g id="Node000001" class="node">
<title>Node1</title>
<g id="a_Node000001"><a xlink:title=" ">
<polygon fill="#999999" stroke="#666666" points="2599.5,-224.33 2434.25,-224.33 2434.25,-180.33 2599.5,-180.33 2599.5,-224.33"/>
<text xml:space="preserve" text-anchor="start" x="2442.25" y="-210.83" font-family="Helvetica,sans-Serif" font-size="10.00">editeurpanovisu.Gestionnaire</text>
<text xml:space="preserve" text-anchor="start" x="2442.25" y="-198.83" font-family="Helvetica,sans-Serif" font-size="10.00">InterfaceController.getFenetreAide</text>
<text xml:space="preserve" text-anchor="middle" x="2516.88" y="-186.83" font-family="Helvetica,sans-Serif" font-size="10.00">Opacite</text>
</a>
</g>
</g>
<!-- Node2 -->
<g id="Node000002" class="node">
<title>Node2</title>
<g id="a_Node000002"><a xlink:href="classediteurpanovisu_1_1GestionnaireInterfaceController.html#a400a2a34da2ac8f06caab548f31bac87" target="_top" xlink:title=" ">
<polygon fill="white" stroke="#666666" points="2398.25,-262.33 2218,-262.33 2218,-230.33 2398.25,-230.33 2398.25,-262.33"/>
<text xml:space="preserve" text-anchor="start" x="2226" y="-248.83" font-family="Helvetica,sans-Serif" font-size="10.00">editeurpanovisu.Gestionnaire</text>
<text xml:space="preserve" text-anchor="middle" x="2308.12" y="-236.83" font-family="Helvetica,sans-Serif" font-size="10.00">InterfaceController.afficheFenetreAide</text>
</a>
</g>
</g>
<!-- Node1&#45;&gt;Node2 -->
<g id="edge1_Node000001_Node000002" class="edge">
<title>Node1&#45;&gt;Node2</title>
<g id="a_edge1_Node000001_Node000002"><a xlink:title=" ">
<path fill="none" stroke="#63b8ff" d="M2422.75,-222.15C2410.57,-224.74 2398.2,-227.38 2386.32,-229.9"/>
<polygon fill="#63b8ff" stroke="#63b8ff" points="2423.33,-225.61 2432.38,-220.1 2421.88,-218.76 2423.33,-225.61"/>
</a>
</g>
</g>
<!-- Node3 -->
<g id="Node000003" class="node">
<title>Node3</title>
<g id="a_Node000003"><a xlink:href="classediteurpanovisu_1_1GestionnaireInterfaceController.html#a55c8afda208674955a13d48d02be41b8" target="_top" xlink:title=" ">
<polygon fill="white" stroke="#666666" points="2182,-297.33 2014.5,-297.33 2014.5,-265.33 2182,-265.33 2182,-297.33"/>
<text xml:space="preserve" text-anchor="start" x="2022.5" y="-283.83" font-family="Helvetica,sans-Serif" font-size="10.00">editeurpanovisu.Gestionnaire</text>
<text xml:space="preserve" text-anchor="middle" x="2098.25" y="-271.83" font-family="Helvetica,sans-Serif" font-size="10.00">InterfaceController.afficheTemplate</text>
</a>
</g>
</g>
<!-- Node1&#45;&gt;Node3 -->
<g id="edge29_Node000001_Node000003" class="edge">
<title>Node1&#45;&gt;Node3</title>
<g id="a_edge29_Node000001_Node000003"><a xlink:title=" ">
<path fill="none" stroke="#63b8ff" d="M2478.01,-231.11C2455.99,-246.11 2426.97,-263.01 2398.25,-271.33 2327.53,-291.82 2243.46,-292.69 2182.5,-289.38"/>
<polygon fill="#63b8ff" stroke="#63b8ff" points="2479.88,-234.08 2486.07,-225.48 2475.87,-228.34 2479.88,-234.08"/>
</a>
</g>
</g>
<!-- Node11 -->
<g id="Node000011" class="node">
<title>Node11</title>
<g id="a_Node000011"><a xlink:href="classediteurpanovisu_1_1EditeurPanovisu.html#a94e36b9e9d09ab1a4c852b8a8cefa927" target="_top" xlink:title=" ">
<polygon fill="white" stroke="#666666" points="647.25,-126.33 456.5,-126.33 456.5,-94.33 647.25,-94.33 647.25,-126.33"/>
<text xml:space="preserve" text-anchor="start" x="464.5" y="-112.83" font-family="Helvetica,sans-Serif" font-size="10.00">editeurpanovisu.EditeurPanovisu.genere</text>
<text xml:space="preserve" text-anchor="middle" x="551.88" y="-100.83" font-family="Helvetica,sans-Serif" font-size="10.00">Visite</text>
</a>
</g>
</g>
<!-- Node1&#45;&gt;Node11 -->
<g id="edge31_Node000001_Node000011" class="edge">
<title>Node1&#45;&gt;Node11</title>
<g id="a_edge31_Node000001_Node000011"><a xlink:title=" ">
<path fill="none" stroke="#63b8ff" d="M2479.71,-173.41C2410.31,-120.92 2251.76,-15.33 2099.25,-15.33 2099.25,-15.33 2099.25,-15.33 1228.5,-15.33 984.55,-15.33 923.35,-35.17 683.25,-78.33 660.2,-82.48 635.15,-88.3 613.23,-93.84"/>
<polygon fill="#63b8ff" stroke="#63b8ff" points="2477.24,-175.93 2487.31,-179.23 2481.5,-170.37 2477.24,-175.93"/>
</a>
</g>
</g>
<!-- Node17 -->
<g id="Node000017" class="node">
<title>Node17</title>
<g id="a_Node000017"><a xlink:href="classediteurpanovisu_1_1GestionnaireInterfaceController.html#ac7fa988dc99d8684686127a2269cd66e" target="_top" xlink:title=" ">
<polygon fill="white" stroke="#666666" points="2176.38,-228.33 2020.12,-228.33 2020.12,-196.33 2176.38,-196.33 2176.38,-228.33"/>
<text xml:space="preserve" text-anchor="start" x="2028.12" y="-214.83" font-family="Helvetica,sans-Serif" font-size="10.00">editeurpanovisu.Gestionnaire</text>
<text xml:space="preserve" text-anchor="middle" x="2098.25" y="-202.83" font-family="Helvetica,sans-Serif" font-size="10.00">InterfaceController.creeInterface</text>
</a>
</g>
</g>
<!-- Node1&#45;&gt;Node17 -->
<g id="edge30_Node000001_Node000017" class="edge">
<title>Node1&#45;&gt;Node17</title>
<g id="a_edge30_Node000001_Node000017"><a xlink:title=" ">
<path fill="none" stroke="#63b8ff" d="M2422.88,-204.57C2348.8,-206.34 2246.31,-208.8 2176.65,-210.48"/>
<polygon fill="#63b8ff" stroke="#63b8ff" points="2422.63,-208.07 2432.55,-204.33 2422.47,-201.08 2422.63,-208.07"/>
</a>
</g>
</g>
<!-- Node18 -->
<g id="Node000018" class="node">
<title>Node18</title>
<g id="a_Node000018"><a xlink:href="classediteurpanovisu_1_1GestionnaireInterfaceController.html#ab66509c63a85a8285a081b24049e8774" target="_top" xlink:title=" ">
<polygon fill="white" stroke="#666666" points="2391.12,-174.33 2225.12,-174.33 2225.12,-142.33 2391.12,-142.33 2391.12,-174.33"/>
<text xml:space="preserve" text-anchor="start" x="2233.12" y="-160.83" font-family="Helvetica,sans-Serif" font-size="10.00">editeurpanovisu.Gestionnaire</text>
<text xml:space="preserve" text-anchor="middle" x="2308.12" y="-148.83" font-family="Helvetica,sans-Serif" font-size="10.00">InterfaceController.strGetTemplate</text>
</a>
</g>
</g>
<!-- Node1&#45;&gt;Node18 -->
<g id="edge32_Node000001_Node000018" class="edge">
<title>Node1&#45;&gt;Node18</title>
<g id="a_edge32_Node000001_Node000018"><a xlink:title=" ">
<path fill="none" stroke="#63b8ff" d="M2422.75,-182.52C2410.57,-179.92 2398.2,-177.29 2386.32,-174.76"/>
<polygon fill="#63b8ff" stroke="#63b8ff" points="2421.88,-185.91 2432.38,-184.57 2423.33,-179.06 2421.88,-185.91"/>
</a>
</g>
</g>
<!-- Node2&#45;&gt;Node3 -->
<g id="edge2_Node000002_Node000003" class="edge">
<title>Node2&#45;&gt;Node3</title>
<g id="a_edge2_Node000002_Node000003"><a xlink:title=" ">
<path fill="none" stroke="#63b8ff" d="M2206.67,-263.25C2198.5,-264.62 2190.31,-266 2182.29,-267.35"/>
<polygon fill="#63b8ff" stroke="#63b8ff" points="2206.99,-266.74 2216.27,-261.63 2205.83,-259.84 2206.99,-266.74"/>
</a>
</g>
</g>
<!-- Node2&#45;&gt;Node17 -->
<g id="edge28_Node000002_Node000017" class="edge">
<title>Node2&#45;&gt;Node17</title>
<g id="a_edge28_Node000002_Node000017"><a xlink:title=" ">
<path fill="none" stroke="#63b8ff" d="M2206.51,-229.88C2196.51,-228.24 2186.47,-226.6 2176.77,-225.01"/>
<polygon fill="#63b8ff" stroke="#63b8ff" points="2205.83,-233.31 2216.27,-231.47 2206.96,-226.41 2205.83,-233.31"/>
</a>
</g>
</g>
<!-- Node4 -->
<g id="Node000004" class="node">
<title>Node4</title>
<g id="a_Node000004"><a xlink:href="classediteurpanovisu_1_1EditeurPanovisu.html#a87b29dc258cfc67370b1f27809e91b8e" target="_top" xlink:title=" ">
<polygon fill="white" stroke="#666666" points="1978.5,-297.33 1803.5,-297.33 1803.5,-265.33 1978.5,-265.33 1978.5,-297.33"/>
<text xml:space="preserve" text-anchor="start" x="1811.5" y="-283.83" font-family="Helvetica,sans-Serif" font-size="10.00">editeurpanovisu.EditeurPanovisu.tsk</text>
<text xml:space="preserve" text-anchor="middle" x="1891" y="-271.83" font-family="Helvetica,sans-Serif" font-size="10.00">AnalyseFichierPVU</text>
</a>
</g>
</g>
<!-- Node3&#45;&gt;Node4 -->
<g id="edge3_Node000003_Node000004" class="edge">
<title>Node3&#45;&gt;Node4</title>
<g id="a_edge3_Node000003_Node000004"><a xlink:title=" ">
<path fill="none" stroke="#63b8ff" d="M2002.6,-281.33C1994.73,-281.33 1986.79,-281.33 1978.98,-281.33"/>
<polygon fill="#63b8ff" stroke="#63b8ff" points="2002.55,-284.83 2012.55,-281.33 2002.55,-277.83 2002.55,-284.83"/>
</a>
</g>
</g>
<!-- Node5 -->
<g id="Node000005" class="node">
<title>Node5</title>
<g id="a_Node000005"><a xlink:href="classediteurpanovisu_1_1EditeurPanovisu.html#ab4beb1597b660a4a253befc6e76f1c54" target="_top" xlink:title=" ">
<polygon fill="white" stroke="#666666" points="1098.12,-365.33 912.62,-365.33 912.62,-333.33 1098.12,-333.33 1098.12,-365.33"/>
<text xml:space="preserve" text-anchor="start" x="920.62" y="-351.83" font-family="Helvetica,sans-Serif" font-size="10.00">editeurpanovisu.EditeurPanovisu.projet</text>
<text xml:space="preserve" text-anchor="middle" x="1005.38" y="-339.83" font-family="Helvetica,sans-Serif" font-size="10.00">Charge</text>
</a>
</g>
</g>
<!-- Node4&#45;&gt;Node5 -->
<g id="edge4_Node000004_Node000005" class="edge">
<title>Node4&#45;&gt;Node5</title>
<g id="a_edge4_Node000004_Node000005"><a xlink:title=" ">
<path fill="none" stroke="#63b8ff" d="M1791.91,-298.23C1783.67,-299.38 1775.45,-300.44 1767.5,-301.33 1527.06,-328.48 1242.03,-341.33 1098.6,-346.46"/>
<polygon fill="#63b8ff" stroke="#63b8ff" points="1792.26,-301.71 1801.65,-296.82 1791.25,-294.79 1792.26,-301.71"/>
</a>
</g>
</g>
<!-- Node8 -->
<g id="Node000008" class="node">
<title>Node8</title>
<g id="a_Node000008"><a xlink:href="classediteurpanovisu_1_1EditeurPanovisu.html#a6d19b4d885ee6fcec827b91956295732" target="_top" xlink:title=" ">
<polygon fill="white" stroke="#666666" points="1767.5,-292.33 1582,-292.33 1582,-260.33 1767.5,-260.33 1767.5,-292.33"/>
<text xml:space="preserve" text-anchor="start" x="1590" y="-278.83" font-family="Helvetica,sans-Serif" font-size="10.00">editeurpanovisu.EditeurPanovisu.projet</text>
<text xml:space="preserve" text-anchor="middle" x="1674.75" y="-266.83" font-family="Helvetica,sans-Serif" font-size="10.00">ChargeNom</text>
</a>
</g>
</g>
<!-- Node4&#45;&gt;Node8 -->
<g id="edge7_Node000004_Node000008" class="edge">
<title>Node4&#45;&gt;Node8</title>
<g id="a_edge7_Node000004_Node000008"><a xlink:title=" ">
<path fill="none" stroke="#63b8ff" d="M1791.66,-279.04C1783.76,-278.85 1775.8,-278.67 1767.95,-278.49"/>
<polygon fill="#63b8ff" stroke="#63b8ff" points="1791.57,-282.54 1801.65,-279.27 1791.74,-275.54 1791.57,-282.54"/>
</a>
</g>
</g>
<!-- Node6 -->
<g id="Node000006" class="node">
<title>Node6</title>
<g id="a_Node000006"><a xlink:href="classediteurpanovisu_1_1EditeurPanovisu.html#ac912b80c1f2ac97def60ff005c5c480b" target="_top" xlink:title=" ">
<polygon fill="white" stroke="#666666" points="420.5,-274.33 216.25,-274.33 216.25,-254.33 420.5,-254.33 420.5,-274.33"/>
<text xml:space="preserve" text-anchor="middle" x="318.38" y="-260.83" font-family="Helvetica,sans-Serif" font-size="10.00">editeurpanovisu.EditeurPanovisu.creeMenu</text>
</a>
</g>
</g>
<!-- Node5&#45;&gt;Node6 -->
<g id="edge5_Node000005_Node000006" class="edge">
<title>Node5&#45;&gt;Node6</title>
<g id="a_edge5_Node000005_Node000006"><a xlink:title=" ">
<path fill="none" stroke="#63b8ff" d="M901.15,-347.31C790.26,-343.52 609.34,-332.61 456.5,-301.33 420.99,-294.07 381.05,-282.95 353.47,-274.79"/>
<polygon fill="#63b8ff" stroke="#63b8ff" points="900.71,-350.8 910.82,-347.63 900.94,-343.81 900.71,-350.8"/>
</a>
</g>
</g>
<!-- Node7 -->
<g id="Node000007" class="node">
<title>Node7</title>
<g id="a_Node000007"><a xlink:href="classediteurpanovisu_1_1EditeurPanovisu.html#a86c393eee88f54c694db994ddd85b90d" target="_top" xlink:title=" ">
<polygon fill="white" stroke="#666666" points="180.25,-280.33 0,-280.33 0,-248.33 180.25,-248.33 180.25,-280.33"/>
<text xml:space="preserve" text-anchor="start" x="8" y="-266.83" font-family="Helvetica,sans-Serif" font-size="10.00">editeurpanovisu.EditeurPanovisu.cree</text>
<text xml:space="preserve" text-anchor="middle" x="90.12" y="-254.83" font-family="Helvetica,sans-Serif" font-size="10.00">Environnement</text>
</a>
</g>
</g>
<!-- Node6&#45;&gt;Node7 -->
<g id="edge6_Node000006_Node000007" class="edge">
<title>Node6&#45;&gt;Node7</title>
<g id="a_edge6_Node000006_Node000007"><a xlink:title=" ">
<path fill="none" stroke="#63b8ff" d="M204.51,-264.33C196.49,-264.33 188.46,-264.33 180.6,-264.33"/>
<polygon fill="#63b8ff" stroke="#63b8ff" points="204.32,-267.83 214.32,-264.33 204.32,-260.83 204.32,-267.83"/>
</a>
</g>
</g>
<!-- Node8&#45;&gt;Node6 -->
<g id="edge27_Node000008_Node000006" class="edge">
<title>Node8&#45;&gt;Node6</title>
<g id="a_edge27_Node000008_Node000006"><a xlink:title=" ">
<path fill="none" stroke="#63b8ff" d="M1607.78,-295.75C1488.75,-329 1229.67,-393.33 1006.38,-393.33 1006.38,-393.33 1006.38,-393.33 777.62,-393.33 632.1,-393.33 594.66,-375.07 456.5,-329.33 411.98,-314.6 363.08,-288.93 337.41,-274.66"/>
<polygon fill="#63b8ff" stroke="#63b8ff" points="1608.38,-299.21 1617.06,-293.14 1606.48,-292.48 1608.38,-299.21"/>
</a>
</g>
</g>
<!-- Node9 -->
<g id="Node000009" class="node">
<title>Node9</title>
<g id="a_Node000009"><a xlink:href="classediteurpanovisu_1_1EditeurPanovisu.html#af0d1c32bb78acbff561c822a0d15f760" target="_top" xlink:title=" ">
<polygon fill="white" stroke="#666666" points="1546,-248.33 1358.25,-248.33 1358.25,-216.33 1546,-216.33 1546,-248.33"/>
<text xml:space="preserve" text-anchor="start" x="1366.25" y="-234.83" font-family="Helvetica,sans-Serif" font-size="10.00">editeurpanovisu.EditeurPanovisu.ajoute</text>
<text xml:space="preserve" text-anchor="middle" x="1452.12" y="-222.83" font-family="Helvetica,sans-Serif" font-size="10.00">FichierHisto</text>
</a>
</g>
</g>
<!-- Node8&#45;&gt;Node9 -->
<g id="edge8_Node000008_Node000009" class="edge">
<title>Node8&#45;&gt;Node9</title>
<g id="a_edge8_Node000008_Node000009"><a xlink:title=" ">
<path fill="none" stroke="#63b8ff" d="M1609.59,-257.34C1589.81,-252.9 1567.62,-248.31 1546.3,-244.24"/>
<polygon fill="#63b8ff" stroke="#63b8ff" points="1608.62,-260.71 1619.15,-259.53 1610.18,-253.89 1608.62,-260.71"/>
</a>
</g>
</g>
<!-- Node9&#45;&gt;Node5 -->
<g id="edge9_Node000009_Node000005" class="edge">
<title>Node9&#45;&gt;Node5</title>
<g id="a_edge9_Node000009_Node000005"><a xlink:title=" ">
<path fill="none" stroke="#63b8ff" d="M1377.82,-251.62C1291.67,-274.28 1150.2,-311.5 1068.98,-332.86"/>
<polygon fill="#63b8ff" stroke="#63b8ff" points="1378.57,-255.04 1387.35,-249.11 1376.79,-248.27 1378.57,-255.04"/>
</a>
</g>
</g>
<!-- Node9&#45;&gt;Node8 -->
<g id="edge10_Node000009_Node000008" class="edge">
<title>Node9&#45;&gt;Node8</title>
<g id="a_edge10_Node000009_Node000008"><a xlink:title=" ">
<path fill="none" stroke="#63b8ff" d="M1517.39,-251.35C1537.52,-255.87 1560.14,-260.54 1581.78,-264.66"/>
<polygon fill="#63b8ff" stroke="#63b8ff" points="1518.18,-247.94 1507.65,-249.12 1516.62,-254.76 1518.18,-247.94"/>
</a>
</g>
</g>
<!-- Node10 -->
<g id="Node000010" class="node">
<title>Node10</title>
<g id="a_Node000010"><a xlink:href="classediteurpanovisu_1_1EditeurPanovisu.html#a9f3ea25b35d4884524508dab3dc4fd6a" target="_top" xlink:title=" ">
<polygon fill="white" stroke="#666666" points="1322.25,-242.33 1136.75,-242.33 1136.75,-210.33 1322.25,-210.33 1322.25,-242.33"/>
<text xml:space="preserve" text-anchor="start" x="1144.75" y="-228.83" font-family="Helvetica,sans-Serif" font-size="10.00">editeurpanovisu.EditeurPanovisu.projet</text>
<text xml:space="preserve" text-anchor="middle" x="1229.5" y="-216.83" font-family="Helvetica,sans-Serif" font-size="10.00">Sauve</text>
</a>
</g>
</g>
<!-- Node9&#45;&gt;Node10 -->
<g id="edge11_Node000009_Node000010" class="edge">
<title>Node9&#45;&gt;Node10</title>
<g id="a_edge11_Node000009_Node000010"><a xlink:title=" ">
<path fill="none" stroke="#63b8ff" d="M1346.63,-229.49C1338.64,-229.28 1330.61,-229.06 1322.71,-228.84"/>
<polygon fill="#63b8ff" stroke="#63b8ff" points="1346.28,-232.98 1356.37,-229.76 1346.47,-225.99 1346.28,-232.98"/>
</a>
</g>
</g>
<!-- Node16 -->
<g id="Node000016" class="node">
<title>Node16</title>
<g id="a_Node000016"><a xlink:href="classediteurpanovisu_1_1EditeurPanovisu.html#a7b2e25dc717eb52b62e23d54ec4c124a" target="_top" xlink:title=" ">
<polygon fill="white" stroke="#666666" points="1322.25,-179.33 1136.75,-179.33 1136.75,-147.33 1322.25,-147.33 1322.25,-179.33"/>
<text xml:space="preserve" text-anchor="start" x="1144.75" y="-165.83" font-family="Helvetica,sans-Serif" font-size="10.00">editeurpanovisu.EditeurPanovisu.projet</text>
<text xml:space="preserve" text-anchor="middle" x="1229.5" y="-153.83" font-family="Helvetica,sans-Serif" font-size="10.00">SauveSous</text>
</a>
</g>
</g>
<!-- Node9&#45;&gt;Node16 -->
<g id="edge25_Node000009_Node000016" class="edge">
<title>Node9&#45;&gt;Node16</title>
<g id="a_edge25_Node000009_Node000016"><a xlink:title=" ">
<path fill="none" stroke="#63b8ff" d="M1387.61,-212.47C1354.47,-202.11 1314.42,-189.58 1283.04,-179.77"/>
<polygon fill="#63b8ff" stroke="#63b8ff" points="1386.53,-215.8 1397.12,-215.44 1388.62,-209.12 1386.53,-215.8"/>
</a>
</g>
</g>
<!-- Node10&#45;&gt;Node5 -->
<g id="edge15_Node000010_Node000005" class="edge">
<title>Node10&#45;&gt;Node5</title>
<g id="a_edge15_Node000010_Node000005"><a xlink:title=" ">
<path fill="none" stroke="#63b8ff" d="M1185.86,-247.99C1169.78,-257.02 1151.76,-268.23 1136.75,-280.33 1118.39,-295.14 1120.65,-306.67 1100.75,-319.33 1092.34,-324.69 1082.89,-329.15 1073.31,-332.86"/>
<polygon fill="#63b8ff" stroke="#63b8ff" points="1187.16,-251.26 1194.25,-243.38 1183.8,-245.13 1187.16,-251.26"/>
</a>
</g>
</g>
<!-- Node10&#45;&gt;Node6 -->
<g id="edge12_Node000010_Node000006" class="edge">
<title>Node10&#45;&gt;Node6</title>
<g id="a_edge12_Node000010_Node000006"><a xlink:title=" ">
<path fill="none" stroke="#63b8ff" d="M1132.46,-244.46C1121.79,-246 1111.06,-247.35 1100.75,-248.33 857.63,-271.62 570.1,-270.07 420.8,-267.1"/>
<polygon fill="#63b8ff" stroke="#63b8ff" points="1132.67,-247.97 1142.03,-243.02 1131.62,-241.05 1132.67,-247.97"/>
</a>
</g>
</g>
<!-- Node10&#45;&gt;Node8 -->
<g id="edge16_Node000010_Node000008" class="edge">
<title>Node10&#45;&gt;Node8</title>
<g id="a_edge16_Node000010_Node000008"><a xlink:title=" ">
<path fill="none" stroke="#63b8ff" d="M1300.04,-245.58C1318.8,-250.12 1339.19,-254.47 1358.25,-257.33 1433,-268.56 1518.65,-273.21 1581.84,-275.1"/>
<polygon fill="#63b8ff" stroke="#63b8ff" points="1300.91,-242.19 1290.37,-243.18 1299.23,-248.99 1300.91,-242.19"/>
</a>
</g>
</g>
<!-- Node10&#45;&gt;Node11 -->
<g id="edge13_Node000010_Node000011" class="edge">
<title>Node10&#45;&gt;Node11</title>
<g id="a_edge13_Node000010_Node000011"><a xlink:title=" ">
<path fill="none" stroke="#63b8ff" d="M1160.1,-204.9C1151.61,-200.33 1143.54,-194.86 1136.75,-188.33 1109.22,-161.88 1132.91,-130.91 1100.75,-110.33 1028.24,-63.94 784.39,-83.15 647.72,-98.39"/>
<polygon fill="#63b8ff" stroke="#63b8ff" points="1158.34,-207.93 1168.86,-209.19 1161.42,-201.65 1158.34,-207.93"/>
</a>
</g>
</g>
<!-- Node12 -->
<g id="Node000012" class="node">
<title>Node12</title>
<g id="a_Node000012"><a xlink:href="classediteurpanovisu_1_1EditeurPanovisu.html#a9b46b222714af12c06ec33d410400773" target="_top" xlink:title=" ">
<polygon fill="white" stroke="#666666" points="874,-324.33 683.25,-324.33 683.25,-292.33 874,-292.33 874,-324.33"/>
<text xml:space="preserve" text-anchor="start" x="691.25" y="-310.83" font-family="Helvetica,sans-Serif" font-size="10.00">editeurpanovisu.EditeurPanovisu.projets</text>
<text xml:space="preserve" text-anchor="middle" x="778.62" y="-298.83" font-family="Helvetica,sans-Serif" font-size="10.00">Fermer</text>
</a>
</g>
</g>
<!-- Node10&#45;&gt;Node12 -->
<g id="edge17_Node000010_Node000012" class="edge">
<title>Node10&#45;&gt;Node12</title>
<g id="a_edge17_Node000010_Node000012"><a xlink:title=" ">
<path fill="none" stroke="#63b8ff" d="M1187.97,-247.79C1163.42,-259.76 1131.08,-273.74 1100.75,-281.33 1026.12,-300.01 939.02,-306.41 874.37,-308.34"/>
<polygon fill="#63b8ff" stroke="#63b8ff" points="1189.23,-251.07 1196.63,-243.48 1186.12,-244.8 1189.23,-251.07"/>
</a>
</g>
</g>
<!-- Node13 -->
<g id="Node000013" class="node">
<title>Node13</title>
<g id="a_Node000013"><a xlink:href="classediteurpanovisu_1_1EditeurPanovisu.html#ac9d449399ccd38843fa12e716f0c9611" target="_top" xlink:title=" ">
<polygon fill="white" stroke="#666666" points="1100.75,-239.33 910,-239.33 910,-207.33 1100.75,-207.33 1100.75,-239.33"/>
<text xml:space="preserve" text-anchor="start" x="918" y="-225.83" font-family="Helvetica,sans-Serif" font-size="10.00">editeurpanovisu.EditeurPanovisu.projets</text>
<text xml:space="preserve" text-anchor="middle" x="1005.38" y="-213.83" font-family="Helvetica,sans-Serif" font-size="10.00">Nouveau</text>
</a>
</g>
</g>
<!-- Node10&#45;&gt;Node13 -->
<g id="edge19_Node000010_Node000013" class="edge">
<title>Node10&#45;&gt;Node13</title>
<g id="a_edge19_Node000010_Node000013"><a xlink:title=" ">
<path fill="none" stroke="#63b8ff" d="M1125.24,-224.94C1117.2,-224.83 1109.11,-224.72 1101.13,-224.61"/>
<polygon fill="#63b8ff" stroke="#63b8ff" points="1124.99,-228.44 1135.04,-225.07 1125.08,-221.44 1124.99,-228.44"/>
</a>
</g>
</g>
<!-- Node14 -->
<g id="Node000014" class="node">
<title>Node14</title>
<g id="a_Node000014"><a xlink:href="classediteurpanovisu_1_1EditeurPanovisu.html#a2b3125ffe2e6291efacf19df6cb30a8d" target="_top" xlink:title=" ">
<polygon fill="white" stroke="#666666" points="869.12,-139.33 688.12,-139.33 688.12,-119.33 869.12,-119.33 869.12,-139.33"/>
<text xml:space="preserve" text-anchor="middle" x="778.62" y="-125.83" font-family="Helvetica,sans-Serif" font-size="10.00">editeurpanovisu.EditeurPanovisu.start</text>
</a>
</g>
</g>
<!-- Node10&#45;&gt;Node14 -->
<g id="edge24_Node000010_Node000014" class="edge">
<title>Node10&#45;&gt;Node14</title>
<g id="a_edge24_Node000010_Node000014"><a xlink:title=" ">
<path fill="none" stroke="#63b8ff" d="M1166.89,-205.3C1156.4,-200.48 1145.94,-194.83 1136.75,-188.33 1117.22,-174.53 1122.3,-158.71 1100.75,-148.33 1020.73,-109.83 916.24,-111.82 848.54,-118.86"/>
<polygon fill="#63b8ff" stroke="#63b8ff" points="1165.4,-208.46 1175.96,-209.23 1168.18,-202.04 1165.4,-208.46"/>
</a>
</g>
</g>
<!-- Node15 -->
<g id="Node000015" class="node">
<title>Node15</title>
<g id="a_Node000015"><a xlink:href="classediteurpanovisu_1_1EditeurPanovisu.html#aef8c9b28c3e88d6e27e3f62b9a901134" target="_top" xlink:title=" ">
<polygon fill="white" stroke="#666666" points="1099.25,-189.33 911.5,-189.33 911.5,-157.33 1099.25,-157.33 1099.25,-189.33"/>
<text xml:space="preserve" text-anchor="start" x="919.5" y="-175.83" font-family="Helvetica,sans-Serif" font-size="10.00">editeurpanovisu.EditeurPanovisu.sauve</text>
<text xml:space="preserve" text-anchor="middle" x="1005.38" y="-163.83" font-family="Helvetica,sans-Serif" font-size="10.00">Fichiers</text>
</a>
</g>
</g>
<!-- Node10&#45;&gt;Node15 -->
<g id="edge23_Node000010_Node000015" class="edge">
<title>Node10&#45;&gt;Node15</title>
<g id="a_edge23_Node000010_Node000015"><a xlink:title=" ">
<path fill="none" stroke="#63b8ff" d="M1148.27,-207.19C1124.41,-201.5 1098.48,-195.31 1075.4,-189.8"/>
<polygon fill="#63b8ff" stroke="#63b8ff" points="1147.42,-210.59 1157.96,-209.5 1149.05,-203.78 1147.42,-210.59"/>
</a>
</g>
</g>
<!-- Node11&#45;&gt;Node6 -->
<g id="edge14_Node000011_Node000006" class="edge">
<title>Node11&#45;&gt;Node6</title>
<g id="a_edge14_Node000011_Node000006"><a xlink:title=" ">
<path fill="none" stroke="#63b8ff" d="M516.82,-132.99C465.94,-166.83 372.09,-229.26 335.03,-253.92"/>
<polygon fill="#63b8ff" stroke="#63b8ff" points="518.45,-136.11 524.84,-127.65 514.58,-130.28 518.45,-136.11"/>
</a>
</g>
</g>
<!-- Node12&#45;&gt;Node6 -->
<g id="edge18_Node000012_Node000006" class="edge">
<title>Node12&#45;&gt;Node6</title>
<g id="a_edge18_Node000012_Node000006"><a xlink:title=" ">
<path fill="none" stroke="#63b8ff" d="M671.3,-298.63C608.74,-292.87 528.11,-285.33 456.5,-278.33 444.95,-277.2 432.85,-276 420.83,-274.79"/>
<polygon fill="#63b8ff" stroke="#63b8ff" points="670.97,-302.12 681.25,-299.55 671.61,-295.15 670.97,-302.12"/>
</a>
</g>
</g>
<!-- Node13&#45;&gt;Node6 -->
<g id="edge20_Node000013_Node000006" class="edge">
<title>Node13&#45;&gt;Node6</title>
<g id="a_edge20_Node000013_Node000006"><a xlink:title=" ">
<path fill="none" stroke="#63b8ff" d="M898.29,-226.91C787.84,-231.02 609.89,-238.73 456.5,-250.33 443.26,-251.34 429.31,-252.56 415.59,-253.87"/>
<polygon fill="#63b8ff" stroke="#63b8ff" points="898.38,-230.41 908.24,-226.54 898.12,-223.41 898.38,-230.41"/>
</a>
</g>
</g>
<!-- Node13&#45;&gt;Node14 -->
<g id="edge21_Node000013_Node000014" class="edge">
<title>Node13&#45;&gt;Node14</title>
<g id="a_edge21_Node000013_Node000014"><a xlink:title=" ">
<path fill="none" stroke="#63b8ff" d="M924.25,-203.48C919.39,-201.85 914.61,-200.14 910,-198.33 867.31,-181.64 820.58,-154.55 796.33,-139.77"/>
<polygon fill="#63b8ff" stroke="#63b8ff" points="922.95,-206.74 933.54,-206.44 925.07,-200.07 922.95,-206.74"/>
</a>
</g>
</g>
<!-- Node14&#45;&gt;Node11 -->
<g id="edge22_Node000014_Node000011" class="edge">
<title>Node14&#45;&gt;Node11</title>
<g id="a_edge22_Node000014_Node000011"><a xlink:title=" ">
<path fill="none" stroke="#63b8ff" d="M676.6,-120.79C666.98,-119.98 657.24,-119.16 647.68,-118.35"/>
<polygon fill="#63b8ff" stroke="#63b8ff" points="676.06,-124.26 686.32,-121.62 676.65,-117.29 676.06,-124.26"/>
</a>
</g>
</g>
<!-- Node16&#45;&gt;Node6 -->
<g id="edge26_Node000016_Node000006" class="edge">
<title>Node16&#45;&gt;Node6</title>
<g id="a_edge26_Node000016_Node000006"><a xlink:title=" ">
<path fill="none" stroke="#63b8ff" d="M1203.13,-139.46C1178.94,-118.47 1140.43,-89.45 1100.75,-77.33 826.87,6.26 711.29,45.37 456.5,-85.33 382.31,-123.39 336.65,-222.04 323.4,-254.1"/>
<polygon fill="#63b8ff" stroke="#63b8ff" points="1200.74,-142.02 1210.53,-146.05 1205.39,-136.79 1200.74,-142.02"/>
</a>
</g>
</g>
<!-- Node19 -->
<g id="Node000019" class="node">
<title>Node19</title>
<g id="a_Node000019"><a xlink:href="classediteurpanovisu_1_1EditeurPanovisu.html#aaee69ab54364f89b58458c744a4195c0" target="_top" xlink:title=" ">
<polygon fill="white" stroke="#666666" points="1546,-179.33 1358.25,-179.33 1358.25,-147.33 1546,-147.33 1546,-179.33"/>
<text xml:space="preserve" text-anchor="start" x="1366.25" y="-165.83" font-family="Helvetica,sans-Serif" font-size="10.00">editeurpanovisu.EditeurPanovisu.sauve</text>
<text xml:space="preserve" text-anchor="middle" x="1452.12" y="-153.83" font-family="Helvetica,sans-Serif" font-size="10.00">FichierProjet</text>
</a>
</g>
</g>
<!-- Node18&#45;&gt;Node19 -->
<g id="edge33_Node000018_Node000019" class="edge">
<title>Node18&#45;&gt;Node19</title>
<g id="a_edge33_Node000018_Node000019"><a xlink:title=" ">
<path fill="none" stroke="#63b8ff" d="M2213.81,-158.88C2049.49,-159.84 1710.4,-161.83 1546.23,-162.79"/>
<polygon fill="#63b8ff" stroke="#63b8ff" points="2213.36,-162.38 2223.34,-158.82 2213.32,-155.38 2213.36,-162.38"/>
</a>
</g>
</g>
<!-- Node19&#45;&gt;Node10 -->
<g id="edge34_Node000019_Node000010" class="edge">
<title>Node19&#45;&gt;Node10</title>
<g id="a_edge34_Node000019_Node000010"><a xlink:title=" ">
<path fill="none" stroke="#63b8ff" d="M1382.54,-182.92C1352.28,-191.56 1317.11,-201.6 1288.22,-209.85"/>
<polygon fill="#63b8ff" stroke="#63b8ff" points="1383.34,-186.33 1391.99,-180.22 1381.41,-179.6 1383.34,-186.33"/>
</a>
</g>
</g>
<!-- Node19&#45;&gt;Node16 -->
<g id="edge35_Node000019_Node000016" class="edge">
<title>Node19&#45;&gt;Node16</title>
<g id="a_edge35_Node000019_Node000016"><a xlink:title=" ">
<path fill="none" stroke="#63b8ff" d="M1346.63,-163.33C1338.64,-163.33 1330.61,-163.33 1322.71,-163.33"/>
<polygon fill="#63b8ff" stroke="#63b8ff" points="1346.37,-166.83 1356.37,-163.33 1346.37,-159.83 1346.37,-166.83"/>
</a>
</g>
</g>
</g>
</svg>

<g id="navigator" transform="translate(0 0)" fill="#404254">
  <rect fill="#f2f5e9" fill-opacity="0.5" stroke="#606060" stroke-width=".5" x="0" y="0" width="60" height="60"/>
  <use id="zoomplus" xlink:href="#zoomPlus" x="17" y="9" onmousedown="handleZoom(evt,'in')"/>
  <use id="zoomminus" xlink:href="#zoomMin" x="42" y="9" onmousedown="handleZoom(evt,'out')"/>
  <use id="reset" xlink:href="#resetDef" x="30" y="36" onmousedown="handleReset()"/>
   <use id="arrowup" xlink:href="#arrowUp" x="0" y="0" onmousedown="handlePan(0,-1)"/>
  <use id="arrowright" xlink:href="#arrowRight" x="0" y="0" onmousedown="handlePan(1,0)"/>
  <use id="arrowdown" xlink:href="#arrowDown" x="0" y="0" onmousedown="handlePan(0,1)"/>
  <use id="arrowleft" xlink:href="#arrowLeft" x="0" y="0" onmousedown="handlePan(-1,0)"/>
</g>
<svg viewBox="0 0 15 15" width="100%" height="30px" preserveAspectRatio="xMaxYMin meet">
 <g id="arrow_out" transform="scale(0.3 0.3)">
  <a xlink:href="classediteurpanovisu_1_1GestionnaireInterfaceController_a31e1d921184e3ac8f57645617785e5a9_icgraph_org.svg" target="_base">
   <rect id="button" ry="5" rx="5" y="6" x="6" height="38" width="38"
        fill="#f2f5e9" fill-opacity="0.5" stroke="#606060" stroke-width="1.0"/>
   <path id="arrow"
     d="M 11.500037,31.436501 C 11.940474,20.09759 22.043105,11.32322 32.158766,21.979434 L 37.068811,17.246167 C 37.068811,17.246167 37.088388,32 37.088388,32 L 22.160133,31.978069 C 22.160133,31.978069 26.997745,27.140456 26.997745,27.140456 C 18.528582,18.264221 13.291696,25.230495 11.500037,31.436501 z"
     style="fill:#404040;"/>
  </a>
 </g>
</svg>

<style type='text/css'>
<![CDATA[
[data-mouse-over-selected='false'] { opacity: 0.7; }
[data-mouse-over-selected='true']  { opacity: 1.0; }
]]>
</style>
<script type="application/ecmascript"><![CDATA[
document.addEventListener('DOMContentLoaded', (event) => {
  highlightEdges();
  highlightAdjacentNodes();
});
]]></script>
</svg>
