<?xml version="1.0" encoding="UTF-8" standalone="no"?>
<!DOCTYPE svg PUBLIC "-//W3C//DTD SVG 1.1//EN"
 "http://www.w3.org/Graphics/SVG/1.1/DTD/svg11.dtd">
<!-- Generated by graphviz version 13.1.2 (20250808.2320)
 -->
<!-- Title: editeurpanovisu.EditeurPanovisu.iCreeNiveauxImageEqui Pages: 1 -->
<!--zoomable 196 -->

<svg id="main" version="1.1" xmlns="http://www.w3.org/2000/svg" xmlns:xlink="http://www.w3.org/1999/xlink" xml:space="preserve" onload="init(evt)">

<style type="text/css"><![CDATA[
.node, .edge {opacity: 0.7;}
.node.selected, .edge.selected {opacity: 1;}
.edge:hover path { stroke: red; }
.edge:hover polygon { stroke: red; fill: red; }
]]></style>

<defs>
  <circle id="rim" cx="0" cy="0" r="7"/>
  <circle id="rim2" cx="0" cy="0" r="3.5"/>
  <g id="zoomPlus">
    <use xlink:href="#rim" fill="#404040"><set attributeName="fill" to="#808080" begin="zoomplus.mouseover" end="zoomplus.mouseout"/></use>
    <path d="M-4,0h8M0,-4v8" fill="none" stroke="white" stroke-width="1.5" pointer-events="none"/>
  </g>
  <g id="zoomMin">
    <use xlink:href="#rim" fill="#404040"><set attributeName="fill" to="#808080" begin="zoomminus.mouseover" end="zoomminus.mouseout"/></use>
    <path d="M-4,0h8" fill="none" stroke="white" stroke-width="1.5" pointer-events="none"/>
  </g>
  <g id="arrowUp" transform="translate(30 24)">
    <use xlink:href="#rim"/>
    <path pointer-events="none" fill="none" stroke="white" stroke-width="1.5" d="M0,-3.0v7 M-2.5,-0.5L0,-3.0L2.5,-0.5"/>
  </g>
  <g id="arrowRight" transform="rotate(90) translate(36 -43)">
    <use xlink:href="#rim"/>
    <path pointer-events="none" fill="none" stroke="white" stroke-width="1.5" d="M0,-3.0v7 M-2.5,-0.5L0,-3.0L2.5,-0.5"/>
  </g>
  <g id="arrowDown" transform="rotate(180) translate(-30 -48)">
    <use xlink:href="#rim"/>
    <path pointer-events="none" fill="none" stroke="white" stroke-width="1.5" d="M0,-3.0v7 M-2.5,-0.5L0,-3.0L2.5,-0.5"/>
  </g>
  <g id="arrowLeft" transform="rotate(270) translate(-36 17)">
    <use xlink:href="#rim"/>
    <path pointer-events="none" fill="none" stroke="white" stroke-width="1.5" d="M0,-3.0v7 M-2.5,-0.5L0,-3.0L2.5,-0.5"/>
  </g>
  <g id="resetDef">
    <use xlink:href="#rim2" fill="#404040"><set attributeName="fill" to="#808080" begin="reset.mouseover" end="reset.mouseout"/></use>
  </g>
</defs>
<script type="application/ecmascript">
var viewWidth = 581;
var viewHeight = 196;
var sectionId = 'dynsection-126';
</script>
<script type="application/ecmascript" xlink:href="svg.min.js"/>
<svg id="graph" class="graph">
<g id="viewport">
<title>editeurpanovisu.EditeurPanovisu.iCreeNiveauxImageEqui</title>
<!-- Node1 -->
<g id="Node000001" class="node">
<title>Node1</title>
<g id="a_Node000001"><a xlink:title=" ">
<polygon fill="#999999" stroke="#666666" points="163.75,-132 0,-132 0,-100 163.75,-100 163.75,-132"/>
<text xml:space="preserve" text-anchor="start" x="8" y="-118.5" font-family="Helvetica,sans-Serif" font-size="10.00">editeurpanovisu.EditeurPanovisu.i</text>
<text xml:space="preserve" text-anchor="middle" x="81.87" y="-106.5" font-family="Helvetica,sans-Serif" font-size="10.00">CreeNiveauxImageEqui</text>
</a>
</g>
</g>
<!-- Node2 -->
<g id="Node000002" class="node">
<title>Node2</title>
<g id="a_Node000002"><a xlink:href="leaflet_8js.html#a73aff07b65d7c0b09ccf6b4c4f1b7a9d" target="_top" xlink:title=" ">
<polygon fill="white" stroke="#666666" points="573.3,-117 544.5,-117 544.5,-97 573.3,-97 573.3,-117"/>
<text xml:space="preserve" text-anchor="middle" x="558.9" y="-103.5" font-family="Helvetica,sans-Serif" font-size="10.00">i</text>
</a>
</g>
</g>
<!-- Node1&#45;&gt;Node2 -->
<g id="edge1_Node000001_Node000002" class="edge">
<title>Node1&#45;&gt;Node2</title>
<g id="a_edge1_Node000001_Node000002"><a xlink:title=" ">
<path fill="none" stroke="#63b8ff" d="M105.19,-132.42C127.73,-147.9 164.21,-170.03 199.75,-179 324.28,-210.43 475.9,-147.08 533.83,-119.24"/>
<polygon fill="#63b8ff" stroke="#63b8ff" points="535.34,-122.4 542.77,-114.85 532.25,-116.11 535.34,-122.4"/>
</a>
</g>
</g>
<!-- Node3 -->
<g id="Node000003" class="node">
<title>Node3</title>
<g id="a_Node000003"><a xlink:href="leaflet_8js.html#a2ab7046ae25351b998b61260f82cabe8" target="_top" xlink:title=" ">
<polygon fill="white" stroke="#666666" points="280.65,-170 251.85,-170 251.85,-150 280.65,-150 280.65,-170"/>
<text xml:space="preserve" text-anchor="middle" x="266.25" y="-156.5" font-family="Helvetica,sans-Serif" font-size="10.00">ii</text>
</a>
</g>
</g>
<!-- Node1&#45;&gt;Node3 -->
<g id="edge2_Node000001_Node000003" class="edge">
<title>Node1&#45;&gt;Node3</title>
<g id="a_edge2_Node000001_Node000003"><a xlink:title=" ">
<path fill="none" stroke="#63b8ff" d="M151.04,-132.45C182.26,-139.98 217.33,-148.44 240.27,-153.97"/>
<polygon fill="#63b8ff" stroke="#63b8ff" points="239.36,-157.35 249.9,-156.3 241,-150.55 239.36,-157.35"/>
</a>
</g>
</g>
<!-- Node4 -->
<g id="Node000004" class="node">
<title>Node4</title>
<g id="a_Node000004"><a xlink:href="classediteurpanovisu_1_1ReadWriteImage.html#ac16a47fd8d8c27b8be3304abb86b5f05" target="_top" xlink:title=" ">
<polygon fill="white" stroke="#666666" points="332.75,-132 199.75,-132 199.75,-100 332.75,-100 332.75,-132"/>
<text xml:space="preserve" text-anchor="start" x="207.75" y="-118.5" font-family="Helvetica,sans-Serif" font-size="10.00">editeurpanovisu.ReadWrite</text>
<text xml:space="preserve" text-anchor="middle" x="266.25" y="-106.5" font-family="Helvetica,sans-Serif" font-size="10.00">Image.readTiff</text>
</a>
</g>
</g>
<!-- Node1&#45;&gt;Node4 -->
<g id="edge3_Node000001_Node000004" class="edge">
<title>Node1&#45;&gt;Node4</title>
<g id="a_edge3_Node000001_Node000004"><a xlink:title=" ">
<path fill="none" stroke="#63b8ff" d="M164.2,-116C172.11,-116 180.12,-116 187.99,-116"/>
<polygon fill="#63b8ff" stroke="#63b8ff" points="187.88,-119.5 197.88,-116 187.88,-112.5 187.88,-119.5"/>
</a>
</g>
</g>
<!-- Node5 -->
<g id="Node000005" class="node">
<title>Node5</title>
<g id="a_Node000005"><a xlink:href="classediteurpanovisu_1_1ReadWriteImage.html#a34d056113779842aefe031f13af8d8a1" target="_top" xlink:title=" ">
<polygon fill="white" stroke="#666666" points="332.75,-82 199.75,-82 199.75,-50 332.75,-50 332.75,-82"/>
<text xml:space="preserve" text-anchor="start" x="207.75" y="-68.5" font-family="Helvetica,sans-Serif" font-size="10.00">editeurpanovisu.ReadWrite</text>
<text xml:space="preserve" text-anchor="middle" x="266.25" y="-56.5" font-family="Helvetica,sans-Serif" font-size="10.00">Image.resizeImage</text>
</a>
</g>
</g>
<!-- Node1&#45;&gt;Node5 -->
<g id="edge4_Node000001_Node000005" class="edge">
<title>Node1&#45;&gt;Node5</title>
<g id="a_edge4_Node000001_Node000005"><a xlink:title=" ">
<path fill="none" stroke="#63b8ff" d="M142.84,-99.56C159.28,-95.05 177.26,-90.12 194.25,-85.47"/>
<polygon fill="#63b8ff" stroke="#63b8ff" points="195.07,-88.87 203.79,-82.85 193.22,-82.12 195.07,-88.87"/>
</a>
</g>
</g>
<!-- Node6 -->
<g id="Node000006" class="node">
<title>Node6</title>
<g id="a_Node000006"><a xlink:href="classediteurpanovisu_1_1ReadWriteImage.html#ac875b8819ddfbadc3482dab5e043f16b" target="_top" xlink:title=" ">
<polygon fill="white" stroke="#666666" points="332.75,-32 199.75,-32 199.75,0 332.75,0 332.75,-32"/>
<text xml:space="preserve" text-anchor="start" x="207.75" y="-18.5" font-family="Helvetica,sans-Serif" font-size="10.00">editeurpanovisu.ReadWrite</text>
<text xml:space="preserve" text-anchor="middle" x="266.25" y="-6.5" font-family="Helvetica,sans-Serif" font-size="10.00">Image.writeJpeg</text>
</a>
</g>
</g>
<!-- Node1&#45;&gt;Node6 -->
<g id="edge5_Node000001_Node000006" class="edge">
<title>Node1&#45;&gt;Node6</title>
<g id="a_edge5_Node000001_Node000006"><a xlink:title=" ">
<path fill="none" stroke="#63b8ff" d="M105.33,-99.6C128.27,-83.34 165.32,-58.39 199.75,-41 202.46,-39.63 205.26,-38.29 208.11,-36.99"/>
<polygon fill="#63b8ff" stroke="#63b8ff" points="209.4,-40.25 217.18,-33.06 206.62,-33.83 209.4,-40.25"/>
</a>
</g>
</g>
<!-- Node7 -->
<g id="Node000007" class="node">
<title>Node7</title>
<g id="a_Node000007"><a xlink:href="classediteurpanovisu_1_1ReadWriteImage.html#ae93614e117cb7a4718f4ac3d5fd33c4e" target="_top" xlink:title=" ">
<polygon fill="white" stroke="#666666" points="508.5,-101 368.75,-101 368.75,-69 508.5,-69 508.5,-101"/>
<text xml:space="preserve" text-anchor="start" x="376.75" y="-87.5" font-family="Helvetica,sans-Serif" font-size="10.00">editeurpanovisu.ReadWrite</text>
<text xml:space="preserve" text-anchor="middle" x="438.62" y="-75.5" font-family="Helvetica,sans-Serif" font-size="10.00">Image.calculeSharpenMatrix</text>
</a>
</g>
</g>
<!-- Node6&#45;&gt;Node7 -->
<g id="edge6_Node000006_Node000007" class="edge">
<title>Node6&#45;&gt;Node7</title>
<g id="a_edge6_Node000006_Node000007"><a xlink:title=" ">
<path fill="none" stroke="#63b8ff" d="M311.02,-32.48C318.29,-35.28 325.74,-38.19 332.75,-41 351.29,-48.43 371.55,-56.85 389.28,-64.33"/>
<polygon fill="#63b8ff" stroke="#63b8ff" points="387.43,-67.35 398,-68.02 390.15,-60.9 387.43,-67.35"/>
</a>
</g>
</g>
<!-- Node7&#45;&gt;Node2 -->
<g id="edge7_Node000007_Node000002" class="edge">
<title>Node7&#45;&gt;Node2</title>
<g id="a_edge7_Node000007_Node000002"><a xlink:title=" ">
<path fill="none" stroke="#63b8ff" d="M508.77,-97.86C517.45,-99.48 525.83,-101.03 533.14,-102.39"/>
<polygon fill="#63b8ff" stroke="#63b8ff" points="532.33,-105.8 542.8,-104.19 533.61,-98.92 532.33,-105.8"/>
</a>
</g>
</g>
</g>
</svg>

<g id="navigator" transform="translate(0 0)" fill="#404254">
  <rect fill="#f2f5e9" fill-opacity="0.5" stroke="#606060" stroke-width=".5" x="0" y="0" width="60" height="60"/>
  <use id="zoomplus" xlink:href="#zoomPlus" x="17" y="9" onmousedown="handleZoom(evt,'in')"/>
  <use id="zoomminus" xlink:href="#zoomMin" x="42" y="9" onmousedown="handleZoom(evt,'out')"/>
  <use id="reset" xlink:href="#resetDef" x="30" y="36" onmousedown="handleReset()"/>
   <use id="arrowup" xlink:href="#arrowUp" x="0" y="0" onmousedown="handlePan(0,-1)"/>
  <use id="arrowright" xlink:href="#arrowRight" x="0" y="0" onmousedown="handlePan(1,0)"/>
  <use id="arrowdown" xlink:href="#arrowDown" x="0" y="0" onmousedown="handlePan(0,1)"/>
  <use id="arrowleft" xlink:href="#arrowLeft" x="0" y="0" onmousedown="handlePan(-1,0)"/>
</g>
<svg viewBox="0 0 15 15" width="100%" height="30px" preserveAspectRatio="xMaxYMin meet">
 <g id="arrow_out" transform="scale(0.3 0.3)">
  <a xlink:href="classediteurpanovisu_1_1EditeurPanovisu_a23ec8d67f8390307a30502a455b08eab_cgraph_org.svg" target="_base">
   <rect id="button" ry="5" rx="5" y="6" x="6" height="38" width="38"
        fill="#f2f5e9" fill-opacity="0.5" stroke="#606060" stroke-width="1.0"/>
   <path id="arrow"
     d="M 11.500037,31.436501 C 11.940474,20.09759 22.043105,11.32322 32.158766,21.979434 L 37.068811,17.246167 C 37.068811,17.246167 37.088388,32 37.088388,32 L 22.160133,31.978069 C 22.160133,31.978069 26.997745,27.140456 26.997745,27.140456 C 18.528582,18.264221 13.291696,25.230495 11.500037,31.436501 z"
     style="fill:#404040;"/>
  </a>
 </g>
</svg>

<style type='text/css'>
<![CDATA[
[data-mouse-over-selected='false'] { opacity: 0.7; }
[data-mouse-over-selected='true']  { opacity: 1.0; }
]]>
</style>
<script type="application/ecmascript"><![CDATA[
document.addEventListener('DOMContentLoaded', (event) => {
  highlightEdges();
  highlightAdjacentNodes();
});
]]></script>
</svg>
