<?xml version="1.0" encoding="UTF-8" standalone="no"?>
<!DOCTYPE svg PUBLIC "-//W3C//DTD SVG 1.1//EN"
 "http://www.w3.org/Graphics/SVG/1.1/DTD/svg11.dtd">
<!-- Generated by graphviz version 13.1.2 (20250808.2320)
 -->
<!-- Title: editeurpanovisu.OllamaService.getOllamaModel Pages: 1 -->
<svg width="1014pt" height="62pt"
 viewBox="0.00 0.00 1014.00 62.00" xmlns="http://www.w3.org/2000/svg" xmlns:xlink="http://www.w3.org/1999/xlink">
<g id="graph0" class="graph" transform="scale(1 1) rotate(0) translate(4 58)">
<title>editeurpanovisu.OllamaService.getOllamaModel</title>
<!-- Node1 -->
<g id="Node000001" class="node">
<title>Node1</title>
<g id="a_Node000001"><a xlink:title="Retourne le modèle Ollama actuellement configuré">
<polygon fill="#999999" stroke="#666666" points="1005.5,-54 838,-54 838,-22 1005.5,-22 1005.5,-54"/>
<text xml:space="preserve" text-anchor="start" x="846" y="-40.5" font-family="Helvetica,sans-Serif" font-size="10.00">editeurpanovisu.OllamaService.get</text>
<text xml:space="preserve" text-anchor="middle" x="921.75" y="-28.5" font-family="Helvetica,sans-Serif" font-size="10.00">OllamaModel</text>
</a>
</g>
</g>
<!-- Node2 -->
<g id="Node000002" class="node">
<title>Node2</title>
<g id="a_Node000002"><a xlink:href="classediteurpanovisu_1_1ConfigDialogController.html#a228e9366c0d6a335d6bb5e6b8a09ef78" target="_top" xlink:title=" ">
<polygon fill="white" stroke="#666666" points="600,-54 456.5,-54 456.5,-22 600,-22 600,-54"/>
<text xml:space="preserve" text-anchor="start" x="464.5" y="-40.5" font-family="Helvetica,sans-Serif" font-size="10.00">editeurpanovisu.ConfigDialog</text>
<text xml:space="preserve" text-anchor="middle" x="528.25" y="-28.5" font-family="Helvetica,sans-Serif" font-size="10.00">Controller.afficheFenetre</text>
</a>
</g>
</g>
<!-- Node1&#45;&gt;Node2 -->
<g id="edge1_Node000001_Node000002" class="edge">
<title>Node1&#45;&gt;Node2</title>
<g id="a_edge1_Node000001_Node000002"><a xlink:title=" ">
<path fill="none" stroke="#63b8ff" d="M826.44,-40.6C818.18,-40.76 809.94,-40.9 802,-41 728.23,-41.93 709.77,-42.04 636,-41 624.51,-40.84 612.32,-40.58 600.45,-40.28"/>
<polygon fill="#63b8ff" stroke="#63b8ff" points="826.27,-44.1 836.19,-40.4 826.12,-37.11 826.27,-44.1"/>
</a>
</g>
</g>
<!-- Node5 -->
<g id="Node000005" class="node">
<title>Node5</title>
<g id="a_Node000005"><a xlink:href="classediteurpanovisu_1_1ConfigDialogController.html#a5762aa9e0ff14797e8293fc3c45c9761" target="_top" xlink:title="Sauvegarde les modèles IA sélectionnés dans preferences.cfg.">
<polygon fill="white" stroke="#666666" points="802,-32 636,-32 636,0 802,0 802,-32"/>
<text xml:space="preserve" text-anchor="start" x="644" y="-18.5" font-family="Helvetica,sans-Serif" font-size="10.00">editeurpanovisu.ConfigDialog</text>
<text xml:space="preserve" text-anchor="middle" x="719" y="-6.5" font-family="Helvetica,sans-Serif" font-size="10.00">Controller.saveModelsPreferences</text>
</a>
</g>
</g>
<!-- Node1&#45;&gt;Node5 -->
<g id="edge4_Node000001_Node000005" class="edge">
<title>Node1&#45;&gt;Node5</title>
<g id="a_edge4_Node000001_Node000005"><a xlink:title=" ">
<path fill="none" stroke="#63b8ff" d="M826.38,-27.66C818.36,-26.78 810.3,-25.9 802.39,-25.03"/>
<polygon fill="#63b8ff" stroke="#63b8ff" points="825.82,-31.12 836.14,-28.73 826.58,-24.16 825.82,-31.12"/>
</a>
</g>
</g>
<!-- Node3 -->
<g id="Node000003" class="node">
<title>Node3</title>
<g id="a_Node000003"><a xlink:href="classediteurpanovisu_1_1EditeurPanovisu.html#ac912b80c1f2ac97def60ff005c5c480b" target="_top" xlink:title=" ">
<polygon fill="white" stroke="#666666" points="420.5,-48 216.25,-48 216.25,-28 420.5,-28 420.5,-48"/>
<text xml:space="preserve" text-anchor="middle" x="318.38" y="-34.5" font-family="Helvetica,sans-Serif" font-size="10.00">editeurpanovisu.EditeurPanovisu.creeMenu</text>
</a>
</g>
</g>
<!-- Node2&#45;&gt;Node3 -->
<g id="edge2_Node000002_Node000003" class="edge">
<title>Node2&#45;&gt;Node3</title>
<g id="a_edge2_Node000002_Node000003"><a xlink:title=" ">
<path fill="none" stroke="#63b8ff" d="M444.61,-38C436.74,-38 428.7,-38 420.68,-38"/>
<polygon fill="#63b8ff" stroke="#63b8ff" points="444.49,-41.5 454.49,-38 444.49,-34.5 444.49,-41.5"/>
</a>
</g>
</g>
<!-- Node4 -->
<g id="Node000004" class="node">
<title>Node4</title>
<g id="a_Node000004"><a xlink:href="classediteurpanovisu_1_1EditeurPanovisu.html#a86c393eee88f54c694db994ddd85b90d" target="_top" xlink:title=" ">
<polygon fill="white" stroke="#666666" points="180.25,-54 0,-54 0,-22 180.25,-22 180.25,-54"/>
<text xml:space="preserve" text-anchor="start" x="8" y="-40.5" font-family="Helvetica,sans-Serif" font-size="10.00">editeurpanovisu.EditeurPanovisu.cree</text>
<text xml:space="preserve" text-anchor="middle" x="90.12" y="-28.5" font-family="Helvetica,sans-Serif" font-size="10.00">Environnement</text>
</a>
</g>
</g>
<!-- Node3&#45;&gt;Node4 -->
<g id="edge3_Node000003_Node000004" class="edge">
<title>Node3&#45;&gt;Node4</title>
<g id="a_edge3_Node000003_Node000004"><a xlink:title=" ">
<path fill="none" stroke="#63b8ff" d="M204.51,-38C196.49,-38 188.46,-38 180.6,-38"/>
<polygon fill="#63b8ff" stroke="#63b8ff" points="204.32,-41.5 214.32,-38 204.32,-34.5 204.32,-41.5"/>
</a>
</g>
</g>
<!-- Node5&#45;&gt;Node2 -->
<g id="edge5_Node000005_Node000002" class="edge">
<title>Node5&#45;&gt;Node2</title>
<g id="a_edge5_Node000005_Node000002"><a xlink:title=" ">
<path fill="none" stroke="#63b8ff" d="M624.35,-26.92C616.25,-27.86 608.15,-28.8 600.28,-29.72"/>
<polygon fill="#63b8ff" stroke="#63b8ff" points="624.73,-30.4 634.26,-25.76 623.92,-23.44 624.73,-30.4"/>
</a>
</g>
</g>
</g>
</svg>
