<?xml version="1.0" encoding="UTF-8" standalone="no"?>
<!DOCTYPE svg PUBLIC "-//W3C//DTD SVG 1.1//EN"
 "http://www.w3.org/Graphics/SVG/1.1/DTD/svg11.dtd">
<!-- Generated by graphviz version 13.1.2 (20250808.2320)
 -->
<!-- Title: editeurpanovisu.ThemeManager.addCustomStyles Pages: 1 -->
<svg width="1335pt" height="266pt"
 viewBox="0.00 0.00 1335.00 266.00" xmlns="http://www.w3.org/2000/svg" xmlns:xlink="http://www.w3.org/1999/xlink">
<g id="graph0" class="graph" transform="scale(1 1) rotate(0) translate(4 262)">
<title>editeurpanovisu.ThemeManager.addCustomStyles</title>
<!-- Node1 -->
<g id="Node000001" class="node">
<title>Node1</title>
<g id="a_Node000001"><a xlink:title="Ajoute des styles personnalisés complémentaires pour les composants spécifiques de l&#39;application.">
<polygon fill="#999999" stroke="#666666" points="1326.75,-114 1153.25,-114 1153.25,-82 1326.75,-82 1326.75,-114"/>
<text xml:space="preserve" text-anchor="start" x="1161.25" y="-100.5" font-family="Helvetica,sans-Serif" font-size="10.00">editeurpanovisu.ThemeManager.add</text>
<text xml:space="preserve" text-anchor="middle" x="1240" y="-88.5" font-family="Helvetica,sans-Serif" font-size="10.00">CustomStyles</text>
</a>
</g>
</g>
<!-- Node2 -->
<g id="Node000002" class="node">
<title>Node2</title>
<g id="a_Node000002"><a xlink:href="classediteurpanovisu_1_1ThemeManager.html#a5e8923bdccce312cd3cad810c607135f" target="_top" xlink:title="Applique un thème à une scène JavaFX.">
<polygon fill="white" stroke="#666666" points="1117.25,-114 936.25,-114 936.25,-82 1117.25,-82 1117.25,-114"/>
<text xml:space="preserve" text-anchor="start" x="944.25" y="-100.5" font-family="Helvetica,sans-Serif" font-size="10.00">editeurpanovisu.ThemeManager.apply</text>
<text xml:space="preserve" text-anchor="middle" x="1026.75" y="-88.5" font-family="Helvetica,sans-Serif" font-size="10.00">Theme</text>
</a>
</g>
</g>
<!-- Node1&#45;&gt;Node2 -->
<g id="edge1_Node000001_Node000002" class="edge">
<title>Node1&#45;&gt;Node2</title>
<g id="a_edge1_Node000001_Node000002"><a xlink:title=" ">
<path fill="none" stroke="#63b8ff" d="M1141.51,-98C1133.5,-98 1125.43,-98 1117.48,-98"/>
<polygon fill="#63b8ff" stroke="#63b8ff" points="1141.26,-101.5 1151.26,-98 1141.26,-94.5 1141.26,-101.5"/>
</a>
</g>
</g>
<!-- Node3 -->
<g id="Node000003" class="node">
<title>Node3</title>
<g id="a_Node000003"><a xlink:href="classediteurpanovisu_1_1EquiCubeDialogController.html#a05e62237b5363eba15018189320cf5db" target="_top" xlink:title=" ">
<polygon fill="white" stroke="#666666" points="883.38,-158 733.12,-158 733.12,-126 883.38,-126 883.38,-158"/>
<text xml:space="preserve" text-anchor="start" x="741.12" y="-144.5" font-family="Helvetica,sans-Serif" font-size="10.00">editeurpanovisu.EquiCube</text>
<text xml:space="preserve" text-anchor="middle" x="808.25" y="-132.5" font-family="Helvetica,sans-Serif" font-size="10.00">DialogController.afficheFenetre</text>
</a>
</g>
</g>
<!-- Node2&#45;&gt;Node3 -->
<g id="edge2_Node000002_Node000003" class="edge">
<title>Node2&#45;&gt;Node3</title>
<g id="a_edge2_Node000002_Node000003"><a xlink:title=" ">
<path fill="none" stroke="#63b8ff" d="M933.9,-116.67C917.13,-120.07 899.83,-123.59 883.64,-126.88"/>
<polygon fill="#63b8ff" stroke="#63b8ff" points="934.24,-120.17 943.34,-114.75 932.85,-113.31 934.24,-120.17"/>
</a>
</g>
</g>
<!-- Node6 -->
<g id="Node000006" class="node">
<title>Node6</title>
<g id="a_Node000006"><a xlink:href="classediteurpanovisu_1_1EditeurPanovisu.html#a86c393eee88f54c694db994ddd85b90d" target="_top" xlink:title=" ">
<polygon fill="white" stroke="#666666" points="180.25,-114 0,-114 0,-82 180.25,-82 180.25,-114"/>
<text xml:space="preserve" text-anchor="start" x="8" y="-100.5" font-family="Helvetica,sans-Serif" font-size="10.00">editeurpanovisu.EditeurPanovisu.cree</text>
<text xml:space="preserve" text-anchor="middle" x="90.12" y="-88.5" font-family="Helvetica,sans-Serif" font-size="10.00">Environnement</text>
</a>
</g>
</g>
<!-- Node2&#45;&gt;Node6 -->
<g id="edge12_Node000002_Node000006" class="edge">
<title>Node2&#45;&gt;Node6</title>
<g id="a_edge12_Node000002_Node000006"><a xlink:title=" ">
<path fill="none" stroke="#63b8ff" d="M924.87,-98C741.23,-98 355.23,-98 180.47,-98"/>
<polygon fill="#63b8ff" stroke="#63b8ff" points="924.62,-101.5 934.62,-98 924.62,-94.5 924.62,-101.5"/>
</a>
</g>
</g>
<!-- Node8 -->
<g id="Node000008" class="node">
<title>Node8</title>
<g id="a_Node000008"><a xlink:href="classediteurpanovisu_1_1EditeurPanovisu.html#adc41ea81b5b3c25ced8616a3eff2b23d" target="_top" xlink:title="Affiche le dialogue de sélection de thème.">
<polygon fill="white" stroke="#666666" points="664.88,-258 471.88,-258 471.88,-226 664.88,-226 664.88,-258"/>
<text xml:space="preserve" text-anchor="start" x="479.88" y="-244.5" font-family="Helvetica,sans-Serif" font-size="10.00">editeurpanovisu.EditeurPanovisu.afficher</text>
<text xml:space="preserve" text-anchor="middle" x="568.38" y="-232.5" font-family="Helvetica,sans-Serif" font-size="10.00">DialogueTheme</text>
</a>
</g>
</g>
<!-- Node2&#45;&gt;Node8 -->
<g id="edge8_Node000002_Node000008" class="edge">
<title>Node2&#45;&gt;Node8</title>
<g id="a_edge8_Node000002_Node000008"><a xlink:title=" ">
<path fill="none" stroke="#63b8ff" d="M991.24,-120.42C966.72,-135.47 932.53,-154.74 900.25,-167 823.58,-196.13 732.42,-215.76 665.22,-227.61"/>
<polygon fill="#63b8ff" stroke="#63b8ff" points="992.88,-123.52 999.52,-115.26 989.18,-117.58 992.88,-123.52"/>
</a>
</g>
</g>
<!-- Node9 -->
<g id="Node000009" class="node">
<title>Node9</title>
<g id="a_Node000009"><a xlink:href="classediteurpanovisu_1_1ThemeManager.html#ac8ec0b05c7bc5e54d1aa6ef582381212" target="_top" xlink:title="Applique le thème sauvegardé à une scène.">
<polygon fill="white" stroke="#666666" points="408.88,-70 227.88,-70 227.88,-38 408.88,-38 408.88,-70"/>
<text xml:space="preserve" text-anchor="start" x="235.88" y="-56.5" font-family="Helvetica,sans-Serif" font-size="10.00">editeurpanovisu.ThemeManager.apply</text>
<text xml:space="preserve" text-anchor="middle" x="318.38" y="-44.5" font-family="Helvetica,sans-Serif" font-size="10.00">SavedTheme</text>
</a>
</g>
</g>
<!-- Node2&#45;&gt;Node9 -->
<g id="edge10_Node000002_Node000009" class="edge">
<title>Node2&#45;&gt;Node9</title>
<g id="a_edge10_Node000002_Node000009"><a xlink:title=" ">
<path fill="none" stroke="#63b8ff" d="M924.72,-86.2C916.45,-85.4 908.21,-84.65 900.25,-84 726.63,-69.85 523.25,-61.15 409.04,-56.98"/>
<polygon fill="#63b8ff" stroke="#63b8ff" points="924.2,-89.67 934.5,-87.18 924.9,-82.7 924.2,-89.67"/>
</a>
</g>
</g>
<!-- Node10 -->
<g id="Node000010" class="node">
<title>Node10</title>
<g id="a_Node000010"><a xlink:href="classediteurpanovisu_1_1ThemeManager.html#ac3f451c78b428bc29ddeb64f25a2aff4" target="_top" xlink:title="Bascule entre thème clair et sombre (utilise les thèmes Primer par défaut)">
<polygon fill="white" stroke="#666666" points="900.25,-32 716.25,-32 716.25,0 900.25,0 900.25,-32"/>
<text xml:space="preserve" text-anchor="start" x="724.25" y="-18.5" font-family="Helvetica,sans-Serif" font-size="10.00">editeurpanovisu.ThemeManager.toggle</text>
<text xml:space="preserve" text-anchor="middle" x="808.25" y="-6.5" font-family="Helvetica,sans-Serif" font-size="10.00">DarkMode</text>
</a>
</g>
</g>
<!-- Node2&#45;&gt;Node10 -->
<g id="edge13_Node000002_Node000010" class="edge">
<title>Node2&#45;&gt;Node10</title>
<g id="a_edge13_Node000002_Node000010"><a xlink:title=" ">
<path fill="none" stroke="#63b8ff" d="M977.85,-77.17C954.59,-67.31 926.13,-55.61 900.25,-46 887.77,-41.37 874.21,-36.7 861.45,-32.47"/>
<polygon fill="#63b8ff" stroke="#63b8ff" points="976.18,-80.27 986.75,-80.97 978.93,-73.83 976.18,-80.27"/>
</a>
</g>
</g>
<!-- Node4 -->
<g id="Node000004" class="node">
<title>Node4</title>
<g id="a_Node000004"><a xlink:href="classediteurpanovisu_1_1EditeurPanovisu.html#a93957c2097ff96e3588049e82b749c2d" target="_top" xlink:title=" ">
<polygon fill="white" stroke="#666666" points="680.25,-208 456.5,-208 456.5,-176 680.25,-176 680.25,-208"/>
<text xml:space="preserve" text-anchor="start" x="464.5" y="-194.5" font-family="Helvetica,sans-Serif" font-size="10.00">editeurpanovisu.EditeurPanovisu.transformation</text>
<text xml:space="preserve" text-anchor="middle" x="568.38" y="-182.5" font-family="Helvetica,sans-Serif" font-size="10.00">Cube2Equi</text>
</a>
</g>
</g>
<!-- Node3&#45;&gt;Node4 -->
<g id="edge3_Node000003_Node000004" class="edge">
<title>Node3&#45;&gt;Node4</title>
<g id="a_edge3_Node000003_Node000004"><a xlink:title=" ">
<path fill="none" stroke="#63b8ff" d="M721.39,-160.05C697.37,-165.1 671.4,-170.56 647.83,-175.51"/>
<polygon fill="#63b8ff" stroke="#63b8ff" points="722.09,-163.48 731.16,-157.99 720.65,-156.63 722.09,-163.48"/>
</a>
</g>
</g>
<!-- Node7 -->
<g id="Node000007" class="node">
<title>Node7</title>
<g id="a_Node000007"><a xlink:href="classediteurpanovisu_1_1EditeurPanovisu.html#a11f8778a8326d6a7dee94344a246ec02" target="_top" xlink:title=" ">
<polygon fill="white" stroke="#666666" points="680.25,-158 456.5,-158 456.5,-126 680.25,-126 680.25,-158"/>
<text xml:space="preserve" text-anchor="start" x="464.5" y="-144.5" font-family="Helvetica,sans-Serif" font-size="10.00">editeurpanovisu.EditeurPanovisu.transformation</text>
<text xml:space="preserve" text-anchor="middle" x="568.38" y="-132.5" font-family="Helvetica,sans-Serif" font-size="10.00">Equi2Cube</text>
</a>
</g>
</g>
<!-- Node3&#45;&gt;Node7 -->
<g id="edge6_Node000003_Node000007" class="edge">
<title>Node3&#45;&gt;Node7</title>
<g id="a_edge6_Node000003_Node000007"><a xlink:title=" ">
<path fill="none" stroke="#63b8ff" d="M721.25,-142C708.09,-142 694.35,-142 680.75,-142"/>
<polygon fill="#63b8ff" stroke="#63b8ff" points="721.12,-145.5 731.12,-142 721.12,-138.5 721.12,-145.5"/>
</a>
</g>
</g>
<!-- Node5 -->
<g id="Node000005" class="node">
<title>Node5</title>
<g id="a_Node000005"><a xlink:href="classediteurpanovisu_1_1EditeurPanovisu.html#ac912b80c1f2ac97def60ff005c5c480b" target="_top" xlink:title=" ">
<polygon fill="white" stroke="#666666" points="420.5,-177 216.25,-177 216.25,-157 420.5,-157 420.5,-177"/>
<text xml:space="preserve" text-anchor="middle" x="318.38" y="-163.5" font-family="Helvetica,sans-Serif" font-size="10.00">editeurpanovisu.EditeurPanovisu.creeMenu</text>
</a>
</g>
</g>
<!-- Node4&#45;&gt;Node5 -->
<g id="edge4_Node000004_Node000005" class="edge">
<title>Node4&#45;&gt;Node5</title>
<g id="a_edge4_Node000004_Node000005"><a xlink:title=" ">
<path fill="none" stroke="#63b8ff" d="M444.78,-179.64C436.78,-178.83 428.77,-178.03 420.88,-177.23"/>
<polygon fill="#63b8ff" stroke="#63b8ff" points="444.26,-183.11 454.56,-180.63 444.97,-176.14 444.26,-183.11"/>
</a>
</g>
</g>
<!-- Node5&#45;&gt;Node6 -->
<g id="edge5_Node000005_Node000006" class="edge">
<title>Node5&#45;&gt;Node6</title>
<g id="a_edge5_Node000005_Node000006"><a xlink:title=" ">
<path fill="none" stroke="#63b8ff" d="M272.18,-153.22C235.61,-142.06 183.99,-126.32 145.23,-114.5"/>
<polygon fill="#63b8ff" stroke="#63b8ff" points="270.98,-156.51 281.56,-156.08 273.02,-149.81 270.98,-156.51"/>
</a>
</g>
</g>
<!-- Node7&#45;&gt;Node5 -->
<g id="edge7_Node000007_Node000005" class="edge">
<title>Node7&#45;&gt;Node5</title>
<g id="a_edge7_Node000007_Node000005"><a xlink:title=" ">
<path fill="none" stroke="#63b8ff" d="M444.78,-154.36C436.78,-155.17 428.77,-155.97 420.88,-156.77"/>
<polygon fill="#63b8ff" stroke="#63b8ff" points="444.97,-157.86 454.56,-153.37 444.26,-150.89 444.97,-157.86"/>
</a>
</g>
</g>
<!-- Node8&#45;&gt;Node5 -->
<g id="edge9_Node000008_Node000005" class="edge">
<title>Node8&#45;&gt;Node5</title>
<g id="a_edge9_Node000008_Node000005"><a xlink:title=" ">
<path fill="none" stroke="#63b8ff" d="M477.68,-222.81C470.48,-220.96 463.35,-219.01 456.5,-217 416.99,-205.39 372.39,-188.38 345.08,-177.49"/>
<polygon fill="#63b8ff" stroke="#63b8ff" points="476.59,-226.15 487.15,-225.18 478.3,-219.36 476.59,-226.15"/>
</a>
</g>
</g>
<!-- Node9&#45;&gt;Node6 -->
<g id="edge11_Node000009_Node000006" class="edge">
<title>Node9&#45;&gt;Node6</title>
<g id="a_edge11_Node000009_Node000006"><a xlink:title=" ">
<path fill="none" stroke="#63b8ff" d="M221.81,-72.58C206.59,-75.55 190.92,-78.59 175.97,-81.5"/>
<polygon fill="#63b8ff" stroke="#63b8ff" points="222.17,-76.08 231.32,-70.74 220.84,-69.21 222.17,-76.08"/>
</a>
</g>
</g>
</g>
</svg>
