<?xml version="1.0" encoding="UTF-8" standalone="no"?>
<!DOCTYPE svg PUBLIC "-//W3C//DTD SVG 1.1//EN"
 "http://www.w3.org/Graphics/SVG/1.1/DTD/svg11.dtd">
<!-- Generated by graphviz version 13.1.2 (20250808.2320)
 -->
<!-- Title: editeurpanovisu.EditeurPanovisu.setStrCurrentDir Pages: 1 -->
<svg width="1553pt" height="172pt"
 viewBox="0.00 0.00 1553.00 172.00" xmlns="http://www.w3.org/2000/svg" xmlns:xlink="http://www.w3.org/1999/xlink">
<g id="graph0" class="graph" transform="scale(1 1) rotate(0) translate(4 168)">
<title>editeurpanovisu.EditeurPanovisu.setStrCurrentDir</title>
<!-- Node1 -->
<g id="Node000001" class="node">
<title>Node1</title>
<g id="a_Node000001"><a xlink:title=" ">
<polygon fill="#999999" stroke="#666666" points="1544.5,-120 1369.5,-120 1369.5,-88 1544.5,-88 1544.5,-120"/>
<text xml:space="preserve" text-anchor="start" x="1377.5" y="-106.5" font-family="Helvetica,sans-Serif" font-size="10.00">editeurpanovisu.EditeurPanovisu.set</text>
<text xml:space="preserve" text-anchor="middle" x="1457" y="-94.5" font-family="Helvetica,sans-Serif" font-size="10.00">StrCurrentDir</text>
</a>
</g>
</g>
<!-- Node2 -->
<g id="Node000002" class="node">
<title>Node2</title>
<g id="a_Node000002"><a xlink:href="classediteurpanovisu_1_1EditeurPanovisu.html#adf3136c7d8546e073ebf626494bd9b58" target="_top" xlink:title=" ">
<polygon fill="white" stroke="#666666" points="890.88,-164 719.62,-164 719.62,-132 890.88,-132 890.88,-164"/>
<text xml:space="preserve" text-anchor="start" x="727.62" y="-150.5" font-family="Helvetica,sans-Serif" font-size="10.00">editeurpanovisu.EditeurPanovisu.lis</text>
<text xml:space="preserve" text-anchor="middle" x="805.25" y="-138.5" font-family="Helvetica,sans-Serif" font-size="10.00">FichierConfig</text>
</a>
</g>
</g>
<!-- Node1&#45;&gt;Node2 -->
<g id="edge1_Node000001_Node000002" class="edge">
<title>Node1&#45;&gt;Node2</title>
<g id="a_edge1_Node000001_Node000002"><a xlink:title=" ">
<path fill="none" stroke="#63b8ff" d="M1357.85,-115.72C1349.62,-116.55 1341.42,-117.32 1333.5,-118 1177.75,-131.32 995.59,-140.2 891.28,-144.65"/>
<polygon fill="#63b8ff" stroke="#63b8ff" points="1357.97,-119.22 1367.56,-114.71 1357.25,-112.26 1357.97,-119.22"/>
</a>
</g>
</g>
<!-- Node4 -->
<g id="Node000004" class="node">
<title>Node4</title>
<g id="a_Node000004"><a xlink:href="classediteurpanovisu_1_1EditeurPanovisu.html#a2b3125ffe2e6291efacf19df6cb30a8d" target="_top" xlink:title=" ">
<polygon fill="white" stroke="#666666" points="895.75,-114 714.75,-114 714.75,-94 895.75,-94 895.75,-114"/>
<text xml:space="preserve" text-anchor="middle" x="805.25" y="-100.5" font-family="Helvetica,sans-Serif" font-size="10.00">editeurpanovisu.EditeurPanovisu.start</text>
</a>
</g>
</g>
<!-- Node1&#45;&gt;Node4 -->
<g id="edge3_Node000001_Node000004" class="edge">
<title>Node1&#45;&gt;Node4</title>
<g id="a_edge3_Node000001_Node000004"><a xlink:title=" ">
<path fill="none" stroke="#63b8ff" d="M1357.57,-104C1232.17,-104 1017.21,-104 896.08,-104"/>
<polygon fill="#63b8ff" stroke="#63b8ff" points="1357.53,-107.5 1367.53,-104 1357.53,-100.5 1357.53,-107.5"/>
</a>
</g>
</g>
<!-- Node7 -->
<g id="Node000007" class="node">
<title>Node7</title>
<g id="a_Node000007"><a xlink:href="classediteurpanovisu_1_1EditeurPanovisu.html#a53cccf6a6b2693c872947460b66ae8ee" target="_top" xlink:title=" ">
<polygon fill="white" stroke="#666666" points="1333.5,-76 1158.5,-76 1158.5,-44 1333.5,-44 1333.5,-76"/>
<text xml:space="preserve" text-anchor="start" x="1166.5" y="-62.5" font-family="Helvetica,sans-Serif" font-size="10.00">editeurpanovisu.EditeurPanovisu.tsk</text>
<text xml:space="preserve" text-anchor="middle" x="1246" y="-50.5" font-family="Helvetica,sans-Serif" font-size="10.00">ChargeListeFichiers</text>
</a>
</g>
</g>
<!-- Node1&#45;&gt;Node7 -->
<g id="edge7_Node000001_Node000007" class="edge">
<title>Node1&#45;&gt;Node7</title>
<g id="a_edge7_Node000001_Node000007"><a xlink:title=" ">
<path fill="none" stroke="#63b8ff" d="M1366.9,-85.24C1353.1,-82.34 1338.92,-79.35 1325.37,-76.5"/>
<polygon fill="#63b8ff" stroke="#63b8ff" points="1365.89,-88.61 1376.4,-87.24 1367.33,-81.76 1365.89,-88.61"/>
</a>
</g>
</g>
<!-- Node3 -->
<g id="Node000003" class="node">
<title>Node3</title>
<g id="a_Node000003"><a xlink:href="classediteurpanovisu_1_1EditeurPanovisu.html#a86c393eee88f54c694db994ddd85b90d" target="_top" xlink:title=" ">
<polygon fill="white" stroke="#666666" points="180.25,-120 0,-120 0,-88 180.25,-88 180.25,-120"/>
<text xml:space="preserve" text-anchor="start" x="8" y="-106.5" font-family="Helvetica,sans-Serif" font-size="10.00">editeurpanovisu.EditeurPanovisu.cree</text>
<text xml:space="preserve" text-anchor="middle" x="90.12" y="-94.5" font-family="Helvetica,sans-Serif" font-size="10.00">Environnement</text>
</a>
</g>
</g>
<!-- Node2&#45;&gt;Node3 -->
<g id="edge2_Node000002_Node000003" class="edge">
<title>Node2&#45;&gt;Node3</title>
<g id="a_edge2_Node000002_Node000003"><a xlink:title=" ">
<path fill="none" stroke="#63b8ff" d="M707.79,-143.09C637.99,-139.44 541.39,-134.22 456.5,-129 362.26,-123.2 254.41,-115.72 180.45,-110.46"/>
<polygon fill="#63b8ff" stroke="#63b8ff" points="707.52,-146.58 717.69,-143.6 707.88,-139.59 707.52,-146.58"/>
</a>
</g>
</g>
<!-- Node5 -->
<g id="Node000005" class="node">
<title>Node5</title>
<g id="a_Node000005"><a xlink:href="classediteurpanovisu_1_1EditeurPanovisu.html#a94e36b9e9d09ab1a4c852b8a8cefa927" target="_top" xlink:title=" ">
<polygon fill="white" stroke="#666666" points="663,-120 472.25,-120 472.25,-88 663,-88 663,-120"/>
<text xml:space="preserve" text-anchor="start" x="480.25" y="-106.5" font-family="Helvetica,sans-Serif" font-size="10.00">editeurpanovisu.EditeurPanovisu.genere</text>
<text xml:space="preserve" text-anchor="middle" x="567.62" y="-94.5" font-family="Helvetica,sans-Serif" font-size="10.00">Visite</text>
</a>
</g>
</g>
<!-- Node4&#45;&gt;Node5 -->
<g id="edge4_Node000004_Node000005" class="edge">
<title>Node4&#45;&gt;Node5</title>
<g id="a_edge4_Node000004_Node000005"><a xlink:title=" ">
<path fill="none" stroke="#63b8ff" d="M702.99,-104C689.79,-104 676.31,-104 663.22,-104"/>
<polygon fill="#63b8ff" stroke="#63b8ff" points="702.98,-107.5 712.98,-104 702.98,-100.5 702.98,-107.5"/>
</a>
</g>
</g>
<!-- Node6 -->
<g id="Node000006" class="node">
<title>Node6</title>
<g id="a_Node000006"><a xlink:href="classediteurpanovisu_1_1EditeurPanovisu.html#ac912b80c1f2ac97def60ff005c5c480b" target="_top" xlink:title=" ">
<polygon fill="white" stroke="#666666" points="420.5,-92 216.25,-92 216.25,-72 420.5,-72 420.5,-92"/>
<text xml:space="preserve" text-anchor="middle" x="318.38" y="-78.5" font-family="Helvetica,sans-Serif" font-size="10.00">editeurpanovisu.EditeurPanovisu.creeMenu</text>
</a>
</g>
</g>
<!-- Node5&#45;&gt;Node6 -->
<g id="edge5_Node000005_Node000006" class="edge">
<title>Node5&#45;&gt;Node6</title>
<g id="a_edge5_Node000005_Node000006"><a xlink:title=" ">
<path fill="none" stroke="#63b8ff" d="M460.99,-94.6C447.68,-93.42 434.09,-92.21 420.85,-91.03"/>
<polygon fill="#63b8ff" stroke="#63b8ff" points="460.31,-98.05 470.58,-95.45 460.93,-91.08 460.31,-98.05"/>
</a>
</g>
</g>
<!-- Node6&#45;&gt;Node3 -->
<g id="edge6_Node000006_Node000003" class="edge">
<title>Node6&#45;&gt;Node3</title>
<g id="a_edge6_Node000006_Node000003"><a xlink:title=" ">
<path fill="none" stroke="#63b8ff" d="M204.51,-92.97C196.49,-93.75 188.46,-94.54 180.6,-95.3"/>
<polygon fill="#63b8ff" stroke="#63b8ff" points="204.71,-96.47 214.33,-92.02 204.03,-89.5 204.71,-96.47"/>
</a>
</g>
</g>
<!-- Node8 -->
<g id="Node000008" class="node">
<title>Node8</title>
<g id="a_Node000008"><a xlink:href="classediteurpanovisu_1_1EditeurPanovisu.html#a924d3ccff3e4f402d2309cd2eade3237" target="_top" xlink:title=" ">
<polygon fill="white" stroke="#666666" points="678.75,-32 456.5,-32 456.5,0 678.75,0 678.75,-32"/>
<text xml:space="preserve" text-anchor="start" x="464.5" y="-18.5" font-family="Helvetica,sans-Serif" font-size="10.00">editeurpanovisu.EditeurPanovisu.panoramiques</text>
<text xml:space="preserve" text-anchor="middle" x="567.62" y="-6.5" font-family="Helvetica,sans-Serif" font-size="10.00">Ajouter</text>
</a>
</g>
</g>
<!-- Node7&#45;&gt;Node8 -->
<g id="edge8_Node000007_Node000008" class="edge">
<title>Node7&#45;&gt;Node8</title>
<g id="a_edge8_Node000007_Node000008"><a xlink:title=" ">
<path fill="none" stroke="#63b8ff" d="M1163.82,-41.46C1150.09,-38.89 1135.94,-36.59 1122.5,-35 969.5,-16.89 791.21,-14 679.12,-14.38"/>
<polygon fill="#63b8ff" stroke="#63b8ff" points="1162.75,-44.81 1173.23,-43.28 1164.08,-37.94 1162.75,-44.81"/>
</a>
</g>
</g>
<!-- Node9 -->
<g id="Node000009" class="node">
<title>Node9</title>
<g id="a_Node000009"><a xlink:href="classediteurpanovisu_1_1EditeurPanovisu.html#ac9d449399ccd38843fa12e716f0c9611" target="_top" xlink:title=" ">
<polygon fill="white" stroke="#666666" points="1122.5,-76 931.75,-76 931.75,-44 1122.5,-44 1122.5,-76"/>
<text xml:space="preserve" text-anchor="start" x="939.75" y="-62.5" font-family="Helvetica,sans-Serif" font-size="10.00">editeurpanovisu.EditeurPanovisu.projets</text>
<text xml:space="preserve" text-anchor="middle" x="1027.12" y="-50.5" font-family="Helvetica,sans-Serif" font-size="10.00">Nouveau</text>
</a>
</g>
</g>
<!-- Node7&#45;&gt;Node9 -->
<g id="edge10_Node000007_Node000009" class="edge">
<title>Node7&#45;&gt;Node9</title>
<g id="a_edge10_Node000007_Node000009"><a xlink:title=" ">
<path fill="none" stroke="#63b8ff" d="M1146.58,-60C1138.71,-60 1130.77,-60 1122.93,-60"/>
<polygon fill="#63b8ff" stroke="#63b8ff" points="1146.52,-63.5 1156.52,-60 1146.52,-56.5 1146.52,-63.5"/>
</a>
</g>
</g>
<!-- Node8&#45;&gt;Node6 -->
<g id="edge9_Node000008_Node000006" class="edge">
<title>Node8&#45;&gt;Node6</title>
<g id="a_edge9_Node000008_Node000006"><a xlink:title=" ">
<path fill="none" stroke="#63b8ff" d="M493.85,-35.43C449.52,-47.26 394.63,-61.91 358.39,-71.59"/>
<polygon fill="#63b8ff" stroke="#63b8ff" points="494.65,-38.84 503.41,-32.87 492.84,-32.07 494.65,-38.84"/>
</a>
</g>
</g>
<!-- Node9&#45;&gt;Node4 -->
<g id="edge12_Node000009_Node000004" class="edge">
<title>Node9&#45;&gt;Node4</title>
<g id="a_edge12_Node000009_Node000004"><a xlink:title=" ">
<path fill="none" stroke="#63b8ff" d="M932.79,-78.68C907.44,-83.75 880.9,-89.06 858.7,-93.5"/>
<polygon fill="#63b8ff" stroke="#63b8ff" points="933.34,-82.14 942.45,-76.74 931.96,-75.27 933.34,-82.14"/>
</a>
</g>
</g>
<!-- Node9&#45;&gt;Node6 -->
<g id="edge11_Node000009_Node000006" class="edge">
<title>Node9&#45;&gt;Node6</title>
<g id="a_edge11_Node000009_Node000006"><a xlink:title=" ">
<path fill="none" stroke="#63b8ff" d="M920.4,-63.29C785.47,-67.49 553.67,-74.71 420.82,-78.84"/>
<polygon fill="#63b8ff" stroke="#63b8ff" points="920.14,-66.8 930.03,-62.99 919.93,-59.8 920.14,-66.8"/>
</a>
</g>
</g>
</g>
</svg>
