<?xml version="1.0" encoding="UTF-8" standalone="no"?>
<!DOCTYPE svg PUBLIC "-//W3C//DTD SVG 1.1//EN"
 "http://www.w3.org/Graphics/SVG/1.1/DTD/svg11.dtd">
<!-- Generated by graphviz version 13.1.2 (20250808.2320)
 -->
<!-- Title: editeurpanovisu.OpenRouterClient.suggestHotspots Pages: 1 -->
<svg width="556pt" height="40pt"
 viewBox="0.00 0.00 556.00 40.00" xmlns="http://www.w3.org/2000/svg" xmlns:xlink="http://www.w3.org/1999/xlink">
<g id="graph0" class="graph" transform="scale(1 1) rotate(0) translate(4 36)">
<title>editeurpanovisu.OpenRouterClient.suggestHotspots</title>
<!-- Node1 -->
<g id="Node000001" class="node">
<title>Node1</title>
<g id="a_Node000001"><a xlink:title="Suggère des hotspots pertinents pour un panorama.">
<polygon fill="#999999" stroke="#666666" points="548.25,-32 408.5,-32 408.5,0 548.25,0 548.25,-32"/>
<text xml:space="preserve" text-anchor="start" x="416.5" y="-18.5" font-family="Helvetica,sans-Serif" font-size="10.00">editeurpanovisu.OpenRouter</text>
<text xml:space="preserve" text-anchor="middle" x="478.38" y="-6.5" font-family="Helvetica,sans-Serif" font-size="10.00">Client.suggestHotspots</text>
</a>
</g>
</g>
<!-- Node2 -->
<g id="Node000002" class="node">
<title>Node2</title>
<g id="a_Node000002"><a xlink:href="classediteurpanovisu_1_1TestAIClients.html#a77fbca3f26c8ae02ffe75835740034f7" target="_top" xlink:title="Test du client OpenRouter.">
<polygon fill="white" stroke="#666666" points="372.5,-32 206.5,-32 206.5,0 372.5,0 372.5,-32"/>
<text xml:space="preserve" text-anchor="start" x="214.5" y="-18.5" font-family="Helvetica,sans-Serif" font-size="10.00">editeurpanovisu.TestAIClients.test</text>
<text xml:space="preserve" text-anchor="middle" x="289.5" y="-6.5" font-family="Helvetica,sans-Serif" font-size="10.00">OpenRouter</text>
</a>
</g>
</g>
<!-- Node1&#45;&gt;Node2 -->
<g id="edge1_Node000001_Node000002" class="edge">
<title>Node1&#45;&gt;Node2</title>
<g id="a_edge1_Node000001_Node000002"><a xlink:title=" ">
<path fill="none" stroke="#63b8ff" d="M396.67,-16C388.82,-16 380.84,-16 372.98,-16"/>
<polygon fill="#63b8ff" stroke="#63b8ff" points="396.54,-19.5 406.54,-16 396.54,-12.5 396.54,-19.5"/>
</a>
</g>
</g>
<!-- Node3 -->
<g id="Node000003" class="node">
<title>Node3</title>
<g id="a_Node000003"><a xlink:href="classediteurpanovisu_1_1TestAIClients.html#a0513dc754d9bc85fc8b50d2b9993b35a" target="_top" xlink:title=" ">
<polygon fill="white" stroke="#666666" points="170.5,-26 0,-26 0,-6 170.5,-6 170.5,-26"/>
<text xml:space="preserve" text-anchor="middle" x="85.25" y="-12.5" font-family="Helvetica,sans-Serif" font-size="10.00">editeurpanovisu.TestAIClients.main</text>
</a>
</g>
</g>
<!-- Node2&#45;&gt;Node3 -->
<g id="edge2_Node000002_Node000003" class="edge">
<title>Node2&#45;&gt;Node3</title>
<g id="a_edge2_Node000002_Node000003"><a xlink:title=" ">
<path fill="none" stroke="#63b8ff" d="M194.91,-16C186.85,-16 178.72,-16 170.74,-16"/>
<polygon fill="#63b8ff" stroke="#63b8ff" points="194.72,-19.5 204.72,-16 194.72,-12.5 194.72,-19.5"/>
</a>
</g>
</g>
</g>
</svg>
