<?xml version="1.0" encoding="UTF-8" standalone="no"?>
<!DOCTYPE svg PUBLIC "-//W3C//DTD SVG 1.1//EN"
 "http://www.w3.org/Graphics/SVG/1.1/DTD/svg11.dtd">
<!-- Generated by graphviz version 13.1.2 (20250808.2320)
 -->
<!-- Title: src/editeurpanovisu/DocumentationDialog.java Pages: 1 -->
<svg width="1610pt" height="96pt"
 viewBox="0.00 0.00 1610.00 96.00" xmlns="http://www.w3.org/2000/svg" xmlns:xlink="http://www.w3.org/1999/xlink">
<g id="graph0" class="graph" transform="scale(1 1) rotate(0) translate(4 92)">
<title>src/editeurpanovisu/DocumentationDialog.java</title>
<!-- Node1 -->
<g id="Node000001" class="node">
<title>Node1</title>
<g id="a_Node000001"><a xlink:title=" ">
<polygon fill="#999999" stroke="#666666" points="922.25,-88 788.5,-88 788.5,-56 922.25,-56 922.25,-88"/>
<text xml:space="preserve" text-anchor="start" x="796.5" y="-74.5" font-family="Helvetica,sans-Serif" font-size="10.00">src/editeurpanovisu</text>
<text xml:space="preserve" text-anchor="middle" x="855.38" y="-62.5" font-family="Helvetica,sans-Serif" font-size="10.00">/DocumentationDialog.java</text>
</a>
</g>
</g>
<!-- Node2 -->
<g id="Node000002" class="node">
<title>Node2</title>
<g id="a_Node000002"><a xlink:title=" ">
<polygon fill="#e0e0e0" stroke="#999999" points="142.75,-20 0,-20 0,0 142.75,0 142.75,-20"/>
<text xml:space="preserve" text-anchor="middle" x="71.38" y="-6.5" font-family="Helvetica,sans-Serif" font-size="10.00">javafx.application.Application</text>
</a>
</g>
</g>
<!-- Node1&#45;&gt;Node2 -->
<g id="edge1_Node000001_Node000002" class="edge">
<title>Node1&#45;&gt;Node2</title>
<g id="a_edge1_Node000001_Node000002"><a xlink:title=" ">
<path fill="none" stroke="#63b8ff" d="M788.33,-67.03C665.02,-59.54 393.7,-42.15 154.27,-20.23"/>
<polygon fill="#63b8ff" stroke="#63b8ff" points="154.68,-16.76 144.4,-19.33 154.03,-23.73 154.68,-16.76"/>
</a>
</g>
</g>
<!-- Node3 -->
<g id="Node000003" class="node">
<title>Node3</title>
<g id="a_Node000003"><a xlink:title=" ">
<polygon fill="#e0e0e0" stroke="#999999" points="275.88,-20 160.88,-20 160.88,0 275.88,0 275.88,-20"/>
<text xml:space="preserve" text-anchor="middle" x="218.38" y="-6.5" font-family="Helvetica,sans-Serif" font-size="10.00">javafx.geometry.Insets</text>
</a>
</g>
</g>
<!-- Node1&#45;&gt;Node3 -->
<g id="edge2_Node000001_Node000003" class="edge">
<title>Node1&#45;&gt;Node3</title>
<g id="a_edge2_Node000001_Node000003"><a xlink:title=" ">
<path fill="none" stroke="#63b8ff" d="M788.15,-65.96C683.53,-57.89 475.15,-40.97 287.3,-20.17"/>
<polygon fill="#63b8ff" stroke="#63b8ff" points="287.93,-16.72 277.6,-19.09 287.15,-23.67 287.93,-16.72"/>
</a>
</g>
</g>
<!-- Node4 -->
<g id="Node000004" class="node">
<title>Node4</title>
<g id="a_Node000004"><a xlink:title=" ">
<polygon fill="#e0e0e0" stroke="#999999" points="396.5,-20 294.25,-20 294.25,0 396.5,0 396.5,-20"/>
<text xml:space="preserve" text-anchor="middle" x="345.38" y="-6.5" font-family="Helvetica,sans-Serif" font-size="10.00">javafx.scene.Scene</text>
</a>
</g>
</g>
<!-- Node1&#45;&gt;Node4 -->
<g id="edge3_Node000001_Node000004" class="edge">
<title>Node1&#45;&gt;Node4</title>
<g id="a_edge3_Node000001_Node000004"><a xlink:title=" ">
<path fill="none" stroke="#63b8ff" d="M788.19,-64.15C702.39,-55.23 549.05,-38.72 407.76,-20.28"/>
<polygon fill="#63b8ff" stroke="#63b8ff" points="408.62,-16.86 398.25,-19.03 407.71,-23.8 408.62,-16.86"/>
</a>
</g>
</g>
<!-- Node5 -->
<g id="Node000005" class="node">
<title>Node5</title>
<g id="a_Node000005"><a xlink:title=" ">
<polygon fill="#e0e0e0" stroke="#999999" points="524.62,-20 414.12,-20 414.12,0 524.62,0 524.62,-20"/>
<text xml:space="preserve" text-anchor="middle" x="469.38" y="-6.5" font-family="Helvetica,sans-Serif" font-size="10.00">javafx.scene.control.*</text>
</a>
</g>
</g>
<!-- Node1&#45;&gt;Node5 -->
<g id="edge4_Node000001_Node000005" class="edge">
<title>Node1&#45;&gt;Node5</title>
<g id="a_edge4_Node000001_Node000005"><a xlink:title=" ">
<path fill="none" stroke="#63b8ff" d="M788.14,-60.55C717.3,-49.54 606.43,-32.3 535.87,-21.34"/>
<polygon fill="#63b8ff" stroke="#63b8ff" points="536.82,-17.94 526.4,-19.86 535.74,-24.86 536.82,-17.94"/>
</a>
</g>
</g>
<!-- Node6 -->
<g id="Node000006" class="node">
<title>Node6</title>
<g id="a_Node000006"><a xlink:title=" ">
<polygon fill="#e0e0e0" stroke="#999999" points="697.75,-20 543,-20 543,0 697.75,0 697.75,-20"/>
<text xml:space="preserve" text-anchor="middle" x="620.38" y="-6.5" font-family="Helvetica,sans-Serif" font-size="10.00">javafx.scene.layout.BorderPane</text>
</a>
</g>
</g>
<!-- Node1&#45;&gt;Node6 -->
<g id="edge5_Node000001_Node000006" class="edge">
<title>Node1&#45;&gt;Node6</title>
<g id="a_edge5_Node000001_Node000006"><a xlink:title=" ">
<path fill="none" stroke="#63b8ff" d="M794.86,-55.55C755.54,-45.51 705,-32.61 668.44,-23.27"/>
<polygon fill="#63b8ff" stroke="#63b8ff" points="669.59,-19.95 659.04,-20.87 667.86,-26.74 669.59,-19.95"/>
</a>
</g>
</g>
<!-- Node7 -->
<g id="Node000007" class="node">
<title>Node7</title>
<g id="a_Node000007"><a xlink:title=" ">
<polygon fill="#e0e0e0" stroke="#999999" points="844.62,-20 716.12,-20 716.12,0 844.62,0 844.62,-20"/>
<text xml:space="preserve" text-anchor="middle" x="780.38" y="-6.5" font-family="Helvetica,sans-Serif" font-size="10.00">javafx.scene.layout.HBox</text>
</a>
</g>
</g>
<!-- Node1&#45;&gt;Node7 -->
<g id="edge6_Node000001_Node000007" class="edge">
<title>Node1&#45;&gt;Node7</title>
<g id="a_edge6_Node000001_Node000007"><a xlink:title=" ">
<path fill="none" stroke="#63b8ff" d="M836.06,-55.55C825.32,-46.95 811.95,-36.26 801,-27.5"/>
<polygon fill="#63b8ff" stroke="#63b8ff" points="803.31,-24.87 793.32,-21.35 798.94,-30.33 803.31,-24.87"/>
</a>
</g>
</g>
<!-- Node8 -->
<g id="Node000008" class="node">
<title>Node8</title>
<g id="a_Node000008"><a xlink:title=" ">
<polygon fill="#e0e0e0" stroke="#999999" points="999.75,-20 863,-20 863,0 999.75,0 999.75,-20"/>
<text xml:space="preserve" text-anchor="middle" x="931.38" y="-6.5" font-family="Helvetica,sans-Serif" font-size="10.00">javafx.scene.web.WebView</text>
</a>
</g>
</g>
<!-- Node1&#45;&gt;Node8 -->
<g id="edge7_Node000001_Node000008" class="edge">
<title>Node1&#45;&gt;Node8</title>
<g id="a_edge7_Node000001_Node000008"><a xlink:title=" ">
<path fill="none" stroke="#63b8ff" d="M874.95,-55.55C885.83,-46.95 899.38,-36.26 910.47,-27.5"/>
<polygon fill="#63b8ff" stroke="#63b8ff" points="912.59,-30.29 918.27,-21.35 908.25,-24.8 912.59,-30.29"/>
</a>
</g>
</g>
<!-- Node9 -->
<g id="Node000009" class="node">
<title>Node9</title>
<g id="a_Node000009"><a xlink:title=" ">
<polygon fill="#e0e0e0" stroke="#999999" points="1142.75,-20 1018,-20 1018,0 1142.75,0 1142.75,-20"/>
<text xml:space="preserve" text-anchor="middle" x="1080.38" y="-6.5" font-family="Helvetica,sans-Serif" font-size="10.00">javafx.stage.FileChooser</text>
</a>
</g>
</g>
<!-- Node1&#45;&gt;Node9 -->
<g id="edge8_Node000001_Node000009" class="edge">
<title>Node1&#45;&gt;Node9</title>
<g id="a_edge8_Node000001_Node000009"><a xlink:title=" ">
<path fill="none" stroke="#63b8ff" d="M913.32,-55.55C950.8,-45.55 998.94,-32.72 1033.9,-23.39"/>
<polygon fill="#63b8ff" stroke="#63b8ff" points="1034.54,-26.84 1043.3,-20.89 1032.74,-20.08 1034.54,-26.84"/>
</a>
</g>
</g>
<!-- Node10 -->
<g id="Node000010" class="node">
<title>Node10</title>
<g id="a_Node000010"><a xlink:title=" ">
<polygon fill="#e0e0e0" stroke="#999999" points="1258.25,-20 1160.5,-20 1160.5,0 1258.25,0 1258.25,-20"/>
<text xml:space="preserve" text-anchor="middle" x="1209.38" y="-6.5" font-family="Helvetica,sans-Serif" font-size="10.00">javafx.stage.Stage</text>
</a>
</g>
</g>
<!-- Node1&#45;&gt;Node10 -->
<g id="edge9_Node000001_Node000010" class="edge">
<title>Node1&#45;&gt;Node10</title>
<g id="a_edge9_Node000001_Node000010"><a xlink:title=" ">
<path fill="none" stroke="#63b8ff" d="M922.38,-59.64C987.57,-48.59 1085.76,-31.95 1148.71,-21.28"/>
<polygon fill="#63b8ff" stroke="#63b8ff" points="1149.27,-24.74 1158.54,-19.62 1148.1,-17.84 1149.27,-24.74"/>
</a>
</g>
</g>
<!-- Node11 -->
<g id="Node000011" class="node">
<title>Node11</title>
<g id="a_Node000011"><a xlink:title=" ">
<polygon fill="#e0e0e0" stroke="#999999" points="1340,-20 1276.75,-20 1276.75,0 1340,0 1340,-20"/>
<text xml:space="preserve" text-anchor="middle" x="1308.38" y="-6.5" font-family="Helvetica,sans-Serif" font-size="10.00">java.io.File</text>
</a>
</g>
</g>
<!-- Node1&#45;&gt;Node11 -->
<g id="edge10_Node000001_Node000011" class="edge">
<title>Node1&#45;&gt;Node11</title>
<g id="a_edge10_Node000001_Node000011"><a xlink:title=" ">
<path fill="none" stroke="#63b8ff" d="M922.74,-64.6C1002.23,-56.62 1138.61,-41.57 1265.57,-20.16"/>
<polygon fill="#63b8ff" stroke="#63b8ff" points="1265.89,-23.65 1275.16,-18.52 1264.71,-16.75 1265.89,-23.65"/>
</a>
</g>
</g>
<!-- Node12 -->
<g id="Node000012" class="node">
<title>Node12</title>
<g id="a_Node000012"><a xlink:title=" ">
<polygon fill="#e0e0e0" stroke="#999999" points="1459.12,-20 1357.62,-20 1357.62,0 1459.12,0 1459.12,-20"/>
<text xml:space="preserve" text-anchor="middle" x="1408.38" y="-6.5" font-family="Helvetica,sans-Serif" font-size="10.00">java.io.IOException</text>
</a>
</g>
</g>
<!-- Node1&#45;&gt;Node12 -->
<g id="edge11_Node000001_Node000012" class="edge">
<title>Node1&#45;&gt;Node12</title>
<g id="a_edge11_Node000001_Node000012"><a xlink:title=" ">
<path fill="none" stroke="#63b8ff" d="M922.61,-65.1C1015.55,-56.71 1188.78,-40.25 1345.94,-20.39"/>
<polygon fill="#63b8ff" stroke="#63b8ff" points="1346.25,-23.88 1355.73,-19.15 1345.37,-16.94 1346.25,-23.88"/>
</a>
</g>
</g>
<!-- Node13 -->
<g id="Node000013" class="node">
<title>Node13</title>
<g id="a_Node000013"><a xlink:title=" ">
<polygon fill="#e0e0e0" stroke="#999999" points="1601.75,-20 1477,-20 1477,0 1601.75,0 1601.75,-20"/>
<text xml:space="preserve" text-anchor="middle" x="1539.38" y="-6.5" font-family="Helvetica,sans-Serif" font-size="10.00">java.util.ResourceBundle</text>
</a>
</g>
</g>
<!-- Node1&#45;&gt;Node13 -->
<g id="edge12_Node000001_Node000013" class="edge">
<title>Node1&#45;&gt;Node13</title>
<g id="a_edge12_Node000001_Node000013"><a xlink:title=" ">
<path fill="none" stroke="#63b8ff" d="M922.59,-66.36C1033.44,-58.5 1261.85,-41.42 1465.46,-20.27"/>
<polygon fill="#63b8ff" stroke="#63b8ff" points="1465.58,-23.77 1475.17,-19.25 1464.86,-16.81 1465.58,-23.77"/>
</a>
</g>
</g>
</g>
</svg>
