<?xml version="1.0" encoding="UTF-8" standalone="no"?>
<!DOCTYPE svg PUBLIC "-//W3C//DTD SVG 1.1//EN"
 "http://www.w3.org/Graphics/SVG/1.1/DTD/svg11.dtd">
<!-- Generated by graphviz version 13.1.2 (20250808.2320)
 -->
<!-- Title: src/editeurpanovisu/EquiCubeDialogController.java Pages: 1 -->
<svg width="6015pt" height="108pt"
 viewBox="0.00 0.00 6015.00 108.00" xmlns="http://www.w3.org/2000/svg" xmlns:xlink="http://www.w3.org/1999/xlink">
<g id="graph0" class="graph" transform="scale(1 1) rotate(0) translate(4 104)">
<title>src/editeurpanovisu/EquiCubeDialogController.java</title>
<!-- Node1 -->
<g id="Node000001" class="node">
<title>Node1</title>
<g id="a_Node000001"><a xlink:title=" ">
<polygon fill="#999999" stroke="#666666" points="2918.88,-100 2766.38,-100 2766.38,-68 2918.88,-68 2918.88,-100"/>
<text xml:space="preserve" text-anchor="start" x="2774.38" y="-86.5" font-family="Helvetica,sans-Serif" font-size="10.00">src/editeurpanovisu</text>
<text xml:space="preserve" text-anchor="middle" x="2842.62" y="-74.5" font-family="Helvetica,sans-Serif" font-size="10.00">/EquiCubeDialogController.java</text>
</a>
</g>
</g>
<!-- Node2 -->
<g id="Node000002" class="node">
<title>Node2</title>
<g id="a_Node000002"><a xlink:title=" ">
<polygon fill="#e0e0e0" stroke="#999999" points="63.25,-26 0,-26 0,-6 63.25,-6 63.25,-26"/>
<text xml:space="preserve" text-anchor="middle" x="31.62" y="-12.5" font-family="Helvetica,sans-Serif" font-size="10.00">java.io.File</text>
</a>
</g>
</g>
<!-- Node1&#45;&gt;Node2 -->
<g id="edge1_Node000001_Node000002" class="edge">
<title>Node1&#45;&gt;Node2</title>
<g id="a_edge1_Node000001_Node000002"><a xlink:title=" ">
<path fill="none" stroke="#63b8ff" d="M2766.03,-83.14C2347.11,-83.7 342.28,-83.66 71.62,-32 68.98,-31.5 66.28,-30.83 63.6,-30.07"/>
<polygon fill="#63b8ff" stroke="#63b8ff" points="64.86,-26.8 54.26,-26.96 62.64,-33.44 64.86,-26.8"/>
</a>
</g>
</g>
<!-- Node3 -->
<g id="Node000003" class="node">
<title>Node3</title>
<g id="a_Node000003"><a xlink:title=" ">
<polygon fill="#e0e0e0" stroke="#999999" points="182.38,-26 80.88,-26 80.88,-6 182.38,-6 182.38,-26"/>
<text xml:space="preserve" text-anchor="middle" x="131.62" y="-12.5" font-family="Helvetica,sans-Serif" font-size="10.00">java.io.IOException</text>
</a>
</g>
</g>
<!-- Node1&#45;&gt;Node3 -->
<g id="edge2_Node000001_Node000003" class="edge">
<title>Node1&#45;&gt;Node3</title>
<g id="a_edge2_Node000001_Node000003"><a xlink:title=" ">
<path fill="none" stroke="#63b8ff" d="M2766.08,-82.58C2358.43,-80.18 451.25,-67.16 190.62,-32 185.28,-31.28 179.71,-30.25 174.24,-29.06"/>
<polygon fill="#63b8ff" stroke="#63b8ff" points="175.22,-25.7 164.68,-26.8 173.61,-32.51 175.22,-25.7"/>
</a>
</g>
</g>
<!-- Node4 -->
<g id="Node000004" class="node">
<title>Node4</title>
<g id="a_Node000004"><a xlink:title=" ">
<polygon fill="#e0e0e0" stroke="#999999" points="323.25,-26 200,-26 200,-6 323.25,-6 323.25,-26"/>
<text xml:space="preserve" text-anchor="middle" x="261.62" y="-12.5" font-family="Helvetica,sans-Serif" font-size="10.00">java.text.DecimalFormat</text>
</a>
</g>
</g>
<!-- Node1&#45;&gt;Node4 -->
<g id="edge3_Node000001_Node000004" class="edge">
<title>Node1&#45;&gt;Node4</title>
<g id="a_edge3_Node000001_Node000004"><a xlink:title=" ">
<path fill="none" stroke="#63b8ff" d="M2766.03,-82.3C2371.67,-78.59 579.04,-60.28 332.62,-32 325.56,-31.19 318.16,-30.01 310.92,-28.66"/>
<polygon fill="#63b8ff" stroke="#63b8ff" points="311.71,-25.25 301.21,-26.72 310.34,-32.11 311.71,-25.25"/>
</a>
</g>
</g>
<!-- Node5 -->
<g id="Node000005" class="node">
<title>Node5</title>
<g id="a_Node000005"><a xlink:title=" ">
<polygon fill="#e0e0e0" stroke="#999999" points="409.88,-26 341.38,-26 341.38,-6 409.88,-6 409.88,-26"/>
<text xml:space="preserve" text-anchor="middle" x="375.62" y="-12.5" font-family="Helvetica,sans-Serif" font-size="10.00">java.util.List</text>
</a>
</g>
</g>
<!-- Node1&#45;&gt;Node5 -->
<g id="edge4_Node000001_Node000005" class="edge">
<title>Node1&#45;&gt;Node5</title>
<g id="a_edge4_Node000001_Node000005"><a xlink:title=" ">
<path fill="none" stroke="#63b8ff" d="M2766.08,-82.79C2379.93,-81.52 654.89,-73.55 419.62,-32 416.42,-31.43 413.14,-30.67 409.87,-29.8"/>
<polygon fill="#63b8ff" stroke="#63b8ff" points="411.06,-26.5 400.47,-26.91 409,-33.19 411.06,-26.5"/>
</a>
</g>
</g>
<!-- Node6 -->
<g id="Node000006" class="node">
<title>Node6</title>
<g id="a_Node000006"><a xlink:title=" ">
<polygon fill="#e0e0e0" stroke="#999999" points="517,-26 428.25,-26 428.25,-6 517,-6 517,-26"/>
<text xml:space="preserve" text-anchor="middle" x="472.62" y="-12.5" font-family="Helvetica,sans-Serif" font-size="10.00">java.util.Optional</text>
</a>
</g>
</g>
<!-- Node1&#45;&gt;Node6 -->
<g id="edge5_Node000001_Node000006" class="edge">
<title>Node1&#45;&gt;Node6</title>
<g id="a_edge5_Node000001_Node000006"><a xlink:title=" ">
<path fill="none" stroke="#63b8ff" d="M2766.12,-82.45C2390.63,-79.58 751.86,-65.23 526.62,-32 521.97,-31.31 517.14,-30.35 512.38,-29.24"/>
<polygon fill="#63b8ff" stroke="#63b8ff" points="513.51,-25.92 502.95,-26.82 511.77,-32.7 513.51,-25.92"/>
</a>
</g>
</g>
<!-- Node7 -->
<g id="Node000007" class="node">
<title>Node7</title>
<g id="a_Node000007"><a xlink:title=" ">
<polygon fill="#e0e0e0" stroke="#999999" points="660,-26 535.25,-26 535.25,-6 660,-6 660,-26"/>
<text xml:space="preserve" text-anchor="middle" x="597.62" y="-12.5" font-family="Helvetica,sans-Serif" font-size="10.00">java.util.ResourceBundle</text>
</a>
</g>
</g>
<!-- Node1&#45;&gt;Node7 -->
<g id="edge6_Node000001_Node000007" class="edge">
<title>Node1&#45;&gt;Node7</title>
<g id="a_edge6_Node000001_Node000007"><a xlink:title=" ">
<path fill="none" stroke="#63b8ff" d="M2766.11,-83.1C2430.57,-83.25 1087.46,-80.73 668.62,-32 661.64,-31.19 654.34,-30.02 647.17,-28.68"/>
<polygon fill="#63b8ff" stroke="#63b8ff" points="648.08,-25.3 637.59,-26.78 646.71,-32.16 648.08,-25.3"/>
</a>
</g>
</g>
<!-- Node8 -->
<g id="Node000008" class="node">
<title>Node8</title>
<g id="a_Node000008"><a xlink:title=" ">
<polygon fill="#e0e0e0" stroke="#999999" points="787.5,-26 677.75,-26 677.75,-6 787.5,-6 787.5,-26"/>
<text xml:space="preserve" text-anchor="middle" x="732.62" y="-12.5" font-family="Helvetica,sans-Serif" font-size="10.00">java.util.logging.Level</text>
</a>
</g>
</g>
<!-- Node1&#45;&gt;Node8 -->
<g id="edge7_Node000001_Node000008" class="edge">
<title>Node1&#45;&gt;Node8</title>
<g id="a_edge7_Node000001_Node000008"><a xlink:title=" ">
<path fill="none" stroke="#63b8ff" d="M2766.01,-83.19C2442.68,-83.69 1188.37,-82.25 796.62,-32 790.61,-31.23 784.34,-30.13 778.17,-28.88"/>
<polygon fill="#63b8ff" stroke="#63b8ff" points="779.26,-25.53 768.74,-26.81 777.76,-32.37 779.26,-25.53"/>
</a>
</g>
</g>
<!-- Node9 -->
<g id="Node000009" class="node">
<title>Node9</title>
<g id="a_Node000009"><a xlink:title=" ">
<polygon fill="#e0e0e0" stroke="#999999" points="921.5,-26 805.75,-26 805.75,-6 921.5,-6 921.5,-26"/>
<text xml:space="preserve" text-anchor="middle" x="863.62" y="-12.5" font-family="Helvetica,sans-Serif" font-size="10.00">java.util.logging.Logger</text>
</a>
</g>
</g>
<!-- Node1&#45;&gt;Node9 -->
<g id="edge8_Node000001_Node000009" class="edge">
<title>Node1&#45;&gt;Node9</title>
<g id="a_edge8_Node000001_Node000009"><a xlink:title=" ">
<path fill="none" stroke="#63b8ff" d="M2766.13,-82.94C2456.43,-82.37 1294.97,-77.21 930.62,-32 924.18,-31.2 917.45,-30.06 910.84,-28.77"/>
<polygon fill="#63b8ff" stroke="#63b8ff" points="911.9,-25.41 901.39,-26.78 910.46,-32.26 911.9,-25.41"/>
</a>
</g>
</g>
<!-- Node10 -->
<g id="Node000010" class="node">
<title>Node10</title>
<g id="a_Node000010"><a xlink:title=" ">
<polygon fill="#e0e0e0" stroke="#999999" points="1071.38,-26 939.88,-26 939.88,-6 1071.38,-6 1071.38,-26"/>
<text xml:space="preserve" text-anchor="middle" x="1005.62" y="-12.5" font-family="Helvetica,sans-Serif" font-size="10.00">javafx.application.Platform</text>
</a>
</g>
</g>
<!-- Node1&#45;&gt;Node10 -->
<g id="edge9_Node000001_Node000010" class="edge">
<title>Node1&#45;&gt;Node10</title>
<g id="a_edge9_Node000001_Node000010"><a xlink:title=" ">
<path fill="none" stroke="#63b8ff" d="M2765.94,-82.53C2471.54,-80.44 1413.58,-70.39 1079.62,-32 1072.27,-31.15 1064.57,-29.95 1057.02,-28.59"/>
<polygon fill="#63b8ff" stroke="#63b8ff" points="1057.72,-25.16 1047.24,-26.72 1056.4,-32.04 1057.72,-25.16"/>
</a>
</g>
</g>
<!-- Node11 -->
<g id="Node000011" class="node">
<title>Node11</title>
<g id="a_Node000011"><a xlink:title=" ">
<polygon fill="#e0e0e0" stroke="#999999" points="1204.12,-26 1089.12,-26 1089.12,-6 1204.12,-6 1204.12,-26"/>
<text xml:space="preserve" text-anchor="middle" x="1146.62" y="-12.5" font-family="Helvetica,sans-Serif" font-size="10.00">javafx.concurrent.Task</text>
</a>
</g>
</g>
<!-- Node1&#45;&gt;Node11 -->
<g id="edge10_Node000001_Node000011" class="edge">
<title>Node1&#45;&gt;Node11</title>
<g id="a_edge10_Node000001_Node000011"><a xlink:title=" ">
<path fill="none" stroke="#63b8ff" d="M2766.26,-82.56C2486.62,-80.63 1518.91,-71.23 1212.62,-32 1206.43,-31.21 1199.97,-30.1 1193.61,-28.84"/>
<polygon fill="#63b8ff" stroke="#63b8ff" points="1194.36,-25.42 1183.85,-26.75 1192.9,-32.26 1194.36,-25.42"/>
</a>
</g>
</g>
<!-- Node12 -->
<g id="Node000012" class="node">
<title>Node12</title>
<g id="a_Node000012"><a xlink:title=" ">
<polygon fill="#e0e0e0" stroke="#999999" points="1327.25,-26 1222,-26 1222,-6 1327.25,-6 1327.25,-26"/>
<text xml:space="preserve" text-anchor="middle" x="1274.62" y="-12.5" font-family="Helvetica,sans-Serif" font-size="10.00">javafx.geometry.Pos</text>
</a>
</g>
</g>
<!-- Node1&#45;&gt;Node12 -->
<g id="edge11_Node000001_Node000012" class="edge">
<title>Node1&#45;&gt;Node12</title>
<g id="a_edge11_Node000001_Node000012"><a xlink:title=" ">
<path fill="none" stroke="#63b8ff" d="M2766.17,-82.47C2500.33,-80.29 1617.22,-70.29 1336.62,-32 1330.94,-31.22 1325.02,-30.15 1319.19,-28.93"/>
<polygon fill="#63b8ff" stroke="#63b8ff" points="1320.18,-25.56 1309.65,-26.77 1318.63,-32.39 1320.18,-25.56"/>
</a>
</g>
</g>
<!-- Node13 -->
<g id="Node000013" class="node">
<title>Node13</title>
<g id="a_Node000013"><a xlink:title=" ">
<polygon fill="#e0e0e0" stroke="#999999" points="1449.5,-26 1345.75,-26 1345.75,-6 1449.5,-6 1449.5,-26"/>
<text xml:space="preserve" text-anchor="middle" x="1397.62" y="-12.5" font-family="Helvetica,sans-Serif" font-size="10.00">javafx.scene.Cursor</text>
</a>
</g>
</g>
<!-- Node1&#45;&gt;Node13 -->
<g id="edge12_Node000001_Node000013" class="edge">
<title>Node1&#45;&gt;Node13</title>
<g id="a_edge12_Node000001_Node000013"><a xlink:title=" ">
<path fill="none" stroke="#63b8ff" d="M2765.88,-82.24C2514.01,-79.4 1714.16,-67.74 1458.62,-32 1453.24,-31.25 1447.64,-30.22 1442.1,-29.05"/>
<polygon fill="#63b8ff" stroke="#63b8ff" points="1442.95,-25.65 1432.42,-26.83 1441.39,-32.48 1442.95,-25.65"/>
</a>
</g>
</g>
<!-- Node14 -->
<g id="Node000014" class="node">
<title>Node14</title>
<g id="a_Node000014"><a xlink:title=" ">
<polygon fill="#e0e0e0" stroke="#999999" points="1569.75,-26 1467.5,-26 1467.5,-6 1569.75,-6 1569.75,-26"/>
<text xml:space="preserve" text-anchor="middle" x="1518.62" y="-12.5" font-family="Helvetica,sans-Serif" font-size="10.00">javafx.scene.Scene</text>
</a>
</g>
</g>
<!-- Node1&#45;&gt;Node14 -->
<g id="edge13_Node000001_Node000014" class="edge">
<title>Node1&#45;&gt;Node14</title>
<g id="a_edge13_Node000001_Node000014"><a xlink:title=" ">
<path fill="none" stroke="#63b8ff" d="M2765.97,-81.96C2528.9,-78.43 1809.74,-65.19 1578.62,-32 1573.32,-31.24 1567.81,-30.2 1562.37,-29.03"/>
<polygon fill="#63b8ff" stroke="#63b8ff" points="1563.4,-25.68 1552.87,-26.82 1561.81,-32.5 1563.4,-25.68"/>
</a>
</g>
</g>
<!-- Node15 -->
<g id="Node000015" class="node">
<title>Node15</title>
<g id="a_Node000015"><a xlink:title=" ">
<polygon fill="#e0e0e0" stroke="#999999" points="1715.12,-26 1588.12,-26 1588.12,-6 1715.12,-6 1715.12,-26"/>
<text xml:space="preserve" text-anchor="middle" x="1651.62" y="-12.5" font-family="Helvetica,sans-Serif" font-size="10.00">javafx.scene.control.Alert</text>
</a>
</g>
</g>
<!-- Node1&#45;&gt;Node15 -->
<g id="edge14_Node000001_Node000015" class="edge">
<title>Node1&#45;&gt;Node15</title>
<g id="a_edge14_Node000001_Node000015"><a xlink:title=" ">
<path fill="none" stroke="#63b8ff" d="M2766.03,-83.64C2584.44,-84.25 2113.85,-80.56 1724.62,-32 1717.63,-31.13 1710.31,-29.95 1703.12,-28.63"/>
<polygon fill="#63b8ff" stroke="#63b8ff" points="1703.95,-25.23 1693.47,-26.76 1702.62,-32.1 1703.95,-25.23"/>
</a>
</g>
</g>
<!-- Node16 -->
<g id="Node000016" class="node">
<title>Node16</title>
<g id="a_Node000016"><a xlink:title=" ">
<polygon fill="#e0e0e0" stroke="#999999" points="1863.62,-32 1733.62,-32 1733.62,0 1863.62,0 1863.62,-32"/>
<text xml:space="preserve" text-anchor="start" x="1741.62" y="-18.5" font-family="Helvetica,sans-Serif" font-size="10.00">javafx.scene.control.Alert.</text>
<text xml:space="preserve" text-anchor="middle" x="1798.62" y="-6.5" font-family="Helvetica,sans-Serif" font-size="10.00">AlertType</text>
</a>
</g>
</g>
<!-- Node1&#45;&gt;Node16 -->
<g id="edge15_Node000001_Node000016" class="edge">
<title>Node1&#45;&gt;Node16</title>
<g id="a_edge15_Node000001_Node000016"><a xlink:title=" ">
<path fill="none" stroke="#63b8ff" d="M2765.89,-82.8C2603.23,-81.55 2211.77,-74.13 1874.86,-32.16"/>
<polygon fill="#63b8ff" stroke="#63b8ff" points="1875.77,-28.74 1865.41,-30.97 1874.89,-35.69 1875.77,-28.74"/>
</a>
</g>
</g>
<!-- Node17 -->
<g id="Node000017" class="node">
<title>Node17</title>
<g id="a_Node000017"><a xlink:title=" ">
<polygon fill="#e0e0e0" stroke="#999999" points="2017.25,-26 1882,-26 1882,-6 2017.25,-6 2017.25,-26"/>
<text xml:space="preserve" text-anchor="middle" x="1949.62" y="-12.5" font-family="Helvetica,sans-Serif" font-size="10.00">javafx.scene.control.Button</text>
</a>
</g>
</g>
<!-- Node1&#45;&gt;Node17 -->
<g id="edge16_Node000001_Node000017" class="edge">
<title>Node1&#45;&gt;Node17</title>
<g id="a_edge16_Node000001_Node000017"><a xlink:title=" ">
<path fill="none" stroke="#63b8ff" d="M2766.09,-81.53C2621.21,-78.02 2297.12,-66.65 2026.62,-32 2019.36,-31.07 2011.75,-29.87 2004.25,-28.55"/>
<polygon fill="#63b8ff" stroke="#63b8ff" points="2004.99,-25.13 1994.53,-26.75 2003.72,-32.01 2004.99,-25.13"/>
</a>
</g>
</g>
<!-- Node18 -->
<g id="Node000018" class="node">
<title>Node18</title>
<g id="a_Node000018"><a xlink:title=" ">
<polygon fill="#e0e0e0" stroke="#999999" points="2191.75,-26 2035.5,-26 2035.5,-6 2191.75,-6 2191.75,-26"/>
<text xml:space="preserve" text-anchor="middle" x="2113.62" y="-12.5" font-family="Helvetica,sans-Serif" font-size="10.00">javafx.scene.control.ButtonType</text>
</a>
</g>
</g>
<!-- Node1&#45;&gt;Node18 -->
<g id="edge17_Node000001_Node000018" class="edge">
<title>Node1&#45;&gt;Node18</title>
<g id="a_edge17_Node000001_Node000018"><a xlink:title=" ">
<path fill="none" stroke="#63b8ff" d="M2766.3,-79.2C2645.79,-72.69 2404.19,-57.58 2200.62,-32 2192.27,-30.95 2183.5,-29.66 2174.87,-28.28"/>
<polygon fill="#63b8ff" stroke="#63b8ff" points="2175.58,-24.85 2165.15,-26.68 2174.44,-31.76 2175.58,-24.85"/>
</a>
</g>
</g>
<!-- Node19 -->
<g id="Node000019" class="node">
<title>Node19</title>
<g id="a_Node000019"><a xlink:title=" ">
<polygon fill="#e0e0e0" stroke="#999999" points="2361.88,-26 2209.38,-26 2209.38,-6 2361.88,-6 2361.88,-26"/>
<text xml:space="preserve" text-anchor="middle" x="2285.62" y="-12.5" font-family="Helvetica,sans-Serif" font-size="10.00">javafx.scene.control.CheckBox</text>
</a>
</g>
</g>
<!-- Node1&#45;&gt;Node19 -->
<g id="edge18_Node000001_Node000019" class="edge">
<title>Node1&#45;&gt;Node19</title>
<g id="a_edge18_Node000001_Node000019"><a xlink:title=" ">
<path fill="none" stroke="#63b8ff" d="M2765.99,-76.31C2672.45,-67.78 2509.55,-51.74 2370.62,-32 2362.96,-30.91 2354.93,-29.65 2346.99,-28.33"/>
<polygon fill="#63b8ff" stroke="#63b8ff" points="2347.81,-24.92 2337.37,-26.7 2346.64,-31.82 2347.81,-24.92"/>
</a>
</g>
</g>
<!-- Node20 -->
<g id="Node000020" class="node">
<title>Node20</title>
<g id="a_Node000020"><a xlink:title=" ">
<polygon fill="#e0e0e0" stroke="#999999" points="2509.62,-26 2379.62,-26 2379.62,-6 2509.62,-6 2509.62,-26"/>
<text xml:space="preserve" text-anchor="middle" x="2444.62" y="-12.5" font-family="Helvetica,sans-Serif" font-size="10.00">javafx.scene.control.Label</text>
</a>
</g>
</g>
<!-- Node1&#45;&gt;Node20 -->
<g id="edge19_Node000001_Node000020" class="edge">
<title>Node1&#45;&gt;Node20</title>
<g id="a_edge19_Node000001_Node000020"><a xlink:title=" ">
<path fill="none" stroke="#63b8ff" d="M2766.2,-71.94C2700.44,-62.19 2603.11,-47.2 2518.62,-32 2512.74,-30.94 2506.6,-29.78 2500.49,-28.59"/>
<polygon fill="#63b8ff" stroke="#63b8ff" points="2501.54,-25.24 2491.05,-26.73 2500.18,-32.1 2501.54,-25.24"/>
</a>
</g>
</g>
<!-- Node21 -->
<g id="Node000021" class="node">
<title>Node21</title>
<g id="a_Node000021"><a xlink:title=" ">
<polygon fill="#e0e0e0" stroke="#999999" points="2667.5,-26 2527.75,-26 2527.75,-6 2667.5,-6 2667.5,-26"/>
<text xml:space="preserve" text-anchor="middle" x="2597.62" y="-12.5" font-family="Helvetica,sans-Serif" font-size="10.00">javafx.scene.control.ListCell</text>
</a>
</g>
</g>
<!-- Node1&#45;&gt;Node21 -->
<g id="edge20_Node000001_Node000021" class="edge">
<title>Node1&#45;&gt;Node21</title>
<g id="a_edge20_Node000001_Node000021"><a xlink:title=" ">
<path fill="none" stroke="#63b8ff" d="M2785.18,-67.53C2742.1,-55.92 2683.88,-40.24 2643.8,-29.44"/>
<polygon fill="#63b8ff" stroke="#63b8ff" points="2644.77,-26.08 2634.2,-26.85 2642.95,-32.83 2644.77,-26.08"/>
</a>
</g>
</g>
<!-- Node22 -->
<g id="Node000022" class="node">
<title>Node22</title>
<g id="a_Node000022"><a xlink:title=" ">
<polygon fill="#e0e0e0" stroke="#999999" points="2829.75,-26 2685.5,-26 2685.5,-6 2829.75,-6 2829.75,-26"/>
<text xml:space="preserve" text-anchor="middle" x="2757.62" y="-12.5" font-family="Helvetica,sans-Serif" font-size="10.00">javafx.scene.control.ListView</text>
</a>
</g>
</g>
<!-- Node1&#45;&gt;Node22 -->
<g id="edge21_Node000001_Node000022" class="edge">
<title>Node1&#45;&gt;Node22</title>
<g id="a_edge21_Node000001_Node000022"><a xlink:title=" ">
<path fill="none" stroke="#63b8ff" d="M2822.91,-67.69C2809.65,-57.4 2792.19,-43.84 2778.66,-33.33"/>
<polygon fill="#63b8ff" stroke="#63b8ff" points="2780.86,-30.61 2770.82,-27.24 2776.57,-36.14 2780.86,-30.61"/>
</a>
</g>
</g>
<!-- Node23 -->
<g id="Node000023" class="node">
<title>Node23</title>
<g id="a_Node000023"><a xlink:title=" ">
<polygon fill="#e0e0e0" stroke="#999999" points="3009,-26 2848.25,-26 2848.25,-6 3009,-6 3009,-26"/>
<text xml:space="preserve" text-anchor="middle" x="2928.62" y="-12.5" font-family="Helvetica,sans-Serif" font-size="10.00">javafx.scene.control.ProgressBar</text>
</a>
</g>
</g>
<!-- Node1&#45;&gt;Node23 -->
<g id="edge22_Node000001_Node000023" class="edge">
<title>Node1&#45;&gt;Node23</title>
<g id="a_edge22_Node000001_Node000023"><a xlink:title=" ">
<path fill="none" stroke="#63b8ff" d="M2862.57,-67.69C2876.12,-57.3 2894,-43.57 2907.74,-33.03"/>
<polygon fill="#63b8ff" stroke="#63b8ff" points="2909.48,-36.1 2915.28,-27.24 2905.22,-30.55 2909.48,-36.1"/>
</a>
</g>
</g>
<!-- Node24 -->
<g id="Node000024" class="node">
<title>Node24</title>
<g id="a_Node000024"><a xlink:title=" ">
<polygon fill="#e0e0e0" stroke="#999999" points="3159.75,-32 3027.5,-32 3027.5,0 3159.75,0 3159.75,-32"/>
<text xml:space="preserve" text-anchor="start" x="3035.5" y="-18.5" font-family="Helvetica,sans-Serif" font-size="10.00">javafx.scene.control.Radio</text>
<text xml:space="preserve" text-anchor="middle" x="3093.62" y="-6.5" font-family="Helvetica,sans-Serif" font-size="10.00">Button</text>
</a>
</g>
</g>
<!-- Node1&#45;&gt;Node24 -->
<g id="edge23_Node000001_Node000024" class="edge">
<title>Node1&#45;&gt;Node24</title>
<g id="a_edge23_Node000001_Node000024"><a xlink:title=" ">
<path fill="none" stroke="#63b8ff" d="M2901.47,-67.53C2938,-57.92 2985.15,-45.52 3023.6,-35.41"/>
<polygon fill="#63b8ff" stroke="#63b8ff" points="3024.47,-38.8 3033.25,-32.88 3022.69,-32.03 3024.47,-38.8"/>
</a>
</g>
</g>
<!-- Node25 -->
<g id="Node000025" class="node">
<title>Node25</title>
<g id="a_Node000025"><a xlink:title=" ">
<polygon fill="#e0e0e0" stroke="#999999" points="3309.38,-26 3177.88,-26 3177.88,-6 3309.38,-6 3309.38,-26"/>
<text xml:space="preserve" text-anchor="middle" x="3243.62" y="-12.5" font-family="Helvetica,sans-Serif" font-size="10.00">javafx.scene.control.Slider</text>
</a>
</g>
</g>
<!-- Node1&#45;&gt;Node25 -->
<g id="edge24_Node000001_Node000025" class="edge">
<title>Node1&#45;&gt;Node25</title>
<g id="a_edge24_Node000001_Node000025"><a xlink:title=" ">
<path fill="none" stroke="#63b8ff" d="M2919.19,-71.96C2985.35,-62.19 3083.46,-47.17 3168.62,-32 3174.59,-30.94 3180.81,-29.78 3187.01,-28.59"/>
<polygon fill="#63b8ff" stroke="#63b8ff" points="3187.44,-32.07 3196.59,-26.72 3186.1,-25.2 3187.44,-32.07"/>
</a>
</g>
</g>
<!-- Node26 -->
<g id="Node000026" class="node">
<title>Node26</title>
<g id="a_Node000026"><a xlink:title=" ">
<polygon fill="#e0e0e0" stroke="#999999" points="3462.25,-32 3327,-32 3327,0 3462.25,0 3462.25,-32"/>
<text xml:space="preserve" text-anchor="start" x="3335" y="-18.5" font-family="Helvetica,sans-Serif" font-size="10.00">javafx.scene.control.Toggle</text>
<text xml:space="preserve" text-anchor="middle" x="3394.62" y="-6.5" font-family="Helvetica,sans-Serif" font-size="10.00">Group</text>
</a>
</g>
</g>
<!-- Node1&#45;&gt;Node26 -->
<g id="edge25_Node000001_Node000026" class="edge">
<title>Node1&#45;&gt;Node26</title>
<g id="a_edge25_Node000001_Node000026"><a xlink:title=" ">
<path fill="none" stroke="#63b8ff" d="M2919.15,-76.89C3011.03,-69.09 3169.99,-54.11 3315.39,-32.42"/>
<polygon fill="#63b8ff" stroke="#63b8ff" points="3315.86,-35.89 3325.23,-30.94 3314.82,-28.96 3315.86,-35.89"/>
</a>
</g>
</g>
<!-- Node27 -->
<g id="Node000027" class="node">
<title>Node27</title>
<g id="a_Node000027"><a xlink:title=" ">
<polygon fill="#e0e0e0" stroke="#999999" points="3615.25,-26 3480,-26 3480,-6 3615.25,-6 3615.25,-26"/>
<text xml:space="preserve" text-anchor="middle" x="3547.62" y="-12.5" font-family="Helvetica,sans-Serif" font-size="10.00">javafx.scene.control.Tooltip</text>
</a>
</g>
</g>
<!-- Node1&#45;&gt;Node27 -->
<g id="edge26_Node000001_Node000027" class="edge">
<title>Node1&#45;&gt;Node27</title>
<g id="a_edge26_Node000001_Node000027"><a xlink:title=" ">
<path fill="none" stroke="#63b8ff" d="M2918.94,-79.62C3037.59,-73.74 3273.3,-59.52 3471.62,-32 3478.62,-31.03 3485.94,-29.83 3493.16,-28.53"/>
<polygon fill="#63b8ff" stroke="#63b8ff" points="3493.69,-31.99 3502.88,-26.7 3492.4,-25.11 3493.69,-31.99"/>
</a>
</g>
</g>
<!-- Node28 -->
<g id="Node000028" class="node">
<title>Node28</title>
<g id="a_Node000028"><a xlink:title=" ">
<polygon fill="#e0e0e0" stroke="#999999" points="3764,-26 3633.25,-26 3633.25,-6 3764,-6 3764,-26"/>
<text xml:space="preserve" text-anchor="middle" x="3698.62" y="-12.5" font-family="Helvetica,sans-Serif" font-size="10.00">javafx.scene.image.Image</text>
</a>
</g>
</g>
<!-- Node1&#45;&gt;Node28 -->
<g id="edge27_Node000001_Node000028" class="edge">
<title>Node1&#45;&gt;Node28</title>
<g id="a_edge27_Node000001_Node000028"><a xlink:title=" ">
<path fill="none" stroke="#63b8ff" d="M2919.28,-81.43C3059.73,-77.79 3367.55,-66.28 3624.62,-32 3631.45,-31.09 3638.59,-29.92 3645.63,-28.64"/>
<polygon fill="#63b8ff" stroke="#63b8ff" points="3646.27,-32.08 3655.43,-26.76 3644.95,-25.21 3646.27,-32.08"/>
</a>
</g>
</g>
<!-- Node29 -->
<g id="Node000029" class="node">
<title>Node29</title>
<g id="a_Node000029"><a xlink:title=" ">
<polygon fill="#e0e0e0" stroke="#999999" points="3934.88,-26 3782.38,-26 3782.38,-6 3934.88,-6 3934.88,-26"/>
<text xml:space="preserve" text-anchor="middle" x="3858.62" y="-12.5" font-family="Helvetica,sans-Serif" font-size="10.00">javafx.scene.image.ImageView</text>
</a>
</g>
</g>
<!-- Node1&#45;&gt;Node29 -->
<g id="edge28_Node000001_Node000029" class="edge">
<title>Node1&#45;&gt;Node29</title>
<g id="a_edge28_Node000001_Node000029"><a xlink:title=" ">
<path fill="none" stroke="#63b8ff" d="M2919.13,-81.85C3078.43,-78.8 3457.14,-68.04 3772.62,-32 3781.11,-31.03 3790.02,-29.76 3798.76,-28.37"/>
<polygon fill="#63b8ff" stroke="#63b8ff" points="3799.32,-31.83 3808.61,-26.74 3798.17,-24.92 3799.32,-31.83"/>
</a>
</g>
</g>
<!-- Node30 -->
<g id="Node000030" class="node">
<title>Node30</title>
<g id="a_Node000030"><a xlink:title=" ">
<polygon fill="#e0e0e0" stroke="#999999" points="4096.38,-26 3952.88,-26 3952.88,-6 4096.38,-6 4096.38,-26"/>
<text xml:space="preserve" text-anchor="middle" x="4024.62" y="-12.5" font-family="Helvetica,sans-Serif" font-size="10.00">javafx.scene.input.Dragboard</text>
</a>
</g>
</g>
<!-- Node1&#45;&gt;Node30 -->
<g id="edge29_Node000001_Node000030" class="edge">
<title>Node1&#45;&gt;Node30</title>
<g id="a_edge29_Node000001_Node000030"><a xlink:title=" ">
<path fill="none" stroke="#63b8ff" d="M2919.33,-83.05C3098.99,-82.38 3560.82,-76.1 3943.62,-32 3951.73,-31.07 3960.25,-29.8 3968.59,-28.4"/>
<polygon fill="#63b8ff" stroke="#63b8ff" points="3969.07,-31.87 3978.31,-26.69 3967.86,-24.98 3969.07,-31.87"/>
</a>
</g>
</g>
<!-- Node31 -->
<g id="Node000031" class="node">
<title>Node31</title>
<g id="a_Node000031"><a xlink:title=" ">
<polygon fill="#e0e0e0" stroke="#999999" points="4272.88,-26 4114.38,-26 4114.38,-6 4272.88,-6 4272.88,-26"/>
<text xml:space="preserve" text-anchor="middle" x="4193.62" y="-12.5" font-family="Helvetica,sans-Serif" font-size="10.00">javafx.scene.input.TransferMode</text>
</a>
</g>
</g>
<!-- Node1&#45;&gt;Node31 -->
<g id="edge30_Node000001_Node000031" class="edge">
<title>Node1&#45;&gt;Node31</title>
<g id="a_edge30_Node000001_Node000031"><a xlink:title=" ">
<path fill="none" stroke="#63b8ff" d="M2919.04,-83.33C3116.14,-83.43 3657.67,-79.03 4105.62,-32 4114.72,-31.05 4124.3,-29.73 4133.65,-28.28"/>
<polygon fill="#63b8ff" stroke="#63b8ff" points="4134.1,-31.75 4143.41,-26.69 4132.98,-24.84 4134.1,-31.75"/>
</a>
</g>
</g>
<!-- Node32 -->
<g id="Node000032" class="node">
<title>Node32</title>
<g id="a_Node000032"><a xlink:title=" ">
<polygon fill="#e0e0e0" stroke="#999999" points="4448.12,-26 4291.12,-26 4291.12,-6 4448.12,-6 4448.12,-26"/>
<text xml:space="preserve" text-anchor="middle" x="4369.62" y="-12.5" font-family="Helvetica,sans-Serif" font-size="10.00">javafx.scene.layout.AnchorPane</text>
</a>
</g>
</g>
<!-- Node1&#45;&gt;Node32 -->
<g id="edge31_Node000001_Node000032" class="edge">
<title>Node1&#45;&gt;Node32</title>
<g id="a_edge31_Node000001_Node000032"><a xlink:title=" ">
<path fill="none" stroke="#63b8ff" d="M2919.16,-81.64C3177.14,-76.83 4013.67,-59.46 4281.62,-32 4290.72,-31.07 4300.3,-29.77 4309.66,-28.32"/>
<polygon fill="#63b8ff" stroke="#63b8ff" points="4310.1,-31.79 4319.42,-26.74 4308.98,-24.88 4310.1,-31.79"/>
</a>
</g>
</g>
<!-- Node33 -->
<g id="Node000033" class="node">
<title>Node33</title>
<g id="a_Node000033"><a xlink:title=" ">
<polygon fill="#e0e0e0" stroke="#999999" points="4594.88,-26 4466.38,-26 4466.38,-6 4594.88,-6 4594.88,-26"/>
<text xml:space="preserve" text-anchor="middle" x="4530.62" y="-12.5" font-family="Helvetica,sans-Serif" font-size="10.00">javafx.scene.layout.HBox</text>
</a>
</g>
</g>
<!-- Node1&#45;&gt;Node33 -->
<g id="edge32_Node000001_Node000033" class="edge">
<title>Node1&#45;&gt;Node33</title>
<g id="a_edge32_Node000001_Node000033"><a xlink:title=" ">
<path fill="none" stroke="#63b8ff" d="M2919.22,-82.32C3197.44,-79.58 4154.12,-67.71 4457.62,-32 4464.71,-31.17 4472.13,-30 4479.41,-28.67"/>
<polygon fill="#63b8ff" stroke="#63b8ff" points="4480.02,-32.12 4489.18,-26.78 4478.69,-25.25 4480.02,-32.12"/>
</a>
</g>
</g>
<!-- Node34 -->
<g id="Node000034" class="node">
<title>Node34</title>
<g id="a_Node000034"><a xlink:title=" ">
<polygon fill="#e0e0e0" stroke="#999999" points="4738.75,-26 4612.5,-26 4612.5,-6 4738.75,-6 4738.75,-26"/>
<text xml:space="preserve" text-anchor="middle" x="4675.62" y="-12.5" font-family="Helvetica,sans-Serif" font-size="10.00">javafx.scene.layout.Pane</text>
</a>
</g>
</g>
<!-- Node1&#45;&gt;Node34 -->
<g id="edge33_Node000001_Node000034" class="edge">
<title>Node1&#45;&gt;Node34</title>
<g id="a_edge33_Node000001_Node000034"><a xlink:title=" ">
<path fill="none" stroke="#63b8ff" d="M2919.23,-82.58C3213.32,-80.69 4270.15,-71.25 4603.62,-32 4610.7,-31.17 4618.11,-29.99 4625.37,-28.65"/>
<polygon fill="#63b8ff" stroke="#63b8ff" points="4625.97,-32.09 4635.11,-26.73 4624.62,-25.23 4625.97,-32.09"/>
</a>
</g>
</g>
<!-- Node35 -->
<g id="Node000035" class="node">
<title>Node35</title>
<g id="a_Node000035"><a xlink:title=" ">
<polygon fill="#e0e0e0" stroke="#999999" points="4884.5,-26 4756.75,-26 4756.75,-6 4884.5,-6 4884.5,-26"/>
<text xml:space="preserve" text-anchor="middle" x="4820.62" y="-12.5" font-family="Helvetica,sans-Serif" font-size="10.00">javafx.scene.layout.VBox</text>
</a>
</g>
</g>
<!-- Node1&#45;&gt;Node35 -->
<g id="edge34_Node000001_Node000035" class="edge">
<title>Node1&#45;&gt;Node35</title>
<g id="a_edge34_Node000001_Node000035"><a xlink:title=" ">
<path fill="none" stroke="#63b8ff" d="M2919.35,-82.75C3228.61,-81.45 4384.44,-73.85 4747.62,-32 4754.88,-31.16 4762.48,-29.97 4769.93,-28.61"/>
<polygon fill="#63b8ff" stroke="#63b8ff" points="4770.41,-32.08 4779.56,-26.74 4769.08,-25.21 4770.41,-32.08"/>
</a>
</g>
</g>
<!-- Node36 -->
<g id="Node000036" class="node">
<title>Node36</title>
<g id="a_Node000036"><a xlink:title=" ">
<polygon fill="#e0e0e0" stroke="#999999" points="5024.5,-26 4902.75,-26 4902.75,-6 5024.5,-6 5024.5,-26"/>
<text xml:space="preserve" text-anchor="middle" x="4963.62" y="-12.5" font-family="Helvetica,sans-Serif" font-size="10.00">javafx.scene.paint.Color</text>
</a>
</g>
</g>
<!-- Node1&#45;&gt;Node36 -->
<g id="edge35_Node000001_Node000036" class="edge">
<title>Node1&#45;&gt;Node36</title>
<g id="a_edge35_Node000001_Node000036"><a xlink:title=" ">
<path fill="none" stroke="#63b8ff" d="M2919.13,-83C3242.72,-82.73 4500.34,-78.61 4893.62,-32 4900.43,-31.19 4907.55,-30.04 4914.53,-28.72"/>
<polygon fill="#63b8ff" stroke="#63b8ff" points="4915.1,-32.18 4924.21,-26.77 4913.72,-25.32 4915.1,-32.18"/>
</a>
</g>
</g>
<!-- Node37 -->
<g id="Node000037" class="node">
<title>Node37</title>
<g id="a_Node000037"><a xlink:title=" ">
<polygon fill="#e0e0e0" stroke="#999999" points="5198.75,-26 5042.5,-26 5042.5,-6 5198.75,-6 5198.75,-26"/>
<text xml:space="preserve" text-anchor="middle" x="5120.62" y="-12.5" font-family="Helvetica,sans-Serif" font-size="10.00">javafx.scene.text.TextAlignment</text>
</a>
</g>
</g>
<!-- Node1&#45;&gt;Node37 -->
<g id="edge36_Node000001_Node000037" class="edge">
<title>Node1&#45;&gt;Node37</title>
<g id="a_edge36_Node000001_Node000037"><a xlink:title=" ">
<path fill="none" stroke="#63b8ff" d="M2919.13,-82.73C3256.17,-81.33 4610.43,-73.18 5033.62,-32 5042.94,-31.09 5052.77,-29.76 5062.33,-28.27"/>
<polygon fill="#63b8ff" stroke="#63b8ff" points="5062.59,-31.77 5071.89,-26.69 5061.46,-24.86 5062.59,-31.77"/>
</a>
</g>
</g>
<!-- Node38 -->
<g id="Node000038" class="node">
<title>Node38</title>
<g id="a_Node000038"><a xlink:title=" ">
<polygon fill="#e0e0e0" stroke="#999999" points="5342,-26 5217.25,-26 5217.25,-6 5342,-6 5342,-26"/>
<text xml:space="preserve" text-anchor="middle" x="5279.62" y="-12.5" font-family="Helvetica,sans-Serif" font-size="10.00">javafx.stage.FileChooser</text>
</a>
</g>
</g>
<!-- Node1&#45;&gt;Node38 -->
<g id="edge37_Node000001_Node000038" class="edge">
<title>Node1&#45;&gt;Node38</title>
<g id="a_edge37_Node000001_Node000038"><a xlink:title=" ">
<path fill="none" stroke="#63b8ff" d="M2919.25,-83.24C3272.83,-84.07 4749.09,-84.26 5207.62,-32 5214.7,-31.19 5222.11,-30.03 5229.38,-28.69"/>
<polygon fill="#63b8ff" stroke="#63b8ff" points="5229.98,-32.14 5239.12,-26.78 5228.63,-25.27 5229.98,-32.14"/>
</a>
</g>
</g>
<!-- Node39 -->
<g id="Node000039" class="node">
<title>Node39</title>
<g id="a_Node000039"><a xlink:title=" ">
<polygon fill="#e0e0e0" stroke="#999999" points="5469.12,-26 5360.12,-26 5360.12,-6 5469.12,-6 5469.12,-26"/>
<text xml:space="preserve" text-anchor="middle" x="5414.62" y="-12.5" font-family="Helvetica,sans-Serif" font-size="10.00">javafx.stage.Modality</text>
</a>
</g>
</g>
<!-- Node1&#45;&gt;Node39 -->
<g id="edge38_Node000001_Node000039" class="edge">
<title>Node1&#45;&gt;Node39</title>
<g id="a_edge38_Node000001_Node000039"><a xlink:title=" ">
<path fill="none" stroke="#63b8ff" d="M2919.17,-82.4C3313.28,-79.19 5104.74,-62.97 5350.62,-32 5356.71,-31.23 5363.06,-30.13 5369.3,-28.86"/>
<polygon fill="#63b8ff" stroke="#63b8ff" points="5369.83,-32.33 5378.84,-26.76 5368.33,-25.49 5369.83,-32.33"/>
</a>
</g>
</g>
<!-- Node40 -->
<g id="Node000040" class="node">
<title>Node40</title>
<g id="a_Node000040"><a xlink:title=" ">
<polygon fill="#e0e0e0" stroke="#999999" points="5584.5,-26 5486.75,-26 5486.75,-6 5584.5,-6 5584.5,-26"/>
<text xml:space="preserve" text-anchor="middle" x="5535.62" y="-12.5" font-family="Helvetica,sans-Serif" font-size="10.00">javafx.stage.Stage</text>
</a>
</g>
</g>
<!-- Node1&#45;&gt;Node40 -->
<g id="edge39_Node000001_Node000040" class="edge">
<title>Node1&#45;&gt;Node40</title>
<g id="a_edge39_Node000001_Node000040"><a xlink:title=" ">
<path fill="none" stroke="#63b8ff" d="M2919.04,-82.61C3324.97,-80.36 5219.79,-68.04 5478.62,-32 5483.66,-31.3 5488.9,-30.3 5494.06,-29.16"/>
<polygon fill="#63b8ff" stroke="#63b8ff" points="5494.78,-32.58 5503.66,-26.81 5493.12,-25.78 5494.78,-32.58"/>
</a>
</g>
</g>
<!-- Node41 -->
<g id="Node000041" class="node">
<title>Node41</title>
<g id="a_Node000041"><a xlink:title=" ">
<polygon fill="#e0e0e0" stroke="#999999" points="5722.75,-26 5602.5,-26 5602.5,-6 5722.75,-6 5722.75,-26"/>
<text xml:space="preserve" text-anchor="middle" x="5662.62" y="-12.5" font-family="Helvetica,sans-Serif" font-size="10.00">javafx.stage.StageStyle</text>
</a>
</g>
</g>
<!-- Node1&#45;&gt;Node41 -->
<g id="edge40_Node000001_Node000041" class="edge">
<title>Node1&#45;&gt;Node41</title>
<g id="a_edge40_Node000001_Node000041"><a xlink:title=" ">
<path fill="none" stroke="#63b8ff" d="M2919.25,-82.47C3336.1,-79.49 5322.07,-63.72 5593.62,-32 5600.42,-31.21 5607.52,-30.05 5614.48,-28.72"/>
<polygon fill="#63b8ff" stroke="#63b8ff" points="5615.03,-32.18 5624.12,-26.74 5613.63,-25.32 5615.03,-32.18"/>
</a>
</g>
</g>
<!-- Node42 -->
<g id="Node000042" class="node">
<title>Node42</title>
<g id="a_Node000042"><a xlink:title=" ">
<polygon fill="#e0e0e0" stroke="#999999" points="5840.25,-26 5741,-26 5741,-6 5840.25,-6 5840.25,-26"/>
<text xml:space="preserve" text-anchor="middle" x="5790.62" y="-12.5" font-family="Helvetica,sans-Serif" font-size="10.00">javafx.util.Callback</text>
</a>
</g>
</g>
<!-- Node1&#45;&gt;Node42 -->
<g id="edge41_Node000001_Node000042" class="edge">
<title>Node1&#45;&gt;Node42</title>
<g id="a_edge41_Node000001_Node000042"><a xlink:title=" ">
<path fill="none" stroke="#63b8ff" d="M2919.21,-82.71C3348.44,-80.92 5446.21,-70.28 5731.62,-32 5736.97,-31.28 5742.54,-30.25 5748.01,-29.07"/>
<polygon fill="#63b8ff" stroke="#63b8ff" points="5748.65,-32.52 5757.57,-26.81 5747.03,-25.7 5748.65,-32.52"/>
</a>
</g>
</g>
<!-- Node43 -->
<g id="Node000043" class="node">
<title>Node43</title>
<g id="a_Node000043"><a xlink:title=" ">
<polygon fill="#e0e0e0" stroke="#999999" points="6007.38,-32 5857.88,-32 5857.88,0 6007.38,0 6007.38,-32"/>
<text xml:space="preserve" text-anchor="start" x="5865.88" y="-18.5" font-family="Helvetica,sans-Serif" font-size="10.00">org.apache.commons.imaging.</text>
<text xml:space="preserve" text-anchor="middle" x="5932.62" y="-6.5" font-family="Helvetica,sans-Serif" font-size="10.00">ImagingException</text>
</a>
</g>
</g>
<!-- Node1&#45;&gt;Node43 -->
<g id="edge42_Node000001_Node000043" class="edge">
<title>Node1&#45;&gt;Node43</title>
<g id="a_edge42_Node000001_Node000043"><a xlink:title=" ">
<path fill="none" stroke="#63b8ff" d="M2919.05,-82.44C3353.11,-79.19 5500.51,-61.77 5846.29,-32.16"/>
<polygon fill="#63b8ff" stroke="#63b8ff" points="5846.45,-35.66 5856.09,-31.26 5845.82,-28.69 5846.45,-35.66"/>
</a>
</g>
</g>
</g>
</svg>
