<?xml version="1.0" encoding="UTF-8" standalone="no"?>
<!DOCTYPE svg PUBLIC "-//W3C//DTD SVG 1.1//EN"
 "http://www.w3.org/Graphics/SVG/1.1/DTD/svg11.dtd">
<!-- Generated by graphviz version 13.1.2 (20250808.2320)
 -->
<!-- Title: src/editeurpanovisu/GestionnaireDiaporamaController.java Pages: 1 -->
<svg width="3863pt" height="108pt"
 viewBox="0.00 0.00 3863.00 108.00" xmlns="http://www.w3.org/2000/svg" xmlns:xlink="http://www.w3.org/1999/xlink">
<g id="graph0" class="graph" transform="scale(1 1) rotate(0) translate(4 104)">
<title>src/editeurpanovisu/GestionnaireDiaporamaController.java</title>
<!-- Node1 -->
<g id="Node000001" class="node">
<title>Node1</title>
<g id="a_Node000001"><a xlink:title=" ">
<polygon fill="#999999" stroke="#666666" points="1947.5,-100 1763.5,-100 1763.5,-68 1947.5,-68 1947.5,-100"/>
<text xml:space="preserve" text-anchor="start" x="1771.5" y="-86.5" font-family="Helvetica,sans-Serif" font-size="10.00">src/editeurpanovisu</text>
<text xml:space="preserve" text-anchor="middle" x="1855.5" y="-74.5" font-family="Helvetica,sans-Serif" font-size="10.00">/GestionnaireDiaporamaController.java</text>
</a>
</g>
</g>
<!-- Node2 -->
<g id="Node000002" class="node">
<title>Node2</title>
<g id="a_Node000002"><a xlink:title=" ">
<polygon fill="#e0e0e0" stroke="#999999" points="175,-32 0,-32 0,0 175,0 175,-32"/>
<text xml:space="preserve" text-anchor="start" x="8" y="-18.5" font-family="Helvetica,sans-Serif" font-size="10.00">editeurpanovisu.EditeurPanovisu.get</text>
<text xml:space="preserve" text-anchor="middle" x="87.5" y="-6.5" font-family="Helvetica,sans-Serif" font-size="10.00">StrCurrentDir</text>
</a>
</g>
</g>
<!-- Node1&#45;&gt;Node2 -->
<g id="edge1_Node000001_Node000002" class="edge">
<title>Node1&#45;&gt;Node2</title>
<g id="a_edge1_Node000001_Node000002"><a xlink:title=" ">
<path fill="none" stroke="#63b8ff" d="M1763.18,-81.7C1463.14,-77.24 516.44,-61.25 186.8,-32.21"/>
<polygon fill="#63b8ff" stroke="#63b8ff" points="187.12,-28.73 176.84,-31.31 186.49,-35.7 187.12,-28.73"/>
</a>
</g>
</g>
<!-- Node3 -->
<g id="Node000003" class="node">
<title>Node3</title>
<g id="a_Node000003"><a xlink:title=" ">
<polygon fill="#e0e0e0" stroke="#999999" points="368,-32 193,-32 193,0 368,0 368,-32"/>
<text xml:space="preserve" text-anchor="start" x="201" y="-18.5" font-family="Helvetica,sans-Serif" font-size="10.00">editeurpanovisu.EditeurPanovisu.get</text>
<text xml:space="preserve" text-anchor="middle" x="280.5" y="-6.5" font-family="Helvetica,sans-Serif" font-size="10.00">StrRepertAppli</text>
</a>
</g>
</g>
<!-- Node1&#45;&gt;Node3 -->
<g id="edge2_Node000001_Node000003" class="edge">
<title>Node1&#45;&gt;Node3</title>
<g id="a_edge2_Node000001_Node000003"><a xlink:title=" ">
<path fill="none" stroke="#63b8ff" d="M1763.16,-83.62C1531.85,-84.36 908.82,-81.27 379.77,-32.13"/>
<polygon fill="#63b8ff" stroke="#63b8ff" points="380.26,-28.66 369.98,-31.21 379.61,-35.63 380.26,-28.66"/>
</a>
</g>
</g>
<!-- Node4 -->
<g id="Node000004" class="node">
<title>Node4</title>
<g id="a_Node000004"><a xlink:title=" ">
<polygon fill="#e0e0e0" stroke="#999999" points="522.88,-32 386.12,-32 386.12,0 522.88,0 522.88,-32"/>
<text xml:space="preserve" text-anchor="start" x="394.12" y="-18.5" font-family="Helvetica,sans-Serif" font-size="10.00">java.beans.PropertyChange</text>
<text xml:space="preserve" text-anchor="middle" x="454.5" y="-6.5" font-family="Helvetica,sans-Serif" font-size="10.00">Event</text>
</a>
</g>
</g>
<!-- Node1&#45;&gt;Node4 -->
<g id="edge3_Node000001_Node000004" class="edge">
<title>Node1&#45;&gt;Node4</title>
<g id="a_edge3_Node000001_Node000004"><a xlink:title=" ">
<path fill="none" stroke="#63b8ff" d="M1763.16,-81.26C1507.48,-76.16 792.77,-59.9 534.53,-32.07"/>
<polygon fill="#63b8ff" stroke="#63b8ff" points="535.15,-28.62 524.82,-30.99 534.37,-35.57 535.15,-28.62"/>
</a>
</g>
</g>
<!-- Node5 -->
<g id="Node000005" class="node">
<title>Node5</title>
<g id="a_Node000005"><a xlink:title=" ">
<polygon fill="#e0e0e0" stroke="#999999" points="677.88,-32 541.12,-32 541.12,0 677.88,0 677.88,-32"/>
<text xml:space="preserve" text-anchor="start" x="549.12" y="-18.5" font-family="Helvetica,sans-Serif" font-size="10.00">java.beans.PropertyChange</text>
<text xml:space="preserve" text-anchor="middle" x="609.5" y="-6.5" font-family="Helvetica,sans-Serif" font-size="10.00">Listener</text>
</a>
</g>
</g>
<!-- Node1&#45;&gt;Node5 -->
<g id="edge4_Node000001_Node000005" class="edge">
<title>Node1&#45;&gt;Node5</title>
<g id="a_edge4_Node000001_Node000005"><a xlink:title=" ">
<path fill="none" stroke="#63b8ff" d="M1763.15,-83.55C1567.08,-83.71 1094.76,-78.84 689.68,-32.12"/>
<polygon fill="#63b8ff" stroke="#63b8ff" points="690.16,-28.66 679.82,-30.98 689.35,-35.61 690.16,-28.66"/>
</a>
</g>
</g>
<!-- Node6 -->
<g id="Node000006" class="node">
<title>Node6</title>
<g id="a_Node000006"><a xlink:title=" ">
<polygon fill="#e0e0e0" stroke="#999999" points="832.88,-32 696.12,-32 696.12,0 832.88,0 832.88,-32"/>
<text xml:space="preserve" text-anchor="start" x="704.12" y="-18.5" font-family="Helvetica,sans-Serif" font-size="10.00">java.beans.PropertyChange</text>
<text xml:space="preserve" text-anchor="middle" x="764.5" y="-6.5" font-family="Helvetica,sans-Serif" font-size="10.00">Support</text>
</a>
</g>
</g>
<!-- Node1&#45;&gt;Node6 -->
<g id="edge5_Node000001_Node000006" class="edge">
<title>Node1&#45;&gt;Node6</title>
<g id="a_edge5_Node000001_Node000006"><a xlink:title=" ">
<path fill="none" stroke="#63b8ff" d="M1763.2,-82.74C1586.53,-81.28 1188.28,-73.38 844.7,-32.28"/>
<polygon fill="#63b8ff" stroke="#63b8ff" points="845.12,-28.81 834.77,-31.08 844.28,-35.76 845.12,-28.81"/>
</a>
</g>
</g>
<!-- Node7 -->
<g id="Node000007" class="node">
<title>Node7</title>
<g id="a_Node000007"><a xlink:title=" ">
<polygon fill="#e0e0e0" stroke="#999999" points="914.12,-26 850.88,-26 850.88,-6 914.12,-6 914.12,-26"/>
<text xml:space="preserve" text-anchor="middle" x="882.5" y="-12.5" font-family="Helvetica,sans-Serif" font-size="10.00">java.io.File</text>
</a>
</g>
</g>
<!-- Node1&#45;&gt;Node7 -->
<g id="edge6_Node000001_Node000007" class="edge">
<title>Node1&#45;&gt;Node7</title>
<g id="a_edge6_Node000001_Node000007"><a xlink:title=" ">
<path fill="none" stroke="#63b8ff" d="M1763.25,-81.41C1560.59,-77.37 1082.03,-64.58 923.5,-32 920.87,-31.46 918.18,-30.78 915.5,-30.01"/>
<polygon fill="#63b8ff" stroke="#63b8ff" points="916.74,-26.74 906.15,-26.95 914.56,-33.39 916.74,-26.74"/>
</a>
</g>
</g>
<!-- Node8 -->
<g id="Node000008" class="node">
<title>Node8</title>
<g id="a_Node000008"><a xlink:title=" ">
<polygon fill="#e0e0e0" stroke="#999999" points="1044.5,-26 932.5,-26 932.5,-6 1044.5,-6 1044.5,-26"/>
<text xml:space="preserve" text-anchor="middle" x="988.5" y="-12.5" font-family="Helvetica,sans-Serif" font-size="10.00">java.math.BigDecimal</text>
</a>
</g>
</g>
<!-- Node1&#45;&gt;Node8 -->
<g id="edge7_Node000001_Node000008" class="edge">
<title>Node1&#45;&gt;Node8</title>
<g id="a_edge7_Node000001_Node000008"><a xlink:title=" ">
<path fill="none" stroke="#63b8ff" d="M1763.28,-82.02C1613.58,-79.33 1308.72,-69.31 1053.5,-32 1047.77,-31.16 1041.81,-30.08 1035.91,-28.88"/>
<polygon fill="#63b8ff" stroke="#63b8ff" points="1036.74,-25.48 1026.22,-26.79 1035.25,-32.32 1036.74,-25.48"/>
</a>
</g>
</g>
<!-- Node9 -->
<g id="Node000009" class="node">
<title>Node9</title>
<g id="a_Node000009"><a xlink:title=" ">
<polygon fill="#e0e0e0" stroke="#999999" points="1130.75,-26 1062.25,-26 1062.25,-6 1130.75,-6 1130.75,-26"/>
<text xml:space="preserve" text-anchor="middle" x="1096.5" y="-12.5" font-family="Helvetica,sans-Serif" font-size="10.00">java.util.List</text>
</a>
</g>
</g>
<!-- Node1&#45;&gt;Node9 -->
<g id="edge8_Node000001_Node000009" class="edge">
<title>Node1&#45;&gt;Node9</title>
<g id="a_edge8_Node000001_Node000009"><a xlink:title=" ">
<path fill="none" stroke="#63b8ff" d="M1763.06,-83.95C1625.81,-83.66 1360.66,-76.6 1140.5,-32 1137.49,-31.39 1134.4,-30.63 1131.33,-29.78"/>
<polygon fill="#63b8ff" stroke="#63b8ff" points="1132.43,-26.46 1121.84,-26.84 1130.36,-33.14 1132.43,-26.46"/>
</a>
</g>
</g>
<!-- Node10 -->
<g id="Node000010" class="node">
<title>Node10</title>
<g id="a_Node000010"><a xlink:title=" ">
<polygon fill="#e0e0e0" stroke="#999999" points="1237.88,-26 1149.12,-26 1149.12,-6 1237.88,-6 1237.88,-26"/>
<text xml:space="preserve" text-anchor="middle" x="1193.5" y="-12.5" font-family="Helvetica,sans-Serif" font-size="10.00">java.util.Optional</text>
</a>
</g>
</g>
<!-- Node1&#45;&gt;Node10 -->
<g id="edge9_Node000001_Node000010" class="edge">
<title>Node1&#45;&gt;Node10</title>
<g id="a_edge9_Node000001_Node000010"><a xlink:title=" ">
<path fill="none" stroke="#63b8ff" d="M1763.13,-80.62C1643.36,-76.32 1428.4,-64.42 1247.5,-32 1243.38,-31.26 1239.12,-30.35 1234.88,-29.34"/>
<polygon fill="#63b8ff" stroke="#63b8ff" points="1235.85,-25.97 1225.29,-26.87 1234.11,-32.75 1235.85,-25.97"/>
</a>
</g>
</g>
<!-- Node11 -->
<g id="Node000011" class="node">
<title>Node11</title>
<g id="a_Node000011"><a xlink:title=" ">
<polygon fill="#e0e0e0" stroke="#999999" points="1380.88,-26 1256.12,-26 1256.12,-6 1380.88,-6 1380.88,-26"/>
<text xml:space="preserve" text-anchor="middle" x="1318.5" y="-12.5" font-family="Helvetica,sans-Serif" font-size="10.00">java.util.ResourceBundle</text>
</a>
</g>
</g>
<!-- Node1&#45;&gt;Node11 -->
<g id="edge10_Node000001_Node000011" class="edge">
<title>Node1&#45;&gt;Node11</title>
<g id="a_edge10_Node000001_Node000011"><a xlink:title=" ">
<path fill="none" stroke="#63b8ff" d="M1763.18,-75.62C1668.91,-67.44 1518.48,-52.63 1389.5,-32 1383.51,-31.04 1377.27,-29.91 1371.07,-28.71"/>
<polygon fill="#63b8ff" stroke="#63b8ff" points="1372.02,-25.34 1361.53,-26.8 1370.64,-32.2 1372.02,-25.34"/>
</a>
</g>
</g>
<!-- Node12 -->
<g id="Node000012" class="node">
<title>Node12</title>
<g id="a_Node000012"><a xlink:title=" ">
<polygon fill="#e0e0e0" stroke="#999999" points="1526,-26 1399,-26 1399,-6 1526,-6 1526,-26"/>
<text xml:space="preserve" text-anchor="middle" x="1462.5" y="-12.5" font-family="Helvetica,sans-Serif" font-size="10.00">javafx.scene.control.Alert</text>
</a>
</g>
</g>
<!-- Node1&#45;&gt;Node12 -->
<g id="edge11_Node000001_Node000012" class="edge">
<title>Node1&#45;&gt;Node12</title>
<g id="a_edge11_Node000001_Node000012"><a xlink:title=" ">
<path fill="none" stroke="#63b8ff" d="M1763.29,-69.55C1699.02,-59.88 1611.37,-46.11 1534.5,-32 1528.91,-30.97 1523.09,-29.85 1517.29,-28.7"/>
<polygon fill="#63b8ff" stroke="#63b8ff" points="1518.2,-25.31 1507.7,-26.76 1516.81,-32.17 1518.2,-25.31"/>
</a>
</g>
</g>
<!-- Node13 -->
<g id="Node000013" class="node">
<title>Node13</title>
<g id="a_Node000013"><a xlink:title=" ">
<polygon fill="#e0e0e0" stroke="#999999" points="1679.12,-26 1543.88,-26 1543.88,-6 1679.12,-6 1679.12,-26"/>
<text xml:space="preserve" text-anchor="middle" x="1611.5" y="-12.5" font-family="Helvetica,sans-Serif" font-size="10.00">javafx.scene.control.Button</text>
</a>
</g>
</g>
<!-- Node1&#45;&gt;Node13 -->
<g id="edge12_Node000001_Node000013" class="edge">
<title>Node1&#45;&gt;Node13</title>
<g id="a_edge12_Node000001_Node000013"><a xlink:title=" ">
<path fill="none" stroke="#63b8ff" d="M1798.29,-67.53C1755.38,-55.92 1697.4,-40.24 1657.48,-29.44"/>
<polygon fill="#63b8ff" stroke="#63b8ff" points="1658.5,-26.09 1647.93,-26.86 1656.67,-32.84 1658.5,-26.09"/>
</a>
</g>
</g>
<!-- Node14 -->
<g id="Node000014" class="node">
<title>Node14</title>
<g id="a_Node000014"><a xlink:title=" ">
<polygon fill="#e0e0e0" stroke="#999999" points="1853.62,-26 1697.38,-26 1697.38,-6 1853.62,-6 1853.62,-26"/>
<text xml:space="preserve" text-anchor="middle" x="1775.5" y="-12.5" font-family="Helvetica,sans-Serif" font-size="10.00">javafx.scene.control.ButtonType</text>
</a>
</g>
</g>
<!-- Node1&#45;&gt;Node14 -->
<g id="edge13_Node000001_Node000014" class="edge">
<title>Node1&#45;&gt;Node14</title>
<g id="a_edge13_Node000001_Node000014"><a xlink:title=" ">
<path fill="none" stroke="#63b8ff" d="M1836.95,-67.69C1824.59,-57.5 1808.35,-44.1 1795.67,-33.64"/>
<polygon fill="#63b8ff" stroke="#63b8ff" points="1797.9,-30.94 1787.96,-27.28 1793.45,-36.34 1797.9,-30.94"/>
</a>
</g>
</g>
<!-- Node15 -->
<g id="Node000015" class="node">
<title>Node15</title>
<g id="a_Node000015"><a xlink:title=" ">
<polygon fill="#e0e0e0" stroke="#999999" points="2001.5,-32 1871.5,-32 1871.5,0 2001.5,0 2001.5,-32"/>
<text xml:space="preserve" text-anchor="start" x="1879.5" y="-18.5" font-family="Helvetica,sans-Serif" font-size="10.00">javafx.scene.control.Color</text>
<text xml:space="preserve" text-anchor="middle" x="1936.5" y="-6.5" font-family="Helvetica,sans-Serif" font-size="10.00">Picker</text>
</a>
</g>
</g>
<!-- Node1&#45;&gt;Node15 -->
<g id="edge14_Node000001_Node000015" class="edge">
<title>Node1&#45;&gt;Node15</title>
<g id="a_edge14_Node000001_Node000015"><a xlink:title=" ">
<path fill="none" stroke="#63b8ff" d="M1874.29,-67.69C1884.54,-59.34 1897.43,-48.84 1908.81,-39.56"/>
<polygon fill="#63b8ff" stroke="#63b8ff" points="1910.82,-42.44 1916.36,-33.41 1906.4,-37.01 1910.82,-42.44"/>
</a>
</g>
</g>
<!-- Node16 -->
<g id="Node000016" class="node">
<title>Node16</title>
<g id="a_Node000016"><a xlink:title=" ">
<polygon fill="#e0e0e0" stroke="#999999" points="2149.5,-26 2019.5,-26 2019.5,-6 2149.5,-6 2149.5,-26"/>
<text xml:space="preserve" text-anchor="middle" x="2084.5" y="-12.5" font-family="Helvetica,sans-Serif" font-size="10.00">javafx.scene.control.Label</text>
</a>
</g>
</g>
<!-- Node1&#45;&gt;Node16 -->
<g id="edge15_Node000001_Node000016" class="edge">
<title>Node1&#45;&gt;Node16</title>
<g id="a_edge15_Node000001_Node000016"><a xlink:title=" ">
<path fill="none" stroke="#63b8ff" d="M1909.19,-67.53C1949.21,-55.99 2003.18,-40.44 2040.62,-29.65"/>
<polygon fill="#63b8ff" stroke="#63b8ff" points="2041.58,-33.01 2050.22,-26.88 2039.64,-26.29 2041.58,-33.01"/>
</a>
</g>
</g>
<!-- Node17 -->
<g id="Node000017" class="node">
<title>Node17</title>
<g id="a_Node000017"><a xlink:title=" ">
<polygon fill="#e0e0e0" stroke="#999999" points="2311.62,-26 2167.38,-26 2167.38,-6 2311.62,-6 2311.62,-26"/>
<text xml:space="preserve" text-anchor="middle" x="2239.5" y="-12.5" font-family="Helvetica,sans-Serif" font-size="10.00">javafx.scene.control.ListView</text>
</a>
</g>
</g>
<!-- Node1&#45;&gt;Node17 -->
<g id="edge16_Node000001_Node000017" class="edge">
<title>Node1&#45;&gt;Node17</title>
<g id="a_edge16_Node000001_Node000017"><a xlink:title=" ">
<path fill="none" stroke="#63b8ff" d="M1947.73,-67.88C2007.8,-57.93 2087.85,-44.49 2158.5,-32 2164.82,-30.88 2171.4,-29.7 2177.98,-28.5"/>
<polygon fill="#63b8ff" stroke="#63b8ff" points="2178.27,-32.01 2187.48,-26.76 2177.01,-25.12 2178.27,-32.01"/>
</a>
</g>
</g>
<!-- Node18 -->
<g id="Node000018" class="node">
<title>Node18</title>
<g id="a_Node000018"><a xlink:title=" ">
<polygon fill="#e0e0e0" stroke="#999999" points="2461.25,-26 2329.75,-26 2329.75,-6 2461.25,-6 2461.25,-26"/>
<text xml:space="preserve" text-anchor="middle" x="2395.5" y="-12.5" font-family="Helvetica,sans-Serif" font-size="10.00">javafx.scene.control.Slider</text>
</a>
</g>
</g>
<!-- Node1&#45;&gt;Node18 -->
<g id="edge17_Node000001_Node000018" class="edge">
<title>Node1&#45;&gt;Node18</title>
<g id="a_edge17_Node000001_Node000018"><a xlink:title=" ">
<path fill="none" stroke="#63b8ff" d="M1947.57,-75.31C2041.61,-66.9 2191.68,-51.91 2320.5,-32 2326.97,-31 2333.74,-29.83 2340.44,-28.59"/>
<polygon fill="#63b8ff" stroke="#63b8ff" points="2340.94,-32.05 2350.11,-26.74 2339.63,-25.18 2340.94,-32.05"/>
</a>
</g>
</g>
<!-- Node19 -->
<g id="Node000019" class="node">
<title>Node19</title>
<g id="a_Node000019"><a xlink:title=" ">
<polygon fill="#e0e0e0" stroke="#999999" points="2605.25,-32 2479.75,-32 2479.75,0 2605.25,0 2605.25,-32"/>
<text xml:space="preserve" text-anchor="start" x="2487.75" y="-18.5" font-family="Helvetica,sans-Serif" font-size="10.00">javafx.scene.control.Text</text>
<text xml:space="preserve" text-anchor="middle" x="2542.5" y="-6.5" font-family="Helvetica,sans-Serif" font-size="10.00">Field</text>
</a>
</g>
</g>
<!-- Node1&#45;&gt;Node19 -->
<g id="edge18_Node000001_Node000019" class="edge">
<title>Node1&#45;&gt;Node19</title>
<g id="a_edge18_Node000001_Node000019"><a xlink:title=" ">
<path fill="none" stroke="#63b8ff" d="M1947.85,-78.88C2066.15,-72.81 2277.68,-59.29 2468.01,-32.24"/>
<polygon fill="#63b8ff" stroke="#63b8ff" points="2468.46,-35.71 2477.86,-30.83 2467.47,-28.79 2468.46,-35.71"/>
</a>
</g>
</g>
<!-- Node20 -->
<g id="Node000020" class="node">
<title>Node20</title>
<g id="a_Node000020"><a xlink:title=" ">
<polygon fill="#e0e0e0" stroke="#999999" points="2753.88,-26 2623.12,-26 2623.12,-6 2753.88,-6 2753.88,-26"/>
<text xml:space="preserve" text-anchor="middle" x="2688.5" y="-12.5" font-family="Helvetica,sans-Serif" font-size="10.00">javafx.scene.image.Image</text>
</a>
</g>
</g>
<!-- Node1&#45;&gt;Node20 -->
<g id="edge19_Node000001_Node000020" class="edge">
<title>Node1&#45;&gt;Node20</title>
<g id="a_edge19_Node000001_Node000020"><a xlink:title=" ">
<path fill="none" stroke="#63b8ff" d="M1947.9,-80.75C2091.21,-76.36 2375.46,-64.11 2614.5,-32 2621.32,-31.08 2628.46,-29.91 2635.5,-28.63"/>
<polygon fill="#63b8ff" stroke="#63b8ff" points="2636.14,-32.07 2645.3,-26.75 2634.82,-25.19 2636.14,-32.07"/>
</a>
</g>
</g>
<!-- Node21 -->
<g id="Node000021" class="node">
<title>Node21</title>
<g id="a_Node000021"><a xlink:title=" ">
<polygon fill="#e0e0e0" stroke="#999999" points="2924.75,-26 2772.25,-26 2772.25,-6 2924.75,-6 2924.75,-26"/>
<text xml:space="preserve" text-anchor="middle" x="2848.5" y="-12.5" font-family="Helvetica,sans-Serif" font-size="10.00">javafx.scene.image.ImageView</text>
</a>
</g>
</g>
<!-- Node1&#45;&gt;Node21 -->
<g id="edge20_Node000001_Node000021" class="edge">
<title>Node1&#45;&gt;Node21</title>
<g id="a_edge20_Node000001_Node000021"><a xlink:title=" ">
<path fill="none" stroke="#63b8ff" d="M1947.86,-81.36C2112.19,-77.64 2465.98,-66.08 2762.5,-32 2770.98,-31.03 2779.89,-29.75 2788.63,-28.36"/>
<polygon fill="#63b8ff" stroke="#63b8ff" points="2789.19,-31.82 2798.49,-26.73 2788.05,-24.91 2789.19,-31.82"/>
</a>
</g>
</g>
<!-- Node22 -->
<g id="Node000022" class="node">
<title>Node22</title>
<g id="a_Node000022"><a xlink:title=" ">
<polygon fill="#e0e0e0" stroke="#999999" points="3100,-26 2943,-26 2943,-6 3100,-6 3100,-26"/>
<text xml:space="preserve" text-anchor="middle" x="3021.5" y="-12.5" font-family="Helvetica,sans-Serif" font-size="10.00">javafx.scene.layout.AnchorPane</text>
</a>
</g>
</g>
<!-- Node1&#45;&gt;Node22 -->
<g id="edge21_Node000001_Node000022" class="edge">
<title>Node1&#45;&gt;Node22</title>
<g id="a_edge21_Node000001_Node000022"><a xlink:title=" ">
<path fill="none" stroke="#63b8ff" d="M1947.72,-82.41C2134.37,-80.38 2570.04,-71.43 2933.5,-32 2942.48,-31.03 2951.94,-29.72 2961.18,-28.28"/>
<polygon fill="#63b8ff" stroke="#63b8ff" points="2961.51,-31.77 2970.82,-26.71 2960.39,-24.86 2961.51,-31.77"/>
</a>
</g>
</g>
<!-- Node23 -->
<g id="Node000023" class="node">
<title>Node23</title>
<g id="a_Node000023"><a xlink:title=" ">
<polygon fill="#e0e0e0" stroke="#999999" points="3239.38,-26 3117.62,-26 3117.62,-6 3239.38,-6 3239.38,-26"/>
<text xml:space="preserve" text-anchor="middle" x="3178.5" y="-12.5" font-family="Helvetica,sans-Serif" font-size="10.00">javafx.scene.paint.Color</text>
</a>
</g>
</g>
<!-- Node1&#45;&gt;Node23 -->
<g id="edge22_Node000001_Node000023" class="edge">
<title>Node1&#45;&gt;Node23</title>
<g id="a_edge22_Node000001_Node000023"><a xlink:title=" ">
<path fill="none" stroke="#63b8ff" d="M1947.97,-81.32C2198.2,-76.44 2884.87,-60.76 3109.5,-32 3116.04,-31.16 3122.88,-30.01 3129.61,-28.72"/>
<polygon fill="#63b8ff" stroke="#63b8ff" points="3130.17,-32.18 3139.26,-26.75 3128.76,-25.32 3130.17,-32.18"/>
</a>
</g>
</g>
<!-- Node24 -->
<g id="Node000024" class="node">
<title>Node24</title>
<g id="a_Node000024"><a xlink:title=" ">
<polygon fill="#e0e0e0" stroke="#999999" points="3402,-26 3257,-26 3257,-6 3402,-6 3402,-26"/>
<text xml:space="preserve" text-anchor="middle" x="3329.5" y="-12.5" font-family="Helvetica,sans-Serif" font-size="10.00">javafx.scene.web.WebEngine</text>
</a>
</g>
</g>
<!-- Node1&#45;&gt;Node24 -->
<g id="edge23_Node000001_Node000024" class="edge">
<title>Node1&#45;&gt;Node24</title>
<g id="a_edge23_Node000001_Node000024"><a xlink:title=" ">
<path fill="none" stroke="#63b8ff" d="M1947.88,-81.39C2216.67,-76.41 2995.33,-59.92 3248.5,-32 3256.71,-31.09 3265.34,-29.83 3273.78,-28.43"/>
<polygon fill="#63b8ff" stroke="#63b8ff" points="3274.38,-31.87 3283.62,-26.69 3273.16,-24.98 3274.38,-31.87"/>
</a>
</g>
</g>
<!-- Node25 -->
<g id="Node000025" class="node">
<title>Node25</title>
<g id="a_Node000025"><a xlink:title=" ">
<polygon fill="#e0e0e0" stroke="#999999" points="3556.88,-26 3420.12,-26 3420.12,-6 3556.88,-6 3556.88,-26"/>
<text xml:space="preserve" text-anchor="middle" x="3488.5" y="-12.5" font-family="Helvetica,sans-Serif" font-size="10.00">javafx.scene.web.WebView</text>
</a>
</g>
</g>
<!-- Node1&#45;&gt;Node25 -->
<g id="edge24_Node000001_Node000025" class="edge">
<title>Node1&#45;&gt;Node25</title>
<g id="a_edge24_Node000001_Node000025"><a xlink:title=" ">
<path fill="none" stroke="#63b8ff" d="M1947.99,-81.91C2237.71,-78.18 3125.39,-64.35 3411.5,-32 3419.23,-31.13 3427.34,-29.9 3435.27,-28.51"/>
<polygon fill="#63b8ff" stroke="#63b8ff" points="3435.64,-32 3444.84,-26.75 3434.37,-25.12 3435.64,-32"/>
</a>
</g>
</g>
<!-- Node26 -->
<g id="Node000026" class="node">
<title>Node26</title>
<g id="a_Node000026"><a xlink:title=" ">
<polygon fill="#e0e0e0" stroke="#999999" points="3699.88,-26 3575.12,-26 3575.12,-6 3699.88,-6 3699.88,-26"/>
<text xml:space="preserve" text-anchor="middle" x="3637.5" y="-12.5" font-family="Helvetica,sans-Serif" font-size="10.00">javafx.stage.FileChooser</text>
</a>
</g>
</g>
<!-- Node1&#45;&gt;Node26 -->
<g id="edge25_Node000001_Node000026" class="edge">
<title>Node1&#45;&gt;Node26</title>
<g id="a_edge25_Node000001_Node000026"><a xlink:title=" ">
<path fill="none" stroke="#63b8ff" d="M1947.83,-82.38C2256.08,-79.99 3248.15,-69.5 3565.5,-32 3572.57,-31.16 3579.98,-29.98 3587.25,-28.64"/>
<polygon fill="#63b8ff" stroke="#63b8ff" points="3587.85,-32.09 3596.98,-26.72 3586.5,-25.22 3587.85,-32.09"/>
</a>
</g>
</g>
<!-- Node27 -->
<g id="Node000027" class="node">
<title>Node27</title>
<g id="a_Node000027"><a xlink:title=" ">
<polygon fill="#e0e0e0" stroke="#999999" points="3855.25,-32 3717.75,-32 3717.75,0 3855.25,0 3855.25,-32"/>
<text xml:space="preserve" text-anchor="start" x="3725.75" y="-18.5" font-family="Helvetica,sans-Serif" font-size="10.00">editeurpanovisu.BigDecimal</text>
<text xml:space="preserve" text-anchor="middle" x="3786.5" y="-6.5" font-family="Helvetica,sans-Serif" font-size="10.00">Field</text>
</a>
</g>
</g>
<!-- Node1&#45;&gt;Node27 -->
<g id="edge26_Node000001_Node000027" class="edge">
<title>Node1&#45;&gt;Node27</title>
<g id="a_edge26_Node000001_Node000027"><a xlink:title=" ">
<path fill="none" stroke="#63b8ff" d="M1947.81,-82.44C2269.16,-80.2 3338.8,-70.09 3705.82,-32.14"/>
<polygon fill="#63b8ff" stroke="#63b8ff" points="3706.19,-35.62 3715.76,-31.08 3705.45,-28.66 3706.19,-35.62"/>
</a>
</g>
</g>
</g>
</svg>
