<?xml version="1.0" encoding="UTF-8" standalone="no"?>
<!DOCTYPE svg PUBLIC "-//W3C//DTD SVG 1.1//EN"
 "http://www.w3.org/Graphics/SVG/1.1/DTD/svg11.dtd">
<!-- Generated by graphviz version 13.1.2 (20250808.2320)
 -->
<!-- Title: Graphe hiérarchique des classes Pages: 1 -->
<svg width="267pt" height="78pt"
 viewBox="0.00 0.00 267.00 78.00" xmlns="http://www.w3.org/2000/svg" xmlns:xlink="http://www.w3.org/1999/xlink">
<g id="graph0" class="graph" transform="scale(1 1) rotate(0) translate(4 74)">
<title>Graphe hiérarchique des classes</title>
<!-- Node0 -->
<g id="Node000000" class="node">
<title>Node0</title>
<g id="a_Node000000"><a xlink:title=" ">
<polygon fill="#e0e0e0" stroke="#999999" points="64,-42 0,-42 0,-22 64,-22 64,-42"/>
<text xml:space="preserve" text-anchor="middle" x="32" y="-28.5" font-family="Helvetica,sans-Serif" font-size="10.00">Application</text>
</a>
</g>
</g>
<!-- Node1 -->
<g id="Node000001" class="node">
<title>Node1</title>
<g id="a_Node000001"><a xlink:href="classediteurpanovisu_1_1DocumentationDialog_1_1TestApp.html" target="_top" xlink:title="Application de test.">
<polygon fill="white" stroke="#666666" points="255.88,-70 102.62,-70 102.62,-38 255.88,-38 255.88,-70"/>
<text xml:space="preserve" text-anchor="start" x="110.62" y="-56.5" font-family="Helvetica,sans-Serif" font-size="10.00">editeurpanovisu.Documentation</text>
<text xml:space="preserve" text-anchor="middle" x="179.25" y="-44.5" font-family="Helvetica,sans-Serif" font-size="10.00">Dialog.TestApp</text>
</a>
</g>
</g>
<!-- Node0&#45;&gt;Node1 -->
<g id="edge1_Node000000_Node000001" class="edge">
<title>Node0&#45;&gt;Node1</title>
<g id="a_edge1_Node000000_Node000001"><a xlink:title=" ">
<path fill="none" stroke="#63b8ff" d="M75.32,-38.41C83.86,-39.7 93.08,-41.1 102.37,-42.51"/>
<polygon fill="#63b8ff" stroke="#63b8ff" points="76.07,-34.98 65.66,-36.95 75.02,-41.9 76.07,-34.98"/>
</a>
</g>
</g>
<!-- Node2 -->
<g id="Node000002" class="node">
<title>Node2</title>
<g id="a_Node000002"><a xlink:href="classediteurpanovisu_1_1EditeurPanovisu.html" target="_top" xlink:title="Editeur de visites virtuelles.">
<polygon fill="white" stroke="#666666" points="258.5,-20 100,-20 100,0 258.5,0 258.5,-20"/>
<text xml:space="preserve" text-anchor="middle" x="179.25" y="-6.5" font-family="Helvetica,sans-Serif" font-size="10.00">editeurpanovisu.EditeurPanovisu</text>
</a>
</g>
</g>
<!-- Node0&#45;&gt;Node2 -->
<g id="edge2_Node000000_Node000002" class="edge">
<title>Node0&#45;&gt;Node2</title>
<g id="a_edge2_Node000000_Node000002"><a xlink:title=" ">
<path fill="none" stroke="#63b8ff" d="M75.52,-25.56C86.01,-23.97 97.53,-22.23 108.94,-20.5"/>
<polygon fill="#63b8ff" stroke="#63b8ff" points="75.02,-22.1 65.66,-27.05 76.07,-29.02 75.02,-22.1"/>
</a>
</g>
</g>
</g>
</svg>
