<?xml version="1.0" encoding="UTF-8" standalone="no"?>
<!DOCTYPE svg PUBLIC "-//W3C//DTD SVG 1.1//EN"
 "http://www.w3.org/Graphics/SVG/1.1/DTD/svg11.dtd">
<!-- Generated by graphviz version 13.1.2 (20250808.2320)
 -->
<!-- Title: Graphe hiérarchique des classes Pages: 1 -->
<svg width="268pt" height="102pt"
 viewBox="0.00 0.00 268.00 102.00" xmlns="http://www.w3.org/2000/svg" xmlns:xlink="http://www.w3.org/1999/xlink">
<g id="graph0" class="graph" transform="scale(1 1) rotate(0) translate(4 98)">
<title>Graphe hiérarchique des classes</title>
<!-- Node0 -->
<g id="Node000000" class="node">
<title>Node0</title>
<g id="a_Node000000"><a xlink:title=" ">
<polygon fill="#e0e0e0" stroke="#999999" points="49,-54 0,-54 0,-34 49,-34 49,-54"/>
<text xml:space="preserve" text-anchor="middle" x="24.5" y="-40.5" font-family="Helvetica,sans-Serif" font-size="10.00">ListCell</text>
</a>
</g>
</g>
<!-- Node1 -->
<g id="Node000001" class="node">
<title>Node1</title>
<g id="a_Node000001"><a xlink:href="classediteurpanovisu_1_1EquiCubeDialogController_1_1ListeTransformationCouleur.html" target="_top" xlink:title="Colorisation de la ListView des images à transformer.">
<polygon fill="white" stroke="#666666" points="260,-94 85,-94 85,-50 260,-50 260,-94"/>
<text xml:space="preserve" text-anchor="start" x="93" y="-80.5" font-family="Helvetica,sans-Serif" font-size="10.00">editeurpanovisu.EquiCube</text>
<text xml:space="preserve" text-anchor="start" x="93" y="-68.5" font-family="Helvetica,sans-Serif" font-size="10.00">DialogController.ListeTransformation</text>
<text xml:space="preserve" text-anchor="middle" x="172.5" y="-56.5" font-family="Helvetica,sans-Serif" font-size="10.00">Couleur</text>
</a>
</g>
</g>
<!-- Node0&#45;&gt;Node1 -->
<g id="edge8_Node000000_Node000001" class="edge">
<title>Node0&#45;&gt;Node1</title>
<g id="a_edge8_Node000000_Node000001"><a xlink:title=" ">
<path fill="none" stroke="#63b8ff" d="M60.37,-50.69C67.85,-52.12 76.09,-53.7 84.58,-55.33"/>
<polygon fill="#63b8ff" stroke="#63b8ff" points="61.25,-47.29 50.77,-48.85 59.93,-54.17 61.25,-47.29"/>
</a>
</g>
</g>
<!-- Node2 -->
<g id="Node000002" class="node">
<title>Node2</title>
<g id="a_Node000002"><a xlink:href="classediteurpanovisu_1_1ListePanoramiqueCellule.html" target="_top" xlink:title=" ">
<polygon fill="white" stroke="#666666" points="255.12,-32 89.88,-32 89.88,0 255.12,0 255.12,-32"/>
<text xml:space="preserve" text-anchor="start" x="97.88" y="-18.5" font-family="Helvetica,sans-Serif" font-size="10.00">editeurpanovisu.ListePanoramique</text>
<text xml:space="preserve" text-anchor="middle" x="172.5" y="-6.5" font-family="Helvetica,sans-Serif" font-size="10.00">Cellule</text>
</a>
</g>
</g>
<!-- Node0&#45;&gt;Node2 -->
<g id="edge9_Node000000_Node000002" class="edge">
<title>Node0&#45;&gt;Node2</title>
<g id="a_edge9_Node000000_Node000002"><a xlink:title=" ">
<path fill="none" stroke="#63b8ff" d="M60.37,-37.31C69.33,-35.59 79.35,-33.67 89.61,-31.7"/>
<polygon fill="#63b8ff" stroke="#63b8ff" points="59.93,-33.83 50.77,-39.15 61.25,-40.71 59.93,-33.83"/>
</a>
</g>
</g>
</g>
</svg>
