<?xml version="1.0" encoding="UTF-8" standalone="no"?>
<!DOCTYPE svg PUBLIC "-//W3C//DTD SVG 1.1//EN"
 "http://www.w3.org/Graphics/SVG/1.1/DTD/svg11.dtd">
<!-- Generated by graphviz version 13.1.2 (20250808.2320)
 -->
<!-- Title: Graphe hiérarchique des classes Pages: 1 -->
<svg width="225pt" height="140pt"
 viewBox="0.00 0.00 225.00 140.00" xmlns="http://www.w3.org/2000/svg" xmlns:xlink="http://www.w3.org/1999/xlink">
<g id="graph0" class="graph" transform="scale(1 1) rotate(0) translate(4 136)">
<title>Graphe hiérarchique des classes</title>
<!-- Node0 -->
<g id="Node000000" class="node">
<title>Node0</title>
<g id="a_Node000000"><a xlink:title=" ">
<polygon fill="#e0e0e0" stroke="#999999" points="46.75,-76 0,-76 0,-56 46.75,-56 46.75,-76"/>
<text xml:space="preserve" text-anchor="middle" x="23.38" y="-62.5" font-family="Helvetica,sans-Serif" font-size="10.00">Region</text>
</a>
</g>
</g>
<!-- Node1 -->
<g id="Node000001" class="node">
<title>Node1</title>
<g id="a_Node000001"><a xlink:href="classediteurpanovisu_1_1NavigateurCarte.html" target="_top" xlink:title=" ">
<polygon fill="white" stroke="#666666" points="217.25,-132 82.75,-132 82.75,-100 217.25,-100 217.25,-132"/>
<text xml:space="preserve" text-anchor="start" x="90.75" y="-118.5" font-family="Helvetica,sans-Serif" font-size="10.00">editeurpanovisu.Navigateur</text>
<text xml:space="preserve" text-anchor="middle" x="150" y="-106.5" font-family="Helvetica,sans-Serif" font-size="10.00">Carte</text>
</a>
</g>
</g>
<!-- Node0&#45;&gt;Node1 -->
<g id="edge11_Node000000_Node000001" class="edge">
<title>Node0&#45;&gt;Node1</title>
<g id="a_edge11_Node000000_Node000001"><a xlink:title=" ">
<path fill="none" stroke="#63b8ff" d="M57.41,-80.45C65.66,-83.97 74.5,-87.68 82.75,-91 89.82,-93.85 97.35,-96.78 104.71,-99.59"/>
<polygon fill="#63b8ff" stroke="#63b8ff" points="58.97,-77.31 48.4,-76.57 56.2,-83.74 58.97,-77.31"/>
</a>
</g>
</g>
<!-- Node2 -->
<g id="Node000002" class="node">
<title>Node2</title>
<g id="a_Node000002"><a xlink:href="classediteurpanovisu_1_1NavigateurCarteGluon.html" target="_top" xlink:title="NavigateurCarte utilisant JMapViewer (OpenStreetMap pour Java Desktop) Remplace Gluon Maps qui crasha...">
<polygon fill="white" stroke="#666666" points="217.25,-82 82.75,-82 82.75,-50 217.25,-50 217.25,-82"/>
<text xml:space="preserve" text-anchor="start" x="90.75" y="-68.5" font-family="Helvetica,sans-Serif" font-size="10.00">editeurpanovisu.Navigateur</text>
<text xml:space="preserve" text-anchor="middle" x="150" y="-56.5" font-family="Helvetica,sans-Serif" font-size="10.00">CarteGluon</text>
</a>
</g>
</g>
<!-- Node0&#45;&gt;Node2 -->
<g id="edge12_Node000000_Node000002" class="edge">
<title>Node0&#45;&gt;Node2</title>
<g id="a_edge12_Node000000_Node000002"><a xlink:title=" ">
<path fill="none" stroke="#63b8ff" d="M58.6,-66C66.01,-66 74.09,-66 82.27,-66"/>
<polygon fill="#63b8ff" stroke="#63b8ff" points="58.75,-62.5 48.75,-66 58.75,-69.5 58.75,-62.5"/>
</a>
</g>
</g>
<!-- Node3 -->
<g id="Node000003" class="node">
<title>Node3</title>
<g id="a_Node000003"><a xlink:href="classediteurpanovisu_1_1NavigateurCarteSeul.html" target="_top" xlink:title=" ">
<polygon fill="white" stroke="#666666" points="217.25,-32 82.75,-32 82.75,0 217.25,0 217.25,-32"/>
<text xml:space="preserve" text-anchor="start" x="90.75" y="-18.5" font-family="Helvetica,sans-Serif" font-size="10.00">editeurpanovisu.Navigateur</text>
<text xml:space="preserve" text-anchor="middle" x="150" y="-6.5" font-family="Helvetica,sans-Serif" font-size="10.00">CarteSeul</text>
</a>
</g>
</g>
<!-- Node0&#45;&gt;Node3 -->
<g id="edge13_Node000000_Node000003" class="edge">
<title>Node0&#45;&gt;Node3</title>
<g id="a_edge13_Node000000_Node000003"><a xlink:title=" ">
<path fill="none" stroke="#63b8ff" d="M57.41,-51.55C65.66,-48.03 74.5,-44.32 82.75,-41 89.82,-38.15 97.35,-35.22 104.71,-32.41"/>
<polygon fill="#63b8ff" stroke="#63b8ff" points="56.2,-48.26 48.4,-55.43 58.97,-54.69 56.2,-48.26"/>
</a>
</g>
</g>
</g>
</svg>
