<?xml version="1.0" encoding="UTF-8" standalone="no"?>
<!DOCTYPE svg PUBLIC "-//W3C//DTD SVG 1.1//EN"
 "http://www.w3.org/Graphics/SVG/1.1/DTD/svg11.dtd">
<!-- Generated by graphviz version 13.1.2 (20250808.2320)
 -->
<!-- Title: r Pages: 1 -->
<svg width="140pt" height="122pt"
 viewBox="0.00 0.00 140.00 122.00" xmlns="http://www.w3.org/2000/svg" xmlns:xlink="http://www.w3.org/1999/xlink">
<g id="graph0" class="graph" transform="scale(1 1) rotate(0) translate(4 118)">
<title>r</title>
<!-- Node1 -->
<g id="Node000001" class="node">
<title>Node1</title>
<g id="a_Node000001"><a xlink:title=" ">
<polygon fill="#999999" stroke="#666666" points="131.8,-58 103,-58 103,-38 131.8,-38 131.8,-58"/>
<text xml:space="preserve" text-anchor="middle" x="117.4" y="-44.5" font-family="Helvetica,sans-Serif" font-size="10.00">r</text>
</a>
</g>
</g>
<!-- Node2 -->
<g id="Node000002" class="node">
<title>Node2</title>
<g id="a_Node000002"><a xlink:href="jquery_8dd_8js.html#a970847db1a57f09394e1e7e8a3a69c11" target="_top" xlink:title=" ">
<polygon fill="white" stroke="#666666" points="47.9,-96 19.1,-96 19.1,-76 47.9,-76 47.9,-96"/>
<text xml:space="preserve" text-anchor="middle" x="33.5" y="-82.5" font-family="Helvetica,sans-Serif" font-size="10.00">dd</text>
</a>
</g>
</g>
<!-- Node1&#45;&gt;Node2 -->
<g id="edge1_Node000001_Node000002" class="edge">
<title>Node1&#45;&gt;Node2</title>
<g id="a_edge1_Node000001_Node000002"><a xlink:title=" ">
<path fill="none" stroke="#63b8ff" d="M92.32,-59.17C77.94,-65.85 60.2,-74.08 48.19,-79.65"/>
<polygon fill="#63b8ff" stroke="#63b8ff" points="93.54,-62.47 101.13,-55.08 90.59,-56.12 93.54,-62.47"/>
</a>
</g>
</g>
<!-- Node3 -->
<g id="Node000003" class="node">
<title>Node3</title>
<g id="a_Node000003"><a xlink:href="types_8js.html#a0f17c28b964a5d8aff5b2119c92a6665" target="_top" xlink:title=" ">
<polygon fill="white" stroke="#666666" points="67,-58 0,-58 0,-38 67,-38 67,-58"/>
<text xml:space="preserve" text-anchor="middle" x="33.5" y="-44.5" font-family="Helvetica,sans-Serif" font-size="10.00">makeGetter</text>
</a>
</g>
</g>
<!-- Node1&#45;&gt;Node3 -->
<g id="edge3_Node000001_Node000003" class="edge">
<title>Node1&#45;&gt;Node3</title>
<g id="a_edge3_Node000001_Node000003"><a xlink:title=" ">
<path fill="none" stroke="#63b8ff" d="M91.15,-48C83.59,-48 75.19,-48 67.22,-48"/>
<polygon fill="#63b8ff" stroke="#63b8ff" points="90.99,-51.5 100.99,-48 90.99,-44.5 90.99,-51.5"/>
</a>
</g>
</g>
<!-- Node4 -->
<g id="Node000004" class="node">
<title>Node4</title>
<g id="a_Node000004"><a xlink:href="types_8js.html#a6b2e76ac5cceebd8392568094c075859" target="_top" xlink:title=" ">
<polygon fill="white" stroke="#666666" points="66.62,-20 0.38,-20 0.38,0 66.62,0 66.62,-20"/>
<text xml:space="preserve" text-anchor="middle" x="33.5" y="-6.5" font-family="Helvetica,sans-Serif" font-size="10.00">makeSetter</text>
</a>
</g>
</g>
<!-- Node1&#45;&gt;Node4 -->
<g id="edge4_Node000001_Node000004" class="edge">
<title>Node1&#45;&gt;Node4</title>
<g id="a_edge4_Node000001_Node000004"><a xlink:title=" ">
<path fill="none" stroke="#63b8ff" d="M92.14,-36.75C80.95,-31.55 67.76,-25.43 56.82,-20.35"/>
<polygon fill="#63b8ff" stroke="#63b8ff" points="90.59,-39.88 101.13,-40.92 93.54,-33.53 90.59,-39.88"/>
</a>
</g>
</g>
<!-- Node2&#45;&gt;Node2 -->
<g id="edge2_Node000002_Node000002" class="edge">
<title>Node2&#45;&gt;Node2</title>
<g id="a_edge2_Node000002_Node000002"><a xlink:title=" ">
<path fill="none" stroke="#63b8ff" d="M48.16,-107.77C46.13,-111.45 41.25,-114 33.5,-114 18.92,-114 14.47,-104.98 20.17,-96.34"/>
<polygon fill="#63b8ff" stroke="#63b8ff" points="51.64,-107.37 47.01,-97.84 44.68,-108.18 51.64,-107.37"/>
</a>
</g>
</g>
</g>
</svg>
