<?xml version="1.0" encoding="UTF-8" standalone="no"?>
<!DOCTYPE svg PUBLIC "-//W3C//DTD SVG 1.1//EN"
 "http://www.w3.org/Graphics/SVG/1.1/DTD/svg11.dtd">
<!-- Generated by graphviz version 13.1.2 (20250808.2320)
 -->
<!-- Title: v Pages: 1 -->
<svg width="420pt" height="426pt"
 viewBox="0.00 0.00 420.00 426.00" xmlns="http://www.w3.org/2000/svg" xmlns:xlink="http://www.w3.org/1999/xlink">
<g id="graph0" class="graph" transform="scale(1 1) rotate(0) translate(4 422)">
<title>v</title>
<!-- Node1 -->
<g id="Node000001" class="node">
<title>Node1</title>
<g id="a_Node000001"><a xlink:title=" ">
<polygon fill="#999999" stroke="#666666" points="412.05,-229 383.25,-229 383.25,-209 412.05,-209 412.05,-229"/>
<text xml:space="preserve" text-anchor="middle" x="397.65" y="-215.5" font-family="Helvetica,sans-Serif" font-size="10.00">v</text>
</a>
</g>
</g>
<!-- Node2 -->
<g id="Node000002" class="node">
<title>Node2</title>
<g id="a_Node000002"><a xlink:href="types_8js.html#a008a9fcd44b4dd1091949d3f3e9bbded" target="_top" xlink:title=" ">
<polygon fill="white" stroke="#666666" points="330,-418 288.5,-418 288.5,-398 330,-398 330,-418"/>
<text xml:space="preserve" text-anchor="middle" x="309.25" y="-404.5" font-family="Helvetica,sans-Serif" font-size="10.00">Class</text>
</a>
</g>
</g>
<!-- Node1&#45;&gt;Node2 -->
<g id="edge1_Node000001_Node000002" class="edge">
<title>Node1&#45;&gt;Node2</title>
<g id="a_edge1_Node000001_Node000002"><a xlink:title=" ">
<path fill="none" stroke="#63b8ff" d="M395.72,-240.71C393.14,-275.7 383.47,-345.07 347.25,-389 342.84,-394.35 336.53,-398.36 330.37,-401.28"/>
<polygon fill="#63b8ff" stroke="#63b8ff" points="399.19,-241.19 396.29,-231 392.21,-240.77 399.19,-241.19"/>
</a>
</g>
</g>
<!-- Node3 -->
<g id="Node000003" class="node">
<title>Node3</title>
<g id="a_Node000003"><a xlink:href="jquery_8dd_8js.html#a970847db1a57f09394e1e7e8a3a69c11" target="_top" xlink:title=" ">
<polygon fill="white" stroke="#666666" points="323.65,-362 294.85,-362 294.85,-342 323.65,-342 323.65,-362"/>
<text xml:space="preserve" text-anchor="middle" x="309.25" y="-348.5" font-family="Helvetica,sans-Serif" font-size="10.00">dd</text>
</a>
</g>
</g>
<!-- Node1&#45;&gt;Node3 -->
<g id="edge2_Node000001_Node000003" class="edge">
<title>Node1&#45;&gt;Node3</title>
<g id="a_edge2_Node000001_Node000003"><a xlink:title=" ">
<path fill="none" stroke="#63b8ff" d="M390.97,-240.23C383.85,-263.76 369.75,-301.85 347.25,-328 340.86,-335.43 331.61,-341.43 323.96,-345.57"/>
<polygon fill="#63b8ff" stroke="#63b8ff" points="394.27,-241.42 393.66,-230.84 387.54,-239.49 394.27,-241.42"/>
</a>
</g>
</g>
<!-- Node4 -->
<g id="Node000004" class="node">
<title>Node4</title>
<g id="a_Node000004"><a xlink:href="types_8js.html#ae10740cd3f25196c80365367c0431688" target="_top" xlink:title=" ">
<polygon fill="white" stroke="#666666" points="235.25,-316 125.5,-316 125.5,-296 235.25,-296 235.25,-316"/>
<text xml:space="preserve" text-anchor="middle" x="180.38" y="-302.5" font-family="Helvetica,sans-Serif" font-size="10.00">makeArrayAccessors</text>
</a>
</g>
</g>
<!-- Node1&#45;&gt;Node4 -->
<g id="edge4_Node000001_Node000004" class="edge">
<title>Node1&#45;&gt;Node4</title>
<g id="a_edge4_Node000001_Node000004"><a xlink:title=" ">
<path fill="none" stroke="#63b8ff" d="M385.11,-238.59C376.38,-251.59 363.2,-267.89 347.25,-277 313.36,-296.36 269.71,-303.42 235.69,-305.74"/>
<polygon fill="#63b8ff" stroke="#63b8ff" points="387.93,-240.67 390.31,-230.35 382.01,-236.94 387.93,-240.67"/>
</a>
</g>
</g>
<!-- Node6 -->
<g id="Node000006" class="node">
<title>Node6</title>
<g id="a_Node000006"><a xlink:href="types_8js.html#a23ecb3f1ef42f3c37ee659b65bafcf17" target="_top" xlink:title=" ">
<polygon fill="white" stroke="#666666" points="207.12,-271 153.62,-271 153.62,-251 207.12,-251 207.12,-271"/>
<text xml:space="preserve" text-anchor="middle" x="180.38" y="-257.5" font-family="Helvetica,sans-Serif" font-size="10.00">packF32</text>
</a>
</g>
</g>
<!-- Node1&#45;&gt;Node6 -->
<g id="edge6_Node000001_Node000006" class="edge">
<title>Node1&#45;&gt;Node6</title>
<g id="a_edge6_Node000001_Node000006"><a xlink:title=" ">
<path fill="none" stroke="#63b8ff" d="M379.05,-236.95C370.29,-244.65 359.06,-252.82 347.25,-257 300.27,-273.61 241.03,-269.6 207.56,-265.25"/>
<polygon fill="#63b8ff" stroke="#63b8ff" points="381.22,-239.72 386.11,-230.33 376.42,-234.62 381.22,-239.72"/>
</a>
</g>
</g>
<!-- Node7 -->
<g id="Node000007" class="node">
<title>Node7</title>
<g id="a_Node000007"><a xlink:href="types_8js.html#a7763c96bba311efea7a7a15f584154d2" target="_top" xlink:title=" ">
<polygon fill="white" stroke="#666666" points="207.12,-219 153.62,-219 153.62,-199 207.12,-199 207.12,-219"/>
<text xml:space="preserve" text-anchor="middle" x="180.38" y="-205.5" font-family="Helvetica,sans-Serif" font-size="10.00">packF64</text>
</a>
</g>
</g>
<!-- Node1&#45;&gt;Node7 -->
<g id="edge7_Node000001_Node000007" class="edge">
<title>Node1&#45;&gt;Node7</title>
<g id="a_edge7_Node000001_Node000007"><a xlink:title=" ">
<path fill="none" stroke="#63b8ff" d="M371.48,-217.83C330.41,-215.92 249.37,-212.16 207.61,-210.22"/>
<polygon fill="#63b8ff" stroke="#63b8ff" points="371.19,-221.32 381.34,-218.29 371.52,-214.33 371.19,-221.32"/>
</a>
</g>
</g>
<!-- Node8 -->
<g id="Node000008" class="node">
<title>Node8</title>
<g id="a_Node000008"><a xlink:href="types_8js.html#ac517fb9ca2f601a25315b53bcf344421" target="_top" xlink:title=" ">
<polygon fill="white" stroke="#666666" points="347.25,-248 271.25,-248 271.25,-228 347.25,-228 347.25,-248"/>
<text xml:space="preserve" text-anchor="middle" x="309.25" y="-234.5" font-family="Helvetica,sans-Serif" font-size="10.00">packIEEE754</text>
</a>
</g>
</g>
<!-- Node1&#45;&gt;Node8 -->
<g id="edge8_Node000001_Node000008" class="edge">
<title>Node1&#45;&gt;Node8</title>
<g id="a_edge8_Node000001_Node000008"><a xlink:title=" ">
<path fill="none" stroke="#63b8ff" d="M371.55,-224.52C364.06,-226.17 355.69,-228.01 347.59,-229.79"/>
<polygon fill="#63b8ff" stroke="#63b8ff" points="372.28,-227.94 381.29,-222.38 370.77,-221.11 372.28,-227.94"/>
</a>
</g>
</g>
<!-- Node9 -->
<g id="Node000009" class="node">
<title>Node9</title>
<g id="a_Node000009"><a xlink:href="types_8js.html#a8a09182595dc08708e582a9aeaa29c22" target="_top" xlink:title=" ">
<polygon fill="white" stroke="#666666" points="333.38,-172 285.12,-172 285.12,-152 333.38,-152 333.38,-172"/>
<text xml:space="preserve" text-anchor="middle" x="309.25" y="-158.5" font-family="Helvetica,sans-Serif" font-size="10.00">ToInt32</text>
</a>
</g>
</g>
<!-- Node1&#45;&gt;Node9 -->
<g id="edge11_Node000001_Node000009" class="edge">
<title>Node1&#45;&gt;Node9</title>
<g id="a_edge11_Node000001_Node000009"><a xlink:title=" ">
<path fill="none" stroke="#63b8ff" d="M373.46,-203.41C365.2,-197.89 355.82,-191.64 347.25,-186 340.47,-181.54 332.96,-176.66 326.49,-172.47"/>
<polygon fill="#63b8ff" stroke="#63b8ff" points="371.33,-206.2 381.59,-208.86 375.23,-200.39 371.33,-206.2"/>
</a>
</g>
</g>
<!-- Node11 -->
<g id="Node000011" class="node">
<title>Node11</title>
<g id="a_Node000011"><a xlink:href="types_8js.html#af386b6d127a6af65de67a20078611ac4" target="_top" xlink:title=" ">
<polygon fill="white" stroke="#666666" points="336.75,-134 281.75,-134 281.75,-114 336.75,-114 336.75,-134"/>
<text xml:space="preserve" text-anchor="middle" x="309.25" y="-120.5" font-family="Helvetica,sans-Serif" font-size="10.00">ToObject</text>
</a>
</g>
</g>
<!-- Node1&#45;&gt;Node11 -->
<g id="edge15_Node000001_Node000011" class="edge">
<title>Node1&#45;&gt;Node11</title>
<g id="a_edge15_Node000001_Node000011"><a xlink:title=" ">
<path fill="none" stroke="#63b8ff" d="M387.04,-198.4C378.47,-181.78 364.62,-158.68 347.25,-143 343.61,-139.71 339.29,-136.83 334.91,-134.37"/>
<polygon fill="#63b8ff" stroke="#63b8ff" points="383.88,-199.91 391.44,-207.33 390.16,-196.82 383.88,-199.91"/>
</a>
</g>
</g>
<!-- Node12 -->
<g id="Node000012" class="node">
<title>Node12</title>
<g id="a_Node000012"><a xlink:href="types_8js.html#a0b3d7f0fdd834a9de0cb0d0bf787f0b2" target="_top" xlink:title=" ">
<polygon fill="white" stroke="#666666" points="336.75,-58 281.75,-58 281.75,-38 336.75,-38 336.75,-58"/>
<text xml:space="preserve" text-anchor="middle" x="309.25" y="-44.5" font-family="Helvetica,sans-Serif" font-size="10.00">ToUint32</text>
</a>
</g>
</g>
<!-- Node1&#45;&gt;Node12 -->
<g id="edge16_Node000001_Node000012" class="edge">
<title>Node1&#45;&gt;Node12</title>
<g id="a_edge16_Node000001_Node000012"><a xlink:title=" ">
<path fill="none" stroke="#63b8ff" d="M394.85,-197.81C391.13,-165.96 379.96,-105.42 347.25,-67 344.35,-63.59 340.68,-60.72 336.79,-58.32"/>
<polygon fill="#63b8ff" stroke="#63b8ff" points="391.33,-197.75 395.82,-207.34 398.29,-197.04 391.33,-197.75"/>
</a>
</g>
</g>
<!-- Node16 -->
<g id="Node000016" class="node">
<title>Node16</title>
<g id="a_Node000016"><a xlink:href="types_8js.html#a4fadfd83d9aa0a9435b087f1da6e2649" target="_top" xlink:title=" ">
<polygon fill="white" stroke="#666666" points="327.75,-96 290.75,-96 290.75,-76 327.75,-76 327.75,-96"/>
<text xml:space="preserve" text-anchor="middle" x="309.25" y="-82.5" font-family="Helvetica,sans-Serif" font-size="10.00">Type</text>
</a>
</g>
</g>
<!-- Node1&#45;&gt;Node16 -->
<g id="edge21_Node000001_Node000016" class="edge">
<title>Node1&#45;&gt;Node16</title>
<g id="a_edge21_Node000001_Node000016"><a xlink:title=" ">
<path fill="none" stroke="#63b8ff" d="M391.99,-197.46C385.64,-172.54 372.1,-131.53 347.25,-105 342.02,-99.41 334.77,-95.2 328.08,-92.17"/>
<polygon fill="#63b8ff" stroke="#63b8ff" points="388.56,-198.17 394.27,-207.09 395.38,-196.56 388.56,-198.17"/>
</a>
</g>
</g>
<!-- Node3&#45;&gt;Node3 -->
<g id="edge3_Node000003_Node000003" class="edge">
<title>Node3&#45;&gt;Node3</title>
<g id="a_edge3_Node000003_Node000003"><a xlink:title=" ">
<path fill="none" stroke="#63b8ff" d="M324.87,-373.44C322.86,-377.3 317.65,-380 309.25,-380 293.88,-380 289.2,-370.98 295.2,-362.34"/>
<polygon fill="#63b8ff" stroke="#63b8ff" points="328.38,-373.24 323.51,-363.84 321.45,-374.23 328.38,-373.24"/>
</a>
</g>
</g>
<!-- Node5 -->
<g id="Node000005" class="node">
<title>Node5</title>
<g id="a_Node000005"><a xlink:href="types_8js.html#af90abc9967401ef54baa12b3a44eb162" target="_top" xlink:title=" ">
<polygon fill="white" stroke="#666666" points="89.5,-232 0,-232 0,-212 89.5,-212 89.5,-232"/>
<text xml:space="preserve" text-anchor="middle" x="44.75" y="-218.5" font-family="Helvetica,sans-Serif" font-size="10.00">makeTypedArray</text>
</a>
</g>
</g>
<!-- Node4&#45;&gt;Node5 -->
<g id="edge5_Node000004_Node000005" class="edge">
<title>Node4&#45;&gt;Node5</title>
<g id="a_edge5_Node000004_Node000005"><a xlink:title=" ">
<path fill="none" stroke="#63b8ff" d="M145.14,-290.62C138.51,-287.32 131.7,-283.71 125.5,-280 100.67,-265.14 73.87,-244.63 58.52,-232.4"/>
<polygon fill="#63b8ff" stroke="#63b8ff" points="143.4,-293.67 153.93,-294.85 146.43,-287.36 143.4,-293.67"/>
</a>
</g>
</g>
<!-- Node8&#45;&gt;Node6 -->
<g id="edge9_Node000008_Node000006" class="edge">
<title>Node8&#45;&gt;Node6</title>
<g id="a_edge9_Node000008_Node000006"><a xlink:title=" ">
<path fill="none" stroke="#63b8ff" d="M259.73,-246.8C241.87,-250.03 222.34,-253.57 207.24,-256.31"/>
<polygon fill="#63b8ff" stroke="#63b8ff" points="260.16,-250.27 269.38,-245.05 258.92,-243.39 260.16,-250.27"/>
</a>
</g>
</g>
<!-- Node8&#45;&gt;Node7 -->
<g id="edge10_Node000008_Node000007" class="edge">
<title>Node8&#45;&gt;Node7</title>
<g id="a_edge10_Node000008_Node000007"><a xlink:title=" ">
<path fill="none" stroke="#63b8ff" d="M259.73,-226.91C241.87,-222.83 222.34,-218.36 207.24,-214.91"/>
<polygon fill="#63b8ff" stroke="#63b8ff" points="258.87,-230.3 269.39,-229.12 260.43,-223.48 258.87,-230.3"/>
</a>
</g>
</g>
<!-- Node10 -->
<g id="Node000010" class="node">
<title>Node10</title>
<g id="a_Node000010"><a xlink:href="types_8js.html#afe675fd251e2881d35b4834778ddad03" target="_top" xlink:title=" ">
<polygon fill="white" stroke="#666666" points="218.38,-149 142.38,-149 142.38,-129 218.38,-129 218.38,-149"/>
<text xml:space="preserve" text-anchor="middle" x="180.38" y="-135.5" font-family="Helvetica,sans-Serif" font-size="10.00">$TypedArray$</text>
</a>
</g>
</g>
<!-- Node9&#45;&gt;Node10 -->
<g id="edge12_Node000009_Node000010" class="edge">
<title>Node9&#45;&gt;Node10</title>
<g id="a_edge12_Node000009_Node000010"><a xlink:title=" ">
<path fill="none" stroke="#63b8ff" d="M273.56,-155.71C256.58,-152.63 236.11,-148.92 218.77,-145.78"/>
<polygon fill="#63b8ff" stroke="#63b8ff" points="272.73,-159.12 283.19,-157.46 273.98,-152.23 272.73,-159.12"/>
</a>
</g>
</g>
<!-- Node10&#45;&gt;Node5 -->
<g id="edge14_Node000010_Node000005" class="edge">
<title>Node10&#45;&gt;Node5</title>
<g id="a_edge14_Node000010_Node000005"><a xlink:title=" ">
<path fill="none" stroke="#63b8ff" d="M153.19,-155.26C126.36,-171.93 85.43,-197.35 62.61,-211.53"/>
<polygon fill="#63b8ff" stroke="#63b8ff" points="154.79,-158.39 161.44,-150.14 151.09,-152.45 154.79,-158.39"/>
</a>
</g>
</g>
<!-- Node10&#45;&gt;Node10 -->
<g id="edge13_Node000010_Node000010" class="edge">
<title>Node10&#45;&gt;Node10</title>
<g id="a_edge13_Node000010_Node000010"><a xlink:title=" ">
<path fill="none" stroke="#63b8ff" d="M203.15,-160.44C200.22,-164.3 192.63,-167 180.38,-167 157.97,-167 151.15,-157.98 159.9,-149.34"/>
<polygon fill="#63b8ff" stroke="#63b8ff" points="206.62,-159.9 201.16,-150.82 199.76,-161.32 206.62,-159.9"/>
</a>
</g>
</g>
<!-- Node12&#45;&gt;Node10 -->
<g id="edge17_Node000012_Node000010" class="edge">
<title>Node12&#45;&gt;Node10</title>
<g id="a_edge17_Node000012_Node000010"><a xlink:title=" ">
<path fill="none" stroke="#63b8ff" d="M275.42,-64.08C273.98,-65.02 272.59,-66 271.25,-67 252.64,-80.96 253.23,-90.23 235.25,-105 224.4,-113.92 211.05,-122.35 200.36,-128.59"/>
<polygon fill="#63b8ff" stroke="#63b8ff" points="277.08,-67.16 283.92,-59.06 273.52,-61.13 277.08,-67.16"/>
</a>
</g>
</g>
<!-- Node13 -->
<g id="Node000013" class="node">
<title>Node13</title>
<g id="a_Node000013"><a xlink:href="types_8js.html#a2b734c673a8da9ce3aeb2baf920fde24" target="_top" xlink:title=" ">
<polygon fill="white" stroke="#666666" points="209.75,-96 151,-96 151,-76 209.75,-76 209.75,-96"/>
<text xml:space="preserve" text-anchor="middle" x="180.38" y="-82.5" font-family="Helvetica,sans-Serif" font-size="10.00">DataView</text>
</a>
</g>
</g>
<!-- Node12&#45;&gt;Node13 -->
<g id="edge18_Node000012_Node000013" class="edge">
<title>Node12&#45;&gt;Node13</title>
<g id="a_edge18_Node000012_Node000013"><a xlink:title=" ">
<path fill="none" stroke="#63b8ff" d="M270.45,-59.32C251.08,-65.12 227.88,-72.07 210.01,-77.42"/>
<polygon fill="#63b8ff" stroke="#63b8ff" points="271.32,-62.72 279.89,-56.49 269.31,-56.01 271.32,-62.72"/>
</a>
</g>
</g>
<!-- Node14 -->
<g id="Node000014" class="node">
<title>Node14</title>
<g id="a_Node000014"><a xlink:href="types_8js.html#a0f17c28b964a5d8aff5b2119c92a6665" target="_top" xlink:title=" ">
<polygon fill="white" stroke="#666666" points="213.88,-58 146.88,-58 146.88,-38 213.88,-38 213.88,-58"/>
<text xml:space="preserve" text-anchor="middle" x="180.38" y="-44.5" font-family="Helvetica,sans-Serif" font-size="10.00">makeGetter</text>
</a>
</g>
</g>
<!-- Node12&#45;&gt;Node14 -->
<g id="edge19_Node000012_Node000014" class="edge">
<title>Node12&#45;&gt;Node14</title>
<g id="a_edge19_Node000012_Node000014"><a xlink:title=" ">
<path fill="none" stroke="#63b8ff" d="M269.89,-48C252.09,-48 231.14,-48 214.1,-48"/>
<polygon fill="#63b8ff" stroke="#63b8ff" points="269.83,-51.5 279.83,-48 269.83,-44.5 269.83,-51.5"/>
</a>
</g>
</g>
<!-- Node15 -->
<g id="Node000015" class="node">
<title>Node15</title>
<g id="a_Node000015"><a xlink:href="types_8js.html#a6b2e76ac5cceebd8392568094c075859" target="_top" xlink:title=" ">
<polygon fill="white" stroke="#666666" points="213.5,-20 147.25,-20 147.25,0 213.5,0 213.5,-20"/>
<text xml:space="preserve" text-anchor="middle" x="180.38" y="-6.5" font-family="Helvetica,sans-Serif" font-size="10.00">makeSetter</text>
</a>
</g>
</g>
<!-- Node12&#45;&gt;Node15 -->
<g id="edge20_Node000012_Node000015" class="edge">
<title>Node12&#45;&gt;Node15</title>
<g id="a_edge20_Node000012_Node000015"><a xlink:title=" ">
<path fill="none" stroke="#63b8ff" d="M270.31,-36.64C252.26,-31.23 230.9,-24.83 213.64,-19.66"/>
<polygon fill="#63b8ff" stroke="#63b8ff" points="269.31,-39.99 279.89,-39.51 271.32,-33.28 269.31,-39.99"/>
</a>
</g>
</g>
<!-- Node16&#45;&gt;Node10 -->
<g id="edge22_Node000016_Node000010" class="edge">
<title>Node16&#45;&gt;Node10</title>
<g id="a_edge22_Node000016_Node000010"><a xlink:title=" ">
<path fill="none" stroke="#63b8ff" d="M279.92,-97.83C257.79,-107.08 227.34,-119.8 206.17,-128.64"/>
<polygon fill="#63b8ff" stroke="#63b8ff" points="281.07,-101.15 288.94,-94.06 278.37,-94.69 281.07,-101.15"/>
</a>
</g>
</g>
</g>
</svg>
