<?xml version="1.0" encoding="UTF-8" standalone="no"?>
<!DOCTYPE svg PUBLIC "-//W3C//DTD SVG 1.1//EN"
 "http://www.w3.org/Graphics/SVG/1.1/DTD/svg11.dtd">
<!-- Generated by graphviz version 13.1.2 (20250808.2320)
 -->
<!-- Title: k Pages: 1 -->
<!--zoomable 477 -->

<svg id="main" version="1.1" xmlns="http://www.w3.org/2000/svg" xmlns:xlink="http://www.w3.org/1999/xlink" xml:space="preserve" onload="init(evt)">

<style type="text/css"><![CDATA[
.node, .edge {opacity: 0.7;}
.node.selected, .edge.selected {opacity: 1;}
.edge:hover path { stroke: red; }
.edge:hover polygon { stroke: red; fill: red; }
]]></style>

<defs>
  <circle id="rim" cx="0" cy="0" r="7"/>
  <circle id="rim2" cx="0" cy="0" r="3.5"/>
  <g id="zoomPlus">
    <use xlink:href="#rim" fill="#404040"><set attributeName="fill" to="#808080" begin="zoomplus.mouseover" end="zoomplus.mouseout"/></use>
    <path d="M-4,0h8M0,-4v8" fill="none" stroke="white" stroke-width="1.5" pointer-events="none"/>
  </g>
  <g id="zoomMin">
    <use xlink:href="#rim" fill="#404040"><set attributeName="fill" to="#808080" begin="zoomminus.mouseover" end="zoomminus.mouseout"/></use>
    <path d="M-4,0h8" fill="none" stroke="white" stroke-width="1.5" pointer-events="none"/>
  </g>
  <g id="arrowUp" transform="translate(30 24)">
    <use xlink:href="#rim"/>
    <path pointer-events="none" fill="none" stroke="white" stroke-width="1.5" d="M0,-3.0v7 M-2.5,-0.5L0,-3.0L2.5,-0.5"/>
  </g>
  <g id="arrowRight" transform="rotate(90) translate(36 -43)">
    <use xlink:href="#rim"/>
    <path pointer-events="none" fill="none" stroke="white" stroke-width="1.5" d="M0,-3.0v7 M-2.5,-0.5L0,-3.0L2.5,-0.5"/>
  </g>
  <g id="arrowDown" transform="rotate(180) translate(-30 -48)">
    <use xlink:href="#rim"/>
    <path pointer-events="none" fill="none" stroke="white" stroke-width="1.5" d="M0,-3.0v7 M-2.5,-0.5L0,-3.0L2.5,-0.5"/>
  </g>
  <g id="arrowLeft" transform="rotate(270) translate(-36 17)">
    <use xlink:href="#rim"/>
    <path pointer-events="none" fill="none" stroke="white" stroke-width="1.5" d="M0,-3.0v7 M-2.5,-0.5L0,-3.0L2.5,-0.5"/>
  </g>
  <g id="resetDef">
    <use xlink:href="#rim2" fill="#404040"><set attributeName="fill" to="#808080" begin="reset.mouseover" end="reset.mouseout"/></use>
  </g>
</defs>
<script type="application/ecmascript">
var viewWidth = 1619;
var viewHeight = 477;
var sectionId = 'dynsection-6';
</script>
<script type="application/ecmascript" xlink:href="svg.min.js"/>
<svg id="graph" class="graph">
<g id="viewport">
<title>k</title>
<!-- Node1 -->
<g id="Node000001" class="node">
<title>Node1</title>
<g id="a_Node000001"><a xlink:title=" ">
<polygon fill="#999999" stroke="#666666" points="1610.8,-339.6 1582,-339.6 1582,-319.6 1610.8,-319.6 1610.8,-339.6"/>
<text xml:space="preserve" text-anchor="middle" x="1596.4" y="-326.1" font-family="Helvetica,sans-Serif" font-size="10.00">k</text>
</a>
</g>
</g>
<!-- Node2 -->
<g id="Node000002" class="node">
<title>Node2</title>
<g id="a_Node000002"><a xlink:href="jquery_8dd_8js.html#a970847db1a57f09394e1e7e8a3a69c11" target="_top" xlink:title=" ">
<polygon fill="white" stroke="#666666" points="1466.53,-418.6 1437.72,-418.6 1437.72,-398.6 1466.53,-398.6 1466.53,-418.6"/>
<text xml:space="preserve" text-anchor="middle" x="1452.12" y="-405.1" font-family="Helvetica,sans-Serif" font-size="10.00">dd</text>
</a>
</g>
</g>
<!-- Node1&#45;&gt;Node2 -->
<g id="edge1_Node000001_Node000002" class="edge">
<title>Node1&#45;&gt;Node2</title>
<g id="a_edge1_Node000001_Node000002"><a xlink:title=" ">
<path fill="none" stroke="#63b8ff" d="M1582.52,-348.98C1573.62,-360.94 1560.74,-375.64 1546,-384.6 1520.81,-399.9 1486.05,-405.52 1467,-407.52"/>
<polygon fill="#63b8ff" stroke="#63b8ff" points="1585.24,-351.2 1588.16,-341.01 1579.53,-347.16 1585.24,-351.2"/>
</a>
</g>
</g>
<!-- Node3 -->
<g id="Node000003" class="node">
<title>Node3</title>
<g id="a_Node000003"><a xlink:href="classediteurpanovisu_1_1EditeurPanovisu.html#a94e36b9e9d09ab1a4c852b8a8cefa927" target="_top" xlink:title=" ">
<polygon fill="white" stroke="#666666" points="647.25,-348.6 456.5,-348.6 456.5,-316.6 647.25,-316.6 647.25,-348.6"/>
<text xml:space="preserve" text-anchor="start" x="464.5" y="-335.1" font-family="Helvetica,sans-Serif" font-size="10.00">editeurpanovisu.EditeurPanovisu.genere</text>
<text xml:space="preserve" text-anchor="middle" x="551.88" y="-323.1" font-family="Helvetica,sans-Serif" font-size="10.00">Visite</text>
</a>
</g>
</g>
<!-- Node1&#45;&gt;Node3 -->
<g id="edge3_Node000001_Node000003" class="edge">
<title>Node1&#45;&gt;Node3</title>
<g id="a_edge3_Node000001_Node000003"><a xlink:title=" ">
<path fill="none" stroke="#63b8ff" d="M1570.66,-336.36C1562.82,-338.3 1554.09,-340.25 1546,-341.6 1407.1,-364.72 1371.31,-370.6 1230.5,-370.6 1230.5,-370.6 1230.5,-370.6 1004.38,-370.6 880.68,-370.6 738.59,-356.26 647.37,-345.2"/>
<polygon fill="#63b8ff" stroke="#63b8ff" points="1571.4,-339.78 1580.21,-333.89 1569.65,-333.01 1571.4,-339.78"/>
</a>
</g>
</g>
<!-- Node6 -->
<g id="Node000006" class="node">
<title>Node6</title>
<g id="a_Node000006"><a xlink:href="classediteurpanovisu_1_1EditeurPanovisu.html#aaee69ab54364f89b58458c744a4195c0" target="_top" xlink:title=" ">
<polygon fill="white" stroke="#666666" points="1546,-260.6 1358.25,-260.6 1358.25,-228.6 1546,-228.6 1546,-260.6"/>
<text xml:space="preserve" text-anchor="start" x="1366.25" y="-247.1" font-family="Helvetica,sans-Serif" font-size="10.00">editeurpanovisu.EditeurPanovisu.sauve</text>
<text xml:space="preserve" text-anchor="middle" x="1452.12" y="-235.1" font-family="Helvetica,sans-Serif" font-size="10.00">FichierProjet</text>
</a>
</g>
</g>
<!-- Node1&#45;&gt;Node6 -->
<g id="edge6_Node000001_Node000006" class="edge">
<title>Node1&#45;&gt;Node6</title>
<g id="a_edge6_Node000001_Node000006"><a xlink:title=" ">
<path fill="none" stroke="#63b8ff" d="M1582.54,-309.7C1573.64,-297.39 1560.77,-282.16 1546,-272.6 1538.93,-268.02 1531.08,-264.16 1523.03,-260.92"/>
<polygon fill="#63b8ff" stroke="#63b8ff" points="1579.64,-311.66 1588.18,-317.92 1585.41,-307.7 1579.64,-311.66"/>
</a>
</g>
</g>
<!-- Node16 -->
<g id="Node000016" class="node">
<title>Node16</title>
<g id="a_Node000016"><a xlink:href="jquery_8contextMenu_8js.html#ac2ce907eae84efae339f8f0fed618ef3" target="_top" xlink:title=" ">
<polygon fill="white" stroke="#666666" points="1493.5,-301.6 1410.75,-301.6 1410.75,-281.6 1493.5,-281.6 1493.5,-301.6"/>
<text xml:space="preserve" text-anchor="middle" x="1452.12" y="-288.1" font-family="Helvetica,sans-Serif" font-size="10.00">splitAccesskey</text>
</a>
</g>
</g>
<!-- Node1&#45;&gt;Node16 -->
<g id="edge29_Node000001_Node000016" class="edge">
<title>Node1&#45;&gt;Node16</title>
<g id="a_edge29_Node000001_Node000016"><a xlink:title=" ">
<path fill="none" stroke="#63b8ff" d="M1570.55,-322.43C1562.7,-320.2 1554,-317.76 1546,-315.6 1528.96,-310.98 1510.11,-306.07 1493.87,-301.91"/>
<polygon fill="#63b8ff" stroke="#63b8ff" points="1569.55,-325.79 1580.13,-325.17 1571.48,-319.06 1569.55,-325.79"/>
</a>
</g>
</g>
<!-- Node17 -->
<g id="Node000017" class="node">
<title>Node17</title>
<g id="a_Node000017"><a xlink:href="classediteurpanovisu_1_1EditeurPanovisu.html#a87b29dc258cfc67370b1f27809e91b8e" target="_top" xlink:title=" ">
<polygon fill="white" stroke="#666666" points="1317,-143.6 1142,-143.6 1142,-111.6 1317,-111.6 1317,-143.6"/>
<text xml:space="preserve" text-anchor="start" x="1150" y="-130.1" font-family="Helvetica,sans-Serif" font-size="10.00">editeurpanovisu.EditeurPanovisu.tsk</text>
<text xml:space="preserve" text-anchor="middle" x="1229.5" y="-118.1" font-family="Helvetica,sans-Serif" font-size="10.00">AnalyseFichierPVU</text>
</a>
</g>
</g>
<!-- Node1&#45;&gt;Node17 -->
<g id="edge30_Node000001_Node000017" class="edge">
<title>Node1&#45;&gt;Node17</title>
<g id="a_edge30_Node000001_Node000017"><a xlink:title=" ">
<path fill="none" stroke="#63b8ff" d="M1570.53,-335.43C1523.85,-344.83 1422.1,-357.84 1358.25,-310.6 1323.29,-284.73 1346.1,-255.97 1322.25,-219.6 1302.46,-189.42 1271.57,-161.02 1251.18,-143.97"/>
<polygon fill="#63b8ff" stroke="#63b8ff" points="1571.13,-338.88 1580.17,-333.36 1569.66,-332.03 1571.13,-338.88"/>
</a>
</g>
</g>
<!-- Node2&#45;&gt;Node2 -->
<g id="edge2_Node000002_Node000002" class="edge">
<title>Node2&#45;&gt;Node2</title>
<g id="a_edge2_Node000002_Node000002"><a xlink:title=" ">
<path fill="none" stroke="#63b8ff" d="M1476.19,-420.03C1484.17,-428.32 1476.15,-436.6 1452.12,-436.6 1421.97,-436.6 1417.03,-423.55 1437.28,-413.82"/>
<polygon fill="#63b8ff" stroke="#63b8ff" points="1478.47,-417.34 1468.22,-414.67 1474.57,-423.15 1478.47,-417.34"/>
</a>
</g>
</g>
<!-- Node4 -->
<g id="Node000004" class="node">
<title>Node4</title>
<g id="a_Node000004"><a xlink:href="classediteurpanovisu_1_1EditeurPanovisu.html#ac912b80c1f2ac97def60ff005c5c480b" target="_top" xlink:title=" ">
<polygon fill="white" stroke="#666666" points="420.5,-216.6 216.25,-216.6 216.25,-196.6 420.5,-196.6 420.5,-216.6"/>
<text xml:space="preserve" text-anchor="middle" x="318.38" y="-203.1" font-family="Helvetica,sans-Serif" font-size="10.00">editeurpanovisu.EditeurPanovisu.creeMenu</text>
</a>
</g>
</g>
<!-- Node3&#45;&gt;Node4 -->
<g id="edge4_Node000003_Node000004" class="edge">
<title>Node3&#45;&gt;Node4</title>
<g id="a_edge4_Node000003_Node000004"><a xlink:title=" ">
<path fill="none" stroke="#63b8ff" d="M510.71,-310.74C460.37,-283.34 376.12,-237.48 338.51,-217.01"/>
<polygon fill="#63b8ff" stroke="#63b8ff" points="508.82,-313.7 519.28,-315.4 512.17,-307.55 508.82,-313.7"/>
</a>
</g>
</g>
<!-- Node5 -->
<g id="Node000005" class="node">
<title>Node5</title>
<g id="a_Node000005"><a xlink:href="classediteurpanovisu_1_1EditeurPanovisu.html#a86c393eee88f54c694db994ddd85b90d" target="_top" xlink:title=" ">
<polygon fill="white" stroke="#666666" points="180.25,-222.6 0,-222.6 0,-190.6 180.25,-190.6 180.25,-222.6"/>
<text xml:space="preserve" text-anchor="start" x="8" y="-209.1" font-family="Helvetica,sans-Serif" font-size="10.00">editeurpanovisu.EditeurPanovisu.cree</text>
<text xml:space="preserve" text-anchor="middle" x="90.12" y="-197.1" font-family="Helvetica,sans-Serif" font-size="10.00">Environnement</text>
</a>
</g>
</g>
<!-- Node4&#45;&gt;Node5 -->
<g id="edge5_Node000004_Node000005" class="edge">
<title>Node4&#45;&gt;Node5</title>
<g id="a_edge5_Node000004_Node000005"><a xlink:title=" ">
<path fill="none" stroke="#63b8ff" d="M204.51,-206.6C196.49,-206.6 188.46,-206.6 180.6,-206.6"/>
<polygon fill="#63b8ff" stroke="#63b8ff" points="204.32,-210.1 214.32,-206.6 204.32,-203.1 204.32,-210.1"/>
</a>
</g>
</g>
<!-- Node7 -->
<g id="Node000007" class="node">
<title>Node7</title>
<g id="a_Node000007"><a xlink:href="classediteurpanovisu_1_1EditeurPanovisu.html#a9f3ea25b35d4884524508dab3dc4fd6a" target="_top" xlink:title=" ">
<polygon fill="white" stroke="#666666" points="1322.25,-260.6 1136.75,-260.6 1136.75,-228.6 1322.25,-228.6 1322.25,-260.6"/>
<text xml:space="preserve" text-anchor="start" x="1144.75" y="-247.1" font-family="Helvetica,sans-Serif" font-size="10.00">editeurpanovisu.EditeurPanovisu.projet</text>
<text xml:space="preserve" text-anchor="middle" x="1229.5" y="-235.1" font-family="Helvetica,sans-Serif" font-size="10.00">Sauve</text>
</a>
</g>
</g>
<!-- Node6&#45;&gt;Node7 -->
<g id="edge7_Node000006_Node000007" class="edge">
<title>Node6&#45;&gt;Node7</title>
<g id="a_edge7_Node000006_Node000007"><a xlink:title=" ">
<path fill="none" stroke="#63b8ff" d="M1346.63,-244.6C1338.64,-244.6 1330.61,-244.6 1322.71,-244.6"/>
<polygon fill="#63b8ff" stroke="#63b8ff" points="1346.37,-248.1 1356.37,-244.6 1346.37,-241.1 1346.37,-248.1"/>
</a>
</g>
</g>
<!-- Node11 -->
<g id="Node000011" class="node">
<title>Node11</title>
<g id="a_Node000011"><a xlink:href="classediteurpanovisu_1_1EditeurPanovisu.html#a7b2e25dc717eb52b62e23d54ec4c124a" target="_top" xlink:title=" ">
<polygon fill="white" stroke="#666666" points="644.62,-86.6 459.12,-86.6 459.12,-54.6 644.62,-54.6 644.62,-86.6"/>
<text xml:space="preserve" text-anchor="start" x="467.12" y="-73.1" font-family="Helvetica,sans-Serif" font-size="10.00">editeurpanovisu.EditeurPanovisu.projet</text>
<text xml:space="preserve" text-anchor="middle" x="551.88" y="-61.1" font-family="Helvetica,sans-Serif" font-size="10.00">SauveSous</text>
</a>
</g>
</g>
<!-- Node6&#45;&gt;Node11 -->
<g id="edge28_Node000006_Node000011" class="edge">
<title>Node6&#45;&gt;Node11</title>
<g id="a_edge28_Node000006_Node000011"><a xlink:title=" ">
<path fill="none" stroke="#63b8ff" d="M1433.71,-218.82C1411.29,-187.39 1369.54,-134.55 1322.25,-102.6 1235.27,-43.83 1204.08,-39.11 1100.75,-20.6 926.59,10.61 717.59,-29.53 615.38,-54.1"/>
<polygon fill="#63b8ff" stroke="#63b8ff" points="1430.82,-220.79 1439.43,-226.97 1436.56,-216.77 1430.82,-220.79"/>
</a>
</g>
</g>
<!-- Node7&#45;&gt;Node3 -->
<g id="edge9_Node000007_Node000003" class="edge">
<title>Node7&#45;&gt;Node3</title>
<g id="a_edge9_Node000007_Node000003"><a xlink:title=" ">
<path fill="none" stroke="#63b8ff" d="M1125.19,-258.05C995.14,-274.99 773.55,-303.86 647.65,-320.25"/>
<polygon fill="#63b8ff" stroke="#63b8ff" points="1125.36,-261.56 1134.83,-256.8 1124.46,-254.62 1125.36,-261.56"/>
</a>
</g>
</g>
<!-- Node7&#45;&gt;Node4 -->
<g id="edge8_Node000007_Node000004" class="edge">
<title>Node7&#45;&gt;Node4</title>
<g id="a_edge8_Node000007_Node000004"><a xlink:title=" ">
<path fill="none" stroke="#63b8ff" d="M1124.95,-244.27C976.65,-243.15 695.31,-238.57 456.5,-220.6 443.26,-219.6 429.31,-218.38 415.59,-217.08"/>
<polygon fill="#63b8ff" stroke="#63b8ff" points="1124.73,-247.77 1134.75,-244.34 1124.78,-240.77 1124.73,-247.77"/>
</a>
</g>
</g>
<!-- Node8 -->
<g id="Node000008" class="node">
<title>Node8</title>
<g id="a_Node000008"><a xlink:href="classediteurpanovisu_1_1EditeurPanovisu.html#ab4beb1597b660a4a253befc6e76f1c54" target="_top" xlink:title=" ">
<polygon fill="white" stroke="#666666" points="644.62,-149.6 459.12,-149.6 459.12,-117.6 644.62,-117.6 644.62,-149.6"/>
<text xml:space="preserve" text-anchor="start" x="467.12" y="-136.1" font-family="Helvetica,sans-Serif" font-size="10.00">editeurpanovisu.EditeurPanovisu.projet</text>
<text xml:space="preserve" text-anchor="middle" x="551.88" y="-124.1" font-family="Helvetica,sans-Serif" font-size="10.00">Charge</text>
</a>
</g>
</g>
<!-- Node7&#45;&gt;Node8 -->
<g id="edge10_Node000007_Node000008" class="edge">
<title>Node7&#45;&gt;Node8</title>
<g id="a_edge10_Node000007_Node000008"><a xlink:title=" ">
<path fill="none" stroke="#63b8ff" d="M1159.38,-225.25C1140.47,-220.36 1119.9,-215.42 1100.75,-211.6 941.76,-179.85 754.31,-156.06 645.01,-143.54"/>
<polygon fill="#63b8ff" stroke="#63b8ff" points="1158.28,-228.58 1168.84,-227.72 1160.05,-221.8 1158.28,-228.58"/>
</a>
</g>
</g>
<!-- Node9 -->
<g id="Node000009" class="node">
<title>Node9</title>
<g id="a_Node000009"><a xlink:href="classediteurpanovisu_1_1EditeurPanovisu.html#a6d19b4d885ee6fcec827b91956295732" target="_top" xlink:title=" ">
<polygon fill="white" stroke="#666666" points="1098.12,-61.6 912.62,-61.6 912.62,-29.6 1098.12,-29.6 1098.12,-61.6"/>
<text xml:space="preserve" text-anchor="start" x="920.62" y="-48.1" font-family="Helvetica,sans-Serif" font-size="10.00">editeurpanovisu.EditeurPanovisu.projet</text>
<text xml:space="preserve" text-anchor="middle" x="1005.38" y="-36.1" font-family="Helvetica,sans-Serif" font-size="10.00">ChargeNom</text>
</a>
</g>
</g>
<!-- Node7&#45;&gt;Node9 -->
<g id="edge12_Node000007_Node000009" class="edge">
<title>Node7&#45;&gt;Node9</title>
<g id="a_edge12_Node000007_Node000009"><a xlink:title=" ">
<path fill="none" stroke="#63b8ff" d="M1200.05,-220.84C1180.46,-203.42 1154.81,-178.4 1136.75,-152.6 1115.09,-121.65 1129.14,-100.53 1100.75,-75.6 1094.55,-70.15 1087.36,-65.69 1079.76,-62.05"/>
<polygon fill="#63b8ff" stroke="#63b8ff" points="1197.6,-223.35 1207.44,-227.29 1202.21,-218.08 1197.6,-223.35"/>
</a>
</g>
</g>
<!-- Node12 -->
<g id="Node000012" class="node">
<title>Node12</title>
<g id="a_Node000012"><a xlink:href="classediteurpanovisu_1_1EditeurPanovisu.html#a9b46b222714af12c06ec33d410400773" target="_top" xlink:title=" ">
<polygon fill="white" stroke="#666666" points="874,-222.6 683.25,-222.6 683.25,-190.6 874,-190.6 874,-222.6"/>
<text xml:space="preserve" text-anchor="start" x="691.25" y="-209.1" font-family="Helvetica,sans-Serif" font-size="10.00">editeurpanovisu.EditeurPanovisu.projets</text>
<text xml:space="preserve" text-anchor="middle" x="778.62" y="-197.1" font-family="Helvetica,sans-Serif" font-size="10.00">Fermer</text>
</a>
</g>
</g>
<!-- Node7&#45;&gt;Node12 -->
<g id="edge20_Node000007_Node000012" class="edge">
<title>Node7&#45;&gt;Node12</title>
<g id="a_edge20_Node000007_Node000012"><a xlink:title=" ">
<path fill="none" stroke="#63b8ff" d="M1125.17,-232.97C1116.91,-232.13 1108.69,-231.33 1100.75,-230.6 1024.62,-223.58 938.19,-217.22 874.19,-212.8"/>
<polygon fill="#63b8ff" stroke="#63b8ff" points="1124.62,-236.43 1134.92,-233.97 1125.34,-229.46 1124.62,-236.43"/>
</a>
</g>
</g>
<!-- Node13 -->
<g id="Node000013" class="node">
<title>Node13</title>
<g id="a_Node000013"><a xlink:href="classediteurpanovisu_1_1EditeurPanovisu.html#ac9d449399ccd38843fa12e716f0c9611" target="_top" xlink:title=" ">
<polygon fill="white" stroke="#666666" points="1100.75,-468.6 910,-468.6 910,-436.6 1100.75,-436.6 1100.75,-468.6"/>
<text xml:space="preserve" text-anchor="start" x="918" y="-455.1" font-family="Helvetica,sans-Serif" font-size="10.00">editeurpanovisu.EditeurPanovisu.projets</text>
<text xml:space="preserve" text-anchor="middle" x="1005.38" y="-443.1" font-family="Helvetica,sans-Serif" font-size="10.00">Nouveau</text>
</a>
</g>
</g>
<!-- Node7&#45;&gt;Node13 -->
<g id="edge22_Node000007_Node000013" class="edge">
<title>Node7&#45;&gt;Node13</title>
<g id="a_edge22_Node000007_Node000013"><a xlink:title=" ">
<path fill="none" stroke="#63b8ff" d="M1216.37,-271.07C1197.25,-309.93 1156.46,-382.15 1100.75,-422.6 1093.24,-428.05 1084.7,-432.54 1075.89,-436.23"/>
<polygon fill="#63b8ff" stroke="#63b8ff" points="1219.35,-272.95 1220.53,-262.42 1213.04,-269.92 1219.35,-272.95"/>
</a>
</g>
</g>
<!-- Node14 -->
<g id="Node000014" class="node">
<title>Node14</title>
<g id="a_Node000014"><a xlink:href="classediteurpanovisu_1_1EditeurPanovisu.html#a2b3125ffe2e6291efacf19df6cb30a8d" target="_top" xlink:title=" ">
<polygon fill="white" stroke="#666666" points="869.12,-418.6 688.12,-418.6 688.12,-398.6 869.12,-398.6 869.12,-418.6"/>
<text xml:space="preserve" text-anchor="middle" x="778.62" y="-405.1" font-family="Helvetica,sans-Serif" font-size="10.00">editeurpanovisu.EditeurPanovisu.start</text>
</a>
</g>
</g>
<!-- Node7&#45;&gt;Node14 -->
<g id="edge27_Node000007_Node000014" class="edge">
<title>Node7&#45;&gt;Node14</title>
<g id="a_edge27_Node000007_Node000014"><a xlink:title=" ">
<path fill="none" stroke="#63b8ff" d="M1206.62,-269.31C1183.06,-294.24 1143.2,-331.8 1100.75,-351.6 1027.5,-385.77 936.09,-399.55 869.55,-405.06"/>
<polygon fill="#63b8ff" stroke="#63b8ff" points="1208.99,-271.89 1213.22,-262.18 1203.86,-267.14 1208.99,-271.89"/>
</a>
</g>
</g>
<!-- Node15 -->
<g id="Node000015" class="node">
<title>Node15</title>
<g id="a_Node000015"><a xlink:href="classediteurpanovisu_1_1EditeurPanovisu.html#aef8c9b28c3e88d6e27e3f62b9a901134" target="_top" xlink:title=" ">
<polygon fill="white" stroke="#666666" points="1099.25,-342.6 911.5,-342.6 911.5,-310.6 1099.25,-310.6 1099.25,-342.6"/>
<text xml:space="preserve" text-anchor="start" x="919.5" y="-329.1" font-family="Helvetica,sans-Serif" font-size="10.00">editeurpanovisu.EditeurPanovisu.sauve</text>
<text xml:space="preserve" text-anchor="middle" x="1005.38" y="-317.1" font-family="Helvetica,sans-Serif" font-size="10.00">Fichiers</text>
</a>
</g>
</g>
<!-- Node7&#45;&gt;Node15 -->
<g id="edge26_Node000007_Node000015" class="edge">
<title>Node7&#45;&gt;Node15</title>
<g id="a_edge26_Node000007_Node000015"><a xlink:title=" ">
<path fill="none" stroke="#63b8ff" d="M1179.75,-265.49C1156.08,-275.37 1127.11,-287.06 1100.75,-296.6 1087.82,-301.28 1073.75,-305.96 1060.52,-310.19"/>
<polygon fill="#63b8ff" stroke="#63b8ff" points="1180.97,-268.78 1188.84,-261.68 1178.26,-262.32 1180.97,-268.78"/>
</a>
</g>
</g>
<!-- Node8&#45;&gt;Node4 -->
<g id="edge11_Node000008_Node000004" class="edge">
<title>Node8&#45;&gt;Node4</title>
<g id="a_edge11_Node000008_Node000004"><a xlink:title=" ">
<path fill="none" stroke="#63b8ff" d="M487.82,-153.48C444.1,-167.27 387.65,-185.07 352.47,-196.16"/>
<polygon fill="#63b8ff" stroke="#63b8ff" points="488.71,-156.87 497.19,-150.53 486.6,-150.2 488.71,-156.87"/>
</a>
</g>
</g>
<!-- Node9&#45;&gt;Node4 -->
<g id="edge19_Node000009_Node000004" class="edge">
<title>Node9&#45;&gt;Node4</title>
<g id="a_edge19_Node000009_Node000004"><a xlink:title=" ">
<path fill="none" stroke="#63b8ff" d="M929.84,-26.74C820.36,-3.08 612.2,26.31 456.5,-45.6 386.17,-78.08 338.62,-166.39 324.08,-196.43"/>
<polygon fill="#63b8ff" stroke="#63b8ff" points="928.77,-30.09 939.29,-28.83 930.28,-23.25 928.77,-30.09"/>
</a>
</g>
</g>
<!-- Node10 -->
<g id="Node000010" class="node">
<title>Node10</title>
<g id="a_Node000010"><a xlink:href="classediteurpanovisu_1_1EditeurPanovisu.html#af0d1c32bb78acbff561c822a0d15f760" target="_top" xlink:title=" ">
<polygon fill="white" stroke="#666666" points="872.5,-86.6 684.75,-86.6 684.75,-54.6 872.5,-54.6 872.5,-86.6"/>
<text xml:space="preserve" text-anchor="start" x="692.75" y="-73.1" font-family="Helvetica,sans-Serif" font-size="10.00">editeurpanovisu.EditeurPanovisu.ajoute</text>
<text xml:space="preserve" text-anchor="middle" x="778.62" y="-61.1" font-family="Helvetica,sans-Serif" font-size="10.00">FichierHisto</text>
</a>
</g>
</g>
<!-- Node9&#45;&gt;Node10 -->
<g id="edge13_Node000009_Node000010" class="edge">
<title>Node9&#45;&gt;Node10</title>
<g id="a_edge13_Node000009_Node000010"><a xlink:title=" ">
<path fill="none" stroke="#63b8ff" d="M900.98,-50.37C890.06,-51.54 879.02,-52.8 868.28,-54.12"/>
<polygon fill="#63b8ff" stroke="#63b8ff" points="901.22,-53.86 910.81,-49.34 900.5,-46.9 901.22,-53.86"/>
</a>
</g>
</g>
<!-- Node10&#45;&gt;Node7 -->
<g id="edge16_Node000010_Node000007" class="edge">
<title>Node10&#45;&gt;Node7</title>
<g id="a_edge16_Node000010_Node000007"><a xlink:title=" ">
<path fill="none" stroke="#63b8ff" d="M883.79,-86.44C948.36,-98.76 1031.84,-119.31 1100.75,-151.6 1143.97,-171.85 1187.46,-207.54 1210.88,-228.32"/>
<polygon fill="#63b8ff" stroke="#63b8ff" points="884.74,-83.06 874.26,-84.66 883.45,-89.94 884.74,-83.06"/>
</a>
</g>
</g>
<!-- Node10&#45;&gt;Node8 -->
<g id="edge14_Node000010_Node000008" class="edge">
<title>Node10&#45;&gt;Node8</title>
<g id="a_edge14_Node000010_Node000008"><a xlink:title=" ">
<path fill="none" stroke="#63b8ff" d="M708.16,-90.07C677.25,-98.73 641.24,-108.83 611.68,-117.11"/>
<polygon fill="#63b8ff" stroke="#63b8ff" points="708.73,-93.55 717.41,-87.48 706.84,-86.81 708.73,-93.55"/>
</a>
</g>
</g>
<!-- Node10&#45;&gt;Node9 -->
<g id="edge15_Node000010_Node000009" class="edge">
<title>Node10&#45;&gt;Node9</title>
<g id="a_edge15_Node000010_Node000009"><a xlink:title=" ">
<path fill="none" stroke="#63b8ff" d="M884.27,-65.69C894.73,-64.57 905.28,-63.36 915.55,-62.1"/>
<polygon fill="#63b8ff" stroke="#63b8ff" points="884.06,-62.2 874.48,-66.72 884.79,-69.16 884.06,-62.2"/>
</a>
</g>
</g>
<!-- Node10&#45;&gt;Node11 -->
<g id="edge17_Node000010_Node000011" class="edge">
<title>Node10&#45;&gt;Node11</title>
<g id="a_edge17_Node000010_Node000011"><a xlink:title=" ">
<path fill="none" stroke="#63b8ff" d="M672.9,-70.6C663.54,-70.6 654.1,-70.6 644.86,-70.6"/>
<polygon fill="#63b8ff" stroke="#63b8ff" points="672.75,-74.1 682.75,-70.6 672.75,-67.1 672.75,-74.1"/>
</a>
</g>
</g>
<!-- Node11&#45;&gt;Node4 -->
<g id="edge18_Node000011_Node000004" class="edge">
<title>Node11&#45;&gt;Node4</title>
<g id="a_edge18_Node000011_Node000004"><a xlink:title=" ">
<path fill="none" stroke="#63b8ff" d="M493.47,-91.17C481.02,-96.33 468.11,-102.23 456.5,-108.6 407.24,-135.61 354.74,-177.23 331.56,-196.35"/>
<polygon fill="#63b8ff" stroke="#63b8ff" points="494.41,-94.57 502.38,-87.58 491.8,-88.07 494.41,-94.57"/>
</a>
</g>
</g>
<!-- Node12&#45;&gt;Node4 -->
<g id="edge21_Node000012_Node000004" class="edge">
<title>Node12&#45;&gt;Node4</title>
<g id="a_edge21_Node000012_Node000004"><a xlink:title=" ">
<path fill="none" stroke="#63b8ff" d="M671.53,-206.6C596,-206.6 495.11,-206.6 420.68,-206.6"/>
<polygon fill="#63b8ff" stroke="#63b8ff" points="671.44,-210.1 681.44,-206.6 671.44,-203.1 671.44,-210.1"/>
</a>
</g>
</g>
<!-- Node13&#45;&gt;Node4 -->
<g id="edge23_Node000013_Node000004" class="edge">
<title>Node13&#45;&gt;Node4</title>
<g id="a_edge23_Node000013_Node000004"><a xlink:title=" ">
<path fill="none" stroke="#63b8ff" d="M898.15,-457.52C781.05,-457.94 591.4,-443.4 456.5,-357.6 394.65,-318.26 343.17,-243.81 325.72,-216.75"/>
<polygon fill="#63b8ff" stroke="#63b8ff" points="898.12,-461.02 908.09,-457.44 898.07,-454.02 898.12,-461.02"/>
</a>
</g>
</g>
<!-- Node13&#45;&gt;Node14 -->
<g id="edge24_Node000013_Node000014" class="edge">
<title>Node13&#45;&gt;Node14</title>
<g id="a_edge24_Node000013_Node000014"><a xlink:title=" ">
<path fill="none" stroke="#63b8ff" d="M909.31,-433.99C883.31,-428.9 856.03,-423.56 833.24,-419.09"/>
<polygon fill="#63b8ff" stroke="#63b8ff" points="908.4,-437.37 918.88,-435.86 909.74,-430.5 908.4,-437.37"/>
</a>
</g>
</g>
<!-- Node14&#45;&gt;Node3 -->
<g id="edge25_Node000014_Node000003" class="edge">
<title>Node14&#45;&gt;Node3</title>
<g id="a_edge25_Node000014_Node000003"><a xlink:title=" ">
<path fill="none" stroke="#63b8ff" d="M720.52,-395.35C708.15,-392.13 695.19,-388.48 683.25,-384.6 651.38,-374.24 616.14,-360.01 590.34,-349.05"/>
<polygon fill="#63b8ff" stroke="#63b8ff" points="719.66,-398.75 730.21,-397.82 721.38,-391.96 719.66,-398.75"/>
</a>
</g>
</g>
<!-- Node17&#45;&gt;Node8 -->
<g id="edge31_Node000017_Node000008" class="edge">
<title>Node17&#45;&gt;Node8</title>
<g id="a_edge31_Node000017_Node000008"><a xlink:title=" ">
<path fill="none" stroke="#63b8ff" d="M1130.43,-128.47C1000.22,-129.63 771.96,-131.65 644.89,-132.78"/>
<polygon fill="#63b8ff" stroke="#63b8ff" points="1130.08,-131.97 1140.04,-128.38 1130.01,-124.97 1130.08,-131.97"/>
</a>
</g>
</g>
<!-- Node17&#45;&gt;Node9 -->
<g id="edge32_Node000017_Node000009" class="edge">
<title>Node17&#45;&gt;Node9</title>
<g id="a_edge32_Node000017_Node000009"><a xlink:title=" ">
<path fill="none" stroke="#63b8ff" d="M1179.75,-106.7C1156.08,-96.83 1127.11,-85.14 1100.75,-75.6 1087.82,-70.92 1073.75,-66.23 1060.52,-62"/>
<polygon fill="#63b8ff" stroke="#63b8ff" points="1178.26,-109.87 1188.84,-110.51 1180.97,-103.42 1178.26,-109.87"/>
</a>
</g>
</g>
</g>
</svg>

<g id="navigator" transform="translate(0 0)" fill="#404254">
  <rect fill="#f2f5e9" fill-opacity="0.5" stroke="#606060" stroke-width=".5" x="0" y="0" width="60" height="60"/>
  <use id="zoomplus" xlink:href="#zoomPlus" x="17" y="9" onmousedown="handleZoom(evt,'in')"/>
  <use id="zoomminus" xlink:href="#zoomMin" x="42" y="9" onmousedown="handleZoom(evt,'out')"/>
  <use id="reset" xlink:href="#resetDef" x="30" y="36" onmousedown="handleReset()"/>
   <use id="arrowup" xlink:href="#arrowUp" x="0" y="0" onmousedown="handlePan(0,-1)"/>
  <use id="arrowright" xlink:href="#arrowRight" x="0" y="0" onmousedown="handlePan(1,0)"/>
  <use id="arrowdown" xlink:href="#arrowDown" x="0" y="0" onmousedown="handlePan(0,1)"/>
  <use id="arrowleft" xlink:href="#arrowLeft" x="0" y="0" onmousedown="handlePan(-1,0)"/>
</g>
<svg viewBox="0 0 15 15" width="100%" height="30px" preserveAspectRatio="xMaxYMin meet">
 <g id="arrow_out" transform="scale(0.3 0.3)">
  <a xlink:href="leaflet_8js_a2ecc0b03b1eaf4f1ca537029a6f89ac0_icgraph_org.svg" target="_base">
   <rect id="button" ry="5" rx="5" y="6" x="6" height="38" width="38"
        fill="#f2f5e9" fill-opacity="0.5" stroke="#606060" stroke-width="1.0"/>
   <path id="arrow"
     d="M 11.500037,31.436501 C 11.940474,20.09759 22.043105,11.32322 32.158766,21.979434 L 37.068811,17.246167 C 37.068811,17.246167 37.088388,32 37.088388,32 L 22.160133,31.978069 C 22.160133,31.978069 26.997745,27.140456 26.997745,27.140456 C 18.528582,18.264221 13.291696,25.230495 11.500037,31.436501 z"
     style="fill:#404040;"/>
  </a>
 </g>
</svg>

<style type='text/css'>
<![CDATA[
[data-mouse-over-selected='false'] { opacity: 0.7; }
[data-mouse-over-selected='true']  { opacity: 1.0; }
]]>
</style>
<script type="application/ecmascript"><![CDATA[
document.addEventListener('DOMContentLoaded', (event) => {
  highlightEdges();
  highlightAdjacentNodes();
});
]]></script>
</svg>
