<?xml version="1.0" encoding="UTF-8" standalone="no"?>
<!DOCTYPE svg PUBLIC "-//W3C//DTD SVG 1.1//EN"
 "http://www.w3.org/Graphics/SVG/1.1/DTD/svg11.dtd">
<!-- Generated by graphviz version 13.1.2 (20250808.2320)
 -->
<!-- Title: src/editeurpanovisu/ListePanoramiqueCellule.java Pages: 1 -->
<svg width="2248pt" height="108pt"
 viewBox="0.00 0.00 2248.00 108.00" xmlns="http://www.w3.org/2000/svg" xmlns:xlink="http://www.w3.org/1999/xlink">
<g id="graph0" class="graph" transform="scale(1 1) rotate(0) translate(4 104)">
<title>src/editeurpanovisu/ListePanoramiqueCellule.java</title>
<!-- Node1 -->
<g id="Node000001" class="node">
<title>Node1</title>
<g id="a_Node000001"><a xlink:title=" ">
<polygon fill="#999999" stroke="#666666" points="1178,-100 1030,-100 1030,-68 1178,-68 1178,-100"/>
<text xml:space="preserve" text-anchor="start" x="1038" y="-86.5" font-family="Helvetica,sans-Serif" font-size="10.00">src/editeurpanovisu</text>
<text xml:space="preserve" text-anchor="middle" x="1104" y="-74.5" font-family="Helvetica,sans-Serif" font-size="10.00">/ListePanoramiqueCellule.java</text>
</a>
</g>
</g>
<!-- Node2 -->
<g id="Node000002" class="node">
<title>Node2</title>
<g id="a_Node000002"><a xlink:title=" ">
<polygon fill="#e0e0e0" stroke="#999999" points="190,-32 0,-32 0,0 190,0 190,-32"/>
<text xml:space="preserve" text-anchor="start" x="8" y="-18.5" font-family="Helvetica,sans-Serif" font-size="10.00">editeurpanovisu.EditeurPanovisu.affiche</text>
<text xml:space="preserve" text-anchor="middle" x="95" y="-6.5" font-family="Helvetica,sans-Serif" font-size="10.00">PanoChoisit</text>
</a>
</g>
</g>
<!-- Node1&#45;&gt;Node2 -->
<g id="edge1_Node000001_Node000002" class="edge">
<title>Node1&#45;&gt;Node2</title>
<g id="a_edge1_Node000001_Node000002"><a xlink:title=" ">
<path fill="none" stroke="#63b8ff" d="M1029.63,-81C876.58,-76.4 515.1,-63.1 201.58,-32.2"/>
<polygon fill="#63b8ff" stroke="#63b8ff" points="202.26,-28.75 191.96,-31.25 201.56,-35.72 202.26,-28.75"/>
</a>
</g>
</g>
<!-- Node3 -->
<g id="Node000003" class="node">
<title>Node3</title>
<g id="a_Node000003"><a xlink:title=" ">
<polygon fill="#e0e0e0" stroke="#999999" points="412.12,-32 207.88,-32 207.88,0 412.12,0 412.12,-32"/>
<text xml:space="preserve" text-anchor="start" x="215.88" y="-18.5" font-family="Helvetica,sans-Serif" font-size="10.00">editeurpanovisu.OrdrePanoramique.cellules</text>
<text xml:space="preserve" text-anchor="middle" x="310" y="-6.5" font-family="Helvetica,sans-Serif" font-size="10.00">Panoramiques</text>
</a>
</g>
</g>
<!-- Node1&#45;&gt;Node3 -->
<g id="edge2_Node000001_Node000003" class="edge">
<title>Node1&#45;&gt;Node3</title>
<g id="a_edge2_Node000001_Node000003"><a xlink:title=" ">
<path fill="none" stroke="#63b8ff" d="M1029.59,-78.9C906.03,-71.78 650.51,-55.69 423.93,-32.27"/>
<polygon fill="#63b8ff" stroke="#63b8ff" points="424.3,-28.79 413.99,-31.23 423.57,-35.75 424.3,-28.79"/>
</a>
</g>
</g>
<!-- Node4 -->
<g id="Node000004" class="node">
<title>Node4</title>
<g id="a_Node000004"><a xlink:title=" ">
<polygon fill="#e0e0e0" stroke="#999999" points="521.88,-26 430.12,-26 430.12,-6 521.88,-6 521.88,-26"/>
<text xml:space="preserve" text-anchor="middle" x="476" y="-12.5" font-family="Helvetica,sans-Serif" font-size="10.00">java.util.ArrayList</text>
</a>
</g>
</g>
<!-- Node1&#45;&gt;Node4 -->
<g id="edge3_Node000001_Node000004" class="edge">
<title>Node1&#45;&gt;Node4</title>
<g id="a_edge3_Node000001_Node000004"><a xlink:title=" ">
<path fill="none" stroke="#63b8ff" d="M1029.72,-80.6C919.93,-76.1 708.19,-63.79 531,-32 526.68,-31.23 522.22,-30.27 517.78,-29.22"/>
<polygon fill="#63b8ff" stroke="#63b8ff" points="518.92,-25.9 508.37,-26.83 517.2,-32.69 518.92,-25.9"/>
</a>
</g>
</g>
<!-- Node5 -->
<g id="Node000005" class="node">
<title>Node5</title>
<g id="a_Node000005"><a xlink:title=" ">
<polygon fill="#e0e0e0" stroke="#999999" points="608.25,-26 539.75,-26 539.75,-6 608.25,-6 608.25,-26"/>
<text xml:space="preserve" text-anchor="middle" x="574" y="-12.5" font-family="Helvetica,sans-Serif" font-size="10.00">java.util.List</text>
</a>
</g>
</g>
<!-- Node1&#45;&gt;Node5 -->
<g id="edge4_Node000001_Node000005" class="edge">
<title>Node1&#45;&gt;Node5</title>
<g id="a_edge4_Node000001_Node000005"><a xlink:title=" ">
<path fill="none" stroke="#63b8ff" d="M1029.71,-80.55C933.46,-76.17 760.94,-64.19 617,-32 614.23,-31.38 611.4,-30.64 608.56,-29.83"/>
<polygon fill="#63b8ff" stroke="#63b8ff" points="609.85,-26.56 599.26,-26.87 607.73,-33.23 609.85,-26.56"/>
</a>
</g>
</g>
<!-- Node6 -->
<g id="Node000006" class="node">
<title>Node6</title>
<g id="a_Node000006"><a xlink:title=" ">
<polygon fill="#e0e0e0" stroke="#999999" points="786,-26 626,-26 626,-6 786,-6 786,-26"/>
<text xml:space="preserve" text-anchor="middle" x="706" y="-12.5" font-family="Helvetica,sans-Serif" font-size="10.00">javafx.collections.ObservableList</text>
</a>
</g>
</g>
<!-- Node1&#45;&gt;Node6 -->
<g id="edge5_Node000001_Node000006" class="edge">
<title>Node1&#45;&gt;Node6</title>
<g id="a_edge5_Node000001_Node000006"><a xlink:title=" ">
<path fill="none" stroke="#63b8ff" d="M1029.69,-70.81C967.09,-60.52 875.18,-45.37 795,-32 787.92,-30.82 780.52,-29.58 773.15,-28.34"/>
<polygon fill="#63b8ff" stroke="#63b8ff" points="773.95,-24.93 763.51,-26.72 772.79,-31.83 773.95,-24.93"/>
</a>
</g>
</g>
<!-- Node7 -->
<g id="Node000007" class="node">
<title>Node7</title>
<g id="a_Node000007"><a xlink:title=" ">
<polygon fill="#e0e0e0" stroke="#999999" points="934,-26 804,-26 804,-6 934,-6 934,-26"/>
<text xml:space="preserve" text-anchor="middle" x="869" y="-12.5" font-family="Helvetica,sans-Serif" font-size="10.00">javafx.scene.control.Label</text>
</a>
</g>
</g>
<!-- Node1&#45;&gt;Node7 -->
<g id="edge6_Node000001_Node000007" class="edge">
<title>Node1&#45;&gt;Node7</title>
<g id="a_edge6_Node000001_Node000007"><a xlink:title=" ">
<path fill="none" stroke="#63b8ff" d="M1048.9,-67.53C1007.66,-55.94 951.97,-40.3 913.53,-29.51"/>
<polygon fill="#63b8ff" stroke="#63b8ff" points="914.71,-26.2 904.14,-26.87 912.82,-32.94 914.71,-26.2"/>
</a>
</g>
</g>
<!-- Node8 -->
<g id="Node000008" class="node">
<title>Node8</title>
<g id="a_Node000008"><a xlink:title=" ">
<polygon fill="#e0e0e0" stroke="#999999" points="1091.88,-26 952.12,-26 952.12,-6 1091.88,-6 1091.88,-26"/>
<text xml:space="preserve" text-anchor="middle" x="1022" y="-12.5" font-family="Helvetica,sans-Serif" font-size="10.00">javafx.scene.control.ListCell</text>
</a>
</g>
</g>
<!-- Node1&#45;&gt;Node8 -->
<g id="edge7_Node000001_Node000008" class="edge">
<title>Node1&#45;&gt;Node8</title>
<g id="a_edge7_Node000001_Node000008"><a xlink:title=" ">
<path fill="none" stroke="#63b8ff" d="M1084.98,-67.69C1072.19,-57.4 1055.34,-43.84 1042.29,-33.33"/>
<polygon fill="#63b8ff" stroke="#63b8ff" points="1044.74,-30.81 1034.75,-27.27 1040.35,-36.26 1044.74,-30.81"/>
</a>
</g>
</g>
<!-- Node9 -->
<g id="Node000009" class="node">
<title>Node9</title>
<g id="a_Node000009"><a xlink:title=" ">
<polygon fill="#e0e0e0" stroke="#999999" points="1262.25,-26 1109.75,-26 1109.75,-6 1262.25,-6 1262.25,-26"/>
<text xml:space="preserve" text-anchor="middle" x="1186" y="-12.5" font-family="Helvetica,sans-Serif" font-size="10.00">javafx.scene.image.ImageView</text>
</a>
</g>
</g>
<!-- Node1&#45;&gt;Node9 -->
<g id="edge8_Node000001_Node000009" class="edge">
<title>Node1&#45;&gt;Node9</title>
<g id="a_edge8_Node000001_Node000009"><a xlink:title=" ">
<path fill="none" stroke="#63b8ff" d="M1123.02,-67.69C1135.81,-57.4 1152.66,-43.84 1165.71,-33.33"/>
<polygon fill="#63b8ff" stroke="#63b8ff" points="1167.65,-36.26 1173.25,-27.27 1163.26,-30.81 1167.65,-36.26"/>
</a>
</g>
</g>
<!-- Node10 -->
<g id="Node000010" class="node">
<title>Node10</title>
<g id="a_Node000010"><a xlink:title=" ">
<polygon fill="#e0e0e0" stroke="#999999" points="1419.88,-32 1280.12,-32 1280.12,0 1419.88,0 1419.88,-32"/>
<text xml:space="preserve" text-anchor="start" x="1288.12" y="-18.5" font-family="Helvetica,sans-Serif" font-size="10.00">javafx.scene.input.Clipboard</text>
<text xml:space="preserve" text-anchor="middle" x="1350" y="-6.5" font-family="Helvetica,sans-Serif" font-size="10.00">Content</text>
</a>
</g>
</g>
<!-- Node1&#45;&gt;Node10 -->
<g id="edge9_Node000001_Node000010" class="edge">
<title>Node1&#45;&gt;Node10</title>
<g id="a_edge9_Node000001_Node000010"><a xlink:title=" ">
<path fill="none" stroke="#63b8ff" d="M1161.68,-67.53C1197.48,-57.92 1243.69,-45.52 1281.37,-35.41"/>
<polygon fill="#63b8ff" stroke="#63b8ff" points="1282.05,-38.86 1290.8,-32.88 1280.23,-32.09 1282.05,-38.86"/>
</a>
</g>
</g>
<!-- Node11 -->
<g id="Node000011" class="node">
<title>Node11</title>
<g id="a_Node000011"><a xlink:title=" ">
<polygon fill="#e0e0e0" stroke="#999999" points="1582.5,-26 1437.5,-26 1437.5,-6 1582.5,-6 1582.5,-26"/>
<text xml:space="preserve" text-anchor="middle" x="1510" y="-12.5" font-family="Helvetica,sans-Serif" font-size="10.00">javafx.scene.input.DragEvent</text>
</a>
</g>
</g>
<!-- Node1&#45;&gt;Node11 -->
<g id="edge10_Node000001_Node000011" class="edge">
<title>Node1&#45;&gt;Node11</title>
<g id="a_edge10_Node000001_Node000011"><a xlink:title=" ">
<path fill="none" stroke="#63b8ff" d="M1178.32,-71.93C1244.25,-61.97 1343.15,-46.68 1429,-32 1435.41,-30.9 1442.1,-29.72 1448.77,-28.52"/>
<polygon fill="#63b8ff" stroke="#63b8ff" points="1449.21,-32 1458.43,-26.77 1447.96,-25.11 1449.21,-32"/>
</a>
</g>
</g>
<!-- Node12 -->
<g id="Node000012" class="node">
<title>Node12</title>
<g id="a_Node000012"><a xlink:title=" ">
<polygon fill="#e0e0e0" stroke="#999999" points="1743.75,-26 1600.25,-26 1600.25,-6 1743.75,-6 1743.75,-26"/>
<text xml:space="preserve" text-anchor="middle" x="1672" y="-12.5" font-family="Helvetica,sans-Serif" font-size="10.00">javafx.scene.input.Dragboard</text>
</a>
</g>
</g>
<!-- Node1&#45;&gt;Node12 -->
<g id="edge11_Node000001_Node000012" class="edge">
<title>Node1&#45;&gt;Node12</title>
<g id="a_edge11_Node000001_Node000012"><a xlink:title=" ">
<path fill="none" stroke="#63b8ff" d="M1178.23,-77.13C1274.08,-69.12 1445.96,-53.29 1592,-32 1599.15,-30.96 1606.64,-29.73 1614.04,-28.44"/>
<polygon fill="#63b8ff" stroke="#63b8ff" points="1614.44,-31.93 1623.66,-26.71 1613.2,-25.04 1614.44,-31.93"/>
</a>
</g>
</g>
<!-- Node13 -->
<g id="Node000013" class="node">
<title>Node13</title>
<g id="a_Node000013"><a xlink:title=" ">
<polygon fill="#e0e0e0" stroke="#999999" points="1920.25,-26 1761.75,-26 1761.75,-6 1920.25,-6 1920.25,-26"/>
<text xml:space="preserve" text-anchor="middle" x="1841" y="-12.5" font-family="Helvetica,sans-Serif" font-size="10.00">javafx.scene.input.TransferMode</text>
</a>
</g>
</g>
<!-- Node1&#45;&gt;Node13 -->
<g id="edge12_Node000001_Node000013" class="edge">
<title>Node1&#45;&gt;Node13</title>
<g id="a_edge12_Node000001_Node000013"><a xlink:title=" ">
<path fill="none" stroke="#63b8ff" d="M1178.19,-79.36C1298.98,-72.94 1545.51,-57.78 1753,-32 1761.45,-30.95 1770.32,-29.66 1779.05,-28.28"/>
<polygon fill="#63b8ff" stroke="#63b8ff" points="1779.59,-31.74 1788.9,-26.67 1778.47,-24.83 1779.59,-31.74"/>
</a>
</g>
</g>
<!-- Node14 -->
<g id="Node000014" class="node">
<title>Node14</title>
<g id="a_Node000014"><a xlink:title=" ">
<polygon fill="#e0e0e0" stroke="#999999" points="2095.5,-26 1938.5,-26 1938.5,-6 2095.5,-6 2095.5,-26"/>
<text xml:space="preserve" text-anchor="middle" x="2017" y="-12.5" font-family="Helvetica,sans-Serif" font-size="10.00">javafx.scene.layout.AnchorPane</text>
</a>
</g>
</g>
<!-- Node1&#45;&gt;Node14 -->
<g id="edge13_Node000001_Node000014" class="edge">
<title>Node1&#45;&gt;Node14</title>
<g id="a_edge13_Node000001_Node000014"><a xlink:title=" ">
<path fill="none" stroke="#63b8ff" d="M1178.47,-81.07C1323.4,-76.72 1653.34,-63.92 1929,-32 1937.66,-31 1946.76,-29.71 1955.7,-28.31"/>
<polygon fill="#63b8ff" stroke="#63b8ff" points="1956.07,-31.8 1965.38,-26.74 1954.95,-24.89 1956.07,-31.8"/>
</a>
</g>
</g>
<!-- Node15 -->
<g id="Node000015" class="node">
<title>Node15</title>
<g id="a_Node000015"><a xlink:title=" ">
<polygon fill="#e0e0e0" stroke="#999999" points="2240.12,-26 2113.88,-26 2113.88,-6 2240.12,-6 2240.12,-26"/>
<text xml:space="preserve" text-anchor="middle" x="2177" y="-12.5" font-family="Helvetica,sans-Serif" font-size="10.00">javafx.scene.layout.Pane</text>
</a>
</g>
</g>
<!-- Node1&#45;&gt;Node15 -->
<g id="edge14_Node000001_Node000015" class="edge">
<title>Node1&#45;&gt;Node15</title>
<g id="a_edge14_Node000001_Node000015"><a xlink:title=" ">
<path fill="none" stroke="#63b8ff" d="M1178.44,-83.13C1345.11,-82.56 1760.7,-76.37 2105,-32 2111.82,-31.12 2118.95,-29.95 2125.96,-28.65"/>
<polygon fill="#63b8ff" stroke="#63b8ff" points="2126.58,-32.09 2135.71,-26.73 2125.23,-25.22 2126.58,-32.09"/>
</a>
</g>
</g>
</g>
</svg>
