<?xml version="1.0" encoding="UTF-8" standalone="no"?>
<!DOCTYPE svg PUBLIC "-//W3C//DTD SVG 1.1//EN"
 "http://www.w3.org/Graphics/SVG/1.1/DTD/svg11.dtd">
<!-- Generated by graphviz version 13.1.2 (20250808.2320)
 -->
<!-- Title: src/editeurpanovisu/NavigateurCarteGluon.java Pages: 1 -->
<svg width="2741pt" height="108pt"
 viewBox="0.00 0.00 2741.00 108.00" xmlns="http://www.w3.org/2000/svg" xmlns:xlink="http://www.w3.org/1999/xlink">
<g id="graph0" class="graph" transform="scale(1 1) rotate(0) translate(4 104)">
<title>src/editeurpanovisu/NavigateurCarteGluon.java</title>
<!-- Node1 -->
<g id="Node000001" class="node">
<title>Node1</title>
<g id="a_Node000001"><a xlink:title=" ">
<polygon fill="#999999" stroke="#666666" points="1627.12,-100 1490.38,-100 1490.38,-68 1627.12,-68 1627.12,-100"/>
<text xml:space="preserve" text-anchor="start" x="1498.38" y="-86.5" font-family="Helvetica,sans-Serif" font-size="10.00">src/editeurpanovisu</text>
<text xml:space="preserve" text-anchor="middle" x="1558.75" y="-74.5" font-family="Helvetica,sans-Serif" font-size="10.00">/NavigateurCarteGluon.java</text>
</a>
</g>
</g>
<!-- Node2 -->
<g id="Node000002" class="node">
<title>Node2</title>
<g id="a_Node000002"><a xlink:title=" ">
<polygon fill="#e0e0e0" stroke="#999999" points="131.5,-26 0,-26 0,-6 131.5,-6 131.5,-26"/>
<text xml:space="preserve" text-anchor="middle" x="65.75" y="-12.5" font-family="Helvetica,sans-Serif" font-size="10.00">javafx.application.Platform</text>
</a>
</g>
</g>
<!-- Node1&#45;&gt;Node2 -->
<g id="edge1_Node000001_Node000002" class="edge">
<title>Node1&#45;&gt;Node2</title>
<g id="a_edge1_Node000001_Node000002"><a xlink:title=" ">
<path fill="none" stroke="#63b8ff" d="M1490.24,-82C1244.34,-78.19 406.82,-63.19 140.75,-32 133.39,-31.14 125.68,-29.94 118.12,-28.59"/>
<polygon fill="#63b8ff" stroke="#63b8ff" points="118.78,-25.16 108.31,-26.74 117.48,-32.03 118.78,-25.16"/>
</a>
</g>
</g>
<!-- Node3 -->
<g id="Node000003" class="node">
<title>Node3</title>
<g id="a_Node000003"><a xlink:title=" ">
<polygon fill="#e0e0e0" stroke="#999999" points="305.88,-26 149.62,-26 149.62,-6 305.88,-6 305.88,-26"/>
<text xml:space="preserve" text-anchor="middle" x="227.75" y="-12.5" font-family="Helvetica,sans-Serif" font-size="10.00">javafx.embed.swing.SwingNode</text>
</a>
</g>
</g>
<!-- Node1&#45;&gt;Node3 -->
<g id="edge2_Node000001_Node000003" class="edge">
<title>Node1&#45;&gt;Node3</title>
<g id="a_edge2_Node000001_Node000003"><a xlink:title=" ">
<path fill="none" stroke="#63b8ff" d="M1490.08,-83.3C1301.69,-83.47 761.03,-79.42 314.75,-32 305.76,-31.04 296.29,-29.73 287.04,-28.28"/>
<polygon fill="#63b8ff" stroke="#63b8ff" points="287.84,-24.86 277.41,-26.7 286.71,-31.77 287.84,-24.86"/>
</a>
</g>
</g>
<!-- Node4 -->
<g id="Node000004" class="node">
<title>Node4</title>
<g id="a_Node000004"><a xlink:title=" ">
<polygon fill="#e0e0e0" stroke="#999999" points="458,-26 323.5,-26 323.5,-6 458,-6 458,-26"/>
<text xml:space="preserve" text-anchor="middle" x="390.75" y="-12.5" font-family="Helvetica,sans-Serif" font-size="10.00">javafx.scene.layout.Region</text>
</a>
</g>
</g>
<!-- Node1&#45;&gt;Node4 -->
<g id="edge3_Node000001_Node000004" class="edge">
<title>Node1&#45;&gt;Node4</title>
<g id="a_edge3_Node000001_Node000004"><a xlink:title=" ">
<path fill="none" stroke="#63b8ff" d="M1490.17,-83.25C1317.71,-83.14 852.28,-78.19 467.75,-32 460.21,-31.09 452.3,-29.87 444.54,-28.51"/>
<polygon fill="#63b8ff" stroke="#63b8ff" points="445.3,-25.09 434.83,-26.72 444.03,-31.98 445.3,-25.09"/>
</a>
</g>
</g>
<!-- Node5 -->
<g id="Node000005" class="node">
<title>Node5</title>
<g id="a_Node000005"><a xlink:title=" ">
<polygon fill="#e0e0e0" stroke="#999999" points="607.12,-26 476.38,-26 476.38,-6 607.12,-6 607.12,-26"/>
<text xml:space="preserve" text-anchor="middle" x="541.75" y="-12.5" font-family="Helvetica,sans-Serif" font-size="10.00">javax.swing.SwingUtilities</text>
</a>
</g>
</g>
<!-- Node1&#45;&gt;Node5 -->
<g id="edge4_Node000001_Node000005" class="edge">
<title>Node1&#45;&gt;Node5</title>
<g id="a_edge4_Node000001_Node000005"><a xlink:title=" ">
<path fill="none" stroke="#63b8ff" d="M1489.89,-82.64C1333.88,-81.1 941.73,-73.08 616.75,-32 609.66,-31.1 602.24,-29.92 594.94,-28.61"/>
<polygon fill="#63b8ff" stroke="#63b8ff" points="595.59,-25.17 585.11,-26.76 594.29,-32.05 595.59,-25.17"/>
</a>
</g>
</g>
<!-- Node6 -->
<g id="Node000006" class="node">
<title>Node6</title>
<g id="a_Node000006"><a xlink:title=" ">
<polygon fill="#e0e0e0" stroke="#999999" points="793.88,-32 625.62,-32 625.62,0 793.88,0 793.88,-32"/>
<text xml:space="preserve" text-anchor="start" x="633.62" y="-18.5" font-family="Helvetica,sans-Serif" font-size="10.00">org.openstreetmap.gui.jmapviewer.</text>
<text xml:space="preserve" text-anchor="middle" x="709.75" y="-6.5" font-family="Helvetica,sans-Serif" font-size="10.00">JMapViewer</text>
</a>
</g>
</g>
<!-- Node1&#45;&gt;Node6 -->
<g id="edge5_Node000001_Node000006" class="edge">
<title>Node1&#45;&gt;Node6</title>
<g id="a_edge5_Node000001_Node000006"><a xlink:title=" ">
<path fill="none" stroke="#63b8ff" d="M1490.02,-80.5C1358.87,-75.25 1063.68,-61.21 805.45,-32.24"/>
<polygon fill="#63b8ff" stroke="#63b8ff" points="806.19,-28.8 795.86,-31.16 805.4,-35.76 806.19,-28.8"/>
</a>
</g>
</g>
<!-- Node7 -->
<g id="Node000007" class="node">
<title>Node7</title>
<g id="a_Node000007"><a xlink:title=" ">
<polygon fill="#e0e0e0" stroke="#999999" points="979.88,-32 811.62,-32 811.62,0 979.88,0 979.88,-32"/>
<text xml:space="preserve" text-anchor="start" x="819.62" y="-18.5" font-family="Helvetica,sans-Serif" font-size="10.00">org.openstreetmap.gui.jmapviewer.</text>
<text xml:space="preserve" text-anchor="middle" x="895.75" y="-6.5" font-family="Helvetica,sans-Serif" font-size="10.00">Coordinate</text>
</a>
</g>
</g>
<!-- Node1&#45;&gt;Node7 -->
<g id="edge6_Node000001_Node000007" class="edge">
<title>Node1&#45;&gt;Node7</title>
<g id="a_edge6_Node000001_Node000007"><a xlink:title=" ">
<path fill="none" stroke="#63b8ff" d="M1490.15,-78.44C1385.06,-71.1 1177.67,-55.24 991.73,-32.32"/>
<polygon fill="#63b8ff" stroke="#63b8ff" points="992.22,-28.85 981.86,-31.09 991.35,-35.8 992.22,-28.85"/>
</a>
</g>
</g>
<!-- Node8 -->
<g id="Node000008" class="node">
<title>Node8</title>
<g id="a_Node000008"><a xlink:title=" ">
<polygon fill="#e0e0e0" stroke="#999999" points="1165.88,-32 997.62,-32 997.62,0 1165.88,0 1165.88,-32"/>
<text xml:space="preserve" text-anchor="start" x="1005.62" y="-18.5" font-family="Helvetica,sans-Serif" font-size="10.00">org.openstreetmap.gui.jmapviewer.</text>
<text xml:space="preserve" text-anchor="middle" x="1081.75" y="-6.5" font-family="Helvetica,sans-Serif" font-size="10.00">MapMarkerDot</text>
</a>
</g>
</g>
<!-- Node1&#45;&gt;Node8 -->
<g id="edge7_Node000001_Node000008" class="edge">
<title>Node1&#45;&gt;Node8</title>
<g id="a_edge7_Node000001_Node000008"><a xlink:title=" ">
<path fill="none" stroke="#63b8ff" d="M1490,-74.46C1415.5,-65.06 1292.83,-49.22 1177.06,-32.32"/>
<polygon fill="#63b8ff" stroke="#63b8ff" points="1177.78,-28.88 1167.38,-30.9 1176.77,-35.81 1177.78,-28.88"/>
</a>
</g>
</g>
<!-- Node9 -->
<g id="Node000009" class="node">
<title>Node9</title>
<g id="a_Node000009"><a xlink:title=" ">
<polygon fill="#e0e0e0" stroke="#999999" points="1397.75,-32 1183.75,-32 1183.75,0 1397.75,0 1397.75,-32"/>
<text xml:space="preserve" text-anchor="start" x="1191.75" y="-18.5" font-family="Helvetica,sans-Serif" font-size="10.00">org.openstreetmap.gui.jmapviewer.interfaces.</text>
<text xml:space="preserve" text-anchor="middle" x="1290.75" y="-6.5" font-family="Helvetica,sans-Serif" font-size="10.00">MapMarker</text>
</a>
</g>
</g>
<!-- Node1&#45;&gt;Node9 -->
<g id="edge8_Node000001_Node000009" class="edge">
<title>Node1&#45;&gt;Node9</title>
<g id="a_edge8_Node000001_Node000009"><a xlink:title=" ">
<path fill="none" stroke="#63b8ff" d="M1495.92,-67.53C1456.66,-57.86 1405.92,-45.36 1364.73,-35.22"/>
<polygon fill="#63b8ff" stroke="#63b8ff" points="1365.67,-31.85 1355.12,-32.85 1364,-38.64 1365.67,-31.85"/>
</a>
</g>
</g>
<!-- Node10 -->
<g id="Node000010" class="node">
<title>Node10</title>
<g id="a_Node000010"><a xlink:title=" ">
<polygon fill="#e0e0e0" stroke="#999999" points="1495.25,-26 1416.25,-26 1416.25,-6 1495.25,-6 1495.25,-26"/>
<text xml:space="preserve" text-anchor="middle" x="1455.75" y="-12.5" font-family="Helvetica,sans-Serif" font-size="10.00">java.awt.Color</text>
</a>
</g>
</g>
<!-- Node1&#45;&gt;Node10 -->
<g id="edge9_Node000001_Node000010" class="edge">
<title>Node1&#45;&gt;Node10</title>
<g id="a_edge9_Node000001_Node000010"><a xlink:title=" ">
<path fill="none" stroke="#63b8ff" d="M1534.6,-67.53C1518.15,-56.99 1496.47,-43.09 1480,-32.54"/>
<polygon fill="#63b8ff" stroke="#63b8ff" points="1482.1,-29.72 1471.79,-27.28 1478.32,-35.62 1482.1,-29.72"/>
</a>
</g>
</g>
<!-- Node11 -->
<g id="Node000011" class="node">
<title>Node11</title>
<g id="a_Node000011"><a xlink:title=" ">
<polygon fill="#e0e0e0" stroke="#999999" points="1604.62,-26 1512.88,-26 1512.88,-6 1604.62,-6 1604.62,-26"/>
<text xml:space="preserve" text-anchor="middle" x="1558.75" y="-12.5" font-family="Helvetica,sans-Serif" font-size="10.00">java.util.ArrayList</text>
</a>
</g>
</g>
<!-- Node1&#45;&gt;Node11 -->
<g id="edge10_Node000001_Node000011" class="edge">
<title>Node1&#45;&gt;Node11</title>
<g id="a_edge10_Node000001_Node000011"><a xlink:title=" ">
<path fill="none" stroke="#63b8ff" d="M1558.75,-67.69C1558.75,-58.8 1558.75,-47.46 1558.75,-37.77"/>
<polygon fill="#63b8ff" stroke="#63b8ff" points="1562.25,-37.83 1558.75,-27.83 1555.25,-37.83 1562.25,-37.83"/>
</a>
</g>
</g>
<!-- Node12 -->
<g id="Node000012" class="node">
<title>Node12</title>
<g id="a_Node000012"><a xlink:title=" ">
<polygon fill="#e0e0e0" stroke="#999999" points="1691,-26 1622.5,-26 1622.5,-6 1691,-6 1691,-26"/>
<text xml:space="preserve" text-anchor="middle" x="1656.75" y="-12.5" font-family="Helvetica,sans-Serif" font-size="10.00">java.util.List</text>
</a>
</g>
</g>
<!-- Node1&#45;&gt;Node12 -->
<g id="edge11_Node000001_Node000012" class="edge">
<title>Node1&#45;&gt;Node12</title>
<g id="a_edge11_Node000001_Node000012"><a xlink:title=" ">
<path fill="none" stroke="#63b8ff" d="M1581.48,-67.69C1597.06,-57.2 1617.68,-43.31 1633.4,-32.73"/>
<polygon fill="#63b8ff" stroke="#63b8ff" points="1635.32,-35.65 1641.66,-27.16 1631.41,-29.84 1635.32,-35.65"/>
</a>
</g>
</g>
<!-- Node13 -->
<g id="Node000013" class="node">
<title>Node13</title>
<g id="a_Node000013"><a xlink:title=" ">
<polygon fill="#e0e0e0" stroke="#999999" points="1824.25,-26 1709.25,-26 1709.25,-6 1824.25,-6 1824.25,-26"/>
<text xml:space="preserve" text-anchor="middle" x="1766.75" y="-12.5" font-family="Helvetica,sans-Serif" font-size="10.00">java.io.BufferedReader</text>
</a>
</g>
</g>
<!-- Node1&#45;&gt;Node13 -->
<g id="edge12_Node000001_Node000013" class="edge">
<title>Node1&#45;&gt;Node13</title>
<g id="a_edge12_Node000001_Node000013"><a xlink:title=" ">
<path fill="none" stroke="#63b8ff" d="M1607.52,-67.53C1643.55,-56.09 1692.04,-40.71 1726.01,-29.93"/>
<polygon fill="#63b8ff" stroke="#63b8ff" points="1727.02,-33.28 1735.49,-26.92 1724.9,-26.61 1727.02,-33.28"/>
</a>
</g>
</g>
<!-- Node14 -->
<g id="Node000014" class="node">
<title>Node14</title>
<g id="a_Node000014"><a xlink:title=" ">
<polygon fill="#e0e0e0" stroke="#999999" points="1974.88,-26 1842.62,-26 1842.62,-6 1974.88,-6 1974.88,-26"/>
<text xml:space="preserve" text-anchor="middle" x="1908.75" y="-12.5" font-family="Helvetica,sans-Serif" font-size="10.00">java.io.InputStreamReader</text>
</a>
</g>
</g>
<!-- Node1&#45;&gt;Node14 -->
<g id="edge13_Node000001_Node000014" class="edge">
<title>Node1&#45;&gt;Node14</title>
<g id="a_edge13_Node000001_Node000014"><a xlink:title=" ">
<path fill="none" stroke="#63b8ff" d="M1627.46,-70.53C1683.12,-60.37 1763.54,-45.53 1833.75,-32 1839.31,-30.93 1845.1,-29.8 1850.89,-28.66"/>
<polygon fill="#63b8ff" stroke="#63b8ff" points="1851.35,-32.13 1860.48,-26.76 1849.99,-25.27 1851.35,-32.13"/>
</a>
</g>
</g>
<!-- Node15 -->
<g id="Node000015" class="node">
<title>Node15</title>
<g id="a_Node000015"><a xlink:title=" ">
<polygon fill="#e0e0e0" stroke="#999999" points="2094.12,-26 1993.38,-26 1993.38,-6 2094.12,-6 2094.12,-26"/>
<text xml:space="preserve" text-anchor="middle" x="2043.75" y="-12.5" font-family="Helvetica,sans-Serif" font-size="10.00">java.io.InputStream</text>
</a>
</g>
</g>
<!-- Node1&#45;&gt;Node15 -->
<g id="edge14_Node000001_Node000015" class="edge">
<title>Node1&#45;&gt;Node15</title>
<g id="a_edge14_Node000001_Node000015"><a xlink:title=" ">
<path fill="none" stroke="#63b8ff" d="M1627.61,-77.42C1712,-69.96 1859.14,-54.96 1983.75,-32 1988.38,-31.15 1993.19,-30.14 1997.98,-29.07"/>
<polygon fill="#63b8ff" stroke="#63b8ff" points="1998.61,-32.52 2007.54,-26.82 1997,-25.7 1998.61,-32.52"/>
</a>
</g>
</g>
<!-- Node16 -->
<g id="Node000016" class="node">
<title>Node16</title>
<g id="a_Node000016"><a xlink:title=" ">
<polygon fill="#e0e0e0" stroke="#999999" points="2253.75,-26 2111.75,-26 2111.75,-6 2253.75,-6 2253.75,-26"/>
<text xml:space="preserve" text-anchor="middle" x="2182.75" y="-12.5" font-family="Helvetica,sans-Serif" font-size="10.00">java.net.HttpURLConnection</text>
</a>
</g>
</g>
<!-- Node1&#45;&gt;Node16 -->
<g id="edge15_Node000001_Node000016" class="edge">
<title>Node1&#45;&gt;Node16</title>
<g id="a_edge15_Node000001_Node000016"><a xlink:title=" ">
<path fill="none" stroke="#63b8ff" d="M1627.26,-78.61C1730.63,-71.52 1932.49,-55.89 2102.75,-32 2110,-30.98 2117.59,-29.76 2125.09,-28.46"/>
<polygon fill="#63b8ff" stroke="#63b8ff" points="2125.62,-31.92 2134.85,-26.72 2124.39,-25.03 2125.62,-31.92"/>
</a>
</g>
</g>
<!-- Node17 -->
<g id="Node000017" class="node">
<title>Node17</title>
<g id="a_Node000017"><a xlink:title=" ">
<polygon fill="#e0e0e0" stroke="#999999" points="2345.62,-26 2271.88,-26 2271.88,-6 2345.62,-6 2345.62,-26"/>
<text xml:space="preserve" text-anchor="middle" x="2308.75" y="-12.5" font-family="Helvetica,sans-Serif" font-size="10.00">java.net.URL</text>
</a>
</g>
</g>
<!-- Node1&#45;&gt;Node17 -->
<g id="edge16_Node000001_Node000017" class="edge">
<title>Node1&#45;&gt;Node17</title>
<g id="a_edge16_Node000001_Node000017"><a xlink:title=" ">
<path fill="none" stroke="#63b8ff" d="M1627.44,-83.52C1754.23,-83.28 2033.07,-77.07 2262.75,-32 2266.1,-31.34 2269.55,-30.51 2272.98,-29.59"/>
<polygon fill="#63b8ff" stroke="#63b8ff" points="2273.7,-33.02 2282.28,-26.81 2271.7,-26.32 2273.7,-33.02"/>
</a>
</g>
</g>
<!-- Node18 -->
<g id="Node000018" class="node">
<title>Node18</title>
<g id="a_Node000018"><a xlink:title=" ">
<polygon fill="#e0e0e0" stroke="#999999" points="2473.62,-26 2363.88,-26 2363.88,-6 2473.62,-6 2473.62,-26"/>
<text xml:space="preserve" text-anchor="middle" x="2418.75" y="-12.5" font-family="Helvetica,sans-Serif" font-size="10.00">java.net.URLEncoder</text>
</a>
</g>
</g>
<!-- Node1&#45;&gt;Node18 -->
<g id="edge17_Node000001_Node000018" class="edge">
<title>Node1&#45;&gt;Node18</title>
<g id="a_edge17_Node000001_Node000018"><a xlink:title=" ">
<path fill="none" stroke="#63b8ff" d="M1627.56,-82.43C1766.01,-80.44 2087.81,-71.55 2354.75,-32 2360.39,-31.16 2366.27,-30.08 2372.07,-28.88"/>
<polygon fill="#63b8ff" stroke="#63b8ff" points="2372.58,-32.36 2381.59,-26.79 2371.08,-25.52 2372.58,-32.36"/>
</a>
</g>
</g>
<!-- Node19 -->
<g id="Node000019" class="node">
<title>Node19</title>
<g id="a_Node000019"><a xlink:title=" ">
<polygon fill="#e0e0e0" stroke="#999999" points="2618.25,-32 2491.25,-32 2491.25,0 2618.25,0 2618.25,-32"/>
<text xml:space="preserve" text-anchor="start" x="2499.25" y="-18.5" font-family="Helvetica,sans-Serif" font-size="10.00">java.nio.charset.Standard</text>
<text xml:space="preserve" text-anchor="middle" x="2554.75" y="-6.5" font-family="Helvetica,sans-Serif" font-size="10.00">Charsets</text>
</a>
</g>
</g>
<!-- Node1&#45;&gt;Node19 -->
<g id="edge18_Node000001_Node000019" class="edge">
<title>Node1&#45;&gt;Node19</title>
<g id="a_edge18_Node000001_Node000019"><a xlink:title=" ">
<path fill="none" stroke="#63b8ff" d="M1627.47,-82.73C1779.59,-81.37 2156.36,-73.81 2479.84,-32.26"/>
<polygon fill="#63b8ff" stroke="#63b8ff" points="2479.88,-35.79 2489.34,-31.03 2478.98,-28.85 2479.88,-35.79"/>
</a>
</g>
</g>
<!-- Node20 -->
<g id="Node000020" class="node">
<title>Node20</title>
<g id="a_Node000020"><a xlink:title=" ">
<polygon fill="#e0e0e0" stroke="#999999" points="2733.25,-26 2636.25,-26 2636.25,-6 2733.25,-6 2733.25,-26"/>
<text xml:space="preserve" text-anchor="middle" x="2684.75" y="-12.5" font-family="Helvetica,sans-Serif" font-size="10.00">java.util.Properties</text>
</a>
</g>
</g>
<!-- Node1&#45;&gt;Node20 -->
<g id="edge19_Node000001_Node000020" class="edge">
<title>Node1&#45;&gt;Node20</title>
<g id="a_edge19_Node000001_Node000020"><a xlink:title=" ">
<path fill="none" stroke="#63b8ff" d="M1627.54,-81.6C1832,-77.15 2433.77,-61.81 2627.75,-32 2632.66,-31.25 2637.76,-30.24 2642.8,-29.1"/>
<polygon fill="#63b8ff" stroke="#63b8ff" points="2643.29,-32.58 2652.17,-26.81 2641.62,-25.78 2643.29,-32.58"/>
</a>
</g>
</g>
</g>
</svg>
