<?xml version="1.0" encoding="UTF-8" standalone="no"?>
<!DOCTYPE svg PUBLIC "-//W3C//DTD SVG 1.1//EN"
 "http://www.w3.org/Graphics/SVG/1.1/DTD/svg11.dtd">
<!-- Generated by graphviz version 13.1.2 (20250808.2320)
 -->
<!-- Title: src/editeurpanovisu/NavigateurCarte.java Pages: 1 -->
<svg width="656pt" height="96pt"
 viewBox="0.00 0.00 656.00 96.00" xmlns="http://www.w3.org/2000/svg" xmlns:xlink="http://www.w3.org/1999/xlink">
<g id="graph0" class="graph" transform="scale(1 1) rotate(0) translate(4 92)">
<title>src/editeurpanovisu/NavigateurCarte.java</title>
<!-- Node1 -->
<g id="Node000001" class="node">
<title>Node1</title>
<g id="a_Node000001"><a xlink:title=" ">
<polygon fill="#999999" stroke="#666666" points="318.5,-88 207.25,-88 207.25,-56 318.5,-56 318.5,-88"/>
<text xml:space="preserve" text-anchor="start" x="215.25" y="-74.5" font-family="Helvetica,sans-Serif" font-size="10.00">src/editeurpanovisu</text>
<text xml:space="preserve" text-anchor="middle" x="262.88" y="-62.5" font-family="Helvetica,sans-Serif" font-size="10.00">/NavigateurCarte.java</text>
</a>
</g>
</g>
<!-- Node2 -->
<g id="Node000002" class="node">
<title>Node2</title>
<g id="a_Node000002"><a xlink:title=" ">
<polygon fill="#e0e0e0" stroke="#999999" points="73.75,-20 0,-20 0,0 73.75,0 73.75,-20"/>
<text xml:space="preserve" text-anchor="middle" x="36.88" y="-6.5" font-family="Helvetica,sans-Serif" font-size="10.00">java.net.URL</text>
</a>
</g>
</g>
<!-- Node1&#45;&gt;Node2 -->
<g id="edge1_Node000001_Node000002" class="edge">
<title>Node1&#45;&gt;Node2</title>
<g id="a_edge1_Node000001_Node000002"><a xlink:title=" ">
<path fill="none" stroke="#63b8ff" d="M207.01,-56.17C169.03,-46.09 119.37,-32.9 83.51,-23.38"/>
<polygon fill="#63b8ff" stroke="#63b8ff" points="84.41,-20 73.85,-20.82 82.62,-26.76 84.41,-20"/>
</a>
</g>
</g>
<!-- Node3 -->
<g id="Node000003" class="node">
<title>Node3</title>
<g id="a_Node000003"><a xlink:title=" ">
<polygon fill="#e0e0e0" stroke="#999999" points="177.75,-20 92,-20 92,0 177.75,0 177.75,-20"/>
<text xml:space="preserve" text-anchor="middle" x="134.88" y="-6.5" font-family="Helvetica,sans-Serif" font-size="10.00">java.util.Base64</text>
</a>
</g>
</g>
<!-- Node1&#45;&gt;Node3 -->
<g id="edge2_Node000001_Node000003" class="edge">
<title>Node1&#45;&gt;Node3</title>
<g id="a_edge2_Node000001_Node000003"><a xlink:title=" ">
<path fill="none" stroke="#63b8ff" d="M229.91,-55.55C210,-46.22 184.81,-34.41 165.37,-25.29"/>
<polygon fill="#63b8ff" stroke="#63b8ff" points="166.86,-22.13 156.32,-21.05 163.88,-28.46 166.86,-22.13"/>
</a>
</g>
</g>
<!-- Node4 -->
<g id="Node000004" class="node">
<title>Node4</title>
<g id="a_Node000004"><a xlink:title=" ">
<polygon fill="#e0e0e0" stroke="#999999" points="330.12,-20 195.62,-20 195.62,0 330.12,0 330.12,-20"/>
<text xml:space="preserve" text-anchor="middle" x="262.88" y="-6.5" font-family="Helvetica,sans-Serif" font-size="10.00">javafx.scene.layout.Region</text>
</a>
</g>
</g>
<!-- Node1&#45;&gt;Node4 -->
<g id="edge3_Node000001_Node000004" class="edge">
<title>Node1&#45;&gt;Node4</title>
<g id="a_edge3_Node000001_Node000004"><a xlink:title=" ">
<path fill="none" stroke="#63b8ff" d="M262.88,-55.55C262.88,-48.34 262.88,-39.66 262.88,-31.88"/>
<polygon fill="#63b8ff" stroke="#63b8ff" points="266.38,-31.92 262.88,-21.92 259.38,-31.92 266.38,-31.92"/>
</a>
</g>
</g>
<!-- Node5 -->
<g id="Node000005" class="node">
<title>Node5</title>
<g id="a_Node000005"><a xlink:title=" ">
<polygon fill="#e0e0e0" stroke="#999999" points="493.38,-20 348.38,-20 348.38,0 493.38,0 493.38,-20"/>
<text xml:space="preserve" text-anchor="middle" x="420.88" y="-6.5" font-family="Helvetica,sans-Serif" font-size="10.00">javafx.scene.web.WebEngine</text>
</a>
</g>
</g>
<!-- Node1&#45;&gt;Node5 -->
<g id="edge4_Node000001_Node000005" class="edge">
<title>Node1&#45;&gt;Node5</title>
<g id="a_edge4_Node000001_Node000005"><a xlink:title=" ">
<path fill="none" stroke="#63b8ff" d="M303.56,-55.55C328.94,-45.91 361.27,-33.64 385.56,-24.41"/>
<polygon fill="#63b8ff" stroke="#63b8ff" points="386.58,-27.77 394.69,-20.95 384.09,-21.22 386.58,-27.77"/>
</a>
</g>
</g>
<!-- Node6 -->
<g id="Node000006" class="node">
<title>Node6</title>
<g id="a_Node000006"><a xlink:title=" ">
<polygon fill="#e0e0e0" stroke="#999999" points="648.25,-20 511.5,-20 511.5,0 648.25,0 648.25,-20"/>
<text xml:space="preserve" text-anchor="middle" x="579.88" y="-6.5" font-family="Helvetica,sans-Serif" font-size="10.00">javafx.scene.web.WebView</text>
</a>
</g>
</g>
<!-- Node1&#45;&gt;Node6 -->
<g id="edge5_Node000001_Node000006" class="edge">
<title>Node1&#45;&gt;Node6</title>
<g id="a_edge5_Node000001_Node000006"><a xlink:title=" ">
<path fill="none" stroke="#63b8ff" d="M318.82,-60.41C374.81,-49.81 460.72,-33.55 518.54,-22.61"/>
<polygon fill="#63b8ff" stroke="#63b8ff" points="519.05,-26.07 528.22,-20.78 517.75,-19.2 519.05,-26.07"/>
</a>
</g>
</g>
</g>
</svg>
