<?xml version="1.0" encoding="UTF-8" standalone="no"?>
<!DOCTYPE svg PUBLIC "-//W3C//DTD SVG 1.1//EN"
 "http://www.w3.org/Graphics/SVG/1.1/DTD/svg11.dtd">
<!-- Generated by graphviz version 13.1.2 (20250808.2320)
 -->
<!-- Title: src/editeurpanovisu/NavigateurOpenLayersSeul.java Pages: 1 -->
<svg width="1188pt" height="108pt"
 viewBox="0.00 0.00 1188.00 108.00" xmlns="http://www.w3.org/2000/svg" xmlns:xlink="http://www.w3.org/1999/xlink">
<g id="graph0" class="graph" transform="scale(1 1) rotate(0) translate(4 104)">
<title>src/editeurpanovisu/NavigateurOpenLayersSeul.java</title>
<!-- Node1 -->
<g id="Node000001" class="node">
<title>Node1</title>
<g id="a_Node000001"><a xlink:title=" ">
<polygon fill="#999999" stroke="#666666" points="639.5,-100 480.25,-100 480.25,-68 639.5,-68 639.5,-100"/>
<text xml:space="preserve" text-anchor="start" x="488.25" y="-86.5" font-family="Helvetica,sans-Serif" font-size="10.00">src/editeurpanovisu</text>
<text xml:space="preserve" text-anchor="middle" x="559.88" y="-74.5" font-family="Helvetica,sans-Serif" font-size="10.00">/NavigateurOpenLayersSeul.java</text>
</a>
</g>
</g>
<!-- Node2 -->
<g id="Node000002" class="node">
<title>Node2</title>
<g id="a_Node000002"><a xlink:title=" ">
<polygon fill="#e0e0e0" stroke="#999999" points="127.75,-32 0,-32 0,0 127.75,0 127.75,-32"/>
<text xml:space="preserve" text-anchor="start" x="8" y="-18.5" font-family="Helvetica,sans-Serif" font-size="10.00">javafx.concurrent.Worker.</text>
<text xml:space="preserve" text-anchor="middle" x="63.88" y="-6.5" font-family="Helvetica,sans-Serif" font-size="10.00">State</text>
</a>
</g>
</g>
<!-- Node1&#45;&gt;Node2 -->
<g id="edge1_Node000001_Node000002" class="edge">
<title>Node1&#45;&gt;Node2</title>
<g id="a_edge1_Node000001_Node000002"><a xlink:title=" ">
<path fill="none" stroke="#63b8ff" d="M480.08,-75.37C397.33,-67 263.97,-52.26 139.19,-32.29"/>
<polygon fill="#63b8ff" stroke="#63b8ff" points="139.84,-28.85 129.41,-30.71 138.72,-35.76 139.84,-28.85"/>
</a>
</g>
</g>
<!-- Node3 -->
<g id="Node000003" class="node">
<title>Node3</title>
<g id="a_Node000003"><a xlink:title=" ">
<polygon fill="#e0e0e0" stroke="#999999" points="251.5,-26 146.25,-26 146.25,-6 251.5,-6 251.5,-26"/>
<text xml:space="preserve" text-anchor="middle" x="198.88" y="-12.5" font-family="Helvetica,sans-Serif" font-size="10.00">javafx.geometry.Pos</text>
</a>
</g>
</g>
<!-- Node1&#45;&gt;Node3 -->
<g id="edge2_Node000001_Node000003" class="edge">
<title>Node1&#45;&gt;Node3</title>
<g id="a_edge2_Node000001_Node000003"><a xlink:title=" ">
<path fill="none" stroke="#63b8ff" d="M479.96,-70.89C419.58,-61.38 334.76,-47.22 260.88,-32 256.36,-31.07 251.67,-30.05 246.99,-28.98"/>
<polygon fill="#63b8ff" stroke="#63b8ff" points="248.17,-25.66 237.63,-26.8 246.58,-32.48 248.17,-25.66"/>
</a>
</g>
</g>
<!-- Node4 -->
<g id="Node000004" class="node">
<title>Node4</title>
<g id="a_Node000004"><a xlink:title=" ">
<polygon fill="#e0e0e0" stroke="#999999" points="399.88,-26 269.88,-26 269.88,-6 399.88,-6 399.88,-26"/>
<text xml:space="preserve" text-anchor="middle" x="334.88" y="-12.5" font-family="Helvetica,sans-Serif" font-size="10.00">javafx.scene.control.Label</text>
</a>
</g>
</g>
<!-- Node1&#45;&gt;Node4 -->
<g id="edge3_Node000001_Node000004" class="edge">
<title>Node1&#45;&gt;Node4</title>
<g id="a_edge3_Node000001_Node000004"><a xlink:title=" ">
<path fill="none" stroke="#63b8ff" d="M507.12,-67.53C467.81,-55.99 414.78,-40.44 377.99,-29.65"/>
<polygon fill="#63b8ff" stroke="#63b8ff" points="379.16,-26.34 368.58,-26.89 377.19,-33.06 379.16,-26.34"/>
</a>
</g>
</g>
<!-- Node5 -->
<g id="Node000005" class="node">
<title>Node5</title>
<g id="a_Node000005"><a xlink:title=" ">
<polygon fill="#e0e0e0" stroke="#999999" points="550,-32 417.75,-32 417.75,0 550,0 550,-32"/>
<text xml:space="preserve" text-anchor="start" x="425.75" y="-18.5" font-family="Helvetica,sans-Serif" font-size="10.00">javafx.scene.control.Radio</text>
<text xml:space="preserve" text-anchor="middle" x="483.88" y="-6.5" font-family="Helvetica,sans-Serif" font-size="10.00">Button</text>
</a>
</g>
</g>
<!-- Node1&#45;&gt;Node5 -->
<g id="edge4_Node000001_Node000005" class="edge">
<title>Node1&#45;&gt;Node5</title>
<g id="a_edge4_Node000001_Node000005"><a xlink:title=" ">
<path fill="none" stroke="#63b8ff" d="M542.25,-67.69C532.72,-59.42 520.78,-49.05 510.18,-39.84"/>
<polygon fill="#63b8ff" stroke="#63b8ff" points="512.66,-37.36 502.81,-33.45 508.07,-42.65 512.66,-37.36"/>
</a>
</g>
</g>
<!-- Node6 -->
<g id="Node000006" class="node">
<title>Node6</title>
<g id="a_Node000006"><a xlink:title=" ">
<polygon fill="#e0e0e0" stroke="#999999" points="703.5,-32 568.25,-32 568.25,0 703.5,0 703.5,-32"/>
<text xml:space="preserve" text-anchor="start" x="576.25" y="-18.5" font-family="Helvetica,sans-Serif" font-size="10.00">javafx.scene.control.Toggle</text>
<text xml:space="preserve" text-anchor="middle" x="635.88" y="-6.5" font-family="Helvetica,sans-Serif" font-size="10.00">Group</text>
</a>
</g>
</g>
<!-- Node1&#45;&gt;Node6 -->
<g id="edge5_Node000001_Node000006" class="edge">
<title>Node1&#45;&gt;Node6</title>
<g id="a_edge5_Node000001_Node000006"><a xlink:title=" ">
<path fill="none" stroke="#63b8ff" d="M577.5,-67.69C587.03,-59.42 598.97,-49.05 609.57,-39.84"/>
<polygon fill="#63b8ff" stroke="#63b8ff" points="611.68,-42.65 616.94,-33.45 607.09,-37.36 611.68,-42.65"/>
</a>
</g>
</g>
<!-- Node7 -->
<g id="Node000007" class="node">
<title>Node7</title>
<g id="a_Node000007"><a xlink:title=" ">
<polygon fill="#e0e0e0" stroke="#999999" points="878.38,-26 721.38,-26 721.38,-6 878.38,-6 878.38,-26"/>
<text xml:space="preserve" text-anchor="middle" x="799.88" y="-12.5" font-family="Helvetica,sans-Serif" font-size="10.00">javafx.scene.layout.AnchorPane</text>
</a>
</g>
</g>
<!-- Node1&#45;&gt;Node7 -->
<g id="edge6_Node000001_Node000007" class="edge">
<title>Node1&#45;&gt;Node7</title>
<g id="a_edge6_Node000001_Node000007"><a xlink:title=" ">
<path fill="none" stroke="#63b8ff" d="M616.14,-67.53C658.26,-55.94 715.14,-40.3 754.39,-29.51"/>
<polygon fill="#63b8ff" stroke="#63b8ff" points="755.3,-32.89 764.02,-26.86 753.45,-26.14 755.3,-32.89"/>
</a>
</g>
</g>
<!-- Node8 -->
<g id="Node000008" class="node">
<title>Node8</title>
<g id="a_Node000008"><a xlink:title=" ">
<polygon fill="#e0e0e0" stroke="#999999" points="1017.75,-26 896,-26 896,-6 1017.75,-6 1017.75,-26"/>
<text xml:space="preserve" text-anchor="middle" x="956.88" y="-12.5" font-family="Helvetica,sans-Serif" font-size="10.00">javafx.scene.paint.Color</text>
</a>
</g>
</g>
<!-- Node1&#45;&gt;Node8 -->
<g id="edge7_Node000001_Node000008" class="edge">
<title>Node1&#45;&gt;Node8</title>
<g id="a_edge7_Node000001_Node000008"><a xlink:title=" ">
<path fill="none" stroke="#63b8ff" d="M639.97,-71.91C706.52,-62.37 803.6,-47.7 887.88,-32 893.17,-31.01 898.68,-29.92 904.18,-28.8"/>
<polygon fill="#63b8ff" stroke="#63b8ff" points="904.81,-32.24 913.88,-26.76 903.37,-25.39 904.81,-32.24"/>
</a>
</g>
</g>
<!-- Node9 -->
<g id="Node000009" class="node">
<title>Node9</title>
<g id="a_Node000009"><a xlink:title=" ">
<polygon fill="#e0e0e0" stroke="#999999" points="1180,-26 1035.75,-26 1035.75,-6 1180,-6 1180,-26"/>
<text xml:space="preserve" text-anchor="middle" x="1107.88" y="-12.5" font-family="Helvetica,sans-Serif" font-size="10.00">netscape.javascript.JSObject</text>
</a>
</g>
</g>
<!-- Node1&#45;&gt;Node9 -->
<g id="edge8_Node000001_Node000009" class="edge">
<title>Node1&#45;&gt;Node9</title>
<g id="a_edge8_Node000001_Node000009"><a xlink:title=" ">
<path fill="none" stroke="#63b8ff" d="M639.85,-76.09C733.03,-67.62 891.52,-51.9 1026.88,-32 1034.02,-30.95 1041.49,-29.73 1048.89,-28.45"/>
<polygon fill="#63b8ff" stroke="#63b8ff" points="1049.28,-31.94 1058.51,-26.74 1048.05,-25.04 1049.28,-31.94"/>
</a>
</g>
</g>
</g>
</svg>
