<?xml version="1.0" encoding="UTF-8" standalone="no"?>
<!DOCTYPE svg PUBLIC "-//W3C//DTD SVG 1.1//EN"
 "http://www.w3.org/Graphics/SVG/1.1/DTD/svg11.dtd">
<!-- Generated by graphviz version 13.1.2 (20250808.2320)
 -->
<!-- Title: src/editeurpanovisu/NavigateurPanoramique.java Pages: 1 -->
<svg width="5559pt" height="108pt"
 viewBox="0.00 0.00 5559.00 108.00" xmlns="http://www.w3.org/2000/svg" xmlns:xlink="http://www.w3.org/1999/xlink">
<g id="graph0" class="graph" transform="scale(1 1) rotate(0) translate(4 104)">
<title>src/editeurpanovisu/NavigateurPanoramique.java</title>
<!-- Node1 -->
<g id="Node000001" class="node">
<title>Node1</title>
<g id="a_Node000001"><a xlink:title=" ">
<polygon fill="#999999" stroke="#666666" points="2779.62,-100 2635.38,-100 2635.38,-68 2779.62,-68 2779.62,-100"/>
<text xml:space="preserve" text-anchor="start" x="2643.38" y="-86.5" font-family="Helvetica,sans-Serif" font-size="10.00">src/editeurpanovisu</text>
<text xml:space="preserve" text-anchor="middle" x="2707.5" y="-74.5" font-family="Helvetica,sans-Serif" font-size="10.00">/NavigateurPanoramique.java</text>
</a>
</g>
</g>
<!-- Node2 -->
<g id="Node000002" class="node">
<title>Node2</title>
<g id="a_Node000002"><a xlink:title=" ">
<polygon fill="#e0e0e0" stroke="#999999" points="175,-32 0,-32 0,0 175,0 175,-32"/>
<text xml:space="preserve" text-anchor="start" x="8" y="-18.5" font-family="Helvetica,sans-Serif" font-size="10.00">editeurpanovisu.EditeurPanovisu.get</text>
<text xml:space="preserve" text-anchor="middle" x="87.5" y="-6.5" font-family="Helvetica,sans-Serif" font-size="10.00">PanoramiquesProjet</text>
</a>
</g>
</g>
<!-- Node1&#45;&gt;Node2 -->
<g id="edge1_Node000001_Node000002" class="edge">
<title>Node1&#45;&gt;Node2</title>
<g id="a_edge1_Node000001_Node000002"><a xlink:title=" ">
<path fill="none" stroke="#63b8ff" d="M2634.97,-82.86C2277.67,-81.95 701.55,-75.54 186.56,-32.17"/>
<polygon fill="#63b8ff" stroke="#63b8ff" points="187.1,-28.71 176.84,-31.34 186.5,-35.68 187.1,-28.71"/>
</a>
</g>
</g>
<!-- Node3 -->
<g id="Node000003" class="node">
<title>Node3</title>
<g id="a_Node000003"><a xlink:title=" ">
<polygon fill="#e0e0e0" stroke="#999999" points="368,-32 193,-32 193,0 368,0 368,-32"/>
<text xml:space="preserve" text-anchor="start" x="201" y="-18.5" font-family="Helvetica,sans-Serif" font-size="10.00">editeurpanovisu.EditeurPanovisu.get</text>
<text xml:space="preserve" text-anchor="middle" x="280.5" y="-6.5" font-family="Helvetica,sans-Serif" font-size="10.00">StrRepertAppli</text>
</a>
</g>
</g>
<!-- Node1&#45;&gt;Node3 -->
<g id="edge2_Node000001_Node000003" class="edge">
<title>Node1&#45;&gt;Node3</title>
<g id="a_edge2_Node000001_Node000003"><a xlink:title=" ">
<path fill="none" stroke="#63b8ff" d="M2634.91,-82.71C2294.62,-81.18 854.33,-72.43 379.71,-32.19"/>
<polygon fill="#63b8ff" stroke="#63b8ff" points="380.11,-28.71 369.84,-31.33 379.5,-35.69 380.11,-28.71"/>
</a>
</g>
</g>
<!-- Node4 -->
<g id="Node000004" class="node">
<title>Node4</title>
<g id="a_Node000004"><a xlink:title=" ">
<polygon fill="#e0e0e0" stroke="#999999" points="563.12,-32 385.88,-32 385.88,0 563.12,0 563.12,-32"/>
<text xml:space="preserve" text-anchor="start" x="393.88" y="-18.5" font-family="Helvetica,sans-Serif" font-size="10.00">editeurpanovisu.EditeurPanovisu.geti</text>
<text xml:space="preserve" text-anchor="middle" x="474.5" y="-6.5" font-family="Helvetica,sans-Serif" font-size="10.00">PanoActuel</text>
</a>
</g>
</g>
<!-- Node1&#45;&gt;Node4 -->
<g id="edge3_Node000001_Node000004" class="edge">
<title>Node1&#45;&gt;Node4</title>
<g id="a_edge3_Node000001_Node000004"><a xlink:title=" ">
<path fill="none" stroke="#63b8ff" d="M2634.88,-82.52C2312.64,-80.17 1009.23,-68.64 574.73,-32.09"/>
<polygon fill="#63b8ff" stroke="#63b8ff" points="575.15,-28.61 564.88,-31.24 574.55,-35.59 575.15,-28.61"/>
</a>
</g>
</g>
<!-- Node5 -->
<g id="Node000005" class="node">
<title>Node5</title>
<g id="a_Node000005"><a xlink:title=" ">
<polygon fill="#e0e0e0" stroke="#999999" points="717.88,-32 581.12,-32 581.12,0 717.88,0 717.88,-32"/>
<text xml:space="preserve" text-anchor="start" x="589.12" y="-18.5" font-family="Helvetica,sans-Serif" font-size="10.00">java.beans.PropertyChange</text>
<text xml:space="preserve" text-anchor="middle" x="649.5" y="-6.5" font-family="Helvetica,sans-Serif" font-size="10.00">Event</text>
</a>
</g>
</g>
<!-- Node1&#45;&gt;Node5 -->
<g id="edge4_Node000001_Node000005" class="edge">
<title>Node1&#45;&gt;Node5</title>
<g id="a_edge4_Node000001_Node000005"><a xlink:title=" ">
<path fill="none" stroke="#63b8ff" d="M2634.98,-82.73C2327.74,-81.33 1131.23,-73.37 729.67,-32.07"/>
<polygon fill="#63b8ff" stroke="#63b8ff" points="730.13,-28.6 719.82,-31.03 729.39,-35.56 730.13,-28.6"/>
</a>
</g>
</g>
<!-- Node6 -->
<g id="Node000006" class="node">
<title>Node6</title>
<g id="a_Node000006"><a xlink:title=" ">
<polygon fill="#e0e0e0" stroke="#999999" points="872.88,-32 736.12,-32 736.12,0 872.88,0 872.88,-32"/>
<text xml:space="preserve" text-anchor="start" x="744.12" y="-18.5" font-family="Helvetica,sans-Serif" font-size="10.00">java.beans.PropertyChange</text>
<text xml:space="preserve" text-anchor="middle" x="804.5" y="-6.5" font-family="Helvetica,sans-Serif" font-size="10.00">Listener</text>
</a>
</g>
</g>
<!-- Node1&#45;&gt;Node6 -->
<g id="edge5_Node000001_Node000006" class="edge">
<title>Node1&#45;&gt;Node6</title>
<g id="a_edge5_Node000001_Node000006"><a xlink:title=" ">
<path fill="none" stroke="#63b8ff" d="M2635.02,-82.54C2343.32,-80.47 1253.72,-70.34 884.55,-32.06"/>
<polygon fill="#63b8ff" stroke="#63b8ff" points="885.13,-28.6 874.82,-31.02 884.39,-35.56 885.13,-28.6"/>
</a>
</g>
</g>
<!-- Node7 -->
<g id="Node000007" class="node">
<title>Node7</title>
<g id="a_Node000007"><a xlink:title=" ">
<polygon fill="#e0e0e0" stroke="#999999" points="1027.88,-32 891.12,-32 891.12,0 1027.88,0 1027.88,-32"/>
<text xml:space="preserve" text-anchor="start" x="899.12" y="-18.5" font-family="Helvetica,sans-Serif" font-size="10.00">java.beans.PropertyChange</text>
<text xml:space="preserve" text-anchor="middle" x="959.5" y="-6.5" font-family="Helvetica,sans-Serif" font-size="10.00">Support</text>
</a>
</g>
</g>
<!-- Node1&#45;&gt;Node7 -->
<g id="edge6_Node000001_Node000007" class="edge">
<title>Node1&#45;&gt;Node7</title>
<g id="a_edge6_Node000001_Node000007"><a xlink:title=" ">
<path fill="none" stroke="#63b8ff" d="M2635.06,-82.35C2359.51,-79.64 1375.68,-67.72 1039.47,-32.19"/>
<polygon fill="#63b8ff" stroke="#63b8ff" points="1040.09,-28.73 1029.77,-31.13 1039.33,-35.69 1040.09,-28.73"/>
</a>
</g>
</g>
<!-- Node8 -->
<g id="Node000008" class="node">
<title>Node8</title>
<g id="a_Node000008"><a xlink:title=" ">
<polygon fill="#e0e0e0" stroke="#999999" points="1109.12,-26 1045.88,-26 1045.88,-6 1109.12,-6 1109.12,-26"/>
<text xml:space="preserve" text-anchor="middle" x="1077.5" y="-12.5" font-family="Helvetica,sans-Serif" font-size="10.00">java.io.File</text>
</a>
</g>
</g>
<!-- Node1&#45;&gt;Node8 -->
<g id="edge7_Node000001_Node000008" class="edge">
<title>Node1&#45;&gt;Node8</title>
<g id="a_edge7_Node000001_Node000008"><a xlink:title=" ">
<path fill="none" stroke="#63b8ff" d="M2635.35,-82.07C2344.6,-78.13 1267.27,-61.65 1117.5,-32 1114.86,-31.48 1112.17,-30.8 1109.48,-30.03"/>
<polygon fill="#63b8ff" stroke="#63b8ff" points="1110.74,-26.76 1100.15,-26.9 1108.52,-33.39 1110.74,-26.76"/>
</a>
</g>
</g>
<!-- Node9 -->
<g id="Node000009" class="node">
<title>Node9</title>
<g id="a_Node000009"><a xlink:title=" ">
<polygon fill="#e0e0e0" stroke="#999999" points="1228.25,-26 1126.75,-26 1126.75,-6 1228.25,-6 1228.25,-26"/>
<text xml:space="preserve" text-anchor="middle" x="1177.5" y="-12.5" font-family="Helvetica,sans-Serif" font-size="10.00">java.io.IOException</text>
</a>
</g>
</g>
<!-- Node1&#45;&gt;Node9 -->
<g id="edge8_Node000001_Node000009" class="edge">
<title>Node1&#45;&gt;Node9</title>
<g id="a_edge8_Node000001_Node000009"><a xlink:title=" ">
<path fill="none" stroke="#63b8ff" d="M2635.09,-82.5C2378.32,-80.42 1512.02,-70.64 1237.5,-32 1232.13,-31.24 1226.55,-30.2 1221.05,-29.02"/>
<polygon fill="#63b8ff" stroke="#63b8ff" points="1221.96,-25.64 1211.43,-26.78 1220.37,-32.46 1221.96,-25.64"/>
</a>
</g>
</g>
<!-- Node10 -->
<g id="Node000010" class="node">
<title>Node10</title>
<g id="a_Node000010"><a xlink:title=" ">
<polygon fill="#e0e0e0" stroke="#999999" points="1358.5,-26 1246.5,-26 1246.5,-6 1358.5,-6 1358.5,-26"/>
<text xml:space="preserve" text-anchor="middle" x="1302.5" y="-12.5" font-family="Helvetica,sans-Serif" font-size="10.00">java.math.BigDecimal</text>
</a>
</g>
</g>
<!-- Node1&#45;&gt;Node10 -->
<g id="edge9_Node000001_Node000010" class="edge">
<title>Node1&#45;&gt;Node10</title>
<g id="a_edge9_Node000001_Node000010"><a xlink:title=" ">
<path fill="none" stroke="#63b8ff" d="M2634.91,-82.04C2393.02,-78.57 1615.72,-65.06 1367.5,-32 1361.47,-31.2 1355.18,-30.09 1348.99,-28.84"/>
<polygon fill="#63b8ff" stroke="#63b8ff" points="1350.03,-25.49 1339.52,-26.8 1348.55,-32.33 1350.03,-25.49"/>
</a>
</g>
</g>
<!-- Node11 -->
<g id="Node000011" class="node">
<title>Node11</title>
<g id="a_Node000011"><a xlink:title=" ">
<polygon fill="#e0e0e0" stroke="#999999" points="1500.88,-26 1376.12,-26 1376.12,-6 1500.88,-6 1500.88,-26"/>
<text xml:space="preserve" text-anchor="middle" x="1438.5" y="-12.5" font-family="Helvetica,sans-Serif" font-size="10.00">java.util.ResourceBundle</text>
</a>
</g>
</g>
<!-- Node1&#45;&gt;Node11 -->
<g id="edge10_Node000001_Node000011" class="edge">
<title>Node1&#45;&gt;Node11</title>
<g id="a_edge10_Node000001_Node000011"><a xlink:title=" ">
<path fill="none" stroke="#63b8ff" d="M2634.89,-81.49C2410.34,-76.56 1729.08,-59.67 1509.5,-32 1502.69,-31.14 1495.57,-29.97 1488.57,-28.66"/>
<polygon fill="#63b8ff" stroke="#63b8ff" points="1489.34,-25.24 1478.85,-26.72 1487.97,-32.11 1489.34,-25.24"/>
</a>
</g>
</g>
<!-- Node12 -->
<g id="Node000012" class="node">
<title>Node12</title>
<g id="a_Node000012"><a xlink:title=" ">
<polygon fill="#e0e0e0" stroke="#999999" points="1628.38,-26 1518.62,-26 1518.62,-6 1628.38,-6 1628.38,-26"/>
<text xml:space="preserve" text-anchor="middle" x="1573.5" y="-12.5" font-family="Helvetica,sans-Serif" font-size="10.00">java.util.logging.Level</text>
</a>
</g>
</g>
<!-- Node1&#45;&gt;Node12 -->
<g id="edge11_Node000001_Node000012" class="edge">
<title>Node1&#45;&gt;Node12</title>
<g id="a_edge11_Node000001_Node000012"><a xlink:title=" ">
<path fill="none" stroke="#63b8ff" d="M2635,-81.27C2427.02,-76.04 1830.89,-59.04 1637.5,-32 1631.78,-31.2 1625.83,-30.13 1619.95,-28.93"/>
<polygon fill="#63b8ff" stroke="#63b8ff" points="1620.82,-25.54 1610.31,-26.82 1619.33,-32.38 1620.82,-25.54"/>
</a>
</g>
</g>
<!-- Node13 -->
<g id="Node000013" class="node">
<title>Node13</title>
<g id="a_Node000013"><a xlink:title=" ">
<polygon fill="#e0e0e0" stroke="#999999" points="1762.38,-26 1646.62,-26 1646.62,-6 1762.38,-6 1762.38,-26"/>
<text xml:space="preserve" text-anchor="middle" x="1704.5" y="-12.5" font-family="Helvetica,sans-Serif" font-size="10.00">java.util.logging.Logger</text>
</a>
</g>
</g>
<!-- Node1&#45;&gt;Node13 -->
<g id="edge12_Node000001_Node000013" class="edge">
<title>Node1&#45;&gt;Node13</title>
<g id="a_edge12_Node000001_Node000013"><a xlink:title=" ">
<path fill="none" stroke="#63b8ff" d="M2634.89,-83.13C2477.03,-82.51 2091.1,-76.17 1771.5,-32 1765.37,-31.15 1758.98,-30.03 1752.68,-28.79"/>
<polygon fill="#63b8ff" stroke="#63b8ff" points="1753.5,-25.38 1742.99,-26.75 1752.06,-32.23 1753.5,-25.38"/>
</a>
</g>
</g>
<!-- Node14 -->
<g id="Node000014" class="node">
<title>Node14</title>
<g id="a_Node000014"><a xlink:title=" ">
<polygon fill="#e0e0e0" stroke="#999999" points="1916.12,-26 1780.88,-26 1780.88,-6 1916.12,-6 1916.12,-26"/>
<text xml:space="preserve" text-anchor="middle" x="1848.5" y="-12.5" font-family="Helvetica,sans-Serif" font-size="10.00">javafx.animation.KeyFrame</text>
</a>
</g>
</g>
<!-- Node1&#45;&gt;Node14 -->
<g id="edge13_Node000001_Node000014" class="edge">
<title>Node1&#45;&gt;Node14</title>
<g id="a_edge13_Node000001_Node000014"><a xlink:title=" ">
<path fill="none" stroke="#63b8ff" d="M2635.14,-81.42C2496.64,-77.71 2184.69,-66 1924.5,-32 1917.33,-31.06 1909.81,-29.86 1902.42,-28.54"/>
<polygon fill="#63b8ff" stroke="#63b8ff" points="1903.31,-25.14 1892.83,-26.74 1902.02,-32.02 1903.31,-25.14"/>
</a>
</g>
</g>
<!-- Node15 -->
<g id="Node000015" class="node">
<title>Node15</title>
<g id="a_Node000015"><a xlink:title=" ">
<polygon fill="#e0e0e0" stroke="#999999" points="2061,-26 1934,-26 1934,-6 2061,-6 2061,-26"/>
<text xml:space="preserve" text-anchor="middle" x="1997.5" y="-12.5" font-family="Helvetica,sans-Serif" font-size="10.00">javafx.animation.Timeline</text>
</a>
</g>
</g>
<!-- Node1&#45;&gt;Node15 -->
<g id="edge14_Node000001_Node000015" class="edge">
<title>Node1&#45;&gt;Node15</title>
<g id="a_edge14_Node000001_Node000015"><a xlink:title=" ">
<path fill="none" stroke="#63b8ff" d="M2634.93,-80.17C2516.21,-74.87 2273.26,-61.25 2069.5,-32 2063.02,-31.07 2056.25,-29.91 2049.57,-28.65"/>
<polygon fill="#63b8ff" stroke="#63b8ff" points="2050.44,-25.26 2039.95,-26.76 2049.08,-32.12 2050.44,-25.26"/>
</a>
</g>
</g>
<!-- Node16 -->
<g id="Node000016" class="node">
<title>Node16</title>
<g id="a_Node000016"><a xlink:title=" ">
<polygon fill="#e0e0e0" stroke="#999999" points="2222.25,-32 2078.75,-32 2078.75,0 2222.25,0 2222.25,-32"/>
<text xml:space="preserve" text-anchor="start" x="2086.75" y="-18.5" font-family="Helvetica,sans-Serif" font-size="10.00">javafx.application.Conditional</text>
<text xml:space="preserve" text-anchor="middle" x="2150.5" y="-6.5" font-family="Helvetica,sans-Serif" font-size="10.00">Feature</text>
</a>
</g>
</g>
<!-- Node1&#45;&gt;Node16 -->
<g id="edge15_Node000001_Node000016" class="edge">
<title>Node1&#45;&gt;Node16</title>
<g id="a_edge15_Node000001_Node000016"><a xlink:title=" ">
<path fill="none" stroke="#63b8ff" d="M2635.11,-76.98C2543.9,-69 2382.12,-53.57 2233.57,-32.23"/>
<polygon fill="#63b8ff" stroke="#63b8ff" points="2234.34,-28.81 2223.94,-30.83 2233.33,-35.73 2234.34,-28.81"/>
</a>
</g>
</g>
<!-- Node17 -->
<g id="Node000017" class="node">
<title>Node17</title>
<g id="a_Node000017"><a xlink:title=" ">
<polygon fill="#e0e0e0" stroke="#999999" points="2372.25,-26 2240.75,-26 2240.75,-6 2372.25,-6 2372.25,-26"/>
<text xml:space="preserve" text-anchor="middle" x="2306.5" y="-12.5" font-family="Helvetica,sans-Serif" font-size="10.00">javafx.application.Platform</text>
</a>
</g>
</g>
<!-- Node1&#45;&gt;Node17 -->
<g id="edge16_Node000001_Node000017" class="edge">
<title>Node1&#45;&gt;Node17</title>
<g id="a_edge16_Node000001_Node000017"><a xlink:title=" ">
<path fill="none" stroke="#63b8ff" d="M2635.17,-72.58C2569.01,-62.83 2468.49,-47.5 2381.5,-32 2375.54,-30.94 2369.31,-29.78 2363.12,-28.59"/>
<polygon fill="#63b8ff" stroke="#63b8ff" points="2364.02,-25.2 2353.54,-26.72 2362.68,-32.07 2364.02,-25.2"/>
</a>
</g>
</g>
<!-- Node18 -->
<g id="Node000018" class="node">
<title>Node18</title>
<g id="a_Node000018"><a xlink:title=" ">
<polygon fill="#e0e0e0" stroke="#999999" points="2516.25,-26 2390.75,-26 2390.75,-6 2516.25,-6 2516.25,-26"/>
<text xml:space="preserve" text-anchor="middle" x="2453.5" y="-12.5" font-family="Helvetica,sans-Serif" font-size="10.00">javafx.event.ActionEvent</text>
</a>
</g>
</g>
<!-- Node1&#45;&gt;Node18 -->
<g id="edge17_Node000001_Node000018" class="edge">
<title>Node1&#45;&gt;Node18</title>
<g id="a_edge17_Node000001_Node000018"><a xlink:title=" ">
<path fill="none" stroke="#63b8ff" d="M2647.95,-67.53C2603.09,-55.87 2542.41,-40.1 2500.83,-29.3"/>
<polygon fill="#63b8ff" stroke="#63b8ff" points="2501.93,-25.97 2491.37,-26.84 2500.17,-32.74 2501.93,-25.97"/>
</a>
</g>
</g>
<!-- Node19 -->
<g id="Node000019" class="node">
<title>Node19</title>
<g id="a_Node000019"><a xlink:title=" ">
<polygon fill="#e0e0e0" stroke="#999999" points="2639.12,-26 2533.88,-26 2533.88,-6 2639.12,-6 2639.12,-26"/>
<text xml:space="preserve" text-anchor="middle" x="2586.5" y="-12.5" font-family="Helvetica,sans-Serif" font-size="10.00">javafx.geometry.Pos</text>
</a>
</g>
</g>
<!-- Node1&#45;&gt;Node19 -->
<g id="edge18_Node000001_Node000019" class="edge">
<title>Node1&#45;&gt;Node19</title>
<g id="a_edge18_Node000001_Node000019"><a xlink:title=" ">
<path fill="none" stroke="#63b8ff" d="M2679.13,-67.53C2659.45,-56.79 2633.37,-42.56 2613.9,-31.94"/>
<polygon fill="#63b8ff" stroke="#63b8ff" points="2615.63,-28.9 2605.17,-27.18 2612.28,-35.05 2615.63,-28.9"/>
</a>
</g>
</g>
<!-- Node20 -->
<g id="Node000020" class="node">
<title>Node20</title>
<g id="a_Node000020"><a xlink:title=" ">
<polygon fill="#e0e0e0" stroke="#999999" points="2757.88,-26 2657.12,-26 2657.12,-6 2757.88,-6 2757.88,-26"/>
<text xml:space="preserve" text-anchor="middle" x="2707.5" y="-12.5" font-family="Helvetica,sans-Serif" font-size="10.00">javafx.scene.Group</text>
</a>
</g>
</g>
<!-- Node1&#45;&gt;Node20 -->
<g id="edge19_Node000001_Node000020" class="edge">
<title>Node1&#45;&gt;Node20</title>
<g id="a_edge19_Node000001_Node000020"><a xlink:title=" ">
<path fill="none" stroke="#63b8ff" d="M2707.5,-67.69C2707.5,-58.8 2707.5,-47.46 2707.5,-37.77"/>
<polygon fill="#63b8ff" stroke="#63b8ff" points="2711,-37.83 2707.5,-27.83 2704,-37.83 2711,-37.83"/>
</a>
</g>
</g>
<!-- Node21 -->
<g id="Node000021" class="node">
<title>Node21</title>
<g id="a_Node000021"><a xlink:title=" ">
<polygon fill="#e0e0e0" stroke="#999999" points="2902.62,-32 2776.38,-32 2776.38,0 2902.62,0 2902.62,-32"/>
<text xml:space="preserve" text-anchor="start" x="2784.38" y="-18.5" font-family="Helvetica,sans-Serif" font-size="10.00">javafx.scene.Perspective</text>
<text xml:space="preserve" text-anchor="middle" x="2839.5" y="-6.5" font-family="Helvetica,sans-Serif" font-size="10.00">Camera</text>
</a>
</g>
</g>
<!-- Node1&#45;&gt;Node21 -->
<g id="edge20_Node000001_Node000021" class="edge">
<title>Node1&#45;&gt;Node21</title>
<g id="a_edge20_Node000001_Node000021"><a xlink:title=" ">
<path fill="none" stroke="#63b8ff" d="M2738.45,-67.53C2756.4,-58.55 2779.24,-47.13 2798.66,-37.42"/>
<polygon fill="#63b8ff" stroke="#63b8ff" points="2800.01,-40.66 2807.39,-33.05 2796.88,-34.4 2800.01,-40.66"/>
</a>
</g>
</g>
<!-- Node22 -->
<g id="Node000022" class="node">
<title>Node22</title>
<g id="a_Node000022"><a xlink:title=" ">
<polygon fill="#e0e0e0" stroke="#999999" points="3086.5,-26 2920.5,-26 2920.5,-6 3086.5,-6 3086.5,-26"/>
<text xml:space="preserve" text-anchor="middle" x="3003.5" y="-12.5" font-family="Helvetica,sans-Serif" font-size="10.00">javafx.scene.SnapshotParameters</text>
</a>
</g>
</g>
<!-- Node1&#45;&gt;Node22 -->
<g id="edge21_Node000001_Node000022" class="edge">
<title>Node1&#45;&gt;Node22</title>
<g id="a_edge21_Node000001_Node000022"><a xlink:title=" ">
<path fill="none" stroke="#63b8ff" d="M2776.9,-67.53C2829.74,-55.74 2901.4,-39.77 2949.88,-28.96"/>
<polygon fill="#63b8ff" stroke="#63b8ff" points="2950.6,-32.38 2959.6,-26.79 2949.07,-25.55 2950.6,-32.38"/>
</a>
</g>
</g>
<!-- Node23 -->
<g id="Node000023" class="node">
<title>Node23</title>
<g id="a_Node000023"><a xlink:title=" ">
<polygon fill="#e0e0e0" stroke="#999999" points="3224.25,-26 3104.75,-26 3104.75,-6 3224.25,-6 3224.25,-26"/>
<text xml:space="preserve" text-anchor="middle" x="3164.5" y="-12.5" font-family="Helvetica,sans-Serif" font-size="10.00">javafx.scene.SubScene</text>
</a>
</g>
</g>
<!-- Node1&#45;&gt;Node23 -->
<g id="edge22_Node000001_Node000023" class="edge">
<title>Node1&#45;&gt;Node23</title>
<g id="a_edge22_Node000001_Node000023"><a xlink:title=" ">
<path fill="none" stroke="#63b8ff" d="M2780,-75.3C2858.15,-66.57 2986.06,-51.05 3095.5,-32 3101.09,-31.03 3106.92,-29.91 3112.72,-28.74"/>
<polygon fill="#63b8ff" stroke="#63b8ff" points="3113.19,-32.22 3122.26,-26.76 3111.76,-25.37 3113.19,-32.22"/>
</a>
</g>
</g>
<!-- Node24 -->
<g id="Node000024" class="node">
<title>Node24</title>
<g id="a_Node000024"><a xlink:title=" ">
<polygon fill="#e0e0e0" stroke="#999999" points="3377.12,-26 3241.88,-26 3241.88,-6 3377.12,-6 3377.12,-26"/>
<text xml:space="preserve" text-anchor="middle" x="3309.5" y="-12.5" font-family="Helvetica,sans-Serif" font-size="10.00">javafx.scene.control.Button</text>
</a>
</g>
</g>
<!-- Node1&#45;&gt;Node24 -->
<g id="edge23_Node000001_Node000024" class="edge">
<title>Node1&#45;&gt;Node24</title>
<g id="a_edge23_Node000001_Node000024"><a xlink:title=" ">
<path fill="none" stroke="#63b8ff" d="M2780.09,-78.23C2881.81,-71.02 3072.37,-55.65 3233.5,-32 3240.23,-31.01 3247.27,-29.83 3254.23,-28.57"/>
<polygon fill="#63b8ff" stroke="#63b8ff" points="3254.75,-32.03 3263.93,-26.74 3253.46,-25.15 3254.75,-32.03"/>
</a>
</g>
</g>
<!-- Node25 -->
<g id="Node000025" class="node">
<title>Node25</title>
<g id="a_Node000025"><a xlink:title=" ">
<polygon fill="#e0e0e0" stroke="#999999" points="3525.5,-26 3395.5,-26 3395.5,-6 3525.5,-6 3525.5,-26"/>
<text xml:space="preserve" text-anchor="middle" x="3460.5" y="-12.5" font-family="Helvetica,sans-Serif" font-size="10.00">javafx.scene.control.Label</text>
</a>
</g>
</g>
<!-- Node1&#45;&gt;Node25 -->
<g id="edge24_Node000001_Node000025" class="edge">
<title>Node1&#45;&gt;Node25</title>
<g id="a_edge24_Node000001_Node000025"><a xlink:title=" ">
<path fill="none" stroke="#63b8ff" d="M2779.67,-80.54C2904.06,-75.65 3166.65,-62.42 3386.5,-32 3393.24,-31.07 3400.28,-29.9 3407.23,-28.62"/>
<polygon fill="#63b8ff" stroke="#63b8ff" points="3407.74,-32.09 3416.91,-26.77 3406.43,-25.22 3407.74,-32.09"/>
</a>
</g>
</g>
<!-- Node26 -->
<g id="Node000026" class="node">
<title>Node26</title>
<g id="a_Node000026"><a xlink:title=" ">
<polygon fill="#e0e0e0" stroke="#999999" points="3673.88,-26 3543.12,-26 3543.12,-6 3673.88,-6 3673.88,-26"/>
<text xml:space="preserve" text-anchor="middle" x="3608.5" y="-12.5" font-family="Helvetica,sans-Serif" font-size="10.00">javafx.scene.image.Image</text>
</a>
</g>
</g>
<!-- Node1&#45;&gt;Node26 -->
<g id="edge25_Node000001_Node000026" class="edge">
<title>Node1&#45;&gt;Node26</title>
<g id="a_edge25_Node000001_Node000026"><a xlink:title=" ">
<path fill="none" stroke="#63b8ff" d="M2780,-81.9C2924.27,-78.96 3257.28,-68.47 3534.5,-32 3541.49,-31.08 3548.82,-29.88 3556.02,-28.57"/>
<polygon fill="#63b8ff" stroke="#63b8ff" points="3556.54,-32.03 3565.7,-26.71 3555.22,-25.16 3556.54,-32.03"/>
</a>
</g>
</g>
<!-- Node27 -->
<g id="Node000027" class="node">
<title>Node27</title>
<g id="a_Node000027"><a xlink:title=" ">
<polygon fill="#e0e0e0" stroke="#999999" points="3844.75,-26 3692.25,-26 3692.25,-6 3844.75,-6 3844.75,-26"/>
<text xml:space="preserve" text-anchor="middle" x="3768.5" y="-12.5" font-family="Helvetica,sans-Serif" font-size="10.00">javafx.scene.image.ImageView</text>
</a>
</g>
</g>
<!-- Node1&#45;&gt;Node27 -->
<g id="edge26_Node000001_Node000027" class="edge">
<title>Node1&#45;&gt;Node27</title>
<g id="a_edge26_Node000001_Node000027"><a xlink:title=" ">
<path fill="none" stroke="#63b8ff" d="M2779.91,-82.19C2942.06,-79.73 3346.48,-69.95 3682.5,-32 3691.18,-31.02 3700.32,-29.72 3709.26,-28.29"/>
<polygon fill="#63b8ff" stroke="#63b8ff" points="3709.65,-31.78 3718.94,-26.68 3708.5,-24.87 3709.65,-31.78"/>
</a>
</g>
</g>
<!-- Node28 -->
<g id="Node000028" class="node">
<title>Node28</title>
<g id="a_Node000028"><a xlink:title=" ">
<polygon fill="#e0e0e0" stroke="#999999" points="3988.25,-32 3862.75,-32 3862.75,0 3988.25,0 3988.25,-32"/>
<text xml:space="preserve" text-anchor="start" x="3870.75" y="-18.5" font-family="Helvetica,sans-Serif" font-size="10.00">javafx.scene.image.Pixel</text>
<text xml:space="preserve" text-anchor="middle" x="3925.5" y="-6.5" font-family="Helvetica,sans-Serif" font-size="10.00">Reader</text>
</a>
</g>
</g>
<!-- Node1&#45;&gt;Node28 -->
<g id="edge27_Node000001_Node000028" class="edge">
<title>Node1&#45;&gt;Node28</title>
<g id="a_edge27_Node000001_Node000028"><a xlink:title=" ">
<path fill="none" stroke="#63b8ff" d="M2780.02,-81.3C2994.26,-76.04 3623.06,-58.84 3851.17,-32.11"/>
<polygon fill="#63b8ff" stroke="#63b8ff" points="3851.37,-35.61 3860.88,-30.93 3850.53,-28.66 3851.37,-35.61"/>
</a>
</g>
</g>
<!-- Node29 -->
<g id="Node000029" class="node">
<title>Node29</title>
<g id="a_Node000029"><a xlink:title=" ">
<polygon fill="#e0e0e0" stroke="#999999" points="4132.25,-32 4006.75,-32 4006.75,0 4132.25,0 4132.25,-32"/>
<text xml:space="preserve" text-anchor="start" x="4014.75" y="-18.5" font-family="Helvetica,sans-Serif" font-size="10.00">javafx.scene.image.Pixel</text>
<text xml:space="preserve" text-anchor="middle" x="4069.5" y="-6.5" font-family="Helvetica,sans-Serif" font-size="10.00">Writer</text>
</a>
</g>
</g>
<!-- Node1&#45;&gt;Node29 -->
<g id="edge28_Node000001_Node000029" class="edge">
<title>Node1&#45;&gt;Node29</title>
<g id="a_edge28_Node000001_Node000029"><a xlink:title=" ">
<path fill="none" stroke="#63b8ff" d="M2779.81,-81.72C3011.91,-77.37 3737.38,-61.81 3995.2,-32.1"/>
<polygon fill="#63b8ff" stroke="#63b8ff" points="3995.36,-35.61 4004.88,-30.95 3994.54,-28.66 3995.36,-35.61"/>
</a>
</g>
</g>
<!-- Node30 -->
<g id="Node000030" class="node">
<title>Node30</title>
<g id="a_Node000030"><a xlink:title=" ">
<polygon fill="#e0e0e0" stroke="#999999" points="4289,-32 4150,-32 4150,0 4289,0 4289,-32"/>
<text xml:space="preserve" text-anchor="start" x="4158" y="-18.5" font-family="Helvetica,sans-Serif" font-size="10.00">javafx.scene.image.Writable</text>
<text xml:space="preserve" text-anchor="middle" x="4219.5" y="-6.5" font-family="Helvetica,sans-Serif" font-size="10.00">Image</text>
</a>
</g>
</g>
<!-- Node1&#45;&gt;Node30 -->
<g id="edge29_Node000001_Node000030" class="edge">
<title>Node1&#45;&gt;Node30</title>
<g id="a_edge29_Node000001_Node000030"><a xlink:title=" ">
<path fill="none" stroke="#63b8ff" d="M2779.81,-81.91C3028.9,-77.91 3851.31,-62.77 4138.62,-32.18"/>
<polygon fill="#63b8ff" stroke="#63b8ff" points="4138.78,-35.69 4148.34,-31.11 4138.01,-28.73 4138.78,-35.69"/>
</a>
</g>
</g>
<!-- Node31 -->
<g id="Node000031" class="node">
<title>Node31</title>
<g id="a_Node000031"><a xlink:title=" ">
<polygon fill="#e0e0e0" stroke="#999999" points="4464,-26 4307,-26 4307,-6 4464,-6 4464,-26"/>
<text xml:space="preserve" text-anchor="middle" x="4385.5" y="-12.5" font-family="Helvetica,sans-Serif" font-size="10.00">javafx.scene.layout.AnchorPane</text>
</a>
</g>
</g>
<!-- Node1&#45;&gt;Node31 -->
<g id="edge30_Node000001_Node000031" class="edge">
<title>Node1&#45;&gt;Node31</title>
<g id="a_edge30_Node000001_Node000031"><a xlink:title=" ">
<path fill="none" stroke="#63b8ff" d="M2780.12,-82.01C3050.39,-78.12 3997.96,-62.58 4298.5,-32 4307.61,-31.07 4317.2,-29.76 4326.55,-28.3"/>
<polygon fill="#63b8ff" stroke="#63b8ff" points="4327.01,-31.77 4336.31,-26.7 4325.87,-24.86 4327.01,-31.77"/>
</a>
</g>
</g>
<!-- Node32 -->
<g id="Node000032" class="node">
<title>Node32</title>
<g id="a_Node000032"><a xlink:title=" ">
<polygon fill="#e0e0e0" stroke="#999999" points="4637.25,-26 4481.75,-26 4481.75,-6 4637.25,-6 4637.25,-26"/>
<text xml:space="preserve" text-anchor="middle" x="4559.5" y="-12.5" font-family="Helvetica,sans-Serif" font-size="10.00">javafx.scene.layout.Background</text>
</a>
</g>
</g>
<!-- Node1&#45;&gt;Node32 -->
<g id="edge31_Node000001_Node000032" class="edge">
<title>Node1&#45;&gt;Node32</title>
<g id="a_edge31_Node000001_Node000032"><a xlink:title=" ">
<path fill="none" stroke="#63b8ff" d="M2780.06,-82.3C3068.81,-79.29 4136.86,-66.04 4473.5,-32 4482.51,-31.09 4491.99,-29.79 4501.24,-28.33"/>
<polygon fill="#63b8ff" stroke="#63b8ff" points="4501.57,-31.82 4510.86,-26.73 4500.42,-24.91 4501.57,-31.82"/>
</a>
</g>
</g>
<!-- Node33 -->
<g id="Node000033" class="node">
<title>Node33</title>
<g id="a_Node000033"><a xlink:title=" ">
<polygon fill="#e0e0e0" stroke="#999999" points="4823.62,-26 4655.38,-26 4655.38,-6 4823.62,-6 4823.62,-26"/>
<text xml:space="preserve" text-anchor="middle" x="4739.5" y="-12.5" font-family="Helvetica,sans-Serif" font-size="10.00">javafx.scene.layout.BackgroundFill</text>
</a>
</g>
</g>
<!-- Node1&#45;&gt;Node33 -->
<g id="edge32_Node000001_Node000033" class="edge">
<title>Node1&#45;&gt;Node33</title>
<g id="a_edge32_Node000001_Node000033"><a xlink:title=" ">
<path fill="none" stroke="#63b8ff" d="M2780.03,-82.39C3086.15,-79.62 4273.8,-66.8 4646.5,-32 4656.44,-31.07 4666.92,-29.73 4677.13,-28.23"/>
<polygon fill="#63b8ff" stroke="#63b8ff" points="4677.64,-31.7 4687,-26.72 4676.58,-24.78 4677.64,-31.7"/>
</a>
</g>
</g>
<!-- Node34 -->
<g id="Node000034" class="node">
<title>Node34</title>
<g id="a_Node000034"><a xlink:title=" ">
<polygon fill="#e0e0e0" stroke="#999999" points="4963.38,-26 4841.62,-26 4841.62,-6 4963.38,-6 4963.38,-26"/>
<text xml:space="preserve" text-anchor="middle" x="4902.5" y="-12.5" font-family="Helvetica,sans-Serif" font-size="10.00">javafx.scene.paint.Color</text>
</a>
</g>
</g>
<!-- Node1&#45;&gt;Node34 -->
<g id="edge33_Node000001_Node000034" class="edge">
<title>Node1&#45;&gt;Node34</title>
<g id="a_edge33_Node000001_Node000034"><a xlink:title=" ">
<path fill="none" stroke="#63b8ff" d="M2780.11,-83.08C3104.4,-83.16 4422.27,-80.44 4832.5,-32 4839.3,-31.2 4846.42,-30.04 4853.4,-28.73"/>
<polygon fill="#63b8ff" stroke="#63b8ff" points="4853.98,-32.18 4863.09,-26.78 4852.59,-25.32 4853.98,-32.18"/>
</a>
</g>
</g>
<!-- Node35 -->
<g id="Node000035" class="node">
<title>Node35</title>
<g id="a_Node000035"><a xlink:title=" ">
<polygon fill="#e0e0e0" stroke="#999999" points="5103.38,-26 4981.62,-26 4981.62,-6 5103.38,-6 5103.38,-26"/>
<text xml:space="preserve" text-anchor="middle" x="5042.5" y="-12.5" font-family="Helvetica,sans-Serif" font-size="10.00">javafx.scene.shape.Line</text>
</a>
</g>
</g>
<!-- Node1&#45;&gt;Node35 -->
<g id="edge34_Node000001_Node000035" class="edge">
<title>Node1&#45;&gt;Node35</title>
<g id="a_edge34_Node000001_Node000035"><a xlink:title=" ">
<path fill="none" stroke="#63b8ff" d="M2780.04,-83.21C3117.19,-83.89 4533.14,-83.55 4972.5,-32 4979.3,-31.2 4986.42,-30.05 4993.41,-28.74"/>
<polygon fill="#63b8ff" stroke="#63b8ff" points="4993.98,-32.19 5003.09,-26.79 4992.59,-25.33 4993.98,-32.19"/>
</a>
</g>
</g>
<!-- Node36 -->
<g id="Node000036" class="node">
<title>Node36</title>
<g id="a_Node000036"><a xlink:title=" ">
<polygon fill="#e0e0e0" stroke="#999999" points="5269.5,-26 5121.5,-26 5121.5,-6 5269.5,-6 5269.5,-26"/>
<text xml:space="preserve" text-anchor="middle" x="5195.5" y="-12.5" font-family="Helvetica,sans-Serif" font-size="10.00">javafx.scene.shape.Rectangle</text>
</a>
</g>
</g>
<!-- Node1&#45;&gt;Node36 -->
<g id="edge35_Node000001_Node000036" class="edge">
<title>Node1&#45;&gt;Node36</title>
<g id="a_edge35_Node000001_Node000036"><a xlink:title=" ">
<path fill="none" stroke="#63b8ff" d="M2780.08,-83C3129.77,-82.79 4643.2,-79.09 5112.5,-32 5121.21,-31.13 5130.37,-29.84 5139.31,-28.39"/>
<polygon fill="#63b8ff" stroke="#63b8ff" points="5139.7,-31.87 5148.96,-26.73 5138.51,-24.97 5139.7,-31.87"/>
</a>
</g>
</g>
<!-- Node37 -->
<g id="Node000037" class="node">
<title>Node37</title>
<g id="a_Node000037"><a xlink:title=" ">
<polygon fill="#e0e0e0" stroke="#999999" points="5435.5,-26 5287.5,-26 5287.5,-6 5435.5,-6 5435.5,-26"/>
<text xml:space="preserve" text-anchor="middle" x="5361.5" y="-12.5" font-family="Helvetica,sans-Serif" font-size="10.00">javafx.scene.transform.Rotate</text>
</a>
</g>
</g>
<!-- Node1&#45;&gt;Node37 -->
<g id="edge36_Node000001_Node000037" class="edge">
<title>Node1&#45;&gt;Node37</title>
<g id="a_edge36_Node000001_Node000037"><a xlink:title=" ">
<path fill="none" stroke="#63b8ff" d="M2779.89,-83.12C3143.66,-83.48 4774.42,-82.23 5278.5,-32 5287.21,-31.13 5296.37,-29.85 5305.31,-28.4"/>
<polygon fill="#63b8ff" stroke="#63b8ff" points="5305.7,-31.88 5314.96,-26.74 5304.51,-24.99 5305.7,-31.88"/>
</a>
</g>
</g>
<!-- Node38 -->
<g id="Node000038" class="node">
<title>Node38</title>
<g id="a_Node000038"><a xlink:title=" ">
<polygon fill="#e0e0e0" stroke="#999999" points="5551.38,-26 5453.62,-26 5453.62,-6 5551.38,-6 5551.38,-26"/>
<text xml:space="preserve" text-anchor="middle" x="5502.5" y="-12.5" font-family="Helvetica,sans-Serif" font-size="10.00">javafx.util.Duration</text>
</a>
</g>
</g>
<!-- Node1&#45;&gt;Node38 -->
<g id="edge37_Node000001_Node000038" class="edge">
<title>Node1&#45;&gt;Node38</title>
<g id="a_edge37_Node000001_Node000038"><a xlink:title=" ">
<path fill="none" stroke="#63b8ff" d="M2780.06,-82.66C3186.72,-80.65 5174.19,-68.95 5444.5,-32 5449.76,-31.28 5455.23,-30.25 5460.62,-29.06"/>
<polygon fill="#63b8ff" stroke="#63b8ff" points="5461.09,-32.55 5469.99,-26.81 5459.45,-25.75 5461.09,-32.55"/>
</a>
</g>
</g>
</g>
</svg>
