<?xml version="1.0" encoding="UTF-8" standalone="no"?>
<!DOCTYPE svg PUBLIC "-//W3C//DTD SVG 1.1//EN"
 "http://www.w3.org/Graphics/SVG/1.1/DTD/svg11.dtd">
<!-- Generated by graphviz version 13.1.2 (20250808.2320)
 -->
<!-- Title: src/editeurpanovisu/OllamaService.java Pages: 1 -->
<!--zoomable 108 -->

<svg id="main" version="1.1" xmlns="http://www.w3.org/2000/svg" xmlns:xlink="http://www.w3.org/1999/xlink" xml:space="preserve" onload="init(evt)">

<style type="text/css"><![CDATA[
.node, .edge {opacity: 0.7;}
.node.selected, .edge.selected {opacity: 1;}
.edge:hover path { stroke: red; }
.edge:hover polygon { stroke: red; fill: red; }
]]></style>

<defs>
  <circle id="rim" cx="0" cy="0" r="7"/>
  <circle id="rim2" cx="0" cy="0" r="3.5"/>
  <g id="zoomPlus">
    <use xlink:href="#rim" fill="#404040"><set attributeName="fill" to="#808080" begin="zoomplus.mouseover" end="zoomplus.mouseout"/></use>
    <path d="M-4,0h8M0,-4v8" fill="none" stroke="white" stroke-width="1.5" pointer-events="none"/>
  </g>
  <g id="zoomMin">
    <use xlink:href="#rim" fill="#404040"><set attributeName="fill" to="#808080" begin="zoomminus.mouseover" end="zoomminus.mouseout"/></use>
    <path d="M-4,0h8" fill="none" stroke="white" stroke-width="1.5" pointer-events="none"/>
  </g>
  <g id="arrowUp" transform="translate(30 24)">
    <use xlink:href="#rim"/>
    <path pointer-events="none" fill="none" stroke="white" stroke-width="1.5" d="M0,-3.0v7 M-2.5,-0.5L0,-3.0L2.5,-0.5"/>
  </g>
  <g id="arrowRight" transform="rotate(90) translate(36 -43)">
    <use xlink:href="#rim"/>
    <path pointer-events="none" fill="none" stroke="white" stroke-width="1.5" d="M0,-3.0v7 M-2.5,-0.5L0,-3.0L2.5,-0.5"/>
  </g>
  <g id="arrowDown" transform="rotate(180) translate(-30 -48)">
    <use xlink:href="#rim"/>
    <path pointer-events="none" fill="none" stroke="white" stroke-width="1.5" d="M0,-3.0v7 M-2.5,-0.5L0,-3.0L2.5,-0.5"/>
  </g>
  <g id="arrowLeft" transform="rotate(270) translate(-36 17)">
    <use xlink:href="#rim"/>
    <path pointer-events="none" fill="none" stroke="white" stroke-width="1.5" d="M0,-3.0v7 M-2.5,-0.5L0,-3.0L2.5,-0.5"/>
  </g>
  <g id="resetDef">
    <use xlink:href="#rim2" fill="#404040"><set attributeName="fill" to="#808080" begin="reset.mouseover" end="reset.mouseout"/></use>
  </g>
</defs>
<script type="application/ecmascript">
var viewWidth = 1447;
var viewHeight = 108;
var sectionId = 'dynsection-0';
</script>
<script type="application/ecmascript" xlink:href="svg.min.js"/>
<svg id="graph" class="graph">
<g id="viewport">
<title>src/editeurpanovisu/OllamaService.java</title>
<!-- Node1 -->
<g id="Node000001" class="node">
<title>Node1</title>
<g id="a_Node000001"><a xlink:title=" ">
<polygon fill="#999999" stroke="#666666" points="792.38,-100 688.62,-100 688.62,-68 792.38,-68 792.38,-100"/>
<text xml:space="preserve" text-anchor="start" x="696.62" y="-86.5" font-family="Helvetica,sans-Serif" font-size="10.00">src/editeurpanovisu</text>
<text xml:space="preserve" text-anchor="middle" x="740.5" y="-74.5" font-family="Helvetica,sans-Serif" font-size="10.00">/OllamaService.java</text>
</a>
</g>
</g>
<!-- Node2 -->
<g id="Node000002" class="node">
<title>Node2</title>
<g id="a_Node000002"><a xlink:title=" ">
<polygon fill="#e0e0e0" stroke="#999999" points="115,-26 0,-26 0,-6 115,-6 115,-26"/>
<text xml:space="preserve" text-anchor="middle" x="57.5" y="-12.5" font-family="Helvetica,sans-Serif" font-size="10.00">java.io.BufferedReader</text>
</a>
</g>
</g>
<!-- Node1&#45;&gt;Node2 -->
<g id="edge1_Node000001_Node000002" class="edge">
<title>Node1&#45;&gt;Node2</title>
<g id="a_edge1_Node000001_Node000002"><a xlink:title=" ">
<path fill="none" stroke="#63b8ff" d="M688.3,-81.1C581.77,-76.7 331.89,-63.65 124.5,-32 118.76,-31.12 112.77,-30.04 106.84,-28.85"/>
<polygon fill="#63b8ff" stroke="#63b8ff" points="107.58,-25.43 97.07,-26.79 106.14,-32.28 107.58,-25.43"/>
</a>
</g>
</g>
<!-- Node3 -->
<g id="Node000003" class="node">
<title>Node3</title>
<g id="a_Node000003"><a xlink:title=" ">
<polygon fill="#e0e0e0" stroke="#999999" points="249.75,-26 133.25,-26 133.25,-6 249.75,-6 249.75,-26"/>
<text xml:space="preserve" text-anchor="middle" x="191.5" y="-12.5" font-family="Helvetica,sans-Serif" font-size="10.00">java.io.FileInputStream</text>
</a>
</g>
</g>
<!-- Node1&#45;&gt;Node3 -->
<g id="edge2_Node000001_Node000003" class="edge">
<title>Node1&#45;&gt;Node3</title>
<g id="a_edge2_Node000001_Node000003"><a xlink:title=" ">
<path fill="none" stroke="#63b8ff" d="M688.17,-79.44C599.39,-72.96 413.77,-57.51 258.5,-32 252.91,-31.08 247.08,-29.99 241.31,-28.81"/>
<polygon fill="#63b8ff" stroke="#63b8ff" points="242.31,-25.45 231.8,-26.8 240.86,-32.3 242.31,-25.45"/>
</a>
</g>
</g>
<!-- Node4 -->
<g id="Node000004" class="node">
<title>Node4</title>
<g id="a_Node000004"><a xlink:title=" ">
<polygon fill="#e0e0e0" stroke="#999999" points="399.62,-26 267.38,-26 267.38,-6 399.62,-6 399.62,-26"/>
<text xml:space="preserve" text-anchor="middle" x="333.5" y="-12.5" font-family="Helvetica,sans-Serif" font-size="10.00">java.io.InputStreamReader</text>
</a>
</g>
</g>
<!-- Node1&#45;&gt;Node4 -->
<g id="edge3_Node000001_Node000004" class="edge">
<title>Node1&#45;&gt;Node4</title>
<g id="a_edge3_Node000001_Node000004"><a xlink:title=" ">
<path fill="none" stroke="#63b8ff" d="M688.34,-75.73C622.85,-66.43 507.13,-49.43 408.5,-32 402.53,-30.95 396.31,-29.79 390.12,-28.6"/>
<polygon fill="#63b8ff" stroke="#63b8ff" points="391.02,-25.21 380.53,-26.74 389.68,-32.09 391.02,-25.21"/>
</a>
</g>
</g>
<!-- Node5 -->
<g id="Node000005" class="node">
<title>Node5</title>
<g id="a_Node000005"><a xlink:title=" ">
<polygon fill="#e0e0e0" stroke="#999999" points="525.62,-26 417.38,-26 417.38,-6 525.62,-6 525.62,-26"/>
<text xml:space="preserve" text-anchor="middle" x="471.5" y="-12.5" font-family="Helvetica,sans-Serif" font-size="10.00">java.io.OutputStream</text>
</a>
</g>
</g>
<!-- Node1&#45;&gt;Node5 -->
<g id="edge4_Node000001_Node000005" class="edge">
<title>Node1&#45;&gt;Node5</title>
<g id="a_edge4_Node000001_Node000005"><a xlink:title=" ">
<path fill="none" stroke="#63b8ff" d="M688.32,-70.2C639.94,-58.33 568.48,-40.79 520.99,-29.14"/>
<polygon fill="#63b8ff" stroke="#63b8ff" points="522.07,-25.8 511.52,-26.82 520.4,-32.6 522.07,-25.8"/>
</a>
</g>
</g>
<!-- Node6 -->
<g id="Node000006" class="node">
<title>Node6</title>
<g id="a_Node000006"><a xlink:title=" ">
<polygon fill="#e0e0e0" stroke="#999999" points="685.5,-26 543.5,-26 543.5,-6 685.5,-6 685.5,-26"/>
<text xml:space="preserve" text-anchor="middle" x="614.5" y="-12.5" font-family="Helvetica,sans-Serif" font-size="10.00">java.net.HttpURLConnection</text>
</a>
</g>
</g>
<!-- Node1&#45;&gt;Node6 -->
<g id="edge5_Node000001_Node000006" class="edge">
<title>Node1&#45;&gt;Node6</title>
<g id="a_edge5_Node000001_Node000006"><a xlink:title=" ">
<path fill="none" stroke="#63b8ff" d="M710.96,-67.53C690.37,-56.74 663.05,-42.43 642.75,-31.8"/>
<polygon fill="#63b8ff" stroke="#63b8ff" points="644.38,-28.7 633.9,-27.16 641.14,-34.9 644.38,-28.7"/>
</a>
</g>
</g>
<!-- Node7 -->
<g id="Node000007" class="node">
<title>Node7</title>
<g id="a_Node000007"><a xlink:title=" ">
<polygon fill="#e0e0e0" stroke="#999999" points="777.38,-26 703.62,-26 703.62,-6 777.38,-6 777.38,-26"/>
<text xml:space="preserve" text-anchor="middle" x="740.5" y="-12.5" font-family="Helvetica,sans-Serif" font-size="10.00">java.net.URL</text>
</a>
</g>
</g>
<!-- Node1&#45;&gt;Node7 -->
<g id="edge6_Node000001_Node000007" class="edge">
<title>Node1&#45;&gt;Node7</title>
<g id="a_edge6_Node000001_Node000007"><a xlink:title=" ">
<path fill="none" stroke="#63b8ff" d="M740.5,-67.69C740.5,-58.8 740.5,-47.46 740.5,-37.77"/>
<polygon fill="#63b8ff" stroke="#63b8ff" points="744,-37.83 740.5,-27.83 737,-37.83 744,-37.83"/>
</a>
</g>
</g>
<!-- Node8 -->
<g id="Node000008" class="node">
<title>Node8</title>
<g id="a_Node000008"><a xlink:title=" ">
<polygon fill="#e0e0e0" stroke="#999999" points="905.38,-26 795.62,-26 795.62,-6 905.38,-6 905.38,-26"/>
<text xml:space="preserve" text-anchor="middle" x="850.5" y="-12.5" font-family="Helvetica,sans-Serif" font-size="10.00">java.net.URLEncoder</text>
</a>
</g>
</g>
<!-- Node1&#45;&gt;Node8 -->
<g id="edge7_Node000001_Node000008" class="edge">
<title>Node1&#45;&gt;Node8</title>
<g id="a_edge7_Node000001_Node000008"><a xlink:title=" ">
<path fill="none" stroke="#63b8ff" d="M766.29,-67.53C784.02,-56.89 807.45,-42.83 825.1,-32.24"/>
<polygon fill="#63b8ff" stroke="#63b8ff" points="826.66,-35.38 833.44,-27.24 823.06,-29.38 826.66,-35.38"/>
</a>
</g>
</g>
<!-- Node9 -->
<g id="Node000009" class="node">
<title>Node9</title>
<g id="a_Node000009"><a xlink:title=" ">
<polygon fill="#e0e0e0" stroke="#999999" points="1050,-32 923,-32 923,0 1050,0 1050,-32"/>
<text xml:space="preserve" text-anchor="start" x="931" y="-18.5" font-family="Helvetica,sans-Serif" font-size="10.00">java.nio.charset.Standard</text>
<text xml:space="preserve" text-anchor="middle" x="986.5" y="-6.5" font-family="Helvetica,sans-Serif" font-size="10.00">Charsets</text>
</a>
</g>
</g>
<!-- Node1&#45;&gt;Node9 -->
<g id="edge8_Node000001_Node000009" class="edge">
<title>Node1&#45;&gt;Node9</title>
<g id="a_edge8_Node000001_Node000009"><a xlink:title=" ">
<path fill="none" stroke="#63b8ff" d="M792.67,-69C829.15,-59.21 878.25,-46.04 917.9,-35.41"/>
<polygon fill="#63b8ff" stroke="#63b8ff" points="918.6,-38.84 927.35,-32.87 916.79,-32.08 918.6,-38.84"/>
</a>
</g>
</g>
<!-- Node10 -->
<g id="Node000010" class="node">
<title>Node10</title>
<g id="a_Node000010"><a xlink:title=" ">
<polygon fill="#e0e0e0" stroke="#999999" points="1149.12,-26 1067.88,-26 1067.88,-6 1149.12,-6 1149.12,-26"/>
<text xml:space="preserve" text-anchor="middle" x="1108.5" y="-12.5" font-family="Helvetica,sans-Serif" font-size="10.00">java.util.Locale</text>
</a>
</g>
</g>
<!-- Node1&#45;&gt;Node10 -->
<g id="edge9_Node000001_Node000010" class="edge">
<title>Node1&#45;&gt;Node10</title>
<g id="a_edge9_Node000001_Node000010"><a xlink:title=" ">
<path fill="none" stroke="#63b8ff" d="M792.87,-76.89C856.42,-68.96 966.62,-53.53 1059.5,-32 1062.63,-31.27 1065.85,-30.46 1069.07,-29.58"/>
<polygon fill="#63b8ff" stroke="#63b8ff" points="1069.82,-33.01 1078.47,-26.89 1067.89,-26.28 1069.82,-33.01"/>
</a>
</g>
</g>
<!-- Node11 -->
<g id="Node000011" class="node">
<title>Node11</title>
<g id="a_Node000011"><a xlink:title=" ">
<polygon fill="#e0e0e0" stroke="#999999" points="1264,-26 1167,-26 1167,-6 1264,-6 1264,-26"/>
<text xml:space="preserve" text-anchor="middle" x="1215.5" y="-12.5" font-family="Helvetica,sans-Serif" font-size="10.00">java.util.Properties</text>
</a>
</g>
</g>
<!-- Node1&#45;&gt;Node11 -->
<g id="edge10_Node000001_Node000011" class="edge">
<title>Node1&#45;&gt;Node11</title>
<g id="a_edge10_Node000001_Node000011"><a xlink:title=" ">
<path fill="none" stroke="#63b8ff" d="M792.66,-78.93C872.11,-72.21 1028,-57.01 1158.5,-32 1162.79,-31.18 1167.23,-30.21 1171.65,-29.18"/>
<polygon fill="#63b8ff" stroke="#63b8ff" points="1172.18,-32.65 1181.05,-26.86 1170.5,-25.86 1172.18,-32.65"/>
</a>
</g>
</g>
<!-- Node12 -->
<g id="Node000012" class="node">
<title>Node12</title>
<g id="a_Node000012"><a xlink:title=" ">
<polygon fill="#e0e0e0" stroke="#999999" points="1438.62,-32 1282.38,-32 1282.38,0 1438.62,0 1438.62,-32"/>
<text xml:space="preserve" text-anchor="start" x="1290.38" y="-18.5" font-family="Helvetica,sans-Serif" font-size="10.00">java.util.concurrent.Completable</text>
<text xml:space="preserve" text-anchor="middle" x="1360.5" y="-6.5" font-family="Helvetica,sans-Serif" font-size="10.00">Future</text>
</a>
</g>
</g>
<!-- Node1&#45;&gt;Node12 -->
<g id="edge11_Node000001_Node000012" class="edge">
<title>Node1&#45;&gt;Node12</title>
<g id="a_edge11_Node000001_Node000012"><a xlink:title=" ">
<path fill="none" stroke="#63b8ff" d="M792.85,-79.31C886.58,-72.41 1089.44,-56.18 1270.92,-32.28"/>
<polygon fill="#63b8ff" stroke="#63b8ff" points="1271.34,-35.76 1280.79,-30.97 1270.41,-28.82 1271.34,-35.76"/>
</a>
</g>
</g>
</g>
</svg>

<g id="navigator" transform="translate(0 0)" fill="#404254">
  <rect fill="#f2f5e9" fill-opacity="0.5" stroke="#606060" stroke-width=".5" x="0" y="0" width="60" height="60"/>
  <use id="zoomplus" xlink:href="#zoomPlus" x="17" y="9" onmousedown="handleZoom(evt,'in')"/>
  <use id="zoomminus" xlink:href="#zoomMin" x="42" y="9" onmousedown="handleZoom(evt,'out')"/>
  <use id="reset" xlink:href="#resetDef" x="30" y="36" onmousedown="handleReset()"/>
   <use id="arrowup" xlink:href="#arrowUp" x="0" y="0" onmousedown="handlePan(0,-1)"/>
  <use id="arrowright" xlink:href="#arrowRight" x="0" y="0" onmousedown="handlePan(1,0)"/>
  <use id="arrowdown" xlink:href="#arrowDown" x="0" y="0" onmousedown="handlePan(0,1)"/>
  <use id="arrowleft" xlink:href="#arrowLeft" x="0" y="0" onmousedown="handlePan(-1,0)"/>
</g>
<svg viewBox="0 0 15 15" width="100%" height="30px" preserveAspectRatio="xMaxYMin meet">
 <g id="arrow_out" transform="scale(0.3 0.3)">
  <a xlink:href="OllamaService_8java__incl_org.svg" target="_base">
   <rect id="button" ry="5" rx="5" y="6" x="6" height="38" width="38"
        fill="#f2f5e9" fill-opacity="0.5" stroke="#606060" stroke-width="1.0"/>
   <path id="arrow"
     d="M 11.500037,31.436501 C 11.940474,20.09759 22.043105,11.32322 32.158766,21.979434 L 37.068811,17.246167 C 37.068811,17.246167 37.088388,32 37.088388,32 L 22.160133,31.978069 C 22.160133,31.978069 26.997745,27.140456 26.997745,27.140456 C 18.528582,18.264221 13.291696,25.230495 11.500037,31.436501 z"
     style="fill:#404040;"/>
  </a>
 </g>
</svg>

<style type='text/css'>
<![CDATA[
[data-mouse-over-selected='false'] { opacity: 0.7; }
[data-mouse-over-selected='true']  { opacity: 1.0; }
]]>
</style>
<script type="application/ecmascript"><![CDATA[
document.addEventListener('DOMContentLoaded', (event) => {
  highlightEdges();
  highlightAdjacentNodes();
});
]]></script>
</svg>
