<?xml version="1.0" encoding="UTF-8" standalone="no"?>
<!DOCTYPE svg PUBLIC "-//W3C//DTD SVG 1.1//EN"
 "http://www.w3.org/Graphics/SVG/1.1/DTD/svg11.dtd">
<!-- Generated by graphviz version 13.1.2 (20250808.2320)
 -->
<!-- Title: unpackIEEE754 Pages: 1 -->
<svg width="195pt" height="66pt"
 viewBox="0.00 0.00 195.00 66.00" xmlns="http://www.w3.org/2000/svg" xmlns:xlink="http://www.w3.org/1999/xlink">
<g id="graph0" class="graph" transform="scale(1 1) rotate(0) translate(4 62)">
<title>unpackIEEE754</title>
<!-- Node1 -->
<g id="Node000001" class="node">
<title>Node1</title>
<g id="a_Node000001"><a xlink:title=" ">
<polygon fill="#999999" stroke="#666666" points="186.5,-39 100,-39 100,-19 186.5,-19 186.5,-39"/>
<text xml:space="preserve" text-anchor="middle" x="143.25" y="-25.5" font-family="Helvetica,sans-Serif" font-size="10.00">unpackIEEE754</text>
</a>
</g>
</g>
<!-- Node2 -->
<g id="Node000002" class="node">
<title>Node2</title>
<g id="a_Node000002"><a xlink:href="types_8js.html#af408c3ed9bf8f87668982dfbc7ac2d6e" target="_top" xlink:title=" ">
<polygon fill="white" stroke="#666666" points="64,-58 0,-58 0,-38 64,-38 64,-58"/>
<text xml:space="preserve" text-anchor="middle" x="32" y="-44.5" font-family="Helvetica,sans-Serif" font-size="10.00">unpackF32</text>
</a>
</g>
</g>
<!-- Node1&#45;&gt;Node2 -->
<g id="edge1_Node000001_Node000002" class="edge">
<title>Node1&#45;&gt;Node2</title>
<g id="a_edge1_Node000001_Node000002"><a xlink:title=" ">
<path fill="none" stroke="#63b8ff" d="M88.53,-38.34C80.28,-39.78 71.99,-41.22 64.44,-42.53"/>
<polygon fill="#63b8ff" stroke="#63b8ff" points="88.95,-41.82 98.21,-36.66 87.76,-34.92 88.95,-41.82"/>
</a>
</g>
</g>
<!-- Node3 -->
<g id="Node000003" class="node">
<title>Node3</title>
<g id="a_Node000003"><a xlink:href="types_8js.html#a91cd5ba852455157b9a455f25ae1cfcb" target="_top" xlink:title=" ">
<polygon fill="white" stroke="#666666" points="64,-20 0,-20 0,0 64,0 64,-20"/>
<text xml:space="preserve" text-anchor="middle" x="32" y="-6.5" font-family="Helvetica,sans-Serif" font-size="10.00">unpackF64</text>
</a>
</g>
</g>
<!-- Node1&#45;&gt;Node3 -->
<g id="edge2_Node000001_Node000003" class="edge">
<title>Node1&#45;&gt;Node3</title>
<g id="a_edge2_Node000001_Node000003"><a xlink:title=" ">
<path fill="none" stroke="#63b8ff" d="M88.53,-19.66C80.28,-18.22 71.99,-16.78 64.44,-15.47"/>
<polygon fill="#63b8ff" stroke="#63b8ff" points="87.76,-23.08 98.21,-21.34 88.95,-16.18 87.76,-23.08"/>
</a>
</g>
</g>
</g>
</svg>
