<?xml version="1.0" encoding="UTF-8" standalone="no"?>
<!DOCTYPE svg PUBLIC "-//W3C//DTD SVG 1.1//EN"
 "http://www.w3.org/Graphics/SVG/1.1/DTD/svg11.dtd">
<!-- Generated by graphviz version 13.1.2 (20250808.2320)
 -->
<!-- Title: ToUint32 Pages: 1 -->
<svg width="301pt" height="160pt"
 viewBox="0.00 0.00 301.00 160.00" xmlns="http://www.w3.org/2000/svg" xmlns:xlink="http://www.w3.org/1999/xlink">
<g id="graph0" class="graph" transform="scale(1 1) rotate(0) translate(4 156)">
<title>ToUint32</title>
<!-- Node1 -->
<g id="Node000001" class="node">
<title>Node1</title>
<g id="a_Node000001"><a xlink:title=" ">
<polygon fill="#999999" stroke="#666666" points="292.5,-77 237.5,-77 237.5,-57 292.5,-57 292.5,-77"/>
<text xml:space="preserve" text-anchor="middle" x="265" y="-63.5" font-family="Helvetica,sans-Serif" font-size="10.00">ToUint32</text>
</a>
</g>
</g>
<!-- Node2 -->
<g id="Node000002" class="node">
<title>Node2</title>
<g id="a_Node000002"><a xlink:href="types_8js.html#afe675fd251e2881d35b4834778ddad03" target="_top" xlink:title=" ">
<polygon fill="white" stroke="#666666" points="201.5,-134 125.5,-134 125.5,-114 201.5,-114 201.5,-134"/>
<text xml:space="preserve" text-anchor="middle" x="163.5" y="-120.5" font-family="Helvetica,sans-Serif" font-size="10.00">$TypedArray$</text>
</a>
</g>
</g>
<!-- Node1&#45;&gt;Node2 -->
<g id="edge1_Node000001_Node000002" class="edge">
<title>Node1&#45;&gt;Node2</title>
<g id="a_edge1_Node000001_Node000002"><a xlink:title=" ">
<path fill="none" stroke="#63b8ff" d="M237.94,-83.42C226.82,-90.28 213.63,-98.21 201.5,-105 196.33,-107.89 190.68,-110.88 185.38,-113.61"/>
<polygon fill="#63b8ff" stroke="#63b8ff" points="239.55,-86.54 246.19,-78.29 235.85,-80.59 239.55,-86.54"/>
</a>
</g>
</g>
<!-- Node4 -->
<g id="Node000004" class="node">
<title>Node4</title>
<g id="a_Node000004"><a xlink:href="types_8js.html#a2b734c673a8da9ce3aeb2baf920fde24" target="_top" xlink:title=" ">
<polygon fill="white" stroke="#666666" points="192.88,-96 134.12,-96 134.12,-76 192.88,-76 192.88,-96"/>
<text xml:space="preserve" text-anchor="middle" x="163.5" y="-82.5" font-family="Helvetica,sans-Serif" font-size="10.00">DataView</text>
</a>
</g>
</g>
<!-- Node1&#45;&gt;Node4 -->
<g id="edge4_Node000001_Node000004" class="edge">
<title>Node1&#45;&gt;Node4</title>
<g id="a_edge4_Node000001_Node000004"><a xlink:title=" ">
<path fill="none" stroke="#63b8ff" d="M226.09,-74.24C215.17,-76.32 203.45,-78.56 193.19,-80.52"/>
<polygon fill="#63b8ff" stroke="#63b8ff" points="226.42,-77.74 235.59,-72.43 225.11,-70.86 226.42,-77.74"/>
</a>
</g>
</g>
<!-- Node5 -->
<g id="Node000005" class="node">
<title>Node5</title>
<g id="a_Node000005"><a xlink:href="types_8js.html#a0f17c28b964a5d8aff5b2119c92a6665" target="_top" xlink:title=" ">
<polygon fill="white" stroke="#666666" points="197,-58 130,-58 130,-38 197,-38 197,-58"/>
<text xml:space="preserve" text-anchor="middle" x="163.5" y="-44.5" font-family="Helvetica,sans-Serif" font-size="10.00">makeGetter</text>
</a>
</g>
</g>
<!-- Node1&#45;&gt;Node5 -->
<g id="edge5_Node000001_Node000005" class="edge">
<title>Node1&#45;&gt;Node5</title>
<g id="a_edge5_Node000001_Node000005"><a xlink:title=" ">
<path fill="none" stroke="#63b8ff" d="M226,-59.74C216.61,-57.95 206.62,-56.04 197.48,-54.3"/>
<polygon fill="#63b8ff" stroke="#63b8ff" points="225.11,-63.14 235.59,-61.57 226.42,-56.26 225.11,-63.14"/>
</a>
</g>
</g>
<!-- Node6 -->
<g id="Node000006" class="node">
<title>Node6</title>
<g id="a_Node000006"><a xlink:href="types_8js.html#a6b2e76ac5cceebd8392568094c075859" target="_top" xlink:title=" ">
<polygon fill="white" stroke="#666666" points="196.62,-20 130.38,-20 130.38,0 196.62,0 196.62,-20"/>
<text xml:space="preserve" text-anchor="middle" x="163.5" y="-6.5" font-family="Helvetica,sans-Serif" font-size="10.00">makeSetter</text>
</a>
</g>
</g>
<!-- Node1&#45;&gt;Node6 -->
<g id="edge6_Node000001_Node000006" class="edge">
<title>Node1&#45;&gt;Node6</title>
<g id="a_edge6_Node000001_Node000006"><a xlink:title=" ">
<path fill="none" stroke="#63b8ff" d="M237.94,-50.58C226.82,-43.72 213.63,-35.79 201.5,-29 196.33,-26.11 190.68,-23.12 185.38,-20.39"/>
<polygon fill="#63b8ff" stroke="#63b8ff" points="235.85,-53.41 246.19,-55.71 239.55,-47.46 235.85,-53.41"/>
</a>
</g>
</g>
<!-- Node2&#45;&gt;Node2 -->
<g id="edge2_Node000002_Node000002" class="edge">
<title>Node2&#45;&gt;Node2</title>
<g id="a_edge2_Node000002_Node000002"><a xlink:title=" ">
<path fill="none" stroke="#63b8ff" d="M181.44,-145.44C179.13,-149.3 173.15,-152 163.5,-152 145.86,-152 140.48,-142.98 147.37,-134.34"/>
<polygon fill="#63b8ff" stroke="#63b8ff" points="184.94,-145.14 179.87,-135.83 178.03,-146.27 184.94,-145.14"/>
</a>
</g>
</g>
<!-- Node3 -->
<g id="Node000003" class="node">
<title>Node3</title>
<g id="a_Node000003"><a xlink:href="types_8js.html#af90abc9967401ef54baa12b3a44eb162" target="_top" xlink:title=" ">
<polygon fill="white" stroke="#666666" points="89.5,-134 0,-134 0,-114 89.5,-114 89.5,-134"/>
<text xml:space="preserve" text-anchor="middle" x="44.75" y="-120.5" font-family="Helvetica,sans-Serif" font-size="10.00">makeTypedArray</text>
</a>
</g>
</g>
<!-- Node2&#45;&gt;Node3 -->
<g id="edge3_Node000002_Node000003" class="edge">
<title>Node2&#45;&gt;Node3</title>
<g id="a_edge3_Node000002_Node000003"><a xlink:title=" ">
<path fill="none" stroke="#63b8ff" d="M113.89,-124C105.97,-124 97.8,-124 90,-124"/>
<polygon fill="#63b8ff" stroke="#63b8ff" points="113.73,-127.5 123.73,-124 113.72,-120.5 113.73,-127.5"/>
</a>
</g>
</g>
</g>
</svg>
