<?xml version="1.0" encoding="UTF-8" standalone="no"?>
<!DOCTYPE svg PUBLIC "-//W3C//DTD SVG 1.1//EN"
 "http://www.w3.org/Graphics/SVG/1.1/DTD/svg11.dtd">
<!-- Generated by graphviz version 13.1.2 (20250808.2320)
 -->
<!-- Title: unpackIEEE754 Pages: 1 -->
<svg width="159pt" height="104pt"
 viewBox="0.00 0.00 159.00 104.00" xmlns="http://www.w3.org/2000/svg" xmlns:xlink="http://www.w3.org/1999/xlink">

<svg id="main" version="1.1" xmlns="http://www.w3.org/2000/svg" xmlns:xlink="http://www.w3.org/1999/xlink" xml:space="preserve">

<style type="text/css"><![CDATA[
.node, .edge {opacity: 0.7;}
.node.selected, .edge.selected {opacity: 1;}
.edge:hover path { stroke: red; }
.edge:hover polygon { stroke: red; fill: red; }
]]></style>
<script type="application/ecmascript" xlink:href="svg.min.js"/>
<svg id="graph" class="graph">
<g id="graph0" class="graph" transform="scale(1 1) rotate(0) translate(4 100)">
<title>unpackIEEE754</title>
<!-- Node1 -->
<g id="Node000001" class="node">
<title>Node1</title>
<g id="a_Node000001"><a xlink:title=" ">
<polygon fill="#999999" stroke="#666666" points="86.5,-58 0,-58 0,-38 86.5,-38 86.5,-58"/>
<text xml:space="preserve" text-anchor="middle" x="43.25" y="-44.5" font-family="Helvetica,sans-Serif" font-size="10.00">unpackIEEE754</text>
</a>
</g>
</g>
<!-- Node2 -->
<g id="Node000002" class="node">
<title>Node2</title>
<g id="a_Node000002"><a xlink:href="leaflet_8js.html#a73aff07b65d7c0b09ccf6b4c4f1b7a9d" target="_top" xlink:title=" ">
<polygon fill="white" stroke="#666666" points="151.3,-96 122.5,-96 122.5,-76 151.3,-76 151.3,-96"/>
<text xml:space="preserve" text-anchor="middle" x="136.9" y="-82.5" font-family="Helvetica,sans-Serif" font-size="10.00">i</text>
</a>
</g>
</g>
<!-- Node1&#45;&gt;Node2 -->
<g id="edge1_Node000001_Node000002" class="edge">
<title>Node1&#45;&gt;Node2</title>
<g id="a_edge1_Node000001_Node000002"><a xlink:title=" ">
<path fill="none" stroke="#63b8ff" d="M69.29,-58.38C82.49,-63.86 98.61,-70.54 111.69,-75.96"/>
<polygon fill="#63b8ff" stroke="#63b8ff" points="110.26,-79.16 120.84,-79.76 112.95,-72.69 110.26,-79.16"/>
</a>
</g>
</g>
<!-- Node3 -->
<g id="Node000003" class="node">
<title>Node3</title>
<g id="a_Node000003"><a xlink:href="leaflet_8js.html#afa3c32d9f7f168b0e59ddc33ec31bb84" target="_top" xlink:title=" ">
<polygon fill="white" stroke="#666666" points="151.3,-58 122.5,-58 122.5,-38 151.3,-38 151.3,-58"/>
<text xml:space="preserve" text-anchor="middle" x="136.9" y="-44.5" font-family="Helvetica,sans-Serif" font-size="10.00">j</text>
</a>
</g>
</g>
<!-- Node1&#45;&gt;Node3 -->
<g id="edge2_Node000001_Node000003" class="edge">
<title>Node1&#45;&gt;Node3</title>
<g id="a_edge2_Node000001_Node000003"><a xlink:title=" ">
<path fill="none" stroke="#63b8ff" d="M86.86,-48C95,-48 103.28,-48 110.66,-48"/>
<polygon fill="#63b8ff" stroke="#63b8ff" points="110.54,-51.5 120.54,-48 110.54,-44.5 110.54,-51.5"/>
</a>
</g>
</g>
<!-- Node4 -->
<g id="Node000004" class="node">
<title>Node4</title>
<g id="a_Node000004"><a xlink:href="leaflet_8js.html#af1ca895898688e63b5f816c8255fb77d" target="_top" xlink:title=" ">
<polygon fill="white" stroke="#666666" points="151.3,-20 122.5,-20 122.5,0 151.3,0 151.3,-20"/>
<text xml:space="preserve" text-anchor="middle" x="136.9" y="-6.5" font-family="Helvetica,sans-Serif" font-size="10.00">s</text>
</a>
</g>
</g>
<!-- Node1&#45;&gt;Node4 -->
<g id="edge3_Node000001_Node000004" class="edge">
<title>Node1&#45;&gt;Node4</title>
<g id="a_edge3_Node000001_Node000004"><a xlink:title=" ">
<path fill="none" stroke="#63b8ff" d="M69.29,-37.62C82.49,-32.14 98.61,-25.46 111.69,-20.04"/>
<polygon fill="#63b8ff" stroke="#63b8ff" points="112.95,-23.31 120.84,-16.24 110.26,-16.84 112.95,-23.31"/>
</a>
</g>
</g>
</g>
</svg>
</svg>

<style type='text/css'>
<![CDATA[
[data-mouse-over-selected='false'] { opacity: 0.7; }
[data-mouse-over-selected='true']  { opacity: 1.0; }
]]>
</style>
<script type="application/ecmascript"><![CDATA[
document.addEventListener('DOMContentLoaded', (event) => {
  highlightEdges();
  highlightAdjacentNodes();
});
]]></script>
</svg>
