<?xml version="1.0" encoding="UTF-8" standalone="no"?>
<!DOCTYPE svg PUBLIC "-//W3C//DTD SVG 1.1//EN"
 "http://www.w3.org/Graphics/SVG/1.1/DTD/svg11.dtd">
<!-- Generated by graphviz version 13.1.2 (20250808.2320)
 -->
<!-- Title: packF64 Pages: 1 -->
<svg width="238pt" height="142pt"
 viewBox="0.00 0.00 238.00 142.00" xmlns="http://www.w3.org/2000/svg" xmlns:xlink="http://www.w3.org/1999/xlink">

<svg id="main" version="1.1" xmlns="http://www.w3.org/2000/svg" xmlns:xlink="http://www.w3.org/1999/xlink" xml:space="preserve">

<style type="text/css"><![CDATA[
.node, .edge {opacity: 0.7;}
.node.selected, .edge.selected {opacity: 1;}
.edge:hover path { stroke: red; }
.edge:hover polygon { stroke: red; fill: red; }
]]></style>
<script type="application/ecmascript" xlink:href="svg.min.js"/>
<svg id="graph" class="graph">
<g id="graph0" class="graph" transform="scale(1 1) rotate(0) translate(4 138)">
<title>packF64</title>
<!-- Node1 -->
<g id="Node000001" class="node">
<title>Node1</title>
<g id="a_Node000001"><a xlink:title=" ">
<polygon fill="#999999" stroke="#666666" points="53.5,-39 0,-39 0,-19 53.5,-19 53.5,-39"/>
<text xml:space="preserve" text-anchor="middle" x="26.75" y="-25.5" font-family="Helvetica,sans-Serif" font-size="10.00">packF64</text>
</a>
</g>
</g>
<!-- Node2 -->
<g id="Node000002" class="node">
<title>Node2</title>
<g id="a_Node000002"><a xlink:href="types_8js.html#ac517fb9ca2f601a25315b53bcf344421" target="_top" xlink:title=" ">
<polygon fill="white" stroke="#666666" points="165.5,-58 89.5,-58 89.5,-38 165.5,-38 165.5,-58"/>
<text xml:space="preserve" text-anchor="middle" x="127.5" y="-44.5" font-family="Helvetica,sans-Serif" font-size="10.00">packIEEE754</text>
</a>
</g>
</g>
<!-- Node1&#45;&gt;Node2 -->
<g id="edge1_Node000001_Node000002" class="edge">
<title>Node1&#45;&gt;Node2</title>
<g id="a_edge1_Node000001_Node000002"><a xlink:title=" ">
<path fill="none" stroke="#63b8ff" d="M53.95,-34.04C61.34,-35.46 69.62,-37.06 77.87,-38.64"/>
<polygon fill="#63b8ff" stroke="#63b8ff" points="77.05,-42.05 87.53,-40.5 78.37,-35.18 77.05,-42.05"/>
</a>
</g>
</g>
<!-- Node5 -->
<g id="Node000005" class="node">
<title>Node5</title>
<g id="a_Node000005"><a xlink:href="leaflet_8js.html#a68bde8ea3a92a44f147823a6b968a199" target="_top" xlink:title=" ">
<polygon fill="white" stroke="#666666" points="230.3,-20 201.5,-20 201.5,0 230.3,0 230.3,-20"/>
<text xml:space="preserve" text-anchor="middle" x="215.9" y="-6.5" font-family="Helvetica,sans-Serif" font-size="10.00">v</text>
</a>
</g>
</g>
<!-- Node1&#45;&gt;Node5 -->
<g id="edge6_Node000001_Node000005" class="edge">
<title>Node1&#45;&gt;Node5</title>
<g id="a_edge6_Node000001_Node000005"><a xlink:title=" ">
<path fill="none" stroke="#63b8ff" d="M53.77,-26.36C89.89,-22.69 154.76,-16.11 190.17,-12.51"/>
<polygon fill="#63b8ff" stroke="#63b8ff" points="190.27,-16.02 199.87,-11.53 189.57,-9.05 190.27,-16.02"/>
</a>
</g>
</g>
<!-- Node3 -->
<g id="Node000003" class="node">
<title>Node3</title>
<g id="a_Node000003"><a xlink:href="leaflet_8js.html#a73aff07b65d7c0b09ccf6b4c4f1b7a9d" target="_top" xlink:title=" ">
<polygon fill="white" stroke="#666666" points="230.3,-134 201.5,-134 201.5,-114 230.3,-114 230.3,-134"/>
<text xml:space="preserve" text-anchor="middle" x="215.9" y="-120.5" font-family="Helvetica,sans-Serif" font-size="10.00">i</text>
</a>
</g>
</g>
<!-- Node2&#45;&gt;Node3 -->
<g id="edge2_Node000002_Node000003" class="edge">
<title>Node2&#45;&gt;Node3</title>
<g id="a_edge2_Node000002_Node000003"><a xlink:title=" ">
<path fill="none" stroke="#63b8ff" d="M140.15,-58.25C154.07,-70.49 177.58,-91.17 194.52,-106.08"/>
<polygon fill="#63b8ff" stroke="#63b8ff" points="192.2,-108.69 202.02,-112.67 196.82,-103.44 192.2,-108.69"/>
</a>
</g>
</g>
<!-- Node4 -->
<g id="Node000004" class="node">
<title>Node4</title>
<g id="a_Node000004"><a xlink:href="leaflet_8js.html#af1ca895898688e63b5f816c8255fb77d" target="_top" xlink:title=" ">
<polygon fill="white" stroke="#666666" points="230.3,-96 201.5,-96 201.5,-76 230.3,-76 230.3,-96"/>
<text xml:space="preserve" text-anchor="middle" x="215.9" y="-82.5" font-family="Helvetica,sans-Serif" font-size="10.00">s</text>
</a>
</g>
</g>
<!-- Node2&#45;&gt;Node4 -->
<g id="edge3_Node000002_Node000004" class="edge">
<title>Node2&#45;&gt;Node4</title>
<g id="a_edge3_Node000002_Node000004"><a xlink:title=" ">
<path fill="none" stroke="#63b8ff" d="M152.11,-58.38C164.12,-63.67 178.7,-70.08 190.78,-75.39"/>
<polygon fill="#63b8ff" stroke="#63b8ff" points="189.08,-78.47 199.64,-79.29 191.9,-72.06 189.08,-78.47"/>
</a>
</g>
</g>
<!-- Node2&#45;&gt;Node5 -->
<g id="edge4_Node000002_Node000005" class="edge">
<title>Node2&#45;&gt;Node5</title>
<g id="a_edge4_Node000002_Node000005"><a xlink:title=" ">
<path fill="none" stroke="#63b8ff" d="M152.11,-37.62C164.12,-32.33 178.7,-25.92 190.78,-20.61"/>
<polygon fill="#63b8ff" stroke="#63b8ff" points="191.9,-23.94 199.64,-16.71 189.08,-17.53 191.9,-23.94"/>
</a>
</g>
</g>
<!-- Node6 -->
<g id="Node000006" class="node">
<title>Node6</title>
<g id="a_Node000006"><a xlink:href="leaflet_8js.html#a1d65f9ed6dcf047a15e74bf42381d1b3" target="_top" xlink:title=" ">
<polygon fill="white" stroke="#666666" points="230.3,-58 201.5,-58 201.5,-38 230.3,-38 230.3,-58"/>
<text xml:space="preserve" text-anchor="middle" x="215.9" y="-44.5" font-family="Helvetica,sans-Serif" font-size="10.00">w</text>
</a>
</g>
</g>
<!-- Node2&#45;&gt;Node6 -->
<g id="edge5_Node000002_Node000006" class="edge">
<title>Node2&#45;&gt;Node6</title>
<g id="a_edge5_Node000002_Node000006"><a xlink:title=" ">
<path fill="none" stroke="#63b8ff" d="M165.89,-48C174.06,-48 182.5,-48 190.03,-48"/>
<polygon fill="#63b8ff" stroke="#63b8ff" points="189.77,-51.5 199.77,-48 189.77,-44.5 189.77,-51.5"/>
</a>
</g>
</g>
</g>
</svg>
</svg>

<style type='text/css'>
<![CDATA[
[data-mouse-over-selected='false'] { opacity: 0.7; }
[data-mouse-over-selected='true']  { opacity: 1.0; }
]]>
</style>
<script type="application/ecmascript"><![CDATA[
document.addEventListener('DOMContentLoaded', (event) => {
  highlightEdges();
  highlightAdjacentNodes();
});
]]></script>
</svg>
