<?xml version="1.0" encoding="UTF-8" standalone="no"?>
<!DOCTYPE svg PUBLIC "-//W3C//DTD SVG 1.1//EN"
 "http://www.w3.org/Graphics/SVG/1.1/DTD/svg11.dtd">
<!-- Generated by graphviz version 13.1.2 (20250808.2320)
 -->
<!-- Title: packIEEE754 Pages: 1 -->
<svg width="149pt" height="142pt"
 viewBox="0.00 0.00 149.00 142.00" xmlns="http://www.w3.org/2000/svg" xmlns:xlink="http://www.w3.org/1999/xlink">

<svg id="main" version="1.1" xmlns="http://www.w3.org/2000/svg" xmlns:xlink="http://www.w3.org/1999/xlink" xml:space="preserve">

<style type="text/css"><![CDATA[
.node, .edge {opacity: 0.7;}
.node.selected, .edge.selected {opacity: 1;}
.edge:hover path { stroke: red; }
.edge:hover polygon { stroke: red; fill: red; }
]]></style>
<script type="application/ecmascript" xlink:href="svg.min.js"/>
<svg id="graph" class="graph">
<g id="graph0" class="graph" transform="scale(1 1) rotate(0) translate(4 138)">
<title>packIEEE754</title>
<!-- Node1 -->
<g id="Node000001" class="node">
<title>Node1</title>
<g id="a_Node000001"><a xlink:title=" ">
<polygon fill="#999999" stroke="#666666" points="76,-77 0,-77 0,-57 76,-57 76,-77"/>
<text xml:space="preserve" text-anchor="middle" x="38" y="-63.5" font-family="Helvetica,sans-Serif" font-size="10.00">packIEEE754</text>
</a>
</g>
</g>
<!-- Node2 -->
<g id="Node000002" class="node">
<title>Node2</title>
<g id="a_Node000002"><a xlink:href="leaflet_8js.html#a73aff07b65d7c0b09ccf6b4c4f1b7a9d" target="_top" xlink:title=" ">
<polygon fill="white" stroke="#666666" points="140.8,-134 112,-134 112,-114 140.8,-114 140.8,-134"/>
<text xml:space="preserve" text-anchor="middle" x="126.4" y="-120.5" font-family="Helvetica,sans-Serif" font-size="10.00">i</text>
</a>
</g>
</g>
<!-- Node1&#45;&gt;Node2 -->
<g id="edge1_Node000001_Node000002" class="edge">
<title>Node1&#45;&gt;Node2</title>
<g id="a_edge1_Node000001_Node000002"><a xlink:title=" ">
<path fill="none" stroke="#63b8ff" d="M54.85,-77.45C68.07,-86.18 87.09,-98.73 102.06,-108.6"/>
<polygon fill="#63b8ff" stroke="#63b8ff" points="100.11,-111.51 110.38,-114.09 103.96,-105.66 100.11,-111.51"/>
</a>
</g>
</g>
<!-- Node3 -->
<g id="Node000003" class="node">
<title>Node3</title>
<g id="a_Node000003"><a xlink:href="leaflet_8js.html#af1ca895898688e63b5f816c8255fb77d" target="_top" xlink:title=" ">
<polygon fill="white" stroke="#666666" points="140.8,-96 112,-96 112,-76 140.8,-76 140.8,-96"/>
<text xml:space="preserve" text-anchor="middle" x="126.4" y="-82.5" font-family="Helvetica,sans-Serif" font-size="10.00">s</text>
</a>
</g>
</g>
<!-- Node1&#45;&gt;Node3 -->
<g id="edge2_Node000001_Node000003" class="edge">
<title>Node1&#45;&gt;Node3</title>
<g id="a_edge2_Node000001_Node000003"><a xlink:title=" ">
<path fill="none" stroke="#63b8ff" d="M76.39,-75.22C84.65,-77.04 93.2,-78.92 100.8,-80.59"/>
<polygon fill="#63b8ff" stroke="#63b8ff" points="99.79,-83.95 110.31,-82.68 101.29,-77.11 99.79,-83.95"/>
</a>
</g>
</g>
<!-- Node4 -->
<g id="Node000004" class="node">
<title>Node4</title>
<g id="a_Node000004"><a xlink:href="leaflet_8js.html#a68bde8ea3a92a44f147823a6b968a199" target="_top" xlink:title=" ">
<polygon fill="white" stroke="#666666" points="140.8,-58 112,-58 112,-38 140.8,-38 140.8,-58"/>
<text xml:space="preserve" text-anchor="middle" x="126.4" y="-44.5" font-family="Helvetica,sans-Serif" font-size="10.00">v</text>
</a>
</g>
</g>
<!-- Node1&#45;&gt;Node4 -->
<g id="edge3_Node000001_Node000004" class="edge">
<title>Node1&#45;&gt;Node4</title>
<g id="a_edge3_Node000001_Node000004"><a xlink:title=" ">
<path fill="none" stroke="#63b8ff" d="M76.39,-58.78C84.65,-56.96 93.2,-55.08 100.8,-53.41"/>
<polygon fill="#63b8ff" stroke="#63b8ff" points="101.29,-56.89 110.31,-51.32 99.79,-50.05 101.29,-56.89"/>
</a>
</g>
</g>
<!-- Node5 -->
<g id="Node000005" class="node">
<title>Node5</title>
<g id="a_Node000005"><a xlink:href="leaflet_8js.html#a1d65f9ed6dcf047a15e74bf42381d1b3" target="_top" xlink:title=" ">
<polygon fill="white" stroke="#666666" points="140.8,-20 112,-20 112,0 140.8,0 140.8,-20"/>
<text xml:space="preserve" text-anchor="middle" x="126.4" y="-6.5" font-family="Helvetica,sans-Serif" font-size="10.00">w</text>
</a>
</g>
</g>
<!-- Node1&#45;&gt;Node5 -->
<g id="edge4_Node000001_Node000005" class="edge">
<title>Node1&#45;&gt;Node5</title>
<g id="a_edge4_Node000001_Node000005"><a xlink:title=" ">
<path fill="none" stroke="#63b8ff" d="M54.85,-56.55C68.07,-47.82 87.09,-35.27 102.06,-25.4"/>
<polygon fill="#63b8ff" stroke="#63b8ff" points="103.96,-28.34 110.38,-19.91 100.11,-22.49 103.96,-28.34"/>
</a>
</g>
</g>
</g>
</svg>
</svg>

<style type='text/css'>
<![CDATA[
[data-mouse-over-selected='false'] { opacity: 0.7; }
[data-mouse-over-selected='true']  { opacity: 1.0; }
]]>
</style>
<script type="application/ecmascript"><![CDATA[
document.addEventListener('DOMContentLoaded', (event) => {
  highlightEdges();
  highlightAdjacentNodes();
});
]]></script>
</svg>
